<svg version="1.1" xmlns="http://www.w3.org/2000/svg" viewBox="0 0 648.774658203125 316.10784912109375" width="648.774658203125" height="316.10784912109375" filter="invert(93%) hue-rotate(180deg)">
  <!-- svg-source:excalidraw -->
  
  <defs>
    <style class="style-fonts">
      @font-face {
        font-family: "Virgil";
        src: url("https://excalidraw.com/Virgil.woff2");
      }
      @font-face {
        font-family: "Cascadia";
        src: url("https://excalidraw.com/Cascadia.woff2");
      }
    </style>
  </defs>
  <rect x="0" y="0" width="648.774658203125" height="316.10784912109375" fill="transparent"/><g transform="translate(168.37518310546875 137.8363494873047) rotate(0 -14.94952392578125 23.572296142578125)" stroke="none"><path fill="#000000" d="M -0.21,1.82 Q -0.21,1.82 -4.27,1.77 -8.32,1.72 -11.05,2.65 -13.79,3.59 -15.73,4.92 -17.67,6.26 -18.29,7.41 -18.91,8.55 -18.29,9.98 -17.67,11.40 -16.36,13.62 -15.06,15.85 -13.30,18.78 -11.53,21.72 -9.98,25.06 -8.43,28.40 -7.51,32.03 -6.59,35.66 -7.15,39.49 -7.71,43.31 -10.11,46.10 -12.51,48.89 -16.00,49.51 -19.48,50.13 -22.76,48.84 -26.03,47.56 -26.04,44.76 -26.04,41.95 -26.17,41.87 -26.31,41.79 -26.42,41.68 -26.53,41.57 -26.61,41.43 -26.70,41.29 -26.74,41.14 -26.79,40.99 -26.80,40.83 -26.81,40.68 -26.78,40.52 -26.75,40.36 -26.69,40.22 -26.62,40.08 -26.52,39.95 -26.42,39.83 -26.30,39.73 -26.18,39.63 -26.03,39.57 -25.89,39.50 -25.73,39.47 -25.58,39.45 -25.42,39.46 -25.26,39.46 -25.11,39.51 -24.96,39.56 -25.29,39.50 -25.63,39.45 -25.41,39.46 -25.20,39.48 -25.01,39.56 -24.81,39.64 -24.65,39.78 -24.49,39.92 -24.38,40.10 -24.27,40.28 -24.23,40.49 -24.19,40.70 -24.21,40.91 -24.24,41.12 -24.33,41.31 -24.42,41.50 -24.57,41.66 -24.71,41.81 -24.90,41.91 -25.09,42.01 -25.30,42.04 -25.51,42.07 -25.72,42.03 -25.93,42.00 -26.12,41.90 -26.30,41.79 -26.45,41.64 -26.59,41.48 -26.68,41.29 -26.77,41.09 -26.79,40.88 -26.81,40.67 -26.76,40.46 -26.71,40.26 -26.60,40.08 -26.49,39.90 -26.33,39.76 -26.16,39.62 -25.96,39.55 -25.77,39.47 -25.55,39.46 -25.34,39.45 -25.14,39.51 -24.93,39.57 -24.76,39.69 -24.58,39.81 -24.46,39.98 -24.33,40.15 -24.27,40.36 -24.20,40.56 -24.20,40.77 -24.20,40.98 -24.27,41.18 -24.34,41.38 -24.47,41.55 -24.60,41.72 -24.78,41.84 -24.96,41.95 -25.50,41.95 -26.04,41.95 -26.17,41.87 -26.31,41.79 -26.42,41.68 -26.53,41.57 -26.61,41.43 -26.70,41.29 -26.74,41.14 -26.79,40.99 -26.80,40.83 -26.81,40.68 -26.78,40.52 -26.75,40.36 -26.69,40.22 -26.62,40.08 -26.52,39.95 -26.43,39.83 -26.30,39.73 -26.18,39.63 -26.03,39.57 -25.89,39.50 -25.73,39.47 -25.58,39.45 -25.42,39.46 -25.26,39.46 -25.11,39.51 -24.96,39.56 -23.97,40.26 -22.98,40.97 -21.31,41.92 -19.64,42.86 -18.16,43.06 -16.68,43.26 -15.68,42.35 -14.68,41.44 -14.19,39.28 -13.69,37.11 -14.32,34.21 -14.96,31.31 -16.26,28.30 -17.57,25.29 -19.37,22.19 -21.18,19.10 -22.77,15.87 -24.36,12.64 -24.52,9.42 -24.68,6.21 -22.90,3.66 -21.13,1.10 -18.24,-0.50 -15.36,-2.11 -11.59,-2.87 -7.83,-3.63 -3.80,-2.73 0.21,-1.82 0.43,-1.77 0.64,-1.72 0.84,-1.62 1.04,-1.51 1.20,-1.37 1.37,-1.22 1.50,-1.04 1.62,-0.85 1.70,-0.65 1.78,-0.44 1.81,-0.22 1.84,-0.00 1.81,0.21 1.78,0.43 1.71,0.64 1.63,0.85 1.50,1.03 1.38,1.21 1.21,1.36 1.04,1.51 0.85,1.61 0.65,1.71 0.44,1.77 0.22,1.82 0.00,1.82 -0.21,1.82 -0.21,1.82 L -0.21,1.82 Z"/></g><g transform="translate(184.02398681640625 164.07215881347656) rotate(0 16.31463623046875 0.0333099365234375)" stroke="none"><path fill="#000000" d="M 0.24,-1.78 Q 0.24,-1.78 2.74,-1.66 5.24,-1.54 8.28,-1.47 11.32,-1.41 14.76,-1.75 18.21,-2.10 22.00,-2.29 25.80,-2.48 28.55,-2.40 31.31,-2.32 31.52,-2.31 31.73,-2.29 31.93,-2.21 32.12,-2.13 32.28,-1.99 32.44,-1.85 32.55,-1.67 32.66,-1.48 32.70,-1.27 32.74,-1.07 32.72,-0.86 32.69,-0.64 32.60,-0.45 32.51,-0.26 32.36,-0.11 32.21,0.03 32.02,0.13 31.83,0.23 31.62,0.26 31.41,0.29 31.20,0.25 30.99,0.21 30.81,0.11 30.62,0.01 30.48,-0.14 30.33,-0.29 30.25,-0.49 30.16,-0.68 30.14,-0.89 30.12,-1.10 30.17,-1.31 30.22,-1.52 30.33,-1.70 30.44,-1.88 30.61,-2.01 30.77,-2.15 30.97,-2.22 31.17,-2.30 31.38,-2.31 31.59,-2.32 31.80,-2.26 32.00,-2.20 32.17,-2.08 32.35,-1.95 32.47,-1.78 32.60,-1.61 32.66,-1.41 32.73,-1.21 32.73,-1.00 32.72,-0.78 32.65,-0.58 32.58,-0.38 32.45,-0.22 32.32,-0.05 32.14,0.06 31.97,0.18 31.76,0.23 31.55,0.28 31.55,0.28 31.55,0.28 28.90,0.88 26.24,1.47 22.44,2.13 18.65,2.78 14.87,3.08 11.10,3.38 7.86,3.15 4.62,2.92 2.19,2.35 -0.24,1.78 -0.45,1.72 -0.66,1.67 -0.85,1.56 -1.04,1.46 -1.20,1.31 -1.36,1.17 -1.48,0.98 -1.60,0.80 -1.68,0.60 -1.75,0.39 -1.77,0.18 -1.80,-0.03 -1.77,-0.24 -1.74,-0.46 -1.66,-0.66 -1.58,-0.86 -1.45,-1.04 -1.32,-1.21 -1.16,-1.35 -0.99,-1.50 -0.80,-1.59 -0.60,-1.69 -0.39,-1.74 -0.18,-1.79 0.03,-1.78 0.24,-1.78 0.24,-1.78 L 0.24,-1.78 Z"/></g><g transform="translate(266.19659423828125 146.15989685058594) rotate(0 -12.98516845703125 19.610305786132812)" stroke="none"><path fill="#000000" d="M -0.78,1.50 Q -0.78,1.50 -3.80,0.22 -6.82,-1.05 -9.25,-1.47 -11.69,-1.89 -13.42,-1.72 -15.15,-1.55 -13.56,0.34 -11.98,2.23 -9.96,4.78 -7.94,7.33 -5.95,10.74 -3.97,14.16 -2.63,18.27 -1.30,22.39 -1.03,26.77 -0.75,31.15 -2.06,35.13 -3.36,39.11 -6.32,41.77 -9.27,44.44 -13.08,44.82 -16.88,45.20 -20.08,43.46 -23.28,41.73 -25.03,38.91 -26.79,36.08 -25.32,33.42 -23.84,30.76 -23.69,30.60 -23.55,30.45 -23.36,30.35 -23.17,30.26 -22.96,30.22 -22.75,30.19 -22.54,30.23 -22.33,30.27 -22.14,30.37 -21.96,30.47 -21.81,30.63 -21.67,30.78 -21.58,30.98 -21.49,31.17 -21.47,31.38 -21.45,31.59 -21.50,31.80 -21.55,32.01 -21.66,32.19 -21.77,32.37 -21.94,32.50 -22.10,32.64 -22.30,32.72 -22.50,32.79 -22.71,32.80 -22.92,32.81 -23.13,32.75 -23.33,32.69 -23.50,32.57 -23.68,32.45 -23.81,32.28 -23.93,32.11 -24.00,31.90 -24.06,31.70 -24.06,31.49 -24.06,31.28 -23.99,31.08 -23.92,30.88 -23.79,30.71 -23.66,30.54 -23.48,30.42 -23.30,30.31 -23.10,30.25 -22.89,30.20 -22.68,30.21 -22.47,30.23 -22.27,30.31 -22.07,30.39 -21.91,30.53 -21.75,30.67 -21.65,30.85 -21.54,31.03 -21.50,31.24 -21.45,31.45 -21.48,31.66 -21.50,31.87 -21.59,32.06 -21.69,32.26 -21.69,32.26 -21.69,32.26 -21.48,33.05 -21.27,33.85 -20.41,35.01 -19.55,36.17 -18.03,37.33 -16.51,38.49 -14.71,38.63 -12.91,38.77 -11.33,37.56 -9.74,36.35 -8.75,33.81 -7.75,31.27 -7.83,27.79 -7.91,24.32 -8.85,20.85 -9.79,17.38 -11.44,14.29 -13.09,11.20 -15.13,8.37 -17.17,5.53 -18.66,2.72 -20.15,-0.09 -20.00,-1.97 -19.85,-3.85 -17.64,-5.39 -15.44,-6.93 -13.00,-6.83 -10.56,-6.72 -7.68,-5.86 -4.81,-4.99 -2.01,-3.25 0.78,-1.50 0.95,-1.39 1.12,-1.27 1.25,-1.12 1.39,-0.97 1.49,-0.78 1.58,-0.60 1.63,-0.41 1.68,-0.21 1.68,-0.00 1.68,0.19 1.63,0.39 1.59,0.59 1.49,0.77 1.40,0.95 1.26,1.11 1.13,1.26 0.96,1.38 0.79,1.50 0.60,1.57 0.41,1.64 0.20,1.67 0.00,1.69 -0.19,1.67 -0.40,1.65 -0.59,1.57 -0.78,1.50 -0.78,1.50 L -0.78,1.50 Z"/></g><g transform="translate(293.2698974609375 166.7087860107422) rotate(0 14.88299560546875 0.898956298828125)" stroke="none"><path fill="#000000" d="M 0.29,-1.76 Q 0.29,-1.76 3.53,-1.40 6.78,-1.04 9.87,-0.88 12.96,-0.72 16.16,-0.90 19.36,-1.08 23.55,-1.12 27.75,-1.15 27.96,-1.14 28.18,-1.13 28.37,-1.06 28.57,-0.98 28.73,-0.84 28.90,-0.70 29.01,-0.52 29.12,-0.34 29.17,-0.13 29.21,0.06 29.19,0.27 29.17,0.49 29.08,0.68 28.99,0.87 28.85,1.03 28.70,1.18 28.52,1.28 28.33,1.38 28.12,1.42 27.91,1.46 27.70,1.42 27.49,1.39 27.30,1.29 27.11,1.19 26.97,1.04 26.82,0.89 26.73,0.69 26.64,0.50 26.61,0.29 26.59,0.08 26.63,-0.12 26.68,-0.33 26.79,-0.51 26.90,-0.69 27.06,-0.83 27.22,-0.97 27.42,-1.05 27.61,-1.13 27.82,-1.14 28.04,-1.15 28.24,-1.10 28.45,-1.04 28.62,-0.93 28.80,-0.81 28.93,-0.64 29.06,-0.47 29.13,-0.27 29.20,-0.07 29.20,0.13 29.20,0.35 29.13,0.55 29.07,0.75 28.94,0.92 28.81,1.09 28.63,1.21 28.46,1.33 28.26,1.39 28.05,1.45 28.05,1.45 28.05,1.45 23.82,2.38 19.58,3.31 16.14,3.47 12.71,3.63 9.39,3.41 6.08,3.19 2.89,2.47 -0.29,1.76 -0.50,1.70 -0.70,1.64 -0.89,1.53 -1.08,1.42 -1.23,1.27 -1.39,1.12 -1.50,0.94 -1.62,0.76 -1.68,0.55 -1.75,0.35 -1.77,0.13 -1.78,-0.07 -1.75,-0.29 -1.71,-0.50 -1.63,-0.70 -1.54,-0.90 -1.41,-1.07 -1.28,-1.24 -1.11,-1.38 -0.95,-1.51 -0.75,-1.60 -0.55,-1.70 -0.34,-1.74 -0.13,-1.78 0.07,-1.77 0.29,-1.76 0.29,-1.76 L 0.29,-1.76 Z"/></g><g transform="translate(378.37255859375 142.33738708496094) rotate(0 -14.0506591796875 22.506927490234375)" stroke="none"><path fill="#000000" d="M -0.59,1.63 Q -0.59,1.63 -3.74,0.76 -6.89,-0.11 -8.94,0.30 -10.98,0.71 -12.24,1.88 -13.51,3.05 -14.03,4.76 -14.55,6.47 -14.10,8.53 -13.65,10.58 -12.59,13.35 -11.53,16.12 -10.33,19.41 -9.14,22.70 -8.35,26.46 -7.55,30.22 -7.53,34.10 -7.50,37.97 -8.80,41.42 -10.09,44.87 -12.73,46.93 -15.37,48.99 -18.52,49.07 -21.67,49.16 -24.07,47.77 -26.48,46.37 -25.99,44.62 -25.51,42.87 -25.63,42.77 -25.75,42.67 -25.85,42.54 -25.94,42.41 -26.01,42.27 -26.07,42.12 -26.10,41.97 -26.12,41.81 -26.11,41.65 -26.10,41.50 -26.05,41.35 -26.00,41.20 -25.91,41.06 -25.83,40.93 -25.72,40.82 -25.60,40.71 -25.46,40.63 -25.33,40.55 -25.18,40.50 -25.02,40.46 -24.87,40.45 -24.71,40.44 -24.55,40.48 -24.40,40.51 -24.25,40.57 -24.11,40.64 -24.27,40.57 -24.43,40.50 -24.24,40.59 -24.05,40.68 -23.90,40.83 -23.75,40.98 -23.65,41.17 -23.56,41.36 -23.53,41.57 -23.50,41.78 -23.53,41.99 -23.57,42.20 -23.68,42.38 -23.78,42.57 -23.94,42.71 -24.09,42.86 -24.29,42.94 -24.48,43.03 -24.69,43.05 -24.91,43.06 -25.11,43.01 -25.32,42.96 -25.50,42.85 -25.68,42.74 -25.81,42.57 -25.95,42.41 -26.02,42.21 -26.10,42.01 -26.10,41.80 -26.11,41.59 -26.05,41.38 -25.99,41.18 -25.87,41.01 -25.74,40.83 -25.57,40.71 -25.40,40.58 -25.20,40.52 -25.00,40.45 -24.78,40.46 -24.57,40.46 -24.37,40.53 -24.17,40.61 -24.00,40.74 -23.84,40.87 -23.72,41.05 -23.61,41.23 -23.55,41.43 -23.50,41.64 -23.52,41.85 -23.53,42.06 -23.62,42.26 -23.70,42.45 -23.84,42.61 -23.98,42.77 -24.16,42.88 -24.35,42.98 -24.56,43.03 -24.76,43.07 -25.14,42.97 -25.51,42.87 -25.63,42.77 -25.75,42.67 -25.85,42.54 -25.94,42.41 -26.01,42.27 -26.07,42.12 -26.10,41.97 -26.12,41.81 -26.11,41.65 -26.10,41.50 -26.05,41.35 -26.00,41.20 -25.91,41.06 -25.83,40.93 -25.72,40.82 -25.60,40.71 -25.47,40.63 -25.33,40.55 -25.18,40.50 -25.02,40.46 -24.87,40.45 -24.71,40.44 -24.55,40.48 -24.40,40.51 -24.25,40.57 -24.11,40.64 -23.92,41.39 -23.72,42.14 -22.43,43.07 -21.15,43.99 -19.48,44.22 -17.81,44.44 -16.23,43.50 -14.66,42.55 -13.60,40.18 -12.54,37.82 -12.48,34.50 -12.42,31.18 -13.08,27.75 -13.73,24.32 -14.86,21.05 -15.99,17.77 -17.15,14.56 -18.32,11.34 -18.69,8.23 -19.05,5.12 -17.90,2.34 -16.74,-0.44 -14.34,-2.19 -11.93,-3.94 -8.75,-4.17 -5.58,-4.40 -2.49,-3.02 0.59,-1.63 0.77,-1.54 0.96,-1.44 1.12,-1.31 1.28,-1.17 1.40,-1.00 1.52,-0.83 1.60,-0.63 1.68,-0.44 1.71,-0.23 1.74,-0.02 1.71,0.18 1.69,0.39 1.62,0.58 1.55,0.78 1.43,0.96 1.32,1.13 1.16,1.27 1.01,1.41 0.82,1.51 0.64,1.61 0.43,1.67 0.23,1.72 0.02,1.72 -0.18,1.73 -0.38,1.68 -0.59,1.63 -0.59,1.63 L -0.59,1.63 Z"/></g><g transform="translate(395.2198486328125 169.03941345214844) rotate(0 18.77850341796875 0.2663421630859375)" stroke="none"><path fill="#000000" d="M 0.26,-1.63 Q 0.26,-1.63 2.66,-1.44 5.07,-1.25 7.65,-1.16 10.22,-1.07 13.24,-1.17 16.25,-1.28 19.28,-1.52 22.31,-1.76 25.25,-2.01 28.20,-2.26 31.99,-2.11 35.79,-1.96 36.00,-1.95 36.21,-1.93 36.41,-1.85 36.60,-1.76 36.76,-1.62 36.92,-1.48 37.02,-1.30 37.13,-1.11 37.17,-0.90 37.21,-0.69 37.18,-0.48 37.15,-0.27 37.06,-0.08 36.97,0.10 36.82,0.25 36.67,0.40 36.48,0.49 36.29,0.59 36.07,0.62 35.86,0.65 35.66,0.61 35.45,0.57 35.26,0.46 35.08,0.36 34.93,0.20 34.79,0.04 34.71,-0.14 34.62,-0.34 34.61,-0.55 34.59,-0.76 34.64,-0.97 34.69,-1.17 34.80,-1.35 34.92,-1.53 35.08,-1.66 35.25,-1.80 35.45,-1.87 35.65,-1.94 35.86,-1.95 36.07,-1.96 36.27,-1.90 36.48,-1.83 36.65,-1.71 36.82,-1.59 36.95,-1.41 37.07,-1.24 37.13,-1.04 37.20,-0.84 37.19,-0.62 37.19,-0.41 37.11,-0.21 37.04,-0.01 36.91,0.14 36.78,0.31 36.60,0.43 36.42,0.54 36.21,0.59 36.01,0.64 36.01,0.64 36.01,0.64 32.29,1.42 28.58,2.19 25.61,2.44 22.64,2.69 19.50,2.91 16.37,3.12 13.16,3.19 9.96,3.25 7.19,3.02 4.42,2.78 2.07,2.21 -0.26,1.63 -0.45,1.57 -0.64,1.52 -0.81,1.42 -0.99,1.32 -1.13,1.18 -1.28,1.04 -1.38,0.87 -1.49,0.71 -1.55,0.52 -1.62,0.33 -1.63,0.13 -1.65,-0.06 -1.62,-0.26 -1.58,-0.45 -1.51,-0.64 -1.43,-0.82 -1.31,-0.98 -1.19,-1.14 -1.03,-1.27 -0.88,-1.39 -0.70,-1.48 -0.52,-1.56 -0.33,-1.60 -0.13,-1.64 0.06,-1.64 0.26,-1.63 0.26,-1.63 L 0.26,-1.63 Z"/></g><g transform="translate(499.83349609375 146.1329803466797) rotate(0 -13.3846435546875 15.2154541015625)" stroke="none"><path fill="#000000" d="M -1.59,0.48 Q -1.59,0.48 -2.32,-1.60 -3.05,-3.70 -4.24,-4.90 -5.43,-6.11 -7.03,-6.78 -8.63,-7.45 -10.26,-7.76 -11.90,-8.07 -12.71,-7.18 -13.52,-6.29 -13.15,-4.80 -12.79,-3.32 -11.93,-0.73 -11.06,1.86 -9.93,5.20 -8.80,8.54 -7.96,12.35 -7.12,16.16 -6.78,20.32 -6.44,24.49 -7.00,28.35 -7.56,32.21 -9.04,35.12 -10.52,38.04 -12.95,39.81 -15.37,41.59 -18.26,41.46 -21.15,41.34 -23.20,39.81 -25.25,38.28 -26.02,35.61 -26.79,32.94 -26.90,32.83 -27.01,32.72 -27.09,32.58 -27.16,32.44 -27.21,32.29 -27.25,32.14 -27.26,31.98 -27.26,31.82 -27.23,31.66 -27.20,31.51 -27.13,31.37 -27.06,31.22 -26.96,31.10 -26.86,30.98 -26.74,30.88 -26.61,30.79 -26.46,30.73 -26.32,30.67 -26.16,30.64 -26.01,30.62 -25.85,30.63 -25.69,30.64 -25.54,30.69 -25.39,30.74 -25.26,30.83 -25.12,30.91 -25.71,30.79 -26.30,30.66 -26.09,30.64 -25.87,30.62 -25.67,30.67 -25.46,30.71 -25.28,30.82 -25.10,30.93 -24.96,31.10 -24.82,31.26 -24.75,31.46 -24.67,31.66 -24.66,31.87 -24.65,32.08 -24.71,32.29 -24.77,32.49 -24.89,32.66 -25.01,32.84 -25.18,32.97 -25.35,33.09 -25.55,33.16 -25.75,33.23 -25.97,33.22 -26.18,33.22 -26.38,33.15 -26.58,33.08 -26.75,32.95 -26.92,32.82 -27.03,32.65 -27.15,32.47 -27.21,32.27 -27.26,32.06 -27.25,31.85 -27.24,31.64 -27.16,31.44 -27.08,31.24 -26.94,31.08 -26.80,30.92 -26.61,30.81 -26.43,30.70 -26.22,30.66 -26.02,30.62 -25.81,30.64 -25.59,30.67 -25.40,30.76 -25.21,30.85 -25.06,30.99 -24.90,31.14 -24.81,31.33 -24.71,31.52 -24.67,31.73 -24.64,31.94 -24.68,32.15 -24.71,32.36 -24.82,32.54 -24.92,32.73 -25.07,32.88 -25.23,33.02 -26.01,32.98 -26.79,32.94 -26.90,32.83 -27.01,32.72 -27.09,32.58 -27.16,32.44 -27.21,32.29 -27.25,32.14 -27.26,31.98 -27.26,31.82 -27.23,31.67 -27.20,31.51 -27.13,31.37 -27.06,31.22 -26.96,31.10 -26.86,30.98 -26.74,30.88 -26.61,30.79 -26.46,30.73 -26.32,30.67 -26.16,30.64 -26.01,30.62 -25.85,30.63 -25.69,30.64 -25.54,30.69 -25.39,30.74 -25.26,30.83 -25.12,30.91 -23.65,32.78 -22.17,34.66 -21.18,35.63 -20.18,36.60 -18.78,36.96 -17.37,37.31 -16.01,36.43 -14.65,35.55 -13.43,33.47 -12.22,31.39 -11.66,28.10 -11.10,24.81 -11.37,20.98 -11.64,17.15 -12.41,13.58 -13.19,10.02 -14.32,6.65 -15.45,3.27 -16.40,0.25 -17.35,-2.76 -17.47,-5.40 -17.60,-8.04 -16.40,-9.74 -15.21,-11.43 -13.22,-12.01 -11.23,-12.59 -8.88,-12.01 -6.54,-11.43 -4.43,-10.11 -2.33,-8.79 -0.94,-6.83 0.44,-4.87 1.02,-2.67 1.59,-0.48 1.62,-0.28 1.66,-0.08 1.64,0.11 1.63,0.31 1.57,0.50 1.51,0.69 1.40,0.86 1.30,1.03 1.16,1.17 1.01,1.31 0.84,1.42 0.67,1.52 0.48,1.58 0.28,1.64 0.08,1.65 -0.11,1.66 -0.31,1.62 -0.50,1.58 -0.68,1.50 -0.87,1.41 -1.02,1.29 -1.18,1.16 -1.30,1.01 -1.43,0.85 -1.51,0.66 -1.59,0.48 -1.59,0.48 L -1.59,0.48 Z"/></g><g transform="translate(509.1895751953125 74.979248046875) rotate(0 -3.26287841796875 18.57818603515625)" stroke="none"><path fill="#000000" d="M 1.69,0.28 Q 1.69,0.28 1.36,3.51 1.03,6.74 0.37,10.22 -0.28,13.69 -1.04,17.53 -1.79,21.36 -2.39,24.72 -3.00,28.08 -3.62,30.57 -4.24,33.07 -4.68,34.80 -5.12,36.53 -5.18,36.74 -5.24,36.94 -5.36,37.11 -5.48,37.29 -5.66,37.41 -5.83,37.54 -6.03,37.60 -6.23,37.67 -6.44,37.66 -6.66,37.66 -6.86,37.59 -7.06,37.52 -7.22,37.39 -7.39,37.26 -7.51,37.08 -7.62,36.90 -7.68,36.69 -7.73,36.49 -7.71,36.28 -7.70,36.06 -7.62,35.87 -7.54,35.67 -7.40,35.51 -7.25,35.35 -7.07,35.25 -6.89,35.14 -6.68,35.10 -6.47,35.06 -6.26,35.08 -6.05,35.11 -5.86,35.20 -5.67,35.29 -5.51,35.44 -5.36,35.59 -5.27,35.78 -5.17,35.97 -5.14,36.18 -5.11,36.39 -5.15,36.60 -5.18,36.81 -5.29,37.00 -5.39,37.18 -5.55,37.33 -5.70,37.47 -5.90,37.55 -6.09,37.64 -6.30,37.66 -6.52,37.68 -6.72,37.63 -6.93,37.58 -7.11,37.47 -7.29,37.36 -7.42,37.19 -7.56,37.03 -7.63,36.83 -7.71,36.63 -7.72,36.42 -7.73,36.20 -7.73,36.20 -7.73,36.20 -7.72,34.39 -7.71,32.57 -7.59,29.93 -7.47,27.28 -6.88,23.86 -6.29,20.44 -5.48,16.62 -4.68,12.79 -3.92,9.41 -3.17,6.04 -2.43,2.87 -1.69,-0.28 -1.63,-0.48 -1.57,-0.68 -1.47,-0.85 -1.36,-1.03 -1.22,-1.18 -1.07,-1.33 -0.90,-1.44 -0.72,-1.55 -0.53,-1.61 -0.33,-1.68 -0.12,-1.69 0.07,-1.71 0.28,-1.67 0.48,-1.64 0.67,-1.56 0.86,-1.48 1.02,-1.35 1.19,-1.23 1.32,-1.07 1.45,-0.90 1.54,-0.72 1.62,-0.53 1.67,-0.33 1.71,-0.12 1.70,0.07 1.69,0.28 1.69,0.28 L 1.69,0.28 Z"/></g><g transform="translate(520.5765380859375 78.375244140625) rotate(0 -3.795654296875 20.009841918945312)" stroke="none"><path fill="#000000" d="M 1.67,0.48 Q 1.67,0.48 0.77,4.34 -0.13,8.20 -0.94,12.07 -1.76,15.94 -2.49,19.80 -3.23,23.66 -3.86,27.47 -4.50,31.29 -5.30,34.90 -6.11,38.52 -6.17,38.72 -6.22,38.93 -6.34,39.10 -6.46,39.28 -6.63,39.41 -6.80,39.54 -7.00,39.61 -7.20,39.67 -7.41,39.68 -7.62,39.68 -7.82,39.61 -8.03,39.54 -8.20,39.41 -8.37,39.29 -8.49,39.11 -8.61,38.94 -8.66,38.73 -8.72,38.53 -8.71,38.32 -8.70,38.10 -8.62,37.91 -8.55,37.71 -8.41,37.55 -8.27,37.38 -8.09,37.27 -7.91,37.16 -7.70,37.12 -7.49,37.07 -7.28,37.09 -7.07,37.11 -6.88,37.20 -6.68,37.29 -6.53,37.43 -6.37,37.58 -6.27,37.77 -6.17,37.95 -6.14,38.16 -6.10,38.37 -6.14,38.58 -6.17,38.79 -6.27,38.98 -6.37,39.17 -6.52,39.32 -6.67,39.46 -6.87,39.55 -7.06,39.64 -7.27,39.67 -7.48,39.69 -7.69,39.65 -7.90,39.60 -8.08,39.49 -8.26,39.38 -8.40,39.22 -8.54,39.06 -8.62,38.86 -8.70,38.67 -8.71,38.46 -8.72,38.24 -8.72,38.24 -8.72,38.24 -8.76,34.44 -8.80,30.63 -8.25,26.71 -7.71,22.78 -6.92,18.87 -6.13,14.95 -5.18,10.99 -4.23,7.03 -2.95,3.27 -1.67,-0.48 -1.59,-0.67 -1.51,-0.86 -1.38,-1.03 -1.26,-1.20 -1.10,-1.34 -0.93,-1.47 -0.74,-1.56 -0.55,-1.65 -0.35,-1.69 -0.14,-1.74 0.06,-1.73 0.27,-1.72 0.47,-1.66 0.68,-1.60 0.86,-1.50 1.04,-1.39 1.19,-1.25 1.35,-1.10 1.46,-0.93 1.57,-0.75 1.64,-0.55 1.71,-0.35 1.72,-0.14 1.74,0.06 1.71,0.27 1.67,0.48 1.67,0.48 L 1.67,0.48 Z"/></g><g transform="translate(527.768310546875 38.755096435546875) rotate(0 -5.95977783203125 7.2914276123046875)" stroke="none"><path fill="#000000" d="M -1.16,1.00 Q -1.16,1.00 -3.22,-0.96 -5.29,-2.93 -6.85,-3.16 -8.42,-3.39 -9.70,-2.45 -10.98,-1.51 -11.97,0.58 -12.95,2.68 -13.39,5.00 -13.83,7.33 -13.26,9.54 -12.70,11.76 -11.32,13.66 -9.94,15.56 -8.16,16.55 -6.39,17.53 -4.80,17.45 -3.22,17.37 -1.96,16.26 -0.71,15.16 0.30,13.36 1.31,11.55 1.78,9.58 2.25,7.61 1.78,5.93 1.32,4.25 0.12,2.51 -1.07,0.78 -1.13,0.58 -1.20,0.38 -1.19,0.16 -1.19,-0.04 -1.12,-0.24 -1.05,-0.44 -0.92,-0.61 -0.79,-0.77 -0.61,-0.89 -0.43,-1.01 -0.23,-1.06 -0.02,-1.11 0.18,-1.10 0.39,-1.08 0.59,-1.00 0.79,-0.92 0.95,-0.78 1.11,-0.64 1.21,-0.46 1.32,-0.27 1.36,-0.06 1.40,0.13 1.38,0.34 1.35,0.56 1.26,0.75 1.17,0.94 1.02,1.09 0.87,1.24 0.68,1.34 0.49,1.44 0.28,1.47 0.07,1.50 -0.13,1.46 -0.34,1.42 -0.52,1.32 -0.71,1.22 -0.85,1.06 -1.00,0.90 -1.08,0.71 -1.17,0.51 -1.19,0.30 -1.21,0.09 -1.16,-0.11 -1.11,-0.31 -1.00,-0.49 -0.89,-0.67 -0.72,-0.81 -0.56,-0.94 -0.36,-1.02 -0.16,-1.09 0.04,-1.10 0.25,-1.11 0.46,-1.05 0.66,-0.99 0.84,-0.87 1.01,-0.74 1.14,-0.57 1.26,-0.40 1.26,-0.40 1.26,-0.40 3.20,1.14 5.15,2.70 6.26,5.45 7.38,8.20 6.89,11.35 6.40,14.50 4.63,17.27 2.86,20.04 0.07,21.67 -2.71,23.30 -5.96,23.08 -9.20,22.86 -12.03,20.99 -14.87,19.13 -16.76,16.12 -18.66,13.12 -19.22,9.65 -19.78,6.17 -18.90,2.86 -18.02,-0.43 -15.82,-3.30 -13.61,-6.17 -10.73,-7.10 -7.85,-8.03 -5.10,-6.99 -2.36,-5.94 -0.59,-3.47 1.16,-1.00 1.26,-0.84 1.37,-0.69 1.43,-0.52 1.49,-0.34 1.51,-0.16 1.53,0.02 1.51,0.20 1.48,0.38 1.41,0.56 1.35,0.73 1.24,0.88 1.13,1.03 0.99,1.15 0.85,1.27 0.69,1.36 0.52,1.44 0.34,1.48 0.16,1.52 -0.02,1.52 -0.20,1.52 -0.38,1.47 -0.56,1.42 -0.72,1.34 -0.89,1.25 -1.02,1.12 -1.16,1.00 -1.16,1.00 L -1.16,1.00 Z"/></g><g transform="translate(540.02099609375 156.88308715820312) rotate(0 20.24346923828125 2.03094482421875)" stroke="none"><path fill="#000000" d="M 0.05,-1.87 Q 0.05,-1.87 3.73,-1.91 7.42,-1.95 11.07,-1.86 14.73,-1.76 18.48,-1.47 22.24,-1.18 25.77,-0.76 29.31,-0.33 32.26,0.41 35.21,1.17 37.47,1.87 39.72,2.57 39.92,2.65 40.12,2.72 40.29,2.85 40.45,2.99 40.57,3.17 40.68,3.34 40.73,3.55 40.78,3.76 40.76,3.97 40.75,4.18 40.66,4.38 40.58,4.57 40.44,4.73 40.29,4.89 40.11,4.99 39.92,5.09 39.71,5.13 39.50,5.17 39.29,5.14 39.08,5.11 38.89,5.02 38.70,4.92 38.55,4.77 38.40,4.62 38.31,4.43 38.22,4.24 38.19,4.03 38.16,3.82 38.20,3.61 38.24,3.40 38.35,3.22 38.45,3.03 38.61,2.89 38.77,2.75 38.96,2.67 39.16,2.58 39.37,2.57 39.58,2.55 39.79,2.60 40.00,2.66 40.17,2.77 40.35,2.89 40.49,3.05 40.62,3.22 40.69,3.42 40.76,3.62 40.77,3.83 40.77,4.04 40.71,4.24 40.65,4.45 40.52,4.62 40.40,4.79 40.23,4.92 40.05,5.04 39.85,5.10 39.65,5.16 39.43,5.16 39.22,5.15 39.22,5.15 39.22,5.15 36.90,4.96 34.58,4.77 31.69,4.50 28.80,4.24 25.34,3.88 21.87,3.52 18.18,3.24 14.49,2.95 10.88,2.68 7.28,2.41 3.61,2.14 -0.05,1.87 -0.28,1.83 -0.50,1.80 -0.71,1.71 -0.92,1.63 -1.10,1.49 -1.28,1.36 -1.43,1.18 -1.57,1.01 -1.67,0.81 -1.77,0.60 -1.81,0.38 -1.86,0.16 -1.85,-0.05 -1.85,-0.28 -1.79,-0.50 -1.73,-0.71 -1.61,-0.91 -1.50,-1.11 -1.35,-1.27 -1.19,-1.44 -1.00,-1.56 -0.81,-1.68 -0.60,-1.75 -0.39,-1.83 -0.16,-1.85 0.05,-1.87 0.05,-1.87 L 0.05,-1.87 Z"/></g><g transform="translate(543.21728515625 169.00216674804688) rotate(0 13.91741943359375 0.266387939453125)" stroke="none"><path fill="#000000" d="M 0.14,-1.94 Q 0.14,-1.94 2.95,-1.90 5.76,-1.87 8.85,-1.85 11.95,-1.83 15.24,-1.93 18.53,-2.03 22.31,-1.75 26.08,-1.46 26.29,-1.44 26.50,-1.42 26.70,-1.33 26.89,-1.25 27.05,-1.10 27.20,-0.96 27.31,-0.77 27.41,-0.59 27.44,-0.38 27.48,-0.17 27.45,0.03 27.42,0.24 27.32,0.43 27.22,0.62 27.07,0.77 26.92,0.92 26.73,1.01 26.54,1.10 26.32,1.13 26.11,1.15 25.91,1.11 25.70,1.07 25.51,0.96 25.33,0.85 25.19,0.69 25.05,0.53 24.97,0.33 24.89,0.14 24.88,-0.06 24.86,-0.28 24.92,-0.48 24.97,-0.69 25.09,-0.86 25.20,-1.04 25.37,-1.17 25.54,-1.30 25.74,-1.37 25.94,-1.44 26.15,-1.45 26.37,-1.45 26.57,-1.38 26.77,-1.32 26.94,-1.19 27.11,-1.07 27.23,-0.89 27.35,-0.72 27.41,-0.51 27.47,-0.31 27.46,-0.10 27.45,0.11 27.38,0.30 27.30,0.50 27.17,0.67 27.03,0.83 26.85,0.94 26.67,1.05 26.46,1.10 26.26,1.15 26.26,1.15 26.26,1.15 22.50,1.94 18.74,2.73 15.26,2.92 11.78,3.11 8.60,2.91 5.41,2.71 2.63,2.33 -0.14,1.94 -0.37,1.89 -0.60,1.85 -0.82,1.75 -1.03,1.65 -1.21,1.50 -1.39,1.35 -1.54,1.17 -1.68,0.98 -1.77,0.76 -1.87,0.55 -1.90,0.32 -1.94,0.08 -1.93,-0.14 -1.91,-0.37 -1.83,-0.60 -1.76,-0.82 -1.64,-1.02 -1.51,-1.22 -1.34,-1.38 -1.17,-1.55 -0.97,-1.67 -0.77,-1.78 -0.54,-1.85 -0.32,-1.92 -0.08,-1.93 0.14,-1.94 0.14,-1.94 L 0.14,-1.94 Z"/></g><g transform="translate(626.5885009765625 166.67160034179688) rotate(0 -8.98968505859375 -0.6326141357421875)" stroke="none"><path fill="#000000" d="M -1.70,-0.10 Q -1.70,-0.10 -1.73,-2.95 -1.76,-5.81 -2.37,-7.93 -2.98,-10.05 -4.07,-11.52 -5.16,-13.00 -6.61,-13.64 -8.07,-14.29 -10.05,-13.92 -12.03,-13.55 -13.74,-12.14 -15.46,-10.74 -16.38,-8.47 -17.30,-6.20 -17.44,-3.32 -17.58,-0.45 -16.55,2.41 -15.52,5.28 -13.37,7.52 -11.21,9.75 -8.63,10.85 -6.05,11.95 -4.08,11.99 -2.10,12.03 -1.28,10.31 -0.45,8.58 -1.08,6.95 -1.71,5.33 -2.49,3.04 -3.28,0.76 -2.79,-0.15 -2.30,-1.07 -2.35,-1.21 -2.41,-1.36 -2.42,-1.52 -2.44,-1.68 -2.42,-1.83 -2.40,-1.99 -2.34,-2.14 -2.29,-2.29 -2.20,-2.42 -2.11,-2.55 -1.99,-2.65 -1.87,-2.75 -1.73,-2.83 -1.59,-2.90 -1.43,-2.94 -1.28,-2.97 -1.12,-2.97 -0.96,-2.97 -0.81,-2.93 -0.65,-2.89 -0.51,-2.82 -0.38,-2.74 -0.26,-2.64 -0.14,-2.53 -0.05,-2.40 0.03,-2.27 0.08,-2.15 0.13,-2.02 0.15,-1.81 0.17,-1.60 0.13,-1.39 0.08,-1.18 -0.02,-1.00 -0.13,-0.82 -0.29,-0.68 -0.45,-0.54 -0.65,-0.46 -0.85,-0.39 -1.06,-0.37 -1.27,-0.36 -1.48,-0.42 -1.68,-0.48 -1.86,-0.60 -2.03,-0.72 -2.16,-0.89 -2.29,-1.05 -2.36,-1.26 -2.42,-1.46 -2.42,-1.67 -2.42,-1.88 -2.36,-2.08 -2.29,-2.28 -2.16,-2.45 -2.03,-2.62 -1.86,-2.74 -1.68,-2.86 -1.47,-2.92 -1.27,-2.97 -1.06,-2.96 -0.85,-2.95 -0.65,-2.87 -0.45,-2.79 -0.29,-2.66 -0.13,-2.52 -0.02,-2.34 0.08,-2.15 0.13,-1.95 0.17,-1.74 0.15,-1.53 0.13,-1.32 0.04,-1.12 -0.04,-0.93 -0.19,-0.78 -0.33,-0.62 -0.52,-0.52 -0.71,-0.42 -0.92,-0.39 -1.13,-0.36 -1.34,-0.39 -1.55,-0.42 -1.74,-0.52 -1.92,-0.62 -2.07,-0.78 -2.22,-0.93 -2.26,-1.00 -2.30,-1.07 -2.35,-1.21 -2.41,-1.36 -2.42,-1.52 -2.44,-1.68 -2.42,-1.83 -2.40,-1.99 -2.34,-2.14 -2.29,-2.29 -2.20,-2.42 -2.11,-2.55 -1.99,-2.65 -1.87,-2.75 -1.73,-2.83 -1.59,-2.90 -1.43,-2.94 -1.28,-2.97 -1.12,-2.97 -0.96,-2.97 -0.81,-2.93 -0.65,-2.89 -0.51,-2.82 -0.38,-2.74 -0.26,-2.64 -0.14,-2.53 -0.05,-2.40 0.03,-2.27 0.69,-1.95 1.36,-1.63 3.06,0.89 4.76,3.42 5.56,6.72 6.37,10.02 5.17,12.91 3.98,15.81 1.07,17.38 -1.82,18.96 -5.39,18.61 -8.95,18.27 -12.57,16.31 -16.19,14.36 -18.97,10.92 -21.74,7.49 -22.96,3.34 -24.17,-0.81 -23.73,-4.92 -23.30,-9.03 -21.32,-12.47 -19.34,-15.91 -16.05,-17.76 -12.75,-19.61 -9.15,-19.52 -5.56,-19.43 -3.17,-17.66 -0.79,-15.89 0.40,-13.50 1.59,-11.10 2.02,-8.35 2.45,-5.59 2.07,-2.74 1.70,0.10 1.66,0.30 1.62,0.50 1.54,0.69 1.46,0.88 1.33,1.04 1.20,1.20 1.04,1.33 0.88,1.46 0.69,1.54 0.50,1.62 0.30,1.66 0.10,1.70 -0.10,1.69 -0.30,1.67 -0.50,1.61 -0.70,1.55 -0.87,1.45 -1.05,1.34 -1.19,1.19 -1.34,1.05 -1.45,0.87 -1.55,0.70 -1.61,0.50 -1.67,0.30 -1.69,0.10 -1.70,-0.10 -1.70,-0.10 L -1.70,-0.10 Z"/></g><g transform="translate(500.13330078125 207.15737915039062) rotate(0 4.29510498046875 20.342788696289062)" stroke="none"><path fill="#000000" d="M 1.77,-0.27 Q 1.77,-0.27 3.09,7.08 4.42,14.44 5.67,20.21 6.92,25.97 7.66,30.11 8.40,34.26 8.79,36.02 9.19,37.77 9.21,37.99 9.23,38.20 9.18,38.40 9.13,38.61 9.02,38.79 8.90,38.97 8.74,39.11 8.58,39.24 8.38,39.32 8.18,39.39 7.97,39.40 7.75,39.41 7.55,39.35 7.35,39.29 7.17,39.16 7.00,39.04 6.87,38.87 6.75,38.70 6.68,38.50 6.62,38.29 6.62,38.08 6.63,37.87 6.70,37.67 6.77,37.47 6.90,37.30 7.03,37.13 7.21,37.02 7.39,36.90 7.59,36.85 7.80,36.80 8.01,36.81 8.22,36.83 8.42,36.91 8.62,36.99 8.77,37.13 8.93,37.27 9.04,37.46 9.15,37.64 9.19,37.85 9.23,38.06 9.20,38.27 9.18,38.48 9.08,38.67 8.99,38.86 8.84,39.01 8.69,39.16 8.50,39.26 8.32,39.36 8.11,39.39 7.89,39.42 7.69,39.38 7.48,39.34 7.29,39.24 7.11,39.14 6.96,38.98 6.82,38.82 6.73,38.63 6.65,38.43 6.65,38.43 6.65,38.43 6.14,36.70 5.63,34.98 4.25,30.92 2.86,26.86 1.55,20.98 0.24,15.10 -0.76,7.69 -1.77,0.27 -1.77,0.06 -1.78,-0.15 -1.74,-0.36 -1.69,-0.57 -1.60,-0.77 -1.51,-0.96 -1.37,-1.13 -1.23,-1.29 -1.06,-1.42 -0.88,-1.55 -0.69,-1.64 -0.49,-1.72 -0.27,-1.75 -0.06,-1.79 0.15,-1.77 0.36,-1.75 0.57,-1.68 0.77,-1.61 0.95,-1.50 1.14,-1.38 1.28,-1.22 1.43,-1.07 1.54,-0.88 1.65,-0.69 1.71,-0.48 1.77,-0.27 1.77,-0.27 L 1.77,-0.27 Z"/></g><g transform="translate(542.085205078125 281.20379638671875) rotate(0 -9.05621337890625 -3.862152099609375)" stroke="none"><path fill="#000000" d="M -1.65,-0.07 Q -1.65,-0.07 -1.70,-2.20 -1.76,-4.32 -2.21,-6.33 -2.66,-8.34 -3.46,-10.39 -4.26,-12.44 -5.40,-13.67 -6.54,-14.89 -7.68,-15.18 -8.82,-15.46 -10.30,-14.66 -11.78,-13.86 -13.30,-12.03 -14.81,-10.20 -15.69,-7.49 -16.57,-4.78 -16.42,-2.10 -16.27,0.58 -15.02,2.55 -13.78,4.53 -11.88,5.45 -9.99,6.37 -8.10,6.07 -6.21,5.77 -4.79,4.29 -3.38,2.82 -2.53,0.53 -1.68,-1.74 -1.69,-3.80 -1.70,-5.87 -2.39,-7.48 -3.07,-9.09 -4.26,-10.65 -5.44,-12.20 -5.58,-12.37 -5.71,-12.53 -5.79,-12.73 -5.86,-12.93 -5.87,-13.14 -5.88,-13.35 -5.82,-13.56 -5.76,-13.76 -5.64,-13.93 -5.51,-14.11 -5.34,-14.23 -5.17,-14.36 -4.97,-14.42 -4.77,-14.49 -4.55,-14.48 -4.34,-14.48 -4.14,-14.41 -3.94,-14.34 -3.77,-14.21 -3.61,-14.08 -3.49,-13.90 -3.37,-13.72 -3.32,-13.51 -3.27,-13.31 -3.28,-13.10 -3.30,-12.88 -3.38,-12.69 -3.46,-12.49 -3.60,-12.33 -3.74,-12.17 -3.93,-12.07 -4.11,-11.96 -4.32,-11.92 -4.53,-11.88 -4.74,-11.90 -4.95,-11.93 -5.14,-12.02 -5.33,-12.11 -5.48,-12.26 -5.63,-12.41 -5.73,-12.60 -5.83,-12.79 -5.86,-13.00 -5.89,-13.21 -5.85,-13.42 -5.81,-13.63 -5.71,-13.82 -5.61,-14.00 -5.45,-14.15 -5.29,-14.29 -5.10,-14.37 -4.90,-14.46 -4.69,-14.48 -4.48,-14.50 -4.27,-14.45 -4.07,-14.40 -3.89,-14.29 -3.71,-14.18 -3.71,-14.18 -3.71,-14.18 -1.51,-12.75 0.69,-11.33 2.35,-8.84 4.02,-6.34 4.13,-2.89 4.25,0.55 2.60,4.05 0.95,7.54 -2.06,9.75 -5.08,11.95 -8.85,12.02 -12.62,12.09 -15.84,10.01 -19.06,7.93 -20.76,4.46 -22.46,0.99 -22.39,-2.90 -22.32,-6.80 -20.77,-10.49 -19.22,-14.18 -16.56,-16.69 -13.90,-19.20 -10.78,-19.95 -7.65,-20.70 -5.16,-19.51 -2.67,-18.32 -1.23,-16.16 0.21,-14.01 0.90,-11.53 1.59,-9.04 1.87,-6.60 2.14,-4.17 1.89,-2.04 1.65,0.07 1.62,0.27 1.58,0.46 1.50,0.65 1.43,0.83 1.30,0.99 1.18,1.15 1.03,1.27 0.87,1.40 0.69,1.48 0.51,1.57 0.32,1.61 0.12,1.65 -0.07,1.64 -0.27,1.63 -0.46,1.57 -0.65,1.52 -0.82,1.41 -1.00,1.31 -1.14,1.18 -1.28,1.04 -1.39,0.87 -1.49,0.70 -1.56,0.51 -1.62,0.32 -1.63,0.12 -1.65,-0.07 -1.65,-0.07 L -1.65,-0.07 Z"/></g><g transform="translate(506.2596435546875 284.59979248046875) rotate(0 0.19976806640625 0.1331787109375)" stroke="none"><path fill="#000000" d="M 1.82,-0.56 Q 1.82,-0.56 1.85,-0.11 1.88,0.34 1.69,0.76 1.50,1.17 1.14,1.46 0.78,1.74 0.33,1.82 -0.11,1.90 -0.55,1.77 -0.98,1.63 -1.31,1.31 -1.63,0.98 -1.77,0.55 -1.90,0.11 -1.82,-0.33 -1.74,-0.78 -1.46,-1.14 -1.17,-1.50 -0.76,-1.69 -0.34,-1.88 0.11,-1.85 0.56,-1.82 0.96,-1.58 1.35,-1.35 1.58,-0.96 L 1.82,-0.56 Z"/></g><g transform="translate(509.32275390625 294.787841796875) rotate(0 0.1331787109375 0.266357421875)" stroke="none"><path fill="#000000" d="M 1.78,-0.55 Q 1.78,-0.55 1.81,-0.10 1.84,0.33 1.65,0.74 1.47,1.15 1.12,1.43 0.76,1.70 0.32,1.79 -0.11,1.87 -0.54,1.73 -0.97,1.60 -1.28,1.28 -1.60,0.96 -1.73,0.54 -1.87,0.11 -1.79,-0.32 -1.70,-0.76 -1.43,-1.12 -1.15,-1.47 -0.74,-1.66 -0.33,-1.84 0.11,-1.81 0.55,-1.78 0.94,-1.55 1.32,-1.32 1.55,-0.94 L 1.78,-0.55 Z"/></g><g transform="translate(542.15185546875 305.77490234375) rotate(0 0.8323974609375 -0.03326416015625)" stroke="none"><path fill="#000000" d="M 2.02,-0.63 Q 2.02,-0.63 2.05,-0.12 2.08,0.38 1.87,0.84 1.66,1.30 1.26,1.61 0.86,1.93 0.37,2.02 -0.12,2.11 -0.61,1.96 -1.09,1.81 -1.45,1.45 -1.81,1.09 -1.96,0.61 -2.11,0.12 -2.02,-0.37 -1.93,-0.86 -1.61,-1.26 -1.30,-1.66 -0.84,-1.87 -0.38,-2.08 0.12,-2.05 0.63,-2.02 1.06,-1.76 1.49,-1.49 1.76,-1.06 L 2.02,-0.63 Z"/></g><g transform="translate(548.4779052734375 301.380126953125) rotate(0 0.83245849609375 -0.266387939453125)" stroke="none"><path fill="#000000" d="M 1.65,-0.51 Q 1.65,-0.51 1.68,-0.10 1.70,0.31 1.53,0.69 1.36,1.06 1.03,1.32 0.71,1.58 0.30,1.65 -0.10,1.73 -0.50,1.60 -0.89,1.48 -1.19,1.19 -1.48,0.89 -1.60,0.50 -1.73,0.10 -1.65,-0.30 -1.58,-0.71 -1.32,-1.03 -1.06,-1.36 -0.69,-1.53 -0.31,-1.70 0.10,-1.68 0.51,-1.65 0.87,-1.44 1.22,-1.22 1.44,-0.87 L 1.65,-0.51 Z"/></g><g transform="translate(561.8626708984375 280.00518798828125) rotate(0 -0.432861328125 0.732452392578125)" stroke="none"><path fill="#000000" d="M 1.65,-0.51 Q 1.65,-0.51 1.68,-0.10 1.70,0.31 1.53,0.69 1.36,1.07 1.03,1.32 0.71,1.58 0.30,1.65 -0.10,1.73 -0.50,1.60 -0.89,1.48 -1.19,1.19 -1.48,0.89 -1.60,0.50 -1.73,0.10 -1.65,-0.30 -1.58,-0.71 -1.32,-1.03 -1.07,-1.36 -0.69,-1.53 -0.31,-1.70 0.10,-1.68 0.51,-1.65 0.87,-1.44 1.22,-1.22 1.44,-0.87 L 1.65,-0.51 Z"/></g><g transform="translate(557.8006591796875 267.6197509765625) rotate(0 0.33294677734375 0.033294677734375)" stroke="none"><path fill="#000000" d="M 1.78,-0.55 Q 1.78,-0.55 1.80,-0.10 1.83,0.33 1.65,0.74 1.46,1.15 1.11,1.42 0.76,1.70 0.32,1.78 -0.11,1.86 -0.53,1.72 -0.96,1.59 -1.28,1.28 -1.59,0.96 -1.72,0.53 -1.86,0.11 -1.78,-0.32 -1.70,-0.76 -1.42,-1.11 -1.15,-1.46 -0.74,-1.65 -0.33,-1.83 0.10,-1.80 0.55,-1.78 0.93,-1.54 1.31,-1.31 1.54,-0.93 L 1.78,-0.55 Z"/></g><g transform="translate(627.121337890625 137.23947143554688) rotate(0 0.53265380859375 1.0321197509765625)" stroke="none"><path fill="#000000" d="M 1.96,-0.61 Q 1.96,-0.61 1.99,-0.12 2.02,0.37 1.82,0.82 1.62,1.27 1.23,1.57 0.84,1.88 0.36,1.97 -0.12,2.05 -0.59,1.91 -1.06,1.76 -1.41,1.41 -1.76,1.06 -1.91,0.59 -2.05,0.12 -1.97,-0.36 -1.88,-0.84 -1.57,-1.23 -1.27,-1.62 -0.82,-1.82 -0.37,-2.02 0.12,-1.99 0.61,-1.96 1.03,-1.71 1.45,-1.45 1.71,-1.03 L 1.96,-0.61 Z"/></g><g transform="translate(631.5828857421875 148.0933837890625) rotate(0 0.266357421875 0.8656463623046875)" stroke="none"><path fill="#000000" d="M 1.65,-0.51 Q 1.65,-0.51 1.68,-0.10 1.70,0.31 1.53,0.69 1.36,1.07 1.04,1.32 0.71,1.58 0.30,1.66 -0.10,1.73 -0.50,1.61 -0.89,1.48 -1.19,1.19 -1.48,0.89 -1.61,0.50 -1.73,0.10 -1.66,-0.30 -1.58,-0.71 -1.32,-1.04 -1.07,-1.36 -0.69,-1.53 -0.31,-1.71 0.10,-1.68 0.51,-1.65 0.87,-1.44 1.22,-1.22 1.44,-0.87 L 1.65,-0.51 Z"/></g><g transform="translate(638.1087646484375 193.50674438476562) rotate(0 0.29962158203125 0.099884033203125)" stroke="none"><path fill="#000000" d="M 1.85,-0.57 Q 1.85,-0.57 1.88,-0.11 1.90,0.34 1.71,0.77 1.52,1.19 1.16,1.48 0.79,1.77 0.33,1.85 -0.11,1.93 -0.56,1.79 -1.00,1.66 -1.33,1.33 -1.66,1.00 -1.79,0.56 -1.93,0.11 -1.85,-0.33 -1.77,-0.79 -1.48,-1.16 -1.19,-1.52 -0.77,-1.71 -0.34,-1.90 0.11,-1.88 0.57,-1.85 0.97,-1.61 1.37,-1.37 1.61,-0.97 L 1.85,-0.57 Z"/></g><g transform="translate(631.1168212890625 200.43194580078125) rotate(0 0.26629638671875 -0.1331939697265625)" stroke="none"><path fill="#000000" d="M 1.91,-0.59 Q 1.91,-0.59 1.94,-0.11 1.97,0.36 1.77,0.79 1.57,1.23 1.20,1.53 0.82,1.82 0.35,1.91 -0.12,2.00 -0.57,1.85 -1.03,1.71 -1.37,1.37 -1.71,1.03 -1.85,0.57 -2.00,0.12 -1.91,-0.35 -1.82,-0.82 -1.53,-1.20 -1.23,-1.57 -0.79,-1.77 -0.36,-1.97 0.11,-1.94 0.59,-1.91 1.00,-1.66 1.41,-1.41 1.66,-1.00 L 1.91,-0.59 Z"/></g><g transform="translate(545.614501953125 51.939605712890625) rotate(0 0.00004999999998744897 0.00005000000000165983)" stroke="none"><path fill="#000000" d="M 2.12,-2.12 Q 2.12,-2.12 2.40,-1.73 2.69,-1.33 2.83,-0.87 2.97,-0.40 2.96,0.08 2.95,0.56 2.78,1.02 2.61,1.47 2.31,1.85 2.00,2.23 1.59,2.49 1.18,2.76 0.71,2.87 0.24,2.99 -0.24,2.95 -0.72,2.91 -1.17,2.72 -1.61,2.53 -1.98,2.20 -2.34,1.88 -2.58,1.45 -2.82,1.03 -2.91,0.55 -3.00,0.08 -2.93,-0.40 -2.87,-0.88 -2.65,-1.31 -2.44,-1.75 -2.09,-2.09 -1.75,-2.44 -1.31,-2.65 -0.88,-2.87 -0.39,-2.93 0.08,-3.00 0.55,-2.91 1.03,-2.82 1.46,-2.58 1.88,-2.34 2.20,-1.97 2.53,-1.61 2.72,-1.17 2.91,-0.72 2.95,-0.23 2.99,0.24 2.87,0.71 2.76,1.18 2.49,1.59 2.23,2.00 1.85,2.31 1.47,2.61 1.02,2.78 0.56,2.95 0.07,2.96 -0.40,2.97 -0.87,2.83 -1.33,2.69 -1.73,2.40 -2.12,2.12 -2.12,2.12 -2.12,2.12 -2.34,1.83 -2.57,1.55 -2.72,1.22 -2.86,0.89 -2.93,0.53 -2.99,0.18 -2.97,-0.18 -2.95,-0.54 -2.84,-0.88 -2.74,-1.23 -2.55,-1.54 -2.36,-1.85 -2.10,-2.10 -1.85,-2.36 -1.54,-2.55 -1.23,-2.74 -0.88,-2.84 -0.54,-2.95 -0.17,-2.97 0.18,-2.99 0.53,-2.93 0.89,-2.86 1.22,-2.72 1.55,-2.57 1.84,-2.34 2.12,-2.12 2.12,-2.12 L 2.12,-2.12 Z"/></g><g transform="translate(543.8831787109375 39.75390625) rotate(0 -0.29962158203125 0.6325836181640625)" stroke="none"><path fill="#000000" d="M 1.88,-0.58 Q 1.88,-0.58 1.91,-0.11 1.94,0.35 1.74,0.78 1.55,1.21 1.18,1.50 0.81,1.80 0.34,1.88 -0.11,1.97 -0.57,1.83 -1.02,1.69 -1.35,1.35 -1.69,1.02 -1.83,0.57 -1.97,0.11 -1.88,-0.34 -1.80,-0.81 -1.50,-1.18 -1.21,-1.55 -0.78,-1.74 -0.35,-1.94 0.11,-1.91 0.58,-1.88 0.99,-1.64 1.39,-1.39 1.64,-0.99 L 1.88,-0.58 Z"/></g><g transform="translate(518.778564453125 24.7049560546875) rotate(0 -1.43170166015625 0)" stroke="none"><path fill="#000000" d="M 1.85,-0.57 Q 1.85,-0.57 1.87,-0.11 1.90,0.34 1.71,0.77 1.52,1.19 1.16,1.48 0.79,1.76 0.33,1.85 -0.11,1.93 -0.55,1.79 -1.00,1.65 -1.33,1.33 -1.65,1.00 -1.79,0.55 -1.93,0.11 -1.85,-0.33 -1.76,-0.79 -1.48,-1.16 -1.19,-1.52 -0.77,-1.71 -0.34,-1.90 0.11,-1.87 0.57,-1.84 0.97,-1.60 1.37,-1.36 1.61,-0.97 L 1.85,-0.57 Z"/></g><g transform="translate(508.7235107421875 28.034332275390625) rotate(0 -0.8323974609375 1.1986083984375)" stroke="none"><path fill="#000000" d="M 1.60,0.93 Q 1.60,0.93 1.19,1.09 0.79,1.24 0.69,1.37 0.60,1.49 0.47,1.59 0.35,1.69 0.21,1.76 0.06,1.83 -0.08,1.86 -0.24,1.89 -0.40,1.88 -0.55,1.88 -0.71,1.83 -0.86,1.79 -0.99,1.71 -1.13,1.63 -1.24,1.52 -1.36,1.41 -1.44,1.27 -1.53,1.14 -1.58,0.99 -1.62,0.84 -1.64,0.68 -1.65,0.52 -1.62,0.37 -1.60,0.21 -1.53,0.06 -1.47,-0.07 -1.34,-0.23 -1.20,-0.40 -1.02,-0.51 -0.84,-0.62 -0.63,-0.67 -0.43,-0.72 -0.21,-0.70 -0.00,-0.68 0.18,-0.59 0.38,-0.51 0.53,-0.36 0.69,-0.22 0.79,-0.03 0.89,0.14 0.93,0.35 0.97,0.56 0.93,0.77 0.90,0.98 0.81,1.17 0.71,1.36 0.56,1.51 0.40,1.66 0.21,1.75 0.02,1.84 -0.18,1.87 -0.39,1.89 -0.60,1.85 -0.81,1.81 -0.99,1.70 -1.17,1.59 -1.31,1.43 -1.45,1.27 -1.53,1.08 -1.62,0.88 -1.63,0.67 -1.64,0.46 -1.59,0.25 -1.54,0.05 -1.42,-0.12 -1.30,-0.30 -1.13,-0.43 -0.97,-0.56 -0.77,-0.63 -0.57,-0.70 -0.35,-0.71 -0.14,-0.71 0.05,-0.64 0.25,-0.58 0.42,-0.45 0.59,-0.32 0.72,-0.15 0.84,0.01 0.90,0.22 0.96,0.42 0.95,0.63 0.94,0.85 0.86,1.04 0.79,1.24 0.79,1.24 0.79,1.24 0.69,1.37 0.60,1.49 0.47,1.59 0.35,1.69 0.21,1.76 0.06,1.83 -0.08,1.86 -0.24,1.89 -0.40,1.88 -0.55,1.88 -0.71,1.83 -0.86,1.79 -0.99,1.71 -1.13,1.63 -1.24,1.52 -1.36,1.41 -1.44,1.27 -1.53,1.14 -1.58,0.99 -1.62,0.84 -1.64,0.68 -1.65,0.52 -1.62,0.37 -1.60,0.21 -1.53,0.06 -1.47,-0.07 -1.54,-0.50 -1.60,-0.93 -1.46,-1.11 -1.33,-1.29 -1.16,-1.43 -0.98,-1.57 -0.78,-1.67 -0.58,-1.76 -0.36,-1.80 -0.14,-1.85 0.08,-1.84 0.30,-1.83 0.52,-1.76 0.73,-1.70 0.92,-1.59 1.12,-1.48 1.28,-1.32 1.44,-1.16 1.56,-0.97 1.68,-0.78 1.75,-0.57 1.82,-0.36 1.83,-0.14 1.85,0.08 1.81,0.30 1.78,0.52 1.69,0.73 1.60,0.93 1.60,0.93 L 1.60,0.93 Z"/></g><g transform="translate(104.158935546875 67.19955444335938) rotate(0 15.1826171875 22.673385620117188)" stroke="none"><path fill="#000000" d="M 1.47,-0.99 Q 1.47,-0.99 3.92,2.09 6.37,5.17 9.05,8.84 11.73,12.52 14.76,17.08 17.79,21.64 20.85,26.49 23.90,31.34 25.94,35.24 27.98,39.15 28.96,40.74 29.94,42.32 30.03,42.51 30.11,42.71 30.13,42.92 30.15,43.13 30.11,43.34 30.06,43.54 29.95,43.73 29.83,43.91 29.67,44.04 29.51,44.18 29.31,44.25 29.11,44.33 28.90,44.34 28.69,44.35 28.48,44.29 28.28,44.23 28.10,44.11 27.93,43.98 27.80,43.81 27.68,43.64 27.61,43.44 27.55,43.24 27.55,43.03 27.55,42.81 27.62,42.61 27.69,42.41 27.82,42.25 27.95,42.08 28.13,41.96 28.31,41.84 28.51,41.79 28.72,41.74 28.93,41.75 29.14,41.76 29.34,41.85 29.54,41.93 29.70,42.07 29.86,42.21 29.96,42.39 30.07,42.57 30.11,42.78 30.16,42.99 30.13,43.20 30.11,43.41 30.01,43.60 29.92,43.79 29.77,43.95 29.63,44.10 29.44,44.20 29.25,44.29 29.04,44.32 28.83,44.36 28.62,44.32 28.41,44.28 28.22,44.18 28.04,44.08 27.89,43.92 27.75,43.77 27.75,43.77 27.75,43.77 26.68,42.24 25.61,40.71 22.82,37.30 20.03,33.89 16.78,29.18 13.52,24.47 10.54,19.96 7.55,15.44 4.99,11.64 2.43,7.83 0.48,4.41 -1.47,0.99 -1.56,0.80 -1.66,0.61 -1.71,0.40 -1.76,0.19 -1.76,-0.01 -1.76,-0.23 -1.70,-0.43 -1.65,-0.64 -1.55,-0.83 -1.45,-1.02 -1.30,-1.18 -1.16,-1.34 -0.98,-1.46 -0.81,-1.58 -0.60,-1.65 -0.40,-1.72 -0.19,-1.75 0.01,-1.77 0.22,-1.74 0.44,-1.72 0.64,-1.64 0.84,-1.56 1.01,-1.44 1.19,-1.31 1.33,-1.15 1.47,-0.99 1.47,-0.99 L 1.47,-0.99 Z"/></g><g transform="translate(76.8568115234375 152.96554565429688) rotate(0 20.0770263671875 1.6646881103515625)" stroke="none"><path fill="#000000" d="M 0.36,-1.73 Q 0.36,-1.73 4.34,-1.05 8.32,-0.37 12.43,0.03 16.53,0.45 20.52,0.61 24.51,0.77 28.13,0.88 31.76,0.98 35.19,1.24 38.63,1.49 38.84,1.52 39.05,1.56 39.23,1.65 39.42,1.75 39.57,1.91 39.72,2.06 39.81,2.25 39.90,2.44 39.92,2.65 39.95,2.86 39.91,3.07 39.86,3.28 39.75,3.46 39.64,3.65 39.48,3.78 39.32,3.92 39.13,4.00 38.93,4.08 38.72,4.10 38.51,4.11 38.30,4.06 38.10,4.00 37.92,3.88 37.74,3.76 37.61,3.60 37.48,3.43 37.41,3.23 37.34,3.03 37.34,2.81 37.34,2.60 37.41,2.40 37.47,2.20 37.60,2.03 37.73,1.86 37.90,1.74 38.08,1.62 38.28,1.56 38.48,1.50 38.70,1.51 38.91,1.52 39.11,1.60 39.31,1.67 39.47,1.81 39.63,1.95 39.74,2.13 39.85,2.31 39.90,2.52 39.95,2.72 39.93,2.93 39.91,3.15 39.82,3.34 39.73,3.53 39.59,3.69 39.44,3.84 39.25,3.94 39.07,4.05 38.86,4.08 38.65,4.12 38.65,4.12 38.65,4.12 35.22,4.43 31.80,4.74 28.07,4.93 24.33,5.13 20.19,4.97 16.04,4.80 11.74,4.27 7.44,3.74 3.53,2.73 -0.36,1.73 -0.57,1.66 -0.77,1.59 -0.95,1.47 -1.13,1.36 -1.27,1.20 -1.42,1.05 -1.52,0.86 -1.63,0.67 -1.69,0.47 -1.74,0.26 -1.75,0.05 -1.76,-0.15 -1.71,-0.36 -1.67,-0.57 -1.58,-0.76 -1.48,-0.95 -1.35,-1.12 -1.21,-1.28 -1.04,-1.41 -0.87,-1.54 -0.67,-1.62 -0.47,-1.70 -0.26,-1.73 -0.05,-1.76 0.15,-1.74 0.36,-1.73 0.36,-1.73 L 0.36,-1.73 Z"/></g><g transform="translate(84.64794921875 168.2808837890625) rotate(0 17.3468017578125 -0.6658935546875)" stroke="none"><path fill="#000000" d="M -0.03,-1.84 Q -0.03,-1.84 5.64,-2.34 11.32,-2.83 16.05,-3.12 20.77,-3.40 24.79,-2.92 28.81,-2.45 30.49,-2.44 32.17,-2.44 32.38,-2.41 32.59,-2.39 32.78,-2.29 32.97,-2.20 33.12,-2.05 33.27,-1.89 33.37,-1.70 33.46,-1.51 33.49,-1.30 33.52,-1.09 33.48,-0.88 33.44,-0.68 33.33,-0.49 33.23,-0.31 33.07,-0.16 32.91,-0.02 32.72,0.05 32.52,0.13 32.31,0.15 32.10,0.17 31.89,0.12 31.69,0.07 31.51,-0.04 31.33,-0.15 31.20,-0.32 31.06,-0.49 30.99,-0.69 30.92,-0.88 30.91,-1.10 30.91,-1.31 30.97,-1.51 31.03,-1.72 31.16,-1.89 31.28,-2.06 31.45,-2.18 31.63,-2.31 31.83,-2.37 32.03,-2.43 32.24,-2.43 32.46,-2.42 32.66,-2.35 32.86,-2.27 33.02,-2.14 33.19,-2.01 33.30,-1.83 33.41,-1.65 33.46,-1.44 33.52,-1.23 33.50,-1.02 33.48,-0.81 33.40,-0.62 33.31,-0.42 33.17,-0.26 33.03,-0.11 32.84,-0.00 32.66,0.09 32.45,0.13 32.24,0.17 32.24,0.17 32.24,0.17 30.56,0.26 28.88,0.35 25.00,1.03 21.12,1.71 16.27,2.08 11.41,2.45 5.72,2.15 0.03,1.84 -0.19,1.82 -0.41,1.80 -0.62,1.72 -0.83,1.64 -1.01,1.52 -1.20,1.40 -1.35,1.23 -1.50,1.07 -1.60,0.87 -1.71,0.68 -1.77,0.46 -1.82,0.25 -1.83,0.03 -1.83,-0.19 -1.78,-0.40 -1.73,-0.62 -1.63,-0.82 -1.53,-1.02 -1.39,-1.19 -1.24,-1.36 -1.06,-1.49 -0.88,-1.62 -0.67,-1.70 -0.47,-1.78 -0.25,-1.81 -0.03,-1.84 -0.03,-1.84 L -0.03,-1.84 Z"/></g><g transform="translate(47.9566650390625 152.89892578125) rotate(0 -11.42034912109375 0.7657623291015625)" stroke="none"><path fill="#000000" d="M -1.68,0.10 Q -1.68,0.10 -2.04,-2.79 -2.39,-5.70 -3.29,-7.80 -4.18,-9.89 -5.38,-10.89 -6.59,-11.88 -8.30,-11.92 -10.02,-11.96 -12.52,-10.82 -15.03,-9.68 -17.16,-7.47 -19.30,-5.26 -20.38,-2.58 -21.45,0.10 -21.21,2.81 -20.97,5.53 -19.46,7.59 -17.96,9.66 -15.60,10.83 -13.25,12.01 -10.75,11.84 -8.25,11.68 -6.24,10.44 -4.22,9.20 -2.88,7.28 -1.54,5.37 -0.99,3.74 -0.43,2.12 -0.88,0.37 -1.33,-1.36 -1.28,-1.51 -1.22,-1.66 -1.13,-1.79 -1.04,-1.92 -0.93,-2.03 -0.81,-2.13 -0.67,-2.21 -0.53,-2.28 -0.38,-2.32 -0.22,-2.36 -0.06,-2.36 0.08,-2.36 0.24,-2.33 0.39,-2.29 0.53,-2.22 0.67,-2.15 0.79,-2.04 0.91,-1.94 1.00,-1.81 1.09,-1.68 1.15,-1.53 1.21,-1.38 1.23,-1.23 1.25,-1.07 1.23,-0.91 1.21,-0.76 1.21,-0.73 1.20,-0.71 1.11,-0.52 1.02,-0.32 0.88,-0.17 0.73,-0.01 0.54,0.08 0.36,0.17 0.15,0.21 -0.05,0.24 -0.26,0.21 -0.47,0.18 -0.66,0.08 -0.85,-0.01 -0.99,-0.17 -1.14,-0.32 -1.23,-0.52 -1.32,-0.71 -1.34,-0.92 -1.36,-1.13 -1.32,-1.34 -1.27,-1.55 -1.16,-1.73 -1.05,-1.91 -0.89,-2.05 -0.73,-2.18 -0.53,-2.26 -0.34,-2.34 -0.12,-2.35 0.08,-2.37 0.28,-2.31 0.49,-2.25 0.66,-2.13 0.84,-2.01 0.97,-1.84 1.10,-1.67 1.17,-1.47 1.23,-1.27 1.23,-1.06 1.23,-0.85 1.17,-0.65 1.10,-0.44 0.97,-0.28 0.84,-0.11 0.66,0.00 0.49,0.12 0.28,0.18 0.08,0.24 -0.12,0.22 -0.34,0.21 -0.53,0.13 -0.73,0.06 -0.89,-0.07 -1.05,-0.21 -1.16,-0.39 -1.27,-0.57 -1.32,-0.78 -1.36,-0.99 -1.35,-1.18 -1.33,-1.36 -1.28,-1.51 -1.22,-1.66 -1.13,-1.79 -1.04,-1.92 -0.93,-2.03 -0.81,-2.13 -0.67,-2.21 -0.53,-2.28 -0.38,-2.32 -0.22,-2.36 -0.06,-2.36 0.08,-2.36 0.24,-2.33 0.39,-2.29 0.53,-2.22 0.67,-2.15 0.79,-2.04 0.91,-1.94 1.00,-1.81 1.09,-1.68 1.15,-1.53 1.21,-1.38 1.23,-1.23 1.25,-1.07 1.23,-0.91 1.21,-0.76 3.20,0.86 5.19,2.48 4.56,5.87 3.93,9.25 1.56,12.19 -0.79,15.12 -4.34,16.82 -7.88,18.52 -12.08,18.35 -16.27,18.17 -19.92,15.89 -23.58,13.62 -25.67,9.90 -27.76,6.18 -27.70,1.87 -27.64,-2.43 -25.71,-6.19 -23.78,-9.95 -20.48,-12.62 -17.17,-15.30 -13.26,-16.38 -9.35,-17.47 -6.34,-16.61 -3.33,-15.76 -1.61,-13.65 0.10,-11.54 0.87,-8.77 1.63,-6.00 1.65,-3.05 1.68,-0.10 1.67,0.09 1.65,0.29 1.59,0.49 1.54,0.68 1.43,0.85 1.33,1.03 1.18,1.17 1.04,1.32 0.87,1.42 0.69,1.53 0.50,1.59 0.31,1.65 0.10,1.66 -0.09,1.68 -0.29,1.64 -0.49,1.61 -0.67,1.52 -0.86,1.44 -1.02,1.32 -1.18,1.19 -1.31,1.03 -1.43,0.87 -1.52,0.69 -1.60,0.50 -1.64,0.30 -1.68,0.10 -1.68,0.10 L -1.68,0.10 Z"/></g><g transform="translate(142.91455078125 209.898681640625) rotate(0 -14.18377685546875 15.781478881835938)" stroke="none"><path fill="#000000" d="M 1.25,1.20 Q 1.25,1.20 -3.98,6.81 -9.22,12.42 -13.23,16.78 -17.25,21.14 -20.21,24.30 -23.17,27.47 -24.38,28.87 -25.60,30.28 -25.76,30.42 -25.92,30.56 -26.12,30.64 -26.31,30.72 -26.52,30.73 -26.74,30.75 -26.94,30.69 -27.15,30.64 -27.32,30.52 -27.50,30.41 -27.63,30.24 -27.76,30.07 -27.83,29.87 -27.90,29.67 -27.91,29.46 -27.91,29.25 -27.85,29.04 -27.78,28.84 -27.65,28.67 -27.53,28.50 -27.35,28.38 -27.18,28.26 -26.97,28.20 -26.77,28.14 -26.56,28.15 -26.35,28.15 -26.15,28.23 -25.95,28.31 -25.79,28.44 -25.62,28.58 -25.51,28.76 -25.40,28.94 -25.35,29.15 -25.30,29.35 -25.32,29.56 -25.34,29.78 -25.43,29.97 -25.52,30.16 -25.66,30.32 -25.80,30.48 -25.99,30.58 -26.18,30.68 -26.39,30.72 -26.59,30.75 -26.80,30.72 -27.02,30.69 -27.20,30.59 -27.39,30.50 -27.54,30.34 -27.69,30.19 -27.78,30.00 -27.87,29.81 -27.90,29.60 -27.92,29.39 -27.88,29.18 -27.84,28.97 -27.73,28.79 -27.62,28.60 -27.62,28.60 -27.62,28.60 -26.47,27.15 -25.32,25.69 -22.70,22.11 -20.09,18.53 -16.04,14.15 -11.99,9.77 -6.62,4.28 -1.25,-1.20 -1.09,-1.33 -0.93,-1.46 -0.74,-1.55 -0.55,-1.64 -0.34,-1.68 -0.14,-1.73 0.06,-1.72 0.27,-1.71 0.47,-1.65 0.67,-1.60 0.85,-1.49 1.04,-1.39 1.19,-1.24 1.34,-1.10 1.45,-0.92 1.56,-0.74 1.63,-0.55 1.70,-0.35 1.71,-0.14 1.73,0.06 1.70,0.27 1.67,0.47 1.58,0.67 1.50,0.86 1.38,1.03 1.25,1.20 1.25,1.20 L 1.25,1.20 Z"/></g><g transform="translate(137.25439453125 205.3040771484375) rotate(0 -12.7520751953125 13.051376342773438)" stroke="none"><path fill="#000000" d="M 1.09,1.18 Q 1.09,1.18 -1.22,3.62 -3.54,6.07 -6.14,8.52 -8.75,10.96 -11.46,13.47 -14.17,15.97 -16.58,18.35 -18.99,20.74 -21.26,23.22 -23.53,25.71 -23.69,25.85 -23.84,26.00 -24.04,26.08 -24.23,26.17 -24.44,26.19 -24.65,26.21 -24.86,26.16 -25.07,26.11 -25.25,26.00 -25.43,25.89 -25.56,25.73 -25.70,25.56 -25.77,25.36 -25.85,25.17 -25.86,24.95 -25.87,24.74 -25.81,24.54 -25.75,24.33 -25.63,24.16 -25.51,23.98 -25.34,23.86 -25.16,23.73 -24.96,23.67 -24.76,23.60 -24.55,23.60 -24.34,23.61 -24.14,23.68 -23.93,23.75 -23.77,23.88 -23.60,24.01 -23.48,24.19 -23.37,24.36 -23.31,24.57 -23.26,24.77 -23.27,24.99 -23.29,25.20 -23.37,25.40 -23.45,25.59 -23.59,25.75 -23.73,25.91 -23.91,26.02 -24.09,26.13 -24.30,26.17 -24.51,26.21 -24.72,26.19 -24.93,26.16 -25.12,26.07 -25.32,25.98 -25.47,25.83 -25.62,25.68 -25.72,25.49 -25.81,25.30 -25.85,25.09 -25.88,24.88 -25.84,24.67 -25.80,24.46 -25.70,24.28 -25.60,24.09 -25.60,24.09 -25.60,24.09 -23.63,21.15 -21.66,18.20 -19.32,15.57 -16.98,12.95 -14.29,10.43 -11.60,7.91 -8.97,5.47 -6.33,3.03 -3.71,0.92 -1.09,-1.18 -0.93,-1.29 -0.77,-1.40 -0.59,-1.48 -0.41,-1.55 -0.22,-1.58 -0.03,-1.60 0.16,-1.58 0.35,-1.56 0.53,-1.50 0.71,-1.43 0.88,-1.33 1.04,-1.22 1.17,-1.08 1.30,-0.94 1.39,-0.77 1.49,-0.60 1.54,-0.41 1.59,-0.22 1.59,-0.03 1.60,0.16 1.55,0.35 1.51,0.54 1.42,0.71 1.34,0.88 1.21,1.03 1.09,1.18 1.09,1.18 L 1.09,1.18 Z"/></g><g transform="translate(109.2198486328125 250.91720581054688) rotate(0 -7.4249267578125 5.593414306640625)" stroke="none"><path fill="#000000" d="M -1.16,1.29 Q -1.16,1.29 -2.90,0.04 -4.64,-1.21 -6.38,-1.49 -8.12,-1.76 -9.95,-1.06 -11.79,-0.35 -12.99,1.13 -14.19,2.63 -14.77,4.76 -15.36,6.88 -15.02,8.35 -14.69,9.82 -13.52,10.62 -12.35,11.42 -10.47,11.62 -8.59,11.83 -6.58,10.89 -4.58,9.94 -2.89,8.00 -1.21,6.07 -0.26,4.32 0.67,2.58 -0.36,0.99 -1.40,-0.59 -1.42,-0.74 -1.44,-0.90 -1.42,-1.06 -1.40,-1.22 -1.35,-1.36 -1.29,-1.51 -1.20,-1.64 -1.11,-1.77 -0.99,-1.88 -0.87,-1.98 -0.73,-2.06 -0.59,-2.13 -0.44,-2.17 -0.29,-2.21 -0.13,-2.21 0.02,-2.21 0.17,-2.17 0.33,-2.13 0.47,-2.06 0.61,-1.99 0.73,-1.88 0.85,-1.78 0.94,-1.65 1.03,-1.52 1.08,-1.37 1.14,-1.22 1.15,-0.94 1.16,-0.67 1.08,-0.47 1.01,-0.27 0.88,-0.10 0.75,0.06 0.57,0.17 0.39,0.29 0.19,0.34 -0.01,0.39 -0.22,0.38 -0.43,0.36 -0.63,0.28 -0.82,0.20 -0.98,0.06 -1.14,-0.07 -1.25,-0.26 -1.36,-0.44 -1.40,-0.65 -1.44,-0.86 -1.41,-1.07 -1.38,-1.28 -1.29,-1.47 -1.20,-1.66 -1.05,-1.81 -0.90,-1.96 -0.71,-2.06 -0.52,-2.16 -0.31,-2.19 -0.10,-2.22 0.10,-2.18 0.31,-2.14 0.49,-2.04 0.68,-1.93 0.82,-1.78 0.96,-1.62 1.05,-1.43 1.14,-1.23 1.15,-1.02 1.17,-0.81 1.12,-0.60 1.07,-0.39 0.96,-0.21 0.85,-0.03 0.68,0.09 0.52,0.22 0.32,0.30 0.12,0.37 -0.08,0.38 -0.29,0.39 -0.50,0.33 -0.70,0.27 -0.87,0.14 -1.05,0.02 -1.17,-0.14 -1.30,-0.31 -1.36,-0.51 -1.43,-0.72 -1.41,-0.65 -1.40,-0.59 -1.42,-0.74 -1.44,-0.90 -1.42,-1.06 -1.40,-1.22 -1.35,-1.36 -1.29,-1.51 -1.20,-1.64 -1.11,-1.77 -0.99,-1.88 -0.87,-1.98 -0.73,-2.06 -0.59,-2.13 -0.44,-2.17 -0.29,-2.21 -0.13,-2.21 0.02,-2.21 0.17,-2.17 0.33,-2.13 0.47,-2.06 0.61,-1.99 0.73,-1.88 0.85,-1.78 0.94,-1.65 1.03,-1.52 1.08,-1.37 1.14,-1.22 2.84,-1.14 4.53,-1.05 5.33,1.57 6.12,4.20 4.82,7.32 3.51,10.43 0.72,13.17 -2.06,15.92 -5.72,17.07 -9.37,18.22 -12.90,17.31 -16.42,16.41 -18.60,13.97 -20.77,11.53 -21.10,8.25 -21.42,4.98 -19.96,1.71 -18.49,-1.56 -15.95,-3.56 -13.41,-5.57 -10.23,-6.08 -7.05,-6.59 -4.45,-5.60 -1.86,-4.60 -0.34,-2.95 1.16,-1.29 1.29,-1.14 1.43,-0.98 1.53,-0.79 1.63,-0.61 1.68,-0.40 1.73,-0.20 1.72,0.00 1.72,0.21 1.67,0.42 1.62,0.62 1.52,0.81 1.42,0.99 1.28,1.15 1.14,1.30 0.97,1.42 0.80,1.54 0.60,1.61 0.40,1.69 0.20,1.71 -0.00,1.74 -0.21,1.71 -0.42,1.68 -0.62,1.61 -0.81,1.53 -0.98,1.41 -1.16,1.29 -1.16,1.29 L -1.16,1.29 Z"/></g><g transform="translate(74.9256591796875 245.12399291992188) rotate(0 -0.4993896484375 0.432830810546875)" stroke="none"><path fill="#000000" d="M 1.81,-0.56 Q 1.81,-0.56 1.84,-0.11 1.87,0.34 1.68,0.75 1.49,1.17 1.13,1.45 0.78,1.73 0.33,1.81 -0.11,1.89 -0.54,1.76 -0.98,1.62 -1.30,1.30 -1.62,0.98 -1.76,0.54 -1.89,0.11 -1.81,-0.33 -1.73,-0.78 -1.45,-1.13 -1.17,-1.49 -0.75,-1.68 -0.34,-1.87 0.11,-1.84 0.56,-1.81 0.95,-1.58 1.34,-1.34 1.58,-0.95 L 1.81,-0.56 Z"/></g><g transform="translate(73.793701171875 257.6426086425781) rotate(0 -0.36627197265625 -1.065399169921875)" stroke="none"><path fill="#000000" d="M 1.86,-0.58 Q 1.86,-0.58 1.89,-0.11 1.91,0.35 1.72,0.77 1.53,1.20 1.16,1.49 0.80,1.77 0.34,1.86 -0.11,1.94 -0.56,1.80 -1.00,1.66 -1.33,1.33 -1.66,1.00 -1.80,0.56 -1.94,0.11 -1.86,-0.34 -1.77,-0.80 -1.49,-1.16 -1.20,-1.53 -0.77,-1.72 -0.35,-1.91 0.11,-1.89 0.58,-1.86 0.98,-1.62 1.37,-1.37 1.62,-0.97 L 1.86,-0.58 Z"/></g><g transform="translate(92.43896484375 278.6180114746094) rotate(0 1.03216552734375 -0.1331787109375)" stroke="none"><path fill="#000000" d="M 1.92,-0.60 Q 1.92,-0.60 1.95,-0.11 1.98,0.36 1.78,0.80 1.58,1.24 1.20,1.54 0.82,1.83 0.35,1.92 -0.12,2.01 -0.58,1.87 -1.04,1.72 -1.38,1.38 -1.72,1.04 -1.87,0.58 -2.01,0.12 -1.92,-0.35 -1.83,-0.82 -1.54,-1.20 -1.24,-1.58 -0.80,-1.78 -0.36,-1.98 0.11,-1.95 0.60,-1.92 1.01,-1.67 1.42,-1.42 1.67,-1.01 L 1.92,-0.60 Z"/></g><g transform="translate(107.6217041015625 276.8867492675781) rotate(0 -0.3663330078125 -0.266387939453125)" stroke="none"><path fill="#000000" d="M 1.84,-0.57 Q 1.84,-0.57 1.87,-0.11 1.90,0.34 1.71,0.77 1.52,1.19 1.15,1.47 0.79,1.76 0.33,1.84 -0.11,1.93 -0.55,1.79 -1.00,1.65 -1.32,1.32 -1.65,1.00 -1.79,0.55 -1.93,0.11 -1.84,-0.33 -1.76,-0.79 -1.47,-1.15 -1.19,-1.52 -0.77,-1.71 -0.34,-1.90 0.11,-1.87 0.57,-1.84 0.97,-1.60 1.36,-1.36 1.60,-0.97 L 1.84,-0.57 Z"/></g><g transform="translate(19.8553466796875 173.87429809570312) rotate(0 -0.69915771484375 -0.7324676513671875)" stroke="none"><path fill="#000000" d="M 1.91,-0.59 Q 1.91,-0.59 1.93,-0.11 1.96,0.36 1.77,0.79 1.57,1.23 1.19,1.52 0.82,1.82 0.35,1.91 -0.12,1.99 -0.57,1.85 -1.03,1.71 -1.37,1.37 -1.71,1.03 -1.85,0.57 -1.99,0.12 -1.91,-0.35 -1.82,-0.82 -1.52,-1.19 -1.23,-1.57 -0.79,-1.77 -0.36,-1.96 0.11,-1.93 0.59,-1.91 1.00,-1.66 1.41,-1.41 1.66,-1.00 L 1.91,-0.59 Z"/></g><g transform="translate(10 167.7481689453125) rotate(0 0.66595458984375 0.19976806640625)" stroke="none"><path fill="#000000" d="M 1.82,-0.56 Q 1.82,-0.56 1.84,-0.11 1.87,0.34 1.68,0.75 1.50,1.17 1.14,1.45 0.78,1.73 0.33,1.82 -0.11,1.90 -0.55,1.76 -0.98,1.63 -1.30,1.30 -1.63,0.98 -1.76,0.55 -1.90,0.11 -1.82,-0.33 -1.73,-0.78 -1.45,-1.14 -1.17,-1.50 -0.75,-1.68 -0.34,-1.87 0.11,-1.84 0.56,-1.81 0.95,-1.58 1.34,-1.34 1.58,-0.95 L 1.82,-0.56 Z"/></g><g transform="translate(18.723388671875 132.92239379882812) rotate(0 0.099853515625 0.8323516845703125)" stroke="none"><path fill="#000000" d="M 1.99,-0.62 Q 1.99,-0.62 2.02,-0.12 2.05,0.37 1.84,0.83 1.64,1.28 1.25,1.59 0.85,1.90 0.36,1.99 -0.12,2.08 -0.60,1.93 -1.08,1.78 -1.43,1.43 -1.78,1.08 -1.93,0.60 -2.08,0.12 -1.99,-0.36 -1.90,-0.85 -1.59,-1.25 -1.28,-1.64 -0.83,-1.84 -0.37,-2.05 0.12,-2.02 0.62,-1.99 1.04,-1.73 1.47,-1.47 1.73,-1.04 L 1.99,-0.62 Z"/></g><g transform="translate(25.0494384765625 131.6572265625) rotate(0 1.16534423828125 0.5659942626953125)" stroke="none"><path fill="#000000" d="M 1.70,-0.53 Q 1.70,-0.53 1.72,-0.10 1.75,0.32 1.57,0.71 1.40,1.10 1.06,1.36 0.73,1.62 0.31,1.70 -0.10,1.78 -0.51,1.65 -0.92,1.52 -1.22,1.22 -1.52,0.92 -1.65,0.51 -1.78,0.10 -1.70,-0.31 -1.62,-0.73 -1.36,-1.06 -1.09,-1.40 -0.71,-1.57 -0.32,-1.75 0.10,-1.72 0.53,-1.70 0.89,-1.48 1.26,-1.26 1.48,-0.89 L 1.70,-0.53 Z"/></g><g transform="translate(91.70654296875 26.64715576171875) rotate(0 -14.05059814453125 10.221343994140625)" stroke="none"><path fill="#000000" d="M -1.31,1.14 Q -1.31,1.14 -3.30,-0.48 -5.28,-2.11 -6.94,-2.76 -8.60,-3.42 -10.61,-3.18 -12.62,-2.94 -15.06,-1.05 -17.50,0.84 -19.46,3.70 -21.43,6.56 -22.30,9.49 -23.17,12.43 -22.69,14.97 -22.21,17.52 -20.72,19.35 -19.24,21.18 -17.16,22.04 -15.09,22.91 -13.14,22.63 -11.20,22.35 -9.74,21.20 -8.27,20.05 -7.38,18.44 -6.48,16.84 -6.16,15.21 -5.83,13.58 -6.07,12.20 -6.31,10.82 -7.11,8.42 -7.90,6.01 -7.98,5.82 -8.06,5.62 -8.08,5.41 -8.09,5.20 -8.04,4.99 -7.99,4.79 -7.87,4.61 -7.76,4.43 -7.59,4.30 -7.43,4.17 -7.23,4.09 -7.03,4.02 -6.81,4.02 -6.60,4.01 -6.40,4.08 -6.20,4.14 -6.02,4.26 -5.85,4.39 -5.73,4.56 -5.61,4.74 -5.54,4.94 -5.48,5.14 -5.49,5.36 -5.50,5.57 -5.57,5.77 -5.65,5.97 -5.78,6.13 -5.91,6.30 -6.09,6.41 -6.27,6.52 -6.48,6.57 -6.69,6.62 -6.90,6.60 -7.11,6.59 -7.30,6.50 -7.50,6.42 -7.66,6.27 -7.81,6.13 -7.92,5.95 -8.02,5.76 -8.06,5.55 -8.10,5.34 -8.07,5.13 -8.04,4.92 -7.94,4.73 -7.85,4.54 -7.70,4.39 -7.55,4.24 -7.36,4.15 -7.16,4.06 -6.95,4.03 -6.74,4.00 -6.53,4.04 -6.33,4.08 -6.14,4.19 -5.96,4.29 -5.82,4.45 -5.68,4.61 -5.68,4.61 -5.68,4.61 -3.44,7.00 -1.20,9.40 -0.40,11.96 0.38,14.53 -0.18,17.43 -0.74,20.32 -2.58,22.95 -4.41,25.58 -7.39,27.30 -10.37,29.01 -14.02,29.06 -17.67,29.12 -21.09,27.26 -24.52,25.40 -26.68,22.07 -28.85,18.75 -29.23,14.66 -29.60,10.58 -28.17,6.65 -26.73,2.72 -23.89,-0.83 -21.05,-4.39 -17.14,-6.60 -13.22,-8.82 -9.75,-8.70 -6.28,-8.59 -3.86,-7.10 -1.45,-5.62 -0.06,-3.38 1.31,-1.14 1.43,-0.97 1.55,-0.79 1.62,-0.60 1.69,-0.40 1.72,-0.19 1.74,0.01 1.71,0.22 1.69,0.43 1.61,0.62 1.53,0.82 1.41,0.99 1.29,1.16 1.13,1.30 0.98,1.44 0.79,1.54 0.60,1.63 0.40,1.68 0.19,1.73 -0.01,1.73 -0.22,1.73 -0.42,1.67 -0.63,1.62 -0.81,1.52 -1.00,1.42 -1.16,1.28 -1.31,1.14 -1.31,1.14 L -1.31,1.14 Z"/></g><g transform="translate(101.695068359375 27.57940673828125) rotate(0 0.19976806640625 0.199737548828125)" stroke="none"><path fill="#000000" d="M 1.99,-0.62 Q 1.99,-0.62 2.02,-0.12 2.05,0.37 1.85,0.83 1.64,1.29 1.25,1.60 0.85,1.90 0.36,1.99 -0.12,2.08 -0.60,1.94 -1.08,1.79 -1.43,1.43 -1.79,1.08 -1.94,0.60 -2.08,0.12 -1.99,-0.36 -1.90,-0.85 -1.59,-1.25 -1.29,-1.64 -0.83,-1.85 -0.37,-2.05 0.12,-2.02 0.62,-1.99 1.05,-1.73 1.48,-1.48 1.73,-1.05 L 1.99,-0.62 Z"/></g><g transform="translate(94.7696533203125 20.054901123046875) rotate(0 0.53271484375 0.166473388671875)" stroke="none"><path fill="#000000" d="M 2.01,-0.62 Q 2.01,-0.62 2.05,-0.12 2.08,0.38 1.87,0.84 1.66,1.30 1.26,1.61 0.86,1.92 0.37,2.02 -0.12,2.11 -0.61,1.96 -1.09,1.81 -1.45,1.45 -1.81,1.09 -1.96,0.61 -2.11,0.12 -2.02,-0.37 -1.92,-0.86 -1.61,-1.26 -1.30,-1.66 -0.84,-1.87 -0.38,-2.08 0.12,-2.05 0.62,-2.01 1.06,-1.75 1.49,-1.49 1.75,-1.06 L 2.01,-0.62 Z"/></g><g transform="translate(65.4031982421875 10) rotate(0 -0.69915771484375 0.3995513916015625)" stroke="none"><path fill="#000000" d="M 2.16,-0.67 Q 2.16,-0.67 2.19,-0.13 2.22,0.40 2.00,0.90 1.78,1.39 1.35,1.73 0.92,2.06 0.39,2.16 -0.13,2.26 -0.65,2.10 -1.17,1.93 -1.55,1.55 -1.93,1.17 -2.10,0.65 -2.26,0.13 -2.16,-0.39 -2.06,-0.93 -1.73,-1.35 -1.39,-1.78 -0.90,-2.00 -0.40,-2.22 0.13,-2.19 0.67,-2.16 1.13,-1.88 1.60,-1.60 1.88,-1.13 L 2.16,-0.67 Z"/></g><g transform="translate(54.6156005859375 17.258148193359375) rotate(0 -0.53271484375 0.4661407470703125)" stroke="none"><path fill="#000000" d="M 1.90,-0.59 Q 1.90,-0.59 1.93,-0.11 1.96,0.35 1.76,0.79 1.57,1.23 1.19,1.52 0.81,1.82 0.34,1.90 -0.12,1.99 -0.57,1.85 -1.03,1.70 -1.37,1.37 -1.70,1.03 -1.85,0.57 -1.99,0.12 -1.90,-0.34 -1.81,-0.81 -1.52,-1.19 -1.23,-1.57 -0.79,-1.76 -0.35,-1.96 0.11,-1.93 0.59,-1.90 1.00,-1.65 1.41,-1.41 1.65,-1.00 L 1.90,-0.59 Z"/></g><g transform="translate(58.4112548828125 51.351470947265625) rotate(0 0.59930419921875 0.33294677734375)" stroke="none"><path fill="#000000" d="M 2.04,-0.63 Q 2.04,-0.63 2.07,-0.12 2.10,0.38 1.89,0.85 1.68,1.32 1.28,1.63 0.87,1.95 0.37,2.04 -0.12,2.13 -0.61,1.98 -1.10,1.83 -1.47,1.47 -1.83,1.10 -1.98,0.61 -2.13,0.12 -2.04,-0.37 -1.95,-0.88 -1.63,-1.28 -1.32,-1.68 -0.85,-1.89 -0.38,-2.10 0.12,-2.07 0.63,-2.04 1.07,-1.78 1.51,-1.51 1.78,-1.07 L 2.04,-0.63 Z"/></g><g transform="translate(63.738525390625 57.9437255859375) rotate(0 0.799072265625 -0.53271484375)" stroke="none"><path fill="#000000" d="M 1.99,-0.62 Q 1.99,-0.62 2.02,-0.12 2.06,0.37 1.85,0.83 1.64,1.29 1.25,1.60 0.85,1.90 0.36,2.00 -0.12,2.09 -0.60,1.94 -1.08,1.79 -1.43,1.43 -1.79,1.08 -1.94,0.60 -2.09,0.12 -2.00,-0.36 -1.90,-0.85 -1.60,-1.25 -1.29,-1.64 -0.83,-1.85 -0.37,-2.06 0.12,-2.02 0.62,-1.99 1.05,-1.74 1.48,-1.48 1.74,-1.05 L 1.99,-0.62 Z"/></g></svg>