<svg version="1.1" xmlns="http://www.w3.org/2000/svg" viewBox="0 0 531.9818030002016 277.3320701512398" width="531.9818030002016" height="277.3320701512398" filter="invert(93%) hue-rotate(180deg)" class="excalidraw-svg"><!-- svg-source:excalidraw --><metadata></metadata><defs><style class="style-fonts">
      </style></defs><g stroke-linecap="round"><g transform="translate(10 61.40614422531394) rotate(0 99.35601989000193 102.69938796205406)" fill-rule="evenodd"><path d="M0 0 L0 200 L60.47 205.4 L83.66 204.51 L106.61 196.25 L125.58 150.99 L135.62 125.36 L153.22 111.75 L198.71 99.26 L198.71 0.26 L120 0 L120 60 L80 60 L80 0 L0 0" stroke="none" stroke-width="0" fill="#a5d8ff" fill-rule="evenodd"></path><path d="M0 0 C0 76.72, 0 153.44, 0 200 M0 0 C0 61.22, 0 122.45, 0 200 M0 200 C16.31 201.46, 32.62 202.91, 60.47 205.4 M0 200 C16.13 201.44, 32.26 202.88, 60.47 205.4 M60.47 205.4 C65.16 205.22, 69.86 205.04, 83.66 204.51 M60.47 205.4 C67.22 205.14, 73.98 204.88, 83.66 204.51 M83.66 204.51 C91.96 201.52, 100.26 198.54, 106.61 196.25 M83.66 204.51 C91.93 201.53, 100.21 198.55, 106.61 196.25 M106.61 196.25 C113.71 179.31, 120.81 162.37, 125.58 150.99 M106.61 196.25 C113.91 178.84, 121.21 161.42, 125.58 150.99 M125.58 150.99 C128.95 142.38, 132.32 133.77, 135.62 125.36 M125.58 150.99 C127.91 145.04, 130.24 139.09, 135.62 125.36 M135.62 125.36 C141.46 120.84, 147.31 116.32, 153.22 111.75 M135.62 125.36 C140.14 121.86, 144.66 118.36, 153.22 111.75 M153.22 111.75 C165.13 108.48, 177.04 105.21, 198.71 99.26 M153.22 111.75 C168.12 107.66, 183.02 103.57, 198.71 99.26 M198.71 99.26 C198.71 63.88, 198.71 28.49, 198.71 0.26 M198.71 99.26 C198.71 64.14, 198.71 29.02, 198.71 0.26 M198.71 0.26 C182.35 0.21, 166 0.15, 120 0 M198.71 0.26 C173.55 0.18, 148.38 0.09, 120 0 M120 0 C120 16.79, 120 33.59, 120 60 M120 0 C120 12.12, 120 24.24, 120 60 M120 60 C106.38 60, 92.76 60, 80 60 M120 60 C111.68 60, 103.35 60, 80 60 M80 60 C80 37.32, 80 14.64, 80 0 M80 60 C80 42.06, 80 24.12, 80 0 M80 0 C62.03 0, 44.05 0, 0 0 M80 0 C62.5 0, 45.01 0, 0 0 M0 0 C0 0, 0 0, 0 0 M0 0 C0 0, 0 0, 0 0" stroke="transparent" stroke-width="4" fill="none"></path></g></g><mask></mask><g stroke-linecap="round"><g transform="translate(210 161.40614422531394) rotate(0 -100 50)"><path d="M0 0 C-10 3.33, -43.33 3.33, -60 20 C-76.67 36.67, -76.67 86.67, -100 100 C-123.33 113.33, -183.33 100, -200 100 M0 0 C-10 3.33, -43.33 3.33, -60 20 C-76.67 36.67, -76.67 86.67, -100 100 C-123.33 113.33, -183.33 100, -200 100" stroke="#1e1e1e" stroke-width="4" fill="none"></path></g></g><mask></mask><g stroke-linecap="round"><g transform="translate(210 161.40614422531394) rotate(0 -100 0)"><path d="M0 0 C0 -20.51, 0 -41.02, 0 -100 M0 0 C0 -29.23, 0 -58.47, 0 -100 M0 -100 C-19.96 -100, -39.92 -100, -80 -100 M0 -100 C-28.82 -100, -57.65 -100, -80 -100 M-80 -100 C-80 -78.49, -80 -56.98, -80 -40 M-80 -100 C-80 -84.51, -80 -69.02, -80 -40 M-80 -40 C-89.69 -40, -99.38 -40, -120 -40 M-80 -40 C-88.32 -40, -96.65 -40, -120 -40 M-120 -40 C-120 -57.46, -120 -74.91, -120 -100 M-120 -40 C-120 -61.06, -120 -82.11, -120 -100 M-120 -100 C-136.19 -100, -152.37 -100, -200 -100 M-120 -100 C-141.43 -100, -162.86 -100, -200 -100 M-200 -100 C-200 -37.91, -200 24.18, -200 100 M-200 -100 C-200 -59.44, -200 -18.89, -200 100" stroke="#1e1e1e" stroke-width="4" fill="none"></path></g></g><mask></mask><g stroke-linecap="round"><g transform="translate(321.9818030002016 61.40614422531394) rotate(0 99.35601989000192 102.69938796205406)" fill-rule="evenodd"><path d="M0 0 L0 200 L60.47 205.4 L83.66 204.51 L106.61 196.25 L125.58 150.99 L135.62 125.36 L153.22 111.75 L198.71 99.26 L198.71 0.26 L120 0 L120 60 L80 60 L80 0 L0 0" stroke="none" stroke-width="0" fill="#a5d8ff" fill-rule="evenodd"></path><path d="M0 0 C0 61.3, 0 122.61, 0 200 M0 0 C0 64.88, 0 129.76, 0 200 M0 200 C12.3 201.1, 24.6 202.2, 60.47 205.4 M0 200 C14.92 201.33, 29.84 202.66, 60.47 205.4 M60.47 205.4 C65.68 205.2, 70.89 205, 83.66 204.51 M60.47 205.4 C68.33 205.1, 76.19 204.79, 83.66 204.51 M83.66 204.51 C91.82 201.57, 99.98 198.64, 106.61 196.25 M83.66 204.51 C89.82 202.29, 95.98 200.07, 106.61 196.25 M106.61 196.25 C113.61 179.56, 120.6 162.86, 125.58 150.99 M106.61 196.25 C111.21 185.29, 115.8 174.32, 125.58 150.99 M125.58 150.99 C129.05 142.11, 132.53 133.23, 135.62 125.36 M125.58 150.99 C128.93 142.42, 132.29 133.86, 135.62 125.36 M135.62 125.36 C140.92 121.26, 146.22 117.16, 153.22 111.75 M135.62 125.36 C141.14 121.09, 146.66 116.82, 153.22 111.75 M153.22 111.75 C166.83 108.01, 180.43 104.28, 198.71 99.26 M153.22 111.75 C170.22 107.08, 187.21 102.42, 198.71 99.26 M198.71 99.26 C198.71 71.41, 198.71 43.55, 198.71 0.26 M198.71 99.26 C198.71 63.75, 198.71 28.24, 198.71 0.26 M198.71 0.26 C168.35 0.16, 137.99 0.06, 120 0 M198.71 0.26 C175.63 0.18, 152.55 0.11, 120 0 M120 0 C120 22.12, 120 44.24, 120 60 M120 0 C120 12.57, 120 25.15, 120 60 M120 60 C106.92 60, 93.84 60, 80 60 M120 60 C108.96 60, 97.91 60, 80 60 M80 60 C80 40.79, 80 21.58, 80 0 M80 60 C80 46.49, 80 32.97, 80 0 M80 0 C56.66 0, 33.32 0, 0 0 M80 0 C57.46 0, 34.92 0, 0 0 M0 0 C0 0, 0 0, 0 0 M0 0 C0 0, 0 0, 0 0" stroke="transparent" stroke-width="4" fill="none"></path></g></g><mask></mask><g stroke-linecap="round"><g transform="translate(521.9818030002016 161.40614422531394) rotate(0 -100 50)"><path d="M0 0 C-10 3.33, -43.33 3.33, -60 20 C-76.67 36.67, -76.67 86.67, -100 100 C-123.33 113.33, -183.33 100, -200 100 M0 0 C-10 3.33, -43.33 3.33, -60 20 C-76.67 36.67, -76.67 86.67, -100 100 C-123.33 113.33, -183.33 100, -200 100" stroke="#1e1e1e" stroke-width="4" fill="none"></path></g></g><mask></mask><g stroke-linecap="round"><g transform="translate(521.9818030002016 161.40614422531394) rotate(0 -100 0)"><path d="M0 0 C0 -24.13, 0 -48.27, 0 -100 M0 0 C0 -33.11, 0 -66.21, 0 -100 M0 -100 C-21.1 -100, -42.19 -100, -80 -100 M0 -100 C-26.8 -100, -53.59 -100, -80 -100 M-80 -100 C-80 -84.71, -80 -69.41, -80 -40 M-80 -100 C-80 -77.11, -80 -54.23, -80 -40 M-80 -40 C-90.16 -40, -100.33 -40, -120 -40 M-80 -40 C-91.8 -40, -103.6 -40, -120 -40 M-120 -40 C-120 -57.47, -120 -74.94, -120 -100 M-120 -40 C-120 -63.18, -120 -86.35, -120 -100 M-120 -100 C-136.65 -100, -153.3 -100, -200 -100 M-120 -100 C-142.38 -100, -164.77 -100, -200 -100 M-200 -100 C-200 -23.7, -200 52.6, -200 100 M-200 -100 C-200 -51.48, -200 -2.95, -200 100" stroke="#1e1e1e" stroke-width="4" fill="none"></path></g></g><mask></mask><g stroke-linecap="round" transform="translate(98.93136436531753 46.32373455313564) rotate(0 13.604341543511168 35.9507410640918)"><path d="M0 0 L27.21 0 L27.21 71.9 L0 71.9" stroke="none" stroke-width="0" fill="#ffc9c9"></path><path d="M0 0 C10.22 0, 20.43 0, 27.21 0 M0 0 C7.15 0, 14.3 0, 27.21 0 M27.21 0 C27.21 18.52, 27.21 37.03, 27.21 71.9 M27.21 0 C27.21 26.97, 27.21 53.95, 27.21 71.9 M27.21 71.9 C19.54 71.9, 11.86 71.9, 0 71.9 M27.21 71.9 C19.8 71.9, 12.39 71.9, 0 71.9 M0 71.9 C0 49.13, 0 26.36, 0 0 M0 71.9 C0 52.69, 0 33.47, 0 0" stroke="#1e1e1e" stroke-width="4" fill="none"></path></g><g stroke-linecap="round" transform="translate(403.4790118541572 20.26009720126325) rotate(342.963394360098 13.604341543511168 35.9507410640918)"><path d="M0 0 L27.21 0 L27.21 71.9 L0 71.9" stroke="none" stroke-width="0" fill="#ffc9c9"></path><path d="M0 0 C9.77 0, 19.54 0, 27.21 0 M0 0 C8.14 0, 16.27 0, 27.21 0 M27.21 0 C27.21 21.72, 27.21 43.43, 27.21 71.9 M27.21 0 C27.21 16.81, 27.21 33.63, 27.21 71.9 M27.21 71.9 C16.56 71.9, 5.91 71.9, 0 71.9 M27.21 71.9 C20.96 71.9, 14.71 71.9, 0 71.9 M0 71.9 C0 49.21, 0 26.52, 0 0 M0 71.9 C0 53.16, 0 34.43, 0 0" stroke="#1e1e1e" stroke-width="4" fill="none"></path></g><g stroke-linecap="round"><g transform="translate(401.9818030002016 60.986245112897564) rotate(0 20.76836359162624 -25.493122556448768)"><path d="M0 0 C11.63 -14.28, 23.26 -28.55, 41.54 -50.99" stroke="#f08c00" stroke-width="2.5" fill="none" stroke-dasharray="8 10"></path></g></g><mask></mask><g stroke-linecap="round"><g transform="translate(400.79454195503786 62.03375449664742) rotate(0 27.74491184697959 21.293731913496146)"><path d="M0 0 C20.12 15.44, 40.24 30.88, 55.49 42.59" stroke="#f08c00" stroke-width="2.5" fill="none" stroke-dasharray="8 10"></path></g></g><mask></mask><g stroke-linecap="round"><g transform="translate(406.56083648545734 23.04626377683192) rotate(0 17.938614042304437 31.07059093863981)"><path d="M0 0 C8.83 15.29, 17.65 30.57, 35.88 62.14" stroke="#2f9e44" stroke-width="2.5" fill="none" stroke-dasharray="8 10"></path></g></g><mask></mask><g stroke-linecap="round"><g transform="translate(441.9937784204134 85.53559947075448) rotate(0 -28.71809676505677 12.994572975385836)"><path d="M0 0 C-15.77 7.13, -31.53 14.27, -57.44 25.99" stroke="#2f9e44" stroke-width="2.5" fill="none" stroke-dasharray="8 10"></path></g></g><mask></mask></svg>