<svg version="1.1" xmlns="http://www.w3.org/2000/svg" viewBox="0 0 479.9649733881796 407.45716857910156" width="479.9649733881796" height="407.45716857910156" filter="invert(93%) hue-rotate(180deg)">
  <!-- svg-source:excalidraw -->
  
  <defs>
    <style class="style-fonts">
      @font-face {
        font-family: "Virgil";
        src: url("https://excalidraw.com/Virgil.woff2");
      }
      @font-face {
        font-family: "Cascadia";
        src: url("https://excalidraw.com/Cascadia.woff2");
      }
    </style>
  </defs>
  <rect x="0" y="0" width="479.9649733881796" height="407.45716857910156" fill="#ffffff"/><g stroke-linecap="round"><g transform="translate(58.05548095703125 349.7132110595703) rotate(0 149.02943420410156 0)"><path d="M0 0 C49.68 0, 248.38 0, 298.06 0 M0 0 C49.68 0, 248.38 0, 298.06 0" stroke="#000000" stroke-width="1" fill="none"/></g><g transform="translate(58.05548095703125 349.7132110595703) rotate(0 149.02943420410156 0)"><path d="M298.06 0 L284.46 6.34 L284.46 -6.34 L298.06 0" stroke="none" stroke-width="0" fill="#000000" fill-rule="evenodd"/><path d="M298.06 0 C295.24 1.32, 292.41 2.63, 284.46 6.34 M298.06 0 C294.03 1.88, 290 3.76, 284.46 6.34 M284.46 6.34 C284.46 1.82, 284.46 -2.7, 284.46 -6.34 M284.46 6.34 C284.46 2.56, 284.46 -1.22, 284.46 -6.34 M284.46 -6.34 C289.06 -4.2, 293.65 -2.06, 298.06 0 M284.46 -6.34 C289.7 -3.9, 294.93 -1.46, 298.06 0 M298.06 0 C298.06 0, 298.06 0, 298.06 0 M298.06 0 C298.06 0, 298.06 0, 298.06 0" stroke="#000000" stroke-width="1" fill="none"/></g></g><mask/><g stroke-linecap="round"><g transform="translate(56.457305908203125 350.31251525878906) rotate(0 58.44890594482422 -58.44890594482421)"><path d="M0 0 C19.48 -19.48, 97.41 -97.41, 116.9 -116.9 M0 0 C19.48 -19.48, 97.41 -97.41, 116.9 -116.9" stroke="#000000" stroke-width="0.5" fill="none"/></g><g transform="translate(56.457305908203125 350.31251525878906) rotate(0 58.44890594482422 -58.44890594482421)"><path d="M116.9 -116.9 L111.77 -102.8 L102.8 -111.77 L116.9 -116.9" stroke="none" stroke-width="0" fill="#000000" fill-rule="evenodd"/><path d="M116.9 -116.9 C115.82 -113.93, 114.74 -110.96, 111.77 -102.8 M116.9 -116.9 C115.57 -113.26, 114.25 -109.62, 111.77 -102.8 M111.77 -102.8 C109.62 -104.95, 107.48 -107.09, 102.8 -111.77 M111.77 -102.8 C108.94 -105.63, 106.11 -108.46, 102.8 -111.77 M102.8 -111.77 C106.54 -113.13, 110.28 -114.49, 116.9 -116.9 M102.8 -111.77 C107.11 -113.34, 111.42 -114.91, 116.9 -116.9 M116.9 -116.9 C116.9 -116.9, 116.9 -116.9, 116.9 -116.9 M116.9 -116.9 C116.9 -116.9, 116.9 -116.9, 116.9 -116.9" stroke="#000000" stroke-width="0.5" fill="none"/></g></g><mask/><g transform="translate(194.96548461914062 388.80067443847656) rotate(0 -2.0976409912109375 1.49822998046875)" stroke="none"><path fill="#000000" d="M -0.85,0.36 Q -0.85,0.36 -1.71,-0.68 -2.57,-1.73 -3.15,-2.30 -3.74,-2.87 -4.26,-3.09 -4.78,-3.31 -5.33,-3.17 -5.87,-3.03 -6.59,-2.26 -7.30,-1.50 -7.99,-0.18 -8.67,1.12 -8.95,2.26 -9.23,3.40 -8.94,3.87 -8.65,4.34 -8.07,4.58 -7.48,4.82 -6.78,4.85 -6.08,4.88 -5.58,4.45 -5.08,4.01 -4.91,3.46 -4.74,2.91 -4.02,2.30 -3.30,1.70 -1.99,1.73 -0.68,1.77 0.64,2.60 1.98,3.43 2.98,4.28 3.99,5.13 5.55,6.05 7.12,6.97 7.23,6.97 7.33,6.97 7.43,7.01 7.53,7.05 7.62,7.11 7.70,7.18 7.76,7.27 7.81,7.36 7.84,7.46 7.87,7.56 7.86,7.67 7.85,7.78 7.81,7.87 7.77,7.97 7.70,8.05 7.63,8.13 7.53,8.18 7.44,8.24 7.34,8.26 7.23,8.28 7.13,8.26 7.02,8.25 6.93,8.20 6.83,8.16 6.76,8.08 6.68,8.01 6.63,7.91 6.59,7.82 6.57,7.71 6.56,7.61 6.58,7.50 6.60,7.40 6.65,7.30 6.70,7.21 6.78,7.14 6.86,7.07 6.95,7.03 7.05,6.98 7.16,6.97 7.26,6.97 7.37,6.99 7.47,7.02 7.56,7.07 7.65,7.13 7.72,7.21 7.78,7.29 7.82,7.39 7.86,7.49 7.86,7.60 7.86,7.71 7.83,7.81 7.80,7.91 7.74,8.00 7.68,8.08 7.59,8.14 7.51,8.21 7.41,8.24 7.30,8.27 7.30,8.27 7.30,8.27 4.46,8.12 1.61,7.97 0.73,7.24 -0.14,6.50 -0.82,5.72 -1.50,4.94 -1.88,5.72 -2.26,6.51 -3.17,7.29 -4.07,8.08 -5.31,8.34 -6.55,8.59 -8.00,8.29 -9.45,7.98 -10.68,6.98 -11.91,5.99 -12.39,4.44 -12.87,2.89 -12.42,1.09 -11.97,-0.71 -10.86,-2.53 -9.75,-4.36 -8.13,-5.50 -6.51,-6.63 -4.90,-6.63 -3.29,-6.63 -2.17,-5.92 -1.04,-5.22 -0.27,-4.15 0.50,-3.09 0.68,-1.73 0.85,-0.36 0.89,-0.26 0.92,-0.15 0.92,-0.03 0.93,0.07 0.91,0.18 0.88,0.29 0.83,0.39 0.79,0.49 0.72,0.58 0.64,0.67 0.55,0.74 0.46,0.80 0.36,0.85 0.26,0.89 0.15,0.91 0.03,0.93 -0.07,0.92 -0.18,0.91 -0.29,0.88 -0.39,0.84 -0.49,0.78 -0.58,0.72 -0.66,0.64 -0.74,0.56 -0.80,0.46 -0.85,0.36 -0.85,0.36 L -0.85,0.36 Z"/></g><g transform="translate(184.04461669921875 373.2189483642578) rotate(0 6.0264434814453125 0.432830810546875)" stroke="none"><path fill="#000000" d="M 0.21,-1.06 Q 0.21,-1.06 1.49,-1.07 2.77,-1.08 4.18,-0.99 5.59,-0.90 6.97,-0.81 8.34,-0.73 9.86,-0.32 11.38,0.07 11.48,0.09 11.59,0.10 11.68,0.15 11.78,0.20 11.85,0.28 11.92,0.36 11.97,0.46 12.01,0.55 12.02,0.66 12.03,0.76 12.01,0.87 11.99,0.97 11.93,1.06 11.88,1.15 11.80,1.22 11.71,1.29 11.62,1.33 11.52,1.37 11.41,1.37 11.30,1.38 11.20,1.35 11.10,1.32 11.01,1.26 10.92,1.20 10.86,1.12 10.80,1.03 10.76,0.93 10.73,0.83 10.73,0.72 10.73,0.62 10.76,0.52 10.80,0.42 10.86,0.33 10.93,0.25 11.02,0.19 11.10,0.13 11.21,0.10 11.31,0.07 11.41,0.08 11.52,0.08 11.62,0.12 11.72,0.16 11.80,0.23 11.88,0.30 11.93,0.39 11.99,0.48 12.01,0.59 12.03,0.69 12.02,0.80 12.01,0.90 11.96,1.00 11.92,1.10 11.85,1.17 11.77,1.25 11.68,1.30 11.59,1.35 11.48,1.37 11.38,1.38 11.38,1.38 11.38,1.38 9.85,1.78 8.33,2.17 6.85,2.24 5.37,2.31 3.75,2.20 2.13,2.08 0.95,1.57 -0.21,1.06 -0.33,1.02 -0.46,0.98 -0.57,0.91 -0.68,0.84 -0.77,0.74 -0.86,0.65 -0.93,0.53 -0.99,0.42 -1.03,0.30 -1.07,0.17 -1.07,0.04 -1.08,-0.08 -1.05,-0.21 -1.02,-0.34 -0.97,-0.46 -0.91,-0.57 -0.83,-0.68 -0.75,-0.78 -0.64,-0.86 -0.54,-0.93 -0.42,-0.99 -0.30,-1.04 -0.17,-1.06 -0.04,-1.08 0.08,-1.07 0.21,-1.06 0.21,-1.06 L 0.21,-1.06 Z"/></g><g transform="translate(195.76455688476562 369.09046936035156) rotate(0 2.463836669921875 5.360382080078125)" stroke="none"><path fill="#000000" d="M 0.82,-0.48 Q 0.82,-0.48 1.46,-0.00 2.10,0.47 2.60,0.81 3.11,1.15 3.78,1.64 4.46,2.13 5.13,3.03 5.81,3.92 6.08,5.13 6.36,6.33 6.06,7.52 5.76,8.71 3.84,9.89 1.92,11.07 1.83,11.13 1.74,11.18 1.63,11.21 1.53,11.23 1.42,11.23 1.32,11.22 1.22,11.17 1.12,11.13 1.05,11.06 0.97,10.99 0.91,10.90 0.86,10.81 0.84,10.70 0.82,10.60 0.84,10.49 0.85,10.39 0.90,10.29 0.95,10.20 1.02,10.12 1.10,10.05 1.19,10.00 1.29,9.95 1.39,9.94 1.50,9.92 1.60,9.94 1.71,9.96 1.80,10.02 1.89,10.07 1.96,10.15 2.03,10.23 2.07,10.33 2.12,10.42 2.12,10.53 2.13,10.63 2.11,10.74 2.08,10.84 2.02,10.93 1.97,11.02 1.88,11.09 1.80,11.15 1.70,11.19 1.60,11.23 1.49,11.23 1.39,11.23 1.29,11.20 1.19,11.17 1.10,11.11 1.01,11.04 0.95,10.96 0.89,10.87 0.86,10.77 0.83,10.67 0.83,10.56 0.83,10.45 0.87,10.35 0.91,10.26 0.97,10.17 1.04,10.09 1.04,10.09 1.04,10.09 2.00,8.38 2.96,6.68 2.97,6.14 2.98,5.61 2.77,5.12 2.55,4.64 1.84,4.13 1.13,3.62 0.28,2.87 -0.57,2.13 -0.69,1.30 -0.82,0.48 -0.86,0.37 -0.91,0.27 -0.93,0.15 -0.95,0.04 -0.94,-0.06 -0.93,-0.18 -0.90,-0.29 -0.86,-0.40 -0.80,-0.50 -0.74,-0.59 -0.66,-0.67 -0.57,-0.75 -0.48,-0.81 -0.38,-0.87 -0.27,-0.90 -0.16,-0.94 -0.04,-0.94 0.06,-0.95 0.18,-0.93 0.29,-0.90 0.39,-0.85 0.50,-0.81 0.59,-0.73 0.68,-0.66 0.75,-0.57 0.82,-0.48 0.82,-0.48 L 0.82,-0.48 Z"/></g><g transform="translate(98.07635498046875 241.5069122314453) rotate(0 5.793365478515625 11.053695678710938)" stroke="none"><path fill="#000000" d="M 0.95,-0.30 Q 0.95,-0.30 1.82,1.29 2.70,2.89 3.04,4.67 3.37,6.46 3.51,7.81 3.65,9.17 3.67,10.07 3.69,10.98 4.08,10.51 4.48,10.05 5.34,9.95 6.21,9.85 7.07,9.83 7.93,9.80 8.90,10.09 9.87,10.37 10.67,10.97 11.47,11.56 12.05,12.44 12.64,13.32 12.91,14.45 13.18,15.58 13.15,16.86 13.12,18.14 12.58,19.37 12.04,20.60 11.07,21.57 10.10,22.55 8.38,22.94 6.66,23.32 4.98,22.43 3.30,21.54 2.24,19.85 1.18,18.16 1.62,15.55 2.05,12.93 2.10,12.84 2.15,12.75 2.22,12.67 2.30,12.60 2.40,12.55 2.49,12.51 2.60,12.50 2.70,12.49 2.81,12.51 2.91,12.53 3.00,12.59 3.09,12.64 3.16,12.72 3.23,12.80 3.27,12.90 3.31,13.00 3.32,13.11 3.32,13.21 3.29,13.32 3.27,13.42 3.21,13.51 3.15,13.59 3.06,13.66 2.98,13.72 2.88,13.76 2.78,13.79 2.67,13.79 2.56,13.79 2.46,13.76 2.36,13.72 2.28,13.66 2.19,13.59 2.13,13.51 2.07,13.42 2.05,13.32 2.02,13.21 2.02,13.11 2.03,13.00 2.07,12.90 2.11,12.80 2.18,12.72 2.24,12.64 2.34,12.59 2.43,12.53 2.53,12.51 2.63,12.49 2.74,12.50 2.85,12.51 2.94,12.55 3.04,12.60 3.12,12.67 3.19,12.74 3.24,12.84 3.29,12.93 3.31,13.04 3.33,13.14 3.31,13.25 3.29,13.35 3.29,13.35 3.29,13.35 3.88,14.83 4.48,16.31 5.00,17.40 5.53,18.49 6.64,19.05 7.75,19.61 8.22,19.21 8.70,18.80 9.04,18.31 9.39,17.82 9.45,17.04 9.51,16.25 9.29,15.26 9.07,14.28 8.49,13.78 7.91,13.28 7.24,13.29 6.57,13.30 5.82,13.37 5.07,13.45 4.41,13.56 3.76,13.67 2.78,13.64 1.81,13.61 1.18,13.00 0.56,12.38 0.40,11.71 0.25,11.05 0.23,10.28 0.22,9.51 0.10,8.29 -0.01,7.07 -0.28,5.49 -0.55,3.91 -0.75,2.10 -0.95,0.30 -0.97,0.18 -0.99,0.06 -0.99,-0.05 -0.98,-0.17 -0.95,-0.29 -0.91,-0.40 -0.85,-0.51 -0.79,-0.61 -0.70,-0.70 -0.61,-0.78 -0.51,-0.84 -0.41,-0.91 -0.29,-0.94 -0.18,-0.98 -0.06,-0.99 0.05,-1.00 0.17,-0.97 0.29,-0.95 0.40,-0.90 0.51,-0.85 0.61,-0.78 0.70,-0.71 0.78,-0.61 0.85,-0.52 0.90,-0.41 0.95,-0.30 0.95,-0.30 L 0.95,-0.30 Z"/></g><g stroke-linecap="round"><g transform="translate(55.56501770019531 346.73793029785156) rotate(0 7.105427357601002e-15 -142.3994903564453)"><path d="M0 0 C0 -47.47, 0 -237.33, 0 -284.8 M0 0 C0 -47.47, 0 -237.33, 0 -284.8" stroke="#000000" stroke-width="0.5" fill="none"/></g><g transform="translate(55.56501770019531 346.73793029785156) rotate(0 7.105427357601002e-15 -142.3994903564453)"><path d="M0 -284.8 L6.34 -271.2 L-6.34 -271.2 L0 -284.8" stroke="none" stroke-width="0" fill="#000000" fill-rule="evenodd"/><path d="M0 -284.8 C2.28 -279.91, 4.56 -275.03, 6.34 -271.2 M0 -284.8 C2.3 -279.88, 4.59 -274.96, 6.34 -271.2 M6.34 -271.2 C1.66 -271.2, -3.01 -271.2, -6.34 -271.2 M6.34 -271.2 C2.18 -271.2, -1.98 -271.2, -6.34 -271.2 M-6.34 -271.2 C-4.12 -275.97, -1.9 -280.73, 0 -284.8 M-6.34 -271.2 C-4.17 -275.87, -1.99 -280.53, 0 -284.8 M0 -284.8 C0 -284.8, 0 -284.8, 0 -284.8 M0 -284.8 C0 -284.8, 0 -284.8, 0 -284.8" stroke="#000000" stroke-width="0.5" fill="none"/></g></g><mask/><g transform="translate(18.323822021484375 33.172821044921875) rotate(0 1.6980133056640625 3.3959808349609375)" stroke="none"><path fill="#000000" d="M -0.42,0.85 Q -0.42,0.85 -1.49,0.68 -2.56,0.50 -3.29,0.87 -4.02,1.23 -4.19,1.94 -4.36,2.65 -4.45,3.55 -4.55,4.45 -4.40,5.16 -4.25,5.88 -4.77,6.33 -5.30,6.78 -4.84,5.87 -4.38,4.97 -3.83,4.03 -3.28,3.09 -2.71,2.26 -2.13,1.44 -1.58,0.90 -1.04,0.37 -0.11,0.07 0.82,-0.21 1.86,0.18 2.90,0.58 3.85,1.36 4.80,2.14 5.66,2.89 6.52,3.64 7.95,4.20 9.37,4.76 9.48,4.76 9.59,4.76 9.69,4.79 9.79,4.82 9.87,4.89 9.96,4.95 10.02,5.04 10.08,5.13 10.11,5.23 10.14,5.33 10.13,5.44 10.13,5.54 10.09,5.64 10.05,5.74 9.98,5.82 9.91,5.90 9.82,5.96 9.73,6.02 9.63,6.04 9.52,6.06 9.42,6.05 9.31,6.04 9.21,6.00 9.12,5.95 9.04,5.88 8.96,5.81 8.91,5.71 8.86,5.62 8.84,5.51 8.83,5.41 8.84,5.31 8.86,5.20 8.91,5.11 8.96,5.01 9.04,4.94 9.11,4.87 9.21,4.82 9.30,4.77 9.41,4.76 9.52,4.75 9.62,4.77 9.72,4.80 9.81,4.85 9.91,4.90 9.98,4.98 10.04,5.07 10.08,5.16 10.12,5.26 10.13,5.37 10.14,5.47 10.11,5.58 10.08,5.68 10.02,5.77 9.96,5.86 9.88,5.92 9.79,5.99 9.69,6.02 9.59,6.05 9.59,6.05 9.59,6.05 6.99,6.10 4.38,6.15 3.53,5.42 2.67,4.69 1.60,4.01 0.53,3.34 0.03,4.04 -0.46,4.74 -1.02,5.69 -1.57,6.63 -2.24,7.65 -2.90,8.67 -3.50,8.99 -4.09,9.30 -5.47,8.74 -6.84,8.17 -7.19,7.32 -7.55,6.46 -7.73,5.26 -7.92,4.05 -7.72,2.70 -7.51,1.34 -6.80,-0.02 -6.08,-1.38 -4.90,-2.00 -3.73,-2.62 -2.49,-2.52 -1.25,-2.42 -0.41,-1.64 0.42,-0.85 0.52,-0.79 0.62,-0.73 0.70,-0.64 0.78,-0.56 0.83,-0.46 0.89,-0.35 0.92,-0.24 0.95,-0.13 0.95,-0.01 0.95,0.09 0.93,0.21 0.90,0.32 0.85,0.42 0.80,0.53 0.72,0.61 0.65,0.70 0.55,0.77 0.46,0.84 0.35,0.88 0.24,0.92 0.13,0.94 0.01,0.96 -0.09,0.94 -0.21,0.93 -0.32,0.89 -0.43,0.85 -0.43,0.85 L -0.42,0.85 Z"/></g><g transform="translate(10 17.19158935546875) rotate(0 5.5602874755859375 0.1331634521484375)" stroke="none"><path fill="#000000" d="M 0.01,-0.99 Q 0.01,-0.99 1.71,-1.19 3.42,-1.38 4.92,-1.32 6.43,-1.26 8.59,-0.83 10.76,-0.40 10.86,-0.38 10.97,-0.36 11.06,-0.30 11.15,-0.25 11.22,-0.17 11.29,-0.09 11.33,0.00 11.38,0.09 11.38,0.20 11.39,0.30 11.37,0.41 11.34,0.51 11.28,0.60 11.23,0.69 11.14,0.76 11.06,0.82 10.96,0.86 10.86,0.90 10.76,0.90 10.65,0.90 10.55,0.87 10.45,0.84 10.36,0.78 10.27,0.72 10.21,0.63 10.15,0.54 10.12,0.44 10.09,0.34 10.09,0.23 10.09,0.13 10.13,0.03 10.17,-0.06 10.23,-0.15 10.30,-0.23 10.39,-0.29 10.48,-0.34 10.58,-0.37 10.69,-0.39 10.79,-0.38 10.90,-0.38 10.99,-0.33 11.09,-0.29 11.17,-0.22 11.25,-0.15 11.30,-0.06 11.35,0.02 11.37,0.13 11.39,0.23 11.38,0.34 11.37,0.44 11.32,0.54 11.27,0.63 11.20,0.71 11.12,0.78 11.03,0.83 10.93,0.88 10.83,0.89 10.72,0.91 10.72,0.91 10.72,0.91 8.53,1.21 6.34,1.52 4.86,1.49 3.39,1.46 1.69,1.23 -0.01,0.99 -0.13,0.98 -0.24,0.96 -0.36,0.92 -0.47,0.87 -0.57,0.80 -0.67,0.73 -0.74,0.64 -0.82,0.55 -0.88,0.45 -0.93,0.34 -0.96,0.22 -0.99,0.10 -0.99,-0.01 -0.98,-0.13 -0.95,-0.24 -0.92,-0.36 -0.87,-0.47 -0.81,-0.57 -0.73,-0.66 -0.65,-0.75 -0.55,-0.82 -0.45,-0.88 -0.34,-0.93 -0.22,-0.97 -0.10,-0.98 0.01,-0.99 0.01,-0.99 L 0.01,-0.99 Z"/></g><g transform="translate(20.454681396484375 12.463775634765625) rotate(0 2.064300537109375 4.3282623291015625)" stroke="none"><path fill="#000000" d="M 0.85,-0.36 Q 0.85,-0.36 1.39,0.39 1.93,1.15 2.37,1.79 2.81,2.42 3.29,2.93 3.76,3.44 4.17,3.90 4.58,4.36 4.88,5.05 5.18,5.73 3.67,6.77 2.16,7.81 2.17,7.88 2.19,7.96 2.19,8.04 2.19,8.12 2.17,8.19 2.15,8.27 2.12,8.34 2.08,8.41 2.03,8.47 1.97,8.53 1.91,8.57 1.84,8.62 1.77,8.65 1.69,8.67 1.61,8.68 1.54,8.69 1.46,8.68 1.38,8.67 1.31,8.64 1.23,8.61 1.17,8.57 1.10,8.52 1.05,8.46 1.00,8.40 0.96,8.33 0.92,8.26 1.03,8.41 1.15,8.56 1.07,8.48 1.00,8.41 0.95,8.31 0.91,8.21 0.90,8.11 0.88,8.00 0.91,7.90 0.93,7.79 0.98,7.70 1.04,7.61 1.12,7.54 1.20,7.47 1.30,7.43 1.40,7.39 1.50,7.39 1.61,7.38 1.71,7.41 1.81,7.44 1.90,7.50 1.99,7.56 2.05,7.64 2.12,7.72 2.15,7.83 2.19,7.93 2.19,8.03 2.19,8.14 2.16,8.24 2.12,8.34 2.06,8.42 1.99,8.51 1.91,8.57 1.82,8.63 1.72,8.66 1.61,8.69 1.51,8.68 1.40,8.68 1.30,8.64 1.20,8.60 1.12,8.53 1.04,8.46 0.99,8.37 0.93,8.28 0.91,8.18 0.88,8.07 0.90,7.97 0.91,7.86 0.95,7.76 1.00,7.67 1.07,7.59 1.14,7.51 1.23,7.46 1.33,7.41 1.43,7.40 1.54,7.38 1.64,7.39 1.75,7.41 1.95,7.61 2.16,7.81 2.17,7.88 2.19,7.96 2.19,8.04 2.19,8.12 2.17,8.19 2.15,8.27 2.12,8.34 2.08,8.41 2.03,8.47 1.97,8.53 1.91,8.57 1.84,8.62 1.77,8.65 1.69,8.67 1.62,8.68 1.54,8.69 1.46,8.68 1.38,8.67 1.31,8.64 1.23,8.61 1.17,8.57 1.10,8.52 1.05,8.46 1.00,8.40 0.96,8.33 0.92,8.26 1.73,7.16 2.54,6.05 2.18,5.64 1.83,5.22 1.23,4.56 0.63,3.90 0.07,3.05 -0.47,2.20 -0.66,1.28 -0.85,0.36 -0.88,0.26 -0.91,0.15 -0.92,0.04 -0.92,-0.07 -0.90,-0.18 -0.88,-0.29 -0.83,-0.39 -0.78,-0.49 -0.71,-0.58 -0.64,-0.66 -0.55,-0.73 -0.46,-0.80 -0.36,-0.84 -0.26,-0.89 -0.15,-0.91 -0.04,-0.93 0.06,-0.92 0.18,-0.91 0.28,-0.87 0.39,-0.84 0.49,-0.78 0.58,-0.72 0.66,-0.64 0.74,-0.56 0.79,-0.46 0.85,-0.36 0.85,-0.36 L 0.85,-0.36 Z"/></g><g transform="translate(42.629302978515625 29.64361572265625) rotate(0 3.1297607421875 4.361541748046875)" stroke="none"><path fill="#000000" d="M 0.79,-0.50 Q 0.79,-0.50 1.90,0.93 3.02,2.38 3.89,3.71 4.76,5.05 5.53,6.40 6.30,7.76 6.36,7.85 6.41,7.94 6.43,8.04 6.46,8.15 6.44,8.25 6.43,8.36 6.39,8.45 6.34,8.55 6.27,8.63 6.20,8.70 6.10,8.75 6.01,8.80 5.90,8.82 5.80,8.84 5.69,8.82 5.59,8.80 5.49,8.75 5.40,8.70 5.33,8.62 5.26,8.55 5.21,8.45 5.17,8.35 5.16,8.25 5.14,8.14 5.17,8.04 5.19,7.94 5.24,7.84 5.30,7.75 5.38,7.68 5.46,7.62 5.56,7.58 5.66,7.54 5.77,7.53 5.87,7.53 5.97,7.56 6.08,7.58 6.16,7.64 6.25,7.70 6.32,7.79 6.38,7.87 6.41,7.97 6.45,8.08 6.45,8.18 6.45,8.29 6.41,8.39 6.38,8.49 6.31,8.57 6.25,8.66 6.16,8.72 6.07,8.78 5.97,8.80 5.87,8.83 5.76,8.83 5.66,8.82 5.56,8.78 5.46,8.74 5.38,8.67 5.30,8.60 5.30,8.60 5.30,8.60 4.00,7.51 2.71,6.43 1.79,5.08 0.88,3.74 0.04,2.12 -0.79,0.50 -0.84,0.40 -0.89,0.30 -0.91,0.19 -0.93,0.07 -0.93,-0.03 -0.92,-0.14 -0.89,-0.25 -0.86,-0.36 -0.81,-0.46 -0.75,-0.56 -0.67,-0.64 -0.59,-0.72 -0.50,-0.78 -0.40,-0.84 -0.29,-0.88 -0.19,-0.92 -0.07,-0.93 0.03,-0.93 0.14,-0.92 0.25,-0.90 0.36,-0.86 0.46,-0.81 0.55,-0.74 0.64,-0.68 0.72,-0.59 0.79,-0.50 0.79,-0.50 L 0.79,-0.50 Z"/></g><g transform="translate(51.68560791015625 28.7779541015625) rotate(0 -4.428253173828125 4.727783203125)" stroke="none"><path fill="#000000" d="M 0.78,0.78 Q 0.78,0.78 0.01,1.93 -0.74,3.08 -2.02,4.17 -3.29,5.26 -4.36,6.35 -5.43,7.44 -6.78,8.51 -8.14,9.58 -8.21,9.65 -8.29,9.73 -8.38,9.78 -8.47,9.82 -8.58,9.84 -8.69,9.85 -8.79,9.83 -8.89,9.81 -8.99,9.76 -9.08,9.71 -9.15,9.63 -9.22,9.55 -9.27,9.46 -9.31,9.36 -9.32,9.25 -9.33,9.15 -9.30,9.04 -9.28,8.94 -9.22,8.85 -9.16,8.76 -9.08,8.69 -9.00,8.63 -8.90,8.59 -8.80,8.55 -8.69,8.55 -8.59,8.55 -8.49,8.58 -8.38,8.61 -8.30,8.67 -8.21,8.73 -8.15,8.82 -8.09,8.90 -8.05,9.00 -8.02,9.10 -8.02,9.21 -8.03,9.32 -8.06,9.42 -8.10,9.52 -8.16,9.60 -8.23,9.68 -8.32,9.74 -8.41,9.80 -8.51,9.82 -8.61,9.85 -8.72,9.84 -8.83,9.84 -8.92,9.79 -9.02,9.75 -9.10,9.68 -9.18,9.61 -9.23,9.52 -9.29,9.43 -9.31,9.32 -9.33,9.22 -9.31,9.11 -9.30,9.01 -9.25,8.91 -9.21,8.82 -9.21,8.82 -9.21,8.82 -8.49,7.01 -7.77,5.21 -6.61,3.96 -5.45,2.71 -4.26,1.73 -3.08,0.74 -1.93,-0.01 -0.78,-0.78 -0.67,-0.86 -0.57,-0.94 -0.44,-0.99 -0.32,-1.05 -0.19,-1.07 -0.06,-1.10 0.06,-1.09 0.19,-1.08 0.32,-1.04 0.45,-1.00 0.56,-0.93 0.68,-0.86 0.77,-0.77 0.86,-0.68 0.93,-0.56 1.00,-0.45 1.04,-0.32 1.08,-0.19 1.09,-0.06 1.10,0.06 1.07,0.19 1.05,0.32 0.99,0.44 0.94,0.57 0.86,0.67 0.78,0.78 0.78,0.78 L 0.78,0.78 Z"/></g><g transform="translate(65.869384765625 14.661163330078125) rotate(0 6.15960693359375 11.686294555664062)" stroke="none"><path fill="#000000" d="M 0.94,-0.23 Q 0.94,-0.23 1.55,1.09 2.16,2.43 2.45,3.67 2.73,4.92 2.87,6.24 3.00,7.56 3.02,8.85 3.03,10.15 2.98,11.20 2.92,12.25 2.89,12.83 2.87,13.42 2.44,13.07 2.02,12.73 2.42,12.29 2.82,11.85 3.61,11.67 4.41,11.50 5.35,11.42 6.29,11.33 7.19,11.37 8.10,11.41 9.05,11.70 10.00,12.00 10.83,12.60 11.66,13.21 12.31,14.06 12.96,14.91 13.33,15.91 13.70,16.91 13.79,18.02 13.89,19.12 13.55,20.29 13.21,21.45 12.17,22.50 11.14,23.54 9.80,24.07 8.47,24.61 6.82,24.44 5.17,24.28 3.79,23.24 2.41,22.20 1.60,20.85 0.79,19.50 1.37,17.43 1.94,15.35 2.00,15.26 2.05,15.17 2.13,15.10 2.21,15.03 2.30,14.98 2.40,14.94 2.51,14.93 2.61,14.93 2.72,14.95 2.82,14.98 2.91,15.04 3.00,15.09 3.06,15.18 3.13,15.26 3.17,15.36 3.20,15.46 3.21,15.56 3.21,15.67 3.18,15.77 3.15,15.87 3.08,15.96 3.02,16.05 2.94,16.11 2.85,16.17 2.75,16.20 2.65,16.23 2.54,16.23 2.43,16.22 2.33,16.19 2.23,16.15 2.15,16.08 2.07,16.02 2.01,15.93 1.95,15.84 1.93,15.73 1.90,15.63 1.91,15.53 1.92,15.42 1.96,15.32 2.01,15.22 2.08,15.15 2.15,15.07 2.24,15.01 2.33,14.96 2.44,14.94 2.54,14.92 2.65,14.94 2.75,14.95 2.85,15.00 2.94,15.05 3.02,15.12 3.09,15.20 3.14,15.29 3.19,15.39 3.20,15.49 3.21,15.60 3.19,15.70 3.17,15.81 3.17,15.81 3.17,15.81 3.54,16.80 3.90,17.78 4.38,18.60 4.87,19.42 5.44,20.06 6.01,20.70 6.71,20.87 7.40,21.05 8.08,20.85 8.75,20.65 9.48,19.93 10.21,19.21 10.22,18.59 10.22,17.97 10.12,17.43 10.01,16.90 9.71,16.39 9.41,15.89 8.63,15.34 7.84,14.80 7.19,14.74 6.53,14.67 5.79,14.71 5.06,14.75 3.93,15.01 2.80,15.26 1.74,15.14 0.68,15.01 0.20,14.16 -0.27,13.30 -0.25,12.69 -0.23,12.08 -0.18,11.13 -0.13,10.17 -0.13,9.01 -0.14,7.84 -0.22,6.70 -0.31,5.57 -0.54,4.36 -0.78,3.15 -0.86,1.69 -0.94,0.23 -0.95,0.11 -0.97,0.00 -0.95,-0.11 -0.94,-0.23 -0.90,-0.34 -0.86,-0.45 -0.79,-0.54 -0.72,-0.64 -0.64,-0.72 -0.55,-0.80 -0.44,-0.85 -0.34,-0.90 -0.23,-0.93 -0.11,-0.96 -0.00,-0.96 0.11,-0.96 0.23,-0.93 0.34,-0.90 0.44,-0.85 0.55,-0.80 0.64,-0.72 0.72,-0.64 0.79,-0.54 0.86,-0.45 0.90,-0.34 0.94,-0.23 0.94,-0.23 L 0.94,-0.23 Z"/></g><g transform="translate(69.06570434570312 12.463775634765625) rotate(0 4.2285003662109375 0.4994049072265625)" stroke="none"><path fill="#000000" d="M 0.07,-0.98 Q 0.07,-0.98 1.12,-1.21 2.18,-1.43 3.20,-1.28 4.22,-1.13 6.24,-0.40 8.26,0.32 8.36,0.34 8.46,0.37 8.55,0.43 8.64,0.49 8.71,0.57 8.77,0.65 8.81,0.75 8.84,0.85 8.85,0.96 8.85,1.07 8.81,1.17 8.78,1.27 8.72,1.35 8.66,1.44 8.57,1.50 8.48,1.56 8.38,1.59 8.28,1.62 8.17,1.62 8.07,1.61 7.97,1.58 7.87,1.54 7.79,1.47 7.70,1.40 7.65,1.31 7.59,1.22 7.57,1.12 7.54,1.02 7.55,0.91 7.56,0.80 7.61,0.71 7.65,0.61 7.72,0.53 7.79,0.45 7.89,0.40 7.98,0.35 8.08,0.33 8.19,0.31 8.29,0.33 8.40,0.34 8.49,0.39 8.59,0.44 8.66,0.52 8.74,0.59 8.78,0.69 8.83,0.79 8.84,0.89 8.85,1.00 8.83,1.10 8.81,1.20 8.76,1.30 8.70,1.39 8.62,1.46 8.54,1.53 8.45,1.57 8.35,1.61 8.24,1.62 8.14,1.62 8.14,1.62 8.14,1.62 5.93,1.82 3.73,2.03 2.84,1.88 1.94,1.74 0.93,1.36 -0.07,0.98 -0.18,0.96 -0.30,0.93 -0.41,0.88 -0.52,0.83 -0.61,0.76 -0.70,0.68 -0.78,0.59 -0.85,0.49 -0.89,0.39 -0.94,0.28 -0.96,0.16 -0.98,0.04 -0.97,-0.07 -0.96,-0.19 -0.93,-0.30 -0.89,-0.41 -0.83,-0.51 -0.76,-0.61 -0.68,-0.70 -0.59,-0.78 -0.49,-0.84 -0.39,-0.90 -0.27,-0.94 -0.16,-0.97 -0.04,-0.97 0.07,-0.98 0.07,-0.98 L 0.07,-0.98 Z"/></g><g transform="translate(77.58932495117188 10) rotate(0 1.1986236572265625 3.662353515625)" stroke="none"><path fill="#000000" d="M 0.76,-0.54 Q 0.76,-0.54 1.52,0.12 2.28,0.80 2.75,1.65 3.23,2.50 3.47,3.49 3.71,4.47 3.54,5.44 3.38,6.42 2.83,7.14 2.28,7.85 1.76,8.06 1.24,8.28 0.94,8.07 0.64,7.86 0.56,7.90 0.47,7.93 0.39,7.94 0.30,7.96 0.21,7.95 0.12,7.94 0.03,7.91 -0.04,7.89 -0.12,7.84 -0.19,7.79 -0.25,7.72 -0.32,7.66 -0.36,7.58 -0.40,7.50 -0.43,7.42 -0.45,7.33 -0.46,7.24 -0.46,7.15 -0.44,7.06 -0.42,6.98 -0.38,6.90 -0.34,6.82 -0.29,6.75 -0.23,6.68 -0.16,6.62 -0.09,6.57 -0.31,4.83 -0.53,3.09 -0.52,2.98 -0.51,2.88 -0.46,2.78 -0.42,2.69 -0.34,2.61 -0.27,2.54 -0.17,2.49 -0.08,2.44 0.02,2.42 0.12,2.41 0.23,2.43 0.33,2.45 0.43,2.50 0.52,2.55 0.59,2.63 0.66,2.70 0.70,2.80 0.75,2.90 0.76,3.00 0.77,3.11 0.74,3.21 0.72,3.32 0.66,3.41 0.61,3.50 0.52,3.56 0.44,3.63 0.34,3.67 0.24,3.71 0.14,3.71 0.03,3.72 -0.06,3.69 -0.16,3.66 -0.25,3.59 -0.34,3.53 -0.40,3.45 -0.46,3.36 -0.49,3.26 -0.53,3.16 -0.53,3.05 -0.52,2.95 -0.49,2.85 -0.45,2.75 -0.39,2.66 -0.32,2.58 -0.23,2.52 -0.14,2.46 -0.04,2.44 0.05,2.41 0.16,2.42 0.26,2.43 0.36,2.47 0.46,2.51 0.54,2.58 0.62,2.65 0.67,2.74 0.73,2.83 0.75,2.94 0.77,3.04 0.77,3.04 0.77,3.04 0.70,5.45 0.64,7.86 0.56,7.90 0.47,7.93 0.39,7.94 0.30,7.96 0.21,7.95 0.12,7.94 0.03,7.91 -0.04,7.89 -0.12,7.84 -0.19,7.79 -0.25,7.72 -0.32,7.66 -0.36,7.58 -0.40,7.50 -0.43,7.42 -0.45,7.33 -0.46,7.24 -0.46,7.15 -0.44,7.06 -0.42,6.98 -0.38,6.90 -0.34,6.82 -0.29,6.75 -0.23,6.68 -0.16,6.62 -0.09,6.57 -0.10,6.22 -0.12,5.88 0.21,5.40 0.55,4.92 0.52,4.34 0.49,3.76 0.25,3.08 0.01,2.41 -0.37,1.48 -0.76,0.54 -0.82,0.44 -0.87,0.34 -0.90,0.23 -0.93,0.12 -0.93,0.01 -0.93,-0.09 -0.91,-0.20 -0.88,-0.32 -0.83,-0.42 -0.78,-0.52 -0.71,-0.60 -0.63,-0.69 -0.54,-0.76 -0.45,-0.82 -0.34,-0.87 -0.24,-0.91 -0.12,-0.92 -0.01,-0.94 0.09,-0.93 0.21,-0.91 0.31,-0.88 0.42,-0.84 0.51,-0.77 0.61,-0.71 0.69,-0.63 0.76,-0.54 0.76,-0.54 L 0.76,-0.54 Z"/></g><g transform="translate(57.4505615234375 333.79576110839844) rotate(0 6.9586944580078125 5.49359130859375)" stroke="none"><path fill="#000000" d="M -0.03,-0.90 Q -0.03,-0.90 1.03,-0.97 2.10,-1.04 2.89,-1.07 3.68,-1.10 4.51,-1.03 5.34,-0.97 5.95,-0.92 6.56,-0.88 7.17,-0.84 7.79,-0.80 8.80,-0.78 9.80,-0.75 10.49,-0.80 11.18,-0.85 11.70,-1.34 12.22,-1.83 12.82,-1.97 13.42,-2.10 13.92,-1.65 14.43,-1.20 14.51,-0.61 14.58,-0.03 14.59,0.63 14.60,1.29 14.54,2.50 14.48,3.71 14.38,4.47 14.27,5.23 14.15,5.98 14.03,6.73 13.98,7.40 13.94,8.07 14.17,9.85 14.40,11.64 14.42,11.74 14.45,11.85 14.44,11.95 14.43,12.06 14.38,12.15 14.34,12.25 14.27,12.33 14.20,12.41 14.11,12.46 14.01,12.51 13.91,12.53 13.80,12.55 13.70,12.53 13.59,12.52 13.50,12.47 13.40,12.42 13.33,12.35 13.25,12.27 13.21,12.18 13.16,12.08 13.15,11.97 13.14,11.87 13.16,11.76 13.18,11.66 13.23,11.57 13.28,11.48 13.36,11.41 13.44,11.34 13.54,11.30 13.64,11.25 13.74,11.25 13.85,11.24 13.95,11.27 14.06,11.29 14.15,11.35 14.23,11.41 14.30,11.49 14.37,11.57 14.40,11.67 14.44,11.77 14.44,11.88 14.44,11.99 14.41,12.09 14.38,12.19 14.31,12.28 14.25,12.36 14.16,12.42 14.08,12.48 13.98,12.51 13.87,12.54 13.77,12.54 13.66,12.54 13.56,12.50 13.46,12.46 13.38,12.39 13.30,12.33 13.24,12.24 13.19,12.15 13.19,12.15 13.19,12.15 12.55,10.03 11.91,7.92 11.96,7.16 12.02,6.40 12.14,5.68 12.25,4.96 12.35,4.25 12.45,3.53 12.50,2.42 12.56,1.30 12.86,0.72 13.16,0.14 12.61,0.54 12.06,0.95 11.37,1.07 10.68,1.19 9.72,1.22 8.76,1.25 8.21,1.23 7.66,1.22 7.03,1.17 6.40,1.13 5.78,1.08 5.16,1.03 4.44,0.95 3.72,0.88 2.95,0.88 2.17,0.89 1.10,0.90 0.03,0.90 -0.07,0.89 -0.18,0.88 -0.28,0.85 -0.39,0.81 -0.48,0.75 -0.57,0.70 -0.65,0.62 -0.72,0.54 -0.78,0.44 -0.83,0.35 -0.86,0.24 -0.89,0.14 -0.90,0.03 -0.90,-0.07 -0.88,-0.18 -0.85,-0.29 -0.81,-0.38 -0.76,-0.48 -0.69,-0.57 -0.62,-0.65 -0.53,-0.72 -0.45,-0.78 -0.34,-0.83 -0.24,-0.87 -0.14,-0.88 -0.03,-0.90 -0.03,-0.90 L -0.03,-0.90 Z"/></g><g transform="translate(55.78582763671875 323.1416473388672) rotate(0 6.5258636474609375 -5.160614013671875)" stroke="none"><path fill="#000000" d="M -0.53,-0.66 Q -0.53,-0.66 0.01,-1.16 0.55,-1.65 1.03,-2.03 1.51,-2.40 2.03,-2.73 2.55,-3.06 3.21,-3.37 3.87,-3.69 4.41,-4.07 4.96,-4.46 5.55,-5.02 6.14,-5.57 6.88,-6.22 7.63,-6.87 8.28,-7.61 8.93,-8.35 10.70,-9.53 12.47,-10.70 12.56,-10.75 12.66,-10.80 12.76,-10.82 12.87,-10.84 12.97,-10.82 13.08,-10.81 13.17,-10.76 13.26,-10.71 13.34,-10.63 13.41,-10.56 13.46,-10.46 13.50,-10.36 13.52,-10.26 13.53,-10.15 13.51,-10.05 13.49,-9.95 13.43,-9.85 13.38,-9.76 13.30,-9.69 13.22,-9.62 13.12,-9.58 13.02,-9.54 12.92,-9.53 12.81,-9.53 12.71,-9.56 12.60,-9.58 12.52,-9.64 12.43,-9.70 12.36,-9.78 12.30,-9.87 12.26,-9.97 12.23,-10.07 12.23,-10.17 12.22,-10.28 12.26,-10.38 12.29,-10.48 12.35,-10.57 12.42,-10.65 12.50,-10.71 12.59,-10.77 12.69,-10.80 12.80,-10.83 12.90,-10.83 13.01,-10.82 13.11,-10.79 13.21,-10.75 13.29,-10.68 13.37,-10.61 13.42,-10.52 13.48,-10.43 13.50,-10.33 13.53,-10.22 13.52,-10.12 13.51,-10.01 13.46,-9.92 13.42,-9.82 13.35,-9.74 13.28,-9.66 13.28,-9.66 13.28,-9.66 11.86,-8.34 10.44,-7.02 9.70,-6.18 8.97,-5.34 8.24,-4.72 7.52,-4.09 6.81,-3.44 6.10,-2.80 5.41,-2.33 4.71,-1.86 4.15,-1.62 3.59,-1.37 3.13,-1.09 2.67,-0.82 2.20,-0.50 1.73,-0.18 1.13,0.24 0.53,0.66 0.44,0.71 0.35,0.77 0.25,0.80 0.16,0.83 0.05,0.84 -0.04,0.84 -0.14,0.83 -0.24,0.81 -0.33,0.77 -0.43,0.73 -0.51,0.66 -0.59,0.60 -0.65,0.52 -0.72,0.44 -0.76,0.35 -0.80,0.26 -0.82,0.16 -0.84,0.05 -0.84,-0.04 -0.83,-0.14 -0.80,-0.24 -0.77,-0.34 -0.72,-0.42 -0.67,-0.51 -0.60,-0.58 -0.53,-0.66 -0.53,-0.66 L -0.53,-0.66 Z"/></g><g transform="translate(68.77093505859375 313.0202178955078) rotate(0 -0.7657928466796875 9.056045532226562)" stroke="none"><path fill="#000000" d="M 0.90,0.08 Q 0.90,0.08 0.80,1.31 0.71,2.53 0.53,3.90 0.35,5.26 0.14,6.68 -0.06,8.10 -0.20,9.71 -0.35,11.32 -0.42,12.83 -0.48,14.34 -0.56,15.87 -0.64,17.39 -0.65,17.50 -0.66,17.60 -0.71,17.70 -0.75,17.79 -0.82,17.87 -0.90,17.95 -0.99,18.00 -1.09,18.04 -1.19,18.06 -1.30,18.08 -1.40,18.06 -1.51,18.04 -1.60,17.99 -1.69,17.94 -1.77,17.86 -1.84,17.78 -1.88,17.69 -1.93,17.59 -1.94,17.48 -1.95,17.38 -1.92,17.28 -1.90,17.17 -1.84,17.08 -1.79,16.99 -1.71,16.92 -1.63,16.85 -1.53,16.82 -1.43,16.78 -1.32,16.77 -1.21,16.77 -1.11,16.80 -1.01,16.83 -0.92,16.89 -0.84,16.95 -0.77,17.03 -0.71,17.12 -0.68,17.22 -0.64,17.32 -0.64,17.43 -0.64,17.53 -0.68,17.63 -0.71,17.73 -0.78,17.82 -0.84,17.90 -0.93,17.96 -1.02,18.02 -1.12,18.05 -1.23,18.07 -1.33,18.07 -1.44,18.06 -1.54,18.02 -1.64,17.98 -1.72,17.91 -1.80,17.84 -1.85,17.75 -1.90,17.66 -1.93,17.55 -1.95,17.45 -1.95,17.45 -1.95,17.45 -2.17,15.86 -2.38,14.26 -2.33,12.70 -2.27,11.14 -2.12,9.48 -1.97,7.82 -1.75,6.41 -1.54,5.00 -1.36,3.68 -1.17,2.36 -1.03,1.13 -0.90,-0.08 -0.87,-0.19 -0.85,-0.29 -0.80,-0.39 -0.75,-0.49 -0.68,-0.57 -0.61,-0.66 -0.53,-0.72 -0.44,-0.78 -0.34,-0.83 -0.24,-0.87 -0.13,-0.88 -0.02,-0.90 0.08,-0.89 0.19,-0.88 0.29,-0.84 0.39,-0.81 0.49,-0.75 0.58,-0.69 0.65,-0.61 0.73,-0.53 0.78,-0.43 0.83,-0.34 0.86,-0.23 0.89,-0.13 0.89,-0.02 0.90,0.08 0.90,0.08 L 0.90,0.08 Z"/></g><g transform="translate(94.474853515625 230.5170440673828) rotate(0 5.7933807373046875 0.9322357177734375)" stroke="none"><path fill="#000000" d="M 0.77,-0.48 Q 0.77,-0.48 1.27,-0.24 1.78,0.00 2.53,0.00 3.29,-0.00 4.17,0.05 5.05,0.11 6.11,0.17 7.18,0.23 9.34,0.60 11.51,0.97 11.61,0.98 11.72,0.99 11.81,1.03 11.91,1.08 11.99,1.15 12.07,1.22 12.12,1.32 12.17,1.41 12.18,1.52 12.20,1.62 12.18,1.72 12.17,1.83 12.12,1.92 12.07,2.02 11.99,2.09 11.92,2.16 11.82,2.21 11.72,2.25 11.62,2.27 11.51,2.28 11.41,2.26 11.30,2.23 11.21,2.18 11.12,2.12 11.05,2.04 10.98,1.96 10.94,1.86 10.90,1.77 10.90,1.66 10.89,1.55 10.92,1.45 10.95,1.35 11.01,1.26 11.07,1.17 11.15,1.11 11.24,1.04 11.34,1.01 11.44,0.97 11.54,0.97 11.65,0.97 11.75,1.01 11.85,1.04 11.94,1.11 12.02,1.17 12.08,1.26 12.14,1.34 12.17,1.45 12.20,1.55 12.19,1.66 12.19,1.76 12.15,1.86 12.11,1.96 12.04,2.04 11.97,2.12 11.88,2.18 11.79,2.23 11.69,2.25 11.58,2.28 11.58,2.28 11.58,2.28 9.32,2.82 7.05,3.36 5.94,3.33 4.84,3.30 3.86,3.23 2.87,3.17 1.90,3.00 0.93,2.83 0.15,2.33 -0.63,1.83 -0.70,1.16 -0.77,0.48 -0.82,0.38 -0.87,0.28 -0.89,0.17 -0.91,0.06 -0.90,-0.04 -0.90,-0.15 -0.87,-0.25 -0.84,-0.36 -0.78,-0.45 -0.72,-0.55 -0.65,-0.63 -0.57,-0.71 -0.48,-0.77 -0.38,-0.82 -0.28,-0.86 -0.17,-0.89 -0.06,-0.90 0.04,-0.91 0.15,-0.89 0.25,-0.87 0.36,-0.83 0.46,-0.79 0.55,-0.72 0.63,-0.65 0.70,-0.57 0.77,-0.48 0.77,-0.48 L 0.77,-0.48 Z"/></g><g transform="translate(105.26251220703125 227.85350036621094) rotate(0 1.56488037109375 4.7610931396484375)" stroke="none"><path fill="#000000" d="M 0.80,-0.55 Q 0.80,-0.55 1.41,-0.04 2.02,0.46 2.57,1.03 3.12,1.60 3.67,2.31 4.22,3.01 4.55,3.99 4.88,4.97 4.69,6.03 4.50,7.09 2.25,8.50 0.01,9.91 -0.08,9.95 -0.18,9.99 -0.28,10.00 -0.39,10.00 -0.49,9.98 -0.59,9.95 -0.68,9.89 -0.77,9.83 -0.84,9.75 -0.90,9.67 -0.94,9.57 -0.97,9.47 -0.98,9.36 -0.98,9.25 -0.94,9.15 -0.91,9.05 -0.85,8.97 -0.79,8.88 -0.70,8.82 -0.61,8.76 -0.51,8.73 -0.41,8.70 -0.30,8.70 -0.20,8.71 -0.10,8.74 -0.00,8.78 0.07,8.85 0.16,8.92 0.21,9.01 0.27,9.10 0.29,9.20 0.32,9.30 0.31,9.41 0.30,9.52 0.26,9.61 0.21,9.71 0.14,9.79 0.07,9.87 -0.01,9.92 -0.11,9.97 -0.21,9.99 -0.32,10.01 -0.42,9.99 -0.53,9.98 -0.62,9.93 -0.72,9.88 -0.79,9.80 -0.86,9.73 -0.91,9.63 -0.96,9.54 -0.97,9.43 -0.98,9.33 -0.96,9.22 -0.94,9.12 -0.89,9.03 -0.83,8.93 -0.75,8.86 -0.67,8.79 -0.67,8.79 -0.67,8.79 0.47,7.49 1.63,6.19 1.74,5.43 1.84,4.67 1.45,4.10 1.06,3.52 0.40,2.79 -0.26,2.06 -0.53,1.31 -0.80,0.55 -0.85,0.45 -0.91,0.35 -0.94,0.23 -0.96,0.12 -0.96,0.00 -0.97,-0.11 -0.94,-0.22 -0.91,-0.34 -0.86,-0.44 -0.80,-0.55 -0.72,-0.63 -0.65,-0.72 -0.55,-0.79 -0.45,-0.86 -0.34,-0.90 -0.23,-0.94 -0.12,-0.96 -0.00,-0.97 0.11,-0.96 0.22,-0.94 0.33,-0.90 0.45,-0.86 0.54,-0.80 0.64,-0.73 0.72,-0.64 0.80,-0.55 0.80,-0.55 L 0.80,-0.55 Z"/></g><g stroke-linecap="round"><g transform="translate(173.9667510986328 232.14593505859375) rotate(0 147.9991111447734 0)"><path d="M0 0 C49.33 0, 246.67 0, 296 0 M0 0 C49.33 0, 246.67 0, 296 0" stroke="#c92a2a" stroke-width="0.5" fill="none"/></g></g><mask/><g stroke-linecap="round"><g transform="translate(356.4246063232422 350.007568359375) rotate(0 55.53643798828125 -54.83563232421875)"><path d="M0 0 C18.51 -18.28, 92.56 -91.39, 111.07 -109.67 M0 0 C18.51 -18.28, 92.56 -91.39, 111.07 -109.67" stroke="#c92a2a" stroke-width="0.5" fill="none"/></g></g><mask/><g transform="translate(92.07537769149829 317.2008833277072) rotate(0 10.056000177485288 17.088092462266673)" stroke="none"><path fill="#000000" d="M 0.05,-0.83 Q 0.05,-0.83 1.40,-0.75 2.75,-0.68 3.84,-0.33 4.93,0.00 5.83,0.56 6.72,1.12 7.61,1.89 8.49,2.65 9.28,3.46 10.08,4.26 10.84,5.09 11.60,5.93 12.43,6.84 13.27,7.74 14.01,8.59 14.74,9.44 15.40,10.32 16.05,11.19 16.74,12.12 17.42,13.05 18.05,13.97 18.67,14.89 19.20,16.00 19.73,17.11 20.12,18.29 20.51,19.46 20.69,20.77 20.86,22.07 20.93,23.28 21.00,24.49 20.97,25.71 20.94,26.93 20.82,28.16 20.70,29.39 20.33,31.60 19.96,33.80 19.93,33.91 19.90,34.01 19.84,34.10 19.78,34.18 19.69,34.25 19.61,34.31 19.51,34.34 19.41,34.38 19.30,34.38 19.19,34.38 19.09,34.34 18.99,34.31 18.91,34.24 18.82,34.18 18.76,34.09 18.71,34.00 18.68,33.90 18.65,33.80 18.66,33.69 18.66,33.58 18.70,33.49 18.74,33.39 18.81,33.31 18.88,33.23 18.97,33.17 19.06,33.12 19.17,33.10 19.27,33.07 19.38,33.09 19.48,33.10 19.58,33.14 19.68,33.19 19.75,33.26 19.83,33.34 19.88,33.43 19.93,33.52 19.94,33.63 19.96,33.73 19.94,33.84 19.92,33.94 19.87,34.04 19.82,34.13 19.75,34.20 19.67,34.28 19.57,34.32 19.47,34.36 19.37,34.37 19.26,34.38 19.16,34.36 19.06,34.34 18.97,34.28 18.88,34.23 18.81,34.15 18.74,34.06 18.70,33.97 18.66,33.87 18.66,33.76 18.65,33.65 18.65,33.65 18.65,33.65 18.71,31.44 18.78,29.22 18.87,28.05 18.96,26.88 18.99,25.74 19.02,24.60 18.96,23.45 18.90,22.31 18.77,21.18 18.65,20.05 18.32,18.98 18.00,17.91 17.55,16.93 17.10,15.95 16.50,15.06 15.91,14.17 15.22,13.24 14.54,12.31 13.93,11.49 13.32,10.67 12.61,9.83 11.89,8.99 11.07,8.06 10.25,7.14 9.53,6.33 8.80,5.51 8.06,4.75 7.32,3.99 6.54,3.29 5.76,2.60 5.07,2.13 4.37,1.66 3.49,1.36 2.61,1.05 1.27,0.94 -0.05,0.83 -0.15,0.81 -0.25,0.79 -0.34,0.75 -0.43,0.70 -0.51,0.64 -0.59,0.58 -0.65,0.50 -0.71,0.42 -0.75,0.33 -0.79,0.24 -0.81,0.14 -0.83,0.04 -0.82,-0.05 -0.81,-0.15 -0.78,-0.25 -0.75,-0.34 -0.70,-0.43 -0.65,-0.52 -0.57,-0.59 -0.50,-0.66 -0.42,-0.71 -0.33,-0.76 -0.23,-0.79 -0.14,-0.82 -0.04,-0.82 0.05,-0.83 0.05,-0.83 L 0.05,-0.83 Z"/></g><g transform="translate(128.6187389748445 316.60930385123055) rotate(0 -4.797961065866545 7.952557118120524)" stroke="none"><path fill="#000000" d="M 0.84,0.21 Q 0.84,0.21 0.57,1.99 0.29,3.78 -0.58,5.44 -1.46,7.10 -2.81,8.54 -4.16,9.97 -5.46,11.01 -6.75,12.05 -7.88,12.76 -9.00,13.47 -10.37,13.56 -11.74,13.66 -12.82,12.75 -13.91,11.85 -14.46,10.50 -15.01,9.16 -15.15,7.69 -15.29,6.22 -14.94,4.81 -14.60,3.39 -13.77,2.39 -12.93,1.39 -11.69,1.02 -10.45,0.64 -9.30,1.15 -8.16,1.66 -7.02,2.93 -5.88,4.20 -4.89,5.75 -3.90,7.29 -2.86,8.67 -1.82,10.05 -0.89,11.08 0.04,12.11 0.87,12.81 1.70,13.51 2.93,13.96 4.17,14.40 4.27,14.40 4.38,14.40 4.48,14.43 4.58,14.46 4.67,14.53 4.76,14.59 4.82,14.67 4.88,14.76 4.91,14.86 4.94,14.96 4.94,15.07 4.93,15.18 4.90,15.28 4.86,15.38 4.79,15.46 4.73,15.54 4.64,15.60 4.55,15.65 4.44,15.68 4.34,15.70 4.23,15.70 4.13,15.69 4.03,15.64 3.93,15.60 3.85,15.53 3.78,15.46 3.72,15.37 3.67,15.27 3.65,15.17 3.63,15.06 3.65,14.96 3.66,14.85 3.71,14.76 3.76,14.66 3.83,14.59 3.91,14.51 4.00,14.47 4.10,14.42 4.20,14.41 4.31,14.39 4.41,14.41 4.52,14.43 4.61,14.49 4.70,14.54 4.77,14.62 4.84,14.70 4.89,14.80 4.93,14.89 4.94,15.00 4.94,15.11 4.92,15.21 4.89,15.31 4.83,15.40 4.78,15.49 4.69,15.56 4.61,15.62 4.51,15.66 4.41,15.70 4.41,15.70 4.41,15.70 2.15,15.73 -0.10,15.77 -1.13,14.95 -2.16,14.12 -3.19,12.99 -4.23,11.85 -5.33,10.36 -6.43,8.87 -7.28,7.48 -8.12,6.09 -8.91,5.09 -9.69,4.09 -10.35,3.76 -11.02,3.43 -11.46,3.84 -11.90,4.24 -12.15,5.14 -12.41,6.05 -12.34,7.11 -12.28,8.17 -12.01,9.04 -11.74,9.91 -11.07,10.42 -10.40,10.93 -9.45,10.37 -8.50,9.80 -7.31,8.92 -6.12,8.03 -4.93,6.89 -3.73,5.75 -2.88,4.46 -2.03,3.17 -1.44,1.47 -0.84,-0.21 -0.80,-0.30 -0.77,-0.40 -0.71,-0.49 -0.65,-0.58 -0.57,-0.64 -0.49,-0.71 -0.39,-0.76 -0.30,-0.81 -0.20,-0.84 -0.10,-0.86 0.00,-0.86 0.10,-0.86 0.20,-0.83 0.31,-0.81 0.40,-0.76 0.49,-0.71 0.57,-0.64 0.65,-0.57 0.71,-0.48 0.77,-0.40 0.81,-0.30 0.84,-0.20 0.85,-0.10 0.87,0.00 0.85,0.10 0.84,0.21 0.84,0.21 L 0.84,0.21 Z"/></g><g stroke-linecap="round"><g transform="translate(175.08664418668343 232.28606528541633) rotate(0 0 57.212316847572964)"><path d="M0 0 C0 19.07, 0 95.35, 0 114.42" stroke="#000000" stroke-width="1" fill="none" stroke-dasharray="8 8.5"/></g></g><mask/><g transform="translate(418.1393613048624 246.15372438174728) rotate(0 8.117078864582595 10.581486310466062)" stroke="none"><path fill="#c92a2a" d="M 0.69,-0.53 Q 0.69,-0.53 5.29,5.60 9.89,11.74 11.85,14.34 13.82,16.94 13.87,17.03 13.92,17.12 13.94,17.23 13.95,17.33 13.94,17.44 13.92,17.54 13.87,17.64 13.82,17.73 13.74,17.80 13.67,17.88 13.57,17.92 13.48,17.97 13.37,17.98 13.26,17.99 13.16,17.97 13.06,17.95 12.97,17.89 12.87,17.84 12.80,17.76 12.74,17.68 12.70,17.58 12.66,17.48 12.65,17.37 12.64,17.27 12.67,17.16 12.70,17.06 12.76,16.97 12.82,16.89 12.90,16.82 12.99,16.76 13.09,16.72 13.19,16.69 13.29,16.69 13.40,16.69 13.50,16.72 13.60,16.75 13.69,16.82 13.77,16.88 13.83,16.97 13.89,17.06 13.92,17.16 13.95,17.26 13.94,17.37 13.94,17.47 13.90,17.57 13.86,17.67 13.79,17.75 13.72,17.83 13.63,17.89 13.54,17.94 13.44,17.97 13.34,17.99 13.23,17.98 13.12,17.97 13.03,17.92 12.93,17.88 12.85,17.81 12.78,17.73 12.78,17.74 12.78,17.74 10.77,15.16 8.77,12.59 4.03,6.56 -0.69,0.53 -0.75,0.44 -0.80,0.35 -0.83,0.25 -0.86,0.14 -0.87,0.04 -0.87,-0.06 -0.85,-0.16 -0.83,-0.27 -0.79,-0.36 -0.74,-0.46 -0.68,-0.54 -0.61,-0.62 -0.53,-0.69 -0.44,-0.75 -0.34,-0.79 -0.25,-0.84 -0.14,-0.85 -0.04,-0.87 0.06,-0.87 0.16,-0.86 0.26,-0.83 0.36,-0.79 0.45,-0.74 0.54,-0.68 0.62,-0.61 0.69,-0.53 0.69,-0.53 L 0.69,-0.53 Z"/></g><g transform="translate(369.43676763274834 239.64710316936942) rotate(0 18.89605452522784 24.120508549460055)" stroke="none"><path fill="#c92a2a" d="M 0.64,-0.60 Q 0.64,-0.60 4.17,2.99 7.70,6.59 11.07,10.53 14.44,14.48 17.84,18.89 21.24,23.29 24.58,27.83 27.92,32.36 30.86,36.86 33.79,41.37 35.09,43.24 36.38,45.11 36.43,45.20 36.48,45.30 36.49,45.41 36.50,45.51 36.48,45.61 36.46,45.72 36.41,45.81 36.35,45.90 36.27,45.97 36.20,46.04 36.10,46.08 36.00,46.13 35.89,46.13 35.79,46.14 35.68,46.12 35.58,46.09 35.49,46.03 35.40,45.97 35.34,45.89 35.27,45.81 35.24,45.71 35.20,45.61 35.20,45.50 35.20,45.39 35.23,45.29 35.26,45.19 35.32,45.11 35.39,45.02 35.47,44.96 35.56,44.90 35.66,44.87 35.76,44.84 35.87,44.84 35.97,44.84 36.07,44.88 36.17,44.92 36.26,44.99 36.34,45.05 36.39,45.14 36.45,45.23 36.48,45.34 36.50,45.44 36.49,45.55 36.48,45.65 36.44,45.75 36.40,45.85 36.32,45.92 36.25,46.00 36.16,46.05 36.07,46.11 35.96,46.13 35.86,46.14 35.75,46.13 35.65,46.11 35.55,46.07 35.46,46.02 35.38,45.94 35.31,45.87 35.31,45.87 35.31,45.87 33.98,44.02 32.65,42.17 29.40,37.93 26.16,33.68 22.78,29.19 19.41,24.69 16.07,20.31 12.74,15.93 9.43,12.00 6.13,8.07 2.74,4.33 -0.64,0.60 -0.70,0.52 -0.76,0.43 -0.80,0.33 -0.84,0.23 -0.86,0.13 -0.88,0.02 -0.87,-0.07 -0.86,-0.18 -0.82,-0.28 -0.79,-0.38 -0.73,-0.47 -0.67,-0.56 -0.60,-0.63 -0.52,-0.71 -0.43,-0.76 -0.33,-0.81 -0.23,-0.84 -0.13,-0.87 -0.02,-0.87 0.07,-0.87 0.18,-0.85 0.28,-0.83 0.38,-0.78 0.47,-0.74 0.56,-0.67 0.64,-0.60 0.64,-0.60 L 0.64,-0.60 Z"/></g><g transform="translate(317.0536098369259 241.42166087187167) rotate(0 24.54843979295822 34.274801584715846)" stroke="none"><path fill="#c92a2a" d="M 0.67,-0.55 Q 0.67,-0.55 4.59,4.04 8.50,8.64 12.21,13.56 15.91,18.48 19.85,23.74 23.79,29.00 28.25,35.39 32.70,41.78 36.85,48.19 41.00,54.61 43.46,58.53 45.93,62.45 46.99,64.10 48.05,65.75 48.09,65.85 48.14,65.95 48.15,66.05 48.16,66.16 48.13,66.26 48.11,66.37 48.05,66.46 47.99,66.55 47.91,66.61 47.83,66.68 47.73,66.72 47.63,66.76 47.53,66.76 47.42,66.77 47.32,66.74 47.22,66.70 47.13,66.64 47.04,66.58 46.98,66.50 46.92,66.41 46.88,66.31 46.85,66.21 46.85,66.10 46.85,66.00 46.89,65.90 46.93,65.80 46.99,65.71 47.06,65.63 47.15,65.57 47.23,65.51 47.34,65.49 47.44,65.46 47.55,65.47 47.65,65.47 47.75,65.52 47.85,65.56 47.93,65.63 48.01,65.70 48.06,65.79 48.11,65.88 48.14,65.98 48.16,66.09 48.14,66.19 48.13,66.30 48.08,66.40 48.04,66.49 47.96,66.57 47.89,66.64 47.79,66.69 47.70,66.74 47.60,66.75 47.49,66.77 47.39,66.75 47.28,66.73 47.19,66.68 47.09,66.63 47.02,66.55 46.95,66.47 46.95,66.47 46.95,66.47 45.86,64.84 44.77,63.20 42.17,59.38 39.57,55.56 35.27,49.28 30.97,43.00 26.48,36.68 21.99,30.35 18.05,25.09 14.11,19.83 10.47,14.92 6.83,10.02 3.08,5.28 -0.67,0.55 -0.72,0.46 -0.78,0.37 -0.81,0.27 -0.85,0.17 -0.85,0.07 -0.86,-0.03 -0.85,-0.13 -0.83,-0.23 -0.79,-0.33 -0.75,-0.43 -0.69,-0.51 -0.62,-0.59 -0.54,-0.66 -0.46,-0.73 -0.37,-0.77 -0.27,-0.82 -0.17,-0.84 -0.07,-0.86 0.03,-0.86 0.13,-0.85 0.23,-0.82 0.33,-0.80 0.42,-0.74 0.51,-0.69 0.59,-0.62 0.67,-0.55 0.67,-0.55 L 0.67,-0.55 Z"/></g><g transform="translate(273.34615783902285 237.93833006852827) rotate(0 27.93331960246948 43.96899398335344)" stroke="none"><path fill="#c92a2a" d="M 0.76,-0.39 Q 0.76,-0.39 2.13,1.93 3.49,4.27 5.32,7.49 7.14,10.71 9.65,15.08 12.16,19.45 15.46,24.71 18.76,29.97 22.86,36.26 26.96,42.54 31.44,49.43 35.92,56.33 40.49,63.31 45.07,70.30 48.31,75.28 51.54,80.26 52.93,82.37 54.33,84.47 54.37,84.57 54.41,84.66 54.43,84.77 54.44,84.88 54.41,84.98 54.39,85.08 54.33,85.17 54.28,85.26 54.20,85.33 54.12,85.40 54.02,85.44 53.92,85.48 53.81,85.48 53.71,85.49 53.60,85.46 53.50,85.43 53.41,85.37 53.33,85.31 53.26,85.23 53.20,85.14 53.17,85.04 53.13,84.94 53.13,84.83 53.13,84.73 53.17,84.63 53.20,84.53 53.27,84.44 53.33,84.36 53.42,84.30 53.51,84.24 53.61,84.21 53.71,84.18 53.82,84.19 53.92,84.20 54.02,84.24 54.12,84.28 54.20,84.35 54.28,84.41 54.34,84.51 54.39,84.60 54.41,84.70 54.44,84.80 54.42,84.91 54.41,85.02 54.37,85.11 54.32,85.21 54.25,85.29 54.18,85.36 54.08,85.41 53.99,85.46 53.88,85.48 53.78,85.49 53.67,85.48 53.57,85.46 53.47,85.41 53.38,85.36 53.31,85.28 53.24,85.20 53.24,85.20 53.24,85.20 51.81,83.12 50.39,81.04 47.00,76.16 43.61,71.29 38.82,64.43 34.04,57.56 29.47,50.72 24.90,43.88 20.78,37.59 16.66,31.29 13.33,25.99 10.01,20.68 7.52,16.28 5.02,11.88 3.25,8.60 1.48,5.32 0.36,2.86 -0.76,0.39 -0.80,0.30 -0.84,0.20 -0.85,0.10 -0.86,-0.00 -0.85,-0.10 -0.83,-0.21 -0.80,-0.30 -0.76,-0.40 -0.70,-0.49 -0.64,-0.57 -0.56,-0.64 -0.48,-0.71 -0.39,-0.76 -0.30,-0.81 -0.20,-0.83 -0.10,-0.85 0.00,-0.85 0.10,-0.85 0.20,-0.83 0.31,-0.80 0.40,-0.75 0.49,-0.71 0.57,-0.64 0.64,-0.57 0.70,-0.48 0.76,-0.39 0.76,-0.39 L 0.76,-0.39 Z"/></g><g transform="translate(219.31986093824736 239.91000060677715) rotate(0 29.47785710781727 50.73854275429372)" stroke="none"><path fill="#c92a2a" d="M 0.70,-0.50 Q 0.70,-0.50 2.94,2.44 5.19,5.39 7.57,9.00 9.95,12.60 12.79,17.39 15.63,22.17 19.43,28.88 23.23,35.60 27.39,43.14 31.55,50.69 35.92,58.84 40.28,67.00 44.62,75.03 48.96,83.06 51.96,88.27 54.96,93.48 56.26,95.69 57.56,97.89 57.60,97.99 57.64,98.09 57.65,98.19 57.65,98.30 57.63,98.40 57.60,98.50 57.54,98.59 57.48,98.68 57.39,98.74 57.31,98.81 57.21,98.84 57.11,98.88 57.00,98.88 56.89,98.87 56.79,98.84 56.69,98.81 56.61,98.74 56.52,98.68 56.46,98.59 56.41,98.50 56.38,98.40 56.35,98.30 56.35,98.19 56.36,98.09 56.40,97.99 56.44,97.89 56.51,97.81 56.58,97.73 56.67,97.67 56.76,97.62 56.86,97.59 56.97,97.57 57.07,97.58 57.18,97.59 57.27,97.64 57.37,97.68 57.45,97.76 57.52,97.83 57.57,97.92 57.62,98.02 57.64,98.12 57.66,98.23 57.64,98.33 57.62,98.44 57.57,98.53 57.52,98.62 57.45,98.70 57.37,98.77 57.27,98.82 57.18,98.86 57.07,98.87 56.97,98.88 56.86,98.86 56.76,98.84 56.67,98.78 56.58,98.73 56.51,98.65 56.44,98.56 56.44,98.57 56.44,98.57 55.11,96.38 53.77,94.19 50.57,89.07 47.36,83.95 42.78,76.03 38.21,68.12 33.79,60.00 29.37,51.88 25.22,44.35 21.07,36.81 17.33,30.09 13.58,23.37 10.84,18.59 8.10,13.81 5.80,10.21 3.50,6.61 1.39,3.56 -0.70,0.50 -0.75,0.41 -0.80,0.32 -0.83,0.22 -0.85,0.12 -0.86,0.01 -0.86,-0.08 -0.84,-0.18 -0.81,-0.28 -0.77,-0.38 -0.72,-0.47 -0.65,-0.55 -0.58,-0.63 -0.50,-0.69 -0.41,-0.75 -0.32,-0.79 -0.22,-0.83 -0.12,-0.85 -0.01,-0.86 0.08,-0.85 0.18,-0.84 0.28,-0.81 0.38,-0.77 0.47,-0.71 0.56,-0.66 0.63,-0.58 0.70,-0.50 0.70,-0.50 L 0.70,-0.50 Z"/></g><g transform="translate(181.65917048534095 258.0496828186748) rotate(0 21.590798440389136 39.43410355153367)" stroke="none"><path fill="#c92a2a" d="M 0.73,-0.46 Q 0.73,-0.46 3.76,4.10 6.79,8.66 9.73,14.12 12.67,19.57 15.97,25.88 19.27,32.20 23.39,39.80 27.50,47.39 31.48,55.06 35.45,62.72 37.81,67.29 40.18,71.85 41.20,73.78 42.22,75.71 42.25,75.81 42.29,75.91 42.29,76.02 42.29,76.12 42.26,76.23 42.22,76.33 42.16,76.41 42.10,76.50 42.01,76.56 41.92,76.62 41.82,76.65 41.72,76.68 41.61,76.67 41.50,76.67 41.41,76.63 41.31,76.59 41.22,76.52 41.14,76.45 41.09,76.36 41.03,76.27 41.01,76.17 40.98,76.06 41.00,75.96 41.01,75.85 41.05,75.76 41.09,75.66 41.17,75.58 41.24,75.50 41.33,75.45 41.43,75.40 41.53,75.38 41.63,75.37 41.74,75.38 41.84,75.40 41.94,75.45 42.03,75.50 42.11,75.57 42.18,75.65 42.23,75.75 42.27,75.84 42.28,75.95 42.30,76.05 42.27,76.16 42.25,76.26 42.20,76.35 42.14,76.44 42.06,76.51 41.98,76.58 41.88,76.62 41.79,76.66 41.68,76.67 41.57,76.68 41.47,76.65 41.37,76.62 41.28,76.56 41.19,76.50 41.13,76.42 41.06,76.34 41.06,76.34 41.06,76.34 40.00,74.43 38.95,72.51 36.42,68.04 33.89,63.56 29.73,56.00 25.57,48.44 21.41,40.85 17.24,33.26 13.96,26.95 10.67,20.64 7.79,15.24 4.92,9.84 2.09,5.15 -0.73,0.46 -0.78,0.37 -0.82,0.27 -0.84,0.17 -0.87,0.07 -0.86,-0.03 -0.86,-0.13 -0.83,-0.24 -0.80,-0.34 -0.75,-0.43 -0.69,-0.52 -0.62,-0.60 -0.55,-0.67 -0.46,-0.73 -0.37,-0.78 -0.27,-0.82 -0.17,-0.85 -0.06,-0.86 0.03,-0.87 0.13,-0.85 0.24,-0.83 0.33,-0.79 0.43,-0.75 0.52,-0.69 0.60,-0.62 0.67,-0.54 0.73,-0.46 0.73,-0.46 L 0.73,-0.46 Z"/></g><g transform="translate(148.13920503507035 281.71015097382593) rotate(0 18.304535291060404 30.068502828501096)" stroke="none"><path fill="#c92a2a" d="M 0.74,-0.39 Q 0.74,-0.39 3.97,5.67 7.20,11.73 10.23,17.23 13.26,22.73 16.38,27.98 19.50,33.24 22.62,38.11 25.73,42.98 28.56,47.16 31.39,51.35 33.72,54.80 36.06,58.25 36.11,58.35 36.16,58.44 36.17,58.55 36.18,58.65 36.16,58.76 36.14,58.86 36.09,58.96 36.04,59.05 35.96,59.12 35.88,59.19 35.78,59.23 35.69,59.27 35.58,59.28 35.48,59.29 35.37,59.27 35.27,59.24 35.18,59.18 35.09,59.13 35.02,59.04 34.96,58.96 34.92,58.86 34.88,58.76 34.88,58.66 34.88,58.55 34.91,58.45 34.94,58.35 35.00,58.26 35.06,58.17 35.15,58.11 35.24,58.05 35.34,58.02 35.44,57.99 35.54,57.99 35.65,57.99 35.75,58.03 35.85,58.07 35.93,58.13 36.02,58.20 36.07,58.29 36.13,58.38 36.16,58.48 36.18,58.58 36.17,58.69 36.17,58.80 36.12,58.89 36.08,58.99 36.01,59.07 35.94,59.15 35.85,59.20 35.75,59.25 35.65,59.27 35.55,59.29 35.44,59.28 35.34,59.27 35.24,59.22 35.15,59.17 35.07,59.10 34.99,59.02 34.99,59.02 34.99,59.02 32.45,55.70 29.90,52.37 26.98,48.21 24.06,44.04 20.93,39.14 17.81,34.24 14.69,28.95 11.58,23.65 8.57,18.12 5.56,12.59 2.40,6.49 -0.74,0.39 -0.78,0.29 -0.81,0.20 -0.83,0.10 -0.84,-5.31 -0.83,-0.10 -0.81,-0.20 -0.78,-0.29 -0.74,-0.39 -0.68,-0.47 -0.63,-0.55 -0.55,-0.62 -0.47,-0.69 -0.38,-0.74 -0.29,-0.78 -0.20,-0.81 -0.10,-0.83 0.00,-0.83 0.10,-0.83 0.20,-0.81 0.29,-0.78 0.38,-0.74 0.47,-0.69 0.55,-0.62 0.63,-0.55 0.68,-0.47 0.74,-0.39 0.74,-0.39 L 0.74,-0.39 Z"/></g></svg>