<svg version="1.1" xmlns="http://www.w3.org/2000/svg" viewBox="0 0 534.6249389648438 307.6028747558594" width="534.6249389648438" height="307.6028747558594" filter="invert(93%) hue-rotate(180deg)" class="excalidraw-svg">
  <!-- svg-source:excalidraw -->
  
  <defs>
    <style class="style-fonts">
      @font-face {
        font-family: "Virgil";
        src: url("https://excalidraw.com/Virgil.woff2");
      }
      @font-face {
        font-family: "Cascadia";
        src: url("https://excalidraw.com/Cascadia.woff2");
      }
      @font-face {
        font-family: "Assistant";
        src: url("https://excalidraw.com/Assistant-Regular.woff2");
      }
    </style>
    
  </defs>
  <g stroke-linecap="round" transform="translate(14.85992431640625 37.602874755859375) rotate(0 40 40)"><path d="M0 0 C0 0, 0 0, 0 0 M0 0 C0 0, 0 0, 0 0 M0.27 24.08 C6.69 16.69, 13.12 9.3, 21.26 -0.07 M0.27 24.08 C7.31 15.98, 14.34 7.89, 21.26 -0.07 M-0.12 48.92 C15.6 30.83, 31.32 12.75, 42.52 -0.14 M-0.12 48.92 C15.99 30.38, 32.11 11.84, 42.52 -0.14 M0.14 73 C15.19 55.69, 30.25 38.37, 63.78 -0.21 M0.14 73 C23.24 46.43, 46.34 19.86, 63.78 -0.21 M14.84 80.48 C29.41 63.72, 43.97 46.96, 80.45 5.01 M14.84 80.48 C32.83 59.79, 50.82 39.09, 80.45 5.01 M36.1 80.41 C46.56 68.37, 57.03 56.34, 80.71 29.09 M36.1 80.41 C49.27 65.26, 62.43 50.12, 80.71 29.09 M57.36 80.34 C62.8 74.09, 68.23 67.84, 80.32 53.93 M57.36 80.34 C63.17 73.66, 68.97 66.98, 80.32 53.93 M78.62 80.27 C79.21 79.59, 79.81 78.91, 80.59 78.01 M78.62 80.27 C79.14 79.68, 79.65 79.09, 80.59 78.01" stroke="#a5d8ff" stroke-width="2" fill="none"/><path d="M0 0 C20.19 0, 40.39 0, 80 0 M0 0 C24.14 0, 48.27 0, 80 0 M80 0 C80 16.96, 80 33.93, 80 80 M80 0 C80 20.6, 80 41.21, 80 80 M80 80 C63.76 80, 47.52 80, 0 80 M80 80 C55.76 80, 31.53 80, 0 80 M0 80 C0 48.32, 0 16.63, 0 0 M0 80 C0 57.69, 0 35.38, 0 0" stroke="transparent" stroke-width="4" fill="none"/></g><g stroke-linecap="round"><g transform="translate(54.85992431640625 77.60287475585938) rotate(0 110 60)"><path d="M0 0 C48.32 26.36, 96.64 52.71, 220 120 M0 0 C48.94 26.69, 97.87 53.38, 220 120" stroke="#1e1e1e" stroke-width="4" fill="none"/></g></g><mask/><g stroke-linecap="round"><g transform="translate(414.8599243164071 177.60287475585938) rotate(180 0 -50)"><path d="M0 0 C0 -16.67, 0 -83.33, 0 -100 M0 0 C0 -16.67, 0 -83.33, 0 -100" stroke="#000000" stroke-width="2" fill="none"/></g><g transform="translate(414.8599243164071 177.60287475585938) rotate(180 0 -50)"><path d="M0 -100 L6.34 -86.41 L-6.34 -86.41 L0 -100" stroke="none" stroke-width="0" fill="#000000" fill-rule="evenodd"/><path d="M0 -100 C1.97 -95.77, 3.94 -91.54, 6.34 -86.41 M0 -100 C1.34 -97.13, 2.68 -94.26, 6.34 -86.41 M6.34 -86.41 C2.74 -86.41, -0.85 -86.41, -6.34 -86.41 M6.34 -86.41 C3 -86.41, -0.33 -86.41, -6.34 -86.41 M-6.34 -86.41 C-4.77 -89.77, -3.2 -93.13, 0 -100 M-6.34 -86.41 C-4.38 -90.6, -2.42 -94.8, 0 -100 M0 -100 C0 -100, 0 -100, 0 -100 M0 -100 C0 -100, 0 -100, 0 -100" stroke="#000000" stroke-width="2" fill="none"/></g></g><mask/><g stroke-linecap="round"><g transform="translate(334.85992431640625 117.60287475585938) rotate(180 40 -20)"><path d="M0 0 C13.33 -6.67, 66.67 -33.33, 80 -40 M0 0 C13.33 -6.67, 66.67 -33.33, 80 -40" stroke="#000000" stroke-width="2" fill="none"/></g><g transform="translate(334.85992431640625 117.60287475585938) rotate(180 40 -20)"><path d="M80 -40 L70.68 -28.25 L65.01 -39.59 L80 -40" stroke="none" stroke-width="0" fill="#000000" fill-rule="evenodd"/><path d="M80 -40 C77.34 -36.65, 74.68 -33.29, 70.68 -28.25 M80 -40 C77.45 -36.78, 74.9 -33.57, 70.68 -28.25 M70.68 -28.25 C68.57 -32.45, 66.47 -36.66, 65.01 -39.59 M70.68 -28.25 C68.78 -32.04, 66.89 -35.83, 65.01 -39.59 M65.01 -39.59 C68.54 -39.69, 72.07 -39.78, 80 -40 M65.01 -39.59 C69.62 -39.72, 74.24 -39.84, 80 -40 M80 -40 C80 -40, 80 -40, 80 -40 M80 -40 C80 -40, 80 -40, 80 -40" stroke="#000000" stroke-width="2" fill="none"/></g></g><mask/><g stroke-linecap="round"><g transform="translate(414.85992431640625 77.60287475585938) rotate(0 40 20)"><path d="M0 0 C20.89 10.44, 41.78 20.89, 80 40 M0 0 C20.79 10.39, 41.57 20.79, 80 40" stroke="#1e1e1e" stroke-width="2" fill="none"/></g><g transform="translate(414.85992431640625 77.60287475585938) rotate(0 40 20)"><path d="M80 40 L65.01 39.59 L70.68 28.25 L80 40" stroke="none" stroke-width="0" fill="#1e1e1e" fill-rule="evenodd"/><path d="M80 40 C76.08 39.89, 72.17 39.79, 65.01 39.59 M80 40 C76.1 39.89, 72.21 39.79, 65.01 39.59 M65.01 39.59 C67 35.6, 69 31.6, 70.68 28.25 M65.01 39.59 C66.18 37.25, 67.35 34.9, 70.68 28.25 M70.68 28.25 C73.12 31.33, 75.57 34.41, 80 40 M70.68 28.25 C72.62 30.7, 74.56 33.15, 80 40 M80 40 C80 40, 80 40, 80 40 M80 40 C80 40, 80 40, 80 40" stroke="#1e1e1e" stroke-width="2" fill="none"/></g></g><mask/><g stroke-linecap="round"><g transform="translate(274.85992431640625 237.60287475585938) rotate(0 0 30)"><path d="M0 0 C0 18.16, 0 36.31, 0 60 M0 0 C0 15.62, 0 31.24, 0 60" stroke="#e03131" stroke-width="4" fill="none"/></g><g transform="translate(274.85992431640625 237.60287475585938) rotate(0 0 30)"><path d="M0 60 L-6.34 46.41 L6.34 46.41 L0 60" stroke="none" stroke-width="0" fill="#e03131" fill-rule="evenodd"/><path d="M0 60 C-1.92 55.89, -3.84 51.77, -6.34 46.41 M0 60 C-1.65 56.46, -3.3 52.92, -6.34 46.41 M-6.34 46.41 C-3.45 46.41, -0.57 46.41, 6.34 46.41 M-6.34 46.41 C-3.64 46.41, -0.94 46.41, 6.34 46.41 M6.34 46.41 C4.26 50.86, 2.18 55.32, 0 60 M6.34 46.41 C4.96 49.37, 3.58 52.33, 0 60 M0 60 C0 60, 0 60, 0 60 M0 60 C0 60, 0 60, 0 60" stroke="#e03131" stroke-width="4" fill="none"/></g></g><mask/><g stroke-linecap="round"><g transform="translate(282.97793778421783 193.89962301873865) rotate(285 -14.308515489934216 -14.308515489934171)"><path d="M0 0 C-0.05 -1.06, -0.1 -2.12, -0.14 -2.8 M0 0 C-0.03 -0.66, -0.06 -1.31, -0.14 -2.8 M-0.14 -2.8 C-0.29 -3.85, -0.45 -4.9, -0.55 -5.58 M-0.14 -2.8 C-0.29 -3.82, -0.44 -4.83, -0.55 -5.58 M-0.55 -5.58 C-0.72 -6.25, -0.88 -6.91, -1.23 -8.31 M-0.55 -5.58 C-0.73 -6.29, -0.91 -7, -1.23 -8.31 M-1.23 -8.31 C-1.5 -9.07, -1.78 -9.83, -2.18 -10.95 M-1.23 -8.31 C-1.56 -9.22, -1.89 -10.13, -2.18 -10.95 M-2.18 -10.95 C-2.49 -11.62, -2.81 -12.28, -3.38 -13.49 M-2.18 -10.95 C-2.57 -11.78, -2.96 -12.6, -3.38 -13.49 M-3.38 -13.49 C-3.7 -14.03, -4.03 -14.58, -4.82 -15.9 M-3.38 -13.49 C-3.79 -14.17, -4.2 -14.86, -4.82 -15.9 M-4.82 -15.9 C-5.34 -16.59, -5.85 -17.28, -6.5 -18.15 M-4.82 -15.9 C-5.26 -16.49, -5.7 -17.09, -6.5 -18.15 M-6.5 -18.15 C-7.2 -18.93, -7.91 -19.71, -8.38 -20.24 M-6.5 -18.15 C-7.15 -18.87, -7.8 -19.59, -8.38 -20.24 M-8.38 -20.24 C-9.21 -20.99, -10.04 -21.73, -10.46 -22.12 M-8.38 -20.24 C-8.88 -20.69, -9.39 -21.15, -10.46 -22.12 M-10.46 -22.12 C-11.17 -22.65, -11.88 -23.17, -12.72 -23.79 M-10.46 -22.12 C-11.3 -22.74, -12.14 -23.37, -12.72 -23.79 M-12.72 -23.79 C-13.68 -24.37, -14.64 -24.94, -15.13 -25.24 M-12.72 -23.79 C-13.33 -24.16, -13.95 -24.53, -15.13 -25.24 M-15.13 -25.24 C-15.94 -25.62, -16.75 -26.01, -17.67 -26.44 M-15.13 -25.24 C-16.11 -25.7, -17.1 -26.17, -17.67 -26.44 M-17.67 -26.44 C-18.51 -26.74, -19.35 -27.04, -20.31 -27.38 M-17.67 -26.44 C-18.28 -26.66, -18.89 -26.88, -20.31 -27.38 M-20.31 -27.38 C-21.02 -27.56, -21.73 -27.74, -23.03 -28.07 M-20.31 -27.38 C-21.12 -27.59, -21.93 -27.79, -23.03 -28.07 M-23.03 -28.07 C-23.63 -28.16, -24.22 -28.24, -25.81 -28.48 M-23.03 -28.07 C-23.94 -28.2, -24.84 -28.34, -25.81 -28.48 M-25.81 -28.48 C-26.66 -28.52, -27.52 -28.56, -28.62 -28.62 M-25.81 -28.48 C-26.88 -28.53, -27.94 -28.58, -28.62 -28.62" stroke="#e03131" stroke-width="4" fill="none"/></g></g><mask/><g stroke-linecap="round"><g transform="translate(275.57130515233916 221.54155231390789) rotate(195.00000000000009 -14.308515489934216 -14.308515489934173)"><path d="M0 0 C-0.04 -0.87, -0.09 -1.74, -0.14 -2.8 M0 0 C-0.04 -0.72, -0.07 -1.43, -0.14 -2.8 M-0.14 -2.8 C-0.27 -3.7, -0.4 -4.59, -0.55 -5.58 M-0.14 -2.8 C-0.28 -3.78, -0.43 -4.75, -0.55 -5.58 M-0.55 -5.58 C-0.81 -6.63, -1.08 -7.68, -1.23 -8.31 M-0.55 -5.58 C-0.73 -6.31, -0.91 -7.03, -1.23 -8.31 M-1.23 -8.31 C-1.58 -9.29, -1.93 -10.27, -2.18 -10.95 M-1.23 -8.31 C-1.56 -9.23, -1.89 -10.14, -2.18 -10.95 M-2.18 -10.95 C-2.54 -11.71, -2.9 -12.47, -3.38 -13.49 M-2.18 -10.95 C-2.62 -11.89, -3.06 -12.82, -3.38 -13.49 M-3.38 -13.49 C-3.82 -14.23, -4.27 -14.97, -4.82 -15.9 M-3.38 -13.49 C-3.84 -14.26, -4.3 -15.02, -4.82 -15.9 M-4.82 -15.9 C-5.34 -16.6, -5.86 -17.3, -6.5 -18.15 M-4.82 -15.9 C-5.29 -16.53, -5.77 -17.17, -6.5 -18.15 M-6.5 -18.15 C-7.2 -18.93, -7.9 -19.71, -8.38 -20.24 M-6.5 -18.15 C-6.93 -18.63, -7.36 -19.11, -8.38 -20.24 M-8.38 -20.24 C-9.15 -20.93, -9.92 -21.63, -10.46 -22.12 M-8.38 -20.24 C-9 -20.8, -9.63 -21.36, -10.46 -22.12 M-10.46 -22.12 C-11.27 -22.72, -12.07 -23.31, -12.72 -23.79 M-10.46 -22.12 C-11.32 -22.76, -12.18 -23.39, -12.72 -23.79 M-12.72 -23.79 C-13.27 -24.12, -13.82 -24.45, -15.13 -25.24 M-12.72 -23.79 C-13.67 -24.37, -14.63 -24.94, -15.13 -25.24 M-15.13 -25.24 C-15.87 -25.59, -16.6 -25.94, -17.67 -26.44 M-15.13 -25.24 C-15.88 -25.59, -16.63 -25.95, -17.67 -26.44 M-17.67 -26.44 C-18.53 -26.75, -19.39 -27.06, -20.31 -27.38 M-17.67 -26.44 C-18.53 -26.75, -19.4 -27.06, -20.31 -27.38 M-20.31 -27.38 C-21.28 -27.63, -22.24 -27.87, -23.03 -28.07 M-20.31 -27.38 C-20.95 -27.54, -21.58 -27.7, -23.03 -28.07 M-23.03 -28.07 C-23.88 -28.19, -24.73 -28.32, -25.81 -28.48 M-23.03 -28.07 C-23.94 -28.2, -24.85 -28.34, -25.81 -28.48 M-25.81 -28.48 C-26.86 -28.53, -27.9 -28.58, -28.62 -28.62 M-25.81 -28.48 C-26.6 -28.52, -27.39 -28.56, -28.62 -28.62" stroke="#e03131" stroke-width="4" fill="none"/></g></g><mask/><g stroke-linecap="round"><g transform="translate(266.3870973867689 215.34396820041394) rotate(119.06492046395127 0.025947705417479483 6.493903255202319)" fill-rule="evenodd"><path d="M0 0 L-6.03 12.99 L6.09 12.99 L0 0" stroke="none" stroke-width="0" fill="#e03131" fill-rule="evenodd"/><path d="M0 0 C-1.58 3.41, -3.17 6.82, -6.03 12.99 M0 0 C-1.78 3.82, -3.55 7.65, -6.03 12.99 M-6.03 12.99 C-3.42 12.99, -0.81 12.99, 6.09 12.99 M-6.03 12.99 C-1.56 12.99, 2.92 12.99, 6.09 12.99 M6.09 12.99 C3.78 8.07, 1.48 3.16, 0 0 M6.09 12.99 C3.93 8.4, 1.78 3.81, 0 0 M0 0 C0 0, 0 0, 0 0 M0 0 C0 0, 0 0, 0 0" stroke="#e03131" stroke-width="4" fill="none"/></g></g><mask/><g stroke-linecap="round"><g transform="translate(54.85992431640625 117.60287475585938) rotate(0 0 30)"><path d="M0 0 C0 19.93, 0 39.86, 0 60 M0 0 C0 21.61, 0 43.22, 0 60" stroke="#e03131" stroke-width="4" fill="none"/></g><g transform="translate(54.85992431640625 117.60287475585938) rotate(0 0 30)"><path d="M0 60 L-6.34 46.41 L6.34 46.41 L0 60" stroke="none" stroke-width="0" fill="#e03131" fill-rule="evenodd"/><path d="M0 60 C-2.11 55.48, -4.21 50.97, -6.34 46.41 M0 60 C-2.28 55.1, -4.57 50.21, -6.34 46.41 M-6.34 46.41 C-3.64 46.41, -0.94 46.41, 6.34 46.41 M-6.34 46.41 C-2.98 46.41, 0.38 46.41, 6.34 46.41 M6.34 46.41 C5.06 49.14, 3.79 51.87, 0 60 M6.34 46.41 C4.3 50.78, 2.26 55.15, 0 60 M0 60 C0 60, 0 60, 0 60 M0 60 C0 60, 0 60, 0 60" stroke="#e03131" stroke-width="4" fill="none"/></g></g><mask/><g stroke-linecap="round"><g transform="translate(67.65250053778766 73.89962301873865) rotate(285 -14.308515489934223 -14.308515489934173)"><path d="M0 0 C-0.03 -0.56, -0.06 -1.13, -0.14 -2.8 M0 0 C-0.04 -0.72, -0.07 -1.43, -0.14 -2.8 M-0.14 -2.8 C-0.26 -3.64, -0.39 -4.48, -0.55 -5.58 M-0.14 -2.8 C-0.28 -3.79, -0.43 -4.78, -0.55 -5.58 M-0.55 -5.58 C-0.8 -6.57, -1.04 -7.55, -1.23 -8.31 M-0.55 -5.58 C-0.71 -6.24, -0.88 -6.9, -1.23 -8.31 M-1.23 -8.31 C-1.54 -9.16, -1.84 -10.01, -2.18 -10.95 M-1.23 -8.31 C-1.44 -8.89, -1.65 -9.47, -2.18 -10.95 M-2.18 -10.95 C-2.44 -11.51, -2.71 -12.07, -3.38 -13.49 M-2.18 -10.95 C-2.53 -11.7, -2.88 -12.44, -3.38 -13.49 M-3.38 -13.49 C-3.74 -14.09, -4.1 -14.69, -4.82 -15.9 M-3.38 -13.49 C-3.69 -14.01, -4 -14.53, -4.82 -15.9 M-4.82 -15.9 C-5.17 -16.36, -5.51 -16.82, -6.5 -18.15 M-4.82 -15.9 C-5.35 -16.62, -5.89 -17.33, -6.5 -18.15 M-6.5 -18.15 C-7.17 -18.9, -7.84 -19.64, -8.38 -20.24 M-6.5 -18.15 C-7.2 -18.93, -7.9 -19.7, -8.38 -20.24 M-8.38 -20.24 C-8.99 -20.79, -9.6 -21.34, -10.46 -22.12 M-8.38 -20.24 C-8.83 -20.64, -9.28 -21.05, -10.46 -22.12 M-10.46 -22.12 C-11.32 -22.75, -12.17 -23.39, -12.72 -23.79 M-10.46 -22.12 C-10.94 -22.48, -11.42 -22.83, -12.72 -23.79 M-12.72 -23.79 C-13.24 -24.1, -13.75 -24.42, -15.13 -25.24 M-12.72 -23.79 C-13.41 -24.21, -14.09 -24.62, -15.13 -25.24 M-15.13 -25.24 C-15.88 -25.59, -16.63 -25.95, -17.67 -26.44 M-15.13 -25.24 C-16.05 -25.67, -16.97 -26.11, -17.67 -26.44 M-17.67 -26.44 C-18.35 -26.68, -19.03 -26.93, -20.31 -27.38 M-17.67 -26.44 C-18.26 -26.65, -18.85 -26.86, -20.31 -27.38 M-20.31 -27.38 C-21.25 -27.62, -22.18 -27.85, -23.03 -28.07 M-20.31 -27.38 C-21.24 -27.62, -22.16 -27.85, -23.03 -28.07 M-23.03 -28.07 C-23.75 -28.17, -24.46 -28.28, -25.81 -28.48 M-23.03 -28.07 C-23.93 -28.2, -24.82 -28.33, -25.81 -28.48 M-25.81 -28.48 C-26.41 -28.51, -27.02 -28.54, -28.62 -28.62 M-25.81 -28.48 C-26.82 -28.53, -27.83 -28.58, -28.62 -28.62" stroke="#e03131" stroke-width="4" fill="none"/></g></g><mask/><g stroke-linecap="round"><g transform="translate(60.245867905908966 101.54155231390789) rotate(195.00000000000009 -14.308515489934209 -14.308515489934173)"><path d="M0 0 C-0.04 -0.89, -0.09 -1.79, -0.14 -2.8 M0 0 C-0.04 -0.75, -0.07 -1.5, -0.14 -2.8 M-0.14 -2.8 C-0.28 -3.79, -0.43 -4.78, -0.55 -5.58 M-0.14 -2.8 C-0.25 -3.55, -0.36 -4.3, -0.55 -5.58 M-0.55 -5.58 C-0.73 -6.28, -0.9 -6.99, -1.23 -8.31 M-0.55 -5.58 C-0.76 -6.41, -0.97 -7.25, -1.23 -8.31 M-1.23 -8.31 C-1.52 -9.13, -1.82 -9.94, -2.18 -10.95 M-1.23 -8.31 C-1.48 -9, -1.73 -9.7, -2.18 -10.95 M-2.18 -10.95 C-2.64 -11.93, -3.11 -12.92, -3.38 -13.49 M-2.18 -10.95 C-2.58 -11.81, -2.99 -12.67, -3.38 -13.49 M-3.38 -13.49 C-3.69 -14.01, -4 -14.53, -4.82 -15.9 M-3.38 -13.49 C-3.77 -14.15, -4.17 -14.81, -4.82 -15.9 M-4.82 -15.9 C-5.19 -16.39, -5.56 -16.89, -6.5 -18.15 M-4.82 -15.9 C-5.17 -16.37, -5.52 -16.84, -6.5 -18.15 M-6.5 -18.15 C-7.22 -18.96, -7.95 -19.76, -8.38 -20.24 M-6.5 -18.15 C-7.1 -18.82, -7.7 -19.48, -8.38 -20.24 M-8.38 -20.24 C-9.04 -20.83, -9.7 -21.43, -10.46 -22.12 M-8.38 -20.24 C-8.92 -20.73, -9.46 -21.22, -10.46 -22.12 M-10.46 -22.12 C-11.11 -22.6, -11.76 -23.08, -12.72 -23.79 M-10.46 -22.12 C-10.94 -22.48, -11.42 -22.83, -12.72 -23.79 M-12.72 -23.79 C-13.44 -24.23, -14.16 -24.66, -15.13 -25.24 M-12.72 -23.79 C-13.51 -24.27, -14.3 -24.74, -15.13 -25.24 M-15.13 -25.24 C-15.99 -25.65, -16.85 -26.05, -17.67 -26.44 M-15.13 -25.24 C-16.06 -25.68, -16.99 -26.12, -17.67 -26.44 M-17.67 -26.44 C-18.29 -26.66, -18.92 -26.89, -20.31 -27.38 M-17.67 -26.44 C-18.59 -26.77, -19.5 -27.1, -20.31 -27.38 M-20.31 -27.38 C-21.17 -27.6, -22.03 -27.81, -23.03 -28.07 M-20.31 -27.38 C-21.37 -27.65, -22.43 -27.92, -23.03 -28.07 M-23.03 -28.07 C-23.74 -28.17, -24.44 -28.28, -25.81 -28.48 M-23.03 -28.07 C-24.01 -28.21, -24.98 -28.36, -25.81 -28.48 M-25.81 -28.48 C-26.76 -28.53, -27.71 -28.57, -28.62 -28.62 M-25.81 -28.48 C-26.61 -28.52, -27.4 -28.56, -28.62 -28.62" stroke="#e03131" stroke-width="4" fill="none"/></g></g><mask/><g stroke-linecap="round"><g transform="translate(51.061660140338745 95.34396820041395) rotate(119.06492046395127 0.025947705417479483 6.493903255202319)" fill-rule="evenodd"><path d="M0 0 L-6.03 12.99 L6.09 12.99 L0 0" stroke="none" stroke-width="0" fill="#e03131" fill-rule="evenodd"/><path d="M0 0 C-2.04 4.4, -4.09 8.8, -6.03 12.99 M0 0 C-1.42 3.06, -2.84 6.11, -6.03 12.99 M-6.03 12.99 C-2.75 12.99, 0.54 12.99, 6.09 12.99 M-6.03 12.99 C-3.28 12.99, -0.53 12.99, 6.09 12.99 M6.09 12.99 C4.28 9.13, 2.47 5.27, 0 0 M6.09 12.99 C4.13 8.81, 2.17 4.63, 0 0 M0 0 C0 0, 0 0, 0 0 M0 0 C0 0, 0 0, 0 0" stroke="#e03131" stroke-width="4" fill="none"/></g></g><mask/><g stroke-linecap="round"><g transform="translate(297.36907328313674 201.92284183406105) rotate(270 12.268270440767616 4.089423480255846)"><path d="M0 0 C0.03 0.23, 0.07 0.46, 0.12 0.8 M0 0 C0.03 0.22, 0.07 0.44, 0.12 0.8 M0.12 0.8 C0.24 1.08, 0.36 1.35, 0.47 1.6 M0.12 0.8 C0.19 0.96, 0.26 1.12, 0.47 1.6 M0.47 1.6 C0.7 1.9, 0.92 2.2, 1.06 2.37 M0.47 1.6 C0.61 1.78, 0.75 1.97, 1.06 2.37 M1.06 2.37 C1.32 2.62, 1.58 2.86, 1.87 3.13 M1.06 2.37 C1.36 2.65, 1.66 2.93, 1.87 3.13 M1.87 3.13 C2.25 3.4, 2.62 3.66, 2.9 3.86 M1.87 3.13 C2.13 3.31, 2.39 3.5, 2.9 3.86 M2.9 3.86 C3.37 4.12, 3.84 4.38, 4.14 4.54 M2.9 3.86 C3.19 4.02, 3.48 4.18, 4.14 4.54 M4.14 4.54 C4.63 4.76, 5.12 4.98, 5.57 5.19 M4.14 4.54 C4.45 4.68, 4.76 4.82, 5.57 5.19 M5.57 5.19 C6.08 5.38, 6.6 5.57, 7.19 5.78 M5.57 5.19 C5.98 5.34, 6.38 5.49, 7.19 5.78 M7.19 5.78 C7.76 5.96, 8.34 6.13, 8.97 6.32 M7.19 5.78 C7.58 5.9, 7.97 6.02, 8.97 6.32 M8.97 6.32 C9.53 6.46, 10.08 6.6, 10.9 6.8 M8.97 6.32 C9.38 6.42, 9.79 6.53, 10.9 6.8 M10.9 6.8 C11.56 6.93, 12.22 7.06, 12.97 7.21 M10.9 6.8 C11.37 6.89, 11.83 6.99, 12.97 7.21 M12.97 7.21 C13.58 7.31, 14.18 7.4, 15.15 7.56 M12.97 7.21 C13.7 7.33, 14.42 7.44, 15.15 7.56 M15.15 7.56 C15.67 7.62, 16.2 7.68, 17.41 7.83 M15.15 7.56 C16.01 7.66, 16.87 7.76, 17.41 7.83 M17.41 7.83 C17.95 7.87, 18.49 7.92, 19.75 8.02 M17.41 7.83 C18.26 7.9, 19.1 7.97, 19.75 8.02 M19.75 8.02 C20.61 8.06, 21.47 8.11, 22.13 8.14 M19.75 8.02 C20.49 8.06, 21.22 8.09, 22.13 8.14 M22.13 8.14 C22.91 8.15, 23.7 8.17, 24.54 8.18 M22.13 8.14 C22.79 8.15, 23.46 8.16, 24.54 8.18" stroke="#e03131" stroke-width="4" fill="none"/></g></g><mask/><g stroke-linecap="round"><g transform="translate(305.54792024364787 169.20745399201397) rotate(540 4.089423480255888 12.26827044076758)"><path d="M0 0 C0.01 0.6, 0.02 1.19, 0.04 2.41 M0 0 C0.01 0.59, 0.02 1.18, 0.04 2.41 M0.04 2.41 C0.07 3.11, 0.11 3.82, 0.16 4.79 M0.04 2.41 C0.07 3, 0.1 3.6, 0.16 4.79 M0.16 4.79 C0.22 5.57, 0.29 6.34, 0.35 7.12 M0.16 4.79 C0.21 5.43, 0.26 6.07, 0.35 7.12 M0.35 7.12 C0.44 7.84, 0.52 8.55, 0.62 9.39 M0.35 7.12 C0.43 7.77, 0.51 8.41, 0.62 9.39 M0.62 9.39 C0.72 10.03, 0.83 10.68, 0.97 11.57 M0.62 9.39 C0.76 10.23, 0.89 11.07, 0.97 11.57 M0.97 11.57 C1.09 12.18, 1.21 12.79, 1.38 13.63 M0.97 11.57 C1.09 12.18, 1.21 12.8, 1.38 13.63 M1.38 13.63 C1.5 14.14, 1.63 14.64, 1.86 15.57 M1.38 13.63 C1.54 14.29, 1.71 14.96, 1.86 15.57 M1.86 15.57 C2.03 16.16, 2.21 16.75, 2.4 17.35 M1.86 15.57 C2.03 16.15, 2.21 16.74, 2.4 17.35 M2.4 17.35 C2.52 17.67, 2.63 18, 2.99 18.97 M2.4 17.35 C2.59 17.89, 2.79 18.43, 2.99 18.97 M2.99 18.97 C3.25 19.54, 3.5 20.1, 3.63 20.4 M2.99 18.97 C3.24 19.53, 3.49 20.09, 3.63 20.4 M3.63 20.4 C3.79 20.69, 3.95 20.97, 4.32 21.64 M3.63 20.4 C3.83 20.74, 4.02 21.09, 4.32 21.64 M4.32 21.64 C4.52 21.92, 4.72 22.2, 5.05 22.67 M4.32 21.64 C4.6 22.04, 4.88 22.43, 5.05 22.67 M5.05 22.67 C5.28 22.92, 5.52 23.17, 5.8 23.48 M5.05 22.67 C5.29 22.93, 5.54 23.19, 5.8 23.48 M5.8 23.48 C5.98 23.61, 6.15 23.74, 6.58 24.07 M5.8 23.48 C6.1 23.71, 6.4 23.93, 6.58 24.07 M6.58 24.07 C6.86 24.19, 7.13 24.31, 7.38 24.42 M6.58 24.07 C6.86 24.19, 7.14 24.31, 7.38 24.42 M7.38 24.42 C7.64 24.46, 7.9 24.5, 8.18 24.54 M7.38 24.42 C7.66 24.46, 7.94 24.5, 8.18 24.54" stroke="#e03131" stroke-width="4" fill="none"/></g></g><mask/><g stroke-linecap="round"><g transform="translate(304.99364654772785 172.56897227377132) rotate(464.0649204639513 -0.022247833299196884 -2.736261919582339)" fill-rule="evenodd"><path d="M0 0 L5.17 -5.47 L-5.22 -5.47 L0 0" stroke="none" stroke-width="0" fill="#e03131" fill-rule="evenodd"/><path d="M0 0 C1.48 -1.57, 2.97 -3.14, 5.17 -5.47 M0 0 C1.88 -1.99, 3.77 -3.98, 5.17 -5.47 M5.17 -5.47 C2.2 -5.47, -0.77 -5.47, -5.22 -5.47 M5.17 -5.47 C2.86 -5.47, 0.55 -5.47, -5.22 -5.47 M-5.22 -5.47 C-3.91 -4.1, -2.6 -2.72, 0 0 M-5.22 -5.47 C-3.72 -3.9, -2.22 -2.33, 0 0 M0 0 C0 0, 0 0, 0 0 M0 0 C0 0, 0 0, 0 0" stroke="#e03131" stroke-width="4" fill="none"/></g></g><mask/><g stroke-linecap="round"><g transform="translate(88.07091654485549 75.86165408992042) rotate(270 12.268270440767616 4.089423480255846)"><path d="M0 0 C0.04 0.26, 0.08 0.51, 0.12 0.8 M0 0 C0.04 0.27, 0.08 0.54, 0.12 0.8 M0.12 0.8 C0.23 1.05, 0.34 1.29, 0.47 1.6 M0.12 0.8 C0.23 1.06, 0.35 1.32, 0.47 1.6 M0.47 1.6 C0.67 1.86, 0.87 2.13, 1.06 2.37 M0.47 1.6 C0.59 1.76, 0.71 1.92, 1.06 2.37 M1.06 2.37 C1.25 2.55, 1.43 2.73, 1.87 3.13 M1.06 2.37 C1.27 2.57, 1.48 2.77, 1.87 3.13 M1.87 3.13 C2.15 3.33, 2.42 3.52, 2.9 3.86 M1.87 3.13 C2.12 3.31, 2.37 3.48, 2.9 3.86 M2.9 3.86 C3.38 4.12, 3.85 4.39, 4.14 4.54 M2.9 3.86 C3.22 4.03, 3.54 4.21, 4.14 4.54 M4.14 4.54 C4.5 4.71, 4.87 4.87, 5.57 5.19 M4.14 4.54 C4.58 4.75, 5.03 4.95, 5.57 5.19 M5.57 5.19 C6.01 5.35, 6.44 5.51, 7.19 5.78 M5.57 5.19 C6.2 5.42, 6.83 5.65, 7.19 5.78 M7.19 5.78 C7.59 5.91, 8 6.03, 8.97 6.32 M7.19 5.78 C7.57 5.9, 7.95 6.01, 8.97 6.32 M8.97 6.32 C9.58 6.47, 10.2 6.63, 10.9 6.8 M8.97 6.32 C9.58 6.47, 10.19 6.62, 10.9 6.8 M10.9 6.8 C11.72 6.96, 12.55 7.13, 12.97 7.21 M10.9 6.8 C11.72 6.96, 12.54 7.13, 12.97 7.21 M12.97 7.21 C13.81 7.35, 14.66 7.48, 15.15 7.56 M12.97 7.21 C13.83 7.35, 14.69 7.48, 15.15 7.56 M15.15 7.56 C15.94 7.65, 16.74 7.75, 17.41 7.83 M15.15 7.56 C15.73 7.63, 16.31 7.69, 17.41 7.83 M17.41 7.83 C18.06 7.88, 18.7 7.93, 19.75 8.02 M17.41 7.83 C18.32 7.9, 19.22 7.98, 19.75 8.02 M19.75 8.02 C20.6 8.06, 21.46 8.11, 22.13 8.14 M19.75 8.02 C20.3 8.05, 20.85 8.08, 22.13 8.14 M22.13 8.14 C23.09 8.16, 24.05 8.17, 24.54 8.18 M22.13 8.14 C22.94 8.15, 23.74 8.17, 24.54 8.18" stroke="#e03131" stroke-width="4" fill="none"/></g></g><mask/><g stroke-linecap="round"><g transform="translate(96.24976350536663 43.14626624787334) rotate(540 4.089423480255888 12.26827044076758)"><path d="M0 0 C0.01 0.69, 0.02 1.37, 0.04 2.41 M0 0 C0.01 0.88, 0.03 1.77, 0.04 2.41 M0.04 2.41 C0.07 3.05, 0.1 3.7, 0.16 4.79 M0.04 2.41 C0.08 3.22, 0.12 4.04, 0.16 4.79 M0.16 4.79 C0.22 5.58, 0.29 6.38, 0.35 7.12 M0.16 4.79 C0.22 5.51, 0.28 6.24, 0.35 7.12 M0.35 7.12 C0.44 7.88, 0.53 8.64, 0.62 9.39 M0.35 7.12 C0.45 7.96, 0.55 8.8, 0.62 9.39 M0.62 9.39 C0.76 10.25, 0.89 11.11, 0.97 11.57 M0.62 9.39 C0.69 9.84, 0.76 10.29, 0.97 11.57 M0.97 11.57 C1.07 12.11, 1.18 12.65, 1.38 13.63 M0.97 11.57 C1.07 12.11, 1.18 12.65, 1.38 13.63 M1.38 13.63 C1.5 14.12, 1.62 14.6, 1.86 15.57 M1.38 13.63 C1.57 14.4, 1.76 15.17, 1.86 15.57 M1.86 15.57 C2.04 16.17, 2.22 16.77, 2.4 17.35 M1.86 15.57 C1.99 16.02, 2.13 16.47, 2.4 17.35 M2.4 17.35 C2.6 17.9, 2.8 18.46, 2.99 18.97 M2.4 17.35 C2.59 17.87, 2.78 18.39, 2.99 18.97 M2.99 18.97 C3.13 19.28, 3.27 19.59, 3.63 20.4 M2.99 18.97 C3.19 19.41, 3.39 19.86, 3.63 20.4 M3.63 20.4 C3.79 20.69, 3.95 20.98, 4.32 21.64 M3.63 20.4 C3.78 20.66, 3.92 20.92, 4.32 21.64 M4.32 21.64 C4.5 21.89, 4.68 22.15, 5.05 22.67 M4.32 21.64 C4.51 21.9, 4.69 22.16, 5.05 22.67 M5.05 22.67 C5.28 22.92, 5.52 23.18, 5.8 23.48 M5.05 22.67 C5.34 22.99, 5.64 23.3, 5.8 23.48 M5.8 23.48 C6.07 23.68, 6.34 23.88, 6.58 24.07 M5.8 23.48 C6 23.62, 6.19 23.77, 6.58 24.07 M6.58 24.07 C6.83 24.17, 7.07 24.28, 7.38 24.42 M6.58 24.07 C6.89 24.2, 7.2 24.34, 7.38 24.42 M7.38 24.42 C7.62 24.45, 7.87 24.49, 8.18 24.54 M7.38 24.42 C7.61 24.45, 7.85 24.49, 8.18 24.54" stroke="#e03131" stroke-width="4" fill="none"/></g></g><mask/><g stroke-linecap="round"><g transform="translate(95.69548980944663 46.5077845296307) rotate(464.0649204639513 -0.022247833299196884 -2.73626191958234)" fill-rule="evenodd"><path d="M0 0 L5.17 -5.47 L-5.22 -5.47 L0 0" stroke="none" stroke-width="0" fill="#e03131" fill-rule="evenodd"/><path d="M0 0 C1.43 -1.52, 2.87 -3.03, 5.17 -5.47 M0 0 C1.24 -1.31, 2.49 -2.63, 5.17 -5.47 M5.17 -5.47 C2.44 -5.47, -0.29 -5.47, -5.22 -5.47 M5.17 -5.47 C2.88 -5.47, 0.59 -5.47, -5.22 -5.47 M-5.22 -5.47 C-3.99 -4.19, -2.77 -2.9, 0 0 M-5.22 -5.47 C-3.66 -3.83, -2.09 -2.2, 0 0 M0 0 C0 0, 0 0, 0 0 M0 0 C0 0, 0 0, 0 0" stroke="#e03131" stroke-width="4" fill="none"/></g></g><mask/></svg>