<svg version="1.1" xmlns="http://www.w3.org/2000/svg" viewBox="0 0 545.2081900376063 378.18276902255616" width="545.2081900376063" height="378.18276902255616" filter="invert(93%) hue-rotate(180deg)">
  <!-- svg-source:excalidraw -->
  
  <defs>
    <style class="style-fonts">
      @font-face {
        font-family: "Virgil";
        src: url("https://excalidraw.com/Virgil.woff2");
      }
      @font-face {
        font-family: "Cascadia";
        src: url("https://excalidraw.com/Cascadia.woff2");
      }
    </style>
  </defs>
  <rect x="0" y="0" width="545.2081900376063" height="378.18276902255616" fill="transparent"/><g stroke-linecap="round"><g transform="translate(442.38116367041874 77.79031296786866) rotate(0 0 78.07502746582031)"><path d="M0 0 C0 26.03, 0 130.13, 0 156.15 M0 0 C0 26.03, 0 130.13, 0 156.15" stroke="#000000" stroke-width="1" fill="none"/></g></g><mask/><g stroke-linecap="round"><g transform="translate(442.31451327979374 235.6050712686499) rotate(0 -167.77464294433594 0)"><path d="M0 0 C-55.92 0, -279.62 0, -335.55 0 M0 0 C-55.92 0, -279.62 0, -335.55 0" stroke="#000000" stroke-width="1" fill="none"/></g></g><mask/><g stroke-linecap="round"><g transform="translate(106.23251254737187 235.73828049716553) rotate(0 0 -66.78825378417969)"><path d="M0 0 C0 -22.26, 0 -111.31, 0 -133.58 M0 0 C0 -22.26, 0 -111.31, 0 -133.58" stroke="#000000" stroke-width="1" fill="none"/></g></g><mask/><g stroke-linecap="round"><g transform="translate(535.2081900376063 58.08019944247803) rotate(0 -47.1793212890625 0)"><path d="M0 0 C-15.73 0, -78.63 0, -94.36 0 M0 0 C-15.73 0, -78.63 0, -94.36 0" stroke="#c92a2a" stroke-width="1" fill="none"/></g><g transform="translate(535.2081900376063 58.08019944247803) rotate(0 -47.1793212890625 0)"><path d="M-94.36 0 L-80.76 -6.34 L-80.76 6.34 L-94.36 0" stroke="none" stroke-width="0" fill="#c92a2a" fill-rule="evenodd"/><path d="M-94.36 0 C-88.95 -2.52, -83.54 -5.05, -80.76 -6.34 M-94.36 0 C-90.52 -1.79, -86.68 -3.58, -80.76 -6.34 M-80.76 -6.34 C-80.76 -1.66, -80.76 3.02, -80.76 6.34 M-80.76 -6.34 C-80.76 -1.48, -80.76 3.38, -80.76 6.34 M-80.76 6.34 C-84.52 4.59, -88.28 2.83, -94.36 0 M-80.76 6.34 C-85.84 3.97, -90.92 1.6, -94.36 0 M-94.36 0 C-94.36 0, -94.36 0, -94.36 0 M-94.36 0 C-94.36 0, -94.36 0, -94.36 0" stroke="#c92a2a" stroke-width="1" fill="none"/></g></g><mask/><g stroke-linecap="round"><g transform="translate(443.2468252915125 368.18276902255616) rotate(0 0 -59.4635009765625)"><path d="M0 0 C0 -19.82, 0 -99.11, 0 -118.93 M0 0 C0 -19.82, 0 -99.11, 0 -118.93" stroke="#c92a2a" stroke-width="1" fill="none"/></g><g transform="translate(443.2468252915125 368.18276902255616) rotate(0 0 -59.4635009765625)"><path d="M0 -118.93 L6.34 -105.33 L-6.34 -105.33 L0 -118.93" stroke="none" stroke-width="0" fill="#c92a2a" fill-rule="evenodd"/><path d="M0 -118.93 C1.79 -115.08, 3.59 -111.23, 6.34 -105.33 M0 -118.93 C2.4 -113.79, 4.79 -108.65, 6.34 -105.33 M6.34 -105.33 C2.01 -105.33, -2.31 -105.33, -6.34 -105.33 M6.34 -105.33 C1.55 -105.33, -3.25 -105.33, -6.34 -105.33 M-6.34 -105.33 C-4.94 -108.33, -3.55 -111.32, 0 -118.93 M-6.34 -105.33 C-3.88 -110.62, -1.41 -115.9, 0 -118.93 M0 -118.93 C0 -118.93, 0 -118.93, 0 -118.93 M0 -118.93 C0 -118.93, 0 -118.93, 0 -118.93" stroke="#c92a2a" stroke-width="1" fill="none"/></g></g><mask/><g stroke-linecap="round"><g transform="translate(281.63177402198124 118.07644578036866) rotate(0 0 54.43608093261719)"><path d="M0 0 C0 18.15, 0 90.73, 0 108.87 M0 0 C0 18.15, 0 90.73, 0 108.87" stroke="#c92a2a" stroke-width="1" fill="none"/></g><g transform="translate(281.63177402198124 118.07644578036866) rotate(0 0 54.43608093261719)"><path d="M0 108.87 L-6.34 95.28 L6.34 95.28 L0 108.87" stroke="none" stroke-width="0" fill="#c92a2a" fill-rule="evenodd"/><path d="M0 108.87 C-2 104.59, -3.99 100.31, -6.34 95.28 M0 108.87 C-1.62 105.4, -3.24 101.92, -6.34 95.28 M-6.34 95.28 C-3.38 95.28, -0.41 95.28, 6.34 95.28 M-6.34 95.28 C-2.52 95.28, 1.31 95.28, 6.34 95.28 M6.34 95.28 C4.01 100.28, 1.67 105.28, 0 108.87 M6.34 95.28 C4.41 99.42, 2.48 103.56, 0 108.87 M0 108.87 C0 108.87, 0 108.87, 0 108.87 M0 108.87 C0 108.87, 0 108.87, 0 108.87" stroke="#c92a2a" stroke-width="1" fill="none"/></g></g><mask/><g stroke-linecap="round"><g transform="translate(103.56890781104374 339.8161308389624) rotate(0 7.105427357601002e-15 -47.74395751953125)"><path d="M0 0 C0 -15.91, 0 -79.57, 0 -95.49 M0 0 C0 -15.91, 0 -79.57, 0 -95.49" stroke="#c92a2a" stroke-width="1" fill="none"/></g><g transform="translate(103.56890781104374 339.8161308389624) rotate(0 7.105427357601002e-15 -47.74395751953125)"><path d="M0 -95.49 L6.34 -81.89 L-6.34 -81.89 L0 -95.49" stroke="none" stroke-width="0" fill="#c92a2a" fill-rule="evenodd"/><path d="M0 -95.49 C1.7 -91.84, 3.41 -88.18, 6.34 -81.89 M0 -95.49 C1.91 -91.38, 3.83 -87.28, 6.34 -81.89 M6.34 -81.89 C2.61 -81.89, -1.12 -81.89, -6.34 -81.89 M6.34 -81.89 C2.27 -81.89, -1.8 -81.89, -6.34 -81.89 M-6.34 -81.89 C-4.76 -85.28, -3.18 -88.67, 0 -95.49 M-6.34 -81.89 C-4.83 -85.13, -3.32 -88.37, 0 -95.49 M0 -95.49 C0 -95.49, 0 -95.49, 0 -95.49 M0 -95.49 C0 -95.49, 0 -95.49, 0 -95.49" stroke="#c92a2a" stroke-width="1" fill="none"/></g></g><mask/><g stroke-linecap="round"><g transform="translate(10 225.70216641909832) rotate(0 43.291671642648 0)"><path d="M0 0 C14.43 0, 72.15 0, 86.58 0 M0 0 C14.43 0, 72.15 0, 86.58 0" stroke="#c92a2a" stroke-width="1" fill="none"/></g><g transform="translate(10 225.70216641909832) rotate(0 43.291671642648 0)"><path d="M86.58 0 L72.99 6.34 L72.99 -6.34 L86.58 0" stroke="none" stroke-width="0" fill="#c92a2a" fill-rule="evenodd"/><path d="M86.58 0 C83.19 1.58, 79.79 3.17, 72.99 6.34 M86.58 0 C83.09 1.63, 79.6 3.26, 72.99 6.34 M72.99 6.34 C72.99 3.52, 72.99 0.69, 72.99 -6.34 M72.99 6.34 C72.99 3.35, 72.99 0.36, 72.99 -6.34 M72.99 -6.34 C77.63 -4.17, 82.27 -2.01, 86.58 0 M72.99 -6.34 C76.19 -4.85, 79.4 -3.35, 86.58 0 M86.58 0 C86.58 0, 86.58 0, 86.58 0 M86.58 0 C86.58 0, 86.58 0, 86.58 0" stroke="#c92a2a" stroke-width="1" fill="none"/></g></g><mask/><g stroke-linecap="round"><g transform="translate(103.27857118457635 204.25104481598805) rotate(0 21.613636127840522 17.309867789585084)"><path d="M0 0 C1.32 -0.93, 5.06 -4.35, 7.93 -5.57 C10.8 -6.8, 13.88 -7.42, 17.22 -7.36 C20.56 -7.29, 24.87 -6.37, 27.94 -5.18 C31.02 -3.98, 33.12 -3.12, 35.67 -0.17 C38.21 2.77, 42.07 8.16, 43.23 12.52 C44.38 16.87, 44.53 21.34, 42.59 25.98 C40.65 30.61, 37.03 37.66, 31.6 40.32 C26.18 42.99, 13.63 41.7, 10.04 41.98 M0 0 C1.32 -0.93, 5.06 -4.35, 7.93 -5.57 C10.8 -6.8, 13.88 -7.42, 17.22 -7.36 C20.56 -7.29, 24.87 -6.37, 27.94 -5.18 C31.02 -3.98, 33.12 -3.12, 35.67 -0.17 C38.21 2.77, 42.07 8.16, 43.23 12.52 C44.38 16.87, 44.53 21.34, 42.59 25.98 C40.65 30.61, 37.03 37.66, 31.6 40.32 C26.18 42.99, 13.63 41.7, 10.04 41.98" stroke="#c92a2a" stroke-width="2" fill="none"/></g><g transform="translate(103.27857118457635 204.25104481598805) rotate(0 21.613636127840522 17.309867789585084)"><path d="M10.04 41.98 L23.66 35.7 L23.6 48.38 L10.04 41.98" stroke="none" stroke-width="0" fill="#c92a2a" fill-rule="evenodd"/><path d="M10.04 41.98 C13 40.61, 15.97 39.25, 23.66 35.7 M10.04 41.98 C13.2 40.52, 16.36 39.07, 23.66 35.7 M23.66 35.7 C23.65 38.8, 23.63 41.9, 23.6 48.38 M23.66 35.7 C23.65 38.32, 23.64 40.94, 23.6 48.38 M23.6 48.38 C19.48 46.44, 15.36 44.49, 10.04 41.98 M23.6 48.38 C20.74 47.03, 17.88 45.68, 10.04 41.98 M10.04 41.98 C10.04 41.98, 10.04 41.98, 10.04 41.98 M10.04 41.98 C10.04 41.98, 10.04 41.98, 10.04 41.98" stroke="#c92a2a" stroke-width="2" fill="none"/></g></g><mask/><g transform="translate(479.5453974087185 12.127942756367077) rotate(0 1.3299832703816605 12.468440778610258)" stroke="none"><path fill="#c92a2a" d="M 1.42,-0.32 Q 1.42,-0.32 2.56,2.79 3.70,5.91 4.09,9.06 4.48,12.21 4.55,14.63 4.62,17.05 4.26,18.86 3.89,20.68 3.63,22.47 3.36,24.27 3.31,24.48 3.26,24.68 3.14,24.86 3.03,25.04 2.86,25.17 2.70,25.31 2.50,25.38 2.30,25.45 2.09,25.46 1.88,25.46 1.67,25.40 1.47,25.34 1.30,25.21 1.12,25.09 1.00,24.92 0.88,24.75 0.81,24.54 0.75,24.34 0.76,24.13 0.76,23.91 0.84,23.71 0.91,23.52 1.04,23.35 1.18,23.18 1.36,23.07 1.53,22.96 1.74,22.90 1.95,22.85 2.16,22.87 2.37,22.89 2.57,22.97 2.76,23.06 2.92,23.20 3.08,23.34 3.18,23.52 3.29,23.71 3.33,23.92 3.37,24.13 3.34,24.34 3.31,24.55 3.21,24.74 3.12,24.93 2.97,25.08 2.82,25.23 2.63,25.32 2.44,25.42 2.23,25.45 2.02,25.47 1.81,25.43 1.60,25.39 1.41,25.29 1.23,25.19 1.09,25.03 0.95,24.87 0.86,24.67 0.78,24.48 0.76,24.27 0.74,24.05 0.74,24.05 0.74,24.05 0.76,22.36 0.79,20.66 0.44,18.96 0.10,17.26 -0.04,15.00 -0.18,12.74 -0.49,9.83 -0.79,6.93 -1.11,3.62 -1.42,0.32 -1.44,0.14 -1.46,-0.02 -1.43,-0.20 -1.41,-0.37 -1.34,-0.54 -1.27,-0.70 -1.17,-0.84 -1.07,-0.98 -0.94,-1.10 -0.80,-1.21 -0.64,-1.29 -0.49,-1.37 -0.31,-1.41 -0.14,-1.45 0.02,-1.44 0.20,-1.44 0.37,-1.40 0.54,-1.35 0.69,-1.27 0.85,-1.18 0.98,-1.06 1.11,-0.94 1.20,-0.80 1.30,-0.65 1.36,-0.48 1.42,-0.32 1.42,-0.32 L 1.42,-0.32 Z"/></g><g transform="translate(484.1339615965096 10) rotate(0 3.9899498111450953 8.378772698430197)" stroke="none"><path fill="#c92a2a" d="M 0.03,-1.46 Q 0.03,-1.46 1.52,-1.61 3.00,-1.77 4.61,-1.35 6.21,-0.93 7.70,0.04 9.19,1.02 10.18,2.24 11.17,3.47 11.66,4.84 12.16,6.22 11.99,7.75 11.82,9.29 10.59,10.53 9.36,11.78 7.38,12.57 5.39,13.35 3.66,13.98 1.93,14.60 0.26,15.92 -1.41,17.23 -1.57,17.37 -1.73,17.51 -1.93,17.59 -2.13,17.67 -2.34,17.68 -2.55,17.69 -2.75,17.64 -2.96,17.58 -3.14,17.46 -3.31,17.35 -3.44,17.18 -3.57,17.01 -3.64,16.81 -3.71,16.61 -3.71,16.39 -3.71,16.18 -3.65,15.98 -3.58,15.78 -3.45,15.61 -3.32,15.44 -3.15,15.32 -2.97,15.20 -2.77,15.14 -2.56,15.08 -2.35,15.09 -2.14,15.10 -1.94,15.18 -1.74,15.26 -1.58,15.39 -1.42,15.53 -1.31,15.71 -1.20,15.89 -1.15,16.10 -1.10,16.31 -1.13,16.52 -1.15,16.73 -1.24,16.93 -1.32,17.12 -1.47,17.27 -1.61,17.43 -1.80,17.53 -1.99,17.63 -2.20,17.66 -2.41,17.70 -2.62,17.67 -2.83,17.63 -3.02,17.54 -3.20,17.44 -3.35,17.28 -3.50,17.13 -3.59,16.94 -3.68,16.75 -3.70,16.53 -3.73,16.32 -3.68,16.12 -3.64,15.91 -3.53,15.72 -3.42,15.54 -3.42,15.54 -3.42,15.54 -1.49,13.27 0.42,11.00 2.18,10.24 3.94,9.48 6.09,8.39 8.23,7.31 7.59,5.68 6.95,4.04 6.05,3.32 5.15,2.60 4.02,2.26 2.88,1.92 1.42,1.69 -0.03,1.46 -0.21,1.43 -0.38,1.41 -0.55,1.34 -0.71,1.27 -0.85,1.17 -0.99,1.06 -1.11,0.93 -1.22,0.79 -1.30,0.64 -1.38,0.48 -1.41,0.31 -1.45,0.13 -1.45,-0.03 -1.44,-0.21 -1.40,-0.38 -1.35,-0.55 -1.26,-0.70 -1.18,-0.86 -1.06,-0.99 -0.94,-1.12 -0.79,-1.21 -0.64,-1.31 -0.47,-1.37 -0.31,-1.42 -0.13,-1.44 0.03,-1.46 0.03,-1.46 L 0.03,-1.46 Z"/></g><g transform="translate(461.9893134772444 295.7432484922722) rotate(0 0.06652963976262072 10.772712108873634)" stroke="none"><path fill="#c92a2a" d="M 1.43,0.01 Q 1.43,0.01 1.40,3.45 1.36,6.89 1.35,9.71 1.33,12.53 1.36,14.65 1.39,16.77 1.45,18.68 1.52,20.60 1.49,20.81 1.47,21.02 1.39,21.21 1.30,21.41 1.16,21.56 1.01,21.72 0.82,21.82 0.64,21.92 0.43,21.96 0.22,22.00 0.01,21.96 -0.19,21.93 -0.38,21.83 -0.57,21.74 -0.72,21.58 -0.86,21.43 -0.96,21.24 -1.05,21.05 -1.07,20.84 -1.10,20.63 -1.05,20.42 -1.01,20.21 -0.90,20.03 -0.80,19.84 -0.64,19.70 -0.48,19.56 -0.28,19.48 -0.08,19.40 0.12,19.39 0.33,19.37 0.54,19.43 0.74,19.48 0.92,19.60 1.10,19.72 1.23,19.89 1.36,20.05 1.43,20.25 1.50,20.45 1.50,20.67 1.50,20.88 1.44,21.08 1.37,21.28 1.25,21.45 1.12,21.63 0.94,21.75 0.77,21.87 0.57,21.93 0.36,21.99 0.15,21.98 -0.05,21.97 -0.25,21.89 -0.45,21.81 -0.61,21.68 -0.78,21.54 -0.89,21.36 -1.00,21.18 -1.05,20.97 -1.10,20.77 -1.10,20.77 -1.10,20.77 -1.29,18.79 -1.48,16.81 -1.51,14.66 -1.54,12.51 -1.53,9.69 -1.52,6.86 -1.47,3.42 -1.43,-0.01 -1.41,-0.18 -1.39,-0.35 -1.32,-0.52 -1.26,-0.68 -1.16,-0.82 -1.06,-0.96 -0.93,-1.07 -0.80,-1.19 -0.64,-1.27 -0.49,-1.35 -0.32,-1.39 -0.15,-1.42 0.01,-1.42 0.18,-1.42 0.35,-1.38 0.52,-1.33 0.67,-1.25 0.83,-1.17 0.95,-1.05 1.08,-0.94 1.18,-0.79 1.28,-0.65 1.34,-0.49 1.40,-0.32 1.41,-0.15 1.43,0.01 1.43,0.01 L 1.43,0.01 Z"/></g><g transform="translate(462.9868618825178 293.88127191373786) rotate(0 8.445515671898022 2.8926526605929723)" stroke="none"><path fill="#c92a2a" d="M -0.38,-1.39 Q -0.38,-1.39 1.87,-2.29 4.13,-3.20 5.96,-3.64 7.79,-4.09 9.46,-4.29 11.13,-4.50 12.87,-4.07 14.61,-3.63 15.94,-2.23 17.27,-0.83 17.74,0.97 18.21,2.79 17.26,4.57 16.31,6.36 14.24,7.42 12.16,8.47 9.01,9.08 5.87,9.69 5.66,9.71 5.45,9.74 5.24,9.69 5.03,9.64 4.85,9.53 4.67,9.42 4.53,9.26 4.40,9.10 4.32,8.90 4.24,8.70 4.23,8.49 4.22,8.28 4.28,8.07 4.33,7.87 4.45,7.69 4.57,7.52 4.74,7.39 4.91,7.26 5.12,7.20 5.32,7.13 5.53,7.13 5.74,7.13 5.94,7.20 6.14,7.27 6.31,7.40 6.48,7.53 6.60,7.70 6.72,7.88 6.77,8.08 6.83,8.29 6.82,8.50 6.81,8.71 6.73,8.91 6.65,9.11 6.51,9.27 6.37,9.43 6.19,9.54 6.00,9.65 5.80,9.69 5.59,9.74 5.38,9.71 5.17,9.69 4.97,9.60 4.78,9.51 4.63,9.36 4.47,9.22 4.38,9.03 4.28,8.84 4.24,8.63 4.21,8.42 4.25,8.21 4.28,8.00 4.38,7.81 4.48,7.63 4.64,7.48 4.79,7.33 4.99,7.25 5.18,7.16 5.18,7.16 5.18,7.16 7.83,6.17 10.48,5.19 11.75,4.51 13.02,3.84 13.46,2.77 13.90,1.70 12.68,0.58 11.47,-0.53 10.09,-0.38 8.71,-0.22 6.95,0.18 5.19,0.60 2.79,0.99 0.38,1.39 0.21,1.41 0.04,1.44 -0.12,1.42 -0.30,1.41 -0.46,1.35 -0.63,1.29 -0.77,1.20 -0.92,1.10 -1.04,0.98 -1.16,0.85 -1.24,0.70 -1.33,0.55 -1.38,0.38 -1.42,0.21 -1.43,0.04 -1.43,-0.13 -1.40,-0.30 -1.36,-0.47 -1.28,-0.62 -1.21,-0.78 -1.10,-0.91 -0.99,-1.05 -0.84,-1.15 -0.70,-1.25 -0.54,-1.32 -0.38,-1.39 -0.38,-1.39 L -0.38,-1.39 Z"/></g><g transform="translate(294.40864807098615 147.11947707797896) rotate(0 -0.6317572915530718 12.634688687407959)" stroke="none"><path fill="#c92a2a" d="M 1.49,0.07 Q 1.49,0.07 1.53,3.23 1.57,6.40 1.44,9.11 1.32,11.82 1.08,14.34 0.85,16.85 0.64,18.95 0.43,21.06 0.26,22.80 0.08,24.55 0.03,24.75 -0.00,24.96 -0.11,25.15 -0.21,25.33 -0.38,25.47 -0.54,25.61 -0.73,25.69 -0.93,25.77 -1.14,25.78 -1.35,25.79 -1.56,25.74 -1.76,25.68 -1.94,25.57 -2.12,25.45 -2.25,25.28 -2.38,25.11 -2.45,24.91 -2.52,24.71 -2.52,24.50 -2.52,24.29 -2.46,24.08 -2.39,23.88 -2.26,23.71 -2.14,23.54 -1.96,23.42 -1.79,23.30 -1.58,23.24 -1.38,23.18 -1.16,23.19 -0.95,23.20 -0.75,23.28 -0.56,23.36 -0.39,23.49 -0.23,23.63 -0.12,23.81 -0.01,23.99 0.03,24.20 0.08,24.40 0.06,24.62 0.04,24.83 -0.04,25.02 -0.13,25.21 -0.27,25.37 -0.42,25.53 -0.61,25.63 -0.79,25.73 -1.00,25.76 -1.21,25.80 -1.42,25.77 -1.63,25.74 -1.82,25.64 -2.01,25.54 -2.16,25.39 -2.30,25.23 -2.39,25.04 -2.49,24.85 -2.51,24.64 -2.54,24.43 -2.54,24.43 -2.54,24.43 -2.55,22.65 -2.57,20.87 -2.52,18.77 -2.46,16.68 -2.44,14.17 -2.42,11.65 -2.30,8.93 -2.18,6.21 -1.83,3.07 -1.49,-0.07 -1.46,-0.25 -1.43,-0.42 -1.36,-0.59 -1.29,-0.75 -1.18,-0.90 -1.07,-1.04 -0.93,-1.15 -0.79,-1.27 -0.62,-1.34 -0.46,-1.42 -0.28,-1.45 -0.10,-1.49 0.07,-1.48 0.25,-1.47 0.42,-1.42 0.59,-1.37 0.75,-1.28 0.90,-1.19 1.03,-1.06 1.16,-0.93 1.26,-0.78 1.35,-0.63 1.41,-0.45 1.47,-0.28 1.48,-0.10 1.49,0.07 1.49,0.07 L 1.49,0.07 Z"/></g><g transform="translate(296.1376567987259 148.98145365651328) rotate(0 6.55028951160412 3.1586493146693044)" stroke="none"><path fill="#c92a2a" d="M -0.82,-1.23 Q -0.82,-1.23 0.60,-2.56 2.02,-3.88 4.10,-4.06 6.18,-4.24 8.07,-3.16 9.97,-2.09 11.29,-0.48 12.61,1.11 13.37,2.48 14.13,3.85 14.15,5.65 14.17,7.45 13.19,8.50 12.21,9.54 10.27,9.95 8.34,10.36 5.66,10.68 2.98,11.00 2.77,11.01 2.56,11.03 2.35,10.97 2.15,10.92 1.97,10.80 1.79,10.69 1.66,10.52 1.53,10.35 1.46,10.15 1.39,9.95 1.39,9.74 1.39,9.52 1.45,9.32 1.52,9.12 1.65,8.95 1.77,8.78 1.95,8.66 2.12,8.54 2.33,8.48 2.53,8.42 2.74,8.43 2.95,8.44 3.15,8.51 3.35,8.59 3.51,8.72 3.68,8.86 3.79,9.04 3.90,9.22 3.95,9.43 4.00,9.63 3.98,9.85 3.96,10.06 3.87,10.25 3.78,10.45 3.64,10.60 3.49,10.76 3.31,10.86 3.12,10.96 2.91,11.00 2.70,11.03 2.49,11.00 2.28,10.97 2.09,10.87 1.90,10.78 1.76,10.62 1.61,10.47 1.52,10.28 1.43,10.09 1.40,9.88 1.37,9.67 1.42,9.46 1.46,9.25 1.57,9.07 1.68,8.88 1.84,8.74 2.00,8.60 2.19,8.52 2.39,8.44 2.39,8.44 2.39,8.44 4.88,7.55 7.37,6.66 8.76,6.28 10.15,5.90 9.62,4.86 9.08,3.83 8.26,2.67 7.44,1.51 5.76,0.67 4.08,-0.16 2.45,0.53 0.82,1.23 0.66,1.31 0.50,1.39 0.32,1.43 0.15,1.47 -0.02,1.47 -0.20,1.47 -0.38,1.42 -0.55,1.37 -0.71,1.29 -0.86,1.20 -0.99,1.08 -1.13,0.96 -1.22,0.81 -1.32,0.66 -1.38,0.49 -1.44,0.32 -1.46,0.14 -1.48,-0.02 -1.46,-0.20 -1.43,-0.38 -1.36,-0.54 -1.30,-0.71 -1.19,-0.86 -1.09,-1.00 -0.95,-1.12 -0.82,-1.23 -0.82,-1.23 L -0.82,-1.23 Z"/></g><g transform="translate(22.223076541446034 187.61698004120353) rotate(0 -0.5652505089731079 12.701172612805266)" stroke="none"><path fill="#c92a2a" d="M 1.43,0.09 Q 1.43,0.09 1.34,2.64 1.26,5.19 1.15,7.82 1.05,10.45 0.93,13.10 0.80,15.76 0.63,18.05 0.47,20.33 0.74,22.54 1.01,24.76 1.02,24.97 1.02,25.18 0.96,25.38 0.89,25.59 0.77,25.76 0.65,25.93 0.47,26.05 0.30,26.18 0.10,26.24 -0.10,26.30 -0.31,26.29 -0.52,26.29 -0.72,26.21 -0.92,26.14 -1.09,26.00 -1.25,25.87 -1.36,25.69 -1.48,25.51 -1.53,25.30 -1.58,25.10 -1.56,24.89 -1.54,24.67 -1.46,24.48 -1.37,24.29 -1.23,24.13 -1.09,23.97 -0.90,23.87 -0.72,23.76 -0.51,23.72 -0.30,23.68 -0.09,23.71 0.11,23.74 0.30,23.84 0.49,23.93 0.64,24.09 0.79,24.24 0.88,24.43 0.98,24.62 1.01,24.83 1.03,25.04 0.99,25.25 0.95,25.46 0.85,25.64 0.74,25.82 0.58,25.97 0.42,26.11 0.23,26.19 0.03,26.27 -0.17,26.29 -0.38,26.31 -0.59,26.25 -0.79,26.20 -0.97,26.09 -1.15,25.97 -1.28,25.80 -1.42,25.64 -1.49,25.44 -1.56,25.24 -1.56,25.24 -1.56,25.24 -2.01,22.73 -2.46,20.22 -2.44,17.92 -2.43,15.61 -2.31,12.96 -2.19,10.31 -2.07,7.64 -1.94,4.97 -1.69,2.43 -1.43,-0.09 -1.40,-0.26 -1.37,-0.43 -1.29,-0.59 -1.22,-0.75 -1.11,-0.88 -1.01,-1.02 -0.87,-1.13 -0.73,-1.23 -0.57,-1.30 -0.41,-1.37 -0.24,-1.40 -0.07,-1.43 0.09,-1.42 0.26,-1.41 0.43,-1.36 0.60,-1.30 0.74,-1.21 0.89,-1.12 1.01,-1.00 1.13,-0.87 1.22,-0.73 1.31,-0.58 1.36,-0.41 1.41,-0.24 1.42,-0.07 1.43,0.09 1.43,0.09 L 1.43,0.09 Z"/></g><g transform="translate(21.69109847141516 185.622005135631) rotate(0 6.184513636005576 13.066918012160215)" stroke="none"><path fill="#c92a2a" d="M 0.22,-1.41 Q 0.22,-1.41 1.70,-1.26 3.19,-1.11 4.59,-0.66 6.00,-0.20 7.27,0.25 8.54,0.71 9.74,1.48 10.95,2.24 11.91,3.52 12.88,4.79 13.30,6.22 13.73,7.65 13.41,9.03 13.10,10.42 11.94,11.54 10.79,12.66 9.13,13.47 7.47,14.29 7.72,16.29 7.96,18.30 8.54,19.93 9.12,21.57 10.27,23.20 11.42,24.83 11.52,25.02 11.62,25.20 11.66,25.41 11.69,25.62 11.66,25.83 11.63,26.04 11.53,26.23 11.43,26.42 11.28,26.57 11.12,26.71 10.93,26.80 10.74,26.89 10.53,26.92 10.31,26.94 10.11,26.89 9.90,26.85 9.72,26.74 9.53,26.63 9.40,26.47 9.26,26.31 9.18,26.11 9.10,25.91 9.09,25.70 9.07,25.49 9.13,25.29 9.19,25.08 9.31,24.90 9.42,24.73 9.59,24.60 9.76,24.47 9.96,24.40 10.16,24.33 10.38,24.33 10.59,24.33 10.79,24.40 10.99,24.47 11.16,24.59 11.33,24.72 11.45,24.90 11.57,25.07 11.63,25.28 11.69,25.48 11.67,25.69 11.66,25.91 11.59,26.10 11.51,26.30 11.37,26.46 11.23,26.63 11.05,26.74 10.87,26.85 10.66,26.89 10.46,26.94 10.24,26.92 10.03,26.89 9.84,26.81 9.65,26.72 9.49,26.57 9.34,26.43 9.34,26.43 9.34,26.43 7.83,24.58 6.32,22.73 5.38,20.61 4.44,18.48 4.53,15.59 4.63,12.70 6.48,11.18 8.34,9.65 9.03,8.27 9.72,6.88 8.41,5.45 7.10,4.01 6.00,3.45 4.91,2.89 3.80,2.46 2.69,2.03 1.23,1.72 -0.22,1.41 -0.38,1.37 -0.55,1.32 -0.70,1.23 -0.85,1.15 -0.98,1.03 -1.10,0.91 -1.20,0.76 -1.29,0.62 -1.34,0.46 -1.40,0.29 -1.42,0.12 -1.43,-0.04 -1.40,-0.21 -1.38,-0.39 -1.31,-0.55 -1.24,-0.71 -1.14,-0.84 -1.04,-0.98 -0.90,-1.09 -0.77,-1.20 -0.61,-1.28 -0.46,-1.35 -0.29,-1.39 -0.12,-1.43 0.04,-1.42 0.22,-1.41 0.22,-1.41 L 0.22,-1.41 Z"/></g><g transform="translate(45.96368934704748 212.7532981364941) rotate(0 2.028254963575648 -1.8619613404125346)" stroke="none"><path fill="#c92a2a" d="M -1.30,-0.64 Q -1.30,-0.64 -0.37,-2.54 0.54,-4.44 1.69,-5.78 2.84,-7.13 3.98,-5.50 5.12,-3.86 5.15,-2.24 5.18,-0.62 4.07,0.07 2.97,0.76 2.96,0.92 2.94,1.08 2.89,1.23 2.84,1.38 2.75,1.51 2.67,1.64 2.55,1.75 2.43,1.86 2.30,1.94 2.16,2.01 2.01,2.06 1.85,2.10 1.69,2.10 1.54,2.11 1.38,2.07 1.23,2.04 1.09,1.97 0.94,1.90 0.82,1.80 0.70,1.70 0.61,1.57 0.51,1.44 0.45,1.29 0.39,1.15 0.37,0.99 0.35,0.83 0.54,1.29 0.74,1.74 0.62,1.57 0.49,1.39 0.42,1.19 0.36,0.99 0.36,0.78 0.37,0.56 0.44,0.36 0.51,0.16 0.64,0.00 0.77,-0.16 0.95,-0.28 1.13,-0.39 1.33,-0.45 1.54,-0.50 1.75,-0.48 1.96,-0.47 2.16,-0.39 2.36,-0.31 2.51,-0.16 2.67,-0.02 2.78,0.15 2.89,0.33 2.93,0.54 2.97,0.75 2.95,0.96 2.92,1.17 2.83,1.36 2.73,1.55 2.59,1.71 2.44,1.86 2.25,1.95 2.06,2.05 1.85,2.08 1.64,2.11 1.43,2.07 1.22,2.04 1.03,1.93 0.85,1.83 0.70,1.67 0.56,1.52 0.47,1.32 0.39,1.13 0.37,0.92 0.35,0.71 0.40,0.50 0.45,0.29 0.56,0.11 0.67,-0.06 0.84,-0.19 1.00,-0.33 1.20,-0.40 1.40,-0.48 1.61,-0.49 1.82,-0.49 2.03,-0.43 2.23,-0.37 2.60,0.19 2.97,0.76 2.96,0.92 2.94,1.08 2.89,1.23 2.84,1.38 2.75,1.51 2.67,1.64 2.55,1.75 2.43,1.86 2.30,1.94 2.16,2.01 2.01,2.06 1.85,2.10 1.69,2.10 1.54,2.11 1.38,2.07 1.23,2.04 1.09,1.97 0.94,1.90 0.82,1.80 0.70,1.70 0.61,1.57 0.51,1.44 0.45,1.29 0.39,1.15 0.37,0.99 0.35,0.83 1.31,0.14 2.27,-0.54 2.29,-2.90 2.31,-5.25 2.75,-4.19 3.20,-3.12 2.25,-1.24 1.30,0.64 1.20,0.79 1.11,0.93 0.98,1.05 0.85,1.17 0.70,1.26 0.54,1.34 0.37,1.39 0.20,1.44 0.03,1.44 -0.14,1.44 -0.31,1.41 -0.48,1.37 -0.64,1.29 -0.79,1.21 -0.93,1.10 -1.06,0.99 -1.17,0.84 -1.27,0.70 -1.33,0.54 -1.40,0.38 -1.43,0.20 -1.45,0.03 -1.43,-0.14 -1.42,-0.31 -1.36,-0.48 -1.30,-0.64 -1.30,-0.64 L -1.30,-0.64 Z"/></g><g transform="translate(121.04246400983686 300.59756552419094) rotate(0 -0.5319933081526926 13.931391899786519)" stroke="none"><path fill="#c92a2a" d="M 1.46,0.06 Q 1.46,0.06 1.42,4.13 1.39,8.21 1.22,12.01 1.05,15.81 0.86,18.96 0.68,22.11 0.47,24.49 0.26,26.87 0.21,27.07 0.17,27.28 0.06,27.47 -0.03,27.65 -0.19,27.79 -0.35,27.93 -0.55,28.01 -0.75,28.09 -0.96,28.11 -1.17,28.12 -1.38,28.07 -1.58,28.01 -1.76,27.90 -1.94,27.78 -2.07,27.61 -2.20,27.44 -2.27,27.24 -2.34,27.04 -2.34,26.83 -2.35,26.62 -2.28,26.42 -2.22,26.21 -2.09,26.04 -1.96,25.87 -1.79,25.75 -1.61,25.63 -1.41,25.57 -1.21,25.51 -0.99,25.52 -0.78,25.53 -0.58,25.60 -0.39,25.68 -0.22,25.81 -0.06,25.95 0.04,26.13 0.16,26.31 0.21,26.52 0.25,26.72 0.23,26.93 0.21,27.15 0.13,27.34 0.04,27.53 -0.09,27.69 -0.24,27.85 -0.42,27.95 -0.61,28.05 -0.82,28.09 -1.03,28.13 -1.24,28.09 -1.45,28.06 -1.64,27.97 -1.83,27.87 -1.97,27.72 -2.12,27.57 -2.21,27.37 -2.31,27.18 -2.33,26.97 -2.36,26.76 -2.36,26.76 -2.36,26.76 -2.42,24.38 -2.48,22.00 -2.45,18.83 -2.41,15.65 -2.25,11.86 -2.08,8.07 -1.77,4.00 -1.46,-0.06 -1.43,-0.23 -1.40,-0.40 -1.33,-0.57 -1.26,-0.73 -1.15,-0.87 -1.05,-1.01 -0.91,-1.12 -0.77,-1.23 -0.61,-1.31 -0.46,-1.38 -0.28,-1.42 -0.11,-1.45 0.06,-1.45 0.23,-1.44 0.40,-1.39 0.57,-1.34 0.72,-1.25 0.88,-1.16 1.00,-1.04 1.13,-0.92 1.22,-0.77 1.32,-0.62 1.37,-0.45 1.43,-0.28 1.44,-0.11 1.46,0.06 1.46,0.06 L 1.46,0.06 Z"/></g><g transform="translate(122.305978592943 301.2625571593818) rotate(0 6.384026364684644 10.473465873037753)" stroke="none"><path fill="#c92a2a" d="M -0.52,-1.35 Q -0.52,-1.35 0.73,-2.28 1.98,-3.20 3.82,-3.53 5.66,-3.86 7.44,-3.78 9.23,-3.70 10.80,-2.79 12.37,-1.88 13.23,-0.29 14.08,1.28 14.01,3.00 13.93,4.72 12.78,6.20 11.63,7.68 10.12,8.71 8.60,9.75 7.72,10.46 6.83,11.17 6.81,12.26 6.79,13.35 7.99,14.93 9.20,16.50 9.89,17.49 10.59,18.47 11.94,20.00 13.30,21.54 13.44,21.70 13.58,21.86 13.66,22.06 13.74,22.26 13.75,22.47 13.77,22.68 13.71,22.89 13.66,23.09 13.54,23.27 13.42,23.45 13.26,23.58 13.09,23.71 12.89,23.78 12.69,23.85 12.48,23.85 12.26,23.85 12.06,23.79 11.86,23.72 11.69,23.59 11.52,23.47 11.40,23.29 11.28,23.12 11.22,22.91 11.16,22.71 11.17,22.50 11.18,22.28 11.25,22.09 11.33,21.89 11.46,21.72 11.60,21.56 11.78,21.45 11.96,21.34 12.17,21.29 12.38,21.24 12.59,21.26 12.80,21.28 12.99,21.37 13.19,21.46 13.34,21.60 13.50,21.75 13.60,21.93 13.70,22.12 13.74,22.33 13.77,22.54 13.74,22.75 13.71,22.96 13.61,23.15 13.52,23.34 13.36,23.48 13.21,23.63 13.02,23.72 12.83,23.81 12.62,23.84 12.40,23.87 12.20,23.82 11.99,23.78 11.80,23.67 11.62,23.56 11.62,23.56 11.62,23.56 9.52,22.44 7.43,21.32 6.37,20.35 5.31,19.38 4.44,18.19 3.56,17.00 2.79,15.45 2.01,13.91 2.01,12.20 2.02,10.50 2.81,9.01 3.61,7.53 4.75,6.59 5.88,5.64 7.69,4.32 9.49,2.99 9.04,1.99 8.60,0.99 7.43,0.93 6.27,0.88 4.93,0.97 3.59,1.06 2.05,1.20 0.52,1.35 0.35,1.39 0.18,1.44 0.00,1.44 -0.16,1.44 -0.33,1.40 -0.50,1.35 -0.66,1.27 -0.82,1.19 -0.95,1.08 -1.08,0.96 -1.18,0.82 -1.28,0.67 -1.34,0.51 -1.40,0.35 -1.43,0.17 -1.45,0.00 -1.43,-0.16 -1.41,-0.34 -1.34,-0.50 -1.28,-0.67 -1.18,-0.81 -1.09,-0.95 -0.95,-1.07 -0.82,-1.19 -0.67,-1.27 -0.51,-1.35 -0.51,-1.35 L -0.52,-1.35 Z"/></g><g transform="translate(145.18208703467457 328.3939111127321) rotate(0 5.852017818410161 5.98483328798676)" stroke="none"><path fill="#c92a2a" d="M 1.02,-1.04 Q 1.02,-1.04 2.29,-0.34 3.56,0.34 4.27,1.28 4.98,2.22 5.09,3.77 5.20,5.31 4.33,6.54 3.46,7.77 4.79,8.11 6.12,8.44 8.74,9.50 11.36,10.56 11.56,10.63 11.76,10.71 11.92,10.84 12.09,10.98 12.20,11.16 12.31,11.34 12.36,11.54 12.41,11.75 12.39,11.96 12.37,12.17 12.29,12.37 12.20,12.56 12.06,12.72 11.92,12.88 11.73,12.98 11.55,13.08 11.34,13.12 11.13,13.16 10.92,13.13 10.71,13.10 10.52,13.00 10.33,12.91 10.18,12.75 10.03,12.60 9.94,12.41 9.84,12.22 9.82,12.01 9.79,11.80 9.83,11.59 9.87,11.38 9.98,11.20 10.09,11.01 10.25,10.87 10.40,10.73 10.60,10.65 10.80,10.57 11.01,10.55 11.22,10.54 11.43,10.59 11.63,10.64 11.81,10.76 11.99,10.88 12.12,11.04 12.25,11.21 12.32,11.41 12.39,11.61 12.40,11.82 12.40,12.03 12.34,12.24 12.27,12.44 12.15,12.61 12.02,12.78 11.85,12.90 11.68,13.03 11.47,13.09 11.27,13.15 11.06,13.14 10.84,13.13 10.84,13.13 10.84,13.13 7.64,12.75 4.45,12.37 2.76,11.71 1.07,11.05 -0.02,9.89 -1.12,8.72 -1.06,7.28 -1.00,5.84 -0.30,4.69 0.40,3.55 -0.31,2.29 -1.02,1.04 -1.13,0.90 -1.24,0.77 -1.32,0.61 -1.39,0.45 -1.43,0.27 -1.46,0.10 -1.45,-0.07 -1.44,-0.25 -1.39,-0.41 -1.34,-0.58 -1.25,-0.74 -1.16,-0.89 -1.04,-1.02 -0.91,-1.14 -0.76,-1.23 -0.61,-1.33 -0.44,-1.38 -0.27,-1.44 -0.10,-1.45 0.07,-1.46 0.24,-1.43 0.42,-1.40 0.58,-1.33 0.74,-1.26 0.88,-1.15 1.02,-1.04 1.02,-1.04 L 1.02,-1.04 Z"/></g><g transform="translate(129.08901517686394 182.69610289327852) rotate(0 17.256822457516392 -11.936462708579398)" stroke="none"><path fill="#c92a2a" d="M -1.12,-0.91 Q -1.12,-0.91 -0.20,-2.53 0.72,-4.14 1.45,-5.99 2.17,-7.83 2.80,-10.16 3.43,-12.49 4.00,-14.74 4.58,-16.98 5.06,-18.68 5.55,-20.38 5.86,-21.48 6.17,-22.59 6.62,-23.43 7.07,-24.27 7.20,-24.50 7.32,-24.72 7.49,-24.91 7.66,-25.11 7.88,-25.25 8.09,-25.39 8.33,-25.48 8.58,-25.57 8.83,-25.60 9.09,-25.63 9.35,-25.60 9.60,-25.56 9.84,-25.47 10.08,-25.38 10.29,-25.23 10.50,-25.08 10.67,-24.88 10.84,-24.69 10.96,-24.46 11.08,-24.23 11.14,-23.98 11.20,-23.73 11.19,-23.47 11.19,-23.21 11.13,-22.96 11.06,-22.71 11.97,-21.97 12.87,-21.22 13.63,-19.40 14.39,-17.58 15.11,-15.72 15.83,-13.87 16.51,-12.61 17.18,-11.35 18.14,-10.25 19.10,-9.16 18.15,-9.97 17.20,-10.77 17.24,-12.55 17.27,-14.33 17.45,-16.29 17.62,-18.24 17.91,-19.61 18.20,-20.98 19.35,-22.21 20.50,-23.45 22.65,-22.20 24.80,-20.94 25.90,-18.92 27.00,-16.90 28.44,-14.45 29.88,-11.99 31.22,-9.37 32.56,-6.74 33.76,-4.77 34.96,-2.80 35.06,-2.61 35.16,-2.42 35.19,-2.21 35.22,-2.00 35.18,-1.79 35.14,-1.58 35.03,-1.39 34.93,-1.21 34.77,-1.07 34.62,-0.92 34.42,-0.84 34.23,-0.75 34.01,-0.74 33.80,-0.72 33.60,-0.77 33.39,-0.82 33.21,-0.93 33.03,-1.04 32.90,-1.21 32.76,-1.37 32.69,-1.57 32.61,-1.77 32.61,-1.98 32.60,-2.20 32.66,-2.40 32.72,-2.60 32.85,-2.78 32.97,-2.95 33.14,-3.07 33.31,-3.20 33.51,-3.26 33.72,-3.33 33.93,-3.32 34.14,-3.32 34.34,-3.25 34.54,-3.17 34.71,-3.04 34.87,-2.91 34.99,-2.73 35.11,-2.55 35.16,-2.35 35.21,-2.14 35.19,-1.93 35.18,-1.72 35.10,-1.52 35.01,-1.33 34.87,-1.17 34.73,-1.01 34.55,-0.90 34.36,-0.80 34.15,-0.75 33.94,-0.71 33.73,-0.74 33.52,-0.77 33.33,-0.86 33.14,-0.96 32.99,-1.10 32.84,-1.25 32.84,-1.25 32.84,-1.25 31.29,-3.07 29.74,-4.88 27.80,-7.25 25.85,-9.61 24.33,-12.15 22.81,-14.69 21.90,-16.50 20.99,-18.31 21.74,-19.18 22.50,-20.04 22.27,-18.94 22.03,-17.83 21.86,-16.03 21.69,-14.23 21.64,-12.31 21.60,-10.40 20.83,-8.21 20.07,-6.03 18.31,-5.90 16.55,-5.77 15.75,-6.48 14.94,-7.19 14.16,-8.26 13.38,-9.33 12.60,-10.81 11.83,-12.29 11.11,-14.10 10.39,-15.91 9.33,-18.58 8.26,-21.25 7.67,-22.76 7.07,-24.27 7.20,-24.50 7.32,-24.72 7.49,-24.91 7.66,-25.11 7.88,-25.25 8.09,-25.39 8.33,-25.48 8.58,-25.57 8.83,-25.60 9.09,-25.63 9.35,-25.60 9.60,-25.56 9.84,-25.47 10.08,-25.38 10.29,-25.23 10.50,-25.08 10.67,-24.88 10.84,-24.69 10.96,-24.46 11.08,-24.23 11.14,-23.98 11.20,-23.73 11.19,-23.47 11.19,-23.21 11.13,-22.96 11.06,-22.71 10.68,-22.05 10.30,-21.39 9.98,-20.30 9.66,-19.22 9.20,-17.57 8.73,-15.93 8.15,-13.63 7.56,-11.34 6.82,-8.74 6.07,-6.14 5.00,-3.86 3.94,-1.58 2.53,-0.33 1.12,0.91 0.99,1.03 0.87,1.15 0.72,1.24 0.57,1.33 0.40,1.38 0.23,1.43 0.06,1.43 -0.11,1.44 -0.28,1.41 -0.45,1.37 -0.61,1.30 -0.77,1.22 -0.90,1.11 -1.04,1.00 -1.14,0.86 -1.25,0.72 -1.32,0.56 -1.39,0.40 -1.42,0.23 -1.44,0.06 -1.43,-0.11 -1.42,-0.28 -1.36,-0.45 -1.31,-0.61 -1.21,-0.76 -1.12,-0.91 -1.12,-0.91 L -1.12,-0.91 Z"/></g></svg>