<svg version="1.1" xmlns="http://www.w3.org/2000/svg" viewBox="0 0 486.53273010253906 361.1329040527344" width="486.53273010253906" height="361.1329040527344" filter="invert(93%) hue-rotate(180deg)">
  <!-- svg-source:excalidraw -->
  
  <defs>
    <style class="style-fonts">
      @font-face {
        font-family: "Virgil";
        src: url("https://excalidraw.com/Virgil.woff2");
      }
      @font-face {
        font-family: "Cascadia";
        src: url("https://excalidraw.com/Cascadia.woff2");
      }
    </style>
  </defs>
  <rect x="0" y="0" width="486.53273010253906" height="361.1329040527344" fill="transparent"/><g stroke-linecap="round" transform="translate(78.52159118652344 40.83056640625) rotate(0 40.25215148925781 40.25215148925781)"><path d="M9.85 13.87 C9.85 13.87, 9.85 13.87, 9.85 13.87 M9.85 13.87 C9.85 13.87, 9.85 13.87, 9.85 13.87 M1.72 29.32 C8.16 21.91, 14.6 14.5, 24.03 3.66 M1.72 29.32 C8.87 21.1, 16.02 12.87, 24.03 3.66 M1.46 35.72 C10.78 25, 20.09 14.28, 30.33 2.51 M1.46 35.72 C10.36 25.48, 19.25 15.25, 30.33 2.51 M1.85 41.36 C14.61 26.69, 27.36 12.02, 35.97 2.12 M1.85 41.36 C12.45 29.18, 23.04 16.99, 35.97 2.12 M2.25 47 C13.88 33.62, 25.52 20.23, 41.61 1.72 M2.25 47 C10.31 37.73, 18.37 28.46, 41.61 1.72 M2.64 52.65 C19.62 33.12, 36.6 13.59, 47.25 1.33 M2.64 52.65 C14.5 39.01, 26.35 25.37, 47.25 1.33 M3.69 57.54 C14.03 45.65, 24.36 33.76, 52.24 1.69 M3.69 57.54 C16.41 42.91, 29.12 28.28, 52.24 1.69 M6.06 60.91 C17.11 48.2, 28.17 35.48, 55.92 3.56 M6.06 60.91 C18.66 46.41, 31.27 31.91, 55.92 3.56 M8.42 64.29 C25.55 44.59, 42.67 24.89, 59.59 5.43 M8.42 64.29 C23.05 47.47, 37.68 30.64, 59.59 5.43 M10.78 67.67 C28.12 47.72, 45.46 27.77, 63.27 7.3 M10.78 67.67 C31.41 43.94, 52.04 20.21, 63.27 7.3 M13.8 70.3 C29.12 52.67, 44.45 35.04, 66.29 9.92 M13.8 70.3 C28.91 52.92, 44.02 35.54, 66.29 9.92 M16.82 72.92 C35.71 51.19, 54.6 29.46, 69.3 12.54 M16.82 72.92 C35.83 51.05, 54.85 29.17, 69.3 12.54 M19.84 75.55 C40.07 52.27, 60.31 28.99, 72.32 15.17 M19.84 75.55 C39.97 52.38, 60.11 29.22, 72.32 15.17 M23.51 77.42 C38.04 60.7, 52.57 43.99, 74.69 18.55 M23.51 77.42 C38.42 60.27, 53.32 43.12, 74.69 18.55 M27.84 78.53 C41.77 62.51, 55.7 46.49, 76.39 22.68 M27.84 78.53 C42.1 62.13, 56.36 45.73, 76.39 22.68 M30.86 81.15 C45.25 64.6, 59.64 48.05, 79.41 25.31 M30.86 81.15 C43.74 66.34, 56.62 51.53, 79.41 25.31 M35.85 81.51 C50.91 64.19, 65.96 46.87, 80.46 30.19 M35.85 81.51 C46.7 69.03, 57.55 56.55, 80.46 30.19 M41.49 81.12 C53.76 67.01, 66.02 52.9, 80.86 35.84 M41.49 81.12 C50.32 70.96, 59.15 60.81, 80.86 35.84 M47.14 80.73 C55.64 70.94, 64.15 61.15, 81.25 41.48 M47.14 80.73 C56.07 70.44, 65.01 60.16, 81.25 41.48 M52.78 80.33 C60.4 71.56, 68.03 62.79, 81.65 47.12 M52.78 80.33 C60.37 71.59, 67.97 62.86, 81.65 47.12 M63.01 74.65 C65.97 71.25, 68.92 67.85, 77.45 58.05 M63.01 74.65 C67.12 69.93, 71.23 65.2, 77.45 58.05" stroke="#4c6ef5" stroke-width="0.5" fill="none"/><path d="M80.5 40.25 C80.5 42.16, 80.37 44.09, 80.09 45.98 C79.82 47.87, 79.41 49.76, 78.87 51.59 C78.34 53.42, 77.66 55.24, 76.87 56.97 C76.07 58.71, 75.15 60.41, 74.11 62.01 C73.08 63.62, 71.92 65.17, 70.67 66.61 C69.42 68.05, 68.05 69.42, 66.61 70.67 C65.17 71.92, 63.62 73.08, 62.01 74.11 C60.41 75.15, 58.71 76.07, 56.97 76.87 C55.24 77.66, 53.42 78.34, 51.59 78.87 C49.76 79.41, 47.87 79.82, 45.98 80.09 C44.09 80.37, 42.16 80.5, 40.25 80.5 C38.34 80.5, 36.41 80.37, 34.52 80.09 C32.63 79.82, 30.74 79.41, 28.91 78.87 C27.08 78.34, 25.27 77.66, 23.53 76.87 C21.79 76.07, 20.1 75.15, 18.49 74.11 C16.88 73.08, 15.34 71.92, 13.89 70.67 C12.45 69.42, 11.08 68.05, 9.83 66.61 C8.58 65.17, 7.42 63.62, 6.39 62.01 C5.36 60.41, 4.43 58.71, 3.64 56.97 C2.84 55.24, 2.17 53.42, 1.63 51.59 C1.09 49.76, 0.68 47.87, 0.41 45.98 C0.14 44.09, 0 42.16, 0 40.25 C0 38.34, 0.14 36.41, 0.41 34.52 C0.68 32.63, 1.09 30.74, 1.63 28.91 C2.17 27.08, 2.84 25.27, 3.64 23.53 C4.43 21.79, 5.36 20.1, 6.39 18.49 C7.42 16.88, 8.58 15.34, 9.83 13.89 C11.08 12.45, 12.45 11.08, 13.89 9.83 C15.34 8.58, 16.88 7.42, 18.49 6.39 C20.1 5.36, 21.79 4.43, 23.53 3.64 C25.27 2.84, 27.08 2.17, 28.91 1.63 C30.74 1.09, 32.63 0.68, 34.52 0.41 C36.41 0.14, 38.34 0, 40.25 0 C42.16 0, 44.09 0.14, 45.98 0.41 C47.87 0.68, 49.76 1.09, 51.59 1.63 C53.42 2.17, 55.24 2.84, 56.97 3.64 C58.71 4.43, 60.41 5.36, 62.01 6.39 C63.62 7.42, 65.17 8.58, 66.61 9.83 C68.05 11.08, 69.42 12.45, 70.67 13.89 C71.92 15.34, 73.08 16.88, 74.11 18.49 C75.15 20.1, 76.07 21.79, 76.87 23.53 C77.66 25.27, 78.34 27.08, 78.87 28.91 C79.41 30.74, 79.82 32.63, 80.09 34.52 C80.37 36.41, 80.44 39.3, 80.5 40.25 C80.57 41.21, 80.57 39.3, 80.5 40.25" stroke="#000000" stroke-width="1" fill="none"/></g><g stroke-linecap="round"><g transform="translate(117.27723693847656 80.18429565429688) rotate(0 110.47354125976562 0)"><path d="M0 0 C65 0, 129.99 0, 220.95 0 M0 0 C80.54 0, 161.09 0, 220.95 0" stroke="#000000" stroke-width="1" fill="none"/></g></g><mask/><g stroke-linecap="round"><g transform="translate(337.4918975830078 80.91677856445312) rotate(0 0 88.26304626464844)"><path d="M0 0 C0 65.72, 0 131.44, 0 176.53 M0 0 C0 45.61, 0 91.23, 0 176.53" stroke="#000000" stroke-width="1" fill="none"/></g></g><mask/><g stroke-linecap="round"><g transform="translate(80.65245056152344 59.675018310546875) rotate(0 -35.32622528076172 58.73106384277344)"><path d="M0 0 C-22.32 37.12, -44.65 74.23, -70.65 117.46 M0 0 C-25.36 42.16, -50.72 84.33, -70.65 117.46" stroke="#c92a2a" stroke-width="1" fill="none"/></g><g transform="translate(80.65245056152344 59.675018310546875) rotate(0 -35.32622528076172 58.73106384277344)"><path d="M-70.65 117.46 L-69.08 102.55 L-58.21 109.08 L-70.65 117.46" stroke="none" stroke-width="0" fill="#c92a2a" fill-rule="evenodd"/><path d="M-70.65 117.46 C-70.15 112.75, -69.66 108.04, -69.08 102.55 M-70.65 117.46 C-70.09 112.11, -69.52 106.75, -69.08 102.55 M-69.08 102.55 C-66.3 104.22, -63.51 105.89, -58.21 109.08 M-69.08 102.55 C-66.28 104.23, -63.49 105.91, -58.21 109.08 M-58.21 109.08 C-63.07 112.36, -67.94 115.63, -70.65 117.46 M-58.21 109.08 C-61.63 111.38, -65.04 113.68, -70.65 117.46 M-70.65 117.46 C-70.65 117.46, -70.65 117.46, -70.65 117.46 M-70.65 117.46 C-70.65 117.46, -70.65 117.46, -70.65 117.46" stroke="#c92a2a" stroke-width="1" fill="none"/></g></g><mask/><g stroke-linecap="round"><g transform="translate(260.64649963378906 115.01007080078125) rotate(0 0 52.571624755859375)"><path d="M0 0 C0 31.79, 0 63.58, 0 105.14 M0 0 C0 23.03, 0 46.06, 0 105.14" stroke="#c92a2a" stroke-width="1" fill="none"/></g><g transform="translate(260.64649963378906 115.01007080078125) rotate(0 0 52.571624755859375)"><path d="M0 105.14 L-6.34 91.55 L6.34 91.55 L0 105.14" stroke="none" stroke-width="0" fill="#c92a2a" fill-rule="evenodd"/><path d="M0 105.14 C-1.92 101.03, -3.83 96.92, -6.34 91.55 M0 105.14 C-1.39 102.17, -2.78 99.19, -6.34 91.55 M-6.34 91.55 C-2.61 91.55, 1.12 91.55, 6.34 91.55 M-6.34 91.55 C-1.73 91.55, 2.89 91.55, 6.34 91.55 M6.34 91.55 C4.11 96.32, 1.89 101.1, 0 105.14 M6.34 91.55 C4.76 94.93, 3.18 98.32, 0 105.14 M0 105.14 C0 105.14, 0 105.14, 0 105.14 M0 105.14 C0 105.14, 0 105.14, 0 105.14" stroke="#c92a2a" stroke-width="1" fill="none"/></g></g><mask/><g stroke-linecap="round"><g transform="translate(348.3461456298828 259.24072265625) rotate(0 44.482421875 0)"><path d="M0 0 C31.37 0, 62.74 0, 88.96 0 M0 0 C33.81 0, 67.61 0, 88.96 0" stroke="#c92a2a" stroke-width="1" fill="none"/></g><g transform="translate(348.3461456298828 259.24072265625) rotate(0 44.482421875 0)"><path d="M88.96 0 L75.37 6.34 L75.37 -6.34 L88.96 0" stroke="none" stroke-width="0" fill="#c92a2a" fill-rule="evenodd"/><path d="M88.96 0 C84.17 2.24, 79.38 4.47, 75.37 6.34 M88.96 0 C83.8 2.41, 78.63 4.82, 75.37 6.34 M75.37 6.34 C75.37 1.93, 75.37 -2.47, 75.37 -6.34 M75.37 6.34 C75.37 2.28, 75.37 -1.78, 75.37 -6.34 M75.37 -6.34 C79.36 -4.48, 83.35 -2.62, 88.96 0 M75.37 -6.34 C78.15 -5.04, 80.94 -3.74, 88.96 0 M88.96 0 C88.96 0, 88.96 0, 88.96 0 M88.96 0 C88.96 0, 88.96 0, 88.96 0" stroke="#c92a2a" stroke-width="1" fill="none"/></g></g><mask/><g stroke-linecap="round"><g transform="translate(338.02455139160156 350.6001281738281) rotate(0 0 -44.04827880859375)"><path d="M0 0 C0 -27.15, 0 -54.31, 0 -88.1 M0 0 C0 -24.47, 0 -48.93, 0 -88.1" stroke="#c92a2a" stroke-width="1" fill="none"/></g><g transform="translate(338.02455139160156 350.6001281738281) rotate(0 0 -44.04827880859375)"><path d="M0 -88.1 L6.34 -74.5 L-6.34 -74.5 L0 -88.1" stroke="none" stroke-width="0" fill="#c92a2a" fill-rule="evenodd"/><path d="M0 -88.1 C1.95 -83.91, 3.91 -79.72, 6.34 -74.5 M0 -88.1 C1.76 -84.32, 3.52 -80.55, 6.34 -74.5 M6.34 -74.5 C1.68 -74.5, -2.99 -74.5, -6.34 -74.5 M6.34 -74.5 C3.79 -74.5, 1.24 -74.5, -6.34 -74.5 M-6.34 -74.5 C-5.05 -77.26, -3.77 -80.02, 0 -88.1 M-6.34 -74.5 C-3.81 -79.93, -1.28 -85.35, 0 -88.1 M0 -88.1 C0 -88.1, 0 -88.1, 0 -88.1 M0 -88.1 C0 -88.1, 0 -88.1, 0 -88.1" stroke="#c92a2a" stroke-width="1" fill="none"/></g></g><mask/><g transform="translate(354.9385528564453 319.2369689941406) rotate(0 -0.033294677734375 9.78851318359375)" stroke="none"><path fill="#c92a2a" d="M 0.74,0 Q 0.74,0 0.87,2.73 0.99,5.47 0.97,8.13 0.95,10.79 0.84,12.91 0.73,15.04 0.66,16.89 0.59,18.75 0.57,18.86 0.55,18.96 0.50,19.06 0.45,19.15 0.37,19.22 0.30,19.30 0.20,19.34 0.10,19.39 0.00,19.40 -0.10,19.41 -0.20,19.38 -0.30,19.36 -0.40,19.31 -0.49,19.25 -0.55,19.17 -0.62,19.09 -0.66,18.99 -0.70,18.89 -0.71,18.79 -0.71,18.68 -0.68,18.58 -0.65,18.47 -0.59,18.39 -0.53,18.30 -0.45,18.24 -0.37,18.17 -0.26,18.14 -0.16,18.10 -0.06,18.10 0.04,18.10 0.14,18.14 0.24,18.17 0.32,18.24 0.41,18.30 0.47,18.39 0.53,18.48 0.56,18.58 0.58,18.68 0.58,18.79 0.57,18.90 0.53,18.99 0.49,19.09 0.42,19.17 0.35,19.25 0.26,19.31 0.17,19.36 0.07,19.39 -0.03,19.41 -0.13,19.40 -0.24,19.38 -0.33,19.34 -0.43,19.29 -0.51,19.22 -0.58,19.15 -0.63,19.05 -0.68,18.96 -0.70,18.86 -0.72,18.75 -0.72,18.75 -0.72,18.75 -0.78,16.89 -0.84,15.03 -0.93,12.90 -1.03,10.78 -1.01,8.12 -0.99,5.47 -0.87,2.73 -0.74,0 -0.73,-0.08 -0.72,-0.17 -0.69,-0.26 -0.66,-0.34 -0.60,-0.42 -0.55,-0.49 -0.49,-0.55 -0.42,-0.61 -0.34,-0.65 -0.26,-0.69 -0.17,-0.71 -0.08,-0.74 0.00,-0.74 0.08,-0.74 0.17,-0.71 0.26,-0.69 0.34,-0.65 0.42,-0.61 0.49,-0.55 0.55,-0.49 0.60,-0.42 0.66,-0.34 0.69,-0.26 0.72,-0.17 0.73,-0.08 0.74,0.00 0.74,0.00 L 0.74,0 Z"/></g><g transform="translate(353.40699768066406 320.6353454589844) rotate(0 5.859954833984375 10.8538818359375)" stroke="none"><path fill="#c92a2a" d="M 0.02,-0.74 Q 0.02,-0.74 1.14,-0.95 2.26,-1.15 3.54,-0.94 4.83,-0.74 6.01,-0.45 7.20,-0.16 8.21,0.30 9.22,0.76 10.03,1.36 10.85,1.95 11.32,2.89 11.80,3.84 11.60,4.90 11.40,5.96 10.40,6.77 9.41,7.59 8.12,8.10 6.83,8.60 5.82,8.95 4.81,9.29 6.15,11.10 7.49,12.91 8.52,14.62 9.56,16.34 10.87,18.87 12.18,21.40 12.23,21.49 12.27,21.58 12.29,21.69 12.31,21.79 12.29,21.90 12.27,22.00 12.22,22.10 12.17,22.19 12.09,22.26 12.01,22.33 11.91,22.38 11.82,22.42 11.71,22.43 11.60,22.44 11.50,22.42 11.40,22.39 11.31,22.34 11.22,22.28 11.15,22.20 11.08,22.12 11.04,22.02 11.01,21.92 11.00,21.81 11.00,21.70 11.03,21.60 11.06,21.50 11.12,21.41 11.18,21.33 11.26,21.26 11.35,21.20 11.45,21.17 11.55,21.14 11.66,21.14 11.77,21.14 11.87,21.17 11.97,21.21 12.05,21.28 12.13,21.34 12.19,21.43 12.25,21.52 12.28,21.62 12.30,21.72 12.30,21.83 12.29,21.94 12.25,22.03 12.21,22.13 12.14,22.21 12.07,22.29 11.98,22.35 11.88,22.40 11.78,22.42 11.68,22.44 11.57,22.43 11.46,22.42 11.37,22.37 11.27,22.32 11.20,22.25 11.12,22.17 11.12,22.17 11.12,22.17 9.25,19.92 7.38,17.66 6.37,15.99 5.35,14.32 4.40,12.87 3.44,11.43 2.69,10.18 1.95,8.93 2.10,8.41 2.25,7.88 3.11,7.38 3.98,6.87 4.95,6.54 5.92,6.20 6.95,5.83 7.99,5.46 8.59,5.20 9.18,4.94 9.21,4.41 9.23,3.87 8.68,3.45 8.12,3.03 7.36,2.65 6.59,2.26 5.50,1.99 4.40,1.72 3.29,1.51 2.17,1.31 1.07,1.02 -0.02,0.74 -0.11,0.73 -0.20,0.71 -0.28,0.68 -0.37,0.64 -0.44,0.59 -0.51,0.54 -0.57,0.47 -0.62,0.40 -0.66,0.32 -0.70,0.24 -0.72,0.15 -0.74,0.06 -0.74,-0.02 -0.73,-0.11 -0.71,-0.20 -0.68,-0.28 -0.64,-0.36 -0.60,-0.44 -0.53,-0.51 -0.47,-0.57 -0.40,-0.62 -0.32,-0.67 -0.23,-0.70 -0.15,-0.73 -0.06,-0.73 0.02,-0.74 0.02,-0.74 L 0.02,-0.74 Z"/></g><g transform="translate(371.45301818847656 345.2730407714844) rotate(0 2.130889892578125 -0.432769775390625)" stroke="none"><path d="M1.82 -6.37 C1.82 -6.37, 1.82 -6.37, 1.82 -6.37 M1.82 -6.37 C1.82 -6.37, 1.82 -6.37, 1.82 -6.37 M1.36 -2.79 C1.86 -3.37, 2.36 -3.94, 2.67 -4.3 M1.36 -2.79 C1.7 -3.18, 2.04 -3.57, 2.67 -4.3 M0.9 0.78 C1.57 0.02, 2.23 -0.74, 2.87 -1.48 M0.9 0.78 C1.58 0, 2.26 -0.78, 2.87 -1.48 M2.41 2.1 C2.58 1.9, 2.76 1.7, 3.07 1.34 M2.41 2.1 C2.62 1.85, 2.84 1.61, 3.07 1.34 M3.27 4.16 C3.55 3.84, 3.83 3.52, 4.58 2.65 M3.27 4.16 C3.72 3.64, 4.17 3.12, 4.58 2.65" stroke="#4c6ef5" stroke-width="0.25" fill="none"/><path fill="#c92a2a" d="M -0.71,-0.20 Q -0.71,-0.20 -0.47,-1.86 -0.24,-3.51 0.11,-4.56 0.47,-5.61 0.67,-6.03 0.88,-6.44 0.94,-6.58 1.01,-6.72 1.11,-6.83 1.20,-6.95 1.32,-7.04 1.44,-7.13 1.58,-7.18 1.72,-7.24 1.87,-7.27 2.02,-7.29 2.17,-7.28 2.32,-7.26 2.46,-7.21 2.60,-7.16 2.73,-7.08 2.86,-7.00 2.96,-6.89 3.06,-6.78 3.14,-6.65 3.21,-6.52 3.25,-6.38 3.29,-6.23 3.30,-6.08 3.30,-5.93 3.27,-5.78 3.24,-5.64 3.46,-4.58 3.67,-3.52 3.81,-2.11 3.96,-0.70 4.05,0.74 4.15,2.19 4.31,3.22 4.46,4.25 4.47,4.33 4.47,4.41 4.46,4.49 4.44,4.57 4.41,4.64 4.37,4.71 4.32,4.78 4.28,4.84 4.21,4.89 4.15,4.93 4.08,4.97 4.00,5.00 3.93,5.01 3.85,5.02 3.77,5.02 3.69,5.01 3.61,4.99 3.54,4.97 3.47,4.92 3.40,4.88 3.35,4.83 3.29,4.77 3.25,4.70 3.21,4.63 3.19,4.56 3.17,4.48 2.14,3.38 1.12,2.29 1.07,2.19 1.01,2.10 0.99,2.00 0.96,1.90 0.97,1.79 0.98,1.69 1.03,1.59 1.07,1.49 1.14,1.41 1.21,1.34 1.31,1.28 1.40,1.23 1.50,1.22 1.61,1.20 1.71,1.21 1.82,1.23 1.91,1.28 2.01,1.33 2.08,1.40 2.16,1.48 2.20,1.57 2.25,1.67 2.26,1.77 2.27,1.88 2.25,1.98 2.23,2.09 2.18,2.18 2.12,2.27 2.04,2.34 1.96,2.41 1.87,2.45 1.77,2.49 1.66,2.50 1.56,2.51 1.45,2.48 1.35,2.45 1.26,2.39 1.17,2.34 1.11,2.25 1.04,2.17 1.01,2.07 0.97,1.97 0.97,1.86 0.97,1.76 1.00,1.65 1.03,1.55 1.10,1.47 1.16,1.38 1.25,1.32 1.33,1.26 1.44,1.23 1.54,1.20 1.64,1.21 1.75,1.21 1.85,1.25 1.95,1.29 2.03,1.35 2.11,1.42 2.11,1.42 2.11,1.42 3.29,2.84 4.46,4.25 4.47,4.33 4.47,4.41 4.46,4.49 4.44,4.57 4.41,4.64 4.37,4.71 4.32,4.78 4.28,4.84 4.21,4.89 4.15,4.93 4.08,4.97 4.00,5.00 3.93,5.01 3.85,5.02 3.77,5.02 3.69,5.01 3.61,4.99 3.54,4.97 3.47,4.92 3.40,4.88 3.35,4.83 3.29,4.77 3.25,4.70 3.21,4.63 3.19,4.56 3.17,4.48 2.72,3.50 2.28,2.52 1.87,1.03 1.46,-0.44 1.30,-1.88 1.15,-3.32 1.10,-4.19 1.05,-5.06 0.96,-5.75 0.88,-6.44 0.94,-6.58 1.01,-6.72 1.11,-6.83 1.20,-6.95 1.32,-7.04 1.44,-7.13 1.58,-7.18 1.72,-7.24 1.87,-7.27 2.02,-7.29 2.17,-7.28 2.32,-7.26 2.46,-7.21 2.60,-7.16 2.73,-7.08 2.86,-7.00 2.96,-6.89 3.06,-6.78 3.14,-6.65 3.21,-6.52 3.25,-6.38 3.29,-6.23 3.30,-6.08 3.30,-5.93 3.27,-5.79 3.24,-5.64 3.00,-5.23 2.76,-4.82 2.41,-3.83 2.07,-2.84 1.39,-1.31 0.71,0.20 0.68,0.28 0.64,0.37 0.59,0.44 0.53,0.51 0.46,0.57 0.39,0.62 0.31,0.66 0.23,0.70 0.14,0.72 0.06,0.74 -0.02,0.73 -0.11,0.73 -0.20,0.71 -0.29,0.68 -0.36,0.64 -0.44,0.59 -0.51,0.53 -0.57,0.47 -0.62,0.39 -0.67,0.31 -0.70,0.23 -0.73,0.14 -0.73,0.05 -0.74,-0.02 -0.73,-0.11 -0.71,-0.20 -0.71,-0.20 L -0.71,-0.20 Z"/></g><g transform="translate(374.9157257080078 318.4379577636719) rotate(0 -3.262908935546875 1.298492431640625)" stroke="none"><path fill="#c92a2a" d="M -0.73,0.13 Q -0.73,0.13 -1.14,-1.11 -1.54,-2.35 -1.95,-2.94 -2.36,-3.53 -3.39,-2.98 -4.42,-2.42 -5.04,-1.03 -5.66,0.35 -5.99,1.98 -6.32,3.62 -6.15,4.53 -5.98,5.44 -5.40,5.74 -4.82,6.03 -3.93,6.02 -3.05,6.00 -2.06,5.66 -1.08,5.33 -0.73,4.64 -0.38,3.96 -0.75,3.15 -1.12,2.34 -1.19,1.38 -1.27,0.42 -1.30,0.35 -1.33,0.28 -1.35,0.20 -1.37,0.12 -1.36,0.04 -1.36,-0.02 -1.34,-0.10 -1.32,-0.18 -1.28,-0.25 -1.24,-0.31 -1.19,-0.37 -1.13,-0.43 -1.07,-0.47 -1.00,-0.52 -0.92,-0.54 -0.85,-0.57 -0.77,-0.57 -0.69,-0.58 -0.61,-0.57 -0.54,-0.56 -0.46,-0.53 -0.39,-0.50 -0.33,-0.45 -0.26,-0.40 -0.21,-0.34 -0.16,-0.28 -0.36,-0.42 -0.57,-0.56 -0.47,-0.52 -0.37,-0.48 -0.29,-0.41 -0.21,-0.34 -0.15,-0.25 -0.10,-0.16 -0.08,-0.06 -0.06,0.04 -0.07,0.14 -0.08,0.25 -0.13,0.34 -0.17,0.44 -0.25,0.52 -0.32,0.59 -0.42,0.64 -0.51,0.69 -0.62,0.71 -0.72,0.72 -0.82,0.70 -0.93,0.69 -1.02,0.63 -1.12,0.58 -1.19,0.51 -1.26,0.43 -1.30,0.33 -1.35,0.23 -1.36,0.13 -1.37,0.02 -1.34,-0.07 -1.32,-0.17 -1.26,-0.26 -1.21,-0.36 -1.13,-0.42 -1.05,-0.49 -0.95,-0.53 -0.85,-0.57 -0.74,-0.57 -0.63,-0.58 -0.53,-0.55 -0.43,-0.52 -0.34,-0.46 -0.26,-0.40 -0.19,-0.31 -0.13,-0.23 -0.10,-0.12 -0.06,-0.02 -0.07,0.07 -0.07,0.18 -0.10,0.28 -0.14,0.38 -0.20,0.46 -0.27,0.55 -0.36,0.61 -0.44,0.66 -0.55,0.69 -0.65,0.72 -0.96,0.57 -1.27,0.42 -1.30,0.35 -1.33,0.28 -1.35,0.20 -1.37,0.12 -1.36,0.04 -1.36,-0.02 -1.34,-0.10 -1.32,-0.18 -1.28,-0.25 -1.24,-0.31 -1.19,-0.37 -1.13,-0.43 -1.07,-0.47 -1.00,-0.52 -0.92,-0.54 -0.85,-0.57 -0.77,-0.57 -0.69,-0.58 -0.61,-0.57 -0.54,-0.56 -0.46,-0.53 -0.39,-0.50 -0.33,-0.45 -0.26,-0.40 -0.21,-0.34 -0.16,-0.28 0.01,0.60 0.20,1.49 1.09,2.65 1.99,3.81 1.87,5.00 1.76,6.19 0.78,7.05 -0.19,7.90 -1.69,8.33 -3.20,8.75 -4.74,8.54 -6.27,8.32 -7.35,7.35 -8.43,6.38 -8.74,4.75 -9.04,3.12 -8.60,1.12 -8.15,-0.88 -7.13,-2.72 -6.10,-4.57 -4.64,-5.37 -3.18,-6.17 -1.79,-5.58 -0.40,-4.99 0.11,-3.88 0.62,-2.77 0.68,-1.45 0.73,-0.13 0.73,-0.04 0.74,0.04 0.72,0.13 0.71,0.22 0.67,0.30 0.63,0.38 0.58,0.45 0.52,0.52 0.45,0.58 0.38,0.64 0.30,0.67 0.21,0.71 0.13,0.72 0.04,0.74 -0.04,0.73 -0.13,0.73 -0.22,0.70 -0.30,0.67 -0.38,0.63 -0.46,0.58 -0.52,0.52 -0.58,0.45 -0.63,0.38 -0.68,0.30 -0.70,0.21 -0.73,0.13 -0.73,0.13 L -0.73,0.13 Z"/></g><g transform="translate(448.36500549316406 249.58541870117188) rotate(0 -1.464996337890625 14.150054931640625)" stroke="none"><path fill="#c92a2a" d="M 0.75,0.01 Q 0.75,0.01 0.88,2.49 1.02,4.96 0.88,8.04 0.74,11.12 0.37,14.35 0.00,17.58 -0.56,20.28 -1.13,22.97 -1.62,25.20 -2.11,27.42 -2.14,27.52 -2.18,27.62 -2.24,27.71 -2.31,27.79 -2.40,27.85 -2.49,27.91 -2.59,27.94 -2.69,27.96 -2.80,27.96 -2.90,27.95 -3.00,27.91 -3.10,27.87 -3.18,27.80 -3.26,27.73 -3.31,27.64 -3.37,27.55 -3.39,27.45 -3.41,27.34 -3.40,27.24 -3.39,27.13 -3.34,27.03 -3.30,26.94 -3.22,26.86 -3.15,26.78 -3.06,26.74 -2.96,26.69 -2.86,26.67 -2.75,26.65 -2.65,26.67 -2.54,26.69 -2.45,26.74 -2.36,26.79 -2.28,26.87 -2.21,26.94 -2.17,27.04 -2.12,27.14 -2.11,27.24 -2.10,27.35 -2.13,27.45 -2.15,27.56 -2.20,27.65 -2.26,27.74 -2.34,27.81 -2.42,27.87 -2.52,27.91 -2.62,27.95 -2.73,27.96 -2.83,27.96 -2.93,27.93 -3.04,27.90 -3.12,27.84 -3.21,27.78 -3.28,27.70 -3.34,27.61 -3.37,27.51 -3.41,27.41 -3.41,27.31 -3.40,27.20 -3.40,27.20 -3.40,27.20 -3.13,24.96 -2.86,22.71 -2.63,20.01 -2.39,17.31 -2.03,14.15 -1.68,10.98 -1.46,7.95 -1.25,4.91 -1.00,2.44 -0.75,-0.01 -0.73,-0.10 -0.72,-0.19 -0.69,-0.28 -0.65,-0.36 -0.60,-0.43 -0.55,-0.51 -0.48,-0.56 -0.41,-0.62 -0.33,-0.66 -0.24,-0.70 -0.16,-0.72 -0.07,-0.74 0.01,-0.74 0.10,-0.74 0.19,-0.71 0.28,-0.69 0.36,-0.65 0.44,-0.60 0.50,-0.54 0.57,-0.48 0.62,-0.40 0.67,-0.33 0.70,-0.24 0.73,-0.16 0.74,-0.07 0.75,0.01 0.75,0.01 L 0.75,0.01 Z"/></g><g transform="translate(449.82997131347656 249.71856689453125) rotate(0 6.2261962890625 12.185714721679688)" stroke="none"><path fill="#c92a2a" d="M -0.18,-0.73 Q -0.18,-0.73 1.29,-1.39 2.76,-2.05 4.84,-1.38 6.92,-0.71 8.68,0.93 10.44,2.57 11.43,4.19 12.42,5.81 12.61,7.60 12.79,9.40 11.79,10.62 10.79,11.84 8.92,12.37 7.04,12.90 5.48,12.93 3.93,12.95 3.70,12.37 3.47,11.80 4.14,12.94 4.81,14.07 5.99,15.72 7.18,17.36 8.33,19.07 9.47,20.78 10.75,22.73 12.04,24.68 12.09,24.78 12.14,24.87 12.17,24.97 12.19,25.08 12.17,25.18 12.16,25.29 12.11,25.38 12.07,25.48 11.99,25.55 11.92,25.63 11.82,25.68 11.73,25.73 11.62,25.74 11.52,25.76 11.41,25.74 11.31,25.72 11.21,25.66 11.12,25.61 11.05,25.53 10.98,25.46 10.94,25.36 10.89,25.26 10.88,25.16 10.87,25.05 10.90,24.95 10.92,24.84 10.98,24.75 11.04,24.66 11.12,24.60 11.20,24.53 11.30,24.49 11.40,24.45 11.51,24.45 11.61,24.45 11.72,24.48 11.82,24.51 11.90,24.57 11.99,24.63 12.05,24.72 12.12,24.80 12.15,24.90 12.18,25.01 12.18,25.11 12.18,25.22 12.14,25.32 12.10,25.42 12.04,25.50 11.97,25.58 11.88,25.64 11.79,25.70 11.69,25.73 11.59,25.75 11.48,25.74 11.38,25.74 11.28,25.70 11.18,25.65 11.10,25.58 11.02,25.51 11.02,25.51 11.02,25.51 9.35,23.84 7.68,22.17 6.28,20.59 4.89,19.02 3.62,17.26 2.35,15.50 1.55,13.90 0.74,12.30 0.84,11.76 0.93,11.22 2.43,10.65 3.92,10.07 5.16,10.08 6.40,10.10 7.68,9.89 8.95,9.68 9.60,9.25 10.25,8.83 10.09,8.00 9.93,7.18 9.19,5.87 8.45,4.57 7.15,3.21 5.84,1.85 4.49,1.23 3.13,0.60 1.65,0.67 0.18,0.73 0.09,0.74 0.00,0.75 -0.09,0.74 -0.18,0.73 -0.26,0.70 -0.35,0.67 -0.42,0.62 -0.50,0.56 -0.56,0.50 -0.62,0.43 -0.66,0.35 -0.71,0.26 -0.73,0.18 -0.75,0.09 -0.75,0.00 -0.75,-0.09 -0.73,-0.18 -0.71,-0.26 -0.66,-0.35 -0.62,-0.43 -0.56,-0.50 -0.50,-0.56 -0.42,-0.62 -0.35,-0.67 -0.26,-0.70 -0.18,-0.73 -0.18,-0.73 L -0.18,-0.73 Z"/></g><g transform="translate(465.54530334472656 279.3504638671875) rotate(0 5.49371337890625 5.2937774658203125)" stroke="none"><path fill="#c92a2a" d="M 0.73,-0.62 Q 0.73,-0.62 1.65,0.17 2.57,0.98 3.21,2.00 3.86,3.01 4.07,4.21 4.28,5.41 3.75,6.43 3.21,7.44 2.61,7.84 2.01,8.23 1.89,7.37 1.77,6.51 2.64,6.95 3.51,7.39 4.84,7.96 6.17,8.53 8.15,9.15 10.13,9.78 10.23,9.82 10.33,9.85 10.42,9.91 10.50,9.98 10.56,10.06 10.62,10.15 10.65,10.25 10.68,10.36 10.68,10.46 10.67,10.57 10.63,10.67 10.59,10.77 10.52,10.85 10.46,10.93 10.37,10.98 10.27,11.04 10.17,11.06 10.07,11.09 9.96,11.08 9.86,11.06 9.76,11.02 9.66,10.98 9.59,10.90 9.51,10.83 9.46,10.74 9.41,10.64 9.39,10.54 9.37,10.43 9.39,10.33 9.41,10.22 9.46,10.13 9.50,10.04 9.58,9.96 9.66,9.89 9.75,9.84 9.85,9.80 9.96,9.79 10.06,9.77 10.17,9.80 10.27,9.82 10.36,9.87 10.45,9.93 10.52,10.01 10.59,10.09 10.63,10.19 10.67,10.29 10.68,10.39 10.68,10.50 10.65,10.60 10.63,10.70 10.57,10.79 10.51,10.88 10.42,10.94 10.34,11.01 10.24,11.04 10.14,11.08 10.03,11.08 9.93,11.08 9.93,11.08 9.93,11.08 7.58,11.02 5.23,10.96 3.66,10.38 2.09,9.81 1.16,9.19 0.23,8.57 0.61,7.17 0.98,5.76 1.22,5.06 1.45,4.36 1.00,3.52 0.56,2.69 -0.08,1.65 -0.73,0.62 -0.79,0.52 -0.86,0.43 -0.90,0.32 -0.93,0.21 -0.95,0.09 -0.96,-0.01 -0.94,-0.13 -0.93,-0.24 -0.88,-0.35 -0.84,-0.46 -0.77,-0.55 -0.70,-0.65 -0.62,-0.72 -0.53,-0.80 -0.42,-0.85 -0.32,-0.90 -0.21,-0.93 -0.09,-0.95 0.01,-0.95 0.13,-0.95 0.24,-0.92 0.35,-0.89 0.45,-0.83 0.56,-0.78 0.64,-0.70 0.73,-0.62 0.73,-0.62 L 0.73,-0.62 Z"/></g><g transform="translate(470.9391632080078 243.52584838867188) rotate(0 -1.19866943359375 4.261688232421875)" stroke="none"><path d="M-3.96 0.53 C-3.96 0.53, -3.96 0.53, -3.96 0.53 M-3.96 0.53 C-3.96 0.53, -3.96 0.53, -3.96 0.53 M-4.42 4.11 C-3.58 3.15, -2.75 2.18, -1.14 0.34 M-4.42 4.11 C-3.71 3.29, -3 2.48, -1.14 0.34 M-4.22 6.93 C-2.78 5.27, -1.33 3.61, 1.03 0.89 M-4.22 6.93 C-2.19 4.59, -0.16 2.25, 1.03 0.89 M-2.71 8.24 C-1.28 6.59, 0.15 4.95, 1.22 3.71 M-2.71 8.24 C-1.9 7.31, -1.09 6.37, 1.22 3.71 M-1.2 9.55 C-0.16 8.35, 0.89 7.15, 2.08 5.78 M-1.2 9.55 C-0.49 8.73, 0.23 7.91, 2.08 5.78" stroke="#4c6ef5" stroke-width="0.25" fill="none"/><path fill="#c92a2a" d="M 0.06,0.84 Q 0.06,0.84 -0.81,1.01 -1.69,1.19 -2.08,2.07 -2.46,2.95 -2.51,3.95 -2.55,4.96 -2.08,5.57 -1.60,6.18 -0.96,6.34 -0.32,6.51 0.11,6.06 0.55,5.60 0.17,3.67 -0.20,1.73 -0.21,1.62 -0.22,1.52 -0.20,1.41 -0.18,1.31 -0.12,1.22 -0.07,1.13 0.01,1.06 0.09,0.99 0.19,0.95 0.28,0.91 0.39,0.91 0.50,0.90 0.60,0.93 0.70,0.96 0.79,1.02 0.88,1.08 0.94,1.16 1.00,1.25 1.04,1.35 1.07,1.45 1.07,1.56 1.07,1.66 1.04,1.76 1.00,1.86 0.94,1.95 0.87,2.03 0.79,2.09 0.70,2.15 0.59,2.18 0.49,2.21 0.39,2.20 0.28,2.19 0.18,2.16 0.08,2.12 0.00,2.05 -0.07,1.98 -0.12,1.89 -0.18,1.80 -0.20,1.69 -0.22,1.59 -0.21,1.48 -0.20,1.38 -0.15,1.28 -0.11,1.18 -0.04,1.11 0.03,1.03 0.12,0.98 0.22,0.93 0.32,0.91 0.43,0.90 0.53,0.91 0.63,0.93 0.73,0.98 0.82,1.03 0.90,1.11 0.97,1.19 1.01,1.28 1.06,1.38 1.06,1.38 1.06,1.38 1.77,2.88 2.48,4.37 2.70,5.46 2.93,6.56 2.31,7.43 1.70,8.30 0.50,8.70 -0.68,9.10 -2.17,8.48 -3.66,7.86 -4.41,6.44 -5.16,5.02 -4.94,3.31 -4.71,1.61 -3.65,0.36 -2.59,-0.88 -1.32,-0.86 -0.06,-0.84 0.04,-0.83 0.14,-0.83 0.24,-0.80 0.33,-0.77 0.42,-0.72 0.51,-0.66 0.58,-0.59 0.65,-0.52 0.71,-0.44 0.76,-0.35 0.79,-0.25 0.82,-0.16 0.83,-0.05 0.84,0.04 0.82,0.14 0.80,0.24 0.76,0.33 0.72,0.42 0.66,0.50 0.60,0.59 0.52,0.65 0.44,0.71 0.35,0.76 0.25,0.80 0.15,0.82 0.06,0.84 0.06,0.84 L 0.06,0.84 Z"/></g><g stroke-linecap="round"><g transform="translate(337.82484436035156 154.763427734375) rotate(0 49.909515380859375 0)"><path d="M0 0 C31.93 0, 63.85 0, 99.82 0 M0 0 C26.29 0, 52.58 0, 99.82 0" stroke="#c92a2a" stroke-width="0.5" fill="none"/></g><g transform="translate(337.82484436035156 154.763427734375) rotate(0 49.909515380859375 0)"><path d="M99.82 0 L86.22 6.34 L86.22 -6.34 L99.82 0" stroke="none" stroke-width="0" fill="#c92a2a" fill-rule="evenodd"/><path d="M99.82 0 C95.47 2.03, 91.12 4.06, 86.22 6.34 M99.82 0 C96.24 1.67, 92.66 3.34, 86.22 6.34 M86.22 6.34 C86.22 3.41, 86.22 0.48, 86.22 -6.34 M86.22 6.34 C86.22 2.22, 86.22 -1.9, 86.22 -6.34 M86.22 -6.34 C89.6 -4.76, 92.98 -3.19, 99.82 0 M86.22 -6.34 C90.01 -4.57, 93.79 -2.81, 99.82 0 M99.82 0 C99.82 0, 99.82 0, 99.82 0 M99.82 0 C99.82 0, 99.82 0, 99.82 0" stroke="#c92a2a" stroke-width="0.5" fill="none"/></g></g><mask/><g transform="translate(437.0446319580078 98.6292724609375) rotate(0 -0.1331787109375 15.148895263671875)" stroke="none"><path fill="#c92a2a" d="M 0.89,0.01 Q 0.89,0.01 1.02,4.42 1.15,8.82 1.07,13.12 0.99,17.42 0.74,20.96 0.48,24.51 0.44,26.88 0.39,29.25 0.37,29.36 0.35,29.46 0.30,29.55 0.25,29.65 0.18,29.72 0.10,29.79 0.00,29.84 -0.08,29.88 -0.19,29.89 -0.30,29.90 -0.40,29.88 -0.50,29.86 -0.59,29.80 -0.68,29.75 -0.75,29.67 -0.82,29.58 -0.86,29.49 -0.90,29.39 -0.90,29.28 -0.91,29.17 -0.88,29.07 -0.85,28.97 -0.79,28.88 -0.73,28.79 -0.65,28.73 -0.56,28.67 -0.46,28.63 -0.36,28.60 -0.26,28.60 -0.15,28.60 -0.05,28.63 0.04,28.67 0.13,28.73 0.21,28.80 0.27,28.89 0.33,28.97 0.36,29.08 0.39,29.18 0.38,29.29 0.37,29.39 0.33,29.49 0.29,29.59 0.22,29.67 0.16,29.75 0.06,29.80 -0.02,29.86 -0.12,29.88 -0.22,29.90 -0.33,29.89 -0.44,29.88 -0.53,29.84 -0.63,29.79 -0.71,29.72 -0.78,29.64 -0.83,29.55 -0.88,29.46 -0.90,29.35 -0.91,29.25 -0.91,29.25 -0.91,29.25 -0.95,26.88 -0.98,24.51 -1.20,20.95 -1.43,17.40 -1.44,13.09 -1.46,8.78 -1.18,4.38 -0.89,-0.01 -0.88,-0.12 -0.86,-0.22 -0.82,-0.33 -0.78,-0.43 -0.72,-0.51 -0.66,-0.60 -0.57,-0.67 -0.49,-0.74 -0.40,-0.79 -0.30,-0.84 -0.19,-0.86 -0.09,-0.89 0.01,-0.89 0.12,-0.88 0.22,-0.86 0.33,-0.83 0.42,-0.78 0.52,-0.72 0.60,-0.65 0.68,-0.58 0.74,-0.49 0.80,-0.40 0.83,-0.30 0.87,-0.19 0.88,-0.09 0.89,0.01 0.89,0.01 L 0.89,0.01 Z"/></g><g transform="translate(436.51185607910156 100.16082763671875) rotate(0 7.9908447265625 13.683929443359375)" stroke="none"><path fill="#c92a2a" d="M 0,-0.86 Q 0,-0.86 1.39,-1.25 2.79,-1.64 4.63,-1.58 6.46,-1.53 8.29,-1.44 10.11,-1.36 11.58,-1.35 13.05,-1.34 13.90,-1.30 14.74,-1.26 14.95,-1.23 15.16,-1.20 15.35,-1.13 15.55,-1.05 15.72,-0.93 15.89,-0.81 16.02,-0.65 16.16,-0.49 16.25,-0.31 16.35,-0.12 16.39,0.07 16.44,0.27 16.44,0.48 16.44,0.69 16.38,0.89 16.33,1.09 16.23,1.28 16.13,1.46 15.99,1.61 15.85,1.77 15.68,1.88 15.51,2.00 15.31,2.07 15.11,2.14 14.91,2.16 14.70,2.19 15.42,1.93 16.14,1.67 14.89,2.80 13.64,3.94 12.42,5.21 11.21,6.48 10.18,8.16 9.14,9.84 8.55,11.70 7.95,13.56 7.78,15.48 7.60,17.40 7.90,18.87 8.20,20.33 8.80,21.56 9.40,22.79 10.12,24.71 10.83,26.62 10.88,26.72 10.93,26.81 10.95,26.91 10.98,27.02 10.96,27.12 10.95,27.23 10.90,27.32 10.86,27.42 10.78,27.49 10.71,27.57 10.61,27.62 10.52,27.67 10.41,27.68 10.31,27.70 10.20,27.68 10.10,27.66 10.00,27.61 9.91,27.56 9.84,27.48 9.77,27.40 9.73,27.30 9.68,27.20 9.67,27.10 9.66,26.99 9.69,26.89 9.71,26.79 9.77,26.70 9.83,26.61 9.91,26.54 9.99,26.47 10.09,26.43 10.19,26.40 10.30,26.39 10.40,26.39 10.50,26.42 10.61,26.45 10.69,26.51 10.78,26.57 10.84,26.66 10.90,26.74 10.94,26.84 10.97,26.95 10.97,27.05 10.96,27.16 10.93,27.26 10.89,27.36 10.83,27.44 10.76,27.53 10.67,27.58 10.58,27.64 10.48,27.67 10.38,27.69 10.27,27.69 10.17,27.68 10.07,27.64 9.97,27.60 9.89,27.53 9.81,27.46 9.81,27.46 9.81,27.46 8.07,25.85 6.32,24.24 5.59,22.61 4.85,20.97 4.52,19.04 4.20,17.10 4.44,14.80 4.69,12.49 5.45,10.27 6.21,8.04 7.46,6.06 8.71,4.08 10.17,2.59 11.62,1.11 12.42,0.79 13.21,0.47 13.98,-0.39 14.74,-1.26 14.95,-1.23 15.16,-1.20 15.35,-1.13 15.55,-1.05 15.72,-0.93 15.89,-0.81 16.02,-0.65 16.16,-0.49 16.25,-0.31 16.35,-0.12 16.39,0.07 16.44,0.27 16.44,0.48 16.44,0.69 16.38,0.89 16.33,1.09 16.23,1.28 16.13,1.46 15.99,1.61 15.85,1.77 15.68,1.88 15.51,2.00 15.31,2.07 15.12,2.14 14.91,2.16 14.70,2.19 13.85,2.13 13.00,2.08 11.47,2.05 9.94,2.03 8.13,1.93 6.32,1.83 4.55,1.74 2.79,1.64 1.39,1.25 0,0.86 -0.10,0.85 -0.20,0.84 -0.30,0.80 -0.40,0.76 -0.48,0.70 -0.57,0.64 -0.64,0.56 -0.71,0.49 -0.76,0.39 -0.80,0.30 -0.83,0.20 -0.85,0.10 -0.85,-0.00 -0.85,-0.10 -0.83,-0.20 -0.80,-0.30 -0.76,-0.39 -0.71,-0.49 -0.64,-0.56 -0.57,-0.64 -0.48,-0.70 -0.40,-0.76 -0.30,-0.80 -0.20,-0.84 -0.10,-0.85 0.00,-0.86 0.00,-0.86 L 0,-0.86 Z"/></g><g transform="translate(454.75770568847656 125.331298828125) rotate(0 3.16302490234375 5.0940093994140625)" stroke="none"><path fill="#c92a2a" d="M 0.84,-0.40 Q 0.84,-0.40 1.79,0.79 2.74,1.98 2.96,3.53 3.19,5.07 2.38,6.20 1.58,7.33 0.70,7.77 -0.18,8.20 -0.52,8.31 -0.87,8.42 -1.05,8.47 -1.24,8.52 -1.43,8.53 -1.62,8.53 -1.81,8.49 -1.99,8.45 -2.17,8.37 -2.34,8.29 -2.48,8.17 -2.63,8.05 -2.75,7.89 -2.86,7.74 -2.93,7.56 -3.01,7.39 -3.04,7.20 -3.07,7.01 -3.05,6.82 -3.03,6.63 -2.97,6.45 -2.91,6.27 -2.81,6.10 -2.70,5.94 -2.57,5.81 -2.43,5.68 -2.26,5.59 -2.10,5.49 -0.74,5.98 0.61,6.46 1.61,6.86 2.62,7.26 5.23,8.34 7.84,9.42 7.94,9.46 8.04,9.50 8.12,9.56 8.21,9.63 8.26,9.72 8.32,9.81 8.35,9.91 8.37,10.01 8.36,10.12 8.36,10.23 8.31,10.32 8.27,10.42 8.20,10.50 8.13,10.58 8.04,10.63 7.95,10.69 7.84,10.71 7.74,10.73 7.63,10.71 7.53,10.70 7.43,10.65 7.34,10.60 7.26,10.53 7.19,10.45 7.14,10.36 7.09,10.26 7.08,10.16 7.06,10.05 7.08,9.95 7.10,9.84 7.15,9.75 7.21,9.66 7.28,9.59 7.36,9.52 7.46,9.47 7.56,9.43 7.66,9.42 7.77,9.41 7.87,9.44 7.98,9.47 8.07,9.52 8.16,9.58 8.22,9.66 8.29,9.74 8.33,9.84 8.36,9.94 8.37,10.05 8.37,10.16 8.34,10.26 8.31,10.36 8.25,10.45 8.18,10.53 8.10,10.59 8.01,10.66 7.91,10.69 7.81,10.72 7.70,10.72 7.60,10.71 7.60,10.71 7.60,10.71 4.52,10.43 1.45,10.14 0.29,9.28 -0.87,8.42 -1.05,8.47 -1.24,8.52 -1.43,8.53 -1.62,8.53 -1.81,8.49 -1.99,8.45 -2.17,8.37 -2.34,8.29 -2.48,8.17 -2.63,8.05 -2.75,7.89 -2.86,7.74 -2.93,7.56 -3.01,7.39 -3.04,7.20 -3.07,7.01 -3.05,6.82 -3.03,6.63 -2.97,6.45 -2.91,6.27 -2.81,6.10 -2.71,5.94 -2.57,5.81 -2.43,5.68 -2.26,5.59 -2.10,5.49 -1.37,5.28 -0.64,5.07 -0.10,4.77 0.44,4.47 0.15,3.92 -0.13,3.37 -0.48,1.88 -0.84,0.40 -0.87,0.30 -0.91,0.19 -0.92,0.08 -0.93,-0.02 -0.91,-0.14 -0.89,-0.25 -0.85,-0.35 -0.81,-0.45 -0.74,-0.55 -0.67,-0.64 -0.59,-0.71 -0.50,-0.78 -0.40,-0.83 -0.30,-0.88 -0.19,-0.90 -0.08,-0.93 0.02,-0.92 0.14,-0.92 0.24,-0.89 0.35,-0.86 0.45,-0.80 0.55,-0.75 0.63,-0.67 0.71,-0.59 0.77,-0.50 0.84,-0.40 0.84,-0.40 L 0.84,-0.40 Z"/></g><g transform="translate(468.2089385986328 76.65512084960938) rotate(0 -3.262939453125 9.289077758789062)" stroke="none"><path fill="#c92a2a" d="M 0.79,0.29 Q 0.79,0.29 -0.37,4.26 -1.53,8.22 -2.69,10.90 -3.85,13.57 -4.71,15.70 -5.58,17.83 -5.63,17.92 -5.68,18.01 -5.75,18.09 -5.83,18.16 -5.93,18.20 -6.02,18.25 -6.13,18.26 -6.23,18.27 -6.34,18.25 -6.44,18.23 -6.53,18.17 -6.62,18.12 -6.69,18.04 -6.76,17.95 -6.80,17.86 -6.84,17.76 -6.85,17.65 -6.85,17.55 -6.82,17.44 -6.79,17.34 -6.74,17.25 -6.68,17.16 -6.59,17.10 -6.51,17.04 -6.41,17.00 -6.31,16.97 -6.20,16.97 -6.09,16.97 -5.99,17.00 -5.89,17.04 -5.81,17.10 -5.72,17.16 -5.66,17.25 -5.60,17.34 -5.57,17.44 -5.55,17.55 -5.55,17.65 -5.56,17.76 -5.60,17.86 -5.64,17.95 -5.70,18.04 -5.77,18.12 -5.86,18.17 -5.96,18.23 -6.06,18.25 -6.16,18.27 -6.27,18.26 -6.37,18.25 -6.47,18.20 -6.57,18.16 -6.64,18.09 -6.72,18.01 -6.77,17.92 -6.82,17.83 -6.84,17.72 -6.86,17.62 -6.84,17.51 -6.82,17.41 -6.82,17.41 -6.82,17.41 -6.22,15.19 -5.62,12.98 -4.91,10.11 -4.20,7.23 -2.50,3.47 -0.79,-0.29 -0.75,-0.38 -0.70,-0.47 -0.63,-0.55 -0.56,-0.63 -0.48,-0.69 -0.40,-0.75 -0.30,-0.78 -0.20,-0.82 -0.10,-0.83 -0.00,-0.85 0.09,-0.83 0.19,-0.82 0.29,-0.79 0.39,-0.75 0.47,-0.69 0.56,-0.64 0.62,-0.56 0.69,-0.48 0.74,-0.39 0.79,-0.30 0.81,-0.20 0.84,-0.10 0.84,-0.00 0.84,0.09 0.82,0.19 0.79,0.29 0.79,0.29 L 0.79,0.29 Z"/></g><g transform="translate(467.8094024658203 77.65390014648438) rotate(0 3.895538330078125 8.789688110351562)" stroke="none"><path fill="#c92a2a" d="M 0.76,-0.35 Q 0.76,-0.35 2.26,2.09 3.76,4.54 4.70,7.07 5.65,9.60 6.38,11.43 7.10,13.27 7.57,14.94 8.04,16.60 8.08,16.71 8.11,16.81 8.10,16.91 8.10,17.02 8.06,17.12 8.02,17.22 7.96,17.30 7.89,17.38 7.80,17.44 7.71,17.50 7.61,17.52 7.50,17.55 7.40,17.54 7.29,17.53 7.19,17.48 7.10,17.44 7.02,17.37 6.94,17.30 6.89,17.21 6.84,17.11 6.82,17.01 6.80,16.90 6.81,16.80 6.83,16.69 6.88,16.60 6.92,16.50 7.00,16.43 7.08,16.35 7.17,16.31 7.27,16.26 7.37,16.25 7.48,16.24 7.58,16.26 7.69,16.28 7.78,16.33 7.87,16.38 7.94,16.46 8.01,16.54 8.05,16.64 8.09,16.74 8.10,16.84 8.11,16.95 8.08,17.05 8.06,17.16 8.00,17.24 7.94,17.33 7.86,17.40 7.77,17.47 7.67,17.50 7.57,17.54 7.47,17.54 7.36,17.54 7.26,17.51 7.16,17.48 7.07,17.41 6.99,17.35 6.92,17.26 6.86,17.18 6.86,17.18 6.86,17.18 5.83,15.75 4.80,14.32 3.85,12.48 2.90,10.64 1.98,8.22 1.06,5.79 0.14,3.07 -0.76,0.35 -0.80,0.26 -0.83,0.16 -0.84,0.06 -0.84,-0.03 -0.83,-0.14 -0.81,-0.24 -0.77,-0.33 -0.73,-0.42 -0.67,-0.51 -0.60,-0.59 -0.52,-0.65 -0.44,-0.72 -0.35,-0.76 -0.26,-0.80 -0.16,-0.82 -0.06,-0.84 0.03,-0.84 0.14,-0.83 0.23,-0.80 0.33,-0.77 0.42,-0.72 0.51,-0.67 0.58,-0.60 0.66,-0.53 0.71,-0.44 0.76,-0.35 0.76,-0.35 L 0.76,-0.35 Z"/></g><g transform="translate(465.3455352783203 89.63986206054688) rotate(0 3.429412841796875 0.0665740966796875)" stroke="none"><path fill="#c92a2a" d="M 0.16,-0.96 Q 0.16,-0.96 1.34,-1.04 2.52,-1.13 3.44,-1.17 4.37,-1.21 5.07,-1.08 5.78,-0.95 5.86,-0.96 5.94,-0.96 6.01,-0.94 6.09,-0.93 6.17,-0.89 6.24,-0.86 6.30,-0.81 6.36,-0.76 6.41,-0.69 6.46,-0.63 6.49,-0.56 6.52,-0.48 6.53,-0.40 6.55,-0.32 6.54,-0.24 6.54,-0.17 6.51,-0.09 6.48,-0.01 6.44,0.04 6.40,0.11 6.34,0.17 6.28,0.22 6.21,0.26 6.14,0.30 6.07,0.33 5.99,0.35 4.26,0.44 2.53,0.52 2.43,0.51 2.32,0.50 2.22,0.45 2.13,0.41 2.05,0.34 1.97,0.26 1.92,0.17 1.87,0.07 1.86,-0.02 1.84,-0.13 1.86,-0.23 1.88,-0.33 1.93,-0.43 1.98,-0.52 2.05,-0.60 2.13,-0.67 2.23,-0.71 2.32,-0.76 2.43,-0.77 2.54,-0.78 2.64,-0.76 2.74,-0.73 2.83,-0.68 2.92,-0.62 2.99,-0.54 3.06,-0.46 3.10,-0.36 3.14,-0.26 3.14,-0.16 3.15,-0.05 3.12,0.04 3.09,0.14 3.03,0.23 2.97,0.32 2.89,0.38 2.80,0.45 2.70,0.48 2.60,0.51 2.50,0.51 2.39,0.51 2.29,0.48 2.19,0.45 2.10,0.38 2.02,0.32 1.96,0.23 1.90,0.14 1.87,0.04 1.84,-0.05 1.85,-0.16 1.86,-0.27 1.90,-0.37 1.94,-0.46 2.01,-0.54 2.07,-0.63 2.17,-0.68 2.26,-0.73 2.36,-0.76 2.46,-0.78 2.46,-0.78 2.46,-0.78 4.12,-0.87 5.78,-0.95 5.86,-0.96 5.94,-0.96 6.01,-0.94 6.09,-0.93 6.17,-0.89 6.24,-0.86 6.30,-0.81 6.36,-0.76 6.41,-0.69 6.46,-0.63 6.49,-0.56 6.52,-0.48 6.53,-0.40 6.55,-0.32 6.54,-0.25 6.54,-0.17 6.51,-0.09 6.48,-0.01 6.44,0.04 6.40,0.11 6.34,0.17 6.28,0.22 6.21,0.26 6.14,0.30 6.07,0.33 5.99,0.35 5.38,0.79 4.77,1.22 3.42,1.56 2.07,1.89 0.95,1.42 -0.16,0.96 -0.27,0.92 -0.38,0.89 -0.48,0.83 -0.58,0.77 -0.67,0.69 -0.75,0.61 -0.81,0.51 -0.88,0.41 -0.91,0.30 -0.95,0.19 -0.96,0.07 -0.97,-0.04 -0.95,-0.15 -0.93,-0.27 -0.88,-0.38 -0.84,-0.49 -0.77,-0.58 -0.69,-0.67 -0.60,-0.75 -0.51,-0.82 -0.41,-0.87 -0.30,-0.92 -0.18,-0.94 -0.07,-0.97 0.04,-0.96 0.16,-0.96 0.16,-0.96 L 0.16,-0.96 Z"/></g><g transform="translate(29.644180297851562 65.26849365234375) rotate(0 6.592460632324219 0.066558837890625)" stroke="none"><path fill="#c92a2a" d="M 0.07,-0.84 Q 0.07,-0.84 2.01,-0.94 3.95,-1.04 5.86,-1.01 7.77,-0.98 9.95,-0.99 12.14,-1.00 12.24,-1.00 12.35,-0.99 12.45,-0.95 12.55,-0.92 12.63,-0.85 12.71,-0.78 12.77,-0.69 12.82,-0.60 12.84,-0.49 12.87,-0.39 12.86,-0.28 12.85,-0.18 12.80,-0.08 12.76,0.01 12.69,0.08 12.61,0.16 12.52,0.21 12.43,0.26 12.32,0.28 12.22,0.30 12.11,0.28 12.01,0.26 11.91,0.21 11.82,0.16 11.74,0.09 11.67,0.01 11.63,-0.08 11.58,-0.17 11.57,-0.28 11.56,-0.38 11.58,-0.49 11.60,-0.59 11.66,-0.68 11.71,-0.77 11.79,-0.84 11.87,-0.91 11.97,-0.95 12.07,-0.99 12.17,-1.00 12.28,-1.00 12.38,-0.98 12.49,-0.95 12.57,-0.89 12.66,-0.83 12.73,-0.75 12.79,-0.66 12.83,-0.56 12.86,-0.46 12.86,-0.35 12.86,-0.25 12.83,-0.15 12.79,-0.05 12.73,0.03 12.67,0.11 12.58,0.17 12.49,0.23 12.39,0.26 12.29,0.29 12.29,0.29 12.29,0.29 10.08,0.78 7.88,1.27 5.79,1.50 3.70,1.73 1.81,1.29 -0.07,0.84 -0.17,0.82 -0.27,0.80 -0.37,0.76 -0.46,0.71 -0.54,0.65 -0.62,0.58 -0.68,0.50 -0.74,0.41 -0.78,0.32 -0.82,0.22 -0.83,0.12 -0.85,0.02 -0.84,-0.07 -0.83,-0.17 -0.80,-0.27 -0.76,-0.37 -0.71,-0.45 -0.65,-0.54 -0.58,-0.61 -0.50,-0.68 -0.41,-0.73 -0.32,-0.78 -0.22,-0.81 -0.12,-0.84 -0.02,-0.84 0.07,-0.84 0.07,-0.84 L 0.07,-0.84 Z"/></g><g transform="translate(37.235504150390625 65.60137939453125) rotate(0 -0.46613311767578125 8.689804077148438)" stroke="none"><path fill="#c92a2a" d="M 0.91,0.07 Q 0.91,0.07 0.87,3.29 0.83,6.50 0.44,9.39 0.05,12.28 -0.03,14.37 -0.13,16.45 -0.15,16.56 -0.17,16.66 -0.22,16.76 -0.27,16.85 -0.35,16.92 -0.42,16.99 -0.52,17.04 -0.62,17.08 -0.72,17.09 -0.83,17.10 -0.93,17.08 -1.04,17.06 -1.13,17.00 -1.22,16.95 -1.28,16.86 -1.35,16.78 -1.39,16.68 -1.43,16.59 -1.44,16.48 -1.44,16.37 -1.41,16.27 -1.38,16.17 -1.32,16.08 -1.26,15.99 -1.18,15.93 -1.09,15.87 -0.99,15.83 -0.89,15.80 -0.78,15.80 -0.68,15.80 -0.58,15.84 -0.48,15.87 -0.39,15.94 -0.31,16.00 -0.25,16.09 -0.19,16.18 -0.16,16.28 -0.13,16.38 -0.14,16.49 -0.15,16.59 -0.19,16.69 -0.23,16.79 -0.30,16.87 -0.37,16.95 -0.46,17.01 -0.55,17.06 -0.65,17.08 -0.76,17.10 -0.86,17.09 -0.97,17.08 -1.06,17.03 -1.16,16.99 -1.24,16.92 -1.31,16.84 -1.36,16.75 -1.41,16.65 -1.43,16.55 -1.44,16.44 -1.44,16.44 -1.44,16.44 -1.51,14.33 -1.58,12.21 -1.74,9.24 -1.91,6.27 -1.41,3.10 -0.91,-0.07 -0.88,-0.18 -0.86,-0.29 -0.81,-0.39 -0.77,-0.49 -0.70,-0.57 -0.63,-0.66 -0.54,-0.72 -0.45,-0.79 -0.35,-0.83 -0.25,-0.88 -0.14,-0.89 -0.03,-0.91 0.07,-0.90 0.18,-0.89 0.29,-0.86 0.39,-0.82 0.48,-0.76 0.58,-0.70 0.65,-0.62 0.73,-0.54 0.78,-0.45 0.84,-0.35 0.87,-0.25 0.90,-0.14 0.90,-0.03 0.91,0.07 0.91,0.07 L 0.91,0.07 Z"/></g><g transform="translate(241.7347869873047 160.42340087890625) rotate(0 -8.923110961914062 5.793212890625)" stroke="none"><path fill="#c92a2a" d="M -0.57,0.44 Q -0.57,0.44 -1.84,-0.89 -3.10,-2.24 -4.21,-3.01 -5.31,-3.78 -6.39,-4.10 -7.47,-4.42 -8.91,-4.07 -10.34,-3.71 -12.30,-2.70 -14.26,-1.69 -15.85,-0.15 -17.43,1.38 -18.22,3.14 -19.01,4.91 -18.64,6.67 -18.27,8.44 -17.12,10.18 -15.97,11.92 -14.26,13.22 -12.55,14.53 -11.08,15.09 -9.60,15.66 -8.75,15.39 -7.89,15.12 -8.02,14.57 -8.16,14.02 -8.66,13.50 -9.16,12.99 -9.84,12.31 -10.52,11.63 -11.13,10.63 -11.74,9.62 -11.39,8.62 -11.03,7.62 -10.22,7.30 -9.40,6.98 -7.96,7.21 -6.51,7.44 -5.09,7.65 -3.67,7.85 -2.23,7.98 -0.80,8.10 1.04,8.12 2.89,8.15 3.00,8.15 3.10,8.15 3.20,8.18 3.31,8.21 3.39,8.28 3.48,8.34 3.54,8.43 3.60,8.52 3.62,8.62 3.65,8.72 3.65,8.83 3.64,8.93 3.60,9.03 3.56,9.13 3.50,9.21 3.43,9.29 3.34,9.35 3.25,9.40 3.14,9.43 3.04,9.45 2.93,9.44 2.83,9.43 2.73,9.39 2.63,9.34 2.56,9.27 2.48,9.20 2.43,9.10 2.38,9.01 2.36,8.90 2.34,8.80 2.36,8.69 2.38,8.59 2.43,8.49 2.48,8.40 2.55,8.33 2.63,8.25 2.73,8.21 2.82,8.16 2.93,8.15 3.03,8.14 3.14,8.16 3.24,8.18 3.33,8.24 3.42,8.29 3.49,8.37 3.56,8.45 3.60,8.55 3.64,8.65 3.65,8.76 3.65,8.86 3.63,8.97 3.60,9.07 3.54,9.16 3.48,9.25 3.39,9.31 3.31,9.37 3.21,9.41 3.11,9.44 3.11,9.44 3.11,9.44 1.07,10.12 -0.95,10.80 -2.51,10.74 -4.08,10.69 -5.56,10.47 -7.04,10.26 -8.28,9.90 -9.53,9.54 -9.00,9.57 -8.46,9.59 -7.75,10.30 -7.04,11.02 -6.34,11.79 -5.65,12.57 -5.25,13.49 -4.85,14.41 -5.06,15.36 -5.27,16.31 -6.22,17.07 -7.18,17.84 -8.78,18.08 -10.37,18.32 -12.33,17.55 -14.28,16.78 -16.31,15.12 -18.35,13.47 -19.70,11.22 -21.05,8.96 -21.33,6.47 -21.62,3.99 -20.53,1.68 -19.44,-0.61 -17.50,-2.43 -15.57,-4.24 -13.21,-5.36 -10.85,-6.48 -8.79,-6.72 -6.73,-6.96 -5.26,-6.35 -3.79,-5.73 -2.60,-4.65 -1.40,-3.57 -0.41,-2.01 0.57,-0.44 0.61,-0.37 0.66,-0.29 0.69,-0.21 0.71,-0.12 0.72,-0.04 0.72,0.04 0.71,0.13 0.69,0.21 0.65,0.29 0.62,0.37 0.56,0.44 0.51,0.51 0.44,0.57 0.37,0.62 0.29,0.66 0.21,0.69 0.12,0.71 0.04,0.72 -0.04,0.72 -0.13,0.71 -0.21,0.68 -0.30,0.66 -0.37,0.61 -0.45,0.57 -0.51,0.50 -0.57,0.44 -0.57,0.44 L -0.57,0.44 Z"/></g><g transform="translate(354.80543518066406 124.33245849609375) rotate(0 -3.76239013671875 14.050155639648438)" stroke="none"><path fill="#c92a2a" d="M 0.78,0.28 Q 0.78,0.28 -0.18,3.65 -1.15,7.02 -2.19,10.50 -3.23,13.97 -4.07,17.14 -4.90,20.30 -5.67,23.89 -6.43,27.47 -6.45,27.57 -6.48,27.68 -6.53,27.77 -6.59,27.86 -6.67,27.93 -6.75,28.00 -6.85,28.04 -6.94,28.08 -7.05,28.08 -7.16,28.09 -7.26,28.06 -7.36,28.03 -7.45,27.98 -7.54,27.92 -7.60,27.83 -7.67,27.75 -7.70,27.65 -7.74,27.55 -7.74,27.44 -7.74,27.33 -7.70,27.23 -7.67,27.13 -7.61,27.05 -7.54,26.96 -7.45,26.90 -7.37,26.84 -7.26,26.81 -7.16,26.79 -7.06,26.79 -6.95,26.80 -6.85,26.83 -6.75,26.87 -6.67,26.94 -6.59,27.01 -6.53,27.10 -6.48,27.19 -6.46,27.30 -6.43,27.40 -6.44,27.50 -6.45,27.61 -6.50,27.71 -6.54,27.80 -6.62,27.88 -6.69,27.96 -6.78,28.01 -6.88,28.06 -6.98,28.08 -7.08,28.09 -7.19,28.08 -7.29,28.06 -7.39,28.01 -7.48,27.96 -7.56,27.89 -7.63,27.81 -7.67,27.71 -7.72,27.62 -7.73,27.51 -7.74,27.40 -7.74,27.41 -7.74,27.41 -7.57,23.53 -7.40,19.65 -6.57,16.43 -5.74,13.21 -4.67,9.68 -3.59,6.14 -2.18,2.93 -0.78,-0.28 -0.73,-0.37 -0.69,-0.46 -0.62,-0.53 -0.56,-0.61 -0.48,-0.67 -0.39,-0.73 -0.30,-0.76 -0.21,-0.80 -0.11,-0.81 -0.01,-0.83 0.08,-0.82 0.18,-0.81 0.28,-0.77 0.37,-0.74 0.45,-0.68 0.54,-0.63 0.60,-0.55 0.67,-0.48 0.72,-0.39 0.77,-0.30 0.79,-0.21 0.82,-0.11 0.82,-0.01 0.82,0.08 0.80,0.18 0.78,0.28 0.78,0.28 L 0.78,0.28 Z"/></g><g transform="translate(357.2692413330078 128.194580078125) rotate(0 3.6624755859375 8.656494140625)" stroke="none"><path fill="#c92a2a" d="M 0.72,-0.26 Q 0.72,-0.26 1.78,2.32 2.83,4.90 3.73,7.26 4.63,9.61 5.43,11.52 6.24,13.42 6.91,14.90 7.58,16.37 7.61,16.47 7.64,16.57 7.64,16.68 7.64,16.79 7.61,16.89 7.57,16.99 7.50,17.07 7.44,17.15 7.35,17.21 7.26,17.27 7.16,17.30 7.05,17.32 6.95,17.31 6.84,17.31 6.74,17.27 6.65,17.22 6.57,17.15 6.49,17.08 6.43,16.99 6.38,16.90 6.36,16.80 6.34,16.69 6.35,16.59 6.37,16.48 6.41,16.39 6.46,16.29 6.53,16.21 6.61,16.14 6.70,16.09 6.80,16.04 6.90,16.03 7.01,16.01 7.11,16.03 7.22,16.05 7.31,16.10 7.40,16.15 7.47,16.23 7.55,16.31 7.59,16.41 7.63,16.50 7.64,16.61 7.65,16.72 7.63,16.82 7.60,16.92 7.54,17.01 7.49,17.10 7.41,17.17 7.32,17.24 7.22,17.27 7.12,17.31 7.02,17.32 6.91,17.32 6.81,17.29 6.71,17.26 6.62,17.20 6.53,17.14 6.47,17.05 6.41,16.96 6.41,16.96 6.41,16.96 5.61,15.53 4.81,14.10 3.81,12.21 2.80,10.31 1.90,7.94 0.99,5.58 0.13,2.92 -0.72,0.26 -0.74,0.17 -0.76,0.08 -0.76,-0.00 -0.76,-0.10 -0.74,-0.19 -0.71,-0.28 -0.67,-0.36 -0.63,-0.44 -0.56,-0.51 -0.50,-0.58 -0.42,-0.63 -0.35,-0.68 -0.26,-0.72 -0.17,-0.75 -0.08,-0.76 0.00,-0.77 0.10,-0.76 0.19,-0.74 0.28,-0.71 0.36,-0.68 0.44,-0.62 0.52,-0.57 0.58,-0.50 0.64,-0.43 0.68,-0.34 0.72,-0.26 0.72,-0.26 L 0.72,-0.26 Z"/></g><g transform="translate(355.40467834472656 140.3802490234375) rotate(0 3.46270751953125 -0.83233642578125)" stroke="none"><path fill="#c92a2a" d="M -0.08,-0.82 Q -0.08,-0.82 1.15,-1.11 2.40,-1.39 2.24,-1.25 2.07,-1.10 2.15,-1.10 2.23,-1.10 2.31,-1.08 2.39,-1.06 2.46,-1.02 2.53,-0.98 2.58,-0.93 2.64,-0.88 2.69,-0.81 2.73,-0.75 2.76,-0.67 2.78,-0.60 2.79,-0.52 2.80,-0.44 2.79,-0.36 2.78,-0.28 2.75,-0.21 2.72,-0.14 2.67,-0.07 2.63,-0.01 2.57,0.03 2.51,0.09 2.44,0.12 2.37,0.16 2.29,0.18 2.21,0.19 2.14,0.19 2.07,0.19 1.97,0.16 1.86,0.13 1.78,0.07 1.69,0.01 1.62,-0.06 1.56,-0.15 1.53,-0.25 1.50,-0.35 1.50,-0.46 1.50,-0.56 1.53,-0.66 1.57,-0.76 1.63,-0.85 1.70,-0.93 1.78,-0.99 1.87,-1.05 1.98,-1.08 2.08,-1.10 2.18,-1.10 2.29,-1.09 2.39,-1.05 2.49,-1.01 2.57,-0.94 2.65,-0.87 2.70,-0.78 2.76,-0.69 2.78,-0.58 2.80,-0.48 2.79,-0.37 2.78,-0.27 2.73,-0.17 2.68,-0.08 2.61,-0.00 2.54,0.07 2.44,0.11 2.35,0.16 2.24,0.18 2.14,0.20 2.03,0.18 1.93,0.16 1.84,0.11 1.74,0.06 1.67,-0.01 1.60,-0.09 1.55,-0.18 1.51,-0.28 1.50,-0.39 1.49,-0.49 1.51,-0.59 1.54,-0.70 1.59,-0.79 1.65,-0.88 1.73,-0.95 1.81,-1.02 1.91,-1.05 2.01,-1.09 2.04,-1.10 2.07,-1.10 2.15,-1.10 2.23,-1.10 2.31,-1.08 2.39,-1.06 2.46,-1.02 2.53,-0.98 2.58,-0.93 2.64,-0.88 2.69,-0.81 2.73,-0.75 2.76,-0.67 2.78,-0.60 2.79,-0.52 2.80,-0.44 2.79,-0.36 2.78,-0.28 2.75,-0.21 2.72,-0.14 2.67,-0.07 2.63,-0.01 2.57,0.03 2.51,0.09 2.44,0.12 2.37,0.16 2.29,0.18 2.21,0.19 2.43,0.52 2.65,0.85 1.36,0.84 0.08,0.82 -0.01,0.82 -0.11,0.82 -0.21,0.80 -0.30,0.77 -0.39,0.72 -0.48,0.67 -0.55,0.61 -0.63,0.54 -0.68,0.45 -0.74,0.37 -0.77,0.28 -0.81,0.18 -0.82,0.08 -0.83,-0.01 -0.82,-0.11 -0.80,-0.21 -0.76,-0.30 -0.73,-0.39 -0.67,-0.48 -0.61,-0.56 -0.53,-0.62 -0.46,-0.69 -0.37,-0.73 -0.28,-0.78 -0.18,-0.80 -0.08,-0.82 -0.08,-0.82 L -0.08,-0.82 Z"/></g><g transform="translate(347.54701232910156 56.3455810546875) rotate(0 -1.331817626953125 13.683944702148438)" stroke="none"><path fill="#c92a2a" d="M 0.84,0.03 Q 0.84,0.03 0.79,5.82 0.75,11.61 0.20,15.78 -0.35,19.96 -1.06,23.03 -1.78,26.11 -1.82,26.21 -1.85,26.31 -1.92,26.40 -1.98,26.48 -2.07,26.54 -2.16,26.60 -2.26,26.63 -2.36,26.66 -2.47,26.65 -2.57,26.65 -2.67,26.61 -2.77,26.57 -2.85,26.50 -2.93,26.43 -2.99,26.34 -3.04,26.24 -3.06,26.14 -3.09,26.04 -3.07,25.93 -3.06,25.83 -3.02,25.73 -2.97,25.63 -2.90,25.56 -2.83,25.48 -2.73,25.43 -2.64,25.38 -2.53,25.36 -2.43,25.35 -2.32,25.37 -2.22,25.38 -2.12,25.43 -2.03,25.48 -1.96,25.56 -1.89,25.64 -1.84,25.73 -1.80,25.83 -1.79,25.94 -1.77,26.04 -1.80,26.15 -1.82,26.25 -1.88,26.34 -1.93,26.43 -2.01,26.50 -2.09,26.57 -2.19,26.61 -2.29,26.65 -2.40,26.65 -2.50,26.66 -2.61,26.63 -2.71,26.60 -2.80,26.54 -2.88,26.48 -2.95,26.39 -3.01,26.31 -3.05,26.21 -3.08,26.11 -3.08,26.00 -3.08,25.90 -3.08,25.90 -3.08,25.90 -2.76,22.81 -2.44,19.73 -2.09,15.62 -1.74,11.50 -1.29,5.73 -0.84,-0.03 -0.82,-0.13 -0.81,-0.23 -0.77,-0.33 -0.73,-0.42 -0.67,-0.50 -0.60,-0.58 -0.53,-0.65 -0.45,-0.71 -0.35,-0.76 -0.26,-0.80 -0.16,-0.82 -0.06,-0.84 0.03,-0.84 0.13,-0.83 0.23,-0.80 0.33,-0.77 0.42,-0.72 0.51,-0.67 0.58,-0.60 0.65,-0.53 0.71,-0.44 0.76,-0.36 0.79,-0.26 0.83,-0.16 0.83,-0.06 0.84,0.03 0.84,0.03 L 0.84,0.03 Z"/></g><g transform="translate(349.61134338378906 56.01263427734375) rotate(0 2.264068603515625 14.283248901367188)" stroke="none"><path fill="#c92a2a" d="M 0.24,-0.67 Q 0.24,-0.67 1.30,-0.79 2.36,-0.91 3.28,-0.76 4.21,-0.61 5.17,-0.46 6.12,-0.31 7.20,0.24 8.28,0.81 8.78,2.04 9.28,3.27 8.76,4.56 8.24,5.84 7.27,6.96 6.30,8.09 5.60,8.84 4.89,9.59 4.76,10.32 4.62,11.05 5.11,11.42 5.61,11.79 6.45,12.98 7.30,14.17 8.12,15.79 8.94,17.41 9.26,19.60 9.58,21.80 8.79,24.04 8.00,26.29 6.17,27.68 4.33,29.07 2.18,29.35 0.04,29.63 -1.45,29.10 -2.94,28.58 -3.59,26.68 -4.25,24.78 -4.27,24.67 -4.29,24.57 -4.27,24.46 -4.26,24.36 -4.21,24.26 -4.17,24.17 -4.09,24.09 -4.02,24.01 -3.93,23.97 -3.83,23.92 -3.73,23.90 -3.62,23.89 -3.52,23.91 -3.41,23.93 -3.32,23.98 -3.23,24.03 -3.15,24.11 -3.08,24.18 -3.04,24.28 -3.00,24.38 -2.99,24.48 -2.98,24.59 -3.00,24.69 -3.03,24.80 -3.08,24.89 -3.14,24.98 -3.22,25.04 -3.30,25.11 -3.40,25.15 -3.50,25.19 -3.61,25.19 -3.71,25.20 -3.81,25.17 -3.92,25.14 -4.00,25.07 -4.09,25.01 -4.15,24.93 -4.22,24.84 -4.25,24.74 -4.28,24.64 -4.28,24.53 -4.28,24.43 -4.24,24.33 -4.21,24.23 -4.14,24.14 -4.07,24.06 -3.99,24.00 -3.90,23.94 -3.79,23.92 -3.69,23.89 -3.59,23.90 -3.48,23.91 -3.38,23.95 -3.28,23.99 -3.20,24.06 -3.12,24.13 -3.07,24.22 -3.02,24.31 -3.02,24.31 -3.02,24.31 -2.28,25.08 -1.55,25.85 -0.86,26.02 -0.18,26.19 1.18,26.13 2.54,26.07 3.73,25.40 4.93,24.73 5.51,23.38 6.09,22.04 5.93,20.48 5.77,18.91 5.11,17.54 4.46,16.16 3.71,15.09 2.97,14.02 2.16,12.85 1.34,11.68 1.32,10.46 1.31,9.24 1.83,8.25 2.35,7.26 3.03,6.52 3.72,5.79 4.48,4.95 5.25,4.12 5.39,3.58 5.53,3.03 4.56,2.87 3.59,2.70 2.41,2.46 1.23,2.21 0.49,1.44 -0.24,0.67 -0.32,0.63 -0.39,0.59 -0.46,0.53 -0.52,0.48 -0.57,0.41 -0.62,0.34 -0.66,0.26 -0.69,0.18 -0.70,0.09 -0.71,0.01 -0.70,-0.07 -0.69,-0.16 -0.66,-0.24 -0.63,-0.32 -0.59,-0.39 -0.54,-0.46 -0.47,-0.52 -0.41,-0.58 -0.33,-0.62 -0.26,-0.66 -0.18,-0.68 -0.09,-0.70 -0.01,-0.71 0.07,-0.71 0.15,-0.69 0.24,-0.67 0.24,-0.67 L 0.24,-0.67 Z"/></g><g transform="translate(319.3126983642578 255.7115478515625) rotate(0 -6.1263427734375 8.689804077148438)" stroke="none"><path fill="#c92a2a" d="M -0.36,0.76 Q -0.36,0.76 -3.25,-0.34 -6.14,-1.46 -8.04,-1.20 -9.95,-0.94 -11.42,0.60 -12.89,2.15 -13.69,4.68 -14.48,7.21 -14.32,9.96 -14.16,12.70 -13.09,14.70 -12.03,16.69 -10.45,17.71 -8.86,18.72 -6.86,18.39 -4.86,18.05 -2.85,16.60 -0.85,15.15 0.38,13.25 1.62,11.35 1.70,9.76 1.79,8.17 0.76,6.77 -0.25,5.37 -1.72,3.93 -3.20,2.48 -4.04,1.31 -4.88,0.13 -3.71,-0.02 -2.55,-0.18 -2.60,-0.24 -2.64,-0.30 -2.68,-0.38 -2.71,-0.45 -2.72,-0.53 -2.73,-0.61 -2.73,-0.68 -2.72,-0.76 -2.70,-0.84 -2.67,-0.91 -2.63,-0.98 -2.59,-1.05 -2.53,-1.10 -2.48,-1.16 -2.41,-1.20 -2.34,-1.24 -2.26,-1.26 -2.19,-1.28 -2.11,-1.29 -2.03,-1.29 -1.95,-1.28 -1.88,-1.26 -1.80,-1.23 -1.73,-1.19 -1.67,-1.15 -1.61,-1.10 -1.65,-1.13 -1.69,-1.17 -1.62,-1.09 -1.54,-1.02 -1.50,-0.92 -1.45,-0.83 -1.44,-0.72 -1.42,-0.62 -1.44,-0.51 -1.46,-0.41 -1.51,-0.32 -1.57,-0.23 -1.65,-0.15 -1.73,-0.08 -1.82,-0.04 -1.92,-0.00 -2.03,0.00 -2.13,0.01 -2.24,-0.01 -2.34,-0.03 -2.43,-0.09 -2.52,-0.15 -2.58,-0.23 -2.65,-0.31 -2.69,-0.41 -2.72,-0.51 -2.73,-0.62 -2.73,-0.73 -2.70,-0.83 -2.67,-0.93 -2.60,-1.02 -2.54,-1.10 -2.46,-1.16 -2.37,-1.23 -2.27,-1.26 -2.17,-1.29 -2.06,-1.28 -1.95,-1.28 -1.85,-1.25 -1.75,-1.21 -1.67,-1.14 -1.59,-1.07 -1.53,-0.99 -1.47,-0.90 -1.45,-0.79 -1.42,-0.69 -1.43,-0.58 -1.44,-0.48 -1.48,-0.38 -1.53,-0.28 -1.60,-0.20 -1.67,-0.12 -1.76,-0.07 -1.85,-0.02 -1.96,-0.00 -2.06,0.01 -2.17,-0.00 -2.27,-0.01 -2.41,-0.09 -2.55,-0.18 -2.60,-0.24 -2.64,-0.30 -2.68,-0.38 -2.71,-0.45 -2.72,-0.53 -2.73,-0.61 -2.73,-0.68 -2.72,-0.76 -2.70,-0.84 -2.67,-0.91 -2.63,-0.98 -2.59,-1.05 -2.53,-1.10 -2.48,-1.16 -2.41,-1.20 -2.34,-1.24 -2.26,-1.26 -2.19,-1.28 -2.11,-1.29 -2.03,-1.29 -1.95,-1.28 -1.88,-1.26 -1.80,-1.23 -1.73,-1.20 -1.67,-1.15 -1.61,-1.10 -2.51,-1.20 -3.40,-1.30 -2.29,-0.47 -1.17,0.35 0.61,2.01 2.39,3.67 3.63,5.86 4.87,8.05 4.60,10.50 4.33,12.96 2.66,15.35 0.98,17.74 -1.69,19.45 -4.36,21.16 -7.26,21.31 -10.15,21.47 -12.42,19.85 -14.70,18.24 -15.96,15.59 -17.22,12.94 -17.30,9.61 -17.37,6.29 -16.21,3.18 -15.04,0.08 -12.80,-1.81 -10.56,-3.70 -7.87,-3.80 -5.18,-3.89 -2.41,-2.33 0.36,-0.76 0.44,-0.70 0.53,-0.65 0.60,-0.58 0.67,-0.50 0.72,-0.42 0.77,-0.33 0.80,-0.23 0.83,-0.13 0.83,-0.03 0.84,0.06 0.82,0.16 0.80,0.26 0.75,0.35 0.71,0.45 0.65,0.53 0.58,0.60 0.50,0.67 0.42,0.73 0.32,0.77 0.23,0.81 0.13,0.82 0.03,0.84 -0.06,0.83 -0.16,0.82 -0.26,0.79 -0.36,0.76 -0.36,0.76 L -0.36,0.76 Z"/></g><g transform="translate(113.88108825683594 10) rotate(0 -6.925384521484375 11.353347778320312)" stroke="none"><path fill="#c92a2a" d="M 0.25,0.67 Q 0.25,0.67 -0.58,1.16 -1.42,1.65 -2.65,2.22 -3.88,2.79 -5.57,3.71 -7.25,4.64 -8.93,6.10 -10.62,7.55 -11.84,9.42 -13.07,11.29 -13.59,13.18 -14.12,15.07 -13.44,16.53 -12.75,17.99 -11.25,18.93 -9.74,19.88 -7.83,20.10 -5.92,20.31 -3.84,20.04 -1.75,19.76 -0.13,19.49 1.48,19.22 1.59,19.21 1.69,19.21 1.79,19.24 1.90,19.26 1.98,19.32 2.07,19.38 2.14,19.47 2.20,19.55 2.23,19.65 2.27,19.75 2.27,19.86 2.27,19.97 2.23,20.07 2.20,20.17 2.13,20.25 2.07,20.34 1.98,20.40 1.89,20.46 1.79,20.48 1.69,20.51 1.58,20.51 1.48,20.50 1.38,20.46 1.28,20.42 1.20,20.35 1.12,20.28 1.06,20.19 1.01,20.10 0.99,20.00 0.96,19.89 0.97,19.79 0.99,19.68 1.03,19.59 1.08,19.49 1.15,19.41 1.22,19.34 1.32,19.29 1.41,19.24 1.52,19.22 1.62,19.20 1.73,19.22 1.83,19.24 1.92,19.29 2.02,19.34 2.09,19.41 2.16,19.49 2.21,19.59 2.25,19.69 2.26,19.79 2.27,19.90 2.25,20.00 2.23,20.10 2.17,20.19 2.12,20.29 2.04,20.35 1.96,20.42 1.86,20.46 1.76,20.50 1.76,20.50 1.76,20.50 0.17,20.93 -1.41,21.35 -3.80,22.05 -6.20,22.74 -8.63,22.37 -11.05,21.99 -12.99,20.54 -14.93,19.10 -15.69,16.91 -16.44,14.72 -15.76,12.36 -15.07,9.99 -13.62,7.88 -12.17,5.77 -10.27,4.18 -8.36,2.58 -6.56,1.64 -4.76,0.69 -3.46,0.21 -2.16,-0.27 -1.21,-0.47 -0.25,-0.67 -0.17,-0.69 -0.08,-0.71 -0.00,-0.71 0.08,-0.71 0.16,-0.69 0.25,-0.67 0.33,-0.63 0.40,-0.59 0.47,-0.53 0.53,-0.48 0.58,-0.40 0.63,-0.33 0.67,-0.25 0.70,-0.17 0.71,-0.08 0.72,-0.00 0.71,0.08 0.70,0.17 0.67,0.25 0.64,0.33 0.59,0.40 0.54,0.47 0.47,0.53 0.41,0.59 0.33,0.63 0.25,0.67 0.25,0.67 L 0.25,0.67 Z"/></g></svg>