<svg version="1.1" xmlns="http://www.w3.org/2000/svg" viewBox="0 0 380 420.00000000000006" width="380" height="420.00000000000006" filter="invert(93%) hue-rotate(180deg)" class="excalidraw-svg">
  <!-- svg-source:excalidraw -->
  
  <defs>
    <style class="style-fonts">
      @font-face {
        font-family: "Virgil";
        src: url("https://excalidraw.com/Virgil.woff2");
      }
      @font-face {
        font-family: "Cascadia";
        src: url("https://excalidraw.com/Cascadia.woff2");
      }
      @font-face {
        font-family: "Assistant";
        src: url("https://excalidraw.com/Assistant-Regular.woff2");
      }
    </style>
    
  </defs>
  <g stroke-linecap="round" transform="translate(-30 190.00000000000006) rotate(89.99999999999994 200 19.99999999999997)"><path d="M0 0 C0 0, 0 0, 0 0 M0 0 C0 0, 0 0, 0 0 M0.27 24.08 C5.81 17.7, 11.35 11.33, 21.26 -0.07 M0.27 24.08 C7.07 16.25, 13.87 8.43, 21.26 -0.07 M7.09 40.62 C14.91 31.62, 22.73 22.63, 42.52 -0.14 M7.09 40.62 C19.23 26.66, 31.36 12.7, 42.52 -0.14 M28.35 40.55 C39.57 27.65, 50.78 14.74, 63.78 -0.21 M28.35 40.55 C38.92 28.39, 49.5 16.23, 63.78 -0.21 M49.61 40.48 C57.99 30.84, 66.36 21.21, 85.04 -0.28 M49.61 40.48 C61.83 26.42, 74.05 12.37, 85.04 -0.28 M70.87 40.41 C82.79 26.71, 94.7 13, 106.3 -0.34 M70.87 40.41 C82.2 27.38, 93.53 14.34, 106.3 -0.34 M92.13 40.34 C100.17 31.1, 108.2 21.85, 126.91 0.34 M92.13 40.34 C104.6 26.01, 117.06 11.67, 126.91 0.34 M113.39 40.27 C126.69 24.98, 139.99 9.68, 148.17 0.27 M113.39 40.27 C124.02 28.05, 134.64 15.83, 148.17 0.27 M134.65 40.2 C144.59 28.77, 154.53 17.34, 169.43 0.2 M134.65 40.2 C146.08 27.06, 157.5 13.92, 169.43 0.2 M155.91 40.13 C164.89 29.81, 173.86 19.49, 190.69 0.13 M155.91 40.13 C167.36 26.96, 178.81 13.8, 190.69 0.13 M176.52 40.82 C184.5 31.64, 192.49 22.45, 211.95 0.06 M176.52 40.82 C189.16 26.27, 201.81 11.73, 211.95 0.06 M197.78 40.75 C208.76 28.12, 219.74 15.48, 233.21 0 M197.78 40.75 C205.59 31.76, 213.41 22.77, 233.21 0 M219.04 40.68 C226.78 31.78, 234.52 22.87, 254.47 -0.07 M219.04 40.68 C229.72 28.39, 240.4 16.11, 254.47 -0.07 M240.3 40.61 C248.4 31.29, 256.51 21.97, 275.73 -0.14 M240.3 40.61 C253.25 25.71, 266.21 10.81, 275.73 -0.14 M261.56 40.54 C274.94 25.15, 288.32 9.76, 296.99 -0.21 M261.56 40.54 C274.89 25.2, 288.23 9.86, 296.99 -0.21 M282.82 40.47 C291.63 30.34, 300.43 20.21, 318.25 -0.28 M282.82 40.47 C293.69 27.97, 304.55 15.47, 318.25 -0.28 M304.08 40.41 C316.8 25.78, 329.51 11.15, 339.51 -0.35 M304.08 40.41 C316.55 26.06, 329.02 11.71, 339.51 -0.35 M325.34 40.34 C337.42 26.43, 349.51 12.53, 360.11 0.34 M325.34 40.34 C337.24 26.64, 349.15 12.95, 360.11 0.34 M346.6 40.27 C359.2 25.78, 371.79 11.29, 381.37 0.27 M346.6 40.27 C358.95 26.06, 371.29 11.86, 381.37 0.27 M367.86 40.2 C375.81 31.05, 383.77 21.9, 400.01 3.22 M367.86 40.2 C378.38 28.09, 388.91 15.99, 400.01 3.22 M389.12 40.13 C392.81 35.88, 396.51 31.63, 400.27 27.3 M389.12 40.13 C392.11 36.68, 395.11 33.24, 400.27 27.3" stroke="#a5d8ff" stroke-width="2" fill="none"/><path d="M0 0 C156.48 0, 312.97 0, 400 0 M0 0 C116.94 0, 233.88 0, 400 0 M400 0 C400 13.69, 400 27.39, 400 40 M400 0 C400 9.15, 400 18.31, 400 40 M400 40 C272.08 40, 144.15 40, 0 40 M400 40 C251.58 40, 103.16 40, 0 40 M0 40 C0 29.47, 0 18.94, 0 0 M0 40 C0 30.57, 0 21.13, 0 0" stroke="transparent" stroke-width="4" fill="none"/></g><g stroke-linecap="round"><g transform="translate(-10 209.99999999999986) rotate(89.99999999999994 200 1.9184653865522705e-13)"><path d="M0 0 C150 0, 299.99 0, 400 0 M0 0 C142.97 0, 285.95 0, 400 0" stroke="#1e1e1e" stroke-width="4" fill="none"/></g></g><mask/><g stroke-linecap="round"><g transform="translate(350 210.00000000000006) rotate(0 0 -10)"><path d="M0 0 C0 -7.89, 0 -15.78, 0 -20 M0 0 C0 -6.32, 0 -12.64, 0 -20" stroke="#e03131" stroke-width="2" fill="none"/></g><g transform="translate(350 210.00000000000006) rotate(0 0 -10)"><path d="M0 -20 L4.23 -10.94 L-4.23 -10.94 L0 -20" stroke="none" stroke-width="0" fill="#e03131" fill-rule="evenodd"/><path d="M0 -20 C1.67 -16.43, 3.33 -12.85, 4.23 -10.94 M0 -20 C1.34 -17.14, 2.67 -14.27, 4.23 -10.94 M4.23 -10.94 C1.06 -10.94, -2.11 -10.94, -4.23 -10.94 M4.23 -10.94 C1.51 -10.94, -1.21 -10.94, -4.23 -10.94 M-4.23 -10.94 C-2.77 -14.05, -1.32 -17.17, 0 -20 M-4.23 -10.94 C-3.17 -13.2, -2.12 -15.46, 0 -20 M0 -20 C0 -20, 0 -20, 0 -20 M0 -20 C0 -20, 0 -20, 0 -20" stroke="#e03131" stroke-width="2" fill="none"/></g></g><mask/><g stroke-linecap="round"><g transform="translate(350 209.90114200399205) rotate(0 6.776430151105913 -6.776430151105913)"><path d="M0 0 C3.15 -3.15, 6.3 -6.3, 13.55 -13.55 M0 0 C3.97 -3.97, 7.93 -7.93, 13.55 -13.55" stroke="#e03131" stroke-width="2" fill="none"/></g><g transform="translate(350 209.90114200399205) rotate(0 6.776430151105913 -6.776430151105913)"><path d="M13.55 -13.55 L10.28 -4.55 L4.55 -10.28 L13.55 -13.55" stroke="none" stroke-width="0" fill="#e03131" fill-rule="evenodd"/><path d="M13.55 -13.55 C12.79 -11.46, 12.03 -9.37, 10.28 -4.55 M13.55 -13.55 C12.59 -10.92, 11.63 -8.28, 10.28 -4.55 M10.28 -4.55 C8.88 -5.95, 7.48 -7.34, 4.55 -10.28 M10.28 -4.55 C8.77 -6.05, 7.27 -7.55, 4.55 -10.28 M4.55 -10.28 C6.61 -11.03, 8.68 -11.78, 13.55 -13.55 M4.55 -10.28 C7.17 -11.23, 9.8 -12.19, 13.55 -13.55 M13.55 -13.55 C13.55 -13.55, 13.55 -13.55, 13.55 -13.55 M13.55 -13.55 C13.55 -13.55, 13.55 -13.55, 13.55 -13.55" stroke="#e03131" stroke-width="2" fill="none"/></g></g><mask/><g stroke-linecap="round"><g transform="translate(350 210.00000000000006) rotate(0 10 0)"><path d="M0 0 C5.86 0, 11.73 0, 20 0 M0 0 C6.94 0, 13.88 0, 20 0" stroke="#e03131" stroke-width="2" fill="none"/></g><g transform="translate(350 210.00000000000006) rotate(0 10 0)"><path d="M20 0 L10.94 4.23 L10.94 -4.23 L20 0" stroke="none" stroke-width="0" fill="#e03131" fill-rule="evenodd"/><path d="M20 0 C17.34 1.24, 14.69 2.48, 10.94 4.23 M20 0 C16.86 1.47, 13.71 2.93, 10.94 4.23 M10.94 4.23 C10.94 2.38, 10.94 0.53, 10.94 -4.23 M10.94 4.23 C10.94 2.37, 10.94 0.51, 10.94 -4.23 M10.94 -4.23 C13.25 -3.15, 15.57 -2.07, 20 0 M10.94 -4.23 C14.51 -2.56, 18.08 -0.89, 20 0 M20 0 C20 0, 20 0, 20 0 M20 0 C20 0, 20 0, 20 0" stroke="#e03131" stroke-width="2" fill="none"/></g></g><mask/><g stroke-linecap="round"><g transform="translate(349.6317475971423 209.63174759714235) rotate(0 7.009692141884244 7.009692141884226)"><path d="M0 0 C4.42 4.42, 8.84 8.84, 14.02 14.02 M0 0 C5.05 5.05, 10.11 10.11, 14.02 14.02" stroke="#e03131" stroke-width="2" fill="none"/></g><g transform="translate(349.6317475971423 209.63174759714235) rotate(0 7.009692141884244 7.009692141884226)"><path d="M14.02 14.02 L4.7 10.63 L10.63 4.7 L14.02 14.02" stroke="none" stroke-width="0" fill="#e03131" fill-rule="evenodd"/><path d="M14.02 14.02 C11.08 12.95, 8.14 11.88, 4.7 10.63 M14.02 14.02 C10.66 12.8, 7.3 11.58, 4.7 10.63 M4.7 10.63 C6.63 8.7, 8.55 6.78, 10.63 4.7 M4.7 10.63 C6.38 8.96, 8.05 7.28, 10.63 4.7 M10.63 4.7 C11.47 7.02, 12.31 9.34, 14.02 14.02 M10.63 4.7 C11.78 7.86, 12.92 11.01, 14.02 14.02 M14.02 14.02 C14.02 14.02, 14.02 14.02, 14.02 14.02 M14.02 14.02 C14.02 14.02, 14.02 14.02, 14.02 14.02" stroke="#e03131" stroke-width="2" fill="none"/></g></g><mask/><g stroke-linecap="round"><g transform="translate(350 210.00000000000006) rotate(0 0 10)"><path d="M0 0 C0 5.68, 0 11.35, 0 20 M0 0 C0 6.5, 0 12.99, 0 20" stroke="#e03131" stroke-width="2" fill="none"/></g><g transform="translate(350 210.00000000000006) rotate(0 0 10)"><path d="M0 20 L-4.23 10.94 L4.23 10.94 L0 20" stroke="none" stroke-width="0" fill="#e03131" fill-rule="evenodd"/><path d="M0 20 C-1.2 17.43, -2.4 14.86, -4.23 10.94 M0 20 C-1.37 17.06, -2.75 14.11, -4.23 10.94 M-4.23 10.94 C-2.34 10.94, -0.46 10.94, 4.23 10.94 M-4.23 10.94 C-2.03 10.94, 0.16 10.94, 4.23 10.94 M4.23 10.94 C3.14 13.27, 2.05 15.6, 0 20 M4.23 10.94 C3.21 13.11, 2.2 15.28, 0 20 M0 20 C0 20, 0 20, 0 20 M0 20 C0 20, 0 20, 0 20" stroke="#e03131" stroke-width="2" fill="none"/></g></g><mask/><g stroke-linecap="round"><g transform="translate(350 210.00000000000006) rotate(0 -6.656613400107943 6.65661340010795)"><path d="M0 0 C-4.56 4.56, -9.12 9.12, -13.31 13.31 M0 0 C-3.05 3.05, -6.09 6.09, -13.31 13.31" stroke="#e03131" stroke-width="2" fill="none"/></g><g transform="translate(350 210.00000000000006) rotate(0 -6.656613400107943 6.65661340010795)"><path d="M-13.31 13.31 L-10.09 4.47 L-4.47 10.09 L-13.31 13.31" stroke="none" stroke-width="0" fill="#e03131" fill-rule="evenodd"/><path d="M-13.31 13.31 C-12.21 10.28, -11.11 7.26, -10.09 4.47 M-13.31 13.31 C-12.58 11.29, -11.84 9.26, -10.09 4.47 M-10.09 4.47 C-8.29 6.27, -6.49 8.07, -4.47 10.09 M-10.09 4.47 C-8.01 6.55, -5.92 8.64, -4.47 10.09 M-4.47 10.09 C-6.8 10.94, -9.12 11.79, -13.31 13.31 M-4.47 10.09 C-6.55 10.85, -8.64 11.61, -13.31 13.31 M-13.31 13.31 C-13.31 13.31, -13.31 13.31, -13.31 13.31 M-13.31 13.31 C-13.31 13.31, -13.31 13.31, -13.31 13.31" stroke="#e03131" stroke-width="2" fill="none"/></g></g><mask/><g stroke-linecap="round"><g transform="translate(350 210.00000000000006) rotate(0 -10 0)"><path d="M0 0 C-6.13 0, -12.25 0, -20 0 M0 0 C-6.92 0, -13.84 0, -20 0" stroke="#e03131" stroke-width="2" fill="none"/></g><g transform="translate(350 210.00000000000006) rotate(0 -10 0)"><path d="M-20 0 L-10.94 -4.23 L-10.94 4.23 L-20 0" stroke="none" stroke-width="0" fill="#e03131" fill-rule="evenodd"/><path d="M-20 0 C-17.22 -1.29, -14.45 -2.59, -10.94 -4.23 M-20 0 C-16.87 -1.46, -13.73 -2.92, -10.94 -4.23 M-10.94 -4.23 C-10.94 -1.85, -10.94 0.52, -10.94 4.23 M-10.94 -4.23 C-10.94 -1.41, -10.94 1.42, -10.94 4.23 M-10.94 4.23 C-13.61 2.98, -16.29 1.73, -20 0 M-10.94 4.23 C-14.33 2.64, -17.73 1.06, -20 0 M-20 0 C-20 0, -20 0, -20 0 M-20 0 C-20 0, -20 0, -20 0" stroke="#e03131" stroke-width="2" fill="none"/></g></g><mask/><g stroke-linecap="round"><g transform="translate(349.29487047697364 210.00000000000006) rotate(0 -6.35020246003802 -6.350202460038023)"><path d="M0 0 C-4.76 -4.76, -9.52 -9.52, -12.7 -12.7 M0 0 C-4.09 -4.09, -8.18 -8.18, -12.7 -12.7" stroke="#e03131" stroke-width="2" fill="none"/></g><g transform="translate(349.29487047697364 210.00000000000006) rotate(0 -6.35020246003802 -6.350202460038023)"><path d="M-12.7 -12.7 L-4.26 -9.63 L-9.63 -4.26 L-12.7 -12.7" stroke="none" stroke-width="0" fill="#e03131" fill-rule="evenodd"/><path d="M-12.7 -12.7 C-9.54 -11.55, -6.37 -10.4, -4.26 -9.63 M-12.7 -12.7 C-9.98 -11.71, -7.27 -10.72, -4.26 -9.63 M-4.26 -9.63 C-6.11 -7.78, -7.95 -5.94, -9.63 -4.26 M-4.26 -9.63 C-5.6 -8.29, -6.94 -6.95, -9.63 -4.26 M-9.63 -4.26 C-10.68 -7.14, -11.73 -10.02, -12.7 -12.7 M-9.63 -4.26 C-10.56 -6.81, -11.48 -9.35, -12.7 -12.7 M-12.7 -12.7 C-12.7 -12.7, -12.7 -12.7, -12.7 -12.7 M-12.7 -12.7 C-12.7 -12.7, -12.7 -12.7, -12.7 -12.7" stroke="#e03131" stroke-width="2" fill="none"/></g></g><mask/><g stroke-linecap="round"><g transform="translate(30 210.00000000000006) rotate(0 0 -10)"><path d="M0 0 C0 -4.88, 0 -9.77, 0 -20 M0 0 C0 -5.24, 0 -10.49, 0 -20" stroke="#e03131" stroke-width="2" fill="none"/></g><g transform="translate(30 210.00000000000006) rotate(0 0 -10)"><path d="M0 -20 L4.23 -10.94 L-4.23 -10.94 L0 -20" stroke="none" stroke-width="0" fill="#e03131" fill-rule="evenodd"/><path d="M0 -20 C1.03 -17.79, 2.06 -15.57, 4.23 -10.94 M0 -20 C1.11 -17.62, 2.22 -15.25, 4.23 -10.94 M4.23 -10.94 C2.29 -10.94, 0.35 -10.94, -4.23 -10.94 M4.23 -10.94 C1.76 -10.94, -0.7 -10.94, -4.23 -10.94 M-4.23 -10.94 C-3.13 -13.29, -2.03 -15.65, 0 -20 M-4.23 -10.94 C-2.76 -14.07, -1.3 -17.21, 0 -20 M0 -20 C0 -20, 0 -20, 0 -20 M0 -20 C0 -20, 0 -20, 0 -20" stroke="#e03131" stroke-width="2" fill="none"/></g></g><mask/><g stroke-linecap="round"><g transform="translate(30 209.90114200399205) rotate(0 6.776430151105913 -6.776430151105913)"><path d="M0 0 C2.96 -2.96, 5.93 -5.93, 13.55 -13.55 M0 0 C2.98 -2.98, 5.96 -5.96, 13.55 -13.55" stroke="#e03131" stroke-width="2" fill="none"/></g><g transform="translate(30 209.90114200399205) rotate(0 6.776430151105913 -6.776430151105913)"><path d="M13.55 -13.55 L10.28 -4.55 L4.55 -10.28 L13.55 -13.55" stroke="none" stroke-width="0" fill="#e03131" fill-rule="evenodd"/><path d="M13.55 -13.55 C12.84 -11.58, 12.12 -9.61, 10.28 -4.55 M13.55 -13.55 C12.83 -11.57, 12.11 -9.59, 10.28 -4.55 M10.28 -4.55 C8.81 -6.01, 7.35 -7.47, 4.55 -10.28 M10.28 -4.55 C8.02 -6.81, 5.76 -9.06, 4.55 -10.28 M4.55 -10.28 C7.2 -11.24, 9.85 -12.21, 13.55 -13.55 M4.55 -10.28 C6.44 -10.96, 8.34 -11.65, 13.55 -13.55 M13.55 -13.55 C13.55 -13.55, 13.55 -13.55, 13.55 -13.55 M13.55 -13.55 C13.55 -13.55, 13.55 -13.55, 13.55 -13.55" stroke="#e03131" stroke-width="2" fill="none"/></g></g><mask/><g stroke-linecap="round"><g transform="translate(30 210.00000000000006) rotate(0 10 0)"><path d="M0 0 C6.5 0, 13 0, 20 0 M0 0 C5.65 0, 11.3 0, 20 0" stroke="#e03131" stroke-width="2" fill="none"/></g><g transform="translate(30 210.00000000000006) rotate(0 10 0)"><path d="M20 0 L10.94 4.23 L10.94 -4.23 L20 0" stroke="none" stroke-width="0" fill="#e03131" fill-rule="evenodd"/><path d="M20 0 C17.06 1.37, 14.11 2.75, 10.94 4.23 M20 0 C17.44 1.19, 14.88 2.39, 10.94 4.23 M10.94 4.23 C10.94 2.12, 10.94 0.02, 10.94 -4.23 M10.94 4.23 C10.94 1.37, 10.94 -1.49, 10.94 -4.23 M10.94 -4.23 C14.42 -2.6, 17.9 -0.98, 20 0 M10.94 -4.23 C13.26 -3.14, 15.57 -2.06, 20 0 M20 0 C20 0, 20 0, 20 0 M20 0 C20 0, 20 0, 20 0" stroke="#e03131" stroke-width="2" fill="none"/></g></g><mask/><g stroke-linecap="round"><g transform="translate(29.631747597142294 209.63174759714235) rotate(0 7.009692141884244 7.009692141884226)"><path d="M0 0 C3.13 3.13, 6.25 6.25, 14.02 14.02 M0 0 C3.64 3.64, 7.28 7.28, 14.02 14.02" stroke="#e03131" stroke-width="2" fill="none"/></g><g transform="translate(29.631747597142294 209.63174759714235) rotate(0 7.009692141884244 7.009692141884226)"><path d="M14.02 14.02 L4.7 10.63 L10.63 4.7 L14.02 14.02" stroke="none" stroke-width="0" fill="#e03131" fill-rule="evenodd"/><path d="M14.02 14.02 C11.94 13.26, 9.86 12.51, 4.7 10.63 M14.02 14.02 C11.6 13.14, 9.18 12.26, 4.7 10.63 M4.7 10.63 C6.23 9.1, 7.75 7.58, 10.63 4.7 M4.7 10.63 C6.12 9.21, 7.54 7.79, 10.63 4.7 M10.63 4.7 C11.57 7.3, 12.52 9.89, 14.02 14.02 M10.63 4.7 C11.96 8.35, 13.29 12, 14.02 14.02 M14.02 14.02 C14.02 14.02, 14.02 14.02, 14.02 14.02 M14.02 14.02 C14.02 14.02, 14.02 14.02, 14.02 14.02" stroke="#e03131" stroke-width="2" fill="none"/></g></g><mask/><g stroke-linecap="round"><g transform="translate(30 210.00000000000006) rotate(0 0 10)"><path d="M0 0 C0 6.4, 0 12.79, 0 20 M0 0 C0 7.42, 0 14.84, 0 20" stroke="#e03131" stroke-width="2" fill="none"/></g><g transform="translate(30 210.00000000000006) rotate(0 0 10)"><path d="M0 20 L-4.23 10.94 L4.23 10.94 L0 20" stroke="none" stroke-width="0" fill="#e03131" fill-rule="evenodd"/><path d="M0 20 C-1.35 17.1, -2.7 14.2, -4.23 10.94 M0 20 C-1.57 16.64, -3.14 13.27, -4.23 10.94 M-4.23 10.94 C-2 10.94, 0.22 10.94, 4.23 10.94 M-4.23 10.94 C-2.23 10.94, -0.24 10.94, 4.23 10.94 M4.23 10.94 C3.19 13.17, 2.14 15.4, 0 20 M4.23 10.94 C2.7 14.22, 1.16 17.5, 0 20 M0 20 C0 20, 0 20, 0 20 M0 20 C0 20, 0 20, 0 20" stroke="#e03131" stroke-width="2" fill="none"/></g></g><mask/><g stroke-linecap="round"><g transform="translate(30 210.00000000000006) rotate(0 -6.656613400107943 6.65661340010795)"><path d="M0 0 C-3.74 3.74, -7.48 7.48, -13.31 13.31 M0 0 C-4.44 4.44, -8.89 8.89, -13.31 13.31" stroke="#e03131" stroke-width="2" fill="none"/></g><g transform="translate(30 210.00000000000006) rotate(0 -6.656613400107943 6.65661340010795)"><path d="M-13.31 13.31 L-10.09 4.47 L-4.47 10.09 L-13.31 13.31" stroke="none" stroke-width="0" fill="#e03131" fill-rule="evenodd"/><path d="M-13.31 13.31 C-12.41 10.83, -11.5 8.34, -10.09 4.47 M-13.31 13.31 C-12.24 10.36, -11.16 7.41, -10.09 4.47 M-10.09 4.47 C-8.43 6.13, -6.77 7.79, -4.47 10.09 M-10.09 4.47 C-7.98 6.58, -5.87 8.69, -4.47 10.09 M-4.47 10.09 C-7.94 11.36, -11.41 12.62, -13.31 13.31 M-4.47 10.09 C-6.53 10.84, -8.59 11.59, -13.31 13.31 M-13.31 13.31 C-13.31 13.31, -13.31 13.31, -13.31 13.31 M-13.31 13.31 C-13.31 13.31, -13.31 13.31, -13.31 13.31" stroke="#e03131" stroke-width="2" fill="none"/></g></g><mask/><g stroke-linecap="round"><g transform="translate(30 210.00000000000006) rotate(0 -10 0)"><path d="M0 0 C-6.87 0, -13.75 0, -20 0 M0 0 C-4.99 0, -9.97 0, -20 0" stroke="#e03131" stroke-width="2" fill="none"/></g><g transform="translate(30 210.00000000000006) rotate(0 -10 0)"><path d="M-20 0 L-10.94 -4.23 L-10.94 4.23 L-20 0" stroke="none" stroke-width="0" fill="#e03131" fill-rule="evenodd"/><path d="M-20 0 C-16.88 -1.45, -13.77 -2.91, -10.94 -4.23 M-20 0 C-17.74 -1.05, -15.48 -2.11, -10.94 -4.23 M-10.94 -4.23 C-10.94 -1.34, -10.94 1.54, -10.94 4.23 M-10.94 -4.23 C-10.94 -1.68, -10.94 0.88, -10.94 4.23 M-10.94 4.23 C-14.26 2.68, -17.59 1.13, -20 0 M-10.94 4.23 C-13.48 3.04, -16.01 1.86, -20 0 M-20 0 C-20 0, -20 0, -20 0 M-20 0 C-20 0, -20 0, -20 0" stroke="#e03131" stroke-width="2" fill="none"/></g></g><mask/><g stroke-linecap="round"><g transform="translate(29.294870476973642 210.00000000000006) rotate(0 -6.35020246003802 -6.350202460038023)"><path d="M0 0 C-2.91 -2.91, -5.82 -5.82, -12.7 -12.7 M0 0 C-3.7 -3.7, -7.41 -7.41, -12.7 -12.7" stroke="#e03131" stroke-width="2" fill="none"/></g><g transform="translate(29.294870476973642 210.00000000000006) rotate(0 -6.35020246003802 -6.350202460038023)"><path d="M-12.7 -12.7 L-4.26 -9.63 L-9.63 -4.26 L-12.7 -12.7" stroke="none" stroke-width="0" fill="#e03131" fill-rule="evenodd"/><path d="M-12.7 -12.7 C-10.77 -12, -8.83 -11.29, -4.26 -9.63 M-12.7 -12.7 C-10.24 -11.8, -7.78 -10.91, -4.26 -9.63 M-4.26 -9.63 C-5.66 -8.23, -7.05 -6.84, -9.63 -4.26 M-4.26 -9.63 C-6.12 -7.77, -7.98 -5.91, -9.63 -4.26 M-9.63 -4.26 C-10.49 -6.62, -11.35 -8.98, -12.7 -12.7 M-9.63 -4.26 C-10.48 -6.6, -11.33 -8.93, -12.7 -12.7 M-12.7 -12.7 C-12.7 -12.7, -12.7 -12.7, -12.7 -12.7 M-12.7 -12.7 C-12.7 -12.7, -12.7 -12.7, -12.7 -12.7" stroke="#e03131" stroke-width="2" fill="none"/></g></g><mask/><g stroke-linecap="round"><g transform="translate(310 210.00000000000006) rotate(0 -30 0)"><path d="M0 0 C-15.32 0, -30.65 0, -60 0 M0 0 C-23.66 0, -47.31 0, -60 0" stroke="#e03131" stroke-width="4" fill="none"/></g><g transform="translate(310 210.00000000000006) rotate(0 -30 0)"><path d="M-60 0 L-46.41 -6.34 L-46.41 6.34 L-60 0" stroke="none" stroke-width="0" fill="#e03131" fill-rule="evenodd"/><path d="M-60 0 C-56.53 -1.62, -53.06 -3.24, -46.41 -6.34 M-60 0 C-54.64 -2.5, -49.28 -5, -46.41 -6.34 M-46.41 -6.34 C-46.41 -2.61, -46.41 1.13, -46.41 6.34 M-46.41 -6.34 C-46.41 -3.67, -46.41 -1.01, -46.41 6.34 M-46.41 6.34 C-49.27 5, -52.14 3.66, -60 0 M-46.41 6.34 C-51.58 3.93, -56.75 1.51, -60 0 M-60 0 C-60 0, -60 0, -60 0 M-60 0 C-60 0, -60 0, -60 0" stroke="#e03131" stroke-width="4" fill="none"/></g></g><mask/><g stroke-linecap="round"><g transform="translate(70 210.00000000000006) rotate(0 30 0)"><path d="M0 0 C14.92 0, 29.84 0, 60 0 M0 0 C20.3 0, 40.61 0, 60 0" stroke="#e03131" stroke-width="4" fill="none"/></g><g transform="translate(70 210.00000000000006) rotate(0 30 0)"><path d="M60 0 L46.41 6.34 L46.41 -6.34 L60 0" stroke="none" stroke-width="0" fill="#e03131" fill-rule="evenodd"/><path d="M60 0 C56.62 1.58, 53.24 3.15, 46.41 6.34 M60 0 C55.4 2.15, 50.8 4.29, 46.41 6.34 M46.41 6.34 C46.41 1.47, 46.41 -3.41, 46.41 -6.34 M46.41 6.34 C46.41 3.1, 46.41 -0.15, 46.41 -6.34 M46.41 -6.34 C50.84 -4.27, 55.28 -2.2, 60 0 M46.41 -6.34 C49.42 -4.93, 52.44 -3.53, 60 0 M60 0 C60 0, 60 0, 60 0 M60 0 C60 0, 60 0, 60 0" stroke="#e03131" stroke-width="4" fill="none"/></g></g><mask/><g stroke-linecap="round"><g transform="translate(190 210.00000000000006) rotate(0 0 -20)"><path d="M0 0 C0 -6.67, 0 -33.33, 0 -40 M0 0 C0 -6.67, 0 -33.33, 0 -40" stroke="#1971c2" stroke-width="2" fill="none"/></g><g transform="translate(190 210.00000000000006) rotate(0 0 -20)"><path d="M0 -40 L6.34 -26.41 L-6.34 -26.41 L0 -40" stroke="none" stroke-width="0" fill="#1971c2" fill-rule="evenodd"/><path d="M0 -40 C1.63 -36.5, 3.26 -33.01, 6.34 -26.41 M0 -40 C1.52 -36.74, 3.04 -33.49, 6.34 -26.41 M6.34 -26.41 C2.81 -26.41, -0.72 -26.41, -6.34 -26.41 M6.34 -26.41 C1.37 -26.41, -3.6 -26.41, -6.34 -26.41 M-6.34 -26.41 C-3.88 -31.67, -1.43 -36.94, 0 -40 M-6.34 -26.41 C-3.86 -31.72, -1.39 -37.03, 0 -40 M0 -40 C0 -40, 0 -40, 0 -40 M0 -40 C0 -40, 0 -40, 0 -40" stroke="#1971c2" stroke-width="2" fill="none"/></g></g><mask/><g stroke-linecap="round"><g transform="translate(190 210.00000000000006) rotate(0 20 0)"><path d="M0 0 C6.67 0, 33.33 0, 40 0 M0 0 C6.67 0, 33.33 0, 40 0" stroke="#1971c2" stroke-width="2" fill="none"/></g><g transform="translate(190 210.00000000000006) rotate(0 20 0)"><path d="M40 0 L26.41 6.34 L26.41 -6.34 L40 0" stroke="none" stroke-width="0" fill="#1971c2" fill-rule="evenodd"/><path d="M40 0 C36.42 1.67, 32.84 3.34, 26.41 6.34 M40 0 C36.79 1.49, 33.59 2.99, 26.41 6.34 M26.41 6.34 C26.41 3.22, 26.41 0.09, 26.41 -6.34 M26.41 6.34 C26.41 1.75, 26.41 -2.85, 26.41 -6.34 M26.41 -6.34 C30 -4.67, 33.59 -2.99, 40 0 M26.41 -6.34 C30.81 -4.28, 35.22 -2.23, 40 0 M40 0 C40 0, 40 0, 40 0 M40 0 C40 0, 40 0, 40 0" stroke="#1971c2" stroke-width="2" fill="none"/></g></g><mask/></svg>