<svg version="1.1" xmlns="http://www.w3.org/2000/svg" viewBox="0 0 240.00000000000023 420" width="240.00000000000023" height="420" filter="invert(93%) hue-rotate(180deg)" class="excalidraw-svg">
  <!-- svg-source:excalidraw -->
  
  <defs>
    <style class="style-fonts">
      @font-face {
        font-family: "Virgil";
        src: url("https://excalidraw.com/Virgil.woff2");
      }
      @font-face {
        font-family: "Cascadia";
        src: url("https://excalidraw.com/Cascadia.woff2");
      }
      @font-face {
        font-family: "Assistant";
        src: url("https://excalidraw.com/Assistant-Regular.woff2");
      }
    </style>
    
  </defs>
  <g stroke-linecap="round" transform="translate(-169.99999999999983 190.00000000000003) rotate(89.99999999999994 200 19.99999999999997)"><path d="M0 0 C0 0, 0 0, 0 0 M0 0 C0 0, 0 0, 0 0 M0.27 24.08 C6.23 17.22, 12.19 10.37, 21.26 -0.07 M0.27 24.08 C6.61 16.79, 12.95 9.49, 21.26 -0.07 M7.09 40.62 C18.59 27.39, 30.08 14.17, 42.52 -0.14 M7.09 40.62 C19.43 26.42, 31.77 12.23, 42.52 -0.14 M28.35 40.55 C38.67 28.68, 48.99 16.81, 63.78 -0.21 M28.35 40.55 C41.88 24.98, 55.42 9.42, 63.78 -0.21 M49.61 40.48 C62.17 26.03, 74.73 11.58, 85.04 -0.28 M49.61 40.48 C56.76 32.25, 63.91 24.03, 85.04 -0.28 M70.87 40.41 C84.81 24.38, 98.74 8.35, 106.3 -0.34 M70.87 40.41 C79.88 30.05, 88.88 19.7, 106.3 -0.34 M92.13 40.34 C105.46 25.02, 118.78 9.69, 126.91 0.34 M92.13 40.34 C100.64 30.56, 109.14 20.78, 126.91 0.34 M113.39 40.27 C126.73 24.93, 140.07 9.58, 148.17 0.27 M113.39 40.27 C125.61 26.22, 137.83 12.16, 148.17 0.27 M134.65 40.2 C145.98 27.17, 157.31 14.14, 169.43 0.2 M134.65 40.2 C142.91 30.7, 151.17 21.2, 169.43 0.2 M155.91 40.13 C169.81 24.15, 183.71 8.16, 190.69 0.13 M155.91 40.13 C165.06 29.61, 174.2 19.09, 190.69 0.13 M176.52 40.82 C185.09 30.96, 193.65 21.11, 211.95 0.06 M176.52 40.82 C187.07 28.68, 197.63 16.54, 211.95 0.06 M197.78 40.75 C209.21 27.6, 220.64 14.45, 233.21 0 M197.78 40.75 C209.62 27.12, 221.47 13.5, 233.21 0 M219.04 40.68 C230.88 27.06, 242.72 13.44, 254.47 -0.07 M219.04 40.68 C229.64 28.48, 240.25 16.28, 254.47 -0.07 M240.3 40.61 C253.67 25.23, 267.04 9.85, 275.73 -0.14 M240.3 40.61 C249.76 29.73, 259.22 18.84, 275.73 -0.14 M261.56 40.54 C273.95 26.29, 286.34 12.03, 296.99 -0.21 M261.56 40.54 C271.18 29.47, 280.8 18.4, 296.99 -0.21 M282.82 40.47 C294.61 26.92, 306.39 13.36, 318.25 -0.28 M282.82 40.47 C294.13 27.47, 305.43 14.46, 318.25 -0.28 M304.08 40.41 C317.51 24.96, 330.94 9.51, 339.51 -0.35 M304.08 40.41 C311.19 32.22, 318.3 24.04, 339.51 -0.35 M325.34 40.34 C335.8 28.3, 346.26 16.27, 360.11 0.34 M325.34 40.34 C335.93 28.15, 346.53 15.96, 360.11 0.34 M346.6 40.27 C355.51 30.02, 364.42 19.77, 381.37 0.27 M346.6 40.27 C354.56 31.11, 362.52 21.95, 381.37 0.27 M367.86 40.2 C378.72 27.7, 389.58 15.21, 400.01 3.22 M367.86 40.2 C380.53 25.63, 393.19 11.06, 400.01 3.22 M389.12 40.13 C393.13 35.52, 397.14 30.91, 400.27 27.3 M389.12 40.13 C391.96 36.86, 394.81 33.59, 400.27 27.3" stroke="#a5d8ff" stroke-width="2" fill="none"/><path d="M0 0 C90.6 0, 181.2 0, 400 0 M0 0 C102.44 0, 204.89 0, 400 0 M400 0 C400 11.9, 400 23.8, 400 40 M400 0 C400 14.75, 400 29.49, 400 40 M400 40 C273.36 40, 146.73 40, 0 40 M400 40 C261.66 40, 123.33 40, 0 40 M0 40 C0 27.14, 0 14.29, 0 0 M0 40 C0 26.49, 0 12.98, 0 0" stroke="transparent" stroke-width="4" fill="none"/></g><g stroke-linecap="round"><g transform="translate(-149.99999999999977 209.9999999999998) rotate(89.99999999999994 200 1.9184653865522705e-13)"><path d="M0 0 C90.56 0, 181.12 0, 400 0 M0 0 C131.6 0, 263.21 0, 400 0" stroke="#1e1e1e" stroke-width="4" fill="none"/></g></g><mask/><g stroke-linecap="round"><g transform="translate(210.00000000000023 210) rotate(0 0 -10)"><path d="M0 0 C0 -4.96, 0 -9.91, 0 -20 M0 0 C0 -6.61, 0 -13.22, 0 -20" stroke="#e03131" stroke-width="2" fill="none"/></g><g transform="translate(210.00000000000023 210) rotate(0 0 -10)"><path d="M0 -20 L4.23 -10.94 L-4.23 -10.94 L0 -20" stroke="none" stroke-width="0" fill="#e03131" fill-rule="evenodd"/><path d="M0 -20 C1.05 -17.75, 2.09 -15.51, 4.23 -10.94 M0 -20 C1.4 -17, 2.79 -14.01, 4.23 -10.94 M4.23 -10.94 C1.97 -10.94, -0.29 -10.94, -4.23 -10.94 M4.23 -10.94 C2.33 -10.94, 0.44 -10.94, -4.23 -10.94 M-4.23 -10.94 C-2.64 -14.33, -1.06 -17.73, 0 -20 M-4.23 -10.94 C-2.59 -14.44, -0.96 -17.94, 0 -20 M0 -20 C0 -20, 0 -20, 0 -20 M0 -20 C0 -20, 0 -20, 0 -20" stroke="#e03131" stroke-width="2" fill="none"/></g></g><mask/><g stroke-linecap="round"><g transform="translate(210.00000000000023 209.901142003992) rotate(0 6.776430151105913 -6.776430151105913)"><path d="M0 0 C4.51 -4.51, 9.02 -9.02, 13.55 -13.55 M0 0 C5.36 -5.36, 10.73 -10.73, 13.55 -13.55" stroke="#e03131" stroke-width="2" fill="none"/></g><g transform="translate(210.00000000000023 209.901142003992) rotate(0 6.776430151105913 -6.776430151105913)"><path d="M13.55 -13.55 L10.28 -4.55 L4.55 -10.28 L13.55 -13.55" stroke="none" stroke-width="0" fill="#e03131" fill-rule="evenodd"/><path d="M13.55 -13.55 C12.46 -10.56, 11.37 -7.56, 10.28 -4.55 M13.55 -13.55 C12.26 -9.99, 10.96 -6.42, 10.28 -4.55 M10.28 -4.55 C8.31 -6.51, 6.35 -8.47, 4.55 -10.28 M10.28 -4.55 C8.37 -6.45, 6.46 -8.36, 4.55 -10.28 M4.55 -10.28 C7.28 -11.27, 10.02 -12.27, 13.55 -13.55 M4.55 -10.28 C6.68 -11.05, 8.81 -11.83, 13.55 -13.55 M13.55 -13.55 C13.55 -13.55, 13.55 -13.55, 13.55 -13.55 M13.55 -13.55 C13.55 -13.55, 13.55 -13.55, 13.55 -13.55" stroke="#e03131" stroke-width="2" fill="none"/></g></g><mask/><g stroke-linecap="round"><g transform="translate(210.00000000000023 210) rotate(0 10 0)"><path d="M0 0 C7.57 0, 15.14 0, 20 0 M0 0 C7.57 0, 15.13 0, 20 0" stroke="#e03131" stroke-width="2" fill="none"/></g><g transform="translate(210.00000000000023 210) rotate(0 10 0)"><path d="M20 0 L10.94 4.23 L10.94 -4.23 L20 0" stroke="none" stroke-width="0" fill="#e03131" fill-rule="evenodd"/><path d="M20 0 C16.57 1.6, 13.14 3.2, 10.94 4.23 M20 0 C16.57 1.6, 13.14 3.2, 10.94 4.23 M10.94 4.23 C10.94 2.04, 10.94 -0.15, 10.94 -4.23 M10.94 4.23 C10.94 1.81, 10.94 -0.6, 10.94 -4.23 M10.94 -4.23 C12.85 -3.33, 14.76 -2.44, 20 0 M10.94 -4.23 C12.88 -3.32, 14.82 -2.41, 20 0 M20 0 C20 0, 20 0, 20 0 M20 0 C20 0, 20 0, 20 0" stroke="#e03131" stroke-width="2" fill="none"/></g></g><mask/><g stroke-linecap="round"><g transform="translate(209.63174759714252 209.6317475971423) rotate(0 7.009692141884237 7.00969214188423)"><path d="M0 0 C3.21 3.21, 6.42 6.42, 14.02 14.02 M0 0 C3.59 3.59, 7.18 7.18, 14.02 14.02" stroke="#e03131" stroke-width="2" fill="none"/></g><g transform="translate(209.63174759714252 209.6317475971423) rotate(0 7.009692141884237 7.00969214188423)"><path d="M14.02 14.02 L4.7 10.63 L10.63 4.7 L14.02 14.02" stroke="none" stroke-width="0" fill="#e03131" fill-rule="evenodd"/><path d="M14.02 14.02 C11.88 13.24, 9.75 12.47, 4.7 10.63 M14.02 14.02 C11.63 13.15, 9.25 12.28, 4.7 10.63 M4.7 10.63 C6.29 9.04, 7.88 7.45, 10.63 4.7 M4.7 10.63 C6.81 8.52, 8.92 6.41, 10.63 4.7 M10.63 4.7 C11.83 7.99, 13.02 11.28, 14.02 14.02 M10.63 4.7 C11.97 8.38, 13.3 12.05, 14.02 14.02 M14.02 14.02 C14.02 14.02, 14.02 14.02, 14.02 14.02 M14.02 14.02 C14.02 14.02, 14.02 14.02, 14.02 14.02" stroke="#e03131" stroke-width="2" fill="none"/></g></g><mask/><g stroke-linecap="round"><g transform="translate(210.00000000000023 210) rotate(0 0 10)"><path d="M0 0 C0 4.09, 0 8.18, 0 20 M0 0 C0 5.1, 0 10.2, 0 20" stroke="#e03131" stroke-width="2" fill="none"/></g><g transform="translate(210.00000000000023 210) rotate(0 0 10)"><path d="M0 20 L-4.23 10.94 L4.23 10.94 L0 20" stroke="none" stroke-width="0" fill="#e03131" fill-rule="evenodd"/><path d="M0 20 C-0.86 18.15, -1.73 16.29, -4.23 10.94 M0 20 C-1.08 17.69, -2.16 15.38, -4.23 10.94 M-4.23 10.94 C-0.9 10.94, 2.44 10.94, 4.23 10.94 M-4.23 10.94 C-1.93 10.94, 0.36 10.94, 4.23 10.94 M4.23 10.94 C2.94 13.69, 1.66 16.45, 0 20 M4.23 10.94 C3.21 13.12, 2.19 15.3, 0 20 M0 20 C0 20, 0 20, 0 20 M0 20 C0 20, 0 20, 0 20" stroke="#e03131" stroke-width="2" fill="none"/></g></g><mask/><g stroke-linecap="round"><g transform="translate(210.00000000000023 210) rotate(0 -6.65661340010795 6.65661340010795)"><path d="M0 0 C-5.02 5.02, -10.04 10.04, -13.31 13.31 M0 0 C-5.02 5.02, -10.03 10.03, -13.31 13.31" stroke="#e03131" stroke-width="2" fill="none"/></g><g transform="translate(210.00000000000023 210) rotate(0 -6.65661340010795 6.65661340010795)"><path d="M-13.31 13.31 L-10.09 4.47 L-4.47 10.09 L-13.31 13.31" stroke="none" stroke-width="0" fill="#e03131" fill-rule="evenodd"/><path d="M-13.31 13.31 C-12.1 9.98, -10.89 6.64, -10.09 4.47 M-13.31 13.31 C-12.1 9.98, -10.89 6.65, -10.09 4.47 M-10.09 4.47 C-8.54 6.03, -6.98 7.58, -4.47 10.09 M-10.09 4.47 C-8.21 6.36, -6.32 8.24, -4.47 10.09 M-4.47 10.09 C-7.63 11.25, -10.8 12.4, -13.31 13.31 M-4.47 10.09 C-6.42 10.81, -8.38 11.52, -13.31 13.31 M-13.31 13.31 C-13.31 13.31, -13.31 13.31, -13.31 13.31 M-13.31 13.31 C-13.31 13.31, -13.31 13.31, -13.31 13.31" stroke="#e03131" stroke-width="2" fill="none"/></g></g><mask/><g stroke-linecap="round"><g transform="translate(210.00000000000023 210) rotate(0 -10 0)"><path d="M0 0 C-4.42 0, -8.84 0, -20 0 M0 0 C-5.1 0, -10.19 0, -20 0" stroke="#e03131" stroke-width="2" fill="none"/></g><g transform="translate(210.00000000000023 210) rotate(0 -10 0)"><path d="M-20 0 L-10.94 -4.23 L-10.94 4.23 L-20 0" stroke="none" stroke-width="0" fill="#e03131" fill-rule="evenodd"/><path d="M-20 0 C-18 -0.93, -15.99 -1.87, -10.94 -4.23 M-20 0 C-17.69 -1.08, -15.38 -2.15, -10.94 -4.23 M-10.94 -4.23 C-10.94 -1.6, -10.94 1.03, -10.94 4.23 M-10.94 -4.23 C-10.94 -1.36, -10.94 1.51, -10.94 4.23 M-10.94 4.23 C-13.87 2.86, -16.8 1.49, -20 0 M-10.94 4.23 C-14.54 2.55, -18.14 0.87, -20 0 M-20 0 C-20 0, -20 0, -20 0 M-20 0 C-20 0, -20 0, -20 0" stroke="#e03131" stroke-width="2" fill="none"/></g></g><mask/><g stroke-linecap="round"><g transform="translate(209.29487047697387 210) rotate(0 -6.350202460038027 -6.35020246003802)"><path d="M0 0 C-4.2 -4.2, -8.4 -8.4, -12.7 -12.7 M0 0 C-3.39 -3.39, -6.79 -6.79, -12.7 -12.7" stroke="#e03131" stroke-width="2" fill="none"/></g><g transform="translate(209.29487047697387 210) rotate(0 -6.350202460038027 -6.35020246003802)"><path d="M-12.7 -12.7 L-4.26 -9.63 L-9.63 -4.26 L-12.7 -12.7" stroke="none" stroke-width="0" fill="#e03131" fill-rule="evenodd"/><path d="M-12.7 -12.7 C-9.91 -11.69, -7.12 -10.67, -4.26 -9.63 M-12.7 -12.7 C-10.45 -11.88, -8.19 -11.06, -4.26 -9.63 M-4.26 -9.63 C-5.46 -8.43, -6.67 -7.23, -9.63 -4.26 M-4.26 -9.63 C-6.27 -7.62, -8.28 -5.61, -9.63 -4.26 M-9.63 -4.26 C-10.82 -7.52, -12 -10.78, -12.7 -12.7 M-9.63 -4.26 C-10.55 -6.8, -11.48 -9.34, -12.7 -12.7 M-12.7 -12.7 C-12.7 -12.7, -12.7 -12.7, -12.7 -12.7 M-12.7 -12.7 C-12.7 -12.7, -12.7 -12.7, -12.7 -12.7" stroke="#e03131" stroke-width="2" fill="none"/></g></g><mask/><g stroke-linecap="round"><g transform="translate(50.00000000000023 210) rotate(0 0 -20)"><path d="M0 0 C0 -6.67, 0 -33.33, 0 -40 M0 0 C0 -6.67, 0 -33.33, 0 -40" stroke="#1971c2" stroke-width="2" fill="none"/></g><g transform="translate(50.00000000000023 210) rotate(0 0 -20)"><path d="M0 -40 L6.34 -26.41 L-6.34 -26.41 L0 -40" stroke="none" stroke-width="0" fill="#1971c2" fill-rule="evenodd"/><path d="M0 -40 C2.45 -34.74, 4.91 -29.47, 6.34 -26.41 M0 -40 C1.95 -35.82, 3.89 -31.65, 6.34 -26.41 M6.34 -26.41 C3.11 -26.41, -0.12 -26.41, -6.34 -26.41 M6.34 -26.41 C3.62 -26.41, 0.91 -26.41, -6.34 -26.41 M-6.34 -26.41 C-4.51 -30.34, -2.67 -34.27, 0 -40 M-6.34 -26.41 C-4.9 -29.48, -3.47 -32.56, 0 -40 M0 -40 C0 -40, 0 -40, 0 -40 M0 -40 C0 -40, 0 -40, 0 -40" stroke="#1971c2" stroke-width="2" fill="none"/></g></g><mask/><g stroke-linecap="round"><g transform="translate(50.00000000000023 210) rotate(0 20 0)"><path d="M0 0 C6.67 0, 33.33 0, 40 0 M0 0 C6.67 0, 33.33 0, 40 0" stroke="#1971c2" stroke-width="2" fill="none"/></g><g transform="translate(50.00000000000023 210) rotate(0 20 0)"><path d="M40 0 L26.41 6.34 L26.41 -6.34 L40 0" stroke="none" stroke-width="0" fill="#1971c2" fill-rule="evenodd"/><path d="M40 0 C36.69 1.54, 33.38 3.09, 26.41 6.34 M40 0 C35.17 2.25, 30.35 4.5, 26.41 6.34 M26.41 6.34 C26.41 2.06, 26.41 -2.23, 26.41 -6.34 M26.41 6.34 C26.41 2.11, 26.41 -2.13, 26.41 -6.34 M26.41 -6.34 C29.41 -4.94, 32.41 -3.54, 40 0 M26.41 -6.34 C30.92 -4.24, 35.43 -2.13, 40 0 M40 0 C40 0, 40 0, 40 0 M40 0 C40 0, 40 0, 40 0" stroke="#1971c2" stroke-width="2" fill="none"/></g></g><mask/></svg>