<svg version="1.1" xmlns="http://www.w3.org/2000/svg" viewBox="0 0 306.1065368652344 199.18966674804688" width="306.1065368652344" height="199.18966674804688" filter="invert(93%) hue-rotate(180deg)">
  <!-- svg-source:excalidraw -->
  
  <defs>
    <style class="style-fonts">
      @font-face {
        font-family: "Virgil";
        src: url("https://excalidraw.com/Virgil.woff2");
      }
      @font-face {
        font-family: "Cascadia";
        src: url("https://excalidraw.com/Cascadia.woff2");
      }
    </style>
  </defs>
  <rect x="0" y="0" width="306.1065368652344" height="199.18966674804688" fill="transparent"/><g transform="translate(181.37057495117188 10) rotate(0 6.5234375 11.5)"><text x="0" y="0" font-family="Helvetica, Segoe UI Emoji" font-size="20px" fill="#000000" text-anchor="start" style="white-space: pre;" direction="ltr" dominant-baseline="text-before-edge">A</text></g><g stroke-linecap="round" transform="translate(167.58627319335938 30.509246826171875) rotate(0 6.8588104248046875 6.8588104248046875)"><path d="M13.72 6.86 C13.72 7.26, 13.68 7.66, 13.61 8.05 C13.54 8.44, 13.44 8.83, 13.3 9.2 C13.17 9.58, 13 9.94, 12.8 10.29 C12.6 10.63, 12.37 10.96, 12.11 11.27 C11.86 11.57, 11.57 11.86, 11.27 12.11 C10.96 12.37, 10.63 12.6, 10.29 12.8 C9.94 13, 9.58 13.17, 9.2 13.3 C8.83 13.44, 8.44 13.54, 8.05 13.61 C7.66 13.68, 7.26 13.72, 6.86 13.72 C6.46 13.72, 6.06 13.68, 5.67 13.61 C5.28 13.54, 4.89 13.44, 4.51 13.3 C4.14 13.17, 3.77 13, 3.43 12.8 C3.09 12.6, 2.75 12.37, 2.45 12.11 C2.15 11.86, 1.86 11.57, 1.6 11.27 C1.35 10.96, 1.12 10.63, 0.92 10.29 C0.72 9.94, 0.55 9.58, 0.41 9.2 C0.28 8.83, 0.17 8.44, 0.1 8.05 C0.04 7.66, 0 7.26, 0 6.86 C0 6.46, 0.04 6.06, 0.1 5.67 C0.17 5.28, 0.28 4.89, 0.41 4.51 C0.55 4.14, 0.72 3.77, 0.92 3.43 C1.12 3.09, 1.35 2.75, 1.6 2.45 C1.86 2.15, 2.15 1.86, 2.45 1.6 C2.75 1.35, 3.09 1.12, 3.43 0.92 C3.77 0.72, 4.14 0.55, 4.51 0.41 C4.89 0.28, 5.28 0.17, 5.67 0.1 C6.06 0.04, 6.46 0, 6.86 0 C7.26 0, 7.66 0.04, 8.05 0.1 C8.44 0.17, 8.83 0.28, 9.2 0.41 C9.58 0.55, 9.94 0.72, 10.29 0.92 C10.63 1.12, 10.96 1.35, 11.27 1.6 C11.57 1.86, 11.86 2.15, 12.11 2.45 C12.37 2.75, 12.6 3.09, 12.8 3.43 C13 3.77, 13.17 4.14, 13.3 4.51 C13.44 4.89, 13.54 5.28, 13.61 5.67 C13.68 6.06, 13.7 6.66, 13.72 6.86 C13.73 7.06, 13.73 6.66, 13.72 6.86" stroke="none" stroke-width="0" fill="#868e96"/><path d="M13.72 6.86 C13.72 7.26, 13.68 7.66, 13.61 8.05 C13.54 8.44, 13.44 8.83, 13.3 9.2 C13.17 9.58, 13 9.94, 12.8 10.29 C12.6 10.63, 12.37 10.96, 12.11 11.27 C11.86 11.57, 11.57 11.86, 11.27 12.11 C10.96 12.37, 10.63 12.6, 10.29 12.8 C9.94 13, 9.58 13.17, 9.2 13.3 C8.83 13.44, 8.44 13.54, 8.05 13.61 C7.66 13.68, 7.26 13.72, 6.86 13.72 C6.46 13.72, 6.06 13.68, 5.67 13.61 C5.28 13.54, 4.89 13.44, 4.51 13.3 C4.14 13.17, 3.77 13, 3.43 12.8 C3.09 12.6, 2.75 12.37, 2.45 12.11 C2.15 11.86, 1.86 11.57, 1.6 11.27 C1.35 10.96, 1.12 10.63, 0.92 10.29 C0.72 9.94, 0.55 9.58, 0.41 9.2 C0.28 8.83, 0.17 8.44, 0.1 8.05 C0.04 7.66, 0 7.26, 0 6.86 C0 6.46, 0.04 6.06, 0.1 5.67 C0.17 5.28, 0.28 4.89, 0.41 4.51 C0.55 4.14, 0.72 3.77, 0.92 3.43 C1.12 3.09, 1.35 2.75, 1.6 2.45 C1.86 2.15, 2.15 1.86, 2.45 1.6 C2.75 1.35, 3.09 1.12, 3.43 0.92 C3.77 0.72, 4.14 0.55, 4.51 0.41 C4.89 0.28, 5.28 0.17, 5.67 0.1 C6.06 0.04, 6.46 0, 6.86 0 C7.26 0, 7.66 0.04, 8.05 0.1 C8.44 0.17, 8.83 0.28, 9.2 0.41 C9.58 0.55, 9.94 0.72, 10.29 0.92 C10.63 1.12, 10.96 1.35, 11.27 1.6 C11.57 1.86, 11.86 2.15, 12.11 2.45 C12.37 2.75, 12.6 3.09, 12.8 3.43 C13 3.77, 13.17 4.14, 13.3 4.51 C13.44 4.89, 13.54 5.28, 13.61 5.67 C13.68 6.06, 13.7 6.66, 13.72 6.86 C13.73 7.06, 13.73 6.66, 13.72 6.86" stroke="#000000" stroke-width="1" fill="none"/></g><g stroke-linecap="round"><g transform="translate(174.37857055664062 37.60101318359375) rotate(0 55.90266418457031 0)"><path d="M0 0 C22.4 0, 44.79 0, 111.81 0 M0 0 C39.23 0, 78.47 0, 111.81 0" stroke="#c92a2a" stroke-width="1" fill="none"/></g><g transform="translate(174.37857055664062 37.60101318359375) rotate(0 55.90266418457031 0)"><path d="M111.81 0 L98.21 6.34 L98.21 -6.34 L111.81 0" stroke="none" stroke-width="0" fill="#c92a2a" fill-rule="evenodd"/><path d="M111.81 0 C109.08 1.27, 106.36 2.54, 98.21 6.34 M111.81 0 C107.03 2.22, 102.26 4.45, 98.21 6.34 M98.21 6.34 C98.21 2.06, 98.21 -2.23, 98.21 -6.34 M98.21 6.34 C98.21 3.21, 98.21 0.09, 98.21 -6.34 M98.21 -6.34 C101.37 -4.86, 104.54 -3.39, 111.81 0 M98.21 -6.34 C101.06 -5.01, 103.91 -3.68, 111.81 0 M111.81 0 C111.81 0, 111.81 0, 111.81 0 M111.81 0 C111.81 0, 111.81 0, 111.81 0" stroke="#c92a2a" stroke-width="1" fill="none"/></g></g><mask/><g transform="translate(285.0518493652344 14.128570556640625) rotate(0 5.52734375 11.5)"><text x="0" y="0" font-family="Helvetica, Segoe UI Emoji" font-size="20px" fill="#c92a2a" text-anchor="start" style="white-space: pre;" direction="ltr" dominant-baseline="text-before-edge">F</text></g><g stroke-linecap="round"><g transform="translate(119.40809631347656 81.64926147460938) rotate(0 27.435287475585938 10.487686157226562)"><path d="M0 0 C3.6 3.1, 12.46 15.12, 21.61 18.61 C30.75 22.11, 49.33 20.58, 54.87 20.98 M0 0 C3.6 3.1, 12.46 15.12, 21.61 18.61 C30.75 22.11, 49.33 20.58, 54.87 20.98" stroke="#c92a2a" stroke-width="1" fill="none"/></g></g><mask/><g transform="translate(145.94436645507812 67.93206787109375) rotate(0 11.240234375 11.5)"><text x="0" y="0" font-family="Helvetica, Segoe UI Emoji" font-size="20px" fill="#c92a2a" text-anchor="start" style="white-space: pre;" direction="ltr" dominant-baseline="text-before-edge">60</text></g><g stroke-linecap="round"><g transform="translate(174.57826232910156 37.1015625) rotate(0 0 76.04405212402344)"><path d="M0 0 C0 25.35, 0 126.74, 0 152.09 M0 0 C0 25.35, 0 126.74, 0 152.09" stroke="#c92a2a" stroke-width="1" fill="none"/></g><g transform="translate(174.57826232910156 37.1015625) rotate(0 0 76.04405212402344)"><path d="M0 152.09 L-6.34 138.49 L6.34 138.49 L0 152.09" stroke="none" stroke-width="0" fill="#c92a2a" fill-rule="evenodd"/><path d="M0 152.09 C-1.98 147.84, -3.96 143.6, -6.34 138.49 M0 152.09 C-2.13 147.51, -4.27 142.94, -6.34 138.49 M-6.34 138.49 C-3.62 138.49, -0.89 138.49, 6.34 138.49 M-6.34 138.49 C-1.64 138.49, 3.07 138.49, 6.34 138.49 M6.34 138.49 C5.06 141.24, 3.78 143.98, 0 152.09 M6.34 138.49 C5.06 141.25, 3.77 144, 0 152.09 M0 152.09 C0 152.09, 0 152.09, 0 152.09 M0 152.09 C0 152.09, 0 152.09, 0 152.09" stroke="#c92a2a" stroke-width="1" fill="none"/></g></g><mask/><g stroke-linecap="round"><g transform="translate(173.54611206054688 38.36674499511719) rotate(0 -81.77305603027344 62.31019592285156)"><path d="M0 0 C-27.26 20.77, -136.29 103.85, -163.55 124.62 M0 0 C-27.26 20.77, -136.29 103.85, -163.55 124.62" stroke="#c92a2a" stroke-width="1" fill="none"/></g><g transform="translate(173.54611206054688 38.36674499511719) rotate(0 -81.77305603027344 62.31019592285156)"><path d="M-163.55 124.62 L-156.58 111.34 L-148.89 121.42 L-163.55 124.62" stroke="none" stroke-width="0" fill="#c92a2a" fill-rule="evenodd"/><path d="M-163.55 124.62 C-161.7 121.11, -159.86 117.6, -156.58 111.34 M-163.55 124.62 C-161.86 121.41, -160.17 118.2, -156.58 111.34 M-156.58 111.34 C-154.89 113.55, -153.2 115.76, -148.89 121.42 M-156.58 111.34 C-153.81 114.97, -151.05 118.59, -148.89 121.42 M-148.89 121.42 C-153.72 122.48, -158.55 123.53, -163.55 124.62 M-148.89 121.42 C-154.61 122.67, -160.34 123.92, -163.55 124.62 M-163.55 124.62 C-163.55 124.62, -163.55 124.62, -163.55 124.62 M-163.55 124.62 C-163.55 124.62, -163.55 124.62, -163.55 124.62" stroke="#c92a2a" stroke-width="1" fill="none"/></g></g><mask/><g transform="translate(194.95498657226562 139.51467895507812) rotate(0 12.75390625 11.5)"><text x="0" y="0" font-family="Helvetica, Segoe UI Emoji" font-size="20px" fill="#c92a2a" text-anchor="start" style="white-space: pre;" direction="ltr" dominant-baseline="text-before-edge">AB</text></g><g transform="translate(69.23220825195312 71.3946533203125) rotate(0 12.978515625 11.5)"><text x="0" y="0" font-family="Helvetica, Segoe UI Emoji" font-size="20px" fill="#c92a2a" text-anchor="start" style="white-space: pre;" direction="ltr" dominant-baseline="text-before-edge">AC</text></g></svg>