<svg version="1.1" xmlns="http://www.w3.org/2000/svg" viewBox="0 0 166.28396626322876 269.26459437590984" width="166.28396626322876" height="269.26459437590984" filter="invert(93%) hue-rotate(180deg)" class="excalidraw-svg">
  <!-- svg-source:excalidraw -->
  
  <defs>
    <style class="style-fonts">
      @font-face {
        font-family: "Virgil";
        src: url("https://excalidraw.com/Virgil.woff2");
      }
      @font-face {
        font-family: "Cascadia";
        src: url("https://excalidraw.com/Cascadia.woff2");
      }
      @font-face {
        font-family: "Assistant";
        src: url("https://excalidraw.com/Assistant-Regular.woff2");
      }
    </style>
    
  </defs>
  <g stroke-linecap="round"><g transform="translate(146.4822522302726 258.78306704312956) rotate(0 -40.19828596704386 -99.51847266721967)" fill-rule="evenodd"><path d="M0 0 L-9.71 -1.44 L-19.23 -3.82 L-28.47 -7.13 L-37.34 -11.33 L-45.76 -16.37 L-53.64 -22.22 L-60.91 -28.81 L-67.5 -36.08 L-73.35 -43.96 L-78.39 -52.38 L-82.59 -61.25 L-85.89 -70.49 L-88.28 -80.01 L-89.72 -89.72 L-90.2 -99.52 L-89.72 -109.32 L-88.28 -119.03 L-85.89 -128.55 L-82.59 -137.79 L-78.39 -146.66 L-73.35 -155.08 L-67.5 -162.96 L-60.91 -170.23 L-53.64 -176.82 L-45.76 -182.67 L-37.34 -187.71 L-28.47 -191.91 L-19.23 -195.21 L-9.71 -197.6 L0 -199.04 L9.8 -199.52 L9.8 -185.23 L1.4 -184.82 L-6.92 -183.59 L-15.08 -181.54 L-23 -178.71 L-30.6 -175.11 L-37.82 -170.79 L-44.57 -165.78 L-50.81 -160.13 L-56.46 -153.9 L-61.47 -147.14 L-65.79 -139.92 L-69.39 -132.32 L-72.22 -124.4 L-74.27 -116.24 L-75.5 -107.92 L-75.91 -99.52 L-75.5 -91.12 L-74.27 -82.8 L-72.22 -74.64 L-69.39 -66.72 L-65.79 -59.11 L-61.47 -51.9 L-56.46 -45.14 L-50.81 -38.91 L-44.57 -33.26 L-37.82 -28.25 L-30.6 -23.93 L-23 -20.33 L-15.08 -17.5 L-6.92 -15.45 L1.4 -14.22 L9.8 -13.8 L9.8 0.48 L0 0" stroke="none" stroke-width="0" fill="#a5d8ff" fill-rule="evenodd"/><path d="M0 0 C-3.54 -0.52, -7.07 -1.05, -9.71 -1.44 M0 0 C-2.62 -0.39, -5.24 -0.78, -9.71 -1.44 M-9.71 -1.44 C-13.1 -2.29, -16.5 -3.14, -19.23 -3.82 M-9.71 -1.44 C-12.32 -2.09, -14.93 -2.75, -19.23 -3.82 M-19.23 -3.82 C-21.31 -4.57, -23.4 -5.32, -28.47 -7.13 M-19.23 -3.82 C-22.8 -5.1, -26.38 -6.38, -28.47 -7.13 M-28.47 -7.13 C-30.56 -8.12, -32.65 -9.11, -37.34 -11.33 M-28.47 -7.13 C-30.55 -8.12, -32.63 -9.1, -37.34 -11.33 M-37.34 -11.33 C-40.59 -13.28, -43.85 -15.23, -45.76 -16.37 M-37.34 -11.33 C-40.7 -13.34, -44.06 -15.36, -45.76 -16.37 M-45.76 -16.37 C-48.77 -18.61, -51.78 -20.84, -53.64 -22.22 M-45.76 -16.37 C-48.51 -18.42, -51.27 -20.46, -53.64 -22.22 M-53.64 -22.22 C-56.53 -24.84, -59.42 -27.46, -60.91 -28.81 M-53.64 -22.22 C-56.35 -24.68, -59.06 -27.13, -60.91 -28.81 M-60.91 -28.81 C-62.56 -30.63, -64.21 -32.45, -67.5 -36.08 M-60.91 -28.81 C-62.92 -31.03, -64.94 -33.25, -67.5 -36.08 M-67.5 -36.08 C-69.65 -38.97, -71.79 -41.87, -73.35 -43.96 M-67.5 -36.08 C-69.05 -38.17, -70.6 -40.26, -73.35 -43.96 M-73.35 -43.96 C-75.13 -46.94, -76.92 -49.92, -78.39 -52.38 M-73.35 -43.96 C-75.27 -47.17, -77.19 -50.37, -78.39 -52.38 M-78.39 -52.38 C-79.92 -55.61, -81.45 -58.84, -82.59 -61.25 M-78.39 -52.38 C-79.75 -55.26, -81.11 -58.13, -82.59 -61.25 M-82.59 -61.25 C-83.47 -63.71, -84.35 -66.18, -85.89 -70.49 M-82.59 -61.25 C-83.39 -63.49, -84.19 -65.74, -85.89 -70.49 M-85.89 -70.49 C-86.41 -72.55, -86.92 -74.6, -88.28 -80.01 M-85.89 -70.49 C-86.58 -73.24, -87.27 -75.99, -88.28 -80.01 M-88.28 -80.01 C-88.59 -82.15, -88.91 -84.29, -89.72 -89.72 M-88.28 -80.01 C-88.78 -83.42, -89.29 -86.82, -89.72 -89.72 M-89.72 -89.72 C-89.87 -92.76, -90.02 -95.8, -90.2 -99.52 M-89.72 -89.72 C-89.9 -93.51, -90.09 -97.31, -90.2 -99.52 M-90.2 -99.52 C-90.05 -102.53, -89.9 -105.55, -89.72 -109.32 M-90.2 -99.52 C-90.03 -102.99, -89.86 -106.47, -89.72 -109.32 M-89.72 -109.32 C-89.15 -113.14, -88.58 -116.96, -88.28 -119.03 M-89.72 -109.32 C-89.23 -112.62, -88.74 -115.92, -88.28 -119.03 M-88.28 -119.03 C-87.61 -121.69, -86.95 -124.34, -85.89 -128.55 M-88.28 -119.03 C-87.58 -121.82, -86.88 -124.61, -85.89 -128.55 M-85.89 -128.55 C-84.66 -131.98, -83.43 -135.42, -82.59 -137.79 M-85.89 -128.55 C-84.71 -131.85, -83.53 -135.15, -82.59 -137.79 M-82.59 -137.79 C-81.13 -140.86, -79.68 -143.93, -78.39 -146.66 M-82.59 -137.79 C-80.91 -141.32, -79.24 -144.86, -78.39 -146.66 M-78.39 -146.66 C-76.82 -149.27, -75.25 -151.89, -73.35 -155.08 M-78.39 -146.66 C-76.68 -149.52, -74.96 -152.38, -73.35 -155.08 M-73.35 -155.08 C-71.13 -158.06, -68.92 -161.04, -67.5 -162.96 M-73.35 -155.08 C-71.64 -157.37, -69.94 -159.67, -67.5 -162.96 M-67.5 -162.96 C-65.95 -164.66, -64.41 -166.37, -60.91 -170.23 M-67.5 -162.96 C-65.65 -164.99, -63.81 -167.03, -60.91 -170.23 M-60.91 -170.23 C-58.69 -172.24, -56.46 -174.26, -53.64 -176.82 M-60.91 -170.23 C-58.12 -172.76, -55.33 -175.28, -53.64 -176.82 M-53.64 -176.82 C-51.05 -178.74, -48.47 -180.65, -45.76 -182.67 M-53.64 -176.82 C-51.59 -178.34, -49.55 -179.85, -45.76 -182.67 M-45.76 -182.67 C-43.09 -184.26, -40.43 -185.86, -37.34 -187.71 M-45.76 -182.67 C-43.42 -184.07, -41.08 -185.47, -37.34 -187.71 M-37.34 -187.71 C-34.38 -189.11, -31.41 -190.51, -28.47 -191.91 M-37.34 -187.71 C-35.11 -188.76, -32.88 -189.82, -28.47 -191.91 M-28.47 -191.91 C-26.07 -192.76, -23.68 -193.62, -19.23 -195.21 M-28.47 -191.91 C-25.07 -193.12, -21.68 -194.33, -19.23 -195.21 M-19.23 -195.21 C-15.84 -196.06, -12.46 -196.91, -9.71 -197.6 M-19.23 -195.21 C-16.19 -195.97, -13.16 -196.73, -9.71 -197.6 M-9.71 -197.6 C-7.37 -197.94, -5.03 -198.29, 0 -199.04 M-9.71 -197.6 C-7.42 -197.94, -5.13 -198.28, 0 -199.04 M0 -199.04 C2.5 -199.16, 5 -199.28, 9.8 -199.52 M0 -199.04 C2.12 -199.14, 4.24 -199.25, 9.8 -199.52 M9.8 -199.52 C9.8 -196.24, 9.8 -192.96, 9.8 -185.23 M9.8 -199.52 C9.8 -195.83, 9.8 -192.14, 9.8 -185.23 M9.8 -185.23 C7.66 -185.13, 5.53 -185.02, 1.4 -184.82 M9.8 -185.23 C6.53 -185.07, 3.27 -184.91, 1.4 -184.82 M1.4 -184.82 C-0.68 -184.51, -2.77 -184.2, -6.92 -183.59 M1.4 -184.82 C-1.92 -184.33, -5.24 -183.83, -6.92 -183.59 M-6.92 -183.59 C-9.65 -182.9, -12.38 -182.22, -15.08 -181.54 M-6.92 -183.59 C-9.95 -182.83, -12.99 -182.07, -15.08 -181.54 M-15.08 -181.54 C-18.17 -180.44, -21.25 -179.33, -23 -178.71 M-15.08 -181.54 C-16.78 -180.93, -18.48 -180.33, -23 -178.71 M-23 -178.71 C-24.79 -177.86, -26.57 -177.02, -30.6 -175.11 M-23 -178.71 C-25.97 -177.3, -28.94 -175.9, -30.6 -175.11 M-30.6 -175.11 C-33.43 -173.42, -36.27 -171.72, -37.82 -170.79 M-30.6 -175.11 C-32.41 -174.03, -34.22 -172.94, -37.82 -170.79 M-37.82 -170.79 C-39.55 -169.5, -41.28 -168.22, -44.57 -165.78 M-37.82 -170.79 C-40.27 -168.97, -42.72 -167.15, -44.57 -165.78 M-44.57 -165.78 C-46.21 -164.29, -47.85 -162.81, -50.81 -160.13 M-44.57 -165.78 C-46.1 -164.4, -47.62 -163.02, -50.81 -160.13 M-50.81 -160.13 C-52.26 -158.52, -53.72 -156.92, -56.46 -153.9 M-50.81 -160.13 C-52.47 -158.29, -54.14 -156.46, -56.46 -153.9 M-56.46 -153.9 C-57.78 -152.1, -59.11 -150.31, -61.47 -147.14 M-56.46 -153.9 C-58.08 -151.71, -59.7 -149.52, -61.47 -147.14 M-61.47 -147.14 C-62.58 -145.28, -63.69 -143.43, -65.79 -139.92 M-61.47 -147.14 C-62.7 -145.08, -63.93 -143.03, -65.79 -139.92 M-65.79 -139.92 C-66.95 -137.47, -68.11 -135.02, -69.39 -132.32 M-65.79 -139.92 C-66.53 -138.36, -67.27 -136.79, -69.39 -132.32 M-69.39 -132.32 C-70.05 -130.47, -70.71 -128.63, -72.22 -124.4 M-69.39 -132.32 C-70.3 -129.77, -71.21 -127.23, -72.22 -124.4 M-72.22 -124.4 C-72.66 -122.63, -73.11 -120.86, -74.27 -116.24 M-72.22 -124.4 C-72.63 -122.76, -73.04 -121.12, -74.27 -116.24 M-74.27 -116.24 C-74.66 -113.56, -75.06 -110.88, -75.5 -107.92 M-74.27 -116.24 C-74.62 -113.88, -74.97 -111.52, -75.5 -107.92 M-75.5 -107.92 C-75.66 -104.64, -75.82 -101.36, -75.91 -99.52 M-75.5 -107.92 C-75.59 -106.17, -75.67 -104.43, -75.91 -99.52 M-75.91 -99.52 C-75.82 -97.66, -75.73 -95.79, -75.5 -91.12 M-75.91 -99.52 C-75.77 -96.65, -75.63 -93.78, -75.5 -91.12 M-75.5 -91.12 C-75.07 -88.25, -74.65 -85.37, -74.27 -82.8 M-75.5 -91.12 C-75.11 -88.48, -74.72 -85.85, -74.27 -82.8 M-74.27 -82.8 C-73.47 -79.64, -72.68 -76.48, -72.22 -74.64 M-74.27 -82.8 C-73.54 -79.9, -72.81 -76.99, -72.22 -74.64 M-72.22 -74.64 C-71.54 -72.73, -70.86 -70.82, -69.39 -66.72 M-72.22 -74.64 C-71.63 -72.99, -71.05 -71.35, -69.39 -66.72 M-69.39 -66.72 C-68.55 -64.94, -67.7 -63.15, -65.79 -59.11 M-69.39 -66.72 C-68.39 -64.62, -67.4 -62.51, -65.79 -59.11 M-65.79 -59.11 C-64.5 -56.96, -63.21 -54.81, -61.47 -51.9 M-65.79 -59.11 C-64.27 -56.57, -62.74 -54.02, -61.47 -51.9 M-61.47 -51.9 C-59.78 -49.62, -58.08 -47.34, -56.46 -45.14 M-61.47 -51.9 C-59.73 -49.56, -58 -47.23, -56.46 -45.14 M-56.46 -45.14 C-54.22 -42.67, -51.97 -40.2, -50.81 -38.91 M-56.46 -45.14 C-55.25 -43.81, -54.04 -42.48, -50.81 -38.91 M-50.81 -38.91 C-49.37 -37.6, -47.93 -36.3, -44.57 -33.26 M-50.81 -38.91 C-48.96 -37.24, -47.12 -35.56, -44.57 -33.26 M-44.57 -33.26 C-42.72 -31.88, -40.86 -30.51, -37.82 -28.25 M-44.57 -33.26 C-42.93 -32.04, -41.29 -30.82, -37.82 -28.25 M-37.82 -28.25 C-36.31 -27.35, -34.81 -26.44, -30.6 -23.93 M-37.82 -28.25 C-35.29 -26.74, -32.77 -25.22, -30.6 -23.93 M-30.6 -23.93 C-28.09 -22.74, -25.58 -21.55, -23 -20.33 M-30.6 -23.93 C-28.44 -22.9, -26.27 -21.88, -23 -20.33 M-23 -20.33 C-20.44 -19.41, -17.88 -18.5, -15.08 -17.5 M-23 -20.33 C-21.25 -19.7, -19.49 -19.07, -15.08 -17.5 M-15.08 -17.5 C-13.27 -17.04, -11.46 -16.59, -6.92 -15.45 M-15.08 -17.5 C-12.05 -16.74, -9.02 -15.98, -6.92 -15.45 M-6.92 -15.45 C-3.71 -14.97, -0.49 -14.5, 1.4 -14.22 M-6.92 -15.45 C-4.31 -15.06, -1.69 -14.68, 1.4 -14.22 M1.4 -14.22 C3.63 -14.11, 5.87 -14, 9.8 -13.8 M1.4 -14.22 C4.16 -14.08, 6.92 -13.95, 9.8 -13.8 M9.8 -13.8 C9.8 -8.51, 9.8 -3.22, 9.8 0.48 M9.8 -13.8 C9.8 -9.19, 9.8 -4.57, 9.8 0.48 M9.8 0.48 C7.46 0.37, 5.13 0.25, 0 0 M9.8 0.48 C6.17 0.3, 2.54 0.12, 0 0 M0 0 C0 0, 0 0, 0 0 M0 0 C0 0, 0 0, 0 0" stroke="#1e1e1e" stroke-width="4" fill="none"/></g></g><mask/><g stroke-linecap="round"><g transform="translate(155.03756973832145 59.264594375909866) rotate(0 -42.664390236673924 -24.632297187954933)"><path d="M0 0 C-30.65 -17.7, -61.3 -35.39, -85.33 -49.26 M0 0 C-21.12 -12.2, -42.25 -24.39, -85.33 -49.26" stroke="#1e1e1e" stroke-width="2" fill="none"/></g></g><mask/><g stroke-linecap="round"><g transform="translate(156.2839662632287 245.38610737590986) rotate(0 -36.35738976635121 -20.990948768635015)"><path d="M0 0 C-15.39 -8.89, -30.79 -17.78, -72.71 -41.98 M0 0 C-26.92 -15.54, -53.83 -31.08, -72.71 -41.98" stroke="#1e1e1e" stroke-width="2" fill="none"/></g></g><mask/><g stroke-linecap="round"><g transform="translate(106.22503665564729 245.5931391191618) rotate(0 -48.11251832782364 -27.77777540795978)"><path d="M0 0 C-27.75 -16.02, -55.5 -32.04, -96.23 -55.56 M0 0 C-37.53 -21.67, -75.05 -43.33, -96.23 -55.56" stroke="#1e1e1e" stroke-width="2" fill="none"/></g></g><mask/><g stroke-linecap="round"><g transform="translate(140.4899472311909 68.75622400609384) rotate(0 -6.482016363105927 1.1273358428064029)"><path d="M0 0 C-4.83 0.84, -9.67 1.68, -12.96 2.25 M0 0 C-3.24 0.56, -6.49 1.13, -12.96 2.25" stroke="#e03131" stroke-width="4" fill="none"/></g><g transform="translate(140.4899472311909 68.75622400609384) rotate(0 -6.482016363105927 1.1273358428064029)"><path d="M-12.96 2.25 L-7.57 -1.51 L-6.61 3.97 L-12.96 2.25" stroke="none" stroke-width="0" fill="#e03131" fill-rule="evenodd"/><path d="M-12.96 2.25 C-10.95 0.85, -8.94 -0.55, -7.57 -1.51 M-12.96 2.25 C-11.61 1.31, -10.26 0.37, -7.57 -1.51 M-7.57 -1.51 C-7.27 0.17, -6.98 1.84, -6.61 3.97 M-7.57 -1.51 C-7.22 0.51, -6.87 2.52, -6.61 3.97 M-6.61 3.97 C-8.3 3.52, -9.98 3.06, -12.96 2.25 M-6.61 3.97 C-8.86 3.36, -11.11 2.76, -12.96 2.25 M-12.96 2.25 C-12.96 2.25, -12.96 2.25, -12.96 2.25 M-12.96 2.25 C-12.96 2.25, -12.96 2.25, -12.96 2.25" stroke="#e03131" stroke-width="4" fill="none"/></g></g><mask/><g stroke-linecap="round"><g transform="translate(116.65995400055063 74.76857133861934) rotate(0 -9.56667571758819 6.24727078343976)"><path d="M0 0 C-4.68 3.05, -9.35 6.11, -19.13 12.49 M0 0 C-6.68 4.36, -13.36 8.72, -19.13 12.49" stroke="#e03131" stroke-width="4" fill="none"/></g><g transform="translate(116.65995400055063 74.76857133861934) rotate(0 -9.56667571758819 6.24727078343976)"><path d="M-19.13 12.49 L-13.1 2.79 L-7.82 10.88 L-19.13 12.49" stroke="none" stroke-width="0" fill="#e03131" fill-rule="evenodd"/><path d="M-19.13 12.49 C-17.66 10.12, -16.19 7.75, -13.1 2.79 M-19.13 12.49 C-17.03 9.11, -14.92 5.72, -13.1 2.79 M-13.1 2.79 C-11.41 5.39, -9.71 7.98, -7.82 10.88 M-13.1 2.79 C-11.23 5.66, -9.35 8.53, -7.82 10.88 M-7.82 10.88 C-12.2 11.5, -16.58 12.13, -19.13 12.49 M-7.82 10.88 C-11.94 11.47, -16.06 12.06, -19.13 12.49 M-19.13 12.49 C-19.13 12.49, -19.13 12.49, -19.13 12.49 M-19.13 12.49 C-19.13 12.49, -19.13 12.49, -19.13 12.49" stroke="#e03131" stroke-width="4" fill="none"/></g></g><mask/><g stroke-linecap="round"><g transform="translate(88.79008430284686 96.93896114413036) rotate(0 -8.861901322317046 12.071786077982708)"><path d="M0 0 C-4.83 6.58, -9.66 13.16, -17.72 24.14 M0 0 C-3.7 5.04, -7.41 10.09, -17.72 24.14" stroke="#e03131" stroke-width="4" fill="none"/></g><g transform="translate(88.79008430284686 96.93896114413036) rotate(0 -8.861901322317046 12.071786077982708)"><path d="M-17.72 24.14 L-14.79 9.46 L-4.59 16.95 L-17.72 24.14" stroke="none" stroke-width="0" fill="#e03131" fill-rule="evenodd"/><path d="M-17.72 24.14 C-16.93 20.14, -16.13 16.14, -14.79 9.46 M-17.72 24.14 C-17.11 21.08, -16.5 18.01, -14.79 9.46 M-14.79 9.46 C-11.39 11.96, -7.99 14.46, -4.59 16.95 M-14.79 9.46 C-11.36 11.97, -7.94 14.49, -4.59 16.95 M-4.59 16.95 C-8.35 19.01, -12.11 21.07, -17.72 24.14 M-4.59 16.95 C-7.68 18.64, -10.78 20.34, -17.72 24.14 M-17.72 24.14 C-17.72 24.14, -17.72 24.14, -17.72 24.14 M-17.72 24.14 C-17.72 24.14, -17.72 24.14, -17.72 24.14" stroke="#e03131" stroke-width="4" fill="none"/></g></g><mask/><g stroke-linecap="round"><g transform="translate(66.71354583587326 129.09909343081054) rotate(0 -2.2389785904972754 22.8280687453221)"><path d="M0 0 C-1.19 12.15, -2.38 24.31, -4.48 45.66 M0 0 C-1.23 12.53, -2.46 25.07, -4.48 45.66" stroke="#e03131" stroke-width="4" fill="none"/></g><g transform="translate(66.71354583587326 129.09909343081054) rotate(0 -2.2389785904972754 22.8280687453221)"><path d="M-4.48 45.66 L-9.46 31.51 L3.16 32.75 L-4.48 45.66" stroke="none" stroke-width="0" fill="#e03131" fill-rule="evenodd"/><path d="M-4.48 45.66 C-5.8 41.89, -7.13 38.12, -9.46 31.51 M-4.48 45.66 C-5.85 41.77, -7.21 37.89, -9.46 31.51 M-9.46 31.51 C-6.66 31.78, -3.86 32.06, 3.16 32.75 M-9.46 31.51 C-4.43 32, 0.61 32.5, 3.16 32.75 M3.16 32.75 C0.61 37.05, -1.94 41.36, -4.48 45.66 M3.16 32.75 C0.15 37.83, -2.85 42.91, -4.48 45.66 M-4.48 45.66 C-4.48 45.66, -4.48 45.66, -4.48 45.66 M-4.48 45.66 C-4.48 45.66, -4.48 45.66, -4.48 45.66" stroke="#e03131" stroke-width="4" fill="none"/></g></g><mask/><g stroke-linecap="round"><g transform="translate(85.84654152855344 220.19232805513343) rotate(0 13.559270772886762 11.539146583050197)"><path d="M0 0 C7.39 6.29, 14.77 12.57, 27.12 23.08 M0 0 C9.98 8.49, 19.96 16.99, 27.12 23.08" stroke="#e03131" stroke-width="4" fill="none"/></g><g transform="translate(85.84654152855344 220.19232805513343) rotate(0 13.559270772886762 11.539146583050197)"><path d="M27.12 23.08 L12.66 19.1 L20.87 9.44 L27.12 23.08" stroke="none" stroke-width="0" fill="#e03131" fill-rule="evenodd"/><path d="M27.12 23.08 C23.18 21.99, 19.24 20.91, 12.66 19.1 M27.12 23.08 C21.8 21.61, 16.47 20.15, 12.66 19.1 M12.66 19.1 C14.6 16.81, 16.55 14.52, 20.87 9.44 M12.66 19.1 C15.08 16.24, 17.51 13.39, 20.87 9.44 M20.87 9.44 C22.18 12.28, 23.48 15.12, 27.12 23.08 M20.87 9.44 C22.67 13.37, 24.47 17.29, 27.12 23.08 M27.12 23.08 C27.12 23.08, 27.12 23.08, 27.12 23.08 M27.12 23.08 C27.12 23.08, 27.12 23.08, 27.12 23.08" stroke="#e03131" stroke-width="4" fill="none"/></g></g><mask/><g stroke-linecap="round"><g transform="translate(121.79538799493794 244.42974346457953) rotate(0 9.362964628185267 4.0708907446849025)"><path d="M0 0 C3.85 1.67, 7.7 3.35, 18.73 8.14 M0 0 C4.27 1.85, 8.53 3.71, 18.73 8.14" stroke="#e03131" stroke-width="4" fill="none"/></g><g transform="translate(121.79538799493794 244.42974346457953) rotate(0 9.362964628185267 4.0708907446849025)"><path d="M18.73 8.14 L8.52 8.41 L11.96 0.5 L18.73 8.14" stroke="none" stroke-width="0" fill="#e03131" fill-rule="evenodd"/><path d="M18.73 8.14 C16.63 8.2, 14.53 8.25, 8.52 8.41 M18.73 8.14 C16.4 8.2, 14.08 8.26, 8.52 8.41 M8.52 8.41 C9.59 5.94, 10.67 3.46, 11.96 0.5 M8.52 8.41 C9.85 5.35, 11.18 2.3, 11.96 0.5 M11.96 0.5 C14.45 3.31, 16.93 6.12, 18.73 8.14 M11.96 0.5 C13.36 2.08, 14.76 3.65, 18.73 8.14 M18.73 8.14 C18.73 8.14, 18.73 8.14, 18.73 8.14 M18.73 8.14 C18.73 8.14, 18.73 8.14, 18.73 8.14" stroke="#e03131" stroke-width="4" fill="none"/></g></g><mask/><g stroke-linecap="round"><g transform="translate(64.9287533923159 181.33090458173652) rotate(0 7.985173940483698 17.645862697743965)"><path d="M0 0 C4.65 10.28, 9.31 20.57, 15.97 35.29 M0 0 C4.55 10.06, 9.1 20.11, 15.97 35.29" stroke="#e03131" stroke-width="4" fill="none"/></g><g transform="translate(64.9287533923159 181.33090458173652) rotate(0 7.985173940483698 17.645862697743965)"><path d="M15.97 35.29 L4.59 25.52 L16.14 20.29 L15.97 35.29" stroke="none" stroke-width="0" fill="#e03131" fill-rule="evenodd"/><path d="M15.97 35.29 C12.65 32.44, 9.34 29.6, 4.59 25.52 M15.97 35.29 C12.73 32.51, 9.48 29.72, 4.59 25.52 M4.59 25.52 C7.61 24.16, 10.62 22.79, 16.14 20.29 M4.59 25.52 C8.46 23.77, 12.33 22.02, 16.14 20.29 M16.14 20.29 C16.09 24.7, 16.04 29.12, 15.97 35.29 M16.14 20.29 C16.08 26.04, 16.01 31.79, 15.97 35.29 M15.97 35.29 C15.97 35.29, 15.97 35.29, 15.97 35.29 M15.97 35.29 C15.97 35.29, 15.97 35.29, 15.97 35.29" stroke="#e03131" stroke-width="4" fill="none"/></g></g><mask/></svg>