<svg version="1.1" xmlns="http://www.w3.org/2000/svg" viewBox="0 0 300.1940153909352 266.98052978515625" width="300.1940153909352" height="266.98052978515625" filter="invert(93%) hue-rotate(180deg)">
  <!-- svg-source:excalidraw -->
  
  <defs>
    <style class="style-fonts">
      @font-face {
        font-family: "Virgil";
        src: url("https://excalidraw.com/Virgil.woff2");
      }
      @font-face {
        font-family: "Cascadia";
        src: url("https://excalidraw.com/Cascadia.woff2");
      }
    </style>
  </defs>
  <rect x="0" y="0" width="300.1940153909352" height="266.98052978515625" fill="transparent"/><g stroke-linecap="round"><g transform="translate(10 256.98052978515625) rotate(0 123.49026489257812 -123.49026489257811)"><path d="M0 0 C41.16 -41.16, 205.82 -205.82, 246.98 -246.98 M0 0 C41.16 -41.16, 205.82 -205.82, 246.98 -246.98" stroke="#000000" stroke-width="1" fill="none"/></g><g transform="translate(10 256.98052978515625) rotate(0 123.49026489257812 -123.49026489257811)"><path d="M246.98 -246.98 L241.85 -232.89 L232.89 -241.85 L246.98 -246.98" stroke="none" stroke-width="0" fill="#000000" fill-rule="evenodd"/><path d="M246.98 -246.98 C245.54 -243.03, 244.11 -239.09, 241.85 -232.89 M246.98 -246.98 C245.55 -243.04, 244.12 -239.11, 241.85 -232.89 M241.85 -232.89 C238.7 -236.04, 235.55 -239.19, 232.89 -241.85 M241.85 -232.89 C238.76 -235.98, 235.67 -239.07, 232.89 -241.85 M232.89 -241.85 C236.06 -243.01, 239.24 -244.16, 246.98 -246.98 M232.89 -241.85 C237.66 -243.59, 242.43 -245.33, 246.98 -246.98 M246.98 -246.98 C246.98 -246.98, 246.98 -246.98, 246.98 -246.98 M246.98 -246.98 C246.98 -246.98, 246.98 -246.98, 246.98 -246.98" stroke="#000000" stroke-width="1" fill="none"/></g></g><mask/><g transform="translate(130.8805644764362 133.67341957939345) rotate(0 1.077648737898727 1.324933758646722)" stroke="none"><path fill="#000000" d="M 1.02,-1.52 Q 1.02,-1.52 1.96,-1.52 2.90,-1.52 3.60,-0.46 4.30,0.58 4.32,1.82 4.33,3.06 3.64,3.94 2.94,4.81 1.70,5.01 0.45,5.21 -0.55,4.72 -1.57,4.23 -2.02,3.24 -2.47,2.25 -2.30,1.20 -2.13,0.14 -0.56,-0.98 0.99,-2.11 2.13,-1.88 3.27,-1.65 4.05,0.30 4.83,2.26 3.96,3.36 3.08,4.47 2.33,3.12 1.58,1.77 1.46,1.87 1.33,1.96 1.19,2.03 1.05,2.10 0.89,2.13 0.74,2.16 0.58,2.15 0.42,2.14 0.27,2.09 0.12,2.05 -0.01,1.97 -0.15,1.88 -0.26,1.77 -0.37,1.66 -0.45,1.53 -0.54,1.39 -0.58,1.24 -0.63,1.09 -0.64,0.93 -0.65,0.77 -0.63,0.62 -0.60,0.46 -0.54,0.32 -0.47,0.17 -0.37,0.05 -0.28,-0.07 -0.43,0.60 -0.59,1.27 -0.62,1.06 -0.66,0.85 -0.62,0.64 -0.59,0.43 -0.49,0.24 -0.39,0.06 -0.24,-0.08 -0.08,-0.23 0.10,-0.32 0.29,-0.41 0.50,-0.43 0.71,-0.46 0.92,-0.41 1.13,-0.37 1.31,-0.26 1.49,-0.15 1.63,0.00 1.77,0.16 1.85,0.36 1.93,0.56 1.94,0.77 1.95,0.98 1.90,1.19 1.84,1.39 1.72,1.57 1.61,1.74 1.44,1.87 1.27,2.00 1.07,2.07 0.87,2.14 0.65,2.14 0.44,2.14 0.24,2.07 0.04,2.01 -0.12,1.88 -0.29,1.75 -0.41,1.58 -0.53,1.40 -0.59,1.20 -0.65,0.99 -0.64,0.78 -0.63,0.57 -0.55,0.37 -0.47,0.17 -0.33,0.01 -0.20,-0.14 -0.02,-0.25 0.16,-0.36 0.36,-0.41 0.57,-0.46 0.78,-0.43 0.99,-0.41 1.19,-0.32 1.38,-0.24 1.53,-0.09 1.69,0.05 1.64,0.91 1.58,1.77 1.46,1.87 1.34,1.96 1.19,2.03 1.05,2.10 0.89,2.13 0.74,2.16 0.58,2.15 0.42,2.14 0.27,2.09 0.12,2.05 -0.01,1.97 -0.14,1.88 -0.26,1.77 -0.37,1.66 -0.45,1.53 -0.54,1.39 -0.58,1.24 -0.63,1.09 -0.64,0.93 -0.65,0.78 -0.63,0.62 -0.60,0.46 -0.54,0.32 -0.47,0.17 -0.37,0.05 -0.28,-0.07 0.17,-0.46 0.64,-0.85 -0.09,0.98 -0.82,2.81 0.52,3.29 1.87,3.77 2.61,2.51 3.35,1.26 2.28,0.49 1.22,-0.28 0.04,0.39 -1.12,1.08 -0.77,2.13 -0.42,3.18 -0.72,2.35 -1.02,1.52 -1.19,1.37 -1.35,1.23 -1.48,1.05 -1.61,0.87 -1.69,0.66 -1.77,0.46 -1.80,0.24 -1.83,0.02 -1.81,-0.19 -1.78,-0.41 -1.71,-0.62 -1.63,-0.83 -1.51,-1.01 -1.38,-1.20 -1.22,-1.34 -1.06,-1.49 -0.86,-1.60 -0.67,-1.70 -0.45,-1.76 -0.24,-1.81 -0.02,-1.82 0.19,-1.82 0.41,-1.77 0.62,-1.72 0.82,-1.62 1.02,-1.52 1.02,-1.52 L 1.02,-1.52 Z"/></g><g transform="translate(107.98491698589436 128.55029704006236) rotate(0 7.455210628789715 -6.677691404007845)" stroke="none"><path fill="#000000" d="M -0.78,-0.34 Q -0.78,-0.34 -0.46,-1.60 -0.14,-2.85 0.16,-4.01 0.46,-5.17 0.75,-6.49 1.04,-7.81 1.30,-9.01 1.55,-10.20 1.70,-11.03 1.84,-11.86 1.98,-12.42 2.11,-12.99 2.22,-13.10 2.33,-13.22 2.39,-13.37 2.44,-13.52 2.53,-13.66 2.61,-13.80 2.73,-13.91 2.85,-14.02 2.99,-14.10 3.13,-14.18 3.29,-14.22 3.44,-14.27 3.61,-14.27 3.77,-14.28 3.93,-14.25 4.09,-14.21 4.23,-14.14 4.38,-14.07 4.50,-13.97 4.63,-13.86 4.72,-13.73 4.82,-13.60 4.88,-13.45 4.95,-13.30 4.97,-13.14 5.00,-12.98 4.98,-12.82 4.97,-12.66 5.76,-11.85 6.55,-11.03 7.04,-10.08 7.52,-9.13 7.90,-8.53 8.28,-7.94 8.62,-7.68 8.96,-7.42 9.04,-7.27 9.11,-7.11 9.15,-6.94 9.18,-6.78 9.18,-6.61 9.17,-6.44 9.12,-6.27 9.08,-6.11 8.99,-5.96 8.91,-5.81 8.79,-5.69 8.67,-5.56 8.53,-5.47 8.38,-5.38 8.22,-5.32 8.06,-5.27 7.89,-5.25 7.72,-5.24 7.55,-5.27 7.38,-5.29 7.23,-5.36 7.07,-5.43 6.93,-5.53 6.79,-5.63 6.69,-5.76 6.58,-5.89 6.74,-6.92 6.90,-7.94 6.96,-9.08 7.02,-10.22 7.14,-10.79 7.26,-11.37 7.38,-11.50 7.50,-11.64 7.55,-11.80 7.60,-11.97 7.69,-12.11 7.78,-12.26 7.91,-12.38 8.03,-12.50 8.18,-12.59 8.33,-12.68 8.49,-12.73 8.66,-12.78 8.83,-12.79 9.00,-12.79 9.17,-12.76 9.34,-12.73 9.50,-12.66 9.66,-12.58 9.79,-12.48 9.93,-12.37 10.03,-12.23 10.14,-12.09 10.21,-11.94 10.27,-11.78 10.30,-11.61 10.33,-11.44 10.32,-11.26 10.31,-11.09 10.96,-10.75 11.62,-10.40 12.15,-9.72 12.69,-9.03 13.84,-7.91 14.99,-6.79 15.08,-6.73 15.17,-6.67 15.24,-6.59 15.30,-6.50 15.34,-6.40 15.38,-6.30 15.38,-6.20 15.38,-6.09 15.35,-5.99 15.32,-5.89 15.25,-5.80 15.19,-5.72 15.11,-5.66 15.02,-5.59 14.92,-5.56 14.82,-5.53 14.71,-5.54 14.60,-5.54 14.50,-5.58 14.40,-5.61 14.32,-5.68 14.24,-5.75 14.18,-5.84 14.13,-5.93 14.10,-6.03 14.07,-6.13 14.08,-6.24 14.09,-6.35 14.14,-6.44 14.18,-6.54 14.25,-6.62 14.32,-6.70 14.41,-6.75 14.51,-6.80 14.61,-6.82 14.71,-6.84 14.82,-6.83 14.93,-6.81 15.02,-6.76 15.12,-6.72 15.19,-6.64 15.26,-6.56 15.31,-6.47 15.36,-6.37 15.37,-6.27 15.39,-6.16 15.37,-6.06 15.35,-5.95 15.29,-5.86 15.24,-5.77 15.16,-5.70 15.08,-5.63 14.98,-5.59 14.89,-5.55 14.78,-5.54 14.67,-5.53 14.57,-5.56 14.47,-5.58 14.47,-5.58 14.47,-5.58 12.42,-6.39 10.37,-7.20 9.83,-7.90 9.28,-8.59 8.85,-9.17 8.42,-9.74 7.96,-10.69 7.50,-11.64 7.55,-11.80 7.60,-11.97 7.69,-12.11 7.78,-12.26 7.91,-12.38 8.03,-12.50 8.18,-12.59 8.33,-12.68 8.49,-12.73 8.66,-12.78 8.83,-12.79 9.00,-12.79 9.17,-12.76 9.34,-12.73 9.50,-12.66 9.66,-12.58 9.79,-12.48 9.93,-12.37 10.03,-12.23 10.14,-12.09 10.21,-11.94 10.27,-11.78 10.30,-11.61 10.33,-11.44 10.32,-11.27 10.31,-11.09 10.08,-10.51 9.86,-9.92 9.78,-9.21 9.71,-8.49 9.33,-7.95 8.96,-7.42 9.04,-7.27 9.11,-7.11 9.15,-6.94 9.18,-6.78 9.18,-6.61 9.17,-6.44 9.12,-6.27 9.08,-6.11 8.99,-5.96 8.91,-5.81 8.79,-5.69 8.67,-5.56 8.53,-5.47 8.38,-5.38 8.22,-5.32 8.06,-5.27 7.89,-5.25 7.72,-5.24 7.55,-5.27 7.38,-5.29 7.23,-5.36 7.07,-5.43 6.93,-5.53 6.79,-5.63 6.69,-5.76 6.58,-5.89 6.26,-6.13 5.93,-6.37 5.46,-7.11 4.99,-7.85 4.53,-8.78 4.07,-9.70 3.69,-10.45 3.32,-11.20 2.83,-12.21 2.33,-13.22 2.39,-13.37 2.44,-13.52 2.53,-13.66 2.61,-13.80 2.73,-13.91 2.85,-14.02 2.99,-14.10 3.13,-14.18 3.29,-14.22 3.44,-14.27 3.61,-14.27 3.77,-14.28 3.93,-14.25 4.09,-14.21 4.23,-14.14 4.38,-14.07 4.50,-13.97 4.63,-13.86 4.72,-13.73 4.82,-13.60 4.88,-13.45 4.95,-13.30 4.97,-13.14 5.00,-12.98 4.98,-12.82 4.97,-12.66 4.69,-12.03 4.42,-11.40 4.26,-10.53 4.10,-9.65 3.84,-8.45 3.58,-7.25 3.27,-5.87 2.97,-4.48 2.59,-3.15 2.22,-1.81 1.50,-0.73 0.78,0.34 0.73,0.43 0.68,0.52 0.60,0.60 0.53,0.67 0.44,0.72 0.35,0.78 0.25,0.81 0.16,0.84 0.05,0.85 -0.04,0.86 -0.14,0.84 -0.25,0.82 -0.34,0.78 -0.44,0.74 -0.52,0.67 -0.60,0.61 -0.67,0.53 -0.73,0.44 -0.77,0.35 -0.82,0.26 -0.84,0.15 -0.86,0.05 -0.85,-0.04 -0.84,-0.15 -0.81,-0.25 -0.78,-0.34 -0.78,-0.34 L -0.78,-0.34 Z"/></g><g transform="translate(128.79593142983984 116.64350264550413) rotate(0 -0.6183218518005731 2.8442027938875327)" stroke="none"><path fill="#000000" d="M 0.63,0.69 Q 0.63,0.69 -0.07,1.51 -0.78,2.33 -0.98,2.88 -1.19,3.43 -0.78,3.81 -0.38,4.19 -0.43,2.57 -0.48,0.96 -0.49,0.85 -0.49,0.74 -0.46,0.64 -0.42,0.54 -0.36,0.45 -0.30,0.37 -0.21,0.31 -0.13,0.24 -0.03,0.21 0.07,0.18 0.17,0.19 0.28,0.19 0.38,0.23 0.48,0.26 0.56,0.33 0.64,0.40 0.70,0.49 0.76,0.58 0.78,0.68 0.81,0.78 0.80,0.89 0.79,0.99 0.75,1.09 0.70,1.19 0.63,1.27 0.56,1.35 0.47,1.40 0.38,1.45 0.27,1.47 0.17,1.49 0.06,1.48 -0.03,1.46 -0.13,1.41 -0.22,1.37 -0.30,1.29 -0.37,1.21 -0.42,1.12 -0.47,1.02 -0.48,0.92 -0.49,0.81 -0.47,0.71 -0.45,0.60 -0.40,0.51 -0.35,0.42 -0.27,0.35 -0.19,0.28 -0.09,0.24 0.00,0.20 0.10,0.19 0.21,0.18 0.31,0.21 0.41,0.23 0.50,0.29 0.59,0.35 0.66,0.43 0.73,0.51 0.76,0.61 0.80,0.71 0.80,0.71 0.80,0.71 1.63,2.23 2.46,3.75 2.35,4.44 2.25,5.13 1.71,5.70 1.17,6.27 0.41,6.43 -0.34,6.59 -1.12,6.33 -1.90,6.06 -2.50,5.42 -3.09,4.78 -3.26,3.80 -3.43,2.82 -2.95,1.72 -2.46,0.63 -1.54,-0.03 -0.63,-0.69 -0.54,-0.75 -0.44,-0.82 -0.34,-0.86 -0.23,-0.90 -0.12,-0.92 -0.01,-0.93 0.09,-0.92 0.21,-0.91 0.31,-0.87 0.42,-0.83 0.51,-0.77 0.61,-0.71 0.68,-0.62 0.76,-0.54 0.81,-0.44 0.87,-0.34 0.90,-0.23 0.93,-0.12 0.93,-0.01 0.93,0.09 0.90,0.20 0.88,0.32 0.83,0.42 0.78,0.52 0.70,0.60 0.63,0.69 0.63,0.69 L 0.63,0.69 Z"/></g><g stroke-linecap="round"><g transform="translate(132.78853645002988 136.11131000166597) rotate(0 33.01799502565866 -33.01799502565865)"><path d="M0 0 C11.01 -11.01, 55.03 -55.03, 66.04 -66.04 M0 0 C11.01 -11.01, 55.03 -55.03, 66.04 -66.04" stroke="#c92a2a" stroke-width="4" fill="none"/></g><g transform="translate(132.78853645002988 136.11131000166597) rotate(0 33.01799502565866 -33.01799502565865)"><path d="M66.04 -66.04 L60.91 -51.94 L51.94 -60.91 L66.04 -66.04" stroke="none" stroke-width="0" fill="#c92a2a" fill-rule="evenodd"/><path d="M66.04 -66.04 C64.98 -63.13, 63.92 -60.23, 60.91 -51.94 M66.04 -66.04 C64.82 -62.69, 63.6 -59.34, 60.91 -51.94 M60.91 -51.94 C57.78 -55.06, 54.66 -58.18, 51.94 -60.91 M60.91 -51.94 C58.25 -54.6, 55.59 -57.25, 51.94 -60.91 M51.94 -60.91 C57.47 -62.92, 63 -64.93, 66.04 -66.04 M51.94 -60.91 C55.12 -62.06, 58.3 -63.22, 66.04 -66.04 M66.04 -66.04 C66.04 -66.04, 66.04 -66.04, 66.04 -66.04 M66.04 -66.04 C66.04 -66.04, 66.04 -66.04, 66.04 -66.04" stroke="#c92a2a" stroke-width="4" fill="none"/></g></g><mask/><g transform="translate(199.8148486428478 112.5096821149881) rotate(0 -1.360306454703064 -0.5123090154166476)" stroke="none"><path fill="#c92a2a" d="M -0.71,0.48 Q -0.71,0.48 -1.84,-0.94 -2.97,-2.36 -3.82,-3.01 -4.67,-3.65 -5.34,-3.32 -6.02,-2.99 -6.35,-2.16 -6.68,-1.33 -6.95,-0.24 -7.23,0.85 -7.15,1.54 -7.07,2.22 -6.04,2.56 -5.01,2.90 -4.16,2.54 -3.31,2.17 -2.49,1.50 -1.67,0.83 -1.05,0.24 -0.43,-0.34 0.48,-0.81 1.40,-1.28 2.00,-1.07 2.61,-0.86 4.33,-0.02 6.05,0.82 6.14,0.86 6.24,0.90 6.32,0.97 6.40,1.04 6.46,1.13 6.51,1.22 6.53,1.33 6.56,1.43 6.54,1.54 6.53,1.64 6.49,1.74 6.44,1.83 6.37,1.91 6.29,1.99 6.20,2.04 6.10,2.09 6.00,2.10 5.89,2.12 5.79,2.10 5.69,2.08 5.59,2.03 5.50,1.98 5.43,1.90 5.35,1.83 5.31,1.73 5.27,1.63 5.26,1.53 5.24,1.42 5.27,1.32 5.29,1.21 5.35,1.12 5.40,1.03 5.48,0.96 5.57,0.90 5.67,0.86 5.76,0.82 5.87,0.81 5.98,0.81 6.08,0.84 6.18,0.87 6.27,0.93 6.36,0.99 6.42,1.07 6.48,1.16 6.52,1.26 6.55,1.36 6.55,1.47 6.55,1.57 6.51,1.67 6.48,1.77 6.41,1.86 6.35,1.94 6.26,2.00 6.17,2.06 6.07,2.09 5.97,2.12 5.86,2.11 5.75,2.10 5.75,2.10 5.75,2.10 3.55,1.81 1.36,1.53 0.64,2.22 -0.07,2.91 -1.24,3.78 -2.42,4.65 -3.87,5.07 -5.33,5.50 -6.66,5.15 -8.00,4.80 -8.80,3.79 -9.60,2.78 -9.71,1.50 -9.83,0.23 -9.45,-1.14 -9.08,-2.52 -8.37,-3.77 -7.66,-5.02 -6.60,-5.60 -5.55,-6.18 -4.35,-5.89 -3.16,-5.60 -2.14,-4.62 -1.13,-3.64 -0.20,-2.06 0.71,-0.48 0.76,-0.39 0.80,-0.30 0.83,-0.20 0.85,-0.09 0.85,0.00 0.85,0.10 0.83,0.20 0.80,0.31 0.75,0.40 0.70,0.49 0.63,0.57 0.56,0.64 0.48,0.70 0.39,0.76 0.29,0.80 0.20,0.83 0.09,0.85 -0.00,0.86 -0.10,0.84 -0.21,0.83 -0.30,0.79 -0.40,0.76 -0.49,0.70 -0.57,0.64 -0.64,0.56 -0.71,0.48 -0.71,0.48 L -0.71,0.48 Z"/></g><g transform="translate(192.28895739227468 100.42622664742714) rotate(0 5.08792796168018 -0.10600474009275729)" stroke="none"><path fill="#c92a2a" d="M 0.00,-0.91 Q 0.00,-0.91 1.24,-0.98 2.48,-1.05 3.75,-1.16 5.02,-1.27 7.35,-1.18 9.69,-1.09 9.79,-1.08 9.90,-1.07 10.00,-1.02 10.09,-0.97 10.17,-0.90 10.24,-0.83 10.29,-0.73 10.34,-0.64 10.36,-0.53 10.37,-0.43 10.35,-0.32 10.34,-0.22 10.28,-0.12 10.23,-0.03 10.16,0.03 10.08,0.10 9.98,0.15 9.88,0.19 9.78,0.20 9.67,0.21 9.57,0.19 9.47,0.16 9.38,0.11 9.28,0.05 9.22,-0.02 9.15,-0.10 9.11,-0.20 9.07,-0.30 9.07,-0.41 9.06,-0.52 9.09,-0.62 9.12,-0.72 9.18,-0.81 9.25,-0.89 9.33,-0.96 9.42,-1.02 9.52,-1.05 9.62,-1.08 9.72,-1.08 9.83,-1.08 9.93,-1.05 10.03,-1.01 10.12,-0.95 10.20,-0.88 10.26,-0.79 10.32,-0.70 10.34,-0.60 10.37,-0.50 10.36,-0.39 10.36,-0.29 10.32,-0.19 10.27,-0.09 10.20,-0.01 10.13,0.06 10.04,0.11 9.95,0.17 9.85,0.19 9.74,0.21 9.74,0.21 9.74,0.21 7.47,0.52 5.21,0.84 3.84,0.96 2.47,1.09 1.23,1.00 -0.00,0.91 -0.11,0.89 -0.22,0.88 -0.32,0.84 -0.43,0.80 -0.52,0.74 -0.61,0.67 -0.68,0.59 -0.75,0.51 -0.80,0.41 -0.85,0.31 -0.88,0.20 -0.90,0.10 -0.90,-0.00 -0.90,-0.11 -0.87,-0.22 -0.85,-0.33 -0.79,-0.42 -0.74,-0.52 -0.67,-0.60 -0.59,-0.68 -0.50,-0.75 -0.41,-0.81 -0.31,-0.85 -0.21,-0.88 -0.10,-0.90 0.00,-0.91 0.00,-0.91 L 0.00,-0.91 Z"/></g><g transform="translate(203.1361415856276 96.3630867386945) rotate(0 1.678304482399028 3.3741698203133126)" stroke="none"><path fill="#c92a2a" d="M 0.57,-0.70 Q 0.57,-0.70 1.48,-0.07 2.39,0.54 3.01,1.26 3.63,1.98 3.90,2.94 4.17,3.91 2.63,5.00 1.08,6.09 1.09,6.17 1.10,6.25 1.08,6.32 1.07,6.40 1.04,6.48 1.01,6.55 0.97,6.61 0.92,6.68 0.86,6.73 0.80,6.78 0.73,6.81 0.66,6.85 0.58,6.86 0.50,6.88 0.42,6.88 0.34,6.88 0.27,6.85 0.19,6.83 0.12,6.79 0.05,6.76 -0.00,6.70 -0.05,6.65 -0.10,6.58 -0.14,6.51 -0.17,6.44 -0.19,6.37 -0.02,6.59 0.15,6.81 0.06,6.75 -0.02,6.69 -0.08,6.60 -0.14,6.51 -0.17,6.41 -0.20,6.31 -0.20,6.21 -0.19,6.10 -0.16,6.00 -0.12,5.90 -0.05,5.82 0.00,5.74 0.09,5.68 0.18,5.62 0.29,5.60 0.39,5.57 0.50,5.58 0.60,5.59 0.70,5.63 0.80,5.68 0.88,5.75 0.95,5.82 1.01,5.91 1.06,6.00 1.08,6.11 1.10,6.21 1.08,6.32 1.07,6.42 1.02,6.52 0.97,6.61 0.90,6.69 0.82,6.76 0.72,6.81 0.63,6.86 0.52,6.87 0.42,6.88 0.31,6.86 0.21,6.84 0.12,6.79 0.03,6.74 -0.03,6.66 -0.11,6.58 -0.15,6.48 -0.19,6.38 -0.20,6.28 -0.20,6.17 -0.18,6.07 -0.15,5.96 -0.09,5.87 -0.04,5.78 0.04,5.72 0.12,5.65 0.22,5.62 0.32,5.58 0.43,5.58 0.53,5.58 0.81,5.83 1.08,6.09 1.09,6.17 1.10,6.25 1.08,6.32 1.07,6.40 1.04,6.48 1.01,6.55 0.97,6.61 0.92,6.68 0.86,6.73 0.80,6.78 0.73,6.81 0.66,6.85 0.58,6.86 0.50,6.88 0.42,6.88 0.34,6.88 0.27,6.85 0.19,6.83 0.12,6.79 0.05,6.76 -0.00,6.70 -0.05,6.65 -0.10,6.58 -0.14,6.51 -0.17,6.44 -0.19,6.37 0.74,4.84 1.67,3.32 1.34,2.77 1.01,2.21 0.22,1.46 -0.57,0.70 -0.64,0.62 -0.72,0.54 -0.77,0.45 -0.83,0.35 -0.86,0.25 -0.89,0.14 -0.90,0.04 -0.90,-0.06 -0.88,-0.17 -0.86,-0.28 -0.81,-0.38 -0.76,-0.48 -0.70,-0.56 -0.63,-0.65 -0.54,-0.71 -0.45,-0.78 -0.35,-0.82 -0.25,-0.87 -0.14,-0.88 -0.04,-0.90 0.06,-0.89 0.17,-0.89 0.28,-0.85 0.38,-0.82 0.47,-0.76 0.57,-0.70 0.57,-0.70 L 0.57,-0.70 Z"/></g><g stroke-linecap="round"><g transform="translate(134.02518015363103 137.55989841512343) rotate(0 44.43098852638063 14.892334143139095)"><path d="M0 0 C14.81 4.96, 74.05 24.82, 88.86 29.78 M0 0 C14.81 4.96, 74.05 24.82, 88.86 29.78" stroke="#364fc7" stroke-width="0.5" fill="none"/></g><g transform="translate(134.02518015363103 137.55989841512343) rotate(0 44.43098852638063 14.892334143139095)"><path d="M88.86 29.78 L73.96 31.47 L77.99 19.45 L88.86 29.78" stroke="none" stroke-width="0" fill="#364fc7" fill-rule="evenodd"/><path d="M88.86 29.78 C84.75 30.25, 80.64 30.72, 73.96 31.47 M88.86 29.78 C85.52 30.16, 82.18 30.54, 73.96 31.47 M73.96 31.47 C74.83 28.86, 75.71 26.25, 77.99 19.45 M73.96 31.47 C75.06 28.17, 76.17 24.87, 77.99 19.45 M77.99 19.45 C80.48 21.82, 82.98 24.19, 88.86 29.78 M77.99 19.45 C82.08 23.35, 86.18 27.24, 88.86 29.78 M88.86 29.78 C88.86 29.78, 88.86 29.78, 88.86 29.78 M88.86 29.78 C88.86 29.78, 88.86 29.78, 88.86 29.78" stroke="#364fc7" stroke-width="0.5" fill="none"/></g></g><mask/><g transform="translate(231.331718421744 174.09292253461052) rotate(0 8.532875559270764 -5.494078407472131)" stroke="none"><path fill="#364fc7" d="M -0.82,-0.36 Q -0.82,-0.36 -0.09,-2.25 0.62,-4.13 1.21,-5.67 1.80,-7.22 2.14,-8.30 2.48,-9.39 2.65,-9.97 2.81,-10.56 2.93,-10.73 3.05,-10.90 3.11,-11.05 3.18,-11.20 3.28,-11.32 3.38,-11.45 3.51,-11.55 3.63,-11.64 3.78,-11.71 3.93,-11.78 4.09,-11.80 4.24,-11.83 4.40,-11.82 4.56,-11.81 4.72,-11.76 4.87,-11.72 5.01,-11.63 5.15,-11.55 5.26,-11.43 5.37,-11.32 5.45,-11.18 5.54,-11.04 5.58,-10.89 5.63,-10.74 5.64,-10.58 5.65,-10.42 5.62,-10.26 5.59,-10.10 6.11,-9.54 6.63,-8.98 6.97,-8.17 7.31,-7.36 7.62,-6.66 7.93,-5.95 7.32,-5.55 6.71,-5.15 7.07,-6.40 7.44,-7.65 7.76,-8.43 8.09,-9.21 8.61,-9.89 9.14,-10.57 10.08,-10.74 11.02,-10.92 11.86,-10.27 12.70,-9.62 13.35,-8.62 13.99,-7.63 14.58,-6.69 15.16,-5.75 16.16,-4.52 17.15,-3.28 17.24,-3.23 17.33,-3.17 17.40,-3.09 17.46,-3.01 17.50,-2.91 17.54,-2.81 17.55,-2.71 17.55,-2.60 17.52,-2.50 17.49,-2.39 17.43,-2.31 17.37,-2.22 17.29,-2.16 17.20,-2.09 17.10,-2.06 17.00,-2.03 16.89,-2.03 16.79,-2.03 16.69,-2.06 16.59,-2.10 16.50,-2.16 16.42,-2.23 16.36,-2.32 16.30,-2.41 16.27,-2.51 16.24,-2.61 16.25,-2.72 16.26,-2.82 16.30,-2.92 16.34,-3.02 16.41,-3.10 16.48,-3.18 16.57,-3.23 16.66,-3.29 16.76,-3.31 16.87,-3.33 16.97,-3.32 17.08,-3.31 17.18,-3.26 17.27,-3.22 17.35,-3.14 17.42,-3.07 17.47,-2.97 17.52,-2.88 17.54,-2.77 17.55,-2.67 17.54,-2.57 17.52,-2.46 17.47,-2.37 17.42,-2.27 17.34,-2.20 17.26,-2.13 17.16,-2.09 17.07,-2.04 16.96,-2.03 16.86,-2.02 16.75,-2.04 16.65,-2.07 16.65,-2.07 16.65,-2.07 14.59,-3.08 12.54,-4.09 11.94,-5.04 11.34,-5.98 11.01,-7.05 10.68,-8.12 10.37,-7.38 10.06,-6.64 9.73,-5.80 9.41,-4.96 9.02,-4.34 8.63,-3.73 7.48,-3.66 6.33,-3.60 5.87,-4.22 5.41,-4.85 5.09,-5.58 4.77,-6.31 4.45,-7.10 4.13,-7.89 3.89,-8.48 3.65,-9.07 3.35,-9.98 3.05,-10.90 3.11,-11.05 3.18,-11.20 3.28,-11.32 3.38,-11.45 3.51,-11.55 3.63,-11.64 3.78,-11.71 3.93,-11.78 4.09,-11.80 4.24,-11.83 4.40,-11.82 4.56,-11.81 4.72,-11.76 4.87,-11.72 5.01,-11.63 5.15,-11.55 5.26,-11.43 5.37,-11.32 5.45,-11.18 5.54,-11.04 5.58,-10.89 5.63,-10.74 5.64,-10.58 5.65,-10.42 5.62,-10.26 5.59,-10.10 5.40,-9.91 5.20,-9.72 5.00,-9.16 4.80,-8.60 4.39,-7.47 3.98,-6.34 3.32,-4.78 2.66,-3.21 1.74,-1.42 0.82,0.36 0.76,0.46 0.71,0.55 0.63,0.63 0.55,0.70 0.46,0.76 0.37,0.82 0.26,0.85 0.16,0.88 0.05,0.89 -0.05,0.89 -0.15,0.87 -0.26,0.86 -0.36,0.81 -0.46,0.77 -0.55,0.70 -0.63,0.63 -0.70,0.55 -0.76,0.46 -0.81,0.36 -0.85,0.26 -0.87,0.16 -0.89,0.05 -0.89,-0.05 -0.88,-0.16 -0.85,-0.26 -0.82,-0.36 -0.82,-0.36 L -0.82,-0.36 Z"/></g><g transform="translate(254.65136868007463 171.12506508591227) rotate(0 -0.40633666048850614 4.7167858788426)" stroke="none"><path fill="#364fc7" d="M 1.19,0.08 Q 1.19,0.08 1.06,2.28 0.93,4.48 0.43,6.53 -0.07,8.58 -0.09,8.68 -0.12,8.79 -0.18,8.87 -0.24,8.96 -0.32,9.03 -0.41,9.09 -0.51,9.13 -0.61,9.16 -0.71,9.17 -0.82,9.17 -0.92,9.13 -1.02,9.10 -1.11,9.04 -1.19,8.97 -1.25,8.89 -1.31,8.80 -1.34,8.70 -1.37,8.60 -1.37,8.49 -1.36,8.38 -1.32,8.28 -1.29,8.19 -1.22,8.10 -1.15,8.02 -1.06,7.97 -0.97,7.91 -0.87,7.89 -0.76,7.86 -0.66,7.87 -0.55,7.88 -0.45,7.93 -0.36,7.97 -0.28,8.04 -0.20,8.11 -0.15,8.21 -0.10,8.30 -0.08,8.40 -0.06,8.51 -0.08,8.61 -0.09,8.72 -0.14,8.81 -0.19,8.91 -0.27,8.98 -0.34,9.06 -0.44,9.10 -0.54,9.15 -0.64,9.16 -0.75,9.17 -0.85,9.15 -0.96,9.13 -1.05,9.08 -1.14,9.02 -1.21,8.94 -1.28,8.86 -1.32,8.76 -1.36,8.67 -1.37,8.56 -1.37,8.45 -1.37,8.45 -1.37,8.45 -1.48,6.37 -1.58,4.29 -1.38,2.10 -1.19,-0.08 -1.16,-0.22 -1.13,-0.37 -1.07,-0.50 -1.01,-0.63 -0.92,-0.74 -0.83,-0.85 -0.71,-0.94 -0.60,-1.03 -0.47,-1.08 -0.33,-1.14 -0.19,-1.16 -0.05,-1.19 0.08,-1.18 0.23,-1.17 0.36,-1.12 0.50,-1.08 0.62,-1.00 0.74,-0.92 0.84,-0.82 0.95,-0.72 1.02,-0.59 1.09,-0.47 1.13,-0.33 1.17,-0.19 1.18,-0.05 1.19,0.08 1.19,0.08 L 1.19,0.08 Z"/></g><g transform="translate(223.45250502516555 166.6732708165737) rotate(0 0.47698489710722924 0.5829653483265531)" stroke="none"><path fill="#000000" d="M 1.72,0 Q 1.72,0 2.22,0.38 2.71,0.77 2.67,0.77 2.62,0.76 2.58,1.09 2.54,1.42 2.42,1.73 2.31,2.04 2.12,2.31 1.93,2.59 1.68,2.81 1.43,3.03 1.14,3.18 0.85,3.33 0.53,3.41 0.20,3.49 -0.12,3.49 -0.45,3.49 -0.77,3.41 -1.09,3.33 -1.38,3.18 -1.68,3.03 -1.93,2.81 -2.17,2.59 -2.36,2.31 -2.55,2.04 -2.67,1.73 -2.79,1.42 -2.83,1.09 -2.86,0.76 -0.30,-0.12 2.25,-1.01 1.79,-0.66 1.33,-0.32 1.38,-0.17 1.44,-0.02 1.46,0.13 1.47,0.29 1.45,0.44 1.43,0.60 1.37,0.75 1.32,0.90 1.23,1.02 1.13,1.15 1.01,1.26 0.90,1.36 0.75,1.43 0.61,1.51 0.46,1.54 0.31,1.58 0.15,1.58 -0.00,1.58 -0.15,1.54 -0.31,1.50 -0.45,1.42 -0.59,1.35 -0.70,1.24 -0.82,1.14 -0.91,1.00 -1.00,0.87 -1.06,0.71 -1.12,0.54 -1.13,0.33 -1.13,0.12 -1.08,-0.07 -1.02,-0.28 -0.90,-0.45 -0.78,-0.63 -0.61,-0.75 -0.43,-0.88 -0.23,-0.95 -0.03,-1.01 0.17,-1.01 0.38,-1.01 0.58,-0.94 0.79,-0.87 0.95,-0.74 1.12,-0.61 1.24,-0.43 1.36,-0.26 1.41,-0.05 1.47,0.14 1.45,0.36 1.44,0.57 1.36,0.77 1.28,0.96 1.14,1.12 1.00,1.28 0.82,1.39 0.63,1.50 0.43,1.54 0.22,1.59 0.01,1.56 -0.19,1.54 -0.39,1.45 -0.58,1.35 -0.73,1.21 -0.88,1.06 -0.98,0.87 -1.08,0.68 -1.11,0.47 -1.14,0.26 -1.11,0.05 -1.07,-0.15 -0.97,-0.33 -0.87,-0.52 -0.71,-0.67 -0.56,-0.81 -0.36,-0.90 -0.17,-0.98 0.03,-1.01 0.24,-1.03 0.45,-0.98 0.66,-0.93 0.84,-0.82 1.02,-0.71 1.16,-0.55 1.29,-0.38 1.31,-0.35 1.33,-0.32 1.38,-0.17 1.44,-0.02 1.46,0.13 1.47,0.29 1.45,0.44 1.43,0.60 1.37,0.75 1.32,0.90 1.23,1.02 1.13,1.15 1.01,1.26 0.90,1.36 0.75,1.43 0.61,1.51 0.46,1.54 0.31,1.58 0.15,1.58 -0.00,1.58 -0.15,1.54 -0.31,1.50 -0.45,1.42 -0.59,1.35 -0.70,1.24 -0.82,1.14 -0.91,1.00 -1.00,0.87 -1.53,1.31 -2.07,1.74 0.27,1.25 2.62,0.76 2.58,1.09 2.54,1.42 2.42,1.73 2.31,2.04 2.12,2.31 1.93,2.59 1.68,2.81 1.43,3.03 1.14,3.18 0.85,3.33 0.53,3.41 0.20,3.49 -0.12,3.49 -0.45,3.49 -0.77,3.41 -1.09,3.33 -1.38,3.18 -1.68,3.03 -1.93,2.81 -2.17,2.59 -2.36,2.31 -2.55,2.04 -2.67,1.73 -2.79,1.42 -2.83,1.09 -2.86,0.76 -2.79,0.56 -2.71,0.36 -2.22,0.18 -1.72,0 -1.69,-0.20 -1.67,-0.41 -1.59,-0.60 -1.52,-0.80 -1.40,-0.97 -1.28,-1.14 -1.13,-1.27 -0.97,-1.41 -0.79,-1.51 -0.61,-1.60 -0.40,-1.65 -0.20,-1.70 0.00,-1.70 0.20,-1.70 0.40,-1.65 0.61,-1.60 0.79,-1.51 0.97,-1.41 1.13,-1.27 1.28,-1.14 1.40,-0.97 1.52,-0.79 1.59,-0.60 1.67,-0.41 1.69,-0.20 1.72,0.00 1.72,0.00 L 1.72,0 Z"/></g><g stroke-linecap="round"><g transform="translate(219.92924804566348 168.57065238216614) rotate(0 30.63867956357919 -30.63867956357918)"><path d="M0 0 C10.21 -10.21, 51.06 -51.06, 61.28 -61.28" stroke="#000000" stroke-width="1.5" fill="none" stroke-dasharray="8 9"/></g></g><mask/><g stroke-linecap="round"><g transform="translate(199.9822224693749 69.04628622039388) rotate(0 45.10589646078013 13.886308875011807)"><path d="M0 0 C15.04 4.63, 75.18 23.14, 90.21 27.77" stroke="#000000" stroke-width="1.5" fill="none" stroke-dasharray="8 9"/></g></g><mask/><g stroke-linecap="round"><g transform="translate(221.730022841156 166.0773475867079) rotate(0 -33.522080020112185 -26.525981222905898)"><path d="M0 0 C-11.17 -8.84, -55.87 -44.21, -67.04 -53.05" stroke="#a61e4d" stroke-width="1" fill="none" stroke-dasharray="8 8.5"/></g></g><mask/><g transform="translate(202.89116270733712 133.0757125269238) rotate(0 2.3029130055465004 -0.9349853306439826)" stroke="none"><path fill="#a61e4d" d="M -0.47,0.65 Q -0.47,0.65 -0.90,0.32 -1.33,-0.01 -1.83,0.68 -2.32,1.38 -2.57,2.12 -2.81,2.85 -2.90,3.49 -2.99,4.14 -2.30,4.50 -1.61,4.86 -0.88,4.06 -0.16,3.27 0.12,2.42 0.41,1.57 0.67,0.42 0.93,-0.72 1.10,-1.85 1.28,-2.97 1.41,-3.99 1.55,-5.02 1.64,-5.76 1.72,-6.50 1.80,-7.04 1.87,-7.57 1.79,-7.71 1.71,-7.84 1.72,-7.96 1.73,-8.08 1.76,-8.19 1.80,-8.31 1.86,-8.41 1.92,-8.52 2.01,-8.60 2.09,-8.69 2.19,-8.75 2.29,-8.81 2.41,-8.85 2.52,-8.89 2.64,-8.89 2.76,-8.90 2.88,-8.88 3.00,-8.86 3.11,-8.81 3.22,-8.76 3.32,-8.69 3.41,-8.62 3.49,-8.52 3.56,-8.43 3.61,-8.32 3.66,-8.21 3.68,-8.09 3.71,-7.97 3.68,-6.94 3.66,-5.90 3.93,-5.03 4.20,-4.16 4.66,-3.14 5.11,-2.11 5.66,-1.27 6.21,-0.43 7.41,0.21 8.61,0.87 8.71,0.90 8.81,0.94 8.89,1.01 8.97,1.07 9.03,1.16 9.09,1.25 9.12,1.35 9.14,1.45 9.14,1.56 9.13,1.67 9.09,1.76 9.05,1.86 8.97,1.94 8.90,2.02 8.81,2.07 8.72,2.13 8.62,2.15 8.51,2.17 8.41,2.16 8.30,2.14 8.21,2.10 8.11,2.05 8.03,1.98 7.96,1.90 7.91,1.81 7.86,1.71 7.85,1.61 7.83,1.50 7.85,1.40 7.87,1.29 7.92,1.20 7.97,1.11 8.05,1.03 8.13,0.96 8.23,0.92 8.33,0.88 8.43,0.87 8.54,0.86 8.64,0.88 8.74,0.91 8.83,0.96 8.92,1.02 8.99,1.10 9.06,1.19 9.10,1.29 9.13,1.38 9.14,1.49 9.14,1.60 9.11,1.70 9.08,1.80 9.02,1.89 8.96,1.97 8.87,2.04 8.79,2.10 8.68,2.13 8.58,2.16 8.48,2.16 8.37,2.16 8.37,2.16 8.37,2.16 6.47,1.40 4.57,0.65 3.93,-0.32 3.29,-1.30 2.79,-2.45 2.28,-3.60 1.98,-4.72 1.67,-5.83 1.69,-6.83 1.71,-7.84 1.72,-7.96 1.73,-8.08 1.76,-8.19 1.80,-8.31 1.86,-8.41 1.92,-8.52 2.01,-8.60 2.09,-8.69 2.19,-8.75 2.29,-8.81 2.41,-8.85 2.52,-8.89 2.64,-8.89 2.76,-8.90 2.88,-8.88 3.00,-8.86 3.11,-8.81 3.22,-8.76 3.32,-8.69 3.41,-8.62 3.49,-8.52 3.56,-8.43 3.61,-8.32 3.66,-8.21 3.68,-8.09 3.71,-7.97 3.74,-7.98 3.78,-7.99 3.82,-7.14 3.86,-6.28 3.79,-5.51 3.72,-4.73 3.58,-3.69 3.45,-2.64 3.27,-1.44 3.09,-0.23 2.79,1.05 2.49,2.35 2.04,3.50 1.58,4.65 0.89,5.42 0.20,6.20 -0.70,6.60 -1.61,7.00 -2.51,6.85 -3.41,6.71 -4.03,6.16 -4.65,5.61 -4.87,4.75 -5.09,3.89 -4.94,3.00 -4.79,2.10 -4.38,1.13 -3.97,0.16 -3.29,-0.58 -2.60,-1.33 -1.76,-1.47 -0.93,-1.62 -0.23,-1.13 0.47,-0.65 0.54,-0.58 0.61,-0.52 0.66,-0.44 0.72,-0.36 0.75,-0.26 0.78,-0.17 0.79,-0.08 0.80,0.01 0.79,0.11 0.77,0.20 0.74,0.29 0.70,0.38 0.64,0.46 0.59,0.54 0.51,0.60 0.44,0.67 0.35,0.71 0.27,0.75 0.17,0.77 0.08,0.80 -0.01,0.79 -0.11,0.79 -0.20,0.77 -0.30,0.74 -0.38,0.70 -0.47,0.65 -0.47,0.65 L -0.47,0.65 Z"/></g><g transform="translate(163.10101644773312 105.8571378216065) rotate(0 3.3764408385899003 5.436787419178202)" stroke="none"><path fill="#a61e4d" d="M 0.34,-0.72 Q 0.34,-0.72 1.17,-0.35 2.01,0.01 2.70,0.43 3.39,0.86 3.90,1.16 4.41,1.45 5.15,1.98 5.90,2.51 6.43,3.04 6.96,3.58 6.73,4.14 6.50,4.69 6.50,4.69 6.51,4.68 6.54,4.58 6.58,4.48 6.63,4.39 6.69,4.30 6.76,4.23 6.84,4.16 6.93,4.10 7.02,4.05 7.12,4.02 7.23,3.99 7.33,3.99 7.44,3.98 7.54,4.01 7.64,4.03 7.74,4.07 7.83,4.12 7.91,4.18 8.00,4.25 8.06,4.33 8.12,4.42 8.16,4.52 8.21,4.61 8.22,4.72 8.24,4.82 8.23,4.93 8.22,5.03 7.95,5.65 7.68,6.27 7.04,6.80 6.40,7.33 5.93,7.64 5.45,7.96 4.74,8.37 4.02,8.77 3.22,9.24 2.42,9.71 1.16,10.45 -0.10,11.18 -0.19,11.23 -0.28,11.29 -0.39,11.31 -0.49,11.33 -0.60,11.31 -0.70,11.30 -0.80,11.25 -0.89,11.20 -0.97,11.13 -1.04,11.05 -1.09,10.96 -1.14,10.86 -1.15,10.75 -1.16,10.65 -1.14,10.54 -1.12,10.44 -1.07,10.35 -1.02,10.26 -0.94,10.19 -0.86,10.11 -0.76,10.07 -0.66,10.03 -0.56,10.02 -0.45,10.02 -0.35,10.04 -0.25,10.07 -0.16,10.12 -0.07,10.18 -0.00,10.27 0.06,10.35 0.09,10.45 0.13,10.55 0.13,10.65 0.13,10.76 0.10,10.86 0.07,10.96 0.01,11.05 -0.04,11.14 -0.13,11.20 -0.22,11.26 -0.32,11.29 -0.42,11.32 -0.53,11.32 -0.63,11.31 -0.73,11.28 -0.83,11.24 -0.92,11.17 -1.00,11.11 -1.05,11.02 -1.11,10.93 -1.14,10.82 -1.16,10.72 -1.15,10.61 -1.14,10.51 -1.10,10.41 -1.06,10.31 -0.99,10.23 -0.92,10.16 -0.92,10.16 -0.92,10.16 0.25,9.06 1.43,7.96 2.25,7.51 3.08,7.05 3.75,6.69 4.43,6.33 5.19,5.87 5.96,5.40 6.36,5.03 6.76,4.66 6.99,5.23 7.22,5.81 6.87,5.24 6.51,4.68 6.54,4.58 6.58,4.48 6.63,4.39 6.69,4.30 6.76,4.23 6.84,4.16 6.93,4.10 7.02,4.05 7.12,4.02 7.23,3.99 7.33,3.99 7.44,3.98 7.54,4.01 7.64,4.03 7.74,4.07 7.83,4.12 7.91,4.18 8.00,4.25 8.06,4.33 8.12,4.42 8.16,4.52 8.21,4.61 8.22,4.72 8.24,4.82 8.23,4.93 8.22,5.03 8.07,5.27 7.91,5.50 7.29,5.57 6.68,5.63 6.16,5.16 5.64,4.68 5.24,4.26 4.84,3.84 4.19,3.38 3.55,2.91 3.03,2.61 2.50,2.30 1.89,1.92 1.29,1.54 0.47,1.13 -0.34,0.72 -0.42,0.67 -0.50,0.62 -0.57,0.55 -0.63,0.48 -0.68,0.40 -0.73,0.31 -0.76,0.22 -0.79,0.13 -0.79,0.03 -0.79,-0.06 -0.78,-0.15 -0.76,-0.25 -0.72,-0.33 -0.67,-0.42 -0.61,-0.50 -0.55,-0.57 -0.48,-0.63 -0.40,-0.69 -0.31,-0.73 -0.22,-0.76 -0.13,-0.78 -0.03,-0.80 0.06,-0.79 0.15,-0.78 0.24,-0.75 0.34,-0.72 0.34,-0.72 L 0.34,-0.72 Z"/></g></svg>