<svg version="1.1" xmlns="http://www.w3.org/2000/svg" viewBox="0 0 449.8558741471818 347.61541748046875" width="449.8558741471818" height="347.61541748046875" filter="invert(93%) hue-rotate(180deg)">
  <!-- svg-source:excalidraw -->
  
  <defs>
    <style class="style-fonts">
      @font-face {
        font-family: "Virgil";
        src: url("https://excalidraw.com/Virgil.woff2");
      }
      @font-face {
        font-family: "Cascadia";
        src: url("https://excalidraw.com/Cascadia.woff2");
      }
    </style>
  </defs>
  <rect x="0" y="0" width="449.8558741471818" height="347.61541748046875" fill="transparent"/><g stroke-linecap="round" transform="translate(5.356549081700933 119.05788418520889) rotate(348.1957462867232 219.57138799189 48.505073578463026)"><path d="M-0.01 49.01 C-0.01 49.01, -0.01 49.01, -0.01 49.01 M-0.01 49.01 C-0.01 49.01, -0.01 49.01, -0.01 49.01 M4.32 50.13 C4.96 49.39, 5.6 48.66, 6.29 47.87 M4.32 50.13 C5.08 49.25, 5.85 48.37, 6.29 47.87 M8.65 51.24 C10.01 49.67, 11.38 48.1, 13.24 45.96 M8.65 51.24 C9.78 49.94, 10.92 48.64, 13.24 45.96 M13.64 51.6 C15.98 48.91, 18.33 46.21, 19.54 44.81 M13.64 51.6 C15.91 48.99, 18.18 46.38, 19.54 44.81 M17.97 52.72 C20.03 50.35, 22.09 47.97, 26.5 42.91 M17.97 52.72 C20.55 49.75, 23.13 46.79, 26.5 42.91 M22.3 53.83 C25.24 50.45, 28.17 47.08, 32.8 41.76 M22.3 53.83 C25.31 50.37, 28.32 46.9, 32.8 41.76 M26.63 54.95 C29.95 51.13, 33.27 47.31, 39.75 39.85 M26.63 54.95 C31.23 49.65, 35.84 44.36, 39.75 39.85 M30.96 56.06 C34.89 51.54, 38.83 47.01, 46.05 38.71 M30.96 56.06 C36.52 49.67, 42.07 43.28, 46.05 38.71 M35.95 56.42 C39.57 52.26, 43.19 48.09, 52.35 37.56 M35.95 56.42 C39.44 52.4, 42.94 48.38, 52.35 37.56 M40.28 57.54 C46.61 50.25, 52.95 42.96, 59.3 35.65 M40.28 57.54 C45.91 51.06, 51.55 44.58, 59.3 35.65 M44.61 58.65 C51.78 50.4, 58.95 42.16, 65.6 34.5 M44.61 58.65 C50.97 51.33, 57.34 44.01, 65.6 34.5 M48.94 59.77 C58.31 48.99, 67.68 38.21, 72.56 32.6 M48.94 59.77 C56.78 50.75, 64.61 41.74, 72.56 32.6 M53.27 60.88 C61.42 51.51, 69.56 42.14, 78.86 31.45 M53.27 60.88 C59.14 54.13, 65 47.39, 78.86 31.45 M57.6 62 C64.7 53.83, 71.81 45.66, 85.16 30.3 M57.6 62 C66.7 51.53, 75.8 41.07, 85.16 30.3 M62.59 62.36 C73.23 50.12, 83.86 37.88, 92.11 28.4 M62.59 62.36 C74.2 49, 85.82 35.64, 92.11 28.4 M66.92 63.47 C74.11 55.21, 81.29 46.94, 98.41 27.25 M66.92 63.47 C77.63 51.15, 88.34 38.83, 98.41 27.25 M71.25 64.59 C84.3 49.57, 97.36 34.56, 105.37 25.34 M71.25 64.59 C84.59 49.24, 97.93 33.9, 105.37 25.34 M75.58 65.7 C87.36 52.15, 99.15 38.59, 111.67 24.19 M75.58 65.7 C82.94 57.24, 90.3 48.77, 111.67 24.19 M79.91 66.82 C87.92 57.6, 95.93 48.39, 118.62 22.29 M79.91 66.82 C88.1 57.4, 96.28 47.98, 118.62 22.29 M84.9 67.18 C96.01 54.4, 107.11 41.63, 124.92 21.14 M84.9 67.18 C99.23 50.69, 113.56 34.21, 124.92 21.14 M89.23 68.29 C104.39 50.85, 119.55 33.41, 131.22 19.99 M89.23 68.29 C99.22 56.8, 109.22 45.3, 131.22 19.99 M93.56 69.41 C107.48 53.39, 121.41 37.38, 138.17 18.09 M93.56 69.41 C103.93 57.48, 114.3 45.55, 138.17 18.09 M97.89 70.52 C110.89 55.57, 123.89 40.61, 144.47 16.94 M97.89 70.52 C109.41 57.27, 120.93 44.02, 144.47 16.94 M102.22 71.64 C120.3 50.84, 138.38 30.04, 151.43 15.03 M102.22 71.64 C114.56 57.45, 126.89 43.26, 151.43 15.03 M107.21 72 C122.43 54.48, 137.66 36.97, 157.73 13.88 M107.21 72 C117.83 59.79, 128.44 47.58, 157.73 13.88 M111.54 73.11 C126.61 55.78, 141.67 38.45, 164.03 12.73 M111.54 73.11 C123.63 59.2, 135.72 45.29, 164.03 12.73 M115.87 74.23 C131 56.83, 146.12 39.43, 170.98 10.83 M115.87 74.23 C131.89 55.8, 147.92 37.36, 170.98 10.83 M120.2 75.34 C132.79 60.86, 145.38 46.38, 177.28 9.68 M120.2 75.34 C142.05 50.21, 163.89 25.09, 177.28 9.68 M124.53 76.46 C145.5 52.34, 166.47 28.21, 184.24 7.78 M124.53 76.46 C139.3 59.48, 154.06 42.49, 184.24 7.78 M128.87 77.57 C142.68 61.68, 156.5 45.79, 190.53 6.63 M128.87 77.57 C148.14 55.39, 167.42 33.22, 190.53 6.63 M133.85 77.93 C158.72 49.33, 183.58 20.73, 197.49 4.72 M133.85 77.93 C148.59 60.98, 163.32 44.03, 197.49 4.72 M138.18 79.05 C155.21 59.45, 172.25 39.86, 203.79 3.57 M138.18 79.05 C152.54 62.53, 166.91 46, 203.79 3.57 M142.51 80.16 C166.72 52.31, 190.93 24.47, 210.09 2.43 M142.51 80.16 C168.81 49.91, 195.11 19.65, 210.09 2.43 M146.85 81.28 C174.63 49.32, 202.41 17.36, 217.04 0.52 M146.85 81.28 C167.49 57.53, 188.13 33.79, 217.04 0.52 M151.18 82.39 C174.02 56.11, 196.86 29.83, 221.37 1.64 M151.18 82.39 C169.4 61.43, 187.62 40.46, 221.37 1.64 M156.16 82.75 C170.57 66.18, 184.98 49.6, 225.71 2.75 M156.16 82.75 C178.71 56.81, 201.26 30.88, 225.71 2.75 M160.49 83.86 C179.45 62.05, 198.41 40.24, 230.69 3.11 M160.49 83.86 C186.88 53.52, 213.26 23.17, 230.69 3.11 M164.83 84.98 C191.14 54.71, 217.45 24.44, 235.02 4.23 M164.83 84.98 C185.14 61.61, 205.46 38.23, 235.02 4.23 M169.16 86.09 C188.55 63.78, 207.95 41.47, 239.35 5.34 M169.16 86.09 C187.74 64.72, 206.32 43.34, 239.35 5.34 M173.49 87.21 C193.56 64.12, 213.64 41.02, 243.69 6.46 M173.49 87.21 C199 57.86, 224.52 28.51, 243.69 6.46 M178.47 87.57 C201.73 60.81, 224.99 34.06, 248.02 7.57 M178.47 87.57 C195.65 67.81, 212.82 48.06, 248.02 7.57 M182.81 88.68 C199.08 69.96, 215.35 51.24, 252.35 8.69 M182.81 88.68 C204.62 63.59, 226.44 38.49, 252.35 8.69 M187.14 89.8 C211.08 62.26, 235.02 34.72, 257.33 9.05 M187.14 89.8 C203.76 70.67, 220.39 51.55, 257.33 9.05 M191.47 90.91 C206.82 73.26, 222.16 55.6, 261.67 10.16 M191.47 90.91 C212.63 66.57, 233.79 42.22, 261.67 10.16 M195.8 92.03 C216.78 67.89, 237.77 43.74, 266 11.27 M195.8 92.03 C219.84 64.37, 243.88 36.72, 266 11.27 M200.78 92.39 C224.84 64.72, 248.89 37.05, 270.33 12.39 M200.78 92.39 C220.37 69.85, 239.96 47.32, 270.33 12.39 M205.12 93.5 C227.18 68.12, 249.24 42.74, 274.66 13.5 M205.12 93.5 C223.59 72.25, 242.07 50.99, 274.66 13.5 M209.45 94.62 C225.29 76.39, 241.13 58.17, 278.99 14.62 M209.45 94.62 C223.57 78.37, 237.7 62.12, 278.99 14.62 M213.78 95.73 C228.61 78.67, 243.44 61.61, 283.98 14.98 M213.78 95.73 C234.99 71.33, 256.2 46.93, 283.98 14.98 M218.11 96.85 C245 65.92, 271.89 34.98, 288.31 16.09 M218.11 96.85 C232.72 80.04, 247.34 63.22, 288.31 16.09 M221.78 98.72 C243.23 74.05, 264.67 49.39, 292.64 17.21 M221.78 98.72 C245.96 70.91, 270.13 43.1, 292.64 17.21 M228.08 97.57 C244.35 78.85, 260.62 60.14, 296.97 18.32 M228.08 97.57 C244.15 79.09, 260.21 60.61, 296.97 18.32 M235.04 95.66 C249.55 78.97, 264.07 62.27, 301.3 19.44 M235.04 95.66 C252.66 75.4, 270.28 55.13, 301.3 19.44 M241.34 94.52 C261.8 70.98, 282.26 47.44, 305.63 20.55 M241.34 94.52 C254.72 79.12, 268.09 63.73, 305.63 20.55 M248.29 92.61 C266.66 71.48, 285.03 50.35, 310.62 20.91 M248.29 92.61 C270.3 67.29, 292.31 41.97, 310.62 20.91 M254.59 91.46 C270.67 72.97, 286.75 54.47, 314.95 22.03 M254.59 91.46 C270.08 73.65, 285.57 55.83, 314.95 22.03 M260.89 90.31 C282.49 65.46, 304.1 40.61, 319.28 23.14 M260.89 90.31 C276.86 71.94, 292.83 53.57, 319.28 23.14 M267.85 88.41 C280.34 74.03, 292.84 59.66, 323.61 24.26 M267.85 88.41 C284.36 69.41, 300.88 50.4, 323.61 24.26 M274.14 87.26 C295.2 63.04, 316.25 38.82, 327.94 25.37 M274.14 87.26 C289.82 69.22, 305.5 51.19, 327.94 25.37 M281.1 85.36 C293.44 71.16, 305.77 56.97, 332.27 26.49 M281.1 85.36 C293.29 71.34, 305.47 57.32, 332.27 26.49 M287.4 84.21 C297.95 72.07, 308.51 59.92, 337.26 26.85 M287.4 84.21 C300.61 69.01, 313.82 53.82, 337.26 26.85 M293.7 83.06 C306.78 68, 319.87 52.95, 341.59 27.96 M293.7 83.06 C312.25 61.71, 330.8 40.37, 341.59 27.96 M300.65 81.15 C318.31 60.84, 335.97 40.53, 345.92 29.08 M300.65 81.15 C311.78 68.35, 322.91 55.55, 345.92 29.08 M306.95 80 C323.53 60.93, 340.11 41.86, 350.25 30.19 M306.95 80 C317.46 67.91, 327.97 55.83, 350.25 30.19 M313.25 78.85 C329.44 60.23, 345.64 41.6, 354.58 31.31 M313.25 78.85 C324.82 65.55, 336.39 52.24, 354.58 31.31 M320.21 76.95 C333.31 61.88, 346.4 46.81, 358.91 32.42 M320.21 76.95 C331.68 63.75, 343.16 50.55, 358.91 32.42 M326.51 75.8 C341.03 59.09, 355.56 42.38, 363.9 32.78 M326.51 75.8 C334.22 66.93, 341.93 58.05, 363.9 32.78 M333.46 73.9 C340.92 65.32, 348.38 56.74, 368.23 33.9 M333.46 73.9 C341.63 64.49, 349.81 55.09, 368.23 33.9 M339.76 72.75 C348.22 63.01, 356.69 53.28, 372.56 35.01 M339.76 72.75 C348.23 63, 356.7 53.26, 372.56 35.01 M346.06 71.6 C358.15 57.69, 370.24 43.78, 376.89 36.13 M346.06 71.6 C356.49 59.6, 366.93 47.59, 376.89 36.13 M353.01 69.69 C363.86 57.22, 374.7 44.75, 381.23 37.24 M353.01 69.69 C360.42 61.17, 367.83 52.65, 381.23 37.24 M359.31 68.54 C368.72 57.72, 378.13 46.89, 385.56 38.36 M359.31 68.54 C366.66 60.09, 374.02 51.63, 385.56 38.36 M365.61 67.4 C372.04 60, 378.47 52.6, 390.54 38.72 M365.61 67.4 C371.59 60.52, 377.57 53.64, 390.54 38.72 M372.57 65.49 C379.42 57.61, 386.27 49.72, 394.87 39.83 M372.57 65.49 C379.88 57.08, 387.19 48.67, 394.87 39.83 M378.87 64.34 C384.47 57.9, 390.07 51.46, 399.21 40.95 M378.87 64.34 C383.03 59.56, 387.19 54.77, 399.21 40.95 M385.82 62.44 C391.81 55.55, 397.79 48.67, 403.54 42.06 M385.82 62.44 C391.89 55.45, 397.96 48.47, 403.54 42.06 M392.12 61.29 C397.46 55.14, 402.81 49, 407.87 43.18 M392.12 61.29 C397.86 54.68, 403.6 48.08, 407.87 43.18 M398.42 60.14 C401.95 56.08, 405.48 52.02, 412.2 44.29 M398.42 60.14 C403.65 54.12, 408.88 48.1, 412.2 44.29 M405.38 58.24 C408.26 54.91, 411.15 51.59, 416.53 45.41 M405.38 58.24 C408.97 54.1, 412.56 49.97, 416.53 45.41 M411.68 57.09 C415.36 52.84, 419.05 48.6, 421.52 45.77 M411.68 57.09 C414.51 53.83, 417.34 50.57, 421.52 45.77 M417.97 55.94 C420.73 52.77, 423.48 49.6, 425.85 46.88 M417.97 55.94 C420.12 53.47, 422.26 51, 425.85 46.88 M424.93 54.03 C426.57 52.15, 428.2 50.27, 430.18 47.99 M424.93 54.03 C426.55 52.17, 428.17 50.3, 430.18 47.99 M431.23 52.88 C431.99 52, 432.76 51.12, 434.51 49.11 M431.23 52.88 C431.9 52.11, 432.57 51.34, 434.51 49.11" stroke="#fa5252" stroke-width="0.5" fill="none"/><path d="M220 0 C296.82 17.18, 373.63 34.35, 439.14 49 M220 0 C294.19 16.59, 368.39 33.18, 439.14 49 M439.14 49 C352.13 68.06, 265.12 87.12, 220 97.01 M439.14 49 C354.92 67.45, 270.71 85.9, 220 97.01 M220 97.01 C137.26 78.95, 54.51 60.9, 0 49 M220 97.01 C175.74 87.35, 131.47 77.69, 0 49 M0 49 C62.39 35.1, 124.78 21.21, 220 0 M0 49 C47.65 38.39, 95.3 27.77, 220 0" stroke="#000000" stroke-width="1" fill="none"/></g><g stroke-linecap="round"><g transform="translate(156.12131170737996 337.61541748046875) rotate(0 81.90628051757812 -163.47476196289062)"><path d="M0 0 C63.61 -126.95, 127.21 -253.9, 163.81 -326.95 M0 0 C56.16 -112.09, 112.32 -224.18, 163.81 -326.95" stroke="#000000" stroke-width="1" fill="none"/></g></g><mask/><g stroke-linecap="round"><g transform="translate(243.6877789925362 163.95260620117188) rotate(0 7.105427357601002e-15 -69.88461303710938)"><path d="M0 0 C0 -34.02, 0 -68.03, 0 -139.77 M0 0 C0 -29.05, 0 -58.1, 0 -139.77" stroke="#364fc7" stroke-width="1" fill="none"/></g><g transform="translate(243.6877789925362 163.95260620117188) rotate(0 7.105427357601002e-15 -69.88461303710938)"><path d="M0 -139.77 L6.34 -126.17 L-6.34 -126.17 L0 -139.77" stroke="none" stroke-width="0" fill="#364fc7" fill-rule="evenodd"/><path d="M0 -139.77 C1.54 -136.46, 3.09 -133.15, 6.34 -126.17 M0 -139.77 C1.32 -136.94, 2.64 -134.12, 6.34 -126.17 M6.34 -126.17 C2.43 -126.17, -1.48 -126.17, -6.34 -126.17 M6.34 -126.17 C1.59 -126.17, -3.15 -126.17, -6.34 -126.17 M-6.34 -126.17 C-4.76 -129.57, -3.17 -132.96, 0 -139.77 M-6.34 -126.17 C-4.38 -130.37, -2.42 -134.57, 0 -139.77 M0 -139.77 C0 -139.77, 0 -139.77, 0 -139.77 M0 -139.77 C0 -139.77, 0 -139.77, 0 -139.77" stroke="#364fc7" stroke-width="1" fill="none"/></g></g><mask/><g transform="translate(196.40854315269246 44.42626953125) rotate(0 0.732513427734375 10.554275512695312)" stroke="none"><path fill="#364fc7" d="M 0.84,-0.01 Q 0.84,-0.01 1.03,4.42 1.22,8.86 1.30,11.89 1.39,14.91 1.65,17.39 1.91,19.88 1.91,19.98 1.91,20.09 1.88,20.19 1.85,20.29 1.78,20.38 1.72,20.46 1.63,20.52 1.55,20.58 1.44,20.61 1.34,20.64 1.24,20.64 1.13,20.64 1.03,20.60 0.93,20.56 0.85,20.49 0.77,20.42 0.71,20.33 0.66,20.24 0.63,20.14 0.61,20.04 0.62,19.93 0.63,19.82 0.67,19.73 0.71,19.63 0.79,19.55 0.86,19.47 0.95,19.42 1.04,19.37 1.15,19.35 1.25,19.34 1.36,19.35 1.46,19.37 1.56,19.42 1.65,19.46 1.73,19.54 1.80,19.62 1.85,19.71 1.89,19.81 1.91,19.91 1.92,20.02 1.90,20.12 1.88,20.23 1.82,20.32 1.77,20.41 1.69,20.48 1.61,20.55 1.51,20.59 1.41,20.63 1.31,20.64 1.20,20.65 1.10,20.62 0.99,20.59 0.91,20.53 0.82,20.47 0.75,20.39 0.69,20.31 0.65,20.21 0.62,20.11 0.62,20.11 0.62,20.11 -0.01,17.55 -0.65,14.99 -0.78,11.94 -0.91,8.90 -0.88,4.45 -0.84,0.01 -0.83,-0.08 -0.82,-0.18 -0.78,-0.28 -0.75,-0.37 -0.69,-0.46 -0.64,-0.54 -0.56,-0.61 -0.49,-0.68 -0.40,-0.73 -0.31,-0.78 -0.21,-0.81 -0.11,-0.83 -0.01,-0.83 0.08,-0.84 0.18,-0.81 0.28,-0.79 0.37,-0.74 0.46,-0.70 0.54,-0.63 0.62,-0.57 0.68,-0.48 0.74,-0.40 0.77,-0.31 0.81,-0.21 0.83,-0.11 0.84,-0.01 0.84,-0.01 L 0.84,-0.01 Z"/></g><g transform="translate(196.8746686409737 37.90057373046875) rotate(0 6.4592742919921875 12.385467529296875)" stroke="none"><path fill="#364fc7" d="M 0.73,-0.35 Q 0.73,-0.35 1.67,1.07 2.61,2.51 3.80,4.85 4.99,7.20 6.46,10.23 7.94,13.27 9.18,16.05 10.42,18.84 11.64,21.13 12.87,23.43 12.91,23.53 12.95,23.63 12.95,23.73 12.96,23.84 12.93,23.94 12.90,24.05 12.85,24.13 12.79,24.22 12.70,24.29 12.62,24.35 12.52,24.39 12.42,24.42 12.31,24.42 12.20,24.42 12.10,24.39 12.00,24.36 11.92,24.29 11.83,24.23 11.77,24.14 11.71,24.05 11.68,23.95 11.65,23.85 11.66,23.74 11.66,23.64 11.70,23.54 11.74,23.44 11.81,23.36 11.88,23.28 11.97,23.22 12.06,23.17 12.16,23.14 12.27,23.12 12.37,23.13 12.48,23.14 12.57,23.18 12.67,23.23 12.75,23.30 12.83,23.37 12.88,23.47 12.93,23.56 12.94,23.66 12.96,23.77 12.95,23.87 12.93,23.98 12.88,24.07 12.83,24.17 12.76,24.24 12.68,24.31 12.58,24.36 12.49,24.41 12.38,24.42 12.28,24.43 12.17,24.41 12.07,24.39 11.98,24.33 11.88,24.28 11.82,24.20 11.75,24.12 11.75,24.12 11.75,24.12 10.21,21.91 8.68,19.71 7.17,17.05 5.66,14.38 4.18,11.36 2.70,8.34 1.54,5.97 0.37,3.60 -0.18,1.98 -0.73,0.35 -0.76,0.26 -0.80,0.17 -0.81,0.07 -0.81,-0.02 -0.80,-0.12 -0.78,-0.21 -0.75,-0.31 -0.71,-0.40 -0.65,-0.48 -0.59,-0.56 -0.52,-0.62 -0.44,-0.68 -0.35,-0.73 -0.26,-0.77 -0.17,-0.79 -0.07,-0.81 0.02,-0.81 0.12,-0.81 0.21,-0.78 0.31,-0.75 0.39,-0.70 0.48,-0.66 0.55,-0.59 0.62,-0.52 0.68,-0.44 0.73,-0.35 0.73,-0.35 L 0.73,-0.35 Z"/></g><g transform="translate(208.92755560386433 36.169281005859375) rotate(0 0.63262939453125 14.483016967773438)" stroke="none"><path fill="#364fc7" d="M 0.85,0.02 Q 0.85,0.02 0.84,5.43 0.82,10.83 0.96,14.78 1.09,18.74 1.63,22.87 2.17,27.01 2.17,27.11 2.17,27.22 2.14,27.32 2.11,27.42 2.05,27.51 1.98,27.59 1.90,27.65 1.81,27.71 1.71,27.74 1.61,27.78 1.50,27.77 1.39,27.77 1.30,27.73 1.20,27.69 1.11,27.63 1.03,27.56 0.97,27.47 0.92,27.38 0.89,27.27 0.87,27.17 0.88,27.07 0.89,26.96 0.93,26.86 0.97,26.77 1.05,26.69 1.12,26.61 1.21,26.56 1.30,26.51 1.41,26.49 1.51,26.47 1.62,26.48 1.72,26.50 1.82,26.55 1.91,26.59 1.99,26.67 2.06,26.75 2.11,26.84 2.15,26.94 2.17,27.04 2.18,27.15 2.16,27.25 2.14,27.36 2.09,27.45 2.03,27.54 1.95,27.61 1.87,27.68 1.77,27.72 1.68,27.76 1.57,27.77 1.46,27.78 1.36,27.75 1.26,27.72 1.17,27.67 1.08,27.61 1.02,27.52 0.95,27.44 0.91,27.34 0.88,27.24 0.88,27.24 0.88,27.24 -0.09,23.04 -1.07,18.84 -1.29,14.80 -1.51,10.76 -1.18,5.36 -0.85,-0.02 -0.84,-0.12 -0.82,-0.23 -0.78,-0.32 -0.74,-0.42 -0.68,-0.50 -0.62,-0.59 -0.54,-0.65 -0.46,-0.72 -0.37,-0.76 -0.27,-0.81 -0.17,-0.83 -0.07,-0.85 0.02,-0.85 0.13,-0.84 0.23,-0.82 0.33,-0.79 0.42,-0.74 0.51,-0.69 0.58,-0.62 0.66,-0.54 0.71,-0.46 0.77,-0.37 0.80,-0.27 0.84,-0.17 0.85,-0.07 0.85,0.02 0.85,0.02 L 0.85,0.02 Z"/></g><g transform="translate(190.6817975472237 15.726593017578125) rotate(0 7.691192626953125 0.53271484375)" stroke="none"><path fill="#364fc7" d="M 0.07,-0.92 Q 0.07,-0.92 1.27,-0.96 2.47,-1.00 4.11,-0.85 5.75,-0.70 7.56,-0.56 9.36,-0.41 12.14,-0.01 14.92,0.38 15.03,0.40 15.13,0.43 15.22,0.48 15.31,0.53 15.38,0.61 15.45,0.70 15.49,0.79 15.53,0.89 15.54,1.00 15.54,1.10 15.51,1.21 15.49,1.31 15.43,1.40 15.37,1.49 15.28,1.55 15.20,1.61 15.10,1.65 15.00,1.68 14.89,1.68 14.79,1.68 14.68,1.65 14.58,1.62 14.50,1.55 14.41,1.49 14.35,1.40 14.29,1.31 14.27,1.21 14.24,1.11 14.24,1.00 14.25,0.90 14.29,0.80 14.32,0.70 14.39,0.62 14.46,0.54 14.55,0.48 14.64,0.43 14.75,0.40 14.85,0.38 14.96,0.39 15.06,0.40 15.16,0.45 15.26,0.49 15.33,0.56 15.41,0.64 15.46,0.73 15.51,0.82 15.53,0.93 15.55,1.03 15.53,1.14 15.51,1.24 15.46,1.34 15.41,1.43 15.34,1.50 15.26,1.58 15.16,1.62 15.07,1.67 14.96,1.68 14.86,1.69 14.86,1.69 14.86,1.69 12.03,1.80 9.21,1.91 7.36,1.81 5.52,1.70 3.90,1.54 2.27,1.38 1.10,1.15 -0.07,0.92 -0.18,0.90 -0.29,0.88 -0.39,0.83 -0.49,0.78 -0.58,0.71 -0.66,0.64 -0.73,0.55 -0.80,0.46 -0.84,0.36 -0.89,0.25 -0.90,0.14 -0.92,0.03 -0.91,-0.07 -0.90,-0.18 -0.87,-0.29 -0.83,-0.39 -0.77,-0.49 -0.71,-0.58 -0.63,-0.66 -0.55,-0.74 -0.46,-0.79 -0.36,-0.85 -0.25,-0.88 -0.14,-0.91 -0.03,-0.92 0.07,-0.92 0.07,-0.92 L 0.07,-0.92 Z"/></g><g transform="translate(202.7346539925362 10.266342163085938) rotate(0 3.5292816162109375 6.95849609375)" stroke="none"><path fill="#364fc7" d="M 0.38,-0.66 Q 0.38,-0.66 1.75,-0.18 3.12,0.30 4.33,1.36 5.54,2.41 6.40,3.70 7.25,4.99 7.54,6.54 7.83,8.09 7.40,9.64 6.97,11.19 5.32,12.76 3.68,14.33 3.59,14.40 3.51,14.46 3.41,14.50 3.31,14.53 3.20,14.53 3.10,14.53 3.00,14.50 2.89,14.47 2.81,14.40 2.72,14.34 2.66,14.25 2.60,14.17 2.57,14.06 2.55,13.96 2.55,13.86 2.56,13.75 2.59,13.65 2.63,13.55 2.70,13.47 2.77,13.39 2.86,13.33 2.95,13.28 3.05,13.25 3.16,13.23 3.26,13.24 3.37,13.25 3.47,13.30 3.56,13.34 3.64,13.41 3.72,13.49 3.77,13.58 3.82,13.67 3.84,13.78 3.85,13.88 3.84,13.99 3.82,14.09 3.77,14.19 3.72,14.28 3.65,14.35 3.57,14.43 3.47,14.47 3.38,14.52 3.27,14.53 3.17,14.54 3.06,14.52 2.96,14.50 2.87,14.44 2.78,14.39 2.71,14.31 2.64,14.23 2.60,14.13 2.56,14.03 2.55,13.93 2.54,13.82 2.57,13.72 2.60,13.61 2.66,13.53 2.72,13.44 2.72,13.44 2.72,13.44 3.46,11.86 4.20,10.28 4.57,9.33 4.94,8.38 4.86,7.38 4.78,6.39 4.23,5.38 3.68,4.37 2.76,3.45 1.84,2.52 0.73,1.59 -0.38,0.66 -0.45,0.61 -0.53,0.55 -0.58,0.48 -0.64,0.41 -0.68,0.33 -0.72,0.24 -0.74,0.15 -0.76,0.06 -0.76,-0.02 -0.76,-0.11 -0.73,-0.20 -0.71,-0.29 -0.66,-0.37 -0.61,-0.45 -0.55,-0.52 -0.49,-0.59 -0.41,-0.64 -0.33,-0.69 -0.24,-0.72 -0.15,-0.75 -0.06,-0.76 0.02,-0.76 0.11,-0.75 0.20,-0.74 0.29,-0.70 0.38,-0.66 0.38,-0.66 L 0.38,-0.66 Z"/></g><g transform="translate(247.61664251792683 58.875946044921875) rotate(0 19.411117553710938 5.193878173828125)" stroke="none"><path fill="#364fc7" d="M -0.49,-0.67 Q -0.49,-0.67 0.07,-1.10 0.64,-1.53 1.40,-1.86 2.16,-2.18 3.08,-2.43 4.00,-2.68 5.01,-2.80 6.03,-2.91 7.11,-3.01 8.19,-3.10 9.29,-3.13 10.39,-3.16 11.46,-3.09 12.53,-3.03 13.60,-2.95 14.68,-2.87 15.76,-2.80 16.84,-2.73 17.93,-2.62 19.02,-2.52 19.99,-2.35 20.97,-2.19 21.95,-1.88 22.94,-1.57 23.86,-1.20 24.78,-0.84 25.75,-0.32 26.72,0.19 27.54,0.73 28.35,1.27 29.05,1.71 29.75,2.15 30.45,2.51 31.15,2.87 31.83,3.28 32.50,3.70 33.23,4.24 33.95,4.79 34.74,5.64 35.52,6.49 36.20,7.44 36.89,8.40 37.99,10.16 39.10,11.92 39.15,12.01 39.19,12.11 39.21,12.21 39.22,12.32 39.20,12.42 39.18,12.53 39.13,12.62 39.08,12.71 39.00,12.78 38.92,12.85 38.82,12.90 38.73,12.94 38.62,12.95 38.52,12.95 38.41,12.93 38.31,12.90 38.22,12.85 38.13,12.79 38.06,12.71 38.00,12.62 37.96,12.52 37.92,12.43 37.92,12.32 37.92,12.21 37.95,12.11 37.98,12.01 38.04,11.92 38.10,11.84 38.19,11.77 38.27,11.71 38.38,11.68 38.48,11.65 38.58,11.65 38.69,11.66 38.79,11.69 38.89,11.73 38.97,11.79 39.06,11.86 39.11,11.95 39.17,12.04 39.20,12.14 39.22,12.25 39.21,12.35 39.20,12.46 39.16,12.56 39.12,12.65 39.05,12.73 38.98,12.81 38.89,12.86 38.79,12.92 38.69,12.94 38.59,12.96 38.48,12.94 38.38,12.93 38.28,12.88 38.19,12.83 38.11,12.76 38.03,12.68 38.03,12.68 38.03,12.68 36.76,11.09 35.49,9.49 34.79,8.68 34.08,7.86 33.39,7.17 32.71,6.47 32.05,6.00 31.39,5.52 30.78,5.15 30.17,4.78 29.39,4.37 28.60,3.97 27.88,3.51 27.16,3.05 26.43,2.56 25.70,2.06 24.85,1.59 23.99,1.12 23.14,0.77 22.29,0.42 21.45,0.14 20.61,-0.14 19.71,-0.30 18.81,-0.46 17.75,-0.57 16.70,-0.68 15.61,-0.76 14.51,-0.84 13.45,-0.94 12.39,-1.03 11.40,-1.11 10.41,-1.18 9.38,-1.18 8.34,-1.18 7.27,-1.12 6.21,-1.06 5.33,-0.98 4.45,-0.91 3.62,-0.71 2.79,-0.52 2.22,-0.33 1.64,-0.14 1.06,0.26 0.49,0.67 0.40,0.71 0.31,0.76 0.22,0.79 0.12,0.82 0.02,0.82 -0.07,0.82 -0.17,0.80 -0.27,0.78 -0.36,0.74 -0.45,0.69 -0.52,0.63 -0.60,0.56 -0.66,0.48 -0.72,0.40 -0.76,0.31 -0.80,0.22 -0.81,0.12 -0.83,0.02 -0.82,-0.07 -0.81,-0.17 -0.77,-0.27 -0.74,-0.36 -0.69,-0.44 -0.63,-0.53 -0.56,-0.60 -0.49,-0.67 -0.49,-0.67 L -0.49,-0.67 Z"/></g><g transform="translate(268.6592145394112 69.26376342773438) rotate(0 -6.45928955078125 8.356857299804688)" stroke="none"><path fill="#364fc7" d="M 0.83,0.05 Q 0.83,0.05 0.82,1.85 0.81,3.66 0.54,5.36 0.27,7.06 -0.46,8.67 -1.19,10.27 -2.54,11.74 -3.90,13.21 -5.58,14.38 -7.26,15.54 -9.01,16.22 -10.77,16.89 -12.28,16.54 -13.80,16.19 -14.85,14.75 -15.91,13.31 -16.31,11.31 -16.70,9.31 -16.57,7.56 -16.44,5.81 -16.07,4.58 -15.70,3.35 -14.64,2.57 -13.58,1.80 -12.67,2.07 -11.75,2.33 -10.71,3.47 -9.66,4.61 -8.62,5.94 -7.58,7.27 -6.32,8.38 -5.06,9.49 -3.78,10.41 -2.50,11.33 -1.27,11.87 -0.03,12.41 1.35,12.81 2.74,13.20 2.84,13.24 2.94,13.28 3.02,13.35 3.10,13.41 3.16,13.50 3.21,13.59 3.24,13.70 3.26,13.80 3.25,13.91 3.24,14.01 3.20,14.11 3.16,14.21 3.09,14.28 3.01,14.36 2.92,14.41 2.83,14.46 2.72,14.48 2.62,14.50 2.51,14.49 2.41,14.47 2.31,14.42 2.22,14.37 2.14,14.30 2.07,14.22 2.02,14.13 1.98,14.03 1.96,13.93 1.95,13.82 1.97,13.72 1.99,13.61 2.05,13.52 2.10,13.43 2.18,13.36 2.26,13.29 2.36,13.25 2.46,13.21 2.56,13.20 2.67,13.19 2.77,13.22 2.87,13.25 2.96,13.30 3.05,13.36 3.12,13.45 3.18,13.53 3.22,13.63 3.25,13.73 3.26,13.84 3.26,13.94 3.23,14.04 3.19,14.14 3.13,14.23 3.07,14.32 2.98,14.38 2.89,14.44 2.79,14.47 2.69,14.50 2.58,14.49 2.48,14.49 2.48,14.49 2.48,14.49 0.92,14.28 -0.62,14.07 -2.19,13.62 -3.75,13.17 -5.18,12.19 -6.60,11.22 -8.00,9.96 -9.41,8.70 -10.41,7.41 -11.41,6.12 -12.58,5.12 -13.75,4.12 -14.02,5.06 -14.29,6.00 -14.42,7.47 -14.55,8.94 -14.30,10.56 -14.04,12.17 -13.47,13.20 -12.89,14.24 -12.12,14.48 -11.34,14.72 -9.95,14.17 -8.55,13.62 -7.06,12.62 -5.57,11.62 -4.41,10.43 -3.25,9.25 -2.59,7.94 -1.92,6.63 -1.60,5.08 -1.27,3.53 -1.05,1.73 -0.83,-0.05 -0.81,-0.15 -0.79,-0.25 -0.75,-0.34 -0.71,-0.43 -0.65,-0.51 -0.58,-0.59 -0.50,-0.65 -0.42,-0.71 -0.33,-0.75 -0.24,-0.79 -0.14,-0.81 -0.04,-0.83 0.05,-0.82 0.15,-0.82 0.24,-0.78 0.34,-0.75 0.43,-0.70 0.51,-0.65 0.58,-0.58 0.65,-0.51 0.71,-0.42 0.76,-0.33 0.79,-0.24 0.82,-0.14 0.82,-0.04 0.83,0.05 0.83,0.05 L 0.83,0.05 Z"/></g><g transform="translate(281.1782575081612 87.04287719726562) rotate(0 26.536285400390625 33.76036071777344)" stroke="none"><path fill="#364fc7" d="M 0.04,-0.74 Q 0.04,-0.74 0.62,-0.75 1.20,-0.76 2.12,-0.67 3.04,-0.57 4.06,-0.39 5.08,-0.20 5.67,-0.03 6.26,0.13 7.00,0.40 7.75,0.67 8.40,0.92 9.06,1.17 9.72,1.43 10.38,1.68 11.03,1.90 11.67,2.12 12.47,2.37 13.26,2.61 13.98,3.05 14.70,3.49 15.44,3.94 16.18,4.39 16.88,4.87 17.58,5.34 18.28,5.80 18.99,6.26 19.71,6.72 20.43,7.18 21.24,7.71 22.04,8.23 22.92,8.75 23.81,9.27 24.72,9.84 25.63,10.42 26.44,11.05 27.26,11.67 28.10,12.34 28.93,13.00 29.79,13.73 30.65,14.46 31.55,15.32 32.45,16.18 33.35,17.10 34.26,18.02 35.17,19.08 36.08,20.14 36.99,21.26 37.90,22.38 38.72,23.55 39.54,24.71 40.24,25.92 40.95,27.12 41.67,28.46 42.39,29.79 43.08,31.13 43.77,32.46 44.44,33.73 45.11,35.00 45.78,36.20 46.44,37.41 47.07,38.58 47.71,39.74 48.31,41.01 48.91,42.27 49.42,43.48 49.93,44.70 50.30,45.75 50.68,46.80 50.99,47.85 51.31,48.90 51.60,50.06 51.89,51.23 52.13,52.41 52.37,53.58 52.55,54.64 52.72,55.70 52.81,56.72 52.89,57.74 52.96,58.58 53.03,59.41 53.13,60.15 53.23,60.88 53.36,61.61 53.48,62.35 53.60,63.00 53.73,63.64 53.79,64.23 53.85,64.82 53.43,65.72 53.02,66.62 53.02,66.70 53.02,66.78 53.00,66.85 52.98,66.93 52.94,67.00 52.90,67.07 52.85,67.13 52.79,67.19 52.73,67.23 52.66,67.27 52.58,67.30 52.51,67.33 52.43,67.33 52.35,67.34 52.27,67.33 52.20,67.32 52.12,67.29 52.05,67.26 51.99,67.21 51.92,67.17 51.87,67.11 51.82,67.05 51.78,66.97 51.75,66.90 51.73,66.83 51.71,66.75 51.71,66.71 51.71,66.67 51.73,66.57 51.75,66.46 51.80,66.37 51.85,66.28 51.93,66.21 52.01,66.13 52.10,66.09 52.20,66.05 52.31,66.04 52.41,66.03 52.52,66.05 52.62,66.08 52.71,66.13 52.80,66.19 52.87,66.27 52.94,66.35 52.97,66.45 53.01,66.55 53.01,66.66 53.02,66.77 52.99,66.87 52.96,66.97 52.90,67.06 52.84,67.14 52.75,67.21 52.67,67.27 52.56,67.30 52.46,67.33 52.36,67.33 52.25,67.33 52.15,67.29 52.05,67.26 51.97,67.19 51.88,67.13 51.82,67.04 51.77,66.95 51.74,66.85 51.71,66.74 51.72,66.64 51.73,66.53 51.77,66.43 51.81,66.34 51.88,66.26 51.95,66.18 52.04,66.12 52.13,66.07 52.24,66.05 52.34,66.03 52.45,66.04 52.55,66.05 52.65,66.10 52.74,66.15 52.82,66.22 52.90,66.30 52.94,66.39 52.99,66.48 53.01,66.55 53.02,66.62 53.02,66.70 53.02,66.78 53.00,66.85 52.98,66.93 52.94,67.00 52.90,67.07 52.85,67.13 52.79,67.19 52.73,67.23 52.66,67.27 52.59,67.30 52.51,67.33 52.43,67.33 52.35,67.34 52.27,67.33 52.20,67.32 52.12,67.29 52.05,67.26 51.99,67.21 51.92,67.17 51.87,67.11 51.82,67.05 51.78,66.97 51.75,66.90 51.73,66.83 51.71,66.75 51.87,65.36 52.03,63.97 51.90,63.30 51.77,62.63 51.64,61.87 51.52,61.12 51.41,60.34 51.30,59.56 51.23,58.72 51.16,57.87 51.09,56.93 51.02,55.99 50.85,54.96 50.67,53.93 50.44,52.79 50.21,51.65 49.93,50.52 49.65,49.40 49.35,48.39 49.05,47.38 48.69,46.37 48.33,45.37 47.84,44.19 47.35,43.01 46.76,41.79 46.18,40.57 45.55,39.41 44.93,38.24 44.25,37.03 43.58,35.81 42.90,34.53 42.23,33.25 41.55,31.93 40.86,30.61 40.16,29.30 39.45,27.99 38.79,26.85 38.12,25.70 37.34,24.58 36.55,23.46 35.66,22.36 34.78,21.26 33.90,20.24 33.02,19.22 32.14,18.32 31.26,17.42 30.41,16.59 29.55,15.76 28.71,15.05 27.87,14.34 27.04,13.68 26.21,13.03 25.46,12.44 24.71,11.86 23.83,11.30 22.94,10.74 22.03,10.20 21.11,9.66 20.31,9.14 19.51,8.61 18.78,8.15 18.06,7.68 17.34,7.21 16.63,6.74 15.96,6.29 15.30,5.84 14.55,5.38 13.80,4.93 13.27,4.58 12.74,4.23 11.93,3.98 11.13,3.73 10.45,3.50 9.76,3.27 9.11,3.01 8.46,2.76 7.81,2.51 7.17,2.27 6.47,2.02 5.78,1.76 5.24,1.61 4.70,1.45 3.78,1.28 2.87,1.11 1.98,1.01 1.09,0.92 0.52,0.83 -0.04,0.74 -0.13,0.72 -0.22,0.71 -0.30,0.67 -0.39,0.63 -0.46,0.58 -0.53,0.52 -0.58,0.45 -0.64,0.38 -0.67,0.30 -0.71,0.21 -0.73,0.12 -0.74,0.04 -0.74,-0.04 -0.73,-0.13 -0.70,-0.22 -0.68,-0.31 -0.63,-0.38 -0.58,-0.46 -0.52,-0.52 -0.45,-0.59 -0.38,-0.63 -0.30,-0.68 -0.21,-0.71 -0.13,-0.73 -0.04,-0.74 0.04,-0.74 0.04,-0.74 L 0.04,-0.74 Z"/></g><g transform="translate(336.3150983284737 76.18893432617188) rotate(0 -1.3651123046875 11.553115844726562)" stroke="none"><path fill="#364fc7" d="M 0.84,0.07 Q 0.84,0.07 0.73,1.82 0.62,3.56 0.33,5.73 0.04,7.90 -0.29,10.39 -0.63,12.89 -0.93,15.24 -1.23,17.60 -1.57,20.14 -1.92,22.68 -1.94,22.78 -1.96,22.89 -2.01,22.98 -2.07,23.07 -2.15,23.14 -2.23,23.21 -2.32,23.25 -2.42,23.29 -2.53,23.30 -2.63,23.31 -2.74,23.28 -2.84,23.26 -2.93,23.20 -3.02,23.14 -3.08,23.06 -3.15,22.97 -3.19,22.88 -3.22,22.78 -3.22,22.67 -3.23,22.56 -3.20,22.46 -3.16,22.36 -3.10,22.27 -3.04,22.19 -2.95,22.13 -2.86,22.07 -2.76,22.03 -2.66,22.00 -2.56,22.01 -2.45,22.01 -2.35,22.05 -2.25,22.09 -2.17,22.15 -2.09,22.22 -2.03,22.31 -1.97,22.40 -1.95,22.50 -1.92,22.61 -1.93,22.71 -1.94,22.82 -1.98,22.92 -2.03,23.01 -2.10,23.09 -2.17,23.17 -2.26,23.22 -2.35,23.27 -2.46,23.29 -2.56,23.31 -2.67,23.30 -2.77,23.28 -2.87,23.23 -2.96,23.19 -3.04,23.11 -3.11,23.04 -3.16,22.94 -3.21,22.84 -3.22,22.74 -3.23,22.63 -3.23,22.63 -3.23,22.63 -3.22,19.99 -3.21,17.35 -2.91,14.98 -2.61,12.61 -2.26,10.11 -1.90,7.61 -1.57,5.50 -1.23,3.40 -1.03,1.66 -0.84,-0.07 -0.82,-0.17 -0.79,-0.27 -0.75,-0.36 -0.71,-0.45 -0.64,-0.53 -0.58,-0.61 -0.49,-0.67 -0.41,-0.73 -0.32,-0.77 -0.22,-0.81 -0.12,-0.82 -0.02,-0.84 0.07,-0.83 0.17,-0.82 0.27,-0.79 0.36,-0.76 0.45,-0.70 0.53,-0.65 0.60,-0.57 0.67,-0.50 0.72,-0.41 0.77,-0.32 0.80,-0.22 0.83,-0.12 0.83,-0.02 0.84,0.07 0.84,0.07 L 0.84,0.07 Z"/></g><g transform="translate(337.91330389487996 72.52658081054688) rotate(0 5.22735595703125 9.821823120117188)" stroke="none"><path fill="#364fc7" d="M -0.20,-0.82 Q -0.20,-0.82 0.70,-1.17 1.61,-1.51 2.96,-1.67 4.31,-1.83 5.71,-1.86 7.11,-1.89 8.54,-1.71 9.97,-1.52 10.99,-0.81 12.02,-0.10 12.17,1.20 12.32,2.50 11.35,3.66 10.38,4.81 9.21,5.60 8.03,6.39 7.26,6.95 6.50,7.50 7.13,8.06 7.76,8.63 8.65,9.54 9.54,10.46 10.31,11.71 11.09,12.96 11.62,14.23 12.15,15.50 12.13,16.91 12.11,18.33 11.11,19.41 10.11,20.50 8.27,20.98 6.44,21.46 4.46,21.34 2.48,21.22 0.35,19.56 -1.77,17.90 -1.83,17.81 -1.89,17.72 -1.91,17.61 -1.93,17.51 -1.93,17.41 -1.92,17.30 -1.87,17.20 -1.83,17.11 -1.76,17.03 -1.69,16.95 -1.59,16.90 -1.50,16.85 -1.40,16.83 -1.29,16.81 -1.19,16.82 -1.08,16.84 -0.99,16.89 -0.89,16.94 -0.82,17.01 -0.74,17.09 -0.70,17.18 -0.65,17.28 -0.64,17.38 -0.62,17.49 -0.64,17.59 -0.67,17.70 -0.72,17.79 -0.77,17.88 -0.85,17.95 -0.93,18.02 -1.03,18.06 -1.13,18.10 -1.23,18.11 -1.34,18.12 -1.44,18.09 -1.55,18.07 -1.63,18.01 -1.72,17.95 -1.79,17.87 -1.85,17.78 -1.89,17.68 -1.93,17.58 -1.93,17.48 -1.93,17.37 -1.90,17.27 -1.87,17.17 -1.80,17.08 -1.74,17.00 -1.65,16.93 -1.57,16.87 -1.46,16.84 -1.36,16.81 -1.26,16.82 -1.15,16.82 -1.05,16.86 -0.95,16.90 -0.87,16.96 -0.79,17.03 -0.79,17.03 -0.79,17.03 0.93,17.77 2.66,18.50 4.26,18.59 5.85,18.68 7.11,18.48 8.37,18.27 8.98,17.94 9.58,17.61 9.56,17.02 9.54,16.44 9.16,15.37 8.78,14.29 8.23,13.26 7.67,12.23 6.79,11.30 5.91,10.37 5.13,9.50 4.35,8.64 4.15,8.01 3.96,7.38 4.48,6.41 5.01,5.45 5.82,4.86 6.63,4.27 7.62,3.63 8.62,2.99 9.34,2.49 10.07,1.98 9.81,1.35 9.55,0.71 8.35,0.53 7.14,0.35 5.84,0.36 4.55,0.37 3.34,0.48 2.13,0.59 1.16,0.71 0.20,0.82 0.10,0.83 -0.00,0.84 -0.10,0.83 -0.20,0.82 -0.29,0.78 -0.39,0.74 -0.47,0.69 -0.56,0.63 -0.63,0.55 -0.69,0.48 -0.74,0.38 -0.79,0.29 -0.81,0.20 -0.84,0.10 -0.84,-0.00 -0.84,-0.10 -0.81,-0.20 -0.79,-0.30 -0.74,-0.39 -0.69,-0.48 -0.62,-0.55 -0.56,-0.63 -0.47,-0.69 -0.39,-0.75 -0.29,-0.78 -0.20,-0.82 -0.20,-0.82 L -0.20,-0.82 Z"/></g></svg>