<svg version="1.1" xmlns="http://www.w3.org/2000/svg" viewBox="0 0 613.2872725056845 317.6000061035156" width="613.2872725056845" height="317.6000061035156" filter="invert(93%) hue-rotate(180deg)">
  <!-- svg-source:excalidraw -->
  
  <defs>
    <style class="style-fonts">
      @font-face {
        font-family: "Virgil";
        src: url("https://excalidraw.com/Virgil.woff2");
      }
      @font-face {
        font-family: "Cascadia";
        src: url("https://excalidraw.com/Cascadia.woff2");
      }
    </style>
  </defs>
  <rect x="0" y="0" width="613.2872725056845" height="317.6000061035156" fill="#ffffff"/><g stroke-linecap="round" transform="translate(10 10) rotate(0 24.400009155273438 148.8000030517578)"><path d="M0 0 C0 0, 0 0, 0 0 M0 0 C0 0, 0 0, 0 0 M-0.26 6.4 C1.66 4.19, 3.58 1.97, 4.99 0.36 M-0.26 6.4 C1.44 4.44, 3.14 2.49, 4.99 0.36 M0.13 12.04 C3.82 7.8, 7.5 3.56, 10.63 -0.03 M0.13 12.04 C2.69 9.1, 5.24 6.16, 10.63 -0.03 M-0.13 18.44 C4.36 13.28, 8.84 8.12, 15.62 0.33 M-0.13 18.44 C6.13 11.24, 12.38 4.05, 15.62 0.33 M0.27 24.08 C5 18.63, 9.74 13.18, 21.26 -0.07 M0.27 24.08 C5.27 18.33, 10.27 12.58, 21.26 -0.07 M0 30.48 C9.92 19.07, 19.84 7.66, 26.25 0.29 M0 30.48 C9.52 19.54, 19.03 8.6, 26.25 0.29 M-0.26 36.88 C8.14 27.21, 16.54 17.55, 31.89 -0.1 M-0.26 36.88 C7.52 27.94, 15.29 19, 31.89 -0.1 M0.14 42.52 C10.42 30.69, 20.71 18.86, 36.88 0.26 M0.14 42.52 C13.15 27.55, 26.17 12.58, 36.88 0.26 M-0.12 48.92 C12.27 34.66, 24.67 20.4, 42.52 -0.14 M-0.12 48.92 C13.34 33.43, 26.8 17.95, 42.52 -0.14 M0.27 54.56 C17.86 34.33, 35.45 14.1, 47.51 0.22 M0.27 54.56 C10.23 43.11, 20.18 31.66, 47.51 0.22 M0.01 60.96 C20.16 37.78, 40.31 14.6, 51.18 2.09 M0.01 60.96 C16.62 41.86, 33.22 22.75, 51.18 2.09 M-0.25 67.36 C19.37 44.79, 38.99 22.22, 50.92 8.49 M-0.25 67.36 C13.73 51.27, 27.72 35.18, 50.92 8.49 M0.14 73 C15.35 55.5, 30.57 38, 51.32 14.13 M0.14 73 C17.35 53.21, 34.55 33.42, 51.32 14.13 M-0.12 79.4 C19.75 56.54, 39.62 33.69, 51.05 20.53 M-0.12 79.4 C19.65 56.66, 39.41 33.92, 51.05 20.53 M0.28 85.04 C19.45 62.99, 38.62 40.93, 51.45 26.17 M0.28 85.04 C11.62 71.99, 22.96 58.94, 51.45 26.17 M0.01 91.44 C10.71 79.14, 21.4 66.84, 51.19 32.57 M0.01 91.44 C15.22 73.95, 30.42 56.46, 51.19 32.57 M-0.25 97.84 C12.37 83.33, 24.98 68.82, 50.93 38.97 M-0.25 97.84 C12.8 82.83, 25.84 67.82, 50.93 38.97 M0.15 103.48 C11.12 90.86, 22.09 78.24, 51.32 44.61 M0.15 103.48 C13.27 88.38, 26.4 73.28, 51.32 44.61 M-0.11 109.88 C19.34 87.5, 38.78 65.13, 51.06 51.01 M-0.11 109.88 C15.92 91.44, 31.95 73, 51.06 51.01 M0.28 115.52 C16.67 96.67, 33.06 77.81, 51.45 56.65 M0.28 115.52 C11.45 102.68, 22.61 89.83, 51.45 56.65 M0.02 121.92 C14.84 104.87, 29.66 87.82, 51.19 63.05 M0.02 121.92 C14.19 105.62, 28.36 89.32, 51.19 63.05 M-0.24 128.32 C19.68 105.4, 39.6 82.48, 50.93 69.45 M-0.24 128.32 C11.99 114.24, 24.22 100.17, 50.93 69.45 M0.15 133.96 C17.36 114.17, 34.56 94.38, 51.33 75.09 M0.15 133.96 C11.89 120.46, 23.63 106.95, 51.33 75.09 M-0.11 140.36 C11.71 126.76, 23.54 113.16, 51.06 81.49 M-0.11 140.36 C14.17 123.92, 28.46 107.49, 51.06 81.49 M0.29 146 C17.06 126.71, 33.83 107.41, 51.46 87.13 M0.29 146 C13.45 130.86, 26.61 115.72, 51.46 87.13 M0.02 152.4 C10.35 140.52, 20.68 128.64, 51.2 93.53 M0.02 152.4 C10.34 140.53, 20.65 128.67, 51.2 93.53 M-0.24 158.8 C16.09 140.01, 32.43 121.22, 50.94 99.93 M-0.24 158.8 C12.56 144.07, 25.36 129.35, 50.94 99.93 M0.16 164.44 C10.64 152.38, 21.13 140.31, 51.33 105.57 M0.16 164.44 C19.22 142.51, 38.28 120.58, 51.33 105.57 M-0.1 170.84 C10.75 158.35, 21.6 145.86, 51.07 111.97 M-0.1 170.84 C15.3 153.12, 30.7 135.4, 51.07 111.97 M0.29 176.48 C15.15 159.38, 30.02 142.28, 51.46 117.61 M0.29 176.48 C13.67 161.08, 27.05 145.69, 51.46 117.61 M0.03 182.88 C18.2 161.97, 36.38 141.06, 51.2 124.01 M0.03 182.88 C15.67 164.89, 31.3 146.9, 51.2 124.01 M-0.23 189.27 C12.84 174.23, 25.92 159.19, 50.94 130.41 M-0.23 189.27 C12.1 175.09, 24.43 160.9, 50.94 130.41 M0.16 194.92 C17.76 174.68, 35.35 154.44, 51.33 136.05 M0.16 194.92 C18.75 173.54, 37.33 152.16, 51.33 136.05 M-0.1 201.32 C12.39 186.95, 24.87 172.59, 51.07 142.45 M-0.1 201.32 C19.68 178.56, 39.46 155.81, 51.07 142.45 M0.3 206.96 C11.58 193.98, 22.86 181.01, 51.47 148.09 M0.3 206.96 C19.53 184.84, 38.76 162.71, 51.47 148.09 M0.03 213.36 C17.77 192.95, 35.51 172.54, 51.21 154.49 M0.03 213.36 C14.21 197.05, 28.38 180.74, 51.21 154.49 M-0.23 219.75 C13.8 203.62, 27.83 187.48, 50.94 160.89 M-0.23 219.75 C12.51 205.1, 25.25 190.45, 50.94 160.89 M0.17 225.4 C10.46 213.56, 20.75 201.72, 51.34 166.53 M0.17 225.4 C20.34 202.19, 40.51 178.98, 51.34 166.53 M-0.09 231.8 C12.24 217.6, 24.58 203.41, 51.08 172.93 M-0.09 231.8 C14.79 214.67, 29.68 197.55, 51.08 172.93 M0.3 237.44 C20.35 214.37, 40.41 191.3, 51.47 178.57 M0.3 237.44 C16.84 218.41, 33.38 199.38, 51.47 178.57 M0.04 243.84 C15.6 225.93, 31.17 208.02, 51.21 184.97 M0.04 243.84 C10.95 231.28, 21.87 218.72, 51.21 184.97 M-0.22 250.23 C12.59 235.49, 25.4 220.76, 50.95 191.37 M-0.22 250.23 C17.8 229.5, 35.82 208.78, 50.95 191.37 M0.17 255.88 C15.18 238.61, 30.19 221.35, 51.34 197.01 M0.17 255.88 C17.1 236.4, 34.04 216.92, 51.34 197.01 M-0.09 262.27 C12.95 247.27, 26 232.27, 51.08 203.41 M-0.09 262.27 C13.84 246.25, 27.77 230.23, 51.08 203.41 M0.3 267.92 C14.89 251.13, 29.48 234.35, 51.48 209.05 M0.3 267.92 C18.8 246.64, 37.3 225.36, 51.48 209.05 M0.04 274.32 C11.84 260.74, 23.64 247.17, 51.22 215.45 M0.04 274.32 C19.38 252.07, 38.71 229.83, 51.22 215.45 M-0.22 280.71 C10.18 268.75, 20.58 256.79, 50.95 221.85 M-0.22 280.71 C11.34 267.42, 22.9 254.12, 50.95 221.85 M0.18 286.36 C18.05 265.79, 35.93 245.22, 51.35 227.49 M0.18 286.36 C13.82 270.67, 27.46 254.98, 51.35 227.49 M-0.08 292.75 C11.08 279.91, 22.24 267.08, 51.09 233.89 M-0.08 292.75 C12.62 278.13, 25.33 263.51, 51.09 233.89 M0.31 298.4 C17.21 278.96, 34.11 259.51, 51.48 239.53 M0.31 298.4 C12.54 284.33, 24.76 270.27, 51.48 239.53 M5.95 298 C21.66 279.93, 37.38 261.85, 51.22 245.93 M5.95 298 C22.07 279.46, 38.18 260.93, 51.22 245.93 M10.94 298.36 C20.5 287.36, 30.07 276.36, 50.96 252.33 M10.94 298.36 C22.9 284.61, 34.85 270.85, 50.96 252.33 M16.58 297.97 C25.43 287.79, 34.27 277.62, 51.35 257.97 M16.58 297.97 C26.29 286.8, 36 275.64, 51.35 257.97 M21.57 298.33 C30.08 288.54, 38.59 278.75, 51.09 264.37 M21.57 298.33 C31.99 286.34, 42.41 274.35, 51.09 264.37 M27.21 297.93 C33.31 290.92, 39.4 283.91, 51.49 270.01 M27.21 297.93 C35.74 288.12, 44.27 278.32, 51.49 270.01 M32.2 298.29 C36.72 293.1, 41.23 287.9, 51.23 276.41 M32.2 298.29 C36.22 293.66, 40.25 289.04, 51.23 276.41 M37.84 297.9 C41.71 293.45, 45.59 288.99, 50.96 282.8 M37.84 297.9 C41.9 293.24, 45.95 288.57, 50.96 282.8 M42.83 298.26 C46.18 294.4, 49.53 290.55, 51.36 288.45 M42.83 298.26 C46.14 294.46, 49.44 290.65, 51.36 288.45 M48.47 297.86 C49.5 296.68, 50.53 295.5, 51.1 294.85 M48.47 297.86 C49.24 296.98, 50 296.1, 51.1 294.85" stroke="#868e96" stroke-width="0.5" fill="none"/><path d="M0 0 C12.96 0, 25.92 0, 48.8 0 M0 0 C16.7 0, 33.4 0, 48.8 0 M48.8 0 C48.8 74.06, 48.8 148.13, 48.8 297.6 M48.8 0 C48.8 67.57, 48.8 135.13, 48.8 297.6 M48.8 297.6 C29.93 297.6, 11.06 297.6, 0 297.6 M48.8 297.6 C36.64 297.6, 24.49 297.6, 0 297.6 M0 297.6 C0 198.03, 0 98.47, 0 0 M0 297.6 C0 205.37, 0 113.15, 0 0" stroke="#000000" stroke-width="1" fill="none"/></g><g stroke-linecap="round" transform="translate(58.997324600180576 259.911347660083) rotate(0 124 23.600006103515625)"><path d="M0 0 C0 0, 0 0, 0 0 M0 0 C0 0, 0 0, 0 0 M-0.26 6.4 C1.29 4.62, 2.84 2.84, 4.99 0.36 M-0.26 6.4 C1.41 4.47, 3.09 2.54, 4.99 0.36 M0.13 12.04 C4.21 7.35, 8.29 2.66, 10.63 -0.03 M0.13 12.04 C3.89 7.72, 7.65 3.4, 10.63 -0.03 M-0.13 18.44 C3.97 13.72, 8.07 9.01, 15.62 0.33 M-0.13 18.44 C5.75 11.67, 11.63 4.91, 15.62 0.33 M0.27 24.08 C6.34 17.09, 12.42 10.1, 21.26 -0.07 M0.27 24.08 C7.82 15.39, 15.38 6.69, 21.26 -0.07 M0 30.48 C8.33 20.9, 16.66 11.32, 26.25 0.29 M0 30.48 C5.45 24.21, 10.9 17.95, 26.25 0.29 M-0.26 36.88 C11.95 22.83, 24.16 8.79, 31.89 -0.1 M-0.26 36.88 C8.49 26.82, 17.23 16.76, 31.89 -0.1 M0.14 42.52 C8.86 32.49, 17.58 22.46, 36.88 0.26 M0.14 42.52 C12.75 28.01, 25.37 13.5, 36.88 0.26 M0.53 48.16 C13.43 33.33, 26.33 18.49, 42.52 -0.14 M0.53 48.16 C9.54 37.81, 18.54 27.45, 42.52 -0.14 M6.18 47.77 C22.47 29.03, 38.76 10.29, 47.51 0.22 M6.18 47.77 C16.5 35.89, 26.83 24.01, 47.51 0.22 M11.16 48.13 C20.49 37.4, 29.82 26.67, 53.15 -0.17 M11.16 48.13 C26.05 31, 40.94 13.88, 53.15 -0.17 M16.81 47.73 C31.9 30.37, 46.99 13.01, 58.14 0.19 M16.81 47.73 C30.97 31.44, 45.14 15.14, 58.14 0.19 M21.79 48.09 C37.69 29.81, 53.58 11.53, 63.78 -0.21 M21.79 48.09 C34.66 33.29, 47.53 18.48, 63.78 -0.21 M27.44 47.7 C41.09 31.99, 54.75 16.27, 68.77 0.15 M27.44 47.7 C43.34 29.41, 59.24 11.12, 68.77 0.15 M32.42 48.06 C46.41 31.97, 60.39 15.88, 74.41 -0.24 M32.42 48.06 C46.34 32.05, 60.26 16.04, 74.41 -0.24 M38.07 47.67 C49.38 34.65, 60.69 21.64, 79.4 0.12 M38.07 47.67 C49.86 34.1, 61.65 20.54, 79.4 0.12 M43.05 48.03 C57.58 31.32, 72.1 14.61, 85.04 -0.28 M43.05 48.03 C57.22 31.73, 71.39 15.43, 85.04 -0.28 M48.7 47.63 C64.46 29.5, 80.22 11.37, 90.03 0.08 M48.7 47.63 C61.13 33.33, 73.57 19.02, 90.03 0.08 M53.68 47.99 C69.65 29.63, 85.61 11.26, 95.67 -0.31 M53.68 47.99 C65.4 34.51, 77.12 21.03, 95.67 -0.31 M59.33 47.6 C69.37 36.04, 79.42 24.48, 100.66 0.05 M59.33 47.6 C69.03 36.44, 78.73 25.28, 100.66 0.05 M64.31 47.96 C77 33.36, 89.68 18.77, 106.3 -0.34 M64.31 47.96 C79.35 30.65, 94.4 13.35, 106.3 -0.34 M69.96 47.56 C80.37 35.59, 90.78 23.61, 111.29 0.02 M69.96 47.56 C79.75 36.3, 89.54 25.03, 111.29 0.02 M74.94 47.92 C86.56 34.56, 98.17 21.2, 116.27 0.38 M74.94 47.92 C84.18 37.3, 93.42 26.67, 116.27 0.38 M80.59 47.53 C89 37.85, 97.41 28.18, 121.92 -0.02 M80.59 47.53 C89.04 37.8, 97.5 28.07, 121.92 -0.02 M85.57 47.89 C101.67 29.37, 117.77 10.85, 126.91 0.34 M85.57 47.89 C100.87 30.29, 116.18 12.68, 126.91 0.34 M90.56 48.25 C103.04 33.9, 115.51 19.55, 132.55 -0.05 M90.56 48.25 C106.58 29.81, 122.61 11.38, 132.55 -0.05 M96.2 47.85 C104.6 38.19, 113 28.53, 137.54 0.31 M96.2 47.85 C110.29 31.65, 124.38 15.44, 137.54 0.31 M101.19 48.21 C115.25 32.04, 129.31 15.86, 143.18 -0.09 M101.19 48.21 C116.25 30.88, 131.32 13.56, 143.18 -0.09 M106.83 47.82 C115.13 38.27, 123.43 28.72, 148.17 0.27 M106.83 47.82 C120.24 32.39, 133.66 16.96, 148.17 0.27 M111.82 48.18 C125.35 32.62, 138.88 17.05, 153.81 -0.12 M111.82 48.18 C123.31 34.96, 134.8 21.74, 153.81 -0.12 M117.46 47.78 C132.52 30.47, 147.57 13.15, 158.8 0.24 M117.46 47.78 C132.23 30.8, 147 13.81, 158.8 0.24 M122.45 48.14 C133.68 35.23, 144.91 22.31, 164.44 -0.16 M122.45 48.14 C131.3 37.96, 140.15 27.78, 164.44 -0.16 M128.09 47.75 C143.74 29.75, 159.38 11.75, 169.43 0.2 M128.09 47.75 C141.41 32.43, 154.73 17.11, 169.43 0.2 M133.08 48.11 C149.13 29.65, 165.17 11.19, 175.07 -0.19 M133.08 48.11 C141.54 38.37, 150.01 28.64, 175.07 -0.19 M138.72 47.72 C148.3 36.69, 157.88 25.67, 180.06 0.17 M138.72 47.72 C153.15 31.12, 167.58 14.52, 180.06 0.17 M143.71 48.08 C155.51 34.5, 167.32 20.92, 185.7 -0.23 M143.71 48.08 C153.13 37.24, 162.55 26.4, 185.7 -0.23 M149.35 47.68 C158.25 37.45, 167.15 27.21, 190.69 0.13 M149.35 47.68 C158.23 37.48, 167.1 27.27, 190.69 0.13 M154.34 48.04 C170.38 29.59, 186.43 11.13, 196.33 -0.26 M154.34 48.04 C162.91 38.18, 171.49 28.32, 196.33 -0.26 M159.98 47.65 C173.35 32.27, 186.71 16.9, 201.32 0.1 M159.98 47.65 C174.14 31.37, 188.29 15.09, 201.32 0.1 M164.97 48.01 C177.82 33.22, 190.67 18.44, 206.96 -0.3 M164.97 48.01 C173.92 37.71, 182.87 27.42, 206.96 -0.3 M170.61 47.61 C181.09 35.56, 191.58 23.5, 211.95 0.06 M170.61 47.61 C179 37.97, 187.38 28.32, 211.95 0.06 M175.6 47.97 C187.23 34.59, 198.87 21.21, 217.59 -0.33 M175.6 47.97 C186.94 34.93, 198.28 21.89, 217.59 -0.33 M181.24 47.58 C189.78 37.76, 198.32 27.94, 222.58 0.03 M181.24 47.58 C194.2 32.68, 207.15 17.78, 222.58 0.03 M186.23 47.94 C199.76 32.37, 213.3 16.8, 228.22 -0.36 M186.23 47.94 C200.54 31.48, 214.85 15.02, 228.22 -0.36 M191.87 47.54 C203.7 33.94, 215.52 20.34, 233.21 0 M191.87 47.54 C201.71 36.22, 211.56 24.9, 233.21 0 M196.86 47.9 C208.11 34.96, 219.36 22.02, 238.19 0.36 M196.86 47.9 C210.83 31.84, 224.79 15.77, 238.19 0.36 M202.5 47.51 C214.86 33.29, 227.22 19.08, 243.84 -0.04 M202.5 47.51 C218.55 29.05, 234.59 10.6, 243.84 -0.04 M207.49 47.87 C222.37 30.75, 237.25 13.63, 248.82 0.32 M207.49 47.87 C220.76 32.61, 234.02 17.35, 248.82 0.32 M212.48 48.23 C225.3 33.48, 238.12 18.73, 248.56 6.72 M212.48 48.23 C220.47 39.04, 228.46 29.84, 248.56 6.72 M218.12 47.83 C224.84 40.11, 231.55 32.39, 248.3 13.12 M218.12 47.83 C227.07 37.54, 236.01 27.25, 248.3 13.12 M223.11 48.19 C229.97 40.3, 236.83 32.41, 248.69 18.76 M223.11 48.19 C229.32 41.04, 235.54 33.89, 248.69 18.76 M228.75 47.8 C234.64 41.02, 240.53 34.25, 248.43 25.16 M228.75 47.8 C233.03 42.88, 237.31 37.95, 248.43 25.16 M233.74 48.16 C239.08 42.02, 244.42 35.87, 248.83 30.8 M233.74 48.16 C236.82 44.61, 239.9 41.07, 248.83 30.8 M239.38 47.76 C241.52 45.3, 243.66 42.84, 248.57 37.2 M239.38 47.76 C242.91 43.71, 246.44 39.65, 248.57 37.2 M244.37 48.12 C245.28 47.08, 246.19 46.03, 248.3 43.6 M244.37 48.12 C245.56 46.75, 246.76 45.37, 248.3 43.6" stroke="#868e96" stroke-width="0.5" fill="none"/><path d="M0 0 C72.95 0, 145.89 0, 248 0 M0 0 C76.69 0, 153.38 0, 248 0 M248 0 C248 17.56, 248 35.12, 248 47.2 M248 0 C248 18.7, 248 37.4, 248 47.2 M248 47.2 C178.43 47.2, 108.87 47.2, 0 47.2 M248 47.2 C189.54 47.2, 131.08 47.2, 0 47.2 M0 47.2 C0 35.22, 0 23.24, 0 0 M0 47.2 C0 34.48, 0 21.76, 0 0" stroke="#000000" stroke-width="1" fill="none"/></g><g stroke-linecap="round"><g transform="translate(61.91878196266316 177.02270420078986) rotate(0 205.82847247874238 0)"><path d="M0 0 C140.56 0, 281.12 0, 411.66 0 M0 0 C90.33 0, 180.67 0, 411.66 0" stroke="#000000" stroke-width="2" fill="none"/></g></g><mask/><g stroke-linecap="round" transform="translate(153.413555232764 157.39521532897575) rotate(0 18.5275976258649 18.5275976258649)"><path d="M37.06 18.53 C37.06 19.6, 36.96 20.69, 36.77 21.74 C36.59 22.8, 36.3 23.86, 35.94 24.86 C35.57 25.87, 35.11 26.86, 34.57 27.79 C34.04 28.72, 33.41 29.62, 32.72 30.44 C32.03 31.26, 31.26 32.03, 30.44 32.72 C29.62 33.41, 28.72 34.04, 27.79 34.57 C26.86 35.11, 25.87 35.57, 24.86 35.94 C23.86 36.3, 22.8 36.59, 21.74 36.77 C20.69 36.96, 19.6 37.06, 18.53 37.06 C17.46 37.06, 16.37 36.96, 15.31 36.77 C14.25 36.59, 13.2 36.3, 12.19 35.94 C11.18 35.57, 10.19 35.11, 9.26 34.57 C8.34 34.04, 7.44 33.41, 6.62 32.72 C5.8 32.03, 5.02 31.26, 4.33 30.44 C3.65 29.62, 3.02 28.72, 2.48 27.79 C1.95 26.86, 1.48 25.87, 1.12 24.86 C0.75 23.86, 0.47 22.8, 0.28 21.74 C0.1 20.69, 0 19.6, 0 18.53 C0 17.46, 0.1 16.37, 0.28 15.31 C0.47 14.25, 0.75 13.2, 1.12 12.19 C1.48 11.18, 1.95 10.19, 2.48 9.26 C3.02 8.34, 3.65 7.44, 4.33 6.62 C5.02 5.8, 5.8 5.02, 6.62 4.33 C7.44 3.65, 8.34 3.02, 9.26 2.48 C10.19 1.95, 11.18 1.48, 12.19 1.12 C13.2 0.75, 14.25 0.47, 15.31 0.28 C16.37 0.1, 17.46 0, 18.53 0 C19.6 0, 20.69 0.1, 21.74 0.28 C22.8 0.47, 23.86 0.75, 24.86 1.12 C25.87 1.48, 26.86 1.95, 27.79 2.48 C28.72 3.02, 29.62 3.65, 30.44 4.33 C31.26 5.02, 32.03 5.8, 32.72 6.62 C33.41 7.44, 34.04 8.34, 34.57 9.26 C35.11 10.19, 35.57 11.18, 35.94 12.19 C36.3 13.2, 36.59 14.25, 36.77 15.31 C36.96 16.37, 37.01 17.99, 37.06 18.53 C37.1 19.06, 37.1 17.99, 37.06 18.53" stroke="none" stroke-width="0" fill="#ced4da"/><path d="M37.06 18.53 C37.06 19.6, 36.96 20.69, 36.77 21.74 C36.59 22.8, 36.3 23.86, 35.94 24.86 C35.57 25.87, 35.11 26.86, 34.57 27.79 C34.04 28.72, 33.41 29.62, 32.72 30.44 C32.03 31.26, 31.26 32.03, 30.44 32.72 C29.62 33.41, 28.72 34.04, 27.79 34.57 C26.86 35.11, 25.87 35.57, 24.86 35.94 C23.86 36.3, 22.8 36.59, 21.74 36.77 C20.69 36.96, 19.6 37.06, 18.53 37.06 C17.46 37.06, 16.37 36.96, 15.31 36.77 C14.25 36.59, 13.2 36.3, 12.19 35.94 C11.18 35.57, 10.19 35.11, 9.26 34.57 C8.34 34.04, 7.44 33.41, 6.62 32.72 C5.8 32.03, 5.02 31.26, 4.33 30.44 C3.65 29.62, 3.02 28.72, 2.48 27.79 C1.95 26.86, 1.48 25.87, 1.12 24.86 C0.75 23.86, 0.47 22.8, 0.28 21.74 C0.1 20.69, 0 19.6, 0 18.53 C0 17.46, 0.1 16.37, 0.28 15.31 C0.47 14.25, 0.75 13.2, 1.12 12.19 C1.48 11.18, 1.95 10.19, 2.48 9.26 C3.02 8.34, 3.65 7.44, 4.33 6.62 C5.02 5.8, 5.8 5.02, 6.62 4.33 C7.44 3.65, 8.34 3.02, 9.26 2.48 C10.19 1.95, 11.18 1.48, 12.19 1.12 C13.2 0.75, 14.25 0.47, 15.31 0.28 C16.37 0.1, 17.46 0, 18.53 0 C19.6 0, 20.69 0.1, 21.74 0.28 C22.8 0.47, 23.86 0.75, 24.86 1.12 C25.87 1.48, 26.86 1.95, 27.79 2.48 C28.72 3.02, 29.62 3.65, 30.44 4.33 C31.26 5.02, 32.03 5.8, 32.72 6.62 C33.41 7.44, 34.04 8.34, 34.57 9.26 C35.11 10.19, 35.57 11.18, 35.94 12.19 C36.3 13.2, 36.59 14.25, 36.77 15.31 C36.96 16.37, 37.01 17.99, 37.06 18.53 C37.1 19.06, 37.1 17.99, 37.06 18.53" stroke="#000000" stroke-width="2" fill="none"/></g><g stroke-linecap="round" transform="translate(294.22326891846694 158.67045086388381) rotate(0 18.5275976258649 18.5275976258649)"><path d="M37.06 18.53 C37.06 19.6, 36.96 20.69, 36.77 21.74 C36.59 22.8, 36.3 23.86, 35.94 24.86 C35.57 25.87, 35.11 26.86, 34.57 27.79 C34.04 28.72, 33.41 29.62, 32.72 30.44 C32.03 31.26, 31.26 32.03, 30.44 32.72 C29.62 33.41, 28.72 34.04, 27.79 34.57 C26.86 35.11, 25.87 35.57, 24.86 35.94 C23.86 36.3, 22.8 36.59, 21.74 36.77 C20.69 36.96, 19.6 37.06, 18.53 37.06 C17.46 37.06, 16.37 36.96, 15.31 36.77 C14.25 36.59, 13.2 36.3, 12.19 35.94 C11.18 35.57, 10.19 35.11, 9.26 34.57 C8.34 34.04, 7.44 33.41, 6.62 32.72 C5.8 32.03, 5.02 31.26, 4.33 30.44 C3.65 29.62, 3.02 28.72, 2.48 27.79 C1.95 26.86, 1.48 25.87, 1.12 24.86 C0.75 23.86, 0.47 22.8, 0.28 21.74 C0.1 20.69, 0 19.6, 0 18.53 C0 17.46, 0.1 16.37, 0.28 15.31 C0.47 14.25, 0.75 13.2, 1.12 12.19 C1.48 11.18, 1.95 10.19, 2.48 9.26 C3.02 8.34, 3.65 7.44, 4.33 6.62 C5.02 5.8, 5.8 5.02, 6.62 4.33 C7.44 3.65, 8.34 3.02, 9.26 2.48 C10.19 1.95, 11.18 1.48, 12.19 1.12 C13.2 0.75, 14.25 0.47, 15.31 0.28 C16.37 0.1, 17.46 0, 18.53 0 C19.6 0, 20.69 0.1, 21.74 0.28 C22.8 0.47, 23.86 0.75, 24.86 1.12 C25.87 1.48, 26.86 1.95, 27.79 2.48 C28.72 3.02, 29.62 3.65, 30.44 4.33 C31.26 5.02, 32.03 5.8, 32.72 6.62 C33.41 7.44, 34.04 8.34, 34.57 9.26 C35.11 10.19, 35.57 11.18, 35.94 12.19 C36.3 13.2, 36.59 14.25, 36.77 15.31 C36.96 16.37, 37.01 17.99, 37.06 18.53 C37.1 19.06, 37.1 17.99, 37.06 18.53" stroke="none" stroke-width="0" fill="#ced4da"/><path d="M37.06 18.53 C37.06 19.6, 36.96 20.69, 36.77 21.74 C36.59 22.8, 36.3 23.86, 35.94 24.86 C35.57 25.87, 35.11 26.86, 34.57 27.79 C34.04 28.72, 33.41 29.62, 32.72 30.44 C32.03 31.26, 31.26 32.03, 30.44 32.72 C29.62 33.41, 28.72 34.04, 27.79 34.57 C26.86 35.11, 25.87 35.57, 24.86 35.94 C23.86 36.3, 22.8 36.59, 21.74 36.77 C20.69 36.96, 19.6 37.06, 18.53 37.06 C17.46 37.06, 16.37 36.96, 15.31 36.77 C14.25 36.59, 13.2 36.3, 12.19 35.94 C11.18 35.57, 10.19 35.11, 9.26 34.57 C8.34 34.04, 7.44 33.41, 6.62 32.72 C5.8 32.03, 5.02 31.26, 4.33 30.44 C3.65 29.62, 3.02 28.72, 2.48 27.79 C1.95 26.86, 1.48 25.87, 1.12 24.86 C0.75 23.86, 0.47 22.8, 0.28 21.74 C0.1 20.69, 0 19.6, 0 18.53 C0 17.46, 0.1 16.37, 0.28 15.31 C0.47 14.25, 0.75 13.2, 1.12 12.19 C1.48 11.18, 1.95 10.19, 2.48 9.26 C3.02 8.34, 3.65 7.44, 4.33 6.62 C5.02 5.8, 5.8 5.02, 6.62 4.33 C7.44 3.65, 8.34 3.02, 9.26 2.48 C10.19 1.95, 11.18 1.48, 12.19 1.12 C13.2 0.75, 14.25 0.47, 15.31 0.28 C16.37 0.1, 17.46 0, 18.53 0 C19.6 0, 20.69 0.1, 21.74 0.28 C22.8 0.47, 23.86 0.75, 24.86 1.12 C25.87 1.48, 26.86 1.95, 27.79 2.48 C28.72 3.02, 29.62 3.65, 30.44 4.33 C31.26 5.02, 32.03 5.8, 32.72 6.62 C33.41 7.44, 34.04 8.34, 34.57 9.26 C35.11 10.19, 35.57 11.18, 35.94 12.19 C36.3 13.2, 36.59 14.25, 36.77 15.31 C36.96 16.37, 37.01 17.99, 37.06 18.53 C37.1 19.06, 37.1 17.99, 37.06 18.53" stroke="#000000" stroke-width="2" fill="none"/></g><g stroke-linecap="round" transform="translate(451.09027157441335 158.5160447933781) rotate(0 18.5275976258649 18.5275976258649)"><path d="M37.06 18.53 C37.06 19.6, 36.96 20.69, 36.77 21.74 C36.59 22.8, 36.3 23.86, 35.94 24.86 C35.57 25.87, 35.11 26.86, 34.57 27.79 C34.04 28.72, 33.41 29.62, 32.72 30.44 C32.03 31.26, 31.26 32.03, 30.44 32.72 C29.62 33.41, 28.72 34.04, 27.79 34.57 C26.86 35.11, 25.87 35.57, 24.86 35.94 C23.86 36.3, 22.8 36.59, 21.74 36.77 C20.69 36.96, 19.6 37.06, 18.53 37.06 C17.46 37.06, 16.37 36.96, 15.31 36.77 C14.25 36.59, 13.2 36.3, 12.19 35.94 C11.18 35.57, 10.19 35.11, 9.26 34.57 C8.34 34.04, 7.44 33.41, 6.62 32.72 C5.8 32.03, 5.02 31.26, 4.33 30.44 C3.65 29.62, 3.02 28.72, 2.48 27.79 C1.95 26.86, 1.48 25.87, 1.12 24.86 C0.75 23.86, 0.47 22.8, 0.28 21.74 C0.1 20.69, 0 19.6, 0 18.53 C0 17.46, 0.1 16.37, 0.28 15.31 C0.47 14.25, 0.75 13.2, 1.12 12.19 C1.48 11.18, 1.95 10.19, 2.48 9.26 C3.02 8.34, 3.65 7.44, 4.33 6.62 C5.02 5.8, 5.8 5.02, 6.62 4.33 C7.44 3.65, 8.34 3.02, 9.26 2.48 C10.19 1.95, 11.18 1.48, 12.19 1.12 C13.2 0.75, 14.25 0.47, 15.31 0.28 C16.37 0.1, 17.46 0, 18.53 0 C19.6 0, 20.69 0.1, 21.74 0.28 C22.8 0.47, 23.86 0.75, 24.86 1.12 C25.87 1.48, 26.86 1.95, 27.79 2.48 C28.72 3.02, 29.62 3.65, 30.44 4.33 C31.26 5.02, 32.03 5.8, 32.72 6.62 C33.41 7.44, 34.04 8.34, 34.57 9.26 C35.11 10.19, 35.57 11.18, 35.94 12.19 C36.3 13.2, 36.59 14.25, 36.77 15.31 C36.96 16.37, 37.01 17.99, 37.06 18.53 C37.1 19.06, 37.1 17.99, 37.06 18.53" stroke="none" stroke-width="0" fill="#ced4da"/><path d="M37.06 18.53 C37.06 19.6, 36.96 20.69, 36.77 21.74 C36.59 22.8, 36.3 23.86, 35.94 24.86 C35.57 25.87, 35.11 26.86, 34.57 27.79 C34.04 28.72, 33.41 29.62, 32.72 30.44 C32.03 31.26, 31.26 32.03, 30.44 32.72 C29.62 33.41, 28.72 34.04, 27.79 34.57 C26.86 35.11, 25.87 35.57, 24.86 35.94 C23.86 36.3, 22.8 36.59, 21.74 36.77 C20.69 36.96, 19.6 37.06, 18.53 37.06 C17.46 37.06, 16.37 36.96, 15.31 36.77 C14.25 36.59, 13.2 36.3, 12.19 35.94 C11.18 35.57, 10.19 35.11, 9.26 34.57 C8.34 34.04, 7.44 33.41, 6.62 32.72 C5.8 32.03, 5.02 31.26, 4.33 30.44 C3.65 29.62, 3.02 28.72, 2.48 27.79 C1.95 26.86, 1.48 25.87, 1.12 24.86 C0.75 23.86, 0.47 22.8, 0.28 21.74 C0.1 20.69, 0 19.6, 0 18.53 C0 17.46, 0.1 16.37, 0.28 15.31 C0.47 14.25, 0.75 13.2, 1.12 12.19 C1.48 11.18, 1.95 10.19, 2.48 9.26 C3.02 8.34, 3.65 7.44, 4.33 6.62 C5.02 5.8, 5.8 5.02, 6.62 4.33 C7.44 3.65, 8.34 3.02, 9.26 2.48 C10.19 1.95, 11.18 1.48, 12.19 1.12 C13.2 0.75, 14.25 0.47, 15.31 0.28 C16.37 0.1, 17.46 0, 18.53 0 C19.6 0, 20.69 0.1, 21.74 0.28 C22.8 0.47, 23.86 0.75, 24.86 1.12 C25.87 1.48, 26.86 1.95, 27.79 2.48 C28.72 3.02, 29.62 3.65, 30.44 4.33 C31.26 5.02, 32.03 5.8, 32.72 6.62 C33.41 7.44, 34.04 8.34, 34.57 9.26 C35.11 10.19, 35.57 11.18, 35.94 12.19 C36.3 13.2, 36.59 14.25, 36.77 15.31 C36.96 16.37, 37.01 17.99, 37.06 18.53 C37.1 19.06, 37.1 17.99, 37.06 18.53" stroke="#000000" stroke-width="2" fill="none"/></g><g stroke-linecap="round"><g transform="translate(172.61730675324932 194.64339196963914) rotate(0 0 31.735035189141826)"><path d="M0 0 C0 21.45, 0 42.89, 0 63.47 M0 0 C0 25.33, 0 50.65, 0 63.47" stroke="#000000" stroke-width="2" fill="none"/></g></g><mask/><g stroke-linecap="round"><g transform="translate(191.6151537328437 151.6437884911351) rotate(0 38.65812834597911 -38.658128345979094)"><path d="M0 0 C19.1 -19.1, 38.2 -38.2, 77.32 -77.32 M0 0 C20.96 -20.96, 41.93 -41.93, 77.32 -77.32" stroke="#c92a2a" stroke-width="2" fill="none"/></g><g transform="translate(191.6151537328437 151.6437884911351) rotate(0 38.65812834597911 -38.658128345979094)"><path d="M77.32 -77.32 L72.19 -63.22 L63.22 -72.19 L77.32 -77.32" stroke="none" stroke-width="0" fill="#c92a2a" fill-rule="evenodd"/><path d="M77.32 -77.32 C76.05 -73.83, 74.78 -70.35, 72.19 -63.22 M77.32 -77.32 C75.93 -73.49, 74.53 -69.67, 72.19 -63.22 M72.19 -63.22 C69.52 -65.88, 66.86 -68.54, 63.22 -72.19 M72.19 -63.22 C68.94 -66.46, 65.7 -69.71, 63.22 -72.19 M63.22 -72.19 C67.35 -73.69, 71.48 -75.19, 77.32 -77.32 M63.22 -72.19 C66.16 -73.25, 69.09 -74.32, 77.32 -77.32 M77.32 -77.32 C77.32 -77.32, 77.32 -77.32, 77.32 -77.32 M77.32 -77.32 C77.32 -77.32, 77.32 -77.32, 77.32 -77.32" stroke="#c92a2a" stroke-width="2" fill="none"/></g></g><mask/><g stroke-linecap="round"><g transform="translate(331.6883597742817 155.79892116898964) rotate(0 24.234115339754183 -41.97471904493854)"><path d="M0 0 C17.01 -29.46, 34.02 -58.93, 48.47 -83.95 M0 0 C16.55 -28.66, 33.09 -57.31, 48.47 -83.95" stroke="#c92a2a" stroke-width="2" fill="none"/></g><g transform="translate(331.6883597742817 155.79892116898964) rotate(0 24.234115339754183 -41.97471904493854)"><path d="M48.47 -83.95 L47.16 -69.01 L36.18 -75.35 L48.47 -83.95" stroke="none" stroke-width="0" fill="#c92a2a" fill-rule="evenodd"/><path d="M48.47 -83.95 C48.01 -78.7, 47.55 -73.46, 47.16 -69.01 M48.47 -83.95 C48.02 -78.85, 47.58 -73.75, 47.16 -69.01 M47.16 -69.01 C43.56 -71.08, 39.97 -73.16, 36.18 -75.35 M47.16 -69.01 C43.49 -71.13, 39.81 -73.25, 36.18 -75.35 M36.18 -75.35 C39.63 -77.76, 43.08 -80.18, 48.47 -83.95 M36.18 -75.35 C39.65 -77.77, 43.12 -80.2, 48.47 -83.95 M48.47 -83.95 C48.47 -83.95, 48.47 -83.95, 48.47 -83.95 M48.47 -83.95 C48.47 -83.95, 48.47 -83.95, 48.47 -83.95" stroke="#c92a2a" stroke-width="2" fill="none"/></g></g><mask/><g stroke-linecap="round"><g transform="translate(329.8158065526119 201.2616546700905) rotate(0 22.159259141224737 38.380962690686374)"><path d="M0 0 C15.29 26.49, 30.58 52.97, 44.32 76.76 M0 0 C11.05 19.14, 22.1 38.27, 44.32 76.76" stroke="#c92a2a" stroke-width="2" fill="none"/></g><g transform="translate(329.8158065526119 201.2616546700905) rotate(0 22.159259141224737 38.380962690686374)"><path d="M44.32 76.76 L32.03 68.16 L43.01 61.82 L44.32 76.76" stroke="none" stroke-width="0" fill="#c92a2a" fill-rule="evenodd"/><path d="M44.32 76.76 C40.08 73.79, 35.84 70.82, 32.03 68.16 M44.32 76.76 C41.26 74.62, 38.19 72.47, 32.03 68.16 M32.03 68.16 C35.84 65.96, 39.66 63.76, 43.01 61.82 M32.03 68.16 C34.57 66.69, 37.12 65.22, 43.01 61.82 M43.01 61.82 C43.36 65.83, 43.71 69.85, 44.32 76.76 M43.01 61.82 C43.43 66.6, 43.85 71.38, 44.32 76.76 M44.32 76.76 C44.32 76.76, 44.32 76.76, 44.32 76.76 M44.32 76.76 C44.32 76.76, 44.32 76.76, 44.32 76.76" stroke="#c92a2a" stroke-width="2" fill="none"/></g></g><mask/><g stroke-linecap="round"><g transform="translate(495.6661611754862 176.70754918964406) rotate(0 53.81055566509917 0)"><path d="M0 0 C36.59 0, 73.18 0, 107.62 0 M0 0 C21.86 0, 43.71 0, 107.62 0" stroke="#c92a2a" stroke-width="2" fill="none"/></g><g transform="translate(495.6661611754862 176.70754918964406) rotate(0 53.81055566509917 0)"><path d="M107.62 0 L94.03 6.34 L94.03 -6.34 L107.62 0" stroke="none" stroke-width="0" fill="#c92a2a" fill-rule="evenodd"/><path d="M107.62 0 C103 2.16, 98.38 4.31, 94.03 6.34 M107.62 0 C104.86 1.29, 102.1 2.57, 94.03 6.34 M94.03 6.34 C94.03 1.42, 94.03 -3.51, 94.03 -6.34 M94.03 6.34 C94.03 3.37, 94.03 0.41, 94.03 -6.34 M94.03 -6.34 C97.86 -4.55, 101.69 -2.77, 107.62 0 M94.03 -6.34 C98.46 -4.27, 102.89 -2.21, 107.62 0 M107.62 0 C107.62 0, 107.62 0, 107.62 0 M107.62 0 C107.62 0, 107.62 0, 107.62 0" stroke="#c92a2a" stroke-width="2" fill="none"/></g></g><mask/><g transform="translate(561.0932979313761 141.2723323664801) rotate(0 0.04423034557669325 6.5872215170956565)" stroke="none"><path fill="#c92a2a" d="M 0.84,-0.00 Q 0.84,-0.00 0.99,2.94 1.15,5.88 0.94,9.19 0.74,12.51 0.72,12.61 0.70,12.72 0.65,12.81 0.61,12.90 0.53,12.98 0.45,13.05 0.36,13.10 0.26,13.14 0.15,13.15 0.05,13.17 -0.05,13.14 -0.15,13.12 -0.24,13.07 -0.33,13.01 -0.40,12.93 -0.47,12.85 -0.51,12.75 -0.55,12.65 -0.56,12.55 -0.56,12.44 -0.53,12.34 -0.51,12.24 -0.45,12.15 -0.39,12.06 -0.30,12.00 -0.22,11.93 -0.12,11.90 -0.02,11.86 0.08,11.86 0.18,11.86 0.28,11.89 0.39,11.93 0.47,11.99 0.56,12.06 0.62,12.14 0.68,12.23 0.70,12.33 0.73,12.44 0.73,12.54 0.72,12.65 0.68,12.75 0.64,12.85 0.58,12.93 0.51,13.01 0.42,13.06 0.33,13.12 0.22,13.14 0.12,13.17 0.01,13.15 -0.08,13.14 -0.18,13.10 -0.28,13.05 -0.35,12.98 -0.43,12.91 -0.48,12.82 -0.53,12.72 -0.55,12.62 -0.57,12.51 -0.57,12.51 -0.57,12.51 -0.81,9.21 -1.05,5.90 -0.94,2.95 -0.84,0.00 -0.83,-0.09 -0.81,-0.19 -0.78,-0.28 -0.74,-0.38 -0.69,-0.46 -0.63,-0.55 -0.55,-0.62 -0.48,-0.68 -0.39,-0.73 -0.30,-0.78 -0.20,-0.80 -0.10,-0.83 -0.00,-0.83 0.09,-0.83 0.19,-0.81 0.29,-0.78 0.38,-0.74 0.47,-0.69 0.54,-0.63 0.62,-0.56 0.68,-0.48 0.74,-0.39 0.77,-0.30 0.81,-0.20 0.82,-0.10 0.84,-0.00 0.84,-0.00 L 0.84,-0.00 Z"/></g><g transform="translate(561.4470191283884 139.9902601827622) rotate(0 4.222123835388402 0.7515714332669319)" stroke="none"><path fill="#c92a2a" d="M 0.23,-0.85 Q 0.23,-0.85 1.65,-0.77 3.08,-0.69 4.13,-0.47 5.19,-0.26 6.68,0.08 8.17,0.44 8.27,0.44 8.38,0.43 8.48,0.47 8.58,0.50 8.67,0.56 8.75,0.62 8.81,0.71 8.88,0.80 8.91,0.90 8.94,1.00 8.93,1.11 8.93,1.21 8.89,1.31 8.86,1.41 8.79,1.49 8.72,1.58 8.63,1.63 8.54,1.69 8.44,1.71 8.33,1.74 8.23,1.73 8.12,1.72 8.03,1.68 7.93,1.64 7.85,1.56 7.77,1.49 7.72,1.40 7.67,1.31 7.65,1.20 7.63,1.10 7.64,0.99 7.66,0.89 7.71,0.79 7.75,0.70 7.83,0.62 7.91,0.55 8.00,0.50 8.10,0.46 8.20,0.44 8.31,0.43 8.41,0.45 8.52,0.47 8.61,0.52 8.70,0.58 8.77,0.65 8.84,0.73 8.88,0.83 8.92,0.93 8.93,1.04 8.94,1.14 8.91,1.24 8.89,1.35 8.83,1.44 8.77,1.53 8.69,1.59 8.61,1.66 8.51,1.69 8.41,1.73 8.41,1.73 8.41,1.73 6.51,2.17 4.62,2.62 3.46,2.39 2.30,2.16 1.03,1.51 -0.23,0.85 -0.33,0.81 -0.43,0.77 -0.51,0.71 -0.60,0.64 -0.67,0.56 -0.74,0.48 -0.78,0.38 -0.83,0.29 -0.86,0.18 -0.88,0.08 -0.88,-0.02 -0.87,-0.12 -0.84,-0.23 -0.82,-0.33 -0.76,-0.42 -0.71,-0.52 -0.64,-0.60 -0.57,-0.67 -0.48,-0.73 -0.39,-0.79 -0.29,-0.83 -0.19,-0.86 -0.08,-0.87 0.02,-0.88 0.12,-0.87 0.23,-0.85 0.23,-0.85 L 0.23,-0.85 Z"/></g><g transform="translate(563.3923033605543 146.17961120233636) rotate(0 3.3158171070371054 0.6189209190706038)" stroke="none"><path d="M0 0 L3.14 0.88 L4.91 1.15 L6.06 1.24 L6.63 1.24 L6.63 1.24" stroke="none" stroke-width="0" fill="#868e96" fill-rule="evenodd"/><path fill="#c92a2a" d="M 0.19,-0.83 Q 0.19,-0.83 1.67,-0.80 3.15,-0.76 4.75,-0.11 6.36,0.54 6.46,0.57 6.56,0.60 6.65,0.66 6.73,0.72 6.80,0.81 6.86,0.89 6.89,0.99 6.92,1.09 6.92,1.20 6.92,1.31 6.88,1.41 6.85,1.51 6.78,1.59 6.72,1.67 6.63,1.73 6.54,1.79 6.44,1.82 6.33,1.84 6.23,1.83 6.12,1.83 6.02,1.79 5.93,1.75 5.85,1.68 5.77,1.61 5.71,1.51 5.66,1.42 5.64,1.32 5.62,1.21 5.63,1.11 5.64,1.00 5.69,0.91 5.74,0.81 5.81,0.74 5.89,0.66 5.98,0.61 6.08,0.56 6.18,0.55 6.29,0.53 6.39,0.55 6.49,0.57 6.59,0.62 6.68,0.67 6.75,0.75 6.82,0.83 6.87,0.93 6.91,1.02 6.92,1.13 6.93,1.24 6.90,1.34 6.88,1.44 6.82,1.53 6.77,1.62 6.69,1.69 6.60,1.76 6.50,1.79 6.40,1.83 6.30,1.84 6.19,1.84 6.19,1.84 6.19,1.84 4.34,1.96 2.48,2.08 1.14,1.46 -0.19,0.83 -0.29,0.80 -0.39,0.76 -0.47,0.70 -0.56,0.64 -0.63,0.57 -0.70,0.49 -0.75,0.40 -0.79,0.31 -0.82,0.21 -0.85,0.11 -0.85,0.00 -0.85,-0.09 -0.83,-0.19 -0.80,-0.29 -0.75,-0.38 -0.71,-0.48 -0.64,-0.55 -0.57,-0.63 -0.49,-0.69 -0.40,-0.75 -0.31,-0.79 -0.21,-0.83 -0.11,-0.84 -0.00,-0.85 0.09,-0.84 0.19,-0.83 0.19,-0.83 L 0.19,-0.83 Z"/></g><g transform="translate(389.688005007377 41.18199821012786) rotate(0 0.41999580094328337 6.71985177002513)" stroke="none"><path fill="#c92a2a" d="M 0.78,-0.03 Q 0.78,-0.03 1.02,2.15 1.26,4.34 1.30,6.31 1.33,8.28 1.36,10.57 1.39,12.87 1.39,12.98 1.40,13.08 1.37,13.18 1.34,13.29 1.28,13.37 1.22,13.46 1.13,13.52 1.05,13.59 0.95,13.62 0.84,13.65 0.74,13.65 0.63,13.65 0.53,13.62 0.43,13.58 0.35,13.52 0.26,13.45 0.20,13.36 0.15,13.27 0.12,13.17 0.09,13.07 0.10,12.96 0.11,12.86 0.15,12.76 0.19,12.66 0.26,12.58 0.33,12.50 0.42,12.44 0.51,12.39 0.61,12.37 0.72,12.35 0.82,12.36 0.93,12.37 1.02,12.42 1.12,12.46 1.20,12.54 1.27,12.61 1.32,12.71 1.37,12.80 1.39,12.91 1.40,13.01 1.38,13.12 1.36,13.22 1.31,13.31 1.26,13.41 1.19,13.48 1.11,13.55 1.01,13.59 0.91,13.64 0.81,13.65 0.70,13.66 0.60,13.63 0.50,13.61 0.40,13.56 0.31,13.50 0.25,13.42 0.18,13.34 0.14,13.24 0.10,13.14 0.10,13.14 0.10,13.14 -0.35,10.72 -0.81,8.31 -0.83,6.38 -0.85,4.44 -0.81,2.24 -0.78,0.03 -0.77,-0.05 -0.76,-0.15 -0.73,-0.24 -0.70,-0.33 -0.65,-0.41 -0.60,-0.49 -0.54,-0.55 -0.47,-0.62 -0.39,-0.67 -0.31,-0.71 -0.22,-0.74 -0.13,-0.77 -0.03,-0.77 0.05,-0.78 0.15,-0.76 0.24,-0.74 0.32,-0.70 0.41,-0.66 0.48,-0.60 0.56,-0.54 0.61,-0.47 0.67,-0.39 0.71,-0.30 0.75,-0.22 0.76,-0.12 0.78,-0.03 0.78,-0.03 L 0.78,-0.03 Z"/></g><g transform="translate(389.4227445015181 40.96094778857878) rotate(0 5.172660909316406 0.7294562604785852)" stroke="none"><path fill="#c92a2a" d="M 0.19,-0.77 Q 0.19,-0.77 1.62,-0.69 3.04,-0.61 4.25,-0.50 5.47,-0.39 7.90,0.18 10.33,0.76 10.42,0.81 10.52,0.86 10.59,0.93 10.67,1.01 10.71,1.10 10.76,1.20 10.78,1.30 10.79,1.41 10.77,1.51 10.75,1.62 10.70,1.71 10.64,1.80 10.56,1.87 10.48,1.94 10.39,1.99 10.29,2.03 10.18,2.04 10.08,2.04 9.97,2.02 9.87,1.99 9.78,1.93 9.69,1.88 9.63,1.79 9.56,1.71 9.52,1.61 9.49,1.51 9.49,1.40 9.48,1.30 9.51,1.20 9.55,1.10 9.61,1.01 9.67,0.92 9.76,0.86 9.84,0.80 9.95,0.77 10.05,0.74 10.15,0.74 10.26,0.75 10.36,0.78 10.46,0.82 10.54,0.89 10.62,0.95 10.68,1.04 10.74,1.13 10.76,1.24 10.79,1.34 10.78,1.44 10.77,1.55 10.73,1.65 10.69,1.75 10.61,1.82 10.54,1.90 10.45,1.95 10.36,2.01 10.25,2.03 10.15,2.05 10.04,2.03 9.94,2.02 9.94,2.02 9.94,2.02 7.58,2.13 5.22,2.24 3.81,2.11 2.39,1.98 1.09,1.37 -0.19,0.77 -0.28,0.74 -0.37,0.70 -0.45,0.65 -0.53,0.59 -0.59,0.52 -0.66,0.45 -0.70,0.36 -0.74,0.27 -0.77,0.18 -0.79,0.09 -0.79,-0.00 -0.79,-0.10 -0.76,-0.19 -0.74,-0.28 -0.70,-0.37 -0.65,-0.45 -0.59,-0.52 -0.52,-0.60 -0.44,-0.65 -0.36,-0.70 -0.27,-0.74 -0.18,-0.77 -0.09,-0.78 0.00,-0.79 0.10,-0.78 0.19,-0.77 0.19,-0.77 L 0.19,-0.77 Z"/></g><g transform="translate(391.8985294841348 48.47658107618065) rotate(0 3.6916028236705642 1.1494419307884414)" stroke="none"><path d="M0 0 L4.33 2.12 L6.19 2.3 L7.38 2.21 L7.38 2.21" stroke="none" stroke-width="0" fill="#868e96" fill-rule="evenodd"/><path fill="#c92a2a" d="M 0.35,-0.72 Q 0.35,-0.72 1.72,-0.36 3.08,-0.00 5.02,0.74 6.97,1.49 7.07,1.52 7.17,1.55 7.26,1.61 7.34,1.67 7.40,1.76 7.47,1.85 7.50,1.95 7.53,2.05 7.53,2.15 7.52,2.26 7.49,2.36 7.45,2.46 7.38,2.54 7.32,2.63 7.23,2.68 7.14,2.74 7.04,2.77 6.93,2.79 6.83,2.78 6.72,2.78 6.62,2.73 6.53,2.69 6.45,2.62 6.37,2.55 6.32,2.46 6.26,2.37 6.24,2.26 6.22,2.16 6.24,2.05 6.25,1.95 6.30,1.85 6.34,1.76 6.42,1.68 6.49,1.61 6.59,1.56 6.68,1.51 6.79,1.50 6.90,1.48 7.00,1.50 7.10,1.52 7.20,1.57 7.29,1.63 7.36,1.70 7.43,1.78 7.47,1.88 7.52,1.98 7.52,2.08 7.53,2.19 7.51,2.29 7.48,2.40 7.43,2.49 7.37,2.58 7.29,2.64 7.20,2.71 7.10,2.75 7.00,2.78 6.90,2.79 6.79,2.79 6.79,2.79 6.79,2.79 4.34,2.62 1.89,2.44 0.76,1.58 -0.35,0.72 -0.43,0.67 -0.51,0.61 -0.58,0.54 -0.65,0.47 -0.70,0.39 -0.74,0.30 -0.77,0.21 -0.79,0.11 -0.80,0.02 -0.80,-0.07 -0.78,-0.17 -0.76,-0.26 -0.72,-0.35 -0.67,-0.44 -0.61,-0.51 -0.55,-0.59 -0.47,-0.64 -0.39,-0.70 -0.30,-0.74 -0.21,-0.77 -0.11,-0.79 -0.02,-0.80 0.07,-0.79 0.17,-0.79 0.26,-0.75 0.35,-0.72 0.35,-0.72 L 0.35,-0.72 Z"/></g><g transform="translate(388.36166195554864 264.1305560233864) rotate(0 -0.5084261001963597 7.515613026335018)" stroke="none"><path fill="#c92a2a" d="M 0.80,0.03 Q 0.80,0.03 0.95,1.49 1.10,2.95 1.07,4.52 1.04,6.09 0.93,7.75 0.83,9.40 0.26,12.00 -0.29,14.61 -0.33,14.71 -0.36,14.81 -0.42,14.90 -0.48,14.98 -0.56,15.04 -0.65,15.11 -0.75,15.14 -0.85,15.17 -0.96,15.17 -1.07,15.17 -1.17,15.13 -1.27,15.09 -1.35,15.03 -1.43,14.96 -1.49,14.87 -1.55,14.78 -1.57,14.68 -1.60,14.58 -1.59,14.47 -1.58,14.37 -1.54,14.27 -1.50,14.17 -1.43,14.09 -1.36,14.01 -1.27,13.96 -1.18,13.91 -1.07,13.88 -0.97,13.86 -0.86,13.88 -0.76,13.89 -0.66,13.94 -0.57,13.99 -0.49,14.06 -0.41,14.13 -0.37,14.23 -0.32,14.32 -0.30,14.43 -0.29,14.53 -0.31,14.64 -0.33,14.74 -0.38,14.84 -0.43,14.93 -0.51,15.00 -0.59,15.07 -0.69,15.11 -0.78,15.16 -0.89,15.17 -1.00,15.18 -1.10,15.15 -1.20,15.12 -1.29,15.07 -1.38,15.01 -1.45,14.93 -1.52,14.85 -1.55,14.75 -1.59,14.65 -1.59,14.54 -1.60,14.43 -1.60,14.43 -1.60,14.44 -1.60,11.85 -1.61,9.26 -1.53,7.64 -1.46,6.03 -1.41,4.43 -1.36,2.84 -1.08,1.40 -0.80,-0.03 -0.79,-0.13 -0.77,-0.22 -0.73,-0.31 -0.69,-0.40 -0.63,-0.48 -0.58,-0.56 -0.50,-0.62 -0.42,-0.68 -0.34,-0.72 -0.25,-0.76 -0.15,-0.78 -0.06,-0.80 0.03,-0.80 0.13,-0.79 0.22,-0.76 0.31,-0.74 0.40,-0.69 0.48,-0.64 0.55,-0.57 0.62,-0.50 0.67,-0.42 0.73,-0.34 0.76,-0.25 0.79,-0.15 0.79,-0.06 0.80,0.03 0.80,0.03 L 0.80,0.03 Z"/></g><g transform="translate(389.7764049147297 264.0421358547668) rotate(0 4.620034855443649 0.2652605058589188)" stroke="none"><path fill="#c92a2a" d="M 0.06,-0.83 Q 0.06,-0.83 1.36,-0.96 2.67,-1.09 3.83,-1.05 5.00,-1.02 7.04,-0.57 9.08,-0.13 9.18,-0.11 9.28,-0.08 9.37,-0.03 9.47,0.02 9.53,0.10 9.60,0.18 9.64,0.28 9.68,0.38 9.69,0.48 9.69,0.59 9.67,0.69 9.64,0.79 9.58,0.88 9.52,0.97 9.43,1.03 9.35,1.10 9.25,1.13 9.15,1.17 9.04,1.17 8.94,1.17 8.84,1.13 8.73,1.10 8.65,1.03 8.57,0.97 8.51,0.88 8.45,0.79 8.42,0.69 8.39,0.59 8.39,0.48 8.40,0.38 8.44,0.28 8.48,0.18 8.55,0.10 8.62,0.02 8.71,-0.03 8.80,-0.08 8.90,-0.10 9.00,-0.13 9.11,-0.12 9.22,-0.11 9.31,-0.06 9.41,-0.02 9.49,0.05 9.56,0.12 9.61,0.21 9.66,0.31 9.68,0.41 9.70,0.52 9.68,0.62 9.66,0.73 9.61,0.82 9.56,0.91 9.49,0.99 9.41,1.06 9.31,1.11 9.22,1.15 9.11,1.16 9.01,1.17 9.01,1.17 9.01,1.17 6.95,1.39 4.90,1.60 3.68,1.55 2.46,1.50 1.19,1.17 -0.06,0.83 -0.16,0.81 -0.26,0.79 -0.35,0.75 -0.44,0.71 -0.52,0.64 -0.60,0.58 -0.66,0.50 -0.72,0.42 -0.76,0.32 -0.80,0.23 -0.82,0.13 -0.83,0.03 -0.83,-0.06 -0.82,-0.16 -0.79,-0.26 -0.75,-0.35 -0.70,-0.44 -0.65,-0.53 -0.57,-0.60 -0.50,-0.67 -0.41,-0.72 -0.33,-0.77 -0.23,-0.80 -0.13,-0.82 -0.03,-0.83 0.06,-0.83 0.06,-0.83 L 0.06,-0.83 Z"/></g><g transform="translate(391.0585176209814 271.6019792266785) rotate(0 3.9347684180080194 0.08842016861962065)" stroke="none"><path d="M0 0 L4.38 0.35 L6.41 0 L7.74 -0.18 L7.87 -0.18 L7.87 -0.18" stroke="none" stroke-width="0" fill="#868e96" fill-rule="evenodd"/><path fill="#c92a2a" d="M 0.07,-0.90 Q 0.07,-0.90 1.34,-0.99 2.61,-1.08 5.09,-0.94 7.56,-0.81 7.67,-0.80 7.77,-0.79 7.87,-0.75 7.97,-0.70 8.05,-0.63 8.12,-0.56 8.18,-0.47 8.23,-0.38 8.25,-0.27 8.27,-0.17 8.25,-0.06 8.24,0.03 8.19,0.13 8.14,0.22 8.07,0.30 7.99,0.37 7.90,0.42 7.80,0.47 7.70,0.48 7.59,0.49 7.49,0.47 7.38,0.45 7.29,0.40 7.20,0.35 7.13,0.27 7.06,0.19 7.02,0.09 6.97,0.00 6.97,-0.10 6.96,-0.21 6.98,-0.31 7.01,-0.41 7.07,-0.50 7.12,-0.59 7.21,-0.66 7.29,-0.72 7.39,-0.76 7.49,-0.80 7.60,-0.80 7.70,-0.80 7.80,-0.77 7.90,-0.74 7.99,-0.68 8.08,-0.62 8.14,-0.53 8.20,-0.44 8.23,-0.34 8.26,-0.24 8.26,-0.13 8.26,-0.03 8.22,0.06 8.18,0.16 8.12,0.25 8.05,0.33 7.96,0.38 7.87,0.44 7.77,0.47 7.66,0.49 7.66,0.49 7.66,0.49 5.04,0.99 2.41,1.48 1.17,1.19 -0.07,0.90 -0.17,0.88 -0.28,0.85 -0.38,0.81 -0.48,0.76 -0.56,0.69 -0.65,0.62 -0.71,0.54 -0.78,0.45 -0.82,0.35 -0.87,0.25 -0.88,0.14 -0.90,0.03 -0.89,-0.07 -0.88,-0.18 -0.85,-0.28 -0.81,-0.38 -0.76,-0.48 -0.70,-0.57 -0.62,-0.64 -0.54,-0.72 -0.44,-0.77 -0.35,-0.83 -0.25,-0.86 -0.14,-0.89 -0.03,-0.89 0.07,-0.90 0.07,-0.90 L 0.07,-0.90 Z"/></g><g transform="translate(270.9701914965733 37.603605215091875) rotate(0 -0.35369080511199513 9.836612060700233)" stroke="none"><path fill="#c92a2a" d="M 0.97,0.01 Q 0.97,0.01 1.10,3.42 1.22,6.83 1.13,9.52 1.04,12.21 0.51,15.64 -0.02,19.07 -0.04,19.18 -0.06,19.28 -0.11,19.37 -0.17,19.46 -0.25,19.53 -0.33,19.60 -0.43,19.64 -0.53,19.68 -0.63,19.69 -0.74,19.70 -0.84,19.67 -0.94,19.64 -1.03,19.58 -1.12,19.52 -1.19,19.44 -1.25,19.35 -1.28,19.25 -1.32,19.15 -1.32,19.05 -1.32,18.94 -1.29,18.84 -1.25,18.74 -1.19,18.65 -1.13,18.57 -1.04,18.51 -0.95,18.45 -0.85,18.42 -0.75,18.39 -0.64,18.39 -0.53,18.40 -0.43,18.44 -0.34,18.48 -0.25,18.55 -0.17,18.61 -0.12,18.71 -0.06,18.80 -0.04,18.90 -0.02,19.00 -0.03,19.11 -0.04,19.21 -0.08,19.31 -0.13,19.41 -0.20,19.49 -0.27,19.56 -0.37,19.61 -0.46,19.66 -0.56,19.68 -0.67,19.70 -0.77,19.68 -0.88,19.67 -0.97,19.62 -1.07,19.57 -1.14,19.49 -1.21,19.41 -1.26,19.32 -1.30,19.22 -1.32,19.12 -1.33,19.01 -1.33,19.01 -1.33,19.01 -1.49,15.57 -1.66,12.12 -1.57,9.45 -1.48,6.78 -1.22,3.38 -0.97,-0.01 -0.95,-0.13 -0.94,-0.25 -0.89,-0.36 -0.85,-0.46 -0.78,-0.56 -0.71,-0.66 -0.62,-0.73 -0.53,-0.81 -0.43,-0.86 -0.32,-0.91 -0.21,-0.94 -0.09,-0.97 0.01,-0.96 0.13,-0.96 0.24,-0.93 0.36,-0.90 0.46,-0.84 0.56,-0.79 0.65,-0.71 0.74,-0.63 0.80,-0.53 0.87,-0.43 0.91,-0.32 0.95,-0.21 0.96,-0.09 0.97,0.01 0.97,0.01 L 0.97,0.01 Z"/></g><g transform="translate(271.987043696966 36.01204217993836) rotate(0 5.6810870095127655 0.13264038356290087)" stroke="none"><path fill="#c92a2a" d="M 0.05,-0.96 Q 0.05,-0.96 1.38,-1.17 2.70,-1.38 4.04,-1.32 5.37,-1.25 6.52,-1.26 7.68,-1.26 9.35,-0.99 11.02,-0.72 11.13,-0.71 11.23,-0.70 11.33,-0.66 11.43,-0.61 11.51,-0.54 11.58,-0.47 11.63,-0.37 11.69,-0.28 11.70,-0.18 11.72,-0.07 11.71,0.02 11.69,0.13 11.64,0.22 11.59,0.32 11.52,0.39 11.44,0.46 11.35,0.51 11.25,0.56 11.14,0.57 11.04,0.58 10.93,0.56 10.83,0.54 10.74,0.49 10.65,0.43 10.58,0.35 10.51,0.27 10.47,0.17 10.43,0.08 10.42,-0.02 10.41,-0.13 10.44,-0.23 10.47,-0.33 10.53,-0.42 10.58,-0.51 10.67,-0.57 10.75,-0.64 10.85,-0.68 10.95,-0.71 11.06,-0.71 11.16,-0.71 11.27,-0.68 11.37,-0.65 11.45,-0.58 11.54,-0.52 11.60,-0.43 11.66,-0.35 11.69,-0.24 11.72,-0.14 11.71,-0.04 11.71,0.06 11.67,0.16 11.63,0.26 11.56,0.34 11.50,0.42 11.41,0.48 11.32,0.53 11.21,0.56 11.11,0.58 11.11,0.58 11.11,0.58 9.46,1.09 7.80,1.59 6.52,1.69 5.24,1.79 3.88,1.74 2.52,1.68 1.23,1.32 -0.05,0.96 -0.17,0.94 -0.28,0.92 -0.39,0.87 -0.50,0.83 -0.59,0.76 -0.68,0.68 -0.75,0.59 -0.82,0.50 -0.87,0.39 -0.92,0.29 -0.94,0.17 -0.96,0.06 -0.96,-0.05 -0.95,-0.17 -0.92,-0.28 -0.88,-0.39 -0.82,-0.49 -0.76,-0.59 -0.68,-0.68 -0.60,-0.76 -0.50,-0.82 -0.40,-0.88 -0.28,-0.91 -0.17,-0.95 -0.06,-0.96 0.05,-0.96 0.05,-0.96 L 0.05,-0.96 Z"/></g><g transform="translate(273.3575765718373 45.78234924480731) rotate(0 4.575824771133824 0)" stroke="none"><path fill="#c92a2a" d="M 0.07,-0.88 Q 0.07,-0.88 1.49,-1.07 2.91,-1.26 4.13,-1.33 5.34,-1.39 6.87,-1.18 8.39,-0.96 8.50,-0.96 8.61,-0.95 8.70,-0.91 8.80,-0.88 8.89,-0.81 8.97,-0.74 9.02,-0.65 9.08,-0.56 9.11,-0.46 9.13,-0.35 9.12,-0.25 9.11,-0.14 9.07,-0.05 9.02,0.04 8.95,0.12 8.88,0.20 8.79,0.25 8.70,0.30 8.59,0.32 8.49,0.34 8.38,0.32 8.28,0.31 8.18,0.26 8.09,0.21 8.01,0.14 7.94,0.06 7.89,-0.03 7.85,-0.12 7.83,-0.23 7.82,-0.33 7.84,-0.44 7.86,-0.54 7.91,-0.63 7.97,-0.72 8.05,-0.79 8.13,-0.86 8.22,-0.91 8.32,-0.95 8.43,-0.95 8.53,-0.96 8.64,-0.94 8.74,-0.91 8.83,-0.85 8.92,-0.79 8.98,-0.71 9.05,-0.63 9.09,-0.53 9.12,-0.43 9.12,-0.32 9.12,-0.21 9.09,-0.11 9.06,-0.01 9.00,0.07 8.93,0.15 8.85,0.21 8.76,0.27 8.66,0.30 8.56,0.33 8.56,0.33 8.56,0.33 7.04,0.94 5.52,1.54 4.09,1.63 2.67,1.71 1.30,1.30 -0.07,0.88 -0.17,0.86 -0.28,0.84 -0.37,0.79 -0.47,0.75 -0.55,0.68 -0.64,0.61 -0.70,0.52 -0.77,0.44 -0.81,0.34 -0.85,0.24 -0.87,0.14 -0.88,0.03 -0.88,-0.07 -0.87,-0.17 -0.83,-0.28 -0.80,-0.38 -0.74,-0.47 -0.68,-0.56 -0.61,-0.63 -0.53,-0.71 -0.44,-0.76 -0.34,-0.81 -0.24,-0.84 -0.14,-0.87 -0.03,-0.88 0.07,-0.88 0.07,-0.88 L 0.07,-0.88 Z"/></g><g transform="translate(356.5623330090652 132.21192943956018) rotate(0 13.860084305064078 20.955326697018705)" stroke="none"><path fill="#000000" d="M 0.22,-0.79 Q 0.22,-0.79 1.13,-0.57 2.04,-0.35 2.72,-0.08 3.40,0.19 3.95,0.52 4.51,0.86 5.04,1.15 5.57,1.45 6.14,1.79 6.71,2.13 7.33,2.46 7.96,2.80 8.65,3.16 9.33,3.52 10.16,3.94 10.98,4.36 11.72,4.83 12.45,5.30 13.15,5.93 13.85,6.56 14.51,7.15 15.17,7.73 15.90,8.43 16.62,9.13 17.36,9.92 18.09,10.72 18.75,11.53 19.41,12.34 19.98,13.19 20.55,14.04 21.12,14.88 21.68,15.72 22.26,16.58 22.84,17.43 23.38,18.43 23.91,19.43 24.39,20.41 24.87,21.40 25.29,22.45 25.71,23.50 26.04,24.52 26.37,25.54 26.67,26.53 26.96,27.52 27.21,28.44 27.46,29.37 27.67,30.24 27.89,31.11 28.05,31.97 28.22,32.84 28.32,33.73 28.42,34.62 28.46,35.50 28.51,36.37 28.51,37.23 28.52,38.09 28.17,40.00 27.82,41.91 27.79,42.01 27.75,42.11 27.69,42.19 27.62,42.28 27.53,42.34 27.45,42.39 27.34,42.42 27.24,42.45 27.14,42.44 27.03,42.44 26.93,42.40 26.83,42.36 26.75,42.29 26.67,42.22 26.62,42.13 26.56,42.04 26.54,41.93 26.52,41.83 26.53,41.72 26.54,41.62 26.59,41.52 26.63,41.43 26.71,41.35 26.78,41.27 26.87,41.22 26.97,41.17 27.07,41.16 27.18,41.14 27.28,41.16 27.39,41.18 27.48,41.23 27.57,41.28 27.65,41.35 27.72,41.43 27.76,41.53 27.81,41.62 27.82,41.73 27.83,41.84 27.81,41.94 27.78,42.04 27.73,42.13 27.67,42.22 27.59,42.29 27.51,42.36 27.41,42.40 27.31,42.44 27.21,42.44 27.10,42.45 27.00,42.42 26.89,42.39 26.81,42.33 26.72,42.27 26.66,42.19 26.59,42.10 26.56,42.00 26.53,41.90 26.53,41.79 26.53,41.69 26.53,41.69 26.53,41.69 26.67,39.89 26.81,38.10 26.81,37.28 26.80,36.45 26.76,35.63 26.73,34.81 26.64,33.99 26.54,33.17 26.38,32.34 26.22,31.51 26.02,30.66 25.81,29.82 25.56,28.91 25.31,28.01 25.03,27.04 24.74,26.07 24.42,25.10 24.11,24.13 23.72,23.14 23.32,22.15 22.86,21.20 22.39,20.25 21.90,19.33 21.40,18.41 20.82,17.56 20.23,16.70 19.67,15.86 19.10,15.01 18.57,14.23 18.05,13.44 17.43,12.68 16.81,11.92 16.10,11.17 15.39,10.42 14.68,9.75 13.98,9.08 13.31,8.48 12.64,7.88 12.06,7.35 11.48,6.81 10.82,6.39 10.17,5.96 9.33,5.54 8.50,5.12 7.80,4.76 7.10,4.39 6.44,4.04 5.78,3.69 5.23,3.36 4.68,3.03 3.69,2.44 2.70,1.86 2.13,1.61 1.55,1.37 0.66,1.08 -0.22,0.79 -0.31,0.75 -0.40,0.71 -0.48,0.65 -0.56,0.60 -0.63,0.52 -0.69,0.44 -0.73,0.35 -0.78,0.26 -0.80,0.17 -0.82,0.07 -0.82,-0.02 -0.81,-0.12 -0.78,-0.22 -0.76,-0.31 -0.71,-0.40 -0.66,-0.49 -0.59,-0.56 -0.52,-0.63 -0.44,-0.69 -0.35,-0.74 -0.26,-0.77 -0.17,-0.80 -0.07,-0.81 0.02,-0.82 0.12,-0.81 0.22,-0.79 0.22,-0.79 L 0.22,-0.79 Z"/></g><g transform="translate(348.33911549857066 153.34410660445158) rotate(0 -1.8347387601243952 6.565106344307324)" stroke="none"><path fill="#000000" d="M 0.40,0.72 Q 0.40,0.72 -0.55,1.28 -1.51,1.83 -2.15,2.71 -2.78,3.59 -3.23,4.77 -3.68,5.95 -3.90,7.15 -4.12,8.36 -3.97,9.21 -3.81,10.07 -3.38,10.61 -2.95,11.15 -2.39,11.40 -1.84,11.66 -1.18,11.72 -0.52,11.78 -1.58,10.82 -2.64,9.86 -2.72,9.79 -2.80,9.72 -2.86,9.63 -2.92,9.54 -2.94,9.44 -2.97,9.34 -2.96,9.23 -2.95,9.12 -2.90,9.03 -2.86,8.93 -2.79,8.85 -2.72,8.77 -2.62,8.72 -2.53,8.67 -2.43,8.65 -2.32,8.63 -2.22,8.65 -2.11,8.66 -2.02,8.71 -1.92,8.76 -1.85,8.84 -1.77,8.91 -1.73,9.01 -1.68,9.10 -1.67,9.21 -1.65,9.32 -1.68,9.42 -1.70,9.52 -1.75,9.62 -1.80,9.71 -1.88,9.78 -1.96,9.85 -2.06,9.89 -2.16,9.93 -2.27,9.94 -2.37,9.94 -2.47,9.92 -2.58,9.89 -2.67,9.83 -2.75,9.77 -2.82,9.69 -2.89,9.61 -2.92,9.51 -2.96,9.41 -2.96,9.30 -2.96,9.19 -2.93,9.09 -2.90,8.99 -2.83,8.91 -2.77,8.82 -2.68,8.76 -2.60,8.70 -2.49,8.67 -2.39,8.64 -2.29,8.64 -2.18,8.65 -2.08,8.68 -1.98,8.72 -1.98,8.72 -1.98,8.72 -0.04,9.66 1.89,10.59 2.04,11.24 2.20,11.89 1.59,12.66 0.98,13.44 0.10,13.60 -0.76,13.77 -1.76,13.60 -2.76,13.43 -3.64,12.90 -4.52,12.36 -5.14,11.41 -5.76,10.46 -5.92,9.24 -6.09,8.01 -5.80,6.60 -5.51,5.19 -4.89,3.80 -4.26,2.41 -3.33,1.38 -2.39,0.34 -1.40,-0.19 -0.40,-0.72 -0.31,-0.76 -0.22,-0.80 -0.12,-0.82 -0.02,-0.83 0.07,-0.82 0.17,-0.81 0.27,-0.78 0.36,-0.74 0.45,-0.69 0.53,-0.63 0.60,-0.56 0.67,-0.49 0.72,-0.40 0.77,-0.31 0.79,-0.21 0.82,-0.12 0.82,-0.02 0.83,0.07 0.80,0.17 0.78,0.27 0.74,0.36 0.69,0.45 0.63,0.53 0.56,0.61 0.48,0.66 0.40,0.72 0.40,0.72 L 0.40,0.72 Z"/></g><g transform="translate(359.56867952593353 157.05769290267583) rotate(0 -1.6137085998421412 3.8462165511537165)" stroke="none"><path fill="#000000" d="M -0.10,0.82 Q -0.10,0.82 -1.05,0.75 -1.99,0.68 -2.48,1.01 -2.97,1.33 -3.25,1.92 -3.53,2.51 -3.69,3.34 -3.84,4.18 -3.59,4.87 -3.34,5.56 -2.80,6.04 -2.26,6.52 -1.62,6.73 -0.99,6.94 -0.30,6.37 0.38,5.80 0.42,5.08 0.45,4.36 -0.11,2.23 -0.68,0.10 -0.65,0.00 -0.61,-0.09 -0.54,-0.17 -0.48,-0.25 -0.39,-0.31 -0.30,-0.37 -0.20,-0.39 -0.09,-0.42 0.00,-0.41 0.11,-0.40 0.21,-0.36 0.30,-0.32 0.38,-0.25 0.46,-0.18 0.52,-0.09 0.57,0.00 0.59,0.10 0.61,0.21 0.59,0.31 0.58,0.42 0.53,0.51 0.49,0.61 0.41,0.68 0.34,0.76 0.24,0.80 0.15,0.85 0.04,0.87 -0.06,0.88 -0.16,0.86 -0.26,0.84 -0.36,0.79 -0.45,0.74 -0.52,0.66 -0.59,0.58 -0.63,0.48 -0.68,0.38 -0.68,0.28 -0.69,0.17 -0.67,0.07 -0.64,-0.03 -0.58,-0.11 -0.53,-0.20 -0.45,-0.27 -0.36,-0.34 -0.26,-0.37 -0.16,-0.41 -0.06,-0.41 0.04,-0.42 0.14,-0.39 0.24,-0.35 0.33,-0.29 0.42,-0.23 0.48,-0.14 0.54,-0.06 0.57,0.03 0.60,0.13 0.60,0.24 0.60,0.35 0.60,0.35 0.60,0.35 1.55,2.42 2.51,4.50 2.35,5.78 2.18,7.05 1.42,7.83 0.65,8.61 -0.43,8.82 -1.53,9.04 -2.66,8.58 -3.79,8.11 -4.60,7.19 -5.41,6.27 -5.70,5.05 -5.98,3.82 -5.67,2.60 -5.36,1.37 -4.66,0.47 -3.97,-0.42 -2.94,-0.81 -1.91,-1.19 -0.90,-1.01 0.10,-0.82 0.20,-0.79 0.30,-0.77 0.38,-0.72 0.47,-0.68 0.55,-0.61 0.62,-0.54 0.68,-0.46 0.73,-0.38 0.77,-0.28 0.80,-0.19 0.82,-0.09 0.83,0.00 0.81,0.10 0.80,0.20 0.76,0.29 0.73,0.39 0.67,0.47 0.61,0.55 0.54,0.62 0.46,0.68 0.37,0.73 0.28,0.77 0.19,0.80 0.09,0.82 -0.00,0.82 -0.10,0.82 -0.10,0.82 L -0.10,0.82 Z"/></g><g transform="translate(365.36028161558744 150.91257222867839) rotate(0 -1.7242236799832824 0.6631411340138555)" stroke="none"><path fill="#000000" d="M -0.53,0.62 Q -0.53,0.62 -1.22,0.11 -1.91,-0.40 -2.12,0.29 -2.33,0.98 -1.86,1.50 -1.40,2.01 -1.37,0.92 -1.34,-0.16 -1.32,-0.23 -1.31,-0.31 -1.28,-0.39 -1.25,-0.46 -1.20,-0.52 -1.15,-0.58 -1.09,-0.63 -1.03,-0.69 -0.96,-0.72 -0.89,-0.75 -0.81,-0.77 -0.73,-0.79 -0.65,-0.78 -0.57,-0.78 -0.50,-0.76 -0.42,-0.74 -0.35,-0.70 -0.29,-0.66 -0.23,-0.60 -0.17,-0.55 -0.13,-0.48 -0.09,-0.41 -0.06,-0.34 -0.04,-0.26 -0.03,-0.18 -0.02,-0.11 -0.19,-0.40 -0.35,-0.70 -0.27,-0.63 -0.19,-0.57 -0.13,-0.48 -0.07,-0.39 -0.05,-0.28 -0.02,-0.18 -0.03,-0.07 -0.04,0.02 -0.09,0.12 -0.13,0.22 -0.20,0.30 -0.27,0.37 -0.36,0.43 -0.46,0.48 -0.56,0.50 -0.67,0.52 -0.77,0.50 -0.88,0.49 -0.97,0.44 -1.07,0.39 -1.14,0.31 -1.21,0.24 -1.26,0.14 -1.31,0.05 -1.32,-0.05 -1.34,-0.15 -1.31,-0.26 -1.29,-0.36 -1.24,-0.45 -1.19,-0.55 -1.11,-0.62 -1.03,-0.69 -0.93,-0.73 -0.83,-0.77 -0.73,-0.78 -0.62,-0.78 -0.52,-0.76 -0.42,-0.73 -0.33,-0.67 -0.24,-0.62 -0.17,-0.53 -0.11,-0.45 -0.07,-0.35 -0.03,-0.25 -0.03,-0.14 -0.03,-0.04 -0.06,0.05 -0.09,0.15 -0.16,0.24 -0.22,0.33 -0.30,0.39 -0.39,0.45 -0.49,0.48 -0.59,0.51 -0.70,0.51 -0.81,0.50 -1.07,0.17 -1.34,-0.16 -1.32,-0.23 -1.31,-0.31 -1.28,-0.38 -1.25,-0.46 -1.20,-0.52 -1.15,-0.58 -1.09,-0.63 -1.03,-0.68 -0.96,-0.72 -0.89,-0.75 -0.81,-0.77 -0.73,-0.79 -0.65,-0.78 -0.57,-0.78 -0.50,-0.76 -0.42,-0.74 -0.35,-0.70 -0.29,-0.66 -0.23,-0.60 -0.17,-0.55 -0.13,-0.48 -0.09,-0.41 -0.06,-0.34 -0.04,-0.26 -0.03,-0.18 -0.02,-0.11 0.34,0.64 0.71,1.39 0.69,1.99 0.66,2.58 0.29,3.05 -0.07,3.52 -0.71,3.71 -1.35,3.89 -1.94,3.70 -2.53,3.51 -3.10,3.00 -3.67,2.48 -3.94,1.76 -4.21,1.03 -4.18,0.21 -4.16,-0.61 -3.80,-1.29 -3.45,-1.96 -2.78,-2.18 -2.11,-2.40 -1.42,-2.12 -0.72,-1.83 -0.09,-1.23 0.53,-0.62 0.60,-0.55 0.66,-0.48 0.71,-0.39 0.76,-0.30 0.79,-0.21 0.81,-0.11 0.81,-0.01 0.82,0.08 0.79,0.17 0.77,0.27 0.73,0.36 0.68,0.45 0.62,0.52 0.56,0.60 0.48,0.66 0.39,0.72 0.30,0.75 0.21,0.79 0.11,0.81 0.01,0.82 -0.08,0.81 -0.17,0.80 -0.27,0.77 -0.36,0.73 -0.44,0.68 -0.53,0.62 -0.53,0.62 L -0.53,0.62 Z"/></g><g transform="translate(386.4046261885984 182.08027644176389) rotate(0 -10.013746186309106 30.305637960944352)" stroke="none"><path fill="#000000" d="M 0.77,-0.26 Q 0.77,-0.26 1.16,0.86 1.55,1.99 1.84,2.95 2.14,3.92 2.39,4.85 2.65,5.79 2.84,6.80 3.03,7.81 3.17,8.90 3.31,9.99 3.42,11.29 3.53,12.58 3.58,13.94 3.63,15.31 3.53,17.01 3.44,18.72 3.19,20.36 2.95,21.99 2.61,23.53 2.27,25.06 1.91,26.52 1.55,27.99 1.17,29.48 0.79,30.98 0.41,32.45 0.03,33.91 -0.42,35.31 -0.88,36.70 -1.49,38.08 -2.09,39.45 -2.81,40.82 -3.53,42.19 -4.44,43.50 -5.36,44.82 -6.34,46.07 -7.33,47.33 -8.38,48.59 -9.42,49.85 -10.61,51.15 -11.81,52.45 -13.08,53.68 -14.35,54.91 -15.59,56.01 -16.84,57.11 -17.99,58.05 -19.14,58.98 -20.52,59.86 -21.90,60.73 -21.99,60.78 -22.09,60.83 -22.19,60.84 -22.30,60.85 -22.40,60.83 -22.51,60.81 -22.60,60.76 -22.69,60.71 -22.76,60.63 -22.83,60.55 -22.87,60.45 -22.92,60.35 -22.92,60.25 -22.93,60.14 -22.91,60.04 -22.88,59.94 -22.82,59.85 -22.76,59.76 -22.68,59.69 -22.60,59.62 -22.50,59.59 -22.40,59.55 -22.29,59.55 -22.19,59.55 -22.09,59.58 -21.98,59.61 -21.90,59.67 -21.81,59.73 -21.75,59.82 -21.69,59.91 -21.66,60.01 -21.63,60.11 -21.63,60.22 -21.63,60.32 -21.67,60.42 -21.71,60.52 -21.77,60.61 -21.84,60.69 -21.93,60.74 -22.02,60.80 -22.12,60.83 -22.23,60.85 -22.33,60.84 -22.44,60.83 -22.54,60.79 -22.63,60.75 -22.71,60.68 -22.79,60.61 -22.84,60.51 -22.90,60.42 -22.91,60.32 -22.93,60.21 -22.92,60.11 -22.90,60.00 -22.86,59.91 -22.81,59.81 -22.73,59.74 -22.66,59.66 -22.66,59.66 -22.66,59.66 -21.43,58.68 -20.20,57.70 -19.09,56.77 -17.97,55.84 -16.76,54.76 -15.55,53.68 -14.32,52.48 -13.08,51.27 -11.92,50.01 -10.76,48.74 -9.73,47.50 -8.70,46.26 -7.74,45.04 -6.78,43.82 -5.93,42.60 -5.07,41.37 -4.38,40.06 -3.68,38.74 -3.11,37.45 -2.54,36.16 -2.10,34.81 -1.66,33.47 -1.28,32.01 -0.90,30.55 -0.52,29.06 -0.14,27.57 0.21,26.12 0.56,24.68 0.89,23.21 1.21,21.73 1.46,20.17 1.70,18.62 1.79,16.99 1.89,15.37 1.85,14.04 1.81,12.72 1.71,11.46 1.61,10.20 1.49,9.16 1.37,8.12 1.20,7.18 1.02,6.23 0.78,5.32 0.54,4.40 0.25,3.46 -0.02,2.52 -0.40,1.39 -0.77,0.26 -0.79,0.16 -0.81,0.06 -0.81,-0.03 -0.80,-0.12 -0.78,-0.22 -0.75,-0.31 -0.70,-0.40 -0.65,-0.48 -0.58,-0.56 -0.51,-0.63 -0.43,-0.68 -0.35,-0.73 -0.25,-0.76 -0.16,-0.80 -0.06,-0.80 0.03,-0.81 0.12,-0.80 0.22,-0.78 0.31,-0.74 0.40,-0.71 0.48,-0.65 0.56,-0.59 0.62,-0.51 0.69,-0.43 0.73,-0.35 0.77,-0.26 0.77,-0.26 L 0.77,-0.26 Z"/></g><g transform="translate(352.539154553071 191.9831934982954) rotate(0 -1.1936925376319891 7.117722267546668)" stroke="none"><path fill="#000000" d="M 0.19,0.78 Q 0.19,0.78 -0.87,1.10 -1.94,1.41 -2.49,2.11 -3.04,2.81 -3.46,3.91 -3.88,5.02 -4.14,6.33 -4.39,7.64 -4.22,8.67 -4.05,9.69 -3.47,10.52 -2.89,11.36 -2.01,11.87 -1.13,12.39 -0.29,12.61 0.55,12.82 1.22,12.30 1.89,11.78 1.41,11.13 0.93,10.47 -0.59,10.01 -2.11,9.56 -2.22,9.55 -2.32,9.54 -2.42,9.50 -2.52,9.46 -2.60,9.40 -2.68,9.33 -2.74,9.23 -2.79,9.14 -2.81,9.04 -2.83,8.94 -2.82,8.83 -2.81,8.72 -2.76,8.63 -2.72,8.53 -2.65,8.46 -2.57,8.38 -2.48,8.33 -2.38,8.28 -2.28,8.26 -2.17,8.25 -2.07,8.27 -1.96,8.28 -1.87,8.33 -1.78,8.38 -1.71,8.46 -1.63,8.54 -1.59,8.64 -1.54,8.73 -1.53,8.84 -1.52,8.94 -1.55,9.05 -1.57,9.15 -1.63,9.24 -1.68,9.33 -1.76,9.40 -1.84,9.47 -1.94,9.51 -2.04,9.55 -2.15,9.55 -2.25,9.56 -2.36,9.53 -2.46,9.50 -2.55,9.44 -2.63,9.38 -2.70,9.29 -2.76,9.21 -2.79,9.11 -2.83,9.01 -2.83,8.90 -2.83,8.79 -2.79,8.69 -2.76,8.59 -2.69,8.51 -2.63,8.42 -2.54,8.37 -2.45,8.31 -2.35,8.28 -2.25,8.25 -2.25,8.25 -2.25,8.25 0.02,8.64 2.30,9.04 2.96,9.80 3.63,10.57 3.68,11.62 3.73,12.67 3.04,13.52 2.36,14.36 1.25,14.62 0.14,14.88 -1.06,14.53 -2.26,14.18 -3.43,13.36 -4.61,12.54 -5.34,11.30 -6.08,10.06 -6.25,8.66 -6.42,7.26 -6.10,5.74 -5.77,4.22 -5.13,2.84 -4.49,1.47 -3.51,0.58 -2.52,-0.29 -1.36,-0.54 -0.19,-0.78 -0.09,-0.79 -0.00,-0.81 0.09,-0.79 0.19,-0.78 0.28,-0.75 0.37,-0.71 0.45,-0.66 0.53,-0.60 0.60,-0.53 0.66,-0.46 0.71,-0.37 0.75,-0.29 0.78,-0.19 0.80,-0.10 0.80,-0.00 0.80,0.09 0.78,0.19 0.75,0.28 0.71,0.37 0.66,0.45 0.60,0.53 0.53,0.60 0.45,0.66 0.37,0.71 0.28,0.75 0.19,0.78 0.19,0.78 L 0.19,0.78 Z"/></g><g transform="translate(368.3666281324558 194.67996811866067) rotate(0 -3.094766685487997 1.9673487517870285)" stroke="none"><path fill="#000000" d="M -0.73,0.28 Q -0.73,0.28 -1.20,-0.72 -1.67,-1.72 -2.36,-1.74 -3.06,-1.76 -3.56,-1.04 -4.06,-0.32 -4.45,0.92 -4.84,2.17 -5.00,3.33 -5.16,4.48 -4.89,5.06 -4.63,5.64 -4.13,5.83 -3.63,6.02 -2.68,5.37 -1.72,4.73 -1.45,3.95 -1.18,3.17 -1.00,1.42 -0.82,-0.33 -0.78,-0.40 -0.74,-0.47 -0.69,-0.53 -0.63,-0.59 -0.57,-0.63 -0.50,-0.67 -0.43,-0.70 -0.35,-0.73 -0.27,-0.74 -0.19,-0.74 -0.12,-0.73 -0.04,-0.72 0.03,-0.69 0.10,-0.66 0.16,-0.62 0.23,-0.57 0.28,-0.51 0.33,-0.45 0.37,-0.38 0.40,-0.31 0.42,-0.23 0.44,-0.15 0.43,-0.07 0.43,0.00 0.41,0.07 0.39,0.15 0.31,-0.21 0.22,-0.57 0.29,-0.49 0.36,-0.41 0.39,-0.31 0.43,-0.21 0.43,-0.10 0.43,-0.00 0.40,0.10 0.37,0.20 0.31,0.28 0.25,0.37 0.16,0.43 0.07,0.49 -0.02,0.52 -0.12,0.55 -0.23,0.55 -0.33,0.55 -0.43,0.51 -0.53,0.47 -0.62,0.41 -0.70,0.34 -0.75,0.25 -0.81,0.16 -0.84,0.06 -0.86,-0.04 -0.85,-0.14 -0.84,-0.25 -0.80,-0.35 -0.76,-0.44 -0.69,-0.52 -0.62,-0.60 -0.52,-0.65 -0.43,-0.70 -0.33,-0.72 -0.22,-0.74 -0.12,-0.73 -0.01,-0.71 0.07,-0.67 0.17,-0.62 0.24,-0.54 0.32,-0.47 0.36,-0.37 0.41,-0.28 0.43,-0.17 0.44,-0.07 0.42,0.03 0.40,0.13 0.35,0.22 0.29,0.32 0.21,0.39 0.13,0.46 0.04,0.50 -0.05,0.54 -0.16,0.55 -0.26,0.56 -0.37,0.53 -0.47,0.50 -0.64,0.08 -0.82,-0.33 -0.78,-0.40 -0.74,-0.47 -0.69,-0.53 -0.63,-0.59 -0.57,-0.63 -0.50,-0.67 -0.43,-0.70 -0.35,-0.73 -0.27,-0.74 -0.19,-0.74 -0.12,-0.73 -0.04,-0.72 0.03,-0.69 0.10,-0.66 0.16,-0.62 0.23,-0.57 0.28,-0.51 0.33,-0.45 0.37,-0.38 0.40,-0.31 0.42,-0.23 0.44,-0.15 0.43,-0.07 0.43,0.00 0.41,0.07 0.39,0.15 0.72,2.09 1.04,4.02 0.51,5.25 -0.02,6.48 -1.05,7.28 -2.09,8.08 -3.33,8.14 -4.57,8.20 -5.61,7.49 -6.66,6.78 -7.10,5.54 -7.54,4.29 -7.32,2.84 -7.10,1.38 -6.48,-0.21 -5.86,-1.82 -4.81,-2.84 -3.77,-3.87 -2.68,-3.94 -1.59,-4.02 -0.77,-3.25 0.04,-2.49 0.39,-1.38 0.73,-0.28 0.76,-0.19 0.78,-0.09 0.78,-0.00 0.78,0.09 0.76,0.18 0.74,0.27 0.69,0.36 0.65,0.44 0.59,0.51 0.52,0.58 0.44,0.64 0.37,0.69 0.28,0.73 0.19,0.76 0.09,0.77 0.00,0.79 -0.09,0.78 -0.18,0.76 -0.27,0.73 -0.36,0.70 -0.44,0.64 -0.52,0.59 -0.58,0.52 -0.64,0.45 -0.69,0.36 -0.73,0.28 -0.73,0.28 L -0.73,0.28 Z"/></g><g transform="translate(375.8824640327264 191.01061216601312) rotate(0 -1.6136984692087424 1.0610217621688207)" stroke="none"><path fill="#000000" d="M -0.34,0.71 Q -0.34,0.71 -1.04,0.46 -1.74,0.21 -2.05,0.78 -2.36,1.35 -1.60,1.68 -0.83,2.02 -0.76,1.02 -0.68,0.02 -0.64,-0.07 -0.59,-0.16 -0.52,-0.24 -0.45,-0.32 -0.36,-0.37 -0.26,-0.42 -0.16,-0.44 -0.06,-0.46 0.04,-0.45 0.14,-0.43 0.24,-0.38 0.33,-0.33 0.41,-0.26 0.48,-0.18 0.53,-0.09 0.58,0.00 0.59,0.10 0.60,0.21 0.58,0.31 0.56,0.42 0.51,0.51 0.45,0.60 0.37,0.67 0.29,0.74 0.20,0.78 0.10,0.82 -0.00,0.83 -0.10,0.84 -0.21,0.81 -0.31,0.79 -0.40,0.73 -0.49,0.67 -0.55,0.59 -0.62,0.50 -0.65,0.40 -0.69,0.30 -0.69,0.20 -0.69,0.09 -0.66,-0.00 -0.63,-0.10 -0.57,-0.19 -0.50,-0.27 -0.42,-0.33 -0.33,-0.40 -0.23,-0.43 -0.13,-0.46 -0.02,-0.45 0.08,-0.45 0.18,-0.41 0.27,-0.37 0.36,-0.31 0.44,-0.24 0.50,-0.15 0.55,-0.06 0.58,0.04 0.60,0.14 0.59,0.25 0.58,0.35 0.58,0.35 0.58,0.35 0.36,2.11 0.14,3.87 -0.67,3.94 -1.49,4.01 -2.29,3.66 -3.09,3.31 -3.70,2.57 -4.30,1.82 -4.30,0.91 -4.30,0.00 -3.66,-0.70 -3.02,-1.41 -2.06,-1.49 -1.09,-1.58 -0.37,-1.14 0.34,-0.71 0.42,-0.66 0.50,-0.61 0.57,-0.54 0.63,-0.47 0.68,-0.38 0.73,-0.30 0.75,-0.21 0.78,-0.12 0.78,-0.02 0.79,0.06 0.77,0.16 0.75,0.25 0.71,0.34 0.66,0.42 0.60,0.50 0.54,0.57 0.46,0.63 0.39,0.69 0.30,0.72 0.21,0.76 0.12,0.77 0.02,0.79 -0.06,0.78 -0.16,0.77 -0.25,0.74 -0.34,0.71 -0.34,0.71 L -0.34,0.71 Z"/></g><g transform="translate(226.0529585810986 126.26608845586034) rotate(0 10.013756316942562 22.08264332438533)" stroke="none"><path fill="#000000" d="M 0.17,-0.75 Q 0.17,-0.75 0.79,-0.64 1.42,-0.53 1.95,-0.46 2.49,-0.40 3.03,-0.28 3.58,-0.16 4.19,0.06 4.81,0.29 5.45,0.64 6.09,0.98 6.81,1.42 7.53,1.86 8.19,2.34 8.85,2.82 9.54,3.42 10.24,4.02 10.93,4.77 11.63,5.52 12.30,6.19 12.96,6.87 13.60,7.65 14.23,8.43 14.77,9.13 15.31,9.82 15.90,10.67 16.49,11.51 16.98,12.57 17.47,13.63 17.90,14.76 18.33,15.89 18.72,17.05 19.11,18.21 19.43,19.47 19.76,20.72 20.00,22.02 20.24,23.32 20.37,24.63 20.50,25.93 20.58,27.22 20.66,28.51 20.75,29.79 20.83,31.07 20.87,32.44 20.90,33.82 20.88,35.10 20.86,36.39 20.75,37.53 20.65,38.67 20.47,39.80 20.29,40.94 19.89,42.46 19.49,43.97 19.45,44.07 19.41,44.17 19.35,44.26 19.28,44.34 19.19,44.40 19.10,44.46 19.00,44.48 18.90,44.51 18.79,44.50 18.69,44.50 18.59,44.45 18.49,44.41 18.41,44.34 18.33,44.27 18.28,44.18 18.23,44.09 18.20,43.98 18.18,43.88 18.20,43.77 18.21,43.67 18.26,43.57 18.30,43.48 18.38,43.40 18.45,43.33 18.55,43.28 18.64,43.23 18.75,43.22 18.85,43.20 18.96,43.22 19.06,43.24 19.15,43.29 19.25,43.34 19.32,43.42 19.39,43.50 19.43,43.60 19.48,43.69 19.49,43.80 19.50,43.90 19.47,44.01 19.45,44.11 19.39,44.20 19.33,44.29 19.25,44.36 19.17,44.43 19.07,44.46 18.97,44.50 18.86,44.50 18.76,44.51 18.66,44.48 18.55,44.45 18.47,44.39 18.38,44.32 18.32,44.24 18.25,44.15 18.22,44.05 18.19,43.95 18.19,43.84 18.19,43.74 18.19,43.74 18.19,43.74 18.34,42.20 18.48,40.66 18.64,39.58 18.80,38.50 18.90,37.43 18.99,36.35 19.01,35.11 19.04,33.87 19.00,32.53 18.96,31.19 18.88,29.91 18.79,28.63 18.72,27.37 18.64,26.11 18.52,24.89 18.40,23.66 18.17,22.43 17.95,21.19 17.64,20.00 17.34,18.80 16.96,17.68 16.58,16.55 16.18,15.47 15.77,14.39 15.37,13.48 14.97,12.56 14.41,11.76 13.86,10.95 13.33,10.27 12.80,9.59 12.22,8.88 11.65,8.16 10.96,7.47 10.28,6.77 9.65,6.09 9.02,5.40 8.40,4.85 7.77,4.29 7.17,3.85 6.58,3.41 5.91,2.99 5.23,2.57 4.69,2.27 4.15,1.97 3.19,1.63 2.22,1.30 1.64,1.19 1.06,1.09 0.44,0.92 -0.17,0.75 -0.25,0.72 -0.34,0.69 -0.42,0.64 -0.50,0.59 -0.56,0.52 -0.63,0.45 -0.67,0.37 -0.72,0.29 -0.74,0.20 -0.77,0.10 -0.77,0.01 -0.77,-0.07 -0.75,-0.16 -0.73,-0.26 -0.69,-0.34 -0.64,-0.42 -0.58,-0.50 -0.52,-0.57 -0.45,-0.62 -0.37,-0.68 -0.28,-0.71 -0.20,-0.75 -0.10,-0.76 -0.01,-0.77 0.07,-0.76 0.17,-0.75 0.17,-0.75 L 0.17,-0.75 Z"/></g><g transform="translate(208.7665319582229 148.37082669176715) rotate(0 3.757928080768721 5.74722991520909)" stroke="none"><path fill="#000000" d="M 0.77,0.08 Q 0.77,0.08 0.69,1.43 0.61,2.77 0.47,3.83 0.33,4.89 0.24,5.56 0.15,6.23 0.90,6.28 1.65,6.33 2.26,6.09 2.87,5.85 3.44,5.55 4.00,5.26 4.50,4.82 4.99,4.38 5.05,4.29 5.12,4.20 5.23,4.13 5.33,4.05 5.46,4.00 5.58,3.95 5.71,3.94 5.84,3.92 5.98,3.93 6.11,3.95 6.23,3.99 6.36,4.04 6.47,4.11 6.58,4.19 6.66,4.29 6.75,4.38 6.82,4.50 6.88,4.62 6.91,4.75 6.94,4.87 6.95,5.01 6.95,5.14 6.92,5.27 6.89,5.40 6.83,5.52 6.77,5.63 6.68,5.73 6.59,5.83 6.81,6.72 7.03,7.60 7.86,9.22 8.69,10.83 8.76,10.91 8.82,11.00 8.86,11.10 8.89,11.20 8.89,11.30 8.89,11.41 8.86,11.51 8.83,11.61 8.76,11.70 8.70,11.78 8.61,11.84 8.52,11.90 8.42,11.93 8.32,11.96 8.21,11.95 8.11,11.95 8.01,11.91 7.91,11.87 7.83,11.80 7.75,11.73 7.69,11.64 7.64,11.55 7.61,11.45 7.59,11.34 7.60,11.24 7.61,11.13 7.66,11.04 7.70,10.94 7.77,10.86 7.85,10.79 7.94,10.74 8.03,10.68 8.14,10.67 8.24,10.65 8.35,10.67 8.45,10.68 8.55,10.73 8.64,10.78 8.71,10.86 8.79,10.94 8.83,11.03 8.88,11.13 8.89,11.23 8.90,11.34 8.88,11.44 8.86,11.55 8.80,11.64 8.75,11.73 8.67,11.80 8.59,11.87 8.49,11.91 8.39,11.95 8.28,11.95 8.18,11.96 8.07,11.93 7.97,11.90 7.88,11.84 7.79,11.78 7.79,11.78 7.79,11.78 6.31,9.83 4.83,7.87 4.77,6.59 4.71,5.30 4.92,4.75 5.12,4.20 5.23,4.13 5.33,4.05 5.46,4.00 5.58,3.95 5.71,3.94 5.84,3.92 5.98,3.93 6.11,3.95 6.23,3.99 6.36,4.04 6.47,4.11 6.58,4.19 6.66,4.29 6.75,4.38 6.82,4.50 6.88,4.62 6.91,4.75 6.94,4.87 6.95,5.01 6.95,5.14 6.92,5.27 6.89,5.40 6.83,5.52 6.77,5.63 6.68,5.73 6.59,5.83 6.25,6.10 5.91,6.36 5.42,6.72 4.93,7.07 4.24,7.41 3.56,7.74 2.73,8.02 1.90,8.31 1.02,8.35 0.14,8.39 -0.50,8.01 -1.14,7.62 -1.45,6.90 -1.76,6.18 -1.68,5.38 -1.60,4.58 -1.41,3.57 -1.22,2.56 -0.99,1.23 -0.77,-0.08 -0.74,-0.17 -0.72,-0.27 -0.68,-0.35 -0.64,-0.43 -0.58,-0.50 -0.51,-0.57 -0.44,-0.63 -0.36,-0.68 -0.27,-0.71 -0.19,-0.75 -0.09,-0.76 -0.00,-0.77 0.08,-0.76 0.18,-0.75 0.26,-0.72 0.35,-0.68 0.43,-0.63 0.51,-0.58 0.57,-0.51 0.63,-0.44 0.67,-0.36 0.72,-0.28 0.74,-0.18 0.77,-0.09 0.77,-0.00 0.77,0.08 0.77,0.08 L 0.77,0.08 Z"/></g><g transform="translate(221.89714987217494 149.12241838630095) rotate(0 3.4926473136429337 4.730408106716666)" stroke="none"><path fill="#000000" d="M 0.72,-0.27 Q 0.72,-0.27 0.97,0.31 1.22,0.90 2.33,1.25 3.44,1.60 4.32,2.13 5.20,2.66 5.87,3.29 6.55,3.92 7.04,4.51 7.52,5.11 7.75,6.12 7.98,7.14 7.62,7.98 7.27,8.82 6.58,9.37 5.89,9.91 4.89,10.15 3.89,10.38 2.23,9.11 0.56,7.83 0.50,7.75 0.43,7.67 0.40,7.57 0.36,7.47 0.36,7.36 0.36,7.25 0.39,7.15 0.42,7.05 0.49,6.97 0.55,6.88 0.64,6.82 0.72,6.76 0.83,6.73 0.93,6.70 1.03,6.70 1.14,6.71 1.24,6.74 1.34,6.78 1.42,6.85 1.50,6.92 1.56,7.01 1.62,7.10 1.64,7.20 1.66,7.30 1.65,7.41 1.64,7.52 1.60,7.61 1.56,7.71 1.49,7.79 1.41,7.87 1.32,7.92 1.23,7.97 1.12,7.99 1.02,8.01 0.91,7.99 0.81,7.98 0.71,7.93 0.62,7.88 0.55,7.80 0.47,7.73 0.42,7.63 0.38,7.54 0.37,7.43 0.35,7.32 0.37,7.22 0.40,7.12 0.45,7.02 0.50,6.93 0.58,6.86 0.66,6.79 0.76,6.75 0.86,6.71 0.96,6.70 1.07,6.70 1.17,6.72 1.28,6.75 1.36,6.81 1.45,6.87 1.45,6.87 1.45,6.87 2.52,7.42 3.58,7.98 4.31,7.70 5.03,7.42 5.26,6.91 5.49,6.41 5.21,5.95 4.93,5.48 4.48,4.94 4.02,4.40 3.36,3.91 2.70,3.42 1.91,3.07 1.11,2.71 0.45,2.22 -0.20,1.73 -0.46,1.00 -0.72,0.27 -0.74,0.18 -0.76,0.09 -0.76,0.00 -0.77,-0.08 -0.74,-0.18 -0.72,-0.27 -0.68,-0.35 -0.64,-0.43 -0.57,-0.50 -0.51,-0.57 -0.44,-0.63 -0.36,-0.68 -0.27,-0.71 -0.18,-0.75 -0.09,-0.76 -0.00,-0.77 0.08,-0.76 0.18,-0.75 0.26,-0.72 0.35,-0.68 0.43,-0.63 0.51,-0.58 0.57,-0.51 0.63,-0.44 0.67,-0.36 0.72,-0.27 0.72,-0.27 L 0.72,-0.27 Z"/></g><g transform="translate(222.69295165101857 145.80668232433135) rotate(0 3.625277566572379 0.4420907124647613)" stroke="none"><path fill="#000000" d="M 0.19,-0.78 Q 0.19,-0.78 1.36,-0.64 2.54,-0.50 4.66,-0.57 6.78,-0.64 6.89,-0.65 7.00,-0.66 7.10,-0.64 7.20,-0.61 7.29,-0.56 7.39,-0.50 7.45,-0.42 7.52,-0.34 7.56,-0.24 7.60,-0.15 7.61,-0.04 7.61,0.06 7.58,0.16 7.56,0.26 7.50,0.35 7.44,0.44 7.35,0.50 7.27,0.57 7.17,0.60 7.07,0.63 6.96,0.63 6.85,0.63 6.75,0.60 6.65,0.57 6.57,0.50 6.48,0.44 6.42,0.35 6.36,0.26 6.34,0.16 6.31,0.06 6.31,-0.04 6.32,-0.15 6.36,-0.24 6.40,-0.34 6.47,-0.42 6.53,-0.51 6.63,-0.56 6.72,-0.61 6.82,-0.64 6.92,-0.66 7.03,-0.65 7.14,-0.64 7.23,-0.59 7.33,-0.55 7.41,-0.47 7.48,-0.40 7.53,-0.31 7.58,-0.21 7.60,-0.11 7.62,-0.00 7.60,0.09 7.58,0.20 7.53,0.29 7.48,0.38 7.40,0.46 7.33,0.53 7.23,0.57 7.13,0.62 7.13,0.62 7.14,0.62 4.58,1.12 2.03,1.62 0.91,1.20 -0.19,0.78 -0.28,0.74 -0.37,0.71 -0.45,0.65 -0.53,0.60 -0.59,0.53 -0.66,0.45 -0.70,0.37 -0.75,0.28 -0.77,0.19 -0.80,0.09 -0.80,0.00 -0.80,-0.09 -0.77,-0.19 -0.75,-0.28 -0.70,-0.37 -0.66,-0.45 -0.60,-0.52 -0.53,-0.60 -0.45,-0.65 -0.37,-0.71 -0.28,-0.74 -0.19,-0.78 -0.09,-0.79 -0.00,-0.80 0.09,-0.79 0.19,-0.78 0.19,-0.78 L 0.19,-0.78 Z"/></g><g transform="translate(235.77931895812702 146.20457308311973) rotate(0 -0.9284117705062158 -0.9284117705062158)" stroke="none"><path fill="#000000" d="M -0.77,0.09 Q -0.77,0.09 -1.00,-0.69 -1.23,-1.49 -1.59,-1.95 -1.95,-2.42 -2.07,-1.79 -2.19,-1.15 -1.71,-0.43 -1.24,0.28 -0.58,0.29 0.07,0.31 -0.06,-0.39 -0.21,-1.11 -0.14,-1.15 -0.07,-1.19 -0.00,-1.21 0.07,-1.24 0.15,-1.24 0.23,-1.25 0.31,-1.23 0.38,-1.22 0.46,-1.18 0.53,-1.15 0.59,-1.10 0.65,-1.05 0.70,-0.99 0.75,-0.93 0.78,-0.85 0.81,-0.78 0.83,-0.70 0.84,-0.63 0.83,-0.55 0.83,-0.47 0.81,-0.39 0.78,-0.32 0.74,-0.25 0.70,-0.18 0.64,-0.13 0.59,-0.07 0.65,-0.14 0.71,-0.20 0.64,-0.13 0.56,-0.05 0.47,-0.01 0.37,0.03 0.27,0.04 0.16,0.06 0.06,0.03 -0.04,0.01 -0.13,-0.03 -0.22,-0.08 -0.29,-0.16 -0.36,-0.24 -0.40,-0.34 -0.44,-0.44 -0.45,-0.54 -0.46,-0.65 -0.43,-0.75 -0.41,-0.86 -0.35,-0.94 -0.29,-1.03 -0.21,-1.10 -0.12,-1.17 -0.02,-1.20 0.07,-1.24 0.17,-1.24 0.28,-1.24 0.38,-1.21 0.48,-1.18 0.57,-1.11 0.65,-1.05 0.71,-0.96 0.78,-0.88 0.81,-0.77 0.84,-0.67 0.83,-0.57 0.83,-0.46 0.79,-0.36 0.75,-0.26 0.69,-0.18 0.62,-0.10 0.53,-0.04 0.44,0.01 0.33,0.03 0.23,0.05 0.13,0.04 0.02,0.04 -0.07,-0.00 -0.16,-0.04 -0.24,-0.11 -0.32,-0.18 -0.37,-0.28 -0.42,-0.37 -0.44,-0.47 -0.46,-0.58 -0.45,-0.68 -0.43,-0.79 -0.32,-0.95 -0.21,-1.11 -0.14,-1.15 -0.07,-1.19 -0.00,-1.21 0.07,-1.24 0.15,-1.24 0.23,-1.25 0.31,-1.23 0.38,-1.22 0.46,-1.18 0.53,-1.15 0.59,-1.10 0.65,-1.05 0.70,-0.99 0.75,-0.93 0.78,-0.85 0.81,-0.78 0.83,-0.70 0.84,-0.63 0.83,-0.55 0.83,-0.47 0.81,-0.39 0.78,-0.32 0.74,-0.25 0.70,-0.18 0.64,-0.13 0.59,-0.07 1.30,0.84 2.02,1.76 1.29,2.25 0.56,2.73 -0.34,2.79 -1.25,2.84 -2.13,2.42 -3.01,2.00 -3.65,1.19 -4.29,0.38 -4.45,-0.70 -4.61,-1.78 -4.15,-2.82 -3.69,-3.85 -2.82,-4.19 -1.95,-4.53 -0.96,-4.00 0.02,-3.48 0.42,-2.64 0.83,-1.81 0.80,-0.95 0.77,-0.09 0.77,-0.00 0.77,0.09 0.75,0.18 0.72,0.27 0.68,0.35 0.64,0.44 0.58,0.51 0.51,0.58 0.44,0.63 0.36,0.68 0.27,0.72 0.18,0.75 0.09,0.76 0.00,0.77 -0.09,0.76 -0.18,0.75 -0.27,0.72 -0.36,0.69 -0.43,0.63 -0.51,0.58 -0.57,0.51 -0.64,0.44 -0.68,0.36 -0.72,0.27 -0.75,0.18 -0.77,0.09 -0.77,0.09 L -0.77,0.09 Z"/></g><g transform="translate(417.6727655015577 195.60686029415143) rotate(0 9.85903115249161 -0.8399713406196838)" stroke="none"><path fill="#000000" d="M -0.07,-0.81 Q -0.07,-0.81 2.42,-1.18 4.92,-1.56 6.94,-1.85 8.95,-2.13 10.69,-2.33 12.43,-2.53 13.91,-2.57 15.38,-2.61 17.44,-2.00 19.50,-1.39 19.60,-1.35 19.69,-1.30 19.77,-1.23 19.85,-1.16 19.90,-1.07 19.96,-0.98 19.97,-0.87 19.99,-0.77 19.98,-0.66 19.97,-0.56 19.92,-0.46 19.87,-0.37 19.79,-0.29 19.72,-0.22 19.62,-0.17 19.53,-0.12 19.42,-0.11 19.32,-0.10 19.21,-0.12 19.11,-0.14 19.02,-0.19 18.93,-0.24 18.85,-0.32 18.78,-0.40 18.74,-0.50 18.70,-0.60 18.69,-0.70 18.68,-0.81 18.71,-0.91 18.74,-1.01 18.79,-1.10 18.85,-1.19 18.93,-1.26 19.02,-1.33 19.12,-1.36 19.22,-1.40 19.32,-1.40 19.43,-1.40 19.53,-1.37 19.63,-1.34 19.72,-1.28 19.80,-1.22 19.87,-1.13 19.93,-1.04 19.96,-0.94 19.99,-0.84 19.99,-0.73 19.98,-0.63 19.95,-0.53 19.91,-0.43 19.84,-0.34 19.77,-0.26 19.69,-0.21 19.60,-0.15 19.49,-0.12 19.39,-0.10 19.28,-0.11 19.18,-0.12 19.18,-0.12 19.18,-0.12 17.33,-0.29 15.47,-0.45 14.08,-0.36 12.68,-0.26 10.96,-0.08 9.25,0.09 7.19,0.34 5.13,0.60 2.60,0.70 0.07,0.81 -0.02,0.80 -0.11,0.80 -0.21,0.78 -0.30,0.75 -0.39,0.70 -0.48,0.65 -0.55,0.59 -0.62,0.52 -0.67,0.44 -0.73,0.36 -0.76,0.26 -0.79,0.17 -0.80,0.07 -0.81,-0.02 -0.80,-0.11 -0.78,-0.21 -0.74,-0.30 -0.71,-0.39 -0.65,-0.47 -0.59,-0.55 -0.52,-0.61 -0.44,-0.68 -0.35,-0.72 -0.26,-0.76 -0.17,-0.79 -0.07,-0.81 -0.07,-0.81 L -0.07,-0.81 Z"/></g><g transform="translate(428.54864885444204 195.07637980496736) rotate(0 -0.3315756323236485 6.167205454885504)" stroke="none"><path fill="#000000" d="M 0.82,0.06 Q 0.82,0.06 0.75,2.46 0.69,4.86 0.50,6.75 0.32,8.65 0.16,10.16 0.01,11.68 -0.00,11.78 -0.02,11.89 -0.07,11.98 -0.13,12.07 -0.21,12.14 -0.29,12.21 -0.38,12.25 -0.48,12.30 -0.59,12.30 -0.69,12.31 -0.80,12.29 -0.90,12.26 -0.99,12.20 -1.08,12.14 -1.14,12.06 -1.21,11.98 -1.25,11.88 -1.28,11.78 -1.28,11.67 -1.29,11.57 -1.25,11.46 -1.22,11.36 -1.16,11.28 -1.10,11.19 -1.01,11.13 -0.93,11.07 -0.82,11.04 -0.72,11.01 -0.62,11.01 -0.51,11.01 -0.41,11.05 -0.31,11.09 -0.23,11.15 -0.15,11.22 -0.09,11.31 -0.03,11.40 -0.01,11.50 0.01,11.61 0.00,11.71 -0.00,11.82 -0.04,11.92 -0.09,12.01 -0.16,12.09 -0.23,12.17 -0.32,12.22 -0.41,12.28 -0.52,12.29 -0.62,12.31 -0.73,12.30 -0.83,12.28 -0.93,12.24 -1.02,12.19 -1.10,12.11 -1.17,12.04 -1.22,11.94 -1.27,11.85 -1.28,11.74 -1.29,11.64 -1.29,11.64 -1.29,11.64 -1.35,10.10 -1.40,8.57 -1.43,6.63 -1.45,4.69 -1.13,2.31 -0.82,-0.06 -0.80,-0.16 -0.78,-0.26 -0.73,-0.34 -0.69,-0.43 -0.63,-0.51 -0.57,-0.59 -0.49,-0.65 -0.41,-0.71 -0.32,-0.75 -0.22,-0.79 -0.13,-0.80 -0.03,-0.82 0.06,-0.81 0.16,-0.80 0.25,-0.77 0.35,-0.74 0.43,-0.69 0.52,-0.63 0.58,-0.56 0.65,-0.49 0.70,-0.40 0.75,-0.32 0.78,-0.22 0.81,-0.13 0.81,-0.03 0.82,0.06 0.82,0.06 L 0.82,0.06 Z"/></g><g transform="translate(433.6328895951388 206.61504971969532) rotate(0 -0.22105042154910848 4.885133271167604)" stroke="none"><path fill="#000000" d="M 0.81,0.02 Q 0.81,0.02 0.86,1.78 0.91,3.53 0.58,6.41 0.24,9.28 0.22,9.39 0.19,9.49 0.14,9.58 0.08,9.67 0.00,9.74 -0.07,9.81 -0.17,9.85 -0.27,9.89 -0.37,9.89 -0.48,9.90 -0.58,9.87 -0.68,9.84 -0.77,9.78 -0.86,9.72 -0.92,9.63 -0.99,9.55 -1.02,9.45 -1.05,9.35 -1.05,9.24 -1.05,9.13 -1.02,9.03 -0.99,8.93 -0.92,8.85 -0.86,8.76 -0.77,8.71 -0.68,8.65 -0.58,8.62 -0.47,8.59 -0.37,8.60 -0.26,8.60 -0.16,8.64 -0.07,8.68 0.01,8.75 0.09,8.82 0.14,8.91 0.19,9.00 0.22,9.11 0.24,9.21 0.23,9.32 0.22,9.42 0.17,9.52 0.13,9.61 0.05,9.69 -0.01,9.77 -0.11,9.82 -0.20,9.87 -0.30,9.88 -0.41,9.90 -0.51,9.88 -0.62,9.86 -0.71,9.81 -0.81,9.76 -0.88,9.69 -0.95,9.61 -1.00,9.51 -1.04,9.42 -1.05,9.31 -1.06,9.20 -1.06,9.20 -1.06,9.20 -1.09,6.34 -1.12,3.47 -0.96,1.72 -0.81,-0.02 -0.79,-0.12 -0.78,-0.21 -0.74,-0.30 -0.70,-0.39 -0.64,-0.47 -0.59,-0.55 -0.51,-0.61 -0.44,-0.68 -0.35,-0.72 -0.26,-0.76 -0.16,-0.78 -0.07,-0.80 0.02,-0.80 0.12,-0.80 0.21,-0.77 0.30,-0.74 0.39,-0.70 0.47,-0.65 0.55,-0.58 0.62,-0.51 0.67,-0.43 0.72,-0.35 0.76,-0.26 0.79,-0.17 0.80,-0.07 0.81,0.02 0.81,0.02 L 0.81,0.02 Z"/></g><g transform="translate(229.1111334186204 187.55773771923526) rotate(0 6.123197983244381 1.2599671415629814)" stroke="none"><path fill="#000000" d="M 0.12,-0.79 Q 0.12,-0.79 1.74,-0.75 3.35,-0.70 4.89,-0.48 6.43,-0.25 7.68,0.00 8.93,0.26 10.55,1.03 12.18,1.80 12.27,1.85 12.36,1.90 12.44,1.98 12.51,2.05 12.55,2.15 12.60,2.25 12.61,2.35 12.62,2.46 12.59,2.56 12.57,2.67 12.51,2.76 12.46,2.85 12.37,2.92 12.29,2.98 12.19,3.02 12.09,3.06 11.99,3.06 11.88,3.07 11.78,3.04 11.68,3.01 11.59,2.95 11.50,2.89 11.44,2.80 11.38,2.72 11.34,2.62 11.31,2.51 11.31,2.41 11.31,2.30 11.35,2.20 11.38,2.10 11.45,2.02 11.52,1.93 11.60,1.88 11.69,1.82 11.80,1.79 11.90,1.76 12.00,1.77 12.11,1.78 12.21,1.82 12.31,1.86 12.39,1.93 12.47,2.00 12.52,2.09 12.57,2.18 12.60,2.29 12.62,2.39 12.60,2.49 12.59,2.60 12.55,2.70 12.50,2.79 12.43,2.87 12.35,2.94 12.26,2.99 12.16,3.04 12.06,3.06 11.95,3.07 11.85,3.05 11.74,3.04 11.74,3.04 11.74,3.04 10.11,2.80 8.48,2.57 7.28,2.35 6.07,2.14 4.53,1.90 2.99,1.67 1.43,1.23 -0.12,0.79 -0.21,0.77 -0.30,0.74 -0.39,0.69 -0.47,0.65 -0.54,0.58 -0.62,0.51 -0.67,0.43 -0.72,0.35 -0.75,0.26 -0.79,0.16 -0.79,0.07 -0.80,-0.02 -0.79,-0.12 -0.77,-0.21 -0.74,-0.30 -0.70,-0.39 -0.64,-0.47 -0.58,-0.55 -0.51,-0.61 -0.43,-0.67 -0.35,-0.72 -0.26,-0.76 -0.16,-0.78 -0.07,-0.80 0.02,-0.80 0.12,-0.79 0.12,-0.79 L 0.12,-0.79 Z"/></g><g transform="translate(237.68803160359352 189.7239913278827) rotate(0 -0.5968361381825673 4.266232613363854)" stroke="none"><path fill="#000000" d="M 0.78,0.20 Q 0.78,0.20 0.50,1.46 0.22,2.72 0.07,3.86 -0.06,5.01 -0.17,6.61 -0.28,8.21 -0.29,8.32 -0.31,8.42 -0.35,8.52 -0.40,8.61 -0.47,8.69 -0.54,8.77 -0.64,8.82 -0.73,8.86 -0.84,8.88 -0.94,8.90 -1.05,8.88 -1.15,8.86 -1.25,8.81 -1.34,8.76 -1.41,8.68 -1.48,8.60 -1.53,8.50 -1.57,8.41 -1.58,8.30 -1.59,8.20 -1.57,8.09 -1.54,7.99 -1.49,7.90 -1.43,7.81 -1.35,7.74 -1.27,7.67 -1.17,7.63 -1.07,7.60 -0.96,7.59 -0.86,7.59 -0.75,7.62 -0.65,7.65 -0.57,7.71 -0.48,7.77 -0.41,7.85 -0.35,7.94 -0.32,8.04 -0.29,8.14 -0.29,8.25 -0.29,8.35 -0.32,8.45 -0.36,8.55 -0.42,8.64 -0.49,8.72 -0.58,8.78 -0.67,8.84 -0.77,8.87 -0.87,8.89 -0.98,8.89 -1.08,8.88 -1.18,8.84 -1.28,8.80 -1.36,8.73 -1.44,8.66 -1.49,8.57 -1.55,8.47 -1.57,8.37 -1.59,8.27 -1.59,8.27 -1.59,8.27 -1.73,6.52 -1.87,4.78 -1.70,3.52 -1.54,2.25 -1.16,1.02 -0.78,-0.20 -0.74,-0.29 -0.70,-0.38 -0.65,-0.46 -0.59,-0.54 -0.52,-0.61 -0.44,-0.67 -0.36,-0.71 -0.27,-0.76 -0.17,-0.78 -0.08,-0.80 0.01,-0.80 0.11,-0.80 0.20,-0.77 0.30,-0.75 0.38,-0.70 0.47,-0.65 0.54,-0.59 0.61,-0.52 0.66,-0.44 0.72,-0.36 0.75,-0.27 0.78,-0.17 0.79,-0.08 0.80,0.01 0.79,0.11 0.78,0.20 0.78,0.20 L 0.78,0.20 Z"/></g><g transform="translate(246.39756004149606 195.6038514960212) rotate(0 4.4432046488378205 3.9346569810402343)" stroke="none"><path fill="#000000" d="M 0.34,-0.77 Q 0.34,-0.77 1.52,-0.51 2.69,-0.25 3.48,0.61 4.26,1.48 4.24,2.59 4.21,3.71 3.37,4.52 2.54,5.33 1.91,5.64 1.29,5.95 1.14,6.10 0.99,6.25 0.83,6.31 0.68,6.36 0.51,6.38 0.35,6.39 0.19,6.37 0.03,6.34 -0.11,6.28 -0.27,6.22 -0.40,6.12 -0.53,6.03 -0.64,5.90 -0.74,5.78 -0.81,5.63 -0.89,5.48 -0.92,5.32 -0.96,5.16 -0.95,5.00 -0.95,4.83 -0.90,4.67 -0.86,4.52 -0.78,4.37 -0.70,4.23 -0.59,4.11 -0.48,3.99 -0.34,3.90 -0.20,3.81 0.91,4.07 2.03,4.32 2.94,4.63 3.86,4.94 6.24,6.01 8.63,7.07 8.73,7.12 8.82,7.16 8.90,7.23 8.98,7.30 9.03,7.40 9.08,7.49 9.10,7.59 9.12,7.70 9.11,7.80 9.09,7.91 9.04,8.00 8.99,8.10 8.92,8.17 8.84,8.25 8.75,8.29 8.65,8.34 8.55,8.35 8.44,8.37 8.34,8.35 8.23,8.32 8.14,8.27 8.05,8.22 7.98,8.14 7.91,8.06 7.87,7.96 7.83,7.86 7.82,7.76 7.81,7.65 7.84,7.55 7.86,7.44 7.92,7.36 7.98,7.27 8.06,7.20 8.15,7.14 8.25,7.10 8.35,7.06 8.45,7.06 8.56,7.06 8.66,7.09 8.76,7.13 8.85,7.19 8.93,7.25 9.00,7.34 9.06,7.42 9.09,7.53 9.12,7.63 9.11,7.73 9.11,7.84 9.07,7.94 9.03,8.04 8.97,8.12 8.90,8.20 8.81,8.26 8.72,8.32 8.61,8.34 8.51,8.37 8.41,8.36 8.30,8.35 8.30,8.35 8.30,8.35 5.65,7.92 3.00,7.49 1.99,6.87 0.99,6.25 0.83,6.31 0.68,6.36 0.51,6.38 0.35,6.39 0.19,6.37 0.03,6.34 -0.11,6.28 -0.27,6.22 -0.40,6.12 -0.53,6.03 -0.64,5.90 -0.74,5.78 -0.81,5.63 -0.89,5.48 -0.92,5.32 -0.96,5.16 -0.95,5.00 -0.95,4.83 -0.90,4.68 -0.86,4.52 -0.78,4.37 -0.70,4.23 -0.59,4.11 -0.48,3.99 -0.34,3.90 -0.20,3.81 0.33,3.44 0.87,3.06 1.19,2.60 1.52,2.13 0.58,1.45 -0.34,0.77 -0.43,0.72 -0.52,0.67 -0.59,0.59 -0.66,0.52 -0.72,0.43 -0.77,0.35 -0.80,0.25 -0.83,0.15 -0.84,0.05 -0.84,-0.04 -0.83,-0.14 -0.81,-0.24 -0.77,-0.34 -0.72,-0.43 -0.66,-0.51 -0.60,-0.59 -0.52,-0.66 -0.44,-0.72 -0.34,-0.76 -0.25,-0.81 -0.15,-0.82 -0.05,-0.84 0.04,-0.84 0.15,-0.83 0.24,-0.80 0.34,-0.77 0.34,-0.77 L 0.34,-0.77 Z"/></g><g transform="translate(94.35945493346307 190.61558837648647) rotate(0 6.366353446948395 0.3536806744785679)" stroke="none"><path fill="#000000" d="M 0.00,-0.83 Q 0.00,-0.83 1.59,-0.92 3.18,-1.01 4.87,-1.01 6.56,-1.01 9.42,-0.52 12.27,-0.03 12.37,0.00 12.48,0.03 12.56,0.09 12.64,0.16 12.70,0.25 12.76,0.33 12.79,0.44 12.82,0.54 12.81,0.65 12.81,0.75 12.77,0.85 12.73,0.95 12.66,1.03 12.59,1.11 12.50,1.17 12.41,1.22 12.31,1.24 12.20,1.27 12.10,1.25 11.99,1.24 11.89,1.20 11.80,1.15 11.72,1.08 11.64,1.01 11.59,0.91 11.54,0.82 11.53,0.71 11.51,0.61 11.53,0.50 11.54,0.40 11.59,0.31 11.64,0.21 11.72,0.14 11.80,0.07 11.90,0.02 11.99,-0.01 12.10,-0.02 12.20,-0.04 12.31,-0.01 12.41,0.00 12.50,0.05 12.59,0.11 12.66,0.19 12.73,0.27 12.77,0.37 12.81,0.47 12.81,0.58 12.82,0.68 12.79,0.78 12.76,0.89 12.70,0.97 12.64,1.06 12.56,1.13 12.47,1.19 12.37,1.22 12.27,1.26 12.17,1.26 12.06,1.26 12.06,1.26 12.06,1.26 9.31,1.17 6.55,1.09 4.86,1.07 3.16,1.06 1.58,0.95 -0.00,0.83 -0.10,0.82 -0.20,0.80 -0.30,0.77 -0.39,0.73 -0.47,0.67 -0.55,0.62 -0.62,0.54 -0.69,0.46 -0.73,0.37 -0.78,0.29 -0.80,0.19 -0.83,0.09 -0.82,-0.00 -0.82,-0.10 -0.80,-0.20 -0.77,-0.30 -0.73,-0.39 -0.68,-0.48 -0.61,-0.55 -0.54,-0.62 -0.46,-0.68 -0.38,-0.74 -0.28,-0.77 -0.19,-0.81 -0.09,-0.82 0.00,-0.83 0.00,-0.83 L 0.00,-0.83 Z"/></g><g transform="translate(100.8142285490311 193.7544841012168) rotate(0 -0.1989453793941891 4.7304283679835635)" stroke="none"><path fill="#000000" d="M 0.80,0.05 Q 0.80,0.05 0.81,1.48 0.82,2.92 0.76,4.25 0.70,5.59 0.59,7.16 0.49,8.72 0.47,8.83 0.46,8.93 0.42,9.03 0.37,9.12 0.30,9.20 0.22,9.28 0.13,9.33 0.03,9.37 -0.06,9.39 -0.17,9.41 -0.27,9.39 -0.37,9.37 -0.47,9.32 -0.56,9.27 -0.63,9.19 -0.71,9.12 -0.75,9.02 -0.79,8.92 -0.81,8.82 -0.82,8.71 -0.79,8.61 -0.77,8.50 -0.71,8.41 -0.66,8.32 -0.58,8.25 -0.49,8.19 -0.40,8.15 -0.30,8.11 -0.19,8.10 -0.08,8.10 0.01,8.13 0.11,8.16 0.20,8.22 0.28,8.28 0.35,8.36 0.41,8.45 0.45,8.55 0.48,8.65 0.48,8.76 0.48,8.86 0.44,8.96 0.41,9.06 0.34,9.15 0.28,9.23 0.19,9.29 0.10,9.35 0.00,9.38 -0.09,9.40 -0.20,9.40 -0.31,9.39 -0.41,9.35 -0.50,9.31 -0.58,9.24 -0.66,9.17 -0.72,9.08 -0.77,8.99 -0.79,8.89 -0.82,8.78 -0.82,8.78 -0.82,8.78 -1.07,7.15 -1.33,5.51 -1.28,4.14 -1.23,2.77 -1.01,1.35 -0.80,-0.05 -0.78,-0.15 -0.76,-0.24 -0.72,-0.33 -0.68,-0.42 -0.62,-0.49 -0.56,-0.57 -0.48,-0.63 -0.40,-0.69 -0.31,-0.73 -0.23,-0.77 -0.13,-0.78 -0.03,-0.80 0.05,-0.79 0.15,-0.78 0.24,-0.75 0.33,-0.72 0.42,-0.67 0.50,-0.62 0.57,-0.55 0.63,-0.48 0.68,-0.40 0.73,-0.32 0.76,-0.22 0.79,-0.13 0.79,-0.03 0.80,0.05 0.80,0.05 L 0.80,0.05 Z"/></g><g transform="translate(110.23113859715767 200.16488554234007) rotate(0 2.9179162176152715 3.3820106659005944)" stroke="none"><path fill="#000000" d="M 0.76,0.17 Q 0.76,0.17 0.69,1.02 0.61,1.88 0.49,2.65 0.37,3.43 0.33,4.02 0.28,4.61 1.08,4.99 1.88,5.36 2.61,5.37 3.35,5.38 4.75,5.14 6.15,4.91 6.25,4.88 6.35,4.85 6.46,4.85 6.56,4.86 6.66,4.90 6.76,4.94 6.84,5.01 6.92,5.08 6.98,5.17 7.03,5.26 7.05,5.36 7.08,5.46 7.07,5.57 7.05,5.68 7.01,5.77 6.97,5.87 6.89,5.95 6.82,6.02 6.73,6.07 6.63,6.12 6.53,6.14 6.42,6.16 6.32,6.14 6.21,6.12 6.12,6.07 6.02,6.02 5.95,5.95 5.88,5.87 5.83,5.77 5.79,5.68 5.78,5.57 5.77,5.47 5.79,5.36 5.81,5.26 5.87,5.17 5.92,5.08 6.00,5.01 6.08,4.94 6.18,4.90 6.28,4.86 6.39,4.85 6.49,4.85 6.59,4.88 6.70,4.90 6.79,4.96 6.87,5.02 6.94,5.11 7.00,5.19 7.04,5.29 7.07,5.39 7.07,5.50 7.07,5.61 7.04,5.71 7.00,5.81 6.94,5.89 6.87,5.98 6.79,6.04 6.70,6.10 6.70,6.10 6.70,6.10 5.00,6.90 3.29,7.71 2.31,7.67 1.32,7.63 0.41,7.34 -0.49,7.06 -1.07,6.45 -1.65,5.85 -1.79,5.13 -1.94,4.42 -1.85,3.71 -1.76,3.00 -1.57,2.21 -1.38,1.42 -1.07,0.62 -0.76,-0.17 -0.72,-0.26 -0.69,-0.35 -0.64,-0.43 -0.59,-0.50 -0.52,-0.57 -0.45,-0.63 -0.37,-0.68 -0.28,-0.72 -0.19,-0.74 -0.10,-0.77 -0.01,-0.77 0.08,-0.77 0.17,-0.75 0.26,-0.73 0.35,-0.69 0.43,-0.64 0.50,-0.58 0.57,-0.52 0.63,-0.44 0.68,-0.37 0.72,-0.28 0.75,-0.19 0.76,-0.10 0.78,-0.01 0.77,0.08 0.76,0.17 0.76,0.17 L 0.76,0.17 Z"/></g><g transform="translate(117.26066357002023 201.6679878863402) rotate(0 -0.8842219474632742 3.8462368124205852)" stroke="none"><path fill="#000000" d="M 0.75,0.25 Q 0.75,0.25 0.43,1.74 0.11,3.23 -0.43,5.26 -0.98,7.28 -1.00,7.38 -1.03,7.49 -1.09,7.57 -1.15,7.66 -1.23,7.73 -1.32,7.79 -1.42,7.83 -1.52,7.86 -1.62,7.86 -1.73,7.87 -1.83,7.83 -1.93,7.80 -2.02,7.74 -2.10,7.67 -2.16,7.59 -2.22,7.50 -2.25,7.40 -2.28,7.30 -2.28,7.19 -2.27,7.08 -2.23,6.98 -2.20,6.88 -2.13,6.80 -2.06,6.72 -1.97,6.67 -1.88,6.61 -1.78,6.59 -1.67,6.56 -1.57,6.57 -1.46,6.58 -1.36,6.63 -1.27,6.67 -1.19,6.74 -1.11,6.81 -1.06,6.91 -1.01,7.00 -0.99,7.10 -0.97,7.21 -0.99,7.31 -1.00,7.42 -1.05,7.51 -1.10,7.61 -1.18,7.68 -1.25,7.76 -1.35,7.80 -1.45,7.85 -1.55,7.86 -1.66,7.87 -1.76,7.85 -1.87,7.83 -1.96,7.78 -2.05,7.72 -2.12,7.64 -2.19,7.56 -2.23,7.46 -2.27,7.36 -2.28,7.26 -2.28,7.15 -2.28,7.15 -2.28,7.15 -2.16,4.83 -2.05,2.50 -1.40,1.12 -0.75,-0.25 -0.71,-0.34 -0.67,-0.42 -0.61,-0.50 -0.55,-0.57 -0.47,-0.63 -0.39,-0.69 -0.30,-0.72 -0.21,-0.76 -0.12,-0.78 -0.03,-0.79 0.06,-0.78 0.16,-0.78 0.25,-0.74 0.34,-0.71 0.42,-0.66 0.50,-0.61 0.57,-0.54 0.63,-0.47 0.68,-0.39 0.73,-0.31 0.76,-0.21 0.78,-0.12 0.79,-0.03 0.79,0.06 0.77,0.15 0.75,0.25 0.75,0.25 L 0.75,0.25 Z"/></g><g transform="translate(184.81476650383576 224.74536823832995) rotate(0 6.896894719933101 -0.3978907587883782)" stroke="none"><path fill="#000000" d="M -0.07,-0.91 Q -0.07,-0.91 1.87,-1.21 3.82,-1.52 5.60,-1.63 7.38,-1.74 10.30,-1.44 13.23,-1.14 13.33,-1.11 13.44,-1.09 13.53,-1.03 13.62,-0.97 13.68,-0.89 13.75,-0.81 13.79,-0.71 13.83,-0.61 13.83,-0.50 13.83,-0.40 13.80,-0.30 13.77,-0.19 13.71,-0.11 13.65,-0.02 13.57,0.03 13.48,0.09 13.38,0.13 13.28,0.16 13.17,0.16 13.07,0.15 12.96,0.12 12.86,0.08 12.78,0.02 12.70,-0.04 12.64,-0.13 12.58,-0.22 12.56,-0.32 12.53,-0.42 12.54,-0.53 12.54,-0.63 12.59,-0.73 12.63,-0.83 12.70,-0.91 12.77,-0.99 12.86,-1.04 12.95,-1.10 13.06,-1.12 13.16,-1.14 13.27,-1.12 13.37,-1.11 13.47,-1.06 13.56,-1.02 13.64,-0.94 13.71,-0.87 13.76,-0.77 13.81,-0.68 13.82,-0.57 13.84,-0.47 13.82,-0.36 13.80,-0.26 13.75,-0.17 13.70,-0.07 13.62,-0.00 13.54,0.06 13.44,0.10 13.35,0.14 13.24,0.15 13.14,0.16 13.14,0.16 13.14,0.16 10.33,0.41 7.53,0.66 5.77,0.79 4.00,0.91 2.04,0.91 0.07,0.91 -0.03,0.91 -0.15,0.90 -0.25,0.87 -0.36,0.84 -0.45,0.79 -0.55,0.73 -0.63,0.65 -0.71,0.58 -0.77,0.48 -0.83,0.39 -0.86,0.28 -0.90,0.18 -0.91,0.07 -0.92,-0.03 -0.90,-0.14 -0.88,-0.25 -0.84,-0.36 -0.79,-0.46 -0.72,-0.55 -0.66,-0.63 -0.57,-0.70 -0.49,-0.77 -0.38,-0.82 -0.28,-0.87 -0.18,-0.89 -0.07,-0.91 -0.07,-0.91 L -0.07,-0.91 Z"/></g><g transform="translate(192.06536215951428 226.3368907509497) rotate(0 -0.6410563531258333 4.973573701054136)" stroke="none"><path fill="#000000" d="M 0.82,0.13 Q 0.82,0.13 0.58,2.44 0.34,4.74 0.06,6.87 -0.20,8.99 -0.22,9.09 -0.24,9.20 -0.29,9.29 -0.34,9.38 -0.42,9.45 -0.50,9.53 -0.60,9.57 -0.69,9.61 -0.80,9.62 -0.91,9.63 -1.01,9.60 -1.11,9.58 -1.20,9.52 -1.29,9.46 -1.36,9.38 -1.42,9.29 -1.46,9.20 -1.50,9.10 -1.50,8.99 -1.50,8.88 -1.47,8.78 -1.44,8.68 -1.38,8.59 -1.32,8.51 -1.23,8.45 -1.14,8.38 -1.04,8.35 -0.94,8.32 -0.83,8.32 -0.73,8.33 -0.63,8.36 -0.53,8.40 -0.45,8.47 -0.36,8.53 -0.31,8.62 -0.25,8.71 -0.22,8.82 -0.20,8.92 -0.21,9.02 -0.22,9.13 -0.26,9.23 -0.30,9.33 -0.37,9.40 -0.44,9.48 -0.53,9.54 -0.63,9.59 -0.73,9.61 -0.84,9.63 -0.94,9.61 -1.05,9.60 -1.14,9.55 -1.24,9.51 -1.31,9.43 -1.39,9.35 -1.43,9.26 -1.48,9.16 -1.49,9.06 -1.51,8.95 -1.51,8.95 -1.51,8.95 -1.66,6.68 -1.81,4.40 -1.31,2.13 -0.82,-0.13 -0.79,-0.22 -0.76,-0.32 -0.71,-0.41 -0.66,-0.50 -0.59,-0.57 -0.52,-0.64 -0.44,-0.69 -0.35,-0.75 -0.26,-0.78 -0.16,-0.81 -0.06,-0.82 0.03,-0.83 0.13,-0.81 0.23,-0.80 0.32,-0.76 0.41,-0.72 0.49,-0.66 0.57,-0.60 0.64,-0.52 0.70,-0.44 0.74,-0.35 0.79,-0.26 0.81,-0.16 0.83,-0.06 0.82,0.03 0.82,0.13 0.82,0.13 L 0.82,0.13 Z"/></g><g transform="translate(201.39383177775431 234.60409547181854) rotate(0 4.045293628782588 5.90196521029344)" stroke="none"><path fill="#000000" d="M -0.00,-0.81 Q -0.00,-0.81 1.58,-0.95 3.17,-1.09 4.38,-0.88 5.59,-0.67 6.45,-0.09 7.31,0.48 7.39,1.36 7.47,2.23 6.88,2.85 6.29,3.47 5.79,3.14 5.29,2.82 6.00,3.23 6.71,3.65 7.35,4.24 7.98,4.84 8.50,5.61 9.02,6.37 9.15,7.52 9.28,8.66 8.53,9.86 7.77,11.07 6.32,11.89 4.86,12.71 3.27,12.82 1.69,12.93 0.55,11.19 -0.58,9.44 -0.60,9.34 -0.62,9.24 -0.60,9.13 -0.59,9.03 -0.54,8.93 -0.49,8.84 -0.41,8.76 -0.34,8.69 -0.24,8.64 -0.15,8.60 -0.04,8.58 0.05,8.57 0.16,8.59 0.26,8.61 0.35,8.67 0.45,8.72 0.52,8.80 0.59,8.88 0.63,8.98 0.67,9.07 0.68,9.18 0.68,9.29 0.66,9.39 0.63,9.49 0.57,9.58 0.51,9.67 0.43,9.74 0.35,9.80 0.24,9.84 0.14,9.87 0.04,9.87 -0.06,9.88 -0.16,9.84 -0.26,9.81 -0.35,9.75 -0.43,9.68 -0.49,9.60 -0.55,9.51 -0.58,9.41 -0.61,9.31 -0.61,9.20 -0.60,9.09 -0.57,8.99 -0.53,8.90 -0.46,8.81 -0.39,8.73 -0.30,8.68 -0.21,8.62 -0.11,8.59 -0.01,8.57 0.09,8.58 0.19,8.59 0.29,8.63 0.39,8.68 0.47,8.75 0.55,8.82 0.60,8.91 0.65,9.01 0.65,9.01 0.65,9.01 1.27,9.73 1.90,10.46 2.75,10.30 3.60,10.15 4.58,9.69 5.57,9.23 6.10,8.43 6.64,7.63 6.39,7.12 6.15,6.60 5.76,6.14 5.37,5.69 4.47,4.86 3.57,4.03 3.83,3.00 4.08,1.96 4.61,1.71 5.13,1.46 4.15,1.25 3.18,1.04 1.59,0.92 0.00,0.81 -0.09,0.80 -0.18,0.79 -0.28,0.75 -0.37,0.72 -0.45,0.66 -0.53,0.61 -0.60,0.54 -0.66,0.46 -0.71,0.38 -0.76,0.29 -0.78,0.19 -0.80,0.10 -0.80,0.00 -0.81,-0.09 -0.78,-0.18 -0.76,-0.28 -0.71,-0.37 -0.67,-0.45 -0.61,-0.53 -0.54,-0.60 -0.46,-0.66 -0.38,-0.71 -0.29,-0.75 -0.20,-0.79 -0.10,-0.80 -0.00,-0.81 -0.00,-0.81 L -0.00,-0.81 Z"/></g></svg>