<svg version="1.1" xmlns="http://www.w3.org/2000/svg" viewBox="0 0 295.80468091232956 96.01417940725372" width="295.80468091232956" height="96.01417940725372" filter="invert(93%) hue-rotate(180deg)">
  <!-- svg-source:excalidraw -->
  
  <defs>
    <style class="style-fonts">
      @font-face {
        font-family: "Virgil";
        src: url("https://excalidraw.com/Virgil.woff2");
      }
      @font-face {
        font-family: "Cascadia";
        src: url("https://excalidraw.com/Cascadia.woff2");
      }
    </style>
  </defs>
  <rect x="0" y="0" width="295.80468091232956" height="96.01417940725372" fill="#ffffff"/><g stroke-linecap="round" transform="translate(255.97216138107956 54.412713146203174) rotate(0 14.916259765625 14.916259765625)"><path d="M3.31 5.53 C3.31 5.53, 3.31 5.53, 3.31 5.53 M3.31 5.53 C3.31 5.53, 3.31 5.53, 3.31 5.53 M0.43 14.95 C3.46 11.46, 6.49 7.98, 12.89 0.61 M0.43 14.95 C5.07 9.61, 9.71 4.27, 12.89 0.61 M0.82 20.59 C6.95 13.54, 13.08 6.49, 17.88 0.97 M0.82 20.59 C5.67 15.01, 10.53 9.43, 17.88 0.97 M3.19 23.97 C8.46 17.9, 13.74 11.83, 21.56 2.84 M3.19 23.97 C7.61 18.88, 12.03 13.79, 21.56 2.84 M6.2 26.59 C13.54 18.16, 20.87 9.72, 25.23 4.71 M6.2 26.59 C10.32 21.86, 14.43 17.13, 25.23 4.71 M9.22 29.22 C14.5 23.14, 19.79 17.07, 28.25 7.33 M9.22 29.22 C16.72 20.59, 24.22 11.96, 28.25 7.33 M13.55 30.33 C17.48 25.82, 21.4 21.31, 30.61 10.71 M13.55 30.33 C19.34 23.67, 25.13 17.01, 30.61 10.71 M19.85 29.18 C22.11 26.59, 24.37 23.99, 29.69 17.86 M19.85 29.18 C22.5 26.14, 25.14 23.1, 29.69 17.86" stroke="#000000" stroke-width="0.5" fill="none"/><path d="M29.83 14.92 C29.83 15.78, 29.76 16.66, 29.61 17.51 C29.46 18.36, 29.23 19.21, 28.93 20.02 C28.64 20.83, 28.27 21.63, 27.83 22.37 C27.4 23.12, 26.9 23.84, 26.34 24.5 C25.79 25.17, 25.17 25.79, 24.5 26.34 C23.84 26.9, 23.12 27.4, 22.37 27.83 C21.63 28.27, 20.83 28.64, 20.02 28.93 C19.21 29.23, 18.36 29.46, 17.51 29.61 C16.66 29.76, 15.78 29.83, 14.92 29.83 C14.05 29.83, 13.18 29.76, 12.33 29.61 C11.48 29.46, 10.63 29.23, 9.81 28.93 C9 28.64, 8.21 28.27, 7.46 27.83 C6.71 27.4, 5.99 26.9, 5.33 26.34 C4.67 25.79, 4.04 25.17, 3.49 24.5 C2.93 23.84, 2.43 23.12, 2 22.37 C1.57 21.63, 1.19 20.83, 0.9 20.02 C0.6 19.21, 0.38 18.36, 0.23 17.51 C0.08 16.66, 0 15.78, 0 14.92 C0 14.05, 0.08 13.18, 0.23 12.33 C0.38 11.48, 0.6 10.63, 0.9 9.81 C1.19 9, 1.57 8.21, 2 7.46 C2.43 6.71, 2.93 5.99, 3.49 5.33 C4.04 4.67, 4.67 4.04, 5.33 3.49 C5.99 2.93, 6.71 2.43, 7.46 2 C8.21 1.57, 9 1.19, 9.81 0.9 C10.63 0.6, 11.48 0.38, 12.33 0.23 C13.18 0.08, 14.05 0, 14.92 0 C15.78 0, 16.66 0.08, 17.51 0.23 C18.36 0.38, 19.21 0.6, 20.02 0.9 C20.83 1.19, 21.63 1.57, 22.37 2 C23.12 2.43, 23.84 2.93, 24.5 3.49 C25.17 4.04, 25.79 4.67, 26.34 5.33 C26.9 5.99, 27.4 6.71, 27.83 7.46 C28.27 8.21, 28.64 9, 28.93 9.81 C29.23 10.63, 29.46 11.48, 29.61 12.33 C29.76 13.18, 29.79 14.48, 29.83 14.92 C29.87 15.35, 29.87 14.48, 29.83 14.92" stroke="#000000" stroke-width="1" fill="none"/></g><g stroke-linecap="round" transform="translate(10 56.18165987600372) rotate(0 14.916259765625 14.916259765625)"><path d="M3.31 5.53 C3.31 5.53, 3.31 5.53, 3.31 5.53 M3.31 5.53 C3.31 5.53, 3.31 5.53, 3.31 5.53 M1.54 10.62 C3.66 8.18, 5.78 5.74, 10.07 0.81 M1.54 10.62 C4.29 7.46, 7.03 4.3, 10.07 0.81 M0.43 14.95 C3.3 11.64, 6.17 8.34, 12.89 0.61 M0.43 14.95 C3.36 11.57, 6.29 8.2, 12.89 0.61 M0.63 17.77 C6.07 11.5, 11.52 5.24, 15.71 0.41 M0.63 17.77 C5.96 11.63, 11.29 5.5, 15.71 0.41 M0.82 20.59 C5.16 15.6, 9.49 10.62, 17.88 0.97 M0.82 20.59 C4.5 16.36, 8.18 12.13, 17.88 0.97 M2.33 21.9 C6.73 16.84, 11.13 11.79, 20.05 1.53 M2.33 21.9 C6.54 17.07, 10.74 12.23, 20.05 1.53 M3.19 23.97 C8.48 17.88, 13.77 11.79, 22.21 2.08 M3.19 23.97 C8.71 17.61, 14.24 11.26, 22.21 2.08 M4.69 25.28 C9.39 19.88, 14.09 14.47, 23.72 3.39 M4.69 25.28 C11.91 16.98, 19.12 8.68, 23.72 3.39 M6.2 26.59 C11.87 20.08, 17.53 13.56, 25.23 4.71 M6.2 26.59 C10.39 21.78, 14.57 16.97, 25.23 4.71 M7.71 27.91 C15.06 19.46, 22.4 11.01, 26.74 6.02 M7.71 27.91 C13.76 20.95, 19.8 14, 26.74 6.02 M9.22 29.22 C15.89 21.55, 22.56 13.88, 28.25 7.33 M9.22 29.22 C15.81 21.64, 22.4 14.06, 28.25 7.33 M11.39 29.78 C16.46 23.94, 21.53 18.11, 29.1 9.4 M11.39 29.78 C15.36 25.2, 19.34 20.63, 29.1 9.4 M13.55 30.33 C17.24 26.1, 20.92 21.86, 30.61 10.71 M13.55 30.33 C18.59 24.54, 23.62 18.75, 30.61 10.71 M15.72 30.89 C19.66 26.35, 23.61 21.82, 30.81 13.53 M15.72 30.89 C18.79 27.36, 21.86 23.82, 30.81 13.53 M19.85 29.18 C22.96 25.61, 26.07 22.03, 29.69 17.86 M19.85 29.18 C22.56 26.07, 25.26 22.96, 29.69 17.86" stroke="#000000" stroke-width="0.25" fill="none"/><path d="M29.83 14.92 C29.83 15.78, 29.76 16.66, 29.61 17.51 C29.46 18.36, 29.23 19.21, 28.93 20.02 C28.64 20.83, 28.27 21.63, 27.83 22.37 C27.4 23.12, 26.9 23.84, 26.34 24.5 C25.79 25.17, 25.17 25.79, 24.5 26.34 C23.84 26.9, 23.12 27.4, 22.37 27.83 C21.63 28.27, 20.83 28.64, 20.02 28.93 C19.21 29.23, 18.36 29.46, 17.51 29.61 C16.66 29.76, 15.78 29.83, 14.92 29.83 C14.05 29.83, 13.18 29.76, 12.33 29.61 C11.48 29.46, 10.63 29.23, 9.81 28.93 C9 28.64, 8.21 28.27, 7.46 27.83 C6.71 27.4, 5.99 26.9, 5.33 26.34 C4.67 25.79, 4.04 25.17, 3.49 24.5 C2.93 23.84, 2.43 23.12, 2 22.37 C1.57 21.63, 1.19 20.83, 0.9 20.02 C0.6 19.21, 0.38 18.36, 0.23 17.51 C0.08 16.66, 0 15.78, 0 14.92 C0 14.05, 0.08 13.18, 0.23 12.33 C0.38 11.48, 0.6 10.63, 0.9 9.81 C1.19 9, 1.57 8.21, 2 7.46 C2.43 6.71, 2.93 5.99, 3.49 5.33 C4.04 4.67, 4.67 4.04, 5.33 3.49 C5.99 2.93, 6.71 2.43, 7.46 2 C8.21 1.57, 9 1.19, 9.81 0.9 C10.63 0.6, 11.48 0.38, 12.33 0.23 C13.18 0.08, 14.05 0, 14.92 0 C15.78 0, 16.66 0.08, 17.51 0.23 C18.36 0.38, 19.21 0.6, 20.02 0.9 C20.83 1.19, 21.63 1.57, 22.37 2 C23.12 2.43, 23.84 2.93, 24.5 3.49 C25.17 4.04, 25.79 4.67, 26.34 5.33 C26.9 5.99, 27.4 6.71, 27.83 7.46 C28.27 8.21, 28.64 9, 28.93 9.81 C29.23 10.63, 29.46 11.48, 29.61 12.33 C29.76 13.18, 29.79 14.48, 29.83 14.92 C29.87 15.35, 29.87 14.48, 29.83 14.92" stroke="#000000" stroke-width="0.5" fill="none"/></g><g stroke-linecap="round"><g transform="translate(253.52827548888558 71.29694984776611) rotate(0 -37.899203076516386 0)"><path d="M0 0 C-12.63 0, -63.17 0, -75.8 0 M0 0 C-12.63 0, -63.17 0, -75.8 0" stroke="#000000" stroke-width="1" fill="none"/></g><g transform="translate(253.52827548888558 71.29694984776611) rotate(0 -37.899203076516386 0)"><path d="M-75.8 0 L-62.2 -6.34 L-62.2 6.34 L-75.8 0" stroke="none" stroke-width="0" fill="#000000" fill-rule="evenodd"/><path d="M-75.8 0 C-70.48 -2.48, -65.16 -4.96, -62.2 -6.34 M-75.8 0 C-71.96 -1.79, -68.13 -3.58, -62.2 -6.34 M-62.2 -6.34 C-62.2 -2.03, -62.2 2.29, -62.2 6.34 M-62.2 -6.34 C-62.2 -3.09, -62.2 0.16, -62.2 6.34 M-62.2 6.34 C-65.77 4.68, -69.33 3.02, -75.8 0 M-62.2 6.34 C-67.32 3.95, -72.43 1.57, -75.8 0 M-75.8 0 C-75.8 0, -75.8 0, -75.8 0 M-75.8 0 C-75.8 0, -75.8 0, -75.8 0" stroke="#000000" stroke-width="1" fill="none"/></g></g><mask/><g stroke-linecap="round"><g transform="translate(43.454550924224264 70.78906307375792) rotate(0 36.57425216591521 0)"><path d="M0 0 C12.19 0, 60.96 0, 73.15 0 M0 0 C12.19 0, 60.96 0, 73.15 0" stroke="#000000" stroke-width="0.5" fill="none"/></g><g transform="translate(43.454550924224264 70.78906307375792) rotate(0 36.57425216591521 0)"><path d="M73.15 0 L59.55 6.34 L59.55 -6.34 L73.15 0" stroke="none" stroke-width="0" fill="#000000" fill-rule="evenodd"/><path d="M73.15 0 C69.67 1.62, 66.19 3.25, 59.55 6.34 M73.15 0 C69.41 1.75, 65.66 3.49, 59.55 6.34 M59.55 6.34 C59.55 3.51, 59.55 0.68, 59.55 -6.34 M59.55 6.34 C59.55 3.5, 59.55 0.65, 59.55 -6.34 M59.55 -6.34 C64.48 -4.04, 69.4 -1.75, 73.15 0 M59.55 -6.34 C64.06 -4.24, 68.57 -2.14, 73.15 0 M73.15 0 C73.15 0, 73.15 0, 73.15 0 M73.15 0 C73.15 0, 73.15 0, 73.15 0" stroke="#000000" stroke-width="0.5" fill="none"/></g></g><mask/><g transform="translate(262.1281401821659 10.599954856930111) rotate(0 0.2999888854191113 11.249445719768659)" stroke="none"><path fill="#000000" d="M 0.79,-0.06 Q 0.79,-0.06 1.14,1.35 1.49,2.77 1.63,4.50 1.77,6.22 1.84,8.49 1.91,10.76 1.85,13.22 1.79,15.68 1.26,18.82 0.73,21.97 0.71,22.07 0.68,22.17 0.63,22.26 0.58,22.36 0.49,22.42 0.41,22.49 0.32,22.53 0.22,22.57 0.11,22.58 0.00,22.59 -0.09,22.56 -0.19,22.53 -0.28,22.47 -0.37,22.41 -0.43,22.33 -0.50,22.24 -0.53,22.14 -0.56,22.04 -0.56,21.93 -0.56,21.83 -0.53,21.73 -0.50,21.63 -0.43,21.54 -0.37,21.46 -0.28,21.40 -0.19,21.34 -0.09,21.31 0.00,21.28 0.11,21.28 0.21,21.29 0.31,21.33 0.41,21.37 0.49,21.44 0.57,21.51 0.63,21.60 0.68,21.69 0.71,21.79 0.73,21.89 0.72,22.00 0.71,22.11 0.66,22.20 0.62,22.30 0.55,22.38 0.47,22.45 0.38,22.50 0.29,22.55 0.18,22.57 0.08,22.59 -0.02,22.57 -0.12,22.55 -0.22,22.51 -0.31,22.46 -0.39,22.38 -0.46,22.30 -0.50,22.21 -0.55,22.11 -0.56,22.00 -0.57,21.90 -0.57,21.90 -0.57,21.90 -0.75,18.76 -0.93,15.62 -0.89,13.22 -0.84,10.81 -0.86,8.60 -0.88,6.39 -0.96,4.68 -1.03,2.97 -0.91,1.51 -0.79,0.06 -0.78,-0.03 -0.78,-0.12 -0.75,-0.22 -0.73,-0.31 -0.68,-0.39 -0.63,-0.47 -0.56,-0.54 -0.50,-0.61 -0.42,-0.66 -0.34,-0.71 -0.24,-0.74 -0.15,-0.77 -0.06,-0.78 0.03,-0.79 0.12,-0.77 0.22,-0.76 0.30,-0.72 0.39,-0.68 0.47,-0.63 0.55,-0.57 0.61,-0.49 0.67,-0.42 0.71,-0.33 0.75,-0.25 0.77,-0.15 0.79,-0.06 0.79,-0.06 L 0.79,-0.06 Z"/></g><g transform="translate(260.6781480748238 11.49992151318753) rotate(0 5.999869364015211 11.249434262814574)" stroke="none"><path fill="#000000" d="M -0.42,-0.80 Q -0.42,-0.80 0.14,-1.59 0.70,-2.38 1.78,-2.66 2.85,-2.94 4.13,-2.87 5.40,-2.80 6.69,-2.32 7.99,-1.83 9.07,-1.18 10.15,-0.54 10.97,0.02 11.79,0.59 12.42,1.25 13.05,1.90 13.37,2.89 13.69,3.87 13.40,4.82 13.11,5.76 12.37,6.47 11.63,7.17 10.56,7.69 9.50,8.22 8.56,8.49 7.62,8.76 6.84,8.85 6.06,8.95 5.35,8.90 4.65,8.84 4.16,8.81 3.67,8.77 3.45,8.73 3.24,8.69 3.04,8.60 2.84,8.51 2.67,8.37 2.50,8.23 2.37,8.06 2.23,7.89 2.14,7.69 2.05,7.49 2.02,7.27 1.98,7.06 1.99,6.84 2.01,6.62 2.08,6.41 2.14,6.20 2.26,6.02 2.37,5.83 2.53,5.68 2.68,5.52 2.87,5.41 3.06,5.30 3.27,5.23 3.48,5.17 3.70,5.16 3.92,5.15 4.86,5.26 5.80,5.38 6.53,5.54 7.26,5.70 8.07,5.96 8.88,6.22 9.69,6.59 10.49,6.97 11.32,7.54 12.14,8.11 12.81,8.90 13.49,9.68 13.98,10.55 14.47,11.42 14.75,12.54 15.04,13.65 15.05,14.91 15.07,16.17 14.57,17.60 14.08,19.04 12.97,20.40 11.87,21.76 10.25,22.92 8.64,24.09 6.41,24.53 4.18,24.96 2.39,24.36 0.60,23.75 -0.38,20.83 -1.37,17.90 -1.34,17.80 -1.31,17.69 -1.25,17.61 -1.19,17.52 -1.11,17.45 -1.02,17.39 -0.92,17.35 -0.82,17.32 -0.71,17.32 -0.61,17.32 -0.51,17.35 -0.41,17.39 -0.32,17.45 -0.24,17.52 -0.18,17.61 -0.12,17.69 -0.09,17.80 -0.06,17.90 -0.07,18.00 -0.07,18.11 -0.11,18.21 -0.15,18.31 -0.22,18.39 -0.29,18.47 -0.38,18.52 -0.47,18.58 -0.57,18.60 -0.68,18.62 -0.78,18.61 -0.89,18.60 -0.99,18.56 -1.08,18.51 -1.16,18.44 -1.24,18.37 -1.29,18.27 -1.34,18.18 -1.35,18.07 -1.37,17.97 -1.35,17.86 -1.34,17.76 -1.29,17.67 -1.24,17.57 -1.16,17.50 -1.08,17.43 -0.99,17.38 -0.89,17.34 -0.78,17.32 -0.68,17.31 -0.57,17.34 -0.47,17.36 -0.38,17.41 -0.29,17.47 -0.22,17.55 -0.15,17.63 -0.11,17.73 -0.07,17.83 -0.07,17.93 -0.06,18.04 -0.06,18.04 -0.06,18.04 1.05,19.21 2.17,20.38 3.01,20.82 3.85,21.25 5.23,21.10 6.61,20.94 7.82,20.11 9.02,19.28 9.81,18.44 10.59,17.59 10.96,16.83 11.33,16.06 11.36,15.24 11.38,14.43 11.28,13.78 11.18,13.13 10.90,12.55 10.62,11.97 10.30,11.50 9.97,11.04 9.45,10.64 8.93,10.25 8.34,9.96 7.75,9.67 7.11,9.46 6.46,9.24 5.85,9.10 5.23,8.96 4.45,8.87 3.67,8.77 3.45,8.73 3.24,8.69 3.04,8.60 2.84,8.51 2.67,8.37 2.50,8.23 2.37,8.06 2.23,7.89 2.14,7.69 2.06,7.49 2.02,7.27 1.98,7.06 1.99,6.84 2.01,6.62 2.08,6.41 2.14,6.20 2.26,6.02 2.37,5.83 2.53,5.68 2.68,5.52 2.87,5.41 3.06,5.30 3.27,5.23 3.48,5.17 3.70,5.16 3.92,5.15 4.49,5.18 5.06,5.22 5.86,5.25 6.66,5.27 7.34,5.10 8.01,4.92 8.87,4.22 9.73,3.52 9.01,3.01 8.30,2.51 7.46,1.99 6.63,1.47 5.83,1.11 5.04,0.74 4.33,0.64 3.61,0.53 2.97,0.65 2.34,0.77 1.38,0.78 0.42,0.80 0.32,0.84 0.21,0.88 0.11,0.89 0.00,0.90 -0.10,0.89 -0.21,0.88 -0.31,0.84 -0.41,0.80 -0.50,0.74 -0.59,0.68 -0.67,0.59 -0.74,0.51 -0.79,0.42 -0.84,0.32 -0.87,0.21 -0.90,0.11 -0.90,0.00 -0.90,-0.10 -0.87,-0.21 -0.84,-0.31 -0.79,-0.41 -0.74,-0.51 -0.67,-0.59 -0.60,-0.67 -0.51,-0.73 -0.42,-0.80 -0.42,-0.80 L -0.42,-0.80 Z"/></g><g transform="translate(20.48308304312846 14.699757129841998) rotate(0 -4.999894955664075 14.399283188853275)" stroke="none"><path fill="#000000" d="M 0.80,0.28 Q 0.80,0.28 0.08,3.13 -0.62,5.98 -1.68,8.88 -2.73,11.78 -3.73,14.72 -4.72,17.67 -5.60,20.33 -6.48,22.99 -7.84,25.76 -9.20,28.52 -9.25,28.61 -9.30,28.71 -9.38,28.78 -9.46,28.85 -9.56,28.89 -9.65,28.94 -9.76,28.95 -9.87,28.96 -9.97,28.93 -10.07,28.91 -10.16,28.85 -10.25,28.79 -10.32,28.71 -10.39,28.63 -10.43,28.53 -10.46,28.43 -10.47,28.33 -10.47,28.22 -10.44,28.12 -10.41,28.02 -10.35,27.93 -10.29,27.84 -10.20,27.78 -10.12,27.72 -10.02,27.68 -9.92,27.65 -9.81,27.65 -9.70,27.65 -9.60,27.69 -9.50,27.73 -9.42,27.79 -9.34,27.86 -9.28,27.95 -9.22,28.04 -9.19,28.14 -9.17,28.24 -9.17,28.35 -9.18,28.45 -9.22,28.55 -9.26,28.65 -9.33,28.73 -9.40,28.81 -9.49,28.86 -9.59,28.91 -9.69,28.94 -9.80,28.96 -9.90,28.94 -10.01,28.93 -10.10,28.88 -10.20,28.84 -10.27,28.76 -10.35,28.69 -10.40,28.59 -10.45,28.50 -10.46,28.39 -10.48,28.29 -10.46,28.19 -10.44,28.08 -10.44,28.08 -10.44,28.08 -9.76,25.12 -9.08,22.16 -8.25,19.46 -7.42,16.76 -6.42,13.77 -5.42,10.79 -4.35,7.92 -3.28,5.04 -2.04,2.38 -0.80,-0.28 -0.75,-0.37 -0.71,-0.46 -0.64,-0.54 -0.58,-0.62 -0.49,-0.68 -0.41,-0.74 -0.31,-0.78 -0.22,-0.82 -0.12,-0.83 -0.01,-0.85 0.08,-0.84 0.18,-0.83 0.28,-0.79 0.38,-0.76 0.46,-0.70 0.55,-0.65 0.62,-0.57 0.69,-0.50 0.74,-0.41 0.79,-0.32 0.81,-0.22 0.84,-0.12 0.84,-0.01 0.85,0.08 0.82,0.18 0.80,0.28 0.80,0.28 L 0.80,0.28 Z"/></g><g transform="translate(19.383100882683493 12.899869645143468) rotate(0 5.124878867634621 12.474365964367905)" stroke="none"><path fill="#000000" d="M 0.74,-0.34 Q 0.74,-0.34 1.54,0.89 2.33,2.12 3.10,3.92 3.86,5.72 4.70,7.82 5.54,9.93 6.41,12.02 7.28,14.11 8.05,16.16 8.82,18.21 9.73,20.88 10.63,23.55 10.65,23.65 10.67,23.76 10.67,23.86 10.66,23.97 10.61,24.06 10.57,24.16 10.50,24.24 10.42,24.32 10.33,24.37 10.24,24.42 10.13,24.44 10.03,24.46 9.92,24.44 9.82,24.43 9.72,24.38 9.63,24.33 9.56,24.25 9.48,24.18 9.44,24.08 9.39,23.99 9.38,23.88 9.36,23.78 9.39,23.67 9.41,23.57 9.46,23.48 9.51,23.38 9.59,23.31 9.67,23.24 9.77,23.20 9.87,23.16 9.98,23.15 10.08,23.15 10.18,23.17 10.29,23.20 10.38,23.26 10.46,23.32 10.53,23.40 10.60,23.49 10.63,23.59 10.67,23.69 10.67,23.79 10.67,23.90 10.64,24.00 10.60,24.10 10.54,24.19 10.48,24.27 10.39,24.33 10.30,24.39 10.20,24.42 10.10,24.45 9.99,24.45 9.89,24.44 9.79,24.41 9.69,24.37 9.61,24.30 9.53,24.23 9.47,24.14 9.41,24.05 9.41,24.05 9.41,24.05 8.16,21.54 6.91,19.03 5.95,17.05 4.99,15.08 4.08,12.97 3.18,10.87 2.35,8.78 1.52,6.70 0.80,4.93 0.07,3.16 -0.33,1.75 -0.74,0.34 -0.77,0.24 -0.80,0.15 -0.81,0.05 -0.81,-0.04 -0.80,-0.14 -0.78,-0.24 -0.74,-0.33 -0.70,-0.42 -0.64,-0.49 -0.58,-0.57 -0.50,-0.63 -0.42,-0.70 -0.33,-0.74 -0.24,-0.78 -0.15,-0.80 -0.05,-0.81 0.04,-0.81 0.14,-0.80 0.23,-0.77 0.33,-0.75 0.41,-0.69 0.50,-0.64 0.57,-0.57 0.64,-0.50 0.69,-0.42 0.74,-0.34 0.74,-0.34 L 0.74,-0.34 Z"/></g><g transform="translate(13.633199342609373 28.99904402355554) rotate(0 5.424913580870054 -0.27496689772604554)" stroke="none"><path fill="#000000" d="M 0.11,-0.83 Q 0.11,-0.83 1.30,-0.98 2.49,-1.13 3.64,-1.25 4.79,-1.38 7.48,-1.51 10.17,-1.63 10.28,-1.63 10.38,-1.63 10.48,-1.60 10.58,-1.57 10.67,-1.51 10.76,-1.44 10.82,-1.36 10.88,-1.27 10.91,-1.17 10.94,-1.07 10.94,-0.96 10.93,-0.86 10.90,-0.76 10.86,-0.66 10.79,-0.57 10.73,-0.49 10.64,-0.43 10.55,-0.38 10.44,-0.35 10.34,-0.33 10.23,-0.34 10.13,-0.35 10.03,-0.39 9.93,-0.43 9.86,-0.50 9.78,-0.57 9.72,-0.67 9.67,-0.76 9.65,-0.86 9.63,-0.97 9.65,-1.07 9.66,-1.18 9.71,-1.27 9.76,-1.37 9.83,-1.44 9.91,-1.52 10.00,-1.56 10.10,-1.61 10.21,-1.62 10.31,-1.64 10.42,-1.62 10.52,-1.60 10.61,-1.54 10.70,-1.49 10.77,-1.41 10.84,-1.33 10.89,-1.23 10.93,-1.14 10.94,-1.03 10.94,-0.93 10.92,-0.82 10.89,-0.72 10.83,-0.63 10.78,-0.54 10.69,-0.47 10.61,-0.41 10.51,-0.37 10.41,-0.34 10.41,-0.34 10.41,-0.34 7.72,0.62 5.03,1.59 3.57,1.68 2.10,1.76 0.99,1.30 -0.11,0.83 -0.21,0.81 -0.31,0.78 -0.40,0.73 -0.49,0.68 -0.56,0.61 -0.64,0.55 -0.69,0.46 -0.75,0.38 -0.78,0.28 -0.82,0.18 -0.83,0.08 -0.84,-0.01 -0.83,-0.11 -0.81,-0.21 -0.77,-0.31 -0.74,-0.40 -0.68,-0.48 -0.62,-0.57 -0.54,-0.63 -0.46,-0.70 -0.37,-0.74 -0.28,-0.79 -0.18,-0.81 -0.08,-0.84 0.01,-0.83 0.11,-0.83 0.11,-0.83 L 0.11,-0.83 Z"/></g></svg>