<svg version="1.1" xmlns="http://www.w3.org/2000/svg" viewBox="0 0 465.81472128756604 287.00072468226693" width="465.81472128756604" height="287.00072468226693" filter="invert(93%) hue-rotate(180deg)" class="excalidraw-svg">
  <!-- svg-source:excalidraw -->
  
  <defs>
    <style class="style-fonts">
      @font-face {
        font-family: "Virgil";
        src: url("https://excalidraw.com/Virgil.woff2");
      }
      @font-face {
        font-family: "Cascadia";
        src: url("https://excalidraw.com/Cascadia.woff2");
      }
      @font-face {
        font-family: "Assistant";
        src: url("https://excalidraw.com/Assistant-Regular.woff2");
      }
    </style>
    
  </defs>
  <g stroke-linecap="round" transform="translate(83.89036055214211 10) rotate(0 185.96218036771197 133.50036234113347)"><path d="M0 0 C0 0, 0 0, 0 0 M0 0 C0 0, 0 0, 0 0 M0.27 24.08 C8.17 14.99, 16.08 5.89, 21.26 -0.07 M0.27 24.08 C4.99 18.65, 9.71 13.21, 21.26 -0.07 M-0.12 48.92 C11.65 35.38, 23.42 21.84, 42.52 -0.14 M-0.12 48.92 C9.64 37.68, 19.41 26.44, 42.52 -0.14 M0.14 73 C24.64 44.82, 49.14 16.63, 63.78 -0.21 M0.14 73 C14.36 56.65, 28.57 40.29, 63.78 -0.21 M-0.25 97.84 C20.58 73.88, 41.4 49.93, 85.04 -0.28 M-0.25 97.84 C19.77 74.81, 39.78 51.79, 85.04 -0.28 M0.02 121.92 C31.34 85.89, 62.66 49.86, 106.3 -0.34 M0.02 121.92 C37.89 78.36, 75.75 34.79, 106.3 -0.34 M0.29 146 C34.33 106.84, 68.37 67.68, 126.91 0.34 M0.29 146 C39.24 101.18, 78.2 56.37, 126.91 0.34 M-0.1 170.84 C41.51 122.96, 83.12 75.09, 148.17 0.27 M-0.1 170.84 C43.45 120.73, 87 70.63, 148.17 0.27 M0.16 194.92 C36.81 152.76, 73.45 110.61, 169.43 0.2 M0.16 194.92 C61.8 124.01, 123.45 53.1, 169.43 0.2 M-0.23 219.75 C42.86 170.19, 85.94 120.63, 190.69 0.13 M-0.23 219.75 C51.87 159.82, 103.98 99.88, 190.69 0.13 M0.04 243.84 C65.99 167.97, 131.93 92.11, 211.95 0.06 M0.04 243.84 C50.35 185.96, 100.66 128.08, 211.95 0.06 M0.3 267.92 C51.61 208.9, 102.91 149.88, 233.21 0 M0.3 267.92 C93.04 161.24, 185.77 54.56, 233.21 0 M21.57 267.85 C76.29 204.9, 131.01 141.95, 254.47 -0.07 M21.57 267.85 C109.58 166.6, 197.59 65.36, 254.47 -0.07 M42.83 267.78 C104.04 197.37, 165.25 126.95, 275.73 -0.14 M42.83 267.78 C122.26 176.4, 201.7 85.02, 275.73 -0.14 M64.09 267.71 C117.07 206.75, 170.06 145.8, 296.99 -0.21 M64.09 267.71 C146.36 173.07, 228.63 78.43, 296.99 -0.21 M85.35 267.64 C169.07 171.33, 252.79 75.02, 318.25 -0.28 M85.35 267.64 C141.33 203.24, 197.31 138.84, 318.25 -0.28 M106.61 267.57 C196.61 164.03, 286.62 60.49, 339.51 -0.35 M106.61 267.57 C187.73 174.26, 268.84 80.94, 339.51 -0.35 M127.87 267.5 C179.95 207.59, 232.03 147.68, 360.11 0.34 M127.87 267.5 C174.78 213.53, 221.7 159.56, 360.11 0.34 M149.13 267.43 C231.03 173.21, 312.94 78.98, 372.19 10.83 M149.13 267.43 C208.26 199.41, 267.39 131.39, 372.19 10.83 M170.39 267.37 C246.96 179.28, 323.53 91.2, 372.45 34.92 M170.39 267.37 C251.03 174.6, 331.67 81.83, 372.45 34.92 M191.65 267.3 C242.69 208.58, 293.74 149.85, 372.06 59.75 M191.65 267.3 C231.85 221.05, 272.06 174.8, 372.06 59.75 M212.91 267.23 C253.26 220.8, 293.62 174.37, 372.33 83.83 M212.91 267.23 C272.2 199.02, 331.49 130.81, 372.33 83.83 M233.51 267.91 C261.84 235.32, 290.18 202.73, 371.94 108.67 M233.51 267.91 C269.22 226.84, 304.93 185.76, 371.94 108.67 M254.77 267.84 C288.16 229.44, 321.55 191.03, 372.21 132.75 M254.77 267.84 C293.29 223.53, 331.81 179.22, 372.21 132.75 M276.03 267.78 C301.23 238.79, 326.42 209.81, 372.47 156.83 M276.03 267.78 C297.63 242.93, 319.24 218.07, 372.47 156.83 M297.29 267.71 C313.57 248.98, 329.85 230.25, 372.08 181.67 M297.29 267.71 C315.39 246.88, 333.49 226.06, 372.08 181.67 M318.55 267.64 C336.81 246.64, 355.06 225.64, 372.35 205.75 M318.55 267.64 C334.25 249.58, 349.94 231.53, 372.35 205.75 M339.81 267.57 C346.44 259.94, 353.07 252.31, 371.96 230.59 M339.81 267.57 C351.25 254.41, 362.69 241.25, 371.96 230.59 M361.07 267.5 C365.35 262.58, 369.62 257.66, 372.22 254.67 M361.07 267.5 C363.85 264.3, 366.63 261.1, 372.22 254.67" stroke="#a5d8ff" stroke-width="2" fill="none"/><path d="M0 0 C117.22 0, 234.45 0, 371.92 0 M0 0 C116.6 0, 233.19 0, 371.92 0 M371.92 0 C371.92 81.02, 371.92 162.03, 371.92 267 M371.92 0 C371.92 103.57, 371.92 207.13, 371.92 267 M371.92 267 C285.13 267, 198.34 267, 0 267 M371.92 267 C244.88 267, 117.83 267, 0 267 M0 267 C0 186.22, 0 105.43, 0 0 M0 267 C0 171.31, 0 75.62, 0 0" stroke="transparent" stroke-width="4" fill="none"/></g><g stroke-linecap="round" transform="translate(120.25158833092837 44.14983375162831) rotate(0 150.85025787353516 96.39030456542969)"><path d="M0 0 L301.7 0 L301.7 192.78 L0 192.78" stroke="none" stroke-width="0" fill="#ffffff"/><path d="M0 0 C60.37 0, 120.75 0, 301.7 0 M0 0 C75.51 0, 151.02 0, 301.7 0 M301.7 0 C301.7 60.46, 301.7 120.93, 301.7 192.78 M301.7 0 C301.7 47, 301.7 94, 301.7 192.78 M301.7 192.78 C227.16 192.78, 152.61 192.78, 0 192.78 M301.7 192.78 C189.02 192.78, 76.34 192.78, 0 192.78 M0 192.78 C0 142.5, 0 92.22, 0 0 M0 192.78 C0 123.13, 0 53.49, 0 0" stroke="#1e1e1e" stroke-width="4" fill="none"/></g><g stroke-linecap="round"><g transform="translate(152.20433997601617 111.60297339614107) rotate(0 31.92071808358014 0)"><path d="M0 0 C16.83 0, 33.66 0, 63.84 0 M0 0 C21.2 0, 42.4 0, 63.84 0" stroke="#868e96" stroke-width="4" fill="none"/></g></g><mask/><g stroke-linecap="round"><g transform="translate(149.47638821362528 191.23698249359546) rotate(0 -69.73819410681264 29.283998151807864)"><path d="M0 0 C-2.52 6.54, -6.24 34.52, -15.09 39.25 C-23.95 43.98, -39.95 25.16, -53.13 28.38 C-66.32 31.6, -79.8 55.35, -94.19 58.57 C-108.58 61.79, -131.93 49.51, -139.48 47.7 M0 0 C-2.52 6.54, -6.24 34.52, -15.09 39.25 C-23.95 43.98, -39.95 25.16, -53.13 28.38 C-66.32 31.6, -79.8 55.35, -94.19 58.57 C-108.58 61.79, -131.93 49.51, -139.48 47.7" stroke="#000000" stroke-width="4" fill="none"/></g></g><mask/><g stroke-linecap="round" transform="translate(149.87051474239217 67.35415900649988) rotate(0 33.78777559244651 73.28068494431635)"><path d="M0 0 C26.72 0, 53.44 0, 67.58 0 M0 0 C20.79 0, 41.59 0, 67.58 0 M67.58 0 C67.58 36.54, 67.58 73.07, 67.58 146.56 M67.58 0 C67.58 48.66, 67.58 97.33, 67.58 146.56 M67.58 146.56 C43.81 146.56, 20.04 146.56, 0 146.56 M67.58 146.56 C47.73 146.56, 27.88 146.56, 0 146.56 M0 146.56 C0 102.62, 0 58.69, 0 0 M0 146.56 C0 107.28, 0 68.01, 0 0" stroke="#868e96" stroke-width="4" fill="none"/></g></svg>