<svg version="1.1" xmlns="http://www.w3.org/2000/svg" viewBox="0 0 399.0592287076605 308" width="399.0592287076605" height="308" filter="invert(93%) hue-rotate(180deg)">
  <!-- svg-source:excalidraw -->
  
  <defs>
    <style class="style-fonts">
      @font-face {
        font-family: "Virgil";
        src: url("https://excalidraw.com/Virgil.woff2");
      }
      @font-face {
        font-family: "Cascadia";
        src: url("https://excalidraw.com/Cascadia.woff2");
      }
    </style>
  </defs>
  <rect x="0" y="0" width="399.0592287076605" height="308" fill="transparent"/><g stroke-linecap="round"><g transform="translate(38.800018310546875 298) rotate(0 0 -144)"><path d="M0 0 C0 -57.79, 0 -115.58, 0 -288 M0 0 C0 -90.77, 0 -181.55, 0 -288" stroke="#000000" stroke-width="4" fill="none"/></g><g transform="translate(38.800018310546875 298) rotate(0 0 -144)"><path d="M0 -288 L6.34 -274.41 L-6.34 -274.41 L0 -288" stroke="none" stroke-width="0" fill="#000000" fill-rule="evenodd"/><path d="M0 -288 C1.27 -285.27, 2.54 -282.54, 6.34 -274.41 M0 -288 C2 -283.72, 4 -279.43, 6.34 -274.41 M6.34 -274.41 C3.01 -274.41, -0.32 -274.41, -6.34 -274.41 M6.34 -274.41 C1.61 -274.41, -3.12 -274.41, -6.34 -274.41 M-6.34 -274.41 C-4.96 -277.36, -3.58 -280.32, 0 -288 M-6.34 -274.41 C-4.8 -277.71, -3.26 -281.02, 0 -288 M0 -288 C0 -288, 0 -288, 0 -288 M0 -288 C0 -288, 0 -288, 0 -288" stroke="#000000" stroke-width="4" fill="none"/></g></g><mask/><g stroke-linecap="round"><g transform="translate(24.400009155273438 278.8000183105469) rotate(0 182.32960977619354 0)"><path d="M0 0 C134.05 0, 268.1 0, 364.66 0 M0 0 C112.15 0, 224.3 0, 364.66 0" stroke="#000000" stroke-width="4" fill="none"/></g><g transform="translate(24.400009155273438 278.8000183105469) rotate(0 182.32960977619354 0)"><path d="M364.66 0 L351.06 6.34 L351.06 -6.34 L364.66 0" stroke="none" stroke-width="0" fill="#000000" fill-rule="evenodd"/><path d="M364.66 0 C359.66 2.33, 354.66 4.66, 351.06 6.34 M364.66 0 C360.48 1.95, 356.3 3.9, 351.06 6.34 M351.06 6.34 C351.06 2.31, 351.06 -1.71, 351.06 -6.34 M351.06 6.34 C351.06 1.78, 351.06 -2.77, 351.06 -6.34 M351.06 -6.34 C355.58 -4.23, 360.1 -2.13, 364.66 0 M351.06 -6.34 C354.72 -4.63, 358.38 -2.93, 364.66 0 M364.66 0 C364.66 0, 364.66 0, 364.66 0 M364.66 0 C364.66 0, 364.66 0, 364.66 0" stroke="#000000" stroke-width="4" fill="none"/></g></g><mask/><g stroke-linecap="round"><g transform="translate(10 261.20001220703125) rotate(0 161.20001220703125 -122.80000305175781)"><path d="M0 0 C7.47 -11.87, 27.07 -54.8, 44.8 -71.2 C62.53 -87.6, 81.6 -101.2, 106.4 -98.4 C131.2 -95.6, 167.47 -61.87, 193.6 -54.4 C219.73 -46.93, 246.4 -44.67, 263.2 -53.6 C280 -62.53, 284.53 -76, 294.4 -108 C304.27 -140, 317.73 -222.67, 322.4 -245.6 M0 0 C7.47 -11.87, 27.07 -54.8, 44.8 -71.2 C62.53 -87.6, 81.6 -101.2, 106.4 -98.4 C131.2 -95.6, 167.47 -61.87, 193.6 -54.4 C219.73 -46.93, 246.4 -44.67, 263.2 -53.6 C280 -62.53, 284.53 -76, 294.4 -108 C304.27 -140, 317.73 -222.67, 322.4 -245.6" stroke="#c92a2a" stroke-width="4" fill="none"/></g></g><mask/><g stroke-linecap="round" transform="translate(156.89496008384293 165.2614540070432) rotate(0 8.829507477252577 8.829507477252577)"><path d="M17.66 8.83 C17.66 9.34, 17.61 9.86, 17.52 10.36 C17.44 10.87, 17.3 11.37, 17.13 11.85 C16.95 12.33, 16.73 12.8, 16.48 13.24 C16.22 13.69, 15.92 14.11, 15.59 14.51 C15.26 14.9, 14.9 15.26, 14.51 15.59 C14.11 15.92, 13.69 16.22, 13.24 16.48 C12.8 16.73, 12.33 16.95, 11.85 17.13 C11.37 17.3, 10.87 17.44, 10.36 17.52 C9.86 17.61, 9.34 17.66, 8.83 17.66 C8.32 17.66, 7.8 17.61, 7.3 17.52 C6.79 17.44, 6.29 17.3, 5.81 17.13 C5.33 16.95, 4.86 16.73, 4.41 16.48 C3.97 16.22, 3.55 15.92, 3.15 15.59 C2.76 15.26, 2.39 14.9, 2.07 14.51 C1.74 14.11, 1.44 13.69, 1.18 13.24 C0.93 12.8, 0.71 12.33, 0.53 11.85 C0.36 11.37, 0.22 10.87, 0.13 10.36 C0.05 9.86, 0 9.34, 0 8.83 C0 8.32, 0.05 7.8, 0.13 7.3 C0.22 6.79, 0.36 6.29, 0.53 5.81 C0.71 5.33, 0.93 4.86, 1.18 4.41 C1.44 3.97, 1.74 3.55, 2.07 3.15 C2.39 2.76, 2.76 2.39, 3.15 2.07 C3.55 1.74, 3.97 1.44, 4.41 1.18 C4.86 0.93, 5.33 0.71, 5.81 0.53 C6.29 0.36, 6.79 0.22, 7.3 0.13 C7.8 0.05, 8.32 0, 8.83 0 C9.34 0, 9.86 0.05, 10.36 0.13 C10.87 0.22, 11.37 0.36, 11.85 0.53 C12.33 0.71, 12.8 0.93, 13.24 1.18 C13.69 1.44, 14.11 1.74, 14.51 2.07 C14.9 2.39, 15.26 2.76, 15.59 3.15 C15.92 3.55, 16.22 3.97, 16.48 4.41 C16.73 4.86, 16.95 5.33, 17.13 5.81 C17.3 6.29, 17.44 6.79, 17.52 7.3 C17.61 7.8, 17.64 8.57, 17.66 8.83 C17.68 9.09, 17.68 8.57, 17.66 8.83" stroke="none" stroke-width="0" fill="#4c6ef5"/><path d="M17.66 8.83 C17.66 9.34, 17.61 9.86, 17.52 10.36 C17.44 10.87, 17.3 11.37, 17.13 11.85 C16.95 12.33, 16.73 12.8, 16.48 13.24 C16.22 13.69, 15.92 14.11, 15.59 14.51 C15.26 14.9, 14.9 15.26, 14.51 15.59 C14.11 15.92, 13.69 16.22, 13.24 16.48 C12.8 16.73, 12.33 16.95, 11.85 17.13 C11.37 17.3, 10.87 17.44, 10.36 17.52 C9.86 17.61, 9.34 17.66, 8.83 17.66 C8.32 17.66, 7.8 17.61, 7.3 17.52 C6.79 17.44, 6.29 17.3, 5.81 17.13 C5.33 16.95, 4.86 16.73, 4.41 16.48 C3.97 16.22, 3.55 15.92, 3.15 15.59 C2.76 15.26, 2.39 14.9, 2.07 14.51 C1.74 14.11, 1.44 13.69, 1.18 13.24 C0.93 12.8, 0.71 12.33, 0.53 11.85 C0.36 11.37, 0.22 10.87, 0.13 10.36 C0.05 9.86, 0 9.34, 0 8.83 C0 8.32, 0.05 7.8, 0.13 7.3 C0.22 6.79, 0.36 6.29, 0.53 5.81 C0.71 5.33, 0.93 4.86, 1.18 4.41 C1.44 3.97, 1.74 3.55, 2.07 3.15 C2.39 2.76, 2.76 2.39, 3.15 2.07 C3.55 1.74, 3.97 1.44, 4.41 1.18 C4.86 0.93, 5.33 0.71, 5.81 0.53 C6.29 0.36, 6.79 0.22, 7.3 0.13 C7.8 0.05, 8.32 0, 8.83 0 C9.34 0, 9.86 0.05, 10.36 0.13 C10.87 0.22, 11.37 0.36, 11.85 0.53 C12.33 0.71, 12.8 0.93, 13.24 1.18 C13.69 1.44, 14.11 1.74, 14.51 2.07 C14.9 2.39, 15.26 2.76, 15.59 3.15 C15.92 3.55, 16.22 3.97, 16.48 4.41 C16.73 4.86, 16.95 5.33, 17.13 5.81 C17.3 6.29, 17.44 6.79, 17.52 7.3 C17.61 7.8, 17.64 8.57, 17.66 8.83 C17.68 9.09, 17.68 8.57, 17.66 8.83" stroke="#000000" stroke-width="1" fill="none"/></g><g stroke-linecap="round" transform="translate(276.35310265307953 162.66453829494878) rotate(0 9.608590116038698 9.608590116038698)"><path d="M19.22 9.61 C19.22 10.16, 19.17 10.73, 19.07 11.28 C18.97 11.82, 18.83 12.37, 18.64 12.89 C18.45 13.42, 18.21 13.93, 17.93 14.41 C17.65 14.89, 17.33 15.36, 16.97 15.78 C16.61 16.21, 16.21 16.61, 15.78 16.97 C15.36 17.33, 14.89 17.65, 14.41 17.93 C13.93 18.21, 13.42 18.45, 12.89 18.64 C12.37 18.83, 11.82 18.97, 11.28 19.07 C10.73 19.17, 10.16 19.22, 9.61 19.22 C9.05 19.22, 8.49 19.17, 7.94 19.07 C7.39 18.97, 6.84 18.83, 6.32 18.64 C5.8 18.45, 5.29 18.21, 4.8 17.93 C4.32 17.65, 3.86 17.33, 3.43 16.97 C3.01 16.61, 2.61 16.21, 2.25 15.78 C1.89 15.36, 1.57 14.89, 1.29 14.41 C1.01 13.93, 0.77 13.42, 0.58 12.89 C0.39 12.37, 0.24 11.82, 0.15 11.28 C0.05 10.73, 0 10.16, 0 9.61 C0 9.05, 0.05 8.49, 0.15 7.94 C0.24 7.39, 0.39 6.84, 0.58 6.32 C0.77 5.8, 1.01 5.29, 1.29 4.8 C1.57 4.32, 1.89 3.86, 2.25 3.43 C2.61 3.01, 3.01 2.61, 3.43 2.25 C3.86 1.89, 4.32 1.57, 4.8 1.29 C5.29 1.01, 5.8 0.77, 6.32 0.58 C6.84 0.39, 7.39 0.24, 7.94 0.15 C8.49 0.05, 9.05 0, 9.61 0 C10.16 0, 10.73 0.05, 11.28 0.15 C11.82 0.24, 12.37 0.39, 12.89 0.58 C13.42 0.77, 13.93 1.01, 14.41 1.29 C14.89 1.57, 15.36 1.89, 15.78 2.25 C16.21 2.61, 16.61 3.01, 16.97 3.43 C17.33 3.86, 17.65 4.32, 17.93 4.8 C18.21 5.29, 18.45 5.8, 18.64 6.32 C18.83 6.84, 18.97 7.39, 19.07 7.94 C19.17 8.49, 19.19 9.33, 19.22 9.61 C19.24 9.89, 19.24 9.33, 19.22 9.61" stroke="none" stroke-width="0" fill="#4c6ef5"/><path d="M19.22 9.61 C19.22 10.16, 19.17 10.73, 19.07 11.28 C18.97 11.82, 18.83 12.37, 18.64 12.89 C18.45 13.42, 18.21 13.93, 17.93 14.41 C17.65 14.89, 17.33 15.36, 16.97 15.78 C16.61 16.21, 16.21 16.61, 15.78 16.97 C15.36 17.33, 14.89 17.65, 14.41 17.93 C13.93 18.21, 13.42 18.45, 12.89 18.64 C12.37 18.83, 11.82 18.97, 11.28 19.07 C10.73 19.17, 10.16 19.22, 9.61 19.22 C9.05 19.22, 8.49 19.17, 7.94 19.07 C7.39 18.97, 6.84 18.83, 6.32 18.64 C5.8 18.45, 5.29 18.21, 4.8 17.93 C4.32 17.65, 3.86 17.33, 3.43 16.97 C3.01 16.61, 2.61 16.21, 2.25 15.78 C1.89 15.36, 1.57 14.89, 1.29 14.41 C1.01 13.93, 0.77 13.42, 0.58 12.89 C0.39 12.37, 0.24 11.82, 0.15 11.28 C0.05 10.73, 0 10.16, 0 9.61 C0 9.05, 0.05 8.49, 0.15 7.94 C0.24 7.39, 0.39 6.84, 0.58 6.32 C0.77 5.8, 1.01 5.29, 1.29 4.8 C1.57 4.32, 1.89 3.86, 2.25 3.43 C2.61 3.01, 3.01 2.61, 3.43 2.25 C3.86 1.89, 4.32 1.57, 4.8 1.29 C5.29 1.01, 5.8 0.77, 6.32 0.58 C6.84 0.39, 7.39 0.24, 7.94 0.15 C8.49 0.05, 9.05 0, 9.61 0 C10.16 0, 10.73 0.05, 11.28 0.15 C11.82 0.24, 12.37 0.39, 12.89 0.58 C13.42 0.77, 13.93 1.01, 14.41 1.29 C14.89 1.57, 15.36 1.89, 15.78 2.25 C16.21 2.61, 16.61 3.01, 16.97 3.43 C17.33 3.86, 17.65 4.32, 17.93 4.8 C18.21 5.29, 18.45 5.8, 18.64 6.32 C18.83 6.84, 18.97 7.39, 19.07 7.94 C19.17 8.49, 19.19 9.33, 19.22 9.61 C19.24 9.89, 19.24 9.33, 19.22 9.61" stroke="#000000" stroke-width="1" fill="none"/></g><g stroke-linecap="round"><g transform="translate(165.20508243738718 210.9671665773256) rotate(0 -19.21718023207741 0)"><path d="M0 0 C-6.41 0, -32.03 0, -38.43 0 M0 0 C-6.41 0, -32.03 0, -38.43 0" stroke="#364fc7" stroke-width="4" fill="none"/></g><g transform="translate(165.20508243738718 210.9671665773256) rotate(0 -19.21718023207741 0)"><path d="M-38.43 0 L-24.84 -6.34 L-24.84 6.34 L-38.43 0" stroke="none" stroke-width="0" fill="#364fc7" fill-rule="evenodd"/><path d="M-38.43 0 C-33.52 -2.29, -28.6 -4.58, -24.84 -6.34 M-38.43 0 C-33.93 -2.1, -29.43 -4.2, -24.84 -6.34 M-24.84 -6.34 C-24.84 -1.98, -24.84 2.38, -24.84 6.34 M-24.84 -6.34 C-24.84 -2.44, -24.84 1.45, -24.84 6.34 M-24.84 6.34 C-28.14 4.8, -31.43 3.26, -38.43 0 M-24.84 6.34 C-27.96 4.89, -31.07 3.43, -38.43 0 M-38.43 0 C-38.43 0, -38.43 0, -38.43 0 M-38.43 0 C-38.43 0, -38.43 0, -38.43 0" stroke="#364fc7" stroke-width="4" fill="none"/></g></g><mask/><g stroke-linecap="round"><g transform="translate(286.7407655014571 210.4477913600645) rotate(0 47.00417042632958 0)"><path d="M0 0 C15.67 0, 78.34 0, 94.01 0 M0 0 C15.67 0, 78.34 0, 94.01 0" stroke="#364fc7" stroke-width="4" fill="none"/></g><g transform="translate(286.7407655014571 210.4477913600645) rotate(0 47.00417042632958 0)"><path d="M94.01 0 L80.41 6.34 L80.41 -6.34 L94.01 0" stroke="none" stroke-width="0" fill="#364fc7" fill-rule="evenodd"/><path d="M94.01 0 C89.27 2.21, 84.54 4.42, 80.41 6.34 M94.01 0 C90.94 1.43, 87.88 2.86, 80.41 6.34 M80.41 6.34 C80.41 1.66, 80.41 -3.02, 80.41 -6.34 M80.41 6.34 C80.41 1.93, 80.41 -2.48, 80.41 -6.34 M80.41 -6.34 C85.37 -4.03, 90.32 -1.72, 94.01 0 M80.41 -6.34 C84.46 -4.45, 88.5 -2.57, 94.01 0 M94.01 0 C94.01 0, 94.01 0, 94.01 0 M94.01 0 C94.01 0, 94.01 0, 94.01 0" stroke="#364fc7" stroke-width="4" fill="none"/></g></g><mask/></svg>