<svg version="1.1" xmlns="http://www.w3.org/2000/svg" viewBox="0 0 196.0836212883936 269.26459437590984" width="196.0836212883936" height="269.26459437590984" filter="invert(93%) hue-rotate(180deg)" class="excalidraw-svg">
  <!-- svg-source:excalidraw -->
  
  <defs>
    <style class="style-fonts">
      @font-face {
        font-family: "Virgil";
        src: url("https://excalidraw.com/Virgil.woff2");
      }
      @font-face {
        font-family: "Cascadia";
        src: url("https://excalidraw.com/Cascadia.woff2");
      }
      @font-face {
        font-family: "Assistant";
        src: url("https://excalidraw.com/Assistant-Regular.woff2");
      }
    </style>
    
  </defs>
  <g stroke-linecap="round"><g transform="translate(176.28190725543743 258.78306704312956) rotate(0 -40.19828596704386 -99.51847266721967)" fill-rule="evenodd"><path d="M0 0 L-9.71 -1.44 L-19.23 -3.82 L-28.47 -7.13 L-37.34 -11.33 L-45.76 -16.37 L-53.64 -22.22 L-60.91 -28.81 L-67.5 -36.08 L-73.35 -43.96 L-78.39 -52.38 L-82.59 -61.25 L-85.89 -70.49 L-88.28 -80.01 L-89.72 -89.72 L-90.2 -99.52 L-89.72 -109.32 L-88.28 -119.03 L-85.89 -128.55 L-82.59 -137.79 L-78.39 -146.66 L-73.35 -155.08 L-67.5 -162.96 L-60.91 -170.23 L-53.64 -176.82 L-45.76 -182.67 L-37.34 -187.71 L-28.47 -191.91 L-19.23 -195.21 L-9.71 -197.6 L0 -199.04 L9.8 -199.52 L9.8 -185.23 L1.4 -184.82 L-6.92 -183.59 L-15.08 -181.54 L-23 -178.71 L-30.6 -175.11 L-37.82 -170.79 L-44.57 -165.78 L-50.81 -160.13 L-56.46 -153.9 L-61.47 -147.14 L-65.79 -139.92 L-69.39 -132.32 L-72.22 -124.4 L-74.27 -116.24 L-75.5 -107.92 L-75.91 -99.52 L-75.5 -91.12 L-74.27 -82.8 L-72.22 -74.64 L-69.39 -66.72 L-65.79 -59.11 L-61.47 -51.9 L-56.46 -45.14 L-50.81 -38.91 L-44.57 -33.26 L-37.82 -28.25 L-30.6 -23.93 L-23 -20.33 L-15.08 -17.5 L-6.92 -15.45 L1.4 -14.22 L9.8 -13.8 L9.8 0.48 L0 0" stroke="none" stroke-width="0" fill="#a5d8ff" fill-rule="evenodd"/><path d="M0 0 C-2.48 -0.37, -4.97 -0.74, -9.71 -1.44 M0 0 C-2.24 -0.33, -4.47 -0.66, -9.71 -1.44 M-9.71 -1.44 C-12.62 -2.17, -15.54 -2.9, -19.23 -3.82 M-9.71 -1.44 C-12.79 -2.21, -15.87 -2.98, -19.23 -3.82 M-19.23 -3.82 C-22.14 -4.87, -25.05 -5.91, -28.47 -7.13 M-19.23 -3.82 C-22.21 -4.89, -25.2 -5.96, -28.47 -7.13 M-28.47 -7.13 C-30.31 -8, -32.15 -8.87, -37.34 -11.33 M-28.47 -7.13 C-30.69 -8.18, -32.92 -9.24, -37.34 -11.33 M-37.34 -11.33 C-39.17 -12.42, -41 -13.52, -45.76 -16.37 M-37.34 -11.33 C-40.61 -13.29, -43.88 -15.25, -45.76 -16.37 M-45.76 -16.37 C-48.89 -18.7, -52.03 -21.02, -53.64 -22.22 M-45.76 -16.37 C-47.9 -17.97, -50.05 -19.56, -53.64 -22.22 M-53.64 -22.22 C-56 -24.36, -58.37 -26.5, -60.91 -28.81 M-53.64 -22.22 C-55.73 -24.11, -57.82 -26.01, -60.91 -28.81 M-60.91 -28.81 C-62.26 -30.3, -63.61 -31.79, -67.5 -36.08 M-60.91 -28.81 C-62.62 -30.7, -64.33 -32.59, -67.5 -36.08 M-67.5 -36.08 C-69.72 -39.08, -71.95 -42.08, -73.35 -43.96 M-67.5 -36.08 C-68.97 -38.07, -70.45 -40.05, -73.35 -43.96 M-73.35 -43.96 C-74.53 -45.94, -75.72 -47.92, -78.39 -52.38 M-73.35 -43.96 C-75.14 -46.96, -76.94 -49.96, -78.39 -52.38 M-78.39 -52.38 C-79.66 -55.06, -80.93 -57.75, -82.59 -61.25 M-78.39 -52.38 C-79.6 -54.93, -80.8 -57.48, -82.59 -61.25 M-82.59 -61.25 C-83.81 -64.68, -85.04 -68.1, -85.89 -70.49 M-82.59 -61.25 C-83.84 -64.74, -85.08 -68.23, -85.89 -70.49 M-85.89 -70.49 C-86.82 -74.2, -87.75 -77.9, -88.28 -80.01 M-85.89 -70.49 C-86.77 -74.01, -87.66 -77.53, -88.28 -80.01 M-88.28 -80.01 C-88.82 -83.64, -89.36 -87.28, -89.72 -89.72 M-88.28 -80.01 C-88.58 -82.06, -88.89 -84.12, -89.72 -89.72 M-89.72 -89.72 C-89.87 -92.82, -90.02 -95.92, -90.2 -99.52 M-89.72 -89.72 C-89.84 -92.15, -89.96 -94.58, -90.2 -99.52 M-90.2 -99.52 C-90.06 -102.32, -89.92 -105.12, -89.72 -109.32 M-90.2 -99.52 C-90.09 -101.65, -89.99 -103.77, -89.72 -109.32 M-89.72 -109.32 C-89.23 -112.6, -88.74 -115.88, -88.28 -119.03 M-89.72 -109.32 C-89.37 -111.67, -89.02 -114.02, -88.28 -119.03 M-88.28 -119.03 C-87.75 -121.15, -87.22 -123.26, -85.89 -128.55 M-88.28 -119.03 C-87.74 -121.17, -87.2 -123.32, -85.89 -128.55 M-85.89 -128.55 C-84.95 -131.19, -84 -133.84, -82.59 -137.79 M-85.89 -128.55 C-85.09 -130.8, -84.28 -133.05, -82.59 -137.79 M-82.59 -137.79 C-80.99 -141.17, -79.39 -144.55, -78.39 -146.66 M-82.59 -137.79 C-81.16 -140.8, -79.73 -143.82, -78.39 -146.66 M-78.39 -146.66 C-76.52 -149.78, -74.65 -152.91, -73.35 -155.08 M-78.39 -146.66 C-76.79 -149.33, -75.18 -152.01, -73.35 -155.08 M-73.35 -155.08 C-71.96 -156.94, -70.58 -158.8, -67.5 -162.96 M-73.35 -155.08 C-71.38 -157.72, -69.42 -160.36, -67.5 -162.96 M-67.5 -162.96 C-64.99 -165.73, -62.48 -168.5, -60.91 -170.23 M-67.5 -162.96 C-65.53 -165.14, -63.55 -167.31, -60.91 -170.23 M-60.91 -170.23 C-58.44 -172.47, -55.97 -174.7, -53.64 -176.82 M-60.91 -170.23 C-59.03 -171.93, -57.15 -173.64, -53.64 -176.82 M-53.64 -176.82 C-51.41 -178.47, -49.19 -180.12, -45.76 -182.67 M-53.64 -176.82 C-50.51 -179.14, -47.38 -181.46, -45.76 -182.67 M-45.76 -182.67 C-43.05 -184.29, -40.34 -185.91, -37.34 -187.71 M-45.76 -182.67 C-43.84 -183.82, -41.91 -184.97, -37.34 -187.71 M-37.34 -187.71 C-35.39 -188.63, -33.44 -189.55, -28.47 -191.91 M-37.34 -187.71 C-33.88 -189.34, -30.43 -190.98, -28.47 -191.91 M-28.47 -191.91 C-25.77 -192.87, -23.07 -193.84, -19.23 -195.21 M-28.47 -191.91 C-26.3 -192.68, -24.13 -193.46, -19.23 -195.21 M-19.23 -195.21 C-16.22 -195.97, -13.21 -196.72, -9.71 -197.6 M-19.23 -195.21 C-17.05 -195.76, -14.87 -196.3, -9.71 -197.6 M-9.71 -197.6 C-7.41 -197.94, -5.12 -198.28, 0 -199.04 M-9.71 -197.6 C-6.4 -198.09, -3.09 -198.58, 0 -199.04 M0 -199.04 C2.66 -199.17, 5.33 -199.3, 9.8 -199.52 M0 -199.04 C2.34 -199.15, 4.67 -199.27, 9.8 -199.52 M9.8 -199.52 C9.8 -196.37, 9.8 -193.23, 9.8 -185.23 M9.8 -199.52 C9.8 -195.51, 9.8 -191.49, 9.8 -185.23 M9.8 -185.23 C6.73 -185.08, 3.65 -184.93, 1.4 -184.82 M9.8 -185.23 C7.17 -185.1, 4.54 -184.97, 1.4 -184.82 M1.4 -184.82 C-1.81 -184.34, -5.03 -183.87, -6.92 -183.59 M1.4 -184.82 C-0.77 -184.5, -2.94 -184.18, -6.92 -183.59 M-6.92 -183.59 C-9.01 -183.06, -11.1 -182.54, -15.08 -181.54 M-6.92 -183.59 C-9.54 -182.93, -12.16 -182.27, -15.08 -181.54 M-15.08 -181.54 C-17.9 -180.53, -20.71 -179.53, -23 -178.71 M-15.08 -181.54 C-17.92 -180.52, -20.76 -179.51, -23 -178.71 M-23 -178.71 C-25.87 -177.35, -28.73 -176, -30.6 -175.11 M-23 -178.71 C-25.28 -177.63, -27.57 -176.55, -30.6 -175.11 M-30.6 -175.11 C-32.25 -174.13, -33.89 -173.14, -37.82 -170.79 M-30.6 -175.11 C-32.95 -173.71, -35.29 -172.3, -37.82 -170.79 M-37.82 -170.79 C-40.13 -169.07, -42.44 -167.36, -44.57 -165.78 M-37.82 -170.79 C-39.59 -169.48, -41.36 -168.16, -44.57 -165.78 M-44.57 -165.78 C-46.95 -163.63, -49.32 -161.48, -50.81 -160.13 M-44.57 -165.78 C-46.95 -163.62, -49.32 -161.47, -50.81 -160.13 M-50.81 -160.13 C-52.74 -157.99, -54.68 -155.86, -56.46 -153.9 M-50.81 -160.13 C-53 -157.7, -55.2 -155.28, -56.46 -153.9 M-56.46 -153.9 C-57.8 -152.08, -59.15 -150.27, -61.47 -147.14 M-56.46 -153.9 C-57.56 -152.4, -58.67 -150.91, -61.47 -147.14 M-61.47 -147.14 C-62.97 -144.63, -64.48 -142.11, -65.79 -139.92 M-61.47 -147.14 C-62.49 -145.44, -63.5 -143.74, -65.79 -139.92 M-65.79 -139.92 C-66.6 -138.21, -67.42 -136.49, -69.39 -132.32 M-65.79 -139.92 C-66.54 -138.33, -67.3 -136.74, -69.39 -132.32 M-69.39 -132.32 C-70.26 -129.89, -71.13 -127.46, -72.22 -124.4 M-69.39 -132.32 C-70.32 -129.72, -71.25 -127.11, -72.22 -124.4 M-72.22 -124.4 C-72.76 -122.24, -73.3 -120.09, -74.27 -116.24 M-72.22 -124.4 C-73.01 -121.26, -73.79 -118.12, -74.27 -116.24 M-74.27 -116.24 C-74.69 -113.37, -75.12 -110.51, -75.5 -107.92 M-74.27 -116.24 C-74.72 -113.19, -75.17 -110.14, -75.5 -107.92 M-75.5 -107.92 C-75.61 -105.62, -75.73 -103.32, -75.91 -99.52 M-75.5 -107.92 C-75.61 -105.77, -75.71 -103.62, -75.91 -99.52 M-75.91 -99.52 C-75.76 -96.45, -75.61 -93.39, -75.5 -91.12 M-75.91 -99.52 C-75.82 -97.67, -75.73 -95.83, -75.5 -91.12 M-75.5 -91.12 C-75.23 -89.27, -74.95 -87.42, -74.27 -82.8 M-75.5 -91.12 C-75.25 -89.42, -75 -87.72, -74.27 -82.8 M-74.27 -82.8 C-73.76 -80.76, -73.25 -78.72, -72.22 -74.64 M-74.27 -82.8 C-73.59 -80.11, -72.92 -77.42, -72.22 -74.64 M-72.22 -74.64 C-71.21 -71.82, -70.21 -69, -69.39 -66.72 M-72.22 -74.64 C-71.42 -72.4, -70.62 -70.16, -69.39 -66.72 M-69.39 -66.72 C-68.45 -64.74, -67.52 -62.77, -65.79 -59.11 M-69.39 -66.72 C-68.27 -64.35, -67.15 -61.99, -65.79 -59.11 M-65.79 -59.11 C-64.07 -56.24, -62.35 -53.36, -61.47 -51.9 M-65.79 -59.11 C-64.85 -57.55, -63.92 -55.99, -61.47 -51.9 M-61.47 -51.9 C-60.3 -50.33, -59.13 -48.75, -56.46 -45.14 M-61.47 -51.9 C-59.72 -49.54, -57.96 -47.17, -56.46 -45.14 M-56.46 -45.14 C-54.46 -42.94, -52.47 -40.74, -50.81 -38.91 M-56.46 -45.14 C-55.31 -43.88, -54.17 -42.62, -50.81 -38.91 M-50.81 -38.91 C-48.4 -36.73, -46 -34.55, -44.57 -33.26 M-50.81 -38.91 C-49.54 -37.76, -48.28 -36.62, -44.57 -33.26 M-44.57 -33.26 C-42.55 -31.76, -40.52 -30.25, -37.82 -28.25 M-44.57 -33.26 C-42.49 -31.71, -40.4 -30.17, -37.82 -28.25 M-37.82 -28.25 C-35.56 -26.9, -33.3 -25.54, -30.6 -23.93 M-37.82 -28.25 C-36.37 -27.38, -34.92 -26.51, -30.6 -23.93 M-30.6 -23.93 C-27.58 -22.49, -24.55 -21.06, -23 -20.33 M-30.6 -23.93 C-28.5 -22.93, -26.4 -21.94, -23 -20.33 M-23 -20.33 C-19.93 -19.23, -16.86 -18.13, -15.08 -17.5 M-23 -20.33 C-21.06 -19.64, -19.13 -18.94, -15.08 -17.5 M-15.08 -17.5 C-12.77 -16.92, -10.45 -16.34, -6.92 -15.45 M-15.08 -17.5 C-12.49 -16.85, -9.89 -16.2, -6.92 -15.45 M-6.92 -15.45 C-3.93 -15.01, -0.93 -14.56, 1.4 -14.22 M-6.92 -15.45 C-5.19 -15.19, -3.47 -14.94, 1.4 -14.22 M1.4 -14.22 C3.68 -14.1, 5.96 -13.99, 9.8 -13.8 M1.4 -14.22 C4.07 -14.09, 6.73 -13.96, 9.8 -13.8 M9.8 -13.8 C9.8 -8.67, 9.8 -3.54, 9.8 0.48 M9.8 -13.8 C9.8 -9.01, 9.8 -4.22, 9.8 0.48 M9.8 0.48 C6.32 0.31, 2.84 0.14, 0 0 M9.8 0.48 C7.54 0.37, 5.28 0.26, 0 0 M0 0 C0 0, 0 0, 0 0 M0 0 C0 0, 0 0, 0 0" stroke="#1e1e1e" stroke-width="4" fill="none"/></g></g><mask/><g stroke-linecap="round"><g transform="translate(184.8372247634863 59.264594375909866) rotate(0 -42.664390236673924 -24.632297187954933)"><path d="M0 0 C-30.3 -17.5, -60.61 -34.99, -85.33 -49.26 M0 0 C-25.93 -14.97, -51.87 -29.94, -85.33 -49.26" stroke="#1e1e1e" stroke-width="2" fill="none"/></g></g><mask/><g stroke-linecap="round"><g transform="translate(186.08362128839354 245.38610737590986) rotate(0 -36.35738976635121 -20.990948768635015)"><path d="M0 0 C-17.97 -10.37, -35.94 -20.75, -72.71 -41.98 M0 0 C-28.97 -16.73, -57.94 -33.45, -72.71 -41.98" stroke="#1e1e1e" stroke-width="2" fill="none"/></g></g><mask/><g stroke-linecap="round"><g transform="translate(136.0836211241715 245.3861078691618) rotate(0 -63.04181056208574 -36.39720629822159)"><path d="M0 0 C-29.84 -17.23, -59.68 -34.45, -126.08 -72.79 M0 0 C-29 -16.74, -58 -33.48, -126.08 -72.79" stroke="#1e1e1e" stroke-width="2" fill="none"/></g></g><mask/><g stroke-linecap="round"><g transform="translate(57.79853279932428 57.7480848828923) rotate(0 24.65953827544779 14.237191061421655)"><path d="M0 0 C12.23 7.06, 24.46 14.12, 49.32 28.47 M0 0 C14.38 8.3, 28.77 16.61, 49.32 28.47" stroke="#e03131" stroke-width="4" fill="none"/></g><g transform="translate(57.79853279932428 57.7480848828923) rotate(0 24.65953827544779 14.237191061421655)"><path d="M49.32 28.47 L34.38 27.17 L40.72 16.19 L49.32 28.47" stroke="none" stroke-width="0" fill="#e03131" fill-rule="evenodd"/><path d="M49.32 28.47 C45.61 28.15, 41.91 27.83, 34.38 27.17 M49.32 28.47 C44.96 28.09, 40.6 27.71, 34.38 27.17 M34.38 27.17 C36 24.36, 37.62 21.55, 40.72 16.19 M34.38 27.17 C35.65 24.97, 36.92 22.77, 40.72 16.19 M40.72 16.19 C42.63 18.92, 44.55 21.66, 49.32 28.47 M40.72 16.19 C43.43 20.06, 46.14 23.94, 49.32 28.47 M49.32 28.47 C49.32 28.47, 49.32 28.47, 49.32 28.47 M49.32 28.47 C49.32 28.47, 49.32 28.47, 49.32 28.47" stroke="#e03131" stroke-width="4" fill="none"/></g></g><mask/></svg>