<svg version="1.1" xmlns="http://www.w3.org/2000/svg" viewBox="0 0 120.00000000000006 220" width="120.00000000000006" height="220" filter="invert(93%) hue-rotate(180deg)" class="excalidraw-svg">
  <!-- svg-source:excalidraw -->
  
  <defs>
    <style class="style-fonts">
      @font-face {
        font-family: "Virgil";
        src: url("https://excalidraw.com/Virgil.woff2");
      }
      @font-face {
        font-family: "Cascadia";
        src: url("https://excalidraw.com/Cascadia.woff2");
      }
      @font-face {
        font-family: "Assistant";
        src: url("https://excalidraw.com/Assistant-Regular.woff2");
      }
    </style>
    
  </defs>
  <g stroke-linecap="round"><g transform="translate(100.19828596704389 209.51847266721967) rotate(0 -40.19828596704386 -99.51847266721967)" fill-rule="evenodd"><path d="M0 0 L-9.71 -1.44 L-19.23 -3.82 L-28.47 -7.13 L-37.34 -11.33 L-45.76 -16.37 L-53.64 -22.22 L-60.91 -28.81 L-67.5 -36.08 L-73.35 -43.96 L-78.39 -52.38 L-82.59 -61.25 L-85.89 -70.49 L-88.28 -80.01 L-89.72 -89.72 L-90.2 -99.52 L-89.72 -109.32 L-88.28 -119.03 L-85.89 -128.55 L-82.59 -137.79 L-78.39 -146.66 L-73.35 -155.08 L-67.5 -162.96 L-60.91 -170.23 L-53.64 -176.82 L-45.76 -182.67 L-37.34 -187.71 L-28.47 -191.91 L-19.23 -195.21 L-9.71 -197.6 L0 -199.04 L9.8 -199.52 L9.8 -185.23 L1.4 -184.82 L-6.92 -183.59 L-15.08 -181.54 L-23 -178.71 L-30.6 -175.11 L-37.82 -170.79 L-44.57 -165.78 L-50.81 -160.13 L-56.46 -153.9 L-61.47 -147.14 L-65.79 -139.92 L-69.39 -132.32 L-72.22 -124.4 L-74.27 -116.24 L-75.5 -107.92 L-75.91 -99.52 L-75.5 -91.12 L-74.27 -82.8 L-72.22 -74.64 L-69.39 -66.72 L-65.79 -59.11 L-61.47 -51.9 L-56.46 -45.14 L-50.81 -38.91 L-44.57 -33.26 L-37.82 -28.25 L-30.6 -23.93 L-23 -20.33 L-15.08 -17.5 L-6.92 -15.45 L1.4 -14.22 L9.8 -13.8 L9.8 0.48 L0 0" stroke="none" stroke-width="0" fill="#a5d8ff" fill-rule="evenodd"/><path d="M0 0 C-3.26 -0.48, -6.53 -0.97, -9.71 -1.44 M0 0 C-3.59 -0.53, -7.17 -1.06, -9.71 -1.44 M-9.71 -1.44 C-12.58 -2.16, -15.46 -2.88, -19.23 -3.82 M-9.71 -1.44 C-11.79 -1.96, -13.88 -2.48, -19.23 -3.82 M-19.23 -3.82 C-22.15 -4.87, -25.06 -5.91, -28.47 -7.13 M-19.23 -3.82 C-21.08 -4.49, -22.93 -5.15, -28.47 -7.13 M-28.47 -7.13 C-31.73 -8.67, -34.99 -10.22, -37.34 -11.33 M-28.47 -7.13 C-30.96 -8.31, -33.45 -9.49, -37.34 -11.33 M-37.34 -11.33 C-39.93 -12.88, -42.52 -14.43, -45.76 -16.37 M-37.34 -11.33 C-39.39 -12.56, -41.44 -13.79, -45.76 -16.37 M-45.76 -16.37 C-47.66 -17.78, -49.57 -19.2, -53.64 -22.22 M-45.76 -16.37 C-48.88 -18.69, -52 -21.01, -53.64 -22.22 M-53.64 -22.22 C-55.99 -24.34, -58.33 -26.47, -60.91 -28.81 M-53.64 -22.22 C-55.65 -24.04, -57.66 -25.86, -60.91 -28.81 M-60.91 -28.81 C-63.19 -31.33, -65.48 -33.85, -67.5 -36.08 M-60.91 -28.81 C-63.26 -31.4, -65.61 -34, -67.5 -36.08 M-67.5 -36.08 C-69.51 -38.79, -71.52 -41.5, -73.35 -43.96 M-67.5 -36.08 C-69.57 -38.87, -71.64 -41.66, -73.35 -43.96 M-73.35 -43.96 C-75.24 -47.12, -77.13 -50.28, -78.39 -52.38 M-73.35 -43.96 C-75.02 -46.76, -76.7 -49.55, -78.39 -52.38 M-78.39 -52.38 C-79.75 -55.26, -81.12 -58.15, -82.59 -61.25 M-78.39 -52.38 C-79.27 -54.25, -80.16 -56.11, -82.59 -61.25 M-82.59 -61.25 C-83.56 -63.97, -84.53 -66.68, -85.89 -70.49 M-82.59 -61.25 C-83.48 -63.74, -84.37 -66.23, -85.89 -70.49 M-85.89 -70.49 C-86.83 -74.24, -87.77 -77.98, -88.28 -80.01 M-85.89 -70.49 C-86.51 -72.94, -87.12 -75.39, -88.28 -80.01 M-88.28 -80.01 C-88.77 -83.31, -89.26 -86.61, -89.72 -89.72 M-88.28 -80.01 C-88.7 -82.87, -89.13 -85.74, -89.72 -89.72 M-89.72 -89.72 C-89.84 -92.14, -89.95 -94.56, -90.2 -99.52 M-89.72 -89.72 C-89.9 -93.48, -90.09 -97.25, -90.2 -99.52 M-90.2 -99.52 C-90.09 -101.7, -89.98 -103.88, -89.72 -109.32 M-90.2 -99.52 C-90.05 -102.58, -89.9 -105.65, -89.72 -109.32 M-89.72 -109.32 C-89.2 -112.78, -88.69 -116.25, -88.28 -119.03 M-89.72 -109.32 C-89.2 -112.81, -88.68 -116.3, -88.28 -119.03 M-88.28 -119.03 C-87.51 -122.1, -86.74 -125.17, -85.89 -128.55 M-88.28 -119.03 C-87.79 -120.97, -87.3 -122.92, -85.89 -128.55 M-85.89 -128.55 C-84.69 -131.91, -83.48 -135.28, -82.59 -137.79 M-85.89 -128.55 C-85.13 -130.67, -84.37 -132.79, -82.59 -137.79 M-82.59 -137.79 C-81.35 -140.39, -80.12 -142.99, -78.39 -146.66 M-82.59 -137.79 C-81.62 -139.83, -80.65 -141.88, -78.39 -146.66 M-78.39 -146.66 C-76.96 -149.04, -75.53 -151.43, -73.35 -155.08 M-78.39 -146.66 C-76.78 -149.34, -75.18 -152.02, -73.35 -155.08 M-73.35 -155.08 C-71.82 -157.13, -70.3 -159.18, -67.5 -162.96 M-73.35 -155.08 C-72.01 -156.88, -70.67 -158.69, -67.5 -162.96 M-67.5 -162.96 C-65.52 -165.14, -63.54 -167.32, -60.91 -170.23 M-67.5 -162.96 C-65.99 -164.62, -64.49 -166.28, -60.91 -170.23 M-60.91 -170.23 C-59.31 -171.68, -57.71 -173.12, -53.64 -176.82 M-60.91 -170.23 C-59.33 -171.66, -57.75 -173.09, -53.64 -176.82 M-53.64 -176.82 C-50.7 -179, -47.77 -181.17, -45.76 -182.67 M-53.64 -176.82 C-51.75 -178.22, -49.86 -179.62, -45.76 -182.67 M-45.76 -182.67 C-43.73 -183.88, -41.71 -185.09, -37.34 -187.71 M-45.76 -182.67 C-42.48 -184.63, -39.21 -186.59, -37.34 -187.71 M-37.34 -187.71 C-35.3 -188.67, -33.26 -189.64, -28.47 -191.91 M-37.34 -187.71 C-34.57 -189.02, -31.81 -190.33, -28.47 -191.91 M-28.47 -191.91 C-26.04 -192.78, -23.61 -193.65, -19.23 -195.21 M-28.47 -191.91 C-25.54 -192.95, -22.61 -194, -19.23 -195.21 M-19.23 -195.21 C-15.67 -196.1, -12.11 -196.99, -9.71 -197.6 M-19.23 -195.21 C-16.56 -195.88, -13.89 -196.55, -9.71 -197.6 M-9.71 -197.6 C-6.8 -198.03, -3.88 -198.46, 0 -199.04 M-9.71 -197.6 C-6.29 -198.1, -2.87 -198.61, 0 -199.04 M0 -199.04 C2.72 -199.17, 5.45 -199.3, 9.8 -199.52 M0 -199.04 C2.56 -199.16, 5.13 -199.29, 9.8 -199.52 M9.8 -199.52 C9.8 -196.15, 9.8 -192.79, 9.8 -185.23 M9.8 -199.52 C9.8 -196.32, 9.8 -193.12, 9.8 -185.23 M9.8 -185.23 C6.55 -185.07, 3.3 -184.91, 1.4 -184.82 M9.8 -185.23 C7.72 -185.13, 5.65 -185.03, 1.4 -184.82 M1.4 -184.82 C-0.48 -184.54, -2.36 -184.26, -6.92 -183.59 M1.4 -184.82 C-0.59 -184.53, -2.57 -184.23, -6.92 -183.59 M-6.92 -183.59 C-9.52 -182.93, -12.12 -182.28, -15.08 -181.54 M-6.92 -183.59 C-9.44 -182.95, -11.97 -182.32, -15.08 -181.54 M-15.08 -181.54 C-17.45 -180.69, -19.82 -179.85, -23 -178.71 M-15.08 -181.54 C-17.31 -180.74, -19.55 -179.94, -23 -178.71 M-23 -178.71 C-24.99 -177.77, -26.98 -176.82, -30.6 -175.11 M-23 -178.71 C-26.02 -177.28, -29.03 -175.85, -30.6 -175.11 M-30.6 -175.11 C-33.17 -173.57, -35.74 -172.04, -37.82 -170.79 M-30.6 -175.11 C-32.17 -174.17, -33.74 -173.23, -37.82 -170.79 M-37.82 -170.79 C-40.37 -168.9, -42.92 -167, -44.57 -165.78 M-37.82 -170.79 C-40.09 -169.1, -42.37 -167.41, -44.57 -165.78 M-44.57 -165.78 C-46.86 -163.71, -49.15 -161.63, -50.81 -160.13 M-44.57 -165.78 C-46.35 -164.16, -48.14 -162.55, -50.81 -160.13 M-50.81 -160.13 C-53.06 -157.65, -55.31 -155.17, -56.46 -153.9 M-50.81 -160.13 C-52.14 -158.66, -53.47 -157.19, -56.46 -153.9 M-56.46 -153.9 C-58.34 -151.35, -60.23 -148.81, -61.47 -147.14 M-56.46 -153.9 C-57.99 -151.82, -59.53 -149.75, -61.47 -147.14 M-61.47 -147.14 C-62.45 -145.49, -63.44 -143.84, -65.79 -139.92 M-61.47 -147.14 C-62.66 -145.15, -63.85 -143.16, -65.79 -139.92 M-65.79 -139.92 C-66.87 -137.65, -67.95 -135.37, -69.39 -132.32 M-65.79 -139.92 C-66.79 -137.8, -67.8 -135.68, -69.39 -132.32 M-69.39 -132.32 C-70.37 -129.59, -71.34 -126.86, -72.22 -124.4 M-69.39 -132.32 C-70.29 -129.79, -71.2 -127.25, -72.22 -124.4 M-72.22 -124.4 C-72.88 -121.75, -73.55 -119.11, -74.27 -116.24 M-72.22 -124.4 C-72.99 -121.32, -73.76 -118.25, -74.27 -116.24 M-74.27 -116.24 C-74.75 -112.94, -75.24 -109.65, -75.5 -107.92 M-74.27 -116.24 C-74.65 -113.68, -75.03 -111.12, -75.5 -107.92 M-75.5 -107.92 C-75.63 -105.31, -75.76 -102.71, -75.91 -99.52 M-75.5 -107.92 C-75.65 -104.93, -75.79 -101.94, -75.91 -99.52 M-75.91 -99.52 C-75.83 -97.82, -75.75 -96.12, -75.5 -91.12 M-75.91 -99.52 C-75.81 -97.36, -75.7 -95.2, -75.5 -91.12 M-75.5 -91.12 C-75.02 -87.89, -74.54 -84.67, -74.27 -82.8 M-75.5 -91.12 C-75.07 -88.23, -74.64 -85.35, -74.27 -82.8 M-74.27 -82.8 C-73.54 -79.9, -72.81 -77, -72.22 -74.64 M-74.27 -82.8 C-73.73 -80.64, -73.19 -78.48, -72.22 -74.64 M-72.22 -74.64 C-71.2 -71.78, -70.18 -68.93, -69.39 -66.72 M-72.22 -74.64 C-71.48 -72.57, -70.75 -70.51, -69.39 -66.72 M-69.39 -66.72 C-68.6 -65.05, -67.81 -63.38, -65.79 -59.11 M-69.39 -66.72 C-68.3 -64.41, -67.2 -62.1, -65.79 -59.11 M-65.79 -59.11 C-64.48 -56.93, -63.17 -54.74, -61.47 -51.9 M-65.79 -59.11 C-64.13 -56.33, -62.46 -53.55, -61.47 -51.9 M-61.47 -51.9 C-59.81 -49.67, -58.16 -47.43, -56.46 -45.14 M-61.47 -51.9 C-60.33 -50.36, -59.19 -48.83, -56.46 -45.14 M-56.46 -45.14 C-54.41 -42.88, -52.36 -40.62, -50.81 -38.91 M-56.46 -45.14 C-54.27 -42.73, -52.08 -40.31, -50.81 -38.91 M-50.81 -38.91 C-48.34 -36.67, -45.87 -34.43, -44.57 -33.26 M-50.81 -38.91 C-48.53 -36.84, -46.25 -34.78, -44.57 -33.26 M-44.57 -33.26 C-42.16 -31.47, -39.74 -29.68, -37.82 -28.25 M-44.57 -33.26 C-42.47 -31.7, -40.37 -30.14, -37.82 -28.25 M-37.82 -28.25 C-35.68 -26.97, -33.54 -25.69, -30.6 -23.93 M-37.82 -28.25 C-35.45 -26.83, -33.09 -25.41, -30.6 -23.93 M-30.6 -23.93 C-27.72 -22.56, -24.85 -21.2, -23 -20.33 M-30.6 -23.93 C-27.71 -22.56, -24.82 -21.19, -23 -20.33 M-23 -20.33 C-20.77 -19.53, -18.53 -18.73, -15.08 -17.5 M-23 -20.33 C-21.41 -19.76, -19.82 -19.19, -15.08 -17.5 M-15.08 -17.5 C-11.91 -16.7, -8.74 -15.91, -6.92 -15.45 M-15.08 -17.5 C-11.86 -16.69, -8.64 -15.88, -6.92 -15.45 M-6.92 -15.45 C-3.78 -14.99, -0.64 -14.52, 1.4 -14.22 M-6.92 -15.45 C-4.02 -15.02, -1.12 -14.59, 1.4 -14.22 M1.4 -14.22 C3.26 -14.13, 5.11 -14.03, 9.8 -13.8 M1.4 -14.22 C4.2 -14.08, 7 -13.94, 9.8 -13.8 M9.8 -13.8 C9.8 -8.42, 9.8 -3.04, 9.8 0.48 M9.8 -13.8 C9.8 -10.74, 9.8 -7.68, 9.8 0.48 M9.8 0.48 C6.05 0.3, 2.3 0.11, 0 0 M9.8 0.48 C6.33 0.31, 2.86 0.14, 0 0 M0 0 C0 0, 0 0, 0 0 M0 0 C0 0, 0 0, 0 0" stroke="#1e1e1e" stroke-width="4" fill="none"/></g></g><mask/></svg>