<svg version="1.1" xmlns="http://www.w3.org/2000/svg" viewBox="0 0 323.319580078125 304.53265380859375" width="323.319580078125" height="304.53265380859375" filter="invert(93%) hue-rotate(180deg)">
  <!-- svg-source:excalidraw -->
  
  <defs>
    <style class="style-fonts">
      @font-face {
        font-family: "Virgil";
        src: url("https://excalidraw.com/Virgil.woff2");
      }
      @font-face {
        font-family: "Cascadia";
        src: url("https://excalidraw.com/Cascadia.woff2");
      }
    </style>
  </defs>
  <rect x="0" y="0" width="323.319580078125" height="304.53265380859375" fill="transparent"/><g stroke-linecap="round"><g transform="translate(10 155.96197509765625) rotate(0 151.6597900390625 0)"><path d="M0 0 C112.58 0, 225.16 0, 303.32 0" stroke="#000000" stroke-width="4.5" fill="none" stroke-dasharray="8 12"/></g></g><mask/><g stroke-linecap="round"><g transform="translate(164.29006958007812 10) rotate(0 0 142.26632690429688)"><path d="M0 0 C0 110.67, 0 221.34, 0 284.53" stroke="#000000" stroke-width="4.5" fill="none" stroke-dasharray="8 12"/></g></g><mask/><g stroke-linecap="round"><g transform="translate(164.15701293945312 61.53948974609375) rotate(0 49.744384765625 96.01991271972656)"><path d="M0 0 C4.61 0.52, 17.75 0.17, 27.69 3.13 C37.63 6.09, 50.43 11.21, 59.65 17.76 C68.87 24.31, 76.94 33.43, 83 42.41 C89.07 51.39, 93.28 61.98, 96.02 71.65 C98.77 81.32, 100.82 89.13, 99.49 100.41 C98.16 111.68, 93.47 128.16, 88.03 139.31 C82.59 150.45, 74.25 160.07, 66.86 167.27 C59.46 174.47, 51.6 178.83, 43.68 182.52 C35.77 186.2, 26.62 187.79, 19.38 189.37 C12.15 190.96, 3.45 191.6, 0.27 192.04 M0 0 C4.61 0.52, 17.75 0.17, 27.69 3.13 C37.63 6.09, 50.43 11.21, 59.65 17.76 C68.87 24.31, 76.94 33.43, 83 42.41 C89.07 51.39, 93.28 61.98, 96.02 71.65 C98.77 81.32, 100.82 89.13, 99.49 100.41 C98.16 111.68, 93.47 128.16, 88.03 139.31 C82.59 150.45, 74.25 160.07, 66.86 167.27 C59.46 174.47, 51.6 178.83, 43.68 182.52 C35.77 186.2, 26.62 187.79, 19.38 189.37 C12.15 190.96, 3.45 191.6, 0.27 192.04" stroke="#e03131" stroke-width="4" fill="none"/></g></g><mask/><g stroke-linecap="round"><g transform="translate(164.023681640625 61.872406005859375) rotate(0 0 95.65440368652344)"><path d="M0 0 C0 31.88, 0 159.42, 0 191.31 M0 0 C0 31.88, 0 159.42, 0 191.31" stroke="#e03131" stroke-width="4" fill="none"/></g></g><mask/></svg>