<svg version="1.1" xmlns="http://www.w3.org/2000/svg" viewBox="0 0 278.0380554199219 273.96856689453125" width="278.0380554199219" height="273.96856689453125" filter="invert(93%) hue-rotate(180deg)">
  <!-- svg-source:excalidraw -->
  
  <defs>
    <style class="style-fonts">
      @font-face {
        font-family: "Virgil";
        src: url("https://excalidraw.com/Virgil.woff2");
      }
      @font-face {
        font-family: "Cascadia";
        src: url("https://excalidraw.com/Cascadia.woff2");
      }
    </style>
  </defs>
  <rect x="0" y="0" width="278.0380554199219" height="273.96856689453125" fill="transparent"/><g stroke-linecap="round"><g transform="translate(36.30322265625 263.96856689453125) rotate(0 1.0658141036401503e-14 -126.98428344726562)"><path d="M0 0 C0 -60.95, 0 -121.89, 0 -253.97 M0 0 C0 -87.67, 0 -175.34, 0 -253.97" stroke="#1e1e1e" stroke-width="2" fill="none"/></g></g><mask/><g stroke-linecap="round"><g transform="translate(10 237.66607666015625) rotate(0 129.01902770996094 0)"><path d="M0 0 C76.2 0, 152.39 0, 258.04 0 M0 0 C83.27 0, 166.54 0, 258.04 0" stroke="#1e1e1e" stroke-width="2" fill="none"/></g></g><mask/><g stroke-linecap="round"><g transform="translate(247.99429321289062 107.28579711914062) rotate(0 -105.67906188964844 0)"><path d="M0 0 C-52.01 0, -104.01 0, -211.36 0 M0 0 C-62.02 0, -124.03 0, -211.36 0" stroke="#e03131" stroke-width="4" fill="none"/></g></g><mask/><g transform="translate(33.1734619140625 240.06317138671875) rotate(0 103.94769287109375 -65.48976135253906)" stroke="none"><path fill="#e03131" d="M -2.33,-1.51 Q -2.33,-1.51 -1.39,-2.99 -0.44,-4.47 0.78,-6.25 2.00,-8.03 3.72,-10.39 5.43,-12.75 7.17,-15.52 8.90,-18.29 10.32,-20.04 11.74,-21.80 13.71,-23.94 15.67,-26.08 17.49,-28.12 19.32,-30.17 21.46,-32.46 23.60,-34.75 24.97,-36.57 26.34,-38.38 27.73,-40.23 29.12,-42.07 30.73,-43.94 32.35,-45.80 33.98,-47.50 35.61,-49.19 37.88,-51.39 40.16,-53.59 41.77,-55.02 43.39,-56.46 45.23,-57.96 47.06,-59.46 48.71,-60.92 50.36,-62.38 52.51,-63.98 54.66,-65.57 56.87,-67.30 59.08,-69.02 61.47,-70.71 63.86,-72.41 66.03,-74.10 68.21,-75.80 70.72,-77.60 73.23,-79.39 75.58,-81.05 77.94,-82.70 80.19,-84.26 82.45,-85.81 84.70,-87.33 86.96,-88.84 89.22,-90.18 91.49,-91.52 93.69,-92.78 95.89,-94.04 98.25,-95.23 100.61,-96.43 102.78,-97.58 104.95,-98.73 107.13,-99.85 109.32,-100.97 111.39,-102.12 113.46,-103.27 115.59,-104.50 117.71,-105.74 119.85,-106.73 121.99,-107.72 124.19,-108.61 126.39,-109.50 129.11,-110.62 131.84,-111.74 134.30,-112.60 136.76,-113.46 138.86,-114.20 140.96,-114.94 143.27,-115.58 145.58,-116.21 148.38,-117.19 151.18,-118.16 153.93,-119.10 156.69,-120.05 159.22,-120.89 161.75,-121.72 164.40,-122.46 167.05,-123.19 169.52,-123.96 172.00,-124.72 174.42,-125.36 176.85,-125.99 178.89,-126.67 180.92,-127.35 183.28,-127.92 185.65,-128.49 188.14,-129.39 190.63,-130.29 193.03,-130.88 195.43,-131.47 197.66,-131.96 199.89,-132.44 203.48,-132.97 207.07,-133.51 207.50,-133.50 207.92,-133.49 208.32,-133.35 208.72,-133.21 209.05,-132.94 209.39,-132.68 209.62,-132.32 209.85,-131.96 209.96,-131.55 210.06,-131.14 210.03,-130.72 210.00,-130.29 209.83,-129.90 209.67,-129.51 209.38,-129.19 209.10,-128.87 208.73,-128.66 208.37,-128.45 207.95,-128.37 207.53,-128.29 207.11,-128.34 206.69,-128.39 206.31,-128.58 205.93,-128.77 205.62,-129.07 205.32,-129.36 205.13,-129.74 204.94,-130.12 204.88,-130.54 204.82,-130.96 204.90,-131.38 204.97,-131.80 205.18,-132.17 205.39,-132.54 205.70,-132.83 206.01,-133.11 206.40,-133.29 206.79,-133.46 207.22,-133.49 207.64,-133.53 208.05,-133.43 208.47,-133.33 208.83,-133.10 209.19,-132.88 209.45,-132.55 209.72,-132.22 209.87,-131.82 210.02,-131.42 210.03,-131.00 210.05,-130.57 209.93,-130.17 209.80,-129.76 209.56,-129.41 209.31,-129.07 208.97,-128.82 208.63,-128.57 208.22,-128.44 207.82,-128.31 207.82,-128.31 207.82,-128.31 205.15,-127.75 202.48,-127.20 200.29,-126.73 198.11,-126.26 195.76,-125.65 193.42,-125.04 191.05,-124.27 188.69,-123.49 185.76,-122.71 182.84,-121.93 180.56,-121.19 178.29,-120.44 175.99,-119.84 173.69,-119.25 171.21,-118.50 168.72,-117.74 166.10,-117.00 163.47,-116.26 161.00,-115.44 158.53,-114.62 155.77,-113.67 153.01,-112.71 150.09,-111.70 147.17,-110.69 144.98,-110.09 142.78,-109.48 140.68,-108.75 138.59,-108.02 136.29,-107.21 133.99,-106.41 131.24,-105.29 128.49,-104.17 126.44,-103.35 124.40,-102.54 122.44,-101.62 120.47,-100.70 118.39,-99.49 116.31,-98.28 114.11,-97.07 111.92,-95.85 109.80,-94.76 107.69,-93.67 105.41,-92.46 103.12,-91.25 100.90,-90.13 98.68,-89.02 96.50,-87.77 94.32,-86.52 92.16,-85.26 90.01,-83.99 87.84,-82.54 85.67,-81.08 83.46,-79.56 81.26,-78.04 78.82,-76.33 76.39,-74.61 74.14,-73.00 71.89,-71.39 69.47,-69.51 67.05,-67.63 64.82,-66.05 62.60,-64.47 60.32,-62.73 58.05,-60.98 56.16,-59.61 54.27,-58.24 52.44,-56.62 50.61,-55.00 48.89,-53.61 47.17,-52.22 45.58,-50.81 43.98,-49.40 41.81,-47.30 39.63,-45.20 38.16,-43.67 36.68,-42.13 35.17,-40.40 33.66,-38.66 32.25,-36.78 30.84,-34.90 29.34,-32.92 27.83,-30.95 26.32,-29.20 24.81,-27.45 22.93,-25.55 21.06,-23.64 19.16,-21.63 17.27,-19.61 15.46,-17.42 13.65,-15.23 12.34,-13.13 11.03,-11.04 9.35,-8.69 7.68,-6.34 5.97,-3.87 4.27,-1.41 3.30,0.05 2.33,1.51 2.12,1.77 1.90,2.03 1.63,2.23 1.36,2.43 1.05,2.56 0.74,2.68 0.41,2.73 0.07,2.78 -0.25,2.75 -0.59,2.72 -0.90,2.61 -1.22,2.50 -1.50,2.32 -1.79,2.13 -2.02,1.89 -2.25,1.64 -2.41,1.35 -2.57,1.06 -2.66,0.73 -2.75,0.41 -2.76,0.07 -2.77,-0.25 -2.70,-0.58 -2.63,-0.91 -2.48,-1.21 -2.33,-1.51 -2.33,-1.51 L -2.33,-1.51 Z"/></g><g transform="translate(158.03057861328125 113.01239013671875) rotate(0 -51.90724182128906 44.6475830078125)" stroke="none"><path fill="#e03131" d="M 1.84,-1.99 Q 1.84,-1.99 4.16,0.10 6.48,2.20 8.23,3.75 9.97,5.31 12.28,7.48 14.58,9.66 14.89,10.05 15.19,10.45 15.39,10.71 15.60,10.98 15.73,11.29 15.87,11.60 15.93,11.93 15.98,12.26 15.96,12.60 15.94,12.93 15.83,13.26 15.73,13.58 15.55,13.86 15.37,14.15 15.13,14.38 14.89,14.62 14.60,14.79 14.31,14.96 13.99,15.06 13.66,15.16 13.33,15.17 12.99,15.19 12.66,15.12 12.33,15.06 12.02,14.92 11.72,14.78 11.46,14.57 11.19,14.36 8.92,13.74 6.64,13.12 3.09,11.80 -0.45,10.47 -4.68,9.37 -8.91,8.26 -11.47,7.52 -14.04,6.79 -16.88,5.85 -19.72,4.91 -22.32,3.85 -24.92,2.79 -27.81,1.74 -30.70,0.69 -28.39,0.74 -26.09,0.79 -22.39,3.31 -18.70,5.84 -16.77,7.24 -14.83,8.63 -13.27,10.22 -11.72,11.81 -10.58,13.24 -9.44,14.68 -9.24,14.96 -9.04,15.24 -8.92,15.56 -8.79,15.88 -8.75,16.22 -8.70,16.56 -8.74,16.90 -8.78,17.24 -8.89,17.56 -9.01,17.89 -9.20,18.17 -9.40,18.46 -9.65,18.69 -9.91,18.92 -10.21,19.08 -10.51,19.24 -10.84,19.33 -11.18,19.42 -11.52,19.42 -11.86,19.42 -12.20,19.34 -12.53,19.27 -12.84,19.11 -13.14,18.95 -13.40,18.73 -13.66,18.50 -17.06,18.01 -20.45,17.52 -22.85,16.71 -25.24,15.90 -27.70,15.07 -30.16,14.23 -32.74,13.43 -35.32,12.62 -38.02,11.63 -40.72,10.63 -43.25,9.70 -45.78,8.77 -47.83,8.00 -49.89,7.24 -52.00,6.74 -54.11,6.23 -54.42,6.09 -54.73,5.94 -55.00,5.73 -55.27,5.51 -55.48,5.24 -55.69,4.96 -55.83,4.65 -55.97,4.33 -56.03,3.99 -56.08,3.65 -56.06,3.30 -56.03,2.96 -55.93,2.63 -55.82,2.30 -55.64,2.01 -55.46,1.71 -55.21,1.47 -54.96,1.23 -54.66,1.06 -54.37,0.88 -54.04,0.78 -53.70,0.68 -53.36,0.67 -53.01,0.65 -52.68,0.72 -52.34,0.78 -50.72,3.11 -49.10,5.44 -47.32,7.62 -45.54,9.79 -43.06,12.76 -40.58,15.73 -37.76,18.92 -34.94,22.11 -32.39,24.92 -29.84,27.73 -28.08,29.63 -26.31,31.53 -25.07,33.01 -23.83,34.49 -23.64,34.77 -23.44,35.05 -23.32,35.37 -23.19,35.68 -23.15,36.02 -23.11,36.36 -23.15,36.70 -23.19,37.04 -23.31,37.36 -23.42,37.68 -23.62,37.96 -23.81,38.24 -24.06,38.47 -24.32,38.70 -24.62,38.86 -24.92,39.02 -25.25,39.10 -25.58,39.18 -25.92,39.18 -26.26,39.19 -26.59,39.11 -26.92,39.03 -27.23,38.87 -27.53,38.71 -27.79,38.49 -28.04,38.26 -30.46,36.82 -32.88,35.37 -35.72,33.46 -38.56,31.54 -41.86,29.28 -45.15,27.02 -48.27,24.71 -51.39,22.41 -54.17,20.23 -56.94,18.05 -59.52,16.19 -62.09,14.33 -64.43,12.69 -66.77,11.06 -68.68,9.62 -70.58,8.18 -72.90,6.79 -75.23,5.39 -75.76,5.15 -76.29,4.91 -76.56,4.70 -76.83,4.49 -77.04,4.23 -77.25,3.96 -77.39,3.66 -77.53,3.35 -77.60,3.02 -77.66,2.68 -77.64,2.35 -77.63,2.01 -77.53,1.68 -77.43,1.36 -77.26,1.07 -77.09,0.78 -76.85,0.54 -76.61,0.29 -76.33,0.12 -76.04,-0.05 -75.72,-0.16 -75.39,-0.26 -75.06,-0.28 -74.72,-0.31 -74.38,-0.25 -74.05,-0.19 -73.74,-0.06 -73.43,0.07 -72.24,1.89 -71.06,3.71 -69.65,5.55 -68.24,7.40 -66.20,10.05 -64.15,12.70 -61.74,16.03 -59.33,19.35 -57.06,23.04 -54.78,26.73 -53.06,29.90 -51.35,33.07 -50.25,35.38 -49.16,37.68 -48.79,38.84 -48.41,40.00 -48.30,40.33 -48.19,40.65 -48.16,40.99 -48.13,41.33 -48.19,41.67 -48.24,42.00 -48.37,42.32 -48.50,42.63 -48.71,42.91 -48.91,43.18 -49.18,43.40 -49.44,43.62 -49.75,43.76 -50.06,43.91 -50.39,43.98 -50.72,44.05 -51.07,44.04 -51.41,44.03 -51.74,43.93 -52.06,43.84 -52.36,43.67 -52.66,43.50 -52.91,43.27 -53.15,43.03 -53.34,42.74 -53.52,42.45 -57.79,40.67 -62.06,38.89 -65.23,36.54 -68.39,34.19 -71.48,31.39 -74.58,28.59 -77.27,25.83 -79.96,23.07 -82.22,20.70 -84.48,18.34 -86.40,16.53 -88.32,14.72 -90.80,12.91 -93.27,11.09 -89.28,14.84 -85.29,18.59 -82.42,23.15 -79.55,27.71 -76.56,32.39 -73.57,37.06 -71.21,40.71 -68.85,44.36 -67.28,46.87 -65.71,49.38 -64.93,51.45 -64.14,53.52 -64.03,53.84 -63.91,54.16 -63.87,54.51 -63.84,54.85 -63.88,55.19 -63.93,55.53 -64.06,55.85 -64.18,56.17 -64.38,56.45 -64.58,56.73 -64.84,56.95 -65.10,57.17 -65.41,57.33 -65.72,57.48 -66.05,57.56 -66.39,57.64 -66.73,57.63 -67.07,57.63 -67.40,57.54 -67.74,57.45 -68.04,57.29 -68.34,57.12 -68.59,56.89 -68.85,56.66 -69.04,56.37 -69.23,56.09 -72.84,53.68 -76.45,51.26 -79.77,48.05 -83.10,44.84 -86.44,40.82 -89.77,36.80 -92.67,32.59 -95.57,28.38 -97.89,24.74 -100.21,21.09 -102.80,17.83 -105.39,14.56 -107.01,13.06 -108.63,11.56 -105.38,16.90 -102.12,22.24 -98.99,27.90 -95.85,33.55 -92.92,38.92 -89.98,44.29 -87.72,48.69 -85.46,53.10 -84.22,55.96 -82.98,58.81 -82.90,60.15 -82.81,61.49 -82.70,61.85 -82.59,62.21 -82.57,62.58 -82.55,62.95 -82.62,63.32 -82.69,63.69 -82.85,64.03 -83.01,64.37 -83.24,64.66 -83.47,64.96 -83.77,65.19 -84.06,65.41 -84.41,65.57 -84.75,65.72 -85.12,65.78 -85.49,65.85 -85.86,65.82 -86.23,65.80 -86.59,65.68 -86.95,65.57 -87.27,65.37 -87.58,65.18 -87.85,64.91 -88.11,64.64 -88.30,64.32 -88.49,64.00 -91.72,62.96 -94.95,61.92 -97.98,58.63 -101.00,55.33 -103.79,51.80 -106.58,48.27 -108.90,45.09 -111.23,41.91 -113.12,39.53 -115.01,37.15 -116.94,35.85 -118.88,34.54 -119.10,34.23 -119.32,33.93 -119.46,33.58 -119.60,33.23 -119.66,32.86 -119.71,32.48 -119.67,32.11 -119.64,31.73 -119.51,31.38 -119.38,31.02 -119.18,30.71 -118.97,30.39 -118.69,30.14 -118.42,29.88 -118.09,29.70 -117.76,29.51 -117.40,29.42 -117.03,29.32 -116.65,29.31 -116.28,29.30 -115.91,29.38 -115.54,29.46 -115.20,29.63 -114.87,29.80 -114.58,30.04 -114.29,30.28 -113.87,32.87 -113.45,35.45 -112.45,38.40 -111.45,41.36 -109.64,46.06 -107.83,50.76 -105.40,56.22 -102.97,61.69 -100.83,66.70 -98.69,71.72 -97.28,75.16 -95.87,78.60 -95.33,80.27 -94.80,81.93 -94.70,82.30 -94.60,82.67 -94.59,83.05 -94.58,83.43 -94.66,83.80 -94.74,84.18 -94.91,84.52 -95.08,84.86 -95.33,85.16 -95.57,85.45 -95.88,85.67 -96.19,85.90 -96.55,86.04 -96.90,86.19 -97.28,86.24 -97.66,86.30 -98.04,86.26 -98.42,86.22 -98.78,86.10 -99.14,85.97 -99.46,85.76 -99.78,85.55 -100.04,85.27 -100.30,84.99 -100.48,84.66 -100.67,84.32 -102.13,82.41 -103.58,80.50 -105.68,76.81 -107.78,73.13 -110.04,68.54 -112.31,63.96 -114.17,59.74 -116.03,55.53 -117.17,52.96 -118.31,50.39 -118.89,49.54 -119.46,48.70 -119.57,48.32 -119.69,47.94 -119.71,47.54 -119.73,47.15 -119.65,46.76 -119.58,46.37 -119.41,46.01 -119.25,45.65 -119.00,45.35 -118.75,45.04 -118.44,44.80 -118.13,44.55 -117.77,44.40 -117.40,44.24 -117.01,44.17 -116.62,44.10 -116.23,44.13 -115.84,44.16 -115.46,44.28 -115.08,44.40 -114.75,44.61 -114.41,44.81 -114.13,45.10 -113.86,45.38 -113.66,45.72 -113.45,46.06 -112.12,49.82 -110.78,53.59 -109.32,57.78 -107.85,61.96 -106.35,66.43 -104.86,70.89 -103.81,74.77 -102.77,78.65 -102.28,81.36 -101.79,84.07 -102.07,84.72 -102.34,85.38 -102.31,85.77 -102.29,86.15 -102.36,86.53 -102.43,86.92 -102.59,87.27 -102.75,87.62 -102.99,87.93 -103.22,88.24 -103.53,88.48 -103.84,88.71 -104.19,88.87 -104.54,89.03 -104.92,89.10 -105.31,89.17 -105.69,89.15 -106.08,89.13 -106.45,89.01 -106.82,88.90 -107.15,88.70 -107.49,88.50 -107.76,88.22 -108.04,87.95 -108.24,87.62 -108.44,87.28 -108.55,86.91 -108.67,86.54 -110.40,83.55 -112.13,80.56 -113.26,77.39 -114.38,74.22 -115.15,71.80 -115.92,69.38 -116.33,68.37 -116.74,67.36 -116.82,66.97 -116.89,66.59 -116.87,66.20 -116.85,65.81 -116.73,65.44 -116.62,65.07 -116.42,64.73 -116.22,64.40 -115.95,64.12 -115.68,63.84 -115.35,63.64 -115.01,63.43 -114.64,63.31 -114.27,63.20 -113.88,63.17 -113.49,63.14 -113.11,63.21 -112.73,63.28 -112.37,63.43 -112.01,63.59 -111.70,63.83 -111.40,64.07 -111.15,64.37 -110.91,64.68 -110.75,65.03 -110.59,65.38 -110.45,68.32 -110.32,71.25 -110.22,73.92 -110.12,76.59 -110.10,79.36 -110.07,82.13 -110.32,84.31 -110.57,86.49 -111.18,88.04 -111.79,89.59 -111.50,89.90 -111.21,90.21 -111.04,90.60 -110.87,90.99 -110.83,91.41 -110.79,91.84 -110.89,92.25 -110.98,92.67 -111.21,93.03 -111.43,93.39 -111.76,93.66 -112.09,93.93 -112.49,94.08 -112.88,94.23 -113.31,94.25 -113.73,94.26 -114.14,94.14 -114.55,94.02 -114.90,93.78 -115.24,93.54 -115.50,93.19 -115.75,92.85 -115.88,92.45 -116.01,92.04 -116.00,91.62 -115.99,91.19 -115.85,90.79 -115.71,90.39 -115.45,90.06 -115.19,89.72 -114.83,89.49 -114.47,89.26 -114.06,89.15 -113.65,89.04 -113.23,89.07 -112.80,89.10 -112.41,89.26 -112.02,89.43 -111.70,89.71 -111.38,89.99 -111.17,90.35 -110.95,90.72 -110.87,91.14 -110.78,91.55 -110.84,91.98 -110.89,92.40 -111.07,92.78 -111.26,93.16 -111.55,93.47 -111.85,93.77 -112.23,93.96 -112.61,94.16 -113.03,94.22 -113.45,94.28 -113.87,94.21 -114.29,94.13 -114.66,93.93 -115.03,93.72 -115.03,93.72 -115.03,93.72 -116.69,90.68 -118.35,87.64 -117.81,84.83 -117.26,82.01 -117.15,79.35 -117.05,76.68 -116.89,72.02 -116.74,67.36 -116.82,66.97 -116.89,66.59 -116.87,66.20 -116.85,65.81 -116.73,65.44 -116.62,65.07 -116.42,64.73 -116.22,64.40 -115.95,64.12 -115.68,63.84 -115.35,63.64 -115.01,63.43 -114.64,63.31 -114.27,63.20 -113.88,63.17 -113.49,63.14 -113.11,63.21 -112.73,63.28 -112.37,63.43 -112.01,63.59 -111.71,63.83 -111.40,64.07 -111.15,64.37 -110.91,64.68 -110.75,65.03 -110.59,65.38 -110.27,66.43 -109.96,67.47 -109.21,69.79 -108.46,72.12 -107.45,74.97 -106.44,77.82 -104.39,81.60 -102.34,85.38 -102.31,85.77 -102.29,86.15 -102.36,86.53 -102.43,86.92 -102.59,87.27 -102.75,87.62 -102.99,87.93 -103.22,88.24 -103.53,88.48 -103.84,88.71 -104.19,88.87 -104.54,89.03 -104.92,89.10 -105.31,89.17 -105.69,89.15 -106.08,89.13 -106.45,89.01 -106.82,88.90 -107.15,88.70 -107.49,88.50 -107.76,88.22 -108.04,87.95 -108.24,87.62 -108.44,87.28 -108.55,86.91 -108.67,86.54 -108.53,85.75 -108.39,84.97 -108.82,82.66 -109.25,80.35 -110.20,76.67 -111.15,72.99 -112.62,68.57 -114.09,64.15 -115.56,59.96 -117.03,55.77 -118.24,52.23 -119.46,48.70 -119.57,48.32 -119.69,47.94 -119.71,47.54 -119.73,47.15 -119.65,46.76 -119.58,46.37 -119.41,46.01 -119.25,45.65 -119.00,45.35 -118.75,45.04 -118.44,44.80 -118.13,44.55 -117.77,44.40 -117.40,44.24 -117.01,44.17 -116.63,44.10 -116.23,44.13 -115.84,44.16 -115.46,44.28 -115.08,44.40 -114.75,44.61 -114.41,44.81 -114.13,45.10 -113.86,45.38 -113.66,45.72 -113.45,46.06 -113.03,46.97 -112.61,47.89 -111.49,50.45 -110.38,53.02 -108.56,57.12 -106.73,61.21 -104.56,65.63 -102.39,70.04 -100.35,73.58 -98.32,77.11 -96.56,79.52 -94.80,81.93 -94.70,82.30 -94.60,82.67 -94.59,83.05 -94.58,83.43 -94.66,83.80 -94.74,84.18 -94.91,84.52 -95.08,84.86 -95.33,85.15 -95.57,85.45 -95.88,85.67 -96.19,85.90 -96.54,86.04 -96.90,86.19 -97.28,86.24 -97.66,86.30 -98.04,86.26 -98.42,86.22 -98.78,86.10 -99.14,85.97 -99.46,85.76 -99.78,85.55 -100.04,85.27 -100.30,84.99 -100.48,84.66 -100.67,84.32 -101.28,82.69 -101.89,81.06 -103.27,77.65 -104.65,74.24 -106.74,69.26 -108.83,64.28 -111.30,58.66 -113.77,53.04 -115.65,48.14 -117.52,43.24 -118.20,38.89 -118.88,34.54 -119.10,34.23 -119.32,33.93 -119.46,33.58 -119.60,33.23 -119.66,32.86 -119.71,32.48 -119.67,32.11 -119.64,31.73 -119.51,31.38 -119.39,31.02 -119.18,30.71 -118.97,30.39 -118.69,30.14 -118.42,29.88 -118.09,29.70 -117.76,29.51 -117.40,29.42 -117.03,29.32 -116.65,29.31 -116.28,29.30 -115.91,29.38 -115.54,29.46 -115.20,29.63 -114.87,29.80 -114.58,30.04 -114.29,30.28 -113.92,30.20 -113.54,30.11 -111.90,31.75 -110.25,33.39 -108.30,35.86 -106.36,38.33 -104.08,41.42 -101.80,44.51 -99.15,47.89 -96.50,51.27 -94.05,54.06 -91.59,56.84 -89.76,58.24 -87.93,59.63 -85.37,60.56 -82.81,61.49 -82.70,61.85 -82.59,62.21 -82.57,62.58 -82.55,62.95 -82.62,63.32 -82.69,63.69 -82.85,64.03 -83.01,64.37 -83.24,64.66 -83.47,64.96 -83.77,65.19 -84.06,65.41 -84.41,65.57 -84.75,65.72 -85.12,65.78 -85.49,65.85 -85.86,65.82 -86.23,65.80 -86.59,65.68 -86.95,65.57 -87.27,65.37 -87.58,65.18 -87.85,64.91 -88.11,64.64 -88.30,64.32 -88.49,64.00 -88.71,62.67 -88.92,61.34 -90.10,58.72 -91.27,56.11 -93.53,51.78 -95.78,47.45 -98.70,42.10 -101.61,36.74 -104.76,31.03 -107.90,25.32 -111.07,18.95 -114.24,12.58 -113.98,10.28 -113.72,7.97 -111.72,6.70 -109.72,5.43 -107.25,6.35 -104.77,7.27 -102.84,9.15 -100.90,11.03 -98.17,14.54 -95.44,18.05 -93.18,21.62 -90.92,25.18 -88.16,29.20 -85.41,33.21 -82.30,37.00 -79.18,40.80 -76.08,43.82 -72.97,46.84 -70.55,48.74 -68.12,50.65 -66.13,52.08 -64.14,53.52 -64.03,53.84 -63.91,54.16 -63.87,54.51 -63.84,54.85 -63.88,55.19 -63.93,55.53 -64.06,55.85 -64.18,56.17 -64.38,56.45 -64.58,56.73 -64.84,56.95 -65.10,57.17 -65.41,57.33 -65.72,57.48 -66.05,57.56 -66.39,57.64 -66.73,57.63 -67.07,57.63 -67.40,57.54 -67.74,57.45 -68.04,57.29 -68.34,57.12 -68.59,56.89 -68.85,56.66 -69.04,56.37 -69.23,56.09 -69.92,54.26 -70.60,52.44 -72.15,49.97 -73.70,47.50 -76.06,43.83 -78.42,40.16 -81.41,35.46 -84.40,30.76 -87.30,26.14 -90.20,21.52 -92.32,17.94 -94.45,14.36 -94.94,10.58 -95.43,6.80 -91.60,7.35 -87.77,7.90 -86.10,9.26 -84.44,10.62 -82.42,12.53 -80.40,14.45 -78.17,16.80 -75.93,19.14 -73.36,21.79 -70.80,24.43 -67.91,27.05 -65.03,29.67 -62.05,31.89 -59.07,34.11 -56.60,35.65 -54.12,37.20 -51.26,38.60 -48.41,40.00 -48.30,40.32 -48.19,40.65 -48.16,40.99 -48.13,41.33 -48.19,41.67 -48.24,42.00 -48.37,42.32 -48.50,42.63 -48.71,42.91 -48.91,43.18 -49.18,43.40 -49.44,43.62 -49.75,43.76 -50.06,43.91 -50.39,43.98 -50.72,44.05 -51.07,44.04 -51.41,44.03 -51.74,43.93 -52.06,43.84 -52.36,43.67 -52.66,43.50 -52.91,43.27 -53.15,43.03 -53.34,42.74 -53.52,42.45 -53.90,41.29 -54.29,40.13 -55.34,37.96 -56.39,35.79 -58.02,32.76 -59.65,29.73 -61.81,26.22 -63.96,22.70 -66.32,19.44 -68.67,16.17 -70.72,13.50 -72.77,10.83 -74.53,7.87 -76.29,4.91 -76.56,4.70 -76.83,4.49 -77.04,4.23 -77.25,3.96 -77.39,3.66 -77.53,3.35 -77.60,3.02 -77.66,2.68 -77.64,2.35 -77.63,2.01 -77.53,1.68 -77.43,1.36 -77.26,1.07 -77.09,0.78 -76.85,0.54 -76.61,0.29 -76.33,0.12 -76.04,-0.05 -75.72,-0.16 -75.39,-0.26 -75.06,-0.28 -74.72,-0.31 -74.38,-0.25 -74.05,-0.19 -73.74,-0.06 -73.43,0.07 -72.90,0.32 -72.38,0.56 -69.79,2.13 -67.20,3.70 -65.38,5.08 -63.55,6.45 -61.18,8.11 -58.80,9.77 -56.13,11.70 -53.47,13.62 -50.75,15.75 -48.04,17.89 -45.00,20.14 -41.97,22.40 -38.70,24.65 -35.44,26.90 -32.67,28.77 -29.90,30.63 -26.87,32.56 -23.83,34.49 -23.64,34.77 -23.44,35.05 -23.32,35.37 -23.19,35.68 -23.15,36.02 -23.11,36.36 -23.15,36.70 -23.19,37.04 -23.31,37.36 -23.42,37.68 -23.62,37.96 -23.81,38.24 -24.06,38.47 -24.32,38.70 -24.62,38.86 -24.92,39.02 -25.25,39.10 -25.58,39.18 -25.92,39.18 -26.26,39.19 -26.59,39.11 -26.92,39.03 -27.23,38.87 -27.53,38.71 -27.79,38.49 -28.04,38.26 -29.33,36.90 -30.61,35.54 -32.41,33.62 -34.20,31.70 -36.79,28.86 -39.38,26.02 -42.24,22.77 -45.10,19.51 -47.62,16.52 -50.14,13.52 -52.12,9.88 -54.11,6.23 -54.42,6.09 -54.73,5.94 -55.00,5.73 -55.27,5.51 -55.48,5.24 -55.69,4.96 -55.83,4.65 -55.97,4.33 -56.03,3.99 -56.08,3.65 -56.06,3.30 -56.03,2.96 -55.93,2.63 -55.82,2.30 -55.64,2.01 -55.46,1.71 -55.21,1.47 -54.96,1.23 -54.66,1.06 -54.37,0.88 -54.04,0.78 -53.71,0.68 -53.36,0.67 -53.02,0.65 -52.68,0.72 -52.34,0.78 -50.13,1.35 -47.92,1.92 -45.87,2.68 -43.82,3.44 -41.28,4.37 -38.74,5.30 -36.19,6.26 -33.64,7.22 -30.99,8.04 -28.35,8.86 -25.88,9.69 -23.42,10.51 -21.17,11.28 -18.91,12.04 -16.83,12.63 -14.74,13.22 -12.09,13.95 -9.44,14.68 -9.24,14.96 -9.04,15.24 -8.92,15.56 -8.79,15.88 -8.75,16.22 -8.70,16.56 -8.74,16.90 -8.78,17.24 -8.89,17.56 -9.01,17.89 -9.20,18.17 -9.40,18.46 -9.65,18.69 -9.91,18.92 -10.21,19.08 -10.51,19.24 -10.84,19.33 -11.18,19.42 -11.52,19.42 -11.86,19.42 -12.20,19.34 -12.53,19.27 -12.84,19.11 -13.14,18.95 -13.40,18.73 -13.66,18.50 -13.91,18.05 -14.17,17.60 -16.21,15.47 -18.25,13.33 -20.06,12.02 -21.86,10.70 -23.98,9.32 -26.11,7.93 -28.03,6.49 -29.95,5.04 -32.14,2.12 -34.34,-0.79 -31.82,-2.78 -29.31,-4.77 -26.05,-3.60 -22.79,-2.43 -20.37,-1.44 -17.95,-0.45 -15.21,0.44 -12.46,1.35 -9.98,2.07 -7.51,2.79 -5.20,3.38 -2.90,3.98 -0.70,4.59 1.48,5.20 5.07,6.55 8.66,7.91 11.93,9.18 15.19,10.45 15.39,10.71 15.60,10.98 15.73,11.29 15.87,11.60 15.93,11.93 15.98,12.26 15.96,12.60 15.94,12.93 15.83,13.26 15.73,13.58 15.55,13.86 15.37,14.15 15.13,14.38 14.89,14.62 14.60,14.79 14.31,14.96 13.99,15.06 13.67,15.16 13.33,15.17 12.99,15.19 12.66,15.12 12.33,15.06 12.02,14.92 11.72,14.78 11.46,14.57 11.19,14.36 10.88,13.97 10.57,13.58 8.41,11.53 6.25,9.47 4.47,7.88 2.70,6.29 0.42,4.14 -1.84,1.99 -2.05,1.74 -2.26,1.49 -2.41,1.20 -2.55,0.90 -2.62,0.58 -2.70,0.26 -2.69,-0.05 -2.68,-0.38 -2.60,-0.70 -2.51,-1.01 -2.35,-1.30 -2.19,-1.58 -1.97,-1.82 -1.75,-2.06 -1.48,-2.24 -1.20,-2.42 -0.90,-2.53 -0.59,-2.64 -0.26,-2.68 0.05,-2.71 0.38,-2.66 0.70,-2.62 1.00,-2.49 1.31,-2.37 1.57,-2.18 1.84,-1.99 1.84,-1.99 L 1.84,-1.99 Z"/></g></svg>