<svg version="1.1" xmlns="http://www.w3.org/2000/svg" viewBox="0 0 638.7400912641231 1036.6551513911838" width="638.7400912641231" height="1036.6551513911838" filter="invert(93%) hue-rotate(180deg)">
  <!-- svg-source:excalidraw -->
  
  <defs>
    <style class="style-fonts">
      @font-face {
        font-family: "Virgil";
        src: url("https://excalidraw.com/Virgil.woff2");
      }
      @font-face {
        font-family: "Cascadia";
        src: url("https://excalidraw.com/Cascadia.woff2");
      }
    </style>
  </defs>
  <g stroke-opacity="0.6" fill-opacity="0.6" stroke-linecap="round" transform="translate(100.04700742627213 70.91436876915475) rotate(0 194.1777801513672 62.65974426269531)"><path d="M0 0 L388.36 0 L388.36 125.32 L0 125.32" stroke="none" stroke-width="0" fill="#eaddd7"/><path d="M0 0 C94.89 0, 189.78 0, 388.36 0 M0 0 C139.3 0, 278.59 0, 388.36 0 M388.36 0 C388.36 37.31, 388.36 74.63, 388.36 125.32 M388.36 0 C388.36 45.85, 388.36 91.7, 388.36 125.32 M388.36 125.32 C310.21 125.32, 232.06 125.32, 0 125.32 M388.36 125.32 C307.51 125.32, 226.67 125.32, 0 125.32 M0 125.32 C0 86.41, 0 47.51, 0 0 M0 125.32 C0 78.42, 0 31.52, 0 0" stroke="#1e1e1e" stroke-width="4" fill="none"/></g><g stroke-linecap="round" transform="translate(283.7007938645662 130.86026219914768) rotate(0 8.04374023635971 11.068558686191793)"><path d="M16.09 11.07 C16.09 11.71, 16.05 12.36, 15.97 12.99 C15.88 13.62, 15.76 14.25, 15.6 14.85 C15.44 15.46, 15.24 16.05, 15.01 16.6 C14.78 17.16, 14.5 17.69, 14.21 18.18 C13.91 18.67, 13.57 19.14, 13.21 19.55 C12.86 19.96, 12.47 20.33, 12.07 20.65 C11.66 20.97, 11.23 21.25, 10.79 21.47 C10.36 21.69, 9.9 21.86, 9.44 21.97 C8.98 22.08, 8.51 22.14, 8.04 22.14 C7.58 22.14, 7.11 22.08, 6.65 21.97 C6.19 21.86, 5.73 21.69, 5.29 21.47 C4.86 21.25, 4.43 20.97, 4.02 20.65 C3.62 20.33, 3.23 19.96, 2.87 19.55 C2.52 19.14, 2.18 18.67, 1.88 18.18 C1.58 17.69, 1.31 17.16, 1.08 16.6 C0.84 16.05, 0.64 15.46, 0.49 14.85 C0.33 14.25, 0.2 13.62, 0.12 12.99 C0.04 12.36, 0 11.71, 0 11.07 C0 10.43, 0.04 9.78, 0.12 9.15 C0.2 8.52, 0.33 7.88, 0.49 7.28 C0.64 6.68, 0.84 6.09, 1.08 5.53 C1.31 4.98, 1.58 4.44, 1.88 3.95 C2.18 3.46, 2.52 3, 2.87 2.59 C3.23 2.18, 3.62 1.8, 4.02 1.48 C4.43 1.16, 4.86 0.89, 5.29 0.67 C5.73 0.45, 6.19 0.28, 6.65 0.17 C7.11 0.06, 7.58 0, 8.04 0 C8.51 0, 8.98 0.06, 9.44 0.17 C9.9 0.28, 10.36 0.45, 10.79 0.67 C11.23 0.89, 11.66 1.16, 12.07 1.48 C12.47 1.8, 12.86 2.18, 13.21 2.59 C13.57 3, 13.91 3.46, 14.21 3.95 C14.5 4.44, 14.78 4.98, 15.01 5.53 C15.24 6.09, 15.44 6.68, 15.6 7.28 C15.76 7.88, 15.88 8.52, 15.97 9.15 C16.05 9.78, 16.07 10.75, 16.09 11.07 C16.11 11.39, 16.11 10.75, 16.09 11.07" stroke="none" stroke-width="0" fill="#1e1e1e"/><path d="M16.09 11.07 C16.09 11.71, 16.05 12.36, 15.97 12.99 C15.88 13.62, 15.76 14.25, 15.6 14.85 C15.44 15.46, 15.24 16.05, 15.01 16.6 C14.78 17.16, 14.5 17.69, 14.21 18.18 C13.91 18.67, 13.57 19.14, 13.21 19.55 C12.86 19.96, 12.47 20.33, 12.07 20.65 C11.66 20.97, 11.23 21.25, 10.79 21.47 C10.36 21.69, 9.9 21.86, 9.44 21.97 C8.98 22.08, 8.51 22.14, 8.04 22.14 C7.58 22.14, 7.11 22.08, 6.65 21.97 C6.19 21.86, 5.73 21.69, 5.29 21.47 C4.86 21.25, 4.43 20.97, 4.02 20.65 C3.62 20.33, 3.23 19.96, 2.87 19.55 C2.52 19.14, 2.18 18.67, 1.88 18.18 C1.58 17.69, 1.31 17.16, 1.08 16.6 C0.84 16.05, 0.64 15.46, 0.49 14.85 C0.33 14.25, 0.2 13.62, 0.12 12.99 C0.04 12.36, 0 11.71, 0 11.07 C0 10.43, 0.04 9.78, 0.12 9.15 C0.2 8.52, 0.33 7.88, 0.49 7.28 C0.64 6.68, 0.84 6.09, 1.08 5.53 C1.31 4.98, 1.58 4.44, 1.88 3.95 C2.18 3.46, 2.52 3, 2.87 2.59 C3.23 2.18, 3.62 1.8, 4.02 1.48 C4.43 1.16, 4.86 0.89, 5.29 0.67 C5.73 0.45, 6.19 0.28, 6.65 0.17 C7.11 0.06, 7.58 0, 8.04 0 C8.51 0, 8.98 0.06, 9.44 0.17 C9.9 0.28, 10.36 0.45, 10.79 0.67 C11.23 0.89, 11.66 1.16, 12.07 1.48 C12.47 1.8, 12.86 2.18, 13.21 2.59 C13.57 3, 13.91 3.46, 14.21 3.95 C14.5 4.44, 14.78 4.98, 15.01 5.53 C15.24 6.09, 15.44 6.68, 15.6 7.28 C15.76 7.88, 15.88 8.52, 15.97 9.15 C16.05 9.78, 16.07 10.75, 16.09 11.07 C16.11 11.39, 16.11 10.75, 16.09 11.07" stroke="transparent" stroke-width="4" fill="none"/></g><g stroke-linecap="round"><g transform="translate(292.00910352519224 152.73934576198693) rotate(0 -1.4210854715202004e-14 10.37943943115323)"><path d="M0 0 C0 8.22, 0 16.45, 0 20.76 M0 0 C0 5.53, 0 11.05, 0 20.76" stroke="#1e1e1e" stroke-width="4" fill="none"/></g></g><mask/><g stroke-linecap="round"><g transform="translate(292.34210881268666 176.065222422803) rotate(0 4.937639234576892 8.552242023732674)"><path d="M0 0 C3.58 6.21, 7.17 12.41, 9.88 17.1 M0 0 C3.01 5.21, 6.01 10.42, 9.88 17.1" stroke="#1e1e1e" stroke-width="4" fill="none"/></g></g><mask/><g stroke-linecap="round"><g transform="translate(290.94244667873477 176.63419254370777) rotate(0 -4.98653280857252 8.636928178056735)"><path d="M0 0 C-3.31 5.74, -6.63 11.48, -9.97 17.27 M0 0 C-3.9 6.76, -7.81 13.53, -9.97 17.27" stroke="#1e1e1e" stroke-width="4" fill="none"/></g></g><mask/><g stroke-linecap="round"><g transform="translate(291.4539623629189 159.81246760064786) rotate(0 -4.622761710231387 4.622761710231387)"><path d="M0 0 C-2.84 2.84, -5.67 5.67, -9.25 9.25 M0 0 C-3.48 3.48, -6.96 6.96, -9.25 9.25" stroke="#1e1e1e" stroke-width="4" fill="none"/></g></g><mask/><g stroke-linecap="round"><g transform="translate(293.2941104176416 160.29813855659245) rotate(0 4.360251584238753 4.360251584238753)"><path d="M0 0 C3.11 3.11, 6.22 6.22, 8.72 8.72 M0 0 C1.97 1.97, 3.94 3.94, 8.72 8.72" stroke="#1e1e1e" stroke-width="4" fill="none"/></g></g><mask/><g stroke-linecap="round"><g transform="translate(512.2015077593617 15.97607813707421) rotate(23.47862919334685 21.041883811914687 71.05817376643573)" fill-rule="evenodd"><path d="M0 0 L-15.13 56.47 L28.29 56.47 L6.57 94.09 L21.28 94.09 L8.35 142.35 L44.97 78.92 L31.7 78.92 L52.19 43.44 L57.22 34.73 L22.56 34.73 L31.93 -0.23 L0 0" stroke="none" stroke-width="0" fill="#707000" fill-rule="evenodd"/><path d="M0 0 C-4.95 18.48, -9.9 36.96, -15.13 56.47 M0 0 C-5.07 18.94, -10.15 37.88, -15.13 56.47 M-15.13 56.47 C0.94 56.47, 17.01 56.47, 28.29 56.47 M-15.13 56.47 C-6.43 56.47, 2.26 56.47, 28.29 56.47 M28.29 56.47 C21.79 67.73, 15.29 78.99, 6.57 94.09 M28.29 56.47 C23.01 65.62, 17.72 74.77, 6.57 94.09 M6.57 94.09 C11.3 94.09, 16.02 94.09, 21.28 94.09 M6.57 94.09 C11.49 94.09, 16.41 94.09, 21.28 94.09 M21.28 94.09 C16.58 111.63, 11.88 129.16, 8.35 142.35 M21.28 94.09 C18.2 105.57, 15.13 117.05, 8.35 142.35 M8.35 142.35 C20.06 122.06, 31.78 101.77, 44.97 78.92 M8.35 142.35 C16.18 128.79, 24 115.23, 44.97 78.92 M44.97 78.92 C39.67 78.92, 34.36 78.92, 31.7 78.92 M44.97 78.92 C40.7 78.92, 36.42 78.92, 31.7 78.92 M31.7 78.92 C39.35 65.68, 46.99 52.43, 52.19 43.44 M31.7 78.92 C36.34 70.9, 40.97 62.87, 52.19 43.44 M52.19 43.44 C53.79 40.67, 55.39 37.89, 57.22 34.73 M52.19 43.44 C53.67 40.88, 55.15 38.31, 57.22 34.73 M57.22 34.73 C47.9 34.73, 38.59 34.73, 22.56 34.73 M57.22 34.73 C50.11 34.73, 43 34.73, 22.56 34.73 M22.56 34.73 C25.92 22.18, 29.29 9.63, 31.93 -0.23 M22.56 34.73 C24.88 26.05, 27.21 17.37, 31.93 -0.23 M31.93 -0.23 C23.2 -0.17, 14.48 -0.1, 0 0 M31.93 -0.23 C21.41 -0.15, 10.89 -0.08, 0 0 M0 0 C0 0, 0 0, 0 0 M0 0 C0 0, 0 0, 0 0" stroke="transparent" stroke-width="4" fill="none"/></g></g><mask/><g stroke-linecap="round"><g transform="translate(78.69329277162885 12.50023779887755) rotate(336.5213708066532 -21.0418838119147 71.05817376643577)" fill-rule="evenodd"><path d="M0 0 L15.13 56.47 L-28.29 56.47 L-6.57 94.09 L-21.28 94.09 L-8.35 142.35 L-44.97 78.92 L-31.7 78.92 L-52.19 43.44 L-57.22 34.73 L-22.56 34.73 L-31.93 -0.23 L0 0" stroke="none" stroke-width="0" fill="#707000" fill-rule="evenodd"/><path d="M0 0 C5.1 19.05, 10.21 38.09, 15.13 56.47 M0 0 C3.38 12.6, 6.75 25.21, 15.13 56.47 M15.13 56.47 C0.33 56.47, -14.46 56.47, -28.29 56.47 M15.13 56.47 C-0.61 56.47, -16.34 56.47, -28.29 56.47 M-28.29 56.47 C-22.05 67.27, -15.82 78.07, -6.57 94.09 M-28.29 56.47 C-22.48 66.54, -16.66 76.61, -6.57 94.09 M-6.57 94.09 C-9.65 94.09, -12.74 94.09, -21.28 94.09 M-6.57 94.09 C-10.97 94.09, -15.37 94.09, -21.28 94.09 M-21.28 94.09 C-17.49 108.22, -13.71 122.34, -8.35 142.35 M-21.28 94.09 C-18.32 105.13, -15.36 116.17, -8.35 142.35 M-8.35 142.35 C-18.31 125.09, -28.27 107.84, -44.97 78.92 M-8.35 142.35 C-22.49 117.85, -36.64 93.35, -44.97 78.92 M-44.97 78.92 C-40.46 78.92, -35.95 78.92, -31.7 78.92 M-44.97 78.92 C-40.9 78.92, -36.84 78.92, -31.7 78.92 M-31.7 78.92 C-38.84 66.56, -45.97 54.21, -52.19 43.44 M-31.7 78.92 C-37.35 69.13, -43.01 59.34, -52.19 43.44 M-52.19 43.44 C-53.75 40.74, -55.31 38.04, -57.22 34.73 M-52.19 43.44 C-54.1 40.13, -56.01 36.82, -57.22 34.73 M-57.22 34.73 C-50.12 34.73, -43.02 34.73, -22.56 34.73 M-57.22 34.73 C-48.55 34.73, -39.89 34.73, -22.56 34.73 M-22.56 34.73 C-25.18 24.96, -27.79 15.19, -31.93 -0.23 M-22.56 34.73 C-25.45 23.93, -28.34 13.14, -31.93 -0.23 M-31.93 -0.23 C-23.84 -0.17, -15.76 -0.11, 0 0 M-31.93 -0.23 C-21.72 -0.16, -11.51 -0.08, 0 0 M0 0 C0 0, 0 0, 0 0 M0 0 C0 0, 0 0, 0 0" stroke="transparent" stroke-width="4" fill="none"/></g></g><mask/><g stroke-linecap="round" transform="translate(449.14770145747224 184.65964671446608) rotate(0 12.739907948239136 12.739907948239136)"><path d="M25.48 12.74 C25.48 13.48, 25.41 14.23, 25.29 14.95 C25.16 15.68, 24.96 16.4, 24.71 17.1 C24.46 17.79, 24.14 18.47, 23.77 19.11 C23.4 19.75, 22.97 20.36, 22.5 20.93 C22.03 21.49, 21.49 22.03, 20.93 22.5 C20.36 22.97, 19.75 23.4, 19.11 23.77 C18.47 24.14, 17.79 24.46, 17.1 24.71 C16.4 24.96, 15.68 25.16, 14.95 25.29 C14.23 25.41, 13.48 25.48, 12.74 25.48 C12 25.48, 11.25 25.41, 10.53 25.29 C9.8 25.16, 9.08 24.96, 8.38 24.71 C7.69 24.46, 7.01 24.14, 6.37 23.77 C5.73 23.4, 5.12 22.97, 4.55 22.5 C3.99 22.03, 3.45 21.49, 2.98 20.93 C2.51 20.36, 2.08 19.75, 1.71 19.11 C1.34 18.47, 1.02 17.79, 0.77 17.1 C0.52 16.4, 0.32 15.68, 0.19 14.95 C0.07 14.23, 0 13.48, 0 12.74 C0 12, 0.07 11.25, 0.19 10.53 C0.32 9.8, 0.52 9.08, 0.77 8.38 C1.02 7.69, 1.34 7.01, 1.71 6.37 C2.08 5.73, 2.51 5.12, 2.98 4.55 C3.45 3.99, 3.99 3.45, 4.55 2.98 C5.12 2.51, 5.73 2.08, 6.37 1.71 C7.01 1.34, 7.69 1.02, 8.38 0.77 C9.08 0.52, 9.8 0.32, 10.53 0.19 C11.25 0.07, 12 0, 12.74 0 C13.48 0, 14.23 0.07, 14.95 0.19 C15.68 0.32, 16.4 0.52, 17.1 0.77 C17.79 1.02, 18.47 1.34, 19.11 1.71 C19.75 2.08, 20.36 2.51, 20.93 2.98 C21.49 3.45, 22.03 3.99, 22.5 4.55 C22.97 5.12, 23.4 5.73, 23.77 6.37 C24.14 7.01, 24.46 7.69, 24.71 8.38 C24.96 9.08, 25.16 9.8, 25.29 10.53 C25.41 11.25, 25.45 12.37, 25.48 12.74 C25.51 13.11, 25.51 12.37, 25.48 12.74" stroke="none" stroke-width="0" fill="#ffffff"/><path d="M25.48 12.74 C25.48 13.48, 25.41 14.23, 25.29 14.95 C25.16 15.68, 24.96 16.4, 24.71 17.1 C24.46 17.79, 24.14 18.47, 23.77 19.11 C23.4 19.75, 22.97 20.36, 22.5 20.93 C22.03 21.49, 21.49 22.03, 20.93 22.5 C20.36 22.97, 19.75 23.4, 19.11 23.77 C18.47 24.14, 17.79 24.46, 17.1 24.71 C16.4 24.96, 15.68 25.16, 14.95 25.29 C14.23 25.41, 13.48 25.48, 12.74 25.48 C12 25.48, 11.25 25.41, 10.53 25.29 C9.8 25.16, 9.08 24.96, 8.38 24.71 C7.69 24.46, 7.01 24.14, 6.37 23.77 C5.73 23.4, 5.12 22.97, 4.55 22.5 C3.99 22.03, 3.45 21.49, 2.98 20.93 C2.51 20.36, 2.08 19.75, 1.71 19.11 C1.34 18.47, 1.02 17.79, 0.77 17.1 C0.52 16.4, 0.32 15.68, 0.19 14.95 C0.07 14.23, 0 13.48, 0 12.74 C0 12, 0.07 11.25, 0.19 10.53 C0.32 9.8, 0.52 9.08, 0.77 8.38 C1.02 7.69, 1.34 7.01, 1.71 6.37 C2.08 5.73, 2.51 5.12, 2.98 4.55 C3.45 3.99, 3.99 3.45, 4.55 2.98 C5.12 2.51, 5.73 2.08, 6.37 1.71 C7.01 1.34, 7.69 1.02, 8.38 0.77 C9.08 0.52, 9.8 0.32, 10.53 0.19 C11.25 0.07, 12 0, 12.74 0 C13.48 0, 14.23 0.07, 14.95 0.19 C15.68 0.32, 16.4 0.52, 17.1 0.77 C17.79 1.02, 18.47 1.34, 19.11 1.71 C19.75 2.08, 20.36 2.51, 20.93 2.98 C21.49 3.45, 22.03 3.99, 22.5 4.55 C22.97 5.12, 23.4 5.73, 23.77 6.37 C24.14 7.01, 24.46 7.69, 24.71 8.38 C24.96 9.08, 25.16 9.8, 25.29 10.53 C25.41 11.25, 25.45 12.37, 25.48 12.74 C25.51 13.11, 25.51 12.37, 25.48 12.74" stroke="#1e1e1e" stroke-width="2" fill="none"/></g><g stroke-linecap="round" transform="translate(117.02957692134278 182.67706595039215) rotate(0 12.739907948239136 12.739907948239136)"><path d="M25.48 12.74 C25.48 13.48, 25.41 14.23, 25.29 14.95 C25.16 15.68, 24.96 16.4, 24.71 17.1 C24.46 17.79, 24.14 18.47, 23.77 19.11 C23.4 19.75, 22.97 20.36, 22.5 20.93 C22.03 21.49, 21.49 22.03, 20.93 22.5 C20.36 22.97, 19.75 23.4, 19.11 23.77 C18.47 24.14, 17.79 24.46, 17.1 24.71 C16.4 24.96, 15.68 25.16, 14.95 25.29 C14.23 25.41, 13.48 25.48, 12.74 25.48 C12 25.48, 11.25 25.41, 10.53 25.29 C9.8 25.16, 9.08 24.96, 8.38 24.71 C7.69 24.46, 7.01 24.14, 6.37 23.77 C5.73 23.4, 5.12 22.97, 4.55 22.5 C3.99 22.03, 3.45 21.49, 2.98 20.93 C2.51 20.36, 2.08 19.75, 1.71 19.11 C1.34 18.47, 1.02 17.79, 0.77 17.1 C0.52 16.4, 0.32 15.68, 0.19 14.95 C0.07 14.23, 0 13.48, 0 12.74 C0 12, 0.07 11.25, 0.19 10.53 C0.32 9.8, 0.52 9.08, 0.77 8.38 C1.02 7.69, 1.34 7.01, 1.71 6.37 C2.08 5.73, 2.51 5.12, 2.98 4.55 C3.45 3.99, 3.99 3.45, 4.55 2.98 C5.12 2.51, 5.73 2.08, 6.37 1.71 C7.01 1.34, 7.69 1.02, 8.38 0.77 C9.08 0.52, 9.8 0.32, 10.53 0.19 C11.25 0.07, 12 0, 12.74 0 C13.48 0, 14.23 0.07, 14.95 0.19 C15.68 0.32, 16.4 0.52, 17.1 0.77 C17.79 1.02, 18.47 1.34, 19.11 1.71 C19.75 2.08, 20.36 2.51, 20.93 2.98 C21.49 3.45, 22.03 3.99, 22.5 4.55 C22.97 5.12, 23.4 5.73, 23.77 6.37 C24.14 7.01, 24.46 7.69, 24.71 8.38 C24.96 9.08, 25.16 9.8, 25.29 10.53 C25.41 11.25, 25.45 12.37, 25.48 12.74 C25.51 13.11, 25.51 12.37, 25.48 12.74" stroke="none" stroke-width="0" fill="#ffffff"/><path d="M25.48 12.74 C25.48 13.48, 25.41 14.23, 25.29 14.95 C25.16 15.68, 24.96 16.4, 24.71 17.1 C24.46 17.79, 24.14 18.47, 23.77 19.11 C23.4 19.75, 22.97 20.36, 22.5 20.93 C22.03 21.49, 21.49 22.03, 20.93 22.5 C20.36 22.97, 19.75 23.4, 19.11 23.77 C18.47 24.14, 17.79 24.46, 17.1 24.71 C16.4 24.96, 15.68 25.16, 14.95 25.29 C14.23 25.41, 13.48 25.48, 12.74 25.48 C12 25.48, 11.25 25.41, 10.53 25.29 C9.8 25.16, 9.08 24.96, 8.38 24.71 C7.69 24.46, 7.01 24.14, 6.37 23.77 C5.73 23.4, 5.12 22.97, 4.55 22.5 C3.99 22.03, 3.45 21.49, 2.98 20.93 C2.51 20.36, 2.08 19.75, 1.71 19.11 C1.34 18.47, 1.02 17.79, 0.77 17.1 C0.52 16.4, 0.32 15.68, 0.19 14.95 C0.07 14.23, 0 13.48, 0 12.74 C0 12, 0.07 11.25, 0.19 10.53 C0.32 9.8, 0.52 9.08, 0.77 8.38 C1.02 7.69, 1.34 7.01, 1.71 6.37 C2.08 5.73, 2.51 5.12, 2.98 4.55 C3.45 3.99, 3.99 3.45, 4.55 2.98 C5.12 2.51, 5.73 2.08, 6.37 1.71 C7.01 1.34, 7.69 1.02, 8.38 0.77 C9.08 0.52, 9.8 0.32, 10.53 0.19 C11.25 0.07, 12 0, 12.74 0 C13.48 0, 14.23 0.07, 14.95 0.19 C15.68 0.32, 16.4 0.52, 17.1 0.77 C17.79 1.02, 18.47 1.34, 19.11 1.71 C19.75 2.08, 20.36 2.51, 20.93 2.98 C21.49 3.45, 22.03 3.99, 22.5 4.55 C22.97 5.12, 23.4 5.73, 23.77 6.37 C24.14 7.01, 24.46 7.69, 24.71 8.38 C24.96 9.08, 25.16 9.8, 25.29 10.53 C25.41 11.25, 25.45 12.37, 25.48 12.74 C25.51 13.11, 25.51 12.37, 25.48 12.74" stroke="#1e1e1e" stroke-width="2" fill="none"/></g><g stroke-linecap="round" transform="translate(100.5158797681753 135.1897054281587) rotate(0 7.620449298938031 7.620449298938031)"><path d="M15.24 7.62 C15.24 8.06, 15.2 8.51, 15.13 8.94 C15.05 9.38, 14.93 9.81, 14.78 10.23 C14.63 10.64, 14.44 11.05, 14.22 11.43 C14 11.81, 13.74 12.18, 13.46 12.52 C13.17 12.86, 12.86 13.17, 12.52 13.46 C12.18 13.74, 11.81 14, 11.43 14.22 C11.05 14.44, 10.64 14.63, 10.23 14.78 C9.81 14.93, 9.38 15.05, 8.94 15.13 C8.51 15.2, 8.06 15.24, 7.62 15.24 C7.18 15.24, 6.73 15.2, 6.3 15.13 C5.86 15.05, 5.43 14.93, 5.01 14.78 C4.6 14.63, 4.19 14.44, 3.81 14.22 C3.43 14, 3.06 13.74, 2.72 13.46 C2.38 13.17, 2.07 12.86, 1.78 12.52 C1.5 12.18, 1.24 11.81, 1.02 11.43 C0.8 11.05, 0.61 10.64, 0.46 10.23 C0.31 9.81, 0.19 9.38, 0.12 8.94 C0.04 8.51, 0 8.06, 0 7.62 C0 7.18, 0.04 6.73, 0.12 6.3 C0.19 5.86, 0.31 5.43, 0.46 5.01 C0.61 4.6, 0.8 4.19, 1.02 3.81 C1.24 3.43, 1.5 3.06, 1.78 2.72 C2.07 2.38, 2.38 2.07, 2.72 1.78 C3.06 1.5, 3.43 1.24, 3.81 1.02 C4.19 0.8, 4.6 0.61, 5.01 0.46 C5.43 0.31, 5.86 0.19, 6.3 0.12 C6.73 0.04, 7.18 0, 7.62 0 C8.06 0, 8.51 0.04, 8.94 0.12 C9.38 0.19, 9.81 0.31, 10.23 0.46 C10.64 0.61, 11.05 0.8, 11.43 1.02 C11.81 1.24, 12.18 1.5, 12.52 1.78 C12.86 2.07, 13.17 2.38, 13.46 2.72 C13.74 3.06, 14 3.43, 14.22 3.81 C14.44 4.19, 14.63 4.6, 14.78 5.01 C14.93 5.43, 15.05 5.86, 15.13 6.3 C15.2 6.73, 15.22 7.4, 15.24 7.62 C15.26 7.84, 15.26 7.4, 15.24 7.62" stroke="none" stroke-width="0" fill="#707000"/><path d="M15.24 7.62 C15.24 8.06, 15.2 8.51, 15.13 8.94 C15.05 9.38, 14.93 9.81, 14.78 10.23 C14.63 10.64, 14.44 11.05, 14.22 11.43 C14 11.81, 13.74 12.18, 13.46 12.52 C13.17 12.86, 12.86 13.17, 12.52 13.46 C12.18 13.74, 11.81 14, 11.43 14.22 C11.05 14.44, 10.64 14.63, 10.23 14.78 C9.81 14.93, 9.38 15.05, 8.94 15.13 C8.51 15.2, 8.06 15.24, 7.62 15.24 C7.18 15.24, 6.73 15.2, 6.3 15.13 C5.86 15.05, 5.43 14.93, 5.01 14.78 C4.6 14.63, 4.19 14.44, 3.81 14.22 C3.43 14, 3.06 13.74, 2.72 13.46 C2.38 13.17, 2.07 12.86, 1.78 12.52 C1.5 12.18, 1.24 11.81, 1.02 11.43 C0.8 11.05, 0.61 10.64, 0.46 10.23 C0.31 9.81, 0.19 9.38, 0.12 8.94 C0.04 8.51, 0 8.06, 0 7.62 C0 7.18, 0.04 6.73, 0.12 6.3 C0.19 5.86, 0.31 5.43, 0.46 5.01 C0.61 4.6, 0.8 4.19, 1.02 3.81 C1.24 3.43, 1.5 3.06, 1.78 2.72 C2.07 2.38, 2.38 2.07, 2.72 1.78 C3.06 1.5, 3.43 1.24, 3.81 1.02 C4.19 0.8, 4.6 0.61, 5.01 0.46 C5.43 0.31, 5.86 0.19, 6.3 0.12 C6.73 0.04, 7.18 0, 7.62 0 C8.06 0, 8.51 0.04, 8.94 0.12 C9.38 0.19, 9.81 0.31, 10.23 0.46 C10.64 0.61, 11.05 0.8, 11.43 1.02 C11.81 1.24, 12.18 1.5, 12.52 1.78 C12.86 2.07, 13.17 2.38, 13.46 2.72 C13.74 3.06, 14 3.43, 14.22 3.81 C14.44 4.19, 14.63 4.6, 14.78 5.01 C14.93 5.43, 15.05 5.86, 15.13 6.3 C15.2 6.73, 15.22 7.4, 15.24 7.62 C15.26 7.84, 15.26 7.4, 15.24 7.62" stroke="transparent" stroke-width="2.5" fill="none" stroke-dasharray="1.5 8"/></g><g stroke-linecap="round" transform="translate(469.99278143248245 133.9934301485535) rotate(0 7.620449298938041 7.620449298938031)"><path d="M15.24 7.62 C15.24 8.06, 15.2 8.51, 15.13 8.94 C15.05 9.38, 14.93 9.81, 14.78 10.23 C14.63 10.64, 14.44 11.05, 14.22 11.43 C14 11.81, 13.74 12.18, 13.46 12.52 C13.17 12.86, 12.86 13.17, 12.52 13.46 C12.18 13.74, 11.81 14, 11.43 14.22 C11.05 14.44, 10.64 14.63, 10.23 14.78 C9.81 14.93, 9.38 15.05, 8.94 15.13 C8.51 15.2, 8.06 15.24, 7.62 15.24 C7.18 15.24, 6.73 15.2, 6.3 15.13 C5.86 15.05, 5.43 14.93, 5.01 14.78 C4.6 14.63, 4.19 14.44, 3.81 14.22 C3.43 14, 3.06 13.74, 2.72 13.46 C2.38 13.17, 2.07 12.86, 1.78 12.52 C1.5 12.18, 1.24 11.81, 1.02 11.43 C0.8 11.05, 0.61 10.64, 0.46 10.23 C0.31 9.81, 0.19 9.38, 0.12 8.94 C0.04 8.51, 0 8.06, 0 7.62 C0 7.18, 0.04 6.73, 0.12 6.3 C0.19 5.86, 0.31 5.43, 0.46 5.01 C0.61 4.6, 0.8 4.19, 1.02 3.81 C1.24 3.43, 1.5 3.06, 1.78 2.72 C2.07 2.38, 2.38 2.07, 2.72 1.78 C3.06 1.5, 3.43 1.24, 3.81 1.02 C4.19 0.8, 4.6 0.61, 5.01 0.46 C5.43 0.31, 5.86 0.19, 6.3 0.12 C6.73 0.04, 7.18 0, 7.62 0 C8.06 0, 8.51 0.04, 8.94 0.12 C9.38 0.19, 9.81 0.31, 10.23 0.46 C10.64 0.61, 11.05 0.8, 11.43 1.02 C11.81 1.24, 12.18 1.5, 12.52 1.78 C12.86 2.07, 13.17 2.38, 13.46 2.72 C13.74 3.06, 14 3.43, 14.22 3.81 C14.44 4.19, 14.63 4.6, 14.78 5.01 C14.93 5.43, 15.05 5.86, 15.13 6.3 C15.2 6.73, 15.22 7.4, 15.24 7.62 C15.26 7.84, 15.26 7.4, 15.24 7.62" stroke="none" stroke-width="0" fill="#707000"/><path d="M15.24 7.62 C15.24 8.06, 15.2 8.51, 15.13 8.94 C15.05 9.38, 14.93 9.81, 14.78 10.23 C14.63 10.64, 14.44 11.05, 14.22 11.43 C14 11.81, 13.74 12.18, 13.46 12.52 C13.17 12.86, 12.86 13.17, 12.52 13.46 C12.18 13.74, 11.81 14, 11.43 14.22 C11.05 14.44, 10.64 14.63, 10.23 14.78 C9.81 14.93, 9.38 15.05, 8.94 15.13 C8.51 15.2, 8.06 15.24, 7.62 15.24 C7.18 15.24, 6.73 15.2, 6.3 15.13 C5.86 15.05, 5.43 14.93, 5.01 14.78 C4.6 14.63, 4.19 14.44, 3.81 14.22 C3.43 14, 3.06 13.74, 2.72 13.46 C2.38 13.17, 2.07 12.86, 1.78 12.52 C1.5 12.18, 1.24 11.81, 1.02 11.43 C0.8 11.05, 0.61 10.64, 0.46 10.23 C0.31 9.81, 0.19 9.38, 0.12 8.94 C0.04 8.51, 0 8.06, 0 7.62 C0 7.18, 0.04 6.73, 0.12 6.3 C0.19 5.86, 0.31 5.43, 0.46 5.01 C0.61 4.6, 0.8 4.19, 1.02 3.81 C1.24 3.43, 1.5 3.06, 1.78 2.72 C2.07 2.38, 2.38 2.07, 2.72 1.78 C3.06 1.5, 3.43 1.24, 3.81 1.02 C4.19 0.8, 4.6 0.61, 5.01 0.46 C5.43 0.31, 5.86 0.19, 6.3 0.12 C6.73 0.04, 7.18 0, 7.62 0 C8.06 0, 8.51 0.04, 8.94 0.12 C9.38 0.19, 9.81 0.31, 10.23 0.46 C10.64 0.61, 11.05 0.8, 11.43 1.02 C11.81 1.24, 12.18 1.5, 12.52 1.78 C12.86 2.07, 13.17 2.38, 13.46 2.72 C13.74 3.06, 14 3.43, 14.22 3.81 C14.44 4.19, 14.63 4.6, 14.78 5.01 C14.93 5.43, 15.05 5.86, 15.13 6.3 C15.2 6.73, 15.22 7.4, 15.24 7.62 C15.26 7.84, 15.26 7.4, 15.24 7.62" stroke="transparent" stroke-width="2.5" fill="none" stroke-dasharray="1.5 8"/></g><g stroke-opacity="0.6" fill-opacity="0.6" stroke-linecap="round" transform="translate(136.35688012342285 350.7230296200749) rotate(0 194.1777801513672 62.65974426269531)"><path d="M0 0 L388.36 0 L388.36 125.32 L0 125.32" stroke="none" stroke-width="0" fill="#eaddd7"/><path d="M0 0 C86.28 0, 172.56 0, 388.36 0 M0 0 C96.69 0, 193.39 0, 388.36 0 M388.36 0 C388.36 31.13, 388.36 62.26, 388.36 125.32 M388.36 0 C388.36 45.81, 388.36 91.62, 388.36 125.32 M388.36 125.32 C291.88 125.32, 195.4 125.32, 0 125.32 M388.36 125.32 C250.45 125.32, 112.54 125.32, 0 125.32 M0 125.32 C0 88.01, 0 50.69, 0 0 M0 125.32 C0 79.83, 0 34.34, 0 0" stroke="#1e1e1e" stroke-width="4" fill="none"/></g><g stroke-linecap="round" transform="translate(320.0106665617169 410.66892305006786) rotate(0 8.043740236359724 11.068558686191793)"><path d="M16.09 11.07 C16.09 11.71, 16.05 12.36, 15.97 12.99 C15.88 13.62, 15.76 14.25, 15.6 14.85 C15.44 15.46, 15.24 16.05, 15.01 16.6 C14.78 17.16, 14.5 17.69, 14.21 18.18 C13.91 18.67, 13.57 19.14, 13.21 19.55 C12.86 19.96, 12.47 20.33, 12.07 20.65 C11.66 20.97, 11.23 21.25, 10.79 21.47 C10.36 21.69, 9.9 21.86, 9.44 21.97 C8.98 22.08, 8.51 22.14, 8.04 22.14 C7.58 22.14, 7.11 22.08, 6.65 21.97 C6.19 21.86, 5.73 21.69, 5.29 21.47 C4.86 21.25, 4.43 20.97, 4.02 20.65 C3.62 20.33, 3.23 19.96, 2.87 19.55 C2.52 19.14, 2.18 18.67, 1.88 18.18 C1.58 17.69, 1.31 17.16, 1.08 16.6 C0.84 16.05, 0.64 15.46, 0.49 14.85 C0.33 14.25, 0.2 13.62, 0.12 12.99 C0.04 12.36, 0 11.71, 0 11.07 C0 10.43, 0.04 9.78, 0.12 9.15 C0.2 8.52, 0.33 7.88, 0.49 7.28 C0.64 6.68, 0.84 6.09, 1.08 5.53 C1.31 4.98, 1.58 4.44, 1.88 3.95 C2.18 3.46, 2.52 3, 2.87 2.59 C3.23 2.18, 3.62 1.8, 4.02 1.48 C4.43 1.16, 4.86 0.89, 5.29 0.67 C5.73 0.45, 6.19 0.28, 6.65 0.17 C7.11 0.06, 7.58 0, 8.04 0 C8.51 0, 8.98 0.06, 9.44 0.17 C9.9 0.28, 10.36 0.45, 10.79 0.67 C11.23 0.89, 11.66 1.16, 12.07 1.48 C12.47 1.8, 12.86 2.18, 13.21 2.59 C13.57 3, 13.91 3.46, 14.21 3.95 C14.5 4.44, 14.78 4.98, 15.01 5.53 C15.24 6.09, 15.44 6.68, 15.6 7.28 C15.76 7.88, 15.88 8.52, 15.97 9.15 C16.05 9.78, 16.07 10.75, 16.09 11.07 C16.11 11.39, 16.11 10.75, 16.09 11.07" stroke="none" stroke-width="0" fill="#1e1e1e"/><path d="M16.09 11.07 C16.09 11.71, 16.05 12.36, 15.97 12.99 C15.88 13.62, 15.76 14.25, 15.6 14.85 C15.44 15.46, 15.24 16.05, 15.01 16.6 C14.78 17.16, 14.5 17.69, 14.21 18.18 C13.91 18.67, 13.57 19.14, 13.21 19.55 C12.86 19.96, 12.47 20.33, 12.07 20.65 C11.66 20.97, 11.23 21.25, 10.79 21.47 C10.36 21.69, 9.9 21.86, 9.44 21.97 C8.98 22.08, 8.51 22.14, 8.04 22.14 C7.58 22.14, 7.11 22.08, 6.65 21.97 C6.19 21.86, 5.73 21.69, 5.29 21.47 C4.86 21.25, 4.43 20.97, 4.02 20.65 C3.62 20.33, 3.23 19.96, 2.87 19.55 C2.52 19.14, 2.18 18.67, 1.88 18.18 C1.58 17.69, 1.31 17.16, 1.08 16.6 C0.84 16.05, 0.64 15.46, 0.49 14.85 C0.33 14.25, 0.2 13.62, 0.12 12.99 C0.04 12.36, 0 11.71, 0 11.07 C0 10.43, 0.04 9.78, 0.12 9.15 C0.2 8.52, 0.33 7.88, 0.49 7.28 C0.64 6.68, 0.84 6.09, 1.08 5.53 C1.31 4.98, 1.58 4.44, 1.88 3.95 C2.18 3.46, 2.52 3, 2.87 2.59 C3.23 2.18, 3.62 1.8, 4.02 1.48 C4.43 1.16, 4.86 0.89, 5.29 0.67 C5.73 0.45, 6.19 0.28, 6.65 0.17 C7.11 0.06, 7.58 0, 8.04 0 C8.51 0, 8.98 0.06, 9.44 0.17 C9.9 0.28, 10.36 0.45, 10.79 0.67 C11.23 0.89, 11.66 1.16, 12.07 1.48 C12.47 1.8, 12.86 2.18, 13.21 2.59 C13.57 3, 13.91 3.46, 14.21 3.95 C14.5 4.44, 14.78 4.98, 15.01 5.53 C15.24 6.09, 15.44 6.68, 15.6 7.28 C15.76 7.88, 15.88 8.52, 15.97 9.15 C16.05 9.78, 16.07 10.75, 16.09 11.07 C16.11 11.39, 16.11 10.75, 16.09 11.07" stroke="transparent" stroke-width="4" fill="none"/></g><g stroke-linecap="round"><g transform="translate(328.31897622234294 432.5480066129071) rotate(0 0 10.37943943115323)"><path d="M0 0 C0 7.07, 0 14.14, 0 20.76 M0 0 C0 8.1, 0 16.2, 0 20.76" stroke="#1e1e1e" stroke-width="4" fill="none"/></g></g><mask/><g stroke-linecap="round"><g transform="translate(328.65198150983736 455.87388327372315) rotate(0 4.937639234576892 8.552242023732674)"><path d="M0 0 C2.15 3.72, 4.29 7.43, 9.88 17.1 M0 0 C2.6 4.51, 5.21 9.02, 9.88 17.1" stroke="#1e1e1e" stroke-width="4" fill="none"/></g></g><mask/><g stroke-linecap="round"><g transform="translate(327.25231937588535 456.44285339462795) rotate(0 -4.98653280857252 8.636928178056735)"><path d="M0 0 C-2.68 4.64, -5.36 9.29, -9.97 17.27 M0 0 C-3.03 5.25, -6.06 10.5, -9.97 17.27" stroke="#1e1e1e" stroke-width="4" fill="none"/></g></g><mask/><g stroke-linecap="round"><g transform="translate(327.7638350600695 439.62112845156804) rotate(0 -4.622761710231401 4.622761710231387)"><path d="M0 0 C-2.42 2.42, -4.84 4.84, -9.25 9.25 M0 0 C-2.76 2.76, -5.51 5.51, -9.25 9.25" stroke="#1e1e1e" stroke-width="4" fill="none"/></g></g><mask/><g stroke-linecap="round"><g transform="translate(329.6039831147922 440.1067994075126) rotate(0 4.360251584238739 4.360251584238753)"><path d="M0 0 C2.88 2.88, 5.76 5.76, 8.72 8.72 M0 0 C2.2 2.2, 4.39 4.39, 8.72 8.72" stroke="#1e1e1e" stroke-width="4" fill="none"/></g></g><mask/><g stroke-linecap="round" transform="translate(485.45757415462293 464.4683075653862) rotate(0 12.739907948239136 12.739907948239136)"><path d="M25.48 12.74 C25.48 13.48, 25.41 14.23, 25.29 14.95 C25.16 15.68, 24.96 16.4, 24.71 17.1 C24.46 17.79, 24.14 18.47, 23.77 19.11 C23.4 19.75, 22.97 20.36, 22.5 20.93 C22.03 21.49, 21.49 22.03, 20.93 22.5 C20.36 22.97, 19.75 23.4, 19.11 23.77 C18.47 24.14, 17.79 24.46, 17.1 24.71 C16.4 24.96, 15.68 25.16, 14.95 25.29 C14.23 25.41, 13.48 25.48, 12.74 25.48 C12 25.48, 11.25 25.41, 10.53 25.29 C9.8 25.16, 9.08 24.96, 8.38 24.71 C7.69 24.46, 7.01 24.14, 6.37 23.77 C5.73 23.4, 5.12 22.97, 4.55 22.5 C3.99 22.03, 3.45 21.49, 2.98 20.93 C2.51 20.36, 2.08 19.75, 1.71 19.11 C1.34 18.47, 1.02 17.79, 0.77 17.1 C0.52 16.4, 0.32 15.68, 0.19 14.95 C0.07 14.23, 0 13.48, 0 12.74 C0 12, 0.07 11.25, 0.19 10.53 C0.32 9.8, 0.52 9.08, 0.77 8.38 C1.02 7.69, 1.34 7.01, 1.71 6.37 C2.08 5.73, 2.51 5.12, 2.98 4.55 C3.45 3.99, 3.99 3.45, 4.55 2.98 C5.12 2.51, 5.73 2.08, 6.37 1.71 C7.01 1.34, 7.69 1.02, 8.38 0.77 C9.08 0.52, 9.8 0.32, 10.53 0.19 C11.25 0.07, 12 0, 12.74 0 C13.48 0, 14.23 0.07, 14.95 0.19 C15.68 0.32, 16.4 0.52, 17.1 0.77 C17.79 1.02, 18.47 1.34, 19.11 1.71 C19.75 2.08, 20.36 2.51, 20.93 2.98 C21.49 3.45, 22.03 3.99, 22.5 4.55 C22.97 5.12, 23.4 5.73, 23.77 6.37 C24.14 7.01, 24.46 7.69, 24.71 8.38 C24.96 9.08, 25.16 9.8, 25.29 10.53 C25.41 11.25, 25.45 12.37, 25.48 12.74 C25.51 13.11, 25.51 12.37, 25.48 12.74" stroke="none" stroke-width="0" fill="#ffffff"/><path d="M25.48 12.74 C25.48 13.48, 25.41 14.23, 25.29 14.95 C25.16 15.68, 24.96 16.4, 24.71 17.1 C24.46 17.79, 24.14 18.47, 23.77 19.11 C23.4 19.75, 22.97 20.36, 22.5 20.93 C22.03 21.49, 21.49 22.03, 20.93 22.5 C20.36 22.97, 19.75 23.4, 19.11 23.77 C18.47 24.14, 17.79 24.46, 17.1 24.71 C16.4 24.96, 15.68 25.16, 14.95 25.29 C14.23 25.41, 13.48 25.48, 12.74 25.48 C12 25.48, 11.25 25.41, 10.53 25.29 C9.8 25.16, 9.08 24.96, 8.38 24.71 C7.69 24.46, 7.01 24.14, 6.37 23.77 C5.73 23.4, 5.12 22.97, 4.55 22.5 C3.99 22.03, 3.45 21.49, 2.98 20.93 C2.51 20.36, 2.08 19.75, 1.71 19.11 C1.34 18.47, 1.02 17.79, 0.77 17.1 C0.52 16.4, 0.32 15.68, 0.19 14.95 C0.07 14.23, 0 13.48, 0 12.74 C0 12, 0.07 11.25, 0.19 10.53 C0.32 9.8, 0.52 9.08, 0.77 8.38 C1.02 7.69, 1.34 7.01, 1.71 6.37 C2.08 5.73, 2.51 5.12, 2.98 4.55 C3.45 3.99, 3.99 3.45, 4.55 2.98 C5.12 2.51, 5.73 2.08, 6.37 1.71 C7.01 1.34, 7.69 1.02, 8.38 0.77 C9.08 0.52, 9.8 0.32, 10.53 0.19 C11.25 0.07, 12 0, 12.74 0 C13.48 0, 14.23 0.07, 14.95 0.19 C15.68 0.32, 16.4 0.52, 17.1 0.77 C17.79 1.02, 18.47 1.34, 19.11 1.71 C19.75 2.08, 20.36 2.51, 20.93 2.98 C21.49 3.45, 22.03 3.99, 22.5 4.55 C22.97 5.12, 23.4 5.73, 23.77 6.37 C24.14 7.01, 24.46 7.69, 24.71 8.38 C24.96 9.08, 25.16 9.8, 25.29 10.53 C25.41 11.25, 25.45 12.37, 25.48 12.74 C25.51 13.11, 25.51 12.37, 25.48 12.74" stroke="#1e1e1e" stroke-width="2" fill="none"/></g><g stroke-linecap="round" transform="translate(153.33944961849346 462.4857268013123) rotate(0 12.739907948239136 12.739907948239136)"><path d="M25.48 12.74 C25.48 13.48, 25.41 14.23, 25.29 14.95 C25.16 15.68, 24.96 16.4, 24.71 17.1 C24.46 17.79, 24.14 18.47, 23.77 19.11 C23.4 19.75, 22.97 20.36, 22.5 20.93 C22.03 21.49, 21.49 22.03, 20.93 22.5 C20.36 22.97, 19.75 23.4, 19.11 23.77 C18.47 24.14, 17.79 24.46, 17.1 24.71 C16.4 24.96, 15.68 25.16, 14.95 25.29 C14.23 25.41, 13.48 25.48, 12.74 25.48 C12 25.48, 11.25 25.41, 10.53 25.29 C9.8 25.16, 9.08 24.96, 8.38 24.71 C7.69 24.46, 7.01 24.14, 6.37 23.77 C5.73 23.4, 5.12 22.97, 4.55 22.5 C3.99 22.03, 3.45 21.49, 2.98 20.93 C2.51 20.36, 2.08 19.75, 1.71 19.11 C1.34 18.47, 1.02 17.79, 0.77 17.1 C0.52 16.4, 0.32 15.68, 0.19 14.95 C0.07 14.23, 0 13.48, 0 12.74 C0 12, 0.07 11.25, 0.19 10.53 C0.32 9.8, 0.52 9.08, 0.77 8.38 C1.02 7.69, 1.34 7.01, 1.71 6.37 C2.08 5.73, 2.51 5.12, 2.98 4.55 C3.45 3.99, 3.99 3.45, 4.55 2.98 C5.12 2.51, 5.73 2.08, 6.37 1.71 C7.01 1.34, 7.69 1.02, 8.38 0.77 C9.08 0.52, 9.8 0.32, 10.53 0.19 C11.25 0.07, 12 0, 12.74 0 C13.48 0, 14.23 0.07, 14.95 0.19 C15.68 0.32, 16.4 0.52, 17.1 0.77 C17.79 1.02, 18.47 1.34, 19.11 1.71 C19.75 2.08, 20.36 2.51, 20.93 2.98 C21.49 3.45, 22.03 3.99, 22.5 4.55 C22.97 5.12, 23.4 5.73, 23.77 6.37 C24.14 7.01, 24.46 7.69, 24.71 8.38 C24.96 9.08, 25.16 9.8, 25.29 10.53 C25.41 11.25, 25.45 12.37, 25.48 12.74 C25.51 13.11, 25.51 12.37, 25.48 12.74" stroke="none" stroke-width="0" fill="#ffffff"/><path d="M25.48 12.74 C25.48 13.48, 25.41 14.23, 25.29 14.95 C25.16 15.68, 24.96 16.4, 24.71 17.1 C24.46 17.79, 24.14 18.47, 23.77 19.11 C23.4 19.75, 22.97 20.36, 22.5 20.93 C22.03 21.49, 21.49 22.03, 20.93 22.5 C20.36 22.97, 19.75 23.4, 19.11 23.77 C18.47 24.14, 17.79 24.46, 17.1 24.71 C16.4 24.96, 15.68 25.16, 14.95 25.29 C14.23 25.41, 13.48 25.48, 12.74 25.48 C12 25.48, 11.25 25.41, 10.53 25.29 C9.8 25.16, 9.08 24.96, 8.38 24.71 C7.69 24.46, 7.01 24.14, 6.37 23.77 C5.73 23.4, 5.12 22.97, 4.55 22.5 C3.99 22.03, 3.45 21.49, 2.98 20.93 C2.51 20.36, 2.08 19.75, 1.71 19.11 C1.34 18.47, 1.02 17.79, 0.77 17.1 C0.52 16.4, 0.32 15.68, 0.19 14.95 C0.07 14.23, 0 13.48, 0 12.74 C0 12, 0.07 11.25, 0.19 10.53 C0.32 9.8, 0.52 9.08, 0.77 8.38 C1.02 7.69, 1.34 7.01, 1.71 6.37 C2.08 5.73, 2.51 5.12, 2.98 4.55 C3.45 3.99, 3.99 3.45, 4.55 2.98 C5.12 2.51, 5.73 2.08, 6.37 1.71 C7.01 1.34, 7.69 1.02, 8.38 0.77 C9.08 0.52, 9.8 0.32, 10.53 0.19 C11.25 0.07, 12 0, 12.74 0 C13.48 0, 14.23 0.07, 14.95 0.19 C15.68 0.32, 16.4 0.52, 17.1 0.77 C17.79 1.02, 18.47 1.34, 19.11 1.71 C19.75 2.08, 20.36 2.51, 20.93 2.98 C21.49 3.45, 22.03 3.99, 22.5 4.55 C22.97 5.12, 23.4 5.73, 23.77 6.37 C24.14 7.01, 24.46 7.69, 24.71 8.38 C24.96 9.08, 25.16 9.8, 25.29 10.53 C25.41 11.25, 25.45 12.37, 25.48 12.74 C25.51 13.11, 25.51 12.37, 25.48 12.74" stroke="#1e1e1e" stroke-width="2" fill="none"/></g><g stroke-linecap="round" transform="translate(146.41226349693278 414.9983662790789) rotate(0 7.620449298938027 7.620449298938027)"><path d="M15.24 7.62 C15.24 8.06, 15.2 8.51, 15.13 8.94 C15.05 9.38, 14.93 9.81, 14.78 10.23 C14.63 10.64, 14.44 11.05, 14.22 11.43 C14 11.81, 13.74 12.18, 13.46 12.52 C13.17 12.86, 12.86 13.17, 12.52 13.46 C12.18 13.74, 11.81 14, 11.43 14.22 C11.05 14.44, 10.64 14.63, 10.23 14.78 C9.81 14.93, 9.38 15.05, 8.94 15.13 C8.51 15.2, 8.06 15.24, 7.62 15.24 C7.18 15.24, 6.73 15.2, 6.3 15.13 C5.86 15.05, 5.43 14.93, 5.01 14.78 C4.6 14.63, 4.19 14.44, 3.81 14.22 C3.43 14, 3.06 13.74, 2.72 13.46 C2.38 13.17, 2.07 12.86, 1.78 12.52 C1.5 12.18, 1.24 11.81, 1.02 11.43 C0.8 11.05, 0.61 10.64, 0.46 10.23 C0.31 9.81, 0.19 9.38, 0.12 8.94 C0.04 8.51, 0 8.06, 0 7.62 C0 7.18, 0.04 6.73, 0.12 6.3 C0.19 5.86, 0.31 5.43, 0.46 5.01 C0.61 4.6, 0.8 4.19, 1.02 3.81 C1.24 3.43, 1.5 3.06, 1.78 2.72 C2.07 2.38, 2.38 2.07, 2.72 1.78 C3.06 1.5, 3.43 1.24, 3.81 1.02 C4.19 0.8, 4.6 0.61, 5.01 0.46 C5.43 0.31, 5.86 0.19, 6.3 0.12 C6.73 0.04, 7.18 0, 7.62 0 C8.06 0, 8.51 0.04, 8.94 0.12 C9.38 0.19, 9.81 0.31, 10.23 0.46 C10.64 0.61, 11.05 0.8, 11.43 1.02 C11.81 1.24, 12.18 1.5, 12.52 1.78 C12.86 2.07, 13.17 2.38, 13.46 2.72 C13.74 3.06, 14 3.43, 14.22 3.81 C14.44 4.19, 14.63 4.6, 14.78 5.01 C14.93 5.43, 15.05 5.86, 15.13 6.3 C15.2 6.73, 15.22 7.4, 15.24 7.62 C15.26 7.84, 15.26 7.4, 15.24 7.62" stroke="none" stroke-width="0" fill="#707000"/><path d="M15.24 7.62 C15.24 8.06, 15.2 8.51, 15.13 8.94 C15.05 9.38, 14.93 9.81, 14.78 10.23 C14.63 10.64, 14.44 11.05, 14.22 11.43 C14 11.81, 13.74 12.18, 13.46 12.52 C13.17 12.86, 12.86 13.17, 12.52 13.46 C12.18 13.74, 11.81 14, 11.43 14.22 C11.05 14.44, 10.64 14.63, 10.23 14.78 C9.81 14.93, 9.38 15.05, 8.94 15.13 C8.51 15.2, 8.06 15.24, 7.62 15.24 C7.18 15.24, 6.73 15.2, 6.3 15.13 C5.86 15.05, 5.43 14.93, 5.01 14.78 C4.6 14.63, 4.19 14.44, 3.81 14.22 C3.43 14, 3.06 13.74, 2.72 13.46 C2.38 13.17, 2.07 12.86, 1.78 12.52 C1.5 12.18, 1.24 11.81, 1.02 11.43 C0.8 11.05, 0.61 10.64, 0.46 10.23 C0.31 9.81, 0.19 9.38, 0.12 8.94 C0.04 8.51, 0 8.06, 0 7.62 C0 7.18, 0.04 6.73, 0.12 6.3 C0.19 5.86, 0.31 5.43, 0.46 5.01 C0.61 4.6, 0.8 4.19, 1.02 3.81 C1.24 3.43, 1.5 3.06, 1.78 2.72 C2.07 2.38, 2.38 2.07, 2.72 1.78 C3.06 1.5, 3.43 1.24, 3.81 1.02 C4.19 0.8, 4.6 0.61, 5.01 0.46 C5.43 0.31, 5.86 0.19, 6.3 0.12 C6.73 0.04, 7.18 0, 7.62 0 C8.06 0, 8.51 0.04, 8.94 0.12 C9.38 0.19, 9.81 0.31, 10.23 0.46 C10.64 0.61, 11.05 0.8, 11.43 1.02 C11.81 1.24, 12.18 1.5, 12.52 1.78 C12.86 2.07, 13.17 2.38, 13.46 2.72 C13.74 3.06, 14 3.43, 14.22 3.81 C14.44 4.19, 14.63 4.6, 14.78 5.01 C14.93 5.43, 15.05 5.86, 15.13 6.3 C15.2 6.73, 15.22 7.4, 15.24 7.62 C15.26 7.84, 15.26 7.4, 15.24 7.62" stroke="transparent" stroke-width="2.5" fill="none" stroke-dasharray="1.5 8"/></g><g stroke-linecap="round" transform="translate(451.60628495662525 413.80209099947365) rotate(0 7.620449298938041 7.620449298938027)"><path d="M15.24 7.62 C15.24 8.06, 15.2 8.51, 15.13 8.94 C15.05 9.38, 14.93 9.81, 14.78 10.23 C14.63 10.64, 14.44 11.05, 14.22 11.43 C14 11.81, 13.74 12.18, 13.46 12.52 C13.17 12.86, 12.86 13.17, 12.52 13.46 C12.18 13.74, 11.81 14, 11.43 14.22 C11.05 14.44, 10.64 14.63, 10.23 14.78 C9.81 14.93, 9.38 15.05, 8.94 15.13 C8.51 15.2, 8.06 15.24, 7.62 15.24 C7.18 15.24, 6.73 15.2, 6.3 15.13 C5.86 15.05, 5.43 14.93, 5.01 14.78 C4.6 14.63, 4.19 14.44, 3.81 14.22 C3.43 14, 3.06 13.74, 2.72 13.46 C2.38 13.17, 2.07 12.86, 1.78 12.52 C1.5 12.18, 1.24 11.81, 1.02 11.43 C0.8 11.05, 0.61 10.64, 0.46 10.23 C0.31 9.81, 0.19 9.38, 0.12 8.94 C0.04 8.51, 0 8.06, 0 7.62 C0 7.18, 0.04 6.73, 0.12 6.3 C0.19 5.86, 0.31 5.43, 0.46 5.01 C0.61 4.6, 0.8 4.19, 1.02 3.81 C1.24 3.43, 1.5 3.06, 1.78 2.72 C2.07 2.38, 2.38 2.07, 2.72 1.78 C3.06 1.5, 3.43 1.24, 3.81 1.02 C4.19 0.8, 4.6 0.61, 5.01 0.46 C5.43 0.31, 5.86 0.19, 6.3 0.12 C6.73 0.04, 7.18 0, 7.62 0 C8.06 0, 8.51 0.04, 8.94 0.12 C9.38 0.19, 9.81 0.31, 10.23 0.46 C10.64 0.61, 11.05 0.8, 11.43 1.02 C11.81 1.24, 12.18 1.5, 12.52 1.78 C12.86 2.07, 13.17 2.38, 13.46 2.72 C13.74 3.06, 14 3.43, 14.22 3.81 C14.44 4.19, 14.63 4.6, 14.78 5.01 C14.93 5.43, 15.05 5.86, 15.13 6.3 C15.2 6.73, 15.22 7.4, 15.24 7.62 C15.26 7.84, 15.26 7.4, 15.24 7.62" stroke="none" stroke-width="0" fill="#707000"/><path d="M15.24 7.62 C15.24 8.06, 15.2 8.51, 15.13 8.94 C15.05 9.38, 14.93 9.81, 14.78 10.23 C14.63 10.64, 14.44 11.05, 14.22 11.43 C14 11.81, 13.74 12.18, 13.46 12.52 C13.17 12.86, 12.86 13.17, 12.52 13.46 C12.18 13.74, 11.81 14, 11.43 14.22 C11.05 14.44, 10.64 14.63, 10.23 14.78 C9.81 14.93, 9.38 15.05, 8.94 15.13 C8.51 15.2, 8.06 15.24, 7.62 15.24 C7.18 15.24, 6.73 15.2, 6.3 15.13 C5.86 15.05, 5.43 14.93, 5.01 14.78 C4.6 14.63, 4.19 14.44, 3.81 14.22 C3.43 14, 3.06 13.74, 2.72 13.46 C2.38 13.17, 2.07 12.86, 1.78 12.52 C1.5 12.18, 1.24 11.81, 1.02 11.43 C0.8 11.05, 0.61 10.64, 0.46 10.23 C0.31 9.81, 0.19 9.38, 0.12 8.94 C0.04 8.51, 0 8.06, 0 7.62 C0 7.18, 0.04 6.73, 0.12 6.3 C0.19 5.86, 0.31 5.43, 0.46 5.01 C0.61 4.6, 0.8 4.19, 1.02 3.81 C1.24 3.43, 1.5 3.06, 1.78 2.72 C2.07 2.38, 2.38 2.07, 2.72 1.78 C3.06 1.5, 3.43 1.24, 3.81 1.02 C4.19 0.8, 4.6 0.61, 5.01 0.46 C5.43 0.31, 5.86 0.19, 6.3 0.12 C6.73 0.04, 7.18 0, 7.62 0 C8.06 0, 8.51 0.04, 8.94 0.12 C9.38 0.19, 9.81 0.31, 10.23 0.46 C10.64 0.61, 11.05 0.8, 11.43 1.02 C11.81 1.24, 12.18 1.5, 12.52 1.78 C12.86 2.07, 13.17 2.38, 13.46 2.72 C13.74 3.06, 14 3.43, 14.22 3.81 C14.44 4.19, 14.63 4.6, 14.78 5.01 C14.93 5.43, 15.05 5.86, 15.13 6.3 C15.2 6.73, 15.22 7.4, 15.24 7.62 C15.26 7.84, 15.26 7.4, 15.24 7.62" stroke="transparent" stroke-width="2.5" fill="none" stroke-dasharray="1.5 8"/></g><g stroke-opacity="0.6" fill-opacity="0.6" stroke-linecap="round" transform="translate(186.94648755657033 620.8770524600338) rotate(0 194.17778015136722 62.65974426269534)"><path d="M0 0 L388.36 0 L388.36 125.32 L0 125.32" stroke="none" stroke-width="0" fill="#eaddd7"/><path d="M0 0 C132.87 0, 265.75 0, 388.36 0 M0 0 C121.24 0, 242.47 0, 388.36 0 M388.36 0 C388.36 25.12, 388.36 50.25, 388.36 125.32 M388.36 0 C388.36 46.11, 388.36 92.22, 388.36 125.32 M388.36 125.32 C271.45 125.32, 154.54 125.32, 0 125.32 M388.36 125.32 C236.99 125.32, 85.63 125.32, 0 125.32 M0 125.32 C0 77.45, 0 29.57, 0 0 M0 125.32 C0 98.42, 0 71.51, 0 0" stroke="#1e1e1e" stroke-width="4" fill="none"/></g><g stroke-linecap="round" transform="translate(370.60027399486444 680.8229458900269) rotate(0 8.043740236359724 11.068558686191778)"><path d="M16.09 11.07 C16.09 11.71, 16.05 12.36, 15.97 12.99 C15.88 13.62, 15.76 14.25, 15.6 14.85 C15.44 15.46, 15.24 16.05, 15.01 16.6 C14.78 17.16, 14.5 17.69, 14.21 18.18 C13.91 18.67, 13.57 19.14, 13.21 19.55 C12.86 19.96, 12.47 20.33, 12.07 20.65 C11.66 20.97, 11.23 21.25, 10.79 21.47 C10.36 21.69, 9.9 21.86, 9.44 21.97 C8.98 22.08, 8.51 22.14, 8.04 22.14 C7.58 22.14, 7.11 22.08, 6.65 21.97 C6.19 21.86, 5.73 21.69, 5.29 21.47 C4.86 21.25, 4.43 20.97, 4.02 20.65 C3.62 20.33, 3.23 19.96, 2.87 19.55 C2.52 19.14, 2.18 18.67, 1.88 18.18 C1.58 17.69, 1.31 17.16, 1.08 16.6 C0.84 16.05, 0.64 15.46, 0.49 14.85 C0.33 14.25, 0.2 13.62, 0.12 12.99 C0.04 12.36, 0 11.71, 0 11.07 C0 10.43, 0.04 9.78, 0.12 9.15 C0.2 8.52, 0.33 7.88, 0.49 7.28 C0.64 6.68, 0.84 6.09, 1.08 5.53 C1.31 4.98, 1.58 4.44, 1.88 3.95 C2.18 3.46, 2.52 3, 2.87 2.59 C3.23 2.18, 3.62 1.8, 4.02 1.48 C4.43 1.16, 4.86 0.89, 5.29 0.67 C5.73 0.45, 6.19 0.28, 6.65 0.17 C7.11 0.06, 7.58 0, 8.04 0 C8.51 0, 8.98 0.06, 9.44 0.17 C9.9 0.28, 10.36 0.45, 10.79 0.67 C11.23 0.89, 11.66 1.16, 12.07 1.48 C12.47 1.8, 12.86 2.18, 13.21 2.59 C13.57 3, 13.91 3.46, 14.21 3.95 C14.5 4.44, 14.78 4.98, 15.01 5.53 C15.24 6.09, 15.44 6.68, 15.6 7.28 C15.76 7.88, 15.88 8.52, 15.97 9.15 C16.05 9.78, 16.07 10.75, 16.09 11.07 C16.11 11.39, 16.11 10.75, 16.09 11.07" stroke="none" stroke-width="0" fill="#1e1e1e"/><path d="M16.09 11.07 C16.09 11.71, 16.05 12.36, 15.97 12.99 C15.88 13.62, 15.76 14.25, 15.6 14.85 C15.44 15.46, 15.24 16.05, 15.01 16.6 C14.78 17.16, 14.5 17.69, 14.21 18.18 C13.91 18.67, 13.57 19.14, 13.21 19.55 C12.86 19.96, 12.47 20.33, 12.07 20.65 C11.66 20.97, 11.23 21.25, 10.79 21.47 C10.36 21.69, 9.9 21.86, 9.44 21.97 C8.98 22.08, 8.51 22.14, 8.04 22.14 C7.58 22.14, 7.11 22.08, 6.65 21.97 C6.19 21.86, 5.73 21.69, 5.29 21.47 C4.86 21.25, 4.43 20.97, 4.02 20.65 C3.62 20.33, 3.23 19.96, 2.87 19.55 C2.52 19.14, 2.18 18.67, 1.88 18.18 C1.58 17.69, 1.31 17.16, 1.08 16.6 C0.84 16.05, 0.64 15.46, 0.49 14.85 C0.33 14.25, 0.2 13.62, 0.12 12.99 C0.04 12.36, 0 11.71, 0 11.07 C0 10.43, 0.04 9.78, 0.12 9.15 C0.2 8.52, 0.33 7.88, 0.49 7.28 C0.64 6.68, 0.84 6.09, 1.08 5.53 C1.31 4.98, 1.58 4.44, 1.88 3.95 C2.18 3.46, 2.52 3, 2.87 2.59 C3.23 2.18, 3.62 1.8, 4.02 1.48 C4.43 1.16, 4.86 0.89, 5.29 0.67 C5.73 0.45, 6.19 0.28, 6.65 0.17 C7.11 0.06, 7.58 0, 8.04 0 C8.51 0, 8.98 0.06, 9.44 0.17 C9.9 0.28, 10.36 0.45, 10.79 0.67 C11.23 0.89, 11.66 1.16, 12.07 1.48 C12.47 1.8, 12.86 2.18, 13.21 2.59 C13.57 3, 13.91 3.46, 14.21 3.95 C14.5 4.44, 14.78 4.98, 15.01 5.53 C15.24 6.09, 15.44 6.68, 15.6 7.28 C15.76 7.88, 15.88 8.52, 15.97 9.15 C16.05 9.78, 16.07 10.75, 16.09 11.07 C16.11 11.39, 16.11 10.75, 16.09 11.07" stroke="transparent" stroke-width="4" fill="none"/></g><g stroke-linecap="round"><g transform="translate(378.9085836554905 702.7020294528661) rotate(0 0 10.37943943115323)"><path d="M0 0 C0 7.14, 0 14.28, 0 20.76 M0 0 C0 4.52, 0 9.03, 0 20.76" stroke="#1e1e1e" stroke-width="4" fill="none"/></g></g><mask/><g stroke-linecap="round"><g transform="translate(379.2415889429849 726.0279061136821) rotate(0 4.937639234576892 8.552242023732674)"><path d="M0 0 C2.59 4.48, 5.18 8.96, 9.88 17.1 M0 0 C2.33 4.04, 4.66 8.08, 9.88 17.1" stroke="#1e1e1e" stroke-width="4" fill="none"/></g></g><mask/><g stroke-linecap="round"><g transform="translate(377.8419268090329 726.596876234587) rotate(0 -4.98653280857252 8.636928178056735)"><path d="M0 0 C-3.09 5.34, -6.17 10.69, -9.97 17.27 M0 0 C-2.86 4.96, -5.72 9.91, -9.97 17.27" stroke="#1e1e1e" stroke-width="4" fill="none"/></g></g><mask/><g stroke-linecap="round"><g transform="translate(378.353442493217 709.775151291527) rotate(0 -4.622761710231401 4.622761710231373)"><path d="M0 0 C-3.57 3.57, -7.15 7.15, -9.25 9.25 M0 0 C-2.41 2.41, -4.81 4.81, -9.25 9.25" stroke="#1e1e1e" stroke-width="4" fill="none"/></g></g><mask/><g stroke-linecap="round"><g transform="translate(380.1935905479397 710.2608222474717) rotate(0 4.360251584238739 4.3602515842387675)"><path d="M0 0 C3.25 3.25, 6.49 6.49, 8.72 8.72 M0 0 C2.25 2.25, 4.49 4.49, 8.72 8.72" stroke="#1e1e1e" stroke-width="4" fill="none"/></g></g><mask/><g stroke-linecap="round" transform="translate(536.0471815877704 734.6223304053451) rotate(0 12.739907948239136 12.739907948239136)"><path d="M25.48 12.74 C25.48 13.48, 25.41 14.23, 25.29 14.95 C25.16 15.68, 24.96 16.4, 24.71 17.1 C24.46 17.79, 24.14 18.47, 23.77 19.11 C23.4 19.75, 22.97 20.36, 22.5 20.93 C22.03 21.49, 21.49 22.03, 20.93 22.5 C20.36 22.97, 19.75 23.4, 19.11 23.77 C18.47 24.14, 17.79 24.46, 17.1 24.71 C16.4 24.96, 15.68 25.16, 14.95 25.29 C14.23 25.41, 13.48 25.48, 12.74 25.48 C12 25.48, 11.25 25.41, 10.53 25.29 C9.8 25.16, 9.08 24.96, 8.38 24.71 C7.69 24.46, 7.01 24.14, 6.37 23.77 C5.73 23.4, 5.12 22.97, 4.55 22.5 C3.99 22.03, 3.45 21.49, 2.98 20.93 C2.51 20.36, 2.08 19.75, 1.71 19.11 C1.34 18.47, 1.02 17.79, 0.77 17.1 C0.52 16.4, 0.32 15.68, 0.19 14.95 C0.07 14.23, 0 13.48, 0 12.74 C0 12, 0.07 11.25, 0.19 10.53 C0.32 9.8, 0.52 9.08, 0.77 8.38 C1.02 7.69, 1.34 7.01, 1.71 6.37 C2.08 5.73, 2.51 5.12, 2.98 4.55 C3.45 3.99, 3.99 3.45, 4.55 2.98 C5.12 2.51, 5.73 2.08, 6.37 1.71 C7.01 1.34, 7.69 1.02, 8.38 0.77 C9.08 0.52, 9.8 0.32, 10.53 0.19 C11.25 0.07, 12 0, 12.74 0 C13.48 0, 14.23 0.07, 14.95 0.19 C15.68 0.32, 16.4 0.52, 17.1 0.77 C17.79 1.02, 18.47 1.34, 19.11 1.71 C19.75 2.08, 20.36 2.51, 20.93 2.98 C21.49 3.45, 22.03 3.99, 22.5 4.55 C22.97 5.12, 23.4 5.73, 23.77 6.37 C24.14 7.01, 24.46 7.69, 24.71 8.38 C24.96 9.08, 25.16 9.8, 25.29 10.53 C25.41 11.25, 25.45 12.37, 25.48 12.74 C25.51 13.11, 25.51 12.37, 25.48 12.74" stroke="none" stroke-width="0" fill="#ffffff"/><path d="M25.48 12.74 C25.48 13.48, 25.41 14.23, 25.29 14.95 C25.16 15.68, 24.96 16.4, 24.71 17.1 C24.46 17.79, 24.14 18.47, 23.77 19.11 C23.4 19.75, 22.97 20.36, 22.5 20.93 C22.03 21.49, 21.49 22.03, 20.93 22.5 C20.36 22.97, 19.75 23.4, 19.11 23.77 C18.47 24.14, 17.79 24.46, 17.1 24.71 C16.4 24.96, 15.68 25.16, 14.95 25.29 C14.23 25.41, 13.48 25.48, 12.74 25.48 C12 25.48, 11.25 25.41, 10.53 25.29 C9.8 25.16, 9.08 24.96, 8.38 24.71 C7.69 24.46, 7.01 24.14, 6.37 23.77 C5.73 23.4, 5.12 22.97, 4.55 22.5 C3.99 22.03, 3.45 21.49, 2.98 20.93 C2.51 20.36, 2.08 19.75, 1.71 19.11 C1.34 18.47, 1.02 17.79, 0.77 17.1 C0.52 16.4, 0.32 15.68, 0.19 14.95 C0.07 14.23, 0 13.48, 0 12.74 C0 12, 0.07 11.25, 0.19 10.53 C0.32 9.8, 0.52 9.08, 0.77 8.38 C1.02 7.69, 1.34 7.01, 1.71 6.37 C2.08 5.73, 2.51 5.12, 2.98 4.55 C3.45 3.99, 3.99 3.45, 4.55 2.98 C5.12 2.51, 5.73 2.08, 6.37 1.71 C7.01 1.34, 7.69 1.02, 8.38 0.77 C9.08 0.52, 9.8 0.32, 10.53 0.19 C11.25 0.07, 12 0, 12.74 0 C13.48 0, 14.23 0.07, 14.95 0.19 C15.68 0.32, 16.4 0.52, 17.1 0.77 C17.79 1.02, 18.47 1.34, 19.11 1.71 C19.75 2.08, 20.36 2.51, 20.93 2.98 C21.49 3.45, 22.03 3.99, 22.5 4.55 C22.97 5.12, 23.4 5.73, 23.77 6.37 C24.14 7.01, 24.46 7.69, 24.71 8.38 C24.96 9.08, 25.16 9.8, 25.29 10.53 C25.41 11.25, 25.45 12.37, 25.48 12.74 C25.51 13.11, 25.51 12.37, 25.48 12.74" stroke="#1e1e1e" stroke-width="2" fill="none"/></g><g stroke-linecap="round" transform="translate(203.92905705164094 732.6397496412712) rotate(0 12.739907948239136 12.739907948239136)"><path d="M25.48 12.74 C25.48 13.48, 25.41 14.23, 25.29 14.95 C25.16 15.68, 24.96 16.4, 24.71 17.1 C24.46 17.79, 24.14 18.47, 23.77 19.11 C23.4 19.75, 22.97 20.36, 22.5 20.93 C22.03 21.49, 21.49 22.03, 20.93 22.5 C20.36 22.97, 19.75 23.4, 19.11 23.77 C18.47 24.14, 17.79 24.46, 17.1 24.71 C16.4 24.96, 15.68 25.16, 14.95 25.29 C14.23 25.41, 13.48 25.48, 12.74 25.48 C12 25.48, 11.25 25.41, 10.53 25.29 C9.8 25.16, 9.08 24.96, 8.38 24.71 C7.69 24.46, 7.01 24.14, 6.37 23.77 C5.73 23.4, 5.12 22.97, 4.55 22.5 C3.99 22.03, 3.45 21.49, 2.98 20.93 C2.51 20.36, 2.08 19.75, 1.71 19.11 C1.34 18.47, 1.02 17.79, 0.77 17.1 C0.52 16.4, 0.32 15.68, 0.19 14.95 C0.07 14.23, 0 13.48, 0 12.74 C0 12, 0.07 11.25, 0.19 10.53 C0.32 9.8, 0.52 9.08, 0.77 8.38 C1.02 7.69, 1.34 7.01, 1.71 6.37 C2.08 5.73, 2.51 5.12, 2.98 4.55 C3.45 3.99, 3.99 3.45, 4.55 2.98 C5.12 2.51, 5.73 2.08, 6.37 1.71 C7.01 1.34, 7.69 1.02, 8.38 0.77 C9.08 0.52, 9.8 0.32, 10.53 0.19 C11.25 0.07, 12 0, 12.74 0 C13.48 0, 14.23 0.07, 14.95 0.19 C15.68 0.32, 16.4 0.52, 17.1 0.77 C17.79 1.02, 18.47 1.34, 19.11 1.71 C19.75 2.08, 20.36 2.51, 20.93 2.98 C21.49 3.45, 22.03 3.99, 22.5 4.55 C22.97 5.12, 23.4 5.73, 23.77 6.37 C24.14 7.01, 24.46 7.69, 24.71 8.38 C24.96 9.08, 25.16 9.8, 25.29 10.53 C25.41 11.25, 25.45 12.37, 25.48 12.74 C25.51 13.11, 25.51 12.37, 25.48 12.74" stroke="none" stroke-width="0" fill="#ffffff"/><path d="M25.48 12.74 C25.48 13.48, 25.41 14.23, 25.29 14.95 C25.16 15.68, 24.96 16.4, 24.71 17.1 C24.46 17.79, 24.14 18.47, 23.77 19.11 C23.4 19.75, 22.97 20.36, 22.5 20.93 C22.03 21.49, 21.49 22.03, 20.93 22.5 C20.36 22.97, 19.75 23.4, 19.11 23.77 C18.47 24.14, 17.79 24.46, 17.1 24.71 C16.4 24.96, 15.68 25.16, 14.95 25.29 C14.23 25.41, 13.48 25.48, 12.74 25.48 C12 25.48, 11.25 25.41, 10.53 25.29 C9.8 25.16, 9.08 24.96, 8.38 24.71 C7.69 24.46, 7.01 24.14, 6.37 23.77 C5.73 23.4, 5.12 22.97, 4.55 22.5 C3.99 22.03, 3.45 21.49, 2.98 20.93 C2.51 20.36, 2.08 19.75, 1.71 19.11 C1.34 18.47, 1.02 17.79, 0.77 17.1 C0.52 16.4, 0.32 15.68, 0.19 14.95 C0.07 14.23, 0 13.48, 0 12.74 C0 12, 0.07 11.25, 0.19 10.53 C0.32 9.8, 0.52 9.08, 0.77 8.38 C1.02 7.69, 1.34 7.01, 1.71 6.37 C2.08 5.73, 2.51 5.12, 2.98 4.55 C3.45 3.99, 3.99 3.45, 4.55 2.98 C5.12 2.51, 5.73 2.08, 6.37 1.71 C7.01 1.34, 7.69 1.02, 8.38 0.77 C9.08 0.52, 9.8 0.32, 10.53 0.19 C11.25 0.07, 12 0, 12.74 0 C13.48 0, 14.23 0.07, 14.95 0.19 C15.68 0.32, 16.4 0.52, 17.1 0.77 C17.79 1.02, 18.47 1.34, 19.11 1.71 C19.75 2.08, 20.36 2.51, 20.93 2.98 C21.49 3.45, 22.03 3.99, 22.5 4.55 C22.97 5.12, 23.4 5.73, 23.77 6.37 C24.14 7.01, 24.46 7.69, 24.71 8.38 C24.96 9.08, 25.16 9.8, 25.29 10.53 C25.41 11.25, 25.45 12.37, 25.48 12.74 C25.51 13.11, 25.51 12.37, 25.48 12.74" stroke="#1e1e1e" stroke-width="2" fill="none"/></g><g stroke-linecap="round" transform="translate(237.6529650531736 685.1523891190379) rotate(0 7.620449298938027 7.620449298938041)"><path d="M15.24 7.62 C15.24 8.06, 15.2 8.51, 15.13 8.94 C15.05 9.38, 14.93 9.81, 14.78 10.23 C14.63 10.64, 14.44 11.05, 14.22 11.43 C14 11.81, 13.74 12.18, 13.46 12.52 C13.17 12.86, 12.86 13.17, 12.52 13.46 C12.18 13.74, 11.81 14, 11.43 14.22 C11.05 14.44, 10.64 14.63, 10.23 14.78 C9.81 14.93, 9.38 15.05, 8.94 15.13 C8.51 15.2, 8.06 15.24, 7.62 15.24 C7.18 15.24, 6.73 15.2, 6.3 15.13 C5.86 15.05, 5.43 14.93, 5.01 14.78 C4.6 14.63, 4.19 14.44, 3.81 14.22 C3.43 14, 3.06 13.74, 2.72 13.46 C2.38 13.17, 2.07 12.86, 1.78 12.52 C1.5 12.18, 1.24 11.81, 1.02 11.43 C0.8 11.05, 0.61 10.64, 0.46 10.23 C0.31 9.81, 0.19 9.38, 0.12 8.94 C0.04 8.51, 0 8.06, 0 7.62 C0 7.18, 0.04 6.73, 0.12 6.3 C0.19 5.86, 0.31 5.43, 0.46 5.01 C0.61 4.6, 0.8 4.19, 1.02 3.81 C1.24 3.43, 1.5 3.06, 1.78 2.72 C2.07 2.38, 2.38 2.07, 2.72 1.78 C3.06 1.5, 3.43 1.24, 3.81 1.02 C4.19 0.8, 4.6 0.61, 5.01 0.46 C5.43 0.31, 5.86 0.19, 6.3 0.12 C6.73 0.04, 7.18 0, 7.62 0 C8.06 0, 8.51 0.04, 8.94 0.12 C9.38 0.19, 9.81 0.31, 10.23 0.46 C10.64 0.61, 11.05 0.8, 11.43 1.02 C11.81 1.24, 12.18 1.5, 12.52 1.78 C12.86 2.07, 13.17 2.38, 13.46 2.72 C13.74 3.06, 14 3.43, 14.22 3.81 C14.44 4.19, 14.63 4.6, 14.78 5.01 C14.93 5.43, 15.05 5.86, 15.13 6.3 C15.2 6.73, 15.22 7.4, 15.24 7.62 C15.26 7.84, 15.26 7.4, 15.24 7.62" stroke="none" stroke-width="0" fill="#707000"/><path d="M15.24 7.62 C15.24 8.06, 15.2 8.51, 15.13 8.94 C15.05 9.38, 14.93 9.81, 14.78 10.23 C14.63 10.64, 14.44 11.05, 14.22 11.43 C14 11.81, 13.74 12.18, 13.46 12.52 C13.17 12.86, 12.86 13.17, 12.52 13.46 C12.18 13.74, 11.81 14, 11.43 14.22 C11.05 14.44, 10.64 14.63, 10.23 14.78 C9.81 14.93, 9.38 15.05, 8.94 15.13 C8.51 15.2, 8.06 15.24, 7.62 15.24 C7.18 15.24, 6.73 15.2, 6.3 15.13 C5.86 15.05, 5.43 14.93, 5.01 14.78 C4.6 14.63, 4.19 14.44, 3.81 14.22 C3.43 14, 3.06 13.74, 2.72 13.46 C2.38 13.17, 2.07 12.86, 1.78 12.52 C1.5 12.18, 1.24 11.81, 1.02 11.43 C0.8 11.05, 0.61 10.64, 0.46 10.23 C0.31 9.81, 0.19 9.38, 0.12 8.94 C0.04 8.51, 0 8.06, 0 7.62 C0 7.18, 0.04 6.73, 0.12 6.3 C0.19 5.86, 0.31 5.43, 0.46 5.01 C0.61 4.6, 0.8 4.19, 1.02 3.81 C1.24 3.43, 1.5 3.06, 1.78 2.72 C2.07 2.38, 2.38 2.07, 2.72 1.78 C3.06 1.5, 3.43 1.24, 3.81 1.02 C4.19 0.8, 4.6 0.61, 5.01 0.46 C5.43 0.31, 5.86 0.19, 6.3 0.12 C6.73 0.04, 7.18 0, 7.62 0 C8.06 0, 8.51 0.04, 8.94 0.12 C9.38 0.19, 9.81 0.31, 10.23 0.46 C10.64 0.61, 11.05 0.8, 11.43 1.02 C11.81 1.24, 12.18 1.5, 12.52 1.78 C12.86 2.07, 13.17 2.38, 13.46 2.72 C13.74 3.06, 14 3.43, 14.22 3.81 C14.44 4.19, 14.63 4.6, 14.78 5.01 C14.93 5.43, 15.05 5.86, 15.13 6.3 C15.2 6.73, 15.22 7.4, 15.24 7.62 C15.26 7.84, 15.26 7.4, 15.24 7.62" stroke="transparent" stroke-width="2.5" fill="none" stroke-dasharray="1.5 8"/></g><g stroke-linecap="round" transform="translate(430.15515662390277 683.9561138394325) rotate(0 7.620449298938041 7.620449298938041)"><path d="M15.24 7.62 C15.24 8.06, 15.2 8.51, 15.13 8.94 C15.05 9.38, 14.93 9.81, 14.78 10.23 C14.63 10.64, 14.44 11.05, 14.22 11.43 C14 11.81, 13.74 12.18, 13.46 12.52 C13.17 12.86, 12.86 13.17, 12.52 13.46 C12.18 13.74, 11.81 14, 11.43 14.22 C11.05 14.44, 10.64 14.63, 10.23 14.78 C9.81 14.93, 9.38 15.05, 8.94 15.13 C8.51 15.2, 8.06 15.24, 7.62 15.24 C7.18 15.24, 6.73 15.2, 6.3 15.13 C5.86 15.05, 5.43 14.93, 5.01 14.78 C4.6 14.63, 4.19 14.44, 3.81 14.22 C3.43 14, 3.06 13.74, 2.72 13.46 C2.38 13.17, 2.07 12.86, 1.78 12.52 C1.5 12.18, 1.24 11.81, 1.02 11.43 C0.8 11.05, 0.61 10.64, 0.46 10.23 C0.31 9.81, 0.19 9.38, 0.12 8.94 C0.04 8.51, 0 8.06, 0 7.62 C0 7.18, 0.04 6.73, 0.12 6.3 C0.19 5.86, 0.31 5.43, 0.46 5.01 C0.61 4.6, 0.8 4.19, 1.02 3.81 C1.24 3.43, 1.5 3.06, 1.78 2.72 C2.07 2.38, 2.38 2.07, 2.72 1.78 C3.06 1.5, 3.43 1.24, 3.81 1.02 C4.19 0.8, 4.6 0.61, 5.01 0.46 C5.43 0.31, 5.86 0.19, 6.3 0.12 C6.73 0.04, 7.18 0, 7.62 0 C8.06 0, 8.51 0.04, 8.94 0.12 C9.38 0.19, 9.81 0.31, 10.23 0.46 C10.64 0.61, 11.05 0.8, 11.43 1.02 C11.81 1.24, 12.18 1.5, 12.52 1.78 C12.86 2.07, 13.17 2.38, 13.46 2.72 C13.74 3.06, 14 3.43, 14.22 3.81 C14.44 4.19, 14.63 4.6, 14.78 5.01 C14.93 5.43, 15.05 5.86, 15.13 6.3 C15.2 6.73, 15.22 7.4, 15.24 7.62 C15.26 7.84, 15.26 7.4, 15.24 7.62" stroke="none" stroke-width="0" fill="#707000"/><path d="M15.24 7.62 C15.24 8.06, 15.2 8.51, 15.13 8.94 C15.05 9.38, 14.93 9.81, 14.78 10.23 C14.63 10.64, 14.44 11.05, 14.22 11.43 C14 11.81, 13.74 12.18, 13.46 12.52 C13.17 12.86, 12.86 13.17, 12.52 13.46 C12.18 13.74, 11.81 14, 11.43 14.22 C11.05 14.44, 10.64 14.63, 10.23 14.78 C9.81 14.93, 9.38 15.05, 8.94 15.13 C8.51 15.2, 8.06 15.24, 7.62 15.24 C7.18 15.24, 6.73 15.2, 6.3 15.13 C5.86 15.05, 5.43 14.93, 5.01 14.78 C4.6 14.63, 4.19 14.44, 3.81 14.22 C3.43 14, 3.06 13.74, 2.72 13.46 C2.38 13.17, 2.07 12.86, 1.78 12.52 C1.5 12.18, 1.24 11.81, 1.02 11.43 C0.8 11.05, 0.61 10.64, 0.46 10.23 C0.31 9.81, 0.19 9.38, 0.12 8.94 C0.04 8.51, 0 8.06, 0 7.62 C0 7.18, 0.04 6.73, 0.12 6.3 C0.19 5.86, 0.31 5.43, 0.46 5.01 C0.61 4.6, 0.8 4.19, 1.02 3.81 C1.24 3.43, 1.5 3.06, 1.78 2.72 C2.07 2.38, 2.38 2.07, 2.72 1.78 C3.06 1.5, 3.43 1.24, 3.81 1.02 C4.19 0.8, 4.6 0.61, 5.01 0.46 C5.43 0.31, 5.86 0.19, 6.3 0.12 C6.73 0.04, 7.18 0, 7.62 0 C8.06 0, 8.51 0.04, 8.94 0.12 C9.38 0.19, 9.81 0.31, 10.23 0.46 C10.64 0.61, 11.05 0.8, 11.43 1.02 C11.81 1.24, 12.18 1.5, 12.52 1.78 C12.86 2.07, 13.17 2.38, 13.46 2.72 C13.74 3.06, 14 3.43, 14.22 3.81 C14.44 4.19, 14.63 4.6, 14.78 5.01 C14.93 5.43, 15.05 5.86, 15.13 6.3 C15.2 6.73, 15.22 7.4, 15.24 7.62 C15.26 7.84, 15.26 7.4, 15.24 7.62" stroke="transparent" stroke-width="2.5" fill="none" stroke-dasharray="1.5 8"/></g><g stroke-opacity="0.6" fill-opacity="0.6" stroke-linecap="round" transform="translate(240.38453096138863 887.4300575493942) rotate(0 194.1777801513672 62.65974426269531)"><path d="M0 0 L388.36 0 L388.36 125.32 L0 125.32" stroke="none" stroke-width="0" fill="#eaddd7"/><path d="M0 0 C101.48 0, 202.95 0, 388.36 0 M0 0 C134.86 0, 269.72 0, 388.36 0 M388.36 0 C388.36 48.36, 388.36 96.73, 388.36 125.32 M388.36 0 C388.36 37.26, 388.36 74.52, 388.36 125.32 M388.36 125.32 C283.89 125.32, 179.43 125.32, 0 125.32 M388.36 125.32 C262.98 125.32, 137.6 125.32, 0 125.32 M0 125.32 C0 85.8, 0 46.28, 0 0 M0 125.32 C0 97.65, 0 69.99, 0 0" stroke="#1e1e1e" stroke-width="4" fill="none"/></g><g stroke-linecap="round" transform="translate(424.03831739968257 947.3759509793872) rotate(0 8.043740236359724 11.068558686191807)"><path d="M16.09 11.07 C16.09 11.71, 16.05 12.36, 15.97 12.99 C15.88 13.62, 15.76 14.25, 15.6 14.85 C15.44 15.46, 15.24 16.05, 15.01 16.6 C14.78 17.16, 14.5 17.69, 14.21 18.18 C13.91 18.67, 13.57 19.14, 13.21 19.55 C12.86 19.96, 12.47 20.33, 12.07 20.65 C11.66 20.97, 11.23 21.25, 10.79 21.47 C10.36 21.69, 9.9 21.86, 9.44 21.97 C8.98 22.08, 8.51 22.14, 8.04 22.14 C7.58 22.14, 7.11 22.08, 6.65 21.97 C6.19 21.86, 5.73 21.69, 5.29 21.47 C4.86 21.25, 4.43 20.97, 4.02 20.65 C3.62 20.33, 3.23 19.96, 2.87 19.55 C2.52 19.14, 2.18 18.67, 1.88 18.18 C1.58 17.69, 1.31 17.16, 1.08 16.6 C0.84 16.05, 0.64 15.46, 0.49 14.85 C0.33 14.25, 0.2 13.62, 0.12 12.99 C0.04 12.36, 0 11.71, 0 11.07 C0 10.43, 0.04 9.78, 0.12 9.15 C0.2 8.52, 0.33 7.88, 0.49 7.28 C0.64 6.68, 0.84 6.09, 1.08 5.53 C1.31 4.98, 1.58 4.44, 1.88 3.95 C2.18 3.46, 2.52 3, 2.87 2.59 C3.23 2.18, 3.62 1.8, 4.02 1.48 C4.43 1.16, 4.86 0.89, 5.29 0.67 C5.73 0.45, 6.19 0.28, 6.65 0.17 C7.11 0.06, 7.58 0, 8.04 0 C8.51 0, 8.98 0.06, 9.44 0.17 C9.9 0.28, 10.36 0.45, 10.79 0.67 C11.23 0.89, 11.66 1.16, 12.07 1.48 C12.47 1.8, 12.86 2.18, 13.21 2.59 C13.57 3, 13.91 3.46, 14.21 3.95 C14.5 4.44, 14.78 4.98, 15.01 5.53 C15.24 6.09, 15.44 6.68, 15.6 7.28 C15.76 7.88, 15.88 8.52, 15.97 9.15 C16.05 9.78, 16.07 10.75, 16.09 11.07 C16.11 11.39, 16.11 10.75, 16.09 11.07" stroke="none" stroke-width="0" fill="#1e1e1e"/><path d="M16.09 11.07 C16.09 11.71, 16.05 12.36, 15.97 12.99 C15.88 13.62, 15.76 14.25, 15.6 14.85 C15.44 15.46, 15.24 16.05, 15.01 16.6 C14.78 17.16, 14.5 17.69, 14.21 18.18 C13.91 18.67, 13.57 19.14, 13.21 19.55 C12.86 19.96, 12.47 20.33, 12.07 20.65 C11.66 20.97, 11.23 21.25, 10.79 21.47 C10.36 21.69, 9.9 21.86, 9.44 21.97 C8.98 22.08, 8.51 22.14, 8.04 22.14 C7.58 22.14, 7.11 22.08, 6.65 21.97 C6.19 21.86, 5.73 21.69, 5.29 21.47 C4.86 21.25, 4.43 20.97, 4.02 20.65 C3.62 20.33, 3.23 19.96, 2.87 19.55 C2.52 19.14, 2.18 18.67, 1.88 18.18 C1.58 17.69, 1.31 17.16, 1.08 16.6 C0.84 16.05, 0.64 15.46, 0.49 14.85 C0.33 14.25, 0.2 13.62, 0.12 12.99 C0.04 12.36, 0 11.71, 0 11.07 C0 10.43, 0.04 9.78, 0.12 9.15 C0.2 8.52, 0.33 7.88, 0.49 7.28 C0.64 6.68, 0.84 6.09, 1.08 5.53 C1.31 4.98, 1.58 4.44, 1.88 3.95 C2.18 3.46, 2.52 3, 2.87 2.59 C3.23 2.18, 3.62 1.8, 4.02 1.48 C4.43 1.16, 4.86 0.89, 5.29 0.67 C5.73 0.45, 6.19 0.28, 6.65 0.17 C7.11 0.06, 7.58 0, 8.04 0 C8.51 0, 8.98 0.06, 9.44 0.17 C9.9 0.28, 10.36 0.45, 10.79 0.67 C11.23 0.89, 11.66 1.16, 12.07 1.48 C12.47 1.8, 12.86 2.18, 13.21 2.59 C13.57 3, 13.91 3.46, 14.21 3.95 C14.5 4.44, 14.78 4.98, 15.01 5.53 C15.24 6.09, 15.44 6.68, 15.6 7.28 C15.76 7.88, 15.88 8.52, 15.97 9.15 C16.05 9.78, 16.07 10.75, 16.09 11.07 C16.11 11.39, 16.11 10.75, 16.09 11.07" stroke="transparent" stroke-width="4" fill="none"/></g><g stroke-linecap="round"><g transform="translate(432.3466270603086 969.2550345422267) rotate(0 0 10.37943943115323)"><path d="M0 0 C0 4.96, 0 9.92, 0 20.76 M0 0 C0 8.05, 0 16.1, 0 20.76" stroke="#1e1e1e" stroke-width="4" fill="none"/></g></g><mask/><g stroke-linecap="round"><g transform="translate(432.679632347803 992.5809112030427) rotate(0 4.937639234576892 8.552242023732674)"><path d="M0 0 C2.63 4.56, 5.27 9.12, 9.88 17.1 M0 0 C3.05 5.29, 6.11 10.58, 9.88 17.1" stroke="#1e1e1e" stroke-width="4" fill="none"/></g></g><mask/><g stroke-linecap="round"><g transform="translate(431.279970213851 993.1498813239475) rotate(0 -4.98653280857252 8.636928178056735)"><path d="M0 0 C-2.6 4.51, -5.21 9.02, -9.97 17.27 M0 0 C-2.02 3.51, -4.05 7.01, -9.97 17.27" stroke="#1e1e1e" stroke-width="4" fill="none"/></g></g><mask/><g stroke-linecap="round"><g transform="translate(431.79148589803515 976.3281563808875) rotate(0 -4.622761710231401 4.622761710231373)"><path d="M0 0 C-2.82 2.82, -5.64 5.64, -9.25 9.25 M0 0 C-3.65 3.65, -7.3 7.3, -9.25 9.25" stroke="#1e1e1e" stroke-width="4" fill="none"/></g></g><mask/><g stroke-linecap="round"><g transform="translate(433.63163395275785 976.813827336832) rotate(0 4.360251584238739 4.3602515842387675)"><path d="M0 0 C2.01 2.01, 4.03 4.03, 8.72 8.72 M0 0 C2.6 2.6, 5.21 5.21, 8.72 8.72" stroke="#1e1e1e" stroke-width="4" fill="none"/></g></g><mask/><g stroke-linecap="round" transform="translate(589.4852249925887 1001.1753354947057) rotate(0 12.739907948239136 12.739907948239136)"><path d="M25.48 12.74 C25.48 13.48, 25.41 14.23, 25.29 14.95 C25.16 15.68, 24.96 16.4, 24.71 17.1 C24.46 17.79, 24.14 18.47, 23.77 19.11 C23.4 19.75, 22.97 20.36, 22.5 20.93 C22.03 21.49, 21.49 22.03, 20.93 22.5 C20.36 22.97, 19.75 23.4, 19.11 23.77 C18.47 24.14, 17.79 24.46, 17.1 24.71 C16.4 24.96, 15.68 25.16, 14.95 25.29 C14.23 25.41, 13.48 25.48, 12.74 25.48 C12 25.48, 11.25 25.41, 10.53 25.29 C9.8 25.16, 9.08 24.96, 8.38 24.71 C7.69 24.46, 7.01 24.14, 6.37 23.77 C5.73 23.4, 5.12 22.97, 4.55 22.5 C3.99 22.03, 3.45 21.49, 2.98 20.93 C2.51 20.36, 2.08 19.75, 1.71 19.11 C1.34 18.47, 1.02 17.79, 0.77 17.1 C0.52 16.4, 0.32 15.68, 0.19 14.95 C0.07 14.23, 0 13.48, 0 12.74 C0 12, 0.07 11.25, 0.19 10.53 C0.32 9.8, 0.52 9.08, 0.77 8.38 C1.02 7.69, 1.34 7.01, 1.71 6.37 C2.08 5.73, 2.51 5.12, 2.98 4.55 C3.45 3.99, 3.99 3.45, 4.55 2.98 C5.12 2.51, 5.73 2.08, 6.37 1.71 C7.01 1.34, 7.69 1.02, 8.38 0.77 C9.08 0.52, 9.8 0.32, 10.53 0.19 C11.25 0.07, 12 0, 12.74 0 C13.48 0, 14.23 0.07, 14.95 0.19 C15.68 0.32, 16.4 0.52, 17.1 0.77 C17.79 1.02, 18.47 1.34, 19.11 1.71 C19.75 2.08, 20.36 2.51, 20.93 2.98 C21.49 3.45, 22.03 3.99, 22.5 4.55 C22.97 5.12, 23.4 5.73, 23.77 6.37 C24.14 7.01, 24.46 7.69, 24.71 8.38 C24.96 9.08, 25.16 9.8, 25.29 10.53 C25.41 11.25, 25.45 12.37, 25.48 12.74 C25.51 13.11, 25.51 12.37, 25.48 12.74" stroke="none" stroke-width="0" fill="#ffffff"/><path d="M25.48 12.74 C25.48 13.48, 25.41 14.23, 25.29 14.95 C25.16 15.68, 24.96 16.4, 24.71 17.1 C24.46 17.79, 24.14 18.47, 23.77 19.11 C23.4 19.75, 22.97 20.36, 22.5 20.93 C22.03 21.49, 21.49 22.03, 20.93 22.5 C20.36 22.97, 19.75 23.4, 19.11 23.77 C18.47 24.14, 17.79 24.46, 17.1 24.71 C16.4 24.96, 15.68 25.16, 14.95 25.29 C14.23 25.41, 13.48 25.48, 12.74 25.48 C12 25.48, 11.25 25.41, 10.53 25.29 C9.8 25.16, 9.08 24.96, 8.38 24.71 C7.69 24.46, 7.01 24.14, 6.37 23.77 C5.73 23.4, 5.12 22.97, 4.55 22.5 C3.99 22.03, 3.45 21.49, 2.98 20.93 C2.51 20.36, 2.08 19.75, 1.71 19.11 C1.34 18.47, 1.02 17.79, 0.77 17.1 C0.52 16.4, 0.32 15.68, 0.19 14.95 C0.07 14.23, 0 13.48, 0 12.74 C0 12, 0.07 11.25, 0.19 10.53 C0.32 9.8, 0.52 9.08, 0.77 8.38 C1.02 7.69, 1.34 7.01, 1.71 6.37 C2.08 5.73, 2.51 5.12, 2.98 4.55 C3.45 3.99, 3.99 3.45, 4.55 2.98 C5.12 2.51, 5.73 2.08, 6.37 1.71 C7.01 1.34, 7.69 1.02, 8.38 0.77 C9.08 0.52, 9.8 0.32, 10.53 0.19 C11.25 0.07, 12 0, 12.74 0 C13.48 0, 14.23 0.07, 14.95 0.19 C15.68 0.32, 16.4 0.52, 17.1 0.77 C17.79 1.02, 18.47 1.34, 19.11 1.71 C19.75 2.08, 20.36 2.51, 20.93 2.98 C21.49 3.45, 22.03 3.99, 22.5 4.55 C22.97 5.12, 23.4 5.73, 23.77 6.37 C24.14 7.01, 24.46 7.69, 24.71 8.38 C24.96 9.08, 25.16 9.8, 25.29 10.53 C25.41 11.25, 25.45 12.37, 25.48 12.74 C25.51 13.11, 25.51 12.37, 25.48 12.74" stroke="#1e1e1e" stroke-width="2" fill="none"/></g><g stroke-linecap="round" transform="translate(257.3671004564591 999.1927547306316) rotate(0 12.739907948239136 12.739907948239136)"><path d="M25.48 12.74 C25.48 13.48, 25.41 14.23, 25.29 14.95 C25.16 15.68, 24.96 16.4, 24.71 17.1 C24.46 17.79, 24.14 18.47, 23.77 19.11 C23.4 19.75, 22.97 20.36, 22.5 20.93 C22.03 21.49, 21.49 22.03, 20.93 22.5 C20.36 22.97, 19.75 23.4, 19.11 23.77 C18.47 24.14, 17.79 24.46, 17.1 24.71 C16.4 24.96, 15.68 25.16, 14.95 25.29 C14.23 25.41, 13.48 25.48, 12.74 25.48 C12 25.48, 11.25 25.41, 10.53 25.29 C9.8 25.16, 9.08 24.96, 8.38 24.71 C7.69 24.46, 7.01 24.14, 6.37 23.77 C5.73 23.4, 5.12 22.97, 4.55 22.5 C3.99 22.03, 3.45 21.49, 2.98 20.93 C2.51 20.36, 2.08 19.75, 1.71 19.11 C1.34 18.47, 1.02 17.79, 0.77 17.1 C0.52 16.4, 0.32 15.68, 0.19 14.95 C0.07 14.23, 0 13.48, 0 12.74 C0 12, 0.07 11.25, 0.19 10.53 C0.32 9.8, 0.52 9.08, 0.77 8.38 C1.02 7.69, 1.34 7.01, 1.71 6.37 C2.08 5.73, 2.51 5.12, 2.98 4.55 C3.45 3.99, 3.99 3.45, 4.55 2.98 C5.12 2.51, 5.73 2.08, 6.37 1.71 C7.01 1.34, 7.69 1.02, 8.38 0.77 C9.08 0.52, 9.8 0.32, 10.53 0.19 C11.25 0.07, 12 0, 12.74 0 C13.48 0, 14.23 0.07, 14.95 0.19 C15.68 0.32, 16.4 0.52, 17.1 0.77 C17.79 1.02, 18.47 1.34, 19.11 1.71 C19.75 2.08, 20.36 2.51, 20.93 2.98 C21.49 3.45, 22.03 3.99, 22.5 4.55 C22.97 5.12, 23.4 5.73, 23.77 6.37 C24.14 7.01, 24.46 7.69, 24.71 8.38 C24.96 9.08, 25.16 9.8, 25.29 10.53 C25.41 11.25, 25.45 12.37, 25.48 12.74 C25.51 13.11, 25.51 12.37, 25.48 12.74" stroke="none" stroke-width="0" fill="#ffffff"/><path d="M25.48 12.74 C25.48 13.48, 25.41 14.23, 25.29 14.95 C25.16 15.68, 24.96 16.4, 24.71 17.1 C24.46 17.79, 24.14 18.47, 23.77 19.11 C23.4 19.75, 22.97 20.36, 22.5 20.93 C22.03 21.49, 21.49 22.03, 20.93 22.5 C20.36 22.97, 19.75 23.4, 19.11 23.77 C18.47 24.14, 17.79 24.46, 17.1 24.71 C16.4 24.96, 15.68 25.16, 14.95 25.29 C14.23 25.41, 13.48 25.48, 12.74 25.48 C12 25.48, 11.25 25.41, 10.53 25.29 C9.8 25.16, 9.08 24.96, 8.38 24.71 C7.69 24.46, 7.01 24.14, 6.37 23.77 C5.73 23.4, 5.12 22.97, 4.55 22.5 C3.99 22.03, 3.45 21.49, 2.98 20.93 C2.51 20.36, 2.08 19.75, 1.71 19.11 C1.34 18.47, 1.02 17.79, 0.77 17.1 C0.52 16.4, 0.32 15.68, 0.19 14.95 C0.07 14.23, 0 13.48, 0 12.74 C0 12, 0.07 11.25, 0.19 10.53 C0.32 9.8, 0.52 9.08, 0.77 8.38 C1.02 7.69, 1.34 7.01, 1.71 6.37 C2.08 5.73, 2.51 5.12, 2.98 4.55 C3.45 3.99, 3.99 3.45, 4.55 2.98 C5.12 2.51, 5.73 2.08, 6.37 1.71 C7.01 1.34, 7.69 1.02, 8.38 0.77 C9.08 0.52, 9.8 0.32, 10.53 0.19 C11.25 0.07, 12 0, 12.74 0 C13.48 0, 14.23 0.07, 14.95 0.19 C15.68 0.32, 16.4 0.52, 17.1 0.77 C17.79 1.02, 18.47 1.34, 19.11 1.71 C19.75 2.08, 20.36 2.51, 20.93 2.98 C21.49 3.45, 22.03 3.99, 22.5 4.55 C22.97 5.12, 23.4 5.73, 23.77 6.37 C24.14 7.01, 24.46 7.69, 24.71 8.38 C24.96 9.08, 25.16 9.8, 25.29 10.53 C25.41 11.25, 25.45 12.37, 25.48 12.74 C25.51 13.11, 25.51 12.37, 25.48 12.74" stroke="#1e1e1e" stroke-width="2" fill="none"/></g><g stroke-linecap="round" transform="translate(310.8490300826283 951.7053942083983) rotate(0 7.620449298938041 7.620449298938013)"><path d="M15.24 7.62 C15.24 8.06, 15.2 8.51, 15.13 8.94 C15.05 9.38, 14.93 9.81, 14.78 10.23 C14.63 10.64, 14.44 11.05, 14.22 11.43 C14 11.81, 13.74 12.18, 13.46 12.52 C13.17 12.86, 12.86 13.17, 12.52 13.46 C12.18 13.74, 11.81 14, 11.43 14.22 C11.05 14.44, 10.64 14.63, 10.23 14.78 C9.81 14.93, 9.38 15.05, 8.94 15.13 C8.51 15.2, 8.06 15.24, 7.62 15.24 C7.18 15.24, 6.73 15.2, 6.3 15.13 C5.86 15.05, 5.43 14.93, 5.01 14.78 C4.6 14.63, 4.19 14.44, 3.81 14.22 C3.43 14, 3.06 13.74, 2.72 13.46 C2.38 13.17, 2.07 12.86, 1.78 12.52 C1.5 12.18, 1.24 11.81, 1.02 11.43 C0.8 11.05, 0.61 10.64, 0.46 10.23 C0.31 9.81, 0.19 9.38, 0.12 8.94 C0.04 8.51, 0 8.06, 0 7.62 C0 7.18, 0.04 6.73, 0.12 6.3 C0.19 5.86, 0.31 5.43, 0.46 5.01 C0.61 4.6, 0.8 4.19, 1.02 3.81 C1.24 3.43, 1.5 3.06, 1.78 2.72 C2.07 2.38, 2.38 2.07, 2.72 1.78 C3.06 1.5, 3.43 1.24, 3.81 1.02 C4.19 0.8, 4.6 0.61, 5.01 0.46 C5.43 0.31, 5.86 0.19, 6.3 0.12 C6.73 0.04, 7.18 0, 7.62 0 C8.06 0, 8.51 0.04, 8.94 0.12 C9.38 0.19, 9.81 0.31, 10.23 0.46 C10.64 0.61, 11.05 0.8, 11.43 1.02 C11.81 1.24, 12.18 1.5, 12.52 1.78 C12.86 2.07, 13.17 2.38, 13.46 2.72 C13.74 3.06, 14 3.43, 14.22 3.81 C14.44 4.19, 14.63 4.6, 14.78 5.01 C14.93 5.43, 15.05 5.86, 15.13 6.3 C15.2 6.73, 15.22 7.4, 15.24 7.62 C15.26 7.84, 15.26 7.4, 15.24 7.62" stroke="none" stroke-width="0" fill="#707000"/><path d="M15.24 7.62 C15.24 8.06, 15.2 8.51, 15.13 8.94 C15.05 9.38, 14.93 9.81, 14.78 10.23 C14.63 10.64, 14.44 11.05, 14.22 11.43 C14 11.81, 13.74 12.18, 13.46 12.52 C13.17 12.86, 12.86 13.17, 12.52 13.46 C12.18 13.74, 11.81 14, 11.43 14.22 C11.05 14.44, 10.64 14.63, 10.23 14.78 C9.81 14.93, 9.38 15.05, 8.94 15.13 C8.51 15.2, 8.06 15.24, 7.62 15.24 C7.18 15.24, 6.73 15.2, 6.3 15.13 C5.86 15.05, 5.43 14.93, 5.01 14.78 C4.6 14.63, 4.19 14.44, 3.81 14.22 C3.43 14, 3.06 13.74, 2.72 13.46 C2.38 13.17, 2.07 12.86, 1.78 12.52 C1.5 12.18, 1.24 11.81, 1.02 11.43 C0.8 11.05, 0.61 10.64, 0.46 10.23 C0.31 9.81, 0.19 9.38, 0.12 8.94 C0.04 8.51, 0 8.06, 0 7.62 C0 7.18, 0.04 6.73, 0.12 6.3 C0.19 5.86, 0.31 5.43, 0.46 5.01 C0.61 4.6, 0.8 4.19, 1.02 3.81 C1.24 3.43, 1.5 3.06, 1.78 2.72 C2.07 2.38, 2.38 2.07, 2.72 1.78 C3.06 1.5, 3.43 1.24, 3.81 1.02 C4.19 0.8, 4.6 0.61, 5.01 0.46 C5.43 0.31, 5.86 0.19, 6.3 0.12 C6.73 0.04, 7.18 0, 7.62 0 C8.06 0, 8.51 0.04, 8.94 0.12 C9.38 0.19, 9.81 0.31, 10.23 0.46 C10.64 0.61, 11.05 0.8, 11.43 1.02 C11.81 1.24, 12.18 1.5, 12.52 1.78 C12.86 2.07, 13.17 2.38, 13.46 2.72 C13.74 3.06, 14 3.43, 14.22 3.81 C14.44 4.19, 14.63 4.6, 14.78 5.01 C14.93 5.43, 15.05 5.86, 15.13 6.3 C15.2 6.73, 15.22 7.4, 15.24 7.62 C15.26 7.84, 15.26 7.4, 15.24 7.62" stroke="transparent" stroke-width="2.5" fill="none" stroke-dasharray="1.5 8"/></g><g stroke-linecap="round" transform="translate(425.44400218522424 950.509118928793) rotate(0 7.620449298938041 7.620449298938013)"><path d="M15.24 7.62 C15.24 8.06, 15.2 8.51, 15.13 8.94 C15.05 9.38, 14.93 9.81, 14.78 10.23 C14.63 10.64, 14.44 11.05, 14.22 11.43 C14 11.81, 13.74 12.18, 13.46 12.52 C13.17 12.86, 12.86 13.17, 12.52 13.46 C12.18 13.74, 11.81 14, 11.43 14.22 C11.05 14.44, 10.64 14.63, 10.23 14.78 C9.81 14.93, 9.38 15.05, 8.94 15.13 C8.51 15.2, 8.06 15.24, 7.62 15.24 C7.18 15.24, 6.73 15.2, 6.3 15.13 C5.86 15.05, 5.43 14.93, 5.01 14.78 C4.6 14.63, 4.19 14.44, 3.81 14.22 C3.43 14, 3.06 13.74, 2.72 13.46 C2.38 13.17, 2.07 12.86, 1.78 12.52 C1.5 12.18, 1.24 11.81, 1.02 11.43 C0.8 11.05, 0.61 10.64, 0.46 10.23 C0.31 9.81, 0.19 9.38, 0.12 8.94 C0.04 8.51, 0 8.06, 0 7.62 C0 7.18, 0.04 6.73, 0.12 6.3 C0.19 5.86, 0.31 5.43, 0.46 5.01 C0.61 4.6, 0.8 4.19, 1.02 3.81 C1.24 3.43, 1.5 3.06, 1.78 2.72 C2.07 2.38, 2.38 2.07, 2.72 1.78 C3.06 1.5, 3.43 1.24, 3.81 1.02 C4.19 0.8, 4.6 0.61, 5.01 0.46 C5.43 0.31, 5.86 0.19, 6.3 0.12 C6.73 0.04, 7.18 0, 7.62 0 C8.06 0, 8.51 0.04, 8.94 0.12 C9.38 0.19, 9.81 0.31, 10.23 0.46 C10.64 0.61, 11.05 0.8, 11.43 1.02 C11.81 1.24, 12.18 1.5, 12.52 1.78 C12.86 2.07, 13.17 2.38, 13.46 2.72 C13.74 3.06, 14 3.43, 14.22 3.81 C14.44 4.19, 14.63 4.6, 14.78 5.01 C14.93 5.43, 15.05 5.86, 15.13 6.3 C15.2 6.73, 15.22 7.4, 15.24 7.62 C15.26 7.84, 15.26 7.4, 15.24 7.62" stroke="none" stroke-width="0" fill="#707000"/><path d="M15.24 7.62 C15.24 8.06, 15.2 8.51, 15.13 8.94 C15.05 9.38, 14.93 9.81, 14.78 10.23 C14.63 10.64, 14.44 11.05, 14.22 11.43 C14 11.81, 13.74 12.18, 13.46 12.52 C13.17 12.86, 12.86 13.17, 12.52 13.46 C12.18 13.74, 11.81 14, 11.43 14.22 C11.05 14.44, 10.64 14.63, 10.23 14.78 C9.81 14.93, 9.38 15.05, 8.94 15.13 C8.51 15.2, 8.06 15.24, 7.62 15.24 C7.18 15.24, 6.73 15.2, 6.3 15.13 C5.86 15.05, 5.43 14.93, 5.01 14.78 C4.6 14.63, 4.19 14.44, 3.81 14.22 C3.43 14, 3.06 13.74, 2.72 13.46 C2.38 13.17, 2.07 12.86, 1.78 12.52 C1.5 12.18, 1.24 11.81, 1.02 11.43 C0.8 11.05, 0.61 10.64, 0.46 10.23 C0.31 9.81, 0.19 9.38, 0.12 8.94 C0.04 8.51, 0 8.06, 0 7.62 C0 7.18, 0.04 6.73, 0.12 6.3 C0.19 5.86, 0.31 5.43, 0.46 5.01 C0.61 4.6, 0.8 4.19, 1.02 3.81 C1.24 3.43, 1.5 3.06, 1.78 2.72 C2.07 2.38, 2.38 2.07, 2.72 1.78 C3.06 1.5, 3.43 1.24, 3.81 1.02 C4.19 0.8, 4.6 0.61, 5.01 0.46 C5.43 0.31, 5.86 0.19, 6.3 0.12 C6.73 0.04, 7.18 0, 7.62 0 C8.06 0, 8.51 0.04, 8.94 0.12 C9.38 0.19, 9.81 0.31, 10.23 0.46 C10.64 0.61, 11.05 0.8, 11.43 1.02 C11.81 1.24, 12.18 1.5, 12.52 1.78 C12.86 2.07, 13.17 2.38, 13.46 2.72 C13.74 3.06, 14 3.43, 14.22 3.81 C14.44 4.19, 14.63 4.6, 14.78 5.01 C14.93 5.43, 15.05 5.86, 15.13 6.3 C15.2 6.73, 15.22 7.4, 15.24 7.62 C15.26 7.84, 15.26 7.4, 15.24 7.62" stroke="transparent" stroke-width="2.5" fill="none" stroke-dasharray="1.5 8"/></g></svg>