<svg version="1.1" xmlns="http://www.w3.org/2000/svg" viewBox="0 0 420 280" width="420" height="280" filter="invert(93%) hue-rotate(180deg)" class="excalidraw-svg">
  <!-- svg-source:excalidraw -->
  
  <defs>
    <style class="style-fonts">
      @font-face {
        font-family: "Virgil";
        src: url("https://excalidraw.com/Virgil.woff2");
      }
      @font-face {
        font-family: "Cascadia";
        src: url("https://excalidraw.com/Cascadia.woff2");
      }
      @font-face {
        font-family: "Assistant";
        src: url("https://excalidraw.com/Assistant-Regular.woff2");
      }
    </style>
    
  </defs>
  <g stroke-linecap="round" transform="translate(10 10) rotate(0 200 130)"><path d="M0 0 C0 0, 0 0, 0 0 M0 0 C0 0, 0 0, 0 0 M0.27 24.08 C5.25 18.35, 10.23 12.62, 21.26 -0.07 M0.27 24.08 C8.66 14.42, 17.06 4.77, 21.26 -0.07 M-0.12 48.92 C16.73 29.53, 33.59 10.14, 42.52 -0.14 M-0.12 48.92 C12.49 34.41, 25.11 19.9, 42.52 -0.14 M0.14 73 C21.9 47.97, 43.66 22.94, 63.78 -0.21 M0.14 73 C18.28 52.13, 36.42 31.27, 63.78 -0.21 M-0.25 97.84 C27.97 65.38, 56.19 32.92, 85.04 -0.28 M-0.25 97.84 C18.17 76.65, 36.58 55.47, 85.04 -0.28 M0.02 121.92 C25.93 92.11, 51.84 62.3, 106.3 -0.34 M0.02 121.92 C35.31 81.32, 70.6 40.72, 106.3 -0.34 M0.29 146 C47 92.26, 93.71 38.53, 126.91 0.34 M0.29 146 C31.19 110.45, 62.1 74.89, 126.91 0.34 M-0.1 170.84 C41.23 123.29, 82.56 75.75, 148.17 0.27 M-0.1 170.84 C29.8 136.44, 59.7 102.04, 148.17 0.27 M0.16 194.92 C35.46 154.32, 70.75 113.72, 169.43 0.2 M0.16 194.92 C45.06 143.27, 89.96 91.62, 169.43 0.2 M-0.23 219.75 C63.56 146.38, 127.34 73.01, 190.69 0.13 M-0.23 219.75 C71.95 136.73, 144.12 53.7, 190.69 0.13 M0.04 243.84 C74.26 158.45, 148.48 73.07, 211.95 0.06 M0.04 243.84 C71.62 161.49, 143.2 79.15, 211.95 0.06 M6.87 260.37 C85.79 169.57, 164.72 78.78, 233.21 0 M6.87 260.37 C67.69 190.39, 128.52 120.42, 233.21 0 M28.13 260.3 C117.83 157.11, 207.53 53.92, 254.47 -0.07 M28.13 260.3 C117.19 157.84, 206.26 55.39, 254.47 -0.07 M49.39 260.23 C97.61 204.75, 145.84 149.27, 275.73 -0.14 M49.39 260.23 C118.38 180.86, 187.38 101.49, 275.73 -0.14 M70.65 260.16 C149.96 168.92, 229.27 77.68, 296.99 -0.21 M70.65 260.16 C147.07 172.25, 223.49 84.34, 296.99 -0.21 M91.91 260.09 C152.84 190, 213.77 119.91, 318.25 -0.28 M91.91 260.09 C146.4 197.41, 200.89 134.72, 318.25 -0.28 M113.17 260.03 C185.11 177.26, 257.06 94.49, 339.51 -0.35 M113.17 260.03 C192.13 169.18, 271.1 78.34, 339.51 -0.35 M134.43 259.96 C181.97 205.27, 229.51 150.58, 360.11 0.34 M134.43 259.96 C191.85 193.9, 249.27 127.85, 360.11 0.34 M155.03 260.64 C201.55 207.12, 248.08 153.61, 381.37 0.27 M155.03 260.64 C240.9 161.86, 326.77 63.08, 381.37 0.27 M176.29 260.57 C261.88 162.12, 347.47 63.66, 400.01 3.22 M176.29 260.57 C231.59 196.96, 286.89 133.34, 400.01 3.22 M197.55 260.5 C242.52 208.77, 287.5 157.03, 400.27 27.3 M197.55 260.5 C249.18 201.11, 300.8 141.72, 400.27 27.3 M218.81 260.44 C269.82 201.76, 320.82 143.09, 399.88 52.14 M218.81 260.44 C281.07 188.82, 343.32 117.2, 399.88 52.14 M240.07 260.37 C300.38 190.99, 360.69 121.61, 400.15 76.22 M240.07 260.37 C299.9 191.54, 359.73 122.71, 400.15 76.22 M261.33 260.3 C296.8 219.49, 332.27 178.69, 399.76 101.05 M261.33 260.3 C315.67 197.79, 370.01 135.28, 399.76 101.05 M282.59 260.23 C327.43 208.64, 372.27 157.06, 400.03 125.14 M282.59 260.23 C307.14 231.98, 331.7 203.74, 400.03 125.14 M303.85 260.16 C323.72 237.3, 343.6 214.44, 400.29 149.22 M303.85 260.16 C329.41 230.76, 354.96 201.36, 400.29 149.22 M325.11 260.09 C351.3 229.96, 377.49 199.83, 399.9 174.05 M325.11 260.09 C340.56 242.32, 356 224.56, 399.9 174.05 M346.37 260.02 C361.57 242.54, 376.77 225.05, 400.17 198.14 M346.37 260.02 C365.54 237.97, 384.71 215.92, 400.17 198.14 M367.63 259.95 C377.16 248.99, 386.7 238.02, 399.78 222.97 M367.63 259.95 C376.81 249.4, 385.98 238.85, 399.78 222.97 M388.24 260.64 C392.83 255.36, 397.42 250.08, 400.05 247.05 M388.24 260.64 C391.6 256.77, 394.97 252.9, 400.05 247.05" stroke="#a5d8ff" stroke-width="2" fill="none"/><path d="M0 0 C134.55 0, 269.11 0, 400 0 M0 0 C94.4 0, 188.79 0, 400 0 M400 0 C400 61.05, 400 122.09, 400 260 M400 0 C400 101.28, 400 202.56, 400 260 M400 260 C302.73 260, 205.46 260, 0 260 M400 260 C277.13 260, 154.25 260, 0 260 M0 260 C0 196.08, 0 132.17, 0 0 M0 260 C0 171.77, 0 83.55, 0 0" stroke="transparent" stroke-width="4" fill="none"/></g><g stroke-linecap="round" transform="translate(250 50) rotate(0 60 60)"><path d="M0 0 L120 0 L120 120 L0 120" stroke="none" stroke-width="0" fill="#ffffff"/><path d="M0 0 C41.81 0, 83.61 0, 120 0 M0 0 C25.25 0, 50.5 0, 120 0 M120 0 C120 24.54, 120 49.07, 120 120 M120 0 C120 43.02, 120 86.03, 120 120 M120 120 C78.04 120, 36.08 120, 0 120 M120 120 C72.57 120, 25.14 120, 0 120 M0 120 C0 85.44, 0 50.87, 0 0 M0 120 C0 76.9, 0 33.79, 0 0" stroke="transparent" stroke-width="4" fill="none"/></g><g stroke-linecap="round"><g transform="translate(250 50) rotate(0 60 60)"><path d="M0 0 C0 33.62, 0 67.25, 0 120 M0 0 C0 35.15, 0 70.3, 0 120 M0 120 C24.04 120, 48.08 120, 120 120 M0 120 C27.92 120, 55.84 120, 120 120 M120 120 C120 76.1, 120 32.19, 120 0 M120 120 C120 74, 120 28, 120 0" stroke="#1e1e1e" stroke-width="4" fill="none"/></g></g><mask/><g stroke-linecap="round" transform="translate(250 110) rotate(0 60 10)"><path d="M0 0 L120 0 L120 20 L0 20" stroke="none" stroke-width="0" fill="#ffc9c9"/><path d="M0 0 C31.09 0, 62.17 0, 120 0 M0 0 C33.01 0, 66.01 0, 120 0 M120 0 C120 4.11, 120 8.23, 120 20 M120 0 C120 6.8, 120 13.61, 120 20 M120 20 C85.62 20, 51.24 20, 0 20 M120 20 C77.09 20, 34.17 20, 0 20 M0 20 C0 12.78, 0 5.57, 0 0 M0 20 C0 13.94, 0 7.88, 0 0" stroke="#1e1e1e" stroke-width="4" fill="none"/></g><g stroke-linecap="round" transform="translate(170 190) rotate(0 40 20)"><path d="M80 20 C80 21.16, 79.79 22.33, 79.39 23.47 C78.99 24.61, 78.38 25.75, 77.59 26.84 C76.8 27.93, 75.8 29, 74.64 30 C73.48 31, 72.13 31.97, 70.64 32.86 C69.15 33.74, 67.49 34.58, 65.71 35.32 C63.94 36.07, 62.01 36.74, 60 37.32 C57.99 37.9, 55.86 38.4, 53.68 38.79 C51.51 39.19, 49.23 39.5, 46.95 39.7 C44.67 39.9, 42.32 40, 40 40 C37.68 40, 35.33 39.9, 33.05 39.7 C30.77 39.5, 28.49 39.19, 26.32 38.79 C24.14 38.4, 22.01 37.9, 20 37.32 C17.99 36.74, 16.06 36.07, 14.29 35.32 C12.51 34.58, 10.85 33.74, 9.36 32.86 C7.87 31.97, 6.52 31, 5.36 30 C4.2 29, 3.2 27.93, 2.41 26.84 C1.62 25.75, 1.01 24.61, 0.61 23.47 C0.21 22.33, 0 21.16, 0 20 C0 18.84, 0.21 17.67, 0.61 16.53 C1.01 15.39, 1.62 14.25, 2.41 13.16 C3.2 12.07, 4.2 11, 5.36 10 C6.52 9, 7.87 8.03, 9.36 7.14 C10.85 6.26, 12.51 5.42, 14.29 4.68 C16.06 3.93, 17.99 3.26, 20 2.68 C22.01 2.1, 24.14 1.6, 26.32 1.21 C28.49 0.81, 30.77 0.5, 33.05 0.3 C35.33 0.1, 37.68 0, 40 0 C42.32 0, 44.67 0.1, 46.95 0.3 C49.23 0.5, 51.51 0.81, 53.68 1.21 C55.86 1.6, 57.99 2.1, 60 2.68 C62.01 3.26, 63.94 3.93, 65.71 4.68 C67.49 5.42, 69.15 6.26, 70.64 7.14 C72.13 8.03, 73.48 9, 74.64 10 C75.8 11, 76.8 12.07, 77.59 13.16 C78.38 14.25, 78.99 15.39, 79.39 16.53 C79.79 17.67, 79.9 19.42, 80 20 C80.1 20.58, 80.1 19.42, 80 20" stroke="none" stroke-width="0" fill="#ffc9c9"/><path d="M80 20 C80 21.16, 79.79 22.33, 79.39 23.47 C78.99 24.61, 78.38 25.75, 77.59 26.84 C76.8 27.93, 75.8 29, 74.64 30 C73.48 31, 72.13 31.97, 70.64 32.86 C69.15 33.74, 67.49 34.58, 65.71 35.32 C63.94 36.07, 62.01 36.74, 60 37.32 C57.99 37.9, 55.86 38.4, 53.68 38.79 C51.51 39.19, 49.23 39.5, 46.95 39.7 C44.67 39.9, 42.32 40, 40 40 C37.68 40, 35.33 39.9, 33.05 39.7 C30.77 39.5, 28.49 39.19, 26.32 38.79 C24.14 38.4, 22.01 37.9, 20 37.32 C17.99 36.74, 16.06 36.07, 14.29 35.32 C12.51 34.58, 10.85 33.74, 9.36 32.86 C7.87 31.97, 6.52 31, 5.36 30 C4.2 29, 3.2 27.93, 2.41 26.84 C1.62 25.75, 1.01 24.61, 0.61 23.47 C0.21 22.33, 0 21.16, 0 20 C0 18.84, 0.21 17.67, 0.61 16.53 C1.01 15.39, 1.62 14.25, 2.41 13.16 C3.2 12.07, 4.2 11, 5.36 10 C6.52 9, 7.87 8.03, 9.36 7.14 C10.85 6.26, 12.51 5.42, 14.29 4.68 C16.06 3.93, 17.99 3.26, 20 2.68 C22.01 2.1, 24.14 1.6, 26.32 1.21 C28.49 0.81, 30.77 0.5, 33.05 0.3 C35.33 0.1, 37.68 0, 40 0 C42.32 0, 44.67 0.1, 46.95 0.3 C49.23 0.5, 51.51 0.81, 53.68 1.21 C55.86 1.6, 57.99 2.1, 60 2.68 C62.01 3.26, 63.94 3.93, 65.71 4.68 C67.49 5.42, 69.15 6.26, 70.64 7.14 C72.13 8.03, 73.48 9, 74.64 10 C75.8 11, 76.8 12.07, 77.59 13.16 C78.38 14.25, 78.99 15.39, 79.39 16.53 C79.79 17.67, 79.9 19.42, 80 20 C80.1 20.58, 80.1 19.42, 80 20" stroke="#1e1e1e" stroke-width="4" fill="none"/></g><g stroke-linecap="round"><g transform="translate(110 170) rotate(0 30 20)"><path d="M0 0 C0 9.88, 0 19.76, 0 40 M0 0 C0 8.45, 0 16.89, 0 40 M0 40 C23.6 40, 47.2 40, 60 40 M0 40 C12.39 40, 24.77 40, 60 40" stroke="#1e1e1e" stroke-width="4" fill="none"/></g></g><mask/><g stroke-linecap="round"><g transform="translate(250 210) rotate(0 30 -20)"><path d="M0 0 C21.41 0, 42.83 0, 60 0 M0 0 C14.42 0, 28.84 0, 60 0 M60 0 C60 -14.51, 60 -29.02, 60 -40 M60 0 C60 -14.24, 60 -28.49, 60 -40" stroke="#1e1e1e" stroke-width="4" fill="none"/></g></g><mask/><g stroke-linecap="round" transform="translate(50 50) rotate(0 60 60)"><path d="M0 0 L120 0 L120 120 L0 120" stroke="none" stroke-width="0" fill="#ffffff"/><path d="M0 0 C46.48 0, 92.96 0, 120 0 M0 0 C30.29 0, 60.58 0, 120 0 M120 0 C120 36.51, 120 73.03, 120 120 M120 0 C120 32.27, 120 64.53, 120 120 M120 120 C72.42 120, 24.84 120, 0 120 M120 120 C81.85 120, 43.7 120, 0 120 M0 120 C0 87.01, 0 54.02, 0 0 M0 120 C0 72.95, 0 25.91, 0 0" stroke="transparent" stroke-width="4" fill="none"/></g><g stroke-linecap="round"><g transform="translate(50 50) rotate(0 60 60)"><path d="M0 0 C0 31.26, 0 62.52, 0 120 M0 0 C0 44.64, 0 89.28, 0 120 M0 120 C30.54 120, 61.08 120, 120 120 M0 120 C30.07 120, 60.13 120, 120 120 M120 120 C120 78.88, 120 37.76, 120 0 M120 120 C120 87.57, 120 55.13, 120 0" stroke="#1e1e1e" stroke-width="4" fill="none"/></g></g><mask/><g stroke-linecap="round" transform="translate(50 70) rotate(0 60 10)"><path d="M0 0 L120 0 L120 20 L0 20" stroke="none" stroke-width="0" fill="#ffc9c9"/><path d="M0 0 C28.73 0, 57.45 0, 120 0 M0 0 C43.71 0, 87.41 0, 120 0 M120 0 C120 6.38, 120 12.76, 120 20 M120 0 C120 4.57, 120 9.14, 120 20 M120 20 C93.96 20, 67.92 20, 0 20 M120 20 C91.7 20, 63.39 20, 0 20 M0 20 C0 13.01, 0 6.02, 0 0 M0 20 C0 14.16, 0 8.32, 0 0" stroke="#1e1e1e" stroke-width="4" fill="none"/></g></svg>