<svg version="1.1" xmlns="http://www.w3.org/2000/svg" viewBox="0 0 620 320" width="620" height="320" filter="invert(93%) hue-rotate(180deg)" class="excalidraw-svg">
  <!-- svg-source:excalidraw -->
  
  <defs>
    <style class="style-fonts">
      @font-face {
        font-family: "Virgil";
        src: url("https://excalidraw.com/Virgil.woff2");
      }
      @font-face {
        font-family: "Cascadia";
        src: url("https://excalidraw.com/Cascadia.woff2");
      }
      @font-face {
        font-family: "Assistant";
        src: url("https://excalidraw.com/Assistant-Regular.woff2");
      }
    </style>
    
  </defs>
  <g stroke-linecap="round"><g transform="translate(10 10) rotate(0 300 150)"><path d="M0 0 C0 71.38, 0 142.76, 0 300 M0 0 C0 97.42, 0 194.83, 0 300 M0 300 C150.13 300, 300.25 300, 400 300 M0 300 C112.96 300, 225.91 300, 400 300 M400 300 C459.22 270.39, 518.44 240.78, 600 200 M400 300 C462.99 268.5, 525.99 237.01, 600 200" stroke="#1e1e1e" stroke-width="4" fill="none"/></g></g><mask/><g stroke-linecap="round"><g transform="translate(362.2254224077963 270) rotate(0 114.48187017531595 -43.86603133427006)"><path d="M0 0 C2.9 0, 5.81 0, 7.77 0 M0 0 C2.46 0, 4.91 0, 7.77 0 M7.77 0 C21.54 0, 35.31 0, 47.77 0 M7.77 0 C20.68 0, 33.59 0, 47.77 0 M47.77 0 C108.44 -29.37, 169.1 -58.75, 228.96 -87.73 M47.77 0 C115.75 -32.91, 183.72 -65.82, 228.96 -87.73" stroke="#1e1e1e" stroke-width="4" fill="none"/></g></g><mask/><g stroke-linecap="round"><g transform="translate(350 270) rotate(0 -20 -130)"><path d="M0 0 C-9.45 0, -18.89 0, -40 0 M0 0 C-10.45 0, -20.89 0, -40 0 M-40 0 C-40 -53.24, -40 -106.48, -40 -260 M-40 0 C-40 -57.61, -40 -115.22, -40 -260" stroke="#1e1e1e" stroke-width="4" fill="none"/></g></g><mask/><g stroke-linecap="round"><g transform="translate(10 30) rotate(0 150 0)"><path d="M0 0 C91.62 0, 183.23 0, 300 0 M0 0 C112.54 0, 225.08 0, 300 0" stroke="#1971c2" stroke-width="4" fill="none"/></g></g><mask/><g stroke-linecap="round"><g transform="translate(30 50) rotate(0 288.31851074889437 126.71363404088513)"><path d="M0 0 C2.78 24.08, 6.99 106.49, 16.68 144.5 C26.37 182.5, 29.87 210.4, 58.15 228.04 C86.42 245.69, 142.17 246.15, 186.31 250.38 C230.45 254.61, 289.98 253.88, 322.98 253.43 C355.99 252.97, 362.65 254, 384.33 247.65 C406.02 241.3, 421.04 230.88, 453.1 215.34 C485.15 199.79, 556.05 164.55, 576.64 154.39 M0 0 C2.78 24.08, 6.99 106.49, 16.68 144.5 C26.37 182.5, 29.87 210.4, 58.15 228.04 C86.42 245.69, 142.17 246.15, 186.31 250.38 C230.45 254.61, 289.98 253.88, 322.98 253.43 C355.99 252.97, 362.65 254, 384.33 247.65 C406.02 241.3, 421.04 230.88, 453.1 215.34 C485.15 199.79, 556.05 164.55, 576.64 154.39" stroke="#e03131" stroke-width="1" fill="none"/></g></g><mask/><g stroke-linecap="round"><g transform="translate(90 50) rotate(0 256.3554254227564 122.71534379574342)"><path d="M0 0 C1.34 21, 0.83 92.32, 8.02 125.98 C15.22 159.64, 23.82 182.55, 43.18 201.95 C62.54 221.35, 87.92 235.13, 124.2 242.38 C160.49 249.63, 227.87 245.89, 260.88 245.43 C293.88 244.98, 300.54 246, 322.23 239.66 C343.91 233.31, 359.24 222.38, 390.99 207.34 C422.74 192.29, 492.42 159.05, 512.71 149.39 M0 0 C1.34 21, 0.83 92.32, 8.02 125.98 C15.22 159.64, 23.82 182.55, 43.18 201.95 C62.54 221.35, 87.92 235.13, 124.2 242.38 C160.49 249.63, 227.87 245.89, 260.88 245.43 C293.88 244.98, 300.54 246, 322.23 239.66 C343.91 233.31, 359.24 222.38, 390.99 207.34 C422.74 192.29, 492.42 159.05, 512.71 149.39" stroke="#e03131" stroke-width="1" fill="none"/></g></g><mask/><g stroke-linecap="round"><g transform="translate(231.4216955673478 50) rotate(0 184.3669982627076 118.71971840510278)"><path d="M0 0 C0 20, -3.2 87.9, 0 120 C3.2 152.1, 8.36 173.03, 19.19 192.61 C30.02 212.18, 47.12 231.23, 64.99 237.44 C82.86 243.64, 107.53 230.95, 126.4 229.84 C145.28 228.72, 157.98 235.72, 178.25 230.74 C198.52 225.76, 216.29 214.71, 248.04 199.96 C279.79 185.22, 348.62 151.89, 368.73 142.27 M0 0 C0 20, -3.2 87.9, 0 120 C3.2 152.1, 8.36 173.03, 19.19 192.61 C30.02 212.18, 47.12 231.23, 64.99 237.44 C82.86 243.64, 107.53 230.95, 126.4 229.84 C145.28 228.72, 157.98 235.72, 178.25 230.74 C198.52 225.76, 216.29 214.71, 248.04 199.96 C279.79 185.22, 348.62 151.89, 368.73 142.27" stroke="#e03131" stroke-width="1" fill="none"/></g></g><mask/><g stroke-linecap="round"><g transform="translate(291.4216955673478 50) rotate(0 51.8661053255099 111.54797738939011)"><path d="M0 0 C0 20, -1.96 83.77, 0 120 C1.96 156.23, 1.47 200.17, 11.77 217.36 C22.07 234.54, 50.46 228.76, 61.82 223.1 C73.19 217.43, 74.59 200.63, 79.94 183.38 C85.29 166.12, 90.51 137.31, 93.92 119.54 C97.32 101.77, 98.73 91.69, 100.37 76.77 C102 61.85, 103.17 37.82, 103.73 30.04 M0 0 C0 20, -1.96 83.77, 0 120 C1.96 156.23, 1.47 200.17, 11.77 217.36 C22.07 234.54, 50.46 228.76, 61.82 223.1 C73.19 217.43, 74.59 200.63, 79.94 183.38 C85.29 166.12, 90.51 137.31, 93.92 119.54 C97.32 101.77, 98.73 91.69, 100.37 76.77 C102 61.85, 103.17 37.82, 103.73 30.04" stroke="#e03131" stroke-width="1" fill="none"/></g></g><mask/></svg>