<svg version="1.1" xmlns="http://www.w3.org/2000/svg" viewBox="0 0 300 180" width="300" height="180" filter="invert(93%) hue-rotate(180deg)" class="excalidraw-svg"><!-- svg-source:excalidraw --><metadata></metadata><defs><style class="style-fonts">
      </style></defs><g stroke-linecap="round"><g transform="translate(10 150) rotate(0 140 -60)" fill-rule="evenodd"><path d="M0 0 L40 0 L40 -140 L120 -140 L120 0 L160 0 L160 -140 L240 -140 L240 0 L280 0 L280 20 L220 20 L220 -120 L180 -120 L180 20 L100 20 L100 -120 L60 -120 L60 20 L0 20 L0 0" stroke="none" stroke-width="0" fill="#a5d8ff" fill-rule="evenodd"></path><path d="M0 0 C9.76 0, 19.52 0, 40 0 M0 0 C8.77 0, 17.53 0, 40 0 M40 0 C40 -35.09, 40 -70.19, 40 -140 M40 0 C40 -28.36, 40 -56.73, 40 -140 M40 -140 C58.31 -140, 76.61 -140, 120 -140 M40 -140 C63.45 -140, 86.9 -140, 120 -140 M120 -140 C120 -86.61, 120 -33.21, 120 0 M120 -140 C120 -93.55, 120 -47.09, 120 0 M120 0 C130.81 0, 141.62 0, 160 0 M120 0 C134.28 0, 148.55 0, 160 0 M160 0 C160 -28.53, 160 -57.07, 160 -140 M160 0 C160 -30.3, 160 -60.59, 160 -140 M160 -140 C177.95 -140, 195.91 -140, 240 -140 M160 -140 C190.46 -140, 220.92 -140, 240 -140 M240 -140 C240 -98.56, 240 -57.13, 240 0 M240 -140 C240 -90.31, 240 -40.62, 240 0 M240 0 C251.65 0, 263.3 0, 280 0 M240 0 C251.65 0, 263.31 0, 280 0 M280 0 C280 7.59, 280 15.19, 280 20 M280 0 C280 4.04, 280 8.09, 280 20 M280 20 C267.14 20, 254.27 20, 220 20 M280 20 C257.7 20, 235.4 20, 220 20 M220 20 C220 -24.85, 220 -69.7, 220 -120 M220 20 C220 -31.67, 220 -83.35, 220 -120 M220 -120 C208.75 -120, 197.5 -120, 180 -120 M220 -120 C209.57 -120, 199.13 -120, 180 -120 M180 -120 C180 -74.16, 180 -28.33, 180 20 M180 -120 C180 -88.77, 180 -57.53, 180 20 M180 20 C154.16 20, 128.32 20, 100 20 M180 20 C151.66 20, 123.31 20, 100 20 M100 20 C100 -29.53, 100 -79.06, 100 -120 M100 20 C100 -20.27, 100 -60.54, 100 -120 M100 -120 C87.42 -120, 74.84 -120, 60 -120 M100 -120 C91.85 -120, 83.71 -120, 60 -120 M60 -120 C60 -78.52, 60 -37.04, 60 20 M60 -120 C60 -86.05, 60 -52.09, 60 20 M60 20 C37.54 20, 15.07 20, 0 20 M60 20 C40.99 20, 21.98 20, 0 20 M0 20 C0 12.09, 0 4.18, 0 0 M0 20 C0 13.52, 0 7.05, 0 0 M0 0 C0 0, 0 0, 0 0 M0 0 C0 0, 0 0, 0 0" stroke="transparent" stroke-width="4" fill="none"></path></g></g><mask></mask><g stroke-linecap="round"><g transform="translate(10 150) rotate(0 140 -70)"><path d="M0 0 C11.26 0, 22.51 0, 40 0 M0 0 C12.66 0, 25.31 0, 40 0 M40 0 C40 -31.24, 40 -62.48, 40 -140 M40 0 C40 -31.07, 40 -62.14, 40 -140 M40 -140 C60.84 -140, 81.68 -140, 120 -140 M40 -140 C69.43 -140, 98.86 -140, 120 -140 M120 -140 C120 -103.2, 120 -66.4, 120 0 M120 -140 C120 -102.73, 120 -65.45, 120 0 M120 0 C135.34 0, 150.68 0, 160 0 M120 0 C132.06 0, 144.12 0, 160 0 M160 0 C160 -34.6, 160 -69.2, 160 -140 M160 0 C160 -47.99, 160 -95.97, 160 -140 M160 -140 C187.01 -140, 214.02 -140, 240 -140 M160 -140 C188.52 -140, 217.04 -140, 240 -140 M240 -140 C240 -86.07, 240 -32.13, 240 0 M240 -140 C240 -109.36, 240 -78.73, 240 0 M240 0 C254.17 0, 268.33 0, 280 0 M240 0 C253.13 0, 266.26 0, 280 0" stroke="#1e1e1e" stroke-width="4" fill="none"></path></g></g><mask></mask><g stroke-linecap="round"><g transform="translate(10 170) rotate(0 140 -70)"><path d="M0 0 C17 0, 34 0, 60 0 M0 0 C21.37 0, 42.75 0, 60 0 M60 0 C60 -47.61, 60 -95.22, 60 -140 M60 0 C60 -46.97, 60 -93.93, 60 -140 M60 -140 C71.28 -140, 82.56 -140, 100 -140 M60 -140 C75.17 -140, 90.35 -140, 100 -140 M100 -140 C100 -109.24, 100 -78.48, 100 0 M100 -140 C100 -102.53, 100 -65.06, 100 0 M100 0 C122.88 0, 145.76 0, 180 0 M100 0 C124.15 0, 148.29 0, 180 0 M180 0 C180 -34.8, 180 -69.6, 180 -140 M180 0 C180 -40.9, 180 -81.81, 180 -140 M180 -140 C192.89 -140, 205.77 -140, 220 -140 M180 -140 C193.82 -140, 207.64 -140, 220 -140 M220 -140 C220 -86.6, 220 -33.19, 220 0 M220 -140 C220 -104.62, 220 -69.24, 220 0 M220 0 C242.4 0, 264.8 0, 280 0 M220 0 C236.56 0, 253.12 0, 280 0" stroke="#1e1e1e" stroke-width="4" fill="none"></path></g></g><mask></mask></svg>