<svg version="1.1" xmlns="http://www.w3.org/2000/svg" viewBox="0 0 120 120" width="120" height="120" filter="invert(93%) hue-rotate(180deg)" class="excalidraw-svg">
  <!-- svg-source:excalidraw -->
  
  <defs>
    <style class="style-fonts">
      
    </style>
    
  </defs>
  <g stroke-linecap="round" transform="translate(10 10) rotate(0 50 50)"><path d="M0 0 C22.58 0, 45.15 0, 100 0 M0 0 C37.91 0, 75.81 0, 100 0 M100 0 C100 23.31, 100 46.62, 100 100 M100 0 C100 35.77, 100 71.54, 100 100 M100 100 C65.47 100, 30.95 100, 0 100 M100 100 C64.47 100, 28.94 100, 0 100 M0 100 C0 70.99, 0 41.98, 0 0 M0 100 C0 69.48, 0 38.97, 0 0" stroke="#e03131" stroke-width="4" fill="none"/></g><g stroke-linecap="round"><g transform="translate(59.36778824232775 61.11640268111668) rotate(0 0 -21.226793664346786)"><path d="M0 0 C0 -10.96, 0 -21.92, 0 -42.45 M0 0 C0 -16.94, 0 -33.89, 0 -42.45" stroke="#1e1e1e" stroke-width="2" fill="none"/></g><g transform="translate(59.36778824232775 61.11640268111668) rotate(0 0 -21.226793664346786)"><path d="M0 -42.45 L6.34 -28.86 L-6.34 -28.86 L0 -42.45" stroke="none" stroke-width="0" fill="#1e1e1e" fill-rule="evenodd"/><path d="M0 -42.45 C1.64 -38.94, 3.27 -35.43, 6.34 -28.86 M0 -42.45 C2.53 -37.03, 5.06 -31.6, 6.34 -28.86 M6.34 -28.86 C2.03 -28.86, -2.29 -28.86, -6.34 -28.86 M6.34 -28.86 C2.27 -28.86, -1.79 -28.86, -6.34 -28.86 M-6.34 -28.86 C-4.59 -32.61, -2.84 -36.36, 0 -42.45 M-6.34 -28.86 C-4 -33.87, -1.66 -38.89, 0 -42.45 M0 -42.45 C0 -42.45, 0 -42.45, 0 -42.45 M0 -42.45 C0 -42.45, 0 -42.45, 0 -42.45" stroke="#1e1e1e" stroke-width="2" fill="none"/></g></g><mask/><g stroke-linecap="round"><g transform="translate(59.36778824232775 60.906558852783405) rotate(0 14.384188459838354 -14.384188459838356)"><path d="M0 0 C11.29 -11.29, 22.58 -22.58, 28.77 -28.77 M0 0 C10.88 -10.88, 21.76 -21.76, 28.77 -28.77" stroke="#1e1e1e" stroke-width="2" fill="none"/></g><g transform="translate(59.36778824232775 60.906558852783405) rotate(0 14.384188459838354 -14.384188459838356)"><path d="M28.77 -28.77 L23.64 -14.67 L14.67 -23.64 L28.77 -28.77" stroke="none" stroke-width="0" fill="#1e1e1e" fill-rule="evenodd"/><path d="M28.77 -28.77 C26.76 -23.24, 24.74 -17.71, 23.64 -14.67 M28.77 -28.77 C26.83 -23.44, 24.89 -18.11, 23.64 -14.67 M23.64 -14.67 C20.57 -17.74, 17.51 -20.81, 14.67 -23.64 M23.64 -14.67 C20.75 -17.56, 17.87 -20.45, 14.67 -23.64 M14.67 -23.64 C19.01 -25.22, 23.34 -26.79, 28.77 -28.77 M14.67 -23.64 C19.6 -25.43, 24.53 -27.22, 28.77 -28.77 M28.77 -28.77 C28.77 -28.77, 28.77 -28.77, 28.77 -28.77 M28.77 -28.77 C28.77 -28.77, 28.77 -28.77, 28.77 -28.77" stroke="#1e1e1e" stroke-width="2" fill="none"/></g></g><mask/><g stroke-linecap="round"><g transform="translate(59.36778824232775 61.11640268111668) rotate(0 21.226793664346786 0)"><path d="M0 0 C15.18 0, 30.36 0, 42.45 0 M0 0 C15.2 0, 30.41 0, 42.45 0" stroke="#1e1e1e" stroke-width="2" fill="none"/></g><g transform="translate(59.36778824232775 61.11640268111668) rotate(0 21.226793664346786 0)"><path d="M42.45 0 L28.86 6.34 L28.86 -6.34 L42.45 0" stroke="none" stroke-width="0" fill="#1e1e1e" fill-rule="evenodd"/><path d="M42.45 0 C37.59 2.27, 32.73 4.53, 28.86 6.34 M42.45 0 C37.58 2.27, 32.72 4.54, 28.86 6.34 M28.86 6.34 C28.86 1.33, 28.86 -3.67, 28.86 -6.34 M28.86 6.34 C28.86 1.6, 28.86 -3.14, 28.86 -6.34 M28.86 -6.34 C32.78 -4.51, 36.7 -2.69, 42.45 0 M28.86 -6.34 C31.98 -4.89, 35.09 -3.43, 42.45 0 M42.45 0 C42.45 0, 42.45 0, 42.45 0 M42.45 0 C42.45 0, 42.45 0, 42.45 0" stroke="#1e1e1e" stroke-width="2" fill="none"/></g></g><mask/><g stroke-linecap="round"><g transform="translate(58.586106465141704 60.33472090393064) rotate(0 14.879328874636979 14.879328874636956)"><path d="M0 0 C8.37 8.37, 16.74 16.74, 29.76 29.76 M0 0 C6.67 6.67, 13.33 13.33, 29.76 29.76" stroke="#1e1e1e" stroke-width="2" fill="none"/></g><g transform="translate(58.586106465141704 60.33472090393064) rotate(0 14.879328874636979 14.879328874636956)"><path d="M29.76 29.76 L15.66 24.63 L24.63 15.66 L29.76 29.76" stroke="none" stroke-width="0" fill="#1e1e1e" fill-rule="evenodd"/><path d="M29.76 29.76 C25.79 28.32, 21.83 26.87, 15.66 24.63 M29.76 29.76 C26.6 28.61, 23.44 27.46, 15.66 24.63 M15.66 24.63 C18.93 21.36, 22.2 18.09, 24.63 15.66 M15.66 24.63 C18.21 22.08, 20.76 19.53, 24.63 15.66 M24.63 15.66 C26.3 20.25, 27.97 24.84, 29.76 29.76 M24.63 15.66 C26.61 21.1, 28.58 26.53, 29.76 29.76 M29.76 29.76 C29.76 29.76, 29.76 29.76, 29.76 29.76 M29.76 29.76 C29.76 29.76, 29.76 29.76, 29.76 29.76" stroke="#1e1e1e" stroke-width="2" fill="none"/></g></g><mask/><g stroke-linecap="round"><g transform="translate(59.36778824232775 61.11640268111668) rotate(0 0 21.226793664346786)"><path d="M0 0 C0 16.13, 0 32.26, 0 42.45 M0 0 C0 11.6, 0 23.2, 0 42.45" stroke="#1e1e1e" stroke-width="2" fill="none"/></g><g transform="translate(59.36778824232775 61.11640268111668) rotate(0 0 21.226793664346786)"><path d="M0 42.45 L-6.34 28.86 L6.34 28.86 L0 42.45" stroke="none" stroke-width="0" fill="#1e1e1e" fill-rule="evenodd"/><path d="M0 42.45 C-2.41 37.29, -4.82 32.12, -6.34 28.86 M0 42.45 C-1.73 38.74, -3.46 35.02, -6.34 28.86 M-6.34 28.86 C-1.55 28.86, 3.25 28.86, 6.34 28.86 M-6.34 28.86 C-1.89 28.86, 2.57 28.86, 6.34 28.86 M6.34 28.86 C4.69 32.39, 3.05 35.91, 0 42.45 M6.34 28.86 C4.67 32.44, 3 36.02, 0 42.45 M0 42.45 C0 42.45, 0 42.45, 0 42.45 M0 42.45 C0 42.45, 0 42.45, 0 42.45" stroke="#1e1e1e" stroke-width="2" fill="none"/></g></g><mask/><g stroke-linecap="round"><g transform="translate(59.36778824232775 61.11640268111668) rotate(0 -14.12985591474174 14.129855914741736)"><path d="M0 0 C-8.82 8.82, -17.64 17.64, -28.26 28.26 M0 0 C-6.02 6.02, -12.04 12.04, -28.26 28.26" stroke="#1e1e1e" stroke-width="2" fill="none"/></g><g transform="translate(59.36778824232775 61.11640268111668) rotate(0 -14.12985591474174 14.129855914741736)"><path d="M-28.26 28.26 L-23.13 14.16 L-14.16 23.13 L-28.26 28.26" stroke="none" stroke-width="0" fill="#1e1e1e" fill-rule="evenodd"/><path d="M-28.26 28.26 C-26.66 23.86, -25.06 19.46, -23.13 14.16 M-28.26 28.26 C-27.17 25.26, -26.07 22.25, -23.13 14.16 M-23.13 14.16 C-20.66 16.64, -18.18 19.11, -14.16 23.13 M-23.13 14.16 C-20.79 16.5, -18.46 18.83, -14.16 23.13 M-14.16 23.13 C-17.21 24.24, -20.26 25.35, -28.26 28.26 M-14.16 23.13 C-19.45 25.05, -24.73 26.98, -28.26 28.26 M-28.26 28.26 C-28.26 28.26, -28.26 28.26, -28.26 28.26 M-28.26 28.26 C-28.26 28.26, -28.26 28.26, -28.26 28.26" stroke="#1e1e1e" stroke-width="2" fill="none"/></g></g><mask/><g stroke-linecap="round"><g transform="translate(59.36778824232775 61.11640268111668) rotate(0 -21.226793664346786 0)"><path d="M0 0 C-9.83 0, -19.65 0, -42.45 0 M0 0 C-10.9 0, -21.79 0, -42.45 0" stroke="#1e1e1e" stroke-width="2" fill="none"/></g><g transform="translate(59.36778824232775 61.11640268111668) rotate(0 -21.226793664346786 0)"><path d="M-42.45 0 L-28.86 -6.34 L-28.86 6.34 L-42.45 0" stroke="none" stroke-width="0" fill="#1e1e1e" fill-rule="evenodd"/><path d="M-42.45 0 C-39.31 -1.47, -36.16 -2.93, -28.86 -6.34 M-42.45 0 C-38.96 -1.63, -35.47 -3.25, -28.86 -6.34 M-28.86 -6.34 C-28.86 -1.7, -28.86 2.94, -28.86 6.34 M-28.86 -6.34 C-28.86 -2.76, -28.86 0.82, -28.86 6.34 M-28.86 6.34 C-32.4 4.69, -35.93 3.04, -42.45 0 M-28.86 6.34 C-34.21 3.84, -39.57 1.34, -42.45 0 M-42.45 0 C-42.45 0, -42.45 0, -42.45 0 M-42.45 0 C-42.45 0, -42.45 0, -42.45 0" stroke="#1e1e1e" stroke-width="2" fill="none"/></g></g><mask/><g stroke-linecap="round"><g transform="translate(57.87102435313577 61.11640268111668) rotate(0 -13.479443734605457 -13.479443734605447)"><path d="M0 0 C-9.17 -9.17, -18.35 -18.35, -26.96 -26.96 M0 0 C-8.65 -8.65, -17.29 -17.29, -26.96 -26.96" stroke="#1e1e1e" stroke-width="2" fill="none"/></g><g transform="translate(57.87102435313577 61.11640268111668) rotate(0 -13.479443734605457 -13.479443734605447)"><path d="M-26.96 -26.96 L-12.86 -21.83 L-21.83 -12.86 L-26.96 -26.96" stroke="none" stroke-width="0" fill="#1e1e1e" fill-rule="evenodd"/><path d="M-26.96 -26.96 C-22.16 -25.21, -17.37 -23.47, -12.86 -21.83 M-26.96 -26.96 C-22.44 -25.31, -17.92 -23.67, -12.86 -21.83 M-12.86 -21.83 C-15.34 -19.35, -17.81 -16.88, -21.83 -12.86 M-12.86 -21.83 C-16.17 -18.52, -19.48 -15.21, -21.83 -12.86 M-21.83 -12.86 C-23.62 -17.78, -25.41 -22.7, -26.96 -26.96 M-21.83 -12.86 C-23.65 -17.86, -25.46 -22.85, -26.96 -26.96 M-26.96 -26.96 C-26.96 -26.96, -26.96 -26.96, -26.96 -26.96 M-26.96 -26.96 C-26.96 -26.96, -26.96 -26.96, -26.96 -26.96" stroke="#1e1e1e" stroke-width="2" fill="none"/></g></g><mask/></svg>