<svg version="1.1" xmlns="http://www.w3.org/2000/svg" viewBox="0 0 280 120" width="280" height="120" filter="invert(93%) hue-rotate(180deg)" class="excalidraw-svg">
  <!-- svg-source:excalidraw -->
  
  <defs>
    <style class="style-fonts">
      
    </style>
    
  </defs>
  <g stroke-linecap="round" transform="translate(10 10) rotate(0 50 50)"><path d="M0 0 C22.43 0, 44.86 0, 100 0 M0 0 C33.03 0, 66.06 0, 100 0 M100 0 C100 34.1, 100 68.2, 100 100 M100 0 C100 28.57, 100 57.14, 100 100 M100 100 C68.42 100, 36.85 100, 0 100 M100 100 C69.54 100, 39.07 100, 0 100 M0 100 C0 69.81, 0 39.63, 0 0 M0 100 C0 68.45, 0 36.91, 0 0" stroke="#e03131" stroke-width="4" fill="none"/></g><g stroke-linecap="round"><g transform="translate(21.437535821937416 100.50680948575433) rotate(0 39.934956642448824 -39.93495664244884)"><path d="M0 0 C13.31 -13.31, 66.56 -66.56, 79.87 -79.87 M0 0 C13.31 -13.31, 66.56 -66.56, 79.87 -79.87" stroke="#1e1e1e" stroke-width="4" fill="none"/></g><g transform="translate(21.437535821937416 100.50680948575433) rotate(0 39.934956642448824 -39.93495664244884)"><path d="M0 0 L5.13 -14.1 L14.1 -5.13 L0 0" stroke="none" stroke-width="0" fill="#1e1e1e" fill-rule="evenodd"/><path d="M0 0 C1.17 -3.22, 2.35 -6.45, 5.13 -14.1 M0 0 C1.83 -5.02, 3.66 -10.04, 5.13 -14.1 M5.13 -14.1 C7.27 -11.96, 9.4 -9.83, 14.1 -5.13 M5.13 -14.1 C7.21 -12.01, 9.29 -9.93, 14.1 -5.13 M14.1 -5.13 C10.4 -3.79, 6.71 -2.44, 0 0 M14.1 -5.13 C10.38 -3.78, 6.67 -2.43, 0 0 M0 0 C0 0, 0 0, 0 0 M0 0 C0 0, 0 0, 0 0" stroke="#1e1e1e" stroke-width="4" fill="none"/></g><g transform="translate(21.437535821937416 100.50680948575433) rotate(0 39.934956642448824 -39.93495664244884)"><path d="M79.87 -79.87 L74.74 -65.77 L65.77 -74.74 L79.87 -79.87" stroke="none" stroke-width="0" fill="#1e1e1e" fill-rule="evenodd"/><path d="M79.87 -79.87 C78.7 -76.65, 77.52 -73.42, 74.74 -65.77 M79.87 -79.87 C78.04 -74.85, 76.21 -69.83, 74.74 -65.77 M74.74 -65.77 C72.6 -67.91, 70.47 -70.04, 65.77 -74.74 M74.74 -65.77 C72.66 -67.86, 70.58 -69.94, 65.77 -74.74 M65.77 -74.74 C69.47 -76.08, 73.16 -77.43, 79.87 -79.87 M65.77 -74.74 C69.49 -76.09, 73.2 -77.44, 79.87 -79.87 M79.87 -79.87 C79.87 -79.87, 79.87 -79.87, 79.87 -79.87 M79.87 -79.87 C79.87 -79.87, 79.87 -79.87, 79.87 -79.87" stroke="#1e1e1e" stroke-width="4" fill="none"/></g></g><mask/><g stroke-linecap="round" transform="translate(170 10) rotate(0 50 50)"><path d="M0 0 C24.24 0, 48.48 0, 100 0 M0 0 C24.87 0, 49.75 0, 100 0 M100 0 C100 22.65, 100 45.29, 100 100 M100 0 C100 27.08, 100 54.16, 100 100 M100 100 C74.84 100, 49.68 100, 0 100 M100 100 C68.43 100, 36.86 100, 0 100 M0 100 C0 61.51, 0 23.01, 0 0 M0 100 C0 77.39, 0 54.79, 0 0" stroke="#e03131" stroke-width="4" fill="none"/></g><g stroke-linecap="round"><g transform="translate(220.81002828632361 100.50680948575433) rotate(0 -4.263256414560601e-14 -40.49742082051151)"><path d="M0 0 C0 -13.5, 0 -67.5, 0 -80.99 M0 0 C0 -13.5, 0 -67.5, 0 -80.99" stroke="#1e1e1e" stroke-width="4" fill="none"/></g><g transform="translate(220.81002828632361 100.50680948575433) rotate(0 -4.263256414560601e-14 -40.49742082051151)"><path d="M0 0 L-6.34 -13.59 L6.34 -13.59 L0 0" stroke="none" stroke-width="0" fill="#1e1e1e" fill-rule="evenodd"/><path d="M0 0 C-1.72 -3.68, -3.43 -7.36, -6.34 -13.59 M0 0 C-1.59 -3.42, -3.19 -6.84, -6.34 -13.59 M-6.34 -13.59 C-2.34 -13.59, 1.67 -13.59, 6.34 -13.59 M-6.34 -13.59 C-1.46 -13.59, 3.42 -13.59, 6.34 -13.59 M6.34 -13.59 C4.91 -10.52, 3.47 -7.45, 0 0 M6.34 -13.59 C3.92 -8.41, 1.51 -3.23, 0 0 M0 0 C0 0, 0 0, 0 0 M0 0 C0 0, 0 0, 0 0" stroke="#1e1e1e" stroke-width="4" fill="none"/></g><g transform="translate(220.81002828632361 100.50680948575433) rotate(0 -4.263256414560601e-14 -40.49742082051151)"><path d="M0 -80.99 L6.34 -67.4 L-6.34 -67.4 L0 -80.99" stroke="none" stroke-width="0" fill="#1e1e1e" fill-rule="evenodd"/><path d="M0 -80.99 C1.72 -77.31, 3.43 -73.63, 6.34 -67.4 M0 -80.99 C1.59 -77.57, 3.19 -74.15, 6.34 -67.4 M6.34 -67.4 C2.34 -67.4, -1.67 -67.4, -6.34 -67.4 M6.34 -67.4 C1.46 -67.4, -3.42 -67.4, -6.34 -67.4 M-6.34 -67.4 C-4.91 -70.47, -3.47 -73.55, 0 -80.99 M-6.34 -67.4 C-3.92 -72.58, -1.51 -77.76, 0 -80.99 M0 -80.99 C0 -80.99, 0 -80.99, 0 -80.99 M0 -80.99 C0 -80.99, 0 -80.99, 0 -80.99" stroke="#1e1e1e" stroke-width="4" fill="none"/></g></g><mask/></svg>