<svg version="1.1" xmlns="http://www.w3.org/2000/svg" viewBox="0 0 120 180" width="120" height="180" filter="invert(93%) hue-rotate(180deg)" class="excalidraw-svg">
  <!-- svg-source:excalidraw -->
  
  <defs>
    <style class="style-fonts">
      
    </style>
    
  </defs>
  <g stroke-linecap="round" transform="translate(10 10) rotate(0 50 80)"><path d="M0 0 C20.94 0, 41.87 0, 100 0 M0 0 C34.15 0, 68.3 0, 100 0 M100 0 C100 33.96, 100 67.92, 100 160 M100 0 C100 42.71, 100 85.41, 100 160 M100 160 C74.4 160, 48.81 160, 0 160 M100 160 C70.39 160, 40.78 160, 0 160 M0 160 C0 107.67, 0 55.33, 0 0 M0 160 C0 102.4, 0 44.8, 0 0" stroke="#e03131" stroke-width="4" fill="none"/></g><g stroke-linecap="round"><g transform="translate(59.36778824232775 91.81426854947068) rotate(0 0 -35.877860730169786)"><path d="M0 0 C0 -18.42, 0 -36.85, 0 -71.76 M0 0 C0 -15.74, 0 -31.47, 0 -71.76" stroke="#1e1e1e" stroke-width="2" fill="none"/></g><g transform="translate(59.36778824232775 91.81426854947068) rotate(0 0 -35.877860730169786)"><path d="M0 -71.76 L6.34 -58.16 L-6.34 -58.16 L0 -71.76" stroke="none" stroke-width="0" fill="#1e1e1e" fill-rule="evenodd"/><path d="M0 -71.76 C1.63 -68.27, 3.26 -64.77, 6.34 -58.16 M0 -71.76 C1.39 -68.77, 2.78 -65.79, 6.34 -58.16 M6.34 -58.16 C2.18 -58.16, -1.99 -58.16, -6.34 -58.16 M6.34 -58.16 C1.98 -58.16, -2.38 -58.16, -6.34 -58.16 M-6.34 -58.16 C-4.86 -61.34, -3.38 -64.51, 0 -71.76 M-6.34 -58.16 C-4.2 -62.76, -2.05 -67.35, 0 -71.76 M0 -71.76 C0 -71.76, 0 -71.76, 0 -71.76 M0 -71.76 C0 -71.76, 0 -71.76, 0 -71.76" stroke="#1e1e1e" stroke-width="2" fill="none"/></g></g><mask/><g stroke-linecap="round"><g transform="translate(59.36778824232775 91.45958720818679) rotate(0 14.44293516552517 -24.312381720910132)"><path d="M0 0 C8.91 -14.99, 17.81 -29.98, 28.89 -48.62 M0 0 C10.14 -17.07, 20.28 -34.14, 28.89 -48.62" stroke="#1e1e1e" stroke-width="2" fill="none"/></g><g transform="translate(59.36778824232775 91.45958720818679) rotate(0 14.44293516552517 -24.312381720910132)"><path d="M28.89 -48.62 L27.39 -33.7 L16.49 -40.17 L28.89 -48.62" stroke="none" stroke-width="0" fill="#1e1e1e" fill-rule="evenodd"/><path d="M28.89 -48.62 C28.43 -44.02, 27.97 -39.42, 27.39 -33.7 M28.89 -48.62 C28.36 -43.39, 27.84 -38.15, 27.39 -33.7 M27.39 -33.7 C24.55 -35.39, 21.7 -37.08, 16.49 -40.17 M27.39 -33.7 C23.79 -35.84, 20.18 -37.98, 16.49 -40.17 M16.49 -40.17 C20.78 -43.1, 25.07 -46.02, 28.89 -48.62 M16.49 -40.17 C19.79 -42.43, 23.1 -44.68, 28.89 -48.62 M28.89 -48.62 C28.89 -48.62, 28.89 -48.62, 28.89 -48.62 M28.89 -48.62 C28.89 -48.62, 28.89 -48.62, 28.89 -48.62" stroke="#1e1e1e" stroke-width="2" fill="none"/></g></g><mask/><g stroke-linecap="round"><g transform="translate(59.36778824232775 91.81426854947068) rotate(0 21.313486368878287 0)"><path d="M0 0 C11.52 0, 23.04 0, 42.63 0 M0 0 C13.08 0, 26.16 0, 42.63 0" stroke="#1e1e1e" stroke-width="2" fill="none"/></g><g transform="translate(59.36778824232775 91.81426854947068) rotate(0 21.313486368878287 0)"><path d="M42.63 0 L29.03 6.34 L29.03 -6.34 L42.63 0" stroke="none" stroke-width="0" fill="#1e1e1e" fill-rule="evenodd"/><path d="M42.63 0 C38.95 1.71, 35.28 3.43, 29.03 6.34 M42.63 0 C38.45 1.95, 34.28 3.89, 29.03 6.34 M29.03 6.34 C29.03 2.51, 29.03 -1.32, 29.03 -6.34 M29.03 6.34 C29.03 2.24, 29.03 -1.86, 29.03 -6.34 M29.03 -6.34 C32.75 -4.6, 36.47 -2.87, 42.63 0 M29.03 -6.34 C32.43 -4.76, 35.82 -3.17, 42.63 0 M42.63 0 C42.63 0, 42.63 0, 42.63 0 M42.63 0 C42.63 0, 42.63 0, 42.63 0" stroke="#1e1e1e" stroke-width="2" fill="none"/></g></g><mask/><g stroke-linecap="round"><g transform="translate(58.58291398546631 90.49305770714278) rotate(0 14.940097791608293 25.149275842788782)"><path d="M0 0 C6.46 10.87, 12.91 21.73, 29.88 50.3 M0 0 C10.21 17.18, 20.41 34.36, 29.88 50.3" stroke="#1e1e1e" stroke-width="2" fill="none"/></g><g transform="translate(58.58291398546631 90.49305770714278) rotate(0 14.940097791608293 25.149275842788782)"><path d="M29.88 50.3 L17.49 41.85 L28.39 35.37 L29.88 50.3" stroke="none" stroke-width="0" fill="#1e1e1e" fill-rule="evenodd"/><path d="M29.88 50.3 C27.2 48.47, 24.52 46.65, 17.49 41.85 M29.88 50.3 C25.65 47.41, 21.41 44.53, 17.49 41.85 M17.49 41.85 C21.64 39.38, 25.8 36.91, 28.39 35.37 M17.49 41.85 C20.54 40.03, 23.6 38.22, 28.39 35.37 M28.39 35.37 C28.85 39.95, 29.3 44.53, 29.88 50.3 M28.39 35.37 C28.98 41.3, 29.57 47.22, 29.88 50.3 M29.88 50.3 C29.88 50.3, 29.88 50.3, 29.88 50.3 M29.88 50.3 C29.88 50.3, 29.88 50.3, 29.88 50.3" stroke="#1e1e1e" stroke-width="2" fill="none"/></g></g><mask/><g stroke-linecap="round"><g transform="translate(59.36778824232775 91.81426854947068) rotate(0 0 35.877860730169786)"><path d="M0 0 C0 17.17, 0 34.34, 0 71.76 M0 0 C0 20.89, 0 41.78, 0 71.76" stroke="#1e1e1e" stroke-width="2" fill="none"/></g><g transform="translate(59.36778824232775 91.81426854947068) rotate(0 0 35.877860730169786)"><path d="M0 71.76 L-6.34 58.16 L6.34 58.16 L0 71.76" stroke="none" stroke-width="0" fill="#1e1e1e" fill-rule="evenodd"/><path d="M0 71.76 C-1.52 68.5, -3.03 65.25, -6.34 58.16 M0 71.76 C-1.85 67.8, -3.69 63.84, -6.34 58.16 M-6.34 58.16 C-3.53 58.16, -0.72 58.16, 6.34 58.16 M-6.34 58.16 C-3.55 58.16, -0.76 58.16, 6.34 58.16 M6.34 58.16 C5.07 60.89, 3.8 63.62, 0 71.76 M6.34 58.16 C4.72 61.63, 3.11 65.1, 0 71.76 M0 71.76 C0 71.76, 0 71.76, 0 71.76 M0 71.76 C0 71.76, 0 71.76, 0 71.76" stroke="#1e1e1e" stroke-width="2" fill="none"/></g></g><mask/><g stroke-linecap="round"><g transform="translate(59.36778824232775 91.81426854947068) rotate(0 -14.187563896609333 23.882504850365496)"><path d="M0 0 C-5.87 9.88, -11.74 19.76, -28.38 47.77 M0 0 C-10.49 17.66, -20.99 35.33, -28.38 47.77" stroke="#1e1e1e" stroke-width="2" fill="none"/></g><g transform="translate(59.36778824232775 91.81426854947068) rotate(0 -14.187563896609333 23.882504850365496)"><path d="M-28.38 47.77 L-26.88 32.84 L-15.98 39.31 L-28.38 47.77" stroke="none" stroke-width="0" fill="#1e1e1e" fill-rule="evenodd"/><path d="M-28.38 47.77 C-28.07 44.68, -27.76 41.59, -26.88 32.84 M-28.38 47.77 C-27.82 42.25, -27.27 36.73, -26.88 32.84 M-26.88 32.84 C-22.62 35.37, -18.35 37.91, -15.98 39.31 M-26.88 32.84 C-23.44 34.89, -20 36.93, -15.98 39.31 M-15.98 39.31 C-20.03 42.08, -24.08 44.84, -28.38 47.77 M-15.98 39.31 C-18.52 41.05, -21.07 42.78, -28.38 47.77 M-28.38 47.77 C-28.38 47.77, -28.38 47.77, -28.38 47.77 M-28.38 47.77 C-28.38 47.77, -28.38 47.77, -28.38 47.77" stroke="#1e1e1e" stroke-width="2" fill="none"/></g></g><mask/><g stroke-linecap="round"><g transform="translate(59.36778824232775 91.81426854947068) rotate(0 -21.313486368878287 0)"><path d="M0 0 C-9.05 0, -18.1 0, -42.63 0 M0 0 C-11.38 0, -22.76 0, -42.63 0" stroke="#1e1e1e" stroke-width="2" fill="none"/></g><g transform="translate(59.36778824232775 91.81426854947068) rotate(0 -21.313486368878287 0)"><path d="M-42.63 0 L-29.03 -6.34 L-29.03 6.34 L-42.63 0" stroke="none" stroke-width="0" fill="#1e1e1e" fill-rule="evenodd"/><path d="M-42.63 0 C-39.74 -1.35, -36.86 -2.69, -29.03 -6.34 M-42.63 0 C-39 -1.69, -35.37 -3.38, -29.03 -6.34 M-29.03 -6.34 C-29.03 -3.09, -29.03 0.15, -29.03 6.34 M-29.03 -6.34 C-29.03 -2.59, -29.03 1.17, -29.03 6.34 M-29.03 6.34 C-33.48 4.27, -37.93 2.19, -42.63 0 M-29.03 6.34 C-33.93 4.06, -38.82 1.77, -42.63 0 M-42.63 0 C-42.63 0, -42.63 0, -42.63 0 M-42.63 0 C-42.63 0, -42.63 0, -42.63 0" stroke="#1e1e1e" stroke-width="2" fill="none"/></g></g><mask/><g stroke-linecap="round"><g transform="translate(57.86491139459615 91.81426854947068) rotate(0 -13.534495357163784 -22.78316794696257)"><path d="M0 0 C-8.89 -14.97, -17.78 -29.93, -27.07 -45.57 M0 0 C-9.31 -15.67, -18.61 -31.33, -27.07 -45.57" stroke="#1e1e1e" stroke-width="2" fill="none"/></g><g transform="translate(57.86491139459615 91.81426854947068) rotate(0 -13.534495357163784 -22.78316794696257)"><path d="M-27.07 -45.57 L-14.68 -37.12 L-25.58 -30.64 L-27.07 -45.57" stroke="none" stroke-width="0" fill="#1e1e1e" fill-rule="evenodd"/><path d="M-27.07 -45.57 C-23 -42.79, -18.93 -40.02, -14.68 -37.12 M-27.07 -45.57 C-22.81 -42.66, -18.55 -39.76, -14.68 -37.12 M-14.68 -37.12 C-17.22 -35.6, -19.77 -34.09, -25.58 -30.64 M-14.68 -37.12 C-18.36 -34.93, -22.05 -32.74, -25.58 -30.64 M-25.58 -30.64 C-25.97 -34.63, -26.37 -38.62, -27.07 -45.57 M-25.58 -30.64 C-26.11 -36.02, -26.65 -41.4, -27.07 -45.57 M-27.07 -45.57 C-27.07 -45.57, -27.07 -45.57, -27.07 -45.57 M-27.07 -45.57 C-27.07 -45.57, -27.07 -45.57, -27.07 -45.57" stroke="#1e1e1e" stroke-width="2" fill="none"/></g></g><mask/></svg>