<svg version="1.1" xmlns="http://www.w3.org/2000/svg" viewBox="0 0 434.61684366275404 312.8668066873449" width="434.61684366275404" height="312.8668066873449" filter="invert(93%) hue-rotate(180deg)">
  <!-- svg-source:excalidraw -->
  
  <defs>
    <style class="style-fonts">
      @font-face {
        font-family: "Virgil";
        src: url("https://excalidraw.com/Virgil.woff2");
      }
      @font-face {
        font-family: "Cascadia";
        src: url("https://excalidraw.com/Cascadia.woff2");
      }
    </style>
  </defs>
  <rect x="0" y="0" width="434.61684366275404" height="312.8668066873449" fill="#ffffff"/><g stroke-linecap="round" transform="translate(150.54607984699965 -52.638159720048805) rotate(74.39043940895962 66.76234198437736 215.24723930265262)"><path d="M67.03 -0.03 C67.03 -0.03, 67.03 -0.03, 67.03 -0.03 M67.03 -0.03 C67.03 -0.03, 67.03 -0.03, 67.03 -0.03 M64.14 9.38 C65.44 7.89, 66.73 6.4, 68.08 4.86 M64.14 9.38 C65.16 8.22, 66.17 7.05, 68.08 4.86 M61.26 18.8 C64.37 15.22, 67.49 11.63, 69.79 8.99 M61.26 18.8 C64.66 14.88, 68.07 10.96, 69.79 8.99 M58.37 28.22 C61.56 24.54, 64.76 20.87, 70.84 13.88 M58.37 28.22 C61.6 24.5, 64.83 20.78, 70.84 13.88 M55.49 37.63 C59.61 32.89, 63.73 28.15, 72.54 18.01 M55.49 37.63 C60.45 31.93, 65.41 26.22, 72.54 18.01 M52.6 47.05 C58.57 40.18, 64.54 33.32, 74.25 22.14 M52.6 47.05 C58.43 40.34, 64.26 33.63, 74.25 22.14 M49.06 57.22 C56.39 48.78, 63.73 40.34, 75.3 27.03 M49.06 57.22 C59.28 45.47, 69.49 33.71, 75.3 27.03 M46.17 66.64 C55.24 56.21, 64.31 45.77, 77.01 31.17 M46.17 66.64 C54.22 57.38, 62.27 48.12, 77.01 31.17 M43.29 76.05 C54.88 62.72, 66.48 49.38, 78.06 36.05 M43.29 76.05 C50.51 67.75, 57.72 59.45, 78.06 36.05 M40.4 85.47 C53.71 70.16, 67.02 54.86, 79.77 40.19 M40.4 85.47 C50.71 73.62, 61.01 61.76, 79.77 40.19 M37.52 94.89 C47.38 83.55, 57.23 72.2, 80.82 45.08 M37.52 94.89 C48.9 81.79, 60.28 68.7, 80.82 45.08 M34.63 104.3 C46.83 90.27, 59.03 76.24, 82.52 49.21 M34.63 104.3 C46.78 90.32, 58.94 76.34, 82.52 49.21 M31.74 113.72 C45.07 98.4, 58.39 83.07, 83.57 54.1 M31.74 113.72 C51.3 91.22, 70.86 68.72, 83.57 54.1 M28.86 123.14 C40.79 109.41, 52.72 95.69, 85.28 58.23 M28.86 123.14 C44.31 105.36, 59.77 87.58, 85.28 58.23 M25.97 132.55 C43.27 112.66, 60.57 92.76, 86.33 63.12 M25.97 132.55 C48.77 106.33, 71.57 80.1, 86.33 63.12 M23.09 141.97 C48.81 112.38, 74.53 82.79, 88.04 67.25 M23.09 141.97 C43.47 118.52, 63.86 95.07, 88.04 67.25 M20.2 151.39 C37.54 131.45, 54.87 111.51, 89.09 72.14 M20.2 151.39 C47.43 120.06, 74.67 88.73, 89.09 72.14 M17.32 160.8 C40.57 134.06, 63.82 107.31, 90.79 76.28 M17.32 160.8 C33.46 142.23, 49.61 123.65, 90.79 76.28 M13.77 170.98 C33.91 147.81, 54.05 124.65, 91.85 81.16 M13.77 170.98 C42.37 138.08, 70.97 105.18, 91.85 81.16 M10.89 180.39 C35.77 151.76, 60.66 123.14, 93.55 85.3 M10.89 180.39 C43.34 143.06, 75.8 105.72, 93.55 85.3 M8 189.81 C32.38 161.77, 56.75 133.73, 94.6 90.19 M8 189.81 C36.71 156.78, 65.42 123.76, 94.6 90.19 M5.12 199.23 C41.46 157.42, 77.8 115.62, 96.31 94.32 M5.12 199.23 C31.39 169.01, 57.65 138.79, 96.31 94.32 M2.23 208.64 C27.77 179.26, 53.32 149.87, 97.36 99.21 M2.23 208.64 C34.23 171.83, 66.23 135.02, 97.36 99.21 M0.66 216.55 C27.99 185.1, 55.33 153.66, 99.07 103.34 M0.66 216.55 C31.8 180.73, 62.94 144.91, 99.07 103.34 M2.36 220.68 C25.41 194.17, 48.46 167.66, 100.12 108.23 M2.36 220.68 C34.73 183.45, 67.09 146.23, 100.12 108.23 M3.42 225.57 C35.71 188.42, 68 151.27, 101.82 112.36 M3.42 225.57 C37.14 186.77, 70.87 147.97, 101.82 112.36 M5.12 229.7 C41.3 188.09, 77.48 146.47, 102.87 117.25 M5.12 229.7 C31.56 199.29, 58 168.88, 102.87 117.25 M6.17 234.59 C41.52 193.93, 76.88 153.26, 104.58 121.39 M6.17 234.59 C44.23 190.82, 82.28 147.04, 104.58 121.39 M7.88 238.73 C40.02 201.75, 72.17 164.77, 105.63 126.28 M7.88 238.73 C28.81 214.65, 49.74 190.57, 105.63 126.28 M8.93 243.62 C38.54 209.55, 68.16 175.48, 107.34 130.41 M8.93 243.62 C40.68 207.09, 72.43 170.56, 107.34 130.41 M10.64 247.75 C43.82 209.58, 77 171.4, 108.39 135.3 M10.64 247.75 C32.75 222.31, 54.87 196.87, 108.39 135.3 M11.69 252.64 C41.55 218.29, 71.4 183.94, 110.1 139.43 M11.69 252.64 C49.06 209.65, 86.42 166.66, 110.1 139.43 M13.39 256.77 C42.71 223.05, 72.03 189.32, 111.15 144.32 M13.39 256.77 C40.35 225.76, 67.31 194.75, 111.15 144.32 M14.44 261.66 C37.79 234.8, 61.14 207.94, 112.85 148.45 M14.44 261.66 C38.23 234.3, 62.01 206.94, 112.85 148.45 M16.15 265.79 C43.36 234.5, 70.56 203.2, 113.9 153.34 M16.15 265.79 C49.03 227.98, 81.9 190.16, 113.9 153.34 M17.2 270.68 C55.91 226.15, 94.62 181.63, 115.61 157.47 M17.2 270.68 C51.34 231.41, 85.48 192.13, 115.61 157.47 M18.91 274.81 C39.75 250.84, 60.6 226.86, 116.66 162.36 M18.91 274.81 C46.88 242.64, 74.85 210.46, 116.66 162.36 M19.96 279.7 C57.63 236.37, 95.29 193.04, 118.37 166.5 M19.96 279.7 C58.21 235.7, 96.45 191.71, 118.37 166.5 M21.67 283.84 C42.53 259.83, 63.4 235.83, 119.42 171.39 M21.67 283.84 C42.02 260.42, 62.38 237, 119.42 171.39 M23.37 287.97 C46.54 261.32, 69.71 234.67, 121.13 175.52 M23.37 287.97 C44.36 263.83, 65.34 239.69, 121.13 175.52 M24.42 292.86 C49.65 263.83, 74.89 234.81, 122.18 180.41 M24.42 292.86 C52.81 260.21, 81.19 227.56, 122.18 180.41 M26.13 296.99 C56.22 262.38, 86.32 227.76, 123.88 184.54 M26.13 296.99 C58.14 260.17, 90.16 223.34, 123.88 184.54 M27.18 301.88 C56.18 268.53, 85.17 235.17, 124.93 189.43 M27.18 301.88 C58.93 265.36, 90.67 228.84, 124.93 189.43 M28.89 306.01 C64.8 264.7, 100.72 223.39, 126.64 193.56 M28.89 306.01 C66.45 262.8, 104.02 219.58, 126.64 193.56 M29.94 310.9 C64.03 271.68, 98.12 232.47, 127.69 198.45 M29.94 310.9 C50.32 287.45, 70.71 264, 127.69 198.45 M31.65 315.04 C61.76 280.39, 91.87 245.75, 129.4 202.58 M31.65 315.04 C60.68 281.64, 89.71 248.24, 129.4 202.58 M32.7 319.92 C52.83 296.77, 72.96 273.61, 131.1 206.72 M32.7 319.92 C56.65 292.37, 80.6 264.82, 131.1 206.72 M34.4 324.06 C58.11 296.78, 81.83 269.5, 132.16 211.61 M34.4 324.06 C66.88 286.7, 99.35 249.35, 132.16 211.61 M35.45 328.95 C67.38 292.22, 99.31 255.49, 133.86 215.74 M35.45 328.95 C58.66 302.26, 81.86 275.56, 133.86 215.74 M37.16 333.08 C56.29 311.07, 75.42 289.06, 130.98 225.16 M37.16 333.08 C56.97 310.3, 76.77 287.51, 130.98 225.16 M38.21 337.97 C68.46 303.17, 98.72 268.36, 127.43 235.33 M38.21 337.97 C73.61 297.24, 109.02 256.52, 127.43 235.33 M39.92 342.1 C60.69 318.2, 81.47 294.3, 124.55 244.75 M39.92 342.1 C57.67 321.68, 75.42 301.27, 124.55 244.75 M40.97 346.99 C69.17 314.55, 97.37 282.11, 121.66 254.16 M40.97 346.99 C60.51 324.51, 80.06 302.02, 121.66 254.16 M42.67 351.12 C68.62 321.28, 94.57 291.43, 118.78 263.58 M42.67 351.12 C62.36 328.48, 82.04 305.83, 118.78 263.58 M44.38 355.26 C60.61 336.59, 76.83 317.93, 115.89 272.99 M44.38 355.26 C65.3 331.19, 86.22 307.13, 115.89 272.99 M45.43 360.15 C64.64 338.05, 83.84 315.96, 113.01 282.41 M45.43 360.15 C61.87 341.24, 78.31 322.33, 113.01 282.41 M47.14 364.28 C66.85 341.6, 86.57 318.93, 110.12 291.83 M47.14 364.28 C70.63 337.26, 94.12 310.24, 110.12 291.83 M48.19 369.17 C71.19 342.71, 94.2 316.24, 107.23 301.24 M48.19 369.17 C66.11 348.55, 84.03 327.94, 107.23 301.24 M49.9 373.3 C67.31 353.27, 84.72 333.24, 104.35 310.66 M49.9 373.3 C66.96 353.68, 84.02 334.05, 104.35 310.66 M50.95 378.19 C70.73 355.43, 90.52 332.67, 101.46 320.08 M50.95 378.19 C67.83 358.77, 84.71 339.35, 101.46 320.08 M52.65 382.32 C63.19 370.21, 73.72 358.09, 98.58 329.49 M52.65 382.32 C64.05 369.22, 75.44 356.11, 98.58 329.49 M53.7 387.21 C68.21 370.53, 82.71 353.84, 95.69 338.91 M53.7 387.21 C65.65 373.47, 77.6 359.73, 95.69 338.91 M55.41 391.35 C69.9 374.68, 84.39 358.01, 92.15 349.08 M55.41 391.35 C67.05 377.96, 78.68 364.58, 92.15 349.08 M56.46 396.23 C67.15 383.93, 77.85 371.63, 89.26 358.5 M56.46 396.23 C64.95 386.47, 73.44 376.7, 89.26 358.5 M58.17 400.37 C64.88 392.65, 71.59 384.93, 86.38 367.92 M58.17 400.37 C68.4 388.59, 78.64 376.82, 86.38 367.92 M59.22 405.26 C67.2 396.07, 75.19 386.89, 83.49 377.33 M59.22 405.26 C64.45 399.24, 69.69 393.22, 83.49 377.33 M60.93 409.39 C67.87 401.41, 74.81 393.42, 80.61 386.75 M60.93 409.39 C65.56 404.06, 70.19 398.74, 80.61 386.75 M61.98 414.28 C67.8 407.58, 73.63 400.87, 77.72 396.17 M61.98 414.28 C66.2 409.42, 70.43 404.55, 77.72 396.17 M63.68 418.41 C65.94 415.81, 68.2 413.21, 74.84 405.58 M63.68 418.41 C66.89 414.73, 70.09 411.04, 74.84 405.58 M65.39 422.55 C67.92 419.64, 70.45 416.73, 71.95 415 M65.39 422.55 C67.92 419.64, 70.45 416.73, 71.95 415 M66.44 427.43 C67.02 426.77, 67.6 426.1, 69.06 424.42 M66.44 427.43 C67.17 426.6, 67.89 425.76, 69.06 424.42 M67 430.5 C67 430.5, 67 430.5, 67 430.5 M67 430.5 C67 430.5, 67 430.5, 67 430.5 M68.12 426.17 C67.17 425.35, 66.23 424.52, 65.1 423.54 M68.12 426.17 C67.31 425.47, 66.51 424.77, 65.1 423.54 M69.23 421.84 C67.29 420.15, 65.35 418.46, 62.44 415.93 M69.23 421.84 C66.8 419.72, 64.37 417.6, 62.44 415.93 M71.1 418.16 C67.38 414.93, 63.66 411.7, 60.54 408.98 M71.1 418.16 C67.68 415.19, 64.26 412.22, 60.54 408.98 M72.22 413.83 C67.28 409.53, 62.33 405.24, 57.88 401.36 M72.22 413.83 C67.58 409.79, 62.93 405.76, 57.88 401.36 M73.33 409.5 C68.42 405.23, 63.5 400.95, 55.97 394.41 M73.33 409.5 C69.51 406.17, 65.68 402.85, 55.97 394.41 M74.45 405.17 C67.57 399.19, 60.69 393.21, 53.32 386.8 M74.45 405.17 C66.57 398.32, 58.69 391.47, 53.32 386.8 M76.32 401.49 C70.8 396.7, 65.28 391.9, 51.41 379.84 M76.32 401.49 C68.01 394.27, 59.7 387.05, 51.41 379.84 M77.43 397.16 C69.8 390.53, 62.17 383.89, 48.75 372.23 M77.43 397.16 C70.35 391.01, 63.27 384.85, 48.75 372.23 M78.55 392.83 C67.37 383.12, 56.2 373.41, 46.85 365.28 M78.55 392.83 C67.63 383.34, 56.71 373.85, 46.85 365.28 M79.66 388.5 C68.14 378.49, 56.62 368.47, 44.19 357.67 M79.66 388.5 C67.51 377.94, 55.35 367.37, 44.19 357.67 M81.53 384.83 C72.44 376.92, 63.35 369.02, 42.29 350.71 M81.53 384.83 C68.22 373.25, 54.9 361.68, 42.29 350.71 M82.65 380.49 C70.62 370.04, 58.6 359.59, 39.63 343.1 M82.65 380.49 C73.58 372.61, 64.51 364.73, 39.63 343.1 M83.76 376.16 C70.63 364.75, 57.51 353.34, 37.72 336.14 M83.76 376.16 C69.55 363.81, 55.34 351.46, 37.72 336.14 M84.88 371.83 C73.46 361.91, 62.04 351.99, 35.06 328.53 M84.88 371.83 C72.08 360.71, 59.28 349.58, 35.06 328.53 M86.74 368.16 C70.18 353.76, 53.61 339.35, 33.16 321.58 M86.74 368.16 C73.44 356.59, 60.14 345.03, 33.16 321.58 M87.86 363.83 C71.07 349.23, 54.28 334.64, 30.5 313.97 M87.86 363.83 C74.01 351.79, 60.16 339.75, 30.5 313.97 M88.97 359.5 C66.61 340.05, 44.24 320.61, 28.6 307.01 M88.97 359.5 C73.39 345.95, 57.8 332.4, 28.6 307.01 M90.09 355.16 C70.24 337.91, 50.4 320.66, 25.94 299.4 M90.09 355.16 C65.75 334.01, 41.41 312.85, 25.94 299.4 M91.96 351.49 C71.19 333.43, 50.41 315.38, 24.03 292.44 M91.96 351.49 C75.44 337.13, 58.93 322.77, 24.03 292.44 M93.07 347.16 C68.79 326.05, 44.5 304.94, 21.38 284.83 M93.07 347.16 C75.83 332.17, 58.59 317.18, 21.38 284.83 M94.19 342.83 C77.56 328.37, 60.93 313.91, 19.47 277.88 M94.19 342.83 C78.28 329, 62.37 315.17, 19.47 277.88 M95.3 338.5 C66.99 313.88, 38.68 289.27, 16.81 270.27 M95.3 338.5 C75.75 321.5, 56.2 304.51, 16.81 270.27 M96.42 334.17 C63.95 305.94, 31.48 277.72, 14.91 263.31 M96.42 334.17 C65.31 307.13, 34.21 280.09, 14.91 263.31 M98.29 330.49 C65.97 302.4, 33.66 274.31, 12.25 255.7 M98.29 330.49 C65.23 301.76, 32.18 273.02, 12.25 255.7 M99.4 326.16 C65.48 296.67, 31.56 267.19, 10.35 248.75 M99.4 326.16 C75.52 305.4, 51.63 284.63, 10.35 248.75 M100.52 321.83 C72.31 297.31, 44.1 272.79, 7.69 241.13 M100.52 321.83 C74.55 299.26, 48.59 276.69, 7.69 241.13 M101.63 317.5 C73.98 293.46, 46.33 269.42, 5.78 234.18 M101.63 317.5 C63.65 284.48, 25.67 251.47, 5.78 234.18 M103.5 313.82 C74.76 288.84, 46.02 263.85, 3.12 226.57 M103.5 313.82 C70.98 285.56, 38.47 257.29, 3.12 226.57 M104.62 309.49 C72.61 281.67, 40.59 253.84, 1.22 219.61 M104.62 309.49 C63.87 274.07, 23.12 238.65, 1.22 219.61 M105.73 305.16 C65.72 270.38, 25.7 235.59, 1.58 214.63 M105.73 305.16 C68.22 272.56, 30.71 239.95, 1.58 214.63 M106.85 300.83 C85.7 282.45, 64.55 264.07, 2.7 210.29 M106.85 300.83 C76.16 274.15, 45.47 247.47, 2.7 210.29 M108.72 297.16 C79.45 271.72, 50.19 246.28, 3.81 205.96 M108.72 297.16 C68.21 261.95, 27.71 226.74, 3.81 205.96 M109.83 292.82 C68.08 256.53, 26.34 220.25, 4.93 201.63 M109.83 292.82 C85.11 271.33, 60.38 249.84, 4.93 201.63 M110.94 288.49 C72.17 254.78, 33.39 221.08, 6.8 197.96 M110.94 288.49 C84.46 265.47, 57.97 242.44, 6.8 197.96 M112.06 284.16 C81.47 257.57, 50.87 230.97, 7.91 193.63 M112.06 284.16 C74.62 251.62, 37.18 219.07, 7.91 193.63 M113.93 280.49 C83.88 254.37, 53.83 228.25, 9.02 189.3 M113.93 280.49 C74.9 246.56, 35.88 212.64, 9.02 189.3 M115.04 276.16 C77.26 243.31, 39.47 210.46, 10.14 184.96 M115.04 276.16 C82.2 247.6, 49.35 219.05, 10.14 184.96 M116.16 271.83 C78.28 238.9, 40.4 205.97, 12.01 181.29 M116.16 271.83 C95.22 253.62, 74.28 235.42, 12.01 181.29 M117.27 267.49 C92.55 246, 67.83 224.51, 13.12 176.96 M117.27 267.49 C81 235.96, 44.72 204.43, 13.12 176.96 M119.14 263.82 C80.66 230.37, 42.18 196.92, 14.24 172.63 M119.14 263.82 C81.58 231.17, 44.02 198.51, 14.24 172.63 M120.26 259.49 C95.54 238, 70.82 216.51, 15.35 168.3 M120.26 259.49 C97.02 239.29, 73.79 219.09, 15.35 168.3 M121.37 255.16 C81.92 220.86, 42.47 186.57, 17.22 164.62 M121.37 255.16 C88.64 226.7, 55.91 198.25, 17.22 164.62 M122.49 250.83 C97.94 229.49, 73.4 208.15, 18.34 160.29 M122.49 250.83 C91.89 224.23, 61.3 197.64, 18.34 160.29 M123.6 246.5 C92.04 219.06, 60.48 191.62, 19.45 155.96 M123.6 246.5 C92.81 219.73, 62.02 192.96, 19.45 155.96 M125.47 242.82 C84.72 207.39, 43.96 171.97, 20.57 151.63 M125.47 242.82 C101.25 221.76, 77.02 200.7, 20.57 151.63 M126.59 238.49 C88.76 205.61, 50.93 172.72, 22.44 147.95 M126.59 238.49 C86.72 203.83, 46.85 169.18, 22.44 147.95 M127.7 234.16 C105.27 214.66, 82.84 195.16, 23.55 143.62 M127.7 234.16 C96.1 206.68, 64.49 179.21, 23.55 143.62 M128.82 229.83 C107.65 211.43, 86.49 193.03, 24.67 139.29 M128.82 229.83 C106.83 210.72, 84.85 191.61, 24.67 139.29 M130.69 226.15 C98.37 198.06, 66.06 169.98, 25.78 134.96 M130.69 226.15 C100.63 200.02, 70.57 173.89, 25.78 134.96 M131.8 221.82 C91.16 186.5, 50.52 151.17, 26.9 130.63 M131.8 221.82 C103.43 197.16, 75.05 172.49, 26.9 130.63 M132.92 217.49 C109.14 196.82, 85.36 176.15, 28.77 126.96 M132.92 217.49 C95.42 184.9, 57.92 152.3, 28.77 126.96 M134.79 213.82 C103.28 186.43, 71.78 159.05, 29.88 122.62 M134.79 213.82 C113.2 195.05, 91.62 176.29, 29.88 122.62 M132.88 206.86 C111.64 188.4, 90.4 169.93, 31 118.29 M132.88 206.86 C111.64 188.4, 90.4 169.93, 31 118.29 M130.98 199.91 C106.57 178.69, 82.17 157.48, 32.11 113.96 M130.98 199.91 C99.71 172.73, 68.45 145.55, 32.11 113.96 M128.32 192.29 C104.62 171.7, 80.93 151.1, 33.98 110.29 M128.32 192.29 C98.03 165.96, 67.74 139.63, 33.98 110.29 M126.41 185.34 C94.25 157.38, 62.08 129.41, 35.09 105.96 M126.41 185.34 C103.03 165.02, 79.65 144.69, 35.09 105.96 M123.76 177.73 C103.69 160.29, 83.63 142.85, 36.21 101.63 M123.76 177.73 C98.21 155.52, 72.66 133.31, 36.21 101.63 M121.85 170.77 C99.7 151.51, 77.54 132.26, 37.32 97.29 M121.85 170.77 C93.63 146.24, 65.4 121.7, 37.32 97.29 M119.19 163.16 C88.34 136.34, 57.48 109.52, 39.19 93.62 M119.19 163.16 C93.65 140.96, 68.11 118.76, 39.19 93.62 M117.29 156.21 C98.65 140, 80 123.8, 40.31 89.29 M117.29 156.21 C100.87 141.93, 84.45 127.66, 40.31 89.29 M115.38 149.25 C98.06 134.19, 80.73 119.12, 41.42 84.96 M115.38 149.25 C92.7 129.53, 70.02 109.81, 41.42 84.96 M112.73 141.64 C93.17 124.64, 73.61 107.64, 42.54 80.63 M112.73 141.64 C97.82 128.68, 82.92 115.73, 42.54 80.63 M110.82 134.69 C93.64 119.75, 76.46 104.81, 44.41 76.95 M110.82 134.69 C86.77 113.78, 62.72 92.87, 44.41 76.95 M108.16 127.07 C84.48 106.49, 60.81 85.91, 45.52 72.62 M108.16 127.07 C95.39 115.97, 82.62 104.87, 45.52 72.62 M106.26 120.12 C93.55 109.07, 80.84 98.03, 46.64 68.29 M106.26 120.12 C88.48 104.66, 70.7 89.2, 46.64 68.29 M103.6 112.51 C88.69 99.54, 73.78 86.58, 47.75 63.96 M103.6 112.51 C85.98 97.19, 68.37 81.88, 47.75 63.96 M101.7 105.55 C90.14 95.5, 78.58 85.46, 49.62 60.28 M101.7 105.55 C84.39 90.51, 67.08 75.46, 49.62 60.28 M99.79 98.6 C85.43 86.11, 71.07 73.63, 50.74 55.95 M99.79 98.6 C88.55 88.82, 77.31 79.05, 50.74 55.95 M97.13 90.99 C84.46 79.97, 71.78 68.95, 51.85 51.62 M97.13 90.99 C79.63 75.77, 62.13 60.56, 51.85 51.62 M95.23 84.03 C81.59 72.18, 67.95 60.32, 52.97 47.29 M95.23 84.03 C83.31 73.67, 71.39 63.31, 52.97 47.29 M92.57 76.42 C79.02 64.64, 65.46 52.85, 54.08 42.96 M92.57 76.42 C77.66 63.45, 62.74 50.49, 54.08 42.96 M90.67 69.46 C82.18 62.09, 73.69 54.71, 55.95 39.29 M90.67 69.46 C77.98 58.43, 65.28 47.4, 55.95 39.29 M88.01 61.85 C79.53 54.48, 71.05 47.11, 57.07 34.95 M88.01 61.85 C76.66 51.99, 65.31 42.12, 57.07 34.95 M86.1 54.9 C78.67 48.44, 71.24 41.97, 58.18 30.62 M86.1 54.9 C79.79 49.41, 73.48 43.92, 58.18 30.62 M84.2 47.94 C77.95 42.51, 71.69 37.07, 59.29 26.29 M84.2 47.94 C75.23 40.14, 66.26 32.34, 59.29 26.29 M81.54 40.33 C77.14 36.5, 72.73 32.67, 61.16 22.62 M81.54 40.33 C74.12 33.88, 66.69 27.42, 61.16 22.62 M79.64 33.38 C73.4 27.95, 67.16 22.53, 62.28 18.29 M79.64 33.38 C74.28 28.71, 68.91 24.05, 62.28 18.29 M76.98 25.76 C73.68 22.89, 70.38 20.02, 63.39 13.96 M76.98 25.76 C72.41 21.79, 67.84 17.82, 63.39 13.96 M75.07 18.81 C72.48 16.55, 69.89 14.3, 64.51 9.62 M75.07 18.81 C71.29 15.52, 67.51 12.23, 64.51 9.62 M72.42 11.2 C70.51 9.54, 68.6 7.88, 66.38 5.95 M72.42 11.2 C70.89 9.88, 69.37 8.55, 66.38 5.95 M70.51 4.24 C69.83 3.65, 69.15 3.06, 67.49 1.62 M70.51 4.24 C69.43 3.3, 68.35 2.36, 67.49 1.62" stroke="#4c6ef5" stroke-width="0.5" fill="none"/><path d="M67 0 C81.7 47.72, 96.4 95.45, 133.52 216 M67 0 C81.03 45.54, 95.05 91.08, 133.52 216 M133.52 216 C111.76 286.18, 89.99 356.37, 67 430.49 M133.52 216 C116 272.5, 98.48 328.99, 67 430.49 M67 430.49 C44.66 358.98, 22.32 287.47, 0 216 M67 430.49 C52.91 385.39, 38.82 340.28, 0 216 M0 216 C13.93 171.09, 27.86 126.19, 67 0 M0 216 C16.55 162.64, 33.11 109.27, 67 0" stroke="#000000" stroke-width="1" fill="none"/></g><g stroke-linecap="round" transform="translate(150.66157433228312 -54.03112986902818) rotate(131.15388725295279 80.06754082946296 215.24723930265262)"><path d="M80.91 0.11 C80.91 0.11, 80.91 0.11, 80.91 0.11 M80.91 0.11 C80.91 0.11, 80.91 0.11, 80.91 0.11 M76.71 11.03 C78 9.55, 79.29 8.07, 82.61 4.24 M76.71 11.03 C78.71 8.73, 80.71 6.43, 82.61 4.24 M73.17 21.2 C76.9 16.91, 80.63 12.62, 84.32 8.37 M73.17 21.2 C76.58 17.28, 79.99 13.36, 84.32 8.37 M68.97 32.13 C73.69 26.7, 78.41 21.27, 86.03 12.51 M68.97 32.13 C72.88 27.63, 76.79 23.13, 86.03 12.51 M64.77 43.06 C72.32 34.37, 79.87 25.69, 87.08 17.4 M64.77 43.06 C70.4 36.58, 76.03 30.11, 87.08 17.4 M60.57 53.98 C69.08 44.2, 77.58 34.41, 88.79 21.53 M60.57 53.98 C68.17 45.25, 75.76 36.51, 88.79 21.53 M57.03 64.15 C64.81 55.21, 72.58 46.26, 90.49 25.66 M57.03 64.15 C69.7 49.59, 82.36 35.02, 90.49 25.66 M52.84 75.08 C67.75 57.92, 82.67 40.76, 92.2 29.8 M52.84 75.08 C62.14 64.37, 71.45 53.66, 92.2 29.8 M48.64 86.01 C65.04 67.14, 81.43 48.28, 93.25 34.68 M48.64 86.01 C62.47 70.09, 76.31 54.17, 93.25 34.68 M45.1 96.18 C60.05 78.98, 75 61.78, 94.96 38.82 M45.1 96.18 C56.56 82.98, 68.03 69.79, 94.96 38.82 M40.9 107.1 C60.39 84.68, 79.89 62.25, 96.66 42.95 M40.9 107.1 C54.49 91.47, 68.07 75.84, 96.66 42.95 M36.7 118.03 C52.71 99.61, 68.72 81.19, 98.37 47.09 M36.7 118.03 C59.43 91.88, 82.17 65.72, 98.37 47.09 M32.5 128.95 C55.39 102.62, 78.28 76.29, 100.08 51.22 M32.5 128.95 C49.1 109.86, 65.7 90.77, 100.08 51.22 M28.96 139.13 C54.83 109.37, 80.7 79.61, 101.13 56.11 M28.96 139.13 C50.01 114.91, 71.05 90.7, 101.13 56.11 M24.76 150.05 C52.09 118.61, 79.42 87.18, 102.83 60.24 M24.76 150.05 C52.32 118.35, 79.88 86.65, 102.83 60.24 M20.56 160.98 C45.86 131.88, 71.16 102.78, 104.54 64.38 M20.56 160.98 C42.28 136, 64 111.01, 104.54 64.38 M16.37 171.9 C48.11 135.38, 79.86 98.86, 106.25 68.51 M16.37 171.9 C40.9 143.68, 65.44 115.45, 106.25 68.51 M12.83 182.08 C41.12 149.52, 69.42 116.97, 107.95 72.64 M12.83 182.08 C36.56 154.78, 60.29 127.47, 107.95 72.64 M8.63 193 C46.03 149.98, 83.43 106.95, 109 77.53 M8.63 193 C37.06 160.3, 65.48 127.6, 109 77.53 M4.43 203.93 C42.84 159.75, 81.24 115.56, 110.71 81.66 M4.43 203.93 C32.53 171.6, 60.64 139.27, 110.71 81.66 M0.89 214.1 C44.09 164.4, 87.29 114.71, 112.42 85.8 M0.89 214.1 C37.86 171.57, 74.83 129.03, 112.42 85.8 M2.59 218.23 C26.23 191.04, 49.86 163.86, 114.12 89.93 M2.59 218.23 C27.58 189.49, 52.57 160.74, 114.12 89.93 M4.3 222.37 C30.08 192.71, 55.86 163.05, 115.83 94.07 M4.3 222.37 C41.78 179.25, 79.26 136.13, 115.83 94.07 M6.01 226.5 C47.33 178.97, 88.65 131.43, 116.88 98.95 M6.01 226.5 C35.85 192.17, 65.69 157.85, 116.88 98.95 M7.71 230.63 C40.15 193.33, 72.58 156.02, 118.59 103.09 M7.71 230.63 C39.36 194.23, 71 157.83, 118.59 103.09 M8.77 235.52 C39.1 200.63, 69.43 165.73, 120.3 107.22 M8.77 235.52 C37.86 202.06, 66.95 168.59, 120.3 107.22 M10.47 239.66 C34.4 212.13, 58.33 184.6, 122 111.35 M10.47 239.66 C48.2 196.25, 85.94 152.84, 122 111.35 M12.18 243.79 C50.41 199.81, 88.64 155.83, 123.71 115.49 M12.18 243.79 C43.48 207.78, 74.79 171.77, 123.71 115.49 M13.89 247.92 C57.69 197.53, 101.49 147.14, 124.76 120.38 M13.89 247.92 C49.8 206.61, 85.72 165.29, 124.76 120.38 M15.59 252.06 C51.38 210.89, 87.16 169.73, 126.47 124.51 M15.59 252.06 C52.22 209.92, 88.86 167.77, 126.47 124.51 M17.3 256.19 C49.08 219.63, 80.86 183.07, 128.17 128.64 M17.3 256.19 C44.1 225.36, 70.9 194.53, 128.17 128.64 M18.35 261.08 C57.86 215.63, 97.37 170.18, 129.88 132.78 M18.35 261.08 C44.24 231.3, 70.12 201.52, 129.88 132.78 M20.06 265.21 C53.12 227.18, 86.18 189.15, 131.59 136.91 M20.06 265.21 C60.36 218.84, 100.67 172.48, 131.59 136.91 M21.76 269.35 C53.29 233.08, 84.82 196.81, 132.64 141.8 M21.76 269.35 C58.15 227.48, 94.54 185.62, 132.64 141.8 M23.47 273.48 C55.22 236.96, 86.96 200.44, 134.34 145.93 M23.47 273.48 C59.29 232.28, 95.1 191.07, 134.34 145.93 M25.18 277.61 C65.62 231.09, 106.06 184.57, 136.05 150.07 M25.18 277.61 C67.47 228.96, 109.76 180.32, 136.05 150.07 M26.88 281.75 C57.14 246.94, 87.4 212.13, 137.76 154.2 M26.88 281.75 C53.16 251.52, 79.44 221.28, 137.76 154.2 M28.59 285.88 C67.61 241, 106.62 196.11, 139.46 158.33 M28.59 285.88 C59.06 250.83, 89.52 215.79, 139.46 158.33 M29.64 290.77 C65.95 249, 102.25 207.24, 140.51 163.22 M29.64 290.77 C72.22 241.79, 114.8 192.81, 140.51 163.22 M31.35 294.9 C54.29 268.51, 77.23 242.13, 142.22 167.36 M31.35 294.9 C65.9 255.16, 100.45 215.41, 142.22 167.36 M33.05 299.04 C63.65 263.84, 94.24 228.65, 143.93 171.49 M33.05 299.04 C67.99 258.85, 102.92 218.67, 143.93 171.49 M34.76 303.17 C78.61 252.72, 122.47 202.27, 145.63 175.62 M34.76 303.17 C69.75 262.91, 104.75 222.66, 145.63 175.62 M36.47 307.3 C80.43 256.73, 124.4 206.15, 146.69 180.51 M36.47 307.3 C75.2 262.74, 113.94 218.18, 146.69 180.51 M38.17 311.44 C80.97 262.21, 123.77 212.98, 148.39 184.65 M38.17 311.44 C74.63 269.5, 111.08 227.57, 148.39 184.65 M39.22 316.33 C76.01 274.01, 112.8 231.69, 150.1 188.78 M39.22 316.33 C70.8 280, 102.38 243.68, 150.1 188.78 M40.93 320.46 C80.88 274.5, 120.83 228.54, 151.81 192.91 M40.93 320.46 C76.55 279.49, 112.17 238.51, 151.81 192.91 M42.64 324.59 C83.06 278.1, 123.47 231.6, 153.51 197.05 M42.64 324.59 C73.36 289.26, 104.07 253.92, 153.51 197.05 M44.34 328.73 C76.48 291.76, 108.61 254.8, 154.56 201.94 M44.34 328.73 C74.3 294.27, 104.25 259.82, 154.56 201.94 M46.05 332.86 C83.73 289.51, 121.42 246.16, 156.27 206.07 M46.05 332.86 C85.78 287.16, 125.51 241.45, 156.27 206.07 M47.76 336.99 C77.12 303.21, 106.49 269.43, 157.98 210.2 M47.76 336.99 C79.41 300.59, 111.06 264.18, 157.98 210.2 M48.81 341.88 C89.08 295.56, 129.35 249.23, 159.68 214.34 M48.81 341.88 C86.24 298.82, 123.67 255.76, 159.68 214.34 M50.52 346.02 C92.26 298, 134 249.98, 162.05 217.72 M50.52 346.02 C83.16 308.47, 115.8 270.92, 162.05 217.72 M52.22 350.15 C82.07 315.81, 111.92 281.47, 157.85 228.64 M52.22 350.15 C81.94 315.97, 111.65 281.78, 157.85 228.64 M53.93 354.28 C74.9 330.15, 95.88 306.02, 154.31 238.81 M53.93 354.28 C87.44 315.73, 120.95 277.18, 154.31 238.81 M55.64 358.42 C75.36 335.72, 95.09 313.03, 150.11 249.74 M55.64 358.42 C77.82 332.89, 100.01 307.37, 150.11 249.74 M57.34 362.55 C90.28 324.66, 123.21 286.78, 146.57 259.91 M57.34 362.55 C82.01 334.17, 106.69 305.79, 146.57 259.91 M59.05 366.68 C76.15 347.01, 93.26 327.33, 142.37 270.84 M59.05 366.68 C85.02 336.81, 110.98 306.94, 142.37 270.84 M60.1 371.57 C88.29 339.15, 116.47 306.72, 138.83 281.01 M60.1 371.57 C84.26 343.78, 108.41 315.99, 138.83 281.01 M61.81 375.71 C90.22 343.02, 118.63 310.33, 134.63 291.93 M61.81 375.71 C90.61 342.57, 119.42 309.43, 134.63 291.93 M63.51 379.84 C82.68 357.79, 101.85 335.74, 131.09 302.1 M63.51 379.84 C79.14 361.86, 94.77 343.88, 131.09 302.1 M65.22 383.97 C79.79 367.21, 94.37 350.44, 126.89 313.03 M65.22 383.97 C80.06 366.9, 94.91 349.82, 126.89 313.03 M66.93 388.11 C86.93 365.09, 106.94 342.08, 122.69 323.96 M66.93 388.11 C87.93 363.94, 108.94 339.78, 122.69 323.96 M68.63 392.24 C82.33 376.48, 96.03 360.72, 119.15 334.13 M68.63 392.24 C87.4 370.65, 106.17 349.06, 119.15 334.13 M69.68 397.13 C78.76 386.68, 87.84 376.24, 114.95 345.05 M69.68 397.13 C82.81 382.03, 95.94 366.92, 114.95 345.05 M71.39 401.26 C86.48 383.9, 101.57 366.55, 111.41 355.23 M71.39 401.26 C86.71 383.64, 102.02 366.03, 111.41 355.23 M73.1 405.4 C84.4 392.4, 95.7 379.4, 107.21 366.15 M73.1 405.4 C81.24 396.03, 89.39 386.65, 107.21 366.15 M74.8 409.53 C83.2 399.87, 91.59 390.22, 103.67 376.32 M74.8 409.53 C81.71 401.58, 88.63 393.63, 103.67 376.32 M76.51 413.66 C82.88 406.34, 89.25 399.01, 99.47 387.25 M76.51 413.66 C83.64 405.46, 90.78 397.25, 99.47 387.25 M78.22 417.8 C83.6 411.61, 88.98 405.41, 95.93 397.42 M78.22 417.8 C84.89 410.12, 91.57 402.44, 95.93 397.42 M79.92 421.93 C83.12 418.26, 86.32 414.58, 91.73 408.35 M79.92 421.93 C83.63 417.67, 87.33 413.41, 91.73 408.35 M80.98 426.82 C83.35 424.08, 85.73 421.34, 87.54 419.27 M80.98 426.82 C82.29 425.3, 83.61 423.78, 87.54 419.27" stroke="#fa5252" stroke-width="0.5" fill="none"/><path d="M81 0 C102.78 59.45, 124.56 118.9, 160.14 216 M81 0 C107.7 72.87, 134.4 145.75, 160.14 216 M160.14 216 C130.06 297.51, 99.99 379.02, 81 430.49 M160.14 216 C136.99 278.73, 113.85 341.46, 81 430.49 M81 430.49 C59.35 373.18, 37.71 315.86, 0 216 M81 430.49 C56.83 366.49, 32.66 302.49, 0 216 M0 216 C19.84 163.09, 39.68 110.18, 81 0 M0 216 C19.34 164.43, 38.68 112.86, 81 0" stroke="#000000" stroke-width="1" fill="none"/></g><g stroke-linecap="round"><g transform="translate(281.9113074322497 97.54400640776691) rotate(0 -51.277275445860425 64.38720709850872)"><path d="M0 0 C-22.19 27.87, -44.39 55.73, -102.55 128.77 M0 0 C-22.88 28.73, -45.76 57.46, -102.55 128.77" stroke="#000000" stroke-width="4" fill="none"/></g></g><mask/><g transform="translate(234.3053157545844 74.54858058377698) rotate(0 46.839430644298886 6.656600799802533)" stroke="none"><path fill="#000000" d="M -0.73,-0.30 Q -0.73,-0.30 -0.61,-1.04 -0.50,-1.78 -0.00,-2.86 0.49,-3.94 1.11,-5.04 1.73,-6.15 2.66,-7.14 3.59,-8.13 4.70,-8.89 5.81,-9.64 7.17,-10.30 8.53,-10.95 10.03,-11.72 11.54,-12.49 13.12,-13.35 14.70,-14.21 16.48,-15.11 18.27,-16.00 20.21,-16.69 22.15,-17.37 24.20,-17.68 26.25,-18.00 28.30,-18.12 30.36,-18.25 32.30,-18.23 34.24,-18.22 36.02,-18.14 37.80,-18.06 39.68,-17.99 41.57,-17.91 43.38,-17.78 45.20,-17.65 46.99,-17.46 48.77,-17.26 50.70,-16.94 52.62,-16.63 54.44,-16.18 56.27,-15.74 57.91,-15.32 59.55,-14.90 61.13,-14.57 62.70,-14.23 64.35,-13.83 66.00,-13.42 67.73,-12.81 69.47,-12.21 71.16,-11.29 72.85,-10.37 74.60,-9.06 76.35,-7.76 77.72,-6.57 79.10,-5.38 80.41,-4.24 81.73,-3.10 82.95,-1.74 84.17,-0.38 85.15,1.37 86.13,3.14 86.90,4.99 87.68,6.83 88.38,8.58 89.07,10.32 89.74,11.69 90.41,13.05 91.02,14.52 91.63,15.99 92.12,17.30 92.62,18.60 92.98,19.90 93.34,21.20 93.64,22.45 93.93,23.70 94.19,24.85 94.44,26.00 94.36,27.98 94.28,29.97 94.28,30.07 94.27,30.18 94.23,30.28 94.20,30.38 94.13,30.46 94.06,30.54 93.97,30.59 93.88,30.65 93.77,30.67 93.67,30.69 93.56,30.68 93.46,30.67 93.36,30.63 93.27,30.58 93.19,30.51 93.11,30.44 93.06,30.34 93.01,30.25 92.99,30.15 92.98,30.04 92.99,29.94 93.01,29.83 93.06,29.74 93.11,29.64 93.18,29.57 93.26,29.50 93.36,29.45 93.45,29.41 93.56,29.39 93.67,29.38 93.77,29.41 93.87,29.43 93.96,29.48 94.06,29.54 94.12,29.62 94.19,29.70 94.23,29.80 94.27,29.90 94.28,30.00 94.28,30.11 94.26,30.21 94.23,30.31 94.17,30.40 94.11,30.49 94.03,30.55 93.94,30.62 93.84,30.65 93.74,30.69 93.63,30.69 93.53,30.69 93.43,30.65 93.33,30.62 93.24,30.56 93.16,30.49 93.10,30.40 93.04,30.32 93.01,30.21 92.98,30.11 92.98,30.11 92.98,30.11 92.39,28.35 91.81,26.60 91.55,25.46 91.28,24.32 91.00,23.12 90.72,21.92 90.40,20.74 90.07,19.56 89.60,18.29 89.12,17.03 88.55,15.64 87.97,14.24 87.26,12.78 86.55,11.33 85.87,9.60 85.19,7.88 84.47,6.15 83.75,4.42 82.95,2.90 82.16,1.39 81.06,0.15 79.96,-1.08 78.65,-2.22 77.35,-3.36 76.05,-4.49 74.74,-5.62 73.15,-6.82 71.55,-8.03 70.06,-8.86 68.57,-9.69 66.97,-10.26 65.37,-10.82 63.76,-11.22 62.14,-11.61 60.52,-11.96 58.89,-12.30 57.26,-12.72 55.63,-13.13 53.90,-13.56 52.18,-13.98 50.33,-14.29 48.48,-14.60 46.75,-14.79 45.01,-14.99 43.23,-15.11 41.45,-15.24 39.57,-15.32 37.68,-15.40 35.95,-15.48 34.22,-15.56 32.37,-15.58 30.52,-15.60 28.57,-15.50 26.62,-15.39 24.81,-15.15 23.00,-14.90 21.21,-14.29 19.42,-13.68 17.66,-12.82 15.91,-11.96 14.30,-11.09 12.68,-10.23 11.14,-9.46 9.60,-8.69 8.39,-8.13 7.18,-7.57 6.28,-6.98 5.37,-6.39 4.62,-5.65 3.87,-4.90 3.27,-3.88 2.66,-2.86 2.14,-1.88 1.61,-0.90 1.17,-0.30 0.73,0.30 0.69,0.38 0.64,0.47 0.57,0.54 0.51,0.61 0.43,0.66 0.35,0.71 0.25,0.75 0.16,0.78 0.07,0.79 -0.02,0.79 -0.11,0.78 -0.21,0.77 -0.30,0.73 -0.39,0.69 -0.47,0.63 -0.54,0.58 -0.60,0.50 -0.67,0.43 -0.71,0.34 -0.75,0.26 -0.77,0.16 -0.79,0.07 -0.79,-0.02 -0.79,-0.12 -0.76,-0.21 -0.73,-0.30 -0.73,-0.30 L -0.73,-0.30 Z"/></g><g transform="translate(320.80294601371793 12.420639257366133) rotate(0 -13.757311489172423 8.673658430629274)" stroke="none"><path fill="#000000" d="M 0.83,0.22 Q 0.83,0.22 0.56,1.87 0.30,3.52 -0.42,5.67 -1.15,7.81 -2.25,10.17 -3.36,12.54 -5.16,14.56 -6.96,16.59 -9.60,17.99 -12.24,19.39 -15.11,19.94 -17.98,20.50 -20.47,19.66 -22.96,18.81 -24.73,16.48 -26.49,14.16 -27.27,11.12 -28.05,8.08 -27.90,5.37 -27.75,2.66 -26.75,0.78 -25.74,-1.09 -23.84,-1.94 -21.94,-2.80 -19.73,-2.03 -17.52,-1.27 -15.50,0.89 -13.48,3.06 -11.83,5.62 -10.17,8.18 -8.63,10.21 -7.10,12.23 -5.55,13.56 -4.00,14.88 -2.54,15.80 -1.07,16.73 -0.99,16.79 -0.90,16.85 -0.84,16.93 -0.77,17.02 -0.74,17.12 -0.71,17.22 -0.71,17.33 -0.71,17.44 -0.75,17.54 -0.78,17.64 -0.85,17.72 -0.92,17.80 -1.00,17.86 -1.09,17.92 -1.20,17.95 -1.30,17.97 -1.40,17.97 -1.51,17.96 -1.61,17.92 -1.71,17.88 -1.79,17.81 -1.87,17.74 -1.92,17.64 -1.97,17.55 -1.99,17.45 -2.02,17.34 -2.00,17.24 -1.99,17.13 -1.94,17.04 -1.90,16.94 -1.82,16.87 -1.75,16.79 -1.65,16.74 -1.56,16.69 -1.45,16.68 -1.35,16.66 -1.24,16.68 -1.14,16.70 -1.05,16.75 -0.95,16.80 -0.88,16.88 -0.81,16.96 -0.77,17.06 -0.72,17.15 -0.71,17.26 -0.70,17.36 -0.73,17.47 -0.75,17.57 -0.81,17.66 -0.87,17.75 -0.95,17.82 -1.03,17.89 -1.13,17.92 -1.23,17.96 -1.33,17.97 -1.44,17.97 -1.54,17.94 -1.64,17.91 -1.64,17.91 -1.64,17.91 -3.44,17.26 -5.24,16.62 -7.32,15.35 -9.41,14.07 -11.08,11.96 -12.75,9.84 -14.27,7.47 -15.79,5.10 -17.31,3.29 -18.83,1.49 -20.15,0.76 -21.47,0.04 -22.41,0.37 -23.35,0.70 -24.01,1.84 -24.67,2.98 -24.83,5.19 -25.00,7.39 -24.45,9.91 -23.90,12.43 -22.75,14.23 -21.60,16.04 -19.97,16.72 -18.33,17.40 -15.97,16.97 -13.62,16.55 -11.38,15.51 -9.13,14.47 -7.53,12.85 -5.92,11.24 -4.80,9.05 -3.67,6.87 -2.87,4.87 -2.06,2.87 -1.44,1.32 -0.83,-0.22 -0.79,-0.32 -0.75,-0.42 -0.69,-0.50 -0.63,-0.59 -0.55,-0.65 -0.47,-0.72 -0.37,-0.77 -0.28,-0.81 -0.18,-0.83 -0.08,-0.86 0.02,-0.85 0.12,-0.85 0.22,-0.82 0.32,-0.79 0.41,-0.74 0.51,-0.69 0.58,-0.62 0.66,-0.55 0.71,-0.46 0.77,-0.38 0.81,-0.28 0.84,-0.18 0.85,-0.08 0.86,0.02 0.84,0.12 0.83,0.22 0.83,0.22 L 0.83,0.22 Z"/></g></svg>