<svg version="1.1" xmlns="http://www.w3.org/2000/svg" viewBox="0 0 489.2260981227082 247.06437825161862" width="489.2260981227082" height="247.06437825161862" filter="invert(93%) hue-rotate(180deg)">
  <!-- svg-source:excalidraw -->
  
  <defs>
    <style class="style-fonts">
      @font-face {
        font-family: "Virgil";
        src: url("https://excalidraw.com/Virgil.woff2");
      }
      @font-face {
        font-family: "Cascadia";
        src: url("https://excalidraw.com/Cascadia.woff2");
      }
    </style>
  </defs>
  <rect x="0" y="0" width="489.2260981227082" height="247.06437825161862" fill="transparent"/><g stroke-linecap="round"><g transform="translate(132.7624228640326 50.13096957424949) rotate(0 160.8000030517578 0)"><path d="M0 0 C85.55 0, 171.1 0, 321.6 0 M0 0 C120.99 0, 241.98 0, 321.6 0" stroke="#000000" stroke-width="1" fill="none"/></g></g><mask/><g stroke-linecap="round"><g transform="translate(47.962404553485726 200.53096347073387) rotate(0 42.14291804548428 -74.98933540307505)"><path d="M0 0 C21.71 -38.63, 43.42 -77.26, 84.29 -149.98 M0 0 C22.88 -40.72, 45.76 -81.43, 84.29 -149.98" stroke="#000000" stroke-width="1" fill="none"/></g></g><mask/><g stroke-linecap="round"><g transform="translate(48.35784532926152 200.24186494779855) rotate(180 160.8000030517578 0)"><path d="M0 0 C111.04 0, 222.07 0, 321.6 0 M0 0 C86.76 0, 173.52 0, 321.6 0" stroke="#000000" stroke-width="1" fill="none"/></g></g><mask/><g stroke-linecap="round"><g transform="translate(370.4720336523538 199.82054185746097) rotate(180 42.14291804548428 -74.98933540307505)"><path d="M0 0 C17.58 -31.29, 35.17 -62.58, 84.29 -149.98 M0 0 C21.23 -37.77, 42.46 -75.55, 84.29 -149.98" stroke="#000000" stroke-width="1" fill="none"/></g></g><mask/><g transform="translate(125.94776516712966 15.435037454189512) rotate(0 -5.13310628679028 11.172052149278798)" stroke="none"><path fill="#000000" d="M 2.01,0.50 Q 2.01,0.50 1.39,2.56 0.77,4.62 -0.42,7.50 -1.61,10.38 -2.67,12.20 -3.72,14.01 -4.67,15.75 -5.61,17.48 -6.99,19.99 -8.38,22.50 -8.54,22.74 -8.70,22.99 -8.92,23.16 -9.15,23.34 -9.42,23.44 -9.69,23.54 -9.98,23.54 -10.27,23.55 -10.55,23.46 -10.82,23.38 -11.06,23.20 -11.29,23.03 -11.46,22.80 -11.62,22.56 -11.71,22.28 -11.79,22.01 -11.78,21.72 -11.77,21.43 -11.67,21.16 -11.56,20.89 -11.38,20.66 -11.20,20.44 -10.95,20.29 -10.71,20.13 -10.43,20.07 -10.15,20.00 -9.86,20.03 -9.57,20.05 -9.30,20.17 -9.04,20.28 -8.83,20.48 -8.61,20.67 -8.47,20.93 -8.33,21.18 -8.28,21.46 -8.23,21.75 -8.27,22.03 -8.31,22.32 -8.44,22.58 -8.57,22.84 -8.78,23.04 -8.99,23.24 -9.25,23.37 -9.51,23.49 -9.79,23.53 -10.08,23.57 -10.36,23.51 -10.65,23.45 -10.90,23.31 -11.15,23.16 -11.34,22.95 -11.53,22.73 -11.64,22.46 -11.75,22.20 -11.77,21.91 -11.80,21.62 -11.72,21.34 -11.65,21.06 -11.65,21.06 -11.65,21.06 -10.08,18.50 -8.51,15.93 -7.58,14.13 -6.64,12.33 -5.73,10.73 -4.82,9.12 -3.83,6.42 -2.85,3.71 -2.43,1.60 -2.01,-0.50 -1.92,-0.73 -1.83,-0.96 -1.68,-1.17 -1.54,-1.37 -1.35,-1.54 -1.17,-1.71 -0.95,-1.82 -0.72,-1.94 -0.48,-1.99 -0.24,-2.05 0.00,-2.05 0.25,-2.05 0.49,-1.99 0.74,-1.93 0.96,-1.81 1.18,-1.70 1.37,-1.53 1.55,-1.36 1.69,-1.16 1.83,-0.95 1.92,-0.72 2.01,-0.48 2.04,-0.24 2.07,0.00 2.04,0.25 2.01,0.50 2.01,0.50 L 2.01,0.50 Z"/></g><g transform="translate(130.17503187822166 13.623358302793008) rotate(0 4.227255192716882 15.39930734199568)" stroke="none"><path fill="#000000" d="M 2.03,0 Q 2.03,0 1.93,2.25 1.84,4.51 1.77,6.86 1.70,9.20 1.93,10.62 2.16,12.03 2.67,14.87 3.19,17.71 3.88,19.90 4.58,22.08 5.52,23.81 6.46,25.53 7.14,26.39 7.82,27.25 8.52,28.17 9.21,29.09 9.43,29.30 9.64,29.50 9.77,29.77 9.91,30.03 9.95,30.33 10.00,30.62 9.94,30.91 9.89,31.20 9.75,31.46 9.61,31.72 9.39,31.92 9.17,32.13 8.90,32.25 8.63,32.37 8.33,32.39 8.04,32.42 7.75,32.35 7.46,32.29 7.21,32.13 6.95,31.97 6.77,31.74 6.58,31.51 6.47,31.24 6.37,30.96 6.35,30.66 6.34,30.37 6.43,30.08 6.51,29.80 6.68,29.56 6.85,29.31 7.09,29.14 7.33,28.96 7.61,28.87 7.89,28.78 8.19,28.78 8.49,28.79 8.77,28.89 9.05,28.99 9.28,29.17 9.51,29.35 9.67,29.60 9.84,29.85 9.91,30.13 9.99,30.42 9.97,30.72 9.95,31.01 9.83,31.29 9.72,31.56 9.52,31.78 9.33,32.01 9.07,32.16 8.82,32.31 8.52,32.37 8.23,32.42 7.94,32.39 7.65,32.35 7.38,32.22 7.11,32.09 7.11,32.10 7.11,32.10 5.99,30.60 4.86,29.11 4.33,28.06 3.79,27.01 2.69,25.06 1.58,23.11 0.73,20.75 -0.11,18.39 -0.79,15.42 -1.46,12.45 -1.58,10.83 -1.70,9.21 -1.77,6.86 -1.84,4.51 -1.93,2.25 -2.03,0 -2.00,-0.24 -1.97,-0.48 -1.88,-0.71 -1.80,-0.94 -1.66,-1.14 -1.52,-1.34 -1.34,-1.51 -1.15,-1.67 -0.93,-1.78 -0.72,-1.90 -0.48,-1.96 -0.24,-2.02 0.00,-2.02 0.24,-2.02 0.48,-1.96 0.72,-1.90 0.93,-1.78 1.15,-1.67 1.34,-1.51 1.52,-1.34 1.66,-1.14 1.80,-0.94 1.88,-0.71 1.97,-0.48 2.00,-0.24 2.03,0.00 2.03,0.00 L 2.03,0 Z"/></g><g transform="translate(122.92829223588541 32.34408126180733) rotate(0 4.831152082640756 0)" stroke="none"><path fill="#000000" d="M 0,-2.19 Q 0,-2.19 2.25,-2.08 4.51,-1.96 6.62,-2.04 8.73,-2.11 9.07,-2.06 9.40,-2.00 9.71,-1.84 10.01,-1.68 10.24,-1.43 10.48,-1.18 10.62,-0.87 10.77,-0.56 10.80,-0.22 10.84,0.11 10.77,0.44 10.69,0.78 10.52,1.07 10.34,1.36 10.08,1.59 9.82,1.81 9.50,1.93 9.18,2.06 8.84,2.08 8.50,2.10 8.17,2.01 7.84,1.91 7.56,1.72 7.27,1.53 7.07,1.26 6.86,0.99 6.75,0.66 6.64,0.34 6.64,-0.00 6.64,-0.34 6.75,-0.66 6.86,-0.99 7.07,-1.26 7.27,-1.53 7.56,-1.72 7.84,-1.92 8.17,-2.01 8.50,-2.10 8.84,-2.08 9.18,-2.06 9.50,-1.93 9.82,-1.81 10.08,-1.59 10.34,-1.36 10.52,-1.07 10.69,-0.78 10.77,-0.44 10.84,-0.11 10.80,0.22 10.77,0.56 10.62,0.87 10.48,1.18 10.24,1.43 10.01,1.68 9.70,1.84 9.40,2.00 9.06,2.06 8.73,2.11 8.73,2.11 8.73,2.11 6.62,2.04 4.51,1.96 2.25,2.08 0,2.19 -0.26,2.16 -0.52,2.13 -0.77,2.04 -1.02,1.94 -1.23,1.79 -1.45,1.64 -1.63,1.44 -1.80,1.24 -1.93,1.01 -2.05,0.77 -2.11,0.52 -2.18,0.26 -2.18,-0.00 -2.18,-0.26 -2.11,-0.52 -2.05,-0.77 -1.93,-1.01 -1.80,-1.24 -1.63,-1.44 -1.45,-1.64 -1.23,-1.79 -1.02,-1.94 -0.77,-2.04 -0.52,-2.13 -0.26,-2.16 0.00,-2.19 0.00,-2.19 L 0,-2.19 Z"/></g><g transform="translate(459.2975583470959 11.207770743097512) rotate(0 -0.3019196490241143 12.681788614900924)" stroke="none"><path fill="#000000" d="M 1.98,-0.19 Q 1.98,-0.19 2.15,1.53 2.32,3.27 2.31,5.64 2.30,8.01 2.26,10.57 2.23,13.13 1.84,15.55 1.44,17.97 1.30,19.93 1.15,21.88 0.88,23.49 0.60,25.09 0.50,25.35 0.39,25.60 0.21,25.81 0.03,26.02 -0.19,26.16 -0.43,26.30 -0.70,26.36 -0.97,26.42 -1.25,26.39 -1.52,26.36 -1.77,26.24 -2.03,26.12 -2.22,25.93 -2.42,25.74 -2.55,25.49 -2.68,25.25 -2.72,24.97 -2.77,24.70 -2.72,24.43 -2.67,24.15 -2.54,23.91 -2.41,23.67 -2.21,23.48 -2.01,23.29 -1.75,23.17 -1.50,23.06 -1.23,23.03 -0.95,23.00 -0.68,23.06 -0.41,23.13 -0.18,23.27 0.05,23.41 0.23,23.63 0.41,23.84 0.51,24.10 0.61,24.35 0.62,24.63 0.63,24.91 0.56,25.17 0.48,25.44 0.33,25.67 0.17,25.90 -0.04,26.06 -0.26,26.23 -0.53,26.31 -0.79,26.40 -1.07,26.40 -1.34,26.40 -1.61,26.31 -1.87,26.22 -2.09,26.05 -2.31,25.88 -2.46,25.65 -2.61,25.42 -2.69,25.15 -2.76,24.88 -2.74,24.61 -2.72,24.33 -2.72,24.33 -2.72,24.33 -2.33,23.00 -1.94,21.66 -1.80,19.59 -1.66,17.51 -1.39,15.34 -1.11,13.17 -1.21,10.65 -1.31,8.13 -1.47,5.90 -1.63,3.66 -1.80,1.93 -1.98,0.19 -1.97,-0.04 -1.97,-0.28 -1.90,-0.51 -1.84,-0.74 -1.73,-0.95 -1.61,-1.16 -1.45,-1.34 -1.28,-1.51 -1.08,-1.65 -0.88,-1.78 -0.66,-1.86 -0.43,-1.94 -0.19,-1.96 0.04,-1.99 0.27,-1.95 0.51,-1.92 0.74,-1.83 0.96,-1.74 1.15,-1.60 1.35,-1.46 1.50,-1.27 1.66,-1.09 1.76,-0.88 1.87,-0.66 1.92,-0.43 1.98,-0.19 1.98,-0.19 L 1.98,-0.19 Z"/></g><g transform="translate(461.7131459067914 10) rotate(0 8.756476107958406 12.379834410751428)" stroke="none"><path fill="#000000" d="M 0,-2.63 Q 0,-2.63 1.21,-2.64 2.43,-2.66 4.25,-2.72 6.08,-2.78 7.77,-2.25 9.47,-1.73 10.12,0.08 10.77,1.90 10.62,3.83 10.47,5.75 10.17,7.40 9.87,9.05 9.11,10.10 8.35,11.15 6.76,11.87 5.17,12.58 4.99,12.69 4.82,12.80 4.43,12.82 4.04,12.83 3.66,12.76 3.27,12.68 2.92,12.52 2.57,12.35 2.26,12.11 1.96,11.86 1.72,11.55 1.48,11.24 1.33,10.88 1.17,10.53 1.11,10.14 1.04,9.76 1.07,9.37 1.10,8.98 1.22,8.61 1.34,8.23 1.55,7.90 1.76,7.57 2.04,7.30 2.32,7.03 2.65,6.83 2.99,6.63 3.37,6.52 3.74,6.41 5.47,6.88 7.20,7.35 8.32,7.48 9.43,7.61 10.78,7.89 12.12,8.17 13.55,8.71 14.98,9.25 16.34,10.17 17.70,11.08 18.51,12.08 19.33,13.09 19.88,14.68 20.43,16.27 20.28,17.88 20.14,19.50 18.46,21.27 16.79,23.04 15.79,23.72 14.79,24.39 12.77,25.11 10.75,25.83 8.76,26.58 6.77,27.33 4.50,27.52 2.23,27.71 1.76,27.65 1.28,27.58 0.85,27.37 0.42,27.16 0.08,26.82 -0.25,26.48 -0.46,26.05 -0.67,25.62 -0.74,25.14 -0.80,24.66 -0.71,24.19 -0.62,23.72 -0.39,23.30 -0.15,22.88 0.20,22.56 0.56,22.24 1.00,22.05 1.44,21.86 1.92,21.83 2.40,21.79 2.86,21.90 3.33,22.02 3.73,22.28 4.14,22.54 4.44,22.91 4.74,23.29 4.90,23.74 5.07,24.19 5.08,24.67 5.09,25.15 4.95,25.61 4.81,26.07 4.53,26.46 4.25,26.85 3.86,27.13 3.47,27.41 3.01,27.55 2.55,27.69 2.07,27.67 1.59,27.66 1.14,27.49 0.69,27.33 0.32,27.03 -0.05,26.73 -0.31,26.32 -0.56,25.92 -0.68,25.45 -0.79,24.98 -0.76,24.51 -0.72,24.03 -0.53,23.59 -0.34,23.15 -0.02,22.79 0.30,22.43 0.71,22.19 1.13,21.96 1.60,21.87 2.07,21.78 2.07,21.78 2.07,21.78 4.35,21.64 6.63,21.50 7.62,21.01 8.62,20.52 9.91,19.91 11.21,19.31 12.80,17.85 14.39,16.39 13.63,15.58 12.87,14.77 10.85,14.22 8.84,13.67 6.83,13.23 4.82,12.80 4.43,12.82 4.04,12.83 3.66,12.76 3.27,12.68 2.92,12.52 2.57,12.35 2.26,12.11 1.96,11.86 1.72,11.55 1.48,11.24 1.33,10.88 1.17,10.53 1.11,10.14 1.04,9.76 1.07,9.37 1.10,8.98 1.22,8.61 1.34,8.23 1.55,7.90 1.76,7.57 2.04,7.30 2.32,7.03 2.65,6.83 2.99,6.63 3.36,6.52 3.74,6.41 3.87,6.71 4.01,7.02 4.26,5.66 4.50,4.30 5.29,3.54 6.08,2.78 4.25,2.72 2.43,2.66 1.21,2.64 0,2.63 -0.31,2.59 -0.63,2.55 -0.92,2.44 -1.22,2.33 -1.48,2.15 -1.74,1.97 -1.95,1.73 -2.16,1.49 -2.31,1.21 -2.46,0.93 -2.54,0.62 -2.61,0.31 -2.61,-0.00 -2.61,-0.31 -2.54,-0.62 -2.46,-0.93 -2.31,-1.21 -2.16,-1.49 -1.95,-1.73 -1.74,-1.97 -1.48,-2.15 -1.22,-2.33 -0.92,-2.44 -0.63,-2.55 -0.31,-2.59 0.00,-2.63 0.00,-2.63 L 0,-2.63 Z"/></g><g transform="translate(400.1159165388086 207.47353431072474) rotate(0 -7.548682328110601 7.548682328110658)" stroke="none"><path fill="#000000" d="M 0,2.10 Q 0,2.10 -2.43,2.00 -4.86,1.89 -6.56,1.90 -8.26,1.90 -10.44,3.12 -12.62,4.34 -13.67,5.86 -14.73,7.39 -13.72,8.53 -12.71,9.68 -11.95,10.59 -11.18,11.51 -9.86,11.88 -8.54,12.25 -6.30,12.56 -4.06,12.86 -1.37,12.93 1.32,13.00 1.64,13.07 1.96,13.14 2.24,13.31 2.52,13.48 2.73,13.73 2.94,13.99 3.06,14.29 3.18,14.59 3.20,14.92 3.22,15.25 3.13,15.56 3.04,15.88 2.85,16.15 2.67,16.42 2.41,16.62 2.14,16.82 1.83,16.92 1.52,17.02 1.20,17.02 0.87,17.02 0.56,16.91 0.25,16.81 -0.00,16.61 -0.26,16.41 -0.45,16.14 -0.63,15.86 -0.71,15.55 -0.80,15.23 -0.78,14.90 -0.76,14.58 -0.64,14.27 -0.52,13.97 -0.30,13.72 -0.09,13.47 0.18,13.30 0.46,13.14 0.78,13.07 1.10,13.00 1.43,13.04 1.75,13.07 2.05,13.21 2.35,13.35 2.58,13.58 2.82,13.80 2.97,14.09 3.13,14.38 3.18,14.71 3.23,15.03 3.17,15.35 3.12,15.68 2.97,15.97 2.81,16.25 2.57,16.48 2.33,16.70 2.03,16.84 1.74,16.98 1.41,17.01 1.08,17.04 1.09,17.04 1.09,17.04 -1.68,16.79 -4.46,16.54 -7.17,16.32 -9.89,16.10 -12.05,15.22 -14.22,14.34 -15.12,13.15 -16.03,11.95 -17.31,9.77 -18.59,7.58 -17.86,5.34 -17.13,3.11 -15.88,1.91 -14.63,0.70 -13.12,-0.06 -11.61,-0.84 -9.99,-1.37 -8.37,-1.90 -6.61,-1.90 -4.86,-1.89 -2.43,-2.00 0,-2.10 0.25,-2.07 0.50,-2.04 0.74,-1.95 0.97,-1.86 1.18,-1.72 1.39,-1.57 1.56,-1.38 1.73,-1.19 1.85,-0.97 1.96,-0.74 2.03,-0.50 2.09,-0.25 2.09,0.00 2.09,0.25 2.03,0.50 1.96,0.74 1.85,0.97 1.73,1.19 1.56,1.38 1.39,1.57 1.18,1.72 0.97,1.86 0.74,1.95 0.50,2.04 0.25,2.07 -0.00,2.10 -0.00,2.10 L 0,2.10 Z"/></g><g transform="translate(12.415576041320378 214.116365544762) rotate(0 -0.3019484449619654 10.56815525935491)" stroke="none"><path fill="#000000" d="M 2.05,0 Q 2.05,0 1.95,2.25 1.85,4.51 1.81,6.51 1.77,8.51 1.53,10.98 1.29,13.46 1.23,15.32 1.17,17.19 1.20,18.82 1.23,20.46 1.18,20.75 1.12,21.04 0.98,21.29 0.83,21.55 0.61,21.75 0.39,21.94 0.12,22.06 -0.14,22.18 -0.43,22.20 -0.73,22.22 -1.01,22.15 -1.30,22.08 -1.55,21.92 -1.80,21.76 -1.98,21.53 -2.17,21.30 -2.27,21.03 -2.37,20.75 -2.38,20.46 -2.39,20.16 -2.30,19.88 -2.21,19.60 -2.04,19.36 -1.87,19.12 -1.63,18.95 -1.39,18.77 -1.11,18.69 -0.82,18.60 -0.53,18.61 -0.24,18.62 0.03,18.72 0.31,18.82 0.54,19.01 0.77,19.19 0.93,19.44 1.09,19.69 1.16,19.97 1.23,20.26 1.20,20.55 1.18,20.85 1.06,21.12 0.95,21.39 0.75,21.61 0.55,21.83 0.30,21.97 0.04,22.12 -0.24,22.17 -0.53,22.23 -0.82,22.19 -1.11,22.15 -1.38,22.02 -1.64,21.89 -1.85,21.68 -2.06,21.47 -2.19,21.21 -2.32,20.94 -2.36,20.65 -2.40,20.36 -2.40,20.36 -2.40,20.36 -2.28,18.71 -2.15,17.06 -2.07,15.14 -1.99,13.22 -1.88,10.86 -1.77,8.51 -1.81,6.51 -1.85,4.51 -1.95,2.25 -2.05,0 -2.02,-0.24 -1.99,-0.49 -1.90,-0.72 -1.81,-0.95 -1.67,-1.15 -1.53,-1.36 -1.35,-1.52 -1.16,-1.69 -0.94,-1.80 -0.72,-1.92 -0.48,-1.97 -0.24,-2.03 0.00,-2.03 0.24,-2.03 0.48,-1.97 0.72,-1.92 0.94,-1.80 1.16,-1.68 1.35,-1.52 1.53,-1.36 1.67,-1.15 1.81,-0.95 1.90,-0.72 1.99,-0.49 2.02,-0.24 2.05,0.00 2.05,0.00 L 2.05,0 Z"/></g><g transform="translate(13.623369821168126 214.116365544762) rotate(0 4.529203637678819 11.474006353428308)" stroke="none"><path fill="#000000" d="M 0,-2.66 Q 0,-2.66 1.21,-2.67 2.43,-2.68 3.93,-2.75 5.43,-2.82 6.60,-2.88 7.76,-2.94 9.72,-2.48 11.68,-2.02 13.10,-0.54 14.51,0.92 14.96,2.44 15.41,3.96 15.53,5.07 15.64,6.18 15.68,7.36 15.71,8.54 15.72,10.68 15.74,12.82 15.78,14.10 15.82,15.37 15.59,16.99 15.35,18.61 14.43,19.87 13.51,21.14 12.69,21.95 11.87,22.77 10.85,23.58 9.84,24.40 8.76,24.92 7.68,25.44 6.21,25.76 4.74,26.09 3.62,26.15 2.50,26.22 -0.41,26.26 -3.34,26.30 -3.87,26.21 -4.41,26.13 -4.89,25.87 -5.37,25.62 -5.74,25.22 -6.12,24.83 -6.35,24.34 -6.57,23.84 -6.63,23.30 -6.69,22.76 -6.58,22.23 -6.46,21.70 -6.18,21.23 -5.90,20.77 -5.48,20.42 -5.07,20.07 -4.57,19.86 -4.06,19.66 -3.52,19.63 -2.98,19.60 -2.45,19.75 -1.93,19.89 -1.48,20.20 -1.03,20.50 -0.70,20.94 -0.37,21.37 -0.20,21.88 -0.02,22.40 -0.02,22.94 -0.02,23.49 -0.20,24.00 -0.37,24.52 -0.70,24.95 -1.03,25.38 -1.48,25.69 -1.93,25.99 -2.45,26.14 -2.97,26.28 -3.52,26.25 -4.06,26.22 -4.56,26.02 -5.07,25.82 -5.48,25.47 -5.90,25.12 -6.18,24.65 -6.46,24.19 -6.58,23.66 -6.69,23.12 -6.63,22.58 -6.57,22.04 -6.35,21.55 -6.12,21.06 -5.74,20.66 -5.37,20.27 -4.89,20.01 -4.41,19.76 -3.87,19.67 -3.34,19.58 -3.34,19.58 -3.34,19.58 -1.38,19.59 0.57,19.60 1.86,19.62 3.14,19.65 4.21,19.62 5.28,19.58 6.30,18.96 7.32,18.35 8.42,16.87 9.53,15.39 9.56,14.12 9.60,12.86 9.58,11.76 9.56,10.67 9.51,8.71 9.45,6.75 9.43,5.57 9.41,4.38 8.59,3.66 7.76,2.94 6.60,2.88 5.43,2.82 3.93,2.75 2.43,2.68 1.21,2.67 0,2.66 -0.31,2.62 -0.63,2.58 -0.93,2.47 -1.23,2.35 -1.50,2.17 -1.76,1.99 -1.97,1.75 -2.19,1.51 -2.34,1.22 -2.48,0.94 -2.56,0.63 -2.64,0.32 -2.64,-0.00 -2.64,-0.32 -2.56,-0.63 -2.48,-0.94 -2.34,-1.22 -2.19,-1.51 -1.97,-1.75 -1.76,-1.99 -1.50,-2.17 -1.23,-2.35 -0.93,-2.47 -0.63,-2.58 -0.31,-2.62 0.00,-2.66 0.00,-2.66 L 0,-2.66 Z"/></g><g stroke-linecap="round"><g transform="translate(132.59059640116692 49.857033477724144) rotate(0 119.5711234699227 74.58098370540827)"><path d="M0 0 C50.24 31.33, 100.47 62.67, 239.14 149.16" stroke="#000000" stroke-width="1.5" fill="none" stroke-dasharray="8 9"/></g></g><mask/><g stroke-linecap="round"><g transform="translate(455.0703146727541 49.857033477724144) rotate(0 -203.21052596906372 75.48683479948167)"><path d="M0 0 C-158.65 58.93, -317.29 117.87, -406.42 150.97" stroke="#000000" stroke-width="1.5" fill="none" stroke-dasharray="8 9"/></g></g><mask/></svg>