<svg version="1.1" xmlns="http://www.w3.org/2000/svg" viewBox="0 0 358.9781516125645 249.13492486472305" width="358.9781516125645" height="249.13492486472305" filter="invert(93%) hue-rotate(180deg)">
  <!-- svg-source:excalidraw -->
  
  <defs>
    <style class="style-fonts">
      @font-face {
        font-family: "Virgil";
        src: url("https://excalidraw.com/Virgil.woff2");
      }
      @font-face {
        font-family: "Cascadia";
        src: url("https://excalidraw.com/Cascadia.woff2");
      }
    </style>
  </defs>
  <rect x="0" y="0" width="358.9781516125645" height="249.13492486472305" fill="transparent"/><g stroke-linecap="round" transform="translate(-6.945966754891032 76.39714188759345) rotate(335.38199496256215 186.43504256117328 85.0751904558984)"><path d="M187 0 C228.95 19.41, 270.9 38.82, 372.87 86 M187 0 C253.44 30.74, 319.88 61.48, 372.87 86 M372.87 86 C322.44 108.83, 272 131.67, 187 170.15 M372.87 86 C305.73 116.4, 238.58 146.8, 187 170.15 M187 170.15 C143.57 150.6, 100.13 131.06, 0 86 M187 170.15 C134.55 146.55, 82.1 122.95, 0 86 M0 86 C57.97 59.34, 115.94 32.68, 187 0 M0 86 C68.48 54.51, 136.96 23.01, 187 0" stroke="#000000" stroke-width="1" fill="none"/></g><g stroke-linecap="round"><g transform="translate(188.30854960882363 166.7209544903493) rotate(0 -33.41548496112068 -76.24188708903212)"><path d="M0 0 C-24.47 -55.84, -48.95 -111.68, -66.83 -152.48 M0 0 C-20.89 -47.67, -41.79 -95.34, -66.83 -152.48" stroke="#c92a2a" stroke-width="0.5" fill="none"/></g><g transform="translate(188.30854960882363 166.7209544903493) rotate(0 -33.41548496112068 -76.24188708903212)"><path d="M-66.83 -152.48 L-55.57 -142.58 L-67.18 -137.49 L-66.83 -152.48" stroke="none" stroke-width="0" fill="#c92a2a" fill-rule="evenodd"/><path d="M-66.83 -152.48 C-62.71 -148.86, -58.58 -145.23, -55.57 -142.58 M-66.83 -152.48 C-63.31 -149.39, -59.79 -146.29, -55.57 -142.58 M-55.57 -142.58 C-57.91 -141.55, -60.26 -140.52, -67.18 -137.49 M-55.57 -142.58 C-58.49 -141.3, -61.41 -140.02, -67.18 -137.49 M-67.18 -137.49 C-67.06 -142.84, -66.93 -148.2, -66.83 -152.48 M-67.18 -137.49 C-67.1 -141.07, -67.01 -144.65, -66.83 -152.48 M-66.83 -152.48 C-66.83 -152.48, -66.83 -152.48, -66.83 -152.48 M-66.83 -152.48 C-66.83 -152.48, -66.83 -152.48, -66.83 -152.48" stroke="#c92a2a" stroke-width="0.5" fill="none"/></g></g><mask/><g transform="translate(164.17203251701415 29.737595441700222) rotate(0 3.647251209767404 12.872361418666074)" stroke="none"><path fill="#c92a2a" d="M 0.82,-0.22 Q 0.82,-0.22 1.41,1.11 2.01,2.46 2.79,4.78 3.57,7.09 4.42,10.28 5.28,13.47 6.00,16.41 6.72,19.36 7.15,21.91 7.59,24.46 7.60,24.56 7.61,24.67 7.59,24.77 7.57,24.88 7.52,24.97 7.47,25.06 7.39,25.13 7.31,25.20 7.21,25.24 7.11,25.28 7.01,25.29 6.90,25.30 6.80,25.28 6.70,25.25 6.61,25.19 6.52,25.13 6.45,25.05 6.38,24.97 6.35,24.87 6.31,24.77 6.31,24.66 6.31,24.56 6.34,24.46 6.37,24.35 6.43,24.27 6.49,24.18 6.58,24.12 6.67,24.06 6.77,24.03 6.87,24.00 6.98,24.00 7.08,24.00 7.18,24.04 7.28,24.08 7.37,24.14 7.45,24.21 7.50,24.30 7.56,24.39 7.59,24.49 7.61,24.60 7.60,24.70 7.59,24.81 7.55,24.91 7.51,25.00 7.44,25.08 7.37,25.16 7.27,25.21 7.18,25.26 7.08,25.28 6.97,25.30 6.87,25.29 6.76,25.27 6.67,25.23 6.57,25.18 6.50,25.10 6.42,25.03 6.38,24.93 6.33,24.84 6.33,24.84 6.33,24.84 5.26,22.43 4.19,20.02 3.36,17.11 2.53,14.19 1.72,11.06 0.90,7.93 0.21,5.53 -0.47,3.14 -0.64,1.68 -0.82,0.22 -0.83,0.12 -0.85,0.02 -0.84,-0.07 -0.83,-0.18 -0.79,-0.27 -0.76,-0.37 -0.70,-0.46 -0.65,-0.54 -0.57,-0.61 -0.50,-0.68 -0.41,-0.73 -0.32,-0.78 -0.22,-0.81 -0.12,-0.84 -0.02,-0.84 0.08,-0.84 0.18,-0.82 0.28,-0.80 0.37,-0.75 0.46,-0.71 0.54,-0.64 0.62,-0.58 0.68,-0.49 0.74,-0.41 0.78,-0.32 0.82,-0.22 0.82,-0.22 L 0.82,-0.22 Z"/></g><g transform="translate(164.81565857673712 30.220290405601105) rotate(0 9.38636085630867 10.941520110834134)" stroke="none"><path fill="#c92a2a" d="M 0.66,-0.50 Q 0.66,-0.50 1.74,0.42 2.82,1.35 4.20,3.07 5.59,4.80 7.37,6.91 9.15,9.03 11.10,11.49 13.06,13.96 14.70,16.04 16.33,18.13 17.49,19.49 18.65,20.85 18.72,20.94 18.78,21.02 18.81,21.12 18.84,21.23 18.84,21.33 18.84,21.44 18.81,21.54 18.77,21.64 18.71,21.72 18.64,21.81 18.55,21.87 18.47,21.92 18.36,21.95 18.26,21.98 18.15,21.97 18.05,21.96 17.95,21.92 17.85,21.88 17.77,21.81 17.69,21.75 17.64,21.65 17.58,21.56 17.56,21.46 17.54,21.35 17.55,21.25 17.56,21.14 17.61,21.05 17.66,20.95 17.73,20.87 17.80,20.80 17.90,20.75 17.99,20.70 18.10,20.68 18.20,20.67 18.31,20.69 18.41,20.71 18.50,20.76 18.60,20.81 18.67,20.88 18.74,20.96 18.79,21.06 18.83,21.16 18.84,21.26 18.85,21.37 18.83,21.47 18.80,21.57 18.75,21.66 18.69,21.76 18.61,21.82 18.53,21.89 18.43,21.93 18.33,21.97 18.22,21.97 18.12,21.98 18.02,21.95 17.91,21.92 17.83,21.86 17.74,21.80 17.74,21.80 17.74,21.80 16.30,20.65 14.87,19.51 12.80,17.67 10.73,15.83 8.76,13.41 6.79,11.00 4.99,8.82 3.19,6.64 1.87,4.86 0.56,3.08 -0.04,1.79 -0.66,0.50 -0.71,0.41 -0.76,0.33 -0.79,0.23 -0.82,0.14 -0.82,0.03 -0.83,-0.06 -0.81,-0.15 -0.79,-0.25 -0.75,-0.34 -0.70,-0.44 -0.64,-0.51 -0.58,-0.59 -0.50,-0.65 -0.42,-0.71 -0.33,-0.75 -0.23,-0.79 -0.13,-0.81 -0.04,-0.83 0.06,-0.82 0.16,-0.81 0.25,-0.78 0.35,-0.75 0.43,-0.70 0.52,-0.65 0.59,-0.57 0.66,-0.50 0.66,-0.50 L 0.66,-0.50 Z"/></g><g transform="translate(177.52749448428875 28.93308744793785) rotate(0 2.7890831301367314 10.67333029550386)" stroke="none"><path fill="#c92a2a" d="M 0.87,-0.21 Q 0.87,-0.21 2.05,3.76 3.22,7.74 3.98,11.02 4.74,14.30 5.30,17.12 5.86,19.94 5.87,20.05 5.88,20.15 5.86,20.25 5.84,20.36 5.78,20.45 5.73,20.54 5.65,20.61 5.57,20.68 5.47,20.72 5.37,20.76 5.26,20.77 5.16,20.77 5.06,20.75 4.95,20.72 4.86,20.66 4.78,20.60 4.71,20.52 4.65,20.43 4.61,20.33 4.58,20.23 4.58,20.13 4.58,20.02 4.61,19.92 4.64,19.82 4.71,19.73 4.77,19.65 4.86,19.59 4.94,19.53 5.05,19.50 5.15,19.47 5.25,19.47 5.36,19.48 5.46,19.52 5.56,19.56 5.64,19.62 5.72,19.69 5.78,19.78 5.83,19.87 5.86,19.98 5.88,20.08 5.87,20.19 5.86,20.29 5.81,20.39 5.77,20.48 5.70,20.56 5.63,20.64 5.53,20.69 5.44,20.74 5.33,20.76 5.23,20.78 5.12,20.76 5.02,20.74 4.92,20.70 4.83,20.65 4.76,20.57 4.68,20.49 4.64,20.40 4.59,20.30 4.59,20.30 4.59,20.30 3.57,17.58 2.54,14.86 1.63,11.61 0.72,8.35 -0.07,4.28 -0.87,0.21 -0.89,0.10 -0.90,-0.00 -0.89,-0.10 -0.87,-0.21 -0.83,-0.31 -0.79,-0.42 -0.73,-0.51 -0.67,-0.59 -0.59,-0.67 -0.51,-0.74 -0.41,-0.79 -0.31,-0.84 -0.21,-0.87 -0.10,-0.89 0.00,-0.89 0.11,-0.89 0.21,-0.87 0.32,-0.84 0.41,-0.79 0.51,-0.74 0.59,-0.67 0.67,-0.59 0.73,-0.50 0.80,-0.41 0.83,-0.31 0.87,-0.21 0.87,-0.21 L 0.87,-0.21 Z"/></g><g transform="translate(160.09566039609433 14.3980622463244) rotate(0 6.409541168307044 0.24134748195044153)" stroke="none"><path fill="#c92a2a" d="M 0.04,-0.88 Q 0.04,-0.88 1.27,-1.01 2.50,-1.14 3.75,-1.12 5.00,-1.11 6.32,-1.04 7.63,-0.97 9.98,-0.57 12.34,-0.18 12.45,-0.16 12.55,-0.14 12.64,-0.09 12.74,-0.04 12.81,0.03 12.88,0.11 12.92,0.21 12.96,0.31 12.97,0.41 12.98,0.52 12.95,0.62 12.92,0.72 12.87,0.81 12.81,0.90 12.73,0.97 12.64,1.04 12.54,1.07 12.44,1.11 12.34,1.11 12.23,1.11 12.13,1.08 12.03,1.05 11.94,0.99 11.86,0.93 11.80,0.84 11.73,0.75 11.70,0.65 11.67,0.55 11.67,0.44 11.68,0.34 11.71,0.24 11.75,0.14 11.82,0.06 11.89,-0.02 11.98,-0.07 12.06,-0.13 12.17,-0.16 12.27,-0.18 12.38,-0.17 12.48,-0.16 12.58,-0.12 12.68,-0.08 12.76,-0.01 12.84,0.05 12.89,0.15 12.94,0.24 12.96,0.34 12.98,0.45 12.96,0.55 12.95,0.66 12.90,0.75 12.85,0.85 12.78,0.92 12.70,1.00 12.61,1.04 12.51,1.09 12.41,1.11 12.30,1.12 12.30,1.12 12.30,1.12 9.91,1.33 7.52,1.55 6.23,1.50 4.95,1.46 3.66,1.42 2.37,1.39 1.16,1.13 -0.04,0.88 -0.14,0.86 -0.25,0.84 -0.35,0.80 -0.44,0.76 -0.53,0.69 -0.61,0.63 -0.68,0.54 -0.75,0.46 -0.79,0.36 -0.84,0.27 -0.86,0.16 -0.88,0.06 -0.87,-0.04 -0.87,-0.15 -0.84,-0.25 -0.80,-0.35 -0.75,-0.44 -0.70,-0.53 -0.62,-0.61 -0.55,-0.69 -0.46,-0.74 -0.37,-0.80 -0.26,-0.83 -0.16,-0.86 -0.06,-0.87 0.04,-0.88 0.04,-0.88 L 0.04,-0.88 Z"/></g><g transform="translate(171.6274906132624 10) rotate(0 2.6281766152060015 5.336659002529089)" stroke="none"><path fill="#c92a2a" d="M 0.67,-0.49 Q 0.67,-0.49 1.59,0.41 2.50,1.33 3.17,1.99 3.83,2.65 4.42,3.21 5.01,3.77 5.50,4.39 6.00,5.01 6.18,5.90 6.36,6.80 5.90,7.68 5.43,8.56 4.61,9.20 3.79,9.84 2.00,10.49 0.21,11.14 0.12,11.18 0.02,11.22 -0.08,11.23 -0.18,11.24 -0.29,11.21 -0.39,11.18 -0.48,11.12 -0.57,11.07 -0.63,10.98 -0.70,10.90 -0.74,10.80 -0.77,10.70 -0.77,10.59 -0.78,10.49 -0.74,10.39 -0.71,10.29 -0.65,10.20 -0.59,10.11 -0.50,10.05 -0.41,9.99 -0.31,9.96 -0.21,9.93 -0.10,9.93 -0.00,9.94 0.09,9.98 0.19,10.01 0.27,10.08 0.36,10.15 0.41,10.24 0.47,10.33 0.49,10.43 0.52,10.53 0.51,10.64 0.50,10.75 0.46,10.84 0.42,10.94 0.34,11.02 0.27,11.10 0.18,11.15 0.09,11.20 -0.01,11.22 -0.11,11.24 -0.22,11.22 -0.32,11.21 -0.42,11.16 -0.51,11.11 -0.59,11.04 -0.66,10.96 -0.71,10.86 -0.75,10.77 -0.77,10.66 -0.78,10.56 -0.76,10.45 -0.74,10.35 -0.69,10.26 -0.63,10.17 -0.55,10.10 -0.47,10.03 -0.47,10.03 -0.47,10.03 0.81,8.78 2.10,7.54 2.95,7.05 3.81,6.57 3.55,6.07 3.29,5.57 2.68,4.98 2.07,4.40 1.29,3.60 0.51,2.79 -0.08,1.64 -0.67,0.49 -0.72,0.40 -0.77,0.31 -0.80,0.22 -0.82,0.12 -0.83,0.02 -0.83,-0.07 -0.81,-0.17 -0.79,-0.27 -0.74,-0.36 -0.70,-0.45 -0.63,-0.53 -0.57,-0.61 -0.49,-0.67 -0.40,-0.73 -0.31,-0.76 -0.22,-0.80 -0.12,-0.82 -0.02,-0.83 0.07,-0.82 0.17,-0.81 0.27,-0.78 0.36,-0.75 0.45,-0.69 0.53,-0.64 0.60,-0.56 0.67,-0.49 0.67,-0.49 L 0.67,-0.49 Z"/></g><g transform="translate(194.53019537088505 181.57776814093282) rotate(0 12.36320512520166 -10.378335018130826)" stroke="none"><path fill="#000000" d="M -0.91,-0.16 Q -0.91,-0.16 -0.43,-4.28 0.04,-8.40 0.86,-11.21 1.68,-14.02 2.35,-15.70 3.03,-17.38 3.56,-18.30 4.09,-19.22 5.57,-19.59 7.05,-19.96 7.67,-19.34 8.29,-18.72 8.89,-17.51 9.49,-16.30 9.96,-15.29 10.43,-14.28 10.80,-13.67 11.18,-13.07 11.52,-12.74 11.86,-12.41 11.93,-12.25 12.01,-12.09 12.04,-11.91 12.07,-11.74 12.07,-11.56 12.06,-11.38 12.01,-11.21 11.95,-11.04 11.86,-10.89 11.77,-10.73 11.65,-10.60 11.53,-10.48 11.37,-10.38 11.22,-10.29 11.05,-10.23 10.88,-10.18 10.71,-10.17 10.53,-10.15 10.35,-10.18 10.18,-10.21 10.02,-10.29 9.85,-10.36 9.71,-10.46 9.57,-10.57 9.46,-10.71 9.35,-10.85 9.63,-11.94 9.92,-13.04 9.93,-13.60 9.94,-14.16 10.06,-15.15 10.18,-16.14 10.30,-17.02 10.41,-17.89 10.56,-18.68 10.71,-19.47 11.04,-20.17 11.38,-20.86 12.35,-21.29 13.33,-21.71 14.27,-21.31 15.21,-20.92 16.15,-19.89 17.09,-18.86 17.96,-17.84 18.84,-16.82 19.62,-15.85 20.40,-14.88 21.15,-14.23 21.89,-13.58 23.09,-12.97 24.28,-12.36 24.39,-12.36 24.50,-12.35 24.59,-12.30 24.69,-12.26 24.77,-12.19 24.85,-12.12 24.90,-12.03 24.95,-11.94 24.97,-11.83 24.99,-11.73 24.98,-11.62 24.97,-11.52 24.92,-11.42 24.87,-11.33 24.80,-11.25 24.72,-11.18 24.63,-11.13 24.53,-11.08 24.43,-11.07 24.32,-11.05 24.22,-11.07 24.11,-11.09 24.02,-11.14 23.93,-11.20 23.86,-11.28 23.79,-11.35 23.74,-11.45 23.70,-11.55 23.69,-11.66 23.68,-11.76 23.71,-11.86 23.73,-11.97 23.79,-12.06 23.85,-12.15 23.93,-12.21 24.01,-12.28 24.11,-12.32 24.21,-12.35 24.32,-12.36 24.43,-12.36 24.53,-12.33 24.63,-12.30 24.72,-12.24 24.80,-12.17 24.86,-12.09 24.93,-12.00 24.96,-11.90 24.99,-11.80 24.99,-11.69 24.98,-11.59 24.95,-11.49 24.91,-11.39 24.84,-11.30 24.78,-11.22 24.69,-11.16 24.60,-11.11 24.50,-11.08 24.39,-11.05 24.39,-11.05 24.39,-11.05 22.14,-11.15 19.88,-11.25 18.93,-12.09 17.98,-12.93 17.23,-13.87 16.47,-14.81 15.62,-15.82 14.78,-16.83 14.21,-17.85 13.64,-18.88 13.50,-18.19 13.37,-17.50 13.25,-16.63 13.13,-15.77 12.99,-14.69 12.85,-13.62 12.54,-12.45 12.22,-11.28 12.04,-11.84 11.86,-12.41 11.93,-12.25 12.01,-12.09 12.04,-11.91 12.07,-11.74 12.07,-11.56 12.06,-11.38 12.01,-11.21 11.95,-11.04 11.86,-10.89 11.77,-10.73 11.65,-10.61 11.53,-10.48 11.37,-10.38 11.22,-10.29 11.05,-10.24 10.88,-10.18 10.71,-10.17 10.53,-10.15 10.35,-10.18 10.18,-10.21 10.02,-10.29 9.85,-10.36 9.71,-10.46 9.57,-10.57 9.46,-10.71 9.35,-10.85 9.01,-11.17 8.68,-11.49 8.20,-12.26 7.72,-13.03 7.27,-14.02 6.81,-15.02 6.40,-15.92 5.99,-16.82 5.62,-17.40 5.24,-17.97 5.89,-17.81 6.55,-17.64 6.16,-16.95 5.76,-16.26 5.14,-14.72 4.51,-13.18 3.71,-10.53 2.91,-7.87 1.91,-3.85 0.91,0.16 0.88,0.27 0.85,0.38 0.79,0.47 0.73,0.57 0.65,0.65 0.57,0.73 0.47,0.79 0.38,0.84 0.27,0.88 0.16,0.91 0.05,0.92 -0.05,0.93 -0.16,0.91 -0.27,0.89 -0.37,0.84 -0.48,0.79 -0.56,0.72 -0.65,0.65 -0.72,0.57 -0.79,0.48 -0.84,0.38 -0.88,0.27 -0.90,0.16 -0.93,0.05 -0.92,-0.05 -0.91,-0.16 -0.91,-0.16 L -0.91,-0.16 Z"/></g><g transform="translate(230.52020915178912 172.4598306184225) rotate(0 -1.421340881888284 -1.3140698719344641)" stroke="none"><path fill="#000000" d="M -0.82,0.11 Q -0.82,0.11 -1.22,-0.97 -1.62,-2.06 -1.91,-2.76 -2.21,-3.45 -2.16,-2.88 -2.11,-2.30 -2.25,-1.39 -2.38,-0.47 -2.24,0.09 -2.10,0.66 -1.31,0.50 -0.52,0.34 -0.09,-0.26 0.34,-0.88 0.41,-0.90 0.49,-0.92 0.57,-0.93 0.65,-0.93 0.73,-0.91 0.80,-0.90 0.87,-0.86 0.95,-0.83 1.01,-0.78 1.07,-0.73 1.11,-0.66 1.16,-0.60 1.19,-0.52 1.22,-0.45 1.23,-0.37 1.24,-0.29 1.24,-0.22 1.23,-0.14 1.20,-0.06 1.18,0.00 1.14,0.07 1.09,0.14 1.03,0.19 0.98,0.24 0.91,0.28 0.84,0.32 0.75,0.34 0.66,0.37 0.56,0.36 0.45,0.36 0.35,0.32 0.25,0.28 0.17,0.21 0.09,0.14 0.04,0.05 -0.01,-0.03 -0.03,-0.13 -0.06,-0.23 -0.05,-0.34 -0.04,-0.45 0.00,-0.54 0.04,-0.64 0.11,-0.72 0.19,-0.80 0.28,-0.85 0.37,-0.90 0.48,-0.91 0.58,-0.93 0.69,-0.92 0.79,-0.90 0.89,-0.85 0.98,-0.80 1.06,-0.73 1.13,-0.65 1.17,-0.55 1.22,-0.46 1.23,-0.35 1.24,-0.25 1.22,-0.14 1.20,-0.04 1.15,0.04 1.09,0.14 1.01,0.20 0.93,0.27 0.83,0.31 0.73,0.35 0.63,0.36 0.52,0.37 0.42,0.34 0.32,0.31 0.23,0.25 0.14,0.19 0.08,0.11 0.01,0.03 -0.01,-0.06 -0.05,-0.16 -0.05,-0.27 -0.05,-0.38 -0.02,-0.48 0.01,-0.58 0.07,-0.66 0.13,-0.75 0.22,-0.81 0.31,-0.87 0.32,-0.88 0.34,-0.88 0.41,-0.90 0.49,-0.92 0.57,-0.93 0.65,-0.93 0.73,-0.91 0.80,-0.90 0.87,-0.86 0.95,-0.83 1.01,-0.78 1.07,-0.73 1.11,-0.66 1.16,-0.60 1.19,-0.52 1.22,-0.45 1.23,-0.37 1.24,-0.29 1.24,-0.22 1.23,-0.14 1.20,-0.06 1.18,0.00 1.14,0.07 1.09,0.14 1.03,0.19 0.98,0.24 0.91,0.28 0.84,0.32 0.84,1.80 0.84,3.28 -0.26,3.63 -1.36,3.98 -2.51,3.67 -3.66,3.35 -4.42,2.45 -5.18,1.54 -5.39,0.26 -5.61,-1.01 -5.29,-2.48 -4.96,-3.95 -4.11,-4.99 -3.26,-6.03 -2.15,-6.08 -1.04,-6.13 -0.22,-5.25 0.59,-4.38 0.79,-3.40 1.00,-2.43 0.91,-1.27 0.82,-0.11 0.82,-0.01 0.82,0.08 0.80,0.18 0.78,0.28 0.73,0.37 0.69,0.46 0.62,0.53 0.56,0.61 0.48,0.67 0.39,0.73 0.30,0.76 0.21,0.80 0.11,0.82 0.01,0.83 -0.08,0.82 -0.18,0.81 -0.28,0.77 -0.37,0.74 -0.45,0.68 -0.54,0.63 -0.61,0.55 -0.67,0.48 -0.72,0.39 -0.77,0.30 -0.80,0.21 -0.82,0.11 -0.82,0.11 L -0.82,0.11 Z"/></g><g stroke-linecap="round"><g transform="translate(187.45021039036658 170.74351904005252) rotate(0 26.710923934549214 -57.22833409318321)"><path d="M0 0 C19.17 -41.06, 38.33 -82.13, 53.42 -114.46 M0 0 C12.05 -25.82, 24.1 -51.64, 53.42 -114.46" stroke="#000000" stroke-width="0.5" fill="none"/></g><g transform="translate(187.45021039036658 170.74351904005252) rotate(0 26.710923934549214 -57.22833409318321)"><path d="M53.42 -114.46 L53.42 -99.46 L41.93 -104.82 L53.42 -114.46" stroke="none" stroke-width="0" fill="#000000" fill-rule="evenodd"/><path d="M53.42 -114.46 C53.42 -109.07, 53.42 -103.69, 53.42 -99.46 M53.42 -114.46 C53.42 -111.07, 53.42 -107.69, 53.42 -99.46 M53.42 -99.46 C48.99 -101.52, 44.56 -103.59, 41.93 -104.82 M53.42 -99.46 C50.94 -100.61, 48.46 -101.77, 41.93 -104.82 M41.93 -104.82 C45.69 -107.97, 49.45 -111.12, 53.42 -114.46 M41.93 -104.82 C45.19 -107.55, 48.45 -110.29, 53.42 -114.46 M53.42 -114.46 C53.42 -114.46, 53.42 -114.46, 53.42 -114.46 M53.42 -114.46 C53.42 -114.46, 53.42 -114.46, 53.42 -114.46" stroke="#000000" stroke-width="0.5" fill="none"/></g></g><mask/><g transform="translate(253.744776101056 59.022212445726126) rotate(0 10.298201312253298 -7.8038676505758815)" stroke="none"><path fill="#000000" d="M -0.81,-0.17 Q -0.81,-0.17 -0.93,-1.70 -1.05,-3.22 -0.84,-4.53 -0.64,-5.85 -0.32,-7.21 -0.01,-8.57 0.36,-9.78 0.74,-10.99 1.10,-12.05 1.46,-13.12 1.75,-13.88 2.03,-14.64 3.00,-15.51 3.96,-16.38 4.86,-16.25 5.75,-16.11 6.49,-14.98 7.23,-13.86 7.82,-12.37 8.42,-10.89 8.96,-9.87 9.50,-8.85 10.00,-8.27 10.50,-7.69 10.85,-8.37 11.20,-9.05 11.32,-10.10 11.44,-11.15 11.50,-12.17 11.56,-13.20 11.85,-14.24 12.14,-15.29 12.04,-14.97 11.94,-14.65 11.97,-14.87 12.01,-15.08 12.10,-15.28 12.18,-15.48 12.31,-15.66 12.45,-15.83 12.62,-15.97 12.79,-16.11 12.98,-16.20 13.18,-16.29 13.40,-16.33 13.61,-16.38 13.83,-16.37 14.05,-16.36 14.26,-16.30 14.46,-16.23 14.65,-16.12 14.84,-16.01 15.00,-15.86 15.16,-15.71 15.27,-15.53 15.39,-15.34 15.46,-15.13 15.52,-14.93 15.54,-14.71 15.56,-14.49 16.45,-12.80 17.34,-11.11 18.05,-9.37 18.75,-7.64 19.38,-6.11 20.01,-4.57 20.44,-2.71 20.88,-0.85 20.93,-0.76 20.98,-0.67 21.00,-0.56 21.02,-0.46 21.00,-0.35 20.99,-0.25 20.94,-0.15 20.89,-0.06 20.82,0.00 20.74,0.08 20.64,0.13 20.55,0.17 20.44,0.19 20.34,0.20 20.23,0.18 20.13,0.16 20.04,0.10 19.95,0.05 19.88,-0.02 19.80,-0.10 19.76,-0.20 19.72,-0.29 19.71,-0.40 19.71,-0.51 19.73,-0.61 19.76,-0.71 19.82,-0.80 19.88,-0.89 19.96,-0.96 20.04,-1.02 20.14,-1.06 20.24,-1.09 20.35,-1.10 20.46,-1.10 20.56,-1.07 20.66,-1.03 20.74,-0.97 20.83,-0.91 20.89,-0.82 20.95,-0.73 20.98,-0.63 21.01,-0.53 21.01,-0.42 21.01,-0.32 20.97,-0.22 20.93,-0.12 20.86,-0.04 20.80,0.04 20.71,0.09 20.62,0.15 20.51,0.17 20.41,0.20 20.30,0.19 20.20,0.18 20.10,0.14 20.00,0.09 19.92,0.02 19.85,-0.04 19.85,-0.04 19.85,-0.04 18.24,-1.61 16.63,-3.18 15.99,-4.73 15.36,-6.27 14.69,-7.92 14.02,-9.58 13.39,-10.96 12.75,-12.35 12.35,-13.50 11.94,-14.65 11.97,-14.87 12.01,-15.08 12.10,-15.28 12.18,-15.48 12.31,-15.66 12.45,-15.83 12.62,-15.97 12.79,-16.11 12.98,-16.20 13.18,-16.29 13.40,-16.33 13.61,-16.38 13.83,-16.37 14.05,-16.36 14.25,-16.30 14.46,-16.23 14.65,-16.12 14.84,-16.01 15.00,-15.86 15.16,-15.71 15.27,-15.53 15.39,-15.34 15.46,-15.13 15.52,-14.93 15.54,-14.71 15.56,-14.49 15.35,-13.73 15.15,-12.97 15.07,-11.82 14.99,-10.67 14.79,-9.28 14.58,-7.90 14.09,-6.69 13.59,-5.49 12.68,-4.82 11.77,-4.15 10.53,-4.21 9.30,-4.28 8.53,-4.85 7.77,-5.41 7.06,-6.30 6.36,-7.18 5.73,-8.38 5.11,-9.58 4.55,-10.99 3.99,-12.41 3.99,-12.94 3.99,-13.48 4.65,-13.45 5.30,-13.42 5.04,-12.71 4.77,-11.99 4.42,-10.97 4.07,-9.94 3.73,-8.85 3.38,-7.75 3.07,-6.52 2.77,-5.28 2.53,-3.89 2.28,-2.50 1.55,-1.16 0.81,0.17 0.78,0.26 0.74,0.36 0.69,0.44 0.63,0.53 0.56,0.60 0.49,0.67 0.40,0.71 0.31,0.76 0.22,0.79 0.12,0.82 0.02,0.82 -0.07,0.82 -0.17,0.80 -0.27,0.78 -0.36,0.74 -0.45,0.69 -0.52,0.63 -0.60,0.57 -0.66,0.48 -0.72,0.40 -0.76,0.31 -0.80,0.22 -0.81,0.12 -0.83,0.02 -0.82,-0.07 -0.81,-0.17 -0.81,-0.17 L -0.81,-0.17 Z"/></g><g transform="translate(280.4020891115197 54.30236175043157) rotate(0 0.24135977239612316 5.229387992575255)" stroke="none"><path fill="#000000" d="M 1.02,-0.03 Q 1.02,-0.03 1.18,2.80 1.33,5.63 1.21,7.59 1.08,9.55 1.07,9.65 1.06,9.76 1.01,9.86 0.97,9.95 0.90,10.03 0.83,10.11 0.73,10.16 0.64,10.21 0.53,10.23 0.43,10.25 0.32,10.23 0.22,10.21 0.12,10.16 0.03,10.12 -0.03,10.04 -0.11,9.96 -0.15,9.87 -0.20,9.77 -0.21,9.66 -0.22,9.56 -0.20,9.46 -0.18,9.35 -0.12,9.26 -0.07,9.17 0.00,9.10 0.08,9.03 0.18,8.99 0.28,8.95 0.38,8.94 0.49,8.94 0.59,8.96 0.70,8.99 0.78,9.05 0.87,9.11 0.94,9.19 1.00,9.28 1.04,9.38 1.07,9.48 1.07,9.58 1.07,9.69 1.04,9.79 1.01,9.89 0.94,9.98 0.88,10.06 0.79,10.12 0.70,10.18 0.60,10.21 0.50,10.24 0.39,10.24 0.29,10.23 0.19,10.19 0.09,10.15 0.01,10.09 -0.06,10.02 -0.12,9.93 -0.17,9.84 -0.20,9.73 -0.22,9.63 -0.22,9.63 -0.22,9.63 -0.59,7.67 -0.96,5.71 -0.99,2.87 -1.02,0.03 -1.01,-0.08 -1.00,-0.21 -0.96,-0.33 -0.92,-0.44 -0.85,-0.55 -0.79,-0.65 -0.70,-0.74 -0.61,-0.82 -0.50,-0.88 -0.39,-0.94 -0.27,-0.98 -0.15,-1.01 -0.03,-1.01 0.09,-1.02 0.21,-0.99 0.33,-0.97 0.44,-0.91 0.55,-0.86 0.65,-0.78 0.74,-0.70 0.81,-0.60 0.89,-0.50 0.94,-0.39 0.98,-0.27 1.00,-0.15 1.02,-0.03 1.02,-0.03 L 1.02,-0.03 Z"/></g><g transform="translate(167.49745840647432 113.03247769252275) rotate(0 20.35501827121911 -1.15315106655801)" stroke="none"><path fill="#000000" d="M -0.45,-0.70 Q -0.45,-0.70 0.49,-1.33 1.44,-1.95 2.51,-2.43 3.57,-2.91 4.71,-3.28 5.84,-3.64 7.23,-3.98 8.62,-4.32 10.09,-4.61 11.56,-4.91 13.26,-5.14 14.96,-5.36 16.87,-5.52 18.79,-5.68 20.82,-5.75 22.85,-5.82 25.02,-5.63 27.20,-5.45 29.30,-4.80 31.41,-4.15 33.23,-3.16 35.06,-2.18 36.50,-1.12 37.95,-0.06 39.21,0.87 40.47,1.80 40.55,1.87 40.63,1.94 40.68,2.03 40.73,2.13 40.75,2.23 40.77,2.34 40.76,2.44 40.74,2.55 40.70,2.64 40.65,2.74 40.57,2.81 40.50,2.89 40.40,2.93 40.31,2.98 40.20,2.99 40.10,3.01 39.99,2.99 39.89,2.97 39.80,2.91 39.70,2.86 39.63,2.78 39.56,2.70 39.52,2.61 39.48,2.51 39.47,2.40 39.46,2.30 39.49,2.19 39.51,2.09 39.57,2.00 39.63,1.91 39.71,1.85 39.80,1.78 39.89,1.74 39.99,1.71 40.10,1.70 40.21,1.70 40.31,1.73 40.41,1.76 40.50,1.83 40.58,1.89 40.64,1.98 40.71,2.06 40.74,2.16 40.77,2.27 40.76,2.37 40.76,2.48 40.72,2.58 40.69,2.68 40.62,2.76 40.55,2.84 40.46,2.90 40.37,2.96 40.27,2.98 40.17,3.01 40.06,3.00 39.96,2.99 39.86,2.95 39.76,2.90 39.76,2.90 39.76,2.90 38.35,2.12 36.94,1.33 35.57,0.35 34.21,-0.62 32.54,-1.53 30.86,-2.44 28.95,-3.06 27.03,-3.68 24.97,-3.87 22.91,-4.06 20.92,-4.00 18.93,-3.94 17.06,-3.79 15.18,-3.64 13.54,-3.43 11.91,-3.22 10.47,-2.92 9.03,-2.63 7.70,-2.31 6.37,-1.99 5.32,-1.66 4.27,-1.33 3.32,-0.92 2.37,-0.50 1.41,0.10 0.45,0.70 0.36,0.75 0.27,0.79 0.17,0.81 0.07,0.84 -0.02,0.83 -0.12,0.83 -0.22,0.80 -0.32,0.77 -0.41,0.72 -0.50,0.67 -0.57,0.60 -0.64,0.53 -0.70,0.45 -0.75,0.36 -0.79,0.27 -0.82,0.17 -0.83,0.07 -0.84,-0.02 -0.82,-0.12 -0.81,-0.22 -0.77,-0.32 -0.73,-0.41 -0.67,-0.49 -0.61,-0.57 -0.53,-0.64 -0.45,-0.70 -0.45,-0.70 L -0.45,-0.70 Z"/></g><g transform="translate(192.49202160087088 118.93230949730946) rotate(0 -4.827269190596638 5.578018774925212)" stroke="none"><path fill="#000000" d="M 0.84,-0.04 Q 0.84,-0.04 0.95,1.20 1.06,2.45 1.06,3.63 1.06,4.82 0.67,6.06 0.27,7.29 -0.54,8.38 -1.37,9.47 -2.66,10.27 -3.94,11.07 -5.46,11.40 -6.98,11.73 -8.44,11.23 -9.91,10.72 -10.83,9.75 -11.76,8.78 -12.19,7.90 -12.62,7.02 -12.62,6.16 -12.63,5.30 -12.08,4.74 -11.54,4.19 -10.43,4.09 -9.32,3.99 -8.07,4.46 -6.82,4.92 -5.62,5.68 -4.42,6.44 -3.34,7.17 -2.27,7.90 -1.32,8.45 -0.37,9.01 1.08,9.64 2.54,10.27 2.64,10.31 2.73,10.36 2.81,10.43 2.89,10.51 2.93,10.60 2.98,10.69 3.00,10.80 3.02,10.90 3.00,11.01 2.98,11.11 2.93,11.21 2.88,11.30 2.80,11.37 2.73,11.45 2.63,11.49 2.53,11.53 2.43,11.55 2.32,11.56 2.22,11.53 2.11,11.51 2.02,11.45 1.93,11.40 1.86,11.32 1.80,11.24 1.76,11.14 1.72,11.04 1.71,10.93 1.71,10.83 1.74,10.72 1.77,10.62 1.83,10.53 1.89,10.45 1.97,10.38 2.06,10.32 2.16,10.29 2.26,10.25 2.36,10.25 2.47,10.25 2.57,10.29 2.67,10.32 2.76,10.39 2.84,10.45 2.90,10.54 2.96,10.63 2.99,10.73 3.01,10.83 3.01,10.94 3.00,11.05 2.96,11.14 2.92,11.24 2.85,11.32 2.78,11.40 2.69,11.46 2.60,11.51 2.50,11.53 2.39,11.56 2.29,11.54 2.18,11.53 2.18,11.53 2.18,11.53 0.42,11.09 -1.32,10.64 -2.33,10.06 -3.34,9.47 -4.39,8.75 -5.44,8.02 -6.48,7.33 -7.53,6.64 -8.44,6.22 -9.35,5.80 -10.15,6.02 -10.95,6.25 -10.64,6.88 -10.33,7.51 -9.74,8.21 -9.14,8.91 -8.19,9.29 -7.23,9.67 -6.11,9.45 -4.98,9.23 -3.97,8.69 -2.96,8.14 -2.29,7.36 -1.62,6.58 -1.26,5.67 -0.90,4.76 -0.85,3.65 -0.81,2.54 -0.83,1.29 -0.84,0.04 -0.84,-0.06 -0.83,-0.16 -0.80,-0.25 -0.77,-0.35 -0.71,-0.44 -0.66,-0.53 -0.58,-0.60 -0.51,-0.67 -0.42,-0.72 -0.33,-0.77 -0.24,-0.80 -0.14,-0.83 -0.04,-0.84 0.06,-0.84 0.16,-0.82 0.26,-0.80 0.35,-0.76 0.44,-0.72 0.52,-0.65 0.60,-0.59 0.66,-0.51 0.73,-0.43 0.77,-0.33 0.81,-0.24 0.83,-0.14 0.84,-0.04 0.84,-0.04 L 0.84,-0.04 Z"/></g><g stroke-linecap="round"><g transform="translate(239.82132216086632 57.37681747589298) rotate(0 -43.947252749571604 14.728702825754013)"><path d="M0 0 C-24.03 8.05, -48.05 16.1, -87.89 29.46 M0 0 C-20 6.7, -40 13.41, -87.89 29.46" stroke="#364fc7" stroke-width="0.5" fill="none"/></g></g><mask/><g transform="translate(147.30680100411578 88.84684572248375) rotate(0 16.341565959787765 43.47711428274866)" stroke="none"><path fill="#364fc7" d="M 0.58,0.53 Q 0.58,0.53 0.25,0.93 -0.06,1.33 -0.58,2.04 -1.10,2.74 -1.33,3.67 -1.55,4.61 -1.62,5.28 -1.69,5.95 -1.73,6.62 -1.77,7.29 -1.71,7.83 -1.65,8.37 -1.35,9.30 -1.05,10.24 -0.81,10.75 -0.57,11.25 -0.28,11.86 0.00,12.47 0.30,13.15 0.60,13.82 0.93,14.48 1.26,15.14 1.62,15.81 1.99,16.47 2.39,17.11 2.80,17.76 3.27,18.48 3.74,19.19 4.26,20.05 4.78,20.90 5.27,21.93 5.75,22.96 6.20,23.97 6.65,24.98 7.11,25.95 7.56,26.91 7.99,27.86 8.41,28.80 8.80,29.76 9.19,30.72 9.51,31.79 9.84,32.86 10.10,33.97 10.36,35.07 10.54,36.19 10.72,37.31 10.84,38.31 10.95,39.31 11.00,40.24 11.05,41.17 11.04,42.07 11.03,42.97 10.94,43.91 10.84,44.85 10.69,45.81 10.53,46.76 10.34,47.66 10.14,48.56 9.85,49.36 9.55,50.17 9.20,50.77 8.85,51.37 8.37,51.83 7.89,52.29 6.95,52.62 6.00,52.94 5.45,52.17 4.89,51.39 5.47,50.77 6.04,50.14 6.95,50.32 7.85,50.50 8.57,51.04 9.28,51.59 9.66,51.97 10.04,52.34 10.45,52.80 10.86,53.25 11.29,53.75 11.72,54.25 12.10,54.79 12.48,55.33 12.84,55.97 13.20,56.61 13.51,57.38 13.83,58.14 14.09,58.98 14.36,59.81 14.60,60.72 14.84,61.62 15.04,62.56 15.24,63.49 15.46,64.47 15.67,65.44 15.89,66.49 16.10,67.53 16.36,68.54 16.62,69.55 16.93,70.55 17.25,71.54 17.59,72.50 17.94,73.45 18.32,74.32 18.71,75.19 19.12,76.01 19.54,76.82 20.00,77.54 20.46,78.26 20.99,78.98 21.51,79.69 22.11,80.39 22.71,81.08 23.71,81.86 24.71,82.64 25.59,83.12 26.47,83.60 27.83,84.14 29.18,84.69 30.26,85.03 31.34,85.38 33.16,85.79 34.99,86.20 35.09,86.23 35.19,86.26 35.28,86.32 35.37,86.38 35.43,86.46 35.50,86.55 35.53,86.65 35.57,86.75 35.57,86.86 35.57,86.96 35.53,87.06 35.50,87.16 35.44,87.25 35.37,87.33 35.29,87.39 35.20,87.45 35.10,87.48 34.99,87.51 34.89,87.50 34.78,87.50 34.68,87.46 34.58,87.42 34.50,87.35 34.42,87.28 34.37,87.19 34.31,87.10 34.29,87.00 34.26,86.89 34.28,86.79 34.29,86.68 34.33,86.59 34.38,86.49 34.45,86.41 34.52,86.34 34.61,86.29 34.71,86.24 34.81,86.22 34.92,86.20 35.02,86.22 35.13,86.23 35.22,86.28 35.32,86.33 35.39,86.41 35.46,86.49 35.51,86.58 35.55,86.68 35.56,86.79 35.58,86.89 35.55,87.00 35.53,87.10 35.48,87.19 35.42,87.28 35.34,87.35 35.26,87.42 35.16,87.46 35.06,87.50 34.96,87.50 34.85,87.51 34.85,87.51 34.85,87.51 32.82,87.31 30.78,87.11 29.64,86.75 28.50,86.38 27.04,85.79 25.59,85.19 24.59,84.63 23.59,84.06 22.46,83.16 21.34,82.26 20.70,81.51 20.06,80.76 19.50,79.99 18.95,79.23 18.44,78.43 17.94,77.64 17.50,76.78 17.06,75.92 16.65,74.99 16.24,74.07 15.88,73.07 15.52,72.08 15.20,71.04 14.88,70.00 14.60,68.95 14.33,67.89 14.13,66.86 13.92,65.82 13.71,64.84 13.49,63.86 13.31,62.96 13.12,62.06 12.91,61.20 12.69,60.34 12.45,59.57 12.21,58.79 11.95,58.12 11.69,57.46 11.37,56.89 11.06,56.33 10.73,55.85 10.40,55.38 9.98,54.89 9.57,54.40 8.85,53.64 8.13,52.87 7.63,52.46 7.13,52.06 6.69,51.70 6.25,51.35 6.82,50.92 7.40,50.48 7.68,50.03 7.95,49.57 8.21,48.88 8.47,48.19 8.65,47.34 8.84,46.49 8.98,45.59 9.13,44.68 9.22,43.82 9.31,42.95 9.32,42.11 9.33,41.27 9.28,40.39 9.23,39.51 9.12,38.55 9.00,37.59 8.83,36.53 8.65,35.47 8.41,34.42 8.16,33.37 7.86,32.38 7.56,31.38 7.19,30.45 6.81,29.52 6.40,28.59 5.98,27.66 5.52,26.67 5.06,25.69 4.62,24.69 4.18,23.69 3.74,22.74 3.30,21.80 2.80,20.97 2.30,20.14 1.82,19.41 1.34,18.68 0.91,17.98 0.48,17.29 0.11,16.60 -0.26,15.91 -0.61,15.22 -0.97,14.52 -1.25,13.86 -1.54,13.20 -1.83,12.59 -2.12,11.97 -2.39,11.40 -2.65,10.82 -2.85,10.26 -3.05,9.70 -3.19,9.12 -3.33,8.54 -3.39,7.87 -3.46,7.20 -3.42,6.48 -3.38,5.77 -3.29,5.03 -3.21,4.29 -3.07,3.62 -2.94,2.95 -2.73,2.38 -2.51,1.82 -1.92,1.00 -1.32,0.18 -0.95,-0.17 -0.58,-0.53 -0.51,-0.59 -0.44,-0.66 -0.35,-0.70 -0.27,-0.74 -0.17,-0.77 -0.08,-0.79 0.01,-0.79 0.10,-0.78 0.20,-0.76 0.29,-0.74 0.37,-0.69 0.46,-0.64 0.53,-0.58 0.60,-0.51 0.65,-0.43 0.71,-0.35 0.74,-0.26 0.77,-0.17 0.78,-0.08 0.79,0.01 0.78,0.10 0.77,0.20 0.73,0.29 0.69,0.38 0.64,0.45 0.58,0.53 0.58,0.53 L 0.58,0.53 Z"/></g><g transform="translate(140.71985748307685 140.42017656214975) rotate(0 0.8462408549652807 -0.6518377839860818)" stroke="none"><path fill="#364fc7" d="M -0.09,0.78 Q -0.09,0.78 -0.73,0.72 -1.37,0.67 -1.86,1.14 -2.35,1.61 -2.40,2.77 -2.46,3.92 -2.29,4.42 -2.13,4.93 -1.51,4.54 -0.89,4.16 -0.73,3.48 -0.56,2.81 -0.45,1.73 -0.35,0.65 -0.30,-0.57 -0.24,-1.79 -0.23,-2.85 -0.21,-3.91 -0.23,-4.64 -0.24,-5.36 -0.24,-6.17 -0.24,-6.98 0.46,-7.08 1.18,-7.18 1.11,-6.35 1.03,-5.52 1.13,-4.66 1.23,-3.80 1.44,-2.83 1.65,-1.87 1.95,-0.86 2.26,0.14 2.68,0.97 3.10,1.80 4.23,3.00 5.35,4.21 5.42,4.29 5.49,4.37 5.53,4.47 5.57,4.57 5.58,4.67 5.59,4.78 5.56,4.88 5.53,4.98 5.48,5.07 5.42,5.16 5.33,5.23 5.25,5.29 5.15,5.33 5.05,5.36 4.94,5.36 4.84,5.36 4.74,5.33 4.63,5.30 4.55,5.24 4.46,5.17 4.40,5.09 4.34,5.00 4.31,4.90 4.28,4.79 4.29,4.69 4.29,4.58 4.33,4.48 4.37,4.38 4.43,4.30 4.50,4.22 4.59,4.16 4.68,4.11 4.79,4.08 4.89,4.06 5.00,4.07 5.10,4.08 5.20,4.12 5.30,4.17 5.37,4.24 5.45,4.31 5.50,4.40 5.55,4.50 5.57,4.60 5.59,4.71 5.58,4.81 5.56,4.92 5.51,5.01 5.46,5.11 5.39,5.18 5.31,5.25 5.21,5.30 5.12,5.35 5.01,5.36 4.91,5.37 4.80,5.35 4.70,5.33 4.61,5.27 4.52,5.22 4.52,5.22 4.52,5.22 3.08,3.88 1.64,2.54 1.16,1.58 0.69,0.62 0.35,-0.44 0.02,-1.52 -0.19,-2.57 -0.42,-3.62 -0.52,-4.60 -0.61,-5.57 -0.50,-6.60 -0.38,-7.62 0.59,-7.34 1.56,-7.06 1.60,-6.22 1.65,-5.39 1.66,-4.64 1.68,-3.88 1.66,-2.80 1.65,-1.71 1.59,-0.43 1.54,0.85 1.40,2.08 1.27,3.32 0.98,4.25 0.69,5.19 0.17,5.82 -0.35,6.44 -0.98,6.62 -1.61,6.81 -2.19,6.65 -2.78,6.49 -3.23,6.01 -3.68,5.52 -3.92,4.75 -4.16,3.97 -4.17,3.11 -4.18,2.24 -3.97,1.44 -3.75,0.65 -3.23,0.04 -2.70,-0.56 -1.98,-0.77 -1.25,-0.98 -0.57,-0.88 0.09,-0.78 0.18,-0.76 0.27,-0.73 0.36,-0.69 0.44,-0.65 0.51,-0.58 0.59,-0.52 0.64,-0.44 0.69,-0.36 0.73,-0.27 0.76,-0.19 0.77,-0.09 0.79,-0.00 0.77,0.09 0.76,0.18 0.73,0.27 0.70,0.36 0.64,0.44 0.59,0.52 0.52,0.58 0.45,0.65 0.36,0.69 0.28,0.73 0.18,0.76 0.09,0.78 0.00,0.78 -0.09,0.78 -0.09,0.78 L -0.09,0.78 Z"/></g></svg>