<svg version="1.1" xmlns="http://www.w3.org/2000/svg" viewBox="0 0 357.7629824366403 389.455417687367" width="357.7629824366403" height="389.455417687367" filter="invert(93%) hue-rotate(180deg)">
  <!-- svg-source:excalidraw -->
  
  <defs>
    <style class="style-fonts">
      @font-face {
        font-family: "Virgil";
        src: url("https://excalidraw.com/Virgil.woff2");
      }
      @font-face {
        font-family: "Cascadia";
        src: url("https://excalidraw.com/Cascadia.woff2");
      }
    </style>
  </defs>
  <rect x="0" y="0" width="357.7629824366403" height="389.455417687367" fill="transparent"/><g stroke-linecap="round"><g transform="translate(86.39465527927473 252.38884496523593) rotate(0 117.29908752441406 0)"><path d="M0 0 C39.1 0, 195.5 0, 234.6 0 M0 0 C39.1 0, 195.5 0, 234.6 0" stroke="#000000" stroke-width="1" fill="none"/></g><g transform="translate(86.39465527927473 252.38884496523593) rotate(0 117.29908752441406 0)"><path d="M234.6 0 L221 6.34 L221 -6.34 L234.6 0" stroke="none" stroke-width="0" fill="#000000" fill-rule="evenodd"/><path d="M234.6 0 C229.43 2.41, 224.26 4.82, 221 6.34 M234.6 0 C230.2 2.05, 225.79 4.11, 221 6.34 M221 6.34 C221 3.58, 221 0.82, 221 -6.34 M221 6.34 C221 1.8, 221 -2.73, 221 -6.34 M221 -6.34 C225.15 -4.4, 229.31 -2.47, 234.6 0 M221 -6.34 C225.1 -4.43, 229.2 -2.52, 234.6 0 M234.6 0 C234.6 0, 234.6 0, 234.6 0 M234.6 0 C234.6 0, 234.6 0, 234.6 0" stroke="#000000" stroke-width="1" fill="none"/></g></g><mask/><g stroke-linecap="round"><g transform="translate(83.93069653904035 253.65401220156406) rotate(0 7.105427357601002e-15 -104.34416198730467)"><path d="M0 0 C0 -34.78, 0 -173.91, 0 -208.69 M0 0 C0 -34.78, 0 -173.91, 0 -208.69" stroke="#000000" stroke-width="1" fill="none"/></g><g transform="translate(83.93069653904035 253.65401220156406) rotate(0 7.105427357601002e-15 -104.34416198730467)"><path d="M0 -208.69 L6.34 -195.09 L-6.34 -195.09 L0 -208.69" stroke="none" stroke-width="0" fill="#000000" fill-rule="evenodd"/><path d="M0 -208.69 C1.54 -205.38, 3.09 -202.07, 6.34 -195.09 M0 -208.69 C1.58 -205.3, 3.16 -201.91, 6.34 -195.09 M6.34 -195.09 C1.48 -195.09, -3.39 -195.09, -6.34 -195.09 M6.34 -195.09 C1.9 -195.09, -2.54 -195.09, -6.34 -195.09 M-6.34 -195.09 C-4.02 -200.08, -1.69 -205.06, 0 -208.69 M-6.34 -195.09 C-4.15 -199.78, -1.97 -204.47, 0 -208.69 M0 -208.69 C0 -208.69, 0 -208.69, 0 -208.69 M0 -208.69 C0 -208.69, 0 -208.69, 0 -208.69" stroke="#000000" stroke-width="1" fill="none"/></g></g><mask/><g stroke-linecap="round"><g transform="translate(83.4493408203125 253.28420712909724) rotate(0 -36.72467041015625 49.17559814453125)"><path d="M0 0 C-12.24 16.39, -61.21 81.96, -73.45 98.35 M0 0 C-12.24 16.39, -61.21 81.96, -73.45 98.35" stroke="#000000" stroke-width="1" fill="none"/></g><g transform="translate(83.4493408203125 253.28420712909724) rotate(0 -36.72467041015625 49.17559814453125)"><path d="M-73.45 98.35 L-70.39 83.67 L-60.24 91.25 L-73.45 98.35" stroke="none" stroke-width="0" fill="#000000" fill-rule="evenodd"/><path d="M-73.45 98.35 C-72.67 94.63, -71.9 90.9, -70.39 83.67 M-73.45 98.35 C-72.82 95.34, -72.2 92.32, -70.39 83.67 M-70.39 83.67 C-67.48 85.84, -64.57 88.01, -60.24 91.25 M-70.39 83.67 C-68 85.45, -65.61 87.24, -60.24 91.25 M-60.24 91.25 C-63.77 93.15, -67.3 95.05, -73.45 98.35 M-60.24 91.25 C-63.84 93.19, -67.44 95.12, -73.45 98.35 M-73.45 98.35 C-73.45 98.35, -73.45 98.35, -73.45 98.35 M-73.45 98.35 C-73.45 98.35, -73.45 98.35, -73.45 98.35" stroke="#000000" stroke-width="1" fill="none"/></g></g><mask/><g transform="translate(45.75144828153384 15.115240448039458) rotate(0 5.865623249078652 5.729035856295809)" stroke="none"><path fill="#000000" d="M -0.32,0.72 Q -0.32,0.72 -1.32,0.35 -2.33,-0.02 -2.97,-0.26 -3.61,-0.50 -4.58,-0.75 -5.56,-0.99 -5.89,-1.50 -6.23,-2.01 -6.30,-2.69 -6.37,-3.37 -5.87,-4.23 -5.37,-5.09 -4.04,-5.64 -2.71,-6.18 -1.03,-6.35 0.63,-6.53 2.68,-6.23 4.74,-5.93 6.62,-5.28 8.50,-4.63 9.93,-3.79 11.37,-2.95 12.34,-1.88 13.31,-0.80 13.38,0.69 13.45,2.20 12.35,3.61 11.24,5.02 9.34,6.13 7.44,7.24 5.40,8.11 3.35,8.98 1.74,9.89 0.12,10.79 -0.77,11.53 -1.68,12.26 -2.10,11.74 -2.51,11.21 -1.93,11.57 -1.34,11.92 -0.01,12.19 1.30,12.45 3.48,12.80 5.67,13.16 7.79,13.39 9.92,13.62 11.60,13.96 13.27,14.29 15.01,15.07 16.74,15.85 16.84,15.90 16.94,15.94 17.02,16.01 17.10,16.08 17.15,16.17 17.20,16.26 17.23,16.36 17.25,16.47 17.23,16.57 17.22,16.68 17.18,16.77 17.13,16.87 17.06,16.95 16.98,17.02 16.89,17.07 16.79,17.12 16.69,17.13 16.58,17.15 16.48,17.13 16.37,17.11 16.28,17.06 16.19,17.01 16.11,16.93 16.04,16.85 16.00,16.76 15.96,16.66 15.95,16.55 15.94,16.45 15.96,16.35 15.98,16.24 16.04,16.15 16.10,16.06 16.18,15.99 16.26,15.93 16.36,15.89 16.46,15.85 16.57,15.85 16.67,15.84 16.77,15.87 16.88,15.90 16.96,15.96 17.05,16.02 17.11,16.11 17.18,16.19 17.21,16.30 17.24,16.40 17.24,16.50 17.24,16.61 17.20,16.71 17.17,16.81 17.10,16.89 17.04,16.98 16.95,17.04 16.86,17.09 16.76,17.12 16.65,17.15 16.55,17.14 16.44,17.13 16.44,17.13 16.44,17.13 14.63,17.20 12.81,17.27 11.19,17.09 9.57,16.91 7.35,16.68 5.13,16.44 2.81,16.06 0.50,15.68 -1.37,15.15 -3.25,14.61 -3.93,14.01 -4.62,13.40 -4.23,11.54 -3.85,9.68 -2.68,8.76 -1.52,7.83 0.24,6.84 2.02,5.86 3.90,5.06 5.78,4.26 7.29,3.47 8.79,2.68 9.69,1.71 10.60,0.74 10.12,0.29 9.65,-0.14 8.51,-0.84 7.38,-1.55 5.80,-2.13 4.21,-2.71 2.55,-3.01 0.88,-3.32 -0.47,-3.23 -1.83,-3.15 -2.56,-3.09 -3.29,-3.03 -3.72,-2.71 -4.15,-2.39 -3.60,-2.32 -3.06,-2.26 -2.32,-1.98 -1.59,-1.70 -0.63,-1.21 0.32,-0.72 0.40,-0.68 0.48,-0.63 0.55,-0.56 0.62,-0.49 0.67,-0.41 0.72,-0.33 0.75,-0.24 0.78,-0.15 0.78,-0.05 0.79,0.04 0.77,0.13 0.76,0.23 0.72,0.31 0.68,0.40 0.62,0.48 0.56,0.55 0.49,0.61 0.41,0.67 0.33,0.71 0.24,0.75 0.14,0.77 0.05,0.79 -0.04,0.79 -0.13,0.78 -0.22,0.75 -0.32,0.72 -0.32,0.72 L -0.32,0.72 Z"/></g><g transform="translate(334.73586314713555 256.3490653835848) rotate(0 6.513559644752377 12.037804277141788)" stroke="none"><path fill="#000000" d="M 0.79,-0.05 Q 0.79,-0.05 1.29,2.78 1.78,5.63 2.67,6.95 3.56,8.27 4.44,8.67 5.31,9.08 6.29,8.64 7.27,8.20 8.17,7.10 9.08,6.00 9.64,4.86 10.20,3.71 10.23,3.18 10.26,2.64 10.88,2.21 11.51,1.78 11.79,3.10 12.08,4.42 12.61,6.09 13.14,7.76 13.59,9.99 14.04,12.22 14.25,14.41 14.46,16.60 14.22,18.57 13.98,20.54 13.01,22.08 12.04,23.62 10.27,24.09 8.50,24.56 6.45,22.58 4.40,20.60 4.38,20.50 4.36,20.39 4.38,20.29 4.39,20.18 4.44,20.09 4.49,19.99 4.57,19.92 4.64,19.84 4.74,19.80 4.83,19.75 4.94,19.74 5.04,19.72 5.15,19.74 5.25,19.77 5.34,19.82 5.44,19.87 5.51,19.95 5.58,20.03 5.62,20.13 5.66,20.23 5.67,20.33 5.67,20.44 5.65,20.54 5.62,20.64 5.56,20.73 5.51,20.82 5.42,20.89 5.34,20.95 5.24,20.99 5.14,21.03 5.03,21.03 4.93,21.03 4.83,21.00 4.72,20.97 4.64,20.90 4.55,20.84 4.49,20.75 4.43,20.67 4.40,20.57 4.37,20.46 4.37,20.36 4.38,20.25 4.41,20.15 4.45,20.05 4.52,19.97 4.59,19.89 4.68,19.83 4.77,19.78 4.87,19.75 4.97,19.73 5.08,19.73 5.18,19.74 5.28,19.79 5.38,19.83 5.46,19.90 5.54,19.97 5.59,20.07 5.64,20.16 5.64,20.16 5.64,20.16 6.94,20.71 8.25,21.26 9.05,21.26 9.86,21.27 10.22,20.61 10.59,19.95 10.84,18.40 11.08,16.86 10.95,14.83 10.83,12.81 10.47,10.76 10.12,8.70 9.60,7.02 9.09,5.34 8.72,3.83 8.35,2.31 8.53,1.64 8.72,0.96 10.27,0.66 11.82,0.36 12.46,1.33 13.11,2.30 12.99,3.64 12.87,4.98 12.06,6.49 11.26,8.00 9.78,9.46 8.30,10.92 6.44,11.33 4.58,11.74 2.92,10.82 1.27,9.91 0.17,7.94 -0.92,5.97 -0.86,3.01 -0.79,0.05 -0.79,-0.03 -0.78,-0.13 -0.76,-0.22 -0.73,-0.31 -0.68,-0.40 -0.63,-0.48 -0.56,-0.55 -0.50,-0.62 -0.41,-0.67 -0.33,-0.72 -0.24,-0.75 -0.15,-0.78 -0.05,-0.79 0.03,-0.79 0.13,-0.78 0.22,-0.76 0.31,-0.72 0.40,-0.68 0.48,-0.63 0.55,-0.57 0.61,-0.49 0.67,-0.42 0.71,-0.33 0.75,-0.24 0.77,-0.15 0.79,-0.05 0.79,-0.05 L 0.79,-0.05 Z"/></g><g transform="translate(11.717205173646846 364.7917190257419) rotate(0 5.7633018736510735 7.33184933081256)" stroke="none"><path fill="#000000" d="M 0.82,-0.41 Q 0.82,-0.41 1.96,1.22 3.10,2.85 4.27,4.83 5.44,6.80 6.64,8.55 7.85,10.30 9.68,12.07 11.51,13.85 11.58,13.92 11.66,14.00 11.71,14.09 11.76,14.19 11.77,14.29 11.79,14.40 11.77,14.50 11.75,14.61 11.70,14.70 11.65,14.79 11.57,14.86 11.49,14.94 11.40,14.98 11.30,15.02 11.20,15.03 11.09,15.04 10.99,15.02 10.88,15.00 10.79,14.94 10.70,14.88 10.63,14.80 10.57,14.72 10.53,14.62 10.49,14.52 10.48,14.42 10.48,14.31 10.51,14.21 10.54,14.11 10.60,14.02 10.66,13.93 10.75,13.87 10.83,13.80 10.93,13.77 11.03,13.74 11.14,13.74 11.25,13.74 11.35,13.78 11.45,13.81 11.53,13.88 11.61,13.94 11.67,14.03 11.73,14.12 11.76,14.22 11.79,14.32 11.78,14.43 11.77,14.54 11.73,14.64 11.69,14.73 11.62,14.81 11.55,14.89 11.46,14.95 11.37,15.00 11.26,15.02 11.16,15.04 11.05,15.03 10.95,15.02 10.85,14.97 10.76,14.93 10.76,14.93 10.76,14.93 8.18,13.45 5.61,11.98 4.20,10.16 2.79,8.35 1.61,6.27 0.42,4.19 -0.20,2.30 -0.82,0.41 -0.86,0.30 -0.90,0.20 -0.91,0.09 -0.92,-0.01 -0.90,-0.12 -0.89,-0.23 -0.85,-0.34 -0.81,-0.44 -0.74,-0.53 -0.68,-0.62 -0.59,-0.69 -0.51,-0.77 -0.41,-0.82 -0.31,-0.87 -0.20,-0.89 -0.09,-0.92 0.01,-0.91 0.12,-0.91 0.23,-0.88 0.34,-0.85 0.44,-0.80 0.54,-0.75 0.62,-0.67 0.70,-0.59 0.76,-0.50 0.82,-0.41 0.82,-0.41 L 0.82,-0.41 Z"/></g><g transform="translate(26.85864322798153 361.3815899845334) rotate(0 -8.2186710515833 7.706939144507629)" stroke="none"><path fill="#000000" d="M 0.74,0.68 Q 0.74,0.68 -1.68,3.76 -4.11,6.85 -6.59,9.19 -9.07,11.54 -11.98,13.28 -14.89,15.03 -14.98,15.08 -15.07,15.13 -15.18,15.15 -15.28,15.17 -15.39,15.15 -15.49,15.14 -15.59,15.09 -15.68,15.04 -15.76,14.97 -15.83,14.89 -15.88,14.79 -15.92,14.70 -15.94,14.59 -15.95,14.49 -15.93,14.38 -15.91,14.28 -15.85,14.19 -15.80,14.10 -15.72,14.03 -15.64,13.96 -15.54,13.91 -15.45,13.87 -15.34,13.87 -15.23,13.86 -15.13,13.89 -15.03,13.91 -14.94,13.97 -14.85,14.03 -14.78,14.11 -14.72,14.20 -14.68,14.30 -14.65,14.40 -14.65,14.50 -14.64,14.61 -14.68,14.71 -14.71,14.81 -14.77,14.90 -14.83,14.98 -14.92,15.04 -15.01,15.10 -15.11,15.13 -15.21,15.16 -15.32,15.16 -15.42,15.16 -15.52,15.12 -15.62,15.08 -15.70,15.01 -15.79,14.95 -15.84,14.86 -15.90,14.77 -15.92,14.66 -15.95,14.56 -15.94,14.45 -15.93,14.35 -15.89,14.25 -15.84,14.15 -15.77,14.07 -15.70,14.00 -15.70,14.00 -15.70,14.00 -13.44,11.67 -11.19,9.35 -8.83,7.01 -6.47,4.67 -3.61,1.99 -0.74,-0.68 -0.65,-0.76 -0.55,-0.84 -0.44,-0.89 -0.34,-0.94 -0.22,-0.97 -0.10,-1.00 0.01,-1.00 0.13,-0.99 0.25,-0.96 0.37,-0.93 0.48,-0.87 0.58,-0.82 0.67,-0.73 0.76,-0.65 0.83,-0.55 0.90,-0.45 0.94,-0.33 0.98,-0.22 0.99,-0.10 1.00,0.01 0.99,0.13 0.97,0.25 0.93,0.37 0.88,0.48 0.81,0.58 0.74,0.68 0.74,0.68 L 0.74,0.68 Z"/></g><g stroke-linecap="round"><g transform="translate(83.62474915007886 252.38327180120552) rotate(0 34.49098759258652 0)"><path d="M0 0 C11.5 0, 57.48 0, 68.98 0 M0 0 C11.5 0, 57.48 0, 68.98 0" stroke="#c92a2a" stroke-width="4" fill="none"/></g><g transform="translate(83.62474915007886 252.38327180120552) rotate(0 34.49098759258652 0)"><path d="M68.98 0 L55.39 6.34 L55.39 -6.34 L68.98 0" stroke="none" stroke-width="0" fill="#c92a2a" fill-rule="evenodd"/><path d="M68.98 0 C64.28 2.19, 59.57 4.39, 55.39 6.34 M68.98 0 C64.76 1.97, 60.53 3.94, 55.39 6.34 M55.39 6.34 C55.39 3.31, 55.39 0.29, 55.39 -6.34 M55.39 6.34 C55.39 1.87, 55.39 -2.59, 55.39 -6.34 M55.39 -6.34 C60.4 -4, 65.41 -1.67, 68.98 0 M55.39 -6.34 C59.12 -4.6, 62.86 -2.86, 68.98 0 M68.98 0 C68.98 0, 68.98 0, 68.98 0 M68.98 0 C68.98 0, 68.98 0, 68.98 0" stroke="#c92a2a" stroke-width="4" fill="none"/></g></g><mask/><g stroke-linecap="round"><g transform="translate(84.68242411996181 252.36045620972575) rotate(0 -11.120366395469603 14.738855517188426)"><path d="M0 0 C-3.71 4.91, -18.53 24.56, -22.24 29.48 M0 0 C-3.71 4.91, -18.53 24.56, -22.24 29.48" stroke="#c92a2a" stroke-width="4" fill="none"/></g><g transform="translate(84.68242411996181 252.36045620972575) rotate(0 -11.120366395469603 14.738855517188426)"><path d="M-22.24 29.48 L-19.11 14.81 L-8.99 22.44 L-22.24 29.48" stroke="none" stroke-width="0" fill="#c92a2a" fill-rule="evenodd"/><path d="M-22.24 29.48 C-21.05 23.91, -19.86 18.33, -19.11 14.81 M-22.24 29.48 C-21.5 26, -20.76 22.51, -19.11 14.81 M-19.11 14.81 C-16.95 16.44, -14.78 18.08, -8.99 22.44 M-19.11 14.81 C-15.8 17.31, -12.48 19.81, -8.99 22.44 M-8.99 22.44 C-13.8 24.99, -18.6 27.54, -22.24 29.48 M-8.99 22.44 C-13.25 24.7, -17.51 26.96, -22.24 29.48 M-22.24 29.48 C-22.24 29.48, -22.24 29.48, -22.24 29.48 M-22.24 29.48 C-22.24 29.48, -22.24 29.48, -22.24 29.48" stroke="#c92a2a" stroke-width="4" fill="none"/></g></g><mask/><g stroke-linecap="round"><g transform="translate(84.41725050056849 252.79359662908607) rotate(0 -0.24527818802931733 -33.988581346160295)"><path d="M0 0 C-0.08 -11.33, -0.41 -56.65, -0.49 -67.98 M0 0 C-0.08 -11.33, -0.41 -56.65, -0.49 -67.98" stroke="#c92a2a" stroke-width="4" fill="none"/></g><g transform="translate(84.41725050056849 252.79359662908607) rotate(0 -0.24527818802931733 -33.988581346160295)"><path d="M-0.49 -67.98 L5.95 -54.43 L-6.73 -54.34 L-0.49 -67.98" stroke="none" stroke-width="0" fill="#c92a2a" fill-rule="evenodd"/><path d="M-0.49 -67.98 C1.35 -64.1, 3.19 -60.23, 5.95 -54.43 M-0.49 -67.98 C1.68 -63.41, 3.85 -58.83, 5.95 -54.43 M5.95 -54.43 C2.34 -54.4, -1.27 -54.38, -6.73 -54.34 M5.95 -54.43 C1.38 -54.4, -3.19 -54.36, -6.73 -54.34 M-6.73 -54.34 C-4.62 -58.95, -2.51 -63.57, -0.49 -67.98 M-6.73 -54.34 C-4.45 -59.32, -2.17 -64.31, -0.49 -67.98 M-0.49 -67.98 C-0.49 -67.98, -0.49 -67.98, -0.49 -67.98 M-0.49 -67.98 C-0.49 -67.98, -0.49 -67.98, -0.49 -67.98" stroke="#c92a2a" stroke-width="4" fill="none"/></g></g><mask/><g transform="translate(80.36331908611001 292.57836855117375) rotate(0 0.8036372127823199 3.963067086533343)" stroke="none"><path fill="#c92a2a" d="M 0.76,0.19 Q 0.76,0.19 0.60,1.68 0.45,3.18 0.37,4.03 0.30,4.87 0.78,5.60 1.25,6.32 2.24,6.04 3.22,5.77 3.26,5.84 3.30,5.91 3.32,5.98 3.34,6.06 3.34,6.14 3.34,6.22 3.33,6.30 3.31,6.37 3.28,6.44 3.24,6.51 3.19,6.58 3.14,6.64 3.08,6.68 3.01,6.73 2.94,6.76 2.87,6.79 2.79,6.80 2.71,6.81 2.63,6.81 2.55,6.80 2.48,6.77 2.40,6.75 2.34,6.70 2.27,6.66 2.21,6.60 2.16,6.55 2.22,6.10 2.27,5.65 2.36,5.60 2.45,5.54 2.56,5.52 2.66,5.50 2.77,5.51 2.87,5.53 2.97,5.57 3.07,5.62 3.14,5.69 3.22,5.77 3.27,5.86 3.31,5.96 3.33,6.06 3.35,6.17 3.33,6.27 3.31,6.37 3.26,6.47 3.21,6.56 3.13,6.63 3.05,6.71 2.95,6.75 2.86,6.79 2.75,6.80 2.65,6.81 2.54,6.79 2.44,6.76 2.35,6.71 2.26,6.65 2.19,6.57 2.12,6.49 2.09,6.39 2.05,6.29 2.04,6.18 2.04,6.08 2.07,5.98 2.10,5.87 2.16,5.79 2.22,5.70 2.30,5.64 2.39,5.57 2.49,5.54 2.59,5.51 2.70,5.51 2.80,5.51 2.90,5.55 3.01,5.58 3.09,5.65 3.17,5.71 3.23,5.80 3.29,5.89 3.32,5.99 3.34,6.09 3.34,6.20 3.33,6.31 3.29,6.40 3.25,6.50 3.23,6.14 3.22,5.77 3.26,5.84 3.30,5.91 3.32,5.98 3.34,6.06 3.34,6.14 3.34,6.22 3.33,6.30 3.31,6.37 3.28,6.44 3.24,6.51 3.19,6.58 3.14,6.64 3.08,6.68 3.01,6.73 2.94,6.76 2.87,6.79 2.79,6.80 2.71,6.81 2.63,6.81 2.55,6.80 2.48,6.77 2.40,6.75 2.34,6.70 2.27,6.66 2.21,6.60 2.16,6.55 0.72,7.21 -0.70,7.87 -1.17,7.21 -1.63,6.54 -1.88,5.64 -2.14,4.74 -2.03,3.66 -1.92,2.58 -1.34,1.19 -0.76,-0.19 -0.72,-0.28 -0.69,-0.37 -0.63,-0.44 -0.58,-0.52 -0.51,-0.58 -0.44,-0.64 -0.35,-0.69 -0.27,-0.73 -0.18,-0.75 -0.08,-0.78 0.00,-0.77 0.10,-0.77 0.19,-0.75 0.28,-0.73 0.36,-0.68 0.45,-0.64 0.52,-0.57 0.59,-0.51 0.64,-0.43 0.69,-0.35 0.73,-0.27 0.76,-0.18 0.77,-0.08 0.78,0.00 0.77,0.09 0.76,0.19 0.76,0.19 L 0.76,0.19 Z"/></g><g transform="translate(80.75964093040932 288.1529478422243) rotate(0 0.11008659829684575 0.0440346393187383)" stroke="none"><path fill="#c92a2a" d="M 0.76,-0.23 Q 0.76,-0.23 0.77,-0.04 0.78,0.14 0.70,0.31 0.62,0.49 0.47,0.60 0.32,0.72 0.13,0.76 -0.04,0.79 -0.23,0.73 -0.41,0.68 -0.54,0.54 -0.68,0.41 -0.73,0.23 -0.79,0.04 -0.76,-0.13 -0.72,-0.32 -0.60,-0.47 -0.49,-0.62 -0.31,-0.70 -0.14,-0.78 0.04,-0.77 0.23,-0.76 0.40,-0.66 0.56,-0.56 0.66,-0.40 L 0.76,-0.23 Z"/></g><g transform="translate(76.26801690602213 287.53646289176197) rotate(0 3.974186741100084 -2.730117366469912)" stroke="none"><path fill="#c92a2a" d="M -0.68,-0.46 Q -0.68,-0.46 -0.08,-1.47 0.51,-2.48 0.99,-3.30 1.47,-4.13 1.91,-4.67 2.34,-5.22 3.28,-5.68 4.21,-6.15 4.77,-5.90 5.32,-5.65 5.74,-5.13 6.15,-4.61 7.18,-3.01 8.20,-1.42 8.26,-1.33 8.32,-1.24 8.35,-1.14 8.39,-1.04 8.38,-0.93 8.38,-0.83 8.34,-0.73 8.30,-0.63 8.23,-0.55 8.17,-0.46 8.08,-0.41 7.99,-0.35 7.88,-0.33 7.78,-0.30 7.67,-0.31 7.57,-0.32 7.47,-0.36 7.37,-0.41 7.30,-0.48 7.22,-0.55 7.17,-0.64 7.11,-0.74 7.10,-0.84 7.08,-0.95 7.09,-1.05 7.11,-1.16 7.16,-1.25 7.20,-1.35 7.28,-1.42 7.36,-1.49 7.45,-1.54 7.55,-1.59 7.65,-1.60 7.76,-1.61 7.86,-1.59 7.97,-1.57 8.06,-1.52 8.15,-1.47 8.22,-1.39 8.29,-1.31 8.33,-1.21 8.37,-1.11 8.38,-1.00 8.39,-0.90 8.36,-0.79 8.33,-0.69 8.28,-0.60 8.22,-0.51 8.13,-0.45 8.05,-0.38 7.95,-0.35 7.85,-0.31 7.74,-0.31 7.64,-0.31 7.54,-0.34 7.44,-0.37 7.35,-0.44 7.26,-0.50 7.26,-0.50 7.26,-0.50 5.59,-2.22 3.91,-3.94 3.55,-3.51 3.18,-3.08 2.65,-2.23 2.12,-1.38 1.40,-0.46 0.68,0.46 0.61,0.53 0.55,0.61 0.47,0.67 0.38,0.72 0.29,0.76 0.20,0.80 0.10,0.81 0.00,0.82 -0.09,0.81 -0.19,0.80 -0.28,0.76 -0.37,0.73 -0.46,0.67 -0.54,0.62 -0.61,0.54 -0.67,0.47 -0.72,0.38 -0.77,0.29 -0.79,0.20 -0.81,0.10 -0.82,0.00 -0.82,-0.09 -0.79,-0.19 -0.77,-0.28 -0.72,-0.37 -0.68,-0.46 -0.68,-0.46 L -0.68,-0.46 Z"/></g><g transform="translate(120.2373307767896 235.9725763083711) rotate(0 -1.9375443108858121 5.229042786085813)" stroke="none"><path fill="#c92a2a" d="M 0.78,-0.14 Q 0.78,-0.14 1.18,0.84 1.57,1.83 1.78,2.82 1.98,3.80 2.02,4.99 2.06,6.17 1.83,7.35 1.59,8.54 0.98,9.49 0.36,10.45 -0.81,10.90 -1.99,11.34 -3.57,9.06 -5.15,6.79 -5.17,6.69 -5.19,6.59 -5.18,6.48 -5.17,6.37 -5.13,6.28 -5.08,6.18 -5.01,6.10 -4.94,6.03 -4.85,5.97 -4.75,5.92 -4.65,5.91 -4.54,5.89 -4.44,5.90 -4.33,5.92 -4.24,5.97 -4.14,6.02 -4.07,6.09 -4.00,6.17 -3.95,6.27 -3.91,6.36 -3.89,6.47 -3.88,6.57 -3.90,6.68 -3.93,6.78 -3.98,6.87 -4.03,6.97 -4.11,7.03 -4.19,7.10 -4.29,7.14 -4.39,7.18 -4.50,7.19 -4.60,7.20 -4.70,7.17 -4.81,7.14 -4.90,7.08 -4.98,7.03 -5.05,6.94 -5.11,6.86 -5.15,6.76 -5.18,6.66 -5.19,6.55 -5.19,6.44 -5.15,6.34 -5.12,6.24 -5.06,6.16 -4.99,6.07 -4.91,6.01 -4.82,5.95 -4.72,5.92 -4.61,5.89 -4.51,5.90 -4.40,5.90 -4.30,5.94 -4.20,5.98 -4.12,6.05 -4.04,6.11 -3.99,6.21 -3.93,6.30 -3.93,6.30 -3.93,6.30 -3.01,7.42 -2.09,8.54 -1.70,8.17 -1.32,7.80 -1.10,6.96 -0.88,6.13 -0.82,5.12 -0.76,4.12 -0.78,3.20 -0.79,2.28 -0.79,1.21 -0.78,0.14 -0.79,0.05 -0.79,-0.04 -0.78,-0.13 -0.76,-0.23 -0.72,-0.32 -0.68,-0.40 -0.62,-0.48 -0.56,-0.56 -0.49,-0.62 -0.41,-0.68 -0.33,-0.72 -0.24,-0.76 -0.14,-0.77 -0.05,-0.79 0.04,-0.79 0.13,-0.78 0.23,-0.75 0.32,-0.73 0.40,-0.68 0.48,-0.63 0.55,-0.56 0.62,-0.49 0.67,-0.41 0.72,-0.33 0.75,-0.24 0.78,-0.14 0.78,-0.14 L 0.78,-0.14 Z"/></g><g transform="translate(121.22815052318381 228.92712483124853) rotate(0 0 0.2972287701861731)" stroke="none"><path fill="#c92a2a" d="M 0.99,-0.30 Q 0.99,-0.30 1.00,-0.06 1.02,0.18 0.91,0.41 0.81,0.64 0.62,0.79 0.42,0.94 0.18,0.99 -0.06,1.03 -0.29,0.96 -0.53,0.88 -0.71,0.71 -0.88,0.53 -0.96,0.29 -1.03,0.06 -0.99,-0.18 -0.94,-0.42 -0.79,-0.62 -0.64,-0.81 -0.41,-0.91 -0.18,-1.02 0.06,-1.00 0.30,-0.99 0.52,-0.86 0.73,-0.73 0.86,-0.52 L 0.99,-0.30 Z"/></g><g transform="translate(114.13843232683777 230.79856673100306) rotate(0 5.548465458467589 -4.1392005985929785)" stroke="none"><path fill="#c92a2a" d="M -0.76,-0.39 Q -0.76,-0.39 -0.35,-1.63 0.05,-2.86 0.61,-3.93 1.17,-4.99 1.78,-5.93 2.39,-6.87 3.05,-7.58 3.71,-8.29 4.56,-8.70 5.41,-9.11 6.37,-9.00 7.32,-8.89 8.08,-8.52 8.84,-8.15 10.02,-6.99 11.21,-5.83 11.28,-5.76 11.35,-5.68 11.40,-5.59 11.45,-5.49 11.46,-5.39 11.47,-5.28 11.45,-5.18 11.43,-5.07 11.38,-4.98 11.32,-4.89 11.24,-4.82 11.16,-4.75 11.07,-4.71 10.97,-4.67 10.86,-4.66 10.76,-4.65 10.65,-4.68 10.55,-4.70 10.46,-4.76 10.37,-4.82 10.31,-4.90 10.24,-4.99 10.21,-5.09 10.17,-5.19 10.17,-5.29 10.17,-5.40 10.20,-5.50 10.23,-5.60 10.29,-5.69 10.36,-5.77 10.44,-5.84 10.53,-5.90 10.63,-5.93 10.74,-5.96 10.84,-5.95 10.95,-5.95 11.05,-5.91 11.15,-5.87 11.23,-5.81 11.31,-5.74 11.37,-5.65 11.42,-5.56 11.45,-5.45 11.47,-5.35 11.46,-5.25 11.45,-5.14 11.41,-5.04 11.37,-4.95 11.29,-4.87 11.22,-4.79 11.13,-4.74 11.04,-4.69 10.93,-4.67 10.83,-4.65 10.72,-4.66 10.62,-4.68 10.52,-4.73 10.43,-4.78 10.43,-4.78 10.43,-4.78 9.11,-5.33 7.79,-5.89 7.27,-6.11 6.74,-6.34 6.17,-6.39 5.59,-6.43 5.11,-5.91 4.63,-5.40 4.06,-4.54 3.49,-3.68 2.89,-2.69 2.30,-1.71 1.53,-0.65 0.76,0.39 0.70,0.47 0.64,0.56 0.57,0.63 0.49,0.70 0.40,0.75 0.31,0.80 0.21,0.82 0.11,0.85 0.00,0.85 -0.09,0.85 -0.19,0.83 -0.29,0.80 -0.39,0.76 -0.48,0.71 -0.56,0.64 -0.63,0.57 -0.69,0.49 -0.75,0.40 -0.79,0.31 -0.83,0.21 -0.84,0.11 -0.86,0.00 -0.84,-0.09 -0.83,-0.19 -0.80,-0.29 -0.76,-0.39 -0.76,-0.39 L -0.76,-0.39 Z"/></g><g transform="translate(64.11426473586785 214.6160486804098) rotate(0 -0.24219556146837817 5.592328560465418)" stroke="none"><path fill="#c92a2a" d="M 0.85,0.00 Q 0.85,0.00 1.21,1.29 1.56,2.57 1.51,3.89 1.46,5.22 1.32,6.49 1.18,7.77 0.70,9.33 0.23,10.89 0.22,11.00 0.20,11.10 0.15,11.20 0.10,11.29 0.02,11.36 -0.04,11.44 -0.14,11.48 -0.24,11.53 -0.34,11.54 -0.45,11.55 -0.55,11.53 -0.65,11.51 -0.75,11.45 -0.84,11.40 -0.91,11.32 -0.98,11.24 -1.02,11.14 -1.06,11.04 -1.06,10.93 -1.07,10.83 -1.04,10.72 -1.01,10.62 -0.95,10.53 -0.89,10.45 -0.81,10.38 -0.72,10.32 -0.62,10.28 -0.52,10.25 -0.42,10.25 -0.31,10.25 -0.21,10.28 -0.11,10.31 -0.02,10.38 0.05,10.44 0.11,10.53 0.17,10.62 0.20,10.72 0.23,10.82 0.22,10.93 0.22,11.03 0.18,11.13 0.14,11.23 0.07,11.31 0.00,11.39 -0.08,11.45 -0.17,11.50 -0.27,11.53 -0.38,11.55 -0.48,11.54 -0.59,11.53 -0.68,11.48 -0.78,11.44 -0.86,11.37 -0.94,11.30 -0.99,11.20 -1.04,11.11 -1.05,11.00 -1.07,10.90 -1.07,10.90 -1.07,10.90 -1.44,9.22 -1.81,7.54 -1.75,6.31 -1.70,5.09 -1.64,3.82 -1.59,2.56 -1.22,1.27 -0.85,-0.00 -0.84,-0.10 -0.83,-0.20 -0.79,-0.30 -0.75,-0.40 -0.69,-0.48 -0.63,-0.57 -0.56,-0.64 -0.48,-0.70 -0.39,-0.75 -0.30,-0.80 -0.19,-0.82 -0.09,-0.85 0.00,-0.85 0.10,-0.85 0.20,-0.82 0.30,-0.80 0.39,-0.75 0.49,-0.70 0.56,-0.63 0.64,-0.56 0.70,-0.48 0.76,-0.39 0.79,-0.29 0.83,-0.20 0.84,-0.09 0.85,0.00 0.85,0.00 L 0.85,0.00 Z"/></g><g transform="translate(68.38568529236943 216.72968109641735) rotate(0 -1.4311459587203146 3.33558356667195)" stroke="none"><path fill="#c92a2a" d="M 0.43,0.63 Q 0.43,0.63 0.13,1.29 -0.16,1.96 -0.88,2.22 -1.59,2.48 -0.41,4.23 0.77,5.98 0.85,6.06 0.92,6.14 0.97,6.23 1.01,6.33 1.02,6.43 1.03,6.54 1.01,6.64 0.99,6.75 0.93,6.84 0.88,6.93 0.80,7.00 0.72,7.07 0.62,7.11 0.52,7.15 0.41,7.15 0.31,7.16 0.21,7.13 0.10,7.10 0.02,7.04 -0.06,6.98 -0.13,6.90 -0.19,6.82 -0.23,6.71 -0.26,6.61 -0.26,6.51 -0.26,6.40 -0.23,6.30 -0.19,6.20 -0.13,6.12 -0.06,6.03 0.01,5.97 0.10,5.91 0.20,5.88 0.31,5.85 0.41,5.86 0.52,5.86 0.62,5.90 0.72,5.94 0.80,6.01 0.88,6.08 0.93,6.17 0.99,6.26 1.01,6.37 1.03,6.47 1.02,6.57 1.01,6.68 0.97,6.78 0.92,6.87 0.85,6.95 0.78,7.03 0.68,7.08 0.59,7.13 0.48,7.15 0.38,7.16 0.27,7.15 0.17,7.13 0.08,7.08 -0.01,7.03 -0.01,7.03 -0.01,7.03 -1.84,5.92 -3.68,4.81 -4.11,4.00 -4.54,3.20 -4.53,2.34 -4.51,1.49 -4.07,0.85 -3.63,0.20 -2.74,-0.17 -1.86,-0.56 -1.14,-0.60 -0.43,-0.63 -0.35,-0.67 -0.27,-0.72 -0.18,-0.74 -0.09,-0.76 0.00,-0.76 0.09,-0.76 0.18,-0.74 0.27,-0.72 0.35,-0.67 0.43,-0.63 0.50,-0.57 0.57,-0.51 0.63,-0.43 0.68,-0.35 0.71,-0.27 0.74,-0.18 0.76,-0.09 0.77,0.00 0.76,0.09 0.74,0.18 0.71,0.27 0.68,0.36 0.62,0.43 0.57,0.51 0.50,0.57 0.43,0.63 0.43,0.63 L 0.43,0.63 Z"/></g><g transform="translate(61.40608396561217 210.96122406910763) rotate(0 3.0604578848056008 -2.14666344071194)" stroke="none"><path fill="#c92a2a" d="M -0.65,-0.39 Q -0.65,-0.39 -0.31,-1.45 0.01,-2.50 0.38,-3.16 0.75,-3.81 1.28,-4.32 1.81,-4.84 2.48,-4.95 3.15,-5.06 3.83,-4.64 4.52,-4.22 5.46,-2.78 6.40,-1.35 6.46,-1.27 6.53,-1.18 6.57,-1.09 6.61,-0.99 6.61,-0.88 6.62,-0.77 6.59,-0.67 6.56,-0.57 6.50,-0.48 6.43,-0.40 6.35,-0.33 6.26,-0.27 6.16,-0.24 6.06,-0.20 5.95,-0.21 5.85,-0.21 5.75,-0.24 5.65,-0.28 5.56,-0.34 5.48,-0.41 5.42,-0.50 5.36,-0.59 5.34,-0.69 5.31,-0.79 5.32,-0.90 5.33,-1.00 5.37,-1.10 5.41,-1.20 5.48,-1.28 5.55,-1.36 5.64,-1.41 5.73,-1.47 5.83,-1.49 5.94,-1.51 6.04,-1.50 6.15,-1.48 6.25,-1.44 6.34,-1.39 6.42,-1.32 6.49,-1.24 6.54,-1.15 6.59,-1.05 6.61,-0.95 6.62,-0.84 6.60,-0.74 6.58,-0.64 6.53,-0.54 6.48,-0.45 6.40,-0.38 6.32,-0.31 6.23,-0.26 6.13,-0.22 6.02,-0.21 5.92,-0.20 5.82,-0.22 5.71,-0.25 5.62,-0.30 5.53,-0.36 5.53,-0.36 5.53,-0.36 4.25,-1.45 2.98,-2.54 2.59,-1.86 2.21,-1.18 1.43,-0.39 0.65,0.39 0.59,0.46 0.53,0.53 0.46,0.59 0.39,0.64 0.31,0.68 0.22,0.72 0.13,0.74 0.04,0.75 -0.04,0.75 -0.13,0.74 -0.22,0.72 -0.31,0.69 -0.38,0.64 -0.46,0.59 -0.53,0.53 -0.59,0.46 -0.64,0.39 -0.69,0.31 -0.71,0.22 -0.74,0.13 -0.75,0.04 -0.75,-0.04 -0.74,-0.13 -0.72,-0.22 -0.68,-0.30 -0.65,-0.39 -0.65,-0.39 L -0.65,-0.39 Z"/></g><g stroke-linecap="round"><g transform="translate(84.79189274266699 249.71260538131395) rotate(0 63.47141317040477 -78.55601327990922)"><path d="M0 0 C21.16 -26.19, 105.79 -130.93, 126.94 -157.11 M0 0 C21.16 -26.19, 105.79 -130.93, 126.94 -157.11" stroke="#364fc7" stroke-width="0.5" fill="none"/></g><g transform="translate(84.79189274266699 249.71260538131395) rotate(0 63.47141317040477 -78.55601327990922)"><path d="M126.94 -157.11 L123.33 -142.55 L113.47 -150.52 L126.94 -157.11" stroke="none" stroke-width="0" fill="#364fc7" fill-rule="evenodd"/><path d="M126.94 -157.11 C125.85 -152.72, 124.76 -148.32, 123.33 -142.55 M126.94 -157.11 C126.13 -153.85, 125.32 -150.59, 123.33 -142.55 M123.33 -142.55 C119.47 -145.67, 115.61 -148.79, 113.47 -150.52 M123.33 -142.55 C120.4 -144.92, 117.48 -147.28, 113.47 -150.52 M113.47 -150.52 C118.07 -152.77, 122.68 -155.03, 126.94 -157.11 M113.47 -150.52 C117.97 -152.72, 122.47 -154.92, 126.94 -157.11 M126.94 -157.11 C126.94 -157.11, 126.94 -157.11, 126.94 -157.11 M126.94 -157.11 C126.94 -157.11, 126.94 -157.11, 126.94 -157.11" stroke="#364fc7" stroke-width="0.5" fill="none"/></g></g><mask/><g transform="translate(224.45118790930815 71.33330883676192) rotate(0 -4.342206886296822 7.930923916019495)" stroke="none"><path fill="#364fc7" d="M 0.74,0.44 Q 0.74,0.44 0.29,1.74 -0.15,3.04 -0.76,4.15 -1.36,5.26 -2.06,6.51 -2.75,7.77 -3.57,9.19 -4.38,10.62 -5.18,11.97 -5.99,13.31 -6.98,14.59 -7.97,15.87 -8.02,15.96 -8.08,16.04 -8.17,16.11 -8.25,16.18 -8.35,16.21 -8.45,16.25 -8.56,16.25 -8.66,16.25 -8.76,16.22 -8.86,16.19 -8.95,16.12 -9.04,16.06 -9.10,15.97 -9.16,15.89 -9.19,15.78 -9.22,15.68 -9.21,15.58 -9.21,15.47 -9.17,15.37 -9.13,15.27 -9.07,15.19 -9.00,15.11 -8.91,15.05 -8.82,14.99 -8.71,14.97 -8.61,14.95 -8.51,14.96 -8.40,14.96 -8.30,15.01 -8.21,15.05 -8.13,15.12 -8.05,15.19 -8.00,15.29 -7.95,15.38 -7.93,15.49 -7.91,15.59 -7.92,15.70 -7.94,15.80 -7.99,15.90 -8.04,15.99 -8.11,16.06 -8.19,16.14 -8.28,16.18 -8.38,16.23 -8.49,16.24 -8.59,16.26 -8.70,16.24 -8.80,16.21 -8.89,16.16 -8.98,16.11 -9.05,16.03 -9.12,15.95 -9.16,15.85 -9.20,15.75 -9.21,15.65 -9.22,15.54 -9.19,15.44 -9.17,15.33 -9.17,15.33 -9.17,15.33 -8.79,13.65 -8.41,11.96 -7.68,10.56 -6.95,9.16 -6.15,7.74 -5.35,6.31 -4.64,5.05 -3.92,3.78 -3.26,2.69 -2.59,1.59 -1.67,0.57 -0.74,-0.44 -0.67,-0.52 -0.61,-0.60 -0.53,-0.67 -0.45,-0.73 -0.35,-0.77 -0.26,-0.82 -0.16,-0.84 -0.05,-0.86 0.04,-0.85 0.14,-0.85 0.24,-0.82 0.34,-0.79 0.43,-0.73 0.52,-0.68 0.60,-0.61 0.67,-0.53 0.72,-0.44 0.78,-0.36 0.81,-0.26 0.84,-0.16 0.85,-0.05 0.86,0.04 0.84,0.14 0.82,0.25 0.78,0.34 0.74,0.44 0.74,0.44 L 0.74,0.44 Z"/></g><g transform="translate(224.8056471470897 71.28902173790758) rotate(0 2.5033886727002255 6.424482308382267)" stroke="none"><path fill="#364fc7" d="M 0.78,-0.23 Q 0.78,-0.23 1.36,0.99 1.95,2.21 2.36,3.71 2.76,5.20 3.21,6.42 3.65,7.65 4.47,9.85 5.30,12.06 5.34,12.16 5.37,12.26 5.38,12.36 5.39,12.47 5.36,12.57 5.33,12.67 5.27,12.76 5.21,12.85 5.12,12.91 5.04,12.98 4.94,13.01 4.84,13.04 4.73,13.04 4.63,13.04 4.52,13.01 4.42,12.97 4.34,12.91 4.26,12.85 4.20,12.76 4.14,12.67 4.11,12.57 4.08,12.46 4.09,12.36 4.09,12.25 4.13,12.15 4.17,12.06 4.24,11.97 4.31,11.89 4.40,11.84 4.49,11.78 4.60,11.76 4.70,11.74 4.80,11.75 4.91,11.76 5.01,11.81 5.10,11.85 5.18,11.93 5.26,12.00 5.31,12.09 5.36,12.19 5.37,12.29 5.39,12.40 5.37,12.50 5.35,12.61 5.30,12.70 5.25,12.79 5.18,12.87 5.10,12.94 5.00,12.98 4.91,13.03 4.80,13.04 4.70,13.05 4.59,13.03 4.49,13.00 4.40,12.95 4.31,12.89 4.24,12.81 4.17,12.73 4.17,12.73 4.17,12.73 2.72,10.62 1.27,8.50 0.80,7.18 0.32,5.85 -0.05,4.38 -0.42,2.92 -0.60,1.57 -0.78,0.23 -0.79,0.13 -0.81,0.03 -0.80,-0.05 -0.80,-0.15 -0.77,-0.25 -0.73,-0.34 -0.68,-0.42 -0.63,-0.51 -0.56,-0.58 -0.49,-0.64 -0.40,-0.69 -0.32,-0.74 -0.23,-0.77 -0.13,-0.80 -0.03,-0.80 0.06,-0.81 0.15,-0.79 0.25,-0.77 0.34,-0.73 0.43,-0.69 0.50,-0.63 0.58,-0.56 0.64,-0.49 0.70,-0.41 0.74,-0.32 0.78,-0.23 0.78,-0.23 L 0.78,-0.23 Z"/></g><g transform="translate(221.03943652218783 79.66299939528562) rotate(0 3.5446532954200904 0.39875648957001886)" stroke="none"><path fill="#364fc7" d="M 0.07,-0.88 Q 0.07,-0.88 1.58,-0.95 3.08,-1.02 4.71,-0.72 6.34,-0.42 6.44,-0.41 6.55,-0.39 6.64,-0.34 6.74,-0.29 6.81,-0.22 6.88,-0.14 6.93,-0.04 6.97,0.04 6.99,0.15 7.00,0.25 6.98,0.36 6.95,0.46 6.90,0.55 6.85,0.64 6.77,0.71 6.69,0.78 6.59,0.82 6.49,0.86 6.38,0.87 6.28,0.88 6.17,0.85 6.07,0.82 5.98,0.76 5.89,0.70 5.83,0.62 5.76,0.53 5.73,0.43 5.70,0.33 5.69,0.23 5.69,0.12 5.73,0.02 5.76,-0.07 5.82,-0.16 5.89,-0.24 5.97,-0.30 6.06,-0.36 6.16,-0.39 6.27,-0.42 6.37,-0.41 6.48,-0.41 6.58,-0.37 6.68,-0.33 6.76,-0.26 6.84,-0.20 6.89,-0.11 6.95,-0.02 6.97,0.08 7.00,0.18 6.99,0.29 6.98,0.39 6.93,0.49 6.89,0.59 6.82,0.66 6.74,0.74 6.65,0.79 6.56,0.84 6.45,0.86 6.35,0.88 6.35,0.88 6.35,0.88 4.61,1.20 2.87,1.53 1.39,1.20 -0.07,0.88 -0.18,0.86 -0.28,0.84 -0.38,0.79 -0.47,0.74 -0.56,0.68 -0.64,0.61 -0.70,0.52 -0.77,0.44 -0.81,0.34 -0.85,0.24 -0.87,0.13 -0.88,0.03 -0.87,-0.07 -0.86,-0.18 -0.83,-0.28 -0.80,-0.38 -0.74,-0.47 -0.68,-0.56 -0.60,-0.63 -0.53,-0.71 -0.43,-0.76 -0.34,-0.81 -0.24,-0.84 -0.13,-0.87 -0.03,-0.88 0.07,-0.88 0.07,-0.88 L 0.07,-0.88 Z"/></g><g transform="translate(236.63588665499418 75.67539388784868) rotate(0 2.0603349313416857 1.0190500027534881)" stroke="none"><path fill="#364fc7" d="M 0.65,-0.61 Q 0.65,-0.61 1.36,-0.20 2.06,0.20 1.95,0.18 1.85,0.15 1.91,0.19 1.98,0.23 2.04,0.28 2.09,0.34 2.13,0.41 2.17,0.48 2.20,0.55 2.22,0.63 2.23,0.71 2.23,0.79 2.22,0.86 2.20,0.94 2.17,1.01 2.14,1.09 2.09,1.15 2.04,1.21 1.98,1.26 1.91,1.31 1.84,1.34 1.77,1.37 1.69,1.39 1.61,1.40 1.54,1.40 1.46,1.39 1.38,1.37 1.31,1.34 1.21,1.28 1.12,1.22 1.06,1.13 0.99,1.05 0.96,0.95 0.93,0.84 0.93,0.74 0.93,0.63 0.96,0.53 1.00,0.43 1.06,0.35 1.13,0.26 1.22,0.21 1.31,0.15 1.41,0.12 1.51,0.09 1.62,0.10 1.72,0.11 1.82,0.15 1.92,0.19 2.00,0.26 2.08,0.32 2.13,0.42 2.19,0.51 2.21,0.61 2.23,0.72 2.22,0.82 2.21,0.93 2.16,1.02 2.12,1.12 2.04,1.20 1.97,1.27 1.87,1.32 1.78,1.37 1.67,1.39 1.57,1.40 1.46,1.38 1.36,1.37 1.27,1.31 1.17,1.26 1.10,1.19 1.03,1.11 0.98,1.01 0.94,0.91 0.93,0.81 0.92,0.70 0.94,0.60 0.97,0.50 1.02,0.41 1.08,0.31 1.16,0.25 1.24,0.18 1.34,0.14 1.44,0.10 1.55,0.10 1.65,0.09 1.76,0.12 1.86,0.15 1.85,0.15 1.85,0.15 1.91,0.19 1.98,0.23 2.04,0.28 2.09,0.34 2.13,0.41 2.17,0.48 2.20,0.55 2.22,0.63 2.23,0.71 2.23,0.79 2.22,0.86 2.20,0.94 2.17,1.01 2.14,1.09 2.09,1.15 2.04,1.21 1.98,1.26 1.91,1.31 1.84,1.34 1.77,1.37 1.69,1.39 1.61,1.40 1.54,1.40 1.46,1.39 1.38,1.37 1.31,1.34 1.51,2.07 1.71,2.79 0.91,2.46 0.12,2.13 -0.26,1.37 -0.65,0.61 -0.71,0.52 -0.78,0.43 -0.82,0.33 -0.86,0.23 -0.88,0.13 -0.89,0.02 -0.88,-0.08 -0.87,-0.19 -0.84,-0.29 -0.80,-0.39 -0.74,-0.48 -0.68,-0.57 -0.60,-0.65 -0.52,-0.72 -0.43,-0.77 -0.34,-0.82 -0.23,-0.85 -0.13,-0.88 -0.02,-0.88 0.08,-0.89 0.18,-0.86 0.29,-0.84 0.39,-0.79 0.48,-0.75 0.57,-0.68 0.65,-0.61 0.65,-0.61 L 0.65,-0.61 Z"/></g><g transform="translate(236.59157925027148 82.23278825746485) rotate(0 2.5920440938822935 0.575986108460782)" stroke="none"><path fill="#364fc7" d="M 0.18,-0.86 Q 0.18,-0.86 1.53,-0.78 2.89,-0.70 2.38,-0.48 1.87,-0.25 1.95,-0.23 2.02,-0.20 2.09,-0.16 2.16,-0.12 2.21,-0.06 2.26,-0.00 2.30,0.06 2.34,0.13 2.36,0.20 2.38,0.28 2.39,0.36 2.39,0.44 2.37,0.51 2.36,0.59 2.32,0.66 2.29,0.73 2.24,0.79 2.19,0.86 2.12,0.90 2.06,0.95 1.99,0.98 1.91,1.01 1.83,1.02 1.76,1.03 1.68,1.03 1.60,1.02 1.50,0.98 1.40,0.94 1.32,0.87 1.24,0.80 1.18,0.71 1.13,0.62 1.10,0.52 1.08,0.41 1.09,0.31 1.10,0.20 1.15,0.11 1.19,0.01 1.27,-0.06 1.34,-0.13 1.43,-0.18 1.53,-0.23 1.63,-0.25 1.74,-0.27 1.84,-0.25 1.95,-0.23 2.04,-0.18 2.13,-0.14 2.21,-0.06 2.28,0.01 2.32,0.11 2.37,0.20 2.38,0.31 2.39,0.41 2.37,0.52 2.35,0.62 2.29,0.71 2.24,0.80 2.16,0.87 2.07,0.94 1.98,0.98 1.88,1.02 1.77,1.02 1.66,1.03 1.56,1.00 1.46,0.97 1.37,0.91 1.28,0.85 1.22,0.77 1.16,0.69 1.12,0.58 1.09,0.48 1.09,0.38 1.09,0.27 1.12,0.17 1.16,0.07 1.22,-0.00 1.28,-0.09 1.37,-0.15 1.46,-0.21 1.56,-0.24 1.66,-0.27 1.77,-0.26 1.88,-0.25 1.88,-0.25 1.87,-0.25 1.95,-0.23 2.02,-0.20 2.09,-0.16 2.16,-0.12 2.21,-0.06 2.26,-0.00 2.30,0.06 2.34,0.13 2.36,0.20 2.38,0.28 2.39,0.36 2.39,0.44 2.37,0.51 2.36,0.59 2.32,0.66 2.29,0.73 2.24,0.79 2.19,0.86 2.12,0.90 2.06,0.95 1.99,0.98 1.91,1.01 1.83,1.02 1.76,1.03 1.68,1.03 1.60,1.02 1.97,1.42 2.35,1.82 1.08,1.34 -0.18,0.86 -0.28,0.83 -0.38,0.79 -0.47,0.73 -0.56,0.67 -0.63,0.60 -0.71,0.52 -0.76,0.43 -0.81,0.33 -0.84,0.23 -0.87,0.13 -0.87,0.02 -0.88,-0.07 -0.85,-0.18 -0.83,-0.28 -0.78,-0.38 -0.74,-0.47 -0.67,-0.56 -0.60,-0.64 -0.52,-0.70 -0.43,-0.76 -0.33,-0.81 -0.23,-0.85 -0.13,-0.86 -0.02,-0.88 0.07,-0.87 0.18,-0.86 0.18,-0.86 L 0.18,-0.86 Z"/></g><g transform="translate(253.5172921364952 65.13037370492728) rotate(0 -0.39876664250419935 13.823727520663667)" stroke="none"><path fill="#364fc7" d="M 0.71,0.44 Q 0.71,0.44 0.18,1.80 -0.35,3.16 -0.89,4.97 -1.43,6.78 -1.78,9.19 -2.13,11.59 -1.94,13.97 -1.74,16.35 -0.89,18.56 -0.04,20.78 1.50,23.44 3.05,26.11 3.09,26.20 3.14,26.29 3.16,26.40 3.17,26.51 3.15,26.61 3.14,26.71 3.09,26.81 3.03,26.90 2.96,26.97 2.88,27.04 2.78,27.09 2.68,27.13 2.58,27.14 2.47,27.15 2.37,27.13 2.26,27.10 2.17,27.05 2.08,26.99 2.02,26.91 1.95,26.83 1.91,26.73 1.87,26.63 1.87,26.52 1.87,26.41 1.90,26.31 1.93,26.21 1.99,26.12 2.05,26.04 2.13,25.97 2.22,25.91 2.32,25.88 2.42,25.85 2.53,25.85 2.63,25.85 2.73,25.88 2.83,25.92 2.92,25.99 3.00,26.05 3.06,26.14 3.12,26.23 3.14,26.33 3.17,26.43 3.16,26.54 3.16,26.65 3.12,26.74 3.07,26.84 3.00,26.92 2.93,27.00 2.84,27.06 2.75,27.11 2.65,27.13 2.54,27.15 2.44,27.14 2.33,27.13 2.24,27.08 2.14,27.03 2.06,26.96 1.99,26.88 1.99,26.88 1.99,26.88 -0.29,24.34 -2.57,21.80 -3.62,19.20 -4.66,16.60 -4.85,13.88 -5.04,11.16 -4.61,8.52 -4.19,5.88 -3.44,3.80 -2.70,1.72 -1.71,0.63 -0.71,-0.44 -0.65,-0.52 -0.58,-0.60 -0.50,-0.66 -0.42,-0.73 -0.33,-0.77 -0.23,-0.81 -0.13,-0.82 -0.03,-0.84 0.06,-0.83 0.16,-0.82 0.26,-0.79 0.35,-0.76 0.44,-0.71 0.53,-0.65 0.60,-0.58 0.67,-0.51 0.72,-0.42 0.77,-0.33 0.80,-0.23 0.83,-0.13 0.83,-0.03 0.84,0.06 0.82,0.16 0.80,0.26 0.76,0.35 0.71,0.44 0.71,0.44 L 0.71,0.44 Z"/></g><g transform="translate(259.3216433786408 73.41573655285993) rotate(0 2.968657034025142 5.361124900906091)" stroke="none"><path fill="#364fc7" d="M 0.90,-0.26 Q 0.90,-0.26 1.53,0.90 2.16,2.07 2.70,3.53 3.25,5.00 3.85,6.18 4.45,7.36 5.18,8.56 5.90,9.77 5.97,9.85 6.03,9.94 6.06,10.04 6.09,10.14 6.09,10.25 6.09,10.35 6.05,10.45 6.02,10.55 5.95,10.64 5.89,10.72 5.80,10.78 5.71,10.84 5.60,10.86 5.50,10.89 5.40,10.88 5.29,10.87 5.19,10.83 5.09,10.79 5.01,10.72 4.93,10.65 4.88,10.56 4.83,10.47 4.81,10.36 4.79,10.26 4.80,10.15 4.81,10.05 4.86,9.95 4.91,9.86 4.98,9.78 5.06,9.70 5.15,9.66 5.25,9.61 5.35,9.59 5.46,9.58 5.56,9.60 5.67,9.62 5.76,9.67 5.85,9.72 5.92,9.80 5.99,9.88 6.04,9.97 6.08,10.07 6.09,10.18 6.10,10.28 6.07,10.39 6.05,10.49 5.99,10.58 5.93,10.67 5.85,10.74 5.77,10.80 5.67,10.84 5.57,10.88 5.47,10.88 5.36,10.89 5.26,10.86 5.16,10.83 5.07,10.76 4.98,10.70 4.98,10.70 4.98,10.70 3.49,9.72 2.00,8.74 1.21,7.38 0.43,6.03 -0.12,4.47 -0.68,2.91 -0.79,1.59 -0.90,0.26 -0.92,0.15 -0.94,0.04 -0.93,-0.06 -0.92,-0.18 -0.88,-0.29 -0.85,-0.39 -0.79,-0.49 -0.73,-0.59 -0.65,-0.67 -0.56,-0.74 -0.47,-0.80 -0.37,-0.86 -0.26,-0.89 -0.15,-0.92 -0.04,-0.93 0.07,-0.93 0.18,-0.91 0.29,-0.89 0.39,-0.84 0.49,-0.79 0.58,-0.72 0.67,-0.65 0.74,-0.56 0.81,-0.47 0.85,-0.37 0.90,-0.26 0.90,-0.26 L 0.90,-0.26 Z"/></g><g transform="translate(265.5248424867639 73.68158098119608) rotate(0 -3.8104977237562423 4.076220316882285)" stroke="none"><path fill="#364fc7" d="M 0.74,0.67 Q 0.74,0.67 -0.60,2.51 -1.95,4.36 -4.34,6.25 -6.73,8.15 -6.82,8.22 -6.90,8.28 -7.00,8.32 -7.10,8.36 -7.21,8.36 -7.31,8.36 -7.41,8.33 -7.51,8.30 -7.60,8.23 -7.69,8.17 -7.75,8.09 -7.81,8.00 -7.84,7.90 -7.87,7.80 -7.87,7.69 -7.86,7.58 -7.83,7.48 -7.79,7.38 -7.72,7.30 -7.66,7.22 -7.57,7.16 -7.48,7.11 -7.37,7.08 -7.27,7.06 -7.16,7.07 -7.06,7.07 -6.96,7.12 -6.86,7.16 -6.78,7.23 -6.71,7.30 -6.65,7.40 -6.60,7.49 -6.58,7.59 -6.56,7.70 -6.58,7.80 -6.59,7.91 -6.64,8.00 -6.69,8.10 -6.76,8.17 -6.84,8.25 -6.94,8.29 -7.03,8.34 -7.14,8.35 -7.24,8.37 -7.35,8.35 -7.45,8.33 -7.54,8.27 -7.63,8.22 -7.70,8.14 -7.78,8.06 -7.82,7.96 -7.86,7.87 -7.87,7.76 -7.87,7.65 -7.85,7.55 -7.82,7.45 -7.76,7.36 -7.71,7.27 -7.71,7.27 -7.71,7.27 -5.93,4.81 -4.15,2.36 -2.44,0.84 -0.74,-0.67 -0.65,-0.75 -0.56,-0.83 -0.45,-0.88 -0.34,-0.94 -0.22,-0.97 -0.10,-0.99 0.01,-0.99 0.13,-0.99 0.25,-0.96 0.36,-0.93 0.47,-0.87 0.58,-0.81 0.67,-0.73 0.76,-0.65 0.82,-0.55 0.89,-0.45 0.93,-0.34 0.97,-0.22 0.99,-0.10 1.00,0.01 0.98,0.13 0.97,0.25 0.92,0.36 0.88,0.47 0.81,0.57 0.74,0.67 0.74,0.67 L 0.74,0.67 Z"/></g><g transform="translate(270.1772012061195 81.92265673027438) rotate(0 -0.4874017578179064 2.126724967886517)" stroke="none"><path fill="#364fc7" d="M 0.24,0.94 Q 0.24,0.94 -0.66,1.43 -1.57,1.93 -0.67,2.20 0.22,2.47 0.17,1.21 0.13,-0.04 0.19,-0.08 0.25,-0.13 0.33,-0.16 0.40,-0.19 0.48,-0.21 0.55,-0.22 0.63,-0.21 0.71,-0.21 0.79,-0.18 0.86,-0.16 0.93,-0.11 1.00,-0.07 1.05,-0.01 1.11,0.03 1.15,0.10 1.19,0.17 1.21,0.25 1.23,0.32 1.23,0.40 1.24,0.48 1.22,0.56 1.20,0.64 1.17,0.71 1.14,0.78 1.09,0.84 1.04,0.90 0.54,0.85 0.04,0.80 0.00,0.71 -0.04,0.61 -0.05,0.51 -0.07,0.40 -0.04,0.30 -0.02,0.19 0.02,0.10 0.07,0.01 0.15,-0.05 0.23,-0.12 0.33,-0.16 0.43,-0.20 0.54,-0.21 0.64,-0.22 0.75,-0.19 0.85,-0.16 0.94,-0.10 1.03,-0.04 1.09,0.03 1.16,0.11 1.19,0.21 1.23,0.31 1.23,0.42 1.23,0.53 1.20,0.63 1.17,0.73 1.10,0.81 1.04,0.90 0.95,0.96 0.86,1.02 0.76,1.05 0.66,1.08 0.55,1.08 0.45,1.07 0.35,1.03 0.25,1.00 0.17,0.93 0.09,0.86 0.03,0.77 -0.02,0.68 -0.04,0.58 -0.06,0.47 -0.05,0.37 -0.04,0.26 -0.00,0.16 0.03,0.07 0.10,-0.00 0.18,-0.08 0.27,-0.13 0.36,-0.18 0.47,-0.20 0.57,-0.22 0.68,-0.20 0.78,-0.19 0.88,-0.14 0.97,-0.09 0.55,-0.06 0.13,-0.04 0.19,-0.08 0.25,-0.13 0.33,-0.16 0.40,-0.19 0.48,-0.21 0.55,-0.22 0.63,-0.21 0.71,-0.21 0.79,-0.18 0.86,-0.16 0.93,-0.11 1.00,-0.07 1.05,-0.01 1.11,0.03 1.15,0.10 1.19,0.17 1.21,0.25 1.23,0.32 1.23,0.40 1.24,0.48 1.22,0.56 1.20,0.64 1.17,0.71 1.14,0.78 1.09,0.84 1.04,0.90 2.22,2.18 3.40,3.45 2.57,4.29 1.75,5.13 0.68,5.28 -0.37,5.44 -1.48,5.13 -2.59,4.81 -3.42,4.00 -4.25,3.19 -4.27,2.05 -4.29,0.92 -3.42,0.02 -2.55,-0.86 -1.40,-0.90 -0.24,-0.94 -0.12,-0.96 -0.01,-0.97 0.10,-0.96 0.22,-0.95 0.33,-0.91 0.44,-0.86 0.54,-0.80 0.63,-0.73 0.71,-0.65 0.79,-0.56 0.85,-0.46 0.90,-0.35 0.93,-0.24 0.96,-0.12 0.96,-0.01 0.97,0.10 0.94,0.22 0.91,0.33 0.86,0.44 0.81,0.54 0.73,0.63 0.65,0.72 0.55,0.79 0.46,0.85 0.35,0.90 0.24,0.94 0.24,0.94 L 0.24,0.94 Z"/></g><g transform="translate(276.4246264954919 84.44813818773093) rotate(0 -0.7310924837927075 3.0793240164901476)" stroke="none"><path fill="#364fc7" d="M 0.90,0.23 Q 0.90,0.23 0.09,3.00 -0.70,5.77 -0.74,5.87 -0.78,5.97 -0.85,6.05 -0.92,6.13 -1.01,6.18 -1.10,6.24 -1.20,6.26 -1.31,6.29 -1.41,6.27 -1.52,6.26 -1.61,6.22 -1.71,6.18 -1.79,6.10 -1.87,6.03 -1.92,5.94 -1.97,5.84 -1.98,5.74 -2.00,5.63 -1.98,5.53 -1.97,5.42 -1.92,5.33 -1.87,5.24 -1.79,5.16 -1.72,5.09 -1.62,5.04 -1.52,5.00 -1.42,4.99 -1.31,4.97 -1.21,5.00 -1.11,5.02 -1.01,5.07 -0.92,5.13 -0.85,5.21 -0.78,5.29 -0.74,5.39 -0.70,5.49 -0.70,5.59 -0.69,5.70 -0.72,5.80 -0.75,5.90 -0.81,5.99 -0.87,6.08 -0.95,6.14 -1.03,6.21 -1.13,6.24 -1.24,6.28 -1.34,6.28 -1.45,6.28 -1.55,6.25 -1.65,6.21 -1.73,6.15 -1.82,6.08 -1.88,6.00 -1.94,5.91 -1.97,5.81 -2.00,5.70 -1.99,5.60 -1.99,5.49 -1.99,5.49 -1.99,5.49 -1.44,2.63 -0.90,-0.23 -0.86,-0.33 -0.82,-0.44 -0.76,-0.53 -0.69,-0.62 -0.60,-0.70 -0.52,-0.77 -0.42,-0.82 -0.32,-0.87 -0.21,-0.90 -0.10,-0.93 0.00,-0.93 0.12,-0.92 0.23,-0.90 0.34,-0.87 0.44,-0.81 0.54,-0.76 0.62,-0.68 0.70,-0.61 0.77,-0.52 0.83,-0.42 0.87,-0.32 0.91,-0.21 0.92,-0.10 0.93,0.01 0.92,0.12 0.90,0.23 0.90,0.23 L 0.90,0.23 Z"/></g><g transform="translate(283.0708184273685 72.92837540677871) rotate(0 2.4812755820755683 9.215818347109106)" stroke="none"><path fill="#364fc7" d="M 0.71,-0.24 Q 0.71,-0.24 1.59,1.48 2.47,3.22 2.50,3.37 2.53,3.52 2.53,3.68 2.52,3.84 2.48,3.99 2.44,4.14 2.36,4.27 2.28,4.41 2.18,4.52 2.07,4.63 1.94,4.72 1.81,4.80 1.66,4.85 1.51,4.90 1.36,4.92 1.20,4.93 1.05,4.91 0.89,4.88 0.75,4.82 0.61,4.76 0.48,4.67 0.35,4.58 0.25,4.46 0.16,4.34 0.09,4.20 0.02,4.06 1.23,2.32 2.45,0.59 3.54,0.63 4.64,0.68 5.38,1.50 6.13,2.32 6.51,3.52 6.88,4.71 7.05,6.06 7.23,7.40 7.21,8.89 7.19,10.38 6.89,11.99 6.59,13.60 6.10,15.00 5.62,16.40 4.67,17.46 3.72,18.51 1.85,17.35 -0.01,16.19 -0.08,16.24 -0.14,16.29 -0.21,16.32 -0.28,16.36 -0.36,16.37 -0.44,16.39 -0.52,16.38 -0.59,16.38 -0.67,16.36 -0.75,16.34 -0.81,16.30 -0.88,16.25 -0.94,16.20 -1.00,16.14 -1.04,16.08 -1.08,16.01 -1.10,15.93 -1.13,15.86 -1.13,15.78 -1.14,15.70 -1.13,15.62 -1.11,15.55 -1.08,15.47 -1.05,15.40 -1.00,15.34 -0.95,15.27 -1.03,15.40 -1.10,15.52 -1.05,15.43 -1.00,15.33 -0.93,15.26 -0.85,15.19 -0.75,15.14 -0.65,15.10 -0.55,15.09 -0.44,15.08 -0.34,15.10 -0.24,15.13 -0.15,15.18 -0.05,15.24 0.00,15.32 0.07,15.40 0.11,15.50 0.15,15.60 0.15,15.70 0.16,15.81 0.13,15.91 0.10,16.01 0.04,16.10 -0.01,16.19 -0.09,16.25 -0.18,16.32 -0.28,16.35 -0.38,16.38 -0.49,16.38 -0.59,16.38 -0.69,16.35 -0.79,16.31 -0.88,16.25 -0.96,16.18 -1.02,16.09 -1.08,16.01 -1.11,15.90 -1.14,15.80 -1.13,15.69 -1.12,15.59 -1.08,15.49 -1.04,15.39 -0.97,15.31 -0.91,15.23 -0.81,15.18 -0.72,15.12 -0.62,15.10 -0.51,15.08 -0.41,15.09 -0.30,15.10 -0.21,15.15 -0.11,15.19 -0.03,15.27 0.03,15.34 0.08,15.43 0.13,15.53 0.15,15.63 0.16,15.74 0.07,15.97 -0.01,16.19 -0.08,16.24 -0.14,16.29 -0.21,16.32 -0.28,16.36 -0.36,16.37 -0.44,16.39 -0.52,16.38 -0.59,16.38 -0.67,16.36 -0.75,16.34 -0.81,16.30 -0.88,16.25 -0.94,16.20 -1.00,16.14 -1.04,16.08 -1.08,16.01 -1.10,15.93 -1.13,15.86 -1.13,15.78 -1.14,15.70 -1.13,15.62 -1.11,15.55 -1.08,15.47 -1.05,15.40 -1.00,15.34 -0.95,15.27 0.29,15.69 1.55,16.11 2.08,15.66 2.60,15.21 3.00,14.08 3.40,12.95 3.70,11.61 4.00,10.27 4.06,9.02 4.12,7.76 4.01,6.65 3.89,5.55 3.80,4.33 3.70,3.11 3.08,3.16 2.47,3.22 2.50,3.37 2.53,3.52 2.53,3.68 2.52,3.84 2.48,3.99 2.44,4.14 2.36,4.27 2.28,4.41 2.18,4.52 2.07,4.63 1.94,4.72 1.81,4.80 1.66,4.85 1.51,4.90 1.36,4.92 1.20,4.93 1.05,4.91 0.89,4.88 0.75,4.82 0.61,4.76 0.48,4.67 0.35,4.58 0.26,4.46 0.16,4.34 0.09,4.20 0.02,4.06 -0.34,2.15 -0.71,0.24 -0.73,0.15 -0.75,0.06 -0.75,-0.02 -0.74,-0.11 -0.72,-0.20 -0.69,-0.29 -0.65,-0.37 -0.60,-0.44 -0.54,-0.51 -0.48,-0.58 -0.40,-0.63 -0.32,-0.68 -0.24,-0.71 -0.15,-0.74 -0.06,-0.74 0.02,-0.75 0.11,-0.74 0.20,-0.72 0.28,-0.69 0.37,-0.65 0.44,-0.60 0.51,-0.54 0.57,-0.47 0.63,-0.40 0.67,-0.32 0.71,-0.24 0.71,-0.24 L 0.71,-0.24 Z"/></g><g transform="translate(295.43282801541864 84.13798635467211) rotate(0 -0.9304758050447788 1.5728925617870857)" stroke="none"><path fill="#364fc7" d="M 0.38,0.76 Q 0.38,0.76 -0.15,1.40 -0.69,2.04 -0.54,0.76 -0.39,-0.52 -0.29,-0.56 -0.20,-0.61 -0.09,-0.62 0.00,-0.62 0.11,-0.60 0.21,-0.57 0.30,-0.52 0.39,-0.46 0.46,-0.38 0.53,-0.30 0.56,-0.20 0.60,-0.10 0.60,0.00 0.61,0.10 0.58,0.21 0.55,0.31 0.49,0.39 0.42,0.48 0.34,0.54 0.25,0.61 0.15,0.64 0.05,0.67 -0.05,0.67 -0.15,0.67 -0.25,0.63 -0.35,0.59 -0.44,0.53 -0.52,0.46 -0.58,0.37 -0.64,0.28 -0.66,0.18 -0.69,0.08 -0.68,-0.02 -0.67,-0.12 -0.63,-0.22 -0.59,-0.32 -0.52,-0.40 -0.45,-0.48 -0.36,-0.53 -0.26,-0.58 -0.16,-0.61 -0.06,-0.63 0.04,-0.61 0.14,-0.60 0.24,-0.55 0.34,-0.51 0.41,-0.43 0.49,-0.36 0.53,-0.26 0.58,-0.17 0.60,-0.06 0.61,0.03 0.59,0.14 0.57,0.24 0.52,0.34 0.47,0.43 0.39,0.50 0.31,0.57 0.31,0.57 0.31,0.57 0.19,2.66 0.06,4.75 -0.81,4.73 -1.69,4.72 -2.46,4.13 -3.23,3.54 -3.40,2.46 -3.57,1.38 -2.91,0.40 -2.25,-0.57 -1.31,-0.66 -0.38,-0.76 -0.28,-0.79 -0.18,-0.83 -0.08,-0.84 0.01,-0.85 0.11,-0.83 0.22,-0.82 0.31,-0.78 0.41,-0.74 0.49,-0.68 0.57,-0.62 0.64,-0.54 0.71,-0.47 0.75,-0.37 0.80,-0.28 0.82,-0.18 0.84,-0.08 0.84,0.01 0.84,0.11 0.81,0.21 0.79,0.31 0.74,0.40 0.69,0.49 0.62,0.57 0.55,0.64 0.46,0.70 0.38,0.76 0.38,0.76 L 0.38,0.76 Z"/></g><g transform="translate(301.1928718528415 85.20134376214827) rotate(0 -0.9969572179971635 2.2818008844159436)" stroke="none"><path fill="#364fc7" d="M 0.86,0.39 Q 0.86,0.39 0.39,1.61 -0.07,2.83 -0.08,2.32 -0.08,1.81 -0.13,1.88 -0.17,1.95 -0.22,2.00 -0.28,2.06 -0.35,2.10 -0.42,2.14 -0.49,2.16 -0.57,2.19 -0.65,2.19 -0.73,2.19 -0.80,2.18 -0.88,2.16 -0.95,2.13 -1.03,2.10 -1.09,2.05 -1.15,2.00 -1.20,1.93 -1.25,1.87 -1.28,1.80 -1.31,1.73 -1.32,1.65 -1.34,1.57 -1.33,1.49 -1.32,1.41 -1.30,1.34 -1.28,1.26 -1.22,1.18 -1.16,1.09 -1.08,1.03 -1.00,0.96 -0.90,0.93 -0.80,0.89 -0.69,0.89 -0.58,0.89 -0.48,0.92 -0.38,0.95 -0.30,1.02 -0.21,1.08 -0.15,1.17 -0.09,1.25 -0.06,1.36 -0.03,1.46 -0.03,1.56 -0.04,1.67 -0.07,1.77 -0.11,1.87 -0.18,1.95 -0.25,2.03 -0.34,2.09 -0.43,2.14 -0.53,2.17 -0.63,2.19 -0.74,2.18 -0.85,2.17 -0.94,2.13 -1.04,2.09 -1.12,2.02 -1.20,1.94 -1.25,1.85 -1.30,1.76 -1.32,1.65 -1.34,1.55 -1.32,1.44 -1.31,1.34 -1.26,1.24 -1.21,1.15 -1.13,1.07 -1.06,1.00 -0.96,0.95 -0.87,0.91 -0.76,0.90 -0.65,0.88 -0.55,0.90 -0.45,0.92 -0.35,0.98 -0.26,1.03 -0.19,1.11 -0.12,1.19 -0.08,1.29 -0.04,1.39 -0.03,1.49 -0.03,1.60 -0.05,1.70 -0.08,1.80 -0.08,1.81 -0.08,1.81 -0.13,1.88 -0.17,1.95 -0.22,2.00 -0.28,2.06 -0.35,2.10 -0.42,2.14 -0.49,2.16 -0.57,2.19 -0.65,2.19 -0.73,2.19 -0.80,2.18 -0.88,2.16 -0.95,2.13 -1.03,2.10 -1.09,2.05 -1.15,2.00 -1.20,1.93 -1.25,1.87 -1.28,1.80 -1.31,1.73 -1.32,1.65 -1.34,1.57 -1.33,1.49 -1.32,1.41 -1.30,1.34 -1.28,1.26 -1.69,1.58 -2.11,1.89 -1.48,0.75 -0.86,-0.39 -0.80,-0.49 -0.74,-0.59 -0.65,-0.67 -0.57,-0.75 -0.47,-0.81 -0.38,-0.86 -0.27,-0.90 -0.16,-0.93 -0.04,-0.93 0.06,-0.94 0.17,-0.92 0.29,-0.90 0.39,-0.85 0.49,-0.80 0.58,-0.73 0.67,-0.66 0.74,-0.57 0.81,-0.48 0.86,-0.37 0.90,-0.27 0.92,-0.16 0.94,-0.04 0.93,0.06 0.93,0.18 0.89,0.28 0.86,0.39 0.86,0.39 L 0.86,0.39 Z"/></g><g transform="translate(309.56709318063963 72.7511254820196) rotate(0 3.744056922540551 6.202955437702997)" stroke="none"><path fill="#364fc7" d="M 0.17,-0.86 Q 0.17,-0.86 1.10,-0.99 2.03,-1.12 2.87,-1.06 3.71,-1.00 4.45,-0.95 5.18,-0.89 5.90,-0.69 6.62,-0.49 7.20,0.45 7.79,1.40 7.62,2.14 7.45,2.88 6.77,3.59 6.08,4.30 5.39,4.88 4.71,5.46 4.21,5.98 3.71,6.50 3.39,6.98 3.07,7.46 3.15,8.09 3.22,8.72 3.61,9.10 4.00,9.48 4.44,9.82 4.89,10.15 6.12,10.90 7.34,11.64 7.44,11.67 7.55,11.69 7.63,11.75 7.72,11.81 7.79,11.89 7.85,11.98 7.89,12.08 7.92,12.18 7.93,12.28 7.93,12.39 7.89,12.49 7.86,12.59 7.80,12.68 7.74,12.76 7.65,12.82 7.56,12.88 7.46,12.91 7.36,12.94 7.25,12.94 7.15,12.94 7.05,12.90 6.95,12.86 6.86,12.79 6.78,12.72 6.73,12.63 6.67,12.54 6.65,12.44 6.62,12.34 6.63,12.23 6.64,12.13 6.69,12.03 6.73,11.93 6.80,11.85 6.87,11.78 6.97,11.72 7.06,11.67 7.16,11.65 7.27,11.64 7.37,11.65 7.48,11.67 7.57,11.72 7.67,11.76 7.74,11.84 7.82,11.92 7.86,12.01 7.91,12.11 7.92,12.21 7.93,12.32 7.91,12.42 7.89,12.53 7.84,12.62 7.78,12.71 7.70,12.78 7.62,12.85 7.53,12.89 7.43,12.93 7.32,12.94 7.22,12.95 7.22,12.95 7.22,12.95 5.16,12.71 3.10,12.47 2.43,11.94 1.75,11.40 1.06,10.51 0.37,9.61 0.18,8.66 -0.00,7.70 0.24,6.76 0.50,5.82 0.98,5.09 1.47,4.36 2.08,3.72 2.70,3.09 3.82,2.61 4.94,2.14 4.20,2.08 3.46,2.02 2.44,1.93 1.42,1.83 0.62,1.34 -0.17,0.86 -0.27,0.82 -0.37,0.79 -0.46,0.73 -0.55,0.68 -0.63,0.60 -0.70,0.52 -0.75,0.43 -0.81,0.34 -0.84,0.24 -0.86,0.13 -0.87,0.03 -0.87,-0.07 -0.85,-0.17 -0.83,-0.28 -0.78,-0.37 -0.74,-0.47 -0.67,-0.55 -0.60,-0.63 -0.52,-0.69 -0.43,-0.76 -0.34,-0.80 -0.24,-0.84 -0.13,-0.86 -0.03,-0.88 0.07,-0.87 0.17,-0.86 0.17,-0.86 L 0.17,-0.86 Z"/></g><g transform="translate(309.3898635617489 77.71349389335566) rotate(0 4.120649556815039 -0.15506576359521773)" stroke="none"><path fill="#364fc7" d="M 0.05,-1.02 Q 0.05,-1.02 1.19,-1.27 2.33,-1.52 3.39,-1.55 4.44,-1.58 5.95,-1.35 7.46,-1.11 7.57,-1.11 7.67,-1.11 7.77,-1.08 7.87,-1.04 7.96,-0.98 8.04,-0.91 8.10,-0.82 8.16,-0.74 8.19,-0.63 8.22,-0.53 8.21,-0.43 8.21,-0.32 8.17,-0.22 8.13,-0.12 8.06,-0.04 7.99,0.03 7.90,0.08 7.81,0.14 7.70,0.16 7.60,0.18 7.49,0.17 7.39,0.16 7.29,0.12 7.19,0.07 7.12,0.00 7.04,-0.07 6.99,-0.16 6.94,-0.25 6.92,-0.36 6.91,-0.46 6.92,-0.57 6.94,-0.67 6.99,-0.77 7.04,-0.86 7.12,-0.93 7.20,-1.01 7.29,-1.05 7.39,-1.09 7.50,-1.11 7.60,-1.12 7.70,-1.09 7.81,-1.07 7.90,-1.02 7.99,-0.96 8.06,-0.88 8.13,-0.80 8.17,-0.70 8.21,-0.60 8.21,-0.50 8.22,-0.39 8.19,-0.29 8.16,-0.19 8.10,-0.10 8.04,-0.01 7.96,0.04 7.87,0.11 7.77,0.14 7.67,0.18 7.67,0.18 7.67,0.18 6.13,0.91 4.59,1.64 3.36,1.71 2.14,1.78 1.04,1.40 -0.05,1.02 -0.17,0.99 -0.30,0.97 -0.41,0.92 -0.52,0.87 -0.62,0.80 -0.72,0.72 -0.79,0.62 -0.87,0.53 -0.92,0.41 -0.97,0.30 -0.99,0.18 -1.02,0.06 -1.01,-0.05 -1.00,-0.18 -0.97,-0.29 -0.93,-0.41 -0.87,-0.52 -0.80,-0.62 -0.72,-0.71 -0.63,-0.80 -0.52,-0.86 -0.42,-0.93 -0.30,-0.96 -0.18,-1.00 -0.06,-1.01 0.05,-1.02 0.05,-1.02 L 0.05,-1.02 Z"/></g><g transform="translate(321.35306589555813 86.48625849910624) rotate(0 -1.2406276381036037 -0.2215370236134504)" stroke="none"><path fill="#364fc7" d="M -0.63,0.57 Q -0.63,0.57 -1.21,0.38 -1.80,0.18 -0.63,-0.18 0.53,-0.55 0.54,-0.45 0.55,-0.34 0.52,-0.24 0.50,-0.13 0.44,-0.04 0.39,0.04 0.30,0.10 0.22,0.17 0.12,0.21 0.02,0.24 -0.07,0.25 -0.18,0.25 -0.28,0.22 -0.38,0.19 -0.47,0.13 -0.56,0.07 -0.62,-0.01 -0.68,-0.10 -0.71,-0.20 -0.75,-0.30 -0.74,-0.41 -0.74,-0.51 -0.70,-0.61 -0.67,-0.71 -0.60,-0.79 -0.54,-0.88 -0.45,-0.94 -0.36,-0.99 -0.25,-1.02 -0.15,-1.05 -0.05,-1.04 0.05,-1.03 0.15,-0.99 0.25,-0.95 0.33,-0.87 0.40,-0.80 0.46,-0.71 0.51,-0.62 0.53,-0.52 0.55,-0.41 0.54,-0.31 0.52,-0.20 0.48,-0.11 0.43,-0.01 0.35,0.06 0.28,0.13 0.19,0.18 0.09,0.23 -0.01,0.24 -0.11,0.26 -0.21,0.24 -0.32,0.22 -0.41,0.16 -0.50,0.11 -0.58,0.03 -0.65,-0.03 -0.69,-0.13 -0.73,-0.23 -0.73,-0.23 -0.73,-0.23 -1.01,1.11 -1.28,2.46 -2.11,2.22 -2.93,1.98 -3.40,1.22 -3.87,0.46 -3.72,-0.41 -3.58,-1.29 -2.88,-1.85 -2.18,-2.41 -1.08,-2.29 0.01,-2.17 0.32,-1.37 0.63,-0.57 0.69,-0.48 0.75,-0.40 0.79,-0.30 0.83,-0.21 0.84,-0.10 0.85,-0.00 0.84,0.09 0.83,0.19 0.79,0.29 0.76,0.39 0.70,0.47 0.64,0.56 0.56,0.63 0.49,0.70 0.40,0.75 0.30,0.79 0.20,0.82 0.10,0.85 0.00,0.85 -0.09,0.85 -0.19,0.82 -0.29,0.80 -0.39,0.75 -0.48,0.70 -0.56,0.64 -0.63,0.57 -0.63,0.57 L -0.63,0.57 Z"/></g><g transform="translate(324.7648172826785 66.10511630295807) rotate(0 0.6867647732016735 12.760359960253325)" stroke="none"><path fill="#364fc7" d="M 0.83,-0.31 Q 0.83,-0.31 1.69,1.12 2.55,2.55 3.10,4.08 3.66,5.60 3.99,7.64 4.33,9.69 4.17,12.44 4.02,15.20 3.39,17.80 2.75,20.40 0.90,22.92 -0.94,25.45 -1.01,25.52 -1.08,25.60 -1.17,25.65 -1.27,25.71 -1.37,25.73 -1.48,25.74 -1.58,25.73 -1.69,25.71 -1.78,25.67 -1.88,25.62 -1.95,25.54 -2.03,25.47 -2.07,25.37 -2.12,25.28 -2.13,25.17 -2.15,25.07 -2.13,24.96 -2.10,24.86 -2.05,24.77 -2.00,24.67 -1.92,24.60 -1.84,24.53 -1.74,24.49 -1.64,24.45 -1.54,24.44 -1.43,24.43 -1.33,24.46 -1.23,24.49 -1.14,24.54 -1.05,24.60 -0.98,24.69 -0.92,24.77 -0.88,24.87 -0.84,24.97 -0.84,25.08 -0.84,25.18 -0.87,25.28 -0.90,25.38 -0.97,25.47 -1.03,25.56 -1.12,25.62 -1.20,25.68 -1.30,25.71 -1.41,25.74 -1.51,25.74 -1.62,25.73 -1.72,25.69 -1.82,25.66 -1.90,25.59 -1.98,25.52 -2.04,25.43 -2.09,25.34 -2.12,25.24 -2.14,25.14 -2.14,25.03 -2.13,24.93 -2.08,24.83 -2.04,24.73 -2.04,24.73 -2.04,24.73 -1.10,22.23 -0.15,19.73 0.31,17.36 0.78,14.99 0.94,12.58 1.10,10.16 0.86,8.38 0.62,6.59 0.18,5.10 -0.25,3.60 -0.54,1.95 -0.83,0.31 -0.85,0.20 -0.88,0.10 -0.88,-0.00 -0.88,-0.11 -0.85,-0.21 -0.82,-0.32 -0.77,-0.41 -0.72,-0.51 -0.65,-0.58 -0.58,-0.66 -0.49,-0.73 -0.40,-0.79 -0.30,-0.82 -0.20,-0.86 -0.10,-0.87 0.00,-0.88 0.11,-0.87 0.21,-0.86 0.31,-0.82 0.41,-0.78 0.50,-0.72 0.59,-0.66 0.66,-0.58 0.73,-0.50 0.78,-0.40 0.83,-0.31 0.83,-0.31 L 0.83,-0.31 Z"/></g><g transform="translate(161.57788409092302 160.96603115626482) rotate(0 19.739314309587797 42.55670382476271)" stroke="none"><path fill="#364fc7" d="M 0.27,-0.71 Q 0.27,-0.71 1.21,-0.61 2.16,-0.51 2.93,-0.16 3.70,0.18 4.51,0.64 5.32,1.09 6.21,1.72 7.10,2.34 7.96,2.92 8.82,3.49 9.69,3.98 10.56,4.47 11.47,5.05 12.38,5.63 13.34,6.41 14.31,7.19 15.25,8.18 16.19,9.18 17.08,10.12 17.96,11.07 18.80,12.02 19.64,12.97 20.46,13.89 21.27,14.82 22.11,15.82 22.94,16.83 23.75,17.83 24.56,18.82 25.46,19.95 26.37,21.07 27.16,22.23 27.94,23.39 28.58,24.62 29.23,25.85 29.86,27.11 30.49,28.38 31.03,29.65 31.58,30.91 32.08,32.12 32.58,33.34 33.03,34.57 33.48,35.81 33.91,37.04 34.34,38.28 34.74,39.59 35.14,40.90 35.53,42.18 35.92,43.45 36.28,44.81 36.64,46.16 36.97,47.50 37.30,48.84 37.63,50.07 37.96,51.30 38.28,52.56 38.60,53.82 38.90,55.25 39.19,56.68 39.45,58.14 39.71,59.61 39.94,61.02 40.17,62.44 40.34,63.87 40.52,65.29 40.59,66.67 40.67,68.05 40.70,69.29 40.73,70.54 40.75,71.70 40.76,72.85 40.71,73.90 40.67,74.95 40.49,76.29 40.32,77.63 40.11,78.92 39.91,80.22 39.42,82.47 38.93,84.71 38.91,84.81 38.90,84.92 38.85,85.01 38.80,85.11 38.72,85.18 38.65,85.26 38.55,85.31 38.46,85.35 38.35,85.37 38.25,85.38 38.14,85.36 38.04,85.34 37.95,85.29 37.85,85.23 37.78,85.15 37.71,85.07 37.67,84.98 37.63,84.88 37.62,84.77 37.61,84.67 37.64,84.56 37.67,84.46 37.72,84.37 37.78,84.28 37.87,84.22 37.95,84.15 38.05,84.11 38.15,84.08 38.25,84.08 38.36,84.07 38.46,84.11 38.56,84.14 38.65,84.20 38.74,84.26 38.80,84.35 38.86,84.43 38.89,84.54 38.92,84.64 38.92,84.74 38.91,84.85 38.88,84.95 38.84,85.05 38.77,85.13 38.70,85.21 38.61,85.27 38.53,85.33 38.42,85.35 38.32,85.38 38.21,85.37 38.11,85.36 38.01,85.32 37.91,85.28 37.83,85.20 37.75,85.13 37.70,85.04 37.65,84.95 37.63,84.84 37.61,84.74 37.61,84.74 37.61,84.74 37.47,82.28 37.32,79.82 37.52,78.55 37.72,77.28 37.89,76.05 38.06,74.83 38.10,73.86 38.15,72.88 38.13,71.75 38.12,70.61 38.09,69.40 38.06,68.19 37.99,66.90 37.92,65.61 37.75,64.23 37.58,62.86 37.35,61.47 37.13,60.07 36.86,58.64 36.60,57.21 36.32,55.84 36.03,54.47 35.72,53.23 35.40,51.98 35.07,50.73 34.73,49.48 34.41,48.16 34.08,46.84 33.73,45.53 33.38,44.22 33.00,42.95 32.61,41.69 32.22,40.42 31.82,39.16 31.39,37.94 30.97,36.72 30.54,35.54 30.11,34.35 29.62,33.16 29.13,31.97 28.61,30.77 28.09,29.57 27.48,28.32 26.86,27.07 26.30,25.97 25.74,24.88 25.02,23.81 24.30,22.74 23.40,21.62 22.50,20.50 21.70,19.51 20.89,18.52 20.09,17.54 19.29,16.57 18.48,15.65 17.67,14.73 16.84,13.81 16.01,12.89 15.13,11.94 14.25,10.99 13.44,10.11 12.63,9.23 11.80,8.54 10.96,7.85 10.11,7.30 9.26,6.75 8.31,6.21 7.36,5.67 6.47,5.08 5.58,4.48 4.80,3.92 4.02,3.36 3.30,2.93 2.58,2.51 1.91,2.17 1.25,1.83 0.48,1.27 -0.27,0.71 -0.35,0.66 -0.43,0.62 -0.50,0.56 -0.57,0.50 -0.62,0.42 -0.67,0.34 -0.70,0.26 -0.74,0.17 -0.75,0.08 -0.76,-0.00 -0.74,-0.09 -0.73,-0.18 -0.70,-0.27 -0.67,-0.35 -0.61,-0.43 -0.56,-0.50 -0.49,-0.56 -0.42,-0.63 -0.34,-0.67 -0.26,-0.71 -0.17,-0.73 -0.08,-0.75 0.00,-0.75 0.09,-0.75 0.18,-0.73 0.27,-0.71 0.27,-0.71 L 0.27,-0.71 Z"/></g><g transform="translate(210.49411175124123 183.87267511573788) rotate(0 -0.5317091625405794 9.791794302635736)" stroke="none"><path fill="#364fc7" d="M 0.86,0 Q 0.86,0 1.04,1.47 1.21,2.95 1.24,4.61 1.26,6.27 1.17,8.07 1.08,9.87 0.94,11.63 0.80,13.39 0.64,14.78 0.49,16.16 0.05,17.75 -0.38,19.34 -0.41,19.44 -0.43,19.55 -0.49,19.64 -0.55,19.72 -0.63,19.79 -0.71,19.86 -0.81,19.90 -0.91,19.93 -1.02,19.94 -1.12,19.94 -1.22,19.91 -1.33,19.88 -1.41,19.82 -1.50,19.75 -1.56,19.67 -1.62,19.58 -1.65,19.48 -1.69,19.38 -1.68,19.27 -1.68,19.17 -1.65,19.07 -1.61,18.97 -1.54,18.88 -1.48,18.80 -1.39,18.74 -1.30,18.69 -1.19,18.66 -1.09,18.63 -0.99,18.64 -0.88,18.65 -0.78,18.69 -0.68,18.73 -0.61,18.80 -0.53,18.87 -0.47,18.97 -0.42,19.06 -0.40,19.16 -0.38,19.27 -0.39,19.37 -0.41,19.48 -0.45,19.57 -0.50,19.67 -0.58,19.74 -0.65,19.82 -0.75,19.87 -0.84,19.92 -0.95,19.93 -1.05,19.94 -1.16,19.93 -1.26,19.91 -1.35,19.85 -1.45,19.80 -1.52,19.72 -1.59,19.64 -1.63,19.55 -1.67,19.45 -1.68,19.34 -1.69,19.24 -1.69,19.24 -1.69,19.24 -1.86,17.57 -2.03,15.91 -1.91,14.54 -1.78,13.17 -1.64,11.45 -1.49,9.72 -1.38,8.00 -1.26,6.27 -1.24,4.61 -1.21,2.95 -1.04,1.47 -0.86,0 -0.85,-0.10 -0.84,-0.20 -0.80,-0.30 -0.76,-0.40 -0.70,-0.48 -0.64,-0.57 -0.57,-0.64 -0.49,-0.71 -0.40,-0.76 -0.30,-0.81 -0.20,-0.83 -0.10,-0.86 0.00,-0.86 0.10,-0.86 0.20,-0.83 0.30,-0.81 0.40,-0.76 0.49,-0.71 0.57,-0.64 0.64,-0.57 0.70,-0.48 0.76,-0.40 0.80,-0.30 0.84,-0.20 0.85,-0.10 0.86,0.00 0.86,0.00 L 0.86,0 Z"/></g><g transform="translate(213.5514039005801 182.94221961656143) rotate(0 4.275705167476133 6.136494330618973)" stroke="none"><path fill="#364fc7" d="M -0.32,-0.79 Q -0.32,-0.79 0.37,-1.41 1.07,-2.02 2.11,-2.27 3.15,-2.52 4.19,-2.58 5.23,-2.64 6.18,-2.40 7.14,-2.17 7.93,-1.57 8.72,-0.97 9.12,-0.02 9.52,0.93 9.30,1.83 9.08,2.73 8.36,3.40 7.64,4.07 7.08,4.41 6.53,4.75 6.51,4.21 6.49,3.67 7.32,4.40 8.15,5.14 8.68,6.11 9.22,7.08 9.59,8.13 9.95,9.19 10.01,10.35 10.07,11.52 9.47,12.57 8.87,13.62 7.65,14.16 6.43,14.71 5.03,14.55 3.63,14.39 2.29,12.65 0.96,10.91 0.91,10.81 0.87,10.72 0.85,10.61 0.83,10.51 0.85,10.40 0.87,10.30 0.92,10.20 0.97,10.11 1.05,10.04 1.13,9.97 1.23,9.92 1.32,9.88 1.43,9.87 1.54,9.86 1.64,9.89 1.74,9.91 1.83,9.97 1.92,10.02 1.99,10.10 2.06,10.19 2.10,10.29 2.13,10.38 2.14,10.49 2.14,10.60 2.11,10.70 2.08,10.80 2.02,10.89 1.96,10.97 1.88,11.04 1.79,11.10 1.69,11.13 1.59,11.17 1.48,11.16 1.38,11.16 1.28,11.13 1.17,11.09 1.09,11.03 1.01,10.96 0.95,10.87 0.89,10.78 0.86,10.68 0.84,10.58 0.84,10.47 0.85,10.37 0.89,10.27 0.93,10.17 1.00,10.09 1.07,10.01 1.17,9.96 1.26,9.90 1.36,9.88 1.47,9.86 1.57,9.87 1.68,9.89 1.77,9.93 1.87,9.98 1.94,10.05 2.02,10.13 2.02,10.13 2.02,10.13 3.11,10.81 4.19,11.49 4.85,11.58 5.51,11.67 6.25,11.47 6.99,11.26 6.97,10.70 6.95,10.14 6.71,9.35 6.47,8.56 6.05,7.77 5.64,6.98 5.25,6.42 4.87,5.87 4.35,5.15 3.84,4.43 3.98,3.63 4.12,2.83 4.51,2.46 4.91,2.08 5.76,1.64 6.62,1.21 5.96,0.78 5.30,0.35 4.54,0.37 3.78,0.38 2.98,0.54 2.18,0.70 1.25,0.74 0.32,0.79 0.22,0.82 0.12,0.84 0.01,0.84 -0.08,0.85 -0.18,0.82 -0.28,0.80 -0.37,0.76 -0.46,0.71 -0.54,0.64 -0.62,0.58 -0.68,0.49 -0.74,0.41 -0.78,0.31 -0.82,0.22 -0.84,0.12 -0.85,0.01 -0.84,-0.08 -0.83,-0.18 -0.80,-0.28 -0.76,-0.38 -0.71,-0.46 -0.65,-0.55 -0.57,-0.62 -0.50,-0.69 -0.41,-0.74 -0.32,-0.79 -0.32,-0.79 L -0.32,-0.79 Z"/></g><g transform="translate(123.16275502030197 192.0251360553708) rotate(0 -17.25799811577552 -7.886626664230974)" stroke="none"><path fill="#364fc7" d="M -0.56,0.60 Q -0.56,0.60 -1.07,0.22 -1.59,-0.15 -2.24,-0.81 -2.90,-1.46 -3.48,-2.15 -4.05,-2.83 -4.72,-3.57 -5.38,-4.31 -5.79,-4.72 -6.20,-5.12 -6.62,-5.50 -7.05,-5.88 -7.56,-6.24 -8.06,-6.60 -8.61,-7.03 -9.15,-7.47 -9.72,-7.93 -10.28,-8.39 -10.80,-8.73 -11.32,-9.07 -11.88,-9.40 -12.44,-9.73 -13.03,-10.00 -13.61,-10.26 -14.24,-10.57 -14.88,-10.88 -15.49,-11.22 -16.10,-11.55 -16.72,-11.92 -17.33,-12.28 -17.82,-12.57 -18.31,-12.85 -19.30,-13.13 -20.29,-13.41 -20.83,-13.48 -21.37,-13.56 -21.98,-13.66 -22.58,-13.76 -23.16,-13.87 -23.75,-13.97 -24.73,-14.13 -25.71,-14.28 -26.76,-14.34 -27.81,-14.39 -28.36,-14.40 -28.91,-14.40 -29.49,-14.40 -30.07,-14.40 -31.93,-14.18 -33.80,-13.95 -33.86,-13.87 -33.93,-13.78 -34.01,-13.72 -34.10,-13.66 -34.21,-13.63 -34.31,-13.61 -34.41,-13.61 -34.52,-13.62 -34.62,-13.66 -34.72,-13.70 -34.80,-13.77 -34.88,-13.84 -34.93,-13.93 -34.99,-14.02 -35.01,-14.12 -35.03,-14.23 -35.02,-14.33 -35.01,-14.44 -34.96,-14.54 -34.92,-14.63 -34.84,-14.71 -34.77,-14.78 -34.68,-14.83 -34.58,-14.88 -34.48,-14.90 -34.37,-14.92 -34.27,-14.90 -34.16,-14.88 -34.07,-14.83 -33.98,-14.78 -33.90,-14.70 -33.83,-14.63 -33.79,-14.53 -33.74,-14.43 -33.73,-14.33 -33.72,-14.22 -33.74,-14.12 -33.77,-14.01 -33.82,-13.92 -33.88,-13.83 -33.96,-13.76 -34.04,-13.70 -34.14,-13.66 -34.24,-13.62 -34.34,-13.61 -34.45,-13.61 -34.55,-13.64 -34.65,-13.67 -34.74,-13.73 -34.83,-13.79 -34.89,-13.87 -34.96,-13.96 -34.99,-14.06 -35.02,-14.16 -35.02,-14.26 -35.02,-14.37 -34.99,-14.47 -34.95,-14.57 -34.95,-14.57 -34.95,-14.57 -33.09,-15.80 -31.23,-17.04 -30.64,-17.08 -30.05,-17.12 -29.46,-17.12 -28.88,-17.11 -28.30,-17.10 -27.73,-17.09 -27.12,-17.08 -26.52,-17.06 -25.94,-17.01 -25.35,-16.97 -24.31,-16.80 -23.26,-16.63 -22.69,-16.52 -22.12,-16.42 -21.56,-16.32 -20.99,-16.22 -20.34,-16.13 -19.69,-16.03 -18.99,-15.86 -18.28,-15.69 -17.62,-15.43 -16.97,-15.17 -16.46,-14.87 -15.94,-14.57 -15.39,-14.24 -14.83,-13.90 -14.26,-13.59 -13.68,-13.28 -13.08,-12.97 -12.48,-12.67 -11.78,-12.33 -11.07,-11.98 -10.47,-11.60 -9.86,-11.22 -9.25,-10.79 -8.64,-10.35 -8.09,-9.89 -7.55,-9.43 -7.06,-9.01 -6.56,-8.59 -5.99,-8.15 -5.41,-7.70 -4.93,-7.26 -4.45,-6.81 -4.04,-6.37 -3.62,-5.93 -2.93,-5.05 -2.24,-4.18 -1.76,-3.49 -1.27,-2.80 -0.75,-2.19 -0.24,-1.57 0.16,-1.09 0.56,-0.60 0.63,-0.52 0.69,-0.44 0.73,-0.35 0.78,-0.26 0.80,-0.17 0.82,-0.07 0.82,0.02 0.81,0.12 0.79,0.22 0.76,0.31 0.71,0.40 0.66,0.49 0.59,0.56 0.52,0.63 0.44,0.69 0.36,0.74 0.26,0.77 0.17,0.80 0.07,0.81 -0.02,0.82 -0.12,0.81 -0.22,0.79 -0.31,0.75 -0.40,0.72 -0.48,0.66 -0.56,0.60 -0.56,0.60 L -0.56,0.60 Z"/></g><g transform="translate(118.15595736903322 143.1546778222959) rotate(0 -5.804371548013904 9.282279454193144)" stroke="none"><path fill="#364fc7" d="M 0.76,0.47 Q 0.76,0.47 0.00,1.99 -0.76,3.51 -1.59,5.38 -2.42,7.26 -3.14,9.29 -3.86,11.32 -4.18,13.03 -4.50,14.74 -4.32,15.42 -4.13,16.11 -4.11,15.17 -4.09,14.22 -4.68,12.96 -5.27,11.69 -6.36,10.14 -7.46,8.58 -8.52,7.25 -9.58,5.91 -10.52,4.69 -11.45,3.48 -11.52,3.40 -11.60,3.32 -11.64,3.22 -11.68,3.13 -11.69,3.02 -11.70,2.91 -11.68,2.81 -11.65,2.71 -11.59,2.62 -11.54,2.53 -11.46,2.46 -11.37,2.39 -11.27,2.36 -11.17,2.32 -11.07,2.31 -10.96,2.31 -10.86,2.34 -10.76,2.37 -10.67,2.43 -10.59,2.49 -10.52,2.58 -10.46,2.66 -10.43,2.77 -10.40,2.87 -10.40,2.97 -10.40,3.08 -10.44,3.18 -10.47,3.28 -10.54,3.36 -10.60,3.45 -10.69,3.50 -10.78,3.56 -10.88,3.59 -10.99,3.62 -11.09,3.61 -11.20,3.60 -11.30,3.56 -11.39,3.52 -11.47,3.45 -11.55,3.38 -11.61,3.29 -11.66,3.19 -11.68,3.09 -11.70,2.98 -11.69,2.88 -11.67,2.77 -11.63,2.68 -11.58,2.58 -11.51,2.51 -11.43,2.43 -11.34,2.38 -11.24,2.34 -11.14,2.32 -11.03,2.30 -10.93,2.32 -10.82,2.34 -10.73,2.39 -10.64,2.45 -10.64,2.45 -10.64,2.45 -9.04,3.23 -7.45,4.02 -6.12,5.38 -4.80,6.75 -3.53,8.62 -2.25,10.49 -1.58,12.43 -0.90,14.37 -1.22,15.88 -1.53,17.40 -2.55,18.07 -3.56,18.73 -4.97,18.16 -6.38,17.59 -6.83,15.96 -7.29,14.34 -6.90,12.34 -6.51,10.34 -5.68,8.21 -4.85,6.08 -3.82,4.16 -2.80,2.24 -1.78,0.88 -0.76,-0.47 -0.69,-0.55 -0.62,-0.64 -0.54,-0.70 -0.45,-0.77 -0.35,-0.81 -0.25,-0.86 -0.15,-0.88 -0.04,-0.89 0.06,-0.89 0.17,-0.88 0.27,-0.85 0.37,-0.81 0.47,-0.75 0.56,-0.70 0.63,-0.62 0.71,-0.54 0.76,-0.45 0.82,-0.36 0.85,-0.25 0.88,-0.15 0.89,-0.04 0.89,0.06 0.87,0.17 0.85,0.27 0.81,0.37 0.76,0.47 0.76,0.47 L 0.76,0.47 Z"/></g><g transform="translate(203.89218661235066 294.81697482469707) rotate(0 -8.462825984309376 9.038588728218372)" stroke="none"><path fill="#364fc7" d="M 0.75,0.38 Q 0.75,0.38 0.19,1.74 -0.36,3.10 -1.10,4.58 -1.85,6.05 -2.71,7.64 -3.58,9.23 -4.74,10.96 -5.91,12.69 -7.23,14.10 -8.55,15.51 -9.96,16.53 -11.37,17.54 -12.88,17.91 -14.38,18.29 -15.55,17.54 -16.73,16.80 -17.29,15.27 -17.86,13.73 -17.70,12.07 -17.55,10.41 -17.04,9.20 -16.53,7.98 -15.62,7.23 -14.72,6.48 -13.66,6.56 -12.59,6.64 -11.64,7.58 -10.68,8.52 -9.94,9.77 -9.20,11.02 -8.37,12.25 -7.55,13.47 -6.55,14.34 -5.56,15.21 -4.38,15.67 -3.21,16.12 -1.60,16.34 0.00,16.55 0.10,16.57 0.20,16.59 0.30,16.64 0.39,16.69 0.46,16.77 0.53,16.85 0.57,16.95 0.61,17.05 0.62,17.16 0.63,17.26 0.60,17.36 0.57,17.47 0.52,17.56 0.46,17.65 0.37,17.71 0.29,17.78 0.19,17.81 0.09,17.85 -0.01,17.85 -0.11,17.85 -0.21,17.82 -0.31,17.79 -0.40,17.73 -0.49,17.66 -0.55,17.58 -0.61,17.49 -0.64,17.39 -0.67,17.29 -0.66,17.18 -0.66,17.07 -0.62,16.97 -0.59,16.87 -0.52,16.79 -0.45,16.71 -0.36,16.65 -0.27,16.60 -0.17,16.57 -0.06,16.55 0.03,16.56 0.14,16.57 0.23,16.61 0.33,16.65 0.41,16.72 0.49,16.80 0.54,16.89 0.59,16.98 0.61,17.09 0.63,17.19 0.61,17.30 0.60,17.40 0.55,17.50 0.50,17.59 0.43,17.66 0.35,17.74 0.26,17.79 0.16,17.83 0.05,17.85 -0.04,17.86 -0.04,17.86 -0.04,17.86 -1.95,17.94 -3.86,18.03 -5.44,17.49 -7.02,16.96 -8.25,15.87 -9.47,14.77 -10.33,13.46 -11.19,12.15 -11.78,11.04 -12.37,9.93 -13.24,9.00 -14.10,8.07 -14.54,8.41 -14.98,8.75 -15.40,9.69 -15.83,10.63 -16.02,11.95 -16.20,13.26 -15.90,14.40 -15.60,15.54 -14.97,16.01 -14.34,16.48 -13.52,16.09 -12.70,15.71 -11.52,14.77 -10.34,13.83 -9.17,12.56 -7.99,11.28 -6.88,9.64 -5.76,8.00 -4.86,6.44 -3.96,4.88 -3.12,3.51 -2.28,2.13 -1.52,0.87 -0.75,-0.38 -0.70,-0.46 -0.64,-0.55 -0.56,-0.62 -0.49,-0.69 -0.40,-0.74 -0.31,-0.78 -0.21,-0.81 -0.11,-0.84 -0.01,-0.84 0.08,-0.84 0.18,-0.82 0.28,-0.79 0.38,-0.75 0.47,-0.70 0.54,-0.64 0.62,-0.57 0.68,-0.49 0.74,-0.40 0.78,-0.31 0.82,-0.21 0.83,-0.11 0.84,-0.01 0.83,0.08 0.82,0.19 0.79,0.28 0.75,0.38 0.75,0.38 L 0.75,0.38 Z"/></g><g transform="translate(149.13515878483153 173.74318210350336) rotate(0 2.460149129231766 3.181440565321182)" stroke="none"><path fill="#364fc7" d="M 0.66,-0.46 Q 0.66,-0.46 1.25,0.35 1.84,1.18 2.37,1.80 2.89,2.42 4.03,4.00 5.16,5.58 5.21,5.68 5.26,5.77 5.27,5.88 5.29,5.98 5.27,6.09 5.25,6.19 5.20,6.28 5.15,6.38 5.07,6.45 4.99,6.52 4.90,6.57 4.80,6.61 4.69,6.62 4.59,6.63 4.48,6.60 4.38,6.58 4.29,6.52 4.20,6.47 4.13,6.39 4.06,6.31 4.03,6.21 3.99,6.11 3.98,6.00 3.98,5.89 4.01,5.79 4.04,5.69 4.10,5.60 4.16,5.52 4.24,5.45 4.33,5.39 4.43,5.36 4.53,5.32 4.64,5.33 4.74,5.33 4.85,5.36 4.95,5.40 5.03,5.46 5.11,5.53 5.17,5.62 5.23,5.71 5.26,5.81 5.28,5.91 5.28,6.02 5.27,6.12 5.23,6.22 5.19,6.32 5.12,6.40 5.05,6.48 4.96,6.53 4.87,6.59 4.76,6.61 4.66,6.63 4.55,6.62 4.45,6.60 4.35,6.56 4.26,6.51 4.18,6.44 4.10,6.36 4.10,6.36 4.10,6.36 2.86,4.93 1.62,3.49 1.05,2.81 0.49,2.13 -0.08,1.30 -0.66,0.46 -0.71,0.38 -0.75,0.29 -0.78,0.20 -0.80,0.10 -0.80,0.00 -0.80,-0.09 -0.78,-0.18 -0.76,-0.28 -0.71,-0.36 -0.67,-0.45 -0.61,-0.53 -0.54,-0.60 -0.46,-0.66 -0.38,-0.71 -0.29,-0.75 -0.20,-0.78 -0.10,-0.80 -0.00,-0.81 0.08,-0.80 0.18,-0.79 0.27,-0.75 0.37,-0.72 0.45,-0.66 0.53,-0.61 0.59,-0.54 0.66,-0.46 0.66,-0.46 L 0.66,-0.46 Z"/></g><g transform="translate(159.0497265202916 188.17068929208844) rotate(0 1.2763383653428804 3.2369401719835054)" stroke="none"><path fill="#364fc7" d="M 0.75,-0.30 Q 0.75,-0.30 1.15,0.67 1.55,1.64 2.25,3.68 2.96,5.72 2.98,5.83 3.01,5.93 2.99,6.04 2.98,6.14 2.94,6.24 2.89,6.33 2.82,6.41 2.74,6.49 2.65,6.54 2.55,6.58 2.45,6.60 2.34,6.62 2.24,6.60 2.14,6.58 2.04,6.53 1.95,6.48 1.88,6.40 1.80,6.32 1.76,6.23 1.72,6.13 1.71,6.02 1.70,5.92 1.72,5.82 1.74,5.71 1.80,5.62 1.85,5.53 1.94,5.46 2.02,5.39 2.12,5.36 2.22,5.32 2.32,5.31 2.43,5.31 2.53,5.34 2.63,5.37 2.72,5.43 2.81,5.49 2.87,5.57 2.93,5.66 2.97,5.76 3.00,5.86 3.00,5.97 3.00,6.07 2.96,6.17 2.93,6.27 2.86,6.36 2.80,6.44 2.71,6.50 2.62,6.56 2.52,6.59 2.42,6.61 2.31,6.61 2.20,6.60 2.11,6.56 2.01,6.52 1.93,6.45 1.85,6.38 1.79,6.29 1.74,6.20 1.74,6.20 1.74,6.20 0.88,4.23 0.02,2.26 -0.36,1.28 -0.75,0.30 -0.78,0.21 -0.81,0.11 -0.81,0.01 -0.81,-0.08 -0.79,-0.17 -0.77,-0.27 -0.72,-0.36 -0.68,-0.45 -0.61,-0.52 -0.55,-0.60 -0.47,-0.65 -0.39,-0.71 -0.30,-0.75 -0.21,-0.79 -0.11,-0.80 -0.01,-0.81 0.08,-0.80 0.18,-0.79 0.27,-0.76 0.36,-0.73 0.44,-0.67 0.53,-0.62 0.59,-0.55 0.66,-0.47 0.71,-0.39 0.75,-0.30 0.75,-0.30 L 0.75,-0.30 Z"/></g><g transform="translate(170.29614918196694 220.1331560618367) rotate(0 -0.31446668836805713 4.587207370334198)" stroke="none"><path fill="#364fc7" d="M 0.80,0.05 Q 0.80,0.05 0.68,1.77 0.57,3.50 0.31,6.09 0.06,8.68 0.03,8.78 0.01,8.89 -0.04,8.98 -0.09,9.07 -0.17,9.13 -0.26,9.20 -0.36,9.24 -0.46,9.28 -0.56,9.28 -0.67,9.29 -0.77,9.26 -0.87,9.22 -0.96,9.16 -1.05,9.10 -1.11,9.02 -1.17,8.93 -1.20,8.83 -1.24,8.73 -1.23,8.62 -1.23,8.52 -1.20,8.42 -1.16,8.32 -1.10,8.23 -1.03,8.15 -0.94,8.09 -0.85,8.03 -0.75,8.01 -0.65,7.98 -0.54,7.99 -0.43,7.99 -0.34,8.04 -0.24,8.08 -0.16,8.15 -0.08,8.22 -0.03,8.31 0.02,8.40 0.04,8.50 0.06,8.61 0.05,8.71 0.03,8.82 -0.00,8.92 -0.05,9.01 -0.12,9.09 -0.20,9.16 -0.29,9.21 -0.39,9.26 -0.49,9.27 -0.60,9.29 -0.70,9.27 -0.81,9.25 -0.90,9.20 -0.99,9.15 -1.06,9.07 -1.14,8.99 -1.18,8.90 -1.22,8.80 -1.23,8.69 -1.24,8.59 -1.24,8.59 -1.24,8.59 -1.14,5.99 -1.04,3.39 -0.92,1.66 -0.80,-0.05 -0.78,-0.14 -0.76,-0.24 -0.72,-0.33 -0.68,-0.42 -0.62,-0.49 -0.56,-0.57 -0.48,-0.63 -0.41,-0.69 -0.32,-0.72 -0.23,-0.76 -0.13,-0.78 -0.04,-0.80 0.05,-0.79 0.15,-0.78 0.24,-0.75 0.33,-0.72 0.41,-0.67 0.50,-0.62 0.56,-0.55 0.63,-0.49 0.68,-0.40 0.73,-0.32 0.76,-0.23 0.79,-0.13 0.79,-0.04 0.80,0.05 0.80,0.05 L 0.80,0.05 Z"/></g><g transform="translate(170.48111961382457 247.65640028384192) rotate(0 -1.4058007134331518 5.345577663845475)" stroke="none"><path fill="#364fc7" d="M 0.78,0.17 Q 0.78,0.17 0.40,1.86 0.02,3.56 -0.30,4.90 -0.62,6.24 -1.34,8.36 -2.06,10.49 -2.11,10.58 -2.15,10.68 -2.23,10.75 -2.30,10.83 -2.40,10.88 -2.49,10.92 -2.60,10.94 -2.70,10.95 -2.81,10.93 -2.91,10.91 -3.01,10.86 -3.10,10.81 -3.17,10.73 -3.24,10.65 -3.28,10.55 -3.32,10.46 -3.33,10.35 -3.34,10.24 -3.32,10.14 -3.29,10.04 -3.23,9.95 -3.18,9.86 -3.09,9.79 -3.01,9.72 -2.91,9.69 -2.81,9.65 -2.71,9.65 -2.60,9.64 -2.50,9.68 -2.40,9.71 -2.31,9.77 -2.22,9.83 -2.16,9.92 -2.10,10.00 -2.07,10.10 -2.04,10.21 -2.04,10.31 -2.04,10.42 -2.08,10.52 -2.12,10.62 -2.18,10.70 -2.25,10.78 -2.34,10.84 -2.43,10.90 -2.53,10.92 -2.63,10.95 -2.74,10.94 -2.84,10.93 -2.94,10.89 -3.04,10.85 -3.12,10.78 -3.20,10.71 -3.25,10.62 -3.30,10.52 -3.32,10.42 -3.34,10.31 -3.33,10.21 -3.32,10.10 -3.32,10.10 -3.32,10.10 -2.75,7.98 -2.19,5.86 -1.87,4.53 -1.55,3.20 -1.17,1.51 -0.78,-0.17 -0.75,-0.26 -0.72,-0.36 -0.66,-0.44 -0.61,-0.52 -0.54,-0.58 -0.47,-0.65 -0.38,-0.70 -0.30,-0.74 -0.20,-0.77 -0.11,-0.79 -0.01,-0.80 0.08,-0.80 0.17,-0.78 0.27,-0.76 0.35,-0.71 0.44,-0.67 0.51,-0.60 0.59,-0.54 0.65,-0.46 0.70,-0.38 0.74,-0.29 0.77,-0.20 0.79,-0.11 0.80,-0.01 0.79,0.08 0.78,0.17 0.78,0.17 L 0.78,0.17 Z"/></g><g transform="translate(162.37926211056939 277.36227864755716) rotate(0 -2.737604777018234 3.2369316948784785)" stroke="none"><path fill="#364fc7" d="M 0.60,0.52 Q 0.60,0.52 -0.68,2.04 -1.98,3.56 -3.21,4.92 -4.45,6.27 -4.53,6.34 -4.61,6.41 -4.71,6.45 -4.81,6.49 -4.91,6.50 -5.02,6.50 -5.12,6.47 -5.22,6.45 -5.31,6.39 -5.40,6.33 -5.46,6.24 -5.53,6.16 -5.56,6.06 -5.60,5.96 -5.60,5.85 -5.60,5.75 -5.57,5.65 -5.53,5.54 -5.47,5.46 -5.40,5.37 -5.32,5.31 -5.23,5.25 -5.13,5.23 -5.02,5.20 -4.92,5.20 -4.81,5.21 -4.71,5.25 -4.61,5.28 -4.53,5.35 -4.45,5.42 -4.40,5.51 -4.34,5.60 -4.32,5.71 -4.29,5.81 -4.31,5.92 -4.32,6.02 -4.36,6.12 -4.40,6.21 -4.48,6.29 -4.55,6.37 -4.64,6.42 -4.74,6.47 -4.84,6.49 -4.95,6.51 -5.05,6.49 -5.16,6.47 -5.25,6.42 -5.34,6.37 -5.42,6.30 -5.49,6.22 -5.54,6.12 -5.58,6.03 -5.59,5.92 -5.61,5.82 -5.58,5.71 -5.56,5.61 -5.51,5.52 -5.45,5.43 -5.45,5.43 -5.45,5.43 -4.33,3.97 -3.21,2.51 -1.90,0.99 -0.60,-0.52 -0.53,-0.58 -0.46,-0.65 -0.38,-0.69 -0.29,-0.74 -0.20,-0.76 -0.11,-0.79 -0.01,-0.79 0.08,-0.79 0.17,-0.77 0.27,-0.75 0.35,-0.71 0.44,-0.66 0.51,-0.60 0.58,-0.54 0.64,-0.46 0.70,-0.38 0.73,-0.29 0.77,-0.20 0.78,-0.11 0.80,-0.01 0.79,0.08 0.78,0.17 0.74,0.26 0.71,0.35 0.66,0.43 0.60,0.52 0.60,0.52 L 0.60,0.52 Z"/></g><g transform="translate(138.6656627995885 294.2683387604044) rotate(0 -2.404649522569457 0.9618462456597285)" stroke="none"><path fill="#364fc7" d="M 0.36,0.70 Q 0.36,0.70 -2.01,1.60 -4.38,2.49 -4.49,2.50 -4.59,2.51 -4.70,2.48 -4.80,2.46 -4.89,2.40 -4.98,2.34 -5.05,2.26 -5.11,2.18 -5.15,2.08 -5.19,1.98 -5.19,1.87 -5.19,1.77 -5.16,1.66 -5.13,1.56 -5.07,1.48 -5.01,1.39 -4.92,1.33 -4.83,1.27 -4.73,1.23 -4.63,1.20 -4.53,1.20 -4.42,1.21 -4.32,1.24 -4.22,1.28 -4.14,1.35 -4.05,1.41 -4.00,1.50 -3.94,1.59 -3.91,1.69 -3.89,1.80 -3.90,1.90 -3.90,2.01 -3.95,2.11 -3.99,2.21 -4.06,2.28 -4.13,2.36 -4.22,2.42 -4.31,2.47 -4.42,2.49 -4.52,2.51 -4.63,2.49 -4.73,2.48 -4.83,2.43 -4.92,2.39 -5.00,2.31 -5.07,2.24 -5.12,2.14 -5.17,2.05 -5.18,1.94 -5.20,1.84 -5.18,1.73 -5.16,1.63 -5.11,1.53 -5.05,1.44 -4.98,1.37 -4.90,1.30 -4.80,1.26 -4.70,1.22 -4.70,1.22 -4.70,1.22 -2.53,0.25 -0.36,-0.70 -0.27,-0.74 -0.18,-0.77 -0.08,-0.78 0.00,-0.79 0.10,-0.78 0.19,-0.77 0.28,-0.73 0.37,-0.70 0.45,-0.64 0.53,-0.58 0.59,-0.51 0.66,-0.44 0.70,-0.35 0.74,-0.27 0.76,-0.18 0.79,-0.08 0.79,0.00 0.78,0.10 0.76,0.19 0.74,0.29 0.69,0.37 0.64,0.45 0.58,0.53 0.52,0.60 0.44,0.65 0.36,0.70 0.36,0.70 L 0.36,0.70 Z"/></g><g transform="translate(108.47801360253987 303.66473497351205) rotate(0 -5.456729465060768 1.2947760687933965)" stroke="none"><path fill="#364fc7" d="M 0.16,0.78 Q 0.16,0.78 -1.67,1.18 -3.50,1.59 -4.92,1.99 -6.33,2.38 -8.16,2.72 -9.98,3.05 -10.09,3.06 -10.19,3.06 -10.29,3.03 -10.40,3.01 -10.49,2.95 -10.57,2.89 -10.64,2.80 -10.70,2.72 -10.74,2.62 -10.77,2.52 -10.77,2.41 -10.77,2.30 -10.74,2.20 -10.70,2.10 -10.64,2.02 -10.58,1.93 -10.49,1.87 -10.40,1.81 -10.30,1.79 -10.19,1.76 -10.09,1.76 -9.98,1.77 -9.88,1.81 -9.79,1.85 -9.70,1.92 -9.62,1.98 -9.57,2.07 -9.51,2.17 -9.49,2.27 -9.47,2.37 -9.48,2.48 -9.49,2.58 -9.53,2.68 -9.58,2.78 -9.65,2.85 -9.72,2.93 -9.82,2.98 -9.91,3.03 -10.02,3.05 -10.12,3.07 -10.23,3.05 -10.33,3.03 -10.43,2.98 -10.52,2.93 -10.59,2.86 -10.67,2.78 -10.71,2.68 -10.76,2.59 -10.77,2.48 -10.78,2.38 -10.76,2.27 -10.73,2.17 -10.68,2.08 -10.62,1.99 -10.54,1.92 -10.46,1.85 -10.36,1.81 -10.26,1.77 -10.26,1.77 -10.27,1.77 -8.52,1.31 -6.78,0.85 -5.32,0.39 -3.85,-0.06 -2.00,-0.42 -0.16,-0.78 -0.06,-0.78 0.02,-0.79 0.12,-0.78 0.21,-0.76 0.30,-0.72 0.39,-0.69 0.47,-0.63 0.55,-0.57 0.61,-0.50 0.67,-0.42 0.71,-0.34 0.75,-0.25 0.77,-0.16 0.79,-0.06 0.79,0.02 0.78,0.12 0.76,0.21 0.73,0.30 0.68,0.39 0.63,0.47 0.57,0.54 0.50,0.61 0.42,0.66 0.34,0.71 0.25,0.75 0.16,0.78 0.16,0.78 L 0.16,0.78 Z"/></g><g transform="translate(73.55502810178032 309.0288096805433) rotate(0 -4.19891357421875 -0.35144382052951073)" stroke="none"><path fill="#364fc7" d="M -0.03,0.75 Q -0.03,0.75 -1.25,0.69 -2.46,0.64 -3.50,0.54 -4.55,0.44 -6.31,0.21 -8.06,-0.01 -8.17,-0.04 -8.27,-0.06 -8.36,-0.12 -8.45,-0.18 -8.51,-0.26 -8.58,-0.34 -8.62,-0.44 -8.65,-0.54 -8.66,-0.65 -8.66,-0.76 -8.63,-0.86 -8.59,-0.96 -8.53,-1.04 -8.47,-1.13 -8.38,-1.19 -8.30,-1.25 -8.20,-1.29 -8.09,-1.32 -7.99,-1.31 -7.88,-1.31 -7.78,-1.27 -7.68,-1.24 -7.60,-1.17 -7.52,-1.10 -7.46,-1.01 -7.40,-0.92 -7.38,-0.82 -7.35,-0.72 -7.36,-0.61 -7.37,-0.51 -7.41,-0.41 -7.45,-0.31 -7.53,-0.23 -7.60,-0.15 -7.69,-0.10 -7.78,-0.05 -7.89,-0.03 -7.99,-0.01 -8.10,-0.02 -8.20,-0.04 -8.30,-0.09 -8.39,-0.13 -8.47,-0.21 -8.54,-0.28 -8.59,-0.38 -8.64,-0.47 -8.65,-0.58 -8.66,-0.69 -8.64,-0.79 -8.62,-0.89 -8.57,-0.99 -8.52,-1.08 -8.44,-1.15 -8.36,-1.22 -8.26,-1.26 -8.16,-1.30 -8.06,-1.31 -7.95,-1.32 -7.95,-1.32 -7.95,-1.32 -6.17,-1.21 -4.40,-1.10 -3.39,-1.00 -2.38,-0.89 -1.17,-0.82 0.03,-0.75 0.12,-0.73 0.21,-0.72 0.30,-0.68 0.38,-0.65 0.45,-0.59 0.53,-0.53 0.58,-0.46 0.64,-0.39 0.68,-0.31 0.72,-0.23 0.73,-0.14 0.75,-0.05 0.75,0.03 0.74,0.13 0.71,0.21 0.69,0.30 0.64,0.38 0.59,0.46 0.53,0.52 0.47,0.59 0.39,0.63 0.31,0.68 0.22,0.71 0.14,0.74 0.05,0.74 -0.03,0.75 -0.03,0.75 L -0.03,0.75 Z"/></g><g transform="translate(53.13391943207546 309.3987505442586) rotate(0 -2.016190422905815 -1.5722317165798643)" stroke="none"><path fill="#364fc7" d="M -0.50,0.62 Q -0.50,0.62 -2.26,-0.84 -4.02,-2.31 -4.09,-2.39 -4.16,-2.46 -4.21,-2.56 -4.25,-2.66 -4.27,-2.76 -4.28,-2.87 -4.25,-2.97 -4.23,-3.07 -4.18,-3.17 -4.12,-3.26 -4.04,-3.33 -3.96,-3.39 -3.86,-3.43 -3.76,-3.47 -3.66,-3.48 -3.55,-3.49 -3.45,-3.46 -3.35,-3.43 -3.26,-3.37 -3.17,-3.31 -3.11,-3.23 -3.04,-3.14 -3.01,-3.04 -2.97,-2.94 -2.97,-2.83 -2.97,-2.73 -3.01,-2.63 -3.04,-2.53 -3.10,-2.44 -3.17,-2.36 -3.26,-2.30 -3.34,-2.24 -3.45,-2.21 -3.55,-2.18 -3.66,-2.19 -3.76,-2.19 -3.86,-2.23 -3.96,-2.27 -4.04,-2.34 -4.12,-2.41 -4.18,-2.50 -4.23,-2.59 -4.25,-2.69 -4.28,-2.80 -4.27,-2.90 -4.25,-3.01 -4.21,-3.10 -4.17,-3.20 -4.09,-3.28 -4.02,-3.35 -3.93,-3.40 -3.83,-3.45 -3.73,-3.47 -3.62,-3.49 -3.52,-3.47 -3.41,-3.46 -3.32,-3.41 -3.23,-3.36 -3.23,-3.36 -3.23,-3.36 -1.36,-1.99 0.50,-0.62 0.56,-0.55 0.63,-0.48 0.68,-0.39 0.73,-0.31 0.76,-0.22 0.78,-0.13 0.79,-0.03 0.79,0.06 0.77,0.15 0.75,0.24 0.71,0.33 0.67,0.42 0.61,0.49 0.55,0.57 0.47,0.63 0.40,0.69 0.31,0.72 0.22,0.76 0.13,0.78 0.03,0.79 -0.06,0.79 -0.15,0.78 -0.24,0.75 -0.33,0.72 -0.42,0.67 -0.50,0.62 -0.50,0.62 L -0.50,0.62 Z"/></g></svg>