<svg version="1.1" xmlns="http://www.w3.org/2000/svg" viewBox="0 0 646.4470042877988 402.9351081269853" width="646.4470042877988" height="402.9351081269853" filter="invert(93%) hue-rotate(180deg)">
  <!-- svg-source:excalidraw -->
  
  <defs>
    <style class="style-fonts">
      @font-face {
        font-family: "Virgil";
        src: url("https://excalidraw.com/Virgil.woff2");
      }
      @font-face {
        font-family: "Cascadia";
        src: url("https://excalidraw.com/Cascadia.woff2");
      }
    </style>
  </defs>
  <rect x="0" y="0" width="646.4470042877988" height="402.9351081269853" fill="#ffffff"/><g stroke-linecap="round"><g transform="translate(11.744398035293159 392.91918187178317) rotate(0 167.9184911797432 0)"><path d="M0 0 C55.97 0, 279.86 0, 335.84 0 M0 0 C55.97 0, 279.86 0, 335.84 0" stroke="#000000" stroke-width="0.5" fill="none"/></g><g transform="translate(11.744398035293159 392.91918187178317) rotate(0 167.9184911797432 0)"><path d="M335.84 0 L322.24 6.34 L322.24 -6.34 L335.84 0" stroke="none" stroke-width="0" fill="#000000" fill-rule="evenodd"/><path d="M335.84 0 C332.28 1.66, 328.72 3.32, 322.24 6.34 M335.84 0 C330.45 2.51, 325.07 5.02, 322.24 6.34 M322.24 6.34 C322.24 3.61, 322.24 0.89, 322.24 -6.34 M322.24 6.34 C322.24 3.31, 322.24 0.29, 322.24 -6.34 M322.24 -6.34 C325.82 -4.67, 329.4 -3, 335.84 0 M322.24 -6.34 C326.5 -4.35, 330.75 -2.37, 335.84 0 M335.84 0 C335.84 0, 335.84 0, 335.84 0 M335.84 0 C335.84 0, 335.84 0, 335.84 0" stroke="#000000" stroke-width="0.5" fill="none"/></g></g><mask/><g stroke-linecap="round"><g transform="translate(10 392.9351081269853) rotate(0 57.50948339141394 -54.780296087576914)"><path d="M0 0 C19.17 -18.26, 95.85 -91.3, 115.02 -109.56 M0 0 C19.17 -18.26, 95.85 -91.3, 115.02 -109.56" stroke="#000000" stroke-width="0.5" fill="none"/></g><g transform="translate(10 392.9351081269853) rotate(0 57.50948339141394 -54.780296087576914)"><path d="M115.02 -109.56 L109.55 -95.59 L100.8 -104.77 L115.02 -109.56" stroke="none" stroke-width="0" fill="#000000" fill-rule="evenodd"/><path d="M115.02 -109.56 C112.94 -104.27, 110.87 -98.97, 109.55 -95.59 M115.02 -109.56 C112.99 -104.39, 110.97 -99.22, 109.55 -95.59 M109.55 -95.59 C106.63 -98.65, 103.72 -101.72, 100.8 -104.77 M109.55 -95.59 C106.99 -98.28, 104.44 -100.96, 100.8 -104.77 M100.8 -104.77 C104.18 -105.91, 107.56 -107.05, 115.02 -109.56 M100.8 -104.77 C105.65 -106.4, 110.49 -108.04, 115.02 -109.56 M115.02 -109.56 C115.02 -109.56, 115.02 -109.56, 115.02 -109.56 M115.02 -109.56 C115.02 -109.56, 115.02 -109.56, 115.02 -109.56" stroke="#000000" stroke-width="0.5" fill="none"/></g></g><mask/><g stroke-linecap="round"><g transform="translate(11.4843994844843 389.79923898076777) rotate(0 74.92416686351808 -154.6537889159072)"><path d="M0 0 C24.97 -51.55, 124.87 -257.76, 149.85 -309.31 M0 0 C24.97 -51.55, 124.87 -257.76, 149.85 -309.31" stroke="#000000" stroke-width="0.5" fill="none"/></g><g transform="translate(11.4843994844843 389.79923898076777) rotate(0 74.92416686351808 -154.6537889159072)"><path d="M149.85 -309.31 L149.63 -294.31 L138.22 -299.84 L149.85 -309.31" stroke="none" stroke-width="0" fill="#000000" fill-rule="evenodd"/><path d="M149.85 -309.31 C149.77 -303.78, 149.68 -298.26, 149.63 -294.31 M149.85 -309.31 C149.79 -305.61, 149.74 -301.91, 149.63 -294.31 M149.63 -294.31 C147.01 -295.58, 144.4 -296.84, 138.22 -299.84 M149.63 -294.31 C147.17 -295.5, 144.71 -296.69, 138.22 -299.84 M138.22 -299.84 C140.67 -301.83, 143.11 -303.82, 149.85 -309.31 M138.22 -299.84 C142.84 -303.6, 147.47 -307.37, 149.85 -309.31 M149.85 -309.31 C149.85 -309.31, 149.85 -309.31, 149.85 -309.31 M149.85 -309.31 C149.85 -309.31, 149.85 -309.31, 149.85 -309.31" stroke="#000000" stroke-width="0.5" fill="none"/></g></g><mask/><g stroke-linecap="round"><g transform="translate(124.98659843042441 283.36937461316097) rotate(0 176.81591745637064 0)"><path d="M0 0 C58.94 0, 294.69 0, 353.63 0 M0 0 C58.94 0, 294.69 0, 353.63 0" stroke="#c92a2a" stroke-width="0.5" fill="none"/></g></g><mask/><g stroke-linecap="round"><g transform="translate(348.79470696522094 392.5725171373714) rotate(0 65.0522866623518 -54.4403804163849)"><path d="M0 0 C21.68 -18.15, 108.42 -90.73, 130.1 -108.88 M0 0 C21.68 -18.15, 108.42 -90.73, 130.1 -108.88" stroke="#c92a2a" stroke-width="0.5" fill="none"/></g></g><mask/><g stroke-linecap="round"><g transform="translate(161.35692036718746 80.39602823760572) rotate(0 180.68411305694445 0)"><path d="M0 0 C60.23 0, 301.14 0, 361.37 0 M0 0 C60.23 0, 301.14 0, 361.37 0" stroke="#c92a2a" stroke-width="0.5" fill="none"/></g></g><mask/><g stroke-linecap="round"><g transform="translate(346.99297213737964 391.3295607151747) rotate(0 87.81507293536177 -155.37270112733938)"><path d="M0 0 C29.27 -51.79, 146.36 -258.95, 175.63 -310.75 M0 0 C29.27 -51.79, 146.36 -258.95, 175.63 -310.75" stroke="#c92a2a" stroke-width="0.5" fill="none"/></g></g><mask/><g stroke-linecap="round"><g transform="translate(479.1560295166508 283.4981574915083) rotate(0 78.52011521882383 -136.59516186285816)"><path d="M0 0 C26.17 -45.53, 130.87 -227.66, 157.04 -273.19 M0 0 C26.17 -45.53, 130.87 -227.66, 157.04 -273.19" stroke="#c92a2a" stroke-width="0.5" fill="none"/></g></g><mask/><g stroke-linecap="round"><g transform="translate(125.00448525432085 283.3275894284434) rotate(0 63.41328879272251 -136.53739949762144)"><path d="M0 0 C21.14 -45.51, 105.69 -227.56, 126.83 -273.07 M0 0 C21.14 -45.51, 105.69 -227.56, 126.83 -273.07" stroke="#c92a2a" stroke-width="0.5" fill="none"/></g></g><mask/><g stroke-linecap="round"><g transform="translate(251.873730279016 10.019136083784986) rotate(0 192.28663700439137 0)"><path d="M0 0 C64.1 0, 320.48 0, 384.57 0 M0 0 C64.1 0, 320.48 0, 384.57 0" stroke="#c92a2a" stroke-width="0.5" fill="none"/></g></g><mask/><g stroke-linecap="round"><g transform="translate(522.0977600320368 80.52885920243347) rotate(0 56.91959810286028 -35.21772481479894)"><path d="M0 0 C18.97 -11.74, 94.87 -58.7, 113.84 -70.44 M0 0 C18.97 -11.74, 94.87 -58.7, 113.84 -70.44" stroke="#c92a2a" stroke-width="0.5" fill="none"/></g></g><mask/><g stroke-linecap="round"><g transform="translate(161.6715975201684 80.27227851832873) rotate(0 45.214690112483936 -35.136139259164366)"><path d="M0 0 C15.07 -11.71, 75.36 -58.56, 90.43 -70.27 M0 0 C15.07 -11.71, 75.36 -58.56, 90.43 -70.27" stroke="#c92a2a" stroke-width="0.5" fill="none"/></g></g><mask/></svg>