<svg version="1.1" xmlns="http://www.w3.org/2000/svg" viewBox="0 0 411.0191345214844 355.71490148595865" width="411.0191345214844" height="355.71490148595865" filter="invert(93%) hue-rotate(180deg)">
  <!-- svg-source:excalidraw -->
  
  <defs>
    <style class="style-fonts">
      @font-face {
        font-family: "Virgil";
        src: url("https://excalidraw.com/Virgil.woff2");
      }
      @font-face {
        font-family: "Cascadia";
        src: url("https://excalidraw.com/Cascadia.woff2");
      }
    </style>
  </defs>
  <rect x="0" y="0" width="411.0191345214844" height="355.71490148595865" fill="#ffffff"/><g stroke-linecap="round"><g transform="translate(11.731353759765625 222.15087890625) rotate(0 111.40583801269531 -79.30686950683594)"><path d="M0 0 C37.14 -26.44, 185.68 -132.18, 222.81 -158.61 M0 0 C37.14 -26.44, 185.68 -132.18, 222.81 -158.61" stroke="#000000" stroke-width="1" fill="none"/></g><g transform="translate(11.731353759765625 222.15087890625) rotate(0 111.40583801269531 -79.30686950683594)"><path d="M222.81 -158.61 L215.41 -145.57 L208.06 -155.89 L222.81 -158.61" stroke="none" stroke-width="0" fill="#000000" fill-rule="evenodd"/><path d="M222.81 -158.61 C220.59 -154.7, 218.37 -150.79, 215.41 -145.57 M222.81 -158.61 C221 -155.41, 219.18 -152.21, 215.41 -145.57 M215.41 -145.57 C212.71 -149.37, 210 -153.17, 208.06 -155.89 M215.41 -145.57 C213.93 -147.65, 212.45 -149.73, 208.06 -155.89 M208.06 -155.89 C212.48 -156.71, 216.9 -157.52, 222.81 -158.61 M208.06 -155.89 C212.3 -156.68, 216.53 -157.46, 222.81 -158.61 M222.81 -158.61 C222.81 -158.61, 222.81 -158.61, 222.81 -158.61 M222.81 -158.61 C222.81 -158.61, 222.81 -158.61, 222.81 -158.61" stroke="#000000" stroke-width="1" fill="none"/></g></g><mask/><g stroke-linecap="round"><g transform="translate(10 222.8167724609375) rotate(0 195.5095672607422 -17.213119506835938)"><path d="M0 0 C65.17 -5.74, 325.85 -28.69, 391.02 -34.43 M0 0 C65.17 -5.74, 325.85 -28.69, 391.02 -34.43" stroke="#000000" stroke-width="1" fill="none"/></g><g transform="translate(10 222.8167724609375) rotate(0 195.5095672607422 -17.213119506835938)"><path d="M391.02 -34.43 L378.03 -26.92 L376.92 -39.55 L391.02 -34.43" stroke="none" stroke-width="0" fill="#000000" fill-rule="evenodd"/><path d="M391.02 -34.43 C387.73 -32.53, 384.44 -30.62, 378.03 -26.92 M391.02 -34.43 C387.46 -32.37, 383.91 -30.32, 378.03 -26.92 M378.03 -26.92 C377.68 -30.88, 377.34 -34.84, 376.92 -39.55 M378.03 -26.92 C377.77 -29.96, 377.5 -32.99, 376.92 -39.55 M376.92 -39.55 C382.25 -37.61, 387.58 -35.67, 391.02 -34.43 M376.92 -39.55 C381.49 -37.89, 386.06 -36.23, 391.02 -34.43 M391.02 -34.43 C391.02 -34.43, 391.02 -34.43, 391.02 -34.43 M391.02 -34.43 C391.02 -34.43, 391.02 -34.43, 391.02 -34.43" stroke="#000000" stroke-width="1" fill="none"/></g></g><mask/><g stroke-linecap="round"><g transform="translate(10.904897555173818 223.9941461277792) rotate(0 122.20432579483708 60.86037767908972)"><path d="M0 0 C40.73 20.29, 203.67 101.43, 244.41 121.72" stroke="#000000" stroke-width="1" fill="none" stroke-dasharray="8 8.5"/></g><g transform="translate(10.904897555173818 223.9941461277792) rotate(0 122.20432579483708 60.86037767908972)"><path d="M244.41 121.72 L229.41 121.33 L235.07 109.99 L244.41 121.72" stroke="none" stroke-width="0" fill="#000000" fill-rule="evenodd"/><path d="M244.41 121.72 C241.21 121.64, 238 121.56, 229.41 121.33 M229.41 121.33 C230.91 118.32, 232.41 115.31, 235.07 109.99 M235.07 109.99 C238 113.67, 240.93 117.36, 244.41 121.72 M244.41 121.72 C244.41 121.72, 244.41 121.72, 244.41 121.72" stroke="#000000" stroke-width="1" fill="none"/></g></g><mask/><g transform="translate(148.50814819335938 33.9718017578125) rotate(0 11.320388793945312 9.255828857421875)" stroke="none"><path fill="#000000" d="M 0.87,-0.28 Q 0.87,-0.28 2.35,3.55 3.84,7.39 5.12,11.10 6.41,14.81 7.33,17.15 8.26,19.49 8.91,20.46 9.55,21.43 10.19,21.15 10.83,20.87 11.86,18.79 12.88,16.70 14.35,12.72 15.81,8.73 17.30,4.82 18.80,0.90 20.16,-2.02 21.53,-4.96 21.58,-5.05 21.63,-5.14 21.71,-5.21 21.79,-5.28 21.89,-5.32 21.99,-5.37 22.09,-5.37 22.20,-5.38 22.30,-5.36 22.40,-5.33 22.49,-5.27 22.58,-5.22 22.65,-5.13 22.71,-5.05 22.75,-4.95 22.79,-4.85 22.79,-4.74 22.79,-4.64 22.76,-4.54 22.73,-4.43 22.67,-4.35 22.60,-4.26 22.52,-4.20 22.43,-4.14 22.33,-4.11 22.23,-4.08 22.12,-4.08 22.01,-4.08 21.91,-4.12 21.81,-4.16 21.73,-4.23 21.65,-4.29 21.59,-4.38 21.54,-4.47 21.51,-4.58 21.49,-4.68 21.50,-4.78 21.50,-4.89 21.55,-4.99 21.59,-5.08 21.66,-5.16 21.73,-5.24 21.83,-5.29 21.92,-5.35 22.02,-5.37 22.13,-5.38 22.23,-5.37 22.34,-5.36 22.43,-5.31 22.53,-5.26 22.60,-5.18 22.68,-5.11 22.72,-5.01 22.77,-4.92 22.78,-4.81 22.80,-4.71 22.78,-4.60 22.76,-4.50 22.76,-4.50 22.76,-4.50 21.88,-1.42 21.00,1.65 19.78,5.69 18.56,9.72 17.06,13.99 15.56,18.27 13.84,20.84 12.13,23.41 10.47,23.63 8.82,23.85 7.22,22.22 5.61,20.58 4.67,18.15 3.73,15.71 2.51,11.97 1.29,8.22 0.20,4.25 -0.87,0.28 -0.89,0.17 -0.91,0.06 -0.90,-0.04 -0.90,-0.15 -0.87,-0.25 -0.84,-0.36 -0.78,-0.45 -0.73,-0.55 -0.65,-0.63 -0.57,-0.71 -0.48,-0.77 -0.38,-0.83 -0.28,-0.86 -0.17,-0.89 -0.06,-0.90 0.04,-0.91 0.15,-0.89 0.25,-0.88 0.36,-0.83 0.46,-0.79 0.55,-0.72 0.63,-0.65 0.70,-0.57 0.77,-0.48 0.82,-0.38 0.87,-0.28 0.87,-0.28 L 0.87,-0.28 Z"/></g><g transform="translate(145.84454345703125 16.459075927734375) rotate(0 8.423690795898438 -0.6658782958984375)" stroke="none"><path fill="#000000" d="M 0.02,-0.89 Q 0.02,-0.89 1.22,-1.11 2.41,-1.32 4.07,-1.37 5.73,-1.42 7.44,-1.65 9.14,-1.88 10.80,-2.08 12.45,-2.28 14.23,-2.15 16.01,-2.02 16.11,-2.02 16.22,-2.01 16.32,-1.97 16.42,-1.93 16.50,-1.87 16.58,-1.80 16.64,-1.71 16.69,-1.62 16.72,-1.52 16.74,-1.41 16.73,-1.31 16.72,-1.20 16.68,-1.10 16.63,-1.01 16.56,-0.93 16.49,-0.85 16.40,-0.80 16.30,-0.75 16.20,-0.73 16.09,-0.71 15.99,-0.73 15.88,-0.74 15.79,-0.79 15.70,-0.84 15.62,-0.92 15.55,-0.99 15.50,-1.09 15.46,-1.18 15.44,-1.29 15.43,-1.40 15.45,-1.50 15.47,-1.60 15.53,-1.69 15.58,-1.79 15.66,-1.86 15.74,-1.93 15.84,-1.97 15.94,-2.01 16.04,-2.01 16.15,-2.02 16.25,-1.99 16.35,-1.97 16.44,-1.91 16.53,-1.85 16.60,-1.77 16.66,-1.68 16.70,-1.58 16.73,-1.48 16.73,-1.38 16.74,-1.27 16.70,-1.17 16.67,-1.07 16.61,-0.98 16.54,-0.90 16.46,-0.84 16.37,-0.78 16.27,-0.75 16.17,-0.72 16.17,-0.72 16.17,-0.72 14.51,-0.17 12.86,0.37 11.19,0.68 9.53,0.99 7.65,1.23 5.77,1.48 4.05,1.48 2.32,1.48 1.14,1.18 -0.02,0.89 -0.13,0.87 -0.24,0.86 -0.34,0.82 -0.44,0.77 -0.52,0.71 -0.61,0.65 -0.68,0.56 -0.75,0.48 -0.80,0.38 -0.84,0.29 -0.87,0.18 -0.89,0.07 -0.88,-0.02 -0.88,-0.13 -0.85,-0.24 -0.82,-0.34 -0.77,-0.43 -0.72,-0.53 -0.64,-0.61 -0.57,-0.68 -0.48,-0.74 -0.39,-0.80 -0.28,-0.84 -0.18,-0.87 -0.07,-0.88 0.02,-0.89 0.02,-0.89 L 0.02,-0.89 Z"/></g><g transform="translate(160.69418334960938 10) rotate(0 2.8633880615234375 5.160614013671875)" stroke="none"><path fill="#000000" d="M 0.56,-0.70 Q 0.56,-0.70 1.76,-0.09 2.97,0.51 3.83,1.24 4.70,1.97 5.45,3.10 6.19,4.23 6.18,5.78 6.17,7.34 3.41,9.07 0.65,10.80 0.55,10.83 0.45,10.85 0.34,10.85 0.23,10.84 0.13,10.81 0.04,10.77 -0.04,10.70 -0.12,10.63 -0.17,10.54 -0.23,10.45 -0.25,10.34 -0.27,10.24 -0.26,10.14 -0.25,10.03 -0.21,9.93 -0.16,9.84 -0.09,9.76 -0.02,9.68 0.07,9.63 0.16,9.58 0.26,9.56 0.37,9.55 0.47,9.56 0.58,9.58 0.67,9.63 0.77,9.68 0.84,9.75 0.91,9.83 0.96,9.93 1.00,10.02 1.02,10.13 1.03,10.23 1.00,10.34 0.98,10.44 0.93,10.53 0.87,10.62 0.79,10.69 0.71,10.76 0.61,10.80 0.52,10.84 0.41,10.85 0.30,10.86 0.20,10.83 0.10,10.80 0.01,10.74 -0.07,10.68 -0.13,10.60 -0.20,10.51 -0.23,10.41 -0.27,10.31 -0.27,10.21 -0.27,10.10 -0.23,10.00 -0.20,9.90 -0.14,9.81 -0.07,9.73 0.01,9.67 0.09,9.61 0.09,9.61 0.09,9.61 1.71,8.14 3.34,6.66 3.45,6.08 3.57,5.50 3.18,4.83 2.79,4.17 1.97,3.47 1.16,2.77 0.30,1.74 -0.56,0.70 -0.63,0.62 -0.71,0.54 -0.76,0.45 -0.82,0.36 -0.85,0.25 -0.88,0.15 -0.89,0.04 -0.89,-0.06 -0.87,-0.16 -0.85,-0.27 -0.81,-0.37 -0.76,-0.47 -0.69,-0.55 -0.63,-0.64 -0.54,-0.70 -0.45,-0.77 -0.35,-0.81 -0.26,-0.86 -0.15,-0.87 -0.04,-0.89 0.06,-0.89 0.16,-0.88 0.27,-0.85 0.37,-0.81 0.46,-0.76 0.56,-0.70 0.56,-0.70 L 0.56,-0.70 Z"/></g><g transform="translate(333.1634826660156 154.89657592773438) rotate(0 3.6624755859375 9.588729858398438)" stroke="none"><path fill="#000000" d="M 0.80,0.18 Q 0.80,0.18 0.79,1.34 0.78,2.50 0.52,4.13 0.25,5.76 0.03,7.85 -0.18,9.95 -0.14,11.85 -0.10,13.76 0.55,14.87 1.20,15.98 2.15,16.42 3.09,16.85 4.10,16.62 5.10,16.40 6.63,14.62 8.16,12.85 8.24,12.77 8.32,12.70 8.41,12.65 8.51,12.61 8.62,12.60 8.72,12.58 8.82,12.61 8.93,12.63 9.02,12.68 9.11,12.74 9.18,12.82 9.25,12.90 9.29,13.00 9.33,13.09 9.34,13.20 9.34,13.31 9.32,13.41 9.29,13.51 9.23,13.60 9.17,13.69 9.09,13.75 9.00,13.82 8.90,13.85 8.80,13.89 8.69,13.89 8.59,13.89 8.49,13.86 8.39,13.82 8.30,13.76 8.22,13.70 8.16,13.61 8.10,13.52 8.07,13.42 8.04,13.32 8.04,13.21 8.05,13.10 8.09,13.00 8.12,12.91 8.19,12.82 8.26,12.74 8.35,12.69 8.44,12.63 8.55,12.61 8.65,12.58 8.76,12.60 8.86,12.61 8.96,12.65 9.05,12.69 9.13,12.77 9.21,12.84 9.26,12.93 9.31,13.03 9.33,13.13 9.35,13.24 9.33,13.34 9.31,13.45 9.26,13.54 9.22,13.63 9.22,13.63 9.22,13.63 7.60,16.06 5.97,18.49 4.13,18.98 2.28,19.48 0.54,18.55 -1.18,17.62 -2.12,15.80 -3.07,13.98 -3.11,11.78 -3.15,9.58 -2.83,7.40 -2.52,5.23 -2.14,3.58 -1.77,1.93 -1.29,0.87 -0.80,-0.18 -0.77,-0.27 -0.74,-0.36 -0.68,-0.45 -0.63,-0.53 -0.55,-0.60 -0.48,-0.67 -0.39,-0.72 -0.31,-0.76 -0.21,-0.79 -0.11,-0.82 -0.01,-0.82 0.08,-0.82 0.18,-0.80 0.27,-0.78 0.36,-0.73 0.45,-0.69 0.53,-0.62 0.60,-0.56 0.66,-0.48 0.72,-0.40 0.76,-0.30 0.80,-0.21 0.81,-0.11 0.82,-0.01 0.81,0.08 0.80,0.18 0.80,0.18 L 0.80,0.18 Z"/></g><g transform="translate(333.8294372558594 141.77862548828125) rotate(0 -0.133209228515625 0.7990570068359375)" stroke="none"><path fill="#000000" d="M 1.13,-0.35 Q 1.13,-0.35 1.14,-0.06 1.16,0.21 1.04,0.47 0.93,0.73 0.70,0.90 0.48,1.08 0.20,1.13 -0.07,1.18 -0.34,1.09 -0.61,1.01 -0.81,0.81 -1.01,0.61 -1.09,0.34 -1.18,0.07 -1.13,-0.20 -1.08,-0.48 -0.90,-0.70 -0.73,-0.93 -0.47,-1.04 -0.21,-1.16 0.06,-1.14 0.35,-1.13 0.59,-0.98 0.83,-0.83 0.98,-0.59 L 1.13,-0.35 Z"/></g><g transform="translate(322.1760559082031 142.9771728515625) rotate(0 11.620025634765625 -9.588729858398438)" stroke="none"><path fill="#000000" d="M -0.69,-0.63 Q -0.69,-0.63 -0.05,-1.69 0.58,-2.75 1.34,-4.30 2.10,-5.85 3.17,-8.18 4.23,-10.51 5.47,-13.02 6.71,-15.54 7.95,-17.18 9.19,-18.83 10.87,-19.06 12.56,-19.30 14.08,-17.80 15.60,-16.31 16.99,-13.79 18.39,-11.27 19.57,-8.72 20.76,-6.17 21.94,-3.45 23.12,-0.73 23.16,-0.63 23.20,-0.54 23.21,-0.43 23.21,-0.32 23.18,-0.22 23.15,-0.12 23.09,-0.03 23.03,0.05 22.95,0.11 22.86,0.17 22.76,0.21 22.66,0.24 22.56,0.24 22.45,0.24 22.35,0.21 22.25,0.17 22.16,0.11 22.08,0.04 22.02,-0.04 21.96,-0.12 21.93,-0.23 21.91,-0.33 21.91,-0.43 21.92,-0.54 21.96,-0.64 22.00,-0.74 22.07,-0.82 22.14,-0.90 22.23,-0.95 22.32,-1.01 22.42,-1.03 22.53,-1.05 22.63,-1.04 22.74,-1.03 22.83,-0.98 22.93,-0.94 23.01,-0.87 23.08,-0.79 23.13,-0.70 23.18,-0.60 23.20,-0.50 23.22,-0.39 23.20,-0.29 23.18,-0.18 23.13,-0.09 23.08,-0.00 23.00,0.07 22.92,0.14 22.83,0.18 22.73,0.23 22.63,0.24 22.52,0.25 22.42,0.23 22.31,0.20 22.22,0.15 22.13,0.09 22.06,0.01 21.99,-0.06 21.99,-0.06 21.99,-0.06 20.11,-2.49 18.22,-4.92 16.95,-7.35 15.69,-9.79 14.46,-12.06 13.24,-14.34 12.10,-15.53 10.96,-16.71 10.16,-15.47 9.37,-14.22 8.15,-11.75 6.93,-9.27 5.83,-6.87 4.72,-4.47 3.72,-2.65 2.71,-0.84 1.70,-0.10 0.69,0.63 0.61,0.71 0.52,0.78 0.42,0.83 0.32,0.88 0.20,0.91 0.09,0.93 -0.01,0.93 -0.12,0.93 -0.23,0.90 -0.34,0.87 -0.44,0.82 -0.54,0.76 -0.63,0.69 -0.71,0.61 -0.77,0.51 -0.84,0.42 -0.88,0.31 -0.92,0.21 -0.93,0.09 -0.94,-0.01 -0.92,-0.12 -0.91,-0.24 -0.87,-0.34 -0.82,-0.45 -0.76,-0.54 -0.69,-0.63 -0.69,-0.63 L -0.69,-0.63 Z"/></g><g transform="translate(358.0683288574219 163.41989135742188) rotate(0 3.72906494140625 -0.53271484375)" stroke="none"><path fill="#000000" d="M -0.01,-1.14 Q -0.01,-1.14 1.74,-1.31 3.49,-1.48 4.63,-1.41 5.77,-1.35 5.86,-1.34 5.95,-1.33 6.03,-1.30 6.11,-1.27 6.18,-1.22 6.25,-1.17 6.31,-1.11 6.37,-1.04 6.41,-0.96 6.45,-0.89 6.48,-0.80 6.50,-0.72 6.50,-0.63 6.50,-0.54 6.48,-0.46 6.46,-0.37 6.42,-0.30 6.38,-0.22 6.32,-0.15 6.27,-0.09 6.20,-0.04 6.12,0.00 6.04,0.04 5.96,0.07 5.87,0.08 5.79,0.09 4.16,0.24 2.52,0.38 2.42,0.37 2.31,0.37 2.21,0.33 2.12,0.29 2.03,0.22 1.95,0.15 1.90,0.06 1.84,-0.02 1.82,-0.12 1.80,-0.23 1.81,-0.33 1.82,-0.44 1.87,-0.53 1.91,-0.63 1.98,-0.71 2.06,-0.79 2.15,-0.83 2.24,-0.88 2.35,-0.90 2.45,-0.92 2.56,-0.90 2.66,-0.88 2.76,-0.83 2.85,-0.78 2.92,-0.71 3.00,-0.63 3.04,-0.53 3.09,-0.44 3.10,-0.33 3.11,-0.23 3.09,-0.12 3.06,-0.02 3.01,0.06 2.95,0.15 2.87,0.22 2.79,0.29 2.69,0.33 2.59,0.37 2.49,0.37 2.38,0.38 2.28,0.35 2.18,0.32 2.09,0.26 2.00,0.20 1.94,0.12 1.87,0.04 1.84,-0.06 1.81,-0.16 1.81,-0.26 1.81,-0.37 1.84,-0.47 1.87,-0.57 1.94,-0.65 2.00,-0.74 2.09,-0.80 2.18,-0.86 2.28,-0.89 2.38,-0.92 2.38,-0.92 2.38,-0.92 4.08,-1.13 5.77,-1.35 5.86,-1.34 5.95,-1.33 6.03,-1.30 6.11,-1.27 6.18,-1.22 6.25,-1.17 6.31,-1.11 6.37,-1.04 6.41,-0.96 6.45,-0.89 6.48,-0.80 6.50,-0.72 6.50,-0.63 6.50,-0.54 6.48,-0.46 6.46,-0.37 6.42,-0.30 6.38,-0.22 6.32,-0.15 6.27,-0.09 6.20,-0.04 6.12,0.00 6.04,0.04 5.96,0.07 5.87,0.08 5.79,0.09 4.67,0.74 3.54,1.40 1.78,1.27 0.01,1.14 -0.12,1.12 -0.26,1.11 -0.39,1.06 -0.51,1.01 -0.63,0.93 -0.74,0.86 -0.83,0.76 -0.93,0.65 -0.99,0.53 -1.06,0.41 -1.09,0.28 -1.13,0.14 -1.13,0.01 -1.13,-0.12 -1.10,-0.25 -1.07,-0.39 -1.00,-0.51 -0.94,-0.63 -0.85,-0.74 -0.76,-0.84 -0.65,-0.92 -0.54,-1.00 -0.41,-1.05 -0.28,-1.10 -0.14,-1.12 -0.01,-1.14 -0.01,-1.14 L -0.01,-1.14 Z"/></g><g transform="translate(375.9811706542969 142.17813110351562) rotate(0 0.799072265625 17.013381958007812)" stroke="none"><path fill="#000000" d="M 1.00,-0.11 Q 1.00,-0.11 1.62,2.99 2.24,6.10 2.51,10.07 2.78,14.05 2.88,18.20 2.98,22.36 2.76,25.50 2.54,28.64 2.10,30.87 1.66,33.10 1.63,33.20 1.61,33.30 1.55,33.39 1.49,33.48 1.41,33.55 1.33,33.62 1.23,33.65 1.13,33.69 1.02,33.69 0.92,33.70 0.81,33.67 0.71,33.64 0.63,33.58 0.54,33.51 0.48,33.43 0.41,33.34 0.38,33.24 0.35,33.14 0.35,33.03 0.35,32.93 0.39,32.83 0.43,32.73 0.49,32.64 0.56,32.56 0.65,32.50 0.74,32.44 0.84,32.42 0.94,32.39 1.05,32.40 1.15,32.41 1.25,32.45 1.35,32.49 1.43,32.56 1.51,32.63 1.56,32.72 1.62,32.82 1.64,32.92 1.66,33.02 1.64,33.13 1.63,33.24 1.58,33.33 1.54,33.43 1.46,33.50 1.39,33.58 1.29,33.63 1.20,33.67 1.09,33.69 0.99,33.70 0.88,33.68 0.78,33.66 0.68,33.61 0.59,33.56 0.52,33.48 0.45,33.40 0.41,33.31 0.36,33.21 0.35,33.10 0.35,33.00 0.35,33.00 0.35,33.00 0.24,30.80 0.13,28.60 0.00,25.52 -0.11,22.44 -0.24,18.35 -0.36,14.25 -0.61,10.35 -0.86,6.44 -0.93,3.28 -1.00,0.11 -1.00,-0.01 -1.00,-0.13 -0.97,-0.25 -0.94,-0.37 -0.88,-0.47 -0.82,-0.58 -0.74,-0.67 -0.66,-0.76 -0.56,-0.83 -0.46,-0.90 -0.34,-0.94 -0.23,-0.98 -0.10,-1.00 0.01,-1.01 0.13,-0.99 0.25,-0.98 0.36,-0.93 0.48,-0.89 0.58,-0.82 0.68,-0.75 0.76,-0.65 0.84,-0.56 0.89,-0.45 0.95,-0.34 0.97,-0.22 1.00,-0.11 1.00,-0.11 L 1.00,-0.11 Z"/></g><g transform="translate(391.5633239746094 153.69796752929688) rotate(0 -2.99658203125 9.455551147460938)" stroke="none"><path fill="#000000" d="M 0.95,0 Q 0.95,0 1.25,1.50 1.54,3.01 0.79,4.41 0.04,5.81 -1.68,6.62 -3.41,7.43 -5.17,7.71 -6.93,7.99 -7.35,7.53 -7.76,7.07 -6.64,8.35 -5.52,9.64 -3.82,11.12 -2.13,12.61 -0.30,14.25 1.52,15.89 2.92,16.91 4.31,17.93 4.39,18.01 4.47,18.08 4.52,18.17 4.57,18.26 4.59,18.37 4.61,18.47 4.59,18.58 4.57,18.68 4.52,18.78 4.47,18.87 4.40,18.95 4.32,19.02 4.23,19.07 4.13,19.11 4.02,19.12 3.92,19.14 3.82,19.11 3.71,19.09 3.62,19.04 3.53,18.98 3.46,18.90 3.39,18.82 3.35,18.73 3.31,18.63 3.30,18.52 3.30,18.41 3.32,18.31 3.35,18.21 3.41,18.12 3.47,18.03 3.55,17.97 3.64,17.90 3.74,17.87 3.84,17.83 3.94,17.83 4.05,17.83 4.15,17.86 4.25,17.90 4.34,17.96 4.42,18.02 4.48,18.11 4.54,18.20 4.57,18.30 4.60,18.40 4.60,18.51 4.59,18.62 4.55,18.71 4.51,18.81 4.45,18.90 4.38,18.98 4.29,19.03 4.20,19.09 4.09,19.11 3.99,19.14 3.88,19.12 3.78,19.11 3.68,19.07 3.58,19.03 3.58,19.03 3.59,19.03 2.07,18.12 0.56,17.20 -1.59,15.92 -3.76,14.64 -5.68,13.21 -7.61,11.78 -9.00,10.26 -10.39,8.74 -10.44,7.82 -10.49,6.90 -8.94,5.90 -7.39,4.89 -5.96,4.70 -4.53,4.51 -3.43,4.22 -2.34,3.92 -1.94,3.36 -1.54,2.80 -1.25,1.40 -0.95,0 -0.94,-0.11 -0.92,-0.22 -0.88,-0.33 -0.84,-0.44 -0.78,-0.53 -0.71,-0.63 -0.62,-0.71 -0.54,-0.78 -0.44,-0.84 -0.33,-0.89 -0.22,-0.92 -0.11,-0.94 0.00,-0.94 0.11,-0.94 0.22,-0.92 0.33,-0.89 0.44,-0.84 0.54,-0.78 0.62,-0.71 0.71,-0.63 0.78,-0.53 0.84,-0.44 0.88,-0.33 0.92,-0.22 0.94,-0.11 0.95,0.00 0.95,0.00 L 0.95,0 Z"/></g><g transform="translate(375.4484558105469 133.32186889648438) rotate(0 8.19061279296875 -6.692138671875)" stroke="none"><path fill="#000000" d="M -0.86,-0.35 Q -0.86,-0.35 -0.33,-2.36 0.19,-4.36 0.92,-6.44 1.66,-8.53 2.45,-10.25 3.24,-11.96 4.97,-12.59 6.70,-13.21 8.30,-12.02 9.91,-10.84 11.44,-8.76 12.98,-6.69 14.71,-3.86 16.43,-1.03 16.49,-0.94 16.55,-0.85 16.58,-0.75 16.61,-0.65 16.60,-0.54 16.60,-0.43 16.56,-0.33 16.52,-0.24 16.45,-0.15 16.38,-0.07 16.29,-0.02 16.20,0.03 16.09,0.05 15.99,0.07 15.88,0.06 15.78,0.05 15.68,0.00 15.58,-0.03 15.51,-0.11 15.43,-0.18 15.38,-0.27 15.33,-0.37 15.31,-0.47 15.30,-0.58 15.31,-0.68 15.33,-0.79 15.38,-0.88 15.43,-0.97 15.51,-1.05 15.59,-1.12 15.68,-1.16 15.78,-1.21 15.88,-1.22 15.99,-1.23 16.09,-1.21 16.20,-1.18 16.29,-1.13 16.38,-1.07 16.45,-0.99 16.52,-0.91 16.56,-0.81 16.60,-0.72 16.60,-0.61 16.61,-0.50 16.58,-0.40 16.55,-0.30 16.49,-0.21 16.43,-0.12 16.35,-0.06 16.26,0.00 16.16,0.03 16.06,0.06 15.95,0.06 15.85,0.06 15.75,0.03 15.65,-0.00 15.56,-0.06 15.48,-0.12 15.48,-0.12 15.48,-0.12 12.84,-2.39 10.21,-4.66 8.88,-6.50 7.56,-8.33 6.58,-9.28 5.61,-10.22 5.09,-8.84 4.56,-7.47 3.75,-5.34 2.94,-3.21 1.90,-1.43 0.86,0.35 0.81,0.45 0.75,0.55 0.67,0.63 0.60,0.72 0.50,0.78 0.41,0.84 0.30,0.88 0.19,0.91 0.08,0.92 -0.02,0.93 -0.14,0.92 -0.25,0.90 -0.35,0.86 -0.46,0.81 -0.55,0.75 -0.64,0.68 -0.71,0.59 -0.78,0.51 -0.83,0.40 -0.88,0.30 -0.91,0.19 -0.93,0.08 -0.93,-0.02 -0.92,-0.14 -0.89,-0.25 -0.86,-0.35 -0.86,-0.35 L -0.86,-0.35 Z"/></g><g transform="translate(67.33438110351562 317.1060791015625) rotate(0 14.7830810546875 10.254638671875)" stroke="none"><path fill="#000000" d="M 0.90,0.08 Q 0.90,0.08 0.84,2.86 0.79,5.63 1.25,9.50 1.70,13.37 2.57,15.02 3.44,16.67 4.54,17.02 5.65,17.38 6.78,16.55 7.92,15.71 9.08,13.76 10.25,11.80 11.14,9.34 12.03,6.87 12.44,5.24 12.86,3.60 12.87,3.00 12.88,2.40 12.95,2.23 13.02,2.05 13.13,1.90 13.24,1.75 13.38,1.62 13.52,1.50 13.69,1.42 13.86,1.33 14.04,1.29 14.23,1.25 14.41,1.25 14.60,1.25 14.78,1.30 14.97,1.35 15.13,1.44 15.30,1.53 15.43,1.65 15.57,1.78 15.68,1.94 15.78,2.09 15.85,2.27 15.91,2.45 15.93,2.63 15.95,2.82 15.93,3.01 15.90,3.19 15.94,3.85 15.99,4.50 16.76,6.40 17.53,8.30 18.92,10.66 20.30,13.02 21.95,14.66 23.60,16.30 24.92,17.06 26.24,17.82 27.83,17.31 29.42,16.81 29.53,16.78 29.63,16.75 29.73,16.76 29.84,16.76 29.94,16.80 30.04,16.84 30.12,16.91 30.20,16.98 30.25,17.07 30.31,17.17 30.33,17.27 30.35,17.37 30.34,17.48 30.33,17.58 30.28,17.68 30.23,17.78 30.16,17.85 30.09,17.93 29.99,17.98 29.90,18.03 29.79,18.04 29.69,18.06 29.58,18.04 29.48,18.02 29.39,17.97 29.29,17.92 29.22,17.85 29.15,17.77 29.10,17.67 29.06,17.57 29.05,17.47 29.04,17.36 29.06,17.26 29.09,17.16 29.14,17.07 29.20,16.98 29.28,16.91 29.36,16.84 29.46,16.80 29.56,16.76 29.66,16.76 29.77,16.75 29.87,16.78 29.97,16.81 30.06,16.87 30.15,16.93 30.21,17.02 30.28,17.10 30.31,17.20 30.34,17.30 30.34,17.41 30.34,17.52 30.31,17.62 30.27,17.72 30.21,17.80 30.14,17.88 30.05,17.94 29.96,18.00 29.96,18.00 29.96,18.00 27.93,19.14 25.89,20.28 23.65,19.43 21.42,18.58 19.47,16.62 17.53,14.65 16.04,12.04 14.55,9.43 13.71,7.02 12.86,4.61 12.87,3.51 12.88,2.40 12.95,2.23 13.02,2.05 13.13,1.90 13.24,1.75 13.38,1.62 13.52,1.50 13.69,1.42 13.86,1.33 14.04,1.29 14.23,1.25 14.41,1.25 14.60,1.25 14.78,1.30 14.97,1.35 15.13,1.44 15.30,1.53 15.43,1.65 15.57,1.78 15.68,1.94 15.78,2.09 15.85,2.27 15.91,2.45 15.93,2.63 15.95,2.82 15.93,3.01 15.90,3.19 15.84,3.77 15.78,4.35 15.31,6.13 14.83,7.90 13.81,10.65 12.78,13.41 11.15,15.81 9.53,18.22 7.51,19.17 5.50,20.13 3.35,19.28 1.19,18.43 -0.02,16.09 -1.24,13.74 -1.55,9.56 -1.86,5.38 -1.38,2.65 -0.90,-0.08 -0.87,-0.19 -0.85,-0.30 -0.80,-0.39 -0.75,-0.49 -0.68,-0.57 -0.61,-0.66 -0.52,-0.72 -0.43,-0.79 -0.33,-0.83 -0.23,-0.87 -0.12,-0.88 -0.02,-0.90 0.08,-0.89 0.19,-0.88 0.29,-0.84 0.40,-0.81 0.49,-0.75 0.58,-0.69 0.65,-0.61 0.73,-0.53 0.78,-0.43 0.83,-0.34 0.86,-0.23 0.89,-0.13 0.89,-0.02 0.90,0.08 0.90,0.08 L 0.90,0.08 Z"/></g><g transform="translate(66.86825561523438 308.18328857421875) rotate(0 8.556869506835938 -0.299652099609375)" stroke="none"><path fill="#000000" d="M -0.02,-0.81 Q -0.02,-0.81 2.05,-1.18 4.13,-1.54 6.27,-1.57 8.41,-1.59 10.58,-1.56 12.74,-1.53 14.52,-1.38 16.30,-1.22 16.41,-1.20 16.51,-1.19 16.61,-1.15 16.71,-1.10 16.78,-1.03 16.86,-0.95 16.91,-0.86 16.96,-0.76 16.97,-0.66 16.99,-0.55 16.97,-0.45 16.95,-0.34 16.90,-0.25 16.85,-0.16 16.77,-0.09 16.69,-0.01 16.60,0.02 16.50,0.06 16.39,0.07 16.29,0.08 16.19,0.06 16.08,0.04 15.99,-0.01 15.90,-0.07 15.83,-0.15 15.77,-0.23 15.73,-0.33 15.69,-0.43 15.68,-0.53 15.68,-0.64 15.71,-0.74 15.74,-0.84 15.80,-0.93 15.86,-1.02 15.95,-1.08 16.03,-1.14 16.13,-1.18 16.23,-1.21 16.34,-1.21 16.45,-1.21 16.55,-1.17 16.65,-1.14 16.73,-1.07 16.81,-1.01 16.87,-0.92 16.93,-0.83 16.96,-0.73 16.99,-0.62 16.98,-0.52 16.97,-0.41 16.93,-0.31 16.89,-0.22 16.82,-0.14 16.75,-0.06 16.66,-0.00 16.57,0.04 16.46,0.06 16.36,0.09 16.36,0.09 16.36,0.09 14.62,0.40 12.87,0.71 10.66,0.99 8.45,1.27 6.33,1.29 4.21,1.31 2.11,1.06 0.02,0.81 -0.07,0.80 -0.17,0.79 -0.26,0.76 -0.35,0.73 -0.44,0.67 -0.52,0.62 -0.58,0.55 -0.65,0.48 -0.70,0.39 -0.75,0.30 -0.77,0.21 -0.80,0.12 -0.80,0.02 -0.81,-0.07 -0.78,-0.17 -0.76,-0.26 -0.72,-0.35 -0.68,-0.44 -0.61,-0.51 -0.55,-0.59 -0.47,-0.65 -0.39,-0.71 -0.30,-0.74 -0.21,-0.78 -0.11,-0.79 -0.02,-0.81 -0.02,-0.81 L -0.02,-0.81 Z"/></g><g transform="translate(83.9154052734375 303.05596923828125) rotate(0 2.5637359619140625 4.428131103515625)" stroke="none"><path fill="#000000" d="M 0.43,-0.73 Q 0.43,-0.73 1.55,-0.35 2.68,0.02 3.50,0.58 4.31,1.14 4.92,1.69 5.53,2.25 5.68,3.34 5.84,4.43 5.10,5.34 4.35,6.25 2.66,7.54 0.97,8.84 0.89,8.91 0.81,8.98 0.72,9.03 0.62,9.07 0.51,9.08 0.41,9.09 0.30,9.07 0.20,9.05 0.11,8.99 0.02,8.94 -0.04,8.85 -0.11,8.77 -0.15,8.67 -0.19,8.58 -0.19,8.47 -0.20,8.36 -0.17,8.26 -0.14,8.16 -0.08,8.07 -0.02,7.98 0.06,7.92 0.14,7.86 0.24,7.82 0.34,7.79 0.45,7.79 0.56,7.79 0.66,7.82 0.76,7.86 0.84,7.92 0.93,7.99 0.98,8.08 1.04,8.16 1.07,8.27 1.10,8.37 1.09,8.47 1.09,8.58 1.05,8.68 1.01,8.78 0.94,8.86 0.87,8.94 0.78,8.99 0.69,9.05 0.58,9.07 0.48,9.09 0.37,9.08 0.27,9.07 0.17,9.02 0.08,8.98 0.00,8.91 -0.07,8.83 -0.12,8.74 -0.17,8.64 -0.18,8.54 -0.20,8.43 -0.18,8.33 -0.17,8.22 -0.11,8.13 -0.06,8.04 -0.06,8.04 -0.06,8.04 1.33,5.71 2.73,3.39 2.01,2.86 1.29,2.34 0.43,1.53 -0.43,0.73 -0.51,0.66 -0.59,0.60 -0.66,0.52 -0.72,0.44 -0.76,0.35 -0.80,0.25 -0.82,0.15 -0.84,0.05 -0.84,-0.04 -0.83,-0.14 -0.80,-0.24 -0.77,-0.34 -0.72,-0.43 -0.67,-0.52 -0.60,-0.59 -0.52,-0.66 -0.44,-0.71 -0.35,-0.77 -0.25,-0.80 -0.15,-0.83 -0.05,-0.84 0.04,-0.84 0.14,-0.83 0.24,-0.81 0.34,-0.77 0.43,-0.73 0.43,-0.73 L 0.43,-0.73 Z"/></g><g stroke-linecap="round"><g transform="translate(235.34127807617188 61.606048583984375) rotate(0 11.6168212890625 140.62317430650867)"><path d="M0 0 C3.87 46.87, 19.36 234.37, 23.23 281.25 M0 0 C3.87 46.87, 19.36 234.37, 23.23 281.25" stroke="#000000" stroke-width="0.5" fill="none"/></g></g><mask/><g transform="translate(225.48672485351562 187.1253662109375) rotate(0 6.326080322265625 -0.59930419921875)" stroke="none"><path fill="#000000" d="M -0.08,-0.80 Q -0.08,-0.80 1.38,-1.17 2.86,-1.53 4.43,-1.74 6.00,-1.95 8.98,-1.88 11.96,-1.81 12.07,-1.80 12.17,-1.79 12.27,-1.75 12.37,-1.70 12.44,-1.63 12.52,-1.56 12.57,-1.46 12.62,-1.37 12.64,-1.26 12.65,-1.16 12.64,-1.05 12.62,-0.95 12.57,-0.85 12.52,-0.76 12.44,-0.69 12.37,-0.61 12.27,-0.57 12.17,-0.53 12.07,-0.51 11.96,-0.50 11.86,-0.53 11.75,-0.55 11.66,-0.60 11.57,-0.66 11.50,-0.74 11.43,-0.82 11.40,-0.92 11.36,-1.02 11.35,-1.12 11.34,-1.23 11.37,-1.33 11.40,-1.43 11.46,-1.52 11.52,-1.61 11.61,-1.67 11.69,-1.74 11.79,-1.77 11.89,-1.81 12.00,-1.81 12.10,-1.81 12.20,-1.77 12.31,-1.74 12.39,-1.67 12.47,-1.61 12.53,-1.52 12.59,-1.43 12.62,-1.33 12.65,-1.23 12.64,-1.12 12.64,-1.02 12.60,-0.92 12.56,-0.82 12.49,-0.74 12.42,-0.66 12.33,-0.60 12.24,-0.55 12.14,-0.53 12.03,-0.50 12.03,-0.50 12.03,-0.50 9.18,-0.01 6.33,0.47 4.72,0.69 3.11,0.91 1.59,0.86 0.08,0.80 -0.01,0.80 -0.11,0.80 -0.20,0.77 -0.30,0.75 -0.38,0.70 -0.47,0.66 -0.54,0.59 -0.61,0.52 -0.67,0.44 -0.72,0.36 -0.75,0.27 -0.79,0.17 -0.80,0.08 -0.81,-0.01 -0.79,-0.11 -0.78,-0.20 -0.74,-0.30 -0.71,-0.39 -0.65,-0.47 -0.59,-0.55 -0.52,-0.61 -0.44,-0.67 -0.36,-0.72 -0.27,-0.76 -0.17,-0.78 -0.08,-0.80 -0.08,-0.80 L -0.08,-0.80 Z"/></g><g transform="translate(226.28579711914062 187.05874633789062) rotate(0 0.5993499755859375 6.226043701171875)" stroke="none"><path fill="#000000" d="M 0.90,0.02 Q 0.90,0.02 1.02,1.79 1.15,3.56 1.32,5.31 1.50,7.06 1.67,9.21 1.84,11.36 1.84,11.47 1.85,11.58 1.82,11.68 1.79,11.78 1.73,11.87 1.67,11.95 1.58,12.02 1.50,12.08 1.40,12.11 1.29,12.15 1.19,12.15 1.08,12.15 0.98,12.11 0.88,12.08 0.80,12.01 0.71,11.95 0.65,11.86 0.60,11.77 0.57,11.67 0.54,11.56 0.55,11.46 0.55,11.35 0.59,11.25 0.63,11.15 0.70,11.07 0.77,10.99 0.87,10.94 0.96,10.89 1.06,10.86 1.17,10.84 1.27,10.86 1.38,10.87 1.47,10.91 1.57,10.96 1.64,11.03 1.72,11.11 1.77,11.20 1.82,11.30 1.83,11.40 1.85,11.51 1.83,11.61 1.81,11.71 1.76,11.81 1.71,11.90 1.64,11.97 1.56,12.05 1.46,12.09 1.36,12.13 1.26,12.14 1.15,12.15 1.05,12.13 0.95,12.11 0.85,12.05 0.76,12.00 0.70,11.91 0.63,11.83 0.59,11.73 0.55,11.63 0.55,11.63 0.55,11.63 -0.17,9.48 -0.91,7.33 -1.14,5.41 -1.37,3.48 -1.14,1.72 -0.90,-0.02 -0.88,-0.13 -0.87,-0.24 -0.83,-0.34 -0.78,-0.44 -0.72,-0.53 -0.65,-0.62 -0.57,-0.69 -0.49,-0.76 -0.39,-0.81 -0.29,-0.85 -0.18,-0.88 -0.07,-0.90 0.02,-0.89 0.13,-0.89 0.24,-0.86 0.34,-0.83 0.44,-0.78 0.53,-0.72 0.61,-0.65 0.69,-0.57 0.75,-0.48 0.81,-0.39 0.85,-0.29 0.88,-0.18 0.89,-0.07 0.90,0.02 0.90,0.02 L 0.90,0.02 Z"/></g><g transform="translate(60.275787353515625 192.1195068359375) rotate(0 5.2939453125 11.8194580078125)" stroke="none"><path fill="#000000" d="M 0.49,-0.62 Q 0.49,-0.62 1.37,0.04 2.25,0.71 3.23,1.89 4.20,3.06 5.37,5.31 6.54,7.56 7.55,10.17 8.56,12.78 9.31,15.39 10.06,18.00 10.53,20.26 10.99,22.51 11.00,22.61 11.00,22.72 10.98,22.82 10.95,22.92 10.89,23.01 10.83,23.10 10.75,23.17 10.67,23.23 10.57,23.27 10.47,23.31 10.36,23.31 10.26,23.31 10.15,23.28 10.05,23.25 9.97,23.18 9.88,23.12 9.82,23.03 9.76,22.95 9.73,22.84 9.70,22.74 9.70,22.64 9.71,22.53 9.74,22.43 9.78,22.33 9.85,22.25 9.92,22.17 10.01,22.11 10.10,22.05 10.20,22.03 10.30,22.00 10.41,22.01 10.51,22.02 10.61,22.07 10.71,22.11 10.79,22.18 10.86,22.25 10.92,22.35 10.97,22.44 10.99,22.54 11.01,22.65 10.99,22.75 10.98,22.86 10.93,22.95 10.88,23.05 10.80,23.12 10.73,23.20 10.63,23.24 10.54,23.29 10.43,23.30 10.33,23.32 10.22,23.30 10.12,23.27 10.03,23.22 9.93,23.17 9.86,23.09 9.79,23.01 9.75,22.91 9.71,22.81 9.71,22.81 9.71,22.81 9.11,20.64 8.52,18.48 7.70,15.95 6.88,13.43 5.92,10.90 4.95,8.37 3.90,6.26 2.84,4.15 2.01,3.09 1.18,2.04 0.34,1.33 -0.49,0.62 -0.56,0.55 -0.63,0.48 -0.68,0.40 -0.73,0.32 -0.75,0.22 -0.78,0.13 -0.79,0.03 -0.79,-0.05 -0.77,-0.15 -0.76,-0.24 -0.71,-0.33 -0.67,-0.42 -0.61,-0.49 -0.55,-0.57 -0.48,-0.62 -0.40,-0.68 -0.31,-0.72 -0.22,-0.76 -0.13,-0.78 -0.04,-0.79 0.05,-0.79 0.15,-0.78 0.24,-0.75 0.33,-0.72 0.41,-0.67 0.49,-0.62 0.49,-0.62 L 0.49,-0.62 Z"/></g><g transform="translate(69.2655029296875 192.45245361328125) rotate(0 4.3283843994140625 9.655303955078125)" stroke="none"><path fill="#000000" d="M 0.48,-0.62 Q 0.48,-0.62 1.61,0.21 2.73,1.06 3.89,2.47 5.06,3.87 5.99,5.95 6.92,8.03 7.67,10.67 8.43,13.31 8.85,16.06 9.27,18.80 9.28,18.90 9.28,19.01 9.25,19.11 9.21,19.21 9.15,19.30 9.09,19.39 9.00,19.45 8.92,19.51 8.82,19.54 8.71,19.57 8.61,19.57 8.50,19.57 8.40,19.53 8.30,19.49 8.22,19.42 8.14,19.36 8.08,19.27 8.02,19.18 8.00,19.08 7.97,18.97 7.98,18.87 7.99,18.76 8.03,18.66 8.07,18.57 8.15,18.49 8.22,18.41 8.31,18.36 8.40,18.30 8.51,18.28 8.61,18.26 8.72,18.28 8.82,18.29 8.92,18.34 9.01,18.39 9.09,18.46 9.16,18.54 9.21,18.63 9.26,18.73 9.27,18.84 9.28,18.94 9.26,19.04 9.24,19.15 9.19,19.24 9.14,19.33 9.06,19.40 8.98,19.48 8.88,19.52 8.78,19.56 8.68,19.57 8.57,19.58 8.47,19.55 8.37,19.52 8.28,19.47 8.19,19.41 8.12,19.33 8.05,19.24 8.02,19.14 7.98,19.04 7.98,19.04 7.98,19.04 7.39,16.41 6.79,13.79 6.05,11.26 5.31,8.73 4.51,6.83 3.71,4.93 2.71,3.65 1.70,2.38 0.60,1.50 -0.48,0.62 -0.55,0.56 -0.62,0.49 -0.67,0.41 -0.72,0.32 -0.75,0.23 -0.78,0.14 -0.78,0.05 -0.79,-0.04 -0.77,-0.13 -0.75,-0.23 -0.72,-0.32 -0.68,-0.40 -0.62,-0.48 -0.56,-0.55 -0.48,-0.61 -0.41,-0.67 -0.32,-0.71 -0.23,-0.75 -0.14,-0.77 -0.05,-0.79 0.04,-0.78 0.13,-0.78 0.23,-0.75 0.32,-0.72 0.40,-0.67 0.48,-0.62 0.48,-0.62 L 0.48,-0.62 Z"/></g><g transform="translate(71.32980346679688 226.21282958984375) rotate(0 -3.828948974609375 10.7540283203125)" stroke="none"><path fill="#000000" d="M 0.78,0.15 Q 0.78,0.15 0.63,1.32 0.49,2.48 0.23,4.34 -0.02,6.20 -0.68,8.93 -1.34,11.66 -3.72,15.82 -6.11,19.99 -6.17,20.07 -6.23,20.16 -6.32,20.22 -6.41,20.28 -6.51,20.31 -6.61,20.33 -6.72,20.33 -6.83,20.32 -6.93,20.28 -7.02,20.24 -7.11,20.18 -7.19,20.11 -7.24,20.02 -7.30,19.92 -7.32,19.82 -7.34,19.72 -7.33,19.61 -7.32,19.51 -7.27,19.41 -7.23,19.31 -7.16,19.24 -7.08,19.16 -6.99,19.11 -6.89,19.06 -6.79,19.04 -6.68,19.02 -6.58,19.04 -6.48,19.06 -6.38,19.11 -6.29,19.16 -6.21,19.24 -6.14,19.31 -6.10,19.41 -6.05,19.51 -6.04,19.61 -6.03,19.72 -6.05,19.82 -6.08,19.93 -6.13,20.02 -6.19,20.11 -6.27,20.18 -6.35,20.24 -6.45,20.28 -6.54,20.32 -6.65,20.33 -6.76,20.33 -6.86,20.31 -6.96,20.28 -7.05,20.22 -7.14,20.16 -7.20,20.07 -7.27,19.99 -7.30,19.89 -7.33,19.79 -7.33,19.68 -7.33,19.57 -7.30,19.47 -7.27,19.37 -7.27,19.37 -7.27,19.37 -5.26,15.28 -3.25,11.18 -2.61,8.55 -1.97,5.92 -1.69,4.01 -1.41,2.10 -1.09,0.97 -0.78,-0.15 -0.75,-0.24 -0.72,-0.33 -0.66,-0.41 -0.61,-0.50 -0.54,-0.56 -0.48,-0.63 -0.39,-0.68 -0.31,-0.73 -0.22,-0.75 -0.13,-0.78 -0.03,-0.78 0.06,-0.79 0.15,-0.77 0.24,-0.75 0.33,-0.71 0.42,-0.67 0.49,-0.61 0.57,-0.55 0.62,-0.47 0.68,-0.40 0.72,-0.31 0.76,-0.22 0.77,-0.12 0.79,-0.03 0.78,0.06 0.78,0.15 0.78,0.15 L 0.78,0.15 Z"/></g><g transform="translate(81.318359375 227.944091796875) rotate(0 -3.096435546875 11.286773681640625)" stroke="none"><path fill="#000000" d="M 0.74,-0.28 Q 0.74,-0.28 1.68,1.70 2.62,3.70 2.83,6.26 3.04,8.82 2.10,11.59 1.16,14.36 -0.67,16.62 -2.52,18.88 -5.01,20.58 -7.51,22.29 -7.60,22.34 -7.69,22.39 -7.80,22.41 -7.90,22.43 -8.01,22.42 -8.11,22.40 -8.21,22.35 -8.30,22.31 -8.38,22.23 -8.45,22.15 -8.50,22.06 -8.55,21.96 -8.56,21.86 -8.57,21.75 -8.55,21.65 -8.53,21.54 -8.48,21.45 -8.42,21.36 -8.35,21.29 -8.27,21.22 -8.17,21.18 -8.07,21.14 -7.96,21.13 -7.86,21.12 -7.75,21.15 -7.65,21.17 -7.56,21.23 -7.47,21.29 -7.41,21.37 -7.34,21.46 -7.31,21.56 -7.27,21.66 -7.27,21.76 -7.27,21.87 -7.30,21.97 -7.33,22.07 -7.39,22.16 -7.46,22.24 -7.54,22.30 -7.63,22.37 -7.73,22.40 -7.83,22.43 -7.94,22.42 -8.04,22.42 -8.14,22.38 -8.24,22.34 -8.33,22.28 -8.41,22.21 -8.46,22.12 -8.52,22.03 -8.55,21.93 -8.57,21.82 -8.56,21.72 -8.55,21.61 -8.51,21.51 -8.47,21.42 -8.39,21.34 -8.32,21.26 -8.32,21.26 -8.32,21.26 -6.27,19.37 -4.22,17.48 -2.62,15.50 -1.01,13.53 -0.13,11.22 0.73,8.90 0.62,6.69 0.51,4.48 -0.11,2.38 -0.74,0.28 -0.77,0.19 -0.79,0.09 -0.79,0.00 -0.79,-0.09 -0.77,-0.18 -0.75,-0.28 -0.70,-0.36 -0.66,-0.45 -0.59,-0.52 -0.53,-0.59 -0.45,-0.65 -0.37,-0.70 -0.28,-0.74 -0.19,-0.77 -0.09,-0.79 -0.00,-0.80 0.09,-0.79 0.18,-0.78 0.28,-0.74 0.37,-0.71 0.45,-0.65 0.53,-0.60 0.59,-0.53 0.65,-0.45 0.70,-0.37 0.74,-0.28 0.74,-0.28 L 0.74,-0.28 Z"/></g></svg>