<svg version="1.1" xmlns="http://www.w3.org/2000/svg" viewBox="0 0 405.14108352238736 397.8869018709" width="405.14108352238736" height="397.8869018709" filter="invert(93%) hue-rotate(180deg)">
  <!-- svg-source:excalidraw -->
  
  <defs>
    <style class="style-fonts">
      @font-face {
        font-family: "Virgil";
        src: url("https://excalidraw.com/Virgil.woff2");
      }
      @font-face {
        font-family: "Cascadia";
        src: url("https://excalidraw.com/Cascadia.woff2");
      }
    </style>
  </defs>
  <rect x="0" y="0" width="405.14108352238736" height="397.8869018709" fill="transparent"/><g stroke-linecap="round"><g transform="translate(61.48362036630783 114.7930108024629) rotate(0 50.35805408407433 -51.27537746102283)"><path d="M0 0 C16.79 -17.09, 83.93 -85.46, 100.72 -102.55 M0 0 C16.79 -17.09, 83.93 -85.46, 100.72 -102.55" stroke="#c92a2a" stroke-width="1" fill="none"/></g><g transform="translate(61.48362036630783 114.7930108024629) rotate(0 50.35805408407433 -51.27537746102283)"><path d="M100.72 -102.55 L95.71 -88.41 L86.67 -97.29 L100.72 -102.55" stroke="none" stroke-width="0" fill="#c92a2a" fill-rule="evenodd"/><path d="M100.72 -102.55 C99.19 -98.23, 97.66 -93.91, 95.71 -88.41 M100.72 -102.55 C99.52 -99.18, 98.33 -95.81, 95.71 -88.41 M95.71 -88.41 C93.54 -90.55, 91.36 -92.69, 86.67 -97.29 M95.71 -88.41 C92.86 -91.21, 90 -94.02, 86.67 -97.29 M86.67 -97.29 C89.81 -98.47, 92.96 -99.65, 100.72 -102.55 M86.67 -97.29 C89.98 -98.53, 93.3 -99.78, 100.72 -102.55 M100.72 -102.55 C100.72 -102.55, 100.72 -102.55, 100.72 -102.55 M100.72 -102.55 C100.72 -102.55, 100.72 -102.55, 100.72 -102.55" stroke="#c92a2a" stroke-width="1" fill="none"/></g></g><mask/><g stroke-linecap="round"><g transform="translate(60.588348911786454 115.8664268601596) rotate(0 115.26809692382812 14.716064453125)"><path d="M0 0 C38.42 4.91, 192.11 24.53, 230.54 29.43 M0 0 C38.42 4.91, 192.11 24.53, 230.54 29.43" stroke="#c92a2a" stroke-width="1" fill="none"/></g><g transform="translate(60.588348911786454 115.8664268601596) rotate(0 115.26809692382812 14.716064453125)"><path d="M230.54 29.43 L216.25 34 L217.85 21.42 L230.54 29.43" stroke="none" stroke-width="0" fill="#c92a2a" fill-rule="evenodd"/><path d="M230.54 29.43 C226.03 30.87, 221.52 32.31, 216.25 34 M230.54 29.43 C227.34 30.46, 224.13 31.48, 216.25 34 M216.25 34 C216.63 31.03, 217.01 28.06, 217.85 21.42 M216.25 34 C216.75 30.1, 217.24 26.21, 217.85 21.42 M217.85 21.42 C222.09 24.1, 226.32 26.77, 230.54 29.43 M217.85 21.42 C222.07 24.08, 226.28 26.74, 230.54 29.43 M230.54 29.43 C230.54 29.43, 230.54 29.43, 230.54 29.43 M230.54 29.43 C230.54 29.43, 230.54 29.43, 230.54 29.43" stroke="#c92a2a" stroke-width="1" fill="none"/></g></g><mask/><g stroke-linecap="round"><g transform="translate(59.27414224670487 118.32575893620236) rotate(0 44.7324720878859 55.17633262892808)"><path d="M0 0 C14.91 18.39, 74.55 91.96, 89.46 110.35 M0 0 C14.91 18.39, 74.55 91.96, 89.46 110.35" stroke="#c92a2a" stroke-width="1" fill="none"/></g><g transform="translate(59.27414224670487 118.32575893620236) rotate(0 44.7324720878859 55.17633262892808)"><path d="M89.46 110.35 L75.98 103.78 L85.83 95.8 L89.46 110.35" stroke="none" stroke-width="0" fill="#c92a2a" fill-rule="evenodd"/><path d="M89.46 110.35 C84.33 107.85, 79.19 105.35, 75.98 103.78 M89.46 110.35 C84.8 108.08, 80.13 105.81, 75.98 103.78 M75.98 103.78 C79.17 101.2, 82.35 98.62, 85.83 95.8 M75.98 103.78 C79.39 101.02, 82.81 98.25, 85.83 95.8 M85.83 95.8 C86.8 99.67, 87.76 103.54, 89.46 110.35 M85.83 95.8 C87.02 100.57, 88.21 105.35, 89.46 110.35 M89.46 110.35 C89.46 110.35, 89.46 110.35, 89.46 110.35 M89.46 110.35 C89.46 110.35, 89.46 110.35, 89.46 110.35" stroke="#c92a2a" stroke-width="1" fill="none"/></g></g><mask/><g stroke-linecap="round"><g transform="translate(59.93628856458173 118.53488190443184) rotate(0 -4.823698241495094 110.9418943156432)"><path d="M0 0 C-1.61 36.98, -8.04 184.9, -9.65 221.88 M0 0 C-1.61 36.98, -8.04 184.9, -9.65 221.88" stroke="#000000" stroke-width="0.5" fill="none"/></g><g transform="translate(59.93628856458173 118.53488190443184) rotate(0 -4.823698241495094 110.9418943156432)"><path d="M-9.65 221.88 L-15.39 208.03 L-2.72 208.58 L-9.65 221.88" stroke="none" stroke-width="0" fill="#000000" fill-rule="evenodd"/><path d="M-9.65 221.88 C-10.95 218.73, -12.26 215.57, -15.39 208.03 M-9.65 221.88 C-11.51 217.38, -13.38 212.87, -15.39 208.03 M-15.39 208.03 C-12.08 208.17, -8.77 208.31, -2.72 208.58 M-15.39 208.03 C-11.18 208.21, -6.98 208.39, -2.72 208.58 M-2.72 208.58 C-5.02 213, -7.33 217.42, -9.65 221.88 M-2.72 208.58 C-5.19 213.32, -7.66 218.07, -9.65 221.88 M-9.65 221.88 C-9.65 221.88, -9.65 221.88, -9.65 221.88 M-9.65 221.88 C-9.65 221.88, -9.65 221.88, -9.65 221.88" stroke="#000000" stroke-width="0.5" fill="none"/></g></g><mask/><g transform="translate(25.457769979700686 380.3774483130405) rotate(0 -4.19332587301615 -1.589552752221607)" stroke="none"><path fill="#000000" d="M -0.80,0.33 Q -0.80,0.33 -2.22,-2.21 -3.63,-4.77 -4.75,-5.83 -5.87,-6.89 -6.79,-6.97 -7.72,-7.05 -8.82,-6.20 -9.92,-5.34 -10.94,-2.10 -11.95,1.14 -11.74,2.32 -11.53,3.50 -10.82,3.71 -10.11,3.91 -9.22,3.41 -8.33,2.91 -7.48,2.27 -6.63,1.63 -5.70,1.09 -4.77,0.54 -3.76,0.31 -2.75,0.07 -1.54,0.38 -0.34,0.69 0.76,1.13 1.87,1.58 4.19,2.40 6.51,3.22 6.62,3.25 6.72,3.28 6.81,3.34 6.90,3.40 6.96,3.48 7.02,3.57 7.06,3.67 7.09,3.77 7.09,3.87 7.09,3.98 7.06,4.08 7.03,4.18 6.96,4.27 6.90,4.35 6.81,4.41 6.72,4.47 6.62,4.50 6.52,4.53 6.41,4.52 6.31,4.52 6.21,4.48 6.11,4.44 6.03,4.37 5.95,4.30 5.89,4.21 5.84,4.12 5.81,4.02 5.79,3.92 5.80,3.81 5.81,3.70 5.86,3.61 5.90,3.51 5.97,3.43 6.05,3.36 6.14,3.31 6.23,3.26 6.34,3.24 6.44,3.22 6.55,3.24 6.65,3.25 6.75,3.30 6.84,3.35 6.91,3.43 6.99,3.51 7.03,3.60 7.08,3.70 7.09,3.80 7.10,3.91 7.08,4.01 7.06,4.12 7.00,4.21 6.95,4.30 6.87,4.37 6.79,4.44 6.69,4.48 6.59,4.52 6.48,4.52 6.38,4.53 6.38,4.53 6.38,4.53 3.54,4.58 0.71,4.62 -0.35,4.23 -1.42,3.84 -2.27,3.65 -3.12,3.46 -3.90,3.92 -4.69,4.38 -5.93,5.22 -7.17,6.07 -8.99,6.53 -10.81,6.99 -12.46,6.04 -14.11,5.10 -14.64,2.69 -15.17,0.28 -13.63,-3.80 -12.08,-7.89 -9.91,-9.10 -7.73,-10.31 -5.77,-9.82 -3.80,-9.34 -2.35,-7.67 -0.90,-6.00 -0.04,-3.16 0.80,-0.33 0.83,-0.23 0.86,-0.13 0.86,-0.03 0.86,0.07 0.84,0.17 0.82,0.27 0.77,0.37 0.73,0.46 0.66,0.54 0.60,0.63 0.51,0.69 0.43,0.75 0.33,0.79 0.23,0.83 0.13,0.85 0.03,0.87 -0.07,0.86 -0.17,0.85 -0.27,0.81 -0.37,0.78 -0.46,0.72 -0.55,0.67 -0.62,0.59 -0.69,0.52 -0.75,0.42 -0.80,0.33 -0.80,0.33 L -0.80,0.33 Z"/></g><g transform="translate(16.413326356543962 364.3171776504698) rotate(0 3.343710479614444 0.32890849903338903)" stroke="none"><path fill="#000000" d="M 0.06,-0.97 Q 0.06,-0.97 3.10,-0.65 6.14,-0.34 6.24,-0.32 6.35,-0.30 6.44,-0.24 6.53,-0.19 6.60,-0.11 6.68,-0.03 6.72,0.05 6.76,0.15 6.77,0.26 6.78,0.36 6.75,0.47 6.73,0.57 6.67,0.66 6.61,0.75 6.53,0.81 6.45,0.88 6.35,0.92 6.25,0.95 6.14,0.96 6.04,0.96 5.93,0.93 5.83,0.90 5.75,0.84 5.66,0.78 5.60,0.69 5.54,0.60 5.50,0.50 5.47,0.40 5.48,0.29 5.48,0.19 5.51,0.09 5.55,-0.00 5.62,-0.08 5.68,-0.17 5.77,-0.23 5.86,-0.28 5.97,-0.31 6.07,-0.33 6.17,-0.33 6.28,-0.32 6.38,-0.28 6.48,-0.23 6.56,-0.16 6.63,-0.09 6.69,-0.00 6.74,0.08 6.76,0.19 6.78,0.29 6.77,0.40 6.75,0.50 6.70,0.60 6.66,0.69 6.58,0.77 6.51,0.84 6.41,0.89 6.32,0.94 6.21,0.95 6.11,0.97 6.11,0.97 6.11,0.97 3.02,0.97 -0.06,0.97 -0.18,0.95 -0.29,0.92 -0.40,0.87 -0.51,0.82 -0.60,0.75 -0.69,0.68 -0.76,0.58 -0.83,0.49 -0.88,0.38 -0.93,0.28 -0.95,0.16 -0.97,0.04 -0.96,-0.06 -0.95,-0.18 -0.92,-0.29 -0.88,-0.40 -0.82,-0.50 -0.76,-0.60 -0.67,-0.69 -0.59,-0.77 -0.49,-0.83 -0.39,-0.89 -0.27,-0.92 -0.16,-0.96 -0.04,-0.96 0.06,-0.97 0.06,-0.97 L 0.06,-0.97 Z"/></g><g transform="translate(23.868141864651818 359.877352530011) rotate(0 2.028151846308077 3.6998626406964377)" stroke="none"><path fill="#000000" d="M 0.53,-0.73 Q 0.53,-0.73 1.63,-0.17 2.72,0.37 3.52,1.26 4.32,2.16 4.66,3.19 4.99,4.22 3.05,5.56 1.12,6.90 1.13,6.98 1.14,7.06 1.13,7.14 1.12,7.22 1.10,7.29 1.07,7.36 1.03,7.43 0.98,7.50 0.92,7.55 0.86,7.60 0.80,7.64 0.73,7.68 0.65,7.70 0.57,7.72 0.49,7.72 0.41,7.72 0.34,7.70 0.26,7.68 0.19,7.65 0.12,7.61 0.06,7.56 0.00,7.51 -0.04,7.44 -0.08,7.38 -0.11,7.31 -0.14,7.23 0.06,7.46 0.27,7.69 0.17,7.64 0.08,7.58 0.01,7.51 -0.05,7.43 -0.10,7.33 -0.14,7.23 -0.15,7.13 -0.16,7.02 -0.14,6.92 -0.11,6.82 -0.06,6.73 -0.00,6.64 0.07,6.57 0.15,6.50 0.25,6.46 0.35,6.42 0.46,6.42 0.56,6.42 0.67,6.45 0.77,6.48 0.86,6.54 0.94,6.60 1.01,6.68 1.07,6.77 1.10,6.87 1.13,6.97 1.13,7.08 1.13,7.18 1.10,7.28 1.06,7.38 0.99,7.47 0.93,7.55 0.84,7.61 0.75,7.67 0.65,7.69 0.55,7.72 0.44,7.71 0.33,7.71 0.24,7.67 0.14,7.63 0.06,7.56 -0.01,7.49 -0.07,7.39 -0.12,7.30 -0.14,7.20 -0.16,7.09 -0.15,6.99 -0.14,6.88 -0.09,6.79 -0.04,6.69 0.02,6.61 0.09,6.54 0.19,6.49 0.28,6.44 0.39,6.43 0.49,6.41 0.81,6.66 1.12,6.90 1.13,6.98 1.14,7.06 1.13,7.14 1.12,7.22 1.10,7.29 1.07,7.36 1.03,7.43 0.98,7.50 0.92,7.55 0.86,7.60 0.80,7.64 0.73,7.68 0.65,7.70 0.57,7.72 0.49,7.72 0.41,7.72 0.34,7.70 0.26,7.68 0.19,7.65 0.12,7.61 0.06,7.56 0.00,7.51 -0.04,7.44 -0.08,7.38 -0.11,7.31 -0.14,7.23 0.92,5.53 1.99,3.83 1.58,3.14 1.17,2.46 0.32,1.59 -0.53,0.73 -0.61,0.65 -0.69,0.58 -0.75,0.49 -0.81,0.40 -0.84,0.29 -0.88,0.19 -0.89,0.08 -0.90,-0.02 -0.89,-0.12 -0.87,-0.23 -0.83,-0.33 -0.79,-0.44 -0.72,-0.52 -0.66,-0.61 -0.58,-0.68 -0.49,-0.75 -0.39,-0.80 -0.30,-0.85 -0.19,-0.87 -0.08,-0.90 0.02,-0.89 0.13,-0.89 0.23,-0.86 0.34,-0.83 0.43,-0.78 0.53,-0.73 0.53,-0.73 L 0.53,-0.73 Z"/></g><g transform="translate(42.011843007313814 374.0191368203843) rotate(0 4.083710640790372 4.275433673298096)" stroke="none"><path fill="#000000" d="M 0.73,-0.57 Q 0.73,-0.57 1.68,0.28 2.62,1.14 3.56,2.43 4.49,3.73 6.25,5.69 8.02,7.65 8.09,7.73 8.17,7.80 8.22,7.89 8.27,7.99 8.29,8.09 8.30,8.20 8.29,8.30 8.27,8.41 8.22,8.50 8.17,8.59 8.09,8.67 8.02,8.74 7.92,8.79 7.82,8.83 7.72,8.84 7.61,8.85 7.51,8.83 7.41,8.81 7.31,8.75 7.22,8.70 7.15,8.62 7.09,8.54 7.05,8.44 7.01,8.34 7.00,8.23 7.00,8.13 7.02,8.02 7.05,7.92 7.11,7.83 7.17,7.75 7.26,7.68 7.34,7.62 7.44,7.58 7.54,7.55 7.65,7.55 7.75,7.55 7.86,7.58 7.96,7.62 8.04,7.68 8.13,7.75 8.18,7.83 8.24,7.92 8.27,8.02 8.30,8.13 8.30,8.23 8.29,8.34 8.25,8.44 8.21,8.54 8.14,8.62 8.07,8.70 7.98,8.75 7.89,8.81 7.79,8.83 7.68,8.85 7.58,8.84 7.47,8.83 7.38,8.79 7.28,8.74 7.28,8.74 7.28,8.74 4.79,7.03 2.30,5.33 1.38,4.07 0.46,2.82 -0.13,1.70 -0.73,0.57 -0.79,0.47 -0.85,0.38 -0.88,0.27 -0.92,0.16 -0.92,0.05 -0.93,-0.05 -0.91,-0.17 -0.89,-0.28 -0.84,-0.38 -0.79,-0.48 -0.72,-0.57 -0.65,-0.66 -0.57,-0.73 -0.48,-0.80 -0.37,-0.84 -0.27,-0.89 -0.16,-0.91 -0.05,-0.93 0.05,-0.92 0.17,-0.92 0.27,-0.88 0.38,-0.85 0.48,-0.79 0.58,-0.73 0.65,-0.65 0.73,-0.57 0.73,-0.57 L 0.73,-0.57 Z"/></g><g transform="translate(50.23407818524305 376.65020384511223) rotate(0 -4.056303692616126 2.68585580013405)" stroke="none"><path fill="#000000" d="M 0.54,0.74 Q 0.54,0.74 -0.37,1.67 -1.28,2.59 -2.34,3.40 -3.40,4.21 -5.41,4.98 -7.43,5.75 -7.53,5.78 -7.63,5.82 -7.74,5.82 -7.84,5.82 -7.94,5.78 -8.05,5.75 -8.13,5.69 -8.22,5.62 -8.28,5.54 -8.34,5.45 -8.36,5.35 -8.39,5.24 -8.39,5.14 -8.38,5.03 -8.34,4.93 -8.31,4.83 -8.24,4.75 -8.17,4.67 -8.08,4.62 -7.99,4.56 -7.88,4.54 -7.78,4.51 -7.67,4.53 -7.57,4.54 -7.47,4.58 -7.38,4.62 -7.30,4.70 -7.22,4.77 -7.17,4.86 -7.12,4.96 -7.10,5.06 -7.08,5.17 -7.10,5.27 -7.12,5.38 -7.17,5.47 -7.22,5.56 -7.29,5.64 -7.37,5.71 -7.47,5.76 -7.56,5.80 -7.67,5.81 -7.77,5.83 -7.88,5.80 -7.98,5.78 -8.07,5.73 -8.16,5.67 -8.23,5.59 -8.30,5.51 -8.34,5.41 -8.38,5.31 -8.39,5.21 -8.39,5.10 -8.37,5.00 -8.34,4.90 -8.28,4.81 -8.22,4.72 -8.14,4.66 -8.05,4.59 -8.05,4.59 -8.05,4.59 -6.55,3.29 -5.04,1.99 -3.95,1.20 -2.87,0.42 -1.70,-0.15 -0.54,-0.74 -0.44,-0.79 -0.34,-0.85 -0.24,-0.88 -0.13,-0.90 -0.02,-0.91 0.08,-0.91 0.19,-0.89 0.30,-0.86 0.40,-0.81 0.50,-0.76 0.58,-0.69 0.67,-0.62 0.73,-0.53 0.80,-0.44 0.84,-0.34 0.88,-0.24 0.90,-0.13 0.91,-0.02 0.90,0.08 0.89,0.19 0.86,0.30 0.82,0.40 0.76,0.49 0.70,0.59 0.62,0.66 0.54,0.74 0.54,0.74 L 0.54,0.74 Z"/></g><g transform="translate(60.48442752806676 361.85065279855695) rotate(0 3.590373013182642 13.018124536171513)" stroke="none"><path fill="#000000" d="M 0.93,0 Q 0.93,0 1.20,2.19 1.46,4.38 1.44,6.20 1.42,8.03 1.35,9.40 1.27,10.76 1.17,11.64 1.07,12.52 2.29,12.86 3.50,13.19 4.46,13.57 5.42,13.94 6.44,14.56 7.45,15.19 8.42,16.09 9.38,16.99 10.14,18.32 10.91,19.65 11.30,20.98 11.70,22.30 11.42,23.79 11.15,25.27 9.98,26.16 8.82,27.04 6.87,26.85 4.92,26.66 2.91,25.46 0.90,24.25 -0.56,22.70 -2.03,21.15 -2.32,18.07 -2.61,14.99 -2.58,14.89 -2.56,14.79 -2.50,14.70 -2.44,14.61 -2.36,14.54 -2.27,14.48 -2.17,14.44 -2.07,14.41 -1.97,14.41 -1.86,14.40 -1.76,14.44 -1.66,14.47 -1.57,14.53 -1.49,14.59 -1.43,14.68 -1.37,14.77 -1.34,14.87 -1.31,14.97 -1.31,15.08 -1.31,15.18 -1.35,15.28 -1.39,15.38 -1.46,15.46 -1.52,15.55 -1.61,15.60 -1.70,15.66 -1.81,15.68 -1.91,15.71 -2.01,15.70 -2.12,15.69 -2.22,15.65 -2.32,15.60 -2.39,15.53 -2.47,15.46 -2.52,15.37 -2.58,15.27 -2.59,15.17 -2.61,15.07 -2.60,14.96 -2.58,14.86 -2.53,14.76 -2.49,14.67 -2.41,14.59 -2.33,14.52 -2.24,14.47 -2.14,14.42 -2.04,14.41 -1.93,14.40 -1.83,14.42 -1.72,14.44 -1.63,14.49 -1.54,14.55 -1.47,14.63 -1.40,14.70 -1.36,14.80 -1.32,14.90 -1.31,15.01 -1.30,15.11 -1.30,15.11 -1.30,15.11 -0.33,16.90 0.63,18.68 1.77,19.91 2.91,21.13 4.31,22.08 5.70,23.03 6.95,23.07 8.21,23.11 7.99,22.16 7.77,21.21 7.37,20.23 6.98,19.25 6.34,18.50 5.70,17.74 5.01,17.21 4.32,16.68 3.50,16.34 2.68,16.01 1.81,15.76 0.95,15.51 0.15,15.20 -0.63,14.90 -1.14,14.29 -1.66,13.69 -1.77,12.94 -1.89,12.18 -1.80,11.39 -1.70,10.59 -1.63,9.29 -1.55,7.98 -1.50,6.18 -1.46,4.38 -1.20,2.19 -0.93,0 -0.92,-0.11 -0.90,-0.22 -0.86,-0.32 -0.82,-0.43 -0.76,-0.52 -0.69,-0.62 -0.61,-0.69 -0.53,-0.76 -0.43,-0.82 -0.33,-0.87 -0.22,-0.90 -0.11,-0.92 0.00,-0.92 0.11,-0.92 0.22,-0.90 0.33,-0.87 0.43,-0.82 0.53,-0.76 0.61,-0.69 0.70,-0.62 0.76,-0.52 0.82,-0.43 0.86,-0.32 0.90,-0.22 0.92,-0.11 0.93,0.00 0.93,0.00 L 0.93,0 Z"/></g><g transform="translate(63.608894982758386 363.3853916544302) rotate(0 3.20665061780079 0.6577667561819567)" stroke="none"><path fill="#000000" d="M 0.25,-0.96 Q 0.25,-0.96 1.70,-0.61 3.16,-0.26 2.71,-0.21 2.25,-0.17 2.33,-0.14 2.40,-0.11 2.46,-0.07 2.53,-0.02 2.58,0.03 2.63,0.09 2.67,0.16 2.70,0.23 2.72,0.31 2.74,0.38 2.74,0.46 2.74,0.54 2.72,0.62 2.70,0.69 2.66,0.76 2.62,0.83 2.57,0.89 2.51,0.95 2.45,0.99 2.38,1.04 2.31,1.07 2.23,1.09 2.16,1.10 2.08,1.11 2.00,1.10 1.92,1.09 1.83,1.05 1.75,1.02 1.67,0.95 1.59,0.88 1.53,0.79 1.48,0.70 1.45,0.59 1.43,0.49 1.44,0.38 1.45,0.28 1.50,0.18 1.54,0.09 1.62,0.01 1.69,-0.06 1.78,-0.11 1.88,-0.16 1.98,-0.18 2.09,-0.19 2.19,-0.18 2.30,-0.16 2.39,-0.11 2.48,-0.06 2.56,0.01 2.63,0.08 2.67,0.18 2.72,0.28 2.73,0.38 2.74,0.49 2.72,0.59 2.70,0.70 2.64,0.79 2.59,0.88 2.51,0.95 2.43,1.02 2.33,1.05 2.23,1.09 2.12,1.10 2.02,1.11 1.91,1.08 1.81,1.05 1.72,0.99 1.63,0.93 1.57,0.85 1.51,0.76 1.47,0.66 1.44,0.56 1.44,0.45 1.44,0.35 1.47,0.25 1.51,0.15 1.57,0.06 1.63,-0.01 1.72,-0.07 1.81,-0.13 1.91,-0.16 2.01,-0.19 2.12,-0.18 2.23,-0.18 2.24,-0.18 2.25,-0.17 2.33,-0.14 2.40,-0.11 2.46,-0.07 2.53,-0.02 2.58,0.03 2.63,0.09 2.67,0.16 2.70,0.23 2.72,0.31 2.74,0.38 2.74,0.46 2.74,0.54 2.72,0.62 2.70,0.69 2.66,0.76 2.62,0.83 2.57,0.89 2.51,0.95 2.45,0.99 2.38,1.04 2.31,1.07 2.23,1.09 2.16,1.10 2.08,1.11 2.00,1.10 1.92,1.09 2.28,1.43 2.63,1.77 1.19,1.36 -0.25,0.96 -0.36,0.91 -0.47,0.87 -0.57,0.80 -0.67,0.73 -0.74,0.64 -0.82,0.55 -0.88,0.44 -0.93,0.34 -0.96,0.22 -0.98,0.10 -0.98,-0.01 -0.98,-0.13 -0.95,-0.24 -0.92,-0.36 -0.86,-0.47 -0.81,-0.57 -0.73,-0.66 -0.64,-0.75 -0.55,-0.82 -0.45,-0.88 -0.33,-0.92 -0.22,-0.96 -0.10,-0.98 0.01,-0.99 0.13,-0.97 0.25,-0.96 0.25,-0.96 L 0.25,-0.96 Z"/></g><g transform="translate(70.40591861374185 362.01504424571766) rotate(0 1.06889609973814 3.535446072593345)" stroke="none"><path fill="#000000" d="M 0.57,-0.69 Q 0.57,-0.69 1.37,-0.37 2.16,-0.05 2.77,0.49 3.38,1.04 3.80,2.10 4.21,3.15 3.94,4.38 3.68,5.61 1.55,6.49 -0.57,7.38 -0.67,7.37 -0.78,7.36 -0.88,7.32 -0.98,7.28 -1.06,7.22 -1.14,7.15 -1.19,7.05 -1.25,6.96 -1.27,6.86 -1.29,6.76 -1.28,6.65 -1.27,6.54 -1.22,6.45 -1.18,6.35 -1.10,6.28 -1.03,6.20 -0.93,6.15 -0.84,6.10 -0.73,6.08 -0.63,6.07 -0.53,6.09 -0.42,6.10 -0.33,6.15 -0.23,6.20 -0.16,6.28 -0.09,6.36 -0.04,6.46 -0.00,6.55 0.00,6.66 0.01,6.76 -0.00,6.87 -0.03,6.97 -0.08,7.06 -0.14,7.15 -0.22,7.22 -0.30,7.29 -0.40,7.33 -0.50,7.37 -0.60,7.37 -0.71,7.38 -0.81,7.35 -0.91,7.32 -1.00,7.26 -1.09,7.20 -1.15,7.11 -1.22,7.03 -1.25,6.93 -1.28,6.83 -1.28,6.72 -1.28,6.61 -1.25,6.51 -1.21,6.41 -1.15,6.33 -1.08,6.24 -0.99,6.19 -0.91,6.13 -0.80,6.10 -0.70,6.07 -0.70,6.07 -0.70,6.07 -0.07,5.23 0.55,4.38 0.78,3.71 1.02,3.04 0.68,2.59 0.35,2.13 -0.11,1.41 -0.57,0.69 -0.65,0.61 -0.72,0.53 -0.77,0.44 -0.83,0.35 -0.86,0.24 -0.89,0.14 -0.89,0.03 -0.90,-0.07 -0.87,-0.18 -0.85,-0.29 -0.80,-0.38 -0.76,-0.48 -0.69,-0.57 -0.62,-0.65 -0.53,-0.72 -0.44,-0.78 -0.34,-0.82 -0.24,-0.86 -0.13,-0.88 -0.03,-0.90 0.07,-0.89 0.18,-0.88 0.28,-0.84 0.39,-0.81 0.48,-0.75 0.57,-0.69 0.57,-0.69 L 0.57,-0.69 Z"/></g><g transform="translate(90.62637404973094 50.93477957589269) rotate(0 -1.5791451590401806 2.1117989676339306)" stroke="none"><path fill="#c92a2a" d="M -0.56,0.77 Q -0.56,0.77 -1.84,0.09 -3.12,-0.57 -3.85,-0.63 -4.58,-0.69 -5.24,-0.27 -5.90,0.13 -6.38,0.87 -6.87,1.60 -7.21,2.64 -7.56,3.68 -7.57,4.29 -7.57,4.90 -6.81,5.16 -6.04,5.43 -5.27,4.86 -4.50,4.30 -4.18,3.76 -3.87,3.23 -3.57,2.69 -3.28,2.15 -2.53,1.59 -1.79,1.03 -1.02,1.05 -0.24,1.06 0.57,1.58 1.40,2.10 2.07,2.60 2.75,3.09 4.38,3.67 6.02,4.25 6.12,4.24 6.23,4.24 6.33,4.27 6.43,4.30 6.52,4.36 6.60,4.42 6.67,4.51 6.73,4.60 6.76,4.70 6.79,4.80 6.79,4.90 6.79,5.01 6.75,5.11 6.72,5.21 6.65,5.29 6.59,5.38 6.50,5.43 6.41,5.49 6.31,5.52 6.20,5.55 6.10,5.54 5.99,5.53 5.89,5.49 5.79,5.45 5.71,5.38 5.64,5.31 5.58,5.21 5.53,5.12 5.51,5.02 5.49,4.91 5.50,4.81 5.51,4.70 5.56,4.61 5.61,4.51 5.68,4.44 5.76,4.36 5.85,4.31 5.95,4.26 6.05,4.25 6.16,4.23 6.26,4.25 6.37,4.27 6.46,4.32 6.55,4.38 6.62,4.46 6.69,4.53 6.74,4.63 6.78,4.73 6.79,4.83 6.80,4.94 6.77,5.04 6.75,5.15 6.69,5.24 6.64,5.33 6.55,5.39 6.47,5.46 6.37,5.50 6.27,5.54 6.27,5.54 6.27,5.54 3.68,5.49 1.09,5.44 0.18,4.50 -0.71,3.56 -1.07,4.21 -1.43,4.86 -2.02,5.69 -2.61,6.53 -3.53,7.19 -4.44,7.85 -5.57,8.02 -6.71,8.20 -7.73,7.80 -8.76,7.41 -9.51,6.44 -10.27,5.48 -10.30,4.11 -10.34,2.74 -9.77,1.28 -9.21,-0.18 -8.21,-1.30 -7.22,-2.43 -5.80,-2.96 -4.38,-3.48 -2.99,-3.18 -1.60,-2.87 -0.51,-1.82 0.56,-0.77 0.64,-0.69 0.73,-0.61 0.79,-0.51 0.85,-0.42 0.89,-0.31 0.93,-0.20 0.94,-0.08 0.95,0.02 0.94,0.14 0.92,0.25 0.87,0.36 0.83,0.46 0.76,0.56 0.69,0.65 0.61,0.72 0.52,0.80 0.41,0.85 0.31,0.90 0.20,0.92 0.08,0.95 -0.02,0.95 -0.14,0.94 -0.25,0.91 -0.36,0.88 -0.46,0.82 -0.56,0.77 -0.56,0.77 L -0.56,0.77 Z"/></g><g transform="translate(81.5700647584363 40.85135323660698) rotate(0 4.375941685267861 0.3234427315848194)" stroke="none"><path fill="#c92a2a" d="M 0.19,-0.84 Q 0.19,-0.84 1.05,-0.81 1.91,-0.77 2.69,-0.78 3.48,-0.79 4.36,-0.81 5.25,-0.83 6.81,-0.67 8.37,-0.51 8.47,-0.50 8.58,-0.49 8.68,-0.45 8.77,-0.41 8.85,-0.34 8.93,-0.27 8.98,-0.17 9.04,-0.08 9.06,0.01 9.08,0.12 9.06,0.22 9.05,0.33 9.00,0.42 8.96,0.52 8.88,0.59 8.81,0.67 8.71,0.72 8.62,0.76 8.51,0.78 8.40,0.79 8.30,0.77 8.20,0.75 8.10,0.70 8.01,0.65 7.94,0.57 7.87,0.49 7.83,0.39 7.78,0.30 7.78,0.19 7.77,0.08 7.79,-0.01 7.82,-0.11 7.87,-0.20 7.93,-0.29 8.01,-0.36 8.10,-0.42 8.20,-0.46 8.30,-0.50 8.40,-0.50 8.51,-0.50 8.61,-0.47 8.71,-0.44 8.80,-0.38 8.88,-0.32 8.95,-0.23 9.01,-0.15 9.04,-0.04 9.07,0.05 9.07,0.15 9.07,0.26 9.03,0.36 8.99,0.46 8.93,0.54 8.86,0.62 8.77,0.68 8.68,0.74 8.58,0.77 8.48,0.79 8.48,0.79 8.48,0.79 6.89,1.17 5.30,1.56 4.37,1.57 3.44,1.59 2.42,1.55 1.41,1.52 0.61,1.18 -0.19,0.84 -0.28,0.81 -0.38,0.77 -0.47,0.72 -0.56,0.66 -0.63,0.58 -0.70,0.50 -0.75,0.41 -0.80,0.32 -0.83,0.22 -0.86,0.12 -0.86,0.01 -0.86,-0.08 -0.84,-0.18 -0.82,-0.29 -0.77,-0.38 -0.72,-0.47 -0.65,-0.55 -0.59,-0.63 -0.50,-0.70 -0.42,-0.76 -0.32,-0.80 -0.22,-0.84 -0.12,-0.85 -0.01,-0.87 0.08,-0.85 0.19,-0.84 0.19,-0.84 L 0.19,-0.84 Z"/></g><g transform="translate(90.13169282763275 37.95952497209805) rotate(0 0.4566214425223052 2.7206246512276806)" stroke="none"><path fill="#c92a2a" d="M 0.72,-0.49 Q 0.72,-0.49 1.36,0.19 2.00,0.88 2.31,1.68 2.61,2.47 1.14,4.15 -0.32,5.83 -0.42,5.88 -0.51,5.92 -0.62,5.93 -0.72,5.94 -0.83,5.92 -0.93,5.90 -1.02,5.84 -1.11,5.79 -1.18,5.71 -1.25,5.63 -1.29,5.53 -1.33,5.43 -1.34,5.32 -1.34,5.22 -1.32,5.12 -1.29,5.01 -1.23,4.93 -1.17,4.84 -1.08,4.77 -1.00,4.71 -0.90,4.67 -0.80,4.64 -0.69,4.64 -0.59,4.64 -0.49,4.67 -0.38,4.71 -0.30,4.77 -0.21,4.83 -0.16,4.92 -0.10,5.01 -0.07,5.11 -0.04,5.22 -0.04,5.32 -0.05,5.43 -0.09,5.53 -0.13,5.62 -0.20,5.71 -0.26,5.79 -0.35,5.84 -0.45,5.90 -0.55,5.92 -0.65,5.94 -0.76,5.93 -0.86,5.92 -0.96,5.88 -1.06,5.83 -1.13,5.76 -1.21,5.69 -1.26,5.59 -1.31,5.50 -1.33,5.39 -1.35,5.29 -1.33,5.18 -1.31,5.08 -1.26,4.99 -1.21,4.89 -1.14,4.82 -1.06,4.75 -1.06,4.75 -1.06,4.75 -0.48,3.46 0.09,2.17 -0.31,1.33 -0.72,0.49 -0.77,0.40 -0.82,0.30 -0.84,0.20 -0.87,0.10 -0.86,-0.00 -0.86,-0.10 -0.84,-0.21 -0.81,-0.31 -0.76,-0.40 -0.71,-0.50 -0.64,-0.57 -0.57,-0.65 -0.49,-0.71 -0.40,-0.77 -0.30,-0.81 -0.20,-0.85 -0.10,-0.86 0.00,-0.87 0.10,-0.86 0.21,-0.85 0.31,-0.81 0.40,-0.77 0.49,-0.71 0.58,-0.65 0.65,-0.57 0.72,-0.49 0.72,-0.49 L 0.72,-0.49 Z"/></g><g transform="translate(227.0797257517399 154.85088239397305) rotate(0 2.815813337053555 9.39848109654018)" stroke="none"><path fill="#c92a2a" d="M 1.02,-0.06 Q 1.02,-0.06 1.29,1.30 1.56,2.66 1.62,4.04 1.68,5.42 1.68,6.64 1.67,7.86 1.65,8.73 1.63,9.61 2.36,9.53 3.08,9.44 3.94,9.73 4.79,10.02 5.49,10.64 6.18,11.26 6.70,12.02 7.21,12.77 7.52,13.77 7.82,14.77 7.69,15.90 7.55,17.02 6.79,18.01 6.03,19.00 4.82,19.49 3.61,19.99 2.31,19.65 1.01,19.31 0.04,18.22 -0.93,17.13 -0.88,14.06 -0.84,10.99 -0.80,10.89 -0.76,10.79 -0.70,10.70 -0.63,10.62 -0.54,10.56 -0.45,10.51 -0.35,10.48 -0.24,10.46 -0.14,10.47 -0.03,10.48 0.06,10.52 0.15,10.56 0.23,10.63 0.31,10.71 0.36,10.80 0.41,10.89 0.43,11.00 0.45,11.10 0.44,11.20 0.42,11.31 0.37,11.40 0.33,11.50 0.25,11.57 0.18,11.65 0.08,11.70 -0.01,11.74 -0.11,11.76 -0.22,11.77 -0.32,11.75 -0.42,11.73 -0.52,11.68 -0.61,11.62 -0.68,11.54 -0.75,11.46 -0.79,11.37 -0.83,11.27 -0.84,11.16 -0.85,11.06 -0.82,10.95 -0.80,10.85 -0.74,10.76 -0.68,10.67 -0.60,10.61 -0.51,10.54 -0.41,10.50 -0.31,10.47 -0.21,10.47 -0.10,10.46 -0.00,10.49 0.09,10.53 0.18,10.59 0.26,10.65 0.32,10.74 0.39,10.83 0.42,10.93 0.45,11.03 0.44,11.14 0.44,11.24 0.44,11.24 0.44,11.24 1.12,13.17 1.79,15.09 2.39,15.92 2.99,16.75 3.65,16.46 4.31,16.17 4.37,15.28 4.42,14.40 3.98,13.56 3.53,12.71 2.76,12.54 1.98,12.37 1.33,12.39 0.68,12.41 0.11,12.14 -0.45,11.87 -0.85,10.70 -1.25,9.53 -1.23,8.69 -1.20,7.84 -1.19,6.67 -1.18,5.49 -1.19,4.17 -1.21,2.84 -1.11,1.45 -1.02,0.06 -1.01,-0.05 -1.01,-0.18 -0.97,-0.30 -0.93,-0.41 -0.87,-0.52 -0.81,-0.63 -0.72,-0.71 -0.63,-0.80 -0.53,-0.87 -0.42,-0.93 -0.30,-0.97 -0.18,-1.00 -0.06,-1.01 0.05,-1.02 0.18,-1.00 0.30,-0.98 0.41,-0.93 0.52,-0.88 0.62,-0.80 0.72,-0.72 0.80,-0.63 0.87,-0.53 0.92,-0.42 0.97,-0.30 1.00,-0.18 1.02,-0.06 1.02,-0.06 L 1.02,-0.06 Z"/></g><g transform="translate(231.6839737986149 155.61186872209805) rotate(0 3.234392438616055 0.20928955078125)" stroke="none"><path fill="#c92a2a" d="M 0.05,-1.11 Q 0.05,-1.11 1.17,-1.34 2.29,-1.58 4.28,-0.91 6.28,-0.25 6.38,-0.22 6.49,-0.20 6.58,-0.14 6.67,-0.09 6.74,-0.00 6.80,0.07 6.84,0.17 6.88,0.27 6.88,0.37 6.89,0.48 6.86,0.58 6.83,0.68 6.77,0.77 6.71,0.86 6.62,0.92 6.54,0.98 6.44,1.02 6.34,1.05 6.23,1.05 6.12,1.05 6.02,1.01 5.92,0.97 5.84,0.91 5.75,0.84 5.70,0.76 5.64,0.67 5.61,0.56 5.58,0.46 5.59,0.36 5.60,0.25 5.64,0.15 5.68,0.05 5.75,-0.02 5.82,-0.10 5.91,-0.15 6.00,-0.20 6.11,-0.23 6.21,-0.25 6.32,-0.23 6.42,-0.22 6.52,-0.18 6.61,-0.13 6.69,-0.06 6.76,0.01 6.81,0.10 6.86,0.20 6.88,0.30 6.89,0.41 6.88,0.51 6.86,0.62 6.81,0.71 6.75,0.80 6.68,0.87 6.60,0.95 6.50,0.99 6.40,1.03 6.30,1.04 6.19,1.05 6.19,1.05 6.19,1.05 4.16,1.43 2.12,1.80 1.03,1.45 -0.05,1.11 -0.18,1.08 -0.31,1.06 -0.44,1.01 -0.56,0.95 -0.67,0.87 -0.77,0.79 -0.86,0.69 -0.94,0.58 -1.00,0.46 -1.05,0.34 -1.08,0.21 -1.10,0.07 -1.10,-0.05 -1.09,-0.18 -1.05,-0.31 -1.01,-0.44 -0.95,-0.56 -0.88,-0.67 -0.78,-0.77 -0.69,-0.86 -0.58,-0.93 -0.46,-1.00 -0.33,-1.05 -0.21,-1.09 -0.07,-1.10 0.05,-1.11 0.05,-1.11 L 0.05,-1.11 Z"/></g><g transform="translate(237.27758428968633 153.4810442243302) rotate(0 0.8371407645089164 2.720615931919639)" stroke="none"><path fill="#c92a2a" d="M 0.76,-0.65 Q 0.76,-0.65 1.56,-0.19 2.36,0.27 2.82,1.11 3.28,1.96 1.76,3.50 0.24,5.04 0.26,5.11 0.29,5.19 0.29,5.27 0.30,5.35 0.29,5.42 0.27,5.50 0.24,5.57 0.21,5.65 0.16,5.71 0.11,5.77 0.05,5.82 -0.00,5.87 -0.07,5.90 -0.14,5.94 -0.22,5.95 -0.30,5.97 -0.38,5.96 -0.46,5.96 -0.53,5.94 -0.61,5.92 -0.68,5.88 -0.75,5.84 -0.80,5.78 -0.86,5.72 -0.90,5.66 -0.94,5.59 -0.67,5.78 -0.39,5.97 -0.50,5.94 -0.60,5.92 -0.69,5.86 -0.78,5.81 -0.85,5.72 -0.92,5.64 -0.95,5.54 -0.99,5.44 -0.99,5.34 -1.00,5.23 -0.97,5.13 -0.94,5.03 -0.88,4.94 -0.82,4.85 -0.73,4.79 -0.64,4.73 -0.54,4.70 -0.44,4.66 -0.34,4.67 -0.23,4.67 -0.13,4.70 -0.03,4.74 0.04,4.80 0.13,4.87 0.19,4.96 0.24,5.05 0.27,5.15 0.30,5.25 0.29,5.36 0.28,5.47 0.24,5.56 0.20,5.66 0.13,5.74 0.06,5.82 -0.02,5.87 -0.12,5.93 -0.22,5.95 -0.32,5.97 -0.43,5.96 -0.53,5.94 -0.63,5.90 -0.73,5.85 -0.80,5.78 -0.88,5.70 -0.93,5.61 -0.97,5.51 -0.99,5.41 -1.00,5.30 -0.98,5.20 -0.97,5.09 -0.91,5.00 -0.86,4.91 -0.78,4.84 -0.71,4.76 -0.61,4.72 -0.51,4.68 -0.13,4.86 0.24,5.04 0.26,5.11 0.29,5.19 0.29,5.27 0.30,5.35 0.29,5.42 0.27,5.50 0.24,5.57 0.21,5.65 0.16,5.71 0.11,5.77 0.05,5.82 -0.00,5.87 -0.07,5.90 -0.14,5.94 -0.22,5.95 -0.30,5.97 -0.38,5.96 -0.46,5.96 -0.53,5.94 -0.61,5.92 -0.68,5.88 -0.75,5.84 -0.80,5.78 -0.86,5.72 -0.90,5.66 -0.94,5.59 -0.51,3.97 -0.08,2.35 -0.42,1.50 -0.76,0.65 -0.82,0.55 -0.89,0.45 -0.93,0.34 -0.97,0.23 -0.99,0.10 -1.00,-0.01 -0.99,-0.13 -0.97,-0.25 -0.92,-0.36 -0.88,-0.47 -0.81,-0.57 -0.74,-0.67 -0.65,-0.75 -0.56,-0.83 -0.45,-0.88 -0.34,-0.94 -0.22,-0.97 -0.11,-1.00 0.01,-0.99 0.13,-0.99 0.24,-0.96 0.36,-0.93 0.47,-0.87 0.58,-0.82 0.67,-0.74 0.76,-0.65 0.76,-0.65 L 0.76,-0.65 Z"/></g><g transform="translate(164.8271622751774 208.04554966517838) rotate(0 -2.2450387137276806 4.965628487723251)" stroke="none"><path fill="#c92a2a" d="M 0.15,0.92 Q 0.15,0.92 -1.00,1.39 -2.15,1.86 -2.79,2.49 -3.43,3.13 -3.82,3.95 -4.20,4.77 -4.23,5.56 -4.26,6.34 -3.89,6.96 -3.52,7.58 -2.82,7.99 -2.12,8.39 -0.45,8.59 1.22,8.78 1.32,8.76 1.43,8.74 1.53,8.76 1.64,8.77 1.73,8.82 1.83,8.86 1.90,8.94 1.98,9.01 2.02,9.11 2.07,9.21 2.09,9.31 2.10,9.42 2.08,9.52 2.06,9.62 2.01,9.72 1.96,9.81 1.88,9.88 1.80,9.95 1.70,9.99 1.60,10.04 1.50,10.04 1.39,10.05 1.29,10.03 1.18,10.00 1.09,9.94 1.00,9.89 0.94,9.80 0.87,9.72 0.84,9.62 0.80,9.52 0.80,9.42 0.79,9.31 0.82,9.21 0.86,9.11 0.92,9.02 0.98,8.93 1.07,8.87 1.15,8.81 1.25,8.78 1.36,8.75 1.46,8.75 1.57,8.75 1.67,8.79 1.77,8.83 1.85,8.89 1.93,8.96 1.99,9.05 2.05,9.14 2.07,9.24 2.10,9.34 2.09,9.45 2.08,9.56 2.04,9.65 2.00,9.75 1.93,9.83 1.85,9.91 1.76,9.96 1.67,10.01 1.67,10.01 1.67,10.01 -1.12,10.49 -3.91,10.97 -5.09,10.01 -6.27,9.05 -6.82,7.65 -7.36,6.25 -7.18,4.80 -6.99,3.35 -6.21,2.06 -5.42,0.76 -4.12,-0.13 -2.82,-1.03 -1.49,-0.97 -0.15,-0.92 -0.04,-0.92 0.07,-0.93 0.18,-0.90 0.29,-0.88 0.39,-0.83 0.49,-0.79 0.58,-0.72 0.67,-0.64 0.73,-0.55 0.80,-0.47 0.85,-0.36 0.89,-0.26 0.91,-0.15 0.93,-0.04 0.92,0.07 0.91,0.18 0.88,0.29 0.84,0.39 0.78,0.49 0.72,0.58 0.64,0.66 0.56,0.74 0.46,0.80 0.36,0.85 0.26,0.88 0.15,0.92 0.15,0.92 L 0.15,0.92 Z"/></g><g transform="translate(158.3203088990613 201.76722935267838) rotate(0 4.147635323660722 0.4756382533482224)" stroke="none"><path fill="#c92a2a" d="M 0.03,-0.99 Q 0.03,-0.99 1.15,-1.22 2.27,-1.46 3.37,-1.35 4.48,-1.24 6.37,-0.48 8.26,0.27 8.36,0.31 8.46,0.35 8.54,0.41 8.62,0.48 8.68,0.57 8.73,0.66 8.75,0.77 8.78,0.87 8.77,0.98 8.76,1.08 8.71,1.18 8.67,1.27 8.60,1.35 8.52,1.43 8.43,1.48 8.34,1.53 8.23,1.55 8.13,1.57 8.02,1.55 7.92,1.54 7.82,1.49 7.73,1.44 7.66,1.36 7.58,1.28 7.54,1.19 7.49,1.09 7.48,0.99 7.47,0.88 7.49,0.78 7.51,0.67 7.56,0.58 7.62,0.49 7.70,0.42 7.78,0.35 7.88,0.31 7.98,0.27 8.08,0.26 8.19,0.26 8.29,0.29 8.39,0.31 8.48,0.37 8.57,0.43 8.64,0.51 8.70,0.60 8.74,0.70 8.77,0.80 8.77,0.91 8.77,1.01 8.74,1.11 8.71,1.21 8.64,1.30 8.58,1.38 8.49,1.44 8.40,1.50 8.30,1.53 8.20,1.56 8.09,1.56 7.99,1.55 7.99,1.55 7.99,1.55 6.08,1.70 4.17,1.84 3.16,1.74 2.14,1.63 1.05,1.31 -0.03,0.99 -0.15,0.97 -0.27,0.95 -0.38,0.90 -0.49,0.86 -0.59,0.78 -0.68,0.71 -0.76,0.62 -0.84,0.53 -0.89,0.42 -0.94,0.31 -0.96,0.19 -0.99,0.08 -0.98,-0.03 -0.98,-0.15 -0.94,-0.27 -0.91,-0.38 -0.85,-0.49 -0.79,-0.59 -0.71,-0.68 -0.62,-0.76 -0.52,-0.83 -0.42,-0.89 -0.31,-0.93 -0.19,-0.97 -0.08,-0.98 0.03,-0.99 0.03,-0.99 L 0.03,-0.99 Z"/></g><g transform="translate(166.57754592473094 199.33196149553555) rotate(0 -0.1331874302455276 3.519688197544639)" stroke="none"><path fill="#c92a2a" d="M 0.92,-0.29 Q 0.92,-0.29 1.50,0.63 2.07,1.57 2.33,2.24 2.59,2.91 2.64,3.78 2.69,4.66 0.74,6.06 -1.20,7.47 -1.30,7.51 -1.40,7.55 -1.50,7.56 -1.61,7.56 -1.71,7.54 -1.82,7.51 -1.90,7.45 -1.99,7.39 -2.06,7.31 -2.12,7.22 -2.16,7.12 -2.19,7.02 -2.19,6.91 -2.19,6.81 -2.16,6.71 -2.12,6.61 -2.06,6.52 -2.00,6.44 -1.91,6.38 -1.82,6.32 -1.72,6.29 -1.62,6.26 -1.51,6.26 -1.40,6.27 -1.31,6.31 -1.21,6.35 -1.13,6.42 -1.04,6.48 -0.99,6.57 -0.93,6.67 -0.91,6.77 -0.89,6.87 -0.90,6.98 -0.91,7.08 -0.95,7.18 -1.00,7.28 -1.07,7.35 -1.14,7.43 -1.24,7.48 -1.33,7.53 -1.43,7.55 -1.54,7.57 -1.64,7.55 -1.75,7.53 -1.84,7.48 -1.94,7.44 -2.01,7.36 -2.08,7.28 -2.13,7.19 -2.17,7.09 -2.19,6.98 -2.20,6.88 -2.18,6.77 -2.15,6.67 -2.10,6.58 -2.04,6.49 -1.96,6.42 -1.88,6.35 -1.88,6.35 -1.88,6.35 -1.11,5.12 -0.33,3.89 -0.54,3.19 -0.76,2.49 -0.84,1.39 -0.92,0.29 -0.94,0.18 -0.97,0.06 -0.96,-0.04 -0.95,-0.16 -0.92,-0.27 -0.89,-0.39 -0.83,-0.49 -0.77,-0.59 -0.69,-0.67 -0.60,-0.76 -0.50,-0.82 -0.40,-0.88 -0.29,-0.92 -0.18,-0.95 -0.06,-0.96 0.04,-0.97 0.16,-0.95 0.28,-0.93 0.38,-0.88 0.49,-0.83 0.58,-0.76 0.68,-0.69 0.75,-0.60 0.82,-0.51 0.87,-0.40 0.92,-0.29 0.92,-0.29 L 0.92,-0.29 Z"/></g><g stroke-linecap="round"><g transform="translate(166.18406971100345 10) rotate(0 106.03104945591518 11.148812430245542)"><path d="M0 0 C35.34 3.72, 176.72 18.58, 212.06 22.3 M0 0 C35.34 3.72, 176.72 18.58, 212.06 22.3" stroke="#c92a2a" stroke-width="0.5" fill="none"/></g></g><mask/><g stroke-linecap="round"><g transform="translate(293.4669763795302 146.94398716517858) rotate(0 50.837053571428584 -52.24342564174107)"><path d="M0 0 C16.95 -17.41, 84.73 -87.07, 101.67 -104.49 M0 0 C16.95 -17.41, 84.73 -87.07, 101.67 -104.49" stroke="#c92a2a" stroke-width="0.5" fill="none"/></g></g><mask/><g transform="translate(269.22938813162256 131.67235695554032) rotate(0 27.211352229703635 -9.200025129727763)" stroke="none"><path fill="#c92a2a" d="M -0.36,-0.99 Q -0.36,-0.99 3.53,-2.44 7.44,-3.88 11.71,-5.36 15.98,-6.83 20.67,-8.44 25.37,-10.04 30.40,-11.69 35.44,-13.34 40.39,-14.88 45.34,-16.42 48.98,-17.47 52.63,-18.51 52.73,-18.53 52.84,-18.54 52.94,-18.53 53.05,-18.51 53.14,-18.46 53.23,-18.40 53.30,-18.33 53.38,-18.25 53.42,-18.15 53.46,-18.05 53.47,-17.95 53.48,-17.84 53.46,-17.74 53.43,-17.64 53.38,-17.54 53.32,-17.45 53.24,-17.39 53.16,-17.32 53.06,-17.28 52.96,-17.24 52.85,-17.24 52.74,-17.24 52.64,-17.27 52.54,-17.30 52.45,-17.36 52.37,-17.42 52.30,-17.50 52.24,-17.59 52.21,-17.69 52.18,-17.79 52.18,-17.90 52.18,-18.01 52.22,-18.11 52.25,-18.21 52.32,-18.29 52.38,-18.37 52.47,-18.43 52.56,-18.49 52.66,-18.52 52.77,-18.54 52.87,-18.53 52.98,-18.53 53.08,-18.49 53.17,-18.45 53.25,-18.38 53.33,-18.30 53.39,-18.21 53.44,-18.12 53.46,-18.02 53.48,-17.91 53.47,-17.81 53.46,-17.70 53.41,-17.61 53.36,-17.51 53.29,-17.43 53.22,-17.36 53.12,-17.31 53.03,-17.26 53.03,-17.26 53.03,-17.26 49.45,-16.01 45.88,-14.76 40.97,-13.10 36.07,-11.45 31.06,-9.75 26.05,-8.05 21.36,-6.45 16.67,-4.84 12.42,-3.37 8.17,-1.91 4.27,-0.46 0.36,0.99 0.24,1.02 0.12,1.05 -0.00,1.05 -0.13,1.05 -0.25,1.01 -0.38,0.98 -0.49,0.92 -0.60,0.86 -0.70,0.78 -0.79,0.69 -0.86,0.59 -0.94,0.48 -0.98,0.36 -1.03,0.24 -1.04,0.11 -1.05,-0.00 -1.04,-0.13 -1.02,-0.26 -0.98,-0.37 -0.93,-0.49 -0.86,-0.60 -0.78,-0.70 -0.69,-0.79 -0.59,-0.87 -0.48,-0.93 -0.36,-0.99 -0.36,-0.99 L -0.36,-0.99 Z"/></g><g transform="translate(199.2254883743473 129.44654963430324) rotate(0 67.51830893897515 -22.202478183876295)" stroke="none"><path fill="#c92a2a" d="M -0.33,-0.89 Q -0.33,-0.89 8.37,-4.20 17.07,-7.51 25.39,-10.52 33.71,-13.52 42.28,-16.49 50.85,-19.46 60.68,-22.67 70.52,-25.88 80.02,-28.87 89.53,-31.86 98.69,-34.61 107.85,-37.35 115.62,-39.53 123.40,-41.70 126.69,-42.65 129.99,-43.60 130.09,-43.61 130.20,-43.62 130.30,-43.60 130.40,-43.58 130.50,-43.53 130.59,-43.48 130.66,-43.40 130.73,-43.32 130.77,-43.22 130.81,-43.12 130.82,-43.01 130.82,-42.91 130.80,-42.80 130.77,-42.70 130.71,-42.61 130.65,-42.52 130.57,-42.46 130.49,-42.39 130.39,-42.36 130.29,-42.32 130.18,-42.32 130.07,-42.32 129.97,-42.35 129.87,-42.38 129.79,-42.45 129.70,-42.51 129.64,-42.60 129.58,-42.68 129.55,-42.79 129.52,-42.89 129.52,-42.99 129.53,-43.10 129.56,-43.20 129.60,-43.30 129.67,-43.38 129.74,-43.46 129.83,-43.52 129.92,-43.57 130.02,-43.60 130.12,-43.62 130.23,-43.61 130.34,-43.60 130.43,-43.56 130.53,-43.52 130.61,-43.45 130.69,-43.37 130.74,-43.28 130.79,-43.19 130.81,-43.08 130.83,-42.98 130.81,-42.87 130.80,-42.77 130.75,-42.67 130.70,-42.58 130.62,-42.50 130.55,-42.43 130.45,-42.38 130.36,-42.34 130.36,-42.34 130.36,-42.34 127.07,-41.35 123.79,-40.36 116.09,-37.98 108.39,-35.60 99.26,-32.79 90.13,-29.98 80.63,-26.97 71.14,-23.97 61.32,-20.77 51.50,-17.56 42.94,-14.60 34.38,-11.65 26.08,-8.66 17.77,-5.67 9.05,-2.38 0.33,0.89 0.22,0.92 0.11,0.94 -0.00,0.94 -0.11,0.94 -0.22,0.92 -0.33,0.89 -0.44,0.83 -0.54,0.78 -0.62,0.70 -0.71,0.63 -0.78,0.53 -0.84,0.44 -0.88,0.33 -0.92,0.22 -0.94,0.11 -0.95,-0.00 -0.94,-0.11 -0.92,-0.22 -0.88,-0.33 -0.84,-0.44 -0.77,-0.53 -0.71,-0.63 -0.62,-0.71 -0.54,-0.78 -0.43,-0.83 -0.33,-0.89 -0.33,-0.89 L -0.33,-0.89 Z"/></g><g transform="translate(159.12258412134216 104.14649327870521) rotate(0 77.08958814812816 -24.873462270744795)" stroke="none"><path fill="#c92a2a" d="M -0.33,-0.93 Q -0.33,-0.93 11.49,-5.16 23.32,-9.40 33.70,-13.22 44.08,-17.03 54.20,-20.67 64.32,-24.31 74.51,-27.77 84.69,-31.23 100.87,-35.92 117.04,-40.61 127.68,-43.39 138.32,-46.17 142.83,-47.37 147.34,-48.57 147.45,-48.58 147.55,-48.59 147.66,-48.57 147.76,-48.55 147.85,-48.49 147.94,-48.44 148.01,-48.35 148.08,-48.27 148.12,-48.17 148.15,-48.08 148.16,-47.97 148.16,-47.86 148.14,-47.76 148.11,-47.66 148.05,-47.57 147.99,-47.48 147.90,-47.42 147.82,-47.36 147.71,-47.32 147.61,-47.29 147.51,-47.29 147.40,-47.29 147.30,-47.33 147.20,-47.36 147.12,-47.42 147.03,-47.49 146.97,-47.58 146.91,-47.67 146.89,-47.77 146.86,-47.87 146.87,-47.98 146.87,-48.08 146.91,-48.18 146.95,-48.28 147.02,-48.36 147.09,-48.44 147.18,-48.50 147.27,-48.55 147.38,-48.57 147.48,-48.59 147.59,-48.58 147.69,-48.57 147.79,-48.52 147.88,-48.48 147.96,-48.41 148.04,-48.33 148.09,-48.24 148.14,-48.14 148.15,-48.04 148.17,-47.93 148.15,-47.83 148.13,-47.72 148.08,-47.63 148.03,-47.54 147.95,-47.46 147.88,-47.39 147.78,-47.35 147.68,-47.30 147.68,-47.30 147.68,-47.30 143.18,-46.06 138.68,-44.82 128.11,-41.86 117.54,-38.90 101.43,-34.14 85.32,-29.39 75.15,-25.93 64.98,-22.47 54.88,-18.82 44.77,-15.16 34.40,-11.30 24.02,-7.44 12.17,-3.25 0.33,0.93 0.21,0.95 0.09,0.98 -0.02,0.98 -0.13,0.98 -0.25,0.94 -0.37,0.91 -0.47,0.86 -0.57,0.80 -0.66,0.72 -0.75,0.64 -0.82,0.54 -0.88,0.44 -0.92,0.32 -0.96,0.21 -0.97,0.09 -0.99,-0.02 -0.97,-0.13 -0.95,-0.25 -0.91,-0.36 -0.86,-0.47 -0.79,-0.57 -0.72,-0.67 -0.63,-0.74 -0.54,-0.82 -0.43,-0.87 -0.33,-0.93 -0.33,-0.93 L -0.33,-0.93 Z"/></g><g transform="translate(116.4228309868968 84.93031820187278) rotate(0 54.92354425968422 -21.77586709748526)" stroke="none"><path fill="#c92a2a" d="M -0.42,-0.84 Q -0.42,-0.84 7.53,-4.82 15.50,-8.79 22.99,-12.26 30.48,-15.73 38.17,-19.03 45.86,-22.32 53.86,-25.42 61.86,-28.52 70.85,-31.64 79.84,-34.77 88.41,-37.48 96.98,-40.19 100.63,-41.32 104.27,-42.44 104.38,-42.46 104.48,-42.47 104.59,-42.45 104.69,-42.43 104.78,-42.38 104.88,-42.33 104.95,-42.25 105.02,-42.18 105.07,-42.08 105.11,-41.98 105.12,-41.88 105.13,-41.77 105.10,-41.67 105.08,-41.56 105.02,-41.47 104.97,-41.38 104.89,-41.32 104.81,-41.25 104.71,-41.21 104.61,-41.17 104.50,-41.17 104.39,-41.16 104.29,-41.19 104.19,-41.22 104.10,-41.28 104.02,-41.34 103.95,-41.43 103.89,-41.51 103.86,-41.62 103.82,-41.72 103.83,-41.82 103.83,-41.93 103.86,-42.03 103.90,-42.13 103.96,-42.21 104.03,-42.30 104.12,-42.36 104.21,-42.41 104.31,-42.44 104.41,-42.47 104.52,-42.46 104.62,-42.45 104.72,-42.41 104.82,-42.37 104.90,-42.30 104.98,-42.23 105.03,-42.14 105.09,-42.05 105.11,-41.95 105.13,-41.84 105.12,-41.74 105.10,-41.63 105.06,-41.53 105.01,-41.44 104.94,-41.36 104.86,-41.29 104.77,-41.24 104.68,-41.19 104.68,-41.19 104.68,-41.19 101.06,-39.97 97.44,-38.75 88.92,-35.95 80.41,-33.15 71.47,-29.98 62.53,-26.80 54.56,-23.72 46.58,-20.63 38.92,-17.35 31.25,-14.07 23.78,-10.61 16.32,-7.16 8.37,-3.15 0.42,0.84 0.31,0.88 0.20,0.92 0.09,0.93 -0.01,0.94 -0.13,0.93 -0.24,0.91 -0.34,0.87 -0.45,0.83 -0.54,0.76 -0.64,0.69 -0.71,0.61 -0.78,0.52 -0.84,0.42 -0.89,0.31 -0.91,0.20 -0.94,0.09 -0.93,-0.01 -0.93,-0.13 -0.90,-0.24 -0.87,-0.35 -0.82,-0.45 -0.76,-0.55 -0.69,-0.63 -0.61,-0.72 -0.51,-0.78 -0.42,-0.84 -0.42,-0.84 L -0.42,-0.84 Z"/></g><g transform="translate(165.20665241702324 35.591464569840525) rotate(0 10.220491429513075 -3.6540470035687918)" stroke="none"><path fill="#c92a2a" d="M -0.30,-0.85 Q -0.30,-0.85 5.60,-2.85 11.52,-4.84 14.02,-5.72 16.52,-6.60 16.63,-6.62 16.73,-6.64 16.84,-6.62 16.94,-6.61 17.04,-6.56 17.13,-6.51 17.21,-6.44 17.28,-6.36 17.33,-6.27 17.37,-6.17 17.39,-6.06 17.40,-5.96 17.38,-5.86 17.36,-5.75 17.31,-5.66 17.25,-5.57 17.17,-5.50 17.09,-5.43 16.99,-5.39 16.90,-5.34 16.79,-5.34 16.68,-5.33 16.58,-5.36 16.48,-5.38 16.39,-5.44 16.30,-5.50 16.24,-5.58 16.17,-5.66 16.13,-5.77 16.10,-5.87 16.10,-5.97 16.09,-6.08 16.13,-6.18 16.16,-6.28 16.22,-6.37 16.28,-6.45 16.37,-6.51 16.46,-6.57 16.56,-6.60 16.66,-6.63 16.77,-6.63 16.87,-6.63 16.97,-6.59 17.07,-6.55 17.15,-6.48 17.24,-6.42 17.29,-6.33 17.35,-6.24 17.37,-6.13 17.40,-6.03 17.39,-5.92 17.38,-5.82 17.34,-5.72 17.29,-5.62 17.22,-5.55 17.15,-5.47 17.06,-5.42 16.96,-5.36 16.96,-5.36 16.96,-5.36 14.47,-4.46 11.98,-3.55 6.14,-1.34 0.30,0.85 0.19,0.88 0.09,0.90 -0.01,0.90 -0.12,0.90 -0.23,0.87 -0.33,0.84 -0.43,0.79 -0.53,0.74 -0.61,0.66 -0.69,0.59 -0.75,0.49 -0.81,0.40 -0.85,0.30 -0.88,0.20 -0.90,0.09 -0.91,-0.01 -0.89,-0.12 -0.88,-0.23 -0.83,-0.33 -0.79,-0.43 -0.73,-0.52 -0.67,-0.61 -0.58,-0.68 -0.50,-0.75 -0.40,-0.80 -0.30,-0.85 -0.30,-0.85 L -0.30,-0.85 Z"/></g></svg>