<svg version="1.1" xmlns="http://www.w3.org/2000/svg" viewBox="0 0 340.9854463396655 191.19900512695312" width="340.9854463396655" height="191.19900512695312" filter="invert(93%) hue-rotate(180deg)">
  <!-- svg-source:excalidraw -->
  
  <defs>
    <style class="style-fonts">
      @font-face {
        font-family: "Virgil";
        src: url("https://excalidraw.com/Virgil.woff2");
      }
      @font-face {
        font-family: "Cascadia";
        src: url("https://excalidraw.com/Cascadia.woff2");
      }
    </style>
  </defs>
  <rect x="0" y="0" width="340.9854463396655" height="191.19900512695312" fill="#ffffff"/><g stroke-linecap="round"><g transform="translate(121.4058837890625 181.19900512695312) rotate(0 -55.70294189453125 -85.59950256347656)"><path d="M0 0 C-18.57 -28.53, -92.84 -142.67, -111.41 -171.2 M0 0 C-18.57 -28.53, -92.84 -142.67, -111.41 -171.2" stroke="#000000" stroke-width="1" fill="none"/></g><g transform="translate(121.4058837890625 181.19900512695312) rotate(0 -55.70294189453125 -85.59950256347656)"><path d="M-111.41 -171.2 L-98.68 -163.26 L-109.3 -156.35 L-111.41 -171.2" stroke="none" stroke-width="0" fill="#000000" fill-rule="evenodd"/><path d="M-111.41 -171.2 C-107.56 -168.8, -103.71 -166.4, -98.68 -163.26 M-111.41 -171.2 C-107.45 -168.73, -103.49 -166.26, -98.68 -163.26 M-98.68 -163.26 C-100.86 -161.84, -103.05 -160.42, -109.3 -156.35 M-98.68 -163.26 C-101.46 -161.45, -104.25 -159.64, -109.3 -156.35 M-109.3 -156.35 C-109.8 -159.84, -110.29 -163.34, -111.41 -171.2 M-109.3 -156.35 C-109.73 -159.39, -110.17 -162.43, -111.41 -171.2 M-111.41 -171.2 C-111.41 -171.2, -111.41 -171.2, -111.41 -171.2 M-111.41 -171.2 C-111.41 -171.2, -111.41 -171.2, -111.41 -171.2" stroke="#000000" stroke-width="1" fill="none"/></g></g><mask/><g stroke-linecap="round"><g transform="translate(120.29324663263424 179.4725527820805) rotate(0 105.34609985351562 0)"><path d="M0 0 C35.12 0, 175.58 0, 210.69 0 M0 0 C35.12 0, 175.58 0, 210.69 0" stroke="#000000" stroke-width="1" fill="none"/></g><g transform="translate(120.29324663263424 179.4725527820805) rotate(0 105.34609985351562 0)"><path d="M210.69 0 L197.1 6.34 L197.1 -6.34 L210.69 0" stroke="none" stroke-width="0" fill="#000000" fill-rule="evenodd"/><path d="M210.69 0 C206.01 2.18, 201.33 4.37, 197.1 6.34 M210.69 0 C207.81 1.35, 204.92 2.69, 197.1 6.34 M197.1 6.34 C197.1 3.62, 197.1 0.91, 197.1 -6.34 M197.1 6.34 C197.1 1.55, 197.1 -3.23, 197.1 -6.34 M197.1 -6.34 C200.33 -4.83, 203.56 -3.33, 210.69 0 M197.1 -6.34 C202.13 -3.99, 207.17 -1.64, 210.69 0 M210.69 0 C210.69 0, 210.69 0, 210.69 0 M210.69 0 C210.69 0, 210.69 0, 210.69 0" stroke="#000000" stroke-width="1" fill="none"/></g></g><mask/><g transform="translate(106.39156383565 153.309139251709) rotate(0 22.807228088378906 11.4698486328125)" stroke="none"><path fill="#c92a2a" d="M -0.26,-0.76 Q -0.26,-0.76 0.19,-0.94 0.66,-1.12 1.32,-1.31 1.98,-1.50 2.81,-1.58 3.63,-1.67 4.53,-1.71 5.43,-1.75 6.42,-1.86 7.41,-1.98 7.95,-2.05 8.49,-2.11 9.07,-2.15 9.66,-2.18 10.23,-2.19 10.80,-2.20 11.40,-2.21 12.00,-2.22 12.55,-2.20 13.11,-2.18 14.16,-2.11 15.21,-2.03 16.25,-1.88 17.29,-1.74 17.83,-1.62 18.37,-1.50 18.88,-1.38 19.40,-1.25 19.91,-1.10 20.43,-0.94 20.94,-0.76 21.46,-0.57 22.02,-0.36 22.58,-0.14 23.13,0.08 23.68,0.31 24.26,0.58 24.84,0.85 25.38,1.10 25.93,1.34 26.44,1.57 26.96,1.80 27.51,2.03 28.07,2.25 28.66,2.52 29.25,2.79 29.82,3.06 30.38,3.34 30.98,3.67 31.58,3.99 32.16,4.32 32.74,4.65 33.35,5.06 33.96,5.46 34.54,5.95 35.13,6.45 35.65,6.97 36.18,7.49 36.67,8.00 37.16,8.51 37.61,8.97 38.05,9.43 38.44,9.90 38.83,10.37 39.24,10.88 39.64,11.40 40.02,11.92 40.40,12.45 40.76,12.98 41.11,13.50 41.45,14.04 41.79,14.57 42.11,15.14 42.42,15.71 42.70,16.29 42.98,16.87 43.25,17.48 43.53,18.08 43.80,18.70 44.06,19.32 44.32,19.93 44.58,20.54 45.28,22.11 45.99,23.69 46.03,23.78 46.08,23.88 46.09,23.99 46.10,24.09 46.08,24.19 46.05,24.30 46.00,24.39 45.95,24.48 45.86,24.55 45.78,24.62 45.69,24.66 45.59,24.70 45.48,24.70 45.37,24.71 45.27,24.68 45.17,24.65 45.08,24.59 44.99,24.53 44.93,24.45 44.86,24.37 44.83,24.27 44.80,24.16 44.80,24.06 44.80,23.95 44.83,23.85 44.86,23.75 44.93,23.67 44.99,23.58 45.08,23.52 45.17,23.46 45.27,23.43 45.37,23.40 45.48,23.41 45.58,23.42 45.68,23.45 45.78,23.49 45.86,23.56 45.94,23.63 46.00,23.72 46.05,23.81 46.08,23.92 46.10,24.02 46.09,24.13 46.08,24.23 46.03,24.33 45.99,24.42 45.92,24.50 45.84,24.58 45.75,24.63 45.66,24.68 45.55,24.70 45.45,24.71 45.34,24.70 45.24,24.68 45.14,24.63 45.05,24.58 44.97,24.50 44.90,24.43 44.90,24.43 44.90,24.43 43.96,22.82 43.01,21.21 42.76,20.60 42.50,20.00 42.24,19.39 41.97,18.78 41.71,18.20 41.44,17.62 41.18,17.09 40.91,16.55 40.62,16.02 40.33,15.49 40.01,14.98 39.68,14.47 39.34,13.97 39.00,13.46 38.64,12.96 38.28,12.47 37.89,11.97 37.51,11.48 37.15,11.06 36.80,10.63 36.36,10.17 35.92,9.71 35.44,9.22 34.96,8.72 34.48,8.24 34.00,7.76 33.50,7.33 33.01,6.90 32.45,6.53 31.88,6.16 31.32,5.84 30.75,5.51 30.19,5.20 29.62,4.89 29.07,4.63 28.53,4.36 27.98,4.10 27.43,3.85 26.84,3.61 26.25,3.37 25.74,3.14 25.23,2.91 24.66,2.66 24.10,2.41 23.56,2.15 23.02,1.89 22.50,1.67 21.98,1.45 21.43,1.25 20.88,1.04 19.93,0.73 18.99,0.42 18.00,0.19 17.02,-0.03 16.04,-0.17 15.06,-0.30 14.52,-0.35 13.99,-0.40 13.00,-0.45 12.01,-0.49 11.43,-0.48 10.84,-0.48 9.77,-0.44 8.70,-0.41 7.66,-0.27 6.62,-0.14 6.06,-0.10 5.50,-0.05 4.63,-0.01 3.75,0.01 3.07,0.07 2.38,0.12 1.80,0.30 1.21,0.47 0.73,0.61 0.26,0.76 0.16,0.78 0.07,0.80 -0.02,0.79 -0.11,0.79 -0.21,0.76 -0.30,0.74 -0.39,0.69 -0.47,0.64 -0.54,0.58 -0.61,0.51 -0.66,0.43 -0.72,0.35 -0.75,0.26 -0.78,0.17 -0.79,0.07 -0.80,-0.02 -0.78,-0.11 -0.77,-0.21 -0.73,-0.30 -0.70,-0.39 -0.64,-0.47 -0.58,-0.55 -0.51,-0.61 -0.43,-0.67 -0.35,-0.71 -0.26,-0.76 -0.26,-0.76 L -0.26,-0.76 Z"/></g><g transform="translate(143.04961437275938 132.26717758178714) rotate(0 -3.163055419921875 4.428131103515625)" stroke="none"><path fill="#c92a2a" d="M 0.82,0.21 Q 0.82,0.21 0.54,1.66 0.26,3.12 -0.25,4.28 -0.78,5.45 -1.52,6.35 -2.27,7.24 -3.19,7.78 -4.11,8.31 -5.13,8.38 -6.15,8.44 -7.08,8.02 -8.01,7.61 -8.63,6.77 -9.24,5.93 -9.53,4.93 -9.83,3.93 -9.81,2.89 -9.79,1.86 -9.47,0.94 -9.15,0.02 -8.59,-0.70 -8.02,-1.43 -7.12,-1.71 -6.21,-2.00 -5.30,-1.55 -4.40,-1.10 -3.60,-0.11 -2.80,0.86 -2.15,2.10 -1.51,3.33 -0.92,4.55 -0.33,5.77 0.19,6.77 0.71,7.78 1.82,8.78 2.94,9.78 3.03,9.84 3.11,9.90 3.18,9.99 3.24,10.07 3.27,10.17 3.31,10.28 3.31,10.38 3.31,10.49 3.27,10.59 3.24,10.69 3.17,10.77 3.10,10.86 3.02,10.92 2.93,10.97 2.83,11.00 2.72,11.03 2.62,11.02 2.51,11.01 2.41,10.97 2.31,10.93 2.23,10.86 2.15,10.80 2.10,10.70 2.05,10.61 2.02,10.51 2.00,10.40 2.01,10.30 2.03,10.19 2.07,10.10 2.12,10.00 2.19,9.92 2.27,9.85 2.36,9.80 2.45,9.75 2.56,9.73 2.66,9.72 2.77,9.74 2.87,9.76 2.97,9.81 3.06,9.86 3.13,9.93 3.21,10.01 3.25,10.11 3.29,10.21 3.30,10.31 3.31,10.42 3.29,10.52 3.27,10.62 3.21,10.71 3.15,10.81 3.07,10.87 2.99,10.94 2.89,10.98 2.79,11.02 2.69,11.02 2.58,11.03 2.48,11.00 2.38,10.97 2.38,10.97 2.38,10.97 0.66,9.83 -1.05,8.69 -1.57,7.65 -2.09,6.60 -2.65,5.39 -3.20,4.17 -3.73,3.06 -4.25,1.95 -4.80,1.15 -5.35,0.34 -6.09,0.03 -6.84,-0.27 -7.20,0.18 -7.55,0.64 -7.82,1.29 -8.08,1.95 -8.13,2.73 -8.17,3.51 -7.99,4.26 -7.81,5.01 -7.48,5.58 -7.16,6.15 -6.65,6.44 -6.14,6.74 -5.56,6.71 -4.99,6.69 -4.42,6.30 -3.85,5.90 -3.28,5.21 -2.72,4.51 -2.24,3.55 -1.75,2.58 -1.29,1.18 -0.82,-0.21 -0.78,-0.31 -0.74,-0.40 -0.68,-0.48 -0.62,-0.57 -0.55,-0.63 -0.47,-0.70 -0.38,-0.75 -0.28,-0.79 -0.19,-0.82 -0.09,-0.84 0.01,-0.84 0.11,-0.84 0.21,-0.81 0.31,-0.78 0.40,-0.74 0.49,-0.69 0.56,-0.62 0.64,-0.55 0.70,-0.46 0.75,-0.38 0.79,-0.28 0.82,-0.19 0.83,-0.08 0.84,0.01 0.83,0.11 0.82,0.21 0.82,0.21 L 0.82,0.21 Z"/></g></svg>