<svg version="1.1" xmlns="http://www.w3.org/2000/svg" viewBox="0 0 483.8834072565432 261.79480055510595" width="483.8834072565432" height="261.79480055510595" filter="invert(93%) hue-rotate(180deg)">
  <!-- svg-source:excalidraw -->
  
  <defs>
    <style class="style-fonts">
      @font-face {
        font-family: "Virgil";
        src: url("https://excalidraw.com/Virgil.woff2");
      }
      @font-face {
        font-family: "Cascadia";
        src: url("https://excalidraw.com/Cascadia.woff2");
      }
    </style>
  </defs>
  <rect x="0" y="0" width="483.8834072565432" height="261.79480055510595" fill="transparent"/><g stroke-linecap="round" transform="translate(2.5499106550422255 123.18376987994799) rotate(345.6021048829999 237.20579811801863 65.33147106962235)"><path d="M-0.12 66.14 C-0.12 66.14, -0.12 66.14, -0.12 66.14 M-0.12 66.14 C-0.12 66.14, -0.12 66.14, -0.12 66.14 M4.21 67.26 C4.9 66.46, 5.59 65.67, 6.83 64.24 M4.21 67.26 C5 66.35, 5.78 65.44, 6.83 64.24 M8.54 68.37 C10.04 66.64, 11.54 64.92, 13.79 62.33 M8.54 68.37 C9.66 67.09, 10.77 65.8, 13.79 62.33 M12.87 69.49 C15.04 66.99, 17.21 64.49, 20.74 60.43 M12.87 69.49 C14.85 67.21, 16.84 64.92, 20.74 60.43 M17.2 70.6 C21.01 66.22, 24.82 61.84, 27.7 58.53 M17.2 70.6 C19.88 67.52, 22.55 64.44, 27.7 58.53 M21.53 71.72 C26.37 66.16, 31.2 60.59, 34.65 56.62 M21.53 71.72 C26.16 66.39, 30.79 61.06, 34.65 56.62 M25.86 72.83 C31.53 66.32, 37.19 59.8, 41.61 54.72 M25.86 72.83 C31.65 66.17, 37.45 59.5, 41.61 54.72 M30.19 73.95 C35.73 67.57, 41.27 61.2, 48.56 52.81 M30.19 73.95 C35.88 67.4, 41.58 60.85, 48.56 52.81 M34.52 75.06 C39.07 69.83, 43.62 64.6, 56.17 50.16 M34.52 75.06 C42.6 65.77, 50.68 56.48, 56.17 50.16 M38.85 76.18 C43.85 70.43, 48.85 64.68, 63.13 48.25 M38.85 76.18 C44.53 69.65, 50.21 63.12, 63.13 48.25 M43.19 77.29 C50.37 69.02, 57.56 60.75, 70.08 46.35 M43.19 77.29 C49.81 69.67, 56.44 62.04, 70.08 46.35 M46.86 79.16 C55.39 69.35, 63.92 59.54, 77.04 44.44 M46.86 79.16 C57.14 67.33, 67.42 55.51, 77.04 44.44 M51.19 80.28 C57.91 72.55, 64.62 64.82, 83.99 42.54 M51.19 80.28 C58.36 72.03, 65.52 63.79, 83.99 42.54 M55.52 81.39 C66.26 69.04, 76.99 56.7, 90.95 40.64 M55.52 81.39 C64.41 71.17, 73.29 60.95, 90.95 40.64 M59.85 82.5 C71.9 68.64, 83.96 54.78, 97.9 38.73 M59.85 82.5 C70.3 70.48, 80.75 58.46, 97.9 38.73 M64.18 83.62 C76.73 69.18, 89.28 54.75, 104.86 36.83 M64.18 83.62 C75.96 70.07, 87.74 56.53, 104.86 36.83 M68.52 84.73 C77.93 73.91, 87.34 63.08, 111.82 34.92 M68.52 84.73 C79.55 72.04, 90.59 59.35, 111.82 34.92 M72.85 85.85 C87.14 69.4, 101.44 52.96, 118.77 33.02 M72.85 85.85 C90.6 65.43, 108.35 45.01, 118.77 33.02 M77.18 86.96 C93.74 67.91, 110.31 48.85, 125.73 31.12 M77.18 86.96 C94.36 67.2, 111.54 47.43, 125.73 31.12 M81.51 88.08 C101.65 64.91, 121.78 41.75, 132.68 29.21 M81.51 88.08 C100.78 65.91, 120.04 43.75, 132.68 29.21 M85.84 89.19 C98.93 74.14, 112.02 59.08, 139.64 27.31 M85.84 89.19 C97.74 75.51, 109.64 61.82, 139.64 27.31 M90.17 90.31 C101.89 76.83, 113.61 63.34, 146.59 25.4 M90.17 90.31 C107.02 70.92, 123.87 51.54, 146.59 25.4 M94.5 91.42 C112.14 71.13, 129.79 50.83, 153.55 23.5 M94.5 91.42 C109.9 73.71, 125.29 56, 153.55 23.5 M98.83 92.54 C115.9 72.9, 132.97 53.26, 160.5 21.6 M98.83 92.54 C117.14 71.48, 135.45 50.42, 160.5 21.6 M103.16 93.65 C116.23 78.62, 129.3 63.59, 167.46 19.69 M103.16 93.65 C124.46 69.15, 145.76 44.65, 167.46 19.69 M107.49 94.77 C127.17 72.14, 146.84 49.51, 174.41 17.79 M107.49 94.77 C128.89 70.15, 150.29 45.54, 174.41 17.79 M111.17 96.64 C130.29 74.64, 149.42 52.64, 181.37 15.88 M111.17 96.64 C128.46 76.74, 145.76 56.85, 181.37 15.88 M115.5 97.75 C131.72 79.1, 147.93 60.44, 188.32 13.98 M115.5 97.75 C131.57 79.27, 147.63 60.79, 188.32 13.98 M119.83 98.87 C145.68 69.14, 171.52 39.4, 195.28 12.08 M119.83 98.87 C140.51 75.08, 161.19 51.29, 195.28 12.08 M124.16 99.98 C155.14 64.35, 186.12 28.71, 202.23 10.17 M124.16 99.98 C144.26 76.86, 164.36 53.74, 202.23 10.17 M128.49 101.1 C150.29 76.02, 172.08 50.95, 209.19 8.27 M128.49 101.1 C147.64 79.07, 166.78 57.05, 209.19 8.27 M132.82 102.21 C151.33 80.92, 169.84 59.63, 216.8 5.61 M132.82 102.21 C165.82 64.26, 198.81 26.3, 216.8 5.61 M137.15 103.33 C157.23 80.23, 177.31 57.14, 223.75 3.7 M137.15 103.33 C155.63 82.07, 174.11 60.81, 223.75 3.7 M141.49 104.44 C165.39 76.94, 189.3 49.44, 230.71 1.8 M141.49 104.44 C176.67 63.97, 211.85 23.49, 230.71 1.8 M145.82 105.56 C166.47 81.8, 187.12 58.04, 237.66 -0.1 M145.82 105.56 C167.37 80.76, 188.93 55.96, 237.66 -0.1 M150.15 106.67 C184.93 66.66, 219.72 26.64, 240.68 2.52 M150.15 106.67 C180.37 71.91, 210.59 37.14, 240.68 2.52 M154.48 107.79 C187.66 69.61, 220.85 31.44, 245.01 3.64 M154.48 107.79 C189.61 67.37, 224.75 26.95, 245.01 3.64 M158.81 108.9 C193.59 68.88, 228.38 28.87, 249.35 4.75 M158.81 108.9 C184.89 78.9, 210.97 48.9, 249.35 4.75 M163.14 110.02 C198.87 68.91, 234.6 27.81, 253.68 5.87 M163.14 110.02 C191.67 77.2, 220.2 44.38, 253.68 5.87 M167.47 111.13 C199.46 74.33, 231.46 37.52, 258.01 6.98 M167.47 111.13 C189.06 86.29, 210.65 61.46, 258.01 6.98 M171.8 112.24 C205.05 74, 238.29 35.76, 262.34 8.09 M171.8 112.24 C200.05 79.75, 228.3 47.25, 262.34 8.09 M175.48 114.11 C207.15 77.68, 238.83 41.24, 266.67 9.21 M175.48 114.11 C209.33 75.17, 243.18 36.23, 266.67 9.21 M179.81 115.23 C212.63 77.47, 245.45 39.71, 270.34 11.08 M179.81 115.23 C200.62 91.29, 221.42 67.36, 270.34 11.08 M184.14 116.34 C210.59 85.92, 237.04 55.49, 274.67 12.19 M184.14 116.34 C218.27 77.08, 252.41 37.81, 274.67 12.19 M188.47 117.46 C222.81 77.95, 257.15 38.45, 279.01 13.31 M188.47 117.46 C222.34 78.49, 256.21 39.53, 279.01 13.31 M192.8 118.57 C218.52 88.99, 244.24 59.4, 283.34 14.42 M192.8 118.57 C224.62 81.97, 256.44 45.37, 283.34 14.42 M197.13 119.69 C218.54 95.06, 239.96 70.42, 287.67 15.54 M197.13 119.69 C215.71 98.31, 234.29 76.94, 287.67 15.54 M201.46 120.8 C227.7 90.62, 253.94 60.44, 292 16.65 M201.46 120.8 C228.13 90.12, 254.8 59.44, 292 16.65 M205.79 121.92 C230.55 93.44, 255.3 64.97, 296.33 17.77 M205.79 121.92 C227.36 97.11, 248.92 72.3, 296.33 17.77 M210.12 123.03 C232.41 97.39, 254.7 71.75, 300.66 18.88 M210.12 123.03 C229.26 101.02, 248.39 79.01, 300.66 18.88 M214.46 124.15 C237.05 98.15, 259.65 72.16, 304.99 20 M214.46 124.15 C245.48 88.46, 276.51 52.76, 304.99 20 M218.79 125.26 C251.43 87.71, 284.07 50.16, 309.32 21.11 M218.79 125.26 C237.91 103.26, 257.04 81.26, 309.32 21.11 M223.12 126.38 C245.13 101.05, 267.15 75.72, 313 22.98 M223.12 126.38 C244.97 101.24, 266.82 76.1, 313 22.98 M227.45 127.49 C246.36 105.73, 265.28 83.97, 317.33 24.1 M227.45 127.49 C246.19 105.93, 264.94 84.37, 317.33 24.1 M231.78 128.61 C264.11 91.41, 296.45 54.21, 321.66 25.21 M231.78 128.61 C251.43 106.01, 271.07 83.41, 321.66 25.21 M236.11 129.72 C258.02 104.52, 279.92 79.32, 325.99 26.33 M236.11 129.72 C256.08 106.75, 276.04 83.78, 325.99 26.33 M239.79 131.59 C259.2 109.25, 278.62 86.91, 330.32 27.44 M239.79 131.59 C258.15 110.47, 276.51 89.35, 330.32 27.44 M246.74 129.69 C271.23 101.51, 295.72 73.34, 334.65 28.56 M246.74 129.69 C270.97 101.81, 295.21 73.93, 334.65 28.56 M253.7 127.78 C275.02 103.25, 296.35 78.72, 338.98 29.67 M253.7 127.78 C277.94 99.89, 302.18 72.01, 338.98 29.67 M260.65 125.88 C277.48 106.53, 294.3 87.17, 343.31 30.79 M260.65 125.88 C285.23 97.6, 309.82 69.32, 343.31 30.79 M267.61 123.98 C285.82 103.03, 304.03 82.08, 347.65 31.9 M267.61 123.98 C284.1 105, 300.59 86.03, 347.65 31.9 M274.56 122.07 C296.03 97.37, 317.51 72.67, 351.98 33.02 M274.56 122.07 C291.62 102.45, 308.67 82.83, 351.98 33.02 M281.52 120.17 C305.86 92.16, 330.21 64.15, 355.65 34.89 M281.52 120.17 C301.24 97.48, 320.97 74.78, 355.65 34.89 M288.47 118.26 C304.86 99.41, 321.26 80.55, 359.98 36 M288.47 118.26 C308.64 95.06, 328.82 71.85, 359.98 36 M295.43 116.36 C312.96 96.19, 330.5 76.02, 364.31 37.11 M295.43 116.36 C310.36 99.18, 325.29 82, 364.31 37.11 M302.38 114.46 C326.14 87.12, 349.9 59.79, 368.64 38.23 M302.38 114.46 C323.92 89.67, 345.47 64.89, 368.64 38.23 M309.34 112.55 C330.21 88.54, 351.08 64.53, 372.97 39.34 M309.34 112.55 C332.59 85.8, 355.85 59.05, 372.97 39.34 M315.64 111.4 C330.13 94.72, 344.63 78.05, 377.31 40.46 M315.64 111.4 C333.91 90.38, 352.19 69.35, 377.31 40.46 M322.59 109.5 C345.68 82.93, 368.77 56.37, 381.64 41.57 M322.59 109.5 C338.76 90.9, 354.93 72.3, 381.64 41.57 M329.55 107.59 C352.05 81.7, 374.56 55.81, 385.97 42.69 M329.55 107.59 C349.16 85.03, 368.78 62.46, 385.97 42.69 M336.5 105.69 C353 86.71, 369.49 67.74, 390.3 43.8 M336.5 105.69 C350.42 89.68, 364.33 73.68, 390.3 43.8 M343.46 103.79 C356.78 88.46, 370.11 73.13, 394.63 44.92 M343.46 103.79 C360.62 84.04, 377.78 64.3, 394.63 44.92 M350.41 101.88 C362.75 87.69, 375.09 73.5, 398.3 46.79 M350.41 101.88 C364.35 85.84, 378.3 69.81, 398.3 46.79 M357.37 99.98 C366.43 89.55, 375.49 79.13, 402.64 47.9 M357.37 99.98 C371.88 83.28, 386.4 66.59, 402.64 47.9 M364.32 98.07 C374.87 85.94, 385.42 73.8, 406.97 49.02 M364.32 98.07 C376.99 83.5, 389.67 68.92, 406.97 49.02 M371.28 96.17 C382.06 83.77, 392.83 71.37, 411.3 50.13 M371.28 96.17 C382.05 83.78, 392.82 71.38, 411.3 50.13 M378.23 94.27 C393.18 77.07, 408.13 59.88, 415.63 51.25 M378.23 94.27 C387.86 83.19, 397.49 72.12, 415.63 51.25 M385.19 92.36 C395.24 80.8, 405.3 69.23, 419.96 52.36 M385.19 92.36 C397.41 78.3, 409.64 64.24, 419.96 52.36 M392.14 90.46 C400.45 80.9, 408.75 71.35, 424.29 53.48 M392.14 90.46 C402.02 79.09, 411.9 67.73, 424.29 53.48 M399.1 88.55 C409.47 76.63, 419.84 64.7, 428.62 54.59 M399.1 88.55 C406.27 80.3, 413.44 72.05, 428.62 54.59 M406.05 86.65 C413.79 77.75, 421.53 68.84, 432.95 55.71 M406.05 86.65 C412.42 79.33, 418.79 72, 432.95 55.71 M413.01 84.75 C420.72 75.88, 428.42 67.01, 437.28 56.82 M413.01 84.75 C418.43 78.51, 423.84 72.28, 437.28 56.82 M419.96 82.84 C427.78 73.85, 435.6 64.85, 440.96 58.69 M419.96 82.84 C428.16 73.41, 436.35 63.99, 440.96 58.69 M426.92 80.94 C432.8 74.17, 438.69 67.4, 445.29 59.81 M426.92 80.94 C432 75.09, 437.09 69.24, 445.29 59.81 M433.87 79.03 C438.87 73.28, 443.87 67.54, 449.62 60.92 M433.87 79.03 C439.66 72.37, 445.45 65.71, 449.62 60.92 M440.83 77.13 C444.27 73.17, 447.71 69.22, 453.95 62.04 M440.83 77.13 C445.99 71.2, 451.14 65.27, 453.95 62.04 M447.78 75.23 C451.44 71.03, 455.09 66.83, 458.28 63.15 M447.78 75.23 C451.17 71.33, 454.56 67.43, 458.28 63.15 M454.74 73.32 C457.23 70.46, 459.71 67.6, 462.61 64.26 M454.74 73.32 C456.83 70.92, 458.92 68.51, 462.61 64.26 M461.7 71.42 C462.79 70.16, 463.89 68.89, 466.94 65.38 M461.7 71.42 C463.08 69.82, 464.47 68.22, 466.94 65.38 M468.65 69.51 C469.24 68.84, 469.83 68.16, 471.27 66.49 M468.65 69.51 C469.68 68.33, 470.72 67.14, 471.27 66.49" stroke="#fa5252" stroke-width="0.5" fill="none"/><path d="M238 0 C297.91 16.72, 357.81 33.45, 474.41 66 M238 0 C313.59 21.1, 389.18 42.2, 474.41 66 M474.41 66 C405.82 84.76, 337.23 103.52, 238 130.66 M474.41 66 C416.71 81.78, 359.01 97.56, 238 130.66 M238 130.66 C175.21 113.6, 112.42 96.54, 0 66 M238 130.66 C183.31 115.8, 128.61 100.94, 0 66 M0 66 C57.53 50.05, 115.07 34.09, 238 0 M0 66 C70.67 46.4, 141.34 26.81, 238 0" stroke="#000000" stroke-width="1" fill="none"/></g><g stroke-linecap="round" transform="translate(6.921900365463699 7.948088535913257) rotate(345.6021048829999 237.20579811801863 65.33147106962235)"><path d="M-0.12 66.14 C-0.12 66.14, -0.12 66.14, -0.12 66.14 M-0.12 66.14 C-0.12 66.14, -0.12 66.14, -0.12 66.14 M4.21 67.26 C4.78 66.6, 5.35 65.95, 6.83 64.24 M4.21 67.26 C5.1 66.23, 5.99 65.2, 6.83 64.24 M8.54 68.37 C10.17 66.5, 11.8 64.62, 13.79 62.33 M8.54 68.37 C9.97 66.73, 11.4 65.09, 13.79 62.33 M12.87 69.49 C14.98 67.06, 17.09 64.64, 20.74 60.43 M12.87 69.49 C15.62 66.32, 18.37 63.15, 20.74 60.43 M17.2 70.6 C19.91 67.48, 22.62 64.36, 27.7 58.53 M17.2 70.6 C19.35 68.13, 21.5 65.65, 27.7 58.53 M21.53 71.72 C25.78 66.83, 30.03 61.93, 34.65 56.62 M21.53 71.72 C25.25 67.44, 28.96 63.17, 34.65 56.62 M25.86 72.83 C31.12 66.79, 36.37 60.74, 41.61 54.72 M25.86 72.83 C29.62 68.51, 33.38 64.19, 41.61 54.72 M30.19 73.95 C34.51 68.98, 38.83 64.01, 48.56 52.81 M30.19 73.95 C34.47 69.03, 38.75 64.11, 48.56 52.81 M34.52 75.06 C39.04 69.86, 43.56 64.66, 56.17 50.16 M34.52 75.06 C41.68 66.83, 48.83 58.61, 56.17 50.16 M38.85 76.18 C46.64 67.22, 54.42 58.27, 63.13 48.25 M38.85 76.18 C48.47 65.12, 58.08 54.06, 63.13 48.25 M43.19 77.29 C50.61 68.76, 58.03 60.22, 70.08 46.35 M43.19 77.29 C51.04 68.26, 58.89 59.22, 70.08 46.35 M46.86 79.16 C55.04 69.75, 63.21 60.35, 77.04 44.44 M46.86 79.16 C58.16 66.16, 69.46 53.17, 77.04 44.44 M51.19 80.28 C62.6 67.15, 74 54.03, 83.99 42.54 M51.19 80.28 C60.71 69.32, 70.23 58.37, 83.99 42.54 M55.52 81.39 C64.24 71.36, 72.96 61.33, 90.95 40.64 M55.52 81.39 C65.24 70.21, 74.96 59.03, 90.95 40.64 M59.85 82.5 C73.45 66.86, 87.05 51.22, 97.9 38.73 M59.85 82.5 C73.03 67.35, 86.2 52.2, 97.9 38.73 M64.18 83.62 C79.52 65.98, 94.86 48.33, 104.86 36.83 M64.18 83.62 C72.6 73.94, 81.02 64.26, 104.86 36.83 M68.52 84.73 C79.7 71.87, 90.88 59.01, 111.82 34.92 M68.52 84.73 C78.73 72.98, 88.95 61.23, 111.82 34.92 M72.85 85.85 C85 71.87, 97.15 57.89, 118.77 33.02 M72.85 85.85 C90.67 65.35, 108.49 44.85, 118.77 33.02 M77.18 86.96 C92.9 68.88, 108.62 50.79, 125.73 31.12 M77.18 86.96 C96.11 65.18, 115.05 43.39, 125.73 31.12 M81.51 88.08 C95.85 71.58, 110.19 55.08, 132.68 29.21 M81.51 88.08 C93.69 74.06, 105.88 60.05, 132.68 29.21 M85.84 89.19 C99.19 73.83, 112.55 58.47, 139.64 27.31 M85.84 89.19 C107.03 64.81, 128.22 40.44, 139.64 27.31 M90.17 90.31 C105.15 73.08, 120.13 55.85, 146.59 25.4 M90.17 90.31 C106.1 71.99, 122.02 53.66, 146.59 25.4 M94.5 91.42 C109.01 74.73, 123.52 58.04, 153.55 23.5 M94.5 91.42 C111.48 71.89, 128.45 52.36, 153.55 23.5 M98.83 92.54 C113.15 76.06, 127.48 59.59, 160.5 21.6 M98.83 92.54 C114.28 74.77, 129.73 57, 160.5 21.6 M103.16 93.65 C125.72 67.71, 148.27 41.76, 167.46 19.69 M103.16 93.65 C120.24 74.01, 137.31 54.37, 167.46 19.69 M107.49 94.77 C125.08 74.53, 142.67 54.3, 174.41 17.79 M107.49 94.77 C132.74 65.73, 157.98 36.69, 174.41 17.79 M111.17 96.64 C133.53 70.92, 155.88 45.2, 181.37 15.88 M111.17 96.64 C137.66 66.16, 164.15 35.69, 181.37 15.88 M115.5 97.75 C130.78 80.18, 146.06 62.6, 188.32 13.98 M115.5 97.75 C137.47 72.47, 159.45 47.19, 188.32 13.98 M119.83 98.87 C144.27 70.75, 168.71 42.64, 195.28 12.08 M119.83 98.87 C136.97 79.15, 154.1 59.44, 195.28 12.08 M124.16 99.98 C155.08 64.41, 186 28.85, 202.23 10.17 M124.16 99.98 C152.89 66.93, 181.62 33.88, 202.23 10.17 M128.49 101.1 C149.69 76.71, 170.88 52.33, 209.19 8.27 M128.49 101.1 C150.57 75.7, 172.64 50.31, 209.19 8.27 M132.82 102.21 C159.25 71.81, 185.68 41.41, 216.8 5.61 M132.82 102.21 C160.07 70.86, 187.33 39.51, 216.8 5.61 M137.15 103.33 C158.85 78.36, 180.55 53.4, 223.75 3.7 M137.15 103.33 C165.74 70.44, 194.32 37.56, 223.75 3.7 M141.49 104.44 C170.87 70.64, 200.25 36.84, 230.71 1.8 M141.49 104.44 C161.53 81.38, 181.57 58.33, 230.71 1.8 M145.82 105.56 C175.55 71.35, 205.29 37.14, 237.66 -0.1 M145.82 105.56 C170.14 77.57, 194.47 49.59, 237.66 -0.1 M150.15 106.67 C183.98 67.75, 217.81 28.83, 240.68 2.52 M150.15 106.67 C179.69 72.68, 209.24 38.69, 240.68 2.52 M154.48 107.79 C185.15 72.5, 215.82 37.22, 245.01 3.64 M154.48 107.79 C181.7 76.47, 208.93 45.15, 245.01 3.64 M158.81 108.9 C181.62 82.66, 204.43 56.42, 249.35 4.75 M158.81 108.9 C194.33 68.04, 229.85 27.18, 249.35 4.75 M163.14 110.02 C187.8 81.65, 212.45 53.29, 253.68 5.87 M163.14 110.02 C191.68 77.19, 220.21 44.36, 253.68 5.87 M167.47 111.13 C198.12 75.88, 228.76 40.62, 258.01 6.98 M167.47 111.13 C202.77 70.52, 238.07 29.91, 258.01 6.98 M171.8 112.24 C200.91 78.76, 230.02 45.27, 262.34 8.09 M171.8 112.24 C202.63 76.79, 233.45 41.33, 262.34 8.09 M175.48 114.11 C200.84 84.94, 226.21 55.76, 266.67 9.21 M175.48 114.11 C211.15 73.08, 246.82 32.05, 266.67 9.21 M179.81 115.23 C198.26 94, 216.71 72.78, 270.34 11.08 M179.81 115.23 C203.66 87.79, 227.51 60.36, 270.34 11.08 M184.14 116.34 C210.02 86.57, 235.91 56.79, 274.67 12.19 M184.14 116.34 C208.84 87.93, 233.53 59.52, 274.67 12.19 M188.47 117.46 C211.73 90.71, 234.98 63.95, 279.01 13.31 M188.47 117.46 C217.95 83.54, 247.44 49.63, 279.01 13.31 M192.8 118.57 C215.18 92.83, 237.56 67.08, 283.34 14.42 M192.8 118.57 C212.38 96.05, 231.95 73.53, 283.34 14.42 M197.13 119.69 C227.8 84.41, 258.47 49.13, 287.67 15.54 M197.13 119.69 C217.36 96.42, 237.58 73.15, 287.67 15.54 M201.46 120.8 C221.17 98.13, 240.88 75.46, 292 16.65 M201.46 120.8 C220.26 99.18, 239.05 77.56, 292 16.65 M205.79 121.92 C235.47 87.78, 265.15 53.64, 296.33 17.77 M205.79 121.92 C224.59 100.29, 243.39 78.66, 296.33 17.77 M210.12 123.03 C239.4 89.35, 268.68 55.67, 300.66 18.88 M210.12 123.03 C240.7 87.86, 271.27 52.69, 300.66 18.88 M214.46 124.15 C234.61 100.96, 254.77 77.77, 304.99 20 M214.46 124.15 C249.22 84.15, 283.99 44.15, 304.99 20 M218.79 125.26 C242.38 98.12, 265.97 70.98, 309.32 21.11 M218.79 125.26 C246.13 93.81, 273.47 62.36, 309.32 21.11 M223.12 126.38 C244.89 101.33, 266.67 76.27, 313 22.98 M223.12 126.38 C242.25 104.37, 261.38 82.36, 313 22.98 M227.45 127.49 C263.03 86.55, 298.62 45.62, 317.33 24.1 M227.45 127.49 C254.47 96.41, 281.49 65.32, 317.33 24.1 M231.78 128.61 C261.08 94.9, 290.38 61.19, 321.66 25.21 M231.78 128.61 C250.58 106.98, 269.37 85.36, 321.66 25.21 M236.11 129.72 C260.05 102.18, 283.99 74.64, 325.99 26.33 M236.11 129.72 C266.54 94.72, 296.97 59.71, 325.99 26.33 M239.79 131.59 C260.91 107.28, 282.04 82.98, 330.32 27.44 M239.79 131.59 C261.75 106.32, 283.71 81.06, 330.32 27.44 M246.74 129.69 C271.28 101.46, 295.81 73.23, 334.65 28.56 M246.74 129.69 C275.33 96.8, 303.92 63.9, 334.65 28.56 M253.7 127.78 C274.53 103.81, 295.37 79.84, 338.98 29.67 M253.7 127.78 C273.96 104.47, 294.23 81.16, 338.98 29.67 M260.65 125.88 C278.16 105.74, 295.66 85.61, 343.31 30.79 M260.65 125.88 C291.64 90.23, 322.64 54.57, 343.31 30.79 M267.61 123.98 C288.34 100.12, 309.08 76.27, 347.65 31.9 M267.61 123.98 C289.48 98.81, 311.35 73.65, 347.65 31.9 M274.56 122.07 C298.73 94.27, 322.89 66.47, 351.98 33.02 M274.56 122.07 C298.29 94.77, 322.02 67.47, 351.98 33.02 M281.52 120.17 C303.62 94.74, 325.72 69.31, 355.65 34.89 M281.52 120.17 C302.52 96.01, 323.52 71.84, 355.65 34.89 M288.47 118.26 C316.97 85.48, 345.47 52.69, 359.98 36 M288.47 118.26 C313.05 89.99, 337.63 61.72, 359.98 36 M295.43 116.36 C309.37 100.32, 323.31 84.28, 364.31 37.11 M295.43 116.36 C319.97 88.13, 344.5 59.9, 364.31 37.11 M302.38 114.46 C326.19 87.06, 350.01 59.67, 368.64 38.23 M302.38 114.46 C316.61 98.09, 330.83 81.72, 368.64 38.23 M309.34 112.55 C330.53 88.18, 351.71 63.8, 372.97 39.34 M309.34 112.55 C324.3 95.34, 339.26 78.13, 372.97 39.34 M315.64 111.4 C331.27 93.42, 346.9 75.44, 377.31 40.46 M315.64 111.4 C331.21 93.49, 346.78 75.57, 377.31 40.46 M322.59 109.5 C338.61 91.07, 354.63 72.64, 381.64 41.57 M322.59 109.5 C335.45 94.7, 348.32 79.91, 381.64 41.57 M329.55 107.59 C341.39 93.96, 353.24 80.34, 385.97 42.69 M329.55 107.59 C346.18 88.46, 362.81 69.32, 385.97 42.69 M336.5 105.69 C353.68 85.93, 370.85 66.17, 390.3 43.8 M336.5 105.69 C350.32 89.79, 364.14 73.9, 390.3 43.8 M343.46 103.79 C360.26 84.46, 377.06 65.13, 394.63 44.92 M343.46 103.79 C363.11 81.18, 382.75 58.58, 394.63 44.92 M350.41 101.88 C369.52 79.91, 388.62 57.93, 398.3 46.79 M350.41 101.88 C362.84 87.59, 375.26 73.29, 398.3 46.79 M357.37 99.98 C374.49 80.28, 391.61 60.58, 402.64 47.9 M357.37 99.98 C369.45 86.07, 381.54 72.17, 402.64 47.9 M364.32 98.07 C379.36 80.78, 394.39 63.48, 406.97 49.02 M364.32 98.07 C380.85 79.07, 397.37 60.06, 406.97 49.02 M371.28 96.17 C383.28 82.37, 395.28 68.56, 411.3 50.13 M371.28 96.17 C383.11 82.56, 394.94 68.94, 411.3 50.13 M378.23 94.27 C387.32 83.81, 396.41 73.35, 415.63 51.25 M378.23 94.27 C391.6 78.89, 404.97 63.51, 415.63 51.25 M385.19 92.36 C395.74 80.22, 406.29 68.09, 419.96 52.36 M385.19 92.36 C396.54 79.31, 407.89 66.25, 419.96 52.36 M392.14 90.46 C400.29 81.09, 408.43 71.72, 424.29 53.48 M392.14 90.46 C403.1 77.86, 414.05 65.25, 424.29 53.48 M399.1 88.55 C410.01 76, 420.93 63.44, 428.62 54.59 M399.1 88.55 C405.6 81.07, 412.11 73.59, 428.62 54.59 M406.05 86.65 C416.46 74.68, 426.87 62.71, 432.95 55.71 M406.05 86.65 C413.13 78.5, 420.22 70.36, 432.95 55.71 M413.01 84.75 C421.5 74.98, 429.99 65.21, 437.28 56.82 M413.01 84.75 C421.34 75.16, 429.67 65.58, 437.28 56.82 M419.96 82.84 C427.67 73.97, 435.38 65.1, 440.96 58.69 M419.96 82.84 C426.38 75.46, 432.8 68.08, 440.96 58.69 M426.92 80.94 C431.78 75.34, 436.65 69.74, 445.29 59.81 M426.92 80.94 C431.79 75.33, 436.67 69.72, 445.29 59.81 M433.87 79.03 C439.2 72.9, 444.53 66.78, 449.62 60.92 M433.87 79.03 C437.07 75.35, 440.27 71.67, 449.62 60.92 M440.83 77.13 C443.54 74.01, 446.25 70.89, 453.95 62.04 M440.83 77.13 C444.27 73.17, 447.71 69.21, 453.95 62.04 M447.78 75.23 C451.61 70.82, 455.44 66.42, 458.28 63.15 M447.78 75.23 C451.42 71.05, 455.05 66.87, 458.28 63.15 M454.74 73.32 C456.61 71.18, 458.47 69.03, 462.61 64.26 M454.74 73.32 C456.42 71.39, 458.1 69.45, 462.61 64.26 M461.7 71.42 C463.43 69.42, 465.16 67.43, 466.94 65.38 M461.7 71.42 C463.16 69.74, 464.62 68.05, 466.94 65.38 M468.65 69.51 C469.41 68.64, 470.16 67.77, 471.27 66.49 M468.65 69.51 C469.45 68.6, 470.25 67.68, 471.27 66.49" stroke="#4c6ef5" stroke-width="0.5" fill="none"/><path d="M238 0 C289.02 14.24, 340.04 28.49, 474.41 66 M238 0 C291.75 15.01, 345.51 30.01, 474.41 66 M474.41 66 C407.02 84.43, 339.62 102.87, 238 130.66 M474.41 66 C415.85 82.02, 357.3 98.03, 238 130.66 M238 130.66 C164.11 110.59, 90.21 90.51, 0 66 M238 130.66 C153.77 107.78, 69.55 84.9, 0 66 M0 66 C69.56 46.71, 139.13 27.42, 238 0 M0 66 C87.43 41.76, 174.85 17.51, 238 0" stroke="#000000" stroke-width="1" fill="none"/></g><g stroke-linecap="round"><g transform="translate(255.8680294281383 65.00519343480005) rotate(0 0 58.82041377936221)"><path d="M0 0 C0 26.19, 0 52.37, 0 117.64 M0 0 C0 25.05, 0 50.1, 0 117.64" stroke="#000000" stroke-width="4" fill="none"/></g></g><mask/></svg>