<svg version="1.1" xmlns="http://www.w3.org/2000/svg" viewBox="0 0 440 480" width="440" height="480" filter="invert(93%) hue-rotate(180deg)" class="excalidraw-svg"><!-- svg-source:excalidraw --><metadata></metadata><defs><style class="style-fonts">
      </style></defs><g stroke-linecap="round"><g transform="translate(70 150) rotate(0 90 -30)"><path d="M0 0 C0 -12.3, 0 -24.6, 0 -60 M0 0 C0 -19.24, 0 -38.49, 0 -60 M0 -60 C50.75 -60, 101.49 -60, 180 -60 M0 -60 C52.97 -60, 105.94 -60, 180 -60" stroke="#1e1e1e" stroke-width="4" fill="none"></path></g><g transform="translate(70 150) rotate(0 90 -30)"><path d="M180 -60 L166.41 -53.66 L166.41 -66.34 L180 -60" stroke="none" stroke-width="0" fill="#1e1e1e" fill-rule="evenodd"></path><path d="M180 -60 C177.21 -58.7, 174.43 -57.4, 166.41 -53.66 M180 -60 C175.64 -57.97, 171.28 -55.93, 166.41 -53.66 M166.41 -53.66 C166.41 -57.24, 166.41 -60.81, 166.41 -66.34 M166.41 -53.66 C166.41 -57.39, 166.41 -61.12, 166.41 -66.34 M166.41 -66.34 C170.19 -64.58, 173.96 -62.81, 180 -60 M166.41 -66.34 C170.75 -64.31, 175.1 -62.28, 180 -60 M180 -60 C180 -60, 180 -60, 180 -60 M180 -60 C180 -60, 180 -60, 180 -60" stroke="#1e1e1e" stroke-width="4" fill="none"></path></g></g><mask></mask><g stroke-linecap="round"><g transform="translate(250 130) rotate(0 60 -40)" fill-rule="evenodd"><path d="M0 0 L120 40 L120 -120 L0 -80 L0 0" stroke="none" stroke-width="0" fill="#a5d8ff" fill-rule="evenodd"></path><path d="M0 0 C31.81 10.6, 63.62 21.21, 120 40 M0 0 C24.87 8.29, 49.73 16.58, 120 40 M120 40 C120 6.77, 120 -26.45, 120 -120 M120 40 C120 5.63, 120 -28.74, 120 -120 M120 -120 C73.14 -104.38, 26.28 -88.76, 0 -80 M120 -120 C80.8 -106.93, 41.59 -93.86, 0 -80 M0 -80 C0 -55.9, 0 -31.79, 0 0 M0 -80 C0 -52.65, 0 -25.3, 0 0 M0 0 C0 0, 0 0, 0 0 M0 0 C0 0, 0 0, 0 0" stroke="#1e1e1e" stroke-width="4" fill="none"></path></g></g><mask></mask><g stroke-linecap="round" transform="translate(10 150) rotate(0 60 90)"><path d="M0 0 L120 0 L120 180 L0 180" stroke="none" stroke-width="0" fill="#ffc9c9"></path><path d="M0 0 C35.78 0, 71.56 0, 120 0 M0 0 C29.96 0, 59.92 0, 120 0 M120 0 C120 65.35, 120 130.69, 120 180 M120 0 C120 56.63, 120 113.26, 120 180 M120 180 C85.38 180, 50.75 180, 0 180 M120 180 C87.1 180, 54.2 180, 0 180 M0 180 C0 111.17, 0 42.35, 0 0 M0 180 C0 114.85, 0 49.7, 0 0" stroke="#1e1e1e" stroke-width="4" fill="none"></path></g><g stroke-linecap="round"><g transform="translate(69.65318013299651 158.65323115978228) rotate(0 0.34681986700348943 85.67338442010886)"><path d="M0 0 C-7.03 4.06, -14.05 8.11, -19.65 11.35 M0 0 C-6.31 3.64, -12.62 7.29, -19.65 11.35 M-19.65 11.35 C-11 15.67, -2.34 20, 20.35 31.35 M-19.65 11.35 C-8.66 16.84, 2.34 22.34, 20.35 31.35 M20.35 31.35 C7.74 37.65, -4.86 43.95, -19.65 51.35 M20.35 31.35 C7.66 37.69, -5.02 44.03, -19.65 51.35 M-19.65 51.35 C-4.33 59.01, 11 66.67, 20.35 71.35 M-19.65 51.35 C-10.2 56.07, -0.76 60.79, 20.35 71.35 M20.35 71.35 C4.74 79.15, -10.86 86.95, -19.65 91.35 M20.35 71.35 C11.68 75.68, 3.02 80.01, -19.65 91.35 M-19.65 91.35 C-7.72 97.31, 4.22 103.28, 20.35 111.35 M-19.65 91.35 C-10.23 96.06, -0.81 100.77, 20.35 111.35 M20.35 111.35 C7.68 117.68, -4.98 124.01, -19.65 131.35 M20.35 111.35 C5.94 118.55, -8.46 125.75, -19.65 131.35 M-19.65 131.35 C-9.53 136.41, 0.58 141.47, 20.35 151.35 M-19.65 131.35 C-5.9 138.23, 7.86 145.1, 20.35 151.35 M20.35 151.35 C12.95 155.62, 5.56 159.88, 0.24 162.95 M20.35 151.35 C13.83 155.11, 7.31 158.87, 0.24 162.95 M0.24 162.95 C0.28 165.7, 0.31 168.44, 0.35 171.35 M0.24 162.95 C0.27 164.79, 0.29 166.62, 0.35 171.35" stroke="#1e1e1e" stroke-width="4" fill="none"></path></g></g><mask></mask><g stroke-linecap="round"><g transform="translate(70 150) rotate(0 0 3.9497205602214933)"><path d="M0 0 C0 2.38, 0 4.76, 0 7.9 M0 0 C0 2.7, 0 5.4, 0 7.9" stroke="#1e1e1e" stroke-width="4" fill="none"></path></g></g><mask></mask><g stroke-linecap="round"><g transform="translate(310 150) rotate(0 0 50)"><path d="M0 0 C0 37.75, 0 75.49, 0 100 M0 0 C0 36.36, 0 72.72, 0 100" stroke="#1e1e1e" stroke-width="4" fill="none"></path></g><g transform="translate(310 150) rotate(0 0 50)"><path d="M0 100 L-6.34 86.41 L6.34 86.41 L0 100" stroke="none" stroke-width="0" fill="#1e1e1e" fill-rule="evenodd"></path><path d="M0 100 C-2.39 94.87, -4.79 89.74, -6.34 86.41 M0 100 C-2.3 95.06, -4.61 90.11, -6.34 86.41 M-6.34 86.41 C-1.46 86.41, 3.42 86.41, 6.34 86.41 M-6.34 86.41 C-1.38 86.41, 3.58 86.41, 6.34 86.41 M6.34 86.41 C4.07 91.27, 1.8 96.14, 0 100 M6.34 86.41 C4.45 90.46, 2.56 94.52, 0 100 M0 100 C0 100, 0 100, 0 100 M0 100 C0 100, 0 100, 0 100" stroke="#1e1e1e" stroke-width="4" fill="none"></path></g></g><mask></mask><g stroke-linecap="round" transform="translate(270 250) rotate(0 80 40)"><path d="M0 0 L160 0 L160 80 L0 80" stroke="none" stroke-width="0" fill="#4dabf7"></path><path d="M0 0 C62.6 0, 125.19 0, 160 0 M0 0 C57.28 0, 114.56 0, 160 0 M160 0 C160 23.87, 160 47.75, 160 80 M160 0 C160 17.35, 160 34.69, 160 80 M160 80 C126.4 80, 92.8 80, 0 80 M160 80 C111.52 80, 63.04 80, 0 80 M0 80 C0 62.48, 0 44.96, 0 0 M0 80 C0 49.94, 0 19.87, 0 0" stroke="#1e1e1e" stroke-width="4" fill="none"></path></g><g stroke-linecap="round" transform="translate(30 390) rotate(0 40 40)"><path d="M80 40 C80 41.9, 79.86 43.81, 79.59 45.69 C79.32 47.57, 78.91 49.45, 78.38 51.27 C77.85 53.09, 77.17 54.89, 76.39 56.62 C75.6 58.34, 74.68 60.03, 73.65 61.63 C72.62 63.22, 71.47 64.76, 70.23 66.19 C68.99 67.63, 67.63 68.99, 66.19 70.23 C64.76 71.47, 63.22 72.62, 61.63 73.65 C60.03 74.68, 58.34 75.6, 56.62 76.39 C54.89 77.17, 53.09 77.85, 51.27 78.38 C49.45 78.91, 47.57 79.32, 45.69 79.59 C43.81 79.86, 41.9 80, 40 80 C38.1 80, 36.19 79.86, 34.31 79.59 C32.43 79.32, 30.55 78.91, 28.73 78.38 C26.91 77.85, 25.11 77.17, 23.38 76.39 C21.66 75.6, 19.97 74.68, 18.37 73.65 C16.78 72.62, 15.24 71.47, 13.81 70.23 C12.37 68.99, 11.01 67.63, 9.77 66.19 C8.53 64.76, 7.38 63.22, 6.35 61.63 C5.32 60.03, 4.4 58.34, 3.61 56.62 C2.83 54.89, 2.15 53.09, 1.62 51.27 C1.09 49.45, 0.68 47.57, 0.41 45.69 C0.14 43.81, 0 41.9, 0 40 C0 38.1, 0.14 36.19, 0.41 34.31 C0.68 32.43, 1.09 30.55, 1.62 28.73 C2.15 26.91, 2.83 25.11, 3.61 23.38 C4.4 21.66, 5.32 19.97, 6.35 18.37 C7.38 16.78, 8.53 15.24, 9.77 13.81 C11.01 12.37, 12.37 11.01, 13.81 9.77 C15.24 8.53, 16.78 7.38, 18.37 6.35 C19.97 5.32, 21.66 4.4, 23.38 3.61 C25.11 2.83, 26.91 2.15, 28.73 1.62 C30.55 1.09, 32.43 0.68, 34.31 0.41 C36.19 0.14, 38.1 0, 40 0 C41.9 0, 43.81 0.14, 45.69 0.41 C47.57 0.68, 49.45 1.09, 51.27 1.62 C53.09 2.15, 54.89 2.83, 56.62 3.61 C58.34 4.4, 60.03 5.32, 61.63 6.35 C63.22 7.38, 64.76 8.53, 66.19 9.77 C67.63 11.01, 68.99 12.37, 70.23 13.81 C71.47 15.24, 72.62 16.78, 73.65 18.37 C74.68 19.97, 75.6 21.66, 76.39 23.38 C77.17 25.11, 77.85 26.91, 78.38 28.73 C78.91 30.55, 79.32 32.43, 79.59 34.31 C79.86 36.19, 79.93 39.05, 80 40 C80.07 40.95, 80.07 39.05, 80 40" stroke="none" stroke-width="0" fill="#a5d8ff"></path><path d="M80 40 C80 41.9, 79.86 43.81, 79.59 45.69 C79.32 47.57, 78.91 49.45, 78.38 51.27 C77.85 53.09, 77.17 54.89, 76.39 56.62 C75.6 58.34, 74.68 60.03, 73.65 61.63 C72.62 63.22, 71.47 64.76, 70.23 66.19 C68.99 67.63, 67.63 68.99, 66.19 70.23 C64.76 71.47, 63.22 72.62, 61.63 73.65 C60.03 74.68, 58.34 75.6, 56.62 76.39 C54.89 77.17, 53.09 77.85, 51.27 78.38 C49.45 78.91, 47.57 79.32, 45.69 79.59 C43.81 79.86, 41.9 80, 40 80 C38.1 80, 36.19 79.86, 34.31 79.59 C32.43 79.32, 30.55 78.91, 28.73 78.38 C26.91 77.85, 25.11 77.17, 23.38 76.39 C21.66 75.6, 19.97 74.68, 18.37 73.65 C16.78 72.62, 15.24 71.47, 13.81 70.23 C12.37 68.99, 11.01 67.63, 9.77 66.19 C8.53 64.76, 7.38 63.22, 6.35 61.63 C5.32 60.03, 4.4 58.34, 3.61 56.62 C2.83 54.89, 2.15 53.09, 1.62 51.27 C1.09 49.45, 0.68 47.57, 0.41 45.69 C0.14 43.81, 0 41.9, 0 40 C0 38.1, 0.14 36.19, 0.41 34.31 C0.68 32.43, 1.09 30.55, 1.62 28.73 C2.15 26.91, 2.83 25.11, 3.61 23.38 C4.4 21.66, 5.32 19.97, 6.35 18.37 C7.38 16.78, 8.53 15.24, 9.77 13.81 C11.01 12.37, 12.37 11.01, 13.81 9.77 C15.24 8.53, 16.78 7.38, 18.37 6.35 C19.97 5.32, 21.66 4.4, 23.38 3.61 C25.11 2.83, 26.91 2.15, 28.73 1.62 C30.55 1.09, 32.43 0.68, 34.31 0.41 C36.19 0.14, 38.1 0, 40 0 C41.9 0, 43.81 0.14, 45.69 0.41 C47.57 0.68, 49.45 1.09, 51.27 1.62 C53.09 2.15, 54.89 2.83, 56.62 3.61 C58.34 4.4, 60.03 5.32, 61.63 6.35 C63.22 7.38, 64.76 8.53, 66.19 9.77 C67.63 11.01, 68.99 12.37, 70.23 13.81 C71.47 15.24, 72.62 16.78, 73.65 18.37 C74.68 19.97, 75.6 21.66, 76.39 23.38 C77.17 25.11, 77.85 26.91, 78.38 28.73 C78.91 30.55, 79.32 32.43, 79.59 34.31 C79.86 36.19, 79.93 39.05, 80 40 C80.07 40.95, 80.07 39.05, 80 40" stroke="#1e1e1e" stroke-width="4" fill="none"></path></g><g stroke-linecap="round"><g transform="translate(70 390) rotate(0 0 -30)"><path d="M0 0 C0 -16.19, 0 -32.39, 0 -60 M0 0 C0 -19.66, 0 -39.32, 0 -60" stroke="#1e1e1e" stroke-width="4" fill="none"></path></g><g transform="translate(70 390) rotate(0 0 -30)"><path d="M0 -60 L6.34 -46.41 L-6.34 -46.41 L0 -60" stroke="none" stroke-width="0" fill="#1e1e1e" fill-rule="evenodd"></path><path d="M0 -60 C1.71 -56.33, 3.42 -52.66, 6.34 -46.41 M0 -60 C2.08 -55.55, 4.15 -51.09, 6.34 -46.41 M6.34 -46.41 C1.74 -46.41, -2.86 -46.41, -6.34 -46.41 M6.34 -46.41 C3.13 -46.41, -0.08 -46.41, -6.34 -46.41 M-6.34 -46.41 C-4.59 -50.15, -2.84 -53.9, 0 -60 M-6.34 -46.41 C-4.86 -49.57, -3.39 -52.74, 0 -60 M0 -60 C0 -60, 0 -60, 0 -60 M0 -60 C0 -60, 0 -60, 0 -60" stroke="#1e1e1e" stroke-width="4" fill="none"></path></g></g><mask></mask><g stroke-linecap="round"><g transform="translate(390 330) rotate(0 -140 50)"><path d="M0 0 C0 37.06, 0 74.12, 0 100 M0 0 C0 39.77, 0 79.53, 0 100 M0 100 C-72.92 100, -145.83 100, -280 100 M0 100 C-104.68 100, -209.36 100, -280 100" stroke="#1e1e1e" stroke-width="4" fill="none"></path></g><g transform="translate(390 330) rotate(0 -140 50)"><path d="M-280 100 L-266.41 93.66 L-266.41 106.34 L-280 100" stroke="none" stroke-width="0" fill="#1e1e1e" fill-rule="evenodd"></path><path d="M-280 100 C-274.96 97.65, -269.92 95.3, -266.41 93.66 M-280 100 C-274.59 97.48, -269.19 94.96, -266.41 93.66 M-266.41 93.66 C-266.41 96.96, -266.41 100.26, -266.41 106.34 M-266.41 93.66 C-266.41 98.4, -266.41 103.14, -266.41 106.34 M-266.41 106.34 C-270.31 104.52, -274.2 102.7, -280 100 M-266.41 106.34 C-269.94 104.69, -273.48 103.04, -280 100 M-280 100 C-280 100, -280 100, -280 100 M-280 100 C-280 100, -280 100, -280 100" stroke="#1e1e1e" stroke-width="4" fill="none"></path></g></g><mask></mask></svg>