<svg version="1.1" xmlns="http://www.w3.org/2000/svg" viewBox="0 0 332.17608642578125 313.5886535644531" width="332.17608642578125" height="313.5886535644531" filter="invert(93%) hue-rotate(180deg)">
  <!-- svg-source:excalidraw -->
  
  <defs>
    <style class="style-fonts">
      @font-face {
        font-family: "Virgil";
        src: url("https://excalidraw.com/Virgil.woff2");
      }
      @font-face {
        font-family: "Cascadia";
        src: url("https://excalidraw.com/Cascadia.woff2");
      }
    </style>
  </defs>
  <rect x="0" y="0" width="332.17608642578125" height="313.5886535644531" fill="transparent"/><g stroke-linecap="round"><g transform="translate(10 167.28204345703125) rotate(0 156.08804321289062 0)"><path d="M0 0 C52.03 0, 260.15 0, 312.18 0 M0 0 C52.03 0, 260.15 0, 312.18 0" stroke="#000000" stroke-width="1" fill="none"/></g></g><mask/><g stroke-linecap="round"><g transform="translate(166.88714599609375 10) rotate(0 -1.0658141036401503e-14 146.79432678222656)"><path d="M0 0 C0 48.93, 0 244.66, 0 293.59 M0 0 C0 48.93, 0 244.66, 0 293.59" stroke="#000000" stroke-width="1" fill="none"/></g></g><mask/><g stroke-linecap="round" transform="translate(80.068603515625 80.18655395507812) rotate(0 87.43328857421875 87.43328857421875)"><path d="M174.87 87.43 C174.87 90.48, 174.71 93.54, 174.39 96.57 C174.07 99.6, 173.59 102.63, 172.96 105.61 C172.32 108.59, 171.53 111.55, 170.59 114.45 C169.65 117.35, 168.55 120.21, 167.31 123 C166.07 125.78, 164.68 128.51, 163.15 131.15 C161.63 133.79, 159.96 136.36, 158.17 138.83 C156.38 141.29, 154.45 143.67, 152.41 145.94 C150.37 148.2, 148.2 150.37, 145.94 152.41 C143.67 154.45, 141.29 156.38, 138.83 158.17 C136.36 159.96, 133.79 161.63, 131.15 163.15 C128.51 164.68, 125.78 166.07, 123 167.31 C120.21 168.55, 117.35 169.65, 114.45 170.59 C111.55 171.53, 108.59 172.32, 105.61 172.96 C102.63 173.59, 99.6 174.07, 96.57 174.39 C93.54 174.71, 90.48 174.87, 87.43 174.87 C84.39 174.87, 81.32 174.71, 78.29 174.39 C75.26 174.07, 72.23 173.59, 69.25 172.96 C66.28 172.32, 63.31 171.53, 60.41 170.59 C57.52 169.65, 54.65 168.55, 51.87 167.31 C49.09 166.07, 46.35 164.68, 43.72 163.15 C41.08 161.63, 38.51 159.96, 36.04 158.17 C33.58 156.38, 31.19 154.45, 28.93 152.41 C26.67 150.37, 24.5 148.2, 22.46 145.94 C20.42 143.67, 18.49 141.29, 16.7 138.83 C14.91 136.36, 13.24 133.79, 11.71 131.15 C10.19 128.51, 8.8 125.78, 7.56 123 C6.32 120.21, 5.22 117.35, 4.28 114.45 C3.34 111.55, 2.54 108.59, 1.91 105.61 C1.28 102.63, 0.8 99.6, 0.48 96.57 C0.16 93.54, 0 90.48, 0 87.43 C0 84.39, 0.16 81.32, 0.48 78.29 C0.8 75.26, 1.28 72.23, 1.91 69.25 C2.54 66.28, 3.34 63.31, 4.28 60.41 C5.22 57.52, 6.32 54.65, 7.56 51.87 C8.8 49.09, 10.19 46.35, 11.71 43.72 C13.24 41.08, 14.91 38.51, 16.7 36.04 C18.49 33.58, 20.42 31.19, 22.46 28.93 C24.5 26.67, 26.67 24.5, 28.93 22.46 C31.19 20.42, 33.58 18.49, 36.04 16.7 C38.51 14.91, 41.08 13.24, 43.72 11.71 C46.35 10.19, 49.09 8.8, 51.87 7.56 C54.65 6.32, 57.52 5.22, 60.41 4.28 C63.31 3.34, 66.28 2.54, 69.25 1.91 C72.23 1.28, 75.26 0.8, 78.29 0.48 C81.32 0.16, 84.39 0, 87.43 0 C90.48 0, 93.54 0.16, 96.57 0.48 C99.6 0.8, 102.63 1.28, 105.61 1.91 C108.59 2.54, 111.55 3.34, 114.45 4.28 C117.35 5.22, 120.21 6.32, 123 7.56 C125.78 8.8, 128.51 10.19, 131.15 11.71 C133.79 13.24, 136.36 14.91, 138.83 16.7 C141.29 18.49, 143.67 20.42, 145.94 22.46 C148.2 24.5, 150.37 26.67, 152.41 28.93 C154.45 31.19, 156.38 33.58, 158.17 36.04 C159.96 38.51, 161.63 41.08, 163.15 43.72 C164.68 46.35, 166.07 49.09, 167.31 51.87 C168.55 54.65, 169.65 57.52, 170.59 60.41 C171.53 63.31, 172.32 66.28, 172.96 69.25 C173.59 72.23, 174.07 75.26, 174.39 78.29 C174.71 81.32, 174.79 85.91, 174.87 87.43 C174.95 88.96, 174.95 85.91, 174.87 87.43" stroke="#000000" stroke-width="1" fill="none"/></g><g transform="translate(78.1220703125 165.8836669921875) rotate(0 89.56411743164062 -42.55006408691406)" stroke="none"><path fill="#364fc7" d="M -1.47,-0.25 Q -1.47,-0.25 -1.44,-1.17 -1.42,-2.09 -1.22,-3.26 -1.03,-4.44 -0.69,-5.49 -0.36,-6.55 -0.15,-7.64 0.05,-8.74 0.25,-9.92 0.44,-11.10 0.72,-12.70 1.00,-14.30 1.33,-15.39 1.66,-16.48 2.28,-17.77 2.90,-19.07 3.26,-20.09 3.63,-21.11 4.16,-22.46 4.69,-23.81 5.12,-25.18 5.55,-26.55 6.10,-28.08 6.64,-29.61 7.23,-31.01 7.82,-32.40 8.32,-33.88 8.81,-35.36 9.24,-36.62 9.66,-37.89 10.10,-39.13 10.54,-40.38 10.95,-41.40 11.35,-42.43 12.01,-43.72 12.67,-45.02 13.25,-46.19 13.84,-47.35 14.50,-48.20 15.16,-49.06 15.86,-50.02 16.55,-50.98 17.41,-51.86 18.27,-52.74 19.04,-53.77 19.82,-54.80 20.54,-55.58 21.25,-56.37 22.21,-57.59 23.17,-58.81 24.25,-59.75 25.33,-60.69 26.40,-61.39 27.48,-62.10 28.64,-62.79 29.79,-63.48 30.74,-64.18 31.69,-64.87 32.63,-65.69 33.58,-66.51 34.42,-67.33 35.27,-68.14 36.19,-69.09 37.11,-70.03 37.89,-70.79 38.67,-71.56 39.62,-72.44 40.58,-73.32 41.58,-73.79 42.59,-74.25 43.78,-74.75 44.97,-75.25 46.23,-75.84 47.49,-76.44 48.74,-76.92 49.98,-77.39 51.10,-77.84 52.21,-78.29 53.51,-78.82 54.81,-79.35 56.07,-79.82 57.32,-80.30 58.49,-80.85 59.65,-81.40 60.85,-81.84 62.05,-82.28 63.13,-82.84 64.21,-83.41 65.32,-83.86 66.43,-84.30 67.77,-84.91 69.12,-85.52 70.30,-85.79 71.48,-86.06 73.04,-86.47 74.59,-86.89 75.89,-87.05 77.20,-87.22 78.75,-87.46 80.31,-87.70 82.00,-87.98 83.68,-88.25 84.82,-88.39 85.97,-88.52 87.08,-88.60 88.20,-88.69 89.62,-88.87 91.03,-89.06 92.11,-88.99 93.19,-88.91 94.26,-88.88 95.34,-88.86 96.80,-88.92 98.26,-88.98 99.42,-88.99 100.58,-88.99 101.98,-88.79 103.39,-88.59 104.73,-88.45 106.07,-88.32 107.19,-88.01 108.31,-87.70 109.55,-87.41 110.79,-87.12 112.00,-86.73 113.22,-86.34 114.61,-86.03 116.00,-85.72 117.19,-85.15 118.38,-84.59 119.38,-84.15 120.38,-83.71 121.34,-83.24 122.31,-82.78 123.50,-82.15 124.69,-81.53 125.82,-80.92 126.96,-80.31 128.09,-79.68 129.23,-79.05 130.32,-78.64 131.42,-78.23 132.80,-77.68 134.19,-77.14 135.68,-76.41 137.18,-75.69 138.12,-75.15 139.05,-74.62 140.33,-73.63 141.61,-72.64 142.61,-71.72 143.61,-70.80 144.61,-69.86 145.61,-68.93 146.59,-68.14 147.58,-67.34 148.43,-66.46 149.29,-65.58 149.98,-64.73 150.68,-63.88 151.56,-62.74 152.44,-61.61 153.01,-60.57 153.59,-59.54 154.28,-58.54 154.96,-57.54 155.93,-56.31 156.90,-55.08 157.95,-53.97 158.99,-52.87 159.68,-51.99 160.38,-51.12 160.88,-50.09 161.38,-49.06 162.15,-47.73 162.91,-46.39 163.58,-44.88 164.25,-43.36 164.80,-42.05 165.36,-40.73 165.87,-39.79 166.37,-38.84 167.26,-37.55 168.15,-36.26 168.71,-35.32 169.28,-34.38 169.83,-33.26 170.38,-32.13 170.91,-30.86 171.44,-29.60 171.91,-28.20 172.38,-26.81 172.72,-25.79 173.06,-24.76 173.54,-23.42 174.02,-22.09 174.48,-21.05 174.93,-20.00 175.48,-18.85 176.02,-17.70 176.42,-16.52 176.81,-15.35 177.37,-14.11 177.93,-12.87 178.18,-11.62 178.43,-10.36 178.68,-9.11 178.92,-7.86 179.22,-6.82 179.52,-5.77 179.85,-4.71 180.17,-3.64 180.18,-1.48 180.19,0.67 180.26,0.87 180.33,1.07 180.33,1.29 180.33,1.50 180.26,1.70 180.20,1.90 180.07,2.07 179.94,2.24 179.76,2.36 179.59,2.48 179.38,2.54 179.18,2.60 178.97,2.59 178.76,2.58 178.56,2.50 178.36,2.42 178.20,2.28 178.04,2.15 177.93,1.96 177.81,1.78 177.77,1.58 177.72,1.37 177.74,1.16 177.77,0.95 177.85,0.75 177.94,0.56 178.09,0.40 178.23,0.25 178.42,0.15 178.61,0.05 178.82,0.01 179.03,-0.01 179.24,0.01 179.45,0.05 179.64,0.14 179.82,0.24 179.97,0.40 180.12,0.55 180.21,0.74 180.30,0.94 180.32,1.15 180.34,1.36 180.30,1.57 180.26,1.77 180.15,1.96 180.04,2.14 179.88,2.28 179.71,2.41 179.52,2.49 179.32,2.57 179.11,2.59 178.90,2.60 178.69,2.54 178.49,2.49 178.31,2.37 178.13,2.25 178.00,2.08 177.88,1.91 177.88,1.91 177.88,1.91 176.44,-0.26 175.01,-2.45 174.59,-3.61 174.18,-4.78 173.89,-5.97 173.59,-7.17 173.38,-8.21 173.16,-9.25 172.95,-10.35 172.74,-11.45 172.23,-12.55 171.72,-13.64 171.33,-14.86 170.94,-16.09 170.33,-17.23 169.72,-18.37 169.31,-19.40 168.91,-20.44 168.54,-21.50 168.17,-22.56 167.67,-24.03 167.16,-25.51 166.79,-26.61 166.41,-27.71 166.00,-28.74 165.58,-29.76 165.05,-30.83 164.52,-31.90 163.91,-32.97 163.30,-34.03 162.53,-35.08 161.76,-36.13 161.14,-37.29 160.52,-38.45 160.12,-39.44 159.71,-40.43 159.06,-41.99 158.40,-43.55 157.76,-44.49 157.13,-45.42 156.58,-46.74 156.03,-48.06 155.31,-48.94 154.59,-49.82 153.30,-51.30 152.02,-52.77 151.09,-53.89 150.16,-55.01 149.35,-56.43 148.54,-57.85 147.83,-58.82 147.13,-59.80 146.23,-60.95 145.33,-62.10 144.45,-62.98 143.58,-63.85 142.47,-64.75 141.35,-65.66 140.36,-66.61 139.37,-67.55 138.46,-68.41 137.55,-69.26 136.61,-69.91 135.68,-70.56 134.69,-71.06 133.70,-71.57 132.10,-72.30 130.51,-73.04 129.18,-73.50 127.85,-73.97 126.88,-74.43 125.92,-74.90 124.81,-75.51 123.70,-76.13 122.53,-76.76 121.36,-77.40 120.17,-78.03 118.97,-78.66 117.93,-79.12 116.90,-79.59 115.54,-80.23 114.19,-80.88 113.02,-81.11 111.85,-81.34 110.63,-81.74 109.42,-82.14 108.26,-82.42 107.10,-82.70 105.97,-83.02 104.84,-83.34 103.45,-83.49 102.06,-83.63 100.94,-83.75 99.81,-83.87 98.66,-83.86 97.51,-83.85 96.40,-83.80 95.29,-83.74 93.93,-83.78 92.58,-83.82 91.26,-83.81 89.94,-83.80 88.53,-83.63 87.11,-83.46 85.98,-83.38 84.86,-83.31 83.38,-82.99 81.91,-82.68 80.46,-82.59 79.01,-82.50 77.59,-82.25 76.18,-82.01 75.03,-81.80 73.88,-81.60 72.59,-81.28 71.30,-80.97 70.18,-80.51 69.07,-80.06 68.08,-79.67 67.08,-79.28 66.03,-78.74 64.97,-78.19 63.64,-77.62 62.32,-77.06 61.04,-76.48 59.77,-75.89 58.66,-75.49 57.56,-75.09 56.41,-74.59 55.26,-74.09 53.99,-73.64 52.73,-73.18 51.55,-72.62 50.38,-72.05 49.32,-71.64 48.27,-71.22 47.00,-70.75 45.72,-70.27 44.54,-69.73 43.35,-69.19 42.57,-68.38 41.78,-67.58 40.73,-66.53 39.68,-65.48 38.71,-64.61 37.74,-63.74 36.87,-62.81 36.01,-61.88 34.95,-61.12 33.90,-60.36 32.87,-59.64 31.83,-58.91 30.81,-58.32 29.80,-57.72 28.74,-56.95 27.68,-56.18 26.86,-55.31 26.04,-54.43 25.07,-53.33 24.10,-52.23 23.36,-51.28 22.63,-50.33 21.62,-49.27 20.61,-48.20 19.96,-47.32 19.31,-46.44 18.64,-45.60 17.97,-44.77 17.40,-43.66 16.83,-42.55 16.30,-41.54 15.78,-40.54 15.26,-39.18 14.74,-37.83 14.32,-36.70 13.90,-35.57 13.44,-34.23 12.97,-32.89 12.57,-31.73 12.17,-30.57 11.69,-29.46 11.21,-28.35 10.76,-27.24 10.31,-26.13 9.79,-24.64 9.28,-23.14 8.76,-21.78 8.24,-20.42 7.76,-19.18 7.29,-17.94 6.71,-16.76 6.13,-15.58 5.72,-14.49 5.31,-13.39 5.07,-12.33 4.84,-11.28 4.59,-10.23 4.34,-9.19 3.99,-7.79 3.64,-6.40 3.22,-5.31 2.79,-4.23 2.41,-2.86 2.03,-1.50 1.75,-0.62 1.47,0.25 1.42,0.42 1.37,0.59 1.27,0.75 1.18,0.90 1.06,1.03 0.93,1.16 0.78,1.26 0.63,1.35 0.45,1.41 0.28,1.46 0.10,1.48 -0.07,1.49 -0.24,1.46 -0.42,1.43 -0.59,1.36 -0.75,1.28 -0.90,1.17 -1.04,1.07 -1.15,0.92 -1.26,0.78 -1.34,0.62 -1.42,0.46 -1.45,0.28 -1.49,0.10 -1.48,-0.07 -1.47,-0.25 -1.47,-0.25 L -1.47,-0.25 Z"/></g><g transform="translate(235.87481689453125 159.35800170898438) rotate(0 -67.75576782226562 -30.464248657226562)" stroke="none"><path fill="#5f3dc4" d="M -1.33,-0.46 Q -1.33,-0.46 -0.46,-2.99 0.40,-5.52 1.34,-7.54 2.27,-9.57 2.92,-10.84 3.56,-12.11 3.84,-12.65 4.12,-13.19 4.22,-13.33 4.32,-13.48 4.45,-13.60 4.58,-13.72 4.74,-13.80 4.89,-13.89 5.06,-13.93 5.23,-13.97 5.41,-13.98 5.58,-13.98 5.76,-13.94 5.93,-13.90 6.08,-13.82 6.24,-13.74 6.37,-13.62 6.51,-13.51 6.61,-13.37 6.71,-13.22 6.78,-13.06 6.84,-12.89 6.86,-12.72 6.89,-12.55 6.87,-12.37 6.85,-12.20 6.79,-12.03 6.73,-11.86 5.62,-11.00 4.51,-10.14 3.52,-9.24 2.54,-8.35 1.18,-7.10 -0.17,-5.86 -1.56,-4.54 -2.95,-3.21 -4.42,-1.87 -5.88,-0.52 -6.96,0.44 -8.03,1.42 -8.65,1.66 -9.26,1.91 -9.41,2.01 -9.55,2.11 -9.72,2.18 -9.88,2.25 -10.06,2.27 -10.24,2.29 -10.42,2.27 -10.59,2.26 -10.76,2.20 -10.93,2.13 -11.08,2.04 -11.23,1.94 -11.35,1.80 -11.47,1.67 -11.55,1.52 -11.64,1.36 -11.68,1.19 -11.73,1.01 -11.73,0.83 -11.74,0.66 -11.70,0.48 -11.66,0.31 -11.58,0.15 -11.49,-0.00 -11.38,-0.14 -11.26,-0.27 -11.01,-2.66 -10.75,-5.05 -9.47,-7.65 -8.19,-10.25 -6.84,-12.61 -5.49,-14.98 -4.17,-16.65 -2.86,-18.33 -2.18,-19.06 -1.50,-19.80 -1.36,-19.93 -1.23,-20.06 -1.07,-20.15 -0.91,-20.25 -0.73,-20.31 -0.55,-20.36 -0.36,-20.37 -0.17,-20.38 0.00,-20.34 0.19,-20.31 0.36,-20.23 0.53,-20.15 0.67,-20.04 0.82,-19.92 0.93,-19.77 1.05,-19.62 1.12,-19.45 1.20,-19.28 1.23,-19.10 1.27,-18.91 1.25,-18.72 1.24,-18.54 1.18,-18.36 1.13,-18.18 1.03,-18.02 0.93,-17.86 0.18,-16.31 -0.57,-14.75 -2.16,-12.99 -3.74,-11.23 -5.83,-9.23 -7.92,-7.24 -10.05,-5.34 -12.18,-3.43 -13.91,-1.95 -15.64,-0.46 -17.11,0.48 -18.57,1.43 -19.96,0.75 -21.36,0.08 -21.47,-1.55 -21.58,-3.19 -20.94,-5.81 -20.31,-8.43 -19.31,-11.32 -18.32,-14.22 -17.27,-16.87 -16.22,-19.53 -15.44,-21.47 -14.67,-23.42 -14.38,-24.38 -14.09,-25.33 -13.99,-25.53 -13.88,-25.72 -13.73,-25.88 -13.58,-26.04 -13.40,-26.16 -13.21,-26.28 -13.01,-26.35 -12.80,-26.42 -12.58,-26.44 -12.36,-26.46 -12.15,-26.43 -11.93,-26.40 -11.73,-26.31 -11.53,-26.23 -11.35,-26.10 -11.17,-25.97 -11.03,-25.81 -10.89,-25.64 -10.80,-25.44 -10.70,-25.24 -10.65,-25.03 -10.60,-24.82 -10.61,-24.60 -10.62,-24.38 -10.67,-24.17 -10.73,-23.96 -12.23,-22.49 -13.72,-21.03 -14.97,-19.45 -16.21,-17.87 -18.03,-15.47 -19.85,-13.07 -21.72,-10.64 -23.59,-8.21 -25.11,-6.50 -26.64,-4.79 -27.39,-4.26 -28.13,-3.73 -28.29,-3.59 -28.45,-3.45 -28.63,-3.36 -28.82,-3.26 -29.02,-3.21 -29.22,-3.16 -29.43,-3.16 -29.63,-3.16 -29.84,-3.21 -30.04,-3.27 -30.22,-3.36 -30.40,-3.46 -30.56,-3.60 -30.71,-3.74 -30.83,-3.91 -30.95,-4.08 -31.02,-4.27 -31.10,-4.47 -31.12,-4.67 -31.14,-4.88 -31.12,-5.09 -31.09,-5.29 -31.02,-5.49 -30.94,-5.68 -30.83,-5.85 -30.71,-6.02 -29.01,-9.82 -27.31,-13.61 -25.23,-17.88 -23.14,-22.16 -20.48,-27.22 -17.82,-32.28 -14.96,-37.10 -12.11,-41.92 -9.87,-45.26 -7.62,-48.61 -6.37,-49.67 -5.11,-50.73 -4.99,-50.88 -4.86,-51.02 -4.70,-51.14 -4.54,-51.25 -4.36,-51.32 -4.18,-51.39 -3.99,-51.42 -3.80,-51.45 -3.61,-51.43 -3.41,-51.41 -3.23,-51.34 -3.05,-51.28 -2.89,-51.17 -2.73,-51.06 -2.60,-50.92 -2.47,-50.78 -2.37,-50.61 -2.28,-50.44 -2.23,-50.25 -2.18,-50.06 -2.18,-49.87 -2.17,-49.67 -2.22,-49.48 -2.26,-49.30 -2.35,-49.12 -2.43,-48.95 -4.24,-44.62 -6.05,-40.29 -8.89,-35.97 -11.73,-31.65 -15.13,-27.06 -18.54,-22.48 -22.10,-18.38 -25.65,-14.29 -28.39,-11.36 -31.14,-8.43 -33.29,-6.77 -35.45,-5.12 -36.95,-6.09 -38.45,-7.07 -38.16,-9.37 -37.87,-11.67 -36.61,-15.57 -35.34,-19.47 -33.24,-24.39 -31.13,-29.32 -28.71,-34.21 -26.28,-39.09 -24.30,-42.75 -22.33,-46.41 -21.16,-48.09 -19.99,-49.78 -19.86,-49.96 -19.73,-50.15 -19.56,-50.29 -19.39,-50.44 -19.19,-50.54 -18.99,-50.64 -18.78,-50.69 -18.56,-50.74 -18.33,-50.74 -18.11,-50.73 -17.89,-50.68 -17.68,-50.62 -17.48,-50.51 -17.29,-50.41 -17.12,-50.26 -16.96,-50.11 -16.83,-49.92 -16.71,-49.74 -16.63,-49.53 -16.56,-49.32 -16.53,-49.09 -16.51,-48.87 -16.54,-48.65 -16.57,-48.43 -16.65,-48.22 -16.73,-48.01 -17.88,-44.74 -19.04,-41.47 -21.57,-37.20 -24.10,-32.94 -27.28,-28.06 -30.46,-23.19 -33.63,-18.58 -36.80,-13.97 -39.26,-10.69 -41.71,-7.41 -42.99,-5.88 -44.26,-4.35 -44.42,-4.19 -44.57,-4.03 -44.76,-3.91 -44.94,-3.79 -45.16,-3.72 -45.37,-3.65 -45.59,-3.64 -45.81,-3.62 -46.03,-3.65 -46.25,-3.69 -46.45,-3.77 -46.66,-3.86 -46.84,-3.99 -47.01,-4.13 -47.15,-4.30 -47.29,-4.47 -47.39,-4.67 -47.49,-4.87 -47.53,-5.09 -47.58,-5.31 -47.57,-5.53 -47.56,-5.75 -47.50,-5.97 -47.43,-6.18 -47.32,-6.37 -47.21,-6.57 -46.34,-9.53 -45.47,-12.49 -43.68,-16.59 -41.90,-20.70 -39.68,-25.54 -37.46,-30.39 -35.07,-35.00 -32.68,-39.61 -30.93,-42.52 -29.18,-45.44 -28.49,-46.05 -27.79,-46.65 -27.66,-46.83 -27.52,-47.01 -27.34,-47.15 -27.16,-47.29 -26.96,-47.38 -26.75,-47.48 -26.53,-47.52 -26.31,-47.56 -26.08,-47.55 -25.86,-47.53 -25.64,-47.47 -25.42,-47.40 -25.23,-47.28 -25.04,-47.17 -24.88,-47.01 -24.72,-46.85 -24.60,-46.65 -24.48,-46.46 -24.42,-46.25 -24.35,-46.03 -24.33,-45.81 -24.32,-45.58 -24.36,-45.36 -24.40,-45.14 -24.49,-44.93 -24.58,-44.72 -25.46,-42.77 -26.34,-40.81 -28.79,-36.23 -31.24,-31.65 -34.84,-25.31 -38.45,-18.96 -42.39,-12.39 -46.34,-5.82 -49.67,-0.72 -53.00,4.37 -54.77,6.45 -56.53,8.54 -56.68,8.71 -56.83,8.89 -57.02,9.02 -57.20,9.16 -57.42,9.24 -57.63,9.33 -57.86,9.36 -58.08,9.40 -58.31,9.37 -58.54,9.35 -58.76,9.27 -58.97,9.20 -59.17,9.07 -59.36,8.94 -59.51,8.78 -59.67,8.61 -59.78,8.41 -59.89,8.21 -59.95,7.98 -60.01,7.76 -60.02,7.53 -60.02,7.30 -59.97,7.08 -59.92,6.85 -59.82,6.65 -59.72,6.44 -57.83,1.17 -55.95,-4.09 -52.73,-10.44 -49.51,-16.78 -45.33,-24.38 -41.15,-31.97 -36.70,-39.33 -32.24,-46.69 -28.61,-52.13 -24.97,-57.56 -22.96,-59.86 -20.95,-62.15 -20.82,-62.30 -20.69,-62.46 -20.53,-62.57 -20.37,-62.69 -20.19,-62.76 -20.00,-62.84 -19.81,-62.87 -19.61,-62.89 -19.41,-62.87 -19.22,-62.86 -19.03,-62.79 -18.84,-62.72 -18.68,-62.61 -18.51,-62.51 -18.38,-62.36 -18.24,-62.21 -18.15,-62.04 -18.05,-61.87 -18.00,-61.68 -17.95,-61.49 -17.94,-61.29 -17.94,-61.09 -17.98,-60.90 -18.02,-60.70 -18.11,-60.52 -18.20,-60.35 -20.49,-55.35 -22.78,-50.34 -26.74,-44.11 -30.71,-37.88 -35.27,-31.10 -39.83,-24.31 -43.90,-18.69 -47.98,-13.07 -50.76,-9.67 -53.53,-6.27 -54.83,-5.27 -56.13,-4.27 -56.30,-4.11 -56.47,-3.94 -56.67,-3.83 -56.87,-3.71 -57.10,-3.65 -57.32,-3.58 -57.56,-3.57 -57.79,-3.57 -58.02,-3.61 -58.25,-3.66 -58.46,-3.76 -58.67,-3.86 -58.85,-4.01 -59.03,-4.16 -59.17,-4.35 -59.31,-4.53 -59.40,-4.75 -59.49,-4.97 -59.53,-5.20 -59.57,-5.43 -59.55,-5.66 -59.53,-5.89 -59.45,-6.11 -59.38,-6.34 -59.25,-6.53 -59.13,-6.73 -59.15,-7.82 -59.17,-8.91 -57.87,-13.06 -56.56,-17.21 -54.47,-22.91 -52.38,-28.61 -49.88,-34.69 -47.38,-40.78 -45.19,-45.60 -43.01,-50.42 -41.77,-52.74 -40.54,-55.06 -40.41,-55.27 -40.28,-55.47 -40.11,-55.65 -39.94,-55.82 -39.73,-55.94 -39.52,-56.06 -39.29,-56.14 -39.06,-56.21 -38.82,-56.22 -38.58,-56.23 -38.34,-56.19 -38.10,-56.14 -37.88,-56.04 -37.66,-55.94 -37.47,-55.79 -37.28,-55.64 -37.13,-55.45 -36.98,-55.26 -36.89,-55.04 -36.79,-54.82 -36.74,-54.58 -36.70,-54.34 -36.72,-54.10 -36.73,-53.86 -36.81,-53.63 -36.88,-53.40 -39.02,-49.26 -41.15,-45.13 -44.42,-39.50 -47.68,-33.86 -51.70,-27.24 -55.72,-20.62 -59.80,-14.46 -63.87,-8.30 -67.19,-3.82 -70.52,0.66 -72.29,2.33 -74.07,3.99 -74.23,4.17 -74.40,4.35 -74.61,4.48 -74.82,4.61 -75.05,4.69 -75.28,4.77 -75.52,4.79 -75.77,4.81 -76.01,4.77 -76.25,4.73 -76.48,4.64 -76.70,4.54 -76.90,4.40 -77.10,4.25 -77.25,4.06 -77.41,3.87 -77.51,3.65 -77.62,3.43 -77.67,3.19 -77.72,2.95 -77.71,2.71 -77.70,2.46 -77.64,2.23 -77.57,1.99 -77.45,1.78 -77.33,1.57 -76.44,-3.25 -75.55,-8.07 -73.05,-13.78 -70.54,-19.50 -65.17,-29.37 -59.80,-39.25 -56.14,-45.32 -52.47,-51.39 -50.75,-53.96 -49.04,-56.54 -48.89,-56.73 -48.74,-56.92 -48.55,-57.07 -48.36,-57.22 -48.14,-57.32 -47.92,-57.42 -47.68,-57.46 -47.44,-57.51 -47.20,-57.49 -46.96,-57.48 -46.73,-57.41 -46.50,-57.34 -46.29,-57.21 -46.08,-57.09 -45.91,-56.92 -45.74,-56.75 -45.61,-56.54 -45.49,-56.33 -45.41,-56.10 -45.34,-55.87 -45.33,-55.63 -45.31,-55.39 -45.36,-55.15 -45.40,-54.91 -45.50,-54.69 -45.60,-54.47 -47.85,-50.09 -50.10,-45.70 -54.23,-39.18 -58.36,-32.65 -63.21,-25.46 -68.06,-18.26 -72.41,-12.15 -76.76,-6.03 -79.70,-2.33 -82.64,1.37 -83.27,1.35 -83.89,1.34 -84.06,1.52 -84.23,1.69 -84.44,1.82 -84.66,1.95 -84.89,2.03 -85.13,2.11 -85.37,2.13 -85.62,2.14 -85.87,2.10 -86.11,2.06 -86.34,1.96 -86.56,1.86 -86.76,1.71 -86.96,1.56 -87.11,1.37 -87.27,1.17 -87.37,0.95 -87.48,0.72 -87.52,0.48 -87.57,0.24 -87.56,-0.00 -87.55,-0.25 -87.48,-0.49 -87.41,-0.72 -87.28,-0.94 -87.15,-1.15 -86.18,-4.00 -85.21,-6.84 -82.44,-12.87 -79.68,-18.89 -75.56,-26.73 -71.44,-34.58 -66.78,-42.58 -62.12,-50.58 -57.96,-57.01 -53.81,-63.44 -51.91,-65.02 -50.02,-66.60 -49.87,-66.78 -49.71,-66.97 -49.52,-67.11 -49.32,-67.26 -49.10,-67.35 -48.88,-67.44 -48.64,-67.48 -48.40,-67.51 -48.16,-67.49 -47.92,-67.47 -47.69,-67.39 -47.46,-67.32 -47.26,-67.18 -47.06,-67.05 -46.89,-66.88 -46.73,-66.70 -46.61,-66.49 -46.49,-66.28 -46.42,-66.05 -46.36,-65.82 -46.35,-65.58 -46.34,-65.34 -46.39,-65.10 -46.44,-64.86 -46.55,-64.65 -46.66,-64.43 -54.47,-51.42 -62.28,-38.41 -68.01,-29.69 -73.73,-20.98 -77.34,-16.23 -80.94,-11.47 -82.58,-10.24 -84.22,-9.00 -84.41,-8.81 -84.59,-8.62 -84.81,-8.48 -85.03,-8.35 -85.28,-8.26 -85.53,-8.18 -85.79,-8.16 -86.05,-8.14 -86.31,-8.19 -86.57,-8.23 -86.81,-8.34 -87.05,-8.44 -87.26,-8.60 -87.47,-8.76 -87.63,-8.96 -87.80,-9.17 -87.91,-9.40 -88.02,-9.64 -88.07,-9.90 -88.12,-10.15 -88.11,-10.42 -88.09,-10.68 -88.02,-10.93 -87.95,-11.18 -87.81,-11.41 -87.68,-11.63 -87.84,-12.78 -88.00,-13.93 -86.63,-18.35 -85.26,-22.78 -82.99,-28.55 -80.71,-34.33 -77.92,-40.14 -75.13,-45.95 -72.90,-50.18 -70.67,-54.41 -69.51,-56.25 -68.34,-58.08 -68.19,-58.30 -68.04,-58.51 -67.85,-58.68 -67.65,-58.86 -67.42,-58.98 -67.19,-59.10 -66.93,-59.16 -66.68,-59.23 -66.42,-59.23 -66.16,-59.23 -65.90,-59.16 -65.65,-59.10 -65.42,-58.98 -65.18,-58.86 -64.99,-58.68 -64.79,-58.51 -64.64,-58.29 -64.49,-58.08 -64.40,-57.83 -64.31,-57.59 -64.28,-57.33 -64.25,-57.07 -64.28,-56.81 -64.31,-56.55 -64.40,-56.30 -64.50,-56.06 -66.74,-51.43 -68.99,-46.81 -72.44,-40.79 -75.88,-34.76 -80.02,-27.73 -84.16,-20.71 -87.90,-14.71 -91.63,-8.71 -93.84,-5.57 -96.04,-2.42 -96.21,-2.22 -96.37,-2.01 -96.58,-1.85 -96.79,-1.69 -97.03,-1.59 -97.28,-1.48 -97.54,-1.44 -97.80,-1.40 -98.06,-1.42 -98.32,-1.44 -98.57,-1.52 -98.82,-1.60 -99.05,-1.74 -99.27,-1.88 -99.46,-2.07 -99.64,-2.26 -99.77,-2.49 -99.90,-2.72 -99.98,-2.97 -100.05,-3.22 -100.07,-3.49 -100.08,-3.75 -100.03,-4.01 -99.98,-4.27 -99.86,-4.51 -99.75,-4.74 -99.05,-8.78 -98.36,-12.82 -95.72,-19.00 -93.08,-25.18 -89.43,-32.70 -85.79,-40.22 -81.93,-47.11 -78.08,-54.00 -75.19,-58.32 -72.29,-62.65 -71.15,-63.55 -70.01,-64.45 -69.85,-64.64 -69.68,-64.84 -69.47,-64.99 -69.27,-65.14 -69.03,-65.23 -68.79,-65.33 -68.54,-65.36 -68.28,-65.40 -68.03,-65.37 -67.77,-65.35 -67.53,-65.26 -67.29,-65.18 -67.08,-65.04 -66.86,-64.90 -66.69,-64.71 -66.52,-64.52 -66.39,-64.29 -66.27,-64.07 -66.20,-63.82 -66.14,-63.58 -66.13,-63.32 -66.13,-63.06 -66.18,-62.81 -66.24,-62.56 -66.35,-62.34 -66.47,-62.11 -67.64,-59.33 -68.80,-56.55 -72.33,-50.08 -75.86,-43.62 -80.91,-35.30 -85.95,-26.98 -91.25,-18.91 -96.55,-10.85 -100.77,-4.99 -104.99,0.87 -107.32,3.26 -109.64,5.66 -109.83,5.86 -110.01,6.06 -110.23,6.21 -110.46,6.35 -110.71,6.44 -110.97,6.53 -111.24,6.56 -111.50,6.59 -111.77,6.55 -112.04,6.51 -112.29,6.41 -112.54,6.31 -112.76,6.15 -112.98,5.99 -113.15,5.79 -113.32,5.58 -113.44,5.34 -113.56,5.10 -113.62,4.83 -113.68,4.57 -113.67,4.30 -113.67,4.03 -113.60,3.77 -113.53,3.51 -113.40,3.27 -113.27,3.04 -110.03,-6.70 -106.80,-16.45 -100.91,-28.42 -95.03,-40.39 -91.73,-46.53 -88.43,-52.67 -87.44,-54.21 -86.45,-55.76 -86.29,-55.97 -86.14,-56.19 -85.94,-56.37 -85.74,-56.54 -85.50,-56.67 -85.26,-56.79 -85.00,-56.85 -84.74,-56.91 -84.48,-56.91 -84.21,-56.91 -83.95,-56.84 -83.69,-56.78 -83.46,-56.65 -83.22,-56.52 -83.02,-56.34 -82.83,-56.17 -82.68,-55.94 -82.53,-55.72 -82.43,-55.47 -82.34,-55.22 -82.31,-54.96 -82.28,-54.69 -82.32,-54.43 -82.35,-54.16 -82.45,-53.91 -82.54,-53.67 -83.80,-51.17 -85.05,-48.68 -91.00,-38.71 -96.94,-28.75 -101.80,-21.16 -106.66,-13.57 -109.86,-9.10 -113.07,-4.63 -114.48,-3.35 -115.89,-2.07 -116.09,-1.86 -116.28,-1.65 -116.51,-1.50 -116.75,-1.34 -117.02,-1.25 -117.29,-1.15 -117.57,-1.12 -117.85,-1.09 -118.13,-1.13 -118.41,-1.17 -118.68,-1.28 -118.94,-1.39 -119.17,-1.55 -119.40,-1.72 -119.59,-1.93 -119.77,-2.15 -119.90,-2.40 -120.02,-2.66 -120.09,-2.94 -120.15,-3.21 -120.14,-3.50 -120.14,-3.78 -120.06,-4.05 -119.99,-4.33 -119.85,-4.58 -119.72,-4.83 -119.54,-6.33 -119.37,-7.83 -117.50,-12.68 -115.62,-17.52 -112.77,-24.04 -109.91,-30.57 -106.46,-37.45 -103.00,-44.34 -99.92,-49.72 -96.83,-55.11 -95.14,-57.75 -93.45,-60.39 -93.28,-60.62 -93.11,-60.86 -92.89,-61.04 -92.66,-61.22 -92.40,-61.35 -92.14,-61.47 -91.86,-61.53 -91.58,-61.59 -91.29,-61.58 -91.00,-61.57 -90.72,-61.49 -90.45,-61.41 -90.20,-61.27 -89.95,-61.12 -89.74,-60.92 -89.53,-60.73 -89.37,-60.48 -89.22,-60.24 -89.12,-59.97 -89.03,-59.69 -89.01,-59.41 -88.98,-59.12 -89.03,-58.83 -89.07,-58.55 -89.19,-58.28 -89.30,-58.02 -91.61,-53.32 -93.92,-48.63 -97.88,-41.88 -101.83,-35.13 -106.61,-27.51 -111.39,-19.88 -115.61,-13.63 -119.84,-7.38 -122.63,-3.84 -125.43,-0.31 -126.35,-0.05 -127.26,0.19 -127.47,0.40 -127.68,0.60 -127.93,0.76 -128.18,0.91 -128.45,1.00 -128.73,1.08 -129.03,1.10 -129.32,1.12 -129.61,1.07 -129.89,1.02 -130.16,0.90 -130.43,0.78 -130.66,0.60 -130.89,0.42 -131.07,0.19 -131.25,-0.03 -131.37,-0.30 -131.49,-0.56 -131.55,-0.85 -131.60,-1.14 -131.58,-1.43 -131.56,-1.72 -131.48,-2.00 -131.39,-2.28 -131.24,-2.53 -131.09,-2.78 -130.68,-4.90 -130.27,-7.02 -128.28,-12.04 -126.28,-17.05 -123.37,-23.26 -120.45,-29.47 -117.30,-35.42 -114.15,-41.37 -111.89,-45.31 -109.63,-49.24 -108.79,-50.27 -107.94,-51.30 -107.77,-51.53 -107.60,-51.76 -107.38,-51.94 -107.16,-52.12 -106.90,-52.24 -106.64,-52.37 -106.36,-52.43 -106.08,-52.48 -105.79,-52.47 -105.51,-52.46 -105.23,-52.39 -104.96,-52.31 -104.71,-52.17 -104.46,-52.02 -104.25,-51.83 -104.05,-51.63 -103.89,-51.39 -103.74,-51.15 -103.65,-50.88 -103.55,-50.61 -103.53,-50.32 -103.50,-50.04 -103.55,-49.75 -103.59,-49.47 -103.70,-49.21 -103.82,-48.94 -104.90,-46.70 -105.98,-44.45 -109.21,-39.04 -112.43,-33.63 -116.71,-26.60 -120.98,-19.57 -125.11,-13.01 -129.25,-6.44 -131.99,-2.31 -134.74,1.82 -135.63,2.28 -136.52,2.73 -136.73,2.97 -136.93,3.20 -137.18,3.39 -137.44,3.57 -137.73,3.68 -138.02,3.80 -138.33,3.84 -138.63,3.88 -138.94,3.85 -139.25,3.81 -139.55,3.71 -139.84,3.60 -140.10,3.43 -140.36,3.26 -140.57,3.03 -140.78,2.80 -140.93,2.52 -141.08,2.25 -141.15,1.95 -141.23,1.65 -141.24,1.33 -141.24,1.02 -141.17,0.72 -141.10,0.42 -140.96,0.14 -140.82,-0.13 -139.94,-2.19 -139.06,-4.26 -136.80,-8.66 -134.53,-13.06 -129.04,-22.09 -123.55,-31.12 -122.56,-32.29 -121.58,-33.45 -121.39,-33.69 -121.21,-33.92 -120.97,-34.11 -120.73,-34.29 -120.46,-34.42 -120.19,-34.54 -119.89,-34.59 -119.60,-34.65 -119.30,-34.63 -119.00,-34.61 -118.71,-34.52 -118.43,-34.43 -118.17,-34.28 -117.91,-34.12 -117.70,-33.91 -117.49,-33.70 -117.33,-33.44 -117.18,-33.18 -117.09,-32.90 -117.00,-32.61 -116.98,-32.31 -116.96,-32.01 -117.02,-31.72 -117.07,-31.42 -117.20,-31.15 -117.32,-30.87 -118.91,-27.84 -120.50,-24.80 -123.48,-19.76 -126.47,-14.73 -130.27,-9.79 -134.07,-4.84 -135.57,-4.30 -137.07,-3.77 -137.28,-3.55 -137.49,-3.34 -137.74,-3.18 -138.00,-3.02 -138.29,-2.93 -138.57,-2.84 -138.87,-2.82 -139.17,-2.79 -139.47,-2.85 -139.76,-2.90 -140.04,-3.02 -140.31,-3.14 -140.55,-3.32 -140.79,-3.50 -140.98,-3.74 -141.17,-3.97 -141.29,-4.25 -141.42,-4.52 -141.48,-4.81 -141.53,-5.11 -141.52,-5.41 -141.50,-5.71 -141.42,-6.00 -141.33,-6.28 -141.18,-6.54 -141.02,-6.80 -141.14,-8.19 -141.25,-9.59 -140.20,-12.89 -139.14,-16.19 -138.06,-18.77 -136.99,-21.35 -135.27,-22.28 -133.55,-23.22 -133.47,-23.35 -133.40,-23.49 -133.29,-23.61 -133.18,-23.72 -133.05,-23.81 -132.91,-23.89 -132.76,-23.95 -132.61,-24.00 -132.46,-24.01 -132.30,-24.03 -132.14,-24.00 -131.99,-23.98 -131.84,-23.92 -131.69,-23.86 -131.57,-23.76 -131.44,-23.67 -131.34,-23.55 -131.24,-23.43 -131.17,-23.28 -131.10,-23.14 -131.06,-22.99 -131.03,-22.83 -131.04,-22.67 -131.04,-22.52 -131.08,-22.36 -131.13,-22.21 -131.09,-22.34 -131.05,-22.47 -131.12,-22.27 -131.20,-22.07 -131.33,-21.90 -131.46,-21.74 -131.64,-21.62 -131.82,-21.51 -132.03,-21.46 -132.23,-21.40 -132.44,-21.42 -132.66,-21.44 -132.85,-21.52 -133.05,-21.61 -133.20,-21.75 -133.36,-21.89 -133.47,-22.07 -133.57,-22.26 -133.61,-22.47 -133.65,-22.68 -133.62,-22.89 -133.59,-23.10 -133.50,-23.29 -133.41,-23.48 -133.26,-23.63 -133.11,-23.78 -132.92,-23.87 -132.73,-23.97 -132.51,-24.00 -132.30,-24.03 -132.10,-23.99 -131.89,-23.95 -131.70,-23.84 -131.52,-23.74 -131.37,-23.58 -131.23,-23.42 -131.15,-23.23 -131.06,-23.03 -131.05,-22.82 -131.03,-22.61 -131.08,-22.40 -131.13,-22.19 -131.25,-22.02 -131.36,-21.84 -131.53,-21.70 -131.69,-21.57 -131.89,-21.50 -132.09,-21.42 -132.30,-21.42 -132.52,-21.41 -132.72,-21.47 -132.92,-21.54 -133.09,-21.66 -133.27,-21.78 -133.39,-21.96 -133.52,-22.13 -133.58,-22.33 -133.64,-22.54 -133.60,-22.88 -133.55,-23.22 -133.47,-23.35 -133.40,-23.49 -133.29,-23.61 -133.18,-23.72 -133.05,-23.81 -132.91,-23.89 -132.76,-23.95 -132.61,-24.00 -132.46,-24.01 -132.30,-24.03 -132.14,-24.00 -131.99,-23.98 -131.84,-23.92 -131.69,-23.86 -131.57,-23.76 -131.44,-23.67 -131.34,-23.55 -131.24,-23.43 -131.17,-23.28 -131.10,-23.14 -131.06,-22.99 -131.03,-22.83 -131.04,-22.67 -131.04,-22.52 -131.08,-22.36 -131.13,-22.21 -131.78,-20.83 -132.43,-19.46 -133.42,-17.04 -134.42,-14.62 -135.36,-11.92 -136.29,-9.22 -136.68,-6.49 -137.07,-3.77 -137.28,-3.55 -137.49,-3.34 -137.74,-3.18 -138.00,-3.02 -138.29,-2.93 -138.57,-2.84 -138.87,-2.82 -139.17,-2.79 -139.47,-2.85 -139.76,-2.90 -140.04,-3.02 -140.31,-3.14 -140.55,-3.32 -140.79,-3.50 -140.98,-3.74 -141.17,-3.97 -141.29,-4.25 -141.42,-4.52 -141.48,-4.81 -141.53,-5.11 -141.52,-5.41 -141.50,-5.71 -141.42,-6.00 -141.33,-6.28 -141.18,-6.54 -141.02,-6.80 -139.39,-7.47 -137.75,-8.15 -134.25,-12.71 -130.76,-17.28 -127.84,-22.20 -124.92,-27.12 -123.25,-30.28 -121.58,-33.45 -121.39,-33.69 -121.21,-33.92 -120.97,-34.11 -120.73,-34.29 -120.46,-34.42 -120.19,-34.54 -119.89,-34.59 -119.60,-34.65 -119.30,-34.63 -119.00,-34.61 -118.71,-34.52 -118.43,-34.43 -118.17,-34.28 -117.91,-34.12 -117.70,-33.91 -117.49,-33.70 -117.33,-33.44 -117.18,-33.18 -117.09,-32.90 -117.00,-32.61 -116.98,-32.31 -116.96,-32.01 -117.02,-31.72 -117.07,-31.42 -117.20,-31.15 -117.32,-30.87 -118.30,-29.70 -119.28,-28.53 -124.63,-19.63 -129.99,-10.74 -132.16,-6.47 -134.34,-2.21 -135.43,0.26 -136.52,2.73 -136.73,2.97 -136.93,3.20 -137.18,3.39 -137.44,3.57 -137.73,3.68 -138.02,3.80 -138.33,3.84 -138.63,3.88 -138.94,3.85 -139.25,3.81 -139.55,3.71 -139.84,3.60 -140.10,3.43 -140.36,3.26 -140.57,3.03 -140.78,2.80 -140.93,2.52 -141.08,2.25 -141.15,1.95 -141.23,1.65 -141.24,1.33 -141.24,1.02 -141.17,0.72 -141.10,0.42 -140.96,0.14 -140.82,-0.13 -139.87,-0.70 -138.92,-1.28 -136.25,-5.25 -133.58,-9.22 -129.39,-15.69 -125.19,-22.16 -120.85,-29.12 -116.52,-36.09 -113.36,-41.28 -110.21,-46.47 -109.07,-48.88 -107.94,-51.30 -107.77,-51.53 -107.60,-51.76 -107.38,-51.94 -107.16,-52.12 -106.90,-52.24 -106.64,-52.37 -106.36,-52.43 -106.08,-52.48 -105.79,-52.47 -105.51,-52.46 -105.23,-52.39 -104.96,-52.31 -104.71,-52.17 -104.46,-52.02 -104.25,-51.83 -104.05,-51.63 -103.89,-51.39 -103.74,-51.15 -103.65,-50.88 -103.55,-50.61 -103.53,-50.32 -103.50,-50.04 -103.55,-49.75 -103.59,-49.47 -103.70,-49.21 -103.82,-48.94 -104.60,-47.87 -105.37,-46.81 -107.57,-42.93 -109.77,-39.06 -112.88,-33.21 -115.98,-27.36 -118.86,-21.29 -121.74,-15.22 -123.65,-10.54 -125.56,-5.86 -126.41,-2.83 -127.26,0.19 -127.47,0.40 -127.68,0.60 -127.93,0.76 -128.18,0.91 -128.45,1.00 -128.73,1.08 -129.03,1.10 -129.32,1.12 -129.60,1.07 -129.89,1.02 -130.16,0.90 -130.43,0.78 -130.66,0.60 -130.89,0.42 -131.07,0.19 -131.25,-0.03 -131.37,-0.30 -131.49,-0.56 -131.55,-0.85 -131.60,-1.14 -131.58,-1.43 -131.56,-1.72 -131.48,-2.00 -131.39,-2.28 -131.24,-2.53 -131.09,-2.78 -130.02,-3.20 -128.95,-3.62 -126.44,-6.89 -123.93,-10.16 -119.73,-16.33 -115.53,-22.49 -110.74,-30.03 -105.96,-37.56 -102.02,-44.23 -98.07,-50.89 -95.98,-54.58 -93.88,-58.27 -93.67,-59.33 -93.45,-60.39 -93.28,-60.62 -93.11,-60.86 -92.89,-61.04 -92.66,-61.22 -92.40,-61.35 -92.14,-61.47 -91.86,-61.53 -91.58,-61.59 -91.29,-61.58 -91.00,-61.57 -90.72,-61.49 -90.45,-61.41 -90.20,-61.27 -89.95,-61.12 -89.74,-60.93 -89.53,-60.73 -89.37,-60.48 -89.22,-60.24 -89.12,-59.97 -89.03,-59.69 -89.01,-59.41 -88.98,-59.12 -89.03,-58.83 -89.07,-58.55 -89.19,-58.28 -89.30,-58.02 -90.97,-55.36 -92.63,-52.71 -95.65,-47.43 -98.66,-42.15 -102.08,-35.38 -105.50,-28.61 -108.36,-22.20 -111.23,-15.79 -113.00,-11.38 -114.77,-6.96 -115.33,-4.52 -115.89,-2.07 -116.09,-1.86 -116.28,-1.65 -116.51,-1.50 -116.75,-1.34 -117.02,-1.25 -117.29,-1.15 -117.57,-1.12 -117.85,-1.09 -118.13,-1.13 -118.41,-1.17 -118.68,-1.28 -118.94,-1.39 -119.17,-1.55 -119.40,-1.72 -119.59,-1.93 -119.77,-2.15 -119.90,-2.40 -120.02,-2.66 -120.09,-2.94 -120.15,-3.21 -120.14,-3.50 -120.14,-3.78 -120.06,-4.05 -119.99,-4.33 -119.85,-4.58 -119.72,-4.83 -118.35,-6.15 -116.98,-7.47 -113.83,-11.82 -110.68,-16.17 -105.80,-23.66 -100.93,-31.16 -94.96,-40.91 -89.00,-50.66 -87.72,-53.21 -86.45,-55.76 -86.29,-55.97 -86.14,-56.19 -85.94,-56.37 -85.74,-56.54 -85.50,-56.67 -85.26,-56.79 -85.00,-56.85 -84.74,-56.91 -84.48,-56.91 -84.21,-56.91 -83.95,-56.84 -83.69,-56.78 -83.46,-56.65 -83.22,-56.52 -83.02,-56.34 -82.83,-56.17 -82.68,-55.95 -82.53,-55.72 -82.43,-55.47 -82.34,-55.22 -82.31,-54.96 -82.28,-54.69 -82.32,-54.43 -82.35,-54.16 -82.45,-53.91 -82.54,-53.67 -83.53,-52.12 -84.51,-50.57 -87.76,-44.49 -91.01,-38.41 -96.83,-26.57 -102.65,-14.74 -106.26,-6.47 -109.86,1.78 -109.75,3.72 -109.64,5.66 -109.83,5.86 -110.01,6.06 -110.23,6.21 -110.46,6.35 -110.71,6.44 -110.97,6.53 -111.24,6.56 -111.50,6.59 -111.77,6.55 -112.04,6.51 -112.29,6.41 -112.54,6.31 -112.76,6.15 -112.97,5.99 -113.15,5.79 -113.32,5.58 -113.44,5.34 -113.56,5.10 -113.62,4.83 -113.68,4.57 -113.67,4.30 -113.67,4.03 -113.60,3.77 -113.53,3.51 -113.40,3.27 -113.27,3.04 -110.98,0.61 -108.69,-1.81 -104.49,-7.58 -100.30,-13.34 -94.97,-21.29 -89.65,-29.25 -84.57,-37.43 -79.49,-45.61 -76.04,-51.86 -72.59,-58.11 -71.30,-61.28 -70.01,-64.45 -69.85,-64.64 -69.68,-64.84 -69.47,-64.99 -69.27,-65.14 -69.03,-65.23 -68.79,-65.33 -68.54,-65.36 -68.28,-65.40 -68.03,-65.37 -67.77,-65.35 -67.53,-65.26 -67.29,-65.18 -67.08,-65.04 -66.86,-64.90 -66.69,-64.71 -66.52,-64.52 -66.39,-64.30 -66.27,-64.07 -66.20,-63.82 -66.14,-63.58 -66.13,-63.32 -66.13,-63.06 -66.18,-62.81 -66.24,-62.56 -66.35,-62.34 -66.47,-62.11 -67.57,-61.15 -68.66,-60.18 -71.40,-55.99 -74.13,-51.79 -77.93,-45.01 -81.73,-38.24 -85.37,-30.83 -89.02,-23.42 -91.64,-17.44 -94.26,-11.46 -95.59,-8.30 -96.92,-5.13 -96.48,-3.78 -96.04,-2.42 -96.21,-2.22 -96.37,-2.01 -96.58,-1.85 -96.79,-1.69 -97.03,-1.59 -97.28,-1.49 -97.54,-1.44 -97.80,-1.40 -98.06,-1.42 -98.32,-1.44 -98.57,-1.52 -98.82,-1.60 -99.05,-1.74 -99.27,-1.88 -99.46,-2.07 -99.64,-2.26 -99.77,-2.49 -99.90,-2.72 -99.98,-2.97 -100.05,-3.22 -100.07,-3.49 -100.08,-3.75 -100.03,-4.01 -99.98,-4.27 -99.86,-4.51 -99.75,-4.74 -97.56,-7.90 -95.36,-11.05 -91.64,-16.98 -87.91,-22.92 -83.77,-29.92 -79.64,-36.91 -76.21,-42.89 -72.79,-48.87 -70.89,-52.31 -68.99,-55.74 -68.67,-56.91 -68.34,-58.08 -68.19,-58.30 -68.05,-58.51 -67.85,-58.68 -67.65,-58.86 -67.42,-58.98 -67.19,-59.10 -66.93,-59.16 -66.68,-59.23 -66.42,-59.23 -66.16,-59.23 -65.90,-59.16 -65.65,-59.10 -65.42,-58.98 -65.18,-58.86 -64.99,-58.68 -64.79,-58.51 -64.64,-58.29 -64.49,-58.08 -64.40,-57.83 -64.31,-57.59 -64.28,-57.33 -64.25,-57.07 -64.28,-56.81 -64.31,-56.55 -64.40,-56.30 -64.50,-56.06 -65.63,-54.21 -66.76,-52.36 -68.95,-48.19 -71.14,-44.02 -73.87,-38.36 -76.61,-32.70 -78.87,-27.08 -81.12,-21.45 -82.41,-17.60 -83.69,-13.75 -83.95,-11.37 -84.22,-9.00 -84.41,-8.81 -84.59,-8.62 -84.81,-8.48 -85.03,-8.35 -85.28,-8.26 -85.53,-8.18 -85.79,-8.16 -86.05,-8.14 -86.31,-8.19 -86.57,-8.23 -86.81,-8.34 -87.05,-8.44 -87.26,-8.60 -87.47,-8.76 -87.63,-8.96 -87.80,-9.17 -87.91,-9.40 -88.02,-9.64 -88.07,-9.90 -88.12,-10.15 -88.11,-10.42 -88.09,-10.68 -88.02,-10.93 -87.95,-11.18 -87.81,-11.41 -87.68,-11.63 -86.07,-12.92 -84.45,-14.20 -80.93,-18.80 -77.40,-23.40 -71.67,-32.02 -65.95,-40.63 -57.98,-53.62 -50.02,-66.60 -49.87,-66.78 -49.71,-66.97 -49.52,-67.11 -49.32,-67.26 -49.10,-67.35 -48.88,-67.44 -48.64,-67.48 -48.40,-67.51 -48.16,-67.49 -47.92,-67.47 -47.69,-67.39 -47.46,-67.32 -47.26,-67.18 -47.06,-67.05 -46.89,-66.88 -46.73,-66.70 -46.61,-66.49 -46.49,-66.28 -46.42,-66.05 -46.36,-65.82 -46.35,-65.58 -46.34,-65.34 -46.39,-65.10 -46.44,-64.86 -46.55,-64.65 -46.66,-64.43 -48.45,-62.76 -50.25,-61.09 -54.32,-54.75 -58.40,-48.40 -63.02,-40.48 -67.64,-32.57 -71.76,-24.84 -75.88,-17.12 -78.62,-11.30 -81.36,-5.47 -82.63,-2.06 -83.89,1.34 -84.06,1.52 -84.23,1.69 -84.44,1.82 -84.65,1.95 -84.89,2.03 -85.13,2.11 -85.37,2.13 -85.62,2.14 -85.87,2.10 -86.11,2.06 -86.34,1.96 -86.56,1.86 -86.76,1.71 -86.96,1.56 -87.11,1.37 -87.27,1.17 -87.37,0.95 -87.48,0.72 -87.52,0.48 -87.57,0.24 -87.56,-0.00 -87.55,-0.25 -87.48,-0.49 -87.41,-0.72 -87.28,-0.94 -87.15,-1.15 -86.19,-1.40 -85.22,-1.64 -82.71,-5.07 -80.20,-8.49 -75.86,-14.55 -71.52,-20.60 -66.65,-27.72 -61.79,-34.84 -57.65,-41.27 -53.51,-47.71 -51.71,-50.71 -49.91,-53.72 -49.47,-55.13 -49.04,-56.54 -48.89,-56.73 -48.74,-56.92 -48.55,-57.07 -48.36,-57.22 -48.14,-57.32 -47.92,-57.42 -47.68,-57.46 -47.44,-57.51 -47.20,-57.49 -46.96,-57.48 -46.73,-57.41 -46.50,-57.34 -46.29,-57.21 -46.08,-57.09 -45.91,-56.92 -45.74,-56.75 -45.61,-56.54 -45.49,-56.33 -45.41,-56.10 -45.34,-55.87 -45.33,-55.63 -45.31,-55.39 -45.36,-55.15 -45.40,-54.91 -45.50,-54.69 -45.60,-54.47 -47.28,-51.87 -48.96,-49.28 -52.55,-43.27 -56.14,-37.25 -61.47,-27.54 -66.79,-17.83 -69.26,-12.32 -71.74,-6.80 -72.96,-3.44 -74.18,-0.08 -74.12,1.95 -74.07,3.99 -74.23,4.17 -74.40,4.35 -74.61,4.48 -74.82,4.61 -75.05,4.69 -75.28,4.77 -75.52,4.79 -75.77,4.81 -76.01,4.77 -76.25,4.73 -76.48,4.64 -76.70,4.54 -76.90,4.40 -77.10,4.25 -77.25,4.06 -77.41,3.87 -77.51,3.65 -77.62,3.43 -77.67,3.19 -77.72,2.95 -77.71,2.71 -77.70,2.46 -77.64,2.23 -77.57,1.99 -77.45,1.78 -77.33,1.57 -75.57,-0.11 -73.82,-1.79 -70.54,-6.18 -67.27,-10.56 -63.22,-16.64 -59.16,-22.71 -55.14,-29.28 -51.11,-35.85 -47.88,-41.43 -44.64,-47.00 -42.59,-51.03 -40.54,-55.06 -40.41,-55.27 -40.28,-55.47 -40.11,-55.65 -39.94,-55.82 -39.73,-55.94 -39.53,-56.06 -39.29,-56.14 -39.06,-56.21 -38.82,-56.22 -38.58,-56.23 -38.34,-56.19 -38.10,-56.14 -37.88,-56.04 -37.66,-55.94 -37.47,-55.79 -37.28,-55.64 -37.13,-55.45 -36.98,-55.26 -36.89,-55.04 -36.79,-54.82 -36.74,-54.58 -36.70,-54.34 -36.72,-54.10 -36.73,-53.86 -36.81,-53.63 -36.88,-53.40 -38.11,-51.07 -39.34,-48.75 -41.51,-44.00 -43.68,-39.24 -46.21,-33.25 -48.74,-27.26 -50.83,-21.66 -52.92,-16.05 -54.14,-12.26 -55.36,-8.47 -55.74,-6.37 -56.13,-4.27 -56.30,-4.11 -56.47,-3.94 -56.67,-3.83 -56.87,-3.71 -57.10,-3.65 -57.32,-3.58 -57.56,-3.57 -57.79,-3.57 -58.02,-3.61 -58.25,-3.66 -58.46,-3.76 -58.67,-3.86 -58.85,-4.01 -59.03,-4.16 -59.17,-4.35 -59.31,-4.53 -59.40,-4.75 -59.49,-4.96 -59.53,-5.20 -59.57,-5.43 -59.55,-5.66 -59.53,-5.89 -59.45,-6.11 -59.38,-6.34 -59.25,-6.53 -59.13,-6.73 -57.86,-7.77 -56.59,-8.81 -53.87,-12.10 -51.14,-15.39 -47.06,-20.93 -42.97,-26.46 -38.31,-33.13 -33.66,-39.80 -29.63,-45.86 -25.61,-51.92 -23.45,-55.62 -21.30,-59.33 -21.12,-60.74 -20.95,-62.15 -20.82,-62.30 -20.69,-62.46 -20.53,-62.57 -20.37,-62.69 -20.19,-62.76 -20.00,-62.84 -19.81,-62.87 -19.61,-62.89 -19.41,-62.87 -19.22,-62.86 -19.03,-62.79 -18.84,-62.72 -18.68,-62.61 -18.51,-62.51 -18.38,-62.36 -18.24,-62.21 -18.15,-62.04 -18.05,-61.87 -18.00,-61.68 -17.95,-61.49 -17.94,-61.29 -17.94,-61.09 -17.98,-60.90 -18.02,-60.70 -18.11,-60.52 -18.20,-60.35 -20.07,-57.95 -21.93,-55.56 -25.44,-50.13 -28.94,-44.70 -33.36,-37.40 -37.79,-30.11 -41.96,-22.58 -46.13,-15.06 -49.33,-8.81 -52.53,-2.56 -54.27,1.25 -56.02,5.06 -56.28,6.80 -56.53,8.54 -56.68,8.71 -56.83,8.89 -57.02,9.02 -57.20,9.16 -57.42,9.24 -57.63,9.33 -57.86,9.36 -58.08,9.40 -58.31,9.37 -58.54,9.35 -58.76,9.27 -58.97,9.20 -59.16,9.07 -59.36,8.94 -59.51,8.78 -59.67,8.61 -59.78,8.41 -59.89,8.21 -59.95,7.98 -60.01,7.76 -60.02,7.53 -60.02,7.30 -59.97,7.08 -59.92,6.85 -59.82,6.65 -59.72,6.44 -57.96,4.35 -56.21,2.25 -52.88,-2.75 -49.56,-7.77 -45.59,-14.27 -41.62,-20.77 -38.04,-27.07 -34.45,-33.37 -32.07,-37.83 -29.68,-42.28 -28.74,-44.47 -27.79,-46.65 -27.66,-46.83 -27.52,-47.01 -27.34,-47.15 -27.16,-47.29 -26.96,-47.38 -26.75,-47.48 -26.53,-47.52 -26.31,-47.56 -26.08,-47.55 -25.86,-47.53 -25.64,-47.47 -25.42,-47.40 -25.23,-47.28 -25.04,-47.17 -24.88,-47.01 -24.72,-46.85 -24.60,-46.65 -24.48,-46.46 -24.42,-46.25 -24.35,-46.03 -24.33,-45.81 -24.32,-45.58 -24.36,-45.36 -24.40,-45.14 -24.49,-44.93 -24.58,-44.72 -25.28,-44.09 -25.97,-43.45 -27.65,-40.66 -29.34,-37.86 -31.70,-33.35 -34.06,-28.83 -36.28,-24.02 -38.49,-19.20 -40.28,-15.17 -42.06,-11.14 -43.01,-8.93 -43.95,-6.72 -44.11,-5.54 -44.26,-4.35 -44.42,-4.19 -44.57,-4.03 -44.76,-3.91 -44.94,-3.79 -45.16,-3.72 -45.37,-3.65 -45.59,-3.64 -45.81,-3.62 -46.03,-3.65 -46.25,-3.69 -46.45,-3.77 -46.66,-3.86 -46.83,-3.99 -47.01,-4.13 -47.15,-4.30 -47.29,-4.47 -47.39,-4.67 -47.49,-4.87 -47.53,-5.09 -47.58,-5.31 -47.57,-5.53 -47.56,-5.75 -47.50,-5.97 -47.43,-6.18 -47.32,-6.37 -47.21,-6.57 -45.96,-8.11 -44.70,-9.65 -42.29,-12.87 -39.87,-16.09 -36.71,-20.65 -33.56,-25.21 -30.41,-30.02 -27.27,-34.83 -24.82,-38.93 -22.37,-43.04 -21.17,-45.28 -19.98,-47.53 -19.98,-48.66 -19.99,-49.78 -19.86,-49.96 -19.73,-50.15 -19.56,-50.29 -19.39,-50.44 -19.19,-50.54 -18.99,-50.64 -18.78,-50.69 -18.56,-50.74 -18.33,-50.74 -18.11,-50.73 -17.89,-50.68 -17.68,-50.62 -17.48,-50.51 -17.29,-50.41 -17.12,-50.26 -16.96,-50.11 -16.83,-49.92 -16.71,-49.74 -16.63,-49.53 -16.56,-49.32 -16.53,-49.09 -16.51,-48.87 -16.54,-48.65 -16.57,-48.43 -16.65,-48.22 -16.73,-48.01 -17.89,-46.32 -19.04,-44.62 -21.00,-41.03 -22.97,-37.43 -25.39,-32.65 -27.81,-27.88 -29.91,-23.12 -32.01,-18.36 -33.25,-14.71 -34.49,-11.06 -35.17,-9.61 -35.86,-8.15 -34.81,-9.53 -33.77,-10.91 -31.05,-13.78 -28.33,-16.65 -24.80,-20.60 -21.28,-24.55 -17.84,-29.00 -14.41,-33.44 -11.60,-37.58 -8.79,-41.72 -7.21,-44.62 -5.63,-47.53 -5.37,-49.13 -5.11,-50.73 -4.99,-50.88 -4.86,-51.02 -4.70,-51.14 -4.54,-51.25 -4.36,-51.32 -4.18,-51.39 -3.99,-51.42 -3.80,-51.45 -3.61,-51.43 -3.42,-51.41 -3.23,-51.34 -3.05,-51.28 -2.89,-51.17 -2.73,-51.06 -2.60,-50.92 -2.47,-50.78 -2.37,-50.61 -2.28,-50.44 -2.23,-50.25 -2.18,-50.06 -2.18,-49.87 -2.17,-49.67 -2.22,-49.48 -2.26,-49.30 -2.35,-49.12 -2.43,-48.95 -3.58,-47.80 -4.74,-46.66 -6.90,-43.38 -9.06,-40.10 -11.88,-35.36 -14.71,-30.63 -17.38,-25.63 -20.05,-20.64 -22.15,-16.39 -24.25,-12.14 -25.58,-9.38 -26.90,-6.62 -27.52,-5.17 -28.13,-3.73 -28.29,-3.59 -28.45,-3.45 -28.63,-3.36 -28.81,-3.26 -29.02,-3.21 -29.22,-3.16 -29.43,-3.16 -29.63,-3.16 -29.84,-3.21 -30.04,-3.27 -30.22,-3.36 -30.40,-3.46 -30.56,-3.60 -30.71,-3.74 -30.83,-3.91 -30.95,-4.08 -31.02,-4.27 -31.10,-4.47 -31.12,-4.67 -31.14,-4.88 -31.12,-5.09 -31.09,-5.29 -31.02,-5.49 -30.94,-5.68 -30.83,-5.85 -30.71,-6.02 -30.00,-6.60 -29.30,-7.18 -27.86,-8.79 -26.42,-10.39 -24.56,-12.81 -22.70,-15.23 -20.88,-17.66 -19.05,-20.09 -17.76,-21.75 -16.47,-23.41 -15.28,-24.37 -14.09,-25.33 -13.99,-25.53 -13.88,-25.72 -13.73,-25.88 -13.58,-26.04 -13.40,-26.16 -13.21,-26.28 -13.01,-26.35 -12.80,-26.42 -12.58,-26.44 -12.36,-26.46 -12.15,-26.43 -11.93,-26.40 -11.73,-26.31 -11.53,-26.23 -11.35,-26.10 -11.17,-25.97 -11.03,-25.81 -10.89,-25.64 -10.80,-25.44 -10.70,-25.24 -10.65,-25.03 -10.60,-24.82 -10.61,-24.60 -10.62,-24.38 -10.67,-24.17 -10.73,-23.96 -11.12,-23.04 -11.50,-22.12 -12.31,-20.20 -13.12,-18.28 -14.18,-15.70 -15.24,-13.13 -16.23,-10.38 -17.22,-7.64 -18.29,-4.49 -19.35,-1.34 -18.55,-2.14 -17.75,-2.94 -16.03,-4.39 -14.32,-5.85 -12.22,-7.70 -10.11,-9.56 -8.09,-11.45 -6.08,-13.35 -4.58,-14.98 -3.09,-16.60 -2.29,-18.20 -1.50,-19.80 -1.36,-19.93 -1.23,-20.06 -1.07,-20.15 -0.91,-20.25 -0.73,-20.31 -0.55,-20.36 -0.36,-20.37 -0.17,-20.38 0.00,-20.34 0.19,-20.31 0.36,-20.23 0.53,-20.15 0.67,-20.04 0.82,-19.92 0.93,-19.77 1.05,-19.62 1.12,-19.45 1.20,-19.28 1.23,-19.10 1.27,-18.91 1.25,-18.72 1.24,-18.54 1.18,-18.36 1.13,-18.18 1.03,-18.02 0.93,-17.86 0.24,-17.13 -0.44,-16.41 -1.64,-14.93 -2.84,-13.45 -4.15,-11.17 -5.47,-8.89 -6.68,-6.52 -7.88,-4.15 -8.45,-2.56 -9.02,-0.97 -9.14,0.46 -9.26,1.91 -9.41,2.01 -9.55,2.11 -9.72,2.18 -9.88,2.25 -10.06,2.27 -10.24,2.29 -10.42,2.28 -10.59,2.26 -10.76,2.20 -10.93,2.13 -11.08,2.04 -11.23,1.94 -11.35,1.80 -11.47,1.67 -11.55,1.52 -11.64,1.36 -11.68,1.19 -11.73,1.01 -11.73,0.83 -11.74,0.66 -11.70,0.48 -11.66,0.31 -11.58,0.15 -11.49,-0.00 -11.38,-0.14 -11.26,-0.27 -10.63,-0.55 -10.00,-0.82 -8.96,-1.78 -7.91,-2.74 -6.46,-4.06 -5.01,-5.38 -3.60,-6.72 -2.19,-8.06 -0.82,-9.31 0.53,-10.56 2.33,-11.87 4.12,-13.19 4.22,-13.33 4.32,-13.48 4.45,-13.60 4.58,-13.72 4.74,-13.80 4.89,-13.89 5.06,-13.93 5.23,-13.97 5.41,-13.98 5.58,-13.98 5.76,-13.94 5.93,-13.90 6.08,-13.82 6.24,-13.74 6.37,-13.62 6.51,-13.51 6.61,-13.37 6.71,-13.22 6.78,-13.06 6.84,-12.89 6.86,-12.72 6.89,-12.55 6.87,-12.37 6.85,-12.20 6.79,-12.03 6.73,-11.86 6.43,-11.34 6.13,-10.81 5.51,-9.58 4.88,-8.35 4.00,-6.46 3.11,-4.58 2.22,-2.05 1.33,0.46 1.25,0.61 1.18,0.76 1.07,0.89 0.96,1.02 0.82,1.12 0.68,1.22 0.53,1.29 0.37,1.35 0.20,1.38 0.03,1.40 -0.13,1.39 -0.30,1.37 -0.46,1.32 -0.62,1.26 -0.76,1.17 -0.90,1.08 -1.02,0.95 -1.13,0.83 -1.22,0.68 -1.30,0.53 -1.34,0.37 -1.39,0.20 -1.39,0.03 -1.40,-0.13 -1.36,-0.29 -1.33,-0.46 -1.33,-0.46 L -1.33,-0.46 Z"/></g></svg>