<svg version="1.1" xmlns="http://www.w3.org/2000/svg" viewBox="0 0 410.03637811607666 320.3141784667969" width="410.03637811607666" height="320.3141784667969" filter="invert(93%) hue-rotate(180deg)">
  <!-- svg-source:excalidraw -->
  
  <defs>
    <style class="style-fonts">
      @font-face {
        font-family: "Virgil";
        src: url("https://excalidraw.com/Virgil.woff2");
      }
      @font-face {
        font-family: "Cascadia";
        src: url("https://excalidraw.com/Cascadia.woff2");
      }
    </style>
  </defs>
  <rect x="0" y="0" width="410.03637811607666" height="320.3141784667969" fill="transparent"/><g stroke-linecap="round"><g transform="translate(56.2803955078125 10) rotate(0 0 150.15708923339844)"><path d="M0 0 C0 50.05, 0 250.26, 0 300.31 M0 0 C0 50.05, 0 250.26, 0 300.31" stroke="#000000" stroke-width="1" fill="none"/></g></g><mask/><g stroke-linecap="round"><g transform="translate(10 277.9521789550781) rotate(0 159.18447875976562 0)"><path d="M0 0 C53.06 0, 265.31 0, 318.37 0 M0 0 C53.06 0, 265.31 0, 318.37 0" stroke="#000000" stroke-width="1" fill="none"/></g></g><mask/><g transform="translate(21.1371488259895 245.07392957735482) rotate(0 159.5521749753617 -111.57038101986656)" stroke="none"><path fill="#364fc7" d="M 0.33,-1.48 Q 0.33,-1.48 1.63,-1.20 2.93,-0.91 4.00,-0.59 5.07,-0.27 6.10,0.11 7.13,0.51 8.10,0.95 9.07,1.39 10.84,1.81 12.61,2.23 14.95,2.32 17.29,2.40 18.74,2.45 20.19,2.50 21.79,2.58 23.40,2.67 24.97,2.74 26.54,2.80 28.20,2.84 29.87,2.88 31.59,2.76 33.31,2.64 34.98,2.39 36.65,2.14 38.35,1.82 40.04,1.51 41.86,1.15 43.67,0.79 45.56,0.43 47.45,0.07 49.34,-0.29 51.23,-0.66 53.07,-1.11 54.92,-1.56 56.73,-2.12 58.55,-2.68 60.36,-3.37 62.17,-4.06 64.06,-4.74 65.95,-5.41 67.94,-6.10 69.93,-6.80 71.85,-7.44 73.76,-8.08 75.55,-8.78 77.34,-9.48 79.18,-10.15 81.02,-10.82 82.72,-11.54 84.42,-12.26 86.11,-13.02 87.80,-13.78 89.42,-14.65 91.05,-15.52 92.65,-16.55 94.25,-17.57 95.92,-18.78 97.58,-19.99 99.23,-21.18 100.88,-22.38 102.52,-23.61 104.16,-24.84 105.88,-26.17 107.59,-27.49 109.24,-28.80 110.88,-30.11 112.42,-31.44 113.96,-32.78 115.45,-34.18 116.94,-35.58 118.26,-36.96 119.57,-38.34 121.05,-39.78 122.52,-41.21 123.81,-42.62 125.10,-44.03 126.36,-45.44 127.61,-46.85 128.80,-48.26 129.98,-49.66 131.04,-51.10 132.11,-52.55 133.08,-54.08 134.05,-55.61 135.03,-57.21 136.02,-58.81 136.96,-60.39 137.90,-61.98 138.93,-63.63 139.96,-65.28 141.04,-66.99 142.13,-68.70 143.37,-70.54 144.61,-72.38 145.74,-74.22 146.86,-76.06 148.02,-78.07 149.18,-80.07 150.34,-82.11 151.50,-84.14 152.63,-86.25 153.76,-88.35 155.10,-90.74 156.43,-93.13 157.73,-95.62 159.02,-98.10 160.27,-100.62 161.52,-103.13 162.75,-105.68 163.98,-108.24 165.24,-110.80 166.50,-113.37 167.79,-115.98 169.07,-118.58 170.39,-121.20 171.70,-123.82 172.99,-126.49 174.27,-129.15 175.78,-131.95 177.29,-134.76 178.85,-137.54 180.41,-140.32 182.16,-143.03 183.92,-145.75 185.64,-148.27 187.36,-150.79 189.15,-153.30 190.95,-155.81 192.91,-158.34 194.87,-160.87 196.98,-163.44 199.08,-166.00 201.52,-168.87 203.95,-171.75 206.44,-174.37 208.92,-177.00 211.41,-179.40 213.90,-181.79 216.59,-184.06 219.27,-186.32 221.99,-188.42 224.72,-190.52 227.41,-192.62 230.10,-194.73 232.96,-196.86 235.81,-199.00 240.58,-202.10 245.34,-205.19 249.19,-207.49 253.03,-209.78 256.53,-211.69 260.03,-213.60 263.24,-215.19 266.46,-216.78 269.27,-218.02 272.08,-219.26 275.27,-220.54 278.46,-221.81 281.51,-222.83 284.55,-223.84 287.46,-224.74 290.37,-225.63 293.43,-226.26 296.48,-226.88 299.36,-227.36 302.24,-227.85 305.03,-228.23 307.82,-228.61 310.58,-228.68 313.34,-228.75 315.63,-228.90 317.91,-229.04 318.12,-229.04 318.34,-229.03 318.54,-228.96 318.74,-228.89 318.90,-228.76 319.07,-228.63 319.18,-228.45 319.30,-228.27 319.35,-228.06 319.41,-227.86 319.39,-227.65 319.37,-227.43 319.29,-227.24 319.21,-227.04 319.07,-226.88 318.93,-226.72 318.74,-226.62 318.56,-226.51 318.35,-226.47 318.14,-226.43 317.93,-226.46 317.72,-226.48 317.53,-226.58 317.34,-226.67 317.19,-226.82 317.04,-226.97 316.94,-227.16 316.84,-227.35 316.81,-227.56 316.78,-227.77 316.82,-227.98 316.86,-228.19 316.96,-228.37 317.07,-228.56 317.23,-228.70 317.38,-228.84 317.58,-228.93 317.77,-229.01 317.98,-229.03 318.19,-229.05 318.40,-229.00 318.61,-228.95 318.79,-228.84 318.97,-228.73 319.10,-228.56 319.24,-228.40 319.31,-228.20 319.39,-228.00 319.39,-227.79 319.40,-227.57 319.34,-227.37 319.28,-227.17 319.15,-226.99 319.03,-226.82 318.86,-226.69 318.69,-226.57 318.49,-226.51 318.28,-226.44 318.28,-226.44 318.28,-226.44 316.02,-225.94 313.76,-225.43 311.10,-224.83 308.44,-224.23 305.71,-223.83 302.97,-223.43 300.17,-222.97 297.36,-222.50 294.51,-221.93 291.66,-221.37 288.80,-220.51 285.93,-219.65 283.01,-218.69 280.10,-217.74 276.97,-216.49 273.85,-215.23 271.13,-214.04 268.40,-212.85 265.26,-211.30 262.12,-209.76 258.69,-207.89 255.27,-206.03 251.49,-203.78 247.72,-201.53 243.08,-198.52 238.43,-195.50 235.61,-193.39 232.79,-191.28 230.09,-189.17 227.39,-187.05 224.74,-185.01 222.09,-182.98 219.51,-180.81 216.92,-178.65 214.50,-176.33 212.08,-174.00 209.67,-171.47 207.26,-168.94 204.85,-166.09 202.44,-163.25 200.37,-160.73 198.31,-158.20 196.40,-155.74 194.49,-153.28 192.72,-150.81 190.95,-148.33 189.26,-145.86 187.57,-143.39 185.89,-140.78 184.20,-138.18 182.66,-135.44 181.11,-132.70 179.64,-129.98 178.17,-127.27 176.87,-124.57 175.57,-121.88 174.25,-119.28 172.94,-116.67 171.65,-114.07 170.37,-111.47 169.11,-108.92 167.85,-106.37 166.61,-103.79 165.38,-101.22 164.11,-98.66 162.84,-96.11 161.51,-93.57 160.18,-91.04 158.87,-88.68 157.56,-86.32 156.40,-84.16 155.24,-82.01 154.07,-79.96 152.91,-77.92 151.72,-75.87 150.53,-73.81 149.35,-71.89 148.17,-69.97 146.96,-68.18 145.74,-66.40 144.66,-64.70 143.58,-63.01 142.57,-61.40 141.56,-59.78 140.60,-58.18 139.64,-56.58 138.63,-54.95 137.62,-53.33 136.56,-51.68 135.49,-50.03 134.34,-48.49 133.18,-46.95 131.96,-45.51 130.73,-44.07 129.45,-42.64 128.18,-41.21 126.80,-39.71 125.42,-38.22 124.00,-36.84 122.57,-35.47 121.16,-34.01 119.75,-32.55 118.19,-31.12 116.64,-29.68 115.03,-28.30 113.42,-26.91 111.75,-25.59 110.07,-24.27 108.33,-22.93 106.59,-21.60 104.92,-20.35 103.24,-19.10 101.59,-17.91 99.93,-16.72 98.16,-15.46 96.39,-14.20 94.65,-13.10 92.91,-12.00 91.16,-11.09 89.41,-10.18 87.67,-9.40 85.93,-8.63 84.14,-7.89 82.35,-7.16 80.55,-6.51 78.75,-5.86 76.87,-5.13 74.99,-4.40 73.09,-3.78 71.20,-3.15 69.21,-2.47 67.22,-1.79 65.36,-1.14 63.51,-0.50 61.58,0.20 59.64,0.91 57.71,1.48 55.78,2.05 53.86,2.50 51.94,2.95 50.04,3.33 48.14,3.70 46.26,4.05 44.38,4.40 42.53,4.75 40.69,5.10 38.93,5.42 37.17,5.73 35.36,5.98 33.54,6.24 31.65,6.35 29.77,6.47 28.07,6.41 26.38,6.36 24.79,6.27 23.20,6.19 21.63,6.10 20.06,6.00 18.61,5.94 17.17,5.88 15.83,5.82 14.49,5.75 13.28,5.66 12.07,5.57 10.87,5.34 9.67,5.11 7.80,4.28 5.94,3.44 4.10,2.76 2.25,2.07 0.96,1.78 -0.33,1.48 -0.50,1.42 -0.67,1.36 -0.83,1.25 -0.98,1.15 -1.10,1.02 -1.23,0.89 -1.32,0.72 -1.40,0.56 -1.45,0.39 -1.50,0.21 -1.50,0.03 -1.51,-0.15 -1.47,-0.32 -1.43,-0.50 -1.35,-0.67 -1.26,-0.83 -1.15,-0.97 -1.03,-1.11 -0.88,-1.22 -0.73,-1.33 -0.56,-1.39 -0.39,-1.46 -0.21,-1.49 -0.03,-1.51 0.14,-1.50 0.33,-1.48 0.33,-1.48 L 0.33,-1.48 Z"/></g><g transform="translate(16.20869500549938 65.04124619803648) rotate(0 191.91384155528863 60.98075826569119)" stroke="none"><path fill="#c92a2a" d="M 0.04,-1.43 Q 0.04,-1.43 1.71,-1.38 3.39,-1.34 4.88,-1.09 6.38,-0.84 7.81,-0.61 9.23,-0.39 10.77,-0.21 12.31,-0.04 14.06,0.12 15.81,0.30 17.72,0.58 19.63,0.85 21.64,1.18 23.65,1.50 25.76,1.94 27.88,2.37 30.05,2.86 32.22,3.36 34.59,4.02 36.95,4.68 39.33,5.51 41.70,6.33 44.05,7.29 46.40,8.24 48.79,9.33 51.19,10.42 53.65,11.55 56.10,12.68 58.63,13.93 61.16,15.18 63.73,16.51 66.29,17.83 68.96,19.42 71.63,21.01 74.39,22.77 77.16,24.52 79.79,26.32 82.41,28.12 85.08,29.92 87.74,31.71 90.48,33.47 93.22,35.23 96.04,36.94 98.87,38.64 101.80,40.43 104.74,42.22 107.79,44.11 110.84,46.00 113.95,47.96 117.06,49.93 120.25,51.96 123.43,53.99 126.69,56.08 129.96,58.17 133.30,60.23 136.63,62.28 140.08,64.24 143.52,66.21 147.15,68.14 150.79,70.08 154.43,72.11 158.07,74.15 161.78,76.30 165.48,78.45 169.23,80.58 172.98,82.71 176.80,84.75 180.62,86.78 184.60,88.61 188.57,90.44 192.54,92.13 196.51,93.83 200.55,95.39 204.59,96.95 208.67,98.47 212.75,100.00 216.85,101.55 220.95,103.11 225.55,104.73 230.15,106.34 234.51,107.59 238.87,108.84 243.17,109.93 247.48,111.02 251.70,111.82 255.92,112.62 260.23,113.37 264.54,114.12 268.69,114.79 272.84,115.46 279.35,116.39 285.86,117.32 290.95,117.87 296.04,118.41 300.51,118.76 304.98,119.11 311.21,119.32 317.44,119.54 322.24,119.56 327.04,119.58 331.32,119.42 335.59,119.25 339.72,118.95 343.86,118.64 347.93,118.28 352.01,117.91 356.11,117.55 360.20,117.19 364.27,117.22 368.34,117.25 372.25,118.04 376.16,118.82 379.37,119.38 382.58,119.93 382.78,119.99 382.98,120.05 383.16,120.18 383.33,120.30 383.45,120.47 383.58,120.65 383.64,120.85 383.70,121.05 383.70,121.26 383.69,121.48 383.62,121.68 383.55,121.88 383.41,122.04 383.28,122.21 383.10,122.32 382.92,122.44 382.72,122.49 382.51,122.54 382.30,122.52 382.09,122.51 381.89,122.42 381.70,122.34 381.54,122.20 381.38,122.06 381.28,121.87 381.17,121.69 381.13,121.48 381.09,121.27 381.12,121.06 381.15,120.85 381.24,120.66 381.34,120.47 381.48,120.32 381.63,120.17 381.83,120.07 382.02,119.98 382.23,119.95 382.44,119.92 382.65,119.96 382.85,120.00 383.04,120.10 383.22,120.21 383.37,120.36 383.51,120.52 383.59,120.72 383.68,120.91 383.69,121.12 383.71,121.34 383.66,121.54 383.61,121.75 383.50,121.93 383.38,122.11 383.22,122.24 383.05,122.37 382.85,122.45 382.65,122.52 382.44,122.53 382.23,122.53 382.23,122.53 382.23,122.53 379.00,122.22 375.77,121.91 372.10,121.75 368.43,121.60 364.54,121.81 360.65,122.03 356.55,122.42 352.45,122.82 348.34,123.19 344.22,123.57 340.00,123.87 335.77,124.18 331.40,124.34 327.02,124.50 322.14,124.47 317.27,124.44 310.93,124.22 304.59,123.99 300.05,123.63 295.52,123.27 290.34,122.71 285.17,122.15 278.61,121.20 272.06,120.26 267.88,119.57 263.71,118.88 259.36,118.10 255.01,117.32 250.66,116.46 246.31,115.61 241.94,114.49 237.56,113.37 233.08,112.07 228.59,110.76 223.94,109.11 219.29,107.45 215.21,105.88 211.12,104.32 207.03,102.76 202.94,101.20 198.83,99.60 194.73,97.99 190.70,96.26 186.67,94.53 182.59,92.63 178.51,90.74 174.64,88.66 170.77,86.59 167.01,84.45 163.25,82.30 159.57,80.17 155.90,78.04 152.30,76.02 148.69,74.00 145.01,72.03 141.32,70.05 137.82,68.04 134.32,66.03 130.95,63.95 127.59,61.87 124.33,59.78 121.07,57.69 117.89,55.66 114.72,53.63 111.63,51.67 108.54,49.71 105.51,47.82 102.48,45.93 99.55,44.14 96.62,42.34 93.76,40.59 90.89,38.85 88.11,37.06 85.34,35.28 82.65,33.46 79.97,31.65 77.41,29.88 74.85,28.10 72.16,26.33 69.48,24.56 66.94,23.00 64.41,21.44 61.88,20.10 59.36,18.76 56.91,17.52 54.45,16.27 51.99,15.15 49.54,14.02 47.21,12.94 44.89,11.86 42.65,10.90 40.40,9.95 38.14,9.11 35.89,8.26 33.63,7.56 31.38,6.86 29.26,6.32 27.14,5.77 25.10,5.30 23.07,4.83 21.09,4.46 19.12,4.09 17.28,3.78 15.44,3.47 13.68,3.24 11.91,3.00 10.33,2.76 8.74,2.53 7.31,2.27 5.88,2.02 4.59,1.78 3.29,1.54 1.62,1.49 -0.04,1.43 -0.21,1.40 -0.38,1.38 -0.54,1.31 -0.70,1.24 -0.84,1.14 -0.98,1.04 -1.09,0.91 -1.20,0.77 -1.28,0.62 -1.35,0.46 -1.39,0.29 -1.42,0.12 -1.42,-0.04 -1.41,-0.21 -1.37,-0.38 -1.32,-0.54 -1.24,-0.70 -1.15,-0.85 -1.03,-0.97 -0.91,-1.10 -0.77,-1.19 -0.62,-1.29 -0.46,-1.34 -0.30,-1.40 -0.12,-1.41 0.04,-1.43 0.04,-1.43 L 0.04,-1.43 Z"/></g><g stroke-linecap="round"><g transform="translate(314.0552304424948 20.745601418365823) rotate(0 0 130.54150485987626)"><path d="M0 0 C0 43.51, 0 217.57, 0 261.08" stroke="#000000" stroke-width="1.5" fill="none" stroke-dasharray="1.5 7"/></g></g><mask/><g stroke-linecap="round"><g transform="translate(84.19799827004177 94.07685683479366) rotate(0 0 89.86792313754137)"><path d="M0 0 C0 29.96, 0 149.78, 0 179.74" stroke="#000000" stroke-width="1.5" fill="none" stroke-dasharray="1.5 7"/></g></g><mask/><g transform="translate(299.790833101007 36.732667287190765) rotate(0 -36.87449137369791 68.08672587076823)" stroke="none"><path fill="#5f3dc4" d="M 0.85,1.23 Q 0.85,1.23 0.30,1.24 -0.23,1.26 0.35,2.66 0.95,4.06 2.22,6.67 3.49,9.29 5.21,12.66 6.93,16.04 8.50,19.34 10.08,22.63 11.22,25.50 12.37,28.37 12.97,30.54 13.58,32.72 13.51,33.71 13.44,34.71 13.47,34.93 13.51,35.16 13.48,35.38 13.46,35.60 13.39,35.81 13.31,36.02 13.19,36.21 13.07,36.40 12.90,36.55 12.74,36.70 12.55,36.81 12.35,36.92 12.13,36.98 11.92,37.04 11.69,37.05 11.47,37.05 11.25,37.00 11.03,36.95 10.83,36.85 10.63,36.76 10.46,36.61 10.29,36.47 10.16,36.29 10.02,36.10 9.94,35.90 9.86,35.69 7.57,33.92 5.28,32.15 2.69,28.97 0.09,25.79 -2.94,22.10 -5.99,18.41 -8.78,15.47 -11.57,12.53 -13.62,10.90 -15.68,9.26 -16.78,8.56 -17.88,7.85 -17.03,8.95 -16.18,10.05 -15.10,13.82 -14.01,17.59 -12.31,22.98 -10.60,28.37 -8.71,34.66 -6.82,40.95 -5.01,47.11 -3.20,53.26 -1.55,58.25 0.09,63.23 1.40,66.24 2.70,69.25 3.38,70.64 4.05,72.03 4.13,72.27 4.20,72.50 4.21,72.75 4.22,73.00 4.17,73.24 4.12,73.48 4.02,73.71 3.92,73.93 3.76,74.12 3.61,74.32 3.41,74.47 3.21,74.62 2.98,74.72 2.76,74.82 2.51,74.86 2.27,74.90 2.02,74.88 1.78,74.86 1.54,74.79 1.31,74.71 1.10,74.58 0.88,74.45 0.71,74.27 0.54,74.09 0.41,73.88 0.29,73.67 -1.38,70.67 -3.06,67.67 -5.60,63.00 -8.14,58.32 -11.33,52.91 -14.52,47.50 -17.63,42.73 -20.73,37.96 -23.29,34.70 -25.84,31.43 -27.57,29.61 -29.30,27.79 -30.19,27.01 -31.07,26.23 -31.22,26.02 -31.37,25.81 -31.46,25.58 -31.56,25.34 -31.59,25.08 -31.63,24.83 -31.60,24.57 -31.57,24.32 -31.49,24.08 -31.40,23.84 -31.26,23.62 -31.12,23.41 -30.93,23.24 -30.74,23.06 -30.51,22.94 -30.29,22.82 -30.04,22.75 -29.79,22.68 -29.53,22.68 -29.28,22.68 -29.03,22.73 -28.78,22.79 -28.55,22.91 -28.32,23.02 -28.12,23.19 -27.93,23.36 -27.53,24.62 -27.14,25.89 -24.05,32.02 -20.97,38.14 -17.69,44.89 -14.41,51.64 -11.10,58.30 -7.79,64.97 -4.65,70.71 -1.52,76.45 1.27,81.23 4.07,86.02 6.67,90.80 9.27,95.57 10.15,97.23 11.03,98.89 11.12,99.12 11.21,99.35 11.25,99.60 11.28,99.85 11.26,100.09 11.23,100.34 11.15,100.58 11.06,100.81 10.92,101.02 10.79,101.23 10.60,101.40 10.42,101.56 10.20,101.68 9.98,101.80 9.74,101.87 9.50,101.93 9.25,101.94 9.00,101.94 8.76,101.89 8.51,101.83 8.29,101.72 8.07,101.61 7.88,101.44 7.69,101.28 7.54,101.08 7.40,100.88 6.43,99.39 5.47,97.90 2.35,93.16 -0.75,88.42 -5.66,81.46 -10.56,74.49 -15.70,67.66 -20.83,60.83 -25.25,55.51 -29.66,50.19 -33.19,46.14 -36.72,42.10 -39.26,39.09 -41.80,36.08 -43.25,34.36 -44.70,32.63 -45.38,32.27 -46.07,31.91 -46.23,31.66 -46.39,31.42 -46.48,31.14 -46.58,30.86 -46.61,30.57 -46.64,30.27 -46.59,29.98 -46.55,29.69 -46.44,29.42 -46.33,29.14 -46.15,28.91 -45.98,28.67 -45.75,28.48 -45.53,28.29 -45.26,28.16 -45.00,28.03 -44.71,27.97 -44.42,27.90 -44.13,27.91 -43.83,27.92 -43.55,28.00 -43.27,28.07 -43.01,28.22 -42.75,28.36 -42.54,28.56 -42.32,28.76 -41.60,31.50 -40.89,34.23 -39.47,38.87 -38.05,43.51 -35.75,50.05 -33.45,56.58 -30.72,63.20 -28.00,69.82 -25.28,75.53 -22.57,81.25 -19.95,86.38 -17.34,91.51 -15.31,96.08 -13.29,100.65 -12.02,104.02 -10.75,107.40 -10.49,108.90 -10.23,110.40 -10.16,110.67 -10.09,110.94 -10.09,111.22 -10.09,111.50 -10.16,111.77 -10.22,112.04 -10.35,112.29 -10.48,112.53 -10.66,112.74 -10.85,112.95 -11.08,113.11 -11.31,113.27 -11.57,113.37 -11.83,113.47 -12.11,113.50 -12.38,113.54 -12.66,113.51 -12.94,113.47 -13.20,113.37 -13.46,113.28 -13.69,113.12 -13.92,112.96 -14.11,112.75 -14.29,112.54 -14.42,112.30 -14.55,112.05 -15.30,111.18 -16.05,110.30 -18.60,106.23 -21.15,102.16 -25.05,95.85 -28.94,89.53 -33.42,82.17 -37.90,74.81 -42.01,68.45 -46.12,62.08 -49.31,57.51 -52.49,52.93 -54.54,50.44 -56.58,47.95 -57.68,47.19 -58.78,46.43 -58.93,46.19 -59.08,45.95 -59.17,45.68 -59.26,45.41 -59.28,45.13 -59.30,44.85 -59.25,44.57 -59.20,44.29 -59.09,44.03 -58.98,43.77 -58.81,43.54 -58.63,43.32 -58.41,43.14 -58.19,42.96 -57.94,42.85 -57.68,42.73 -57.40,42.67 -57.12,42.62 -56.84,42.63 -56.56,42.64 -56.28,42.72 -56.01,42.81 -55.77,42.95 -55.52,43.09 -55.32,43.29 -55.12,43.49 -54.76,45.96 -54.40,48.43 -53.23,52.70 -52.05,56.96 -49.89,63.49 -47.73,70.01 -44.81,77.68 -41.89,85.35 -38.69,92.59 -35.48,99.83 -32.45,105.72 -29.42,111.62 -25.60,117.93 -21.79,124.25 -20.69,125.62 -19.59,126.99 -19.48,127.23 -19.37,127.47 -19.32,127.72 -19.27,127.98 -19.28,128.24 -19.30,128.50 -19.37,128.75 -19.45,129.00 -19.58,129.23 -19.71,129.45 -19.90,129.64 -20.08,129.83 -20.30,129.96 -20.53,130.10 -20.78,130.18 -21.02,130.26 -21.29,130.28 -21.55,130.30 -21.80,130.25 -22.06,130.21 -22.30,130.10 -22.54,129.99 -22.75,129.83 -22.96,129.68 -23.12,129.47 -23.28,129.27 -27.08,122.19 -30.88,115.12 -35.34,107.84 -39.80,100.57 -43.86,94.59 -47.91,88.62 -51.25,84.37 -54.58,80.12 -57.38,76.85 -60.17,73.59 -62.30,71.11 -64.42,68.62 -65.52,67.50 -66.63,66.37 -66.78,66.13 -66.94,65.90 -67.03,65.63 -67.13,65.36 -67.16,65.08 -67.19,64.80 -67.15,64.52 -67.10,64.24 -67.00,63.97 -66.89,63.71 -66.73,63.48 -66.56,63.25 -66.34,63.07 -66.13,62.88 -65.87,62.76 -65.62,62.63 -65.34,62.57 -65.07,62.51 -64.78,62.51 -64.50,62.52 -64.23,62.59 -63.95,62.67 -63.70,62.81 -63.46,62.94 -63.25,63.14 -63.04,63.33 -62.87,65.22 -62.69,67.11 -61.65,70.48 -60.61,73.85 -58.60,79.82 -56.60,85.80 -54.20,92.52 -51.81,99.24 -49.46,105.11 -47.12,110.99 -45.08,115.86 -43.05,120.73 -41.58,124.48 -40.11,128.22 -39.45,130.34 -38.78,132.46 -38.71,132.75 -38.64,133.04 -38.63,133.33 -38.63,133.63 -38.70,133.92 -38.77,134.21 -38.90,134.47 -39.04,134.74 -39.23,134.96 -39.43,135.19 -39.67,135.36 -39.91,135.53 -40.19,135.64 -40.46,135.75 -40.76,135.79 -41.05,135.83 -41.35,135.79 -41.64,135.76 -41.92,135.66 -42.20,135.56 -42.45,135.39 -42.69,135.22 -42.89,135.00 -43.09,134.78 -43.23,134.52 -43.37,134.26 -45.15,131.26 -46.92,128.26 -49.77,122.76 -52.61,117.26 -56.07,110.58 -59.52,103.90 -62.32,98.51 -65.11,93.12 -67.20,89.92 -69.29,86.73 -70.29,85.47 -71.29,84.22 -70.44,83.37 -69.59,82.51 -69.46,84.70 -69.33,86.89 -68.68,91.48 -68.04,96.07 -67.17,101.91 -66.29,107.74 -65.76,112.87 -65.22,117.99 -65.66,121.78 -66.10,125.58 -68.17,125.64 -70.25,125.69 -71.90,122.88 -73.54,120.06 -75.71,115.05 -77.87,110.04 -80.02,104.94 -82.17,99.84 -83.62,96.62 -85.07,93.40 -86.07,91.83 -87.06,90.26 -87.15,89.98 -87.24,89.71 -87.25,89.42 -87.27,89.13 -87.22,88.85 -87.17,88.56 -87.05,88.30 -86.93,88.03 -86.75,87.81 -86.57,87.58 -86.35,87.40 -86.12,87.22 -85.86,87.10 -85.59,86.98 -85.31,86.93 -85.02,86.88 -84.74,86.90 -84.45,86.91 -84.17,87.00 -83.90,87.09 -83.65,87.23 -83.40,87.38 -83.20,87.59 -82.99,87.79 -82.84,88.04 -82.69,88.29 -83.17,90.11 -83.66,91.94 -83.67,93.35 -83.68,94.76 -83.75,96.67 -83.82,98.59 -84.15,100.04 -84.48,101.49 -84.48,101.70 -84.48,101.91 -84.56,102.11 -84.63,102.31 -84.76,102.48 -84.89,102.65 -85.07,102.76 -85.25,102.88 -85.45,102.93 -85.66,102.98 -85.87,102.97 -86.08,102.95 -86.28,102.87 -86.47,102.79 -86.63,102.65 -86.79,102.51 -86.90,102.33 -87.01,102.14 -87.05,101.93 -87.09,101.72 -87.06,101.51 -87.04,101.30 -86.94,101.11 -86.85,100.92 -86.70,100.77 -86.55,100.62 -86.36,100.52 -86.17,100.42 -85.96,100.39 -85.75,100.36 -85.54,100.40 -85.34,100.44 -85.15,100.54 -84.96,100.65 -84.82,100.80 -84.68,100.96 -84.59,101.15 -84.51,101.35 -84.49,101.56 -84.47,101.77 -84.52,101.98 -84.57,102.18 -84.68,102.36 -84.79,102.54 -84.96,102.68 -85.12,102.81 -85.32,102.89 -85.52,102.96 -85.73,102.97 -85.94,102.98 -86.15,102.92 -86.35,102.86 -86.52,102.74 -86.70,102.61 -86.82,102.44 -86.95,102.27 -87.01,102.07 -87.08,101.87 -87.08,101.87 -87.08,101.87 -87.87,100.15 -88.66,98.43 -88.59,96.39 -88.53,94.35 -87.79,92.30 -87.06,90.26 -87.15,89.98 -87.24,89.71 -87.25,89.42 -87.27,89.13 -87.22,88.85 -87.17,88.56 -87.05,88.30 -86.93,88.03 -86.75,87.81 -86.57,87.58 -86.35,87.40 -86.12,87.22 -85.86,87.10 -85.59,86.98 -85.31,86.93 -85.02,86.88 -84.74,86.90 -84.45,86.91 -84.17,87.00 -83.90,87.09 -83.65,87.23 -83.40,87.38 -83.20,87.59 -82.99,87.79 -82.84,88.04 -82.69,88.29 -81.71,89.86 -80.73,91.43 -79.24,94.71 -77.76,97.99 -75.64,103.07 -73.52,108.15 -71.42,112.99 -69.33,117.82 -69.03,120.11 -68.74,122.39 -69.40,120.44 -70.07,118.49 -70.58,113.47 -71.10,108.46 -71.96,102.59 -72.83,96.73 -73.48,91.88 -74.13,87.04 -74.13,84.74 -74.13,82.45 -71.71,81.49 -69.28,80.53 -67.40,82.39 -65.53,84.26 -63.33,87.66 -61.13,91.05 -58.33,96.44 -55.53,101.83 -52.06,108.50 -48.59,115.17 -45.73,120.65 -42.86,126.14 -40.82,129.30 -38.78,132.46 -38.71,132.75 -38.64,133.04 -38.63,133.33 -38.63,133.63 -38.70,133.92 -38.77,134.21 -38.90,134.47 -39.04,134.74 -39.23,134.96 -39.42,135.19 -39.67,135.36 -39.91,135.53 -40.19,135.64 -40.46,135.75 -40.76,135.79 -41.05,135.83 -41.35,135.79 -41.64,135.76 -41.92,135.66 -42.20,135.56 -42.45,135.39 -42.69,135.22 -42.89,135.00 -43.09,134.78 -43.23,134.52 -43.37,134.26 -44.01,132.13 -44.65,130.00 -46.10,126.30 -47.54,122.61 -49.59,117.70 -51.64,112.79 -54.02,106.84 -56.40,100.88 -58.81,94.11 -61.22,87.34 -63.25,81.25 -65.28,75.16 -65.96,70.76 -66.63,66.37 -66.78,66.13 -66.94,65.90 -67.03,65.63 -67.13,65.36 -67.16,65.08 -67.19,64.80 -67.15,64.52 -67.10,64.24 -67.00,63.97 -66.89,63.71 -66.73,63.48 -66.56,63.25 -66.34,63.07 -66.13,62.88 -65.87,62.76 -65.62,62.63 -65.34,62.57 -65.07,62.51 -64.78,62.51 -64.50,62.52 -64.23,62.59 -63.95,62.67 -63.70,62.81 -63.46,62.94 -63.25,63.13 -63.04,63.33 -62.00,64.51 -60.96,65.69 -58.86,68.18 -56.77,70.68 -53.91,74.02 -51.06,77.36 -47.64,81.75 -44.22,86.14 -40.17,92.24 -36.13,98.34 -31.67,105.73 -27.21,113.12 -23.40,120.05 -19.59,126.99 -19.48,127.23 -19.37,127.47 -19.32,127.72 -19.27,127.98 -19.28,128.24 -19.30,128.50 -19.37,128.75 -19.45,129.00 -19.58,129.23 -19.71,129.45 -19.90,129.64 -20.08,129.82 -20.30,129.96 -20.53,130.10 -20.78,130.18 -21.02,130.26 -21.29,130.28 -21.55,130.30 -21.80,130.25 -22.06,130.21 -22.30,130.10 -22.54,129.99 -22.75,129.83 -22.95,129.68 -23.12,129.47 -23.28,129.27 -24.46,127.94 -25.63,126.62 -29.65,120.21 -33.68,113.81 -36.77,107.79 -39.86,101.76 -43.11,94.41 -46.36,87.05 -49.32,79.29 -52.28,71.52 -54.49,64.86 -56.70,58.20 -57.93,53.44 -59.16,48.68 -58.97,47.56 -58.78,46.43 -58.93,46.19 -59.08,45.95 -59.17,45.68 -59.26,45.41 -59.28,45.13 -59.30,44.85 -59.25,44.57 -59.20,44.29 -59.09,44.03 -58.98,43.77 -58.81,43.54 -58.63,43.32 -58.41,43.14 -58.19,42.96 -57.94,42.85 -57.68,42.73 -57.40,42.67 -57.12,42.62 -56.84,42.63 -56.56,42.64 -56.28,42.72 -56.01,42.81 -55.77,42.95 -55.53,43.09 -55.32,43.29 -55.12,43.49 -54.07,44.26 -53.02,45.03 -50.92,47.70 -48.81,50.38 -45.60,55.04 -42.40,59.69 -38.29,66.12 -34.19,72.55 -29.71,79.89 -25.23,87.24 -21.34,93.53 -17.44,99.82 -15.02,103.64 -12.60,107.46 -11.41,108.93 -10.23,110.40 -10.16,110.67 -10.09,110.94 -10.09,111.22 -10.09,111.50 -10.16,111.77 -10.22,112.04 -10.35,112.29 -10.48,112.53 -10.66,112.74 -10.85,112.95 -11.08,113.11 -11.31,113.27 -11.57,113.37 -11.83,113.47 -12.11,113.50 -12.38,113.54 -12.66,113.51 -12.94,113.47 -13.20,113.37 -13.46,113.28 -13.69,113.12 -13.92,112.96 -14.11,112.75 -14.29,112.54 -14.42,112.30 -14.55,112.05 -14.91,110.58 -15.28,109.12 -16.54,105.88 -17.79,102.64 -19.76,98.20 -21.73,93.75 -24.37,88.55 -27.01,83.35 -29.77,77.52 -32.53,71.69 -35.32,64.96 -38.11,58.23 -40.45,51.59 -42.80,44.95 -44.27,40.08 -45.74,35.20 -45.90,33.56 -46.07,31.91 -46.23,31.66 -46.39,31.42 -46.48,31.14 -46.58,30.86 -46.61,30.57 -46.64,30.27 -46.59,29.98 -46.55,29.69 -46.44,29.42 -46.33,29.14 -46.15,28.91 -45.98,28.67 -45.76,28.48 -45.53,28.29 -45.26,28.16 -45.00,28.03 -44.71,27.97 -44.42,27.90 -44.13,27.91 -43.84,27.92 -43.55,28.00 -43.27,28.07 -43.01,28.22 -42.75,28.36 -42.54,28.56 -42.32,28.76 -41.69,29.06 -41.06,29.36 -39.56,31.14 -38.06,32.92 -35.55,35.91 -33.03,38.90 -29.48,43.02 -25.92,47.15 -21.54,52.65 -17.16,58.16 -12.20,65.16 -7.23,72.16 -2.34,79.20 2.54,86.24 5.67,90.95 8.80,95.67 9.91,97.28 11.03,98.89 11.12,99.12 11.21,99.35 11.25,99.60 11.28,99.84 11.26,100.09 11.23,100.34 11.15,100.58 11.06,100.81 10.92,101.02 10.79,101.23 10.60,101.40 10.42,101.56 10.20,101.68 9.98,101.80 9.74,101.87 9.50,101.93 9.25,101.94 9.00,101.94 8.76,101.89 8.51,101.83 8.29,101.72 8.07,101.61 7.88,101.45 7.69,101.28 7.54,101.08 7.40,100.88 6.48,99.24 5.56,97.60 2.97,92.89 0.37,88.18 -2.44,83.34 -5.26,78.50 -8.45,72.69 -11.63,66.88 -14.94,60.19 -18.25,53.50 -21.52,46.77 -24.79,40.04 -27.93,33.13 -31.07,26.23 -31.22,26.02 -31.37,25.81 -31.46,25.58 -31.56,25.34 -31.59,25.08 -31.63,24.83 -31.60,24.57 -31.57,24.32 -31.49,24.08 -31.40,23.84 -31.26,23.62 -31.12,23.41 -30.93,23.24 -30.74,23.06 -30.51,22.94 -30.29,22.82 -30.04,22.75 -29.79,22.69 -29.53,22.68 -29.28,22.68 -29.03,22.73 -28.78,22.79 -28.55,22.91 -28.32,23.02 -28.12,23.19 -27.93,23.36 -27.06,24.15 -26.20,24.94 -24.41,26.96 -22.62,28.97 -20.05,32.42 -17.48,35.87 -14.39,40.73 -11.30,45.60 -8.08,51.07 -4.87,56.54 -2.33,61.17 0.21,65.81 2.13,68.92 4.05,72.03 4.13,72.27 4.20,72.50 4.21,72.75 4.22,73.00 4.17,73.24 4.12,73.48 4.02,73.71 3.92,73.93 3.76,74.12 3.61,74.32 3.41,74.47 3.21,74.62 2.98,74.72 2.76,74.82 2.51,74.86 2.27,74.90 2.02,74.88 1.78,74.86 1.54,74.79 1.31,74.71 1.10,74.58 0.89,74.45 0.71,74.27 0.54,74.09 0.41,73.88 0.29,73.67 -0.36,72.27 -1.01,70.87 -2.40,67.70 -3.79,64.52 -5.46,59.47 -7.14,54.42 -8.95,48.28 -10.76,42.14 -12.65,35.88 -14.54,29.62 -16.27,24.17 -17.99,18.73 -19.12,14.72 -20.25,10.71 -20.46,8.59 -20.66,6.48 -18.78,5.34 -16.90,4.20 -15.04,5.20 -13.18,6.19 -10.97,8.04 -8.75,9.89 -5.93,12.97 -3.11,16.04 -0.07,19.74 2.95,23.44 5.50,26.55 8.04,29.65 9.40,31.29 10.77,32.93 12.10,33.82 13.44,34.71 13.47,34.93 13.51,35.16 13.48,35.38 13.46,35.60 13.39,35.81 13.31,36.02 13.19,36.21 13.07,36.40 12.91,36.55 12.74,36.70 12.55,36.81 12.35,36.92 12.13,36.98 11.92,37.04 11.69,37.05 11.47,37.05 11.25,37.00 11.03,36.95 10.83,36.85 10.63,36.76 10.46,36.61 10.29,36.47 10.16,36.29 10.02,36.10 9.94,35.90 9.86,35.69 10.01,34.62 10.17,33.55 9.66,31.61 9.14,29.67 8.03,26.91 6.91,24.15 5.34,20.89 3.78,17.62 2.08,14.20 0.39,10.77 -0.95,7.89 -2.30,5.01 -2.69,3.02 -3.07,1.02 -1.96,-0.10 -0.85,-1.23 -0.69,-1.31 -0.53,-1.39 -0.35,-1.44 -0.18,-1.48 -0.00,-1.48 0.17,-1.48 0.35,-1.44 0.52,-1.40 0.68,-1.31 0.84,-1.23 0.98,-1.11 1.11,-0.99 1.22,-0.84 1.32,-0.69 1.38,-0.52 1.45,-0.36 1.47,-0.18 1.49,-0.00 1.47,0.17 1.45,0.35 1.39,0.52 1.32,0.69 1.22,0.84 1.12,0.99 0.98,1.11 0.85,1.23 0.85,1.23 L 0.85,1.23 Z"/></g><g transform="translate(161.0607203894185 143.66264979044598) rotate(0 -30.187708536783838 22.11296081542966)" stroke="none"><path fill="#5f3dc4" d="M -1.41,0.55 Q -1.41,0.55 -1.87,-0.49 -2.32,-1.55 -2.25,-2.73 -2.18,-3.91 -0.69,-4.41 0.78,-4.90 2.40,-2.49 4.02,-0.07 4.93,2.34 5.84,4.75 6.61,7.23 7.39,9.71 7.90,11.89 8.41,14.07 8.64,15.60 8.87,17.13 8.65,17.74 8.43,18.35 8.43,18.55 8.44,18.76 8.39,18.96 8.35,19.16 8.26,19.35 8.17,19.53 8.04,19.69 7.91,19.85 7.74,19.97 7.57,20.09 7.38,20.17 7.19,20.25 6.99,20.28 6.79,20.31 6.58,20.29 6.38,20.27 6.18,20.20 5.99,20.13 5.82,20.02 5.64,19.91 5.50,19.76 5.36,19.61 5.26,19.43 5.16,19.25 5.11,19.05 5.05,18.85 2.86,17.92 0.66,16.99 -1.55,14.92 -3.77,12.85 -6.20,9.85 -8.64,6.85 -10.89,3.48 -13.14,0.10 -15.13,-2.96 -17.12,-6.03 -18.75,-8.15 -20.38,-10.27 -21.77,-11.39 -23.17,-12.51 -24.25,-12.98 -25.32,-13.45 -25.13,-10.66 -24.95,-7.87 -24.00,-3.94 -23.05,-0.02 -21.79,4.48 -20.53,8.99 -19.18,13.25 -17.84,17.52 -16.50,21.11 -15.16,24.70 -14.04,27.78 -12.92,30.85 -12.30,32.73 -11.69,34.60 -11.70,34.93 -11.71,35.26 -11.66,35.51 -11.61,35.75 -11.63,36.01 -11.64,36.26 -11.71,36.50 -11.78,36.74 -11.91,36.96 -12.04,37.17 -12.22,37.36 -12.39,37.54 -12.61,37.67 -12.82,37.80 -13.06,37.88 -13.30,37.96 -13.55,37.98 -13.80,37.99 -14.05,37.95 -14.30,37.91 -14.53,37.81 -14.76,37.71 -14.96,37.55 -15.16,37.40 -15.32,37.20 -15.48,37.01 -15.59,36.78 -15.69,36.55 -16.38,34.99 -17.08,33.42 -18.41,29.75 -19.75,26.07 -21.75,21.19 -23.74,16.31 -26.33,10.84 -28.92,5.38 -31.70,-0.04 -34.48,-5.46 -36.74,-9.82 -39.01,-14.17 -40.80,-17.27 -42.59,-20.38 -44.00,-22.78 -45.42,-25.17 -46.48,-26.81 -47.54,-28.45 -48.28,-29.44 -49.01,-30.43 -49.57,-30.90 -50.12,-31.37 -50.25,-31.59 -50.38,-31.82 -50.45,-32.06 -50.52,-32.31 -50.53,-32.56 -50.54,-32.82 -50.48,-33.07 -50.43,-33.32 -50.32,-33.55 -50.21,-33.78 -50.05,-33.98 -49.88,-34.18 -49.68,-34.33 -49.47,-34.48 -49.24,-34.58 -49.00,-34.68 -48.75,-34.72 -48.50,-34.76 -48.24,-34.74 -47.99,-34.72 -47.74,-34.64 -47.50,-34.55 -47.29,-34.42 -47.07,-34.28 -46.89,-34.09 -46.72,-33.91 -46.62,-32.46 -46.52,-31.02 -45.88,-29.25 -45.23,-27.48 -44.07,-24.15 -42.92,-20.81 -41.28,-16.97 -39.64,-13.14 -37.57,-8.84 -35.49,-4.54 -33.11,0.25 -30.73,5.06 -28.26,10.48 -25.79,15.91 -23.57,20.87 -21.35,25.83 -19.43,29.56 -17.51,33.29 -16.07,35.31 -14.63,37.34 -13.79,38.19 -12.94,39.04 -12.82,39.26 -12.69,39.48 -12.63,39.73 -12.56,39.98 -12.56,40.23 -12.55,40.48 -12.61,40.73 -12.66,40.98 -12.78,41.20 -12.89,41.43 -13.06,41.62 -13.22,41.82 -13.43,41.97 -13.63,42.11 -13.87,42.21 -14.10,42.30 -14.35,42.34 -14.61,42.37 -14.86,42.35 -15.11,42.32 -15.35,42.24 -15.59,42.15 -15.80,42.01 -16.01,41.87 -16.18,41.68 -16.36,41.50 -16.54,40.04 -16.73,38.59 -17.65,36.03 -18.58,33.47 -20.38,28.78 -22.18,24.10 -24.41,18.23 -26.64,12.36 -28.87,6.41 -31.10,0.46 -33.22,-4.63 -35.35,-9.73 -37.35,-13.78 -39.36,-17.83 -41.18,-21.11 -43.01,-24.39 -44.72,-27.08 -46.43,-29.77 -48.28,-31.66 -50.13,-33.56 -51.72,-34.55 -53.30,-35.54 -54.55,-35.49 -55.80,-35.43 -55.86,-32.23 -55.93,-29.03 -55.15,-25.16 -54.37,-21.28 -53.03,-16.12 -51.68,-10.96 -49.79,-4.86 -47.91,1.22 -45.78,7.96 -43.65,14.70 -41.35,21.68 -39.04,28.67 -36.80,35.34 -34.56,42.01 -32.71,47.53 -30.87,53.05 -29.55,56.72 -28.23,60.40 -27.67,62.15 -27.11,63.90 -27.05,64.17 -26.99,64.43 -27.00,64.71 -27.00,64.98 -27.07,65.24 -27.14,65.50 -27.27,65.74 -27.40,65.98 -27.59,66.18 -27.77,66.38 -28.00,66.53 -28.23,66.69 -28.48,66.78 -28.74,66.87 -29.01,66.90 -29.28,66.93 -29.55,66.89 -29.82,66.85 -30.07,66.75 -30.33,66.65 -30.55,66.49 -30.77,66.33 -30.95,66.12 -31.12,65.91 -31.25,65.67 -31.37,65.43 -32.83,62.95 -34.30,60.47 -36.63,55.86 -38.96,51.25 -41.90,44.88 -44.85,38.51 -48.02,31.47 -51.20,24.44 -54.03,17.51 -56.86,10.57 -59.16,4.02 -61.46,-2.53 -63.17,-8.61 -64.88,-14.70 -65.92,-19.69 -66.97,-24.68 -67.59,-28.14 -68.20,-31.60 -68.22,-31.87 -68.25,-32.13 -68.21,-32.39 -68.17,-32.65 -68.06,-32.89 -67.96,-33.14 -67.80,-33.35 -67.65,-33.56 -67.45,-33.73 -67.24,-33.89 -67.01,-34.01 -66.77,-34.12 -66.51,-34.18 -66.25,-34.23 -65.99,-34.22 -65.73,-34.21 -65.47,-34.14 -65.22,-34.07 -64.99,-33.94 -64.76,-33.81 -64.57,-33.63 -64.38,-33.45 -64.24,-33.22 -64.10,-33.00 -64.01,-32.75 -63.93,-32.50 -63.99,-30.95 -64.05,-29.40 -63.54,-25.88 -63.04,-22.36 -62.06,-17.38 -61.09,-12.41 -59.77,-6.90 -58.46,-1.39 -56.86,4.38 -55.27,10.17 -53.21,16.43 -51.14,22.70 -49.03,29.25 -46.92,35.80 -45.03,42.19 -43.14,48.59 -41.69,53.95 -40.23,59.32 -39.15,63.08 -38.06,66.85 -37.50,68.93 -36.95,71.02 -36.98,71.80 -37.01,72.58 -36.97,72.86 -36.94,73.14 -36.97,73.42 -37.00,73.70 -37.09,73.96 -37.19,74.23 -37.35,74.46 -37.50,74.69 -37.71,74.88 -37.92,75.07 -38.17,75.20 -38.42,75.34 -38.69,75.41 -38.96,75.48 -39.24,75.48 -39.52,75.49 -39.80,75.42 -40.07,75.36 -40.32,75.23 -40.57,75.10 -40.79,74.92 -41.00,74.73 -41.16,74.50 -41.32,74.27 -41.43,74.01 -41.53,73.75 -43.86,70.35 -46.18,66.95 -48.53,62.20 -50.88,57.46 -53.29,51.87 -55.71,46.29 -57.88,41.05 -60.05,35.81 -61.90,31.96 -63.74,28.10 -65.14,25.63 -66.54,23.17 -65.88,21.60 -65.23,20.03 -64.87,22.03 -64.52,24.03 -63.60,28.52 -62.67,33.01 -61.41,39.16 -60.16,45.32 -58.88,51.82 -57.61,58.32 -56.65,63.83 -55.70,69.34 -55.14,73.08 -54.58,76.81 -54.37,78.56 -54.15,80.30 -54.15,80.58 -54.14,80.86 -54.20,81.14 -54.26,81.41 -54.38,81.66 -54.51,81.91 -54.69,82.13 -54.87,82.34 -55.09,82.51 -55.32,82.67 -55.58,82.78 -55.84,82.88 -56.11,82.92 -56.39,82.97 -56.67,82.94 -56.95,82.91 -57.21,82.82 -57.48,82.73 -57.71,82.58 -57.94,82.42 -58.14,82.22 -58.33,82.01 -58.46,81.77 -58.60,81.52 -58.67,81.25 -58.75,80.98 -59.64,77.87 -60.54,74.76 -61.18,70.89 -61.83,67.01 -62.22,63.54 -62.62,60.07 -62.75,57.78 -62.89,55.48 -62.83,54.48 -62.77,53.49 -62.75,53.22 -62.73,52.95 -62.65,52.69 -62.57,52.44 -62.44,52.20 -62.30,51.97 -62.11,51.78 -61.92,51.59 -61.68,51.45 -61.45,51.31 -61.20,51.23 -60.94,51.15 -60.67,51.14 -60.40,51.12 -60.14,51.17 -59.87,51.22 -59.63,51.33 -59.38,51.44 -59.17,51.61 -58.96,51.77 -58.79,51.98 -58.63,52.20 -58.52,52.44 -58.41,52.69 -58.36,52.95 -58.31,53.22 -58.06,55.18 -57.82,57.13 -57.89,60.14 -57.96,63.15 -58.48,67.88 -58.99,72.60 -59.03,72.81 -59.07,73.02 -59.18,73.20 -59.28,73.39 -59.44,73.53 -59.60,73.67 -59.80,73.75 -59.99,73.83 -60.21,73.85 -60.42,73.87 -60.62,73.81 -60.83,73.76 -61.01,73.65 -61.19,73.53 -61.32,73.36 -61.45,73.20 -61.52,73.00 -61.59,72.80 -61.60,72.59 -61.60,72.37 -61.54,72.17 -61.48,71.97 -61.35,71.80 -61.23,71.62 -61.05,71.50 -60.88,71.38 -60.68,71.32 -60.47,71.26 -60.26,71.26 -60.05,71.27 -59.85,71.34 -59.65,71.42 -59.49,71.55 -59.32,71.69 -59.21,71.87 -59.09,72.05 -59.04,72.25 -58.99,72.46 -59.01,72.67 -59.03,72.88 -59.12,73.08 -59.20,73.27 -59.34,73.43 -59.49,73.59 -59.67,73.69 -59.86,73.79 -60.07,73.83 -60.28,73.87 -60.49,73.84 -60.70,73.81 -60.89,73.72 -61.08,73.62 -61.23,73.47 -61.37,73.32 -61.47,73.13 -61.56,72.94 -61.59,72.73 -61.62,72.52 -61.62,72.52 -61.62,72.52 -61.83,67.84 -62.04,63.17 -62.14,60.34 -62.24,57.52 -62.50,55.50 -62.77,53.49 -62.75,53.22 -62.73,52.95 -62.65,52.69 -62.57,52.44 -62.44,52.20 -62.30,51.97 -62.11,51.78 -61.92,51.59 -61.69,51.45 -61.45,51.32 -61.20,51.23 -60.94,51.15 -60.67,51.14 -60.40,51.12 -60.14,51.17 -59.87,51.22 -59.63,51.33 -59.38,51.44 -59.17,51.61 -58.96,51.77 -58.79,51.98 -58.63,52.20 -58.52,52.44 -58.41,52.69 -58.36,52.95 -58.31,53.22 -58.33,54.21 -58.34,55.21 -58.21,57.38 -58.07,59.55 -57.68,62.90 -57.29,66.26 -56.69,69.95 -56.08,73.65 -55.12,76.98 -54.15,80.30 -54.15,80.58 -54.14,80.86 -54.20,81.14 -54.26,81.41 -54.38,81.66 -54.51,81.91 -54.69,82.13 -54.87,82.34 -55.09,82.51 -55.32,82.67 -55.58,82.78 -55.84,82.88 -56.11,82.92 -56.39,82.97 -56.67,82.94 -56.95,82.91 -57.21,82.82 -57.48,82.73 -57.71,82.58 -57.94,82.42 -58.14,82.22 -58.33,82.01 -58.46,81.77 -58.60,81.52 -58.67,81.25 -58.75,80.98 -58.94,79.23 -59.13,77.48 -59.67,73.81 -60.21,70.13 -61.16,64.67 -62.11,59.20 -63.38,52.72 -64.64,46.24 -65.91,40.08 -67.17,33.93 -68.13,29.21 -69.08,24.48 -69.17,22.06 -69.25,19.65 -67.67,18.65 -66.09,17.65 -64.33,19.30 -62.57,20.95 -61.14,23.57 -59.71,26.18 -57.83,30.14 -55.95,34.11 -53.78,39.31 -51.62,44.52 -49.25,49.99 -46.88,55.46 -44.56,60.07 -42.24,64.68 -40.78,67.26 -39.32,69.84 -38.16,71.21 -37.01,72.58 -36.97,72.86 -36.94,73.14 -36.97,73.42 -37.00,73.70 -37.09,73.96 -37.19,74.23 -37.35,74.46 -37.50,74.69 -37.71,74.88 -37.92,75.07 -38.17,75.20 -38.42,75.34 -38.69,75.41 -38.96,75.48 -39.24,75.48 -39.52,75.49 -39.80,75.42 -40.07,75.36 -40.32,75.23 -40.57,75.10 -40.79,74.92 -41.00,74.73 -41.16,74.50 -41.32,74.28 -41.43,74.01 -41.53,73.75 -41.47,72.93 -41.41,72.10 -41.91,70.11 -42.41,68.11 -43.51,64.31 -44.61,60.50 -46.05,55.19 -47.50,49.87 -49.35,43.52 -51.20,37.17 -53.30,30.63 -55.40,24.09 -57.48,17.72 -59.55,11.34 -61.16,5.48 -62.76,-0.37 -64.10,-5.97 -65.44,-11.57 -66.42,-16.67 -67.41,-21.76 -67.81,-26.68 -68.20,-31.60 -68.22,-31.87 -68.25,-32.13 -68.21,-32.39 -68.17,-32.65 -68.06,-32.89 -67.96,-33.13 -67.81,-33.35 -67.65,-33.56 -67.45,-33.73 -67.24,-33.89 -67.01,-34.01 -66.77,-34.12 -66.51,-34.18 -66.25,-34.23 -65.99,-34.22 -65.73,-34.21 -65.47,-34.14 -65.22,-34.07 -64.99,-33.94 -64.76,-33.81 -64.57,-33.63 -64.38,-33.45 -64.24,-33.22 -64.10,-33.00 -64.01,-32.75 -63.93,-32.50 -63.31,-29.04 -62.69,-25.58 -61.67,-20.73 -60.64,-15.88 -58.98,-9.93 -57.31,-3.98 -55.05,2.46 -52.80,8.92 -50.00,15.78 -47.21,22.64 -44.07,29.67 -40.92,36.69 -38.00,42.99 -35.08,49.28 -32.77,53.83 -30.46,58.37 -28.78,61.14 -27.11,63.90 -27.05,64.17 -26.99,64.43 -27.00,64.71 -27.00,64.98 -27.07,65.24 -27.14,65.50 -27.27,65.74 -27.40,65.98 -27.59,66.18 -27.77,66.38 -28.00,66.53 -28.23,66.69 -28.48,66.78 -28.74,66.87 -29.01,66.90 -29.28,66.93 -29.55,66.89 -29.82,66.85 -30.07,66.75 -30.33,66.65 -30.55,66.49 -30.77,66.33 -30.95,66.12 -31.12,65.92 -31.25,65.67 -31.37,65.43 -31.94,63.68 -32.51,61.94 -33.84,58.21 -35.18,54.49 -37.03,48.97 -38.88,43.46 -41.12,36.78 -43.36,30.09 -45.67,23.08 -47.99,16.07 -50.12,9.32 -52.26,2.57 -54.18,-3.62 -56.10,-9.81 -57.47,-15.11 -58.83,-20.41 -59.64,-24.69 -60.45,-28.98 -60.38,-32.06 -60.31,-35.13 -59.27,-37.00 -58.23,-38.86 -56.49,-39.52 -54.74,-40.17 -52.91,-39.63 -51.07,-39.08 -49.10,-37.78 -47.12,-36.48 -45.02,-34.26 -42.91,-32.04 -41.10,-29.25 -39.30,-26.46 -37.42,-23.08 -35.54,-19.71 -33.49,-15.52 -31.44,-11.33 -29.34,-6.14 -27.25,-0.95 -25.12,5.00 -22.98,10.96 -20.72,16.81 -18.46,22.66 -16.61,27.40 -14.76,32.14 -13.85,35.59 -12.94,39.04 -12.82,39.26 -12.69,39.48 -12.63,39.73 -12.56,39.97 -12.56,40.23 -12.55,40.48 -12.61,40.73 -12.66,40.98 -12.78,41.20 -12.89,41.43 -13.06,41.62 -13.22,41.82 -13.43,41.97 -13.63,42.11 -13.87,42.21 -14.10,42.30 -14.35,42.34 -14.61,42.37 -14.86,42.35 -15.11,42.32 -15.35,42.24 -15.59,42.15 -15.80,42.01 -16.01,41.87 -16.18,41.68 -16.36,41.50 -17.24,40.68 -18.12,39.86 -19.77,37.59 -21.43,35.32 -23.41,31.48 -25.39,27.64 -27.60,22.69 -29.82,17.74 -32.25,12.37 -34.67,7.01 -37.06,2.19 -39.44,-2.62 -41.58,-7.01 -43.73,-11.40 -45.41,-15.38 -47.10,-19.37 -48.28,-22.80 -49.47,-26.23 -49.80,-28.80 -50.12,-31.37 -50.25,-31.59 -50.38,-31.82 -50.45,-32.06 -50.52,-32.31 -50.53,-32.56 -50.54,-32.82 -50.48,-33.07 -50.43,-33.32 -50.32,-33.55 -50.21,-33.78 -50.05,-33.98 -49.88,-34.18 -49.68,-34.33 -49.47,-34.48 -49.24,-34.58 -49.00,-34.68 -48.75,-34.72 -48.50,-34.76 -48.24,-34.74 -47.99,-34.72 -47.74,-34.64 -47.50,-34.55 -47.29,-34.42 -47.07,-34.28 -46.89,-34.09 -46.72,-33.91 -46.19,-33.42 -45.67,-32.94 -44.85,-31.83 -44.02,-30.73 -42.92,-29.02 -41.81,-27.30 -40.38,-24.89 -38.95,-22.47 -37.12,-19.29 -35.30,-16.10 -33.02,-11.73 -30.75,-7.36 -27.96,-1.87 -25.18,3.61 -22.54,9.18 -19.91,14.75 -17.88,19.70 -15.86,24.65 -14.56,28.20 -13.26,31.74 -12.49,33.50 -11.71,35.26 -11.66,35.51 -11.61,35.75 -11.63,36.00 -11.64,36.26 -11.71,36.50 -11.78,36.74 -11.91,36.96 -12.04,37.17 -12.22,37.36 -12.39,37.54 -12.61,37.67 -12.82,37.80 -13.06,37.88 -13.30,37.96 -13.55,37.98 -13.80,37.99 -14.05,37.95 -14.30,37.91 -14.53,37.81 -14.76,37.71 -14.96,37.55 -15.16,37.40 -15.32,37.20 -15.48,37.01 -15.59,36.78 -15.69,36.55 -15.63,36.13 -15.56,35.72 -16.12,33.97 -16.68,32.22 -17.80,29.16 -18.92,26.11 -20.29,22.41 -21.67,18.72 -23.03,14.40 -24.40,10.07 -25.68,5.49 -26.96,0.90 -27.94,-3.28 -28.92,-7.46 -29.11,-10.67 -29.30,-13.87 -28.38,-15.22 -27.46,-16.57 -25.65,-16.80 -23.84,-17.03 -22.28,-16.28 -20.72,-15.53 -19.01,-14.08 -17.31,-12.63 -15.60,-10.36 -13.90,-8.09 -11.95,-5.03 -10.00,-1.97 -7.87,1.27 -5.73,4.51 -3.48,7.34 -1.23,10.16 0.80,12.10 2.85,14.04 4.25,15.14 5.64,16.24 7.04,17.29 8.43,18.35 8.43,18.55 8.44,18.76 8.39,18.96 8.35,19.16 8.26,19.35 8.17,19.53 8.04,19.69 7.91,19.85 7.74,19.97 7.57,20.09 7.38,20.17 7.19,20.25 6.99,20.28 6.79,20.31 6.58,20.29 6.38,20.27 6.18,20.20 5.99,20.13 5.82,20.02 5.64,19.91 5.50,19.76 5.36,19.61 5.26,19.43 5.16,19.25 5.11,19.05 5.05,18.85 5.32,18.14 5.59,17.42 5.40,16.12 5.20,14.82 4.71,12.76 4.23,10.70 3.48,8.29 2.73,5.89 1.93,3.65 1.13,1.40 0.90,-0.62 0.66,-2.66 1.04,-1.60 1.41,-0.55 1.46,-0.38 1.51,-0.20 1.51,-0.01 1.51,0.16 1.47,0.34 1.43,0.52 1.34,0.68 1.26,0.85 1.14,0.98 1.02,1.12 0.87,1.23 0.72,1.34 0.55,1.40 0.38,1.47 0.20,1.50 0.01,1.52 -0.16,1.50 -0.34,1.48 -0.51,1.42 -0.69,1.35 -0.84,1.25 -0.99,1.15 -1.12,1.01 -1.24,0.88 -1.33,0.72 -1.41,0.55 -1.41,0.55 L -1.41,0.55 Z"/></g></svg>