<svg version="1.1" xmlns="http://www.w3.org/2000/svg" viewBox="0 0 140 380" width="140" height="380" filter="invert(93%) hue-rotate(180deg)" class="excalidraw-svg"><!-- svg-source:excalidraw --><metadata></metadata><defs><style class="style-fonts">
      </style></defs><g stroke-linecap="round" transform="translate(110 116.33936272763759) rotate(0 10 70)"><path d="M0 0 L20 0 L20 140 L0 140" stroke="none" stroke-width="0" fill="#e7f5ff"></path><path d="M0 0 C5.57 0, 11.15 0, 20 0 M0 0 C7.28 0, 14.57 0, 20 0 M20 0 C20 34.65, 20 69.3, 20 140 M20 0 C20 39.79, 20 79.59, 20 140 M20 140 C15.17 140, 10.34 140, 0 140 M20 140 C12.09 140, 4.17 140, 0 140 M0 140 C0 96.61, 0 53.21, 0 0 M0 140 C0 85.04, 0 30.09, 0 0" stroke="#1e1e1e" stroke-width="4" fill="none"></path></g><g stroke-linecap="round" transform="translate(70 39.556141510984446) rotate(0 10 70)"><path d="M0 0 C5.44 0, 10.87 0, 20 0 M20 0 C20 36.4, 20 72.8, 20 140 M20 140 C13.88 140, 7.76 140, 0 140 M0 140 C0 104.22, 0 68.44, 0 0" stroke="#1e1e1e" stroke-width="2.5" fill="none" stroke-dasharray="8 10"></path></g><g stroke-linecap="round" transform="translate(10 10) rotate(0 10 70)"><path d="M0 0 C7.56 0, 15.12 0, 20 0 M20 0 C20 51, 20 101.99, 20 140 M20 140 C12.56 140, 5.11 140, 0 140 M0 140 C0 100.71, 0 61.42, 0 0" stroke="#1e1e1e" stroke-width="2.5" fill="none" stroke-dasharray="8 10"></path></g><g stroke-linecap="round" transform="translate(70 199.5561415109845) rotate(0 10 70)"><path d="M0 0 C5.78 0, 11.56 0, 20 0 M20 0 C20 53.46, 20 106.92, 20 140 M20 140 C13.96 140, 7.92 140, 0 140 M0 140 C0 94.58, 0 49.15, 0 0" stroke="#1e1e1e" stroke-width="2.5" fill="none" stroke-dasharray="8 10"></path></g><g stroke-linecap="round" transform="translate(10 230) rotate(0 10 70)"><path d="M0 0 C6.83 0, 13.66 0, 20 0 M20 0 C20 49.95, 20 99.89, 20 140 M20 140 C13.8 140, 7.6 140, 0 140 M0 140 C0 91.8, 0 43.6, 0 0" stroke="#1e1e1e" stroke-width="2.5" fill="none" stroke-dasharray="8 10"></path></g><g stroke-linecap="round"><g transform="translate(116.32373474715178 190) rotate(0 -53.16186737357589 62.72770504077545)"><path d="M0 0 C-1.51 7.56, -0.47 30.53, -9.07 45.36 C-17.67 60.2, -35.39 75.65, -51.6 89 C-67.81 102.35, -97.2 119.38, -106.32 125.46" stroke="#1971c2" stroke-width="2.5" fill="none" stroke-dasharray="1.5 8"></path></g></g><mask></mask><g stroke-linecap="round"><g transform="translate(116.32373474715178 195.4554100815509) rotate(0 -53.16186737357589 -62.72770504077545)"><path d="M0 0 C-1.51 -7.56, -0.47 -30.53, -9.07 -45.36 C-17.67 -60.2, -35.39 -75.65, -51.6 -89 C-67.81 -102.35, -97.2 -119.38, -106.32 -125.46" stroke="#1971c2" stroke-width="2.5" fill="none" stroke-dasharray="1.5 8"></path></g></g><mask></mask></svg>