<svg version="1.1" xmlns="http://www.w3.org/2000/svg" viewBox="0 0 333.2311987338533 214.4663766850206" width="333.2311987338533" height="214.4663766850206" filter="invert(93%) hue-rotate(180deg)" class="excalidraw-svg">
  <!-- svg-source:excalidraw -->
  
  <defs>
    <style class="style-fonts">
      @font-face {
        font-family: "Virgil";
        src: url("https://excalidraw.com/Virgil.woff2");
      }
      @font-face {
        font-family: "Cascadia";
        src: url("https://excalidraw.com/Cascadia.woff2");
      }
      @font-face {
        font-family: "Assistant";
        src: url("https://excalidraw.com/Assistant-Regular.woff2");
      }
    </style>
    
  </defs>
  <g stroke-linecap="round" transform="translate(90 44.466376685020606) rotate(0 50 60)"><path d="M0 0 L100 0 L100 120 L0 120" stroke="none" stroke-width="0" fill="#a5d8ff"/><path d="M0 0 C34.02 0, 68.04 0, 100 0 M0 0 C29.93 0, 59.85 0, 100 0 M100 0 C100 42.64, 100 85.27, 100 120 M100 0 C100 36.53, 100 73.05, 100 120 M100 120 C77.84 120, 55.68 120, 0 120 M100 120 C77.69 120, 55.39 120, 0 120 M0 120 C0 72.03, 0 24.06, 0 0 M0 120 C0 76.73, 0 33.46, 0 0" stroke="#1e1e1e" stroke-width="4" fill="none"/></g><g stroke-linecap="round" transform="translate(290 64.4663766850206) rotate(0 16.61559936692666 16.615599366926666)"><path d="M33.23 16.62 C33.23 17.58, 33.15 18.55, 32.98 19.5 C32.81 20.45, 32.56 21.39, 32.23 22.3 C31.9 23.2, 31.49 24.09, 31.01 24.92 C30.52 25.76, 29.96 26.56, 29.34 27.3 C28.73 28.03, 28.03 28.73, 27.3 29.34 C26.56 29.96, 25.76 30.52, 24.92 31.01 C24.09 31.49, 23.2 31.9, 22.3 32.23 C21.39 32.56, 20.45 32.81, 19.5 32.98 C18.55 33.15, 17.58 33.23, 16.62 33.23 C15.65 33.23, 14.68 33.15, 13.73 32.98 C12.78 32.81, 11.84 32.56, 10.93 32.23 C10.03 31.9, 9.14 31.49, 8.31 31.01 C7.47 30.52, 6.67 29.96, 5.94 29.34 C5.2 28.73, 4.51 28.03, 3.89 27.3 C3.27 26.56, 2.71 25.76, 2.23 24.92 C1.75 24.09, 1.33 23.2, 1 22.3 C0.67 21.39, 0.42 20.45, 0.25 19.5 C0.09 18.55, 0 17.58, 0 16.62 C0 15.65, 0.09 14.68, 0.25 13.73 C0.42 12.78, 0.67 11.84, 1 10.93 C1.33 10.03, 1.75 9.14, 2.23 8.31 C2.71 7.47, 3.27 6.67, 3.89 5.94 C4.51 5.2, 5.2 4.51, 5.94 3.89 C6.67 3.27, 7.47 2.71, 8.31 2.23 C9.14 1.75, 10.03 1.33, 10.93 1 C11.84 0.67, 12.78 0.42, 13.73 0.25 C14.68 0.09, 15.65 0, 16.62 0 C17.58 0, 18.55 0.09, 19.5 0.25 C20.45 0.42, 21.39 0.67, 22.3 1 C23.2 1.33, 24.09 1.75, 24.92 2.23 C25.76 2.71, 26.56 3.27, 27.3 3.89 C28.03 4.51, 28.73 5.2, 29.34 5.94 C29.96 6.67, 30.52 7.47, 31.01 8.31 C31.49 9.14, 31.9 10.03, 32.23 10.93 C32.56 11.84, 32.81 12.78, 32.98 13.73 C33.15 14.68, 33.19 16.13, 33.23 16.62 C33.27 17.1, 33.27 16.13, 33.23 16.62" stroke="none" stroke-width="0" fill="#fd7e14"/><path d="M33.23 16.62 C33.23 17.58, 33.15 18.55, 32.98 19.5 C32.81 20.45, 32.56 21.39, 32.23 22.3 C31.9 23.2, 31.49 24.09, 31.01 24.92 C30.52 25.76, 29.96 26.56, 29.34 27.3 C28.73 28.03, 28.03 28.73, 27.3 29.34 C26.56 29.96, 25.76 30.52, 24.92 31.01 C24.09 31.49, 23.2 31.9, 22.3 32.23 C21.39 32.56, 20.45 32.81, 19.5 32.98 C18.55 33.15, 17.58 33.23, 16.62 33.23 C15.65 33.23, 14.68 33.15, 13.73 32.98 C12.78 32.81, 11.84 32.56, 10.93 32.23 C10.03 31.9, 9.14 31.49, 8.31 31.01 C7.47 30.52, 6.67 29.96, 5.94 29.34 C5.2 28.73, 4.51 28.03, 3.89 27.3 C3.27 26.56, 2.71 25.76, 2.23 24.92 C1.75 24.09, 1.33 23.2, 1 22.3 C0.67 21.39, 0.42 20.45, 0.25 19.5 C0.09 18.55, 0 17.58, 0 16.62 C0 15.65, 0.09 14.68, 0.25 13.73 C0.42 12.78, 0.67 11.84, 1 10.93 C1.33 10.03, 1.75 9.14, 2.23 8.31 C2.71 7.47, 3.27 6.67, 3.89 5.94 C4.51 5.2, 5.2 4.51, 5.94 3.89 C6.67 3.27, 7.47 2.71, 8.31 2.23 C9.14 1.75, 10.03 1.33, 10.93 1 C11.84 0.67, 12.78 0.42, 13.73 0.25 C14.68 0.09, 15.65 0, 16.62 0 C17.58 0, 18.55 0.09, 19.5 0.25 C20.45 0.42, 21.39 0.67, 22.3 1 C23.2 1.33, 24.09 1.75, 24.92 2.23 C25.76 2.71, 26.56 3.27, 27.3 3.89 C28.03 4.51, 28.73 5.2, 29.34 5.94 C29.96 6.67, 30.52 7.47, 31.01 8.31 C31.49 9.14, 31.9 10.03, 32.23 10.93 C32.56 11.84, 32.81 12.78, 32.98 13.73 C33.15 14.68, 33.19 16.13, 33.23 16.62 C33.27 17.1, 33.27 16.13, 33.23 16.62" stroke="#1e1e1e" stroke-width="4" fill="none"/></g><g stroke-linecap="round"><g transform="translate(270 84.4663766850206) rotate(0 -30 0)"><path d="M0 0 C-12.49 0, -24.98 0, -60 0 M0 0 C-18.81 0, -37.62 0, -60 0" stroke="#e03131" stroke-width="4" fill="none"/></g><g transform="translate(270 84.4663766850206) rotate(0 -30 0)"><path d="M-60 0 L-46.41 -6.34 L-46.41 6.34 L-60 0" stroke="none" stroke-width="0" fill="#e03131" fill-rule="evenodd"/><path d="M-60 0 C-57.17 -1.32, -54.34 -2.64, -46.41 -6.34 M-60 0 C-55.74 -1.99, -51.48 -3.98, -46.41 -6.34 M-46.41 -6.34 C-46.41 -3.12, -46.41 0.09, -46.41 6.34 M-46.41 -6.34 C-46.41 -2.18, -46.41 1.97, -46.41 6.34 M-46.41 6.34 C-51.43 4, -56.45 1.65, -60 0 M-46.41 6.34 C-51.6 3.92, -56.8 1.49, -60 0 M-60 0 C-60 0, -60 0, -60 0 M-60 0 C-60 0, -60 0, -60 0" stroke="#e03131" stroke-width="4" fill="none"/></g></g><mask/><g stroke-linecap="round"><g transform="translate(70 144.4663766850206) rotate(0 -30 0)"><path d="M0 0 C-14.35 0, -28.71 0, -60 0 M0 0 C-17.56 0, -35.12 0, -60 0" stroke="#e03131" stroke-width="4" fill="none"/></g><g transform="translate(70 144.4663766850206) rotate(0 -30 0)"><path d="M-60 0 L-46.41 -6.34 L-46.41 6.34 L-60 0" stroke="none" stroke-width="0" fill="#e03131" fill-rule="evenodd"/><path d="M-60 0 C-56.75 -1.52, -53.5 -3.03, -46.41 -6.34 M-60 0 C-56.02 -1.86, -52.04 -3.71, -46.41 -6.34 M-46.41 -6.34 C-46.41 -3.33, -46.41 -0.32, -46.41 6.34 M-46.41 -6.34 C-46.41 -1.87, -46.41 2.6, -46.41 6.34 M-46.41 6.34 C-49.96 4.68, -53.51 3.03, -60 0 M-46.41 6.34 C-49.32 4.98, -52.24 3.62, -60 0 M-60 0 C-60 0, -60 0, -60 0 M-60 0 C-60 0, -60 0, -60 0" stroke="#e03131" stroke-width="4" fill="none"/></g></g><mask/><g stroke-linecap="round" transform="translate(50 10) rotate(0 95.89303630873411 97.2331883425103)"><path d="M0 0 C45.52 0, 91.05 0, 191.79 0 M191.79 0 C191.79 46.81, 191.79 93.62, 191.79 194.47 M191.79 194.47 C143.34 194.47, 94.88 194.47, 0 194.47 M0 194.47 C0 122.98, 0 51.49, 0 0" stroke="#343a40" stroke-width="4.5" fill="none" stroke-dasharray="1.5 10"/></g></svg>