<svg version="1.1" xmlns="http://www.w3.org/2000/svg" viewBox="0 0 445.4361126880041 349.5352674875795" width="445.4361126880041" height="349.5352674875795" filter="invert(93%) hue-rotate(180deg)" class="excalidraw-svg">
  <!-- svg-source:excalidraw -->
  
  <defs>
    <style class="style-fonts">
      @font-face {
        font-family: "Virgil";
        src: url("https://excalidraw.com/Virgil.woff2");
      }
      @font-face {
        font-family: "Cascadia";
        src: url("https://excalidraw.com/Cascadia.woff2");
      }
      @font-face {
        font-family: "Assistant";
        src: url("https://excalidraw.com/Assistant-Regular.woff2");
      }
    </style>
    
  </defs>
  <g stroke-linecap="round"><g transform="translate(210.38857690018642 339.5352674875795) rotate(0 0 -163.78750634869593)"><path d="M0 0 C0 -85.39, 0 -170.78, 0 -327.58 M0 0 C0 -78.28, 0 -156.56, 0 -327.58" stroke="#1e1e1e" stroke-width="2" fill="none"/></g><g transform="translate(210.38857690018642 339.5352674875795) rotate(0 0 -163.78750634869593)"><path d="M0 -327.58 L6.34 -313.98 L-6.34 -313.98 L0 -327.58" stroke="none" stroke-width="0" fill="#1e1e1e" fill-rule="evenodd"/><path d="M0 -327.58 C1.65 -324.03, 3.3 -320.49, 6.34 -313.98 M0 -327.58 C1.51 -324.33, 3.03 -321.08, 6.34 -313.98 M6.34 -313.98 C3.42 -313.98, 0.51 -313.98, -6.34 -313.98 M6.34 -313.98 C2.34 -313.98, -1.66 -313.98, -6.34 -313.98 M-6.34 -313.98 C-4.71 -317.47, -3.09 -320.95, 0 -327.58 M-6.34 -313.98 C-4.72 -317.45, -3.1 -320.92, 0 -327.58 M0 -327.58 C0 -327.58, 0 -327.58, 0 -327.58 M0 -327.58 C0 -327.58, 0 -327.58, 0 -327.58" stroke="#1e1e1e" stroke-width="2" fill="none"/></g></g><mask/><g stroke-linecap="round"><g transform="translate(427.22480468824733 173.27273270601202) rotate(0 4.105653999878385 0.02594387244092644)"><path d="M0 0 C2.62 0.02, 5.23 0.03, 8.21 0.05 M0 0 C1.66 0.01, 3.32 0.02, 8.21 0.05" stroke="#1e1e1e" stroke-width="2" fill="none"/></g><g transform="translate(427.22480468824733 173.27273270601202) rotate(0 4.105653999878385 0.02594387244092644)"><path d="M8.21 0.05 L4.48 1.76 L4.5 -1.71 L8.21 0.05" stroke="none" stroke-width="0" fill="#1e1e1e" fill-rule="evenodd"/><path d="M8.21 0.05 C7.02 0.6, 5.83 1.14, 4.48 1.76 M8.21 0.05 C7.46 0.4, 6.7 0.74, 4.48 1.76 M4.48 1.76 C4.49 0.53, 4.49 -0.7, 4.5 -1.71 M4.48 1.76 C4.49 0.74, 4.49 -0.27, 4.5 -1.71 M4.5 -1.71 C5.97 -1.01, 7.43 -0.32, 8.21 0.05 M4.5 -1.71 C5.3 -1.33, 6.1 -0.95, 8.21 0.05 M8.21 0.05 C8.21 0.05, 8.21 0.05, 8.21 0.05 M8.21 0.05 C8.21 0.05, 8.21 0.05, 8.21 0.05" stroke="#1e1e1e" stroke-width="2" fill="none"/></g></g><mask/><g stroke-linecap="round"><g transform="translate(408.6230773925781 94.41479042045529) rotate(0 -199.31153869628906 0)"><path d="M0 0 C-84.52 0, -169.05 0, -398.62 0" stroke="#1e1e1e" stroke-width="2.5" fill="none" stroke-dasharray="1.5 8"/></g></g><mask/><g stroke-linecap="round"><g transform="translate(410.03419494628906 247.53655555717404) rotate(0 -199.31153869628906 0)"><path d="M0 0 C-133.64 0, -267.28 0, -398.62 0" stroke="#1e1e1e" stroke-width="2.5" fill="none" stroke-dasharray="1.5 8"/></g></g><mask/><g stroke-linecap="round" transform="translate(15.239114791448287 98.40524568104885) rotate(0 196.63271616384617 74.16841925112519)"><path d="M0 0 C0 0, 0 0, 0 0 M0 0 C0 0, 0 0, 0 0 M0.13 12.04 C2.46 9.36, 4.79 6.69, 10.63 -0.03 M0.13 12.04 C2.73 9.05, 5.33 6.07, 10.63 -0.03 M0.27 24.08 C8 15.19, 15.73 6.29, 21.26 -0.07 M0.27 24.08 C5.87 17.64, 11.47 11.2, 21.26 -0.07 M-0.26 36.88 C11.95 22.83, 24.16 8.79, 31.89 -0.1 M-0.26 36.88 C6.88 28.67, 14.02 20.46, 31.89 -0.1 M-0.12 48.92 C14.27 32.36, 28.66 15.8, 42.52 -0.14 M-0.12 48.92 C14.06 32.6, 28.24 16.29, 42.52 -0.14 M0.01 60.96 C11.64 47.58, 23.27 34.2, 53.15 -0.17 M0.01 60.96 C19.37 38.69, 38.73 16.42, 53.15 -0.17 M0.14 73 C21.63 48.29, 43.11 23.57, 63.78 -0.21 M0.14 73 C21.7 48.2, 43.25 23.41, 63.78 -0.21 M0.28 85.04 C21.37 60.78, 42.46 36.52, 74.41 -0.24 M0.28 85.04 C25.66 55.83, 51.05 26.63, 74.41 -0.24 M-0.25 97.84 C31.14 61.73, 62.53 25.61, 85.04 -0.28 M-0.25 97.84 C19.94 74.61, 40.14 51.38, 85.04 -0.28 M-0.11 109.88 C33.9 70.75, 67.91 31.62, 95.67 -0.31 M-0.11 109.88 C25.43 80.5, 50.97 51.12, 95.67 -0.31 M0.02 121.92 C33.11 83.85, 66.2 45.79, 106.3 -0.34 M0.02 121.92 C39.4 76.62, 78.77 31.32, 106.3 -0.34 M0.15 133.96 C39.87 88.27, 79.58 42.59, 116.27 0.38 M0.15 133.96 C45.36 81.96, 90.56 29.96, 116.27 0.38 M0.29 146 C29.73 112.13, 59.17 78.26, 126.91 0.34 M0.29 146 C47.89 91.24, 95.5 36.47, 126.91 0.34 M8.29 148.98 C58.6 91.12, 108.9 33.25, 137.54 0.31 M8.29 148.98 C34.78 118.51, 61.27 88.04, 137.54 0.31 M18.92 148.95 C55.07 107.37, 91.21 65.79, 148.17 0.27 M18.92 148.95 C55.29 107.12, 91.65 65.28, 148.17 0.27 M29.55 148.92 C77.84 93.36, 126.13 37.81, 158.8 0.24 M29.55 148.92 C74.85 96.8, 120.15 44.69, 158.8 0.24 M40.18 148.88 C89.75 91.86, 139.31 34.84, 169.43 0.2 M40.18 148.88 C66.95 118.09, 93.72 87.3, 169.43 0.2 M50.81 148.85 C77.3 118.37, 103.79 87.9, 180.06 0.17 M50.81 148.85 C90.21 103.52, 129.62 58.19, 180.06 0.17 M61.44 148.81 C107.67 95.64, 153.89 42.46, 190.69 0.13 M61.44 148.81 C95.78 109.31, 130.13 69.8, 190.69 0.13 M72.07 148.78 C114.17 100.35, 156.26 51.93, 201.32 0.1 M72.07 148.78 C109.45 105.77, 146.83 62.77, 201.32 0.1 M82.7 148.74 C134.21 89.49, 185.71 30.25, 211.95 0.06 M82.7 148.74 C116.56 109.79, 150.42 70.84, 211.95 0.06 M93.33 148.71 C120.62 117.31, 147.92 85.92, 222.58 0.03 M93.33 148.71 C140.76 94.15, 188.18 39.59, 222.58 0.03 M103.96 148.67 C153.76 91.39, 203.55 34.11, 233.21 0 M103.96 148.67 C154.74 90.27, 205.51 31.86, 233.21 0 M114.59 148.64 C149.42 108.57, 184.25 68.51, 243.84 -0.04 M114.59 148.64 C159 97.56, 203.4 46.48, 243.84 -0.04 M125.22 148.6 C174.34 92.1, 223.46 35.59, 254.47 -0.07 M125.22 148.6 C170.13 96.95, 215.03 45.29, 254.47 -0.07 M135.85 148.57 C180 97.78, 224.15 47, 265.1 -0.11 M135.85 148.57 C170.33 108.9, 204.81 69.24, 265.1 -0.11 M146.48 148.54 C188.83 99.82, 231.17 51.11, 275.73 -0.14 M146.48 148.54 C173.25 117.74, 200.02 86.95, 275.73 -0.14 M157.11 148.5 C183.12 118.58, 209.13 88.66, 286.36 -0.18 M157.11 148.5 C199.32 99.95, 241.53 51.4, 286.36 -0.18 M167.74 148.47 C213.71 95.58, 259.69 42.7, 296.99 -0.21 M167.74 148.47 C212.38 97.12, 257.01 45.78, 296.99 -0.21 M178.37 148.43 C211.33 110.52, 244.29 72.6, 307.62 -0.25 M178.37 148.43 C224.25 95.65, 270.13 42.88, 307.62 -0.25 M188.35 149.15 C224.03 108.1, 259.72 67.05, 318.25 -0.28 M188.35 149.15 C230.93 100.16, 273.52 51.18, 318.25 -0.28 M198.98 149.12 C230.45 112.91, 261.93 76.7, 328.88 -0.31 M198.98 149.12 C241.37 100.35, 283.76 51.59, 328.88 -0.31 M209.61 149.08 C245.72 107.54, 281.83 66, 339.51 -0.35 M209.61 149.08 C237.21 117.33, 264.81 85.58, 339.51 -0.35 M220.24 149.05 C263.57 99.2, 306.9 49.35, 349.48 0.37 M220.24 149.05 C253.47 110.82, 286.7 72.6, 349.48 0.37 M230.87 149.01 C262.09 113.1, 293.32 77.18, 360.11 0.34 M230.87 149.01 C263.09 111.94, 295.32 74.87, 360.11 0.34 M241.5 148.98 C272.38 113.46, 303.26 77.93, 370.74 0.3 M241.5 148.98 C281.04 103.49, 320.58 58, 370.74 0.3 M252.13 148.95 C281.14 115.57, 310.14 82.2, 381.37 0.27 M252.13 148.95 C301.33 92.34, 350.53 35.74, 381.37 0.27 M262.76 148.91 C300.38 105.63, 338 62.35, 392 0.23 M262.76 148.91 C298.14 108.21, 333.52 67.51, 392 0.23 M273.39 148.88 C317.6 98.01, 361.82 47.15, 393.45 10.76 M273.39 148.88 C314.33 101.78, 355.27 54.68, 393.45 10.76 M284.02 148.84 C323.73 103.16, 363.43 57.49, 393.58 22.81 M284.02 148.84 C317.27 110.59, 350.52 72.33, 393.58 22.81 M294.65 148.81 C334.04 103.49, 373.43 58.18, 393.71 34.85 M294.65 148.81 C330 108.14, 365.35 67.47, 393.71 34.85 M305.28 148.77 C336.6 112.74, 367.93 76.7, 393.19 47.64 M305.28 148.77 C338.73 110.29, 372.18 71.81, 393.19 47.64 M315.91 148.74 C340.67 120.26, 365.43 91.77, 393.32 59.68 M315.91 148.74 C335.04 126.73, 354.17 104.72, 393.32 59.68 M326.54 148.7 C347.22 124.91, 367.9 101.12, 393.46 71.72 M326.54 148.7 C342.07 130.84, 357.6 112.97, 393.46 71.72 M337.17 148.67 C355.51 127.57, 373.85 106.47, 393.59 83.76 M337.17 148.67 C355.38 127.72, 373.59 106.77, 393.59 83.76 M347.8 148.63 C361.1 133.33, 374.41 118.02, 393.72 95.81 M347.8 148.63 C358.27 136.59, 368.73 124.55, 393.72 95.81 M358.43 148.6 C368.38 137.15, 378.34 125.7, 393.2 108.6 M358.43 148.6 C368.41 137.12, 378.39 125.64, 393.2 108.6 M369.06 148.57 C376.34 140.18, 383.63 131.8, 393.33 120.64 M369.06 148.57 C375.85 140.75, 382.64 132.94, 393.33 120.64 M379.69 148.53 C383.26 144.42, 386.83 140.31, 393.47 132.68 M379.69 148.53 C384.31 143.22, 388.93 137.9, 393.47 132.68 M390.32 148.5 C391.55 147.08, 392.78 145.67, 393.6 144.72 M390.32 148.5 C391.44 147.21, 392.56 145.92, 393.6 144.72 M-0.24 148.13 C-0.24 148.13, -0.24 148.13, -0.24 148.13 M-0.24 148.13 C-0.24 148.13, -0.24 148.13, -0.24 148.13 M12.56 148.65 C8.94 145.51, 5.32 142.36, -0.27 137.5 M12.56 148.65 C8.58 145.2, 4.61 141.74, -0.27 137.5 M24.6 148.52 C15.19 140.34, 5.77 132.16, -0.31 126.87 M24.6 148.52 C16.47 141.45, 8.35 134.39, -0.31 126.87 M36.64 148.39 C28.46 141.28, 20.28 134.17, -0.34 116.24 M36.64 148.39 C24.72 138.03, 12.81 127.67, -0.34 116.24 M48.68 148.25 C36.65 137.79, 24.62 127.34, 0.38 106.26 M48.68 148.25 C38.02 138.99, 27.36 129.72, 0.38 106.26 M60.72 148.12 C41.05 131.02, 21.38 113.92, 0.34 95.63 M60.72 148.12 C45.03 134.48, 29.34 120.84, 0.34 95.63 M73.51 148.64 C45.45 124.25, 17.39 99.86, 0.31 85 M73.51 148.64 C51.37 129.39, 29.23 110.14, 0.31 85 M85.56 148.51 C54.7 121.69, 23.85 94.86, 0.27 74.37 M85.56 148.51 C64.64 130.33, 43.73 112.15, 0.27 74.37 M97.6 148.38 C73.21 127.18, 48.83 105.98, 0.24 63.74 M97.6 148.38 C65.66 120.61, 33.73 92.85, 0.24 63.74 M109.64 148.24 C84.69 126.56, 59.75 104.88, 0.2 53.11 M109.64 148.24 C72.06 115.58, 34.49 82.92, 0.2 53.11 M121.68 148.11 C84.84 116.09, 48.01 84.07, 0.17 42.48 M121.68 148.11 C79.66 111.58, 37.64 75.06, 0.17 42.48 M134.47 148.63 C100.11 118.76, 65.75 88.9, 0.14 31.85 M134.47 148.63 C99.37 118.12, 64.27 87.6, 0.14 31.85 M146.51 148.5 C105.97 113.26, 65.43 78.02, 0.1 21.22 M146.51 148.5 C88.46 98.03, 30.4 47.56, 0.1 21.22 M158.56 148.37 C109.48 105.7, 60.39 63.04, 0.07 10.59 M158.56 148.37 C119.2 114.15, 79.84 79.94, 0.07 10.59 M170.6 148.23 C121.14 105.24, 71.68 62.25, 0.03 -0.04 M170.6 148.23 C134.25 116.64, 97.91 85.05, 0.03 -0.04 M182.64 148.1 C133.71 105.57, 84.78 63.04, 12.07 -0.17 M182.64 148.1 C115.1 89.39, 47.56 30.68, 12.07 -0.17 M195.43 148.62 C136.6 97.48, 77.76 46.33, 24.11 -0.3 M195.43 148.62 C140.52 100.89, 85.61 53.15, 24.11 -0.3 M207.47 148.49 C170.41 116.27, 133.35 84.05, 36.91 0.22 M207.47 148.49 C149.85 98.39, 92.22 48.3, 36.91 0.22 M219.51 148.36 C181.78 115.55, 144.04 82.75, 48.95 0.09 M219.51 148.36 C162.18 98.52, 104.85 48.68, 48.95 0.09 M231.56 148.22 C169.5 94.28, 107.44 40.33, 60.99 -0.05 M231.56 148.22 C171.88 96.35, 112.21 44.47, 60.99 -0.05 M243.6 148.09 C177.06 90.25, 110.52 32.41, 73.03 -0.18 M243.6 148.09 C197.66 108.15, 151.71 68.22, 73.03 -0.18 M256.39 148.61 C201.21 100.64, 146.03 52.67, 85.07 -0.31 M256.39 148.61 C213.56 111.38, 170.73 74.15, 85.07 -0.31 M268.43 148.48 C217.34 104.06, 166.24 59.65, 97.87 0.21 M268.43 148.48 C230.6 115.59, 192.77 82.71, 97.87 0.21 M280.47 148.35 C225.8 100.82, 171.13 53.3, 109.91 0.08 M280.47 148.35 C229.55 104.08, 178.63 59.82, 109.91 0.08 M292.51 148.21 C244.42 106.41, 196.33 64.6, 121.95 -0.06 M292.51 148.21 C243.51 105.61, 194.5 63.01, 121.95 -0.06 M304.56 148.08 C249.91 100.58, 195.27 53.08, 133.99 -0.19 M304.56 148.08 C253.75 103.92, 202.94 59.75, 133.99 -0.19 M317.35 148.6 C274.1 111.01, 230.85 73.41, 146.03 -0.32 M317.35 148.6 C274.19 111.09, 231.03 73.57, 146.03 -0.32 M329.39 148.47 C275.54 101.66, 221.7 54.85, 158.83 0.2 M329.39 148.47 C279.49 105.09, 229.58 61.7, 158.83 0.2 M341.43 148.34 C305.78 117.35, 270.13 86.35, 170.87 0.07 M341.43 148.34 C291.32 104.78, 241.21 61.22, 170.87 0.07 M353.47 148.2 C313.67 113.6, 273.86 78.99, 182.91 -0.07 M353.47 148.2 C307.5 108.24, 261.53 68.28, 182.91 -0.07 M365.51 148.07 C308.81 98.78, 252.11 49.49, 194.95 -0.2 M365.51 148.07 C317.19 106.06, 268.87 64.05, 194.95 -0.2 M378.31 148.59 C338.37 113.87, 298.43 79.15, 206.99 -0.33 M378.31 148.59 C334.18 110.23, 290.04 71.86, 206.99 -0.33 M390.35 148.46 C341.51 106.01, 292.67 63.55, 219.79 0.19 M390.35 148.46 C342.07 106.49, 293.78 64.51, 219.79 0.19 M394.09 141.11 C360.43 111.85, 326.77 82.59, 231.83 0.06 M394.09 141.11 C357.09 108.94, 320.08 76.78, 231.83 0.06 M394.06 130.48 C346.43 89.08, 298.81 47.68, 243.87 -0.08 M394.06 130.48 C356.83 98.12, 319.61 65.76, 243.87 -0.08 M394.02 119.85 C355.12 86.04, 316.22 52.22, 255.91 -0.21 M394.02 119.85 C339.58 72.52, 285.14 25.2, 255.91 -0.21 M393.99 109.22 C349.38 70.44, 304.77 31.66, 267.95 -0.34 M393.99 109.22 C353.08 73.66, 312.18 38.1, 267.95 -0.34 M393.95 98.59 C358.42 67.7, 322.89 36.82, 280.75 0.18 M393.95 98.59 C358.68 67.93, 323.41 37.27, 280.75 0.18 M393.92 87.96 C362.68 60.8, 331.43 33.64, 292.79 0.05 M393.92 87.96 C358.29 56.99, 322.65 26.01, 292.79 0.05 M393.88 77.33 C358.71 46.75, 323.53 16.17, 304.83 -0.09 M393.88 77.33 C360.23 48.08, 326.58 18.82, 304.83 -0.09 M393.85 66.7 C364.84 41.48, 335.82 16.26, 316.87 -0.22 M393.85 66.7 C365.94 42.44, 338.04 18.18, 316.87 -0.22 M393.81 56.07 C371.17 36.39, 348.53 16.7, 328.91 -0.35 M393.81 56.07 C372.19 37.28, 350.57 18.48, 328.91 -0.35 M393.78 45.44 C376.31 30.25, 358.84 15.07, 341.7 0.17 M393.78 45.44 C379.27 32.83, 364.76 20.22, 341.7 0.17 M393.74 34.81 C384.46 26.74, 375.19 18.68, 353.75 0.04 M393.74 34.81 C379.37 22.32, 365 9.82, 353.75 0.04 M393.71 24.18 C386.86 18.23, 380.02 12.28, 365.79 -0.09 M393.71 24.18 C387.67 18.93, 381.63 13.68, 365.79 -0.09 M393.68 13.55 C389.97 10.33, 386.27 7.11, 377.83 -0.23 M393.68 13.55 C387.64 8.3, 381.61 3.06, 377.83 -0.23 M393.64 2.92 C392.32 1.77, 391.01 0.63, 389.87 -0.36 M393.64 2.92 C392.19 1.66, 390.75 0.4, 389.87 -0.36" stroke="#a5d8ff" stroke-width="1" fill="none"/><path d="M0 0 C133.18 0, 266.37 0, 393.27 0 M393.27 0 C393.27 46.01, 393.27 92.03, 393.27 148.34 M393.27 148.34 C262.83 148.34, 132.4 148.34, 0 148.34 M0 148.34 C0 101.64, 0 54.95, 0 0" stroke="transparent" stroke-width="2.5" fill="none" stroke-dasharray="1.5 8"/></g><g stroke-linecap="round" transform="translate(21.30697887302688 10) rotate(0 191.4825103927041 38.42132163778411)"><path d="M0 0 C0 0, 0 0, 0 0 M0 0 C0 0, 0 0, 0 0 M0.13 12.04 C2.82 8.95, 5.51 5.86, 10.63 -0.03 M0.13 12.04 C4.23 7.33, 8.32 2.62, 10.63 -0.03 M0.27 24.08 C5.75 17.77, 11.23 11.46, 21.26 -0.07 M0.27 24.08 C7.27 16.03, 14.27 7.97, 21.26 -0.07 M-0.26 36.88 C6.64 28.94, 13.54 21, 31.89 -0.1 M-0.26 36.88 C11.19 23.7, 22.65 10.53, 31.89 -0.1 M-0.12 48.92 C12.67 34.2, 25.47 19.48, 42.52 -0.14 M-0.12 48.92 C12.09 34.87, 24.3 20.82, 42.52 -0.14 M0.01 60.96 C19.51 38.53, 39 16.1, 53.15 -0.17 M0.01 60.96 C14.36 44.46, 28.7 27.95, 53.15 -0.17 M0.14 73 C15.33 55.53, 30.52 38.06, 63.78 -0.21 M0.14 73 C19.96 50.21, 39.77 27.41, 63.78 -0.21 M6.84 77.49 C28.66 52.38, 50.49 27.27, 74.41 -0.24 M6.84 77.49 C28.04 53.11, 49.23 28.72, 74.41 -0.24 M17.47 77.46 C39.14 52.52, 60.82 27.59, 85.04 -0.28 M17.47 77.46 C32.32 60.37, 47.17 43.29, 85.04 -0.28 M28.1 77.42 C44.01 59.12, 59.91 40.82, 95.67 -0.31 M28.1 77.42 C45.16 57.79, 62.23 38.16, 95.67 -0.31 M38.73 77.39 C57.81 55.44, 76.9 33.48, 106.3 -0.34 M38.73 77.39 C56.01 57.51, 73.29 37.63, 106.3 -0.34 M49.36 77.36 C69.34 54.36, 89.33 31.37, 116.27 0.38 M49.36 77.36 C71.74 51.6, 94.13 25.85, 116.27 0.38 M59.99 77.32 C76.84 57.94, 93.69 38.55, 126.91 0.34 M59.99 77.32 C86.5 46.83, 113 16.33, 126.91 0.34 M70.62 77.29 C87.32 58.07, 104.03 38.85, 137.54 0.31 M70.62 77.29 C96.74 47.23, 122.87 17.18, 137.54 0.31 M81.25 77.25 C97.93 58.06, 114.62 38.86, 148.17 0.27 M81.25 77.25 C98.02 57.96, 114.78 38.67, 148.17 0.27 M91.88 77.22 C109.76 56.65, 127.64 36.08, 158.8 0.24 M91.88 77.22 C114.21 51.52, 136.55 25.83, 158.8 0.24 M102.51 77.18 C121.75 55.04, 141 32.91, 169.43 0.2 M102.51 77.18 C126.71 49.35, 150.91 21.51, 169.43 0.2 M113.14 77.15 C131.38 56.16, 149.62 35.18, 180.06 0.17 M113.14 77.15 C130.6 57.06, 148.07 36.96, 180.06 0.17 M123.77 77.11 C141.92 56.23, 160.07 35.35, 190.69 0.13 M123.77 77.11 C144.15 53.67, 164.53 30.22, 190.69 0.13 M134.4 77.08 C149.73 59.44, 165.06 41.8, 201.32 0.1 M134.4 77.08 C157.91 50.03, 181.43 22.98, 201.32 0.1 M145.03 77.05 C164.93 54.15, 184.83 31.26, 211.95 0.06 M145.03 77.05 C170.96 47.21, 196.9 17.37, 211.95 0.06 M155.66 77.01 C171.88 58.35, 188.1 39.69, 222.58 0.03 M155.66 77.01 C180.21 48.76, 204.77 20.52, 222.58 0.03 M166.29 76.98 C190.05 49.65, 213.8 22.31, 233.21 0 M166.29 76.98 C189.81 49.91, 213.34 22.85, 233.21 0 M176.92 76.94 C194.32 56.92, 211.73 36.9, 243.84 -0.04 M176.92 76.94 C200.5 49.81, 224.09 22.67, 243.84 -0.04 M187.55 76.91 C202.64 59.54, 217.74 42.18, 254.47 -0.07 M187.55 76.91 C205.63 56.1, 223.72 35.3, 254.47 -0.07 M198.18 76.87 C223.08 48.23, 247.98 19.58, 265.1 -0.11 M198.18 76.87 C220.64 51.03, 243.11 25.19, 265.1 -0.11 M208.15 77.59 C234 47.86, 259.84 18.13, 275.73 -0.14 M208.15 77.59 C225.07 58.14, 241.98 38.68, 275.73 -0.14 M218.78 77.56 C239.77 53.41, 260.76 29.26, 286.36 -0.18 M218.78 77.56 C234.12 59.91, 249.47 42.26, 286.36 -0.18 M229.41 77.52 C249.11 54.87, 268.8 32.21, 296.99 -0.21 M229.41 77.52 C251.78 51.79, 274.15 26.06, 296.99 -0.21 M240.04 77.49 C263.69 50.29, 287.33 23.09, 307.62 -0.25 M240.04 77.49 C261.66 52.63, 283.27 27.76, 307.62 -0.25 M250.67 77.45 C271.65 53.33, 292.62 29.2, 318.25 -0.28 M250.67 77.45 C276.66 47.56, 302.65 17.66, 318.25 -0.28 M261.3 77.42 C275.25 61.38, 289.19 45.34, 328.88 -0.31 M261.3 77.42 C287.67 47.09, 314.03 16.76, 328.88 -0.31 M271.93 77.39 C298.24 47.12, 324.56 16.85, 339.51 -0.35 M271.93 77.39 C286.53 60.59, 301.13 43.8, 339.51 -0.35 M282.56 77.35 C305.23 51.28, 327.9 25.2, 349.48 0.37 M282.56 77.35 C309.12 46.8, 335.69 16.24, 349.48 0.37 M293.19 77.32 C318 48.78, 342.8 20.25, 360.11 0.34 M293.19 77.32 C310.81 57.05, 328.42 36.79, 360.11 0.34 M303.82 77.28 C320.41 58.2, 336.99 39.12, 370.74 0.3 M303.82 77.28 C329.38 47.89, 354.93 18.49, 370.74 0.3 M314.45 77.25 C333.77 55.02, 353.09 32.8, 381.37 0.27 M314.45 77.25 C334.31 54.41, 354.17 31.56, 381.37 0.27 M325.08 77.21 C347.08 51.91, 369.08 26.6, 383.47 10.04 M325.08 77.21 C346.66 52.4, 368.23 27.58, 383.47 10.04 M335.71 77.18 C348.65 62.3, 361.59 47.42, 383.61 22.09 M335.71 77.18 C351.04 59.55, 366.36 41.92, 383.61 22.09 M346.34 77.14 C354.22 68.08, 362.1 59.02, 383.74 34.13 M346.34 77.14 C356.33 65.65, 366.32 54.16, 383.74 34.13 M356.97 77.11 C363.26 69.88, 369.55 62.65, 383.87 46.17 M356.97 77.11 C364.22 68.78, 371.46 60.44, 383.87 46.17 M367.6 77.08 C373.79 69.96, 379.97 62.85, 384.01 58.21 M367.6 77.08 C373.59 70.19, 379.58 63.3, 384.01 58.21 M378.23 77.04 C380.28 74.68, 382.33 72.32, 383.48 71 M378.23 77.04 C379.88 75.15, 381.53 73.25, 383.48 71 M-0.31 76.57 C-0.31 76.57, -0.31 76.57, -0.31 76.57 M-0.31 76.57 C-0.31 76.57, -0.31 76.57, -0.31 76.57 M12.48 77.09 C8.07 73.26, 3.66 69.42, -0.35 65.94 M12.48 77.09 C7.93 73.13, 3.37 69.17, -0.35 65.94 M24.52 76.96 C16.61 70.08, 8.69 63.2, 0.37 55.97 M24.52 76.96 C18.82 72, 13.12 67.05, 0.37 55.97 M36.57 76.83 C22.48 64.58, 8.39 52.34, 0.34 45.34 M36.57 76.83 C24.68 66.5, 12.79 56.16, 0.34 45.34 M48.61 76.69 C30.36 60.83, 12.11 44.97, 0.3 34.71 M48.61 76.69 C38.77 68.14, 28.93 59.59, 0.3 34.71 M60.65 76.56 C47.77 65.37, 34.89 54.17, 0.27 24.08 M60.65 76.56 C42.52 60.8, 24.39 45.04, 0.27 24.08 M73.44 77.08 C52.08 58.51, 30.71 39.94, 0.24 13.45 M73.44 77.08 C47.07 54.16, 20.69 31.23, 0.24 13.45 M85.48 76.95 C51.64 47.53, 17.79 18.11, 0.2 2.82 M85.48 76.95 C53.76 49.37, 22.03 21.8, 0.2 2.82 M97.52 76.82 C70.31 53.16, 43.09 29.5, 9.22 0.06 M97.52 76.82 C78.97 60.69, 60.42 44.57, 9.22 0.06 M109.57 76.69 C82.06 52.77, 54.55 28.86, 21.26 -0.07 M109.57 76.69 C76.34 47.8, 43.11 18.92, 21.26 -0.07 M121.61 76.55 C103.28 60.62, 84.96 44.7, 33.31 -0.21 M121.61 76.55 C100.41 58.12, 79.2 39.69, 33.31 -0.21 M134.4 77.08 C114.85 60.08, 95.3 43.09, 46.1 0.32 M134.4 77.08 C100.92 47.97, 67.44 18.86, 46.1 0.32 M146.44 76.94 C127.69 60.64, 108.94 44.34, 58.14 0.18 M146.44 76.94 C127 60.04, 107.55 43.14, 58.14 0.18 M158.48 76.81 C124.68 47.43, 90.88 18.04, 70.18 0.05 M158.48 76.81 C124.98 47.69, 91.48 18.57, 70.18 0.05 M170.52 76.68 C145.12 54.59, 119.71 32.5, 82.22 -0.08 M170.52 76.68 C143.76 53.41, 117 30.15, 82.22 -0.08 M182.57 76.54 C152.17 50.12, 121.77 23.69, 94.26 -0.22 M182.57 76.54 C164.16 60.54, 145.75 44.54, 94.26 -0.22 M195.36 77.07 C174.1 58.58, 152.84 40.1, 107.06 0.31 M195.36 77.07 C166.74 52.18, 138.12 27.3, 107.06 0.31 M207.4 76.93 C185.64 58.01, 163.87 39.09, 119.1 0.17 M207.4 76.93 C187.02 59.22, 166.64 41.5, 119.1 0.17 M219.44 76.8 C199.95 59.86, 180.46 42.92, 131.14 0.04 M219.44 76.8 C192.8 53.64, 166.16 30.48, 131.14 0.04 M231.48 76.67 C203.02 51.92, 174.56 27.18, 143.18 -0.09 M231.48 76.67 C209.97 57.97, 188.46 39.27, 143.18 -0.09 M243.52 76.53 C224.18 59.72, 204.84 42.9, 155.22 -0.23 M243.52 76.53 C213.77 50.67, 184.02 24.81, 155.22 -0.23 M256.32 77.06 C221.27 46.59, 186.23 16.13, 168.02 0.3 M256.32 77.06 C223.04 48.13, 189.77 19.2, 168.02 0.3 M268.36 76.92 C235.74 48.56, 203.11 20.2, 180.06 0.16 M268.36 76.92 C240.67 52.85, 212.97 28.77, 180.06 0.16 M280.4 76.79 C246.19 47.05, 211.98 17.31, 192.1 0.03 M280.4 76.79 C245.67 46.59, 210.93 16.4, 192.1 0.03 M292.44 76.66 C270.56 57.64, 248.68 38.62, 204.14 -0.1 M292.44 76.66 C257.25 46.06, 222.05 15.47, 204.14 -0.1 M304.48 76.52 C286.52 60.91, 268.57 45.3, 216.18 -0.24 M304.48 76.52 C270.15 46.68, 235.82 16.83, 216.18 -0.24 M317.28 77.05 C284.42 48.48, 251.57 19.92, 228.98 0.29 M317.28 77.05 C287.14 50.85, 257 24.65, 228.98 0.29 M329.32 76.91 C307.56 58, 285.81 39.09, 241.02 0.15 M329.32 76.91 C303.57 54.53, 277.82 32.14, 241.02 0.15 M341.36 76.78 C314.64 53.55, 287.92 30.33, 253.06 0.02 M341.36 76.78 C308.32 48.06, 275.28 19.34, 253.06 0.02 M353.4 76.65 C326 52.83, 298.61 29.02, 265.1 -0.11 M353.4 76.65 C321.35 48.78, 289.29 20.92, 265.1 -0.11 M366.2 77.17 C335.77 50.72, 305.34 24.27, 277.14 -0.25 M366.2 77.17 C338.38 52.99, 310.57 28.81, 277.14 -0.25 M378.24 77.04 C353.42 55.46, 328.61 33.89, 289.94 0.28 M378.24 77.04 C352 54.23, 325.77 31.43, 289.94 0.28 M383.49 71 C364.41 54.42, 345.34 37.84, 301.98 0.14 M383.49 71 C362.8 53.02, 342.12 35.04, 301.98 0.14 M383.45 60.37 C367 46.07, 350.55 31.77, 314.02 0.01 M383.45 60.37 C361.18 41.01, 338.91 21.65, 314.02 0.01 M383.42 49.74 C368.14 36.46, 352.87 23.18, 326.06 -0.12 M383.42 49.74 C367.4 35.82, 351.39 21.9, 326.06 -0.12 M383.38 39.11 C367.61 25.4, 351.84 11.69, 338.1 -0.26 M383.38 39.11 C370.09 27.55, 356.79 16, 338.1 -0.26 M383.35 28.48 C371.42 18.11, 359.49 7.74, 350.9 0.27 M383.35 28.48 C371.92 18.54, 360.48 8.6, 350.9 0.27 M383.31 17.85 C375.62 11.16, 367.92 4.47, 362.94 0.13 M383.31 17.85 C379.07 14.16, 374.83 10.47, 362.94 0.13 M383.28 7.22 C381.54 5.71, 379.81 4.2, 374.98 0 M383.28 7.22 C381.46 5.63, 379.64 4.05, 374.98 0" stroke="#b2f2bb" stroke-width="1" fill="none"/><path d="M0 0 C141.04 0, 282.08 0, 382.97 0 M382.97 0 C382.97 27.94, 382.97 55.87, 382.97 76.84 M382.97 76.84 C259.32 76.84, 135.68 76.84, 0 76.84 M0 76.84 C0 55.94, 0 35.04, 0 0" stroke="transparent" stroke-width="2.5" fill="none" stroke-dasharray="1.5 8"/></g><g stroke-linecap="round" transform="translate(20.88842069584331 256.76742602125626) rotate(0 191.4825103927041 38.421321637784104)"><path d="M0 0 C0 0, 0 0, 0 0 M0 0 C0 0, 0 0, 0 0 M0.13 12.04 C3.71 7.92, 7.3 3.8, 10.63 -0.03 M0.13 12.04 C3.4 8.29, 6.66 4.53, 10.63 -0.03 M0.27 24.08 C7.2 16.1, 14.14 8.12, 21.26 -0.07 M0.27 24.08 C6.15 17.32, 12.03 10.55, 21.26 -0.07 M-0.26 36.88 C9.68 25.45, 19.62 14.02, 31.89 -0.1 M-0.26 36.88 C7.85 27.55, 15.96 18.22, 31.89 -0.1 M-0.12 48.92 C11.69 35.33, 23.51 21.73, 42.52 -0.14 M-0.12 48.92 C8.83 38.61, 17.79 28.31, 42.52 -0.14 M0.01 60.96 C12.44 46.66, 24.86 32.37, 53.15 -0.17 M0.01 60.96 C19.65 38.37, 39.28 15.78, 53.15 -0.17 M0.14 73 C24.82 44.61, 49.5 16.22, 63.78 -0.21 M0.14 73 C14.18 56.85, 28.23 40.69, 63.78 -0.21 M6.84 77.49 C24.78 56.85, 42.72 36.21, 74.41 -0.24 M6.84 77.49 C24.94 56.67, 43.04 35.85, 74.41 -0.24 M17.47 77.46 C39.18 52.48, 60.89 27.51, 85.04 -0.28 M17.47 77.46 C35.77 56.41, 54.07 35.36, 85.04 -0.28 M28.1 77.42 C44.75 58.27, 61.39 39.12, 95.67 -0.31 M28.1 77.42 C54.11 47.5, 80.13 17.57, 95.67 -0.31 M38.73 77.39 C64.3 47.97, 89.87 18.56, 106.3 -0.34 M38.73 77.39 C52.39 61.67, 66.06 45.94, 106.3 -0.34 M49.36 77.36 C63.47 61.13, 77.57 44.89, 116.27 0.38 M49.36 77.36 C68.87 54.91, 88.38 32.46, 116.27 0.38 M59.99 77.32 C73.52 61.76, 87.05 46.19, 126.91 0.34 M59.99 77.32 C76.02 58.88, 92.05 40.44, 126.91 0.34 M70.62 77.29 C89.73 55.3, 108.84 33.32, 137.54 0.31 M70.62 77.29 C96.79 47.18, 122.96 17.08, 137.54 0.31 M81.25 77.25 C99.84 55.86, 118.44 34.47, 148.17 0.27 M81.25 77.25 C100.65 54.93, 120.06 32.6, 148.17 0.27 M91.88 77.22 C117.93 47.24, 143.99 17.27, 158.8 0.24 M91.88 77.22 C106.58 60.3, 121.28 43.39, 158.8 0.24 M102.51 77.18 C118.09 59.26, 133.68 41.33, 169.43 0.2 M102.51 77.18 C118.82 58.42, 135.14 39.65, 169.43 0.2 M113.14 77.15 C135.44 51.49, 157.74 25.84, 180.06 0.17 M113.14 77.15 C136.33 50.47, 159.52 23.79, 180.06 0.17 M123.77 77.11 C146.31 51.19, 168.84 25.26, 190.69 0.13 M123.77 77.11 C142.1 56.03, 160.42 34.95, 190.69 0.13 M134.4 77.08 C155.84 52.41, 177.29 27.74, 201.32 0.1 M134.4 77.08 C152.7 56.02, 171.01 34.96, 201.32 0.1 M145.03 77.05 C158.51 61.54, 171.99 46.03, 211.95 0.06 M145.03 77.05 C167.52 51.17, 190.01 25.3, 211.95 0.06 M155.66 77.01 C172.14 58.05, 188.63 39.09, 222.58 0.03 M155.66 77.01 C178.1 51.2, 200.53 25.39, 222.58 0.03 M166.29 76.98 C185.07 55.37, 203.86 33.75, 233.21 0 M166.29 76.98 C184.29 56.27, 202.28 35.57, 233.21 0 M176.92 76.94 C203.58 46.27, 230.24 15.6, 243.84 -0.04 M176.92 76.94 C203.64 46.2, 230.37 15.46, 243.84 -0.04 M187.55 76.91 C212.37 48.35, 237.19 19.8, 254.47 -0.07 M187.55 76.91 C207.22 54.28, 226.89 31.65, 254.47 -0.07 M198.18 76.87 C222.04 49.42, 245.9 21.97, 265.1 -0.11 M198.18 76.87 C222.67 48.7, 247.17 20.52, 265.1 -0.11 M208.15 77.59 C229.12 53.47, 250.09 29.35, 275.73 -0.14 M208.15 77.59 C229.46 53.09, 250.76 28.58, 275.73 -0.14 M218.78 77.56 C238.56 54.81, 258.33 32.06, 286.36 -0.18 M218.78 77.56 C236.92 56.69, 255.06 35.82, 286.36 -0.18 M229.41 77.52 C248.29 55.8, 267.18 34.08, 296.99 -0.21 M229.41 77.52 C244.28 60.43, 259.14 43.33, 296.99 -0.21 M240.04 77.49 C258.34 56.44, 276.64 35.38, 307.62 -0.25 M240.04 77.49 C265.22 48.53, 290.39 19.57, 307.62 -0.25 M250.67 77.45 C271.01 54.05, 291.36 30.65, 318.25 -0.28 M250.67 77.45 C276.2 48.08, 301.74 18.71, 318.25 -0.28 M261.3 77.42 C284.78 50.41, 308.26 23.41, 328.88 -0.31 M261.3 77.42 C280.03 55.88, 298.75 34.34, 328.88 -0.31 M271.93 77.39 C294.91 50.95, 317.89 24.52, 339.51 -0.35 M271.93 77.39 C295.02 50.83, 318.1 24.28, 339.51 -0.35 M282.56 77.35 C300.69 56.49, 318.83 35.64, 349.48 0.37 M282.56 77.35 C296.86 60.91, 311.15 44.46, 349.48 0.37 M293.19 77.32 C306.82 61.65, 320.44 45.98, 360.11 0.34 M293.19 77.32 C316.39 50.63, 339.6 23.94, 360.11 0.34 M303.82 77.28 C329.39 47.87, 354.96 18.45, 370.74 0.3 M303.82 77.28 C327.01 50.6, 350.2 23.93, 370.74 0.3 M314.45 77.25 C330.57 58.7, 346.69 40.16, 381.37 0.27 M314.45 77.25 C328.6 60.97, 342.75 44.69, 381.37 0.27 M325.08 77.21 C343.4 56.14, 361.72 35.06, 383.47 10.04 M325.08 77.21 C341.03 58.87, 356.97 40.53, 383.47 10.04 M335.71 77.18 C347.37 63.77, 359.03 50.35, 383.61 22.09 M335.71 77.18 C347.06 64.13, 358.41 51.07, 383.61 22.09 M346.34 77.14 C357.23 64.63, 368.11 52.11, 383.74 34.13 M346.34 77.14 C358.43 63.24, 370.51 49.34, 383.74 34.13 M356.97 77.11 C366.25 66.43, 375.53 55.76, 383.87 46.17 M356.97 77.11 C365.23 67.61, 373.49 58.11, 383.87 46.17 M367.6 77.08 C371.39 72.72, 375.18 68.35, 384.01 58.21 M367.6 77.08 C371.86 72.18, 376.12 67.28, 384.01 58.21 M378.23 77.04 C379.92 75.1, 381.61 73.16, 383.48 71 M378.23 77.04 C380.27 74.7, 382.31 72.35, 383.48 71 M-0.31 76.57 C-0.31 76.57, -0.31 76.57, -0.31 76.57 M-0.31 76.57 C-0.31 76.57, -0.31 76.57, -0.31 76.57 M12.48 77.09 C8.76 73.85, 5.03 70.61, -0.35 65.94 M12.48 77.09 C9.52 74.52, 6.56 71.94, -0.35 65.94 M24.52 76.96 C16.56 70.04, 8.59 63.11, 0.37 55.97 M24.52 76.96 C19.52 72.61, 14.51 68.26, 0.37 55.97 M36.57 76.83 C28.86 70.13, 21.15 63.43, 0.34 45.34 M36.57 76.83 C26.91 68.43, 17.25 60.04, 0.34 45.34 M48.61 76.69 C34.89 64.78, 21.18 52.86, 0.3 34.71 M48.61 76.69 C38.56 67.96, 28.51 59.23, 0.3 34.71 M60.65 76.56 C37.07 56.07, 13.5 35.58, 0.27 24.08 M60.65 76.56 C41.89 60.26, 23.14 43.96, 0.27 24.08 M73.44 77.08 C44.77 52.16, 16.09 27.23, 0.24 13.45 M73.44 77.08 C53.35 59.61, 33.25 42.14, 0.24 13.45 M85.48 76.95 C54.08 49.65, 22.67 22.35, 0.2 2.82 M85.48 76.95 C63.22 57.6, 40.95 38.24, 0.2 2.82 M97.52 76.82 C68.25 51.37, 38.98 25.93, 9.22 0.06 M97.52 76.82 C76.88 58.88, 56.24 40.93, 9.22 0.06 M109.57 76.69 C89 58.8, 68.43 40.92, 21.26 -0.07 M109.57 76.69 C74.36 46.08, 39.16 15.48, 21.26 -0.07 M121.61 76.55 C97.44 55.55, 73.28 34.54, 33.31 -0.21 M121.61 76.55 C91.11 50.04, 60.62 23.54, 33.31 -0.21 M134.4 77.08 C106.72 53.01, 79.04 28.95, 46.1 0.32 M134.4 77.08 C109.05 55.04, 83.71 33.01, 46.1 0.32 M146.44 76.94 C112.83 47.72, 79.21 18.5, 58.14 0.18 M146.44 76.94 C128.62 61.45, 110.8 45.96, 58.14 0.18 M158.48 76.81 C133.66 55.23, 108.84 33.66, 70.18 0.05 M158.48 76.81 C134.41 55.88, 110.34 34.95, 70.18 0.05 M170.52 76.68 C143.38 53.08, 116.23 29.47, 82.22 -0.08 M170.52 76.68 C150.35 59.14, 130.18 41.6, 82.22 -0.08 M182.57 76.54 C160.57 57.43, 138.58 38.31, 94.26 -0.22 M182.57 76.54 C148.6 47.02, 114.64 17.5, 94.26 -0.22 M195.36 77.07 C168.8 53.97, 142.23 30.88, 107.06 0.31 M195.36 77.07 C161.5 47.63, 127.64 18.2, 107.06 0.31 M207.4 76.93 C183.3 55.98, 159.2 35.03, 119.1 0.17 M207.4 76.93 C186.65 58.89, 165.9 40.85, 119.1 0.17 M219.44 76.8 C192.95 53.77, 166.47 30.75, 131.14 0.04 M219.44 76.8 C196.69 57.02, 173.93 37.24, 131.14 0.04 M231.48 76.67 C209.37 57.44, 187.25 38.21, 143.18 -0.09 M231.48 76.67 C203.34 52.2, 175.2 27.74, 143.18 -0.09 M243.52 76.53 C222.67 58.4, 201.81 40.27, 155.22 -0.23 M243.52 76.53 C210.42 47.75, 177.31 18.97, 155.22 -0.23 M256.32 77.06 C236.75 60.05, 217.19 43.04, 168.02 0.3 M256.32 77.06 C228.65 53, 200.98 28.95, 168.02 0.3 M268.36 76.92 C238.95 51.36, 209.54 25.79, 180.06 0.16 M268.36 76.92 C242.59 54.52, 216.83 32.13, 180.06 0.16 M280.4 76.79 C256.7 56.19, 233 35.59, 192.1 0.03 M280.4 76.79 C246.9 47.66, 213.39 18.54, 192.1 0.03 M292.44 76.66 C274.24 60.83, 256.03 45, 204.14 -0.1 M292.44 76.66 C266.16 53.81, 239.88 30.97, 204.14 -0.1 M304.48 76.52 C285.49 60.01, 266.49 43.5, 216.18 -0.24 M304.48 76.52 C281.5 56.55, 258.52 36.57, 216.18 -0.24 M317.28 77.05 C285.18 49.14, 253.09 21.24, 228.98 0.29 M317.28 77.05 C289.5 52.9, 261.72 28.75, 228.98 0.29 M329.32 76.91 C300.33 51.71, 271.33 26.51, 241.02 0.15 M329.32 76.91 C295.6 47.6, 261.88 18.29, 241.02 0.15 M341.36 76.78 C314.42 53.36, 287.49 29.95, 253.06 0.02 M341.36 76.78 C306.24 46.25, 271.12 15.72, 253.06 0.02 M353.4 76.65 C334.27 60.02, 315.14 43.39, 265.1 -0.11 M353.4 76.65 C322.22 49.54, 291.03 22.43, 265.1 -0.11 M366.2 77.17 C346.32 59.89, 326.45 42.62, 277.14 -0.25 M366.2 77.17 C345.28 58.99, 324.37 40.81, 277.14 -0.25 M378.24 77.04 C349.01 51.63, 319.79 26.23, 289.94 0.28 M378.24 77.04 C354.75 56.62, 331.27 36.21, 289.94 0.28 M383.49 71 C358.85 49.59, 334.22 28.17, 301.98 0.14 M383.49 71 C363.39 53.53, 343.29 36.05, 301.98 0.14 M383.45 60.37 C365.1 44.42, 346.76 28.47, 314.02 0.01 M383.45 60.37 C356.05 36.55, 328.64 12.72, 314.02 0.01 M383.42 49.74 C370.86 38.83, 358.31 27.91, 326.06 -0.12 M383.42 49.74 C366.99 35.46, 350.56 21.18, 326.06 -0.12 M383.38 39.11 C371.98 29.2, 360.58 19.29, 338.1 -0.26 M383.38 39.11 C369.94 27.43, 356.51 15.74, 338.1 -0.26 M383.35 28.48 C375.5 21.65, 367.64 14.83, 350.9 0.27 M383.35 28.48 C372.3 18.87, 361.25 9.27, 350.9 0.27 M383.31 17.85 C377.79 13.05, 372.27 8.25, 362.94 0.13 M383.31 17.85 C376.95 12.32, 370.58 6.78, 362.94 0.13 M383.28 7.22 C380.52 4.82, 377.76 2.42, 374.98 0 M383.28 7.22 C381.39 5.57, 379.49 3.93, 374.98 0" stroke="#ffc9c9" stroke-width="1" fill="none"/><path d="M0 0 C117.11 0, 234.21 0, 382.97 0 M382.97 0 C382.97 18.49, 382.97 36.97, 382.97 76.84 M382.97 76.84 C240.42 76.84, 97.87 76.84, 0 76.84 M0 76.84 C0 55.83, 0 34.82, 0 0" stroke="transparent" stroke-width="2.5" fill="none" stroke-dasharray="1.5 8"/></g></svg>