<svg version="1.1" xmlns="http://www.w3.org/2000/svg" viewBox="0 0 467.2000274658203 254.48490011398474" width="467.2000274658203" height="254.48490011398474" filter="invert(93%) hue-rotate(180deg)">
  <!-- svg-source:excalidraw -->
  
  <defs>
    <style class="style-fonts">
      @font-face {
        font-family: "Virgil";
        src: url("https://excalidraw.com/Virgil.woff2");
      }
      @font-face {
        font-family: "Cascadia";
        src: url("https://excalidraw.com/Cascadia.woff2");
      }
    </style>
  </defs>
  <g stroke-linecap="round"><g transform="translate(10 228.77310965685527) rotate(0 223.60001373291016 -109.19999694824219)"><path d="M0 0 C36.67 -36.4, 145.47 -218.4, 220 -218.4 C294.53 -218.4, 409.33 -36.4, 447.2 0" stroke="#1e1e1e" stroke-width="4.5" fill="none" stroke-dasharray="8 12"/></g></g><mask/><g stroke-linecap="round"><g transform="translate(55.1103889875547 241.38367499466108) rotate(281.6653385039867 17.08285806999413 -17.082858069994135)"><path d="M0 0 C5.69 -5.69, 28.47 -28.47, 34.17 -34.17 M0 0 C5.69 -5.69, 28.47 -28.47, 34.17 -34.17" stroke="#2f9e44" stroke-width="4" fill="none"/></g></g><mask/><g stroke-linecap="round" transform="translate(18.707590907467193 139.04516610459913) rotate(326.3714986361827 21.35356579937691 35.30456646603058)"><path d="M10.39 5.06 C10.39 5.06, 10.39 5.06, 10.39 5.06 M10.39 5.06 C10.39 5.06, 10.39 5.06, 10.39 5.06 M2.79 38.2 C13.86 25.45, 24.94 12.71, 31.65 4.99 M2.79 38.2 C12.33 27.22, 21.88 16.23, 31.65 4.99 M6.33 58.5 C18.95 43.99, 31.56 29.48, 41.1 18.5 M6.33 58.5 C13.94 49.75, 21.55 41, 41.1 18.5 M17.09 70.51 C27.83 58.16, 38.57 45.8, 45.31 38.06 M17.09 70.51 C24.19 62.35, 31.28 54.19, 45.31 38.06 M10.47 65.7 C10.47 65.7, 10.47 65.7, 10.47 65.7 M10.47 65.7 C10.47 65.7, 10.47 65.7, 10.47 65.7 M33.04 64.12 C24.14 56.38, 15.23 48.64, 2.85 37.88 M33.04 64.12 C26.46 58.4, 19.88 52.68, 2.85 37.88 M42.03 50.73 C31.09 41.22, 20.15 31.72, 3.54 17.27 M42.03 50.73 C26.74 37.45, 11.46 24.16, 3.54 17.27 M44.98 32.09 C31.98 20.79, 18.97 9.49, 11.77 3.23 M44.98 32.09 C37.77 25.83, 30.55 19.56, 11.77 3.23" stroke="#1971c2" stroke-width="2" fill="none"/><path d="M42.71 35.3 C42.71 37.35, 42.6 39.42, 42.38 41.44 C42.17 43.45, 41.84 45.46, 41.42 47.38 C41 49.3, 40.46 51.19, 39.85 52.96 C39.23 54.73, 38.51 56.43, 37.71 58 C36.92 59.56, 36.03 61.04, 35.08 62.35 C34.13 63.66, 33.1 64.86, 32.03 65.88 C30.96 66.9, 29.82 67.78, 28.66 68.48 C27.5 69.18, 26.28 69.72, 25.06 70.07 C23.84 70.43, 22.59 70.61, 21.35 70.61 C20.12 70.61, 18.86 70.43, 17.65 70.07 C16.43 69.72, 15.21 69.18, 14.05 68.48 C12.89 67.78, 11.75 66.9, 10.68 65.88 C9.61 64.86, 8.57 63.66, 7.63 62.35 C6.68 61.04, 5.79 59.56, 5 58 C4.2 56.43, 3.48 54.73, 2.86 52.96 C2.24 51.19, 1.71 49.3, 1.29 47.38 C0.87 45.46, 0.54 43.45, 0.32 41.44 C0.11 39.42, 0 37.35, 0 35.3 C0 33.26, 0.11 31.19, 0.32 29.17 C0.54 27.16, 0.87 25.15, 1.29 23.23 C1.71 21.31, 2.24 19.42, 2.86 17.65 C3.48 15.88, 4.2 14.18, 5 12.61 C5.79 11.05, 6.68 9.57, 7.63 8.26 C8.57 6.95, 9.61 5.75, 10.68 4.73 C11.75 3.71, 12.89 2.83, 14.05 2.13 C15.21 1.43, 16.43 0.89, 17.65 0.54 C18.86 0.18, 20.12 0, 21.35 0 C22.59 0, 23.84 0.18, 25.06 0.54 C26.28 0.89, 27.5 1.43, 28.66 2.13 C29.82 2.83, 30.96 3.71, 32.03 4.73 C33.1 5.75, 34.13 6.95, 35.08 8.26 C36.03 9.57, 36.92 11.05, 37.71 12.61 C38.51 14.18, 39.23 15.88, 39.85 17.65 C40.46 19.42, 41 21.31, 41.42 23.23 C41.84 25.15, 42.17 27.16, 42.38 29.17 C42.6 31.19, 42.65 34.28, 42.71 35.3 C42.76 36.33, 42.76 34.28, 42.71 35.3" stroke="#2f9e44" stroke-width="4" fill="none"/></g><g stroke-linecap="round"><g transform="translate(101.5266918869354 91.8948125640294) rotate(371.1036417838253 17.08285806999413 -17.08285806999413)"><path d="M0 0 C5.69 -5.69, 28.47 -28.47, 34.17 -34.17 M0 0 C5.69 -5.69, 28.47 -28.47, 34.17 -34.17" stroke="#2f9e44" stroke-width="4" fill="none"/></g></g><mask/><g stroke-linecap="round" transform="translate(146.8896676614563 6.887156264813399) rotate(415.80980191602134 21.35356579937691 35.30456646603058)"><path d="M10.39 5.06 C10.39 5.06, 10.39 5.06, 10.39 5.06 M10.39 5.06 C10.39 5.06, 10.39 5.06, 10.39 5.06 M2.79 38.2 C12.24 27.31, 21.7 16.43, 31.65 4.99 M2.79 38.2 C12.58 26.93, 22.37 15.66, 31.65 4.99 M6.33 58.5 C19.98 42.8, 33.63 27.1, 41.1 18.5 M6.33 58.5 C14.66 48.92, 23 39.33, 41.1 18.5 M17.09 70.51 C28.26 57.67, 39.42 44.82, 45.31 38.06 M17.09 70.51 C24.67 61.8, 32.24 53.09, 45.31 38.06 M10.47 65.7 C10.47 65.7, 10.47 65.7, 10.47 65.7 M10.47 65.7 C10.47 65.7, 10.47 65.7, 10.47 65.7 M33.04 64.12 C26.52 58.45, 20 52.79, 2.85 37.88 M33.04 64.12 C21.34 53.95, 9.65 43.79, 2.85 37.88 M42.03 50.73 C30.9 41.06, 19.77 31.39, 3.54 17.27 M42.03 50.73 C28.32 38.82, 14.62 26.91, 3.54 17.27 M44.98 32.09 C34.78 23.23, 24.59 14.37, 11.77 3.23 M44.98 32.09 C37.78 25.84, 30.59 19.59, 11.77 3.23" stroke="#1971c2" stroke-width="2" fill="none"/><path d="M42.71 35.3 C42.71 37.35, 42.6 39.42, 42.38 41.44 C42.17 43.45, 41.84 45.46, 41.42 47.38 C41 49.3, 40.46 51.19, 39.85 52.96 C39.23 54.73, 38.51 56.43, 37.71 58 C36.92 59.56, 36.03 61.04, 35.08 62.35 C34.13 63.66, 33.1 64.86, 32.03 65.88 C30.96 66.9, 29.82 67.78, 28.66 68.48 C27.5 69.18, 26.28 69.72, 25.06 70.07 C23.84 70.43, 22.59 70.61, 21.35 70.61 C20.12 70.61, 18.86 70.43, 17.65 70.07 C16.43 69.72, 15.21 69.18, 14.05 68.48 C12.89 67.78, 11.75 66.9, 10.68 65.88 C9.61 64.86, 8.57 63.66, 7.63 62.35 C6.68 61.04, 5.79 59.56, 5 58 C4.2 56.43, 3.48 54.73, 2.86 52.96 C2.24 51.19, 1.71 49.3, 1.29 47.38 C0.87 45.46, 0.54 43.45, 0.32 41.44 C0.11 39.42, 0 37.35, 0 35.3 C0 33.26, 0.11 31.19, 0.32 29.17 C0.54 27.16, 0.87 25.15, 1.29 23.23 C1.71 21.31, 2.24 19.42, 2.86 17.65 C3.48 15.88, 4.2 14.18, 5 12.61 C5.79 11.05, 6.68 9.57, 7.63 8.26 C8.57 6.95, 9.61 5.75, 10.68 4.73 C11.75 3.71, 12.89 2.83, 14.05 2.13 C15.21 1.43, 16.43 0.89, 17.65 0.54 C18.86 0.18, 20.12 0, 21.35 0 C22.59 0, 23.84 0.18, 25.06 0.54 C26.28 0.89, 27.5 1.43, 28.66 2.13 C29.82 2.83, 30.96 3.71, 32.03 4.73 C33.1 5.75, 34.13 6.95, 35.08 8.26 C36.03 9.57, 36.92 11.05, 37.71 12.61 C38.51 14.18, 39.23 15.88, 39.85 17.65 C40.46 19.42, 41 21.31, 41.42 23.23 C41.84 25.15, 42.17 27.16, 42.38 29.17 C42.6 31.19, 42.65 34.28, 42.71 35.3 C42.76 36.33, 42.76 34.28, 42.71 35.3" stroke="#2f9e44" stroke-width="4" fill="none"/></g><g stroke-linecap="round"><g transform="translate(270.9789256298859 48.53272279945679) rotate(467.60671012452156 17.082858069994135 -17.08285806999413)"><path d="M0 0 C5.69 -5.69, 28.47 -28.47, 34.17 -34.17 M0 0 C5.69 -5.69, 28.47 -28.47, 34.17 -34.17" stroke="#2f9e44" stroke-width="4" fill="none"/></g></g><mask/><g stroke-linecap="round" transform="translate(293.4972309001283 49.15407905450408) rotate(512.3128702567175 21.353565799376913 35.30456646603058)"><path d="M10.39 5.06 C10.39 5.06, 10.39 5.06, 10.39 5.06 M10.39 5.06 C10.39 5.06, 10.39 5.06, 10.39 5.06 M2.79 38.2 C8.99 31.06, 15.2 23.92, 31.65 4.99 M2.79 38.2 C10.74 29.05, 18.69 19.9, 31.65 4.99 M6.33 58.5 C16.41 46.91, 26.49 35.31, 41.1 18.5 M6.33 58.5 C15.63 47.81, 24.93 37.11, 41.1 18.5 M17.09 70.51 C24.59 61.89, 32.09 53.26, 45.31 38.06 M17.09 70.51 C24.51 61.99, 31.92 53.46, 45.31 38.06 M10.47 65.7 C10.47 65.7, 10.47 65.7, 10.47 65.7 M10.47 65.7 C10.47 65.7, 10.47 65.7, 10.47 65.7 M33.04 64.12 C26.59 58.51, 20.13 52.9, 2.85 37.88 M33.04 64.12 C23.98 56.24, 14.92 48.36, 2.85 37.88 M42.03 50.73 C27.81 38.37, 13.6 26.02, 3.54 17.27 M42.03 50.73 C32.52 42.47, 23.02 34.21, 3.54 17.27 M44.98 32.09 C35.47 23.83, 25.95 15.56, 11.77 3.23 M44.98 32.09 C37.93 25.97, 30.88 19.84, 11.77 3.23" stroke="#1971c2" stroke-width="2" fill="none"/><path d="M42.71 35.3 C42.71 37.35, 42.6 39.42, 42.38 41.44 C42.17 43.45, 41.84 45.46, 41.42 47.38 C41 49.3, 40.46 51.19, 39.85 52.96 C39.23 54.73, 38.51 56.43, 37.71 58 C36.92 59.56, 36.03 61.04, 35.08 62.35 C34.13 63.66, 33.1 64.86, 32.03 65.88 C30.96 66.9, 29.82 67.78, 28.66 68.48 C27.5 69.18, 26.28 69.72, 25.06 70.07 C23.84 70.43, 22.59 70.61, 21.35 70.61 C20.12 70.61, 18.86 70.43, 17.65 70.07 C16.43 69.72, 15.21 69.18, 14.05 68.48 C12.89 67.78, 11.75 66.9, 10.68 65.88 C9.61 64.86, 8.57 63.66, 7.63 62.35 C6.68 61.04, 5.79 59.56, 5 58 C4.2 56.43, 3.48 54.73, 2.86 52.96 C2.24 51.19, 1.71 49.3, 1.29 47.38 C0.87 45.46, 0.54 43.45, 0.32 41.44 C0.11 39.42, 0 37.35, 0 35.3 C0 33.26, 0.11 31.19, 0.32 29.17 C0.54 27.16, 0.87 25.15, 1.29 23.23 C1.71 21.31, 2.24 19.42, 2.86 17.65 C3.48 15.88, 4.2 14.18, 5 12.61 C5.79 11.05, 6.68 9.57, 7.63 8.26 C8.57 6.95, 9.61 5.75, 10.68 4.73 C11.75 3.71, 12.89 2.83, 14.05 2.13 C15.21 1.43, 16.43 0.89, 17.65 0.54 C18.86 0.18, 20.12 0, 21.35 0 C22.59 0, 23.84 0.18, 25.06 0.54 C26.28 0.89, 27.5 1.43, 28.66 2.13 C29.82 2.83, 30.96 3.71, 32.03 4.73 C33.1 5.75, 34.13 6.95, 35.08 8.26 C36.03 9.57, 36.92 11.05, 37.71 12.61 C38.51 14.18, 39.23 15.88, 39.85 17.65 C40.46 19.42, 41 21.31, 41.42 23.23 C41.84 25.15, 42.17 27.16, 42.38 29.17 C42.6 31.19, 42.65 34.28, 42.71 35.3 C42.76 36.33, 42.76 34.28, 42.71 35.3" stroke="#2f9e44" stroke-width="4" fill="none"/></g><g stroke-linecap="round"><g transform="translate(376.0804229436538 53.80350658334916) rotate(467.60671012452156 17.08285806999413 -17.08285806999413)"><path d="M0 0 C5.69 -5.69, 28.47 -28.47, 34.17 -34.17 M0 0 C5.69 -5.69, 28.47 -28.47, 34.17 -34.17" stroke="#2f9e44" stroke-width="4" fill="none"/></g></g><mask/><g stroke-linecap="round" transform="translate(398.59872821389615 54.42486283839645) rotate(512.3128702567175 21.35356579937691 35.30456646603058)"><path d="M10.39 5.06 C10.39 5.06, 10.39 5.06, 10.39 5.06 M10.39 5.06 C10.39 5.06, 10.39 5.06, 10.39 5.06 M2.79 38.2 C9.04 31, 15.3 23.8, 31.65 4.99 M2.79 38.2 C9.55 30.42, 16.31 22.64, 31.65 4.99 M6.33 58.5 C15.75 47.67, 25.18 36.83, 41.1 18.5 M6.33 58.5 C13.58 50.17, 20.83 41.83, 41.1 18.5 M17.09 70.51 C24.16 62.39, 31.22 54.27, 45.31 38.06 M17.09 70.51 C25.47 60.88, 33.84 51.25, 45.31 38.06 M10.47 65.7 C10.47 65.7, 10.47 65.7, 10.47 65.7 M10.47 65.7 C10.47 65.7, 10.47 65.7, 10.47 65.7 M33.04 64.12 C26.15 58.13, 19.27 52.15, 2.85 37.88 M33.04 64.12 C26.35 58.3, 19.66 52.49, 2.85 37.88 M42.03 50.73 C27.14 37.79, 12.25 24.85, 3.54 17.27 M42.03 50.73 C33.55 43.36, 25.07 35.99, 3.54 17.27 M44.98 32.09 C35.52 23.88, 26.07 15.66, 11.77 3.23 M44.98 32.09 C36.22 24.48, 27.47 16.87, 11.77 3.23" stroke="#1971c2" stroke-width="2" fill="none"/><path d="M42.71 35.3 C42.71 37.35, 42.6 39.42, 42.38 41.44 C42.17 43.45, 41.84 45.46, 41.42 47.38 C41 49.3, 40.46 51.19, 39.85 52.96 C39.23 54.73, 38.51 56.43, 37.71 58 C36.92 59.56, 36.03 61.04, 35.08 62.35 C34.13 63.66, 33.1 64.86, 32.03 65.88 C30.96 66.9, 29.82 67.78, 28.66 68.48 C27.5 69.18, 26.28 69.72, 25.06 70.07 C23.84 70.43, 22.59 70.61, 21.35 70.61 C20.12 70.61, 18.86 70.43, 17.65 70.07 C16.43 69.72, 15.21 69.18, 14.05 68.48 C12.89 67.78, 11.75 66.9, 10.68 65.88 C9.61 64.86, 8.57 63.66, 7.63 62.35 C6.68 61.04, 5.79 59.56, 5 58 C4.2 56.43, 3.48 54.73, 2.86 52.96 C2.24 51.19, 1.71 49.3, 1.29 47.38 C0.87 45.46, 0.54 43.45, 0.32 41.44 C0.11 39.42, 0 37.35, 0 35.3 C0 33.26, 0.11 31.19, 0.32 29.17 C0.54 27.16, 0.87 25.15, 1.29 23.23 C1.71 21.31, 2.24 19.42, 2.86 17.65 C3.48 15.88, 4.2 14.18, 5 12.61 C5.79 11.05, 6.68 9.57, 7.63 8.26 C8.57 6.95, 9.61 5.75, 10.68 4.73 C11.75 3.71, 12.89 2.83, 14.05 2.13 C15.21 1.43, 16.43 0.89, 17.65 0.54 C18.86 0.18, 20.12 0, 21.35 0 C22.59 0, 23.84 0.18, 25.06 0.54 C26.28 0.89, 27.5 1.43, 28.66 2.13 C29.82 2.83, 30.96 3.71, 32.03 4.73 C33.1 5.75, 34.13 6.95, 35.08 8.26 C36.03 9.57, 36.92 11.05, 37.71 12.61 C38.51 14.18, 39.23 15.88, 39.85 17.65 C40.46 19.42, 41 21.31, 41.42 23.23 C41.84 25.15, 42.17 27.16, 42.38 29.17 C42.6 31.19, 42.65 34.28, 42.71 35.3 C42.76 36.33, 42.76 34.28, 42.71 35.3" stroke="#2f9e44" stroke-width="4" fill="none"/></g></svg>