<svg version="1.1" xmlns="http://www.w3.org/2000/svg" viewBox="0 0 340 200.00000000000009" width="340" height="200.00000000000009" filter="invert(93%) hue-rotate(180deg)" class="excalidraw-svg">
  <!-- svg-source:excalidraw -->
  
  <defs>
    <style class="style-fonts">
      @font-face {
        font-family: "Virgil";
        src: url("https://excalidraw.com/Virgil.woff2");
      }
      @font-face {
        font-family: "Cascadia";
        src: url("https://excalidraw.com/Cascadia.woff2");
      }
      @font-face {
        font-family: "Assistant";
        src: url("https://excalidraw.com/Assistant-Regular.woff2");
      }
    </style>
    
  </defs>
  <g stroke-linecap="round" transform="translate(-10 30.000000000000085) rotate(89.99999999999994 40 19.999999999999957)"><path d="M0 0 C0 0, 0 0, 0 0 M0 0 C0 0, 0 0, 0 0 M0.27 24.08 C6.4 17.03, 12.53 9.97, 21.26 -0.07 M0.27 24.08 C7.82 15.39, 15.38 6.69, 21.26 -0.07 M7.09 40.62 C15.06 31.45, 23.04 22.28, 42.52 -0.14 M7.09 40.62 C18.74 27.21, 30.4 13.81, 42.52 -0.14 M28.35 40.55 C40.21 26.91, 52.07 13.27, 63.78 -0.21 M28.35 40.55 C35.56 32.26, 42.77 23.97, 63.78 -0.21 M49.61 40.48 C56.68 32.35, 63.75 24.21, 80.45 5.01 M49.61 40.48 C60.74 27.68, 71.86 14.88, 80.45 5.01 M70.87 40.41 C74.65 36.06, 78.43 31.72, 80.71 29.09 M70.87 40.41 C73.2 37.74, 75.52 35.06, 80.71 29.09" stroke="#a5d8ff" stroke-width="2" fill="none"/><path d="M0 0 C16.49 0, 32.98 0, 80 0 M0 0 C19.61 0, 39.23 0, 80 0 M80 0 C80 12.89, 80 25.78, 80 40 M80 0 C80 8.81, 80 17.63, 80 40 M80 40 C53.33 40, 26.66 40, 0 40 M80 40 C53.41 40, 26.82 40, 0 40 M0 40 C0 25.55, 0 11.09, 0 0 M0 40 C0 31.22, 0 22.45, 0 0" stroke="transparent" stroke-width="4" fill="none"/></g><g stroke-linecap="round"><g transform="translate(10 50.00000000000003) rotate(89.99999999999994 40 4.263256414560601e-14)"><path d="M0 0 C27.45 0, 54.9 0, 80 0 M0 0 C17.85 0, 35.7 0, 80 0" stroke="#1e1e1e" stroke-width="4" fill="none"/></g></g><mask/><g stroke-linecap="round"><g transform="translate(50 50.000000000000085) rotate(0 140 0)"><path d="M0 0 C94.53 0, 189.07 0, 280 0 M0 0 C92.5 0, 185.01 0, 280 0" stroke="#1e1e1e" stroke-width="4" fill="none"/></g></g><mask/><g stroke-linecap="round"><g transform="translate(50 50.000000000000085) rotate(0 70 20)"><path d="M0 0 C13.78 2.22, 59.33 6.67, 82.67 13.33 C106 20, 130.44 35.56, 140 40" stroke="#1e1e1e" stroke-width="4.5" fill="none" stroke-dasharray="1.5 10"/></g></g><mask/><g stroke-linecap="round"><g transform="translate(190 90.00000000000009) rotate(0 70 50)"><path d="M0 0 C51.62 36.87, 103.25 73.75, 140 100" stroke="#1e1e1e" stroke-width="4.5" fill="none" stroke-dasharray="1.5 10"/></g></g><mask/></svg>