<svg version="1.1" xmlns="http://www.w3.org/2000/svg" viewBox="0 0 400 120" width="400" height="120" filter="invert(93%) hue-rotate(180deg)" class="excalidraw-svg">
  <!-- svg-source:excalidraw -->
  
  <defs>
    <style class="style-fonts">
      
    </style>
    
  </defs>
  <g stroke-linecap="round"><g transform="translate(388.0396571934088 109.75923633360983) rotate(180 -8.0396571934088 -49.759236333609834)" fill-rule="evenodd"><path d="M0 0 L-1.94 -0.72 L-3.85 -1.91 L-5.69 -3.57 L-7.47 -5.66 L-9.15 -8.19 L-10.73 -11.11 L-12.18 -14.4 L-13.5 -18.04 L-14.67 -21.98 L-15.68 -26.19 L-16.52 -30.63 L-17.18 -35.25 L-17.66 -40 L-17.94 -44.86 L-18.04 -49.76 L-17.94 -54.66 L-17.66 -59.51 L-17.18 -64.27 L-16.52 -68.89 L-15.68 -73.33 L-14.67 -77.54 L-13.5 -81.48 L-12.18 -85.11 L-10.73 -88.41 L-9.15 -91.33 L-7.47 -93.86 L-5.69 -95.95 L-3.85 -97.61 L-1.94 -98.8 L0 -99.52 L1.96 -99.76 L1.96 0.24 L0 0" stroke="none" stroke-width="0" fill="#228be6" fill-rule="evenodd"></path><path d="M0 0 C-0.48 -0.18, -0.96 -0.36, -1.94 -0.72 M0 0 C-0.72 -0.27, -1.44 -0.54, -1.94 -0.72 M-1.94 -0.72 C-2.62 -1.14, -3.3 -1.57, -3.85 -1.91 M-1.94 -0.72 C-2.61 -1.14, -3.28 -1.56, -3.85 -1.91 M-3.85 -1.91 C-4.29 -2.31, -4.73 -2.7, -5.69 -3.57 M-3.85 -1.91 C-4.38 -2.39, -4.92 -2.87, -5.69 -3.57 M-5.69 -3.57 C-6.22 -4.18, -6.74 -4.8, -7.47 -5.66 M-5.69 -3.57 C-6.13 -4.09, -6.57 -4.61, -7.47 -5.66 M-7.47 -5.66 C-8.13 -6.65, -8.79 -7.64, -9.15 -8.19 M-7.47 -5.66 C-8 -6.46, -8.52 -7.25, -9.15 -8.19 M-9.15 -8.19 C-9.65 -9.11, -10.15 -10.03, -10.73 -11.11 M-9.15 -8.19 C-9.59 -9, -10.03 -9.81, -10.73 -11.11 M-10.73 -11.11 C-11.29 -12.38, -11.85 -13.65, -12.18 -14.4 M-10.73 -11.11 C-11.16 -12.09, -11.6 -13.08, -12.18 -14.4 M-12.18 -14.4 C-12.57 -15.47, -12.96 -16.54, -13.5 -18.04 M-12.18 -14.4 C-12.68 -15.77, -13.17 -17.13, -13.5 -18.04 M-13.5 -18.04 C-13.89 -19.37, -14.29 -20.69, -14.67 -21.98 M-13.5 -18.04 C-13.75 -18.87, -13.99 -19.7, -14.67 -21.98 M-14.67 -21.98 C-14.91 -23, -15.16 -24.02, -15.68 -26.19 M-14.67 -21.98 C-14.96 -23.18, -15.24 -24.37, -15.68 -26.19 M-15.68 -26.19 C-15.85 -27.1, -16.02 -28.01, -16.52 -30.63 M-15.68 -26.19 C-15.95 -27.61, -16.22 -29.04, -16.52 -30.63 M-16.52 -30.63 C-16.73 -32.09, -16.94 -33.55, -17.18 -35.25 M-16.52 -30.63 C-16.75 -32.28, -16.99 -33.93, -17.18 -35.25 M-17.18 -35.25 C-17.37 -37.12, -17.55 -38.99, -17.66 -40 M-17.18 -35.25 C-17.28 -36.27, -17.38 -37.29, -17.66 -40 M-17.66 -40 C-17.72 -41.03, -17.78 -42.06, -17.94 -44.86 M-17.66 -40 C-17.76 -41.75, -17.86 -43.5, -17.94 -44.86 M-17.94 -44.86 C-17.98 -46.52, -18.01 -48.19, -18.04 -49.76 M-17.94 -44.86 C-17.98 -46.74, -18.02 -48.62, -18.04 -49.76 M-18.04 -49.76 C-18 -51.55, -17.97 -53.34, -17.94 -54.66 M-18.04 -49.76 C-18.01 -51.05, -17.99 -52.34, -17.94 -54.66 M-17.94 -54.66 C-17.85 -56.25, -17.75 -57.84, -17.66 -59.51 M-17.94 -54.66 C-17.88 -55.78, -17.81 -56.91, -17.66 -59.51 M-17.66 -59.51 C-17.49 -61.19, -17.32 -62.87, -17.18 -64.27 M-17.66 -59.51 C-17.54 -60.7, -17.42 -61.88, -17.18 -64.27 M-17.18 -64.27 C-16.99 -65.56, -16.81 -66.84, -16.52 -68.89 M-17.18 -64.27 C-17 -65.51, -16.82 -66.75, -16.52 -68.89 M-16.52 -68.89 C-16.27 -70.18, -16.03 -71.47, -15.68 -73.33 M-16.52 -68.89 C-16.26 -70.26, -16 -71.62, -15.68 -73.33 M-15.68 -73.33 C-15.32 -74.82, -14.96 -76.31, -14.67 -77.54 M-15.68 -73.33 C-15.36 -74.66, -15.04 -75.98, -14.67 -77.54 M-14.67 -77.54 C-14.39 -78.48, -14.11 -79.42, -13.5 -81.48 M-14.67 -77.54 C-14.39 -78.49, -14.11 -79.43, -13.5 -81.48 M-13.5 -81.48 C-13.03 -82.78, -12.55 -84.09, -12.18 -85.11 M-13.5 -81.48 C-13.1 -82.58, -12.7 -83.68, -12.18 -85.11 M-12.18 -85.11 C-11.61 -86.42, -11.03 -87.72, -10.73 -88.41 M-12.18 -85.11 C-11.81 -85.96, -11.43 -86.81, -10.73 -88.41 M-10.73 -88.41 C-10.2 -89.39, -9.67 -90.38, -9.15 -91.33 M-10.73 -88.41 C-10.3 -89.2, -9.88 -89.99, -9.15 -91.33 M-9.15 -91.33 C-8.65 -92.09, -8.14 -92.85, -7.47 -93.86 M-9.15 -91.33 C-8.51 -92.29, -7.88 -93.24, -7.47 -93.86 M-7.47 -93.86 C-6.81 -94.64, -6.15 -95.42, -5.69 -95.95 M-7.47 -93.86 C-6.82 -94.62, -6.17 -95.39, -5.69 -95.95 M-5.69 -95.95 C-5.26 -96.34, -4.83 -96.72, -3.85 -97.61 M-5.69 -95.95 C-5.27 -96.33, -4.84 -96.72, -3.85 -97.61 M-3.85 -97.61 C-3.1 -98.07, -2.36 -98.54, -1.94 -98.8 M-3.85 -97.61 C-3.37 -97.9, -2.89 -98.2, -1.94 -98.8 M-1.94 -98.8 C-1.53 -98.95, -1.12 -99.1, 0 -99.52 M-1.94 -98.8 C-1.45 -98.98, -0.96 -99.16, 0 -99.52 M0 -99.52 C0.7 -99.6, 1.4 -99.69, 1.96 -99.76 M0 -99.52 C0.57 -99.59, 1.13 -99.66, 1.96 -99.76 M1.96 -99.76 C1.96 -79.52, 1.96 -59.28, 1.96 0.24 M1.96 -99.76 C1.96 -70.44, 1.96 -41.13, 1.96 0.24 M1.96 0.24 C1.41 0.17, 0.87 0.11, 0 0 M1.96 0.24 C1.26 0.15, 0.55 0.07, 0 0 M0 0 C0 0, 0 0, 0 0 M0 0 C0 0, 0 0, 0 0" stroke="#1e1e1e" stroke-width="4" fill="none"></path></g></g><mask></mask><g stroke-linecap="round" transform="translate(30 10) rotate(0 169.47726016369597 50)"><path d="M0 0 L338.95 0 L338.95 100 L0 100" stroke="none" stroke-width="0" fill="#228be6"></path><path d="M0 0 C90.84 0, 181.67 0, 338.95 0 M0 0 C122.49 0, 244.99 0, 338.95 0 M338.95 0 C338.95 21.9, 338.95 43.8, 338.95 100 M338.95 0 C338.95 31.89, 338.95 63.78, 338.95 100 M338.95 100 C230.14 100, 121.33 100, 0 100 M338.95 100 C230.9 100, 122.85 100, 0 100 M0 100 C0 69.77, 0 39.55, 0 0 M0 100 C0 67.94, 0 35.89, 0 0" stroke="transparent" stroke-width="4" fill="none"></path></g><g stroke-linecap="round"><g transform="translate(30 10) rotate(0 170 0)"><path d="M0 0 C88.11 0, 176.22 0, 340 0 M0 0 C125.76 0, 251.52 0, 340 0" stroke="#1e1e1e" stroke-width="4" fill="none"></path></g></g><mask></mask><g stroke-linecap="round"><g transform="translate(30 110) rotate(0 170 0)"><path d="M0 0 C130.18 0, 260.35 0, 340 0 M0 0 C78.08 0, 156.16 0, 340 0" stroke="#1e1e1e" stroke-width="4" fill="none"></path></g></g><mask></mask><g stroke-linecap="round" transform="translate(10 10) rotate(0 20 50)"><path d="M40 50 C40 52.61, 39.92 55.25, 39.75 57.82 C39.59 60.4, 39.34 62.97, 39.02 65.45 C38.7 67.93, 38.29 70.38, 37.82 72.7 C37.35 75.02, 36.79 77.28, 36.18 79.39 C35.57 81.5, 34.88 83.51, 34.14 85.36 C33.4 87.2, 32.6 88.92, 31.76 90.45 C30.91 91.98, 30.01 93.37, 29.08 94.55 C28.15 95.73, 27.17 96.75, 26.18 97.55 C25.19 98.36, 24.16 98.98, 23.13 99.38 C22.1 99.79, 21.04 100, 20 100 C18.96 100, 17.9 99.79, 16.87 99.38 C15.84 98.98, 14.81 98.36, 13.82 97.55 C12.83 96.75, 11.85 95.73, 10.92 94.55 C9.99 93.37, 9.09 91.98, 8.24 90.45 C7.4 88.92, 6.6 87.2, 5.86 85.36 C5.12 83.51, 4.43 81.5, 3.82 79.39 C3.21 77.28, 2.65 75.02, 2.18 72.7 C1.71 70.38, 1.3 67.93, 0.98 65.45 C0.66 62.97, 0.41 60.4, 0.25 57.82 C0.08 55.25, 0 52.61, 0 50 C0 47.39, 0.08 44.75, 0.25 42.18 C0.41 39.6, 0.66 37.03, 0.98 34.55 C1.3 32.07, 1.71 29.62, 2.18 27.3 C2.65 24.98, 3.21 22.72, 3.82 20.61 C4.43 18.5, 5.12 16.49, 5.86 14.64 C6.6 12.8, 7.4 11.08, 8.24 9.55 C9.09 8.02, 9.99 6.63, 10.92 5.45 C11.85 4.27, 12.83 3.25, 13.82 2.45 C14.81 1.64, 15.84 1.02, 16.87 0.62 C17.9 0.21, 18.96 0, 20 0 C21.04 0, 22.1 0.21, 23.13 0.62 C24.16 1.02, 25.19 1.64, 26.18 2.45 C27.17 3.25, 28.15 4.27, 29.08 5.45 C30.01 6.63, 30.91 8.02, 31.76 9.55 C32.6 11.08, 33.4 12.8, 34.14 14.64 C34.88 16.49, 35.57 18.5, 36.18 20.61 C36.79 22.72, 37.35 24.98, 37.82 27.3 C38.29 29.62, 38.7 32.07, 39.02 34.55 C39.34 37.03, 39.59 39.6, 39.75 42.18 C39.92 44.75, 39.96 48.7, 40 50 C40.04 51.3, 40.04 48.7, 40 50" stroke="none" stroke-width="0" fill="#a5d8ff"></path><path d="M40 50 C40 52.61, 39.92 55.25, 39.75 57.82 C39.59 60.4, 39.34 62.97, 39.02 65.45 C38.7 67.93, 38.29 70.38, 37.82 72.7 C37.35 75.02, 36.79 77.28, 36.18 79.39 C35.57 81.5, 34.88 83.51, 34.14 85.36 C33.4 87.2, 32.6 88.92, 31.76 90.45 C30.91 91.98, 30.01 93.37, 29.08 94.55 C28.15 95.73, 27.17 96.75, 26.18 97.55 C25.19 98.36, 24.16 98.98, 23.13 99.38 C22.1 99.79, 21.04 100, 20 100 C18.96 100, 17.9 99.79, 16.87 99.38 C15.84 98.98, 14.81 98.36, 13.82 97.55 C12.83 96.75, 11.85 95.73, 10.92 94.55 C9.99 93.37, 9.09 91.98, 8.24 90.45 C7.4 88.92, 6.6 87.2, 5.86 85.36 C5.12 83.51, 4.43 81.5, 3.82 79.39 C3.21 77.28, 2.65 75.02, 2.18 72.7 C1.71 70.38, 1.3 67.93, 0.98 65.45 C0.66 62.97, 0.41 60.4, 0.25 57.82 C0.08 55.25, 0 52.61, 0 50 C0 47.39, 0.08 44.75, 0.25 42.18 C0.41 39.6, 0.66 37.03, 0.98 34.55 C1.3 32.07, 1.71 29.62, 2.18 27.3 C2.65 24.98, 3.21 22.72, 3.82 20.61 C4.43 18.5, 5.12 16.49, 5.86 14.64 C6.6 12.8, 7.4 11.08, 8.24 9.55 C9.09 8.02, 9.99 6.63, 10.92 5.45 C11.85 4.27, 12.83 3.25, 13.82 2.45 C14.81 1.64, 15.84 1.02, 16.87 0.62 C17.9 0.21, 18.96 0, 20 0 C21.04 0, 22.1 0.21, 23.13 0.62 C24.16 1.02, 25.19 1.64, 26.18 2.45 C27.17 3.25, 28.15 4.27, 29.08 5.45 C30.01 6.63, 30.91 8.02, 31.76 9.55 C32.6 11.08, 33.4 12.8, 34.14 14.64 C34.88 16.49, 35.57 18.5, 36.18 20.61 C36.79 22.72, 37.35 24.98, 37.82 27.3 C38.29 29.62, 38.7 32.07, 39.02 34.55 C39.34 37.03, 39.59 39.6, 39.75 42.18 C39.92 44.75, 39.96 48.7, 40 50 C40.04 51.3, 40.04 48.7, 40 50" stroke="#1e1e1e" stroke-width="4" fill="none"></path></g><g stroke-linecap="round" transform="translate(356.85044129096593 10) rotate(0 6.574779354517034 48.782432288965865)"><path d="M0 0 L13.15 0 L13.15 97.56 L0 97.56" stroke="none" stroke-width="0" fill="#228be6"></path><path d="M0 0 C4.29 0, 8.57 0, 13.15 0 M0 0 C4 0, 8 0, 13.15 0 M13.15 0 C13.15 24.52, 13.15 49.04, 13.15 97.56 M13.15 0 C13.15 37.63, 13.15 75.25, 13.15 97.56 M13.15 97.56 C9.72 97.56, 6.3 97.56, 0 97.56 M13.15 97.56 C9.39 97.56, 5.63 97.56, 0 97.56 M0 97.56 C0 69.51, 0 41.46, 0 0 M0 97.56 C0 67.67, 0 37.77, 0 0" stroke="transparent" stroke-width="4" fill="none"></path></g></svg>