<svg version="1.1" xmlns="http://www.w3.org/2000/svg" viewBox="0 0 400 220.0000000000004" width="400" height="220.0000000000004" filter="invert(93%) hue-rotate(180deg)" class="excalidraw-svg"><!-- svg-source:excalidraw --><metadata></metadata><defs><style class="style-fonts">
      </style></defs><g stroke-linecap="round"><g transform="translate(50.00000000000003 30) rotate(0 30 70)"><path d="M0 0 C4.14 3.78, 14.82 -0.66, 24.82 22.68 C34.82 46.01, 54.14 120.45, 60 140" stroke="#1e1e1e" stroke-width="2.5" fill="none" stroke-dasharray="8 10"></path></g></g><mask></mask><g stroke-linecap="round" transform="translate(10.000000000000028 170.00000000000023) rotate(359.99999999999994 190 19.99999999999997)"><path d="M0 0 C0 0, 0 0, 0 0 M0 0 C0 0, 0 0, 0 0 M0.27 24.08 C6.09 17.38, 11.92 10.68, 21.26 -0.07 M0.27 24.08 C6.93 16.41, 13.6 8.74, 21.26 -0.07 M7.09 40.62 C19.32 26.55, 31.54 12.49, 42.52 -0.14 M7.09 40.62 C18.19 27.85, 29.28 15.09, 42.52 -0.14 M28.35 40.55 C37.24 30.33, 46.12 20.11, 63.78 -0.21 M28.35 40.55 C41.61 25.29, 54.87 10.04, 63.78 -0.21 M49.61 40.48 C59.22 29.42, 68.83 18.37, 85.04 -0.28 M49.61 40.48 C61.33 27, 73.05 13.51, 85.04 -0.28 M70.87 40.41 C78.92 31.16, 86.96 21.91, 106.3 -0.34 M70.87 40.41 C79.46 30.53, 88.05 20.66, 106.3 -0.34 M92.13 40.34 C104.67 25.91, 117.21 11.49, 126.91 0.34 M92.13 40.34 C101.51 29.55, 110.89 18.76, 126.91 0.34 M113.39 40.27 C124.34 27.68, 135.28 15.09, 148.17 0.27 M113.39 40.27 C122 30.38, 130.6 20.48, 148.17 0.27 M134.65 40.2 C141.96 31.8, 149.26 23.4, 169.43 0.2 M134.65 40.2 C146.99 26.01, 159.32 11.82, 169.43 0.2 M155.91 40.13 C163.7 31.18, 171.48 22.22, 190.69 0.13 M155.91 40.13 C165.94 28.6, 175.97 17.06, 190.69 0.13 M176.52 40.82 C186 29.91, 195.49 18.99, 211.95 0.06 M176.52 40.82 C188.35 27.21, 200.18 13.59, 211.95 0.06 M197.78 40.75 C210.74 25.83, 223.71 10.92, 233.21 0 M197.78 40.75 C209.75 26.98, 221.72 13.21, 233.21 0 M219.04 40.68 C230.85 27.09, 242.67 13.5, 254.47 -0.07 M219.04 40.68 C232.47 25.23, 245.91 9.77, 254.47 -0.07 M240.3 40.61 C252.85 26.18, 265.39 11.74, 275.73 -0.14 M240.3 40.61 C252.4 26.69, 264.51 12.77, 275.73 -0.14 M261.56 40.54 C270.73 30, 279.89 19.45, 296.99 -0.21 M261.56 40.54 C275.21 24.84, 288.87 9.13, 296.99 -0.21 M282.82 40.47 C293.56 28.12, 304.3 15.76, 318.25 -0.28 M282.82 40.47 C294.12 27.47, 305.42 14.47, 318.25 -0.28 M304.08 40.41 C312.81 30.36, 321.54 20.32, 339.51 -0.35 M304.08 40.41 C313.69 29.35, 323.29 18.3, 339.51 -0.35 M325.34 40.34 C336.78 27.17, 348.23 14.01, 360.11 0.34 M325.34 40.34 C334.48 29.83, 343.61 19.32, 360.11 0.34 M346.6 40.27 C358.35 26.75, 370.09 13.24, 380.06 1.78 M346.6 40.27 C355.92 29.55, 365.23 18.83, 380.06 1.78 M367.86 40.2 C370.97 36.62, 374.09 33.03, 380.33 25.86 M367.86 40.2 C370.84 36.77, 373.82 33.34, 380.33 25.86" stroke="#a5d8ff" stroke-width="2" fill="none"></path><path d="M0 0 C96.05 0, 192.11 0, 380 0 M0 0 C110.83 0, 221.66 0, 380 0 M380 0 C380 12.57, 380 25.14, 380 40 M380 0 C380 8.14, 380 16.29, 380 40 M380 40 C283.61 40, 187.22 40, 0 40 M380 40 C243.28 40, 106.56 40, 0 40 M0 40 C0 27.98, 0 15.97, 0 0 M0 40 C0 31.19, 0 22.38, 0 0" stroke="transparent" stroke-width="4" fill="none"></path></g><g stroke-linecap="round"><g transform="translate(10.000000000000028 169.99999999999977) rotate(359.99999999999994 190 3.645044526202443e-13)"><path d="M0 0 C135.18 0, 270.36 0, 380 0 M0 0 C121.95 0, 243.89 0, 380 0" stroke="#1e1e1e" stroke-width="4" fill="none"></path></g></g><mask></mask><g stroke-linecap="round" transform="translate(43.33333333333336 23.333333333333343) rotate(0.43868997161462714 6.666666666666664 6.666666666666671)"><path d="M13.33 6.67 C13.33 7.05, 13.3 7.44, 13.23 7.82 C13.17 8.2, 13.06 8.58, 12.93 8.95 C12.8 9.31, 12.63 9.67, 12.44 10 C12.25 10.33, 12.02 10.66, 11.77 10.95 C11.53 11.25, 11.25 11.53, 10.95 11.77 C10.66 12.02, 10.33 12.25, 10 12.44 C9.67 12.63, 9.31 12.8, 8.95 12.93 C8.58 13.06, 8.2 13.17, 7.82 13.23 C7.44 13.3, 7.05 13.33, 6.67 13.33 C6.28 13.33, 5.89 13.3, 5.51 13.23 C5.13 13.17, 4.75 13.06, 4.39 12.93 C4.02 12.8, 3.67 12.63, 3.33 12.44 C3 12.25, 2.68 12.02, 2.38 11.77 C2.09 11.53, 1.81 11.25, 1.56 10.95 C1.31 10.66, 1.09 10.33, 0.89 10 C0.7 9.67, 0.53 9.31, 0.4 8.95 C0.27 8.58, 0.17 8.2, 0.1 7.82 C0.03 7.44, 0 7.05, 0 6.67 C0 6.28, 0.03 5.89, 0.1 5.51 C0.17 5.13, 0.27 4.75, 0.4 4.39 C0.53 4.02, 0.7 3.67, 0.89 3.33 C1.09 3, 1.31 2.68, 1.56 2.38 C1.81 2.09, 2.09 1.81, 2.38 1.56 C2.68 1.31, 3 1.09, 3.33 0.89 C3.67 0.7, 4.02 0.53, 4.39 0.4 C4.75 0.27, 5.13 0.17, 5.51 0.1 C5.89 0.03, 6.28 0, 6.67 0 C7.05 0, 7.44 0.03, 7.82 0.1 C8.2 0.17, 8.58 0.27, 8.95 0.4 C9.31 0.53, 9.67 0.7, 10 0.89 C10.33 1.09, 10.66 1.31, 10.95 1.56 C11.25 1.81, 11.53 2.09, 11.77 2.38 C12.02 2.68, 12.25 3, 12.44 3.33 C12.63 3.67, 12.8 4.02, 12.93 4.39 C13.06 4.75, 13.17 5.13, 13.23 5.51 C13.3 5.89, 13.32 6.47, 13.33 6.67 C13.35 6.86, 13.35 6.47, 13.33 6.67" stroke="none" stroke-width="0" fill="#e03131"></path><path d="M13.33 6.67 C13.33 7.05, 13.3 7.44, 13.23 7.82 C13.17 8.2, 13.06 8.58, 12.93 8.95 C12.8 9.31, 12.63 9.67, 12.44 10 C12.25 10.33, 12.02 10.66, 11.77 10.95 C11.53 11.25, 11.25 11.53, 10.95 11.77 C10.66 12.02, 10.33 12.25, 10 12.44 C9.67 12.63, 9.31 12.8, 8.95 12.93 C8.58 13.06, 8.2 13.17, 7.82 13.23 C7.44 13.3, 7.05 13.33, 6.67 13.33 C6.28 13.33, 5.89 13.3, 5.51 13.23 C5.13 13.17, 4.75 13.06, 4.39 12.93 C4.02 12.8, 3.67 12.63, 3.33 12.44 C3 12.25, 2.68 12.02, 2.38 11.77 C2.09 11.53, 1.81 11.25, 1.56 10.95 C1.31 10.66, 1.09 10.33, 0.89 10 C0.7 9.67, 0.53 9.31, 0.4 8.95 C0.27 8.58, 0.17 8.2, 0.1 7.82 C0.03 7.44, 0 7.05, 0 6.67 C0 6.28, 0.03 5.89, 0.1 5.51 C0.17 5.13, 0.27 4.75, 0.4 4.39 C0.53 4.02, 0.7 3.67, 0.89 3.33 C1.09 3, 1.31 2.68, 1.56 2.38 C1.81 2.09, 2.09 1.81, 2.38 1.56 C2.68 1.31, 3 1.09, 3.33 0.89 C3.67 0.7, 4.02 0.53, 4.39 0.4 C4.75 0.27, 5.13 0.17, 5.51 0.1 C5.89 0.03, 6.28 0, 6.67 0 C7.05 0, 7.44 0.03, 7.82 0.1 C8.2 0.17, 8.58 0.27, 8.95 0.4 C9.31 0.53, 9.67 0.7, 10 0.89 C10.33 1.09, 10.66 1.31, 10.95 1.56 C11.25 1.81, 11.53 2.09, 11.77 2.38 C12.02 2.68, 12.25 3, 12.44 3.33 C12.63 3.67, 12.8 4.02, 12.93 4.39 C13.06 4.75, 13.17 5.13, 13.23 5.51 C13.3 5.89, 13.32 6.47, 13.33 6.67 C13.35 6.86, 13.35 6.47, 13.33 6.67" stroke="transparent" stroke-width="4" fill="none"></path></g><g stroke-linecap="round" transform="translate(30.00000000000003 10) rotate(0 20 20)"><path d="M0 0 C10.09 0, 20.18 0, 40 0 M0 0 C11.72 0, 23.43 0, 40 0 M40 0 C40 12.35, 40 24.69, 40 40 M40 0 C40 11.53, 40 23.05, 40 40 M40 40 C28.46 40, 16.92 40, 0 40 M40 40 C24.66 40, 9.31 40, 0 40 M0 40 C0 27.2, 0 14.41, 0 0 M0 40 C0 27.5, 0 15, 0 0" stroke="transparent" stroke-width="0.5" fill="none"></path></g><g stroke-linecap="round"><g transform="translate(110.00000000000003 170) rotate(0 40 -60)"><path d="M0 0 C6.67 -20, 26.67 -120, 40 -120 C53.33 -120, 73.33 -20, 80 0" stroke="#1e1e1e" stroke-width="2.5" fill="none" stroke-dasharray="8 10"></path></g></g><mask></mask><g stroke-linecap="round"><g transform="translate(190.00000000000003 170) rotate(0 40 -50)"><path d="M0 0 C6.67 -16.67, 26.67 -100, 40 -100 C53.33 -100, 73.33 -16.67, 80 0" stroke="#1e1e1e" stroke-width="2.5" fill="none" stroke-dasharray="8 10"></path></g></g><mask></mask><g stroke-linecap="round"><g transform="translate(270 170) rotate(0 40 -40)"><path d="M0 0 C6.67 -13.33, 26.67 -80, 40 -80 C53.33 -80, 73.33 -13.33, 80 0" stroke="#1e1e1e" stroke-width="2.5" fill="none" stroke-dasharray="8 10"></path></g></g><mask></mask></svg>