<svg version="1.1" xmlns="http://www.w3.org/2000/svg" viewBox="0 0 240 240" width="240" height="240" filter="invert(93%) hue-rotate(180deg)" class="excalidraw-svg">
  <!-- svg-source:excalidraw -->
  
  <defs>
    <style class="style-fonts">
      @font-face {
        font-family: "Virgil";
        src: url("https://excalidraw.com/Virgil.woff2");
      }
      @font-face {
        font-family: "Cascadia";
        src: url("https://excalidraw.com/Cascadia.woff2");
      }
      @font-face {
        font-family: "Assistant";
        src: url("https://excalidraw.com/Assistant-Regular.woff2");
      }
    </style>
    
  </defs>
  <g stroke-linecap="round"><g transform="translate(30 230) rotate(0 0 -110)"><path d="M0 0 C0 -51.09, 0 -102.18, 0 -220 M0 0 C0 -62.49, 0 -124.99, 0 -220" stroke="#1e1e1e" stroke-width="2" fill="none"/></g><g transform="translate(30 230) rotate(0 0 -110)"><path d="M0 -220 L6.34 -206.41 L-6.34 -206.41 L0 -220" stroke="none" stroke-width="0" fill="#1e1e1e" fill-rule="evenodd"/><path d="M0 -220 C1.47 -216.84, 2.94 -213.69, 6.34 -206.41 M0 -220 C1.8 -216.14, 3.6 -212.28, 6.34 -206.41 M6.34 -206.41 C2.54 -206.41, -1.27 -206.41, -6.34 -206.41 M6.34 -206.41 C2.69 -206.41, -0.95 -206.41, -6.34 -206.41 M-6.34 -206.41 C-4.96 -209.37, -3.57 -212.34, 0 -220 M-6.34 -206.41 C-4.96 -209.36, -3.58 -212.32, 0 -220 M0 -220 C0 -220, 0 -220, 0 -220 M0 -220 C0 -220, 0 -220, 0 -220" stroke="#1e1e1e" stroke-width="2" fill="none"/></g></g><mask/><g stroke-linecap="round"><g transform="translate(10 210) rotate(0 110 0)"><path d="M0 0 C47.85 0, 95.71 0, 220 0 M0 0 C77.26 0, 154.53 0, 220 0" stroke="#1e1e1e" stroke-width="2" fill="none"/></g><g transform="translate(10 210) rotate(0 110 0)"><path d="M220 0 L206.41 6.34 L206.41 -6.34 L220 0" stroke="none" stroke-width="0" fill="#1e1e1e" fill-rule="evenodd"/><path d="M220 0 C217.04 1.38, 214.09 2.76, 206.41 6.34 M220 0 C215.23 2.23, 210.45 4.45, 206.41 6.34 M206.41 6.34 C206.41 2.18, 206.41 -1.98, 206.41 -6.34 M206.41 6.34 C206.41 1.9, 206.41 -2.53, 206.41 -6.34 M206.41 -6.34 C209.32 -4.98, 212.23 -3.62, 220 0 M206.41 -6.34 C209.74 -4.78, 213.08 -3.23, 220 0 M220 0 C220 0, 220 0, 220 0 M220 0 C220 0, 220 0, 220 0" stroke="#1e1e1e" stroke-width="2" fill="none"/></g></g><mask/><g stroke-linecap="round"><g transform="translate(50 30) rotate(0 80 80)"><path d="M0 0 C3.28 23.33, -7 113.29, 19.66 139.95 C46.33 166.62, 136.61 156.66, 160 160 M0 0 C3.28 23.33, -7 113.29, 19.66 139.95 C46.33 166.62, 136.61 156.66, 160 160" stroke="#e03131" stroke-width="4" fill="none"/></g></g><mask/><g stroke-linecap="round"><g transform="translate(90 30) rotate(0 60 60)"><path d="M0 0 C2.62 17.57, -4.29 85.45, 15.71 105.45 C35.71 125.45, 102.62 117.57, 120 120 M0 0 C2.62 17.57, -4.29 85.45, 15.71 105.45 C35.71 125.45, 102.62 117.57, 120 120" stroke="#e03131" stroke-width="4" fill="none"/></g></g><mask/><g stroke-linecap="round"><g transform="translate(130 30) rotate(0 40 40)"><path d="M0 0 C1.75 11.72, -2.86 56.96, 10.47 70.3 C23.81 83.63, 68.41 78.38, 80 80 M0 0 C1.75 11.72, -2.86 56.96, 10.47 70.3 C23.81 83.63, 68.41 78.38, 80 80" stroke="#e03131" stroke-width="4" fill="none"/></g></g><mask/></svg>