<svg version="1.1" xmlns="http://www.w3.org/2000/svg" viewBox="0 0 220 200.82434746273697" width="220" height="200.82434746273697" filter="invert(93%) hue-rotate(180deg)" class="excalidraw-svg">
  <!-- svg-source:excalidraw -->
  
  <defs>
    <style class="style-fonts">
      @font-face {
        font-family: "Virgil";
        src: url("https://excalidraw.com/Virgil.woff2");
      }
      @font-face {
        font-family: "Cascadia";
        src: url("https://excalidraw.com/Cascadia.woff2");
      }
      @font-face {
        font-family: "Assistant";
        src: url("https://excalidraw.com/Assistant-Regular.woff2");
      }
    </style>
    
  </defs>
  <g stroke-linecap="round"><g transform="translate(10 10.824347462736966) rotate(0 60 50)"><path d="M0 0 C25.34 21.12, 50.69 42.24, 120 100 M0 0 C29.57 24.64, 59.14 49.28, 120 100" stroke="#1e1e1e" stroke-width="4" fill="none"/></g></g><mask/><g stroke-linecap="round"><g transform="translate(130 110.82434746273697) rotate(0 -60 20)"><path d="M0 0 C-44.43 14.81, -88.86 29.62, -120 40 M0 0 C-43.26 14.42, -86.51 28.84, -120 40" stroke="#1e1e1e" stroke-width="4" fill="none"/></g></g><mask/><g stroke-linecap="round"><g transform="translate(130 110.82434746273697) rotate(0 10 -40)"><path d="M0 0 C7.2 -28.81, 14.4 -57.61, 20 -80 M0 0 C6.98 -27.94, 13.97 -55.88, 20 -80" stroke="#1e1e1e" stroke-width="4" fill="none"/></g></g><mask/><g stroke-linecap="round"><g transform="translate(130 110.82434746273697) rotate(0 40 10)"><path d="M0 0 C23.78 5.95, 47.57 11.89, 80 20 M0 0 C20.49 5.12, 40.99 10.25, 80 20" stroke="#1e1e1e" stroke-width="4" fill="none"/></g></g><mask/><g stroke-linecap="round"><g transform="translate(130 110.82434746273697) rotate(0 0 40)"><path d="M0 0 C0 22.56, 0 45.13, 0 80 M0 0 C0 17.26, 0 34.51, 0 80" stroke="#1e1e1e" stroke-width="4" fill="none"/></g></g><mask/><g stroke-linecap="round"><g transform="translate(10 10) rotate(0 27.73320730943425 23.40703372366967)"><path d="M0 0 C11.56 9.76, 23.12 19.51, 55.47 46.81 M0 0 C12.21 10.3, 24.41 20.6, 55.47 46.81" stroke="#1e1e1e" stroke-width="4" fill="none"/></g><g transform="translate(10 10) rotate(0 27.73320730943425 23.40703372366967)"><path d="M55.47 46.81 L40.99 42.89 L49.17 33.2 L55.47 46.81" stroke="none" stroke-width="0" fill="#1e1e1e" fill-rule="evenodd"/><path d="M55.47 46.81 C52.45 46, 49.43 45.18, 40.99 42.89 M55.47 46.81 C52.28 45.95, 49.09 45.09, 40.99 42.89 M40.99 42.89 C43.27 40.19, 45.54 37.49, 49.17 33.2 M40.99 42.89 C44.15 39.15, 47.31 35.41, 49.17 33.2 M49.17 33.2 C50.47 36.01, 51.77 38.82, 55.47 46.81 M49.17 33.2 C50.75 36.63, 52.34 40.06, 55.47 46.81 M55.47 46.81 C55.47 46.81, 55.47 46.81, 55.47 46.81 M55.47 46.81 C55.47 46.81, 55.47 46.81, 55.47 46.81" stroke="#1e1e1e" stroke-width="4" fill="none"/></g></g><mask/><g stroke-linecap="round"><g transform="translate(134.50802130974378 91.86466007267782) rotate(0 5.908305202404218 -23.344261707347343)"><path d="M0 0 C4.67 -18.46, 9.34 -36.92, 11.82 -46.69 M0 0 C3.12 -12.31, 6.23 -24.63, 11.82 -46.69" stroke="#1e1e1e" stroke-width="4" fill="none"/></g><g transform="translate(134.50802130974378 91.86466007267782) rotate(0 5.908305202404218 -23.344261707347343)"><path d="M11.82 -46.69 L14.63 -31.95 L2.34 -35.06 L11.82 -46.69" stroke="none" stroke-width="0" fill="#1e1e1e" fill-rule="evenodd"/><path d="M11.82 -46.69 C12.93 -40.86, 14.04 -35.04, 14.63 -31.95 M11.82 -46.69 C12.56 -42.8, 13.3 -38.92, 14.63 -31.95 M14.63 -31.95 C9.88 -33.16, 5.14 -34.36, 2.34 -35.06 M14.63 -31.95 C10.92 -32.89, 7.22 -33.83, 2.34 -35.06 M2.34 -35.06 C5.95 -39.5, 9.57 -43.94, 11.82 -46.69 M2.34 -35.06 C4.76 -38.04, 7.18 -41.01, 11.82 -46.69 M11.82 -46.69 C11.82 -46.69, 11.82 -46.69, 11.82 -46.69 M11.82 -46.69 C11.82 -46.69, 11.82 -46.69, 11.82 -46.69" stroke="#1e1e1e" stroke-width="4" fill="none"/></g></g><mask/><g stroke-linecap="round"><g transform="translate(30.789327620839543 143.8535558123926) rotate(0 26.527971553492293 -8.669271749507274)"><path d="M0 0 C11.61 -3.79, 23.22 -7.59, 53.06 -17.34 M0 0 C13.85 -4.53, 27.71 -9.05, 53.06 -17.34" stroke="#1e1e1e" stroke-width="4" fill="none"/></g><g transform="translate(30.789327620839543 143.8535558123926) rotate(0 26.527971553492293 -8.669271749507274)"><path d="M53.06 -17.34 L42.1 -7.09 L38.16 -19.14 L53.06 -17.34" stroke="none" stroke-width="0" fill="#1e1e1e" fill-rule="evenodd"/><path d="M53.06 -17.34 C50.66 -15.1, 48.26 -12.85, 42.1 -7.09 M53.06 -17.34 C50.2 -14.66, 47.34 -11.99, 42.1 -7.09 M42.1 -7.09 C40.58 -11.75, 39.06 -16.42, 38.16 -19.14 M42.1 -7.09 C41.29 -9.56, 40.49 -12.04, 38.16 -19.14 M38.16 -19.14 C42.69 -18.59, 47.22 -18.05, 53.06 -17.34 M38.16 -19.14 C43.22 -18.53, 48.27 -17.92, 53.06 -17.34 M53.06 -17.34 C53.06 -17.34, 53.06 -17.34, 53.06 -17.34 M53.06 -17.34 C53.06 -17.34, 53.06 -17.34, 53.06 -17.34" stroke="#1e1e1e" stroke-width="4" fill="none"/></g></g><mask/><g stroke-linecap="round"><g transform="translate(130 110.6476783311629) rotate(0 -3.552713678800501e-15 30.8205444098068)"><path d="M0 0 C0 16.11, 0 32.22, 0 61.64 M0 0 C0 19.22, 0 38.45, 0 61.64" stroke="#1e1e1e" stroke-width="4" fill="none"/></g><g transform="translate(130 110.6476783311629) rotate(0 -3.552713678800501e-15 30.8205444098068)"><path d="M0 61.64 L-6.34 48.05 L6.34 48.05 L0 61.64" stroke="none" stroke-width="0" fill="#1e1e1e" fill-rule="evenodd"/><path d="M0 61.64 C-1.66 58.09, -3.31 54.54, -6.34 48.05 M0 61.64 C-1.98 57.4, -3.95 53.16, -6.34 48.05 M-6.34 48.05 C-1.37 48.05, 3.6 48.05, 6.34 48.05 M-6.34 48.05 C-2.35 48.05, 1.63 48.05, 6.34 48.05 M6.34 48.05 C4.87 51.2, 3.4 54.35, 0 61.64 M6.34 48.05 C4.49 52.02, 2.63 56, 0 61.64 M0 61.64 C0 61.64, 0 61.64, 0 61.64 M0 61.64 C0 61.64, 0 61.64, 0 61.64" stroke="#1e1e1e" stroke-width="4" fill="none"/></g></g><mask/><g stroke-linecap="round"><g transform="translate(129.27225469524234 110.82434746273697) rotate(0 26.00781524852185 6.458248945399362)"><path d="M0 0 C16.85 4.18, 33.69 8.37, 52.02 12.92 M0 0 C14.79 3.67, 29.58 7.35, 52.02 12.92" stroke="#1e1e1e" stroke-width="4" fill="none"/></g><g transform="translate(129.27225469524234 110.82434746273697) rotate(0 26.00781524852185 6.458248945399362)"><path d="M52.02 12.92 L37.29 15.79 L40.35 3.49 L52.02 12.92" stroke="none" stroke-width="0" fill="#1e1e1e" fill-rule="evenodd"/><path d="M52.02 12.92 C47.25 13.85, 42.48 14.78, 37.29 15.79 M52.02 12.92 C47.83 13.73, 43.64 14.55, 37.29 15.79 M37.29 15.79 C38.09 12.59, 38.88 9.39, 40.35 3.49 M37.29 15.79 C38.19 12.2, 39.08 8.6, 40.35 3.49 M40.35 3.49 C44.55 6.88, 48.74 10.27, 52.02 12.92 M40.35 3.49 C42.89 5.54, 45.42 7.59, 52.02 12.92 M52.02 12.92 C52.02 12.92, 52.02 12.92, 52.02 12.92 M52.02 12.92 C52.02 12.92, 52.02 12.92, 52.02 12.92" stroke="#1e1e1e" stroke-width="4" fill="none"/></g></g><mask/></svg>