<svg version="1.1" xmlns="http://www.w3.org/2000/svg" viewBox="0 0 282.4329833984375 196.3929443359375" width="282.4329833984375" height="196.3929443359375" filter="invert(93%) hue-rotate(180deg)">
  <!-- svg-source:excalidraw -->
  
  <defs>
    <style class="style-fonts">
      @font-face {
        font-family: "Virgil";
        src: url("https://excalidraw.com/Virgil.woff2");
      }
      @font-face {
        font-family: "Cascadia";
        src: url("https://excalidraw.com/Cascadia.woff2");
      }
    </style>
  </defs>
  <rect x="0" y="0" width="282.4329833984375" height="196.3929443359375" fill="transparent"/><g transform="translate(143.713623046875 69.53009033203125) rotate(0 -12.0528564453125 14.982437133789062)" stroke="none"><path fill="#000000" d="M -0.96,1.52 Q -0.96,1.52 -3.39,0.61 -5.81,-0.29 -7.02,-0.20 -8.22,-0.10 -8.92,0.96 -9.63,2.03 -8.59,4.72 -7.55,7.42 -6.56,9.99 -5.57,12.57 -4.80,15.65 -4.04,18.73 -3.74,21.88 -3.45,25.04 -4.33,28.07 -5.22,31.10 -7.55,33.30 -9.88,35.51 -13.24,36.21 -16.60,36.91 -19.45,35.91 -22.31,34.90 -23.18,33.89 -24.06,32.88 -24.42,32.67 -24.77,32.47 -25.07,32.18 -25.37,31.89 -25.59,31.54 -25.81,31.19 -25.94,30.80 -26.07,30.41 -26.11,30.00 -26.14,29.58 -26.07,29.17 -26.01,28.77 -25.85,28.39 -25.68,28.00 -25.43,27.67 -25.18,27.34 -24.86,27.08 -24.54,26.82 -24.17,26.64 -23.80,26.47 -23.39,26.38 -22.98,26.30 -22.57,26.32 -22.16,26.34 -21.76,26.45 -21.36,26.57 -19.42,27.40 -17.48,28.23 -17.28,28.31 -17.08,28.39 -16.92,28.52 -16.75,28.66 -16.64,28.84 -16.53,29.02 -16.49,29.23 -16.44,29.43 -16.46,29.65 -16.48,29.86 -16.57,30.05 -16.66,30.24 -16.80,30.40 -16.95,30.55 -17.13,30.66 -17.32,30.76 -17.53,30.79 -17.74,30.83 -17.95,30.80 -18.16,30.76 -18.35,30.67 -18.53,30.57 -18.68,30.41 -18.83,30.26 -18.92,30.07 -19.01,29.88 -19.04,29.67 -19.06,29.46 -19.02,29.25 -18.97,29.04 -18.86,28.86 -18.76,28.67 -18.60,28.54 -18.43,28.40 -18.24,28.32 -18.04,28.24 -17.83,28.22 -17.62,28.21 -17.41,28.26 -17.21,28.32 -17.03,28.44 -16.85,28.56 -16.72,28.72 -16.59,28.89 -16.52,29.09 -16.45,29.29 -16.45,29.51 -16.45,29.72 -16.52,29.92 -16.58,30.12 -16.71,30.29 -16.84,30.46 -17.01,30.58 -17.19,30.70 -17.39,30.76 -17.60,30.82 -17.81,30.81 -18.02,30.80 -18.02,30.80 -18.02,30.80 -19.36,30.90 -20.71,31.00 -22.38,31.94 -24.06,32.88 -24.42,32.67 -24.77,32.47 -25.07,32.18 -25.37,31.89 -25.59,31.54 -25.81,31.19 -25.94,30.80 -26.07,30.41 -26.11,30.00 -26.14,29.58 -26.07,29.18 -26.01,28.77 -25.85,28.39 -25.68,28.01 -25.43,27.67 -25.19,27.34 -24.86,27.08 -24.54,26.82 -24.17,26.64 -23.80,26.47 -23.39,26.38 -22.98,26.30 -22.57,26.32 -22.16,26.33 -21.76,26.45 -21.36,26.57 -20.36,27.58 -19.35,28.59 -18.23,29.28 -17.11,29.97 -15.52,29.90 -13.94,29.82 -12.75,29.10 -11.56,28.39 -10.93,26.89 -10.29,25.39 -10.47,22.84 -10.65,20.30 -11.27,17.63 -11.88,14.96 -12.88,12.28 -13.88,9.61 -14.71,6.99 -15.55,4.38 -15.48,1.89 -15.42,-0.60 -14.00,-2.56 -12.58,-4.51 -10.33,-5.34 -8.07,-6.17 -5.53,-5.73 -2.98,-5.29 -1.01,-3.40 0.96,-1.52 1.13,-1.38 1.30,-1.24 1.43,-1.07 1.56,-0.89 1.64,-0.69 1.73,-0.49 1.76,-0.28 1.80,-0.06 1.78,0.14 1.76,0.36 1.69,0.56 1.62,0.77 1.51,0.95 1.39,1.14 1.23,1.29 1.08,1.44 0.89,1.55 0.70,1.66 0.49,1.72 0.28,1.78 0.06,1.78 -0.14,1.79 -0.36,1.75 -0.57,1.70 -0.77,1.61 -0.96,1.52 -0.96,1.52 L -0.96,1.52 Z"/></g><g transform="translate(167.885986328125 91.37112426757812) rotate(0 21.77508544921875 13.950302124023438)" stroke="none"><path fill="#000000" d="M 1.08,-1.51 Q 1.08,-1.51 5.60,1.21 10.12,3.95 14.37,7.12 18.62,10.29 22.99,13.45 27.37,16.61 31.66,19.36 35.95,22.12 39.29,24.04 42.62,25.96 42.79,26.08 42.96,26.21 43.08,26.38 43.21,26.55 43.27,26.76 43.33,26.96 43.32,27.17 43.31,27.39 43.24,27.59 43.17,27.78 43.03,27.95 42.90,28.11 42.72,28.23 42.54,28.34 42.33,28.39 42.13,28.44 41.91,28.42 41.70,28.40 41.51,28.32 41.31,28.23 41.16,28.09 41.00,27.95 40.89,27.76 40.79,27.58 40.75,27.37 40.71,27.16 40.74,26.95 40.77,26.74 40.87,26.55 40.96,26.36 41.12,26.21 41.27,26.06 41.46,25.97 41.65,25.87 41.86,25.85 42.07,25.82 42.28,25.86 42.49,25.90 42.67,26.01 42.85,26.11 43.00,26.27 43.14,26.43 43.22,26.63 43.30,26.82 43.32,27.03 43.33,27.25 43.28,27.45 43.23,27.66 43.11,27.84 43.00,28.01 42.83,28.15 42.67,28.28 42.47,28.35 42.27,28.42 42.05,28.43 41.84,28.43 41.64,28.37 41.44,28.31 41.44,28.31 41.44,28.31 37.88,26.76 34.32,25.22 29.31,23.07 24.30,20.91 19.84,17.75 15.39,14.59 11.21,11.44 7.02,8.29 2.97,4.90 -1.08,1.51 -1.24,1.36 -1.41,1.21 -1.53,1.02 -1.66,0.83 -1.74,0.62 -1.81,0.41 -1.84,0.19 -1.86,-0.03 -1.83,-0.25 -1.80,-0.47 -1.71,-0.68 -1.63,-0.89 -1.50,-1.07 -1.37,-1.25 -1.20,-1.40 -1.03,-1.55 -0.83,-1.65 -0.63,-1.75 -0.41,-1.80 -0.19,-1.85 0.02,-1.85 0.25,-1.84 0.47,-1.78 0.68,-1.73 0.88,-1.62 1.08,-1.51 1.08,-1.51 L 1.08,-1.51 Z"/></g><g transform="translate(106.55615234375 92.17019653320312) rotate(0 -16.51446533203125 16.314193725585938)" stroke="none"><path fill="#000000" d="M 1.25,1.32 Q 1.25,1.32 -7.18,9.91 -15.62,18.50 -20.51,22.64 -25.41,26.77 -27.34,28.71 -29.27,30.64 -29.44,30.77 -29.61,30.89 -29.81,30.96 -30.01,31.02 -30.23,31.02 -30.44,31.02 -30.64,30.95 -30.84,30.88 -31.01,30.75 -31.18,30.62 -31.29,30.44 -31.41,30.26 -31.46,30.06 -31.52,29.85 -31.50,29.64 -31.49,29.43 -31.41,29.23 -31.33,29.03 -31.19,28.87 -31.05,28.71 -30.87,28.61 -30.68,28.50 -30.48,28.46 -30.27,28.41 -30.06,28.44 -29.85,28.46 -29.65,28.55 -29.46,28.65 -29.31,28.79 -29.16,28.94 -29.06,29.13 -28.96,29.32 -28.93,29.53 -28.90,29.74 -28.94,29.95 -28.97,30.16 -29.07,30.35 -29.18,30.53 -29.33,30.68 -29.49,30.82 -29.68,30.91 -29.88,30.99 -30.09,31.01 -30.30,31.03 -30.51,30.99 -30.71,30.94 -30.89,30.83 -31.07,30.72 -31.21,30.55 -31.35,30.39 -31.42,30.19 -31.50,29.99 -31.51,29.78 -31.52,29.57 -31.46,29.36 -31.40,29.16 -31.28,28.98 -31.15,28.81 -31.15,28.81 -31.15,28.81 -29.28,26.82 -27.41,24.83 -23.35,19.74 -19.29,14.64 -10.27,6.66 -1.25,-1.32 -1.08,-1.45 -0.90,-1.58 -0.70,-1.67 -0.49,-1.75 -0.28,-1.79 -0.06,-1.82 0.15,-1.80 0.37,-1.78 0.58,-1.71 0.79,-1.64 0.97,-1.52 1.16,-1.40 1.31,-1.24 1.46,-1.08 1.57,-0.89 1.68,-0.70 1.74,-0.49 1.80,-0.28 1.81,-0.06 1.81,0.15 1.77,0.37 1.72,0.58 1.63,0.78 1.53,0.98 1.39,1.15 1.25,1.32 1.25,1.32 L 1.25,1.32 Z"/></g><g transform="translate(163.6241455078125 99.16195678710938) rotate(0 16.61431884765625 14.0501708984375)" stroke="none"><path fill="#000000" d="M 1.03,-1.53 Q 1.03,-1.53 3.34,-0.48 5.64,0.55 8.46,2.68 11.28,4.81 14.50,7.71 17.73,10.62 21.04,13.84 24.35,17.07 26.94,20.15 29.53,23.23 30.83,24.34 32.13,25.46 32.27,25.62 32.41,25.78 32.49,25.98 32.57,26.18 32.58,26.39 32.59,26.60 32.54,26.81 32.48,27.01 32.36,27.19 32.24,27.36 32.08,27.49 31.91,27.62 31.71,27.69 31.50,27.76 31.29,27.76 31.08,27.76 30.88,27.70 30.68,27.63 30.51,27.50 30.34,27.37 30.22,27.20 30.10,27.02 30.04,26.82 29.98,26.61 29.99,26.40 30.00,26.19 30.08,25.99 30.16,25.79 30.29,25.63 30.43,25.47 30.61,25.36 30.79,25.25 31.00,25.20 31.21,25.15 31.42,25.18 31.63,25.20 31.82,25.29 32.02,25.37 32.17,25.52 32.33,25.67 32.43,25.85 32.53,26.04 32.56,26.25 32.60,26.46 32.57,26.67 32.53,26.88 32.43,27.07 32.34,27.26 32.18,27.40 32.03,27.55 31.84,27.64 31.64,27.73 31.43,27.75 31.22,27.78 31.01,27.73 30.81,27.69 30.62,27.58 30.44,27.47 30.44,27.47 30.44,27.47 29.12,26.38 27.79,25.29 24.22,23.18 20.64,21.08 17.19,18.04 13.73,15.00 10.67,12.17 7.62,9.35 5.12,7.19 2.62,5.03 0.79,3.28 -1.03,1.53 -1.20,1.38 -1.37,1.23 -1.50,1.05 -1.62,0.87 -1.71,0.66 -1.79,0.46 -1.82,0.23 -1.84,0.01 -1.82,-0.20 -1.79,-0.42 -1.72,-0.63 -1.64,-0.84 -1.52,-1.02 -1.39,-1.21 -1.23,-1.36 -1.06,-1.51 -0.86,-1.61 -0.67,-1.72 -0.45,-1.77 -0.24,-1.83 -0.01,-1.83 0.20,-1.83 0.42,-1.78 0.63,-1.73 0.83,-1.63 1.03,-1.53 1.03,-1.53 L 1.03,-1.53 Z"/></g><g transform="translate(111.6170654296875 100.42715454101562) rotate(0 -11.287109375 13.117935180664062)" stroke="none"><path fill="#000000" d="M 1.24,1.14 Q 1.24,1.14 -0.91,3.53 -3.08,5.92 -5.56,8.44 -8.03,10.97 -10.59,13.53 -13.15,16.10 -15.12,18.65 -17.10,21.21 -18.92,23.54 -20.74,25.86 -20.89,26.02 -21.03,26.17 -21.22,26.27 -21.41,26.37 -21.61,26.41 -21.82,26.44 -22.03,26.41 -22.24,26.38 -22.43,26.28 -22.62,26.18 -22.77,26.03 -22.91,25.87 -23.00,25.68 -23.09,25.49 -23.12,25.28 -23.14,25.07 -23.10,24.86 -23.05,24.65 -22.94,24.47 -22.84,24.28 -22.67,24.15 -22.51,24.01 -22.32,23.93 -22.12,23.85 -21.91,23.84 -21.70,23.82 -21.49,23.88 -21.29,23.94 -21.11,24.05 -20.93,24.17 -20.80,24.34 -20.67,24.51 -20.60,24.71 -20.54,24.91 -20.53,25.12 -20.53,25.34 -20.60,25.54 -20.67,25.74 -20.80,25.91 -20.92,26.08 -21.10,26.20 -21.27,26.32 -21.48,26.38 -21.68,26.43 -21.89,26.42 -22.11,26.41 -22.30,26.34 -22.50,26.26 -22.67,26.12 -22.83,25.98 -22.94,25.80 -23.05,25.62 -23.10,25.41 -23.14,25.21 -23.12,25.00 -23.10,24.78 -23.01,24.59 -22.92,24.40 -22.92,24.40 -22.92,24.40 -21.39,21.73 -19.87,19.06 -17.75,16.34 -15.63,13.62 -13.08,11.07 -10.52,8.52 -8.08,6.05 -5.64,3.57 -3.44,1.21 -1.24,-1.14 -1.09,-1.28 -0.93,-1.41 -0.75,-1.50 -0.57,-1.59 -0.37,-1.64 -0.17,-1.68 0.03,-1.68 0.23,-1.68 0.43,-1.62 0.63,-1.57 0.81,-1.47 0.98,-1.37 1.14,-1.24 1.29,-1.10 1.40,-0.93 1.51,-0.76 1.58,-0.56 1.65,-0.37 1.67,-0.17 1.69,0.03 1.66,0.23 1.64,0.43 1.56,0.62 1.48,0.81 1.36,0.98 1.24,1.14 1.24,1.14 L 1.24,1.14 Z"/></g><g transform="translate(243.3995361328125 137.05084228515625) rotate(0 -10.42138671875 1.9310302734375)" stroke="none"><path fill="#000000" d="M -1.58,0.39 Q -1.58,0.39 -2.89,-3.09 -4.20,-6.59 -5.21,-9.02 -6.21,-11.46 -7.94,-11.54 -9.66,-11.62 -11.38,-9.74 -13.09,-7.87 -14.55,-4.78 -16.01,-1.70 -16.79,1.93 -17.58,5.57 -17.23,8.80 -16.87,12.04 -15.50,13.83 -14.13,15.63 -12.20,16.07 -10.26,16.51 -8.47,15.77 -6.68,15.04 -5.58,13.36 -4.49,11.69 -3.98,9.72 -3.47,7.75 -3.74,6.07 -4.02,4.39 -4.47,3.18 -4.93,1.97 -4.00,1.22 -3.08,0.48 -3.16,0.34 -3.24,0.20 -3.28,0.05 -3.33,-0.09 -3.33,-0.25 -3.34,-0.41 -3.31,-0.56 -3.28,-0.72 -3.22,-0.86 -3.15,-1.00 -3.05,-1.13 -2.95,-1.25 -2.83,-1.35 -2.70,-1.44 -2.55,-1.51 -2.41,-1.57 -2.25,-1.60 -2.10,-1.62 -1.94,-1.61 -1.78,-1.60 -1.63,-1.55 -1.48,-1.50 -1.35,-1.42 -1.21,-1.34 -1.10,-1.22 -0.99,-1.11 -1.21,-1.29 -1.43,-1.48 -1.26,-1.35 -1.09,-1.22 -0.97,-1.05 -0.84,-0.87 -0.79,-0.67 -0.73,-0.46 -0.74,-0.25 -0.75,-0.04 -0.82,0.15 -0.90,0.35 -1.04,0.51 -1.17,0.67 -1.36,0.78 -1.54,0.89 -1.74,0.94 -1.95,0.99 -2.16,0.97 -2.37,0.95 -2.57,0.86 -2.76,0.77 -2.92,0.63 -3.07,0.48 -3.17,0.29 -3.27,0.11 -3.31,-0.09 -3.35,-0.30 -3.31,-0.51 -3.28,-0.72 -3.18,-0.91 -3.08,-1.10 -2.93,-1.25 -2.78,-1.39 -2.59,-1.48 -2.39,-1.58 -2.18,-1.60 -1.97,-1.62 -1.76,-1.58 -1.56,-1.54 -1.37,-1.43 -1.19,-1.32 -1.05,-1.16 -0.91,-1.00 -0.83,-0.80 -0.75,-0.60 -0.74,-0.39 -0.73,-0.18 -0.78,0.01 -0.84,0.22 -0.95,0.40 -1.07,0.57 -1.24,0.70 -1.41,0.83 -1.61,0.90 -1.81,0.97 -2.02,0.97 -2.24,0.98 -2.66,0.73 -3.07,0.48 -3.16,0.34 -3.24,0.20 -3.28,0.05 -3.33,-0.09 -3.33,-0.25 -3.34,-0.41 -3.31,-0.56 -3.28,-0.72 -3.22,-0.86 -3.15,-1.00 -3.05,-1.13 -2.95,-1.25 -2.83,-1.35 -2.70,-1.44 -2.55,-1.51 -2.41,-1.57 -2.25,-1.60 -2.10,-1.62 -1.94,-1.61 -1.78,-1.60 -1.63,-1.55 -1.48,-1.50 -1.35,-1.42 -1.21,-1.34 -1.10,-1.22 -0.99,-1.11 -1.38,-0.78 -1.77,-0.44 0.08,1.36 1.94,3.16 2.33,6.33 2.71,9.49 1.54,12.61 0.37,15.74 -2.13,18.12 -4.63,20.50 -8.07,21.20 -11.50,21.90 -14.83,20.58 -18.17,19.26 -20.27,16.11 -22.37,12.96 -22.81,8.70 -23.25,4.43 -22.29,0.07 -21.33,-4.28 -19.32,-8.22 -17.30,-12.16 -14.27,-14.73 -11.24,-17.31 -8.35,-17.48 -5.46,-17.64 -3.33,-15.57 -1.20,-13.49 -0.29,-10.64 0.60,-7.80 1.09,-4.09 1.58,-0.39 1.61,-0.20 1.63,-0.00 1.61,0.19 1.59,0.38 1.52,0.57 1.45,0.75 1.34,0.91 1.22,1.08 1.08,1.21 0.93,1.34 0.76,1.43 0.58,1.52 0.39,1.57 0.20,1.62 0.00,1.62 -0.19,1.62 -0.38,1.57 -0.57,1.53 -0.75,1.44 -0.92,1.35 -1.07,1.22 -1.22,1.09 -1.33,0.92 -1.44,0.76 -1.51,0.58 -1.58,0.39 -1.58,0.39 L -1.58,0.39 Z"/></g><g transform="translate(258.71533203125 128.39434814453125) rotate(0 -0.3995361328125 0.5659942626953125)" stroke="none"><path fill="#000000" d="M 2.51,-0.78 Q 2.51,-0.78 2.55,-0.15 2.59,0.47 2.33,1.04 2.07,1.62 1.57,2.01 1.08,2.40 0.46,2.51 -0.15,2.62 -0.76,2.44 -1.36,2.25 -1.80,1.80 -2.25,1.36 -2.44,0.76 -2.62,0.15 -2.51,-0.46 -2.40,-1.08 -2.01,-1.57 -1.62,-2.07 -1.04,-2.33 -0.47,-2.59 0.15,-2.55 0.78,-2.51 1.32,-2.18 1.86,-1.86 2.18,-1.32 L 2.51,-0.78 Z"/></g><g transform="translate(260.2469482421875 144.442138671875) rotate(0 -0.1331787109375 -0.3662261962890625)" stroke="none"><path fill="#000000" d="M 2.31,-0.72 Q 2.31,-0.72 2.34,-0.14 2.38,0.43 2.14,0.96 1.90,1.49 1.44,1.85 0.99,2.20 0.42,2.31 -0.14,2.41 -0.69,2.24 -1.25,2.07 -1.66,1.66 -2.07,1.25 -2.24,0.69 -2.41,0.14 -2.31,-0.42 -2.20,-0.99 -1.84,-1.44 -1.49,-1.90 -0.96,-2.14 -0.43,-2.38 0.14,-2.34 0.72,-2.31 1.21,-2.01 1.71,-1.71 2.01,-1.21 L 2.31,-0.72 Z"/></g><g transform="translate(232.0126953125 176.87075805664062) rotate(0 0.06646728515625 0.5659942626953125)" stroke="none"><path fill="#000000" d="M 2.27,-0.71 Q 2.27,-0.71 2.31,-0.13 2.34,0.43 2.11,0.95 1.87,1.47 1.42,1.82 0.97,2.17 0.41,2.28 -0.14,2.38 -0.68,2.21 -1.23,2.04 -1.63,1.63 -2.04,1.23 -2.21,0.68 -2.38,0.14 -2.28,-0.41 -2.17,-0.98 -1.82,-1.42 -1.47,-1.87 -0.95,-2.11 -0.42,-2.34 0.14,-2.31 0.71,-2.27 1.19,-1.98 1.68,-1.68 1.98,-1.19 L 2.27,-0.71 Z"/></g><g transform="translate(219.8931884765625 173.0751953125) rotate(0 -0.26641845703125 1.698028564453125)" stroke="none"><path fill="#000000" d="M 2.04,-0.63 Q 2.04,-0.63 2.07,-0.12 2.10,0.38 1.89,0.85 1.68,1.32 1.28,1.63 0.87,1.95 0.37,2.04 -0.12,2.13 -0.61,1.98 -1.10,1.83 -1.47,1.47 -1.83,1.10 -1.98,0.61 -2.13,0.12 -2.04,-0.37 -1.95,-0.87 -1.63,-1.28 -1.32,-1.68 -0.85,-1.89 -0.38,-2.10 0.12,-2.07 0.63,-2.04 1.07,-1.78 1.51,-1.51 1.78,-1.07 L 2.04,-0.63 Z"/></g><g transform="translate(60.9417724609375 140.44686889648438) rotate(0 -9.22283935546875 4.92755126953125)" stroke="none"><path fill="#000000" d="M -1.19,1.33 Q -1.19,1.33 -4.17,-0.68 -7.14,-2.70 -9.26,-3.26 -11.37,-3.83 -13.29,-2.79 -15.20,-1.75 -16.51,0.05 -17.82,1.86 -17.98,4.10 -18.14,6.33 -17.07,8.38 -16.01,10.42 -13.92,11.60 -11.83,12.79 -9.36,12.86 -6.88,12.93 -4.89,11.80 -2.89,10.68 -1.70,8.76 -0.51,6.83 -0.19,5.21 0.12,3.59 -0.48,1.52 -1.10,-0.54 -1.05,-0.69 -1.00,-0.84 -0.91,-0.97 -0.82,-1.11 -0.71,-1.22 -0.59,-1.32 -0.46,-1.40 -0.32,-1.48 -0.16,-1.52 -0.01,-1.56 0.14,-1.57 0.29,-1.57 0.45,-1.54 0.60,-1.50 0.75,-1.43 0.89,-1.36 1.01,-1.26 1.13,-1.16 1.22,-1.03 1.32,-0.91 1.38,-0.76 1.44,-0.61 1.46,-0.46 1.49,-0.30 1.47,-0.14 1.46,0.01 1.22,0.38 0.98,0.76 0.79,0.86 0.61,0.97 0.40,1.00 0.19,1.04 -0.01,1.01 -0.22,0.98 -0.41,0.88 -0.60,0.78 -0.75,0.63 -0.90,0.48 -0.99,0.29 -1.08,0.09 -1.10,-0.11 -1.13,-0.32 -1.09,-0.53 -1.04,-0.73 -0.94,-0.92 -0.83,-1.10 -0.67,-1.24 -0.51,-1.38 -0.31,-1.46 -0.12,-1.54 0.09,-1.56 0.30,-1.57 0.50,-1.52 0.71,-1.46 0.89,-1.35 1.06,-1.23 1.19,-1.06 1.32,-0.89 1.40,-0.69 1.47,-0.49 1.47,-0.28 1.47,-0.07 1.41,0.12 1.34,0.33 1.21,0.50 1.09,0.67 0.91,0.79 0.74,0.91 0.53,0.97 0.33,1.03 0.12,1.02 -0.08,1.01 -0.28,0.94 -0.48,0.86 -0.64,0.72 -0.81,0.59 -0.92,0.41 -1.03,0.23 -1.08,0.02 -1.13,-0.18 -1.11,-0.39 -1.09,-0.60 -1.00,-0.79 -0.91,-0.99 -1.01,-0.76 -1.10,-0.54 -1.05,-0.69 -1.00,-0.84 -0.91,-0.97 -0.82,-1.11 -0.71,-1.22 -0.59,-1.32 -0.46,-1.40 -0.32,-1.48 -0.16,-1.52 -0.01,-1.56 0.14,-1.57 0.29,-1.57 0.45,-1.54 0.60,-1.50 0.75,-1.43 0.89,-1.36 1.01,-1.26 1.13,-1.16 1.22,-1.03 1.32,-0.91 1.38,-0.76 1.44,-0.61 1.46,-0.46 1.49,-0.30 1.47,-0.14 1.46,0.01 3.89,2.07 6.32,4.14 5.60,7.31 4.88,10.48 2.54,13.42 0.20,16.36 -3.40,17.86 -7.01,19.36 -11.06,18.85 -15.11,18.33 -18.38,15.89 -21.64,13.44 -23.08,9.65 -24.51,5.86 -23.71,2.03 -22.91,-1.79 -20.33,-4.62 -17.75,-7.45 -14.04,-8.48 -10.33,-9.52 -6.95,-8.23 -3.57,-6.94 -1.18,-4.13 1.19,-1.33 1.34,-1.17 1.48,-1.00 1.58,-0.81 1.68,-0.62 1.73,-0.41 1.78,-0.20 1.78,0.01 1.77,0.23 1.72,0.43 1.67,0.64 1.57,0.83 1.46,1.03 1.32,1.19 1.17,1.35 0.99,1.47 0.82,1.59 0.61,1.66 0.41,1.74 0.20,1.76 -0.01,1.79 -0.22,1.76 -0.44,1.73 -0.64,1.65 -0.84,1.58 -1.02,1.45 -1.19,1.33 -1.19,1.33 L -1.19,1.33 Z"/></g><g transform="translate(30.7095947265625 129.32656860351562) rotate(0 -0.83233642578125 0.8989410400390625)" stroke="none"><path fill="#000000" d="M 2.03,-0.63 Q 2.03,-0.63 2.06,-0.12 2.09,0.38 1.88,0.84 1.67,1.31 1.27,1.62 0.87,1.94 0.37,2.03 -0.12,2.12 -0.61,1.97 -1.10,1.82 -1.46,1.46 -1.82,1.10 -1.97,0.61 -2.12,0.12 -2.03,-0.37 -1.93,-0.87 -1.62,-1.27 -1.31,-1.67 -0.84,-1.88 -0.38,-2.09 0.12,-2.06 0.63,-2.03 1.06,-1.76 1.50,-1.50 1.76,-1.06 L 2.03,-0.63 Z"/></g><g transform="translate(21.919677734375 144.24240112304688) rotate(0 0.3995361328125 -0.898956298828125)" stroke="none"><path fill="#000000" d="M 1.71,-0.53 Q 1.71,-0.53 1.74,-0.10 1.76,0.32 1.59,0.71 1.41,1.10 1.07,1.37 0.73,1.64 0.31,1.71 -0.10,1.79 -0.51,1.66 -0.93,1.53 -1.23,1.23 -1.53,0.93 -1.66,0.51 -1.79,0.10 -1.71,-0.31 -1.64,-0.73 -1.37,-1.07 -1.10,-1.41 -0.71,-1.59 -0.32,-1.76 0.10,-1.74 0.53,-1.71 0.90,-1.49 1.27,-1.27 1.49,-0.90 L 1.71,-0.53 Z"/></g><g transform="translate(46.8245849609375 170.74462890625) rotate(0 1.66473388671875 -0.1664886474609375)" stroke="none"><path fill="#000000" d="M 1.85,-0.57 Q 1.85,-0.57 1.87,-0.11 1.90,0.34 1.71,0.77 1.52,1.19 1.16,1.48 0.79,1.76 0.33,1.85 -0.11,1.93 -0.56,1.79 -1.00,1.65 -1.33,1.33 -1.65,1.00 -1.79,0.55 -1.93,0.11 -1.85,-0.33 -1.76,-0.79 -1.48,-1.16 -1.19,-1.52 -0.77,-1.71 -0.34,-1.90 0.11,-1.87 0.57,-1.85 0.97,-1.61 1.37,-1.37 1.61,-0.97 L 1.85,-0.57 Z"/></g><g transform="translate(62.673095703125 170.478271484375) rotate(0 0.46612548828125 0.2330474853515625)" stroke="none"><path fill="#000000" d="M 1.97,-0.61 Q 1.97,-0.61 2.00,-0.12 2.03,0.37 1.83,0.82 1.63,1.27 1.24,1.58 0.85,1.88 0.36,1.97 -0.12,2.06 -0.59,1.92 -1.07,1.77 -1.42,1.42 -1.77,1.07 -1.92,0.59 -2.06,0.12 -1.97,-0.36 -1.88,-0.85 -1.58,-1.24 -1.27,-1.63 -0.82,-1.83 -0.37,-2.03 0.12,-2.00 0.61,-1.97 1.04,-1.72 1.46,-1.46 1.72,-1.04 L 1.97,-0.61 Z"/></g><g transform="translate(128.79736328125 46.490509033203125) rotate(0 1.29852294921875 0.6325836181640625)" stroke="none"><path fill="#000000" d="M 1.93,-0.60 Q 1.93,-0.60 1.96,-0.11 1.99,0.36 1.79,0.80 1.59,1.24 1.21,1.54 0.83,1.84 0.35,1.93 -0.12,2.01 -0.58,1.87 -1.04,1.73 -1.38,1.38 -1.73,1.04 -1.87,0.58 -2.01,0.12 -1.93,-0.35 -1.84,-0.83 -1.54,-1.21 -1.24,-1.59 -0.80,-1.79 -0.36,-1.99 0.11,-1.96 0.60,-1.93 1.01,-1.68 1.43,-1.43 1.68,-1.01 L 1.93,-0.60 Z"/></g><g transform="translate(144.379638671875 48.221771240234375) rotate(0 0.33294677734375 -0.3995208740234375)" stroke="none"><path fill="#000000" d="M 1.87,-0.58 Q 1.87,-0.58 1.90,-0.11 1.93,0.35 1.74,0.78 1.54,1.21 1.17,1.50 0.80,1.79 0.34,1.87 -0.11,1.96 -0.56,1.82 -1.01,1.68 -1.35,1.35 -1.68,1.01 -1.82,0.56 -1.96,0.11 -1.87,-0.34 -1.79,-0.80 -1.50,-1.17 -1.21,-1.54 -0.78,-1.74 -0.35,-1.93 0.11,-1.90 0.58,-1.87 0.98,-1.63 1.39,-1.39 1.63,-0.98 L 1.87,-0.58 Z"/></g><g transform="translate(140.583984375 14.727783203125) rotate(0 -3.06317138671875 -0.233062744140625)" stroke="none"><path fill="#c92a2a" d="M -0.69,0.36 Q -0.69,0.36 -1.58,-0.82 -2.46,-2.01 -2.98,-2.21 -3.50,-2.41 -3.93,-1.32 -4.35,-0.22 -3.97,0.44 -3.58,1.11 -2.94,1.55 -2.30,1.98 -1.68,2.01 -1.06,2.05 -1.17,1.02 -1.27,-0.00 -1.30,-0.08 -1.32,-0.16 -1.32,-0.23 -1.33,-0.31 -1.32,-0.39 -1.30,-0.47 -1.27,-0.54 -1.24,-0.61 -1.19,-0.68 -1.14,-0.74 -1.08,-0.79 -1.02,-0.84 -0.95,-0.87 -0.87,-0.90 -0.80,-0.92 -0.72,-0.93 -0.64,-0.93 -0.56,-0.93 -0.49,-0.90 -0.41,-0.88 -0.34,-0.84 -0.27,-0.80 -0.22,-0.74 -0.16,-0.69 -0.12,-0.62 -0.08,-0.55 -0.16,-0.66 -0.24,-0.77 -0.17,-0.69 -0.11,-0.61 -0.07,-0.51 -0.03,-0.41 -0.03,-0.30 -0.02,-0.20 -0.05,-0.10 -0.08,0.00 -0.14,0.08 -0.21,0.17 -0.29,0.23 -0.38,0.30 -0.48,0.33 -0.58,0.36 -0.69,0.36 -0.79,0.36 -0.89,0.32 -0.99,0.29 -1.07,0.22 -1.16,0.16 -1.22,0.07 -1.27,-0.01 -1.30,-0.12 -1.33,-0.22 -1.32,-0.32 -1.31,-0.43 -1.27,-0.53 -1.23,-0.63 -1.16,-0.71 -1.09,-0.79 -1.00,-0.84 -0.91,-0.89 -0.80,-0.91 -0.70,-0.93 -0.59,-0.92 -0.49,-0.91 -0.39,-0.86 -0.30,-0.82 -0.22,-0.74 -0.15,-0.67 -0.10,-0.57 -0.05,-0.48 -0.03,-0.37 -0.02,-0.27 -0.04,-0.16 -0.06,-0.06 -0.11,0.02 -0.16,0.12 -0.24,0.19 -0.31,0.26 -0.41,0.30 -0.51,0.35 -0.62,0.36 -0.72,0.37 -0.82,0.34 -0.93,0.32 -1.10,0.15 -1.27,-0.00 -1.30,-0.08 -1.32,-0.16 -1.32,-0.23 -1.33,-0.31 -1.32,-0.39 -1.30,-0.47 -1.27,-0.54 -1.24,-0.61 -1.19,-0.68 -1.14,-0.74 -1.08,-0.79 -1.02,-0.84 -0.95,-0.87 -0.87,-0.90 -0.80,-0.92 -0.72,-0.93 -0.64,-0.93 -0.56,-0.93 -0.49,-0.90 -0.41,-0.88 -0.34,-0.84 -0.27,-0.80 -0.22,-0.74 -0.16,-0.69 -0.12,-0.62 -0.08,-0.55 0.40,0.43 0.88,1.41 1.05,2.17 1.21,2.93 0.61,3.83 0.01,4.74 -0.94,4.90 -1.90,5.07 -3.01,4.73 -4.13,4.40 -5.23,3.39 -6.34,2.38 -6.81,0.83 -7.28,-0.71 -6.61,-2.34 -5.93,-3.97 -4.53,-4.45 -3.13,-4.94 -1.75,-4.18 -0.36,-3.42 0.16,-1.89 0.69,-0.36 0.73,-0.27 0.76,-0.18 0.77,-0.09 0.78,0.00 0.77,0.09 0.76,0.19 0.73,0.27 0.69,0.36 0.64,0.44 0.58,0.52 0.51,0.58 0.44,0.64 0.36,0.69 0.27,0.73 0.18,0.75 0.09,0.78 -0.00,0.78 -0.09,0.78 -0.18,0.75 -0.28,0.73 -0.36,0.69 -0.44,0.64 -0.52,0.58 -0.59,0.52 -0.64,0.44 -0.69,0.36 -0.69,0.36 L -0.69,0.36 Z"/></g><g transform="translate(272.4329833984375 180.86605834960938) rotate(0 -3.69573974609375 -2.596923828125)" stroke="none"><path fill="#c92a2a" d="M -0.75,0.29 Q -0.75,0.29 -1.61,-1.32 -2.46,-2.95 -3.21,-3.90 -3.96,-4.84 -4.43,-4.29 -4.91,-3.74 -5.11,-2.91 -5.31,-2.08 -4.97,-1.38 -4.64,-0.69 -3.94,-0.49 -3.25,-0.29 -2.07,-0.91 -0.89,-1.54 -0.82,-1.58 -0.76,-1.63 -0.68,-1.66 -0.61,-1.69 -0.53,-1.70 -0.45,-1.71 -0.37,-1.70 -0.30,-1.69 -0.22,-1.66 -0.15,-1.63 -0.08,-1.59 -0.02,-1.55 0.03,-1.49 0.08,-1.43 0.12,-1.36 0.16,-1.29 0.17,-1.21 0.19,-1.14 0.20,-1.06 0.20,-0.98 0.18,-0.90 0.16,-0.82 0.12,-0.75 0.09,-0.68 0.03,-0.62 -0.01,-0.56 0.09,-0.83 0.20,-1.10 0.19,-1.00 0.18,-0.89 0.14,-0.79 0.10,-0.70 0.02,-0.62 -0.04,-0.54 -0.13,-0.49 -0.22,-0.43 -0.33,-0.41 -0.43,-0.39 -0.54,-0.41 -0.64,-0.42 -0.74,-0.47 -0.83,-0.52 -0.91,-0.59 -0.98,-0.67 -1.03,-0.76 -1.07,-0.86 -1.09,-0.96 -1.10,-1.07 -1.08,-1.17 -1.06,-1.28 -1.01,-1.37 -0.96,-1.46 -0.88,-1.53 -0.80,-1.60 -0.70,-1.65 -0.60,-1.69 -0.50,-1.70 -0.39,-1.70 -0.29,-1.68 -0.19,-1.65 -0.10,-1.60 -0.01,-1.54 0.05,-1.46 0.12,-1.37 0.15,-1.27 0.19,-1.17 0.19,-1.07 0.19,-0.96 0.16,-0.86 0.13,-0.76 0.07,-0.67 0.01,-0.59 -0.07,-0.52 -0.16,-0.46 -0.26,-0.43 -0.36,-0.40 -0.47,-0.40 -0.57,-0.41 -0.67,-0.44 -0.77,-0.48 -0.85,-0.55 -0.94,-0.61 -0.99,-0.70 -1.05,-0.79 -0.97,-1.17 -0.89,-1.54 -0.82,-1.58 -0.76,-1.63 -0.68,-1.66 -0.61,-1.69 -0.53,-1.70 -0.45,-1.71 -0.37,-1.70 -0.30,-1.69 -0.22,-1.66 -0.15,-1.63 -0.08,-1.59 -0.02,-1.55 0.03,-1.49 0.08,-1.43 0.12,-1.36 0.16,-1.29 0.17,-1.21 0.19,-1.14 0.20,-1.06 0.20,-0.98 0.18,-0.90 0.16,-0.82 0.12,-0.75 0.09,-0.68 0.03,-0.62 -0.01,-0.56 -0.37,0.33 -0.74,1.23 -1.71,1.93 -2.67,2.63 -3.97,2.58 -5.28,2.52 -6.40,1.52 -7.53,0.52 -7.96,-1.07 -8.38,-2.66 -7.84,-4.22 -7.31,-5.78 -6.22,-6.68 -5.12,-7.58 -3.48,-7.06 -1.84,-6.55 -1.02,-5.20 -0.21,-3.85 0.27,-2.07 0.75,-0.29 0.78,-0.20 0.80,-0.10 0.80,-0.00 0.80,0.08 0.78,0.18 0.76,0.27 0.72,0.36 0.67,0.45 0.61,0.52 0.54,0.60 0.46,0.65 0.38,0.71 0.29,0.75 0.20,0.78 0.10,0.80 0.00,0.81 -0.08,0.80 -0.18,0.79 -0.27,0.75 -0.36,0.72 -0.45,0.67 -0.53,0.61 -0.59,0.54 -0.66,0.47 -0.71,0.38 -0.75,0.29 -0.75,0.29 L -0.75,0.29 Z"/></g><g transform="translate(17.92431640625 182.73056030273438) rotate(0 -3.26300048828125 -1.5315399169921875)" stroke="none"><path fill="#c92a2a" d="M -0.78,0.08 Q -0.78,0.08 -1.06,-1.13 -1.35,-2.35 -1.84,-3.18 -2.32,-4.02 -2.81,-4.34 -3.30,-4.66 -4.28,-3.60 -5.25,-2.55 -5.50,-1.39 -5.74,-0.22 -5.52,0.41 -5.30,1.04 -4.70,1.21 -4.10,1.38 -3.24,1.06 -2.39,0.74 -1.77,0.23 -1.16,-0.28 -0.86,-0.77 -0.56,-1.25 -0.51,-1.31 -0.45,-1.36 -0.38,-1.40 -0.31,-1.43 -0.23,-1.45 -0.15,-1.47 -0.07,-1.47 -0.00,-1.47 0.07,-1.45 0.15,-1.44 0.22,-1.40 0.29,-1.36 0.35,-1.31 0.41,-1.26 0.45,-1.19 0.50,-1.13 0.53,-1.06 0.56,-0.98 0.57,-0.90 0.58,-0.82 0.57,-0.75 0.56,-0.67 0.53,-0.59 0.50,-0.52 0.46,-0.45 0.41,-0.39 0.49,-0.53 0.56,-0.67 0.52,-0.57 0.48,-0.47 0.41,-0.39 0.34,-0.31 0.24,-0.26 0.15,-0.21 0.05,-0.19 -0.05,-0.16 -0.15,-0.18 -0.26,-0.19 -0.35,-0.24 -0.45,-0.28 -0.52,-0.36 -0.60,-0.43 -0.65,-0.53 -0.70,-0.62 -0.71,-0.73 -0.73,-0.83 -0.71,-0.94 -0.69,-1.04 -0.64,-1.13 -0.59,-1.23 -0.51,-1.30 -0.43,-1.37 -0.33,-1.41 -0.24,-1.46 -0.13,-1.47 -0.02,-1.48 0.07,-1.45 0.17,-1.43 0.26,-1.37 0.35,-1.31 0.42,-1.23 0.49,-1.15 0.53,-1.05 0.56,-0.95 0.57,-0.84 0.57,-0.74 0.54,-0.64 0.51,-0.53 0.45,-0.45 0.39,-0.36 0.30,-0.30 0.22,-0.24 0.12,-0.20 0.01,-0.17 -0.08,-0.17 -0.19,-0.17 -0.29,-0.21 -0.39,-0.25 -0.47,-0.31 -0.55,-0.38 -0.61,-0.47 -0.67,-0.56 -0.70,-0.66 -0.72,-0.76 -0.64,-1.01 -0.56,-1.25 -0.51,-1.31 -0.45,-1.36 -0.38,-1.40 -0.31,-1.43 -0.23,-1.45 -0.15,-1.47 -0.07,-1.47 -0.00,-1.47 0.07,-1.45 0.15,-1.44 0.22,-1.40 0.29,-1.36 0.35,-1.31 0.41,-1.26 0.45,-1.19 0.50,-1.13 0.53,-1.06 0.56,-0.98 0.57,-0.90 0.58,-0.82 0.57,-0.75 0.56,-0.67 0.53,-0.59 0.50,-0.52 0.46,-0.45 0.41,-0.39 1.24,0.09 2.06,0.57 1.41,1.46 0.76,2.34 -0.42,3.13 -1.61,3.91 -3.37,4.14 -5.13,4.36 -6.55,3.47 -7.98,2.58 -8.46,0.89 -8.94,-0.79 -8.39,-2.65 -7.85,-4.51 -6.50,-5.83 -5.15,-7.15 -3.53,-7.06 -1.91,-6.96 -0.97,-6.05 -0.04,-5.13 0.38,-3.88 0.81,-2.62 0.80,-1.35 0.78,-0.08 0.78,0.01 0.78,0.10 0.75,0.19 0.73,0.28 0.68,0.37 0.64,0.45 0.57,0.52 0.51,0.59 0.43,0.65 0.35,0.70 0.26,0.73 0.17,0.76 0.08,0.77 -0.01,0.78 -0.10,0.77 -0.19,0.76 -0.28,0.72 -0.37,0.69 -0.45,0.63 -0.53,0.58 -0.59,0.51 -0.65,0.43 -0.69,0.35 -0.74,0.26 -0.76,0.17 -0.78,0.08 -0.78,0.08 L -0.78,0.08 Z"/></g></svg>