<svg version="1.1" xmlns="http://www.w3.org/2000/svg" viewBox="0 0 621.5631103515625 140.85812377929688" width="621.5631103515625" height="140.85812377929688" filter="invert(93%) hue-rotate(180deg)">
  <!-- svg-source:excalidraw -->
  
  <defs>
    <style class="style-fonts">
      @font-face {
        font-family: "Virgil";
        src: url("https://excalidraw.com/Virgil.woff2");
      }
      @font-face {
        font-family: "Cascadia";
        src: url("https://excalidraw.com/Cascadia.woff2");
      }
    </style>
  </defs>
  <rect x="0" y="0" width="621.5631103515625" height="140.85812377929688" fill="transparent"/><g transform="translate(10 55.24957275390625) rotate(0 0.23309326171875 19.876678466796875)" stroke="none"><path fill="#000000" d="M 1.79,-0.03 Q 1.79,-0.03 2.56,7.11 3.33,14.26 3.21,19.87 3.10,25.48 2.31,29.58 1.52,33.68 1.49,35.43 1.45,37.17 1.42,37.38 1.38,37.59 1.28,37.78 1.18,37.97 1.03,38.11 0.87,38.26 0.68,38.35 0.48,38.43 0.27,38.46 0.06,38.48 -0.14,38.43 -0.34,38.38 -0.52,38.27 -0.71,38.16 -0.84,38.00 -0.98,37.84 -1.06,37.64 -1.14,37.44 -1.15,37.23 -1.16,37.02 -1.10,36.81 -1.04,36.61 -0.92,36.43 -0.80,36.26 -0.63,36.13 -0.46,36.00 -0.26,35.94 -0.06,35.87 0.14,35.87 0.36,35.87 0.56,35.94 0.76,36.01 0.93,36.14 1.10,36.27 1.21,36.44 1.33,36.62 1.39,36.83 1.44,37.03 1.43,37.24 1.42,37.45 1.34,37.65 1.26,37.85 1.12,38.01 0.98,38.17 0.80,38.28 0.62,38.39 0.41,38.43 0.20,38.48 -0.00,38.45 -0.21,38.43 -0.40,38.34 -0.59,38.25 -0.75,38.10 -0.90,37.96 -1.00,37.77 -1.10,37.58 -1.13,37.37 -1.16,37.16 -1.16,37.16 -1.16,37.16 -1.19,35.41 -1.21,33.67 -1.96,29.55 -2.72,25.43 -2.76,19.90 -2.79,14.37 -2.29,7.20 -1.79,0.03 -1.77,-0.18 -1.75,-0.39 -1.67,-0.60 -1.60,-0.80 -1.48,-0.98 -1.36,-1.16 -1.20,-1.31 -1.04,-1.45 -0.85,-1.56 -0.66,-1.66 -0.45,-1.72 -0.24,-1.77 -0.03,-1.78 0.18,-1.78 0.39,-1.73 0.60,-1.69 0.79,-1.59 0.99,-1.49 1.15,-1.35 1.32,-1.21 1.44,-1.04 1.57,-0.86 1.65,-0.66 1.73,-0.46 1.76,-0.24 1.79,-0.03 1.79,-0.03 L 1.79,-0.03 Z"/></g><g transform="translate(31.6419677734375 57.247222900390625) rotate(0 0.99884033203125 12.518661499023438)" stroke="none"><path fill="#000000" d="M 1.53,-0.66 Q 1.53,-0.66 2.65,0.44 3.77,1.54 4.17,4.34 4.57,7.14 4.58,10.23 4.60,13.31 4.40,16.27 4.20,19.22 3.62,22.20 3.05,25.17 3.02,25.38 3.00,25.60 2.91,25.79 2.82,25.98 2.67,26.13 2.52,26.28 2.33,26.38 2.14,26.48 1.93,26.51 1.72,26.54 1.51,26.50 1.30,26.47 1.12,26.37 0.93,26.26 0.79,26.11 0.64,25.95 0.55,25.76 0.47,25.56 0.45,25.35 0.43,25.14 0.48,24.93 0.52,24.73 0.64,24.55 0.75,24.36 0.91,24.23 1.07,24.09 1.27,24.02 1.47,23.94 1.68,23.93 1.90,23.92 2.10,23.98 2.30,24.04 2.48,24.16 2.65,24.29 2.78,24.46 2.91,24.63 2.97,24.83 3.04,25.03 3.03,25.24 3.03,25.46 2.96,25.66 2.89,25.86 2.76,26.03 2.63,26.19 2.45,26.31 2.27,26.43 2.07,26.48 1.86,26.54 1.65,26.52 1.44,26.51 1.24,26.43 1.05,26.34 0.89,26.20 0.73,26.07 0.62,25.88 0.51,25.70 0.47,25.49 0.43,25.28 0.43,25.28 0.43,25.28 -0.39,22.20 -1.22,19.11 -1.29,16.20 -1.37,13.29 -1.33,10.51 -1.30,7.73 -1.38,5.73 -1.47,3.73 -1.50,2.20 -1.53,0.66 -1.58,0.47 -1.64,0.27 -1.65,0.07 -1.66,-0.12 -1.62,-0.31 -1.58,-0.51 -1.50,-0.69 -1.41,-0.88 -1.29,-1.03 -1.16,-1.19 -1.00,-1.31 -0.84,-1.43 -0.66,-1.51 -0.47,-1.59 -0.27,-1.63 -0.07,-1.66 0.12,-1.65 0.32,-1.63 0.51,-1.57 0.70,-1.51 0.87,-1.40 1.04,-1.30 1.18,-1.15 1.32,-1.01 1.42,-0.83 1.53,-0.66 1.53,-0.66 L 1.53,-0.66 Z"/></g><g transform="translate(15.5936279296875 73.69461059570312) rotate(0 7.22503662109375 1.1320037841796875)" stroke="none"><path fill="#000000" d="M 0.36,-1.63 Q 0.36,-1.63 3.08,-1.75 5.80,-1.86 7.87,-1.36 9.95,-0.86 11.82,0.00 13.69,0.87 13.90,0.92 14.10,0.98 14.28,1.09 14.46,1.21 14.59,1.38 14.72,1.54 14.79,1.75 14.86,1.95 14.86,2.16 14.86,2.37 14.80,2.57 14.73,2.78 14.60,2.95 14.48,3.12 14.30,3.24 14.13,3.36 13.92,3.42 13.72,3.48 13.51,3.47 13.30,3.46 13.10,3.38 12.90,3.31 12.74,3.17 12.57,3.03 12.46,2.85 12.35,2.67 12.30,2.47 12.25,2.26 12.27,2.05 12.29,1.84 12.38,1.64 12.47,1.45 12.61,1.29 12.76,1.14 12.94,1.04 13.13,0.93 13.34,0.90 13.55,0.86 13.76,0.89 13.97,0.92 14.16,1.02 14.35,1.12 14.49,1.27 14.64,1.42 14.73,1.62 14.83,1.81 14.85,2.02 14.88,2.23 14.83,2.44 14.79,2.65 14.68,2.83 14.57,3.01 14.41,3.15 14.25,3.29 14.06,3.37 13.86,3.45 13.65,3.47 13.44,3.48 13.44,3.48 13.44,3.48 11.31,3.96 9.18,4.44 6.82,4.30 4.45,4.16 2.04,2.90 -0.36,1.63 -0.55,1.56 -0.74,1.50 -0.91,1.38 -1.08,1.27 -1.22,1.13 -1.35,0.98 -1.45,0.80 -1.55,0.62 -1.60,0.43 -1.65,0.23 -1.66,0.03 -1.66,-0.16 -1.62,-0.36 -1.58,-0.56 -1.48,-0.74 -1.39,-0.92 -1.26,-1.07 -1.13,-1.23 -0.97,-1.34 -0.81,-1.46 -0.62,-1.54 -0.43,-1.61 -0.23,-1.64 -0.03,-1.67 0.16,-1.65 0.36,-1.63 0.36,-1.63 L 0.36,-1.63 Z"/></g><g transform="translate(46.8245849609375 73.49484252929688) rotate(0 19.078125 0.53271484375)" stroke="none"><path fill="#000000" d="M 0.17,-1.77 Q 0.17,-1.77 3.28,-2.05 6.38,-2.34 9.56,-2.35 12.74,-2.36 16.36,-2.41 19.98,-2.45 23.78,-2.17 27.59,-1.88 31.94,-1.17 36.29,-0.45 36.50,-0.41 36.71,-0.36 36.89,-0.26 37.08,-0.15 37.22,0.00 37.36,0.16 37.44,0.35 37.52,0.55 37.53,0.76 37.55,0.97 37.50,1.18 37.44,1.39 37.33,1.56 37.21,1.74 37.04,1.87 36.87,2.00 36.67,2.07 36.47,2.15 36.26,2.15 36.05,2.15 35.85,2.09 35.64,2.02 35.47,1.90 35.30,1.77 35.18,1.60 35.06,1.42 35.00,1.22 34.94,1.01 34.95,0.80 34.96,0.59 35.03,0.39 35.11,0.19 35.24,0.03 35.38,-0.13 35.56,-0.24 35.74,-0.35 35.94,-0.40 36.15,-0.45 36.36,-0.43 36.57,-0.41 36.77,-0.32 36.96,-0.24 37.12,-0.09 37.28,0.04 37.38,0.23 37.48,0.41 37.52,0.62 37.55,0.83 37.52,1.04 37.49,1.25 37.40,1.44 37.30,1.63 37.15,1.78 36.99,1.93 36.80,2.02 36.61,2.11 36.40,2.14 36.19,2.17 36.19,2.17 36.19,2.17 31.88,2.54 27.57,2.92 23.83,3.19 20.09,3.46 16.40,3.55 12.72,3.65 9.25,3.61 5.79,3.56 2.80,2.66 -0.17,1.77 -0.38,1.72 -0.59,1.67 -0.78,1.58 -0.98,1.48 -1.14,1.34 -1.30,1.20 -1.43,1.03 -1.55,0.85 -1.63,0.66 -1.71,0.46 -1.74,0.24 -1.77,0.03 -1.75,-0.17 -1.73,-0.39 -1.66,-0.59 -1.59,-0.79 -1.47,-0.97 -1.35,-1.15 -1.19,-1.29 -1.04,-1.44 -0.85,-1.54 -0.66,-1.65 -0.45,-1.70 -0.25,-1.76 -0.03,-1.76 0.17,-1.77 0.17,-1.77 L 0.17,-1.77 Z"/></g><g transform="translate(94.436767578125 56.84771728515625) rotate(0 -0.36627197265625 17.0799560546875)" stroke="none"><path fill="#000000" d="M 1.70,0.01 Q 1.70,0.01 2.03,5.82 2.37,11.62 2.23,16.09 2.10,20.55 1.73,24.07 1.36,27.59 1.23,30.23 1.09,32.87 1.07,33.08 1.05,33.29 0.96,33.49 0.88,33.68 0.73,33.84 0.59,33.99 0.40,34.10 0.22,34.20 0.01,34.23 -0.19,34.27 -0.40,34.24 -0.61,34.21 -0.80,34.11 -0.99,34.02 -1.14,33.86 -1.29,33.71 -1.38,33.52 -1.47,33.33 -1.50,33.12 -1.52,32.91 -1.48,32.70 -1.44,32.49 -1.33,32.31 -1.22,32.12 -1.06,31.98 -0.90,31.84 -0.71,31.76 -0.51,31.68 -0.30,31.67 -0.09,31.65 0.11,31.71 0.31,31.76 0.49,31.88 0.67,31.99 0.80,32.16 0.93,32.33 1.00,32.53 1.07,32.73 1.08,32.94 1.08,33.15 1.01,33.36 0.95,33.56 0.82,33.73 0.70,33.90 0.52,34.02 0.35,34.14 0.14,34.20 -0.05,34.26 -0.26,34.25 -0.47,34.25 -0.67,34.17 -0.87,34.09 -1.04,33.96 -1.20,33.82 -1.31,33.64 -1.42,33.46 -1.47,33.26 -1.52,33.05 -1.52,33.05 -1.52,33.05 -2.03,30.27 -2.54,27.48 -2.71,23.94 -2.88,20.39 -2.74,15.98 -2.60,11.57 -2.15,5.77 -1.70,-0.01 -1.67,-0.22 -1.64,-0.42 -1.57,-0.61 -1.49,-0.80 -1.38,-0.97 -1.26,-1.14 -1.10,-1.27 -0.95,-1.40 -0.76,-1.50 -0.58,-1.59 -0.38,-1.64 -0.18,-1.69 0.01,-1.68 0.22,-1.68 0.42,-1.63 0.61,-1.58 0.79,-1.48 0.98,-1.39 1.13,-1.25 1.28,-1.11 1.39,-0.94 1.51,-0.77 1.58,-0.58 1.65,-0.39 1.67,-0.18 1.70,0.01 1.70,0.01 L 1.70,0.01 Z"/></g><g transform="translate(112.815673828125 57.8465576171875) rotate(0 -0.59930419921875 14.349807739257812)" stroke="none"><path fill="#000000" d="M 1.72,0.02 Q 1.72,0.02 2.09,4.82 2.46,9.61 2.19,13.71 1.92,17.82 1.07,22.30 0.22,26.78 0.18,26.99 0.13,27.20 0.02,27.38 -0.08,27.56 -0.24,27.70 -0.41,27.84 -0.60,27.91 -0.80,27.99 -1.01,28.00 -1.23,28.01 -1.43,27.96 -1.63,27.90 -1.81,27.78 -1.99,27.66 -2.11,27.49 -2.24,27.32 -2.31,27.12 -2.38,26.92 -2.37,26.70 -2.37,26.49 -2.31,26.29 -2.24,26.09 -2.11,25.92 -1.98,25.75 -1.80,25.63 -1.63,25.51 -1.42,25.46 -1.22,25.40 -1.00,25.41 -0.79,25.43 -0.59,25.51 -0.40,25.58 -0.24,25.72 -0.07,25.86 0.02,26.04 0.13,26.23 0.18,26.43 0.22,26.64 0.20,26.85 0.18,27.06 0.09,27.26 0.00,27.45 -0.14,27.60 -0.29,27.76 -0.48,27.85 -0.66,27.95 -0.87,27.99 -1.08,28.02 -1.29,27.99 -1.50,27.95 -1.69,27.85 -1.88,27.75 -2.02,27.60 -2.17,27.44 -2.26,27.25 -2.35,27.05 -2.37,26.84 -2.39,26.63 -2.39,26.63 -2.39,26.63 -2.72,22.10 -3.05,17.57 -2.91,13.55 -2.77,9.53 -2.25,4.75 -1.72,-0.02 -1.69,-0.23 -1.67,-0.44 -1.59,-0.63 -1.51,-0.82 -1.39,-0.99 -1.27,-1.16 -1.11,-1.30 -0.95,-1.43 -0.77,-1.53 -0.58,-1.62 -0.38,-1.67 -0.18,-1.71 0.02,-1.71 0.23,-1.71 0.43,-1.65 0.63,-1.60 0.82,-1.50 1.00,-1.40 1.15,-1.26 1.31,-1.12 1.42,-0.95 1.54,-0.77 1.61,-0.58 1.68,-0.38 1.70,-0.17 1.72,0.02 1.72,0.02 L 1.72,0.02 Z"/></g><g transform="translate(99.8970947265625 73.42822265625) rotate(0 5.3272705078125 0.9322509765625)" stroke="none"><path fill="#000000" d="M 0.37,-1.89 Q 0.37,-1.89 3.10,-1.60 5.83,-1.31 7.86,-0.44 9.89,0.42 10.09,0.48 10.29,0.55 10.46,0.67 10.63,0.80 10.76,0.97 10.88,1.15 10.94,1.35 11.00,1.56 10.99,1.77 10.98,1.98 10.90,2.18 10.83,2.38 10.69,2.54 10.56,2.71 10.38,2.82 10.20,2.93 9.99,2.98 9.78,3.03 9.57,3.01 9.36,2.99 9.17,2.90 8.97,2.81 8.82,2.67 8.66,2.53 8.56,2.34 8.45,2.15 8.42,1.94 8.38,1.73 8.41,1.52 8.44,1.31 8.54,1.13 8.64,0.94 8.79,0.79 8.94,0.64 9.13,0.55 9.32,0.46 9.54,0.43 9.75,0.40 9.95,0.45 10.16,0.49 10.35,0.60 10.53,0.70 10.67,0.86 10.81,1.02 10.89,1.22 10.97,1.42 10.99,1.63 11.00,1.84 10.95,2.05 10.89,2.25 10.78,2.43 10.66,2.61 10.49,2.74 10.32,2.87 10.12,2.94 9.92,3.01 9.71,3.01 9.50,3.02 9.50,3.02 9.50,3.02 7.19,3.23 4.88,3.45 2.25,2.67 -0.37,1.89 -0.60,1.82 -0.82,1.75 -1.02,1.62 -1.21,1.50 -1.38,1.33 -1.54,1.16 -1.66,0.96 -1.77,0.76 -1.84,0.54 -1.90,0.31 -1.91,0.08 -1.93,-0.14 -1.88,-0.37 -1.83,-0.60 -1.73,-0.81 -1.64,-1.02 -1.49,-1.20 -1.34,-1.39 -1.16,-1.53 -0.97,-1.67 -0.76,-1.76 -0.54,-1.85 -0.31,-1.89 -0.08,-1.93 0.14,-1.91 0.37,-1.89 0.37,-1.89 L 0.37,-1.89 Z"/></g><g transform="translate(222.48583984375 57.18803405761719) rotate(0 -6.7589111328125 11.752853393554688)" stroke="none"><path fill="#000000" d="M -0.32,1.76 Q -0.32,1.76 -2.85,1.71 -5.38,1.67 -6.97,2.57 -8.56,3.48 -9.75,5.28 -10.94,7.07 -11.58,9.30 -12.23,11.52 -11.91,13.58 -11.59,15.64 -10.29,17.36 -8.99,19.07 -7.36,20.00 -5.72,20.94 -4.59,20.80 -3.45,20.66 -2.68,19.39 -1.92,18.12 -1.46,15.92 -0.99,13.73 -0.96,10.83 -0.93,7.93 -1.21,3.98 -1.48,0.03 -1.47,-0.12 -1.46,-0.28 -1.41,-0.43 -1.36,-0.58 -1.28,-0.71 -1.19,-0.85 -1.08,-0.96 -0.97,-1.07 -0.83,-1.15 -0.69,-1.23 -0.54,-1.27 -0.39,-1.32 -0.23,-1.32 -0.07,-1.33 0.07,-1.30 0.23,-1.27 0.37,-1.20 0.52,-1.14 0.64,-1.04 0.76,-0.94 0.86,-0.81 0.95,-0.68 1.02,-0.54 1.08,-0.39 1.10,-0.24 1.13,-0.08 0.78,-0.64 0.42,-1.19 0.59,-1.06 0.76,-0.94 0.88,-0.76 1.00,-0.59 1.06,-0.38 1.12,-0.18 1.11,0.02 1.11,0.23 1.03,0.43 0.95,0.63 0.82,0.79 0.68,0.96 0.50,1.07 0.32,1.18 0.11,1.23 -0.08,1.28 -0.29,1.26 -0.51,1.24 -0.70,1.15 -0.89,1.06 -1.05,0.92 -1.21,0.78 -1.31,0.59 -1.41,0.40 -1.45,0.19 -1.48,-0.01 -1.45,-0.22 -1.42,-0.43 -1.32,-0.61 -1.23,-0.80 -1.07,-0.95 -0.92,-1.10 -0.73,-1.19 -0.54,-1.28 -0.33,-1.31 -0.12,-1.33 0.08,-1.29 0.29,-1.25 0.47,-1.14 0.66,-1.03 0.80,-0.87 0.94,-0.71 1.02,-0.52 1.10,-0.32 1.11,-0.11 1.13,0.09 1.07,0.30 1.02,0.51 0.90,0.68 0.78,0.86 0.62,0.99 0.45,1.12 0.25,1.19 0.05,1.26 -0.15,1.26 -0.37,1.27 -0.93,0.65 -1.48,0.03 -1.47,-0.12 -1.46,-0.28 -1.41,-0.43 -1.36,-0.58 -1.28,-0.71 -1.19,-0.85 -1.08,-0.96 -0.97,-1.07 -0.83,-1.15 -0.69,-1.23 -0.54,-1.27 -0.39,-1.32 -0.23,-1.32 -0.07,-1.33 0.07,-1.30 0.23,-1.27 0.37,-1.20 0.52,-1.14 0.64,-1.04 0.76,-0.94 0.86,-0.81 0.95,-0.68 1.02,-0.54 1.08,-0.39 1.10,-0.24 1.13,-0.08 2.52,3.80 3.91,7.69 4.24,11.40 4.57,15.11 3.58,18.47 2.58,21.83 0.28,23.89 -2.01,25.96 -5.11,26.00 -8.21,26.05 -10.97,24.27 -13.72,22.49 -15.54,19.53 -17.36,16.58 -17.62,13.23 -17.88,9.89 -16.75,6.70 -15.61,3.51 -13.32,0.94 -11.03,-1.62 -7.95,-2.60 -4.87,-3.58 -2.27,-2.67 0.32,-1.76 0.53,-1.70 0.74,-1.63 0.92,-1.52 1.11,-1.41 1.26,-1.25 1.41,-1.10 1.52,-0.91 1.64,-0.73 1.70,-0.52 1.76,-0.31 1.78,-0.10 1.79,0.11 1.75,0.32 1.71,0.54 1.62,0.73 1.53,0.93 1.40,1.10 1.26,1.27 1.09,1.40 0.92,1.54 0.72,1.62 0.52,1.71 0.31,1.75 0.10,1.79 -0.11,1.78 -0.32,1.76 -0.32,1.76 L -0.32,1.76 Z"/></g><g transform="translate(247.9234619140625 60.31764221191406) rotate(0 10.42138671875 1.564849853515625)" stroke="none"><path fill="#000000" d="M 0.44,-1.67 Q 0.44,-1.67 3.14,-1.28 5.83,-0.89 8.31,-0.63 10.78,-0.37 13.28,0.16 15.77,0.69 17.91,1.20 20.05,1.71 20.25,1.77 20.46,1.83 20.63,1.95 20.81,2.07 20.93,2.24 21.06,2.41 21.12,2.61 21.19,2.81 21.19,3.03 21.19,3.24 21.11,3.44 21.04,3.64 20.91,3.81 20.78,3.97 20.61,4.09 20.43,4.21 20.22,4.26 20.02,4.32 19.81,4.30 19.59,4.29 19.40,4.21 19.20,4.13 19.04,3.99 18.88,3.85 18.77,3.67 18.67,3.48 18.62,3.27 18.58,3.07 18.60,2.86 18.63,2.64 18.72,2.45 18.81,2.26 18.96,2.11 19.11,1.96 19.30,1.86 19.49,1.76 19.70,1.73 19.91,1.70 20.12,1.73 20.33,1.77 20.51,1.87 20.70,1.97 20.84,2.13 20.99,2.29 21.07,2.48 21.16,2.67 21.18,2.89 21.20,3.10 21.15,3.30 21.11,3.51 20.99,3.69 20.88,3.87 20.72,4.01 20.56,4.14 20.36,4.22 20.16,4.30 19.95,4.31 19.73,4.31 19.73,4.31 19.73,4.31 17.58,4.31 15.42,4.30 12.82,4.33 10.21,4.37 7.43,4.01 4.65,3.65 2.10,2.66 -0.44,1.67 -0.63,1.60 -0.82,1.52 -0.99,1.40 -1.17,1.28 -1.30,1.12 -1.44,0.96 -1.53,0.77 -1.63,0.59 -1.67,0.38 -1.72,0.18 -1.72,-0.02 -1.71,-0.23 -1.66,-0.43 -1.61,-0.64 -1.51,-0.82 -1.41,-1.00 -1.27,-1.16 -1.13,-1.31 -0.95,-1.43 -0.78,-1.54 -0.58,-1.61 -0.38,-1.69 -0.18,-1.71 0.02,-1.73 0.23,-1.70 0.44,-1.67 0.44,-1.67 L 0.44,-1.67 Z"/></g><g transform="translate(252.11865234375 70.23933410644531) rotate(0 9.4891357421875 0.3995513916015625)" stroke="none"><path fill="#000000" d="M 0.01,-1.78 Q 0.01,-1.78 3.03,-2.20 6.06,-2.62 8.98,-2.34 11.89,-2.07 14.85,-1.15 17.80,-0.24 18.00,-0.18 18.21,-0.13 18.39,-0.01 18.56,0.10 18.69,0.27 18.82,0.44 18.89,0.64 18.96,0.84 18.96,1.05 18.96,1.26 18.89,1.47 18.83,1.67 18.70,1.84 18.57,2.01 18.39,2.13 18.22,2.25 18.01,2.30 17.81,2.36 17.60,2.35 17.39,2.34 17.19,2.26 16.99,2.18 16.83,2.05 16.66,1.91 16.55,1.73 16.44,1.55 16.40,1.34 16.35,1.13 16.37,0.92 16.40,0.71 16.48,0.52 16.57,0.32 16.72,0.17 16.86,0.01 17.05,-0.08 17.24,-0.18 17.45,-0.21 17.66,-0.25 17.87,-0.21 18.08,-0.18 18.27,-0.08 18.45,0.01 18.60,0.16 18.75,0.32 18.84,0.51 18.93,0.70 18.95,0.91 18.97,1.12 18.93,1.33 18.88,1.54 18.78,1.72 18.67,1.90 18.51,2.04 18.34,2.18 18.15,2.26 17.95,2.34 17.74,2.35 17.53,2.36 17.53,2.36 17.53,2.36 14.53,2.65 11.54,2.94 8.78,2.82 6.03,2.70 3.01,2.24 -0.01,1.78 -0.22,1.76 -0.43,1.73 -0.63,1.65 -0.84,1.57 -1.01,1.45 -1.19,1.33 -1.33,1.16 -1.47,1.00 -1.57,0.81 -1.67,0.62 -1.72,0.41 -1.77,0.20 -1.77,-0.01 -1.77,-0.22 -1.72,-0.43 -1.66,-0.64 -1.56,-0.83 -1.46,-1.02 -1.32,-1.18 -1.17,-1.34 -0.99,-1.46 -0.82,-1.58 -0.61,-1.66 -0.41,-1.73 -0.20,-1.76 0.01,-1.78 0.01,-1.78 L 0.01,-1.78 Z"/></g><g transform="translate(312.9822998046875 63.44734191894531) rotate(0 -6.326171875 6.658843994140625)" stroke="none"><path fill="#000000" d="M -1.16,1.16 Q -1.16,1.16 -3.48,-0.46 -5.79,-2.09 -7.34,-2.32 -8.90,-2.55 -9.99,-1.64 -11.09,-0.73 -11.76,1.11 -12.44,2.97 -12.54,5.61 -12.65,8.26 -11.90,10.72 -11.16,13.19 -9.93,14.42 -8.70,15.65 -7.32,15.73 -5.94,15.80 -4.60,14.84 -3.26,13.88 -2.09,12.09 -0.92,10.31 0.04,8.09 1.00,5.86 0.84,4.01 0.67,2.16 0.52,2.00 0.38,1.85 0.29,1.66 0.20,1.46 0.17,1.25 0.15,1.04 0.20,0.83 0.24,0.63 0.35,0.44 0.46,0.26 0.62,0.12 0.79,-0.00 0.98,-0.08 1.18,-0.16 1.39,-0.17 1.61,-0.18 1.81,-0.13 2.02,-0.07 2.19,0.04 2.37,0.16 2.50,0.33 2.62,0.50 2.69,0.70 2.76,0.90 2.76,1.11 2.76,1.33 2.69,1.53 2.62,1.73 2.49,1.90 2.37,2.07 2.19,2.19 2.01,2.30 1.81,2.36 1.60,2.42 1.39,2.41 1.18,2.39 0.98,2.32 0.79,2.24 0.62,2.10 0.46,1.96 0.35,1.78 0.24,1.60 0.20,1.39 0.15,1.18 0.18,0.97 0.20,0.76 0.29,0.57 0.38,0.37 0.52,0.22 0.67,0.07 0.86,-0.02 1.04,-0.12 1.25,-0.16 1.46,-0.19 1.67,-0.16 1.88,-0.12 2.07,-0.02 2.26,0.07 2.26,0.07 2.26,0.07 3.53,3.55 4.80,7.04 4.10,10.13 3.41,13.22 1.50,15.91 -0.41,18.60 -3.27,19.89 -6.13,21.17 -9.14,20.50 -12.15,19.82 -14.32,17.40 -16.49,14.98 -17.42,11.47 -18.35,7.95 -18.00,4.27 -17.64,0.59 -15.96,-2.34 -14.29,-5.28 -11.48,-6.55 -8.67,-7.81 -5.53,-6.95 -2.40,-6.09 -0.61,-3.63 1.16,-1.16 1.29,-1.01 1.41,-0.85 1.49,-0.67 1.57,-0.49 1.61,-0.29 1.65,-0.09 1.63,0.09 1.62,0.29 1.56,0.48 1.50,0.67 1.40,0.84 1.30,1.02 1.16,1.16 1.02,1.30 0.84,1.40 0.67,1.50 0.48,1.56 0.29,1.62 0.09,1.63 -0.09,1.65 -0.29,1.61 -0.49,1.57 -0.67,1.49 -0.85,1.41 -1.01,1.29 -1.16,1.16 -1.16,1.16 L -1.16,1.16 Z"/></g><g transform="translate(314.5804443359375 46.66703796386719) rotate(0 1.56488037109375 0.632598876953125)" stroke="none"><path fill="#000000" d="M 0.64,-1.60 Q 0.64,-1.60 0.95,-1.25 1.25,-0.90 1.39,-0.83 1.53,-0.75 1.65,-0.64 1.76,-0.54 1.85,-0.40 1.94,-0.27 1.99,-0.12 2.04,0.02 2.06,0.18 2.07,0.33 2.05,0.49 2.03,0.65 1.97,0.79 1.91,0.94 1.82,1.07 1.72,1.20 1.60,1.30 1.48,1.40 1.34,1.47 1.20,1.54 1.04,1.58 0.89,1.61 0.73,1.61 0.57,1.60 0.42,1.56 0.27,1.52 0.09,1.41 -0.09,1.30 -0.22,1.14 -0.36,0.98 -0.44,0.78 -0.51,0.58 -0.52,0.37 -0.54,0.16 -0.48,-0.04 -0.42,-0.24 -0.30,-0.42 -0.18,-0.59 -0.01,-0.72 0.15,-0.85 0.35,-0.92 0.55,-0.98 0.77,-0.98 0.98,-0.98 1.18,-0.91 1.38,-0.84 1.55,-0.71 1.72,-0.58 1.84,-0.41 1.95,-0.23 2.01,-0.03 2.07,0.17 2.05,0.38 2.04,0.59 1.96,0.79 1.88,0.99 1.74,1.15 1.60,1.31 1.42,1.42 1.24,1.53 1.03,1.57 0.82,1.62 0.61,1.59 0.40,1.57 0.21,1.48 0.02,1.39 -0.13,1.24 -0.28,1.09 -0.38,0.91 -0.48,0.72 -0.51,0.51 -0.54,0.30 -0.51,0.09 -0.47,-0.11 -0.37,-0.30 -0.27,-0.49 -0.12,-0.63 0.03,-0.78 0.22,-0.86 0.42,-0.95 0.63,-0.97 0.84,-1.00 1.05,-0.95 1.25,-0.90 1.25,-0.90 1.25,-0.90 1.39,-0.83 1.53,-0.75 1.65,-0.64 1.76,-0.54 1.85,-0.40 1.94,-0.27 1.99,-0.12 2.04,0.02 2.06,0.18 2.07,0.33 2.05,0.49 2.03,0.65 1.97,0.79 1.91,0.94 1.82,1.07 1.72,1.20 1.60,1.30 1.48,1.40 1.34,1.47 1.20,1.54 1.04,1.58 0.89,1.61 0.73,1.61 0.57,1.60 0.42,1.56 0.27,1.52 -0.18,1.56 -0.64,1.60 -0.83,1.50 -1.01,1.40 -1.16,1.26 -1.31,1.11 -1.43,0.94 -1.54,0.77 -1.61,0.57 -1.68,0.37 -1.70,0.16 -1.73,-0.03 -1.70,-0.24 -1.67,-0.45 -1.59,-0.64 -1.51,-0.83 -1.39,-1.00 -1.26,-1.17 -1.11,-1.31 -0.95,-1.44 -0.76,-1.53 -0.57,-1.63 -0.37,-1.67 -0.17,-1.72 0.03,-1.71 0.24,-1.71 0.44,-1.65 0.64,-1.60 0.64,-1.60 L 0.64,-1.60 Z"/></g><g transform="translate(324.50244140625 54.32472229003906) rotate(0 0.3995361328125 0.366241455078125)" stroke="none"><path fill="#000000" d="M 1.72,-0.53 Q 1.72,-0.53 1.75,-0.10 1.77,0.32 1.59,0.71 1.42,1.11 1.08,1.38 0.74,1.64 0.31,1.72 -0.10,1.80 -0.52,1.67 -0.93,1.54 -1.24,1.23 -1.54,0.93 -1.67,0.52 -1.80,0.10 -1.72,-0.31 -1.64,-0.74 -1.38,-1.08 -1.11,-1.42 -0.71,-1.59 -0.32,-1.77 0.10,-1.75 0.53,-1.72 0.90,-1.50 1.27,-1.27 1.50,-0.90 L 1.72,-0.53 Z"/></g><g transform="translate(323.2371826171875 89.61659240722656) rotate(0 0 0.1997833251953125)" stroke="none"><path fill="#000000" d="M 1.87,-0.58 Q 1.87,-0.58 1.90,-0.11 1.92,0.35 1.73,0.78 1.54,1.21 1.17,1.49 0.80,1.78 0.34,1.87 -0.11,1.95 -0.56,1.81 -1.01,1.67 -1.34,1.34 -1.67,1.01 -1.81,0.56 -1.95,0.11 -1.87,-0.34 -1.78,-0.80 -1.49,-1.17 -1.20,-1.54 -0.78,-1.73 -0.35,-1.92 0.11,-1.90 0.58,-1.87 0.98,-1.63 1.38,-1.38 1.63,-0.98 L 1.87,-0.58 Z"/></g><g transform="translate(314.180908203125 93.14579772949219) rotate(0 0.33294677734375 0.166473388671875)" stroke="none"><path fill="#000000" d="M 1.76,-0.55 Q 1.76,-0.55 1.79,-0.10 1.82,0.33 1.64,0.73 1.45,1.14 1.10,1.41 0.76,1.69 0.32,1.77 -0.11,1.85 -0.53,1.71 -0.95,1.58 -1.27,1.27 -1.58,0.95 -1.71,0.53 -1.85,0.11 -1.77,-0.32 -1.69,-0.76 -1.41,-1.11 -1.14,-1.45 -0.73,-1.64 -0.33,-1.82 0.10,-1.79 0.55,-1.76 0.93,-1.54 1.31,-1.31 1.54,-0.93 L 1.76,-0.55 Z"/></g><g transform="translate(209.3675537109375 42.33876037597656) rotate(0 -0.19976806640625 1.098724365234375)" stroke="none"><path fill="#000000" d="M 2.10,-0.65 Q 2.10,-0.65 2.13,-0.12 2.17,0.39 1.95,0.87 1.73,1.36 1.32,1.68 0.90,2.01 0.38,2.10 -0.13,2.20 -0.63,2.04 -1.14,1.88 -1.51,1.51 -1.88,1.14 -2.04,0.63 -2.20,0.13 -2.10,-0.38 -2.01,-0.90 -1.68,-1.32 -1.36,-1.73 -0.87,-1.95 -0.39,-2.17 0.12,-2.13 0.65,-2.10 1.10,-1.83 1.56,-1.56 1.83,-1.10 L 2.10,-0.65 Z"/></g><g transform="translate(199.3123779296875 47.79902648925781) rotate(0 -0.2996826171875 0.632598876953125)" stroke="none"><path fill="#000000" d="M 1.89,-0.58 Q 1.89,-0.58 1.91,-0.11 1.94,0.35 1.75,0.78 1.55,1.22 1.18,1.51 0.81,1.80 0.34,1.89 -0.11,1.97 -0.57,1.83 -1.02,1.69 -1.35,1.35 -1.69,1.02 -1.83,0.57 -1.97,0.11 -1.89,-0.34 -1.80,-0.81 -1.51,-1.18 -1.22,-1.55 -0.78,-1.75 -0.35,-1.94 0.11,-1.91 0.58,-1.89 0.99,-1.64 1.40,-1.39 1.64,-0.99 L 1.89,-0.58 Z"/></g><g transform="translate(199.0458984375 82.15867614746094) rotate(0 0.06671142578125 0.59930419921875)" stroke="none"><path fill="#000000" d="M 2.33,-0.72 Q 2.33,-0.72 2.37,-0.14 2.40,0.44 2.16,0.97 1.92,1.50 1.46,1.86 1.00,2.23 0.42,2.33 -0.14,2.44 -0.70,2.26 -1.26,2.09 -1.67,1.67 -2.09,1.26 -2.26,0.70 -2.44,0.14 -2.33,-0.42 -2.22,-1.00 -1.86,-1.46 -1.50,-1.92 -0.97,-2.16 -0.44,-2.40 0.14,-2.37 0.72,-2.33 1.22,-2.03 1.72,-1.72 2.03,-1.22 L 2.33,-0.72 Z"/></g><g transform="translate(207.9024658203125 90.81520080566406) rotate(0 0.4661865234375 -0.3995208740234375)" stroke="none"><path fill="#000000" d="M 2.00,-0.62 Q 2.00,-0.62 2.03,-0.12 2.06,0.37 1.85,0.83 1.65,1.29 1.25,1.60 0.86,1.91 0.36,2.00 -0.12,2.09 -0.60,1.94 -1.08,1.79 -1.43,1.43 -1.79,1.08 -1.94,0.60 -2.09,0.12 -2.00,-0.36 -1.91,-0.86 -1.60,-1.25 -1.29,-1.65 -0.83,-1.85 -0.37,-2.06 0.12,-2.03 0.62,-2.00 1.05,-1.74 1.48,-1.48 1.74,-1.05 L 2.00,-0.62 Z"/></g><g stroke-linecap="round"><g transform="translate(367.9752197265625 66.73342895507812) rotate(0 44.68218994140625 -0.53271484375)"><path d="M0 0 C14.89 -0.18, 74.47 -0.89, 89.36 -1.07 M0 0 C14.89 -0.18, 74.47 -0.89, 89.36 -1.07" stroke="#000000" stroke-width="1" fill="none"/></g><g transform="translate(367.9752197265625 66.73342895507812) rotate(0 44.68218994140625 -0.53271484375)"><path d="M89.36 -1.07 L75.85 5.44 L75.7 -7.24 L89.36 -1.07" stroke="none" stroke-width="0" fill="#000000" fill-rule="evenodd"/><path d="M89.36 -1.07 C85.64 0.72, 81.92 2.51, 75.85 5.44 M89.36 -1.07 C85.66 0.72, 81.95 2.5, 75.85 5.44 M75.85 5.44 C75.79 0.71, 75.73 -4.01, 75.7 -7.24 M75.85 5.44 C75.81 2.28, 75.77 -0.89, 75.7 -7.24 M75.7 -7.24 C78.87 -5.81, 82.04 -4.38, 89.36 -1.07 M75.7 -7.24 C78.71 -5.88, 81.72 -4.52, 89.36 -1.07 M89.36 -1.07 C89.36 -1.07, 89.36 -1.07, 89.36 -1.07 M89.36 -1.07 C89.36 -1.07, 89.36 -1.07, 89.36 -1.07" stroke="#000000" stroke-width="1" fill="none"/></g></g><mask/><g transform="translate(563.950927734375 40.897064208984375) rotate(0 -10.08843994140625 2.0975341796875)" stroke="none"><path fill="#000000" d="M -1.23,1.04 Q -1.23,1.04 -4.30,-1.69 -7.36,-4.43 -9.59,-5.36 -11.82,-6.28 -13.19,-5.99 -14.56,-5.71 -15.86,-4.39 -17.15,-3.07 -17.96,-1.08 -18.77,0.90 -18.53,3.04 -18.28,5.18 -16.98,6.89 -15.67,8.59 -13.52,9.49 -11.38,10.38 -8.90,10.45 -6.42,10.52 -4.42,9.98 -2.42,9.44 -1.93,8.41 -1.44,7.38 -1.58,4.17 -1.72,0.97 -1.62,0.78 -1.52,0.60 -1.36,0.45 -1.21,0.31 -1.02,0.22 -0.82,0.13 -0.61,0.11 -0.40,0.09 -0.19,0.14 0.01,0.18 0.19,0.29 0.37,0.40 0.50,0.57 0.64,0.73 0.72,0.93 0.79,1.13 0.80,1.34 0.81,1.55 0.76,1.76 0.70,1.96 0.58,2.13 0.46,2.31 0.29,2.44 0.12,2.56 -0.08,2.63 -0.28,2.70 -0.49,2.70 -0.70,2.69 -0.90,2.62 -1.10,2.55 -1.27,2.42 -1.44,2.29 -1.56,2.12 -1.68,1.94 -1.73,1.74 -1.79,1.53 -1.77,1.32 -1.76,1.11 -1.68,0.91 -1.60,0.71 -1.46,0.55 -1.32,0.39 -1.14,0.28 -0.96,0.18 -0.75,0.13 -0.54,0.09 -0.33,0.11 -0.12,0.14 0.06,0.23 0.26,0.32 0.41,0.47 0.56,0.61 0.66,0.80 0.76,0.99 0.79,1.20 0.82,1.41 0.79,1.62 0.75,1.83 0.75,1.83 0.75,1.83 2.37,4.36 4.00,6.90 3.93,9.50 3.87,12.11 1.61,14.05 -0.64,15.99 -3.79,16.63 -6.93,17.27 -10.61,16.78 -14.28,16.29 -17.52,14.33 -20.76,12.38 -22.66,9.18 -24.56,5.97 -24.65,2.24 -24.75,-1.47 -23.11,-4.74 -21.47,-8.01 -18.54,-10.05 -15.61,-12.08 -12.45,-12.04 -9.28,-11.99 -6.24,-10.05 -3.20,-8.12 -0.98,-4.58 1.23,-1.04 1.34,-0.87 1.45,-0.71 1.51,-0.53 1.58,-0.34 1.59,-0.15 1.61,0.04 1.58,0.23 1.56,0.42 1.48,0.60 1.41,0.78 1.29,0.94 1.18,1.10 1.03,1.22 0.88,1.35 0.70,1.44 0.53,1.52 0.34,1.56 0.15,1.61 -0.04,1.60 -0.23,1.60 -0.42,1.54 -0.61,1.49 -0.78,1.40 -0.95,1.30 -1.09,1.17 -1.23,1.04 -1.23,1.04 L -1.23,1.04 Z"/></g><g transform="translate(530.589111328125 72.85952758789062) rotate(0 -8.45697021484375 11.919342041015625)" stroke="none"><path fill="#000000" d="M 1.14,1.23 Q 1.14,1.23 -0.12,3.01 -1.39,4.78 -3.25,6.91 -5.12,9.04 -7.12,11.61 -9.12,14.17 -10.80,16.57 -12.48,18.97 -13.86,21.13 -15.24,23.28 -15.35,23.46 -15.47,23.64 -15.63,23.77 -15.80,23.91 -16.00,23.98 -16.20,24.05 -16.41,24.06 -16.62,24.06 -16.83,24.00 -17.03,23.93 -17.20,23.81 -17.37,23.69 -17.50,23.51 -17.62,23.34 -17.68,23.14 -17.74,22.93 -17.74,22.72 -17.73,22.51 -17.66,22.31 -17.58,22.11 -17.45,21.94 -17.32,21.78 -17.14,21.67 -16.96,21.55 -16.75,21.50 -16.54,21.45 -16.33,21.47 -16.12,21.49 -15.93,21.57 -15.73,21.66 -15.57,21.80 -15.42,21.94 -15.31,22.13 -15.21,22.31 -15.17,22.52 -15.13,22.73 -15.16,22.94 -15.19,23.15 -15.28,23.34 -15.38,23.53 -15.53,23.68 -15.68,23.83 -15.87,23.92 -16.06,24.02 -16.27,24.04 -16.48,24.07 -16.69,24.03 -16.90,23.99 -17.08,23.89 -17.27,23.78 -17.41,23.62 -17.55,23.46 -17.64,23.27 -17.72,23.07 -17.73,22.86 -17.75,22.65 -17.70,22.44 -17.65,22.24 -17.65,22.24 -17.65,22.24 -16.91,19.52 -16.18,16.81 -14.73,13.87 -13.27,10.93 -11.15,8.22 -9.03,5.52 -6.95,3.27 -4.88,1.03 -3.01,-0.10 -1.14,-1.23 -0.98,-1.35 -0.81,-1.47 -0.62,-1.55 -0.44,-1.63 -0.23,-1.66 -0.03,-1.68 0.16,-1.66 0.36,-1.64 0.55,-1.58 0.75,-1.51 0.92,-1.40 1.09,-1.28 1.23,-1.14 1.36,-0.99 1.46,-0.81 1.56,-0.63 1.61,-0.43 1.67,-0.24 1.67,-0.03 1.68,0.16 1.63,0.36 1.59,0.56 1.50,0.74 1.41,0.92 1.28,1.08 1.14,1.23 1.14,1.23 L 1.14,1.23 Z"/></g><g transform="translate(576.4033203125 70.72869873046875) rotate(0 7.45819091796875 10.088165283203125)" stroke="none"><path fill="#000000" d="M 1.37,-0.93 Q 1.37,-0.93 3.87,2.34 6.36,5.63 8.54,8.78 10.72,11.94 12.82,15.00 14.91,18.07 15.02,18.25 15.12,18.44 15.16,18.65 15.20,18.85 15.17,19.06 15.14,19.28 15.04,19.46 14.95,19.65 14.80,19.80 14.65,19.95 14.46,20.05 14.27,20.14 14.05,20.17 13.84,20.20 13.64,20.15 13.43,20.11 13.24,20.01 13.06,19.90 12.92,19.74 12.78,19.58 12.69,19.39 12.61,19.19 12.59,18.98 12.58,18.77 12.63,18.56 12.68,18.36 12.80,18.18 12.91,18.00 13.08,17.87 13.25,17.74 13.45,17.66 13.65,17.59 13.86,17.59 14.07,17.58 14.27,17.65 14.48,17.71 14.65,17.83 14.82,17.96 14.94,18.13 15.07,18.31 15.13,18.51 15.19,18.71 15.18,18.93 15.18,19.14 15.10,19.34 15.03,19.54 14.89,19.70 14.76,19.87 14.58,19.98 14.40,20.09 14.19,20.14 13.99,20.19 13.77,20.17 13.56,20.16 13.37,20.07 13.17,19.99 13.02,19.84 12.86,19.70 12.86,19.70 12.86,19.70 10.31,16.92 7.75,14.14 5.32,11.06 2.89,7.99 0.76,4.46 -1.37,0.93 -1.46,0.75 -1.56,0.57 -1.60,0.38 -1.65,0.18 -1.65,-0.01 -1.65,-0.21 -1.60,-0.40 -1.55,-0.60 -1.45,-0.77 -1.36,-0.95 -1.22,-1.10 -1.09,-1.25 -0.92,-1.36 -0.76,-1.48 -0.57,-1.55 -0.38,-1.62 -0.18,-1.64 0.01,-1.66 0.21,-1.64 0.41,-1.61 0.59,-1.54 0.78,-1.46 0.94,-1.35 1.11,-1.23 1.24,-1.08 1.37,-0.93 1.37,-0.93 L 1.37,-0.93 Z"/></g><g transform="translate(597.113037109375 105.4879150390625) rotate(0 -0.2996826171875 9.688629150390625)" stroke="none"><path fill="#000000" d="M 1.85,0.10 Q 1.85,0.10 2.08,3.06 2.32,6.01 2.22,8.76 2.13,11.51 1.65,14.69 1.16,17.87 1.14,18.08 1.12,18.29 1.03,18.49 0.94,18.68 0.79,18.83 0.65,18.99 0.46,19.09 0.27,19.19 0.06,19.22 -0.14,19.25 -0.35,19.22 -0.56,19.18 -0.75,19.08 -0.93,18.99 -1.08,18.83 -1.23,18.68 -1.31,18.48 -1.40,18.29 -1.43,18.08 -1.45,17.87 -1.40,17.66 -1.36,17.45 -1.25,17.27 -1.14,17.09 -0.98,16.95 -0.81,16.81 -0.62,16.74 -0.42,16.66 -0.21,16.65 -0.00,16.63 0.20,16.69 0.40,16.75 0.58,16.87 0.76,16.99 0.88,17.16 1.01,17.33 1.08,17.53 1.15,17.73 1.15,17.94 1.15,18.15 1.08,18.36 1.01,18.56 0.88,18.73 0.75,18.89 0.58,19.01 0.40,19.13 0.20,19.19 -0.00,19.25 -0.21,19.23 -0.42,19.22 -0.62,19.14 -0.82,19.06 -0.98,18.93 -1.14,18.79 -1.25,18.61 -1.36,18.43 -1.40,18.22 -1.45,18.01 -1.45,18.01 -1.45,18.01 -2.28,14.69 -3.11,11.38 -3.06,8.54 -3.01,5.70 -2.43,2.79 -1.85,-0.10 -1.81,-0.32 -1.77,-0.54 -1.68,-0.75 -1.59,-0.95 -1.45,-1.13 -1.31,-1.31 -1.13,-1.44 -0.96,-1.58 -0.75,-1.67 -0.55,-1.77 -0.33,-1.81 -0.11,-1.85 0.10,-1.83 0.33,-1.82 0.54,-1.76 0.75,-1.69 0.95,-1.57 1.14,-1.46 1.30,-1.30 1.45,-1.14 1.57,-0.95 1.69,-0.76 1.75,-0.55 1.82,-0.33 1.83,-0.11 1.85,0.10 1.85,0.10 L 1.85,0.10 Z"/></g><g transform="translate(610.7640380859375 104.08953857421875) rotate(0 0.3995361328125 9.3223876953125)" stroke="none"><path fill="#000000" d="M 1.74,0 Q 1.74,0 2.08,3.29 2.41,6.58 2.28,9.36 2.15,12.13 2.08,14.75 2.00,17.36 1.98,17.57 1.97,17.79 1.89,17.98 1.80,18.18 1.66,18.34 1.52,18.50 1.34,18.60 1.15,18.71 0.94,18.75 0.74,18.79 0.53,18.76 0.31,18.74 0.12,18.64 -0.06,18.55 -0.21,18.40 -0.36,18.25 -0.46,18.06 -0.55,17.87 -0.58,17.66 -0.61,17.45 -0.57,17.24 -0.53,17.03 -0.43,16.85 -0.33,16.66 -0.17,16.52 -0.01,16.38 0.17,16.29 0.37,16.21 0.58,16.19 0.79,16.17 1.00,16.22 1.20,16.27 1.38,16.38 1.56,16.50 1.70,16.66 1.83,16.82 1.90,17.02 1.98,17.22 1.99,17.43 1.99,17.65 1.93,17.85 1.87,18.05 1.75,18.23 1.63,18.40 1.45,18.53 1.28,18.65 1.08,18.72 0.88,18.78 0.67,18.77 0.45,18.77 0.25,18.70 0.05,18.63 -0.10,18.49 -0.27,18.36 -0.39,18.18 -0.50,18.01 -0.55,17.80 -0.61,17.59 -0.61,17.59 -0.61,17.59 -1.15,14.94 -1.69,12.29 -2.05,9.44 -2.41,6.58 -2.08,3.29 -1.74,0 -1.72,-0.20 -1.69,-0.41 -1.62,-0.61 -1.54,-0.81 -1.42,-0.98 -1.30,-1.15 -1.15,-1.29 -0.99,-1.43 -0.80,-1.53 -0.61,-1.63 -0.41,-1.68 -0.21,-1.73 0.00,-1.73 0.21,-1.73 0.41,-1.68 0.62,-1.63 0.80,-1.53 0.99,-1.43 1.15,-1.29 1.30,-1.15 1.42,-0.98 1.54,-0.81 1.62,-0.61 1.69,-0.41 1.72,-0.20 1.74,0.00 1.74,0.00 L 1.74,0 Z"/></g><g transform="translate(599.7099609375 115.07666015625) rotate(0 5.16082763671875 -0.266357421875)" stroke="none"><path fill="#000000" d="M -0.14,-2.03 Q -0.14,-2.03 1.90,-2.88 3.96,-3.72 6.56,-2.76 9.16,-1.80 9.38,-1.77 9.59,-1.75 9.78,-1.65 9.97,-1.56 10.12,-1.41 10.27,-1.26 10.37,-1.07 10.46,-0.88 10.50,-0.67 10.53,-0.46 10.49,-0.26 10.45,-0.05 10.35,0.13 10.24,0.32 10.09,0.46 9.93,0.60 9.74,0.69 9.54,0.77 9.33,0.79 9.12,0.81 8.91,0.76 8.71,0.71 8.53,0.60 8.35,0.49 8.21,0.33 8.08,0.16 8.00,-0.03 7.93,-0.23 7.92,-0.44 7.91,-0.65 7.97,-0.86 8.03,-1.06 8.15,-1.23 8.28,-1.41 8.45,-1.53 8.62,-1.66 8.82,-1.72 9.02,-1.79 9.24,-1.78 9.45,-1.78 9.65,-1.71 9.85,-1.64 10.02,-1.50 10.18,-1.37 10.30,-1.20 10.41,-1.02 10.47,-0.81 10.52,-0.61 10.51,-0.39 10.49,-0.18 10.41,0.00 10.33,0.20 10.19,0.36 10.05,0.52 9.86,0.63 9.68,0.73 9.47,0.77 9.26,0.82 9.26,0.82 9.26,0.82 6.86,1.96 4.46,3.11 2.30,2.57 0.14,2.03 -0.09,2.02 -0.34,2.01 -0.57,1.94 -0.81,1.87 -1.02,1.74 -1.24,1.62 -1.41,1.45 -1.59,1.27 -1.72,1.07 -1.85,0.86 -1.92,0.62 -2.00,0.39 -2.02,0.14 -2.04,-0.09 -1.99,-0.34 -1.95,-0.58 -1.85,-0.80 -1.76,-1.03 -1.61,-1.23 -1.46,-1.42 -1.27,-1.58 -1.07,-1.73 -0.85,-1.83 -0.63,-1.94 -0.38,-1.99 -0.14,-2.03 -0.14,-2.03 L -0.14,-2.03 Z"/></g><g transform="translate(498.4259033203125 105.22152709960938) rotate(0 -0.53271484375 12.81829833984375)" stroke="none"><path fill="#000000" d="M 1.84,0.06 Q 1.84,0.06 2.42,2.41 3.00,4.77 2.86,7.69 2.72,10.60 2.34,13.95 1.95,17.29 1.12,20.72 0.29,24.14 0.25,24.35 0.21,24.56 0.10,24.74 0.00,24.93 -0.15,25.07 -0.31,25.21 -0.51,25.29 -0.70,25.37 -0.91,25.39 -1.12,25.41 -1.33,25.36 -1.54,25.30 -1.72,25.19 -1.89,25.07 -2.03,24.91 -2.16,24.74 -2.23,24.54 -2.30,24.34 -2.31,24.13 -2.31,23.92 -2.25,23.71 -2.19,23.51 -2.06,23.34 -1.94,23.17 -1.76,23.04 -1.59,22.92 -1.39,22.86 -1.19,22.80 -0.97,22.80 -0.76,22.81 -0.56,22.88 -0.36,22.96 -0.20,23.09 -0.03,23.23 0.07,23.41 0.19,23.58 0.24,23.79 0.29,24.00 0.27,24.21 0.25,24.42 0.17,24.62 0.08,24.81 -0.05,24.97 -0.19,25.13 -0.38,25.23 -0.57,25.33 -0.77,25.37 -0.98,25.41 -1.19,25.38 -1.40,25.35 -1.59,25.26 -1.78,25.16 -1.93,25.01 -2.08,24.86 -2.18,24.67 -2.27,24.48 -2.30,24.27 -2.33,24.06 -2.33,24.06 -2.33,24.06 -2.94,20.53 -3.56,17.00 -3.59,13.64 -3.62,10.28 -3.46,7.42 -3.30,4.56 -2.57,2.25 -1.84,-0.06 -1.81,-0.28 -1.77,-0.50 -1.69,-0.70 -1.60,-0.91 -1.47,-1.08 -1.34,-1.26 -1.16,-1.41 -0.99,-1.55 -0.79,-1.64 -0.59,-1.74 -0.37,-1.79 -0.16,-1.83 0.06,-1.83 0.28,-1.82 0.49,-1.76 0.71,-1.70 0.90,-1.59 1.09,-1.48 1.25,-1.33 1.42,-1.17 1.54,-0.99 1.66,-0.80 1.73,-0.59 1.80,-0.38 1.82,-0.16 1.84,0.06 1.84,0.06 L 1.84,0.06 Z"/></g><g transform="translate(510.8782958984375 110.41546630859375) rotate(0 0.799072265625 8.2569580078125)" stroke="none"><path fill="#000000" d="M 1.98,-0.20 Q 1.98,-0.20 2.66,3.43 3.33,7.08 3.04,10.91 2.75,14.74 2.74,14.95 2.72,15.16 2.64,15.35 2.56,15.55 2.42,15.71 2.28,15.87 2.09,15.98 1.91,16.08 1.70,16.12 1.49,16.17 1.28,16.14 1.07,16.11 0.88,16.02 0.69,15.93 0.53,15.78 0.38,15.63 0.29,15.44 0.19,15.25 0.16,15.04 0.13,14.83 0.17,14.62 0.21,14.41 0.31,14.23 0.41,14.04 0.57,13.90 0.73,13.75 0.92,13.67 1.11,13.58 1.33,13.56 1.54,13.54 1.74,13.59 1.95,13.64 2.13,13.76 2.31,13.87 2.45,14.03 2.58,14.20 2.66,14.40 2.73,14.59 2.74,14.81 2.75,15.02 2.69,15.22 2.62,15.43 2.50,15.60 2.38,15.77 2.21,15.90 2.04,16.03 1.83,16.09 1.63,16.15 1.42,16.15 1.21,16.15 1.01,16.07 0.81,16.00 0.64,15.87 0.47,15.74 0.36,15.56 0.24,15.38 0.19,15.18 0.13,14.97 0.13,14.97 0.13,14.97 -0.83,11.29 -1.80,7.61 -1.89,3.91 -1.98,0.20 -1.97,-0.03 -1.97,-0.27 -1.91,-0.50 -1.85,-0.73 -1.73,-0.94 -1.62,-1.15 -1.45,-1.33 -1.29,-1.51 -1.09,-1.64 -0.89,-1.77 -0.66,-1.86 -0.44,-1.94 -0.20,-1.96 0.03,-1.99 0.27,-1.95 0.50,-1.92 0.73,-1.83 0.95,-1.74 1.15,-1.60 1.34,-1.46 1.50,-1.28 1.65,-1.10 1.76,-0.88 1.87,-0.67 1.92,-0.44 1.98,-0.20 1.98,-0.20 L 1.98,-0.20 Z"/></g><g transform="translate(499.95751953125 121.26937866210938) rotate(0 6.19293212890625 -0.19976806640625)" stroke="none"><path fill="#000000" d="M -0.03,-2.00 Q -0.03,-2.00 2.46,-2.64 4.96,-3.29 8.32,-2.55 11.67,-1.80 11.88,-1.78 12.10,-1.76 12.29,-1.67 12.48,-1.58 12.64,-1.43 12.79,-1.29 12.89,-1.10 12.99,-0.91 13.02,-0.70 13.06,-0.49 13.03,-0.28 12.99,-0.07 12.89,0.10 12.79,0.29 12.64,0.44 12.48,0.58 12.29,0.67 12.10,0.76 11.89,0.79 11.68,0.81 11.47,0.76 11.26,0.72 11.08,0.61 10.90,0.50 10.76,0.34 10.62,0.18 10.54,-0.01 10.46,-0.21 10.45,-0.42 10.44,-0.63 10.50,-0.84 10.55,-1.04 10.67,-1.22 10.79,-1.40 10.96,-1.52 11.13,-1.65 11.33,-1.72 11.53,-1.79 11.75,-1.79 11.96,-1.79 12.16,-1.72 12.36,-1.65 12.53,-1.52 12.70,-1.40 12.82,-1.22 12.94,-1.04 12.99,-0.84 13.05,-0.64 13.04,-0.42 13.03,-0.21 12.95,-0.01 12.87,0.17 12.73,0.34 12.60,0.50 12.41,0.61 12.23,0.72 12.03,0.76 11.82,0.81 11.82,0.81 11.82,0.81 8.44,1.97 5.06,3.14 2.54,2.57 0.03,2.00 -0.20,1.97 -0.44,1.95 -0.67,1.86 -0.90,1.78 -1.10,1.65 -1.30,1.51 -1.46,1.34 -1.62,1.16 -1.74,0.95 -1.86,0.73 -1.92,0.50 -1.98,0.27 -1.98,0.03 -1.99,-0.21 -1.93,-0.44 -1.88,-0.68 -1.77,-0.89 -1.66,-1.11 -1.50,-1.29 -1.35,-1.47 -1.15,-1.61 -0.95,-1.75 -0.73,-1.84 -0.50,-1.93 -0.26,-1.96 -0.03,-2.00 -0.03,-2.00 L -0.03,-2.00 Z"/></g><g transform="translate(546.7039794921875 14.5946044921875) rotate(0 1.16534423828125 0.19976806640625)" stroke="none"><path fill="#000000" d="M 2.29,-0.71 Q 2.29,-0.71 2.33,-0.14 2.36,0.43 2.12,0.95 1.89,1.48 1.43,1.83 0.98,2.19 0.42,2.29 -0.14,2.40 -0.69,2.22 -1.24,2.05 -1.65,1.65 -2.05,1.24 -2.22,0.69 -2.40,0.14 -2.29,-0.42 -2.19,-0.98 -1.83,-1.44 -1.48,-1.89 -0.95,-2.12 -0.43,-2.36 0.14,-2.33 0.71,-2.29 1.20,-1.99 1.70,-1.69 1.99,-1.20 L 2.29,-0.71 Z"/></g><g transform="translate(560.0220947265625 11.864471435546875) rotate(0 0.59930419921875 -0.9322357177734375)" stroke="none"><path fill="#000000" d="M 2.02,-0.63 Q 2.02,-0.63 2.05,-0.12 2.08,0.38 1.87,0.84 1.67,1.30 1.27,1.62 0.87,1.93 0.37,2.02 -0.12,2.11 -0.61,1.96 -1.09,1.81 -1.45,1.45 -1.81,1.09 -1.96,0.61 -2.11,0.12 -2.02,-0.37 -1.93,-0.87 -1.62,-1.27 -1.30,-1.67 -0.84,-1.87 -0.38,-2.08 0.12,-2.05 0.63,-2.02 1.06,-1.76 1.50,-1.49 1.76,-1.06 L 2.02,-0.63 Z"/></g></svg>