<svg version="1.1" xmlns="http://www.w3.org/2000/svg" viewBox="0 0 451.95399215004676 111.30415482954527" width="451.95399215004676" height="111.30415482954527" filter="invert(93%) hue-rotate(180deg)">
  <!-- svg-source:excalidraw -->
  
  <defs>
    <style class="style-fonts">
      @font-face {
        font-family: "Virgil";
        src: url("https://excalidraw.com/Virgil.woff2");
      }
      @font-face {
        font-family: "Cascadia";
        src: url("https://excalidraw.com/Cascadia.woff2");
      }
    </style>
  </defs>
  <rect x="0" y="0" width="451.95399215004676" height="111.30415482954527" fill="transparent"/><g stroke-linecap="round"><g transform="translate(10 64.35581831498536) rotate(0 210.85868072509766 0)"><path d="M0 0 C70.29 0, 351.43 0, 421.72 0 M0 0 C70.29 0, 351.43 0, 421.72 0" stroke="#000000" stroke-width="0.5" fill="none"/></g></g><mask/><g transform="translate(218.29493713378906 50.172468705610356) rotate(0 0.3995513916015625 9.422271728515625)" stroke="none"><path fill="#000000" d="M 0.85,-0.03 Q 0.85,-0.03 1.16,2.45 1.48,4.95 1.53,7.51 1.57,10.07 1.47,13.65 1.36,17.22 1.35,17.33 1.34,17.44 1.30,17.53 1.25,17.63 1.18,17.71 1.11,17.78 1.01,17.83 0.92,17.88 0.81,17.90 0.71,17.92 0.60,17.90 0.50,17.88 0.41,17.83 0.31,17.78 0.24,17.70 0.17,17.63 0.12,17.53 0.08,17.43 0.06,17.33 0.05,17.22 0.08,17.12 0.10,17.02 0.15,16.92 0.21,16.83 0.29,16.77 0.37,16.70 0.47,16.66 0.57,16.62 0.67,16.61 0.78,16.61 0.88,16.63 0.98,16.66 1.07,16.72 1.16,16.78 1.22,16.87 1.29,16.95 1.32,17.05 1.36,17.15 1.36,17.26 1.36,17.37 1.32,17.47 1.29,17.57 1.22,17.65 1.16,17.74 1.07,17.80 0.98,17.86 0.88,17.88 0.78,17.91 0.67,17.91 0.57,17.90 0.47,17.86 0.37,17.82 0.29,17.75 0.21,17.68 0.15,17.59 0.10,17.50 0.08,17.40 0.05,17.29 0.05,17.29 0.05,17.29 -0.43,13.70 -0.92,10.11 -0.97,7.59 -1.02,5.07 -0.93,2.55 -0.85,0.03 -0.84,-0.06 -0.83,-0.16 -0.80,-0.26 -0.77,-0.36 -0.71,-0.44 -0.66,-0.53 -0.59,-0.60 -0.51,-0.67 -0.42,-0.73 -0.33,-0.78 -0.24,-0.81 -0.14,-0.84 -0.03,-0.84 0.06,-0.85 0.16,-0.83 0.26,-0.81 0.35,-0.76 0.45,-0.72 0.53,-0.65 0.61,-0.59 0.67,-0.51 0.73,-0.43 0.77,-0.33 0.81,-0.24 0.83,-0.14 0.85,-0.03 0.85,-0.03 L 0.85,-0.03 Z"/></g><g transform="translate(212.07701498089438 78.22017785274602) rotate(0 4.943838408499062 5.347253048058718)" stroke="none"><path fill="#000000" d="M 0.71,-0.43 Q 0.71,-0.43 1.58,0.78 2.44,2.00 3.44,3.39 4.44,4.78 5.44,6.02 6.45,7.27 8.14,8.58 9.83,9.90 9.92,9.97 10.00,10.04 10.05,10.13 10.11,10.22 10.13,10.32 10.16,10.42 10.15,10.53 10.14,10.64 10.10,10.73 10.05,10.83 9.98,10.91 9.91,10.99 9.82,11.04 9.72,11.09 9.62,11.11 9.51,11.13 9.41,11.11 9.30,11.09 9.21,11.05 9.11,11.00 9.04,10.92 8.97,10.85 8.92,10.75 8.87,10.65 8.86,10.55 8.85,10.44 8.87,10.34 8.89,10.23 8.94,10.14 9.00,10.05 9.08,9.98 9.16,9.91 9.26,9.87 9.35,9.83 9.46,9.82 9.57,9.82 9.67,9.84 9.77,9.87 9.86,9.93 9.95,9.99 10.01,10.07 10.08,10.15 10.12,10.25 10.15,10.35 10.15,10.46 10.15,10.57 10.12,10.67 10.09,10.77 10.03,10.85 9.96,10.94 9.88,11.00 9.79,11.06 9.69,11.09 9.58,11.12 9.48,11.12 9.37,11.11 9.27,11.07 9.17,11.04 9.17,11.04 9.17,11.04 7.03,9.81 4.88,8.59 3.78,7.30 2.68,6.02 1.67,4.55 0.65,3.09 -0.02,1.76 -0.71,0.43 -0.75,0.34 -0.80,0.25 -0.81,0.15 -0.83,0.05 -0.83,-0.04 -0.82,-0.14 -0.79,-0.24 -0.76,-0.34 -0.71,-0.42 -0.66,-0.51 -0.59,-0.58 -0.51,-0.65 -0.43,-0.71 -0.34,-0.76 -0.25,-0.79 -0.15,-0.82 -0.05,-0.83 0.04,-0.83 0.14,-0.81 0.24,-0.80 0.33,-0.76 0.43,-0.71 0.51,-0.65 0.59,-0.59 0.65,-0.51 0.71,-0.43 0.71,-0.43 L 0.71,-0.43 Z"/></g><g transform="translate(219.9467955502599 76.80767637310589) rotate(0 -4.84294544566761 6.981700550426126)" stroke="none"><path fill="#000000" d="M 0.64,0.53 Q 0.64,0.53 -1.33,3.34 -3.31,6.15 -4.64,8.07 -5.98,9.98 -7.44,11.94 -8.90,13.89 -8.97,13.98 -9.03,14.06 -9.12,14.12 -9.21,14.18 -9.31,14.21 -9.41,14.24 -9.52,14.23 -9.62,14.22 -9.72,14.18 -9.82,14.14 -9.90,14.08 -9.98,14.01 -10.04,13.92 -10.09,13.82 -10.11,13.72 -10.14,13.62 -10.12,13.51 -10.11,13.41 -10.07,13.31 -10.02,13.21 -9.95,13.14 -9.88,13.06 -9.78,13.01 -9.69,12.96 -9.58,12.94 -9.48,12.93 -9.37,12.94 -9.27,12.96 -9.18,13.01 -9.08,13.06 -9.01,13.14 -8.94,13.22 -8.89,13.31 -8.85,13.41 -8.84,13.51 -8.82,13.62 -8.85,13.72 -8.87,13.83 -8.93,13.92 -8.98,14.01 -9.06,14.08 -9.14,14.15 -9.24,14.19 -9.34,14.22 -9.45,14.23 -9.55,14.24 -9.66,14.21 -9.76,14.18 -9.85,14.12 -9.93,14.06 -10.00,13.97 -10.06,13.89 -10.10,13.79 -10.13,13.69 -10.13,13.58 -10.13,13.47 -10.09,13.37 -10.06,13.27 -10.06,13.27 -10.06,13.27 -9.11,10.88 -8.16,8.48 -6.79,6.45 -5.41,4.42 -3.02,1.94 -0.64,-0.53 -0.57,-0.60 -0.50,-0.67 -0.41,-0.72 -0.32,-0.77 -0.22,-0.80 -0.13,-0.82 -0.02,-0.83 0.07,-0.83 0.17,-0.81 0.26,-0.79 0.36,-0.75 0.45,-0.70 0.52,-0.64 0.60,-0.57 0.66,-0.49 0.72,-0.41 0.76,-0.32 0.80,-0.22 0.82,-0.12 0.83,-0.02 0.82,0.07 0.82,0.17 0.78,0.26 0.75,0.36 0.70,0.44 0.64,0.53 0.64,0.53 L 0.64,0.53 Z"/></g><g transform="translate(228.50266676238112 89.52004172585208) rotate(0 -0.8677072236032188 1.614250414299221)" stroke="none"><path fill="#000000" d="M 0.25,0.80 Q 0.25,0.80 -0.42,1.22 -1.09,1.65 -0.38,1.81 0.32,1.98 -0.11,1.34 -0.54,0.71 -0.54,0.60 -0.54,0.49 -0.51,0.39 -0.48,0.29 -0.41,0.21 -0.35,0.12 -0.26,0.06 -0.17,0.00 -0.07,-0.02 0.02,-0.05 0.13,-0.04 0.23,-0.04 0.33,-0.00 0.43,0.03 0.51,0.10 0.60,0.17 0.65,0.26 0.71,0.35 0.73,0.45 0.75,0.56 0.74,0.66 0.73,0.77 0.69,0.87 0.64,0.96 0.57,1.04 0.50,1.12 0.40,1.17 0.31,1.22 0.20,1.24 0.10,1.25 -0.00,1.24 -0.10,1.22 -0.19,1.17 -0.29,1.12 -0.36,1.04 -0.44,0.97 -0.48,0.87 -0.53,0.78 -0.54,0.67 -0.55,0.56 -0.53,0.46 -0.50,0.36 -0.45,0.27 -0.40,0.17 -0.32,0.10 -0.23,0.04 -0.14,0.00 -0.04,-0.03 0.06,-0.04 0.16,-0.05 0.27,-0.02 0.37,0.00 0.46,0.06 0.55,0.12 0.61,0.20 0.68,0.29 0.71,0.39 0.74,0.49 0.74,0.49 0.74,0.49 1.41,2.48 2.08,4.47 1.01,4.83 -0.05,5.18 -1.26,4.78 -2.48,4.38 -3.19,3.37 -3.91,2.37 -3.58,1.05 -3.26,-0.25 -1.76,-0.53 -0.25,-0.80 -0.15,-0.82 -0.05,-0.83 0.04,-0.83 0.14,-0.82 0.24,-0.79 0.33,-0.76 0.42,-0.71 0.51,-0.66 0.58,-0.59 0.65,-0.52 0.71,-0.43 0.76,-0.35 0.79,-0.25 0.82,-0.15 0.83,-0.05 0.83,0.04 0.82,0.14 0.80,0.24 0.76,0.33 0.72,0.43 0.66,0.51 0.59,0.59 0.51,0.65 0.43,0.71 0.34,0.75 0.25,0.80 0.25,0.80 L 0.25,0.80 Z"/></g><g transform="translate(358.13207239093225 55.13616388494296) rotate(0 0 9.443451852509469)" stroke="none"><path fill="#000000" d="M 0.84,-0.01 Q 0.84,-0.01 1.02,2.91 1.19,5.83 1.12,8.53 1.05,11.23 0.80,14.36 0.55,17.50 0.53,17.61 0.51,17.71 0.46,17.80 0.41,17.90 0.33,17.97 0.25,18.04 0.15,18.09 0.06,18.13 -0.04,18.14 -0.14,18.15 -0.25,18.13 -0.35,18.10 -0.44,18.05 -0.53,17.99 -0.60,17.91 -0.67,17.83 -0.71,17.73 -0.74,17.63 -0.75,17.52 -0.75,17.42 -0.72,17.32 -0.69,17.21 -0.63,17.13 -0.57,17.04 -0.49,16.98 -0.40,16.91 -0.30,16.88 -0.20,16.85 -0.09,16.85 0.00,16.85 0.10,16.88 0.20,16.92 0.29,16.98 0.37,17.05 0.43,17.14 0.49,17.23 0.51,17.33 0.54,17.43 0.54,17.54 0.53,17.64 0.49,17.74 0.45,17.84 0.38,17.92 0.31,18.00 0.22,18.05 0.13,18.11 0.02,18.13 -0.07,18.15 -0.18,18.14 -0.28,18.13 -0.38,18.08 -0.48,18.03 -0.55,17.96 -0.63,17.89 -0.68,17.79 -0.73,17.70 -0.74,17.59 -0.76,17.49 -0.76,17.49 -0.76,17.49 -0.94,14.34 -1.13,11.18 -1.09,8.52 -1.05,5.86 -0.95,2.93 -0.84,0.01 -0.83,-0.09 -0.82,-0.19 -0.78,-0.28 -0.75,-0.38 -0.69,-0.46 -0.63,-0.55 -0.56,-0.62 -0.48,-0.69 -0.39,-0.73 -0.30,-0.78 -0.21,-0.81 -0.11,-0.83 -0.00,-0.83 0.09,-0.84 0.19,-0.81 0.29,-0.79 0.38,-0.74 0.47,-0.70 0.54,-0.63 0.62,-0.56 0.68,-0.48 0.74,-0.40 0.78,-0.30 0.81,-0.21 0.83,-0.11 0.84,-0.00 0.84,-0.01 L 0.84,-0.01 Z"/></g><g transform="translate(333.83664004008 81.2872499408142) rotate(0 3.6322021484375 7.304558031486749)" stroke="none"><path fill="#000000" d="M 0.81,-0.33 Q 0.81,-0.33 1.56,1.36 2.31,3.06 3.07,5.02 3.83,6.97 4.58,8.76 5.33,10.55 6.44,12.23 7.54,13.91 7.60,14.00 7.65,14.09 7.67,14.20 7.69,14.30 7.67,14.41 7.66,14.51 7.61,14.61 7.57,14.70 7.49,14.78 7.42,14.85 7.32,14.90 7.23,14.95 7.12,14.96 7.02,14.98 6.91,14.96 6.81,14.94 6.71,14.89 6.62,14.83 6.55,14.76 6.48,14.68 6.44,14.58 6.40,14.48 6.39,14.38 6.38,14.27 6.40,14.17 6.43,14.06 6.49,13.97 6.54,13.88 6.63,13.82 6.71,13.75 6.81,13.71 6.91,13.68 7.01,13.67 7.12,13.67 7.22,13.70 7.32,13.73 7.41,13.80 7.50,13.86 7.56,13.94 7.62,14.03 7.65,14.13 7.68,14.23 7.68,14.34 7.68,14.45 7.64,14.54 7.60,14.64 7.54,14.73 7.47,14.81 7.38,14.87 7.29,14.93 7.19,14.95 7.09,14.98 6.98,14.97 6.87,14.96 6.78,14.92 6.68,14.88 6.60,14.80 6.52,14.73 6.52,14.73 6.52,14.73 5.06,13.02 3.60,11.31 2.80,9.49 2.01,7.68 1.26,5.74 0.52,3.80 -0.14,2.06 -0.81,0.33 -0.84,0.23 -0.87,0.13 -0.87,0.02 -0.87,-0.08 -0.85,-0.18 -0.83,-0.28 -0.78,-0.38 -0.73,-0.47 -0.67,-0.56 -0.60,-0.64 -0.51,-0.70 -0.43,-0.76 -0.33,-0.80 -0.23,-0.84 -0.13,-0.86 -0.02,-0.88 0.08,-0.87 0.18,-0.86 0.28,-0.82 0.38,-0.79 0.47,-0.73 0.56,-0.67 0.63,-0.59 0.71,-0.52 0.76,-0.42 0.81,-0.33 0.81,-0.33 L 0.81,-0.33 Z"/></g><g transform="translate(344.3296931295686 85.36328864820058) rotate(0 -4.5604359019886545 5.367431640625)" stroke="none"><path fill="#000000" d="M 0.42,0.75 Q 0.42,0.75 -1.05,1.82 -2.54,2.88 -3.73,4.24 -4.93,5.60 -6.60,8.03 -8.27,10.47 -8.33,10.56 -8.39,10.64 -8.47,10.71 -8.56,10.77 -8.66,10.80 -8.76,10.84 -8.86,10.83 -8.97,10.83 -9.07,10.80 -9.17,10.76 -9.26,10.70 -9.34,10.63 -9.40,10.55 -9.46,10.46 -9.48,10.35 -9.51,10.25 -9.51,10.15 -9.50,10.04 -9.46,9.94 -9.42,9.84 -9.35,9.76 -9.28,9.68 -9.19,9.63 -9.10,9.57 -8.99,9.55 -8.89,9.53 -8.78,9.54 -8.68,9.56 -8.58,9.60 -8.48,9.65 -8.41,9.72 -8.33,9.79 -8.28,9.89 -8.23,9.98 -8.22,10.09 -8.20,10.19 -8.22,10.30 -8.24,10.40 -8.29,10.50 -8.34,10.59 -8.42,10.66 -8.50,10.73 -8.59,10.78 -8.69,10.82 -8.79,10.83 -8.90,10.84 -9.00,10.82 -9.11,10.79 -9.20,10.74 -9.29,10.68 -9.36,10.60 -9.42,10.52 -9.46,10.42 -9.50,10.32 -9.51,10.22 -9.51,10.11 -9.48,10.01 -9.45,9.91 -9.45,9.91 -9.45,9.91 -8.13,6.90 -6.82,3.89 -5.31,2.29 -3.81,0.69 -2.12,-0.03 -0.42,-0.75 -0.32,-0.79 -0.23,-0.83 -0.12,-0.85 -0.02,-0.87 0.07,-0.86 0.18,-0.85 0.28,-0.81 0.38,-0.78 0.47,-0.72 0.55,-0.66 0.63,-0.59 0.70,-0.51 0.75,-0.42 0.80,-0.33 0.83,-0.23 0.86,-0.12 0.86,-0.02 0.86,0.08 0.84,0.18 0.82,0.28 0.77,0.37 0.73,0.47 0.66,0.55 0.59,0.63 0.51,0.69 0.42,0.75 0.42,0.75 L 0.42,0.75 Z"/></g><g transform="translate(352.5627068606292 98.27740293560583) rotate(0 -2.9461300011836897 -0.16141024502837809)" stroke="none"><path fill="#000000" d="M -0.72,0.56 Q -0.72,0.56 -1.57,-0.14 -2.43,-0.85 -2.97,-0.37 -3.52,0.10 -2.96,0.33 -2.40,0.56 -1.78,-0.24 -1.16,-1.06 -1.13,-1.13 -1.09,-1.20 -1.04,-1.26 -0.99,-1.32 -0.92,-1.36 -0.86,-1.41 -0.78,-1.44 -0.71,-1.46 -0.63,-1.47 -0.55,-1.48 -0.47,-1.47 -0.39,-1.47 -0.32,-1.44 -0.25,-1.41 -0.18,-1.37 -0.12,-1.32 -0.06,-1.26 -0.01,-1.20 0.02,-1.13 0.05,-1.06 0.07,-0.99 0.09,-0.91 0.09,-0.83 0.09,-0.75 0.08,-0.67 0.06,-0.60 0.07,-0.80 0.08,-1.00 0.09,-0.89 0.10,-0.79 0.07,-0.68 0.05,-0.58 -0.00,-0.49 -0.05,-0.40 -0.13,-0.33 -0.21,-0.26 -0.31,-0.22 -0.41,-0.18 -0.52,-0.18 -0.63,-0.17 -0.73,-0.20 -0.83,-0.23 -0.92,-0.29 -1.00,-0.35 -1.07,-0.44 -1.13,-0.52 -1.16,-0.63 -1.20,-0.73 -1.20,-0.83 -1.20,-0.94 -1.16,-1.04 -1.13,-1.14 -1.06,-1.22 -1.00,-1.31 -0.91,-1.37 -0.82,-1.43 -0.72,-1.45 -0.61,-1.48 -0.51,-1.47 -0.40,-1.47 -0.30,-1.43 -0.20,-1.39 -0.12,-1.32 -0.04,-1.25 0.00,-1.16 0.05,-1.06 0.08,-0.96 0.10,-0.86 0.09,-0.75 0.07,-0.65 0.03,-0.55 -0.01,-0.45 -0.08,-0.38 -0.16,-0.30 -0.25,-0.25 -0.34,-0.20 -0.45,-0.19 -0.55,-0.17 -0.66,-0.19 -0.76,-0.21 -0.86,-0.26 -0.95,-0.31 -1.02,-0.39 -1.10,-0.46 -1.13,-0.76 -1.16,-1.06 -1.13,-1.13 -1.09,-1.20 -1.04,-1.26 -0.99,-1.32 -0.92,-1.36 -0.86,-1.41 -0.78,-1.44 -0.71,-1.46 -0.63,-1.47 -0.55,-1.48 -0.47,-1.47 -0.39,-1.47 -0.32,-1.44 -0.25,-1.41 -0.18,-1.37 -0.12,-1.32 -0.06,-1.26 -0.01,-1.20 0.02,-1.13 0.05,-1.06 0.07,-0.99 0.09,-0.91 0.09,-0.83 0.09,-0.75 0.08,-0.67 0.06,-0.60 0.51,-0.11 0.96,0.36 0.62,1.41 0.28,2.47 -0.65,3.15 -1.60,3.83 -2.92,3.94 -4.24,4.05 -5.30,3.31 -6.36,2.57 -6.62,1.25 -6.88,-0.05 -6.24,-1.26 -5.60,-2.47 -4.41,-3.08 -3.23,-3.69 -1.90,-3.34 -0.58,-2.99 0.06,-1.77 0.72,-0.56 0.77,-0.47 0.83,-0.37 0.86,-0.27 0.90,-0.16 0.90,-0.05 0.91,0.05 0.89,0.16 0.87,0.27 0.82,0.37 0.78,0.47 0.71,0.56 0.64,0.64 0.56,0.71 0.47,0.78 0.37,0.82 0.27,0.87 0.16,0.89 0.05,0.91 -0.05,0.90 -0.16,0.90 -0.27,0.86 -0.37,0.83 -0.47,0.77 -0.56,0.72 -0.64,0.64 -0.72,0.56 -0.72,0.56 L -0.72,0.56 Z"/></g><g transform="translate(359.7867539723716 90.28679125236721) rotate(0 3.390059037642061 -0.5851606889204106)" stroke="none"><path fill="#000000" d="M 0.08,-0.88 Q 0.08,-0.88 1.09,-0.92 2.10,-0.96 4.03,-1.52 5.97,-2.09 6.07,-2.12 6.17,-2.16 6.27,-2.15 6.38,-2.15 6.48,-2.12 6.58,-2.09 6.67,-2.02 6.75,-1.96 6.81,-1.87 6.87,-1.78 6.90,-1.68 6.92,-1.57 6.92,-1.47 6.91,-1.36 6.87,-1.26 6.83,-1.17 6.76,-1.08 6.69,-1.00 6.60,-0.95 6.51,-0.90 6.41,-0.87 6.30,-0.85 6.20,-0.86 6.09,-0.88 6.00,-0.92 5.90,-0.97 5.82,-1.04 5.75,-1.11 5.70,-1.21 5.65,-1.30 5.63,-1.41 5.61,-1.51 5.63,-1.62 5.65,-1.72 5.70,-1.81 5.75,-1.91 5.83,-1.98 5.91,-2.05 6.00,-2.10 6.10,-2.14 6.20,-2.15 6.31,-2.16 6.41,-2.14 6.52,-2.12 6.61,-2.06 6.70,-2.01 6.77,-1.92 6.84,-1.84 6.87,-1.74 6.91,-1.64 6.92,-1.54 6.92,-1.43 6.89,-1.33 6.87,-1.23 6.81,-1.14 6.75,-1.05 6.66,-0.99 6.58,-0.93 6.58,-0.93 6.58,-0.93 4.25,0.20 1.93,1.33 0.92,1.11 -0.08,0.88 -0.18,0.86 -0.29,0.84 -0.38,0.79 -0.48,0.74 -0.56,0.67 -0.65,0.61 -0.71,0.52 -0.77,0.43 -0.81,0.33 -0.85,0.23 -0.87,0.13 -0.89,0.02 -0.88,-0.08 -0.87,-0.18 -0.83,-0.28 -0.80,-0.39 -0.74,-0.48 -0.68,-0.57 -0.60,-0.64 -0.52,-0.71 -0.43,-0.77 -0.34,-0.82 -0.23,-0.85 -0.13,-0.88 -0.02,-0.88 0.08,-0.88 0.08,-0.88 L 0.08,-0.88 Z"/></g><g transform="translate(363.1364373293792 86.57400420217783) rotate(0 -0.5448219992897521 3.7329841382575637)" stroke="none"><path fill="#000000" d="M 0.86,0.15 Q 0.86,0.15 0.58,1.95 0.30,3.75 0.01,5.29 -0.28,6.83 -0.31,6.93 -0.34,7.03 -0.39,7.12 -0.45,7.21 -0.54,7.27 -0.62,7.34 -0.72,7.37 -0.82,7.41 -0.93,7.41 -1.03,7.41 -1.14,7.38 -1.24,7.35 -1.32,7.28 -1.41,7.22 -1.47,7.13 -1.53,7.04 -1.56,6.94 -1.59,6.84 -1.58,6.73 -1.58,6.63 -1.54,6.53 -1.50,6.43 -1.43,6.35 -1.36,6.27 -1.27,6.21 -1.18,6.15 -1.08,6.13 -0.98,6.11 -0.87,6.12 -0.77,6.13 -0.67,6.17 -0.57,6.22 -0.49,6.29 -0.42,6.36 -0.37,6.45 -0.31,6.55 -0.30,6.65 -0.28,6.76 -0.29,6.86 -0.31,6.97 -0.36,7.06 -0.41,7.15 -0.48,7.23 -0.56,7.30 -0.66,7.35 -0.75,7.39 -0.86,7.41 -0.96,7.42 -1.07,7.40 -1.17,7.37 -1.26,7.32 -1.36,7.27 -1.42,7.19 -1.49,7.11 -1.53,7.01 -1.57,6.91 -1.58,6.80 -1.59,6.70 -1.59,6.70 -1.59,6.70 -1.57,5.06 -1.56,3.43 -1.21,1.64 -0.86,-0.15 -0.83,-0.25 -0.80,-0.35 -0.75,-0.44 -0.69,-0.53 -0.62,-0.61 -0.54,-0.68 -0.45,-0.74 -0.36,-0.79 -0.26,-0.83 -0.16,-0.86 -0.06,-0.87 0.04,-0.87 0.15,-0.86 0.25,-0.84 0.35,-0.80 0.44,-0.75 0.53,-0.69 0.61,-0.62 0.68,-0.54 0.74,-0.46 0.79,-0.36 0.83,-0.26 0.85,-0.16 0.87,-0.06 0.87,0.04 0.86,0.15 0.86,0.15 L 0.86,0.15 Z"/></g><g transform="translate(374.1541708165951 85.68614612926115) rotate(0 -0.48432321259468836 5.952610825047344)" stroke="none"><path fill="#000000" d="M 0.85,-0.04 Q 0.85,-0.04 1.07,1.25 1.30,2.56 1.31,4.11 1.33,5.66 1.14,7.21 0.94,8.77 0.21,10.31 -0.50,11.84 -0.55,11.94 -0.60,12.03 -0.67,12.11 -0.75,12.18 -0.84,12.23 -0.94,12.28 -1.04,12.29 -1.15,12.30 -1.25,12.28 -1.36,12.26 -1.45,12.21 -1.54,12.16 -1.61,12.08 -1.68,12.00 -1.72,11.90 -1.76,11.80 -1.77,11.70 -1.78,11.59 -1.75,11.49 -1.73,11.38 -1.67,11.30 -1.61,11.21 -1.53,11.14 -1.45,11.07 -1.35,11.04 -1.25,11.00 -1.14,11.00 -1.03,11.00 -0.93,11.03 -0.83,11.06 -0.75,11.12 -0.66,11.19 -0.60,11.27 -0.54,11.36 -0.51,11.46 -0.48,11.56 -0.48,11.67 -0.48,11.78 -0.52,11.87 -0.56,11.97 -0.62,12.06 -0.69,12.14 -0.78,12.20 -0.87,12.25 -0.97,12.28 -1.08,12.30 -1.18,12.29 -1.29,12.28 -1.39,12.24 -1.48,12.20 -1.56,12.13 -1.64,12.06 -1.69,11.96 -1.74,11.87 -1.76,11.77 -1.78,11.66 -1.77,11.56 -1.75,11.45 -1.75,11.45 -1.75,11.45 -1.64,9.95 -1.52,8.46 -1.34,7.03 -1.17,5.61 -1.09,4.14 -1.02,2.68 -0.94,1.36 -0.85,0.04 -0.85,-0.05 -0.84,-0.16 -0.81,-0.25 -0.78,-0.35 -0.72,-0.44 -0.67,-0.53 -0.59,-0.60 -0.52,-0.68 -0.43,-0.73 -0.34,-0.78 -0.24,-0.81 -0.14,-0.84 -0.04,-0.85 0.05,-0.85 0.15,-0.83 0.26,-0.81 0.35,-0.77 0.44,-0.73 0.53,-0.66 0.61,-0.60 0.67,-0.52 0.73,-0.43 0.78,-0.34 0.82,-0.24 0.83,-0.14 0.85,-0.04 0.85,-0.04 L 0.85,-0.04 Z"/></g><g transform="translate(376.9388165907429 80.4397860440339) rotate(0 5.549205433238626 8.0511474609375)" stroke="none"><path fill="#000000" d="M -0.48,-0.82 Q -0.48,-0.82 0.06,-1.50 0.61,-2.18 1.68,-2.51 2.75,-2.84 3.96,-2.94 5.18,-3.04 6.55,-2.77 7.92,-2.51 9.12,-1.86 10.31,-1.21 11.10,-0.19 11.89,0.82 11.93,2.21 11.98,3.60 11.06,4.66 10.15,5.73 8.70,6.40 7.26,7.08 6.16,7.63 5.06,8.18 4.83,8.83 4.60,9.48 5.01,10.17 5.43,10.87 6.16,11.85 6.89,12.83 8.38,14.82 9.88,16.80 9.95,16.88 10.02,16.96 10.07,17.06 10.11,17.15 10.12,17.26 10.13,17.37 10.11,17.47 10.08,17.57 10.03,17.66 9.97,17.75 9.89,17.82 9.81,17.89 9.71,17.93 9.61,17.97 9.50,17.97 9.40,17.97 9.29,17.94 9.19,17.91 9.11,17.85 9.02,17.79 8.95,17.71 8.89,17.62 8.86,17.52 8.83,17.42 8.83,17.31 8.83,17.21 8.86,17.11 8.90,17.01 8.96,16.92 9.03,16.84 9.12,16.78 9.21,16.72 9.31,16.70 9.41,16.67 9.52,16.68 9.62,16.68 9.72,16.72 9.82,16.76 9.90,16.83 9.98,16.90 10.04,17.00 10.09,17.09 10.11,17.19 10.13,17.30 10.12,17.40 10.11,17.51 10.06,17.60 10.01,17.70 9.94,17.77 9.87,17.85 9.77,17.90 9.68,17.95 9.57,17.96 9.47,17.98 9.36,17.96 9.26,17.94 9.16,17.89 9.07,17.84 9.07,17.84 9.07,17.84 6.55,16.39 4.03,14.95 3.09,13.66 2.15,12.36 1.58,10.88 1.02,9.39 1.30,8.05 1.58,6.70 2.49,5.83 3.40,4.96 4.60,4.35 5.80,3.75 6.81,3.35 7.81,2.96 8.11,2.35 8.40,1.75 7.74,1.29 7.08,0.84 6.20,0.57 5.33,0.31 4.43,0.32 3.53,0.34 2.85,0.45 2.17,0.55 1.32,0.69 0.48,0.82 0.37,0.87 0.27,0.91 0.15,0.93 0.04,0.95 -0.07,0.94 -0.18,0.93 -0.29,0.90 -0.40,0.86 -0.50,0.80 -0.60,0.74 -0.68,0.66 -0.76,0.57 -0.82,0.47 -0.87,0.37 -0.91,0.26 -0.94,0.15 -0.94,0.04 -0.95,-0.07 -0.93,-0.18 -0.90,-0.29 -0.85,-0.40 -0.81,-0.50 -0.73,-0.59 -0.66,-0.68 -0.57,-0.75 -0.48,-0.82 -0.48,-0.82 L -0.48,-0.82 Z"/></g><g transform="translate(88.98555657357905 56.14505652225358) rotate(0 -0.24214773467092243 9.26186301491478)" stroke="none"><path fill="#000000" d="M 0.79,0.03 Q 0.79,0.03 0.69,3.31 0.60,6.58 0.51,9.31 0.41,12.03 0.52,14.66 0.63,17.29 0.62,17.39 0.62,17.50 0.57,17.60 0.53,17.70 0.46,17.78 0.39,17.85 0.30,17.91 0.21,17.96 0.10,17.98 0.00,18.00 -0.10,17.99 -0.20,17.97 -0.30,17.92 -0.39,17.88 -0.47,17.80 -0.55,17.73 -0.59,17.63 -0.64,17.54 -0.65,17.43 -0.67,17.33 -0.65,17.22 -0.63,17.12 -0.58,17.03 -0.53,16.93 -0.45,16.86 -0.37,16.79 -0.27,16.75 -0.17,16.71 -0.07,16.70 0.03,16.69 0.13,16.71 0.24,16.74 0.33,16.80 0.42,16.85 0.48,16.94 0.55,17.02 0.59,17.12 0.62,17.22 0.63,17.32 0.63,17.43 0.60,17.53 0.57,17.63 0.50,17.72 0.44,17.81 0.36,17.87 0.27,17.93 0.17,17.96 0.07,17.99 -0.03,17.99 -0.14,17.99 -0.23,17.95 -0.33,17.92 -0.42,17.85 -0.50,17.78 -0.56,17.69 -0.62,17.60 -0.64,17.50 -0.67,17.40 -0.67,17.40 -0.67,17.40 -1.00,14.69 -1.34,11.99 -1.29,9.24 -1.25,6.49 -1.02,3.22 -0.79,-0.03 -0.77,-0.13 -0.75,-0.22 -0.72,-0.31 -0.68,-0.40 -0.62,-0.47 -0.56,-0.55 -0.49,-0.61 -0.41,-0.67 -0.33,-0.71 -0.24,-0.75 -0.15,-0.77 -0.05,-0.79 0.03,-0.78 0.13,-0.78 0.22,-0.75 0.31,-0.72 0.40,-0.67 0.48,-0.62 0.55,-0.56 0.61,-0.49 0.66,-0.41 0.71,-0.33 0.74,-0.24 0.77,-0.15 0.78,-0.05 0.79,0.03 0.79,0.03 L 0.79,0.03 Z"/></g><g transform="translate(79.54181804079022 81.1258581912877) rotate(0 4.277930982185133 6.1947354403409065)" stroke="none"><path fill="#000000" d="M 0.74,-0.48 Q 0.74,-0.48 2.72,2.50 4.69,5.50 6.47,8.17 8.25,10.85 8.29,10.94 8.34,11.04 8.36,11.14 8.37,11.25 8.35,11.35 8.33,11.46 8.28,11.55 8.23,11.64 8.15,11.71 8.07,11.78 7.97,11.83 7.88,11.87 7.77,11.88 7.66,11.89 7.56,11.86 7.46,11.84 7.37,11.78 7.28,11.72 7.21,11.64 7.14,11.56 7.11,11.46 7.07,11.36 7.07,11.25 7.06,11.15 7.09,11.05 7.12,10.94 7.19,10.86 7.25,10.77 7.33,10.71 7.42,10.65 7.52,10.61 7.62,10.58 7.73,10.58 7.83,10.59 7.93,10.62 8.03,10.66 8.12,10.73 8.20,10.79 8.26,10.88 8.32,10.97 8.34,11.07 8.37,11.18 8.36,11.28 8.35,11.39 8.31,11.49 8.27,11.58 8.20,11.66 8.13,11.74 8.04,11.79 7.94,11.85 7.84,11.87 7.73,11.89 7.63,11.87 7.52,11.86 7.43,11.81 7.33,11.77 7.26,11.69 7.18,11.62 7.18,11.62 7.18,11.62 5.16,9.06 3.15,6.51 1.20,3.50 -0.74,0.48 -0.79,0.39 -0.84,0.29 -0.86,0.19 -0.89,0.08 -0.88,-0.02 -0.88,-0.13 -0.85,-0.23 -0.82,-0.33 -0.77,-0.43 -0.72,-0.52 -0.64,-0.60 -0.57,-0.68 -0.48,-0.74 -0.39,-0.80 -0.29,-0.83 -0.19,-0.87 -0.08,-0.88 0.02,-0.89 0.13,-0.87 0.23,-0.86 0.33,-0.82 0.43,-0.78 0.52,-0.71 0.61,-0.65 0.68,-0.57 0.74,-0.48 0.74,-0.48 L 0.74,-0.48 Z"/></g><g transform="translate(90.27701424107431 83.34546638257558) rotate(0 -4.015609278823391 5.972789417613626)" stroke="none"><path fill="#000000" d="M 0.72,0.58 Q 0.72,0.58 -0.67,2.75 -2.06,4.92 -3.27,6.69 -4.48,8.46 -5.75,9.99 -7.02,11.53 -7.09,11.61 -7.15,11.69 -7.24,11.74 -7.34,11.80 -7.44,11.82 -7.54,11.85 -7.65,11.84 -7.75,11.83 -7.85,11.78 -7.95,11.74 -8.02,11.66 -8.10,11.59 -8.15,11.50 -8.20,11.41 -8.22,11.30 -8.24,11.20 -8.22,11.09 -8.21,10.99 -8.16,10.89 -8.11,10.80 -8.03,10.72 -7.95,10.65 -7.86,10.61 -7.76,10.56 -7.66,10.55 -7.55,10.54 -7.45,10.56 -7.34,10.58 -7.25,10.63 -7.16,10.69 -7.09,10.77 -7.02,10.85 -6.98,10.95 -6.94,11.05 -6.94,11.15 -6.93,11.26 -6.96,11.36 -6.98,11.46 -7.04,11.55 -7.10,11.64 -7.19,11.71 -7.27,11.77 -7.37,11.80 -7.47,11.84 -7.58,11.84 -7.68,11.84 -7.79,11.81 -7.89,11.77 -7.97,11.71 -8.06,11.65 -8.12,11.56 -8.18,11.47 -8.21,11.37 -8.23,11.27 -8.23,11.16 -8.22,11.05 -8.19,10.96 -8.15,10.86 -8.15,10.86 -8.15,10.86 -7.40,8.99 -6.65,7.13 -5.51,5.09 -4.38,3.05 -2.55,1.23 -0.72,-0.58 -0.64,-0.66 -0.56,-0.74 -0.46,-0.79 -0.36,-0.85 -0.26,-0.88 -0.15,-0.91 -0.04,-0.92 0.07,-0.92 0.18,-0.90 0.29,-0.88 0.39,-0.83 0.49,-0.78 0.58,-0.71 0.66,-0.64 0.73,-0.55 0.80,-0.46 0.84,-0.36 0.89,-0.26 0.91,-0.15 0.93,-0.04 0.92,0.06 0.91,0.18 0.87,0.28 0.84,0.39 0.78,0.49 0.72,0.58 0.72,0.58 L 0.72,0.58 Z"/></g><g transform="translate(100.6893344647959 92.18357895359827) rotate(0 -1.5941319321141094 3.9347700639204675)" stroke="none"><path fill="#000000" d="M 0.34,0.84 Q 0.34,0.84 -0.89,1.66 -2.13,2.47 -2.45,3.23 -2.78,3.99 -2.69,4.53 -2.60,5.07 -2.12,5.31 -1.64,5.56 -0.96,5.08 -0.28,4.60 -0.19,2.76 -0.10,0.92 -0.16,0.83 -0.21,0.74 -0.23,0.63 -0.24,0.53 -0.23,0.42 -0.21,0.32 -0.16,0.22 -0.11,0.13 -0.04,0.05 0.03,-0.01 0.12,-0.06 0.22,-0.10 0.32,-0.12 0.43,-0.13 0.53,-0.11 0.64,-0.09 0.73,-0.03 0.82,0.01 0.89,0.09 0.96,0.17 1.00,0.27 1.04,0.37 1.05,0.47 1.06,0.58 1.03,0.68 1.00,0.79 0.94,0.87 0.89,0.96 0.80,1.03 0.72,1.09 0.62,1.13 0.52,1.16 0.41,1.17 0.30,1.17 0.20,1.13 0.10,1.10 0.02,1.04 -0.06,0.98 -0.12,0.89 -0.18,0.80 -0.21,0.70 -0.24,0.60 -0.23,0.49 -0.23,0.38 -0.19,0.29 -0.15,0.19 -0.09,0.10 -0.02,0.02 0.06,-0.02 0.15,-0.08 0.26,-0.10 0.36,-0.13 0.47,-0.12 0.57,-0.11 0.67,-0.06 0.76,-0.02 0.84,0.04 0.92,0.11 0.92,0.11 0.92,0.11 1.85,2.32 2.79,4.53 2.32,5.71 1.85,6.89 0.77,7.63 -0.30,8.37 -1.76,8.28 -3.21,8.18 -4.33,7.07 -5.45,5.97 -5.51,4.32 -5.58,2.67 -4.57,1.28 -3.57,-0.11 -1.96,-0.47 -0.34,-0.84 -0.24,-0.87 -0.13,-0.90 -0.02,-0.90 0.08,-0.90 0.18,-0.88 0.29,-0.86 0.39,-0.81 0.49,-0.76 0.57,-0.69 0.66,-0.62 0.72,-0.53 0.79,-0.44 0.83,-0.34 0.87,-0.24 0.89,-0.13 0.91,-0.02 0.90,0.08 0.89,0.19 0.85,0.29 0.81,0.39 0.75,0.49 0.69,0.58 0.61,0.65 0.53,0.73 0.44,0.78 0.34,0.84 0.34,0.84 L 0.34,0.84 Z"/></g><g transform="translate(105.12869881138681 89.19718424479146) rotate(0 3.248808889678031 -0.5246434067234702)" stroke="none"><path fill="#000000" d="M -0.13,-0.85 Q -0.13,-0.85 2.54,-1.18 5.21,-1.50 5.32,-1.50 5.43,-1.50 5.53,-1.47 5.63,-1.43 5.71,-1.37 5.80,-1.31 5.86,-1.22 5.92,-1.13 5.94,-1.03 5.97,-0.92 5.97,-0.82 5.96,-0.71 5.92,-0.61 5.88,-0.51 5.81,-0.43 5.74,-0.35 5.65,-0.30 5.56,-0.24 5.46,-0.22 5.35,-0.20 5.25,-0.21 5.14,-0.22 5.05,-0.27 4.95,-0.31 4.87,-0.39 4.80,-0.46 4.75,-0.55 4.70,-0.65 4.68,-0.75 4.66,-0.86 4.68,-0.96 4.70,-1.07 4.75,-1.16 4.80,-1.25 4.87,-1.33 4.95,-1.40 5.05,-1.44 5.14,-1.49 5.25,-1.50 5.36,-1.51 5.46,-1.49 5.56,-1.46 5.65,-1.41 5.75,-1.35 5.81,-1.27 5.88,-1.19 5.92,-1.09 5.96,-0.99 5.97,-0.89 5.97,-0.78 5.94,-0.68 5.91,-0.58 5.85,-0.49 5.79,-0.40 5.71,-0.34 5.63,-0.27 5.52,-0.24 5.42,-0.21 5.42,-0.21 5.42,-0.21 2.78,0.32 0.13,0.85 0.03,0.86 -0.07,0.86 -0.17,0.84 -0.27,0.82 -0.37,0.78 -0.46,0.73 -0.54,0.66 -0.62,0.60 -0.69,0.51 -0.75,0.43 -0.79,0.33 -0.83,0.24 -0.85,0.13 -0.86,0.03 -0.86,-0.07 -0.85,-0.17 -0.81,-0.27 -0.78,-0.37 -0.72,-0.46 -0.67,-0.55 -0.59,-0.62 -0.52,-0.69 -0.43,-0.74 -0.34,-0.80 -0.23,-0.83 -0.13,-0.85 -0.13,-0.85 L -0.13,-0.85 Z"/></g><g transform="translate(122.4018607284086 78.66406989820058) rotate(0 0.10088833895596849 8.152058919270814)" stroke="none"><path fill="#000000" d="M 0.84,-0.07 Q 0.84,-0.07 1.32,1.70 1.79,3.48 1.87,5.41 1.94,7.34 1.86,9.25 1.79,11.16 1.07,13.57 0.35,15.98 0.32,16.08 0.28,16.18 0.22,16.26 0.15,16.35 0.07,16.41 -0.01,16.47 -0.12,16.49 -0.22,16.52 -0.32,16.51 -0.43,16.51 -0.53,16.47 -0.63,16.43 -0.71,16.36 -0.79,16.29 -0.84,16.20 -0.90,16.11 -0.92,16.00 -0.94,15.90 -0.93,15.79 -0.92,15.69 -0.87,15.59 -0.83,15.50 -0.75,15.42 -0.68,15.34 -0.58,15.29 -0.49,15.24 -0.38,15.23 -0.28,15.21 -0.17,15.23 -0.07,15.25 0.01,15.30 0.11,15.35 0.18,15.43 0.25,15.50 0.30,15.60 0.34,15.70 0.35,15.80 0.36,15.91 0.34,16.01 0.31,16.12 0.26,16.21 0.20,16.30 0.12,16.36 0.04,16.43 -0.05,16.47 -0.15,16.51 -0.25,16.52 -0.36,16.52 -0.46,16.49 -0.56,16.46 -0.65,16.40 -0.74,16.34 -0.80,16.26 -0.87,16.17 -0.90,16.07 -0.93,15.97 -0.93,15.86 -0.93,15.76 -0.93,15.76 -0.93,15.76 -1.03,13.41 -1.14,11.07 -1.10,9.25 -1.06,7.43 -1.10,5.59 -1.14,3.75 -0.99,1.91 -0.84,0.07 -0.84,-0.02 -0.84,-0.12 -0.81,-0.22 -0.78,-0.32 -0.73,-0.41 -0.68,-0.50 -0.61,-0.58 -0.54,-0.65 -0.45,-0.71 -0.37,-0.76 -0.27,-0.80 -0.17,-0.83 -0.07,-0.84 0.02,-0.85 0.12,-0.83 0.23,-0.82 0.32,-0.78 0.41,-0.74 0.50,-0.68 0.58,-0.62 0.65,-0.54 0.71,-0.46 0.76,-0.36 0.80,-0.27 0.82,-0.17 0.84,-0.07 0.84,-0.07 L 0.84,-0.07 Z"/></g><g transform="translate(122.9668705680156 81.1258581912877) rotate(0 6.154572457978219 4.237430456912847)" stroke="none"><path fill="#000000" d="M -0.64,-0.58 Q -0.64,-0.58 0.01,-1.87 0.67,-3.16 1.90,-3.89 3.14,-4.62 4.61,-4.65 6.08,-4.67 7.28,-4.10 8.48,-3.52 9.24,-2.49 10.01,-1.46 10.11,-0.24 10.20,0.97 9.51,2.03 8.82,3.09 7.84,3.76 6.85,4.44 6.30,4.84 5.74,5.24 6.47,5.62 7.19,6.01 8.21,7.02 9.22,8.03 10.77,9.79 12.32,11.56 12.40,11.63 12.47,11.70 12.52,11.80 12.57,11.89 12.59,12.00 12.60,12.10 12.58,12.21 12.56,12.31 12.51,12.41 12.46,12.50 12.38,12.57 12.31,12.64 12.21,12.69 12.11,12.73 12.01,12.74 11.90,12.75 11.80,12.72 11.69,12.70 11.60,12.64 11.51,12.59 11.45,12.50 11.38,12.42 11.34,12.32 11.30,12.22 11.30,12.12 11.29,12.01 11.32,11.91 11.35,11.81 11.42,11.72 11.48,11.63 11.56,11.57 11.65,11.51 11.75,11.48 11.85,11.44 11.96,11.44 12.06,11.45 12.16,11.48 12.26,11.52 12.35,11.58 12.43,11.65 12.49,11.74 12.55,11.83 12.57,11.93 12.60,12.03 12.59,12.14 12.58,12.24 12.54,12.34 12.50,12.44 12.43,12.52 12.36,12.60 12.27,12.65 12.18,12.71 12.07,12.73 11.97,12.75 11.87,12.74 11.76,12.72 11.66,12.68 11.57,12.63 11.57,12.63 11.57,12.63 9.24,11.59 6.92,10.54 5.76,9.55 4.59,8.56 3.58,7.37 2.56,6.18 2.50,5.08 2.45,3.99 3.02,3.13 3.59,2.28 4.23,1.82 4.86,1.37 5.47,1.01 6.08,0.65 6.31,0.07 6.54,-0.50 6.11,-0.85 5.68,-1.20 5.07,-1.38 4.46,-1.56 3.75,-1.24 3.04,-0.92 1.84,-0.17 0.64,0.58 0.56,0.65 0.48,0.71 0.38,0.76 0.29,0.81 0.19,0.83 0.09,0.86 -0.01,0.85 -0.11,0.85 -0.21,0.83 -0.31,0.80 -0.40,0.75 -0.50,0.70 -0.57,0.63 -0.65,0.56 -0.71,0.47 -0.77,0.39 -0.80,0.29 -0.84,0.19 -0.85,0.09 -0.86,-0.01 -0.85,-0.11 -0.83,-0.21 -0.79,-0.31 -0.76,-0.41 -0.70,-0.49 -0.64,-0.58 -0.64,-0.58 L -0.64,-0.58 Z"/></g><g transform="translate(367.5457649808942 39.46014404296875) rotate(0 -3.4505763198390014 22.98312100497158)" stroke="none"><path fill="#c92a2a" d="M 0.83,0.22 Q 0.83,0.22 -1.09,7.68 -3.02,15.14 -3.59,21.10 -4.16,27.07 -3.43,31.82 -2.71,36.57 -1.68,40.33 -0.65,44.10 -0.63,44.20 -0.62,44.31 -0.64,44.41 -0.66,44.52 -0.71,44.61 -0.76,44.70 -0.84,44.77 -0.92,44.84 -1.02,44.89 -1.12,44.93 -1.22,44.94 -1.33,44.94 -1.43,44.92 -1.53,44.89 -1.62,44.84 -1.71,44.78 -1.78,44.70 -1.85,44.61 -1.88,44.51 -1.92,44.41 -1.92,44.31 -1.92,44.20 -1.89,44.10 -1.86,44.00 -1.80,43.91 -1.74,43.83 -1.65,43.76 -1.57,43.70 -1.46,43.67 -1.36,43.64 -1.26,43.64 -1.15,43.65 -1.05,43.68 -0.95,43.72 -0.87,43.79 -0.78,43.85 -0.73,43.94 -0.67,44.03 -0.64,44.13 -0.62,44.24 -0.63,44.34 -0.64,44.45 -0.68,44.55 -0.72,44.64 -0.79,44.72 -0.86,44.80 -0.96,44.85 -1.05,44.91 -1.15,44.93 -1.26,44.95 -1.36,44.93 -1.47,44.92 -1.56,44.87 -1.66,44.82 -1.73,44.75 -1.81,44.67 -1.85,44.58 -1.90,44.48 -1.90,44.48 -1.90,44.48 -3.19,40.67 -4.48,36.85 -5.30,31.87 -6.12,26.89 -5.51,20.77 -4.91,14.64 -2.87,7.21 -0.83,-0.22 -0.79,-0.31 -0.75,-0.41 -0.69,-0.49 -0.63,-0.58 -0.55,-0.65 -0.47,-0.71 -0.38,-0.76 -0.29,-0.81 -0.18,-0.83 -0.08,-0.85 0.01,-0.85 0.11,-0.85 0.21,-0.82 0.32,-0.79 0.41,-0.74 0.50,-0.69 0.57,-0.62 0.65,-0.55 0.71,-0.47 0.76,-0.38 0.80,-0.28 0.83,-0.19 0.85,-0.08 0.86,0.01 0.84,0.11 0.83,0.22 0.83,0.22 L 0.83,0.22 Z"/></g><g transform="translate(390.09415846159976 44.53374689275552) rotate(0 5.428124630089968 0.6658935546875)" stroke="none"><path fill="#c92a2a" d="M 0.21,-0.85 Q 0.21,-0.85 1.73,-0.60 3.25,-0.35 4.58,-0.30 5.91,-0.26 8.09,-0.40 10.27,-0.55 10.37,-0.55 10.48,-0.56 10.58,-0.53 10.68,-0.49 10.77,-0.43 10.86,-0.37 10.92,-0.29 10.98,-0.20 11.02,-0.10 11.05,-0.00 11.05,0.10 11.04,0.20 11.01,0.30 10.97,0.40 10.91,0.49 10.84,0.57 10.75,0.63 10.66,0.69 10.56,0.71 10.46,0.74 10.35,0.73 10.25,0.72 10.15,0.68 10.05,0.64 9.97,0.57 9.89,0.50 9.84,0.41 9.78,0.32 9.76,0.21 9.74,0.11 9.76,0.00 9.77,-0.09 9.82,-0.19 9.86,-0.28 9.94,-0.36 10.01,-0.43 10.11,-0.48 10.20,-0.53 10.31,-0.55 10.41,-0.56 10.51,-0.54 10.62,-0.52 10.71,-0.47 10.81,-0.42 10.88,-0.34 10.95,-0.26 10.99,-0.17 11.03,-0.07 11.04,0.03 11.05,0.13 11.03,0.24 11.00,0.34 10.95,0.43 10.89,0.52 10.81,0.59 10.73,0.65 10.63,0.69 10.53,0.73 10.53,0.73 10.53,0.73 8.18,1.35 5.84,1.98 4.26,1.93 2.68,1.88 1.23,1.36 -0.21,0.85 -0.31,0.81 -0.41,0.77 -0.50,0.71 -0.59,0.65 -0.66,0.57 -0.73,0.49 -0.77,0.39 -0.82,0.30 -0.85,0.20 -0.87,0.09 -0.87,-0.00 -0.87,-0.11 -0.84,-0.21 -0.82,-0.32 -0.76,-0.41 -0.71,-0.50 -0.64,-0.58 -0.57,-0.66 -0.48,-0.72 -0.40,-0.78 -0.30,-0.82 -0.20,-0.85 -0.09,-0.86 0.00,-0.88 0.11,-0.86 0.21,-0.85 0.21,-0.85 L 0.21,-0.85 Z"/></g><g transform="translate(391.62774999213957 48.97298177083317) rotate(0 3.7330951112689377 0.5044648141572026)" stroke="none"><path fill="#c92a2a" d="M 0.19,-0.81 Q 0.19,-0.81 1.47,-0.70 2.75,-0.60 4.86,-0.24 6.96,0.11 7.07,0.12 7.17,0.14 7.27,0.19 7.36,0.24 7.43,0.32 7.51,0.39 7.55,0.49 7.60,0.59 7.61,0.69 7.62,0.80 7.60,0.90 7.58,1.00 7.52,1.10 7.47,1.19 7.39,1.26 7.31,1.33 7.21,1.37 7.11,1.40 7.00,1.41 6.90,1.42 6.80,1.39 6.69,1.36 6.60,1.30 6.52,1.24 6.45,1.16 6.39,1.07 6.35,0.97 6.32,0.87 6.32,0.77 6.32,0.66 6.35,0.56 6.38,0.46 6.45,0.37 6.51,0.29 6.60,0.23 6.69,0.17 6.79,0.14 6.89,0.11 7.00,0.12 7.10,0.12 7.20,0.16 7.30,0.20 7.38,0.27 7.46,0.34 7.52,0.43 7.57,0.52 7.60,0.62 7.62,0.73 7.61,0.83 7.60,0.94 7.55,1.03 7.51,1.13 7.44,1.21 7.37,1.29 7.27,1.34 7.18,1.39 7.07,1.40 6.97,1.42 6.97,1.42 6.97,1.42 4.59,1.59 2.20,1.76 1.00,1.28 -0.19,0.81 -0.28,0.78 -0.38,0.74 -0.46,0.69 -0.54,0.63 -0.61,0.56 -0.68,0.48 -0.73,0.39 -0.78,0.30 -0.80,0.20 -0.83,0.11 -0.83,0.01 -0.83,-0.09 -0.81,-0.18 -0.78,-0.28 -0.74,-0.37 -0.69,-0.46 -0.63,-0.54 -0.56,-0.62 -0.48,-0.68 -0.39,-0.73 -0.30,-0.77 -0.21,-0.81 -0.11,-0.82 -0.01,-0.83 0.09,-0.82 0.19,-0.81 0.19,-0.81 L 0.19,-0.81 Z"/></g><g transform="translate(432.55062005014145 41.30522756865514) rotate(0 -3.975256717566282 3.833886348839968)" stroke="none"><path fill="#c92a2a" d="M 0.86,0.29 Q 0.86,0.29 0.51,2.01 0.17,3.73 -0.68,5.33 -1.54,6.92 -2.90,8.29 -4.25,9.66 -6.46,10.38 -8.67,11.11 -10.90,10.73 -13.13,10.36 -14.68,9.02 -16.24,7.69 -17.02,6.00 -17.79,4.31 -17.67,2.54 -17.54,0.76 -16.53,-0.69 -15.52,-2.15 -13.79,-2.81 -12.06,-3.47 -9.95,-3.03 -7.84,-2.58 -5.73,-1.44 -3.63,-0.30 -1.61,0.97 0.40,2.24 2.12,2.99 3.84,3.73 5.01,3.77 6.17,3.82 6.58,3.47 6.98,3.11 6.43,2.16 5.88,1.20 5.16,0.97 4.43,0.74 3.84,0.83 3.25,0.93 1.94,1.16 0.62,1.39 0.55,1.42 0.48,1.45 0.40,1.47 0.32,1.49 0.24,1.48 0.16,1.48 0.09,1.46 0.01,1.44 -0.05,1.40 -0.12,1.36 -0.17,1.30 -0.23,1.25 -0.27,1.18 -0.32,1.11 -0.34,1.04 -0.37,0.96 -0.37,0.88 -0.38,0.80 -0.36,0.73 -0.35,0.65 -0.32,0.58 -0.29,0.50 -0.24,0.44 -0.19,0.38 -0.13,0.33 -0.07,0.28 -0.23,0.55 -0.38,0.83 -0.36,0.72 -0.34,0.62 -0.29,0.52 -0.24,0.43 -0.16,0.36 -0.09,0.29 0.00,0.24 0.10,0.20 0.20,0.19 0.31,0.18 0.41,0.20 0.52,0.22 0.61,0.28 0.70,0.34 0.77,0.42 0.83,0.50 0.87,0.60 0.91,0.70 0.92,0.80 0.92,0.91 0.89,1.01 0.86,1.11 0.80,1.20 0.74,1.29 0.66,1.35 0.57,1.41 0.47,1.45 0.37,1.48 0.26,1.48 0.16,1.48 0.06,1.44 -0.03,1.41 -0.12,1.34 -0.20,1.28 -0.26,1.19 -0.32,1.10 -0.35,1.00 -0.38,0.90 -0.37,0.79 -0.36,0.68 -0.32,0.59 -0.28,0.49 -0.21,0.41 -0.14,0.33 -0.05,0.27 0.03,0.22 0.14,0.20 0.24,0.18 0.34,0.19 0.45,0.20 0.55,0.25 0.64,0.29 0.72,0.37 0.79,0.44 0.84,0.53 0.89,0.63 0.76,1.01 0.62,1.39 0.55,1.42 0.48,1.45 0.40,1.47 0.32,1.49 0.24,1.48 0.16,1.48 0.09,1.46 0.01,1.44 -0.05,1.40 -0.12,1.36 -0.17,1.30 -0.23,1.25 -0.27,1.18 -0.32,1.11 -0.34,1.04 -0.37,0.96 -0.37,0.88 -0.38,0.80 -0.36,0.73 -0.35,0.65 -0.32,0.58 -0.29,0.50 -0.24,0.44 -0.19,0.38 -0.13,0.33 -0.07,0.28 0.34,-0.37 0.76,-1.03 1.83,-1.61 2.90,-2.19 4.24,-2.19 5.57,-2.19 6.93,-1.49 8.28,-0.78 9.08,0.59 9.89,1.97 9.53,3.53 9.18,5.08 7.80,5.96 6.42,6.85 4.54,6.74 2.65,6.63 0.68,5.77 -1.27,4.90 -3.22,3.65 -5.17,2.39 -6.91,1.35 -8.64,0.30 -10.03,-0.19 -11.43,-0.68 -12.44,-0.45 -13.45,-0.22 -14.08,0.52 -14.71,1.28 -14.90,2.31 -15.08,3.34 -14.63,4.48 -14.17,5.62 -13.26,6.58 -12.35,7.55 -10.86,7.88 -9.36,8.22 -7.78,7.82 -6.20,7.43 -5.13,6.44 -4.06,5.45 -3.25,4.13 -2.44,2.81 -1.65,1.25 -0.86,-0.29 -0.81,-0.39 -0.76,-0.49 -0.69,-0.58 -0.62,-0.66 -0.53,-0.73 -0.44,-0.79 -0.34,-0.83 -0.24,-0.87 -0.13,-0.89 -0.02,-0.91 0.08,-0.90 0.19,-0.89 0.29,-0.85 0.40,-0.81 0.49,-0.75 0.58,-0.69 0.66,-0.61 0.73,-0.53 0.78,-0.44 0.84,-0.34 0.87,-0.24 0.90,-0.13 0.90,-0.02 0.90,0.08 0.88,0.19 0.86,0.29 0.86,0.29 L 0.86,0.29 Z"/></g><g transform="translate(79.51232696302012 44.07754609079089) rotate(0 3.1277373342802974 17.837644634824812)" stroke="none"><path fill="#c92a2a" d="M 0.75,-0.38 Q 0.75,-0.38 2.35,2.54 3.96,5.47 4.94,8.44 5.93,11.42 6.37,14.80 6.82,18.17 6.59,21.62 6.36,25.06 5.34,27.97 4.33,30.88 3.27,32.95 2.21,35.02 2.15,35.11 2.10,35.20 2.01,35.27 1.93,35.33 1.83,35.37 1.73,35.40 1.62,35.40 1.52,35.41 1.41,35.37 1.31,35.34 1.23,35.28 1.14,35.22 1.08,35.13 1.02,35.04 0.99,34.94 0.96,34.84 0.96,34.73 0.97,34.63 1.01,34.53 1.04,34.43 1.11,34.34 1.18,34.26 1.27,34.21 1.36,34.15 1.46,34.13 1.57,34.10 1.67,34.11 1.78,34.12 1.87,34.16 1.97,34.21 2.05,34.28 2.13,34.35 2.18,34.45 2.23,34.54 2.25,34.64 2.27,34.75 2.25,34.85 2.24,34.96 2.19,35.05 2.14,35.15 2.06,35.22 1.99,35.30 1.89,35.34 1.80,35.39 1.69,35.40 1.59,35.41 1.48,35.39 1.38,35.37 1.29,35.32 1.19,35.26 1.12,35.18 1.05,35.10 1.01,35.01 0.97,34.91 0.97,34.80 0.96,34.70 0.98,34.59 1.01,34.49 1.01,34.49 1.01,34.49 1.79,32.42 2.58,30.34 3.29,27.62 4.01,24.89 4.25,21.67 4.48,18.45 4.11,15.27 3.75,12.09 2.93,9.25 2.11,6.40 0.68,3.39 -0.75,0.38 -0.79,0.29 -0.82,0.19 -0.83,0.09 -0.84,-0.00 -0.83,-0.11 -0.82,-0.21 -0.78,-0.30 -0.74,-0.40 -0.68,-0.48 -0.63,-0.57 -0.55,-0.63 -0.47,-0.70 -0.38,-0.75 -0.29,-0.79 -0.19,-0.82 -0.09,-0.84 0.00,-0.84 0.11,-0.84 0.21,-0.81 0.30,-0.79 0.39,-0.74 0.49,-0.69 0.56,-0.62 0.64,-0.55 0.69,-0.47 0.75,-0.38 0.75,-0.38 L 0.75,-0.38 Z"/></g><g transform="translate(16.392672163067488 47.87106600674733) rotate(0 4.096319025213063 -0.20177667791193699)" stroke="none"><path fill="#c92a2a" d="M -0.02,-0.82 Q -0.02,-0.82 2.19,-0.87 4.41,-0.93 5.93,-0.96 7.46,-1.00 7.56,-0.99 7.67,-0.98 7.77,-0.94 7.86,-0.90 7.94,-0.83 8.02,-0.76 8.07,-0.66 8.13,-0.57 8.15,-0.47 8.16,-0.36 8.15,-0.26 8.14,-0.15 8.09,-0.06 8.04,0.03 7.96,0.10 7.89,0.18 7.79,0.23 7.70,0.27 7.59,0.29 7.49,0.30 7.38,0.28 7.28,0.26 7.19,0.21 7.09,0.15 7.02,0.07 6.95,-0.00 6.91,-0.09 6.87,-0.19 6.86,-0.30 6.85,-0.40 6.88,-0.51 6.91,-0.61 6.96,-0.70 7.02,-0.79 7.11,-0.85 7.19,-0.92 7.29,-0.96 7.39,-0.99 7.49,-0.99 7.60,-1.00 7.70,-0.97 7.80,-0.93 7.89,-0.87 7.98,-0.81 8.04,-0.72 8.10,-0.64 8.13,-0.53 8.16,-0.43 8.16,-0.33 8.15,-0.22 8.12,-0.12 8.08,-0.02 8.01,0.05 7.94,0.13 7.85,0.19 7.76,0.25 7.66,0.27 7.56,0.30 7.56,0.30 7.56,0.30 6.00,0.50 4.45,0.70 2.23,0.76 0.02,0.82 -0.07,0.81 -0.17,0.80 -0.26,0.77 -0.36,0.73 -0.44,0.68 -0.52,0.63 -0.59,0.55 -0.66,0.48 -0.71,0.39 -0.76,0.31 -0.78,0.21 -0.81,0.12 -0.81,0.02 -0.81,-0.07 -0.79,-0.17 -0.77,-0.27 -0.73,-0.36 -0.68,-0.44 -0.62,-0.52 -0.56,-0.60 -0.48,-0.66 -0.40,-0.71 -0.30,-0.75 -0.21,-0.79 -0.11,-0.80 -0.02,-0.82 -0.02,-0.82 L -0.02,-0.82 Z"/></g><g transform="translate(17.19981586571899 51.82601466323405) rotate(0 4.055971087831438 -0.08071437026514161)" stroke="none"><path fill="#c92a2a" d="M 0.05,-0.82 Q 0.05,-0.82 1.18,-0.78 2.32,-0.74 4.87,-0.87 7.42,-0.99 7.53,-0.99 7.63,-0.98 7.73,-0.94 7.83,-0.90 7.91,-0.83 7.99,-0.76 8.04,-0.67 8.10,-0.57 8.12,-0.47 8.14,-0.37 8.13,-0.26 8.11,-0.15 8.07,-0.06 8.02,0.03 7.95,0.10 7.87,0.18 7.78,0.23 7.68,0.28 7.58,0.29 7.47,0.31 7.37,0.29 7.26,0.27 7.17,0.22 7.08,0.17 7.01,0.09 6.93,0.01 6.89,-0.08 6.85,-0.17 6.84,-0.28 6.83,-0.39 6.85,-0.49 6.88,-0.59 6.93,-0.68 6.99,-0.77 7.07,-0.84 7.15,-0.91 7.25,-0.95 7.35,-0.98 7.46,-0.99 7.56,-0.99 7.67,-0.96 7.77,-0.93 7.85,-0.87 7.94,-0.81 8.00,-0.72 8.07,-0.64 8.10,-0.54 8.13,-0.44 8.13,-0.33 8.13,-0.22 8.09,-0.12 8.06,-0.02 7.99,0.05 7.93,0.13 7.84,0.19 7.75,0.25 7.65,0.28 7.54,0.30 7.54,0.30 7.54,0.30 4.88,0.66 2.22,1.02 1.08,0.92 -0.05,0.82 -0.14,0.80 -0.24,0.78 -0.33,0.74 -0.42,0.70 -0.50,0.64 -0.58,0.58 -0.64,0.50 -0.70,0.42 -0.74,0.33 -0.78,0.24 -0.80,0.14 -0.82,0.04 -0.81,-0.04 -0.80,-0.14 -0.78,-0.24 -0.75,-0.33 -0.69,-0.42 -0.64,-0.50 -0.57,-0.57 -0.50,-0.64 -0.42,-0.69 -0.33,-0.75 -0.24,-0.78 -0.14,-0.81 -0.04,-0.81 0.05,-0.82 0.05,-0.82 L 0.05,-0.82 Z"/></g><g transform="translate(50.73719157594627 40.68756103515642) rotate(0 -2.482013124408141 3.8944406220407046)" stroke="none"><path fill="#c92a2a" d="M 0.83,0 Q 0.83,0 1.02,1.23 1.21,2.46 0.75,3.93 0.28,5.41 -0.78,6.75 -1.85,8.10 -3.43,9.05 -5.00,10.00 -6.98,10.51 -8.96,11.01 -11.26,10.60 -13.57,10.18 -15.08,9.06 -16.60,7.94 -17.31,6.19 -18.02,4.44 -17.74,2.82 -17.45,1.21 -16.18,-0.04 -14.90,-1.30 -12.65,-1.45 -10.41,-1.60 -8.08,-0.73 -5.75,0.12 -3.54,1.34 -1.33,2.56 0.70,3.54 2.74,4.52 4.54,4.89 6.33,5.27 7.51,4.86 8.68,4.45 9.30,3.63 9.92,2.81 10.09,1.83 10.27,0.85 10.08,0.33 9.89,-0.18 8.76,-0.02 7.62,0.13 6.85,0.71 6.07,1.29 3.43,1.31 0.79,1.33 0.71,1.26 0.64,1.19 0.59,1.09 0.54,1.00 0.52,0.89 0.50,0.79 0.52,0.68 0.54,0.58 0.59,0.49 0.64,0.39 0.72,0.32 0.79,0.25 0.89,0.20 0.99,0.16 1.09,0.15 1.20,0.14 1.30,0.16 1.41,0.18 1.50,0.24 1.59,0.29 1.66,0.37 1.72,0.45 1.76,0.55 1.80,0.65 1.81,0.76 1.81,0.86 1.78,0.97 1.76,1.07 1.70,1.16 1.64,1.24 1.55,1.31 1.47,1.37 1.37,1.41 1.26,1.44 1.16,1.44 1.05,1.44 0.95,1.40 0.85,1.37 0.77,1.31 0.68,1.24 0.62,1.15 0.56,1.06 0.54,0.96 0.51,0.86 0.51,0.75 0.52,0.65 0.56,0.55 0.60,0.45 0.67,0.37 0.74,0.29 0.83,0.23 0.92,0.18 1.02,0.16 1.13,0.13 1.23,0.15 1.34,0.16 1.43,0.20 1.53,0.25 1.53,0.25 1.53,0.25 2.93,-0.53 4.34,-1.32 5.64,-2.12 6.95,-2.93 8.48,-3.08 10.02,-3.23 11.24,-2.41 12.46,-1.60 12.87,-0.11 13.28,1.37 12.79,3.05 12.31,4.73 11.04,6.01 9.77,7.30 7.82,7.80 5.86,8.30 3.63,7.82 1.40,7.33 -0.73,6.29 -2.87,5.24 -4.87,4.05 -6.88,2.86 -8.68,2.03 -10.48,1.21 -11.99,1.07 -13.51,0.93 -14.20,1.50 -14.88,2.06 -15.14,2.89 -15.39,3.72 -15.06,4.82 -14.74,5.92 -13.81,6.70 -12.88,7.48 -11.19,7.88 -9.51,8.28 -7.93,7.92 -6.36,7.57 -5.13,6.92 -3.91,6.28 -3.05,5.34 -2.18,4.40 -1.70,3.40 -1.21,2.40 -1.02,1.20 -0.83,0 -0.81,-0.09 -0.80,-0.19 -0.77,-0.29 -0.73,-0.38 -0.67,-0.46 -0.62,-0.55 -0.54,-0.61 -0.47,-0.68 -0.38,-0.72 -0.29,-0.77 -0.19,-0.80 -0.10,-0.82 0.00,-0.82 0.10,-0.82 0.19,-0.80 0.29,-0.77 0.38,-0.72 0.47,-0.68 0.54,-0.61 0.62,-0.55 0.67,-0.46 0.73,-0.38 0.77,-0.29 0.80,-0.19 0.81,-0.09 0.83,0.00 0.83,0.00 L 0.83,0 Z"/></g><g transform="translate(96.99065023480073 42.931056167140184) rotate(0 -3.5918495871803984 18.059618400804908)" stroke="none"><path fill="#364fc7" d="M 0.44,0.68 Q 0.44,0.68 -1.25,1.77 -2.95,2.86 -3.88,5.64 -4.82,8.42 -5.21,12.47 -5.60,16.51 -4.98,20.84 -4.35,25.17 -2.83,29.55 -1.31,33.93 -1.29,34.04 -1.27,34.14 -1.28,34.25 -1.30,34.35 -1.35,34.45 -1.39,34.54 -1.47,34.62 -1.54,34.69 -1.64,34.74 -1.73,34.79 -1.84,34.80 -1.94,34.82 -2.05,34.80 -2.15,34.78 -2.24,34.72 -2.34,34.67 -2.41,34.59 -2.48,34.51 -2.52,34.42 -2.56,34.32 -2.57,34.21 -2.58,34.11 -2.56,34.00 -2.53,33.90 -2.47,33.81 -2.42,33.72 -2.33,33.65 -2.25,33.59 -2.15,33.55 -2.05,33.51 -1.94,33.51 -1.84,33.51 -1.74,33.54 -1.63,33.57 -1.55,33.63 -1.46,33.69 -1.40,33.78 -1.34,33.87 -1.31,33.97 -1.28,34.07 -1.28,34.18 -1.28,34.28 -1.32,34.38 -1.35,34.48 -1.42,34.56 -1.49,34.65 -1.58,34.70 -1.67,34.76 -1.77,34.79 -1.87,34.81 -1.98,34.80 -2.08,34.80 -2.18,34.75 -2.28,34.71 -2.36,34.64 -2.44,34.57 -2.49,34.48 -2.54,34.39 -2.54,34.39 -2.54,34.39 -4.29,29.90 -6.03,25.41 -6.66,20.88 -7.28,16.35 -6.84,12.11 -6.39,7.87 -5.20,4.75 -4.00,1.63 -2.22,0.47 -0.44,-0.68 -0.35,-0.72 -0.26,-0.76 -0.16,-0.79 -0.07,-0.81 0.02,-0.80 0.12,-0.80 0.21,-0.77 0.31,-0.75 0.39,-0.70 0.48,-0.65 0.55,-0.58 0.62,-0.52 0.67,-0.43 0.73,-0.35 0.76,-0.26 0.79,-0.17 0.80,-0.07 0.81,0.02 0.79,0.12 0.78,0.21 0.74,0.30 0.70,0.39 0.65,0.47 0.59,0.55 0.51,0.62 0.44,0.68 0.44,0.68 L 0.44,0.68 Z"/></g><g transform="translate(350.1554802981293 46.845629142992436) rotate(0 3.753273703835248 18.241207238399625)" stroke="none"><path fill="#364fc7" d="M 0.75,-0.39 Q 0.75,-0.39 2.53,2.71 4.31,5.83 5.53,9.01 6.74,12.20 7.34,16.00 7.94,19.80 7.49,23.89 7.04,27.98 5.26,31.58 3.48,35.17 3.42,35.26 3.37,35.35 3.28,35.42 3.20,35.49 3.10,35.52 3.00,35.56 2.90,35.57 2.79,35.57 2.69,35.54 2.59,35.51 2.50,35.45 2.41,35.38 2.35,35.30 2.29,35.21 2.26,35.11 2.23,35.01 2.23,34.90 2.23,34.80 2.27,34.70 2.30,34.60 2.37,34.51 2.43,34.43 2.52,34.37 2.61,34.32 2.72,34.29 2.82,34.26 2.92,34.27 3.03,34.28 3.13,34.32 3.23,34.36 3.31,34.43 3.38,34.50 3.44,34.60 3.49,34.69 3.51,34.79 3.53,34.90 3.52,35.00 3.50,35.11 3.46,35.20 3.41,35.30 3.34,35.37 3.26,35.45 3.17,35.50 3.07,35.54 2.97,35.56 2.86,35.57 2.76,35.55 2.65,35.54 2.56,35.48 2.47,35.43 2.40,35.35 2.32,35.27 2.28,35.18 2.24,35.08 2.23,34.97 2.22,34.87 2.25,34.76 2.27,34.66 2.27,34.66 2.27,34.66 3.49,31.19 4.71,27.71 5.06,23.94 5.40,20.17 4.88,16.61 4.36,13.05 3.31,9.97 2.27,6.88 0.75,3.63 -0.75,0.39 -0.79,0.29 -0.82,0.19 -0.83,0.09 -0.85,-0.00 -0.83,-0.10 -0.82,-0.20 -0.78,-0.30 -0.75,-0.39 -0.69,-0.48 -0.63,-0.56 -0.55,-0.63 -0.47,-0.70 -0.38,-0.75 -0.29,-0.79 -0.19,-0.82 -0.09,-0.84 0.00,-0.84 0.10,-0.84 0.20,-0.81 0.30,-0.79 0.39,-0.74 0.48,-0.69 0.56,-0.62 0.64,-0.56 0.69,-0.47 0.75,-0.39 0.75,-0.39 L 0.75,-0.39 Z"/></g><g transform="translate(215.60236861489068 17.466005267518938) rotate(0 -7.102975556344703 4.7015380859375)" stroke="none"><path fill="#364fc7" d="M 0.16,0.82 Q 0.16,0.82 -1.30,1.37 -2.76,1.93 -4.70,2.34 -6.63,2.74 -8.35,3.15 -10.06,3.56 -10.99,3.96 -11.92,4.37 -10.30,4.67 -8.69,4.96 -7.08,5.41 -5.46,5.87 -3.01,7.23 -0.56,8.59 -0.48,8.65 -0.39,8.71 -0.33,8.80 -0.26,8.88 -0.23,8.98 -0.20,9.09 -0.20,9.19 -0.20,9.30 -0.23,9.40 -0.27,9.50 -0.34,9.58 -0.40,9.67 -0.49,9.72 -0.58,9.78 -0.68,9.81 -0.78,9.84 -0.89,9.83 -1.00,9.82 -1.09,9.78 -1.19,9.74 -1.27,9.67 -1.35,9.60 -1.41,9.51 -1.46,9.42 -1.48,9.31 -1.50,9.21 -1.49,9.11 -1.48,9.00 -1.43,8.90 -1.38,8.81 -1.31,8.73 -1.24,8.66 -1.14,8.61 -1.05,8.56 -0.94,8.54 -0.84,8.53 -0.73,8.55 -0.63,8.56 -0.54,8.62 -0.44,8.67 -0.37,8.74 -0.30,8.82 -0.25,8.92 -0.21,9.02 -0.20,9.12 -0.19,9.23 -0.22,9.33 -0.24,9.43 -0.30,9.53 -0.35,9.62 -0.43,9.68 -0.52,9.75 -0.61,9.79 -0.71,9.83 -0.82,9.83 -0.93,9.84 -1.03,9.81 -1.13,9.78 -1.13,9.78 -1.13,9.78 -3.63,9.11 -6.13,8.44 -7.83,8.04 -9.52,7.64 -11.23,7.05 -12.93,6.46 -13.59,5.74 -14.25,5.02 -13.74,3.51 -13.24,2.01 -11.97,1.44 -10.70,0.87 -8.94,0.47 -7.17,0.06 -5.24,-0.31 -3.31,-0.68 -1.73,-0.75 -0.16,-0.82 -0.06,-0.82 0.03,-0.83 0.13,-0.82 0.23,-0.80 0.32,-0.76 0.41,-0.72 0.49,-0.66 0.57,-0.60 0.64,-0.52 0.70,-0.44 0.75,-0.35 0.79,-0.26 0.81,-0.16 0.83,-0.06 0.83,0.03 0.82,0.13 0.79,0.22 0.77,0.32 0.72,0.41 0.67,0.50 0.60,0.57 0.53,0.64 0.44,0.70 0.36,0.75 0.26,0.78 0.16,0.82 0.16,0.82 L 0.16,0.82 Z"/></g><g transform="translate(253.74053741223915 12.138930812026501) rotate(0 -2.6837898023200637 4.2575905539772805)" stroke="none"><path fill="#364fc7" d="M 0.92,0.18 Q 0.92,0.18 0.88,1.86 0.83,3.53 -0.18,5.38 -1.20,7.23 -2.76,8.60 -4.32,9.96 -6.22,10.67 -8.11,11.37 -10.16,11.20 -12.21,11.03 -13.84,10.04 -15.48,9.05 -16.35,7.53 -17.22,6.01 -17.28,4.38 -17.33,2.74 -16.38,1.49 -15.43,0.24 -13.76,-0.09 -12.09,-0.42 -10.02,0.24 -7.95,0.92 -5.89,2.10 -3.82,3.27 -1.90,4.37 0.00,5.47 1.73,6.00 3.46,6.53 4.79,6.34 6.12,6.15 6.97,5.42 7.81,4.70 8.26,3.69 8.70,2.67 8.64,1.78 8.57,0.88 7.74,0.70 6.91,0.51 6.01,0.91 5.11,1.32 2.47,1.17 -0.16,1.03 -0.20,0.93 -0.23,0.83 -0.24,0.72 -0.24,0.61 -0.21,0.51 -0.18,0.41 -0.12,0.32 -0.06,0.24 0.02,0.17 0.10,0.11 0.20,0.08 0.31,0.05 0.41,0.05 0.52,0.05 0.62,0.09 0.72,0.12 0.80,0.19 0.89,0.26 0.94,0.34 1.00,0.43 1.03,0.54 1.05,0.64 1.05,0.75 1.04,0.85 1.00,0.95 0.96,1.05 0.89,1.13 0.82,1.21 0.72,1.26 0.63,1.31 0.53,1.33 0.42,1.35 0.32,1.34 0.21,1.33 0.12,1.28 0.02,1.23 -0.04,1.16 -0.12,1.09 -0.17,0.99 -0.22,0.90 -0.23,0.79 -0.25,0.69 -0.23,0.58 -0.21,0.48 -0.16,0.38 -0.11,0.29 -0.03,0.22 0.04,0.15 0.14,0.10 0.24,0.06 0.34,0.05 0.45,0.04 0.55,0.07 0.65,0.09 0.74,0.15 0.83,0.21 0.90,0.29 0.97,0.37 0.97,0.37 0.97,0.37 2.46,-0.80 3.94,-1.97 5.57,-2.45 7.19,-2.93 8.68,-2.55 10.16,-2.17 11.05,-0.83 11.95,0.50 11.90,2.30 11.85,4.09 10.92,5.74 9.98,7.40 8.35,8.47 6.72,9.55 4.62,9.72 2.52,9.89 0.39,9.20 -1.73,8.51 -3.65,7.39 -5.58,6.27 -7.37,5.18 -9.16,4.08 -10.54,3.45 -11.91,2.82 -13.10,3.03 -14.29,3.23 -14.29,3.95 -14.28,4.67 -13.92,5.58 -13.56,6.49 -12.62,7.16 -11.69,7.84 -10.36,8.06 -9.04,8.27 -7.68,7.85 -6.33,7.44 -5.11,6.50 -3.89,5.56 -3.01,4.21 -2.13,2.87 -1.53,1.34 -0.92,-0.18 -0.88,-0.29 -0.84,-0.40 -0.78,-0.49 -0.72,-0.59 -0.64,-0.67 -0.56,-0.75 -0.46,-0.80 -0.36,-0.86 -0.26,-0.89 -0.15,-0.92 -0.03,-0.93 0.07,-0.93 0.18,-0.91 0.29,-0.89 0.39,-0.84 0.50,-0.79 0.58,-0.72 0.67,-0.65 0.74,-0.56 0.81,-0.47 0.85,-0.36 0.90,-0.26 0.92,-0.15 0.93,-0.03 0.92,0.07 0.92,0.18 0.92,0.18 L 0.92,0.18 Z"/></g></svg>