<svg version="1.1" xmlns="http://www.w3.org/2000/svg" viewBox="0 0 418.6104431152344 406.6127624511719" width="418.6104431152344" height="406.6127624511719" filter="invert(93%) hue-rotate(180deg)">
  <!-- svg-source:excalidraw -->
  
  <defs>
    <style class="style-fonts">
      @font-face {
        font-family: "Virgil";
        src: url("https://excalidraw.com/Virgil.woff2");
      }
      @font-face {
        font-family: "Cascadia";
        src: url("https://excalidraw.com/Cascadia.woff2");
      }
    </style>
  </defs>
  <rect x="0" y="0" width="418.6104431152344" height="406.6127624511719" fill="transparent"/><g stroke-linecap="round"><g transform="translate(49.022003173828125 366.0486755371094) rotate(0 7.105427357601002e-15 -178.0243377685547)"><path d="M0 0 C0 -104.13, 0 -208.25, 0 -356.05 M0 0 C0 -130.11, 0 -260.22, 0 -356.05" stroke="#1e1e1e" stroke-width="4" fill="none"/></g></g><mask/><g stroke-linecap="round"><g transform="translate(10 309.0489196777344) rotate(0 199.3052215576172 0)"><path d="M0 0 C120 0, 240.01 0, 398.61 0 M0 0 C142.58 0, 285.16 0, 398.61 0" stroke="#1e1e1e" stroke-width="4" fill="none"/></g></g><mask/><g stroke-linecap="round"><g transform="translate(13.928863525390625 190.25503540039062) rotate(0 186.15362548828125 0)"><path d="M0 0 C87.91 0, 175.82 0, 372.31 0 M0 0 C142.78 0, 285.55 0, 372.31 0" stroke="#e03131" stroke-width="1" fill="none"/></g></g><mask/><g transform="translate(377.6459045410156 40.09797668457031) rotate(0 -161.01571655273438 178.1908187866211)" stroke="none"><path fill="#e03131" d="M 0.05,1.60 Q 0.05,1.60 -1.58,1.69 -3.23,1.78 -4.58,1.92 -5.94,2.06 -7.36,2.33 -8.78,2.61 -10.82,3.30 -12.87,3.99 -15.40,5.01 -17.93,6.02 -20.93,7.19 -23.93,8.36 -27.21,9.85 -30.49,11.34 -34.18,13.00 -37.87,14.65 -41.95,16.58 -46.03,18.51 -50.28,20.63 -54.53,22.74 -58.75,24.87 -62.97,27.00 -66.94,29.11 -70.90,31.23 -74.76,33.39 -78.62,35.54 -82.43,37.65 -86.24,39.75 -89.97,41.77 -93.70,43.79 -97.36,45.83 -101.02,47.87 -104.64,49.93 -108.26,51.98 -111.65,53.83 -115.04,55.69 -118.22,57.45 -121.39,59.20 -124.53,60.92 -127.66,62.64 -130.68,64.44 -133.71,66.24 -136.67,68.04 -139.62,69.84 -142.54,71.68 -145.45,73.51 -148.33,75.38 -151.21,77.24 -153.91,79.03 -156.60,80.81 -159.26,82.60 -161.92,84.39 -164.63,86.24 -167.34,88.10 -170.30,90.24 -173.25,92.37 -176.39,94.63 -179.54,96.88 -182.59,99.10 -185.65,101.31 -188.69,103.38 -191.74,105.45 -194.52,107.44 -197.30,109.43 -200.05,111.34 -202.80,113.24 -205.49,115.29 -208.17,117.34 -210.99,119.60 -213.81,121.86 -216.72,124.19 -219.62,126.53 -222.33,128.88 -225.03,131.23 -227.40,133.40 -229.77,135.56 -231.97,137.46 -234.17,139.35 -236.10,141.24 -238.02,143.12 -239.80,145.03 -241.59,146.94 -243.43,149.04 -245.27,151.14 -247.16,153.30 -249.04,155.46 -250.86,157.68 -252.67,159.90 -255.37,163.16 -258.06,166.42 -260.98,170.03 -263.89,173.65 -266.93,177.54 -269.97,181.44 -273.17,185.31 -276.38,189.17 -278.47,191.82 -280.56,194.47 -282.13,196.58 -283.70,198.69 -285.09,200.63 -286.48,202.58 -287.78,204.47 -289.07,206.36 -290.24,208.19 -291.42,210.03 -292.94,212.35 -294.47,214.66 -295.50,216.20 -296.54,217.74 -297.32,219.02 -298.09,220.29 -298.89,221.59 -299.69,222.90 -300.41,224.09 -301.13,225.29 -301.80,226.45 -302.46,227.61 -303.10,228.68 -303.74,229.75 -304.77,231.50 -305.80,233.24 -306.64,234.85 -307.49,236.46 -308.38,238.14 -309.27,239.81 -309.93,241.18 -310.59,242.54 -311.14,243.78 -311.68,245.01 -312.23,246.38 -312.78,247.74 -313.27,248.91 -313.75,250.08 -314.25,251.17 -314.75,252.26 -315.26,253.34 -315.76,254.41 -316.40,255.60 -317.04,256.79 -317.61,258.19 -318.18,259.59 -318.51,260.67 -318.85,261.76 -319.24,262.84 -319.64,263.91 -319.90,264.98 -320.15,266.04 -320.23,267.66 -320.32,269.28 -320.33,270.57 -320.34,271.85 -320.23,273.26 -320.12,274.66 -319.91,275.87 -319.70,277.07 -319.47,278.27 -319.24,279.48 -318.90,280.58 -318.57,281.68 -318.19,282.81 -317.81,283.94 -317.45,285.25 -317.09,286.57 -316.62,287.99 -316.15,289.41 -315.63,290.82 -315.12,292.23 -314.54,293.64 -313.97,295.06 -313.41,296.28 -312.85,297.51 -312.24,299.04 -311.63,300.57 -310.96,302.30 -310.29,304.03 -309.51,305.72 -308.72,307.41 -307.81,309.05 -306.90,310.69 -305.92,312.18 -304.93,313.67 -303.75,315.20 -302.57,316.72 -301.88,317.63 -301.20,318.53 -300.53,319.65 -299.86,320.76 -299.26,321.75 -298.66,322.74 -298.03,323.69 -297.41,324.65 -296.39,326.29 -295.38,327.93 -294.13,329.75 -292.88,331.58 -291.93,332.95 -290.97,334.33 -290.05,335.51 -289.13,336.70 -288.25,337.74 -287.37,338.79 -286.48,339.73 -285.60,340.66 -284.71,341.65 -283.83,342.63 -281.86,344.42 -279.88,346.20 -278.12,348.00 -276.36,349.80 -275.27,350.83 -274.18,351.87 -272.62,353.53 -271.06,355.18 -270.93,355.35 -270.80,355.52 -270.72,355.71 -270.65,355.91 -270.64,356.13 -270.64,356.34 -270.70,356.54 -270.76,356.75 -270.88,356.92 -271.01,357.09 -271.18,357.22 -271.35,357.34 -271.56,357.40 -271.76,357.46 -271.97,357.46 -272.18,357.45 -272.38,357.38 -272.58,357.31 -272.75,357.18 -272.91,357.04 -273.03,356.86 -273.14,356.69 -273.20,356.48 -273.25,356.27 -273.23,356.06 -273.21,355.85 -273.13,355.65 -273.05,355.46 -272.90,355.30 -272.76,355.14 -272.58,355.04 -272.39,354.93 -272.18,354.89 -271.98,354.85 -271.77,354.88 -271.55,354.91 -271.36,355.00 -271.17,355.10 -271.02,355.25 -270.87,355.40 -270.78,355.59 -270.68,355.78 -270.65,355.99 -270.63,356.20 -270.66,356.41 -270.70,356.61 -270.81,356.80 -270.91,356.98 -271.07,357.13 -271.23,357.27 -271.42,357.35 -271.62,357.44 -271.83,357.46 -272.04,357.47 -272.25,357.42 -272.45,357.37 -272.63,357.26 -272.81,357.14 -272.81,357.14 -272.81,357.14 -274.65,355.72 -276.48,354.30 -277.63,353.23 -278.77,352.16 -280.46,350.43 -282.15,348.70 -284.25,346.80 -286.34,344.89 -287.20,343.93 -288.05,342.98 -289.00,341.97 -289.96,340.96 -290.87,339.86 -291.79,338.76 -292.76,337.50 -293.73,336.24 -294.69,334.86 -295.65,333.47 -296.94,331.58 -298.23,329.69 -299.21,328.08 -300.20,326.48 -300.85,325.48 -301.51,324.48 -302.12,323.48 -302.73,322.47 -303.30,321.52 -303.87,320.56 -304.55,319.65 -305.24,318.75 -306.46,317.18 -307.67,315.60 -308.74,313.99 -309.80,312.38 -310.77,310.63 -311.74,308.88 -312.58,307.05 -313.43,305.21 -314.07,303.55 -314.70,301.89 -315.28,300.44 -315.86,298.99 -316.47,297.65 -317.07,296.31 -317.66,294.86 -318.26,293.41 -318.79,291.93 -319.33,290.46 -319.82,288.96 -320.31,287.46 -320.64,286.24 -320.97,285.03 -321.37,283.85 -321.77,282.68 -322.15,281.40 -322.52,280.13 -322.77,278.82 -323.02,277.51 -323.21,276.37 -323.41,275.22 -323.55,274.04 -323.69,272.85 -323.69,271.77 -323.68,270.68 -323.64,269.18 -323.60,267.68 -323.53,266.60 -323.45,265.51 -323.09,264.06 -322.72,262.60 -322.26,261.30 -321.81,260.00 -321.43,258.87 -321.05,257.73 -320.51,256.45 -319.97,255.16 -319.38,254.06 -318.78,252.96 -318.29,251.92 -317.81,250.89 -317.33,249.84 -316.85,248.79 -316.36,247.60 -315.87,246.41 -315.30,245.01 -314.74,243.61 -314.17,242.34 -313.60,241.07 -312.92,239.65 -312.23,238.22 -311.38,236.62 -310.53,235.01 -309.59,233.25 -308.66,231.49 -307.64,229.76 -306.62,228.03 -306.00,226.99 -305.38,225.95 -304.70,224.75 -304.03,223.55 -303.30,222.34 -302.57,221.12 -301.77,219.82 -300.97,218.52 -300.15,217.20 -299.33,215.87 -298.31,214.34 -297.28,212.81 -295.77,210.51 -294.26,208.22 -293.06,206.33 -291.86,204.45 -290.55,202.53 -289.24,200.61 -287.83,198.64 -286.42,196.66 -284.83,194.52 -283.23,192.37 -281.12,189.68 -279.00,187.00 -275.83,183.17 -272.66,179.34 -269.61,175.41 -266.57,171.49 -263.63,167.86 -260.70,164.23 -258.00,160.99 -255.31,157.75 -253.46,155.49 -251.61,153.23 -249.73,151.06 -247.84,148.88 -245.97,146.74 -244.09,144.60 -242.25,142.64 -240.42,140.69 -238.42,138.71 -236.42,136.74 -234.26,134.87 -232.10,133.01 -229.70,130.82 -227.29,128.63 -224.54,126.24 -221.78,123.84 -218.87,121.50 -215.95,119.16 -213.09,116.90 -210.23,114.64 -207.49,112.54 -204.75,110.45 -202.02,108.55 -199.29,106.65 -196.48,104.63 -193.66,102.62 -190.66,100.58 -187.66,98.54 -184.60,96.31 -181.54,94.08 -178.41,91.83 -175.27,89.58 -172.27,87.42 -169.28,85.27 -166.55,83.41 -163.83,81.56 -161.16,79.76 -158.50,77.96 -155.79,76.16 -153.08,74.36 -150.18,72.48 -147.28,70.60 -144.34,68.75 -141.41,66.91 -138.44,65.10 -135.47,63.29 -132.38,61.46 -129.30,59.63 -126.17,57.93 -123.04,56.23 -119.86,54.47 -116.68,52.70 -113.31,50.85 -109.94,49.01 -106.31,46.95 -102.68,44.89 -99.00,42.84 -95.32,40.79 -91.60,38.78 -87.87,36.77 -84.07,34.69 -80.26,32.61 -76.37,30.44 -72.49,28.26 -68.49,26.12 -64.50,23.97 -60.27,21.84 -56.04,19.71 -51.75,17.59 -47.47,15.46 -43.35,13.53 -39.24,11.60 -35.56,9.95 -31.87,8.29 -28.51,6.76 -25.15,5.23 -22.16,4.07 -19.18,2.91 -16.55,1.86 -13.93,0.81 -11.67,0.06 -9.42,-0.67 -7.84,-0.97 -6.27,-1.27 -4.81,-1.41 -3.35,-1.55 -1.70,-1.58 -0.05,-1.60 0.13,-1.58 0.32,-1.57 0.51,-1.51 0.69,-1.44 0.86,-1.34 1.02,-1.23 1.15,-1.09 1.29,-0.95 1.38,-0.79 1.48,-0.62 1.53,-0.43 1.58,-0.24 1.59,-0.05 1.60,0.13 1.56,0.32 1.52,0.51 1.43,0.69 1.35,0.86 1.23,1.01 1.10,1.16 0.95,1.28 0.79,1.39 0.61,1.47 0.43,1.54 0.24,1.57 0.05,1.60 0.05,1.60 L 0.05,1.60 Z"/></g><g transform="translate(109.1531982421875 193.4512939453125) rotate(0 -28.534011840820312 45.74629211425781)" stroke="none"><path fill="#e03131" d="M 1.65,-0.06 Q 1.65,-0.06 1.84,3.01 2.02,6.09 2.09,8.47 2.15,10.85 2.09,12.68 2.02,14.50 1.79,16.03 1.56,17.55 1.22,18.21 0.88,18.86 0.82,19.08 0.76,19.29 0.65,19.48 0.54,19.67 0.39,19.83 0.23,19.99 0.05,20.10 -0.13,20.22 -0.33,20.29 -0.54,20.36 -0.76,20.38 -0.98,20.40 -1.20,20.36 -1.41,20.33 -1.62,20.24 -1.82,20.16 -2.00,20.03 -2.17,19.90 -2.31,19.73 -2.45,19.56 -2.55,19.36 -2.64,19.16 -2.69,18.94 -2.73,18.73 -2.72,18.51 -2.71,18.29 -3.70,16.83 -4.68,15.37 -5.34,13.12 -6.01,10.87 -6.56,9.26 -7.11,7.66 -7.52,9.99 -7.93,12.33 -8.57,14.21 -9.21,16.09 -9.80,17.67 -10.39,19.24 -10.81,20.11 -11.24,20.97 -11.35,21.20 -11.47,21.43 -11.64,21.62 -11.81,21.81 -12.02,21.96 -12.23,22.10 -12.47,22.19 -12.71,22.28 -12.97,22.31 -13.22,22.35 -13.48,22.31 -13.73,22.28 -13.97,22.19 -14.21,22.10 -14.42,21.96 -14.63,21.81 -14.80,21.62 -14.97,21.43 -15.09,21.20 -15.21,20.98 -15.27,20.73 -15.33,20.48 -15.33,20.22 -15.33,19.97 -15.27,19.72 -15.21,19.47 -15.88,18.44 -16.55,17.41 -17.08,15.08 -17.60,12.75 -18.02,10.62 -18.45,8.49 -19.13,7.36 -19.81,6.22 -19.84,5.99 -19.87,5.75 -19.85,5.52 -19.83,5.28 -19.75,5.06 -19.67,4.84 -19.54,4.64 -19.41,4.45 -19.24,4.29 -19.06,4.13 -18.86,4.01 -18.65,3.90 -18.42,3.84 -18.19,3.77 -17.96,3.77 -17.72,3.76 -17.49,3.82 -17.26,3.87 -17.05,3.97 -16.84,4.08 -16.66,4.23 -16.48,4.38 -16.34,4.57 -16.20,4.77 -16.11,4.99 -16.03,5.20 -16.18,7.04 -16.34,8.88 -16.49,11.29 -16.64,13.71 -16.86,16.90 -17.08,20.08 -17.42,23.27 -17.75,26.45 -18.12,28.95 -18.49,31.46 -18.95,32.55 -19.40,33.65 -19.46,33.87 -19.52,34.10 -19.63,34.30 -19.74,34.50 -19.90,34.66 -20.06,34.83 -20.25,34.96 -20.45,35.08 -20.66,35.16 -20.88,35.23 -21.11,35.25 -21.34,35.27 -21.57,35.24 -21.79,35.21 -22.01,35.12 -22.22,35.03 -22.40,34.89 -22.59,34.76 -22.74,34.58 -22.88,34.41 -22.99,34.20 -23.09,33.99 -23.13,33.77 -23.18,33.54 -23.18,33.31 -23.17,33.08 -24.10,29.65 -25.02,26.22 -25.80,22.44 -26.59,18.67 -27.28,15.15 -27.98,11.63 -28.51,9.56 -29.05,7.50 -29.49,6.91 -29.93,6.33 -29.95,6.09 -29.98,5.85 -29.95,5.61 -29.92,5.37 -29.83,5.15 -29.74,4.92 -29.60,4.73 -29.46,4.53 -29.28,4.37 -29.10,4.22 -28.88,4.11 -28.67,4.00 -28.44,3.94 -28.20,3.89 -27.96,3.89 -27.72,3.89 -27.49,3.95 -27.26,4.01 -27.04,4.13 -26.83,4.24 -26.66,4.40 -26.48,4.56 -26.34,4.76 -26.21,4.96 -26.13,5.19 -26.04,5.41 -26.23,6.99 -26.41,8.56 -26.61,11.03 -26.80,13.50 -27.12,17.17 -27.44,20.84 -27.86,24.90 -28.27,28.96 -28.58,32.53 -28.88,36.11 -29.05,38.19 -29.22,40.28 -29.43,40.58 -29.64,40.89 -29.68,41.13 -29.73,41.37 -29.84,41.59 -29.94,41.81 -30.09,42.00 -30.25,42.20 -30.44,42.34 -30.63,42.49 -30.86,42.59 -31.08,42.69 -31.32,42.73 -31.57,42.77 -31.81,42.75 -32.05,42.73 -32.29,42.66 -32.52,42.58 -32.73,42.45 -32.93,42.32 -33.10,42.15 -33.28,41.97 -33.40,41.76 -33.52,41.55 -33.59,41.31 -33.66,41.08 -33.67,40.84 -33.68,40.59 -33.67,39.05 -33.65,37.51 -33.86,34.34 -34.07,31.18 -34.35,27.54 -34.63,23.90 -34.91,21.22 -35.20,18.54 -35.51,17.42 -35.82,16.30 -35.81,16.05 -35.80,15.79 -35.73,15.54 -35.67,15.30 -35.54,15.07 -35.41,14.85 -35.24,14.66 -35.06,14.48 -34.85,14.34 -34.63,14.20 -34.39,14.11 -34.15,14.03 -33.89,14.01 -33.63,13.98 -33.38,14.02 -33.13,14.06 -32.89,14.16 -32.65,14.26 -32.45,14.41 -32.24,14.56 -32.08,14.76 -31.91,14.96 -31.80,15.19 -31.69,15.42 -31.63,15.67 -31.58,15.92 -31.68,19.16 -31.78,22.39 -31.77,26.95 -31.76,31.52 -31.76,36.87 -31.75,42.22 -31.74,47.64 -31.73,53.05 -31.66,56.90 -31.60,60.75 -31.66,62.13 -31.72,63.51 -31.74,63.77 -31.77,64.04 -31.86,64.29 -31.95,64.54 -32.10,64.76 -32.24,64.98 -32.44,65.16 -32.64,65.34 -32.87,65.47 -33.10,65.60 -33.36,65.67 -33.62,65.74 -33.88,65.74 -34.15,65.75 -34.41,65.69 -34.67,65.63 -34.91,65.51 -35.15,65.39 -35.35,65.22 -35.55,65.05 -35.71,64.83 -35.86,64.61 -35.96,64.37 -36.06,64.12 -36.10,63.85 -36.14,63.59 -36.18,62.31 -36.22,61.03 -37.16,57.05 -38.10,53.08 -39.38,47.50 -40.66,41.92 -41.94,36.08 -43.23,30.25 -44.15,25.64 -45.07,21.03 -45.75,18.60 -46.42,16.16 -47.00,15.45 -47.57,14.74 -47.61,14.46 -47.64,14.18 -47.61,13.90 -47.58,13.62 -47.48,13.35 -47.38,13.09 -47.22,12.85 -47.06,12.62 -46.85,12.43 -46.64,12.24 -46.39,12.11 -46.14,11.98 -45.87,11.91 -45.59,11.84 -45.31,11.84 -45.03,11.83 -44.75,11.90 -44.48,11.97 -44.22,12.10 -43.97,12.23 -43.76,12.41 -43.55,12.60 -43.39,12.83 -43.22,13.06 -43.12,13.33 -43.02,13.59 -43.43,15.54 -43.84,17.48 -44.05,20.31 -44.25,23.15 -44.31,27.70 -44.38,32.26 -44.18,37.65 -43.98,43.04 -43.70,48.36 -43.42,53.69 -43.05,57.83 -42.68,61.97 -42.49,64.06 -42.31,66.15 -42.32,66.45 -42.33,66.75 -42.41,67.04 -42.50,67.34 -42.65,67.60 -42.80,67.86 -43.01,68.08 -43.21,68.31 -43.47,68.47 -43.73,68.63 -44.01,68.73 -44.30,68.83 -44.60,68.86 -44.91,68.88 -45.21,68.84 -45.51,68.79 -45.79,68.67 -46.07,68.55 -46.31,68.37 -46.55,68.19 -46.75,67.96 -46.94,67.72 -47.07,67.45 -47.20,67.18 -47.27,66.88 -47.33,66.58 -47.67,64.22 -48.01,61.86 -48.91,57.73 -49.80,53.59 -50.74,49.00 -51.67,44.41 -52.36,41.16 -53.06,37.90 -53.45,36.87 -53.84,35.85 -53.87,35.54 -53.89,35.24 -53.83,34.93 -53.78,34.63 -53.66,34.35 -53.54,34.07 -53.35,33.83 -53.16,33.58 -52.92,33.39 -52.69,33.20 -52.41,33.07 -52.13,32.94 -51.83,32.89 -51.53,32.83 -51.22,32.84 -50.92,32.86 -50.62,32.95 -50.33,33.03 -50.06,33.19 -49.80,33.35 -49.58,33.56 -49.36,33.77 -49.20,34.03 -49.04,34.30 -48.95,34.59 -48.85,34.88 -48.71,36.62 -48.57,38.36 -48.30,42.63 -48.02,46.90 -47.88,53.26 -47.75,59.61 -47.87,66.50 -48.00,73.38 -48.38,78.68 -48.76,83.97 -49.33,86.14 -49.91,88.32 -49.96,88.61 -50.02,88.91 -50.15,89.18 -50.28,89.46 -50.47,89.70 -50.66,89.93 -50.90,90.12 -51.14,90.30 -51.42,90.42 -51.70,90.54 -51.99,90.59 -52.29,90.64 -52.60,90.62 -52.90,90.60 -53.19,90.50 -53.47,90.41 -53.73,90.25 -53.99,90.09 -54.20,89.87 -54.41,89.66 -54.56,89.39 -54.72,89.13 -54.80,88.84 -54.89,88.55 -54.91,88.25 -54.92,87.95 -56.47,84.26 -58.02,80.57 -57.39,79.50 -56.77,78.43 -56.79,78.28 -56.82,78.12 -56.80,77.96 -56.79,77.80 -56.74,77.65 -56.68,77.50 -56.60,77.37 -56.51,77.24 -56.40,77.13 -56.28,77.02 -56.14,76.94 -56.01,76.87 -55.85,76.82 -55.70,76.78 -55.54,76.78 -55.38,76.77 -55.23,76.80 -55.07,76.84 -54.93,76.91 -54.79,76.98 -54.67,77.08 -54.55,77.18 -54.45,77.31 -54.36,77.43 -54.30,77.58 -54.24,77.73 -54.22,77.82 -54.20,77.92 -54.21,78.13 -54.22,78.34 -54.29,78.54 -54.37,78.74 -54.50,78.91 -54.64,79.07 -54.82,79.18 -55.00,79.29 -55.21,79.34 -55.41,79.39 -55.63,79.37 -55.84,79.35 -56.03,79.26 -56.23,79.18 -56.38,79.03 -56.54,78.89 -56.64,78.70 -56.74,78.51 -56.78,78.31 -56.82,78.10 -56.78,77.89 -56.75,77.68 -56.66,77.49 -56.56,77.30 -56.41,77.15 -56.25,77.00 -56.06,76.91 -55.87,76.82 -55.66,76.79 -55.45,76.77 -55.24,76.81 -55.03,76.85 -54.85,76.96 -54.67,77.07 -54.53,77.23 -54.39,77.39 -54.30,77.58 -54.22,77.78 -54.21,77.99 -54.20,78.20 -54.25,78.41 -54.30,78.62 -54.42,78.79 -54.54,78.97 -54.70,79.10 -54.87,79.23 -55.07,79.30 -55.27,79.37 -55.49,79.38 -55.70,79.38 -55.90,79.31 -56.10,79.25 -56.27,79.12 -56.44,78.99 -56.57,78.82 -56.69,78.65 -56.73,78.54 -56.77,78.43 -56.79,78.28 -56.82,78.12 -56.80,77.96 -56.79,77.80 -56.74,77.65 -56.68,77.50 -56.60,77.37 -56.51,77.24 -56.40,77.13 -56.28,77.02 -56.14,76.94 -56.01,76.87 -55.85,76.82 -55.70,76.78 -55.54,76.78 -55.38,76.77 -55.23,76.80 -55.07,76.84 -54.93,76.91 -54.79,76.98 -54.67,77.08 -54.55,77.18 -54.45,77.31 -54.36,77.43 -54.30,77.58 -54.24,77.73 -53.89,78.52 -53.54,79.32 -52.87,81.90 -52.21,84.48 -51.06,86.40 -49.91,88.32 -49.96,88.61 -50.02,88.91 -50.15,89.18 -50.28,89.46 -50.47,89.70 -50.66,89.93 -50.90,90.12 -51.14,90.30 -51.42,90.42 -51.70,90.54 -51.99,90.59 -52.29,90.64 -52.59,90.62 -52.90,90.60 -53.19,90.50 -53.47,90.41 -53.73,90.25 -53.99,90.09 -54.20,89.87 -54.41,89.66 -54.56,89.39 -54.72,89.13 -54.80,88.84 -54.89,88.55 -54.91,88.25 -54.92,87.95 -54.51,85.76 -54.11,83.57 -53.73,78.42 -53.34,73.28 -53.20,66.50 -53.05,59.72 -53.18,53.48 -53.30,47.23 -53.55,42.93 -53.80,38.63 -53.82,37.24 -53.84,35.85 -53.87,35.54 -53.89,35.24 -53.83,34.93 -53.78,34.63 -53.66,34.35 -53.54,34.07 -53.35,33.83 -53.16,33.58 -52.93,33.39 -52.69,33.20 -52.41,33.07 -52.13,32.94 -51.83,32.89 -51.53,32.83 -51.22,32.84 -50.92,32.86 -50.62,32.95 -50.33,33.03 -50.06,33.19 -49.80,33.35 -49.58,33.56 -49.36,33.77 -49.20,34.03 -49.04,34.30 -48.95,34.59 -48.85,34.88 -48.63,35.94 -48.41,37.00 -47.84,40.27 -47.27,43.54 -46.39,48.09 -45.51,52.64 -44.58,56.77 -43.65,60.90 -42.98,63.52 -42.31,66.14 -42.32,66.45 -42.33,66.75 -42.41,67.04 -42.50,67.34 -42.65,67.60 -42.80,67.86 -43.00,68.08 -43.21,68.31 -43.47,68.47 -43.73,68.63 -44.01,68.73 -44.30,68.83 -44.60,68.86 -44.91,68.88 -45.21,68.84 -45.51,68.79 -45.79,68.67 -46.07,68.55 -46.31,68.37 -46.55,68.19 -46.75,67.96 -46.94,67.72 -47.07,67.45 -47.20,67.18 -47.27,66.88 -47.33,66.58 -47.61,64.50 -47.89,62.42 -48.25,58.19 -48.61,53.95 -48.88,48.59 -49.14,43.22 -49.32,37.69 -49.51,32.16 -49.39,27.41 -49.28,22.67 -48.43,18.70 -47.57,14.74 -47.61,14.46 -47.64,14.18 -47.61,13.90 -47.58,13.62 -47.48,13.35 -47.38,13.09 -47.22,12.85 -47.06,12.62 -46.85,12.43 -46.64,12.24 -46.39,12.11 -46.14,11.98 -45.87,11.91 -45.59,11.84 -45.31,11.84 -45.03,11.83 -44.75,11.90 -44.48,11.97 -44.23,12.10 -43.97,12.23 -43.76,12.41 -43.55,12.60 -43.39,12.83 -43.22,13.06 -43.12,13.33 -43.02,13.59 -42.63,14.30 -42.24,15.02 -41.64,17.64 -41.04,20.27 -40.21,24.87 -39.39,29.46 -38.28,35.29 -37.18,41.12 -35.89,46.67 -34.60,52.22 -33.55,56.33 -32.51,60.45 -32.11,61.98 -31.72,63.51 -31.74,63.77 -31.77,64.04 -31.86,64.29 -31.95,64.54 -32.10,64.76 -32.24,64.98 -32.44,65.16 -32.64,65.34 -32.87,65.47 -33.10,65.60 -33.36,65.67 -33.62,65.74 -33.88,65.74 -34.15,65.75 -34.41,65.69 -34.67,65.63 -34.91,65.51 -35.15,65.39 -35.35,65.22 -35.55,65.05 -35.71,64.83 -35.86,64.61 -35.96,64.37 -36.06,64.12 -36.10,63.85 -36.14,63.59 -36.34,62.22 -36.54,60.84 -36.62,56.94 -36.70,53.05 -36.68,47.63 -36.66,42.21 -36.63,36.85 -36.60,31.49 -36.54,26.88 -36.48,22.27 -36.15,19.29 -35.82,16.30 -35.81,16.05 -35.80,15.79 -35.73,15.54 -35.67,15.30 -35.54,15.07 -35.41,14.85 -35.24,14.66 -35.06,14.48 -34.85,14.34 -34.63,14.20 -34.39,14.11 -34.15,14.03 -33.89,14.01 -33.63,13.98 -33.38,14.02 -33.13,14.06 -32.89,14.16 -32.65,14.26 -32.45,14.41 -32.24,14.56 -32.08,14.76 -31.91,14.96 -31.80,15.19 -31.69,15.42 -31.63,15.67 -31.58,15.92 -31.45,17.06 -31.33,18.19 -31.12,20.91 -30.92,23.63 -30.67,27.29 -30.43,30.94 -30.22,34.13 -30.01,37.32 -29.82,39.11 -29.64,40.89 -29.68,41.13 -29.73,41.37 -29.83,41.59 -29.94,41.81 -30.09,42.00 -30.25,42.20 -30.44,42.34 -30.63,42.49 -30.86,42.59 -31.08,42.69 -31.32,42.73 -31.57,42.77 -31.81,42.75 -32.05,42.73 -32.29,42.66 -32.52,42.58 -32.73,42.45 -32.93,42.32 -33.10,42.15 -33.28,41.97 -33.40,41.76 -33.52,41.55 -33.59,41.31 -33.66,41.08 -33.67,40.84 -33.68,40.59 -33.76,40.26 -33.84,39.93 -33.70,37.81 -33.56,35.69 -33.22,32.07 -32.88,28.46 -32.42,24.43 -31.95,20.40 -31.56,16.73 -31.16,13.07 -30.54,9.70 -29.93,6.33 -29.95,6.09 -29.98,5.85 -29.95,5.61 -29.92,5.37 -29.83,5.15 -29.74,4.92 -29.60,4.73 -29.46,4.53 -29.28,4.37 -29.10,4.22 -28.88,4.11 -28.67,4.00 -28.44,3.94 -28.20,3.89 -27.96,3.89 -27.72,3.89 -27.49,3.95 -27.26,4.01 -27.05,4.13 -26.83,4.24 -26.66,4.40 -26.48,4.56 -26.34,4.76 -26.21,4.96 -26.13,5.19 -26.04,5.41 -25.79,6.02 -25.54,6.63 -25.08,8.81 -24.62,10.98 -23.96,14.48 -23.31,17.98 -22.53,21.71 -21.75,25.44 -21.13,28.12 -20.50,30.79 -19.95,32.22 -19.40,33.65 -19.46,33.87 -19.52,34.10 -19.63,34.30 -19.74,34.50 -19.90,34.66 -20.06,34.83 -20.25,34.96 -20.45,35.08 -20.66,35.16 -20.88,35.23 -21.11,35.25 -21.34,35.27 -21.57,35.24 -21.79,35.21 -22.01,35.12 -22.22,35.03 -22.40,34.89 -22.59,34.76 -22.74,34.58 -22.88,34.41 -22.98,34.20 -23.09,33.99 -23.13,33.77 -23.18,33.54 -23.18,33.31 -23.17,33.08 -22.96,31.95 -22.75,30.81 -22.38,28.41 -22.01,26.01 -21.69,22.89 -21.37,19.76 -21.12,16.57 -20.87,13.38 -20.34,9.80 -19.81,6.22 -19.84,5.99 -19.87,5.75 -19.85,5.52 -19.83,5.28 -19.75,5.06 -19.67,4.84 -19.54,4.64 -19.41,4.45 -19.24,4.29 -19.06,4.13 -18.86,4.01 -18.65,3.90 -18.42,3.84 -18.19,3.77 -17.96,3.77 -17.72,3.76 -17.49,3.82 -17.26,3.87 -17.05,3.97 -16.84,4.08 -16.66,4.23 -16.48,4.38 -16.34,4.57 -16.20,4.77 -16.11,4.98 -16.03,5.20 -16.10,5.01 -16.18,4.82 -15.64,6.33 -15.10,7.84 -14.70,9.92 -14.30,12.00 -13.81,14.17 -13.31,16.35 -13.08,17.41 -12.84,18.47 -12.04,19.72 -11.24,20.97 -11.35,21.20 -11.47,21.43 -11.64,21.62 -11.81,21.81 -12.02,21.96 -12.23,22.10 -12.47,22.19 -12.71,22.28 -12.97,22.31 -13.22,22.35 -13.48,22.31 -13.73,22.28 -13.97,22.19 -14.21,22.10 -14.42,21.96 -14.63,21.81 -14.80,21.62 -14.97,21.43 -15.09,21.20 -15.21,20.98 -15.27,20.73 -15.33,20.48 -15.33,20.22 -15.33,19.97 -15.27,19.72 -15.21,19.47 -14.79,18.60 -14.38,17.73 -13.79,16.21 -13.21,14.69 -12.54,12.81 -11.87,10.93 -11.19,9.15 -10.51,7.38 -8.69,5.71 -6.86,4.04 -5.37,5.29 -3.89,6.53 -3.32,8.22 -2.76,9.92 -2.16,12.00 -1.55,14.08 -1.12,15.33 -0.70,16.57 0.09,17.72 0.88,18.86 0.82,19.07 0.76,19.29 0.65,19.48 0.54,19.67 0.39,19.83 0.23,19.99 0.05,20.10 -0.13,20.22 -0.33,20.29 -0.54,20.36 -0.76,20.38 -0.98,20.40 -1.20,20.36 -1.41,20.33 -1.62,20.24 -1.82,20.16 -2.00,20.03 -2.17,19.90 -2.31,19.73 -2.45,19.56 -2.55,19.36 -2.64,19.16 -2.69,18.95 -2.73,18.73 -2.72,18.51 -2.71,18.29 -2.41,17.60 -2.10,16.92 -1.89,15.63 -1.67,14.35 -1.58,12.63 -1.50,10.92 -1.53,8.57 -1.56,6.23 -1.61,3.14 -1.65,0.06 -1.64,-0.13 -1.62,-0.33 -1.56,-0.52 -1.49,-0.71 -1.38,-0.88 -1.28,-1.05 -1.13,-1.19 -0.99,-1.32 -0.81,-1.42 -0.64,-1.52 -0.45,-1.58 -0.26,-1.63 -0.06,-1.64 0.13,-1.65 0.33,-1.61 0.53,-1.57 0.71,-1.48 0.89,-1.39 1.04,-1.27 1.20,-1.14 1.32,-0.98 1.43,-0.82 1.51,-0.64 1.59,-0.45 1.62,-0.25 1.65,-0.06 1.65,-0.06 L 1.65,-0.06 Z"/></g><g stroke-linecap="round"><g transform="translate(132.4598388671875 35.43678283691406) rotate(0 0 136.3399429321289)"><path d="M0 0 C0 80.37, 0 160.74, 0 272.68" stroke="#e03131" stroke-width="1.5" fill="none" stroke-dasharray="8 9"/></g></g><mask/></svg>