<svg version="1.1" xmlns="http://www.w3.org/2000/svg" viewBox="0 0 278.0380554199219 273.96856689453125" width="278.0380554199219" height="273.96856689453125" filter="invert(93%) hue-rotate(180deg)" class="excalidraw-svg">
  <!-- svg-source:excalidraw -->
  
  <defs>
    <style class="style-fonts">
      @font-face {
        font-family: "Virgil";
        src: url("https://excalidraw.com/Virgil.woff2");
      }
      @font-face {
        font-family: "Cascadia";
        src: url("https://excalidraw.com/Cascadia.woff2");
      }
      @font-face {
        font-family: "Assistant";
        src: url("https://excalidraw.com/Assistant-Regular.woff2");
      }
    </style>
    
  </defs>
  <g stroke-linecap="round"><g transform="translate(37.18044282477794 107.35236443835274) rotate(0 103.92562874746247 63.687007848672806)" fill-rule="evenodd"><path d="M0 0 C0 0, 0 0, 0 0 M0 0 C0 0, 0 0, 0 0 M-0.26 6.4 C0.99 4.96, 2.24 3.52, 4.99 0.36 M-0.26 6.4 C1.05 4.89, 2.36 3.38, 4.99 0.36 M0.13 12.04 C2.3 9.55, 4.46 7.07, 10.63 -0.03 M0.13 12.04 C4.08 7.51, 8.02 2.97, 10.63 -0.03 M-0.13 18.44 C5.33 12.15, 10.8 5.87, 15.62 0.33 M-0.13 18.44 C4.23 13.43, 8.59 8.41, 15.62 0.33 M0.27 24.08 C7.81 15.4, 15.36 6.72, 21.26 -0.07 M0.27 24.08 C5.98 17.51, 11.69 10.94, 21.26 -0.07 M0 30.48 C8.92 20.22, 17.84 9.96, 26.25 0.29 M0 30.48 C8.39 20.83, 16.78 11.18, 26.25 0.29 M-0.26 36.88 C9.6 25.53, 19.47 14.19, 31.89 -0.1 M-0.26 36.88 C9.14 26.07, 18.53 15.26, 31.89 -0.1 M0.14 42.52 C12.15 28.7, 24.16 14.89, 36.88 0.26 M0.14 42.52 C9.42 31.84, 18.71 21.16, 36.88 0.26 M-0.12 48.92 C10.09 37.17, 20.3 25.43, 42.52 -0.14 M-0.12 48.92 C13.89 32.8, 27.91 16.67, 42.52 -0.14 M0.27 54.56 C18.28 33.85, 36.28 13.13, 47.51 0.22 M0.27 54.56 C18.58 33.5, 36.88 12.44, 47.51 0.22 M0.01 60.96 C16.37 42.14, 32.72 23.33, 52.49 0.58 M0.01 60.96 C16.37 42.14, 32.73 23.32, 52.49 0.58 M-0.25 67.36 C19.48 44.66, 39.21 21.96, 58.14 0.19 M-0.25 67.36 C15.7 49.01, 31.65 30.66, 58.14 0.19 M0.14 73 C15.25 55.62, 30.36 38.24, 63.12 0.55 M0.14 73 C13.31 57.85, 26.48 42.71, 63.12 0.55 M-0.12 79.4 C27.09 48.09, 54.3 16.79, 68.77 0.15 M-0.12 79.4 C20.28 55.93, 40.68 32.46, 68.77 0.15 M0.28 85.04 C22.57 59.4, 44.86 33.75, 73.75 0.51 M0.28 85.04 C16.89 65.93, 33.5 46.82, 73.75 0.51 M0.01 91.44 C24.84 62.87, 49.67 34.31, 79.4 0.12 M0.01 91.44 C22.28 65.83, 44.54 40.22, 79.4 0.12 M-0.25 97.84 C28.84 64.38, 57.92 30.92, 84.38 0.48 M-0.25 97.84 C17.15 77.83, 34.54 57.82, 84.38 0.48 M0.15 103.48 C19.25 81.51, 38.35 59.53, 89.37 0.84 M0.15 103.48 C25.81 73.96, 51.47 44.44, 89.37 0.84 M-0.11 109.88 C34.59 69.95, 69.3 30.03, 95.01 0.44 M-0.11 109.88 C21.54 84.96, 43.2 60.05, 95.01 0.44 M0.28 115.52 C38.6 71.44, 76.92 27.35, 100 0.8 M0.28 115.52 C21.88 90.67, 43.48 65.82, 100 0.8 M0.02 121.92 C35.25 81.4, 70.47 40.87, 105.64 0.41 M0.02 121.92 C22.23 96.37, 44.43 70.83, 105.64 0.41 M37.81 84.54 C57.56 61.82, 77.31 39.1, 110.63 0.77 M37.81 84.54 C52.67 67.45, 67.53 50.35, 110.63 0.77 M59.85 65.28 C81.22 40.7, 102.6 16.11, 116.27 0.38 M59.85 65.28 C77.26 45.25, 94.67 25.23, 116.27 0.38 M76.65 52.06 C89.37 37.42, 102.1 22.78, 121.26 0.74 M76.65 52.06 C86.64 40.56, 96.63 29.07, 121.26 0.74 M87.54 45.62 C102.98 27.86, 118.42 10.1, 126.91 0.34 M87.54 45.62 C99.96 31.34, 112.37 17.06, 126.91 0.34 M97.78 39.95 C111.4 24.28, 125.01 8.61, 131.89 0.7 M97.78 39.95 C107.59 28.65, 117.41 17.36, 131.89 0.7 M108.67 33.51 C115.1 26.11, 121.53 18.71, 136.88 1.06 M108.67 33.51 C116.03 25.04, 123.39 16.58, 136.88 1.06 M116.94 30.1 C125.85 19.84, 134.77 9.59, 142.52 0.67 M116.94 30.1 C123.19 22.9, 129.45 15.7, 142.52 0.67 M125.2 26.69 C131.96 18.92, 138.71 11.15, 147.51 1.03 M125.2 26.69 C129.96 21.22, 134.71 15.75, 147.51 1.03 M133.47 23.27 C138.01 18.05, 142.56 12.82, 153.15 0.63 M133.47 23.27 C140.97 14.65, 148.46 6.03, 153.15 0.63 M141.74 19.86 C148.22 12.4, 154.71 4.94, 158.14 0.99 M141.74 19.86 C146.28 14.63, 150.83 9.4, 158.14 0.99 M149.35 17.2 C153.78 12.11, 158.2 7.02, 163.78 0.6 M149.35 17.2 C152.53 13.54, 155.72 9.87, 163.78 0.6 M158.27 13.03 C160.87 10.04, 163.47 7.05, 168.77 0.96 M158.27 13.03 C162.43 8.25, 166.58 3.48, 168.77 0.96 M165.23 11.13 C168.63 7.21, 172.03 3.3, 173.76 1.32 M165.23 11.13 C168 7.93, 170.78 4.74, 173.76 1.32 M171.53 9.98 C174.39 6.69, 177.25 3.39, 179.4 0.92 M171.53 9.98 C174.28 6.82, 177.02 3.66, 179.4 0.92 M178.48 8.08 C180.21 6.09, 181.94 4.1, 184.39 1.28 M178.48 8.08 C180.22 6.07, 181.96 4.07, 184.39 1.28 M184.78 6.93 C185.88 5.66, 186.99 4.39, 190.03 0.89 M184.78 6.93 C186.65 4.78, 188.51 2.64, 190.03 0.89 M191.74 5.02 C192.84 3.75, 193.94 2.48, 195.02 1.25 M191.74 5.02 C192.93 3.65, 194.13 2.27, 195.02 1.25 M198.04 3.87 C198.6 3.22, 199.17 2.57, 200.66 0.85 M198.04 3.87 C198.74 3.06, 199.45 2.25, 200.66 0.85 M204.99 1.97 C205.15 1.79, 205.31 1.61, 205.65 1.21 M204.99 1.97 C205.13 1.81, 205.26 1.65, 205.65 1.21 M0.33 127.66 C0.33 127.66, 0.33 127.66, 0.33 127.66 M0.33 127.66 C0.33 127.66, 0.33 127.66, 0.33 127.66 M2.2 123.98 C1.57 123.44, 0.95 122.9, -0.07 122.02 M2.2 123.98 C1.43 123.32, 0.66 122.65, -0.07 122.02 M4.82 120.97 C3.76 120.04, 2.7 119.12, 0.29 117.03 M4.82 120.97 C3.78 120.06, 2.74 119.16, 0.29 117.03 M7.45 117.95 C5.33 116.11, 3.22 114.27, -0.1 111.39 M7.45 117.95 C5.15 115.95, 2.86 113.96, -0.1 111.39 M10.07 114.93 C6.95 112.22, 3.83 109.5, 0.26 106.4 M10.07 114.93 C6.4 111.74, 2.73 108.55, 0.26 106.4 M12.69 111.91 C9.48 109.12, 6.27 106.32, -0.14 100.76 M12.69 111.91 C8.96 108.66, 5.22 105.41, -0.14 100.76 M15.32 108.89 C10.75 104.92, 6.19 100.95, 0.22 95.77 M15.32 108.89 C11.96 105.97, 8.6 103.05, 0.22 95.77 M17.94 105.87 C11.66 100.41, 5.37 94.95, -0.17 90.13 M17.94 105.87 C12.07 100.77, 6.2 95.66, -0.17 90.13 M20.57 102.85 C15.89 98.79, 11.22 94.73, 0.19 85.14 M20.57 102.85 C16.13 99, 11.7 95.14, 0.19 85.14 M22.44 99.18 C15.81 93.42, 9.18 87.66, -0.2 79.5 M22.44 99.18 C16.45 93.98, 10.47 88.78, -0.2 79.5 M25.06 96.16 C17.52 89.61, 9.98 83.05, 0.16 74.51 M25.06 96.16 C19.09 90.96, 13.11 85.77, 0.16 74.51 M27.69 93.14 C17.27 84.09, 6.86 75.04, -0.24 68.87 M27.69 93.14 C21.8 88.03, 15.92 82.92, -0.24 68.87 M30.31 90.12 C21.58 82.53, 12.85 74.94, 0.12 63.88 M30.31 90.12 C24.06 84.69, 17.81 79.26, 0.12 63.88 M32.93 87.1 C25.12 80.31, 17.3 73.51, -0.27 58.24 M32.93 87.1 C22.98 78.45, 13.03 69.8, -0.27 58.24 M36.31 84.74 C24.8 74.73, 13.28 64.72, 0.09 53.25 M36.31 84.74 C26.38 76.1, 16.44 67.47, 0.09 53.25 M38.94 81.72 C27.53 71.8, 16.12 61.89, -0.31 47.61 M38.94 81.72 C26.94 71.29, 14.94 60.86, -0.31 47.61 M42.32 79.36 C30.46 69.05, 18.61 58.75, 0.05 42.62 M42.32 79.36 C32.41 70.75, 22.51 62.14, 0.05 42.62 M44.94 76.34 C30.83 64.08, 16.73 51.81, -0.34 36.98 M44.94 76.34 C34.07 66.89, 23.2 57.44, -0.34 36.98 M48.32 73.98 C37.16 64.28, 26.01 54.58, 0.02 31.99 M48.32 73.98 C32.98 60.64, 17.64 47.31, 0.02 31.99 M51.7 71.61 C39.55 61.05, 27.4 50.49, -0.38 26.35 M51.7 71.61 C33.39 55.7, 15.07 39.78, -0.38 26.35 M54.32 68.59 C33.35 50.36, 12.38 32.13, -0.02 21.36 M54.32 68.59 C33.04 50.09, 11.75 31.59, -0.02 21.36 M57.7 66.23 C37.41 48.59, 17.11 30.95, 0.34 16.37 M57.7 66.23 C38.94 49.92, 20.17 33.61, 0.34 16.37 M60.33 63.21 C40.73 46.18, 21.13 29.14, -0.05 10.73 M60.33 63.21 C38.46 44.21, 16.6 25.2, -0.05 10.73 M63.7 60.85 C42.56 42.47, 21.42 24.09, 0.31 5.74 M63.7 60.85 C45.28 44.84, 26.86 28.82, 0.31 5.74 M66.33 57.83 C40.53 35.4, 14.73 12.98, -0.09 0.1 M66.33 57.83 C41.66 36.39, 16.99 14.94, -0.09 0.1 M69.71 55.47 C44.06 33.18, 18.42 10.88, 4.8 -0.95 M69.71 55.47 C56.5 43.99, 43.3 32.51, 4.8 -0.95 M73.84 53.76 C56.2 38.42, 38.55 23.08, 11.2 -0.69 M73.84 53.76 C61.31 42.87, 48.78 31.98, 11.2 -0.69 M77.22 51.4 C57.9 34.6, 38.58 17.81, 17.6 -0.43 M77.22 51.4 C61.44 37.68, 45.65 23.96, 17.6 -0.43 M80.6 49.04 C65.06 35.53, 49.53 22.03, 23.24 -0.82 M80.6 49.04 C65.36 35.79, 50.12 22.54, 23.24 -0.82 M84.73 47.33 C69.96 34.48, 55.18 21.64, 29.64 -0.56 M84.73 47.33 C67.6 32.44, 50.47 17.54, 29.64 -0.56 M88.11 44.97 C68.06 27.54, 48.01 10.11, 36.04 -0.3 M88.11 44.97 C76.47 34.85, 64.83 24.73, 36.04 -0.3 M92.25 43.26 C75.16 28.41, 58.08 13.56, 41.68 -0.7 M92.25 43.26 C81.31 33.76, 70.38 24.25, 41.68 -0.7 M95.62 40.9 C85.36 31.98, 75.1 23.05, 48.08 -0.43 M95.62 40.9 C78.2 25.75, 60.77 10.6, 48.08 -0.43 M99 38.53 C89.84 30.56, 80.67 22.59, 54.48 -0.17 M99 38.53 C86 27.23, 73 15.93, 54.48 -0.17 M103.14 36.83 C89.48 24.96, 75.82 13.09, 60.12 -0.57 M103.14 36.83 C93.46 28.42, 83.79 20.01, 60.12 -0.57 M106.52 34.47 C94.21 23.77, 81.9 13.07, 66.52 -0.31 M106.52 34.47 C95.02 24.48, 83.53 14.48, 66.52 -0.31 M109.9 32.1 C102.26 25.47, 94.63 18.83, 72.91 -0.04 M109.9 32.1 C96.35 20.33, 82.8 8.55, 72.91 -0.04 M114.03 30.4 C105.48 22.96, 96.93 15.53, 78.56 -0.44 M114.03 30.4 C100.24 18.41, 86.45 6.43, 78.56 -0.44 M118.16 28.69 C106.15 18.25, 94.14 7.8, 84.96 -0.18 M118.16 28.69 C105.01 17.25, 91.85 5.82, 84.96 -0.18 M122.3 26.98 C110.96 17.13, 99.63 7.28, 91.35 0.08 M122.3 26.98 C115.48 21.06, 108.67 15.14, 91.35 0.08 M126.43 25.28 C119.8 19.51, 113.18 13.75, 97 -0.31 M126.43 25.28 C115.92 16.14, 105.41 7, 97 -0.31 M130.56 23.57 C124.96 18.69, 119.35 13.82, 103.39 -0.05 M130.56 23.57 C123.96 17.82, 117.35 12.08, 103.39 -0.05 M134.7 21.86 C129.7 17.52, 124.7 13.17, 109.79 0.21 M134.7 21.86 C126.49 14.73, 118.28 7.59, 109.79 0.21 M138.83 20.16 C133.06 15.14, 127.29 10.13, 115.43 -0.18 M138.83 20.16 C130.48 12.9, 122.13 5.64, 115.43 -0.18 M142.96 18.45 C137.57 13.76, 132.19 9.08, 121.83 0.08 M142.96 18.45 C138.08 14.2, 133.2 9.96, 121.83 0.08 M147.1 16.74 C140.78 11.25, 134.46 5.76, 128.23 0.34 M147.1 16.74 C141.48 11.86, 135.86 6.97, 128.23 0.34 M151.23 15.04 C145.73 10.25, 140.22 5.46, 133.87 -0.05 M151.23 15.04 C147.46 11.76, 143.69 8.48, 133.87 -0.05 M155.37 13.33 C151.12 9.64, 146.87 5.95, 140.27 0.21 M155.37 13.33 C151.75 10.18, 148.13 7.03, 140.27 0.21 M159.5 11.62 C155.92 8.51, 152.34 5.4, 146.67 0.47 M159.5 11.62 C155.9 8.49, 152.3 5.36, 146.67 0.47 M164.39 10.57 C161.26 7.85, 158.13 5.13, 152.31 0.07 M164.39 10.57 C159.62 6.43, 154.86 2.29, 152.31 0.07 M169.28 9.52 C165.11 5.9, 160.95 2.28, 158.71 0.34 M169.28 9.52 C166.62 7.21, 163.96 4.9, 158.71 0.34 M174.16 8.47 C172.17 6.74, 170.17 5, 164.35 -0.06 M174.16 8.47 C172.09 6.67, 170.02 4.87, 164.35 -0.06 M179.05 7.42 C176.73 5.4, 174.41 3.39, 170.75 0.2 M179.05 7.42 C175.75 4.55, 172.45 1.68, 170.75 0.2 M183.94 6.37 C182.5 5.12, 181.06 3.87, 177.15 0.46 M183.94 6.37 C181.39 4.15, 178.84 1.93, 177.15 0.46 M188.83 5.32 C186.93 3.67, 185.04 2.02, 182.79 0.07 M188.83 5.32 C187.47 4.14, 186.12 2.96, 182.79 0.07 M193.72 4.27 C192.15 2.91, 190.59 1.55, 189.19 0.33 M193.72 4.27 C192.75 3.43, 191.79 2.59, 189.19 0.33 M198.61 3.22 C197.88 2.59, 197.16 1.96, 195.59 0.59 M198.61 3.22 C197.78 2.5, 196.95 1.78, 195.59 0.59 M202.74 1.51 C202.4 1.21, 202.06 0.92, 201.23 0.2 M202.74 1.51 C202.31 1.14, 201.88 0.77, 201.23 0.2" stroke="#ffc9c9" stroke-width="0.5" fill="none"/><path d="M0 0 C55.06 0.31, 110.12 0.61, 207.85 1.16 M0 0 C82 0.46, 164 0.91, 207.85 1.16 M207.85 1.16 C197.19 3.64, 186.52 6.12, 158.06 12.74 M207.85 1.16 C191.73 4.91, 175.61 8.66, 158.06 12.74 M158.06 12.74 C143.33 18.7, 128.61 24.67, 112.32 31.26 M158.06 12.74 C142.6 19, 127.15 25.26, 112.32 31.26 M112.32 31.26 C95.59 40.86, 78.86 50.45, 68.9 56.16 M112.32 31.26 C100.09 38.28, 87.86 45.29, 68.9 56.16 M68.9 56.16 C55.98 67.47, 43.05 78.77, 31.84 88.58 M68.9 56.16 C58.16 65.56, 47.42 74.96, 31.84 88.58 M31.84 88.58 C26.53 94.96, 21.21 101.35, 8.68 116.37 M31.84 88.58 C25.78 95.86, 19.72 103.14, 8.68 116.37 M8.68 116.37 C6.57 119.05, 4.46 121.72, 0 127.37 M8.68 116.37 C5.76 120.08, 2.83 123.79, 0 127.37 M0 127.37 C0 85.8, 0 44.23, 0 0 M0 127.37 C0 80.32, 0 33.26, 0 0 M0 0 C0 0, 0 0, 0 0 M0 0 C0 0, 0 0, 0 0" stroke="#e03131" stroke-width="1" fill="none"/></g></g><mask/><g transform="translate(37.1734619140625 238.46319580078125) rotate(0 103.94769287109375 -65.48976135253906)" stroke="none"><path fill="#e03131" d="M -1.16,-0.76 Q -1.16,-0.76 -0.63,-1.58 -0.10,-2.41 0.72,-3.65 1.55,-4.89 2.43,-6.17 3.31,-7.45 4.27,-8.86 5.22,-10.28 6.36,-11.82 7.49,-13.35 8.79,-15.44 10.09,-17.52 10.80,-18.46 11.52,-19.39 12.75,-20.85 13.99,-22.31 15.33,-23.69 16.67,-25.08 17.88,-26.44 19.09,-27.80 20.53,-29.22 21.98,-30.64 23.32,-32.22 24.66,-33.80 26.06,-35.66 27.47,-37.51 28.16,-38.43 28.85,-39.36 29.55,-40.29 30.25,-41.22 31.11,-42.18 31.96,-43.14 32.69,-44.01 33.43,-44.88 34.19,-45.70 34.95,-46.52 35.78,-47.36 36.61,-48.19 37.39,-48.94 38.17,-49.68 39.64,-51.11 41.12,-52.54 42.72,-53.97 44.33,-55.40 45.25,-56.16 46.17,-56.92 47.06,-57.63 47.95,-58.34 48.81,-59.05 49.67,-59.76 50.51,-60.55 51.34,-61.34 52.41,-62.13 53.48,-62.92 54.49,-63.67 55.51,-64.42 56.59,-65.27 57.68,-66.12 58.82,-67.00 59.96,-67.88 61.10,-68.74 62.25,-69.60 63.45,-70.41 64.65,-71.21 65.76,-72.01 66.88,-72.81 68.00,-73.75 69.13,-74.70 70.34,-75.63 71.55,-76.56 72.78,-77.38 74.02,-78.20 75.20,-79.02 76.38,-79.85 77.58,-80.69 78.77,-81.54 79.90,-82.33 81.02,-83.11 82.14,-83.87 83.25,-84.63 84.36,-85.42 85.47,-86.21 86.60,-86.92 87.72,-87.63 88.82,-88.30 89.92,-88.98 91.06,-89.63 92.20,-90.27 93.29,-90.92 94.39,-91.56 95.49,-92.17 96.58,-92.79 97.71,-93.38 98.84,-93.97 100.04,-94.55 101.24,-95.13 102.35,-95.71 103.47,-96.29 104.55,-96.88 105.63,-97.47 106.72,-98.03 107.81,-98.60 108.89,-99.14 109.97,-99.69 111.02,-100.26 112.07,-100.83 113.12,-101.42 114.17,-102.02 115.20,-102.65 116.23,-103.28 117.32,-103.88 118.40,-104.48 119.51,-104.99 120.61,-105.51 121.60,-105.96 122.59,-106.42 123.65,-106.86 124.71,-107.30 125.81,-107.73 126.91,-108.17 127.97,-108.61 129.03,-109.06 130.71,-109.73 132.38,-110.41 133.72,-110.89 135.07,-111.38 136.14,-111.74 137.21,-112.10 138.24,-112.48 139.26,-112.85 140.34,-113.21 141.41,-113.57 142.59,-113.89 143.78,-114.20 144.88,-114.52 145.98,-114.83 147.81,-115.48 149.64,-116.12 151.54,-116.82 153.44,-117.51 155.29,-118.10 157.15,-118.69 158.80,-119.25 160.46,-119.82 162.34,-120.33 164.23,-120.84 165.85,-121.34 167.47,-121.83 169.21,-122.36 170.96,-122.90 172.55,-123.34 174.15,-123.79 175.68,-124.20 177.21,-124.61 178.65,-125.07 180.08,-125.53 181.51,-125.96 182.93,-126.38 184.45,-126.73 185.96,-127.08 187.30,-127.55 188.65,-128.01 189.88,-128.48 191.12,-128.94 192.39,-129.23 193.66,-129.52 194.76,-129.81 195.86,-130.10 197.06,-130.34 198.26,-130.58 199.80,-130.96 201.34,-131.35 202.45,-131.54 203.57,-131.74 205.41,-131.98 207.26,-132.21 207.47,-132.21 207.68,-132.20 207.88,-132.13 208.08,-132.06 208.25,-131.93 208.42,-131.79 208.53,-131.62 208.65,-131.44 208.70,-131.23 208.75,-131.03 208.74,-130.81 208.72,-130.60 208.64,-130.41 208.56,-130.21 208.41,-130.05 208.27,-129.89 208.09,-129.79 207.91,-129.68 207.70,-129.64 207.49,-129.60 207.28,-129.63 207.07,-129.65 206.88,-129.75 206.68,-129.84 206.53,-129.99 206.38,-130.14 206.29,-130.33 206.19,-130.52 206.16,-130.73 206.13,-130.94 206.17,-131.15 206.21,-131.36 206.31,-131.54 206.42,-131.73 206.57,-131.87 206.73,-132.01 206.92,-132.10 207.12,-132.18 207.33,-132.20 207.54,-132.22 207.75,-132.17 207.96,-132.12 208.13,-132.01 208.31,-131.89 208.45,-131.73 208.58,-131.56 208.66,-131.37 208.73,-131.17 208.74,-130.95 208.75,-130.74 208.69,-130.54 208.62,-130.33 208.50,-130.16 208.38,-129.99 208.21,-129.86 208.04,-129.74 207.83,-129.67 207.63,-129.61 207.63,-129.61 207.63,-129.61 204.86,-129.09 202.10,-128.58 200.95,-128.26 199.80,-127.94 198.25,-127.65 196.70,-127.35 195.50,-127.03 194.30,-126.71 193.19,-126.47 192.08,-126.23 190.81,-125.76 189.54,-125.28 188.07,-124.78 186.59,-124.28 185.11,-123.94 183.63,-123.59 182.34,-123.21 181.04,-122.82 179.49,-122.32 177.93,-121.83 176.39,-121.42 174.86,-121.02 173.33,-120.59 171.79,-120.16 170.05,-119.63 168.30,-119.11 166.60,-118.58 164.89,-118.05 163.12,-117.57 161.35,-117.08 159.71,-116.53 158.07,-115.98 156.28,-115.41 154.50,-114.84 152.55,-114.13 150.61,-113.42 148.69,-112.75 146.77,-112.07 145.64,-111.75 144.52,-111.42 143.42,-111.13 142.33,-110.84 141.29,-110.50 140.25,-110.15 139.19,-109.76 138.13,-109.38 137.08,-109.03 136.04,-108.68 134.75,-108.21 133.45,-107.74 131.80,-107.08 130.14,-106.41 129.05,-105.96 127.96,-105.50 126.88,-105.08 125.80,-104.65 124.80,-104.24 123.79,-103.83 122.81,-103.37 121.82,-102.91 120.80,-102.43 119.78,-101.96 118.76,-101.40 117.73,-100.83 116.66,-100.18 115.60,-99.53 114.52,-98.91 113.44,-98.29 112.35,-97.71 111.27,-97.13 110.20,-96.59 109.14,-96.04 108.07,-95.49 107.01,-94.94 105.90,-94.34 104.79,-93.74 103.64,-93.14 102.49,-92.54 101.33,-91.98 100.17,-91.42 99.07,-90.85 97.98,-90.27 96.91,-89.68 95.84,-89.09 94.73,-88.43 93.61,-87.77 92.52,-87.16 91.42,-86.54 90.33,-85.87 89.24,-85.20 88.19,-84.54 87.13,-83.88 86.00,-83.07 84.86,-82.27 83.76,-81.52 82.66,-80.77 81.54,-79.99 80.43,-79.21 79.22,-78.35 78.02,-77.49 76.81,-76.65 75.60,-75.81 74.45,-75.04 73.30,-74.28 72.14,-73.39 70.97,-72.49 69.76,-71.49 68.55,-70.48 67.40,-69.65 66.25,-68.83 65.11,-68.07 63.97,-67.31 62.84,-66.46 61.72,-65.61 60.58,-64.73 59.44,-63.85 58.32,-62.99 57.20,-62.13 56.18,-61.37 55.16,-60.62 54.23,-59.95 53.30,-59.27 52.39,-58.42 51.49,-57.56 50.60,-56.84 49.72,-56.11 48.85,-55.42 47.98,-54.73 47.10,-54.01 46.22,-53.28 45.37,-52.52 44.51,-51.76 43.03,-50.43 41.55,-49.10 40.08,-47.65 38.62,-46.20 37.11,-44.62 35.60,-43.05 34.84,-42.15 34.08,-41.25 33.30,-40.38 32.53,-39.51 31.83,-38.58 31.13,-37.65 30.42,-36.71 29.72,-35.77 28.93,-34.76 28.15,-33.75 27.46,-32.83 26.78,-31.90 26.05,-31.09 25.32,-30.28 23.89,-28.79 22.47,-27.29 21.23,-25.93 19.99,-24.57 18.69,-23.18 17.39,-21.79 16.16,-20.40 14.93,-19.00 13.70,-17.50 12.46,-15.99 11.16,-13.90 9.85,-11.81 8.71,-10.26 7.57,-8.71 6.60,-7.28 5.62,-5.84 4.79,-4.64 3.96,-3.45 3.10,-2.16 2.25,-0.87 1.70,-0.05 1.16,0.76 1.06,0.89 0.95,1.01 0.81,1.11 0.68,1.21 0.52,1.28 0.37,1.34 0.20,1.36 0.03,1.39 -0.12,1.37 -0.29,1.36 -0.45,1.30 -0.61,1.25 -0.75,1.16 -0.89,1.06 -1.01,0.94 -1.12,0.82 -1.20,0.67 -1.29,0.52 -1.33,0.36 -1.37,0.20 -1.38,0.03 -1.38,-0.13 -1.35,-0.29 -1.31,-0.45 -1.24,-0.61 -1.16,-0.76 -1.16,-0.76 L -1.16,-0.76 Z"/></g><g stroke-linecap="round"><g transform="translate(36.30322265625 263.96856689453125) rotate(0 1.0658141036401503e-14 -126.98428344726562)"><path d="M0 0 C0 -60.95, 0 -121.89, 0 -253.97 M0 0 C0 -63.23, 0 -126.46, 0 -253.97" stroke="#1e1e1e" stroke-width="2" fill="none"/></g></g><mask/><g stroke-linecap="round"><g transform="translate(10 237.66607666015625) rotate(0 129.01902770996094 0)"><path d="M0 0 C76.2 0, 152.39 0, 258.04 0 M0 0 C55.27 0, 110.53 0, 258.04 0" stroke="#1e1e1e" stroke-width="2" fill="none"/></g></g><mask/><g stroke-linecap="round"><g transform="translate(247.99429321289062 107.28579711914062) rotate(0 -105.67906188964844 0)"><path d="M0 0 C-52.01 0, -104.01 0, -211.36 0 M0 0 C-65.92 0, -131.83 0, -211.36 0" stroke="#e03131" stroke-width="4" fill="none"/></g></g><mask/><g stroke-linecap="round"><g transform="translate(37.18044282477794 107.35236443835274) rotate(0 102.76770061828209 0)"><path d="M0 0 C51.34 0, 102.68 0, 205.54 0 M0 0 C48.95 0, 97.9 0, 205.54 0" stroke="#e03131" stroke-width="1" fill="none"/></g></g><mask/></svg>