<svg version="1.1" xmlns="http://www.w3.org/2000/svg" viewBox="0 0 348.0245819091797 345.21815490722656" width="348.0245819091797" height="345.21815490722656" filter="invert(93%) hue-rotate(180deg)" class="excalidraw-svg">
  <!-- svg-source:excalidraw -->
  
  <defs>
    <style class="style-fonts">
      @font-face {
        font-family: "Virgil";
        src: url("https://excalidraw.com/Virgil.woff2");
      }
      @font-face {
        font-family: "Cascadia";
        src: url("https://excalidraw.com/Cascadia.woff2");
      }
      @font-face {
        font-family: "Assistant";
        src: url("https://excalidraw.com/Assistant-Regular.woff2");
      }
    </style>
    
  </defs>
  <g stroke-linecap="round"><g transform="translate(170.4164276123047 335.21815490722656) rotate(0 1.0658141036401503e-14 -162.60907745361328)"><path d="M0 0 C0 -111.42, 0 -222.84, 0 -325.22 M0 0 C0 -67.77, 0 -135.53, 0 -325.22" stroke="#1e1e1e" stroke-width="4" fill="none"/></g></g><mask/><g stroke-linecap="round"><g transform="translate(10 171.2772979736328) rotate(0 164.01229095458984 0)"><path d="M0 0 C113.66 0, 227.33 0, 328.02 0 M0 0 C81.33 0, 162.66 0, 328.02 0" stroke="#1e1e1e" stroke-width="4" fill="none"/></g></g><mask/><g stroke-linecap="round" transform="translate(72.12895202636719 70.46238708496094) rotate(0 98.11813354492188 98.11813354492188)"><path d="M22.57 35.52 C22.57 35.52, 22.57 35.52, 22.57 35.52 M22.57 35.52 C22.57 35.52, 22.57 35.52, 22.57 35.52 M1.19 84.51 C23.39 58.98, 45.59 33.44, 71.39 3.76 M1.19 84.51 C22.38 60.13, 43.57 35.76, 71.39 3.76 M0.8 109.35 C32.33 73.08, 63.86 36.81, 95.93 -0.09 M0.8 109.35 C36.79 67.95, 72.78 26.54, 95.93 -0.09 M5 128.9 C49.08 78.2, 93.15 27.5, 115.22 2.11 M5 128.9 C40.51 88.06, 76.01 47.21, 115.22 2.11 M12.49 144.68 C41.05 111.82, 69.62 78.96, 132.55 6.57 M12.49 144.68 C59.69 90.38, 106.89 36.08, 132.55 6.57 M21.28 158.95 C67.4 105.9, 113.51 52.85, 147.9 13.29 M21.28 158.95 C54.8 120.39, 88.32 81.84, 147.9 13.29 M32.05 170.96 C60.1 138.69, 88.15 106.42, 160.63 23.03 M32.05 170.96 C58.38 140.66, 84.72 110.36, 160.63 23.03 M44.78 180.7 C80.27 139.86, 115.77 99.03, 172.05 34.29 M44.78 180.7 C77.56 142.99, 110.34 105.28, 172.05 34.29 M59.48 188.18 C106.58 133.99, 153.69 79.8, 182.16 47.05 M59.48 188.18 C86.97 156.55, 114.47 124.91, 182.16 47.05 M75.49 194.15 C103.8 161.58, 132.11 129.01, 189.64 62.83 M75.49 194.15 C103.38 162.07, 131.26 129.98, 189.64 62.83 M94.78 196.34 C133.09 152.28, 171.39 108.21, 195.16 80.87 M94.78 196.34 C132.67 152.75, 170.56 109.16, 195.16 80.87 M117.35 194.76 C134.02 175.59, 150.69 156.41, 196.74 103.44 M117.35 194.76 C147.85 159.68, 178.34 124.6, 196.74 103.44 M149.77 181.86 C165.18 164.13, 180.6 146.39, 189.13 136.58 M149.77 181.86 C161.85 167.97, 173.93 154.07, 189.13 136.58 M35.72 173.83 C35.72 173.83, 35.72 173.83, 35.72 173.83 M35.72 173.83 C35.72 173.83, 35.72 173.83, 35.72 173.83 M84.71 195.21 C58.12 172.1, 31.53 148.99, 3.95 125.02 M84.71 195.21 C54.81 169.23, 24.92 143.25, 3.95 125.02 M109.54 195.6 C83.5 172.96, 57.45 150.32, 0.11 100.48 M109.54 195.6 C83.47 172.94, 57.39 150.27, 0.11 100.48 M129.1 191.4 C98.21 164.55, 67.33 137.71, 2.3 81.18 M129.1 191.4 C98.62 164.91, 68.14 138.41, 2.3 81.18 M144.88 183.92 C96.15 141.56, 47.42 99.2, 6.76 63.86 M144.88 183.92 C96.66 142.01, 48.45 100.1, 6.76 63.86 M159.15 175.12 C112.76 134.8, 66.37 94.48, 13.49 48.5 M159.15 175.12 C114.49 136.3, 69.83 97.48, 13.49 48.5 M170.4 163.7 C117.45 117.68, 64.51 71.66, 22.47 35.12 M170.4 163.7 C139.9 137.19, 109.39 110.67, 22.47 35.12 M180.89 151.63 C140.87 116.83, 100.84 82.04, 33.73 23.7 M180.89 151.63 C140.67 116.66, 100.44 81.69, 33.73 23.7 M188.37 136.93 C137.05 92.32, 85.73 47.71, 47.24 14.25 M188.37 136.93 C153.52 106.63, 118.67 76.34, 47.24 14.25 M193.59 120.26 C147.02 79.78, 100.45 39.3, 63.02 6.76 M193.59 120.26 C146.49 79.32, 99.39 38.38, 63.02 6.76 M195.78 100.97 C159.69 69.59, 123.6 38.22, 81.07 1.25 M195.78 100.97 C158.58 68.63, 121.38 36.29, 81.07 1.25 M194.2 78.4 C161.66 50.1, 129.11 21.81, 103.64 -0.33 M194.2 78.4 C166.62 54.42, 139.04 30.44, 103.64 -0.33 M181.3 45.98 C163.65 30.63, 145.99 15.28, 136.02 6.62 M181.3 45.98 C167.41 33.9, 153.51 21.82, 136.02 6.62" stroke="#ffc9c9" stroke-width="2" fill="none"/><path d="M196.24 98.12 C196.24 101.32, 196.08 104.55, 195.76 107.74 C195.45 110.93, 194.98 114.12, 194.35 117.26 C193.73 120.4, 192.94 123.53, 192.01 126.6 C191.08 129.67, 189.99 132.7, 188.77 135.67 C187.54 138.63, 186.16 141.54, 184.65 144.37 C183.14 147.2, 181.48 149.96, 179.7 152.63 C177.92 155.3, 176 157.89, 173.96 160.36 C171.93 162.84, 169.76 165.23, 167.5 167.5 C165.23 169.76, 162.84 171.93, 160.36 173.96 C157.89 176, 155.3 177.92, 152.63 179.7 C149.96 181.48, 147.2 183.14, 144.37 184.65 C141.54 186.16, 138.63 187.54, 135.67 188.77 C132.7 189.99, 129.67 191.08, 126.6 192.01 C123.53 192.94, 120.4 193.73, 117.26 194.35 C114.12 194.98, 110.93 195.45, 107.74 195.76 C104.55 196.08, 101.32 196.24, 98.12 196.24 C94.91 196.24, 91.69 196.08, 88.5 195.76 C85.31 195.45, 82.12 194.98, 78.98 194.35 C75.83 193.73, 72.7 192.94, 69.64 192.01 C66.57 191.08, 63.53 189.99, 60.57 188.77 C57.61 187.54, 54.69 186.16, 51.87 184.65 C49.04 183.14, 46.27 181.48, 43.61 179.7 C40.94 177.92, 38.35 176, 35.87 173.96 C33.39 171.93, 31 169.76, 28.74 167.5 C26.47 165.23, 24.31 162.84, 22.27 160.36 C20.24 157.89, 18.32 155.3, 16.54 152.63 C14.75 149.96, 13.1 147.2, 11.59 144.37 C10.07 141.54, 8.7 138.63, 7.47 135.67 C6.24 132.7, 5.16 129.67, 4.22 126.6 C3.29 123.53, 2.51 120.4, 1.89 117.26 C1.26 114.12, 0.79 110.93, 0.47 107.74 C0.16 104.55, 0 101.32, 0 98.12 C0 94.91, 0.16 91.69, 0.47 88.5 C0.79 85.31, 1.26 82.12, 1.89 78.98 C2.51 75.83, 3.29 72.7, 4.22 69.64 C5.16 66.57, 6.24 63.53, 7.47 60.57 C8.7 57.61, 10.07 54.69, 11.59 51.87 C13.1 49.04, 14.75 46.27, 16.54 43.61 C18.32 40.94, 20.24 38.35, 22.27 35.87 C24.31 33.39, 26.47 31, 28.74 28.74 C31 26.47, 33.39 24.31, 35.87 22.27 C38.35 20.24, 40.94 18.32, 43.61 16.54 C46.27 14.75, 49.04 13.1, 51.87 11.59 C54.69 10.07, 57.61 8.7, 60.57 7.47 C63.53 6.24, 66.57 5.16, 69.64 4.22 C72.7 3.29, 75.83 2.51, 78.98 1.89 C82.12 1.26, 85.31 0.79, 88.5 0.47 C91.69 0.16, 94.91 0, 98.12 0 C101.32 0, 104.55 0.16, 107.74 0.47 C110.93 0.79, 114.12 1.26, 117.26 1.89 C120.4 2.51, 123.53 3.29, 126.6 4.22 C129.67 5.16, 132.7 6.24, 135.67 7.47 C138.63 8.7, 141.54 10.07, 144.37 11.59 C147.2 13.1, 149.96 14.75, 152.63 16.54 C155.3 18.32, 157.89 20.24, 160.36 22.27 C162.84 24.31, 165.23 26.47, 167.5 28.74 C169.76 31, 171.93 33.39, 173.96 35.87 C176 38.35, 177.92 40.94, 179.7 43.61 C181.48 46.27, 183.14 49.04, 184.65 51.87 C186.16 54.69, 187.54 57.61, 188.77 60.57 C189.99 63.53, 191.08 66.57, 192.01 69.64 C192.94 72.7, 193.73 75.83, 194.35 78.98 C194.98 82.12, 195.45 85.31, 195.76 88.5 C196.08 91.69, 196.16 96.52, 196.24 98.12 C196.32 99.72, 196.32 96.52, 196.24 98.12" stroke="#e03131" stroke-width="4" fill="none"/></g><g stroke-linecap="round" transform="translate(151.2383575439453 114.27754211425781) rotate(0 56.90155029296875 56.90155029296875)"><path d="M113.8 56.9 C113.8 59.19, 113.66 61.49, 113.39 63.76 C113.11 66.03, 112.7 68.3, 112.15 70.52 C111.6 72.74, 110.92 74.94, 110.11 77.08 C109.29 79.22, 108.35 81.32, 107.29 83.35 C106.22 85.37, 105.03 87.34, 103.73 89.23 C102.43 91.11, 101.01 92.92, 99.49 94.63 C97.98 96.35, 96.35 97.98, 94.63 99.49 C92.92 101.01, 91.11 102.43, 89.23 103.73 C87.34 105.03, 85.37 106.22, 83.35 107.29 C81.32 108.35, 79.22 109.29, 77.08 110.11 C74.94 110.92, 72.74 111.6, 70.52 112.15 C68.3 112.7, 66.03 113.11, 63.76 113.39 C61.49 113.66, 59.19 113.8, 56.9 113.8 C54.62 113.8, 52.31 113.66, 50.04 113.39 C47.77 113.11, 45.5 112.7, 43.28 112.15 C41.06 111.6, 38.86 110.92, 36.72 110.11 C34.59 109.29, 32.48 108.35, 30.46 107.29 C28.43 106.22, 26.46 105.03, 24.58 103.73 C22.7 102.43, 20.88 101.01, 19.17 99.49 C17.46 97.98, 15.83 96.35, 14.31 94.63 C12.79 92.92, 11.37 91.11, 10.07 89.23 C8.77 87.34, 7.58 85.37, 6.52 83.35 C5.46 81.32, 4.51 79.22, 3.7 77.08 C2.89 74.94, 2.2 72.74, 1.65 70.52 C1.11 68.3, 0.69 66.03, 0.41 63.76 C0.14 61.49, 0 59.19, 0 56.9 C0 54.62, 0.14 52.31, 0.41 50.04 C0.69 47.77, 1.11 45.5, 1.65 43.28 C2.2 41.06, 2.89 38.86, 3.7 36.72 C4.51 34.59, 5.46 32.48, 6.52 30.46 C7.58 28.43, 8.77 26.46, 10.07 24.58 C11.37 22.7, 12.79 20.88, 14.31 19.17 C15.83 17.46, 17.46 15.83, 19.17 14.31 C20.88 12.79, 22.7 11.37, 24.58 10.07 C26.46 8.77, 28.43 7.58, 30.46 6.52 C32.48 5.46, 34.59 4.51, 36.72 3.7 C38.86 2.89, 41.06 2.2, 43.28 1.65 C45.5 1.11, 47.77 0.69, 50.04 0.41 C52.31 0.14, 54.62 0, 56.9 0 C59.19 0, 61.49 0.14, 63.76 0.41 C66.03 0.69, 68.3 1.11, 70.52 1.65 C72.74 2.2, 74.94 2.89, 77.08 3.7 C79.22 4.51, 81.32 5.46, 83.35 6.52 C85.37 7.58, 87.34 8.77, 89.23 10.07 C91.11 11.37, 92.92 12.79, 94.63 14.31 C96.35 15.83, 97.98 17.46, 99.49 19.17 C101.01 20.88, 102.43 22.7, 103.73 24.58 C105.03 26.46, 106.22 28.43, 107.29 30.46 C108.35 32.48, 109.29 34.59, 110.11 36.72 C110.92 38.86, 111.6 41.06, 112.15 43.28 C112.7 45.5, 113.11 47.77, 113.39 50.04 C113.66 52.31, 113.8 54.62, 113.8 56.9" stroke="none" stroke-width="0" fill="#ffffff"/><path d="M113.8 56.9 C113.8 59.19, 113.66 61.49, 113.39 63.76 C113.11 66.03, 112.7 68.3, 112.15 70.52 C111.6 72.74, 110.92 74.94, 110.11 77.08 C109.29 79.22, 108.35 81.32, 107.29 83.35 C106.22 85.37, 105.03 87.34, 103.73 89.23 C102.43 91.11, 101.01 92.92, 99.49 94.63 C97.98 96.35, 96.35 97.98, 94.63 99.49 C92.92 101.01, 91.11 102.43, 89.23 103.73 C87.34 105.03, 85.37 106.22, 83.35 107.29 C81.32 108.35, 79.22 109.29, 77.08 110.11 C74.94 110.92, 72.74 111.6, 70.52 112.15 C68.3 112.7, 66.03 113.11, 63.76 113.39 C61.49 113.66, 59.19 113.8, 56.9 113.8 C54.62 113.8, 52.31 113.66, 50.04 113.39 C47.77 113.11, 45.5 112.7, 43.28 112.15 C41.06 111.6, 38.86 110.92, 36.72 110.11 C34.59 109.29, 32.48 108.35, 30.46 107.29 C28.43 106.22, 26.46 105.03, 24.58 103.73 C22.7 102.43, 20.88 101.01, 19.17 99.49 C17.46 97.98, 15.83 96.35, 14.31 94.63 C12.79 92.92, 11.37 91.11, 10.07 89.23 C8.77 87.34, 7.58 85.37, 6.52 83.35 C5.46 81.32, 4.51 79.22, 3.7 77.08 C2.89 74.94, 2.2 72.74, 1.65 70.52 C1.11 68.3, 0.69 66.03, 0.41 63.76 C0.14 61.49, 0 59.19, 0 56.9 C0 54.62, 0.14 52.31, 0.41 50.04 C0.69 47.77, 1.11 45.5, 1.65 43.28 C2.2 41.06, 2.89 38.86, 3.7 36.72 C4.51 34.59, 5.46 32.48, 6.52 30.46 C7.58 28.43, 8.77 26.46, 10.07 24.58 C11.37 22.7, 12.79 20.88, 14.31 19.17 C15.83 17.46, 17.46 15.83, 19.17 14.31 C20.88 12.79, 22.7 11.37, 24.58 10.07 C26.46 8.77, 28.43 7.58, 30.46 6.52 C32.48 5.46, 34.59 4.51, 36.72 3.7 C38.86 2.89, 41.06 2.2, 43.28 1.65 C45.5 1.11, 47.77 0.69, 50.04 0.41 C52.31 0.14, 54.62 0, 56.9 0 C59.19 0, 61.49 0.14, 63.76 0.41 C66.03 0.69, 68.3 1.11, 70.52 1.65 C72.74 2.2, 74.94 2.89, 77.08 3.7 C79.22 4.51, 81.32 5.46, 83.35 6.52 C85.37 7.58, 87.34 8.77, 89.23 10.07 C91.11 11.37, 92.92 12.79, 94.63 14.31 C96.35 15.83, 97.98 17.46, 99.49 19.17 C101.01 20.88, 102.43 22.7, 103.73 24.58 C105.03 26.46, 106.22 28.43, 107.29 30.46 C108.35 32.48, 109.29 34.59, 110.11 36.72 C110.92 38.86, 111.6 41.06, 112.15 43.28 C112.7 45.5, 113.11 47.77, 113.39 50.04 C113.66 52.31, 113.8 54.62, 113.8 56.9" stroke="#e03131" stroke-width="4" fill="none"/></g></svg>