<svg version="1.1" xmlns="http://www.w3.org/2000/svg" viewBox="0 0 456.3672790527344 376.2484130859375" width="456.3672790527344" height="376.2484130859375" filter="invert(93%) hue-rotate(180deg)" class="excalidraw-svg">
  <!-- svg-source:excalidraw -->
  
  <defs>
    <style class="style-fonts">
      @font-face {
        font-family: "Virgil";
        src: url("https://excalidraw.com/Virgil.woff2");
      }
      @font-face {
        font-family: "Cascadia";
        src: url("https://excalidraw.com/Cascadia.woff2");
      }
      @font-face {
        font-family: "Assistant";
        src: url("https://excalidraw.com/Assistant-Regular.woff2");
      }
    </style>
    
  </defs>
  <g stroke-linecap="round"><g transform="translate(312.6915141025962 195.92580478671513) rotate(0 26.40890391550186 -38.58607363605509)" fill-rule="evenodd"><path d="M-22.28 -60.44 C-22.28 -60.44, -22.28 -60.44, -22.28 -60.44 M-22.28 -60.44 C-22.28 -60.44, -22.28 -60.44, -22.28 -60.44 M-15.45 -43.91 C-5.62 -55.22, 4.21 -66.53, 14.72 -78.63 M-15.45 -43.91 C-5.05 -55.88, 5.35 -67.85, 14.72 -78.63 M-7.97 -28.13 C0.68 -38.08, 9.32 -48.02, 34.02 -76.43 M-7.97 -28.13 C3.51 -41.33, 14.99 -54.54, 34.02 -76.43 M-4.42 -7.82 C10.43 -24.91, 25.29 -42, 46.09 -65.93 M-4.42 -7.82 C8.16 -22.3, 20.75 -36.78, 46.09 -65.93 M9.62 0.41 C28.05 -20.79, 46.48 -41.99, 56.2 -53.17 M9.62 0.41 C19.97 -11.49, 30.31 -23.39, 56.2 -53.17 M31.54 -0.41 C39.71 -9.81, 47.88 -19.22, 64.99 -38.9 M31.54 -0.41 C41.93 -12.37, 52.33 -24.33, 64.99 -38.9 M53.45 -1.24 C59.56 -8.27, 65.68 -15.3, 70.51 -20.86 M53.45 -1.24 C57.64 -6.06, 61.83 -10.88, 70.51 -20.86 M74.71 -1.3 C74.91 -1.53, 75.1 -1.75, 75.37 -2.06 M74.71 -1.3 C74.85 -1.47, 74.99 -1.63, 75.37 -2.06 M-2.11 3.95 C-2.11 3.95, -2.11 3.95, -2.11 3.95 M-2.11 3.95 C-2.11 3.95, -2.11 3.95, -2.11 3.95 M16.69 -0.91 C11.23 -5.66, 5.77 -10.4, -7.46 -21.91 M16.69 -0.91 C8.46 -8.07, 0.24 -15.22, -7.46 -21.91 M40.02 -1.83 C25.77 -14.22, 11.52 -26.61, -18.09 -52.35 M40.02 -1.83 C19.86 -19.36, -0.29 -36.88, -18.09 -52.35 M64.1 -2.1 C44.97 -18.73, 25.85 -35.36, -9.86 -66.39 M64.1 -2.1 C36.79 -25.84, 9.48 -49.58, -9.86 -66.39 M71.58 -16.8 C53.43 -32.58, 35.27 -48.36, 5.17 -74.53 M71.58 -16.8 C49.58 -35.93, 27.57 -55.05, 5.17 -74.53 M60.94 -47.25 C50.37 -56.44, 39.8 -65.63, 22.45 -80.7 M60.94 -47.25 C50.36 -56.45, 39.78 -65.65, 22.45 -80.7" stroke="#ffc9c9" stroke-width="2" fill="none"/><path d="M0 0 C22.85 -0.62, 45.71 -1.23, 75.39 -2.03 M0 0 C29.75 -0.8, 59.5 -1.6, 75.39 -2.03 M75.39 -2.03 C70.96 -18.04, 66.53 -34.04, 64.04 -43 M75.39 -2.03 C72.02 -14.22, 68.64 -26.42, 64.04 -43 M64.04 -43 C56.06 -53.06, 48.08 -63.13, 38.66 -75 M64.04 -43 C54.05 -55.6, 44.05 -68.21, 38.66 -75 M38.66 -75 C33.05 -76.76, 27.44 -78.53, 19.35 -81.07 M38.66 -75 C31.83 -77.15, 24.99 -79.3, 19.35 -81.07 M19.35 -81.07 C14.54 -78.91, 9.73 -76.76, 3.35 -73.9 M19.35 -81.07 C13.28 -78.35, 7.2 -75.62, 3.35 -73.9 M3.35 -73.9 C-5.69 -69.09, -14.73 -64.27, -22.58 -60.1 M3.35 -73.9 C-3.06 -70.48, -9.48 -67.07, -22.58 -60.1 M-22.58 -60.1 C-18.38 -51.18, -14.18 -42.27, -9.34 -31.97 M-22.58 -60.1 C-17.91 -50.18, -13.24 -40.26, -9.34 -31.97 M-9.34 -31.97 C-7.74 -24, -6.15 -16.04, -2.16 3.9 M-9.34 -31.97 C-6.81 -19.34, -4.29 -6.72, -2.16 3.9 M-2.16 3.9 C-1.58 2.84, -0.99 1.78, 0 0 M-2.16 3.9 C-1.71 3.08, -1.26 2.26, 0 0" stroke="transparent" stroke-width="4" fill="none"/></g></g><mask/><g stroke-linecap="round"><g transform="translate(10 199.111328125) rotate(0 218.1836395263672 0)"><path d="M0 0 C118.65 0, 237.31 0, 436.37 0 M0 0 C142.17 0, 284.34 0, 436.37 0" stroke="#1e1e1e" stroke-width="4" fill="none"/></g></g><mask/><g stroke-linecap="round"><g transform="translate(211.56930541992188 10) rotate(0 0 178.12420654296875)"><path d="M0 0 C0 106.77, 0 213.54, 0 356.25 M0 0 C0 114.06, 0 228.12, 0 356.25" stroke="#1e1e1e" stroke-width="4" fill="none"/></g></g><mask/><g stroke-linecap="round"><g transform="translate(214.1003138490741 203.36281599997858) rotate(0 4.749996662139893 -9.270286289368855)"><path d="M0 0 C-18.8 11.92, -84.63 72.58, -112.79 71.5 C-140.96 70.42, -170.28 19.52, -169 -6.5 C-167.72 -32.52, -148.13 -96.76, -105.14 -84.64 C-62.15 -72.51, 41.68 52.32, 88.95 66.26 C136.22 80.2, 173.64 25.05, 178.5 -1 C183.36 -27.05, 147.83 -90.21, 118.08 -90.04 C88.33 -89.87, 19.68 -15.01, 0 0 M0 0 C-18.8 11.92, -84.63 72.58, -112.79 71.5 C-140.96 70.42, -170.28 19.52, -169 -6.5 C-167.72 -32.52, -148.13 -96.76, -105.14 -84.64 C-62.15 -72.51, 41.68 52.32, 88.95 66.26 C136.22 80.2, 173.64 25.05, 178.5 -1 C183.36 -27.05, 147.83 -90.21, 118.08 -90.04 C88.33 -89.87, 19.68 -15.01, 0 0" stroke="#e03131" stroke-width="4" fill="none"/></g></g><mask/><g stroke-linecap="round" transform="translate(111.750244140625 99.02883911132812) rotate(0 99.38626098632812 99.38626098632812)"><path d="M198.77 99.39 C198.77 102.63, 198.61 105.9, 198.29 109.13 C197.98 112.36, 197.5 115.59, 196.86 118.78 C196.23 121.96, 195.44 125.13, 194.49 128.24 C193.55 131.34, 192.45 134.42, 191.21 137.42 C189.96 140.42, 188.57 143.37, 187.04 146.24 C185.51 149.1, 183.83 151.9, 182.02 154.6 C180.22 157.3, 178.27 159.93, 176.21 162.44 C174.15 164.95, 171.96 167.37, 169.66 169.66 C167.37 171.96, 164.95 174.15, 162.44 176.21 C159.93 178.27, 157.3 180.22, 154.6 182.02 C151.9 183.83, 149.1 185.51, 146.24 187.04 C143.37 188.57, 140.42 189.96, 137.42 191.21 C134.42 192.45, 131.34 193.55, 128.24 194.49 C125.13 195.44, 121.96 196.23, 118.78 196.86 C115.59 197.5, 112.36 197.98, 109.13 198.29 C105.9 198.61, 102.63 198.77, 99.39 198.77 C96.14 198.77, 92.88 198.61, 89.64 198.29 C86.41 197.98, 83.18 197.5, 80 196.86 C76.81 196.23, 73.64 195.44, 70.54 194.49 C67.43 193.55, 64.35 192.45, 61.35 191.21 C58.35 189.96, 55.4 188.57, 52.54 187.04 C49.67 185.51, 46.87 183.83, 44.17 182.02 C41.47 180.22, 38.85 178.27, 36.34 176.21 C33.83 174.15, 31.41 171.96, 29.11 169.66 C26.81 167.37, 24.62 164.95, 22.56 162.44 C20.5 159.93, 18.55 157.3, 16.75 154.6 C14.95 151.9, 13.27 149.1, 11.74 146.24 C10.2 143.37, 8.81 140.42, 7.57 137.42 C6.32 134.42, 5.22 131.34, 4.28 128.24 C3.34 125.13, 2.54 121.96, 1.91 118.78 C1.28 115.59, 0.8 112.36, 0.48 109.13 C0.16 105.9, 0 102.63, 0 99.39 C0 96.14, 0.16 92.88, 0.48 89.64 C0.8 86.41, 1.28 83.18, 1.91 80 C2.54 76.81, 3.34 73.64, 4.28 70.54 C5.22 67.43, 6.32 64.35, 7.57 61.35 C8.81 58.35, 10.2 55.4, 11.74 52.54 C13.27 49.67, 14.95 46.87, 16.75 44.17 C18.55 41.47, 20.5 38.85, 22.56 36.34 C24.62 33.83, 26.81 31.41, 29.11 29.11 C31.41 26.81, 33.83 24.62, 36.34 22.56 C38.85 20.5, 41.47 18.55, 44.17 16.75 C46.87 14.95, 49.67 13.27, 52.54 11.74 C55.4 10.2, 58.35 8.81, 61.35 7.57 C64.35 6.32, 67.43 5.22, 70.54 4.28 C73.64 3.34, 76.81 2.54, 80 1.91 C83.18 1.28, 86.41 0.8, 89.64 0.48 C92.88 0.16, 96.14 0, 99.39 0 C102.63 0, 105.9 0.16, 109.13 0.48 C112.36 0.8, 115.59 1.28, 118.78 1.91 C121.96 2.54, 125.13 3.34, 128.24 4.28 C131.34 5.22, 134.42 6.32, 137.42 7.57 C140.42 8.81, 143.37 10.2, 146.24 11.74 C149.1 13.27, 151.9 14.95, 154.6 16.75 C157.3 18.55, 159.93 20.5, 162.44 22.56 C164.95 24.62, 167.37 26.81, 169.66 29.11 C171.96 31.41, 174.15 33.83, 176.21 36.34 C178.27 38.85, 180.22 41.47, 182.02 44.17 C183.83 46.87, 185.51 49.67, 187.04 52.54 C188.57 55.4, 189.96 58.35, 191.21 61.35 C192.45 64.35, 193.55 67.43, 194.49 70.54 C195.44 73.64, 196.23 76.81, 196.86 80 C197.5 83.18, 197.98 86.41, 198.29 89.64 C198.61 92.88, 198.69 97.76, 198.77 99.39 C198.85 101.01, 198.85 97.76, 198.77 99.39" stroke="#e03131" stroke-width="4" fill="none"/></g><g stroke-linecap="round"><g transform="translate(312.18365215433056 199.2707677380792) rotate(0 40.55172624259157 0)"><path d="M0 0 C13.52 0, 67.59 0, 81.1 0 M0 0 C13.52 0, 67.59 0, 81.1 0" stroke="transparent" stroke-width="4" fill="none"/></g></g><mask/></svg>