<svg version="1.1" xmlns="http://www.w3.org/2000/svg" viewBox="0 0 348.0245819091797 345.21815490722656" width="348.0245819091797" height="345.21815490722656" filter="invert(93%) hue-rotate(180deg)">
  <!-- svg-source:excalidraw -->
  
  <defs>
    <style class="style-fonts">
      @font-face {
        font-family: "Virgil";
        src: url("https://excalidraw.com/Virgil.woff2");
      }
      @font-face {
        font-family: "Cascadia";
        src: url("https://excalidraw.com/Cascadia.woff2");
      }
    </style>
  </defs>
  <g stroke-linecap="round"><g transform="translate(170.4164276123047 335.21815490722656) rotate(0 1.0658141036401503e-14 -162.60907745361328)"><path d="M0 0 C0 -111.42, 0 -222.84, 0 -325.22 M0 0 C0 -102.41, 0 -204.83, 0 -325.22" stroke="#1e1e1e" stroke-width="4" fill="none"/></g></g><mask/><g stroke-linecap="round"><g transform="translate(10 171.2772979736328) rotate(0 164.01229095458984 0)"><path d="M0 0 C113.66 0, 227.33 0, 328.02 0 M0 0 C68.33 0, 136.67 0, 328.02 0" stroke="#1e1e1e" stroke-width="4" fill="none"/></g></g><mask/><g stroke-linecap="round" transform="translate(72.12895202636719 70.46238708496094) rotate(0 98.11813354492188 98.11813354492188)"><path d="M196.24 98.12 C196.24 101.32, 196.08 104.55, 195.76 107.74 C195.45 110.93, 194.98 114.12, 194.35 117.26 C193.73 120.4, 192.94 123.53, 192.01 126.6 C191.08 129.67, 189.99 132.7, 188.77 135.67 C187.54 138.63, 186.16 141.54, 184.65 144.37 C183.14 147.2, 181.48 149.96, 179.7 152.63 C177.92 155.3, 176 157.89, 173.96 160.36 C171.93 162.84, 169.76 165.23, 167.5 167.5 C165.23 169.76, 162.84 171.93, 160.36 173.96 C157.89 176, 155.3 177.92, 152.63 179.7 C149.96 181.48, 147.2 183.14, 144.37 184.65 C141.54 186.16, 138.63 187.54, 135.67 188.77 C132.7 189.99, 129.67 191.08, 126.6 192.01 C123.53 192.94, 120.4 193.73, 117.26 194.35 C114.12 194.98, 110.93 195.45, 107.74 195.76 C104.55 196.08, 101.32 196.24, 98.12 196.24 C94.91 196.24, 91.69 196.08, 88.5 195.76 C85.31 195.45, 82.12 194.98, 78.98 194.35 C75.83 193.73, 72.7 192.94, 69.64 192.01 C66.57 191.08, 63.53 189.99, 60.57 188.77 C57.61 187.54, 54.69 186.16, 51.87 184.65 C49.04 183.14, 46.27 181.48, 43.61 179.7 C40.94 177.92, 38.35 176, 35.87 173.96 C33.39 171.93, 31 169.76, 28.74 167.5 C26.47 165.23, 24.31 162.84, 22.27 160.36 C20.24 157.89, 18.32 155.3, 16.54 152.63 C14.75 149.96, 13.1 147.2, 11.59 144.37 C10.07 141.54, 8.7 138.63, 7.47 135.67 C6.24 132.7, 5.16 129.67, 4.22 126.6 C3.29 123.53, 2.51 120.4, 1.89 117.26 C1.26 114.12, 0.79 110.93, 0.47 107.74 C0.16 104.55, 0 101.32, 0 98.12 C0 94.91, 0.16 91.69, 0.47 88.5 C0.79 85.31, 1.26 82.12, 1.89 78.98 C2.51 75.83, 3.29 72.7, 4.22 69.64 C5.16 66.57, 6.24 63.53, 7.47 60.57 C8.7 57.61, 10.07 54.69, 11.59 51.87 C13.1 49.04, 14.75 46.27, 16.54 43.61 C18.32 40.94, 20.24 38.35, 22.27 35.87 C24.31 33.39, 26.47 31, 28.74 28.74 C31 26.47, 33.39 24.31, 35.87 22.27 C38.35 20.24, 40.94 18.32, 43.61 16.54 C46.27 14.75, 49.04 13.1, 51.87 11.59 C54.69 10.07, 57.61 8.7, 60.57 7.47 C63.53 6.24, 66.57 5.16, 69.64 4.22 C72.7 3.29, 75.83 2.51, 78.98 1.89 C82.12 1.26, 85.31 0.79, 88.5 0.47 C91.69 0.16, 94.91 0, 98.12 0 C101.32 0, 104.55 0.16, 107.74 0.47 C110.93 0.79, 114.12 1.26, 117.26 1.89 C120.4 2.51, 123.53 3.29, 126.6 4.22 C129.67 5.16, 132.7 6.24, 135.67 7.47 C138.63 8.7, 141.54 10.07, 144.37 11.59 C147.2 13.1, 149.96 14.75, 152.63 16.54 C155.3 18.32, 157.89 20.24, 160.36 22.27 C162.84 24.31, 165.23 26.47, 167.5 28.74 C169.76 31, 171.93 33.39, 173.96 35.87 C176 38.35, 177.92 40.94, 179.7 43.61 C181.48 46.27, 183.14 49.04, 184.65 51.87 C186.16 54.69, 187.54 57.61, 188.77 60.57 C189.99 63.53, 191.08 66.57, 192.01 69.64 C192.94 72.7, 193.73 75.83, 194.35 78.98 C194.98 82.12, 195.45 85.31, 195.76 88.5 C196.08 91.69, 196.16 96.52, 196.24 98.12 C196.32 99.72, 196.32 96.52, 196.24 98.12" stroke="#e03131" stroke-width="4" fill="none"/></g><g stroke-linecap="round" transform="translate(151.2383575439453 114.27754211425781) rotate(0 56.90155029296875 56.90155029296875)"><path d="M113.8 56.9 C113.8 59.19, 113.66 61.49, 113.39 63.76 C113.11 66.03, 112.7 68.3, 112.15 70.52 C111.6 72.74, 110.92 74.94, 110.11 77.08 C109.29 79.22, 108.35 81.32, 107.29 83.35 C106.22 85.37, 105.03 87.34, 103.73 89.23 C102.43 91.11, 101.01 92.92, 99.49 94.63 C97.98 96.35, 96.35 97.98, 94.63 99.49 C92.92 101.01, 91.11 102.43, 89.23 103.73 C87.34 105.03, 85.37 106.22, 83.35 107.29 C81.32 108.35, 79.22 109.29, 77.08 110.11 C74.94 110.92, 72.74 111.6, 70.52 112.15 C68.3 112.7, 66.03 113.11, 63.76 113.39 C61.49 113.66, 59.19 113.8, 56.9 113.8 C54.62 113.8, 52.31 113.66, 50.04 113.39 C47.77 113.11, 45.5 112.7, 43.28 112.15 C41.06 111.6, 38.86 110.92, 36.72 110.11 C34.59 109.29, 32.48 108.35, 30.46 107.29 C28.43 106.22, 26.46 105.03, 24.58 103.73 C22.7 102.43, 20.88 101.01, 19.17 99.49 C17.46 97.98, 15.83 96.35, 14.31 94.63 C12.79 92.92, 11.37 91.11, 10.07 89.23 C8.77 87.34, 7.58 85.37, 6.52 83.35 C5.46 81.32, 4.51 79.22, 3.7 77.08 C2.89 74.94, 2.2 72.74, 1.65 70.52 C1.11 68.3, 0.69 66.03, 0.41 63.76 C0.14 61.49, 0 59.19, 0 56.9 C0 54.62, 0.14 52.31, 0.41 50.04 C0.69 47.77, 1.11 45.5, 1.65 43.28 C2.2 41.06, 2.89 38.86, 3.7 36.72 C4.51 34.59, 5.46 32.48, 6.52 30.46 C7.58 28.43, 8.77 26.46, 10.07 24.58 C11.37 22.7, 12.79 20.88, 14.31 19.17 C15.83 17.46, 17.46 15.83, 19.17 14.31 C20.88 12.79, 22.7 11.37, 24.58 10.07 C26.46 8.77, 28.43 7.58, 30.46 6.52 C32.48 5.46, 34.59 4.51, 36.72 3.7 C38.86 2.89, 41.06 2.2, 43.28 1.65 C45.5 1.11, 47.77 0.69, 50.04 0.41 C52.31 0.14, 54.62 0, 56.9 0 C59.19 0, 61.49 0.14, 63.76 0.41 C66.03 0.69, 68.3 1.11, 70.52 1.65 C72.74 2.2, 74.94 2.89, 77.08 3.7 C79.22 4.51, 81.32 5.46, 83.35 6.52 C85.37 7.58, 87.34 8.77, 89.23 10.07 C91.11 11.37, 92.92 12.79, 94.63 14.31 C96.35 15.83, 97.98 17.46, 99.49 19.17 C101.01 20.88, 102.43 22.7, 103.73 24.58 C105.03 26.46, 106.22 28.43, 107.29 30.46 C108.35 32.48, 109.29 34.59, 110.11 36.72 C110.92 38.86, 111.6 41.06, 112.15 43.28 C112.7 45.5, 113.11 47.77, 113.39 50.04 C113.66 52.31, 113.8 54.62, 113.8 56.9" stroke="#e03131" stroke-width="4" fill="none"/></g><g transform="translate(230.68080139160156 103.55683898925781) rotate(0 -75.44699096679688 68.81918334960938)" stroke="none"><path fill="#e03131" d="M 1.03,1.07 Q 1.03,1.07 -0.87,3.03 -2.78,4.99 -4.66,6.66 -6.53,8.33 -8.16,9.55 -9.79,10.76 -11.68,11.13 -13.56,11.51 -14.39,9.13 -15.22,6.76 -14.79,4.80 -14.36,2.85 -13.77,0.94 -13.18,-0.96 -12.66,-2.48 -12.15,-4.00 -12.90,-2.75 -13.64,-1.50 -15.39,-0.05 -17.13,1.40 -19.15,2.90 -21.17,4.41 -23.08,5.50 -24.99,6.59 -26.99,6.46 -28.99,6.33 -29.73,5.22 -30.46,4.11 -29.90,1.79 -29.33,-0.53 -28.24,-2.99 -27.15,-5.45 -25.87,-7.88 -24.59,-10.31 -23.65,-12.01 -22.71,-13.70 -22.53,-14.83 -22.35,-15.96 -22.19,-16.17 -22.04,-16.38 -21.84,-16.56 -21.63,-16.73 -21.40,-16.84 -21.16,-16.96 -20.91,-17.02 -20.65,-17.08 -20.38,-17.07 -20.12,-17.06 -19.87,-17.00 -19.61,-16.93 -19.38,-16.80 -19.15,-16.67 -18.96,-16.49 -18.76,-16.31 -18.62,-16.09 -18.47,-15.87 -18.38,-15.63 -18.30,-15.38 -18.27,-15.11 -18.24,-14.85 -18.28,-14.59 -18.32,-14.33 -18.42,-14.09 -18.52,-13.84 -20.19,-12.55 -21.87,-11.25 -24.11,-9.24 -26.35,-7.23 -29.38,-4.53 -32.41,-1.82 -35.69,0.99 -38.96,3.82 -41.50,5.81 -44.05,7.80 -45.38,8.26 -46.71,8.72 -46.94,8.86 -47.17,9.00 -47.43,9.08 -47.68,9.15 -47.95,9.17 -48.22,9.18 -48.48,9.13 -48.75,9.08 -48.99,8.97 -49.23,8.86 -49.44,8.69 -49.65,8.52 -49.82,8.31 -49.98,8.10 -50.09,7.85 -50.19,7.61 -50.24,7.34 -50.29,7.08 -50.27,6.81 -50.25,6.54 -50.17,6.29 -50.09,6.03 -49.95,5.81 -49.81,5.58 -49.62,5.39 -49.42,5.20 -49.27,2.45 -49.12,-0.29 -47.58,-3.54 -46.03,-6.78 -44.21,-9.87 -42.38,-12.97 -40.97,-15.03 -39.56,-17.09 -38.97,-17.85 -38.38,-18.61 -38.20,-18.81 -38.03,-19.01 -37.81,-19.17 -37.59,-19.32 -37.33,-19.42 -37.08,-19.51 -36.82,-19.55 -36.55,-19.58 -36.28,-19.55 -36.01,-19.52 -35.76,-19.43 -35.51,-19.33 -35.29,-19.18 -35.07,-19.03 -34.89,-18.83 -34.71,-18.63 -34.58,-18.39 -34.46,-18.15 -34.39,-17.89 -34.32,-17.63 -34.32,-17.36 -34.32,-17.09 -34.38,-16.83 -34.45,-16.57 -34.57,-16.33 -34.70,-16.09 -35.30,-15.18 -35.90,-14.28 -37.53,-11.88 -39.17,-9.47 -41.66,-6.03 -44.15,-2.58 -47.04,1.18 -49.93,4.96 -52.35,7.85 -54.76,10.73 -56.09,11.75 -57.41,12.77 -57.61,12.96 -57.80,13.14 -58.04,13.27 -58.28,13.40 -58.54,13.47 -58.80,13.54 -59.07,13.55 -59.34,13.56 -59.60,13.50 -59.86,13.44 -60.11,13.32 -60.35,13.20 -60.56,13.03 -60.76,12.86 -60.92,12.64 -61.08,12.42 -61.18,12.17 -61.28,11.92 -61.32,11.65 -61.36,11.38 -61.34,11.12 -61.31,10.85 -61.22,10.59 -61.13,10.34 -60.98,10.11 -60.84,9.89 -60.30,7.19 -59.77,4.49 -58.05,1.03 -56.34,-2.42 -54.36,-6.02 -52.38,-9.63 -51.02,-12.17 -49.66,-14.72 -49.31,-15.84 -48.95,-16.96 -48.80,-17.18 -48.64,-17.41 -48.44,-17.58 -48.23,-17.76 -47.99,-17.88 -47.75,-18.01 -47.49,-18.07 -47.23,-18.13 -46.96,-18.13 -46.69,-18.13 -46.42,-18.06 -46.16,-17.99 -45.92,-17.87 -45.68,-17.74 -45.48,-17.56 -45.28,-17.38 -45.13,-17.15 -44.98,-16.93 -44.89,-16.68 -44.79,-16.42 -44.76,-16.15 -44.73,-15.89 -44.77,-15.62 -44.80,-15.35 -44.90,-15.10 -45.00,-14.85 -46.33,-13.89 -47.66,-12.93 -49.59,-10.93 -51.52,-8.93 -54.74,-5.59 -57.95,-2.25 -61.83,1.62 -65.71,5.50 -69.48,9.16 -73.24,12.81 -76.17,15.18 -79.10,17.56 -80.61,17.84 -82.12,18.13 -82.35,18.27 -82.57,18.41 -82.83,18.49 -83.08,18.57 -83.34,18.59 -83.61,18.61 -83.87,18.56 -84.13,18.52 -84.38,18.41 -84.62,18.31 -84.83,18.14 -85.04,17.98 -85.21,17.77 -85.38,17.57 -85.49,17.33 -85.60,17.08 -85.65,16.82 -85.70,16.56 -85.69,16.30 -85.68,16.03 -85.60,15.78 -85.52,15.52 -85.39,15.29 -85.25,15.06 -85.07,14.87 -84.88,14.68 -84.29,10.37 -83.70,6.06 -81.58,1.69 -79.46,-2.66 -77.02,-6.89 -74.58,-11.13 -72.59,-14.24 -70.61,-17.35 -69.72,-18.83 -68.84,-20.31 -68.66,-20.53 -68.48,-20.75 -68.25,-20.92 -68.02,-21.09 -67.76,-21.20 -67.50,-21.31 -67.22,-21.35 -66.94,-21.40 -66.66,-21.37 -66.37,-21.35 -66.10,-21.26 -65.84,-21.17 -65.60,-21.01 -65.36,-20.86 -65.16,-20.65 -64.97,-20.45 -64.83,-20.20 -64.68,-19.96 -64.61,-19.68 -64.53,-19.41 -64.52,-19.13 -64.51,-18.84 -64.57,-18.56 -64.63,-18.29 -64.75,-18.03 -64.87,-17.77 -66.47,-15.68 -68.07,-13.59 -70.63,-10.01 -73.19,-6.44 -76.72,-1.65 -80.25,3.12 -83.86,7.87 -87.46,12.62 -90.02,15.75 -92.59,18.87 -93.74,19.46 -94.89,20.04 -95.10,20.23 -95.30,20.43 -95.55,20.57 -95.80,20.71 -96.07,20.79 -96.34,20.86 -96.62,20.87 -96.91,20.88 -97.18,20.83 -97.46,20.77 -97.72,20.65 -97.97,20.52 -98.19,20.34 -98.41,20.16 -98.58,19.94 -98.75,19.71 -98.86,19.45 -98.97,19.19 -99.01,18.91 -99.05,18.63 -99.03,18.34 -99.00,18.06 -98.91,17.79 -98.82,17.53 -98.67,17.29 -98.52,17.05 -98.34,15.87 -98.16,14.69 -96.35,10.99 -94.55,7.29 -91.78,2.71 -89.02,-1.86 -85.99,-6.49 -82.96,-11.12 -80.59,-14.74 -78.22,-18.36 -77.02,-20.16 -75.82,-21.97 -75.63,-22.19 -75.44,-22.42 -75.20,-22.59 -74.96,-22.76 -74.69,-22.88 -74.41,-22.99 -74.12,-23.03 -73.83,-23.07 -73.53,-23.04 -73.24,-23.01 -72.96,-22.92 -72.68,-22.82 -72.44,-22.66 -72.19,-22.49 -71.99,-22.28 -71.79,-22.06 -71.64,-21.80 -71.50,-21.55 -71.42,-21.26 -71.35,-20.98 -71.34,-20.68 -71.33,-20.38 -71.40,-20.10 -71.46,-19.81 -71.59,-19.54 -71.72,-19.28 -73.50,-17.26 -75.27,-15.23 -78.21,-11.57 -81.14,-7.90 -85.01,-3.27 -88.88,1.36 -92.68,5.92 -96.48,10.48 -99.24,13.51 -102.01,16.54 -103.15,17.33 -104.30,18.12 -104.53,18.32 -104.77,18.52 -105.04,18.66 -105.32,18.80 -105.62,18.86 -105.92,18.93 -106.23,18.93 -106.54,18.92 -106.84,18.84 -107.14,18.76 -107.41,18.62 -107.68,18.47 -107.90,18.26 -108.13,18.05 -108.30,17.79 -108.47,17.54 -108.58,17.25 -108.68,16.96 -108.71,16.65 -108.75,16.34 -108.70,16.04 -108.66,15.73 -108.55,15.44 -108.43,15.16 -108.25,14.91 -108.07,14.66 -106.19,10.71 -104.30,6.76 -101.76,2.52 -99.21,-1.71 -96.49,-6.20 -93.77,-10.68 -91.73,-13.98 -89.69,-17.27 -88.92,-18.72 -88.15,-20.16 -87.95,-20.40 -87.75,-20.65 -87.50,-20.84 -87.25,-21.03 -86.97,-21.16 -86.68,-21.28 -86.37,-21.33 -86.06,-21.39 -85.74,-21.37 -85.43,-21.34 -85.13,-21.25 -84.83,-21.15 -84.57,-20.98 -84.30,-20.82 -84.08,-20.59 -83.86,-20.37 -83.70,-20.10 -83.54,-19.83 -83.45,-19.53 -83.36,-19.23 -83.35,-18.91 -83.33,-18.60 -83.39,-18.29 -83.45,-17.98 -83.58,-17.70 -83.71,-17.41 -84.84,-16.42 -85.96,-15.43 -88.11,-12.93 -90.25,-10.42 -93.86,-6.13 -97.47,-1.83 -102.06,3.57 -106.65,8.98 -111.25,14.29 -115.85,19.61 -119.17,23.12 -122.48,26.63 -123.97,27.55 -125.45,28.47 -125.69,28.67 -125.93,28.87 -126.21,29.00 -126.49,29.14 -126.79,29.20 -127.09,29.27 -127.40,29.26 -127.71,29.25 -128.00,29.16 -128.30,29.08 -128.57,28.93 -128.84,28.77 -129.06,28.56 -129.29,28.35 -129.46,28.09 -129.62,27.83 -129.72,27.54 -129.82,27.25 -129.85,26.94 -129.88,26.63 -129.83,26.33 -129.78,26.02 -129.66,25.74 -129.54,25.45 -129.36,25.20 -129.18,24.95 -127.94,20.56 -126.70,16.17 -124.35,11.60 -122.00,7.03 -119.00,2.27 -115.99,-2.47 -114.22,-5.29 -112.46,-8.11 -111.99,-8.91 -111.52,-9.72 -111.32,-9.96 -111.12,-10.20 -110.87,-10.39 -110.62,-10.58 -110.34,-10.71 -110.05,-10.83 -109.74,-10.88 -109.43,-10.93 -109.12,-10.91 -108.81,-10.88 -108.51,-10.78 -108.22,-10.69 -107.95,-10.52 -107.69,-10.35 -107.47,-10.13 -107.25,-9.90 -107.09,-9.63 -106.94,-9.36 -106.85,-9.06 -106.76,-8.76 -106.75,-8.45 -106.73,-8.14 -106.80,-7.83 -106.86,-7.53 -106.99,-7.24 -107.12,-6.96 -108.42,-5.41 -109.72,-3.85 -112.42,-0.72 -115.11,2.40 -119.07,6.99 -123.03,11.57 -127.31,16.48 -131.58,21.39 -134.81,24.96 -138.04,28.52 -139.57,30.05 -141.10,31.58 -141.34,31.79 -141.58,32.00 -141.87,32.14 -142.15,32.28 -142.46,32.36 -142.77,32.43 -143.08,32.42 -143.40,32.42 -143.71,32.34 -144.01,32.26 -144.29,32.11 -144.57,31.96 -144.80,31.74 -145.04,31.53 -145.21,31.27 -145.39,31.00 -145.50,30.70 -145.61,30.41 -145.64,30.09 -145.68,29.78 -145.63,29.46 -145.59,29.15 -145.47,28.85 -145.36,28.56 -145.17,28.30 -144.99,28.04 -143.32,25.04 -141.64,22.04 -138.77,18.03 -135.90,14.02 -132.25,9.63 -128.60,5.25 -125.04,1.90 -121.48,-1.43 -117.29,-2.53 -113.10,-3.64 -112.23,-2.24 -111.36,-0.84 -112.02,3.53 -112.67,7.90 -114.70,13.98 -116.72,20.06 -119.40,27.19 -122.08,34.32 -124.27,40.54 -126.47,46.76 -127.43,49.26 -128.39,51.76 -125.94,50.36 -123.49,48.96 -119.56,45.55 -115.62,42.14 -110.77,37.53 -105.91,32.91 -100.83,28.31 -95.75,23.72 -91.46,20.40 -87.17,17.08 -84.84,15.68 -82.51,14.29 -82.24,14.13 -81.98,13.97 -81.68,13.88 -81.39,13.80 -81.08,13.78 -80.77,13.76 -80.47,13.82 -80.17,13.88 -79.89,14.01 -79.61,14.14 -79.37,14.33 -79.12,14.52 -78.94,14.76 -78.75,15.01 -78.62,15.29 -78.50,15.57 -78.45,15.88 -78.39,16.18 -78.41,16.49 -78.43,16.80 -78.53,17.09 -78.62,17.38 -78.78,17.65 -78.95,17.91 -79.17,18.12 -79.38,18.34 -80.25,22.33 -81.11,26.32 -84.70,32.07 -88.28,37.81 -92.76,44.77 -97.23,51.72 -101.86,58.73 -106.48,65.73 -109.86,70.81 -113.24,75.89 -114.54,77.62 -115.84,79.34 -116.04,79.58 -116.24,79.81 -116.49,79.99 -116.74,80.17 -117.03,80.28 -117.31,80.39 -117.61,80.44 -117.92,80.48 -118.22,80.45 -118.53,80.41 -118.82,80.31 -119.11,80.21 -119.36,80.04 -119.62,79.87 -119.82,79.64 -120.03,79.41 -120.18,79.14 -120.33,78.88 -120.40,78.58 -120.48,78.28 -120.49,77.98 -120.49,77.67 -120.42,77.37 -120.36,77.07 -120.22,76.80 -120.08,76.52 -119.02,75.00 -117.95,73.47 -115.39,69.50 -112.83,65.52 -109.24,59.97 -105.65,54.41 -101.50,48.57 -97.35,42.73 -93.84,38.07 -90.33,33.41 -87.66,30.77 -84.98,28.13 -85.48,28.41 -85.97,28.69 -85.75,28.47 -85.53,28.26 -85.26,28.10 -84.99,27.95 -84.69,27.86 -84.39,27.78 -84.08,27.76 -83.77,27.75 -83.47,27.81 -83.16,27.88 -82.88,28.01 -82.60,28.14 -82.36,28.34 -82.12,28.54 -81.94,28.79 -81.75,29.03 -81.63,29.32 -81.51,29.60 -81.46,29.91 -81.41,30.22 -81.44,30.53 -81.46,30.84 -81.56,31.13 -81.66,31.42 -81.82,31.69 -81.99,31.95 -83.17,34.29 -84.35,36.64 -87.16,41.33 -89.98,46.02 -93.70,52.01 -97.42,58.00 -101.13,63.83 -104.84,69.65 -107.38,73.39 -109.91,77.12 -110.74,77.91 -111.57,78.71 -111.78,78.94 -111.98,79.18 -112.24,79.36 -112.50,79.54 -112.79,79.65 -113.08,79.76 -113.39,79.80 -113.70,79.84 -114.01,79.81 -114.32,79.77 -114.62,79.66 -114.91,79.56 -115.17,79.38 -115.43,79.20 -115.64,78.97 -115.85,78.74 -116.00,78.46 -116.14,78.19 -116.22,77.88 -116.30,77.58 -116.30,77.26 -116.30,76.95 -116.23,76.65 -116.16,76.34 -116.01,76.06 -115.87,75.78 -115.09,74.10 -114.31,72.41 -112.55,68.38 -110.80,64.36 -108.43,58.90 -106.05,53.45 -103.65,48.20 -101.25,42.96 -99.83,39.57 -98.41,36.19 -98.39,35.18 -98.37,34.18 -98.22,33.91 -98.06,33.64 -97.85,33.41 -97.63,33.18 -97.37,33.02 -97.11,32.85 -96.81,32.75 -96.51,32.65 -96.20,32.62 -95.89,32.60 -95.58,32.65 -95.28,32.70 -94.99,32.82 -94.70,32.94 -94.45,33.13 -94.20,33.31 -94.00,33.55 -93.81,33.79 -93.67,34.08 -93.54,34.36 -93.47,34.66 -93.41,34.97 -93.42,35.28 -93.43,35.59 -93.52,35.89 -93.60,36.19 -95.50,38.20 -97.39,40.21 -100.34,43.93 -103.30,47.64 -107.74,53.26 -112.18,58.88 -117.08,64.98 -121.98,71.07 -126.11,75.50 -130.24,79.92 -132.38,81.32 -134.52,82.72 -134.76,82.92 -135.01,83.13 -135.30,83.27 -135.59,83.41 -135.90,83.48 -136.21,83.55 -136.53,83.54 -136.85,83.53 -137.16,83.44 -137.47,83.36 -137.75,83.20 -138.03,83.04 -138.27,82.82 -138.50,82.60 -138.67,82.33 -138.85,82.06 -138.95,81.76 -139.06,81.46 -139.09,81.14 -139.12,80.82 -139.07,80.50 -139.02,80.18 -138.90,79.89 -138.77,79.59 -138.58,79.33 -138.39,79.07 -139.06,75.14 -139.73,71.20 -138.38,66.74 -137.03,62.28 -135.57,58.29 -134.11,54.30 -133.14,53.06 -132.17,51.82 -132.56,50.78 -132.95,49.74 -132.81,49.45 -132.67,49.17 -132.46,48.92 -132.25,48.68 -131.99,48.49 -131.73,48.31 -131.43,48.19 -131.14,48.07 -130.82,48.03 -130.50,47.98 -130.19,48.01 -129.87,48.05 -129.57,48.15 -129.26,48.26 -129.00,48.44 -128.73,48.62 -128.51,48.85 -128.30,49.09 -128.14,49.37 -127.99,49.65 -127.91,49.96 -127.83,50.27 -127.82,50.59 -127.82,50.91 -127.89,51.22 -127.96,51.53 -129.36,53.77 -130.77,56.00 -133.06,59.61 -135.35,63.21 -138.08,67.50 -140.81,71.79 -143.06,75.10 -145.31,78.41 -146.17,79.46 -147.02,80.51 -147.24,80.75 -147.46,81.00 -147.73,81.19 -148.00,81.38 -148.31,81.50 -148.62,81.62 -148.95,81.66 -149.28,81.70 -149.61,81.66 -149.94,81.63 -150.25,81.51 -150.56,81.39 -150.83,81.21 -151.11,81.02 -151.33,80.77 -151.55,80.53 -151.70,80.23 -151.86,79.94 -151.94,79.62 -152.02,79.30 -152.02,78.97 -152.02,78.63 -151.94,78.31 -151.87,77.99 -151.71,77.70 -151.56,77.40 -150.89,76.00 -150.23,74.59 -148.01,70.83 -145.78,67.06 -138.48,59.00 -131.17,50.94 -127.58,48.29 -123.98,45.64 -123.73,45.43 -123.49,45.21 -123.19,45.06 -122.90,44.91 -122.58,44.84 -122.26,44.77 -121.93,44.77 -121.60,44.77 -121.28,44.86 -120.97,44.94 -120.68,45.10 -120.39,45.25 -120.15,45.48 -119.90,45.70 -119.72,45.97 -119.54,46.24 -119.43,46.55 -119.31,46.86 -119.28,47.19 -119.24,47.51 -119.29,47.84 -119.33,48.17 -119.45,48.47 -119.57,48.78 -119.76,49.04 -119.95,49.31 -119.01,55.85 -118.06,62.39 -117.64,67.35 -117.21,72.31 -116.19,74.27 -115.18,76.23 -113.12,76.83 -111.06,77.43 -108.35,77.51 -105.63,77.59 -99.42,78.14 -93.21,78.69 -90.14,81.11 -87.07,83.53 -86.65,87.26 -86.23,91.00 -87.19,95.19 -88.16,99.38 -89.21,102.69 -90.27,106.01 -90.89,107.23 -91.52,108.45 -91.65,108.72 -91.77,109.00 -91.96,109.24 -92.15,109.48 -92.39,109.67 -92.63,109.85 -92.91,109.98 -93.19,110.10 -93.49,110.15 -93.79,110.21 -94.10,110.19 -94.40,110.17 -94.69,110.07 -94.98,109.98 -95.24,109.82 -95.50,109.66 -95.72,109.44 -95.93,109.23 -96.09,108.97 -96.24,108.70 -96.33,108.41 -96.42,108.12 -96.44,107.82 -96.45,107.51 -96.40,107.21 -96.34,106.91 -95.01,103.68 -93.68,100.46 -92.32,97.63 -90.97,94.81 -89.57,92.76 -88.18,90.71 -87.49,90.07 -86.79,89.44 -86.60,89.22 -86.41,89.00 -86.17,88.83 -85.93,88.67 -85.66,88.56 -85.39,88.46 -85.10,88.42 -84.81,88.38 -84.52,88.41 -84.23,88.45 -83.96,88.55 -83.68,88.65 -83.44,88.81 -83.20,88.98 -83.01,89.19 -82.81,89.41 -82.67,89.67 -82.54,89.92 -82.46,90.21 -82.39,90.49 -82.39,90.78 -82.39,91.07 -82.46,91.36 -82.52,91.64 -82.66,91.90 -82.79,92.16 -83.22,95.23 -83.65,98.30 -85.01,101.40 -86.37,104.50 -87.76,107.39 -89.14,110.28 -90.82,112.39 -92.49,114.49 -92.01,114.13 -91.53,113.77 -91.73,114.03 -91.92,114.28 -92.18,114.48 -92.43,114.68 -92.72,114.82 -93.01,114.95 -93.33,115.01 -93.65,115.07 -93.97,115.05 -94.29,115.04 -94.60,114.94 -94.91,114.85 -95.18,114.68 -95.46,114.52 -95.69,114.29 -95.92,114.06 -96.09,113.79 -96.26,113.51 -96.35,113.21 -96.45,112.90 -96.47,112.58 -96.49,112.26 -96.44,111.94 -96.38,111.62 -96.25,111.33 -96.12,111.03 -95.22,109.31 -94.32,107.58 -92.66,104.38 -91.00,101.18 -88.99,97.40 -86.98,93.63 -85.02,90.56 -83.06,87.49 -82.17,86.10 -81.28,84.71 -81.08,84.46 -80.87,84.21 -80.62,84.02 -80.36,83.83 -80.06,83.71 -79.77,83.58 -79.45,83.53 -79.14,83.48 -78.82,83.51 -78.50,83.54 -78.20,83.64 -77.89,83.75 -77.62,83.92 -77.36,84.09 -77.13,84.32 -76.91,84.55 -76.76,84.83 -76.60,85.11 -76.51,85.42 -76.42,85.73 -76.41,86.05 -76.40,86.36 -76.47,86.68 -76.53,86.99 -76.67,87.28 -76.81,87.57 -77.50,88.42 -78.18,89.28 -80.15,91.96 -82.12,94.65 -85.54,99.20 -88.96,103.74 -93.21,109.10 -97.46,114.45 -101.73,118.92 -106.00,123.39 -109.64,125.70 -113.28,128.00 -116.05,127.09 -118.83,126.17 -119.81,123.23 -120.79,120.28 -120.34,116.40 -119.89,112.52 -118.75,108.61 -117.62,104.71 -116.60,101.82 -115.59,98.93 -115.25,97.71 -114.91,96.48 -114.76,96.18 -114.61,95.88 -114.39,95.62 -114.17,95.37 -113.90,95.17 -113.62,94.97 -113.31,94.85 -113.00,94.72 -112.67,94.67 -112.34,94.63 -112.00,94.66 -111.67,94.69 -111.35,94.81 -111.03,94.92 -110.75,95.10 -110.47,95.29 -110.25,95.54 -110.02,95.78 -109.85,96.08 -109.69,96.37 -109.61,96.70 -109.52,97.02 -109.51,97.36 -109.50,97.69 -109.58,98.02 -109.65,98.35 -110.71,99.56 -111.76,100.77 -113.05,102.82 -114.33,104.87 -116.50,108.23 -118.66,111.58 -120.80,114.92 -122.94,118.26 -124.95,120.58 -126.96,122.90 -127.34,122.79 -127.72,122.68 -127.97,122.93 -128.21,123.17 -128.51,123.34 -128.81,123.52 -129.14,123.62 -129.47,123.72 -129.81,123.74 -130.16,123.76 -130.50,123.69 -130.84,123.62 -131.15,123.48 -131.46,123.34 -131.73,123.12 -132.00,122.91 -132.21,122.63 -132.42,122.36 -132.56,122.04 -132.70,121.73 -132.76,121.39 -132.82,121.05 -132.80,120.70 -132.77,120.36 -132.67,120.03 -132.56,119.70 -132.38,119.41 -132.20,119.11 -131.95,117.65 -131.70,116.18 -130.15,112.49 -128.60,108.79 -126.36,104.46 -124.13,100.13 -121.72,96.30 -119.31,92.47 -116.87,90.06 -114.43,87.66 -115.15,88.01 -115.88,88.36 -115.63,88.11 -115.39,87.86 -115.10,87.67 -114.80,87.48 -114.47,87.37 -114.14,87.26 -113.79,87.24 -113.44,87.21 -113.10,87.27 -112.76,87.32 -112.43,87.46 -112.11,87.60 -111.84,87.81 -111.56,88.02 -111.34,88.29 -111.12,88.56 -110.97,88.87 -110.82,89.19 -110.75,89.53 -110.68,89.87 -110.69,90.22 -110.71,90.57 -110.81,90.91 -110.90,91.24 -111.08,91.54 -111.25,91.84 -112.38,93.72 -113.51,95.60 -115.70,98.96 -117.89,102.32 -120.26,105.95 -122.64,109.58 -124.31,111.94 -125.98,114.30 -126.48,114.88 -126.98,115.45 -127.21,115.71 -127.45,115.96 -127.73,116.16 -128.02,116.35 -128.35,116.47 -128.67,116.59 -129.01,116.63 -129.36,116.67 -129.70,116.62 -130.04,116.57 -130.37,116.45 -130.69,116.32 -130.97,116.12 -131.25,115.92 -131.48,115.66 -131.71,115.40 -131.86,115.09 -132.02,114.78 -132.10,114.45 -132.18,114.11 -132.18,113.76 -132.17,113.42 -132.09,113.08 -132.00,112.75 -131.83,112.44 -131.67,112.14 -130.74,110.99 -129.81,109.85 -127.76,107.39 -125.70,104.93 -122.76,101.89 -119.82,98.84 -116.18,96.23 -112.54,93.62 -108.62,92.58 -104.70,91.55 -101.19,92.91 -97.68,94.28 -95.25,97.80 -92.81,101.33 -91.19,105.47 -89.56,109.62 -88.14,113.80 -86.72,117.98 -85.26,121.83 -83.80,125.68 -82.23,128.76 -80.66,131.84 -78.96,133.66 -77.26,135.48 -75.35,136.23 -73.45,136.98 -71.09,136.94 -68.73,136.90 -65.95,136.77 -63.17,136.65 -60.65,136.64 -58.13,136.62 -55.96,137.41 -53.78,138.20 -52.47,139.88 -51.15,141.56 -50.87,143.35 -50.58,145.14 -50.73,146.20 -50.88,147.26 -50.95,147.51 -51.02,147.77 -51.12,148.09 -51.23,148.42 -51.41,148.71 -51.58,148.99 -51.83,149.23 -52.07,149.47 -52.36,149.64 -52.65,149.81 -52.98,149.91 -53.30,150.01 -53.64,150.03 -53.98,150.04 -54.31,149.98 -54.64,149.91 -54.95,149.77 -55.26,149.63 -55.52,149.42 -55.79,149.21 -56.00,148.94 -56.20,148.67 -56.34,148.36 -56.47,148.05 -56.53,147.71 -56.59,147.38 -56.57,147.04 -56.54,146.70 -55.64,145.57 -54.73,144.44 -53.69,143.67 -52.64,142.90 -50.87,141.86 -49.11,140.82 -47.22,139.94 -45.33,139.07 -43.65,138.35 -41.96,137.63 -40.13,136.68 -38.29,135.73 -36.43,134.85 -34.57,133.97 -32.56,133.45 -30.55,132.93 -28.43,133.15 -26.31,133.38 -24.42,134.30 -22.54,135.21 -21.05,136.40 -19.56,137.59 -18.62,138.54 -17.68,139.48 -16.09,139.13 -14.51,138.78 -13.24,138.36 -11.96,137.94 -10.53,137.75 -9.09,137.57 -7.65,137.94 -6.20,138.31 -6.18,138.73 -6.17,139.16 -5.95,138.92 -5.73,138.68 -5.46,138.51 -5.19,138.33 -4.88,138.22 -4.58,138.11 -4.25,138.08 -3.93,138.05 -3.61,138.10 -3.29,138.14 -2.99,138.26 -2.69,138.38 -2.43,138.57 -2.17,138.76 -1.96,139.01 -1.75,139.26 -1.60,139.55 -1.46,139.84 -1.39,140.15 -1.32,140.47 -1.33,140.79 -1.33,141.12 -1.42,141.43 -1.50,141.74 -1.66,142.03 -1.82,142.31 -2.06,143.96 -2.31,145.62 -2.44,145.87 -2.58,146.13 -2.74,146.42 -2.91,146.71 -3.14,146.95 -3.37,147.19 -3.66,147.37 -3.94,147.54 -4.25,147.65 -4.57,147.75 -4.90,147.78 -5.24,147.81 -5.56,147.75 -5.89,147.70 -6.20,147.57 -6.51,147.44 -6.77,147.23 -7.04,147.03 -7.25,146.78 -7.46,146.52 -7.60,146.22 -7.74,145.91 -7.81,145.59 -7.87,145.26 -7.86,144.93 -7.85,144.60 -7.75,144.28 -7.66,143.96 -7.54,142.18 -7.42,140.41 -6.34,139.24 -5.26,138.07 -6.03,138.57 -6.79,139.07 -6.63,138.80 -6.48,138.52 -6.26,138.29 -6.04,138.06 -5.77,137.89 -5.51,137.72 -5.21,137.62 -4.91,137.52 -4.59,137.50 -4.28,137.47 -3.96,137.52 -3.65,137.57 -3.36,137.69 -3.07,137.81 -2.82,138.00 -2.56,138.19 -2.36,138.44 -2.16,138.68 -2.02,138.97 -1.89,139.25 -1.82,139.56 -1.76,139.87 -1.77,140.19 -1.78,140.50 -1.87,140.81 -1.96,141.11 -2.92,142.50 -3.89,143.89 -5.24,144.47 -6.59,145.06 -8.12,144.89 -9.65,144.73 -10.72,144.16 -11.79,143.59 -13.38,142.68 -14.96,141.78 -15.03,140.00 -15.09,138.22 -15.43,138.19 -15.76,138.16 -16.08,138.04 -16.39,137.93 -16.67,137.75 -16.95,137.56 -17.18,137.31 -17.41,137.07 -17.57,136.77 -17.73,136.48 -17.82,136.16 -17.91,135.83 -17.92,135.50 -17.92,135.16 -17.85,134.83 -17.78,134.51 -17.63,134.21 -17.48,133.90 -17.26,133.65 -17.04,133.39 -16.77,133.20 -16.50,133.00 -16.19,132.87 -15.87,132.75 -15.54,132.70 -15.21,132.65 -17.54,139.91 -19.87,147.16 -26.55,146.94 -33.23,146.72 -34.03,143.31 -34.84,139.90 -34.83,137.19 -34.83,134.47 -33.55,134.63 -32.28,134.78 -33.81,136.04 -35.34,137.30 -37.52,139.84 -39.71,142.37 -42.27,145.36 -44.83,148.34 -47.06,150.70 -49.29,153.07 -50.60,153.94 -51.91,154.82 -52.17,155.04 -52.44,155.26 -52.75,155.41 -53.06,155.56 -53.40,155.63 -53.74,155.71 -54.09,155.69 -54.44,155.68 -54.77,155.59 -55.10,155.50 -55.40,155.32 -55.71,155.15 -55.96,154.91 -56.21,154.68 -56.40,154.38 -56.58,154.09 -56.70,153.76 -56.81,153.44 -56.84,153.09 -56.87,152.75 -56.82,152.40 -56.76,152.06 -56.63,151.74 -56.49,151.42 -56.29,151.14 -56.08,150.86 -56.48,148.80 -56.88,146.74 -55.83,143.75 -54.78,140.77 -53.60,137.66 -52.42,134.54 -51.51,132.29 -50.60,130.03 -50.32,129.26 -50.04,128.49 -49.87,128.19 -49.71,127.89 -49.47,127.64 -49.24,127.39 -48.95,127.20 -48.67,127.01 -48.34,126.89 -48.02,126.78 -47.68,126.74 -47.33,126.71 -46.99,126.76 -46.65,126.81 -46.33,126.93 -46.01,127.06 -45.74,127.26 -45.46,127.47 -45.23,127.73 -45.01,127.99 -44.86,128.30 -44.70,128.61 -44.63,128.94 -44.55,129.28 -44.56,129.62 -44.57,129.97 -44.66,130.30 -44.75,130.63 -45.74,131.94 -46.73,133.24 -48.41,135.64 -50.09,138.03 -52.61,141.67 -55.14,145.32 -58.06,149.29 -60.97,153.26 -63.78,156.13 -66.58,159.01 -67.92,159.48 -69.26,159.95 -69.53,160.17 -69.80,160.39 -70.12,160.54 -70.44,160.69 -70.78,160.75 -71.12,160.82 -71.47,160.80 -71.82,160.78 -72.16,160.68 -72.49,160.58 -72.80,160.41 -73.10,160.23 -73.35,159.98 -73.60,159.74 -73.78,159.44 -73.97,159.14 -74.07,158.81 -74.18,158.48 -74.21,158.13 -74.23,157.78 -74.17,157.43 -74.11,157.09 -73.97,156.77 -73.83,156.45 -73.62,156.17 -73.41,155.89 -73.04,151.23 -72.67,146.57 -70.96,141.82 -69.24,137.07 -67.41,132.33 -65.57,127.58 -64.38,124.20 -63.18,120.82 -62.95,119.44 -62.73,118.05 -62.58,117.74 -62.42,117.43 -62.19,117.16 -61.97,116.90 -61.68,116.69 -61.40,116.49 -61.08,116.36 -60.75,116.23 -60.41,116.18 -60.06,116.13 -59.71,116.16 -59.36,116.20 -59.03,116.31 -58.71,116.43 -58.41,116.62 -58.12,116.82 -57.88,117.07 -57.65,117.33 -57.48,117.64 -57.31,117.94 -57.22,118.28 -57.13,118.62 -57.12,118.97 -57.11,119.32 -57.19,119.66 -57.27,120.00 -58.68,121.57 -60.09,123.13 -62.83,126.66 -65.57,130.19 -68.90,134.72 -72.22,139.25 -76.09,144.14 -79.96,149.04 -83.28,152.19 -86.61,155.35 -87.78,155.41 -88.95,155.48 -89.23,155.69 -89.51,155.90 -89.83,156.04 -90.15,156.17 -90.50,156.23 -90.84,156.29 -91.19,156.26 -91.54,156.23 -91.87,156.12 -92.20,156.01 -92.50,155.83 -92.80,155.64 -93.04,155.39 -93.28,155.14 -93.46,154.84 -93.63,154.53 -93.73,154.20 -93.83,153.86 -93.84,153.51 -93.86,153.17 -93.79,152.82 -93.72,152.48 -93.57,152.16 -93.42,151.85 -93.20,151.58 -92.98,151.31 -93.09,149.80 -93.21,148.30 -91.54,143.88 -89.87,139.46 -87.36,134.33 -84.85,129.20 -82.51,124.49 -80.16,119.78 -78.81,117.17 -77.46,114.56 -77.43,114.01 -77.39,113.46 -77.19,113.18 -77.00,112.89 -76.74,112.65 -76.48,112.42 -76.17,112.25 -75.86,112.09 -75.52,112.00 -75.18,111.91 -74.83,111.91 -74.49,111.91 -74.15,111.99 -73.80,112.07 -73.49,112.23 -73.18,112.39 -72.92,112.62 -72.66,112.85 -72.45,113.13 -72.25,113.42 -72.13,113.75 -72.00,114.07 -71.96,114.42 -71.91,114.77 -71.95,115.11 -71.99,115.46 -72.11,115.79 -72.23,116.12 -73.76,118.23 -75.29,120.34 -78.23,124.30 -81.17,128.25 -85.08,133.27 -88.99,138.29 -92.64,142.44 -96.28,146.59 -100.00,148.35 -103.71,150.12 -105.48,148.92 -107.24,147.71 -107.87,144.77 -108.51,141.83 -108.15,139.02 -107.79,136.22 -106.09,132.96 -104.39,129.70 -104.25,129.53 -104.11,129.37 -103.93,129.26 -103.75,129.15 -103.54,129.10 -103.34,129.06 -103.12,129.08 -102.91,129.10 -102.72,129.19 -102.53,129.28 -102.37,129.42 -102.22,129.57 -102.12,129.75 -102.01,129.94 -101.98,130.15 -101.94,130.36 -101.98,130.57 -102.01,130.78 -102.11,130.97 -102.21,131.16 -102.36,131.30 -102.51,131.45 -102.71,131.54 -102.90,131.63 -103.11,131.65 -103.32,131.68 -103.53,131.63 -103.74,131.59 -103.92,131.48 -104.10,131.37 -104.24,131.21 -104.38,131.05 -104.46,130.85 -104.54,130.66 -104.55,130.44 -104.56,130.23 -104.51,130.03 -104.45,129.82 -104.33,129.64 -104.22,129.47 -104.05,129.34 -103.88,129.21 -103.68,129.14 -103.48,129.07 -103.26,129.07 -103.05,129.07 -102.85,129.14 -102.65,129.20 -102.48,129.33 -102.31,129.46 -102.19,129.63 -102.07,129.81 -102.01,130.01 -101.95,130.22 -101.96,130.43 -101.97,130.64 -102.05,130.84 -102.13,131.04 -102.13,131.04 -102.13,131.04 -102.22,134.01 -102.31,136.99 -102.64,139.10 -102.98,141.22 -102.58,143.37 -102.18,145.52 -101.39,144.13 -100.60,142.73 -97.07,138.74 -93.55,134.74 -89.68,129.77 -85.82,124.80 -82.89,120.85 -79.96,116.90 -78.67,115.18 -77.39,113.46 -77.19,113.18 -77.00,112.89 -76.74,112.65 -76.48,112.42 -76.17,112.25 -75.86,112.09 -75.52,112.00 -75.18,111.91 -74.84,111.91 -74.49,111.91 -74.15,111.99 -73.81,112.07 -73.49,112.23 -73.18,112.39 -72.92,112.62 -72.66,112.85 -72.45,113.13 -72.25,113.42 -72.13,113.75 -72.00,114.07 -71.96,114.42 -71.91,114.77 -71.95,115.11 -71.99,115.46 -72.11,115.79 -72.23,116.12 -72.24,116.56 -72.25,117.00 -73.62,119.68 -75.00,122.36 -77.34,127.05 -79.68,131.73 -82.08,136.63 -84.49,141.54 -85.99,145.31 -87.49,149.09 -88.22,152.28 -88.95,155.48 -89.23,155.69 -89.51,155.90 -89.83,156.03 -90.15,156.17 -90.50,156.23 -90.84,156.29 -91.19,156.26 -91.54,156.23 -91.87,156.12 -92.20,156.01 -92.50,155.83 -92.80,155.64 -93.04,155.39 -93.28,155.14 -93.46,154.84 -93.63,154.53 -93.73,154.20 -93.83,153.86 -93.84,153.51 -93.86,153.17 -93.79,152.82 -93.72,152.48 -93.57,152.16 -93.42,151.85 -93.20,151.58 -92.98,151.31 -91.47,151.06 -89.95,150.82 -87.22,148.13 -84.49,145.44 -80.69,140.64 -76.89,135.83 -73.52,131.22 -70.15,126.61 -66.44,122.33 -62.73,118.05 -62.58,117.74 -62.42,117.43 -62.19,117.16 -61.97,116.90 -61.68,116.69 -61.40,116.49 -61.08,116.36 -60.75,116.23 -60.41,116.18 -60.06,116.13 -59.71,116.16 -59.36,116.20 -59.03,116.31 -58.71,116.43 -58.41,116.62 -58.12,116.82 -57.88,117.07 -57.65,117.33 -57.48,117.64 -57.31,117.94 -57.22,118.28 -57.13,118.62 -57.12,118.97 -57.11,119.32 -57.19,119.66 -57.27,120.00 -57.50,121.37 -57.74,122.74 -58.98,126.20 -60.21,129.66 -62.03,134.34 -63.85,139.03 -65.50,143.58 -67.16,148.13 -68.11,151.08 -69.07,154.04 -69.16,156.99 -69.26,159.95 -69.53,160.17 -69.80,160.39 -70.12,160.54 -70.44,160.68 -70.78,160.75 -71.12,160.82 -71.47,160.80 -71.82,160.78 -72.16,160.68 -72.49,160.58 -72.80,160.41 -73.10,160.23 -73.35,159.98 -73.60,159.74 -73.78,159.44 -73.97,159.14 -74.07,158.81 -74.18,158.48 -74.21,158.13 -74.23,157.78 -74.17,157.43 -74.11,157.09 -73.97,156.77 -73.83,156.45 -73.62,156.17 -73.41,155.89 -71.97,155.34 -70.54,154.80 -68.09,152.30 -65.64,149.81 -62.77,145.92 -59.90,142.03 -57.37,138.35 -54.83,134.67 -52.44,131.58 -50.04,128.50 -49.87,128.19 -49.71,127.89 -49.47,127.64 -49.24,127.39 -48.95,127.20 -48.67,127.01 -48.34,126.89 -48.02,126.78 -47.68,126.74 -47.33,126.71 -46.99,126.76 -46.65,126.81 -46.33,126.93 -46.01,127.06 -45.74,127.26 -45.46,127.47 -45.23,127.73 -45.01,127.99 -44.86,128.30 -44.70,128.61 -44.63,128.94 -44.55,129.28 -44.56,129.62 -44.57,129.97 -44.66,130.30 -44.75,130.63 -45.08,131.38 -45.41,132.12 -46.30,134.32 -47.19,136.53 -48.35,139.59 -49.51,142.65 -50.45,145.26 -51.40,147.87 -51.92,149.12 -52.45,150.37 -52.18,152.59 -51.91,154.82 -52.17,155.04 -52.44,155.26 -52.75,155.41 -53.06,155.56 -53.40,155.63 -53.74,155.71 -54.09,155.69 -54.44,155.68 -54.77,155.59 -55.10,155.50 -55.40,155.32 -55.71,155.15 -55.96,154.91 -56.21,154.68 -56.40,154.38 -56.58,154.09 -56.70,153.76 -56.81,153.44 -56.84,153.09 -56.87,152.75 -56.82,152.40 -56.76,152.06 -56.63,151.74 -56.49,151.42 -56.29,151.14 -56.08,150.86 -54.77,149.97 -53.45,149.08 -51.32,146.84 -49.19,144.60 -46.62,141.61 -44.05,138.62 -41.64,135.83 -39.23,133.05 -36.92,131.29 -34.62,129.52 -33.52,129.46 -32.43,129.40 -30.87,131.97 -29.31,134.54 -29.37,136.70 -29.43,138.86 -28.94,142.04 -28.44,145.22 -25.77,144.12 -23.10,143.01 -19.10,140.62 -15.09,138.22 -15.43,138.19 -15.76,138.16 -16.08,138.04 -16.39,137.93 -16.67,137.75 -16.95,137.56 -17.18,137.32 -17.41,137.07 -17.57,136.77 -17.73,136.48 -17.82,136.16 -17.91,135.83 -17.92,135.50 -17.92,135.16 -17.85,134.83 -17.78,134.51 -17.63,134.21 -17.48,133.90 -17.26,133.65 -17.04,133.39 -16.77,133.20 -16.50,133.00 -16.19,132.87 -15.88,132.75 -15.54,132.70 -15.21,132.65 -13.35,135.14 -11.49,137.62 -10.26,138.25 -9.04,138.88 -7.91,138.98 -6.79,139.07 -6.63,138.80 -6.48,138.52 -6.26,138.29 -6.04,138.06 -5.77,137.89 -5.51,137.72 -5.21,137.62 -4.91,137.52 -4.59,137.50 -4.28,137.47 -3.96,137.52 -3.65,137.57 -3.36,137.69 -3.07,137.81 -2.82,138.00 -2.56,138.19 -2.36,138.44 -2.16,138.68 -2.02,138.97 -1.89,139.25 -1.82,139.56 -1.76,139.87 -1.77,140.19 -1.78,140.50 -1.87,140.81 -1.96,141.11 -2.17,141.32 -2.39,141.53 -2.55,142.58 -2.72,143.64 -2.65,144.89 -2.58,146.13 -2.74,146.42 -2.91,146.71 -3.14,146.95 -3.37,147.19 -3.66,147.37 -3.94,147.54 -4.25,147.65 -4.57,147.75 -4.90,147.78 -5.24,147.81 -5.56,147.75 -5.89,147.70 -6.20,147.57 -6.51,147.44 -6.77,147.23 -7.04,147.03 -7.25,146.78 -7.46,146.52 -7.60,146.22 -7.74,145.91 -7.81,145.59 -7.87,145.26 -7.86,144.93 -7.85,144.60 -7.75,144.28 -7.66,143.96 -7.11,142.90 -6.57,141.84 -6.37,140.50 -6.17,139.16 -5.95,138.92 -5.73,138.68 -5.46,138.51 -5.19,138.33 -4.88,138.22 -4.58,138.11 -4.25,138.08 -3.93,138.05 -3.61,138.10 -3.29,138.14 -2.99,138.26 -2.69,138.38 -2.43,138.57 -2.17,138.76 -1.96,139.01 -1.75,139.26 -1.60,139.55 -1.46,139.84 -1.39,140.15 -1.32,140.47 -1.33,140.79 -1.33,141.12 -1.42,141.43 -1.50,141.74 -1.66,142.03 -1.82,142.31 -1.96,142.43 -2.11,142.55 -3.53,143.47 -4.96,144.39 -6.52,143.95 -8.09,143.51 -9.16,143.34 -10.23,143.18 -11.37,143.57 -12.51,143.95 -14.06,144.49 -15.62,145.03 -17.31,144.98 -19.01,144.93 -20.31,144.21 -21.61,143.49 -22.38,142.71 -23.15,141.93 -24.17,141.05 -25.19,140.17 -26.22,139.54 -27.25,138.91 -28.31,138.65 -29.36,138.40 -30.77,138.72 -32.18,139.05 -33.95,139.89 -35.72,140.73 -37.74,141.76 -39.75,142.79 -41.38,143.48 -43.00,144.17 -44.65,144.92 -46.30,145.66 -48.66,146.71 -51.02,147.77 -51.12,148.09 -51.23,148.42 -51.41,148.71 -51.58,148.99 -51.83,149.23 -52.07,149.47 -52.36,149.64 -52.65,149.81 -52.98,149.91 -53.30,150.01 -53.64,150.03 -53.98,150.04 -54.31,149.98 -54.64,149.91 -54.95,149.77 -55.26,149.63 -55.52,149.42 -55.79,149.21 -56.00,148.94 -56.20,148.67 -56.34,148.36 -56.47,148.05 -56.53,147.71 -56.59,147.38 -56.57,147.04 -56.54,146.70 -56.26,145.49 -55.98,144.27 -57.11,143.21 -58.24,142.15 -60.58,142.16 -62.93,142.18 -65.89,142.30 -68.86,142.43 -72.20,142.25 -75.54,142.07 -78.38,140.70 -81.23,139.33 -83.41,136.87 -85.60,134.41 -87.31,131.04 -89.02,127.66 -90.52,123.71 -92.01,119.77 -93.38,115.68 -94.76,111.60 -96.12,107.91 -97.48,104.23 -98.91,101.58 -100.34,98.94 -102.23,97.86 -104.12,96.79 -106.79,97.48 -109.45,98.17 -112.65,100.44 -115.85,102.72 -118.64,105.58 -121.44,108.44 -123.41,110.87 -125.38,113.30 -126.18,114.38 -126.98,115.45 -127.21,115.71 -127.45,115.96 -127.73,116.16 -128.02,116.35 -128.35,116.47 -128.67,116.59 -129.01,116.63 -129.36,116.67 -129.70,116.62 -130.04,116.57 -130.37,116.45 -130.69,116.32 -130.97,116.12 -131.25,115.92 -131.48,115.66 -131.71,115.40 -131.86,115.09 -132.02,114.78 -132.10,114.45 -132.18,114.11 -132.18,113.76 -132.17,113.42 -132.09,113.08 -132.00,112.75 -131.83,112.44 -131.67,112.14 -131.20,111.54 -130.72,110.95 -129.11,108.67 -127.50,106.38 -125.13,102.77 -122.76,99.16 -120.62,95.86 -118.48,92.55 -117.18,90.46 -115.88,88.36 -115.64,88.11 -115.39,87.86 -115.10,87.67 -114.80,87.48 -114.47,87.37 -114.14,87.26 -113.79,87.24 -113.44,87.21 -113.10,87.27 -112.76,87.32 -112.43,87.46 -112.11,87.60 -111.84,87.81 -111.56,88.02 -111.34,88.29 -111.12,88.56 -110.97,88.87 -110.82,89.19 -110.75,89.53 -110.68,89.87 -110.69,90.22 -110.71,90.57 -110.81,90.91 -110.90,91.24 -111.08,91.54 -111.25,91.84 -112.29,92.12 -113.33,92.40 -113.88,93.97 -114.44,95.54 -116.73,99.16 -119.03,102.79 -121.19,106.90 -123.36,111.01 -124.77,114.31 -126.18,117.60 -126.95,120.14 -127.72,122.68 -127.97,122.93 -128.21,123.17 -128.51,123.34 -128.81,123.52 -129.14,123.62 -129.47,123.72 -129.81,123.74 -130.16,123.76 -130.50,123.69 -130.84,123.63 -131.15,123.48 -131.46,123.34 -131.73,123.12 -132.00,122.91 -132.21,122.63 -132.42,122.36 -132.56,122.04 -132.70,121.73 -132.76,121.39 -132.82,121.05 -132.80,120.70 -132.77,120.36 -132.67,120.03 -132.56,119.70 -132.38,119.41 -132.20,119.11 -131.20,118.88 -130.20,118.66 -128.97,116.91 -127.74,115.17 -125.58,111.83 -123.43,108.49 -121.25,105.14 -119.06,101.78 -116.99,99.13 -114.91,96.48 -114.76,96.18 -114.61,95.88 -114.39,95.62 -114.17,95.37 -113.90,95.17 -113.63,94.97 -113.31,94.85 -113.00,94.72 -112.67,94.67 -112.34,94.63 -112.00,94.66 -111.67,94.69 -111.35,94.81 -111.03,94.92 -110.75,95.10 -110.47,95.29 -110.25,95.54 -110.02,95.78 -109.85,96.08 -109.69,96.37 -109.61,96.70 -109.52,97.02 -109.51,97.36 -109.50,97.69 -109.58,98.02 -109.65,98.35 -110.05,99.56 -110.44,100.76 -111.43,103.51 -112.42,106.25 -113.48,109.75 -114.54,113.25 -115.01,116.24 -115.49,119.23 -115.04,121.16 -114.60,123.10 -112.30,121.31 -110.00,119.52 -105.90,115.26 -101.79,111.00 -97.58,105.72 -93.37,100.43 -89.95,95.90 -86.54,91.36 -83.91,88.03 -81.28,84.71 -81.08,84.46 -80.87,84.21 -80.62,84.02 -80.36,83.83 -80.07,83.71 -79.77,83.58 -79.45,83.53 -79.14,83.48 -78.82,83.51 -78.50,83.54 -78.20,83.64 -77.89,83.75 -77.62,83.92 -77.36,84.09 -77.13,84.32 -76.91,84.55 -76.76,84.83 -76.60,85.11 -76.51,85.42 -76.42,85.73 -76.41,86.04 -76.40,86.36 -76.47,86.68 -76.53,86.99 -76.67,87.28 -76.81,87.57 -77.73,88.94 -78.65,90.31 -80.50,93.20 -82.35,96.09 -84.35,99.84 -86.35,103.60 -88.00,106.77 -89.65,109.94 -90.59,111.86 -91.53,113.77 -91.73,114.03 -91.92,114.28 -92.18,114.48 -92.43,114.68 -92.72,114.82 -93.01,114.95 -93.33,115.01 -93.65,115.07 -93.97,115.05 -94.29,115.04 -94.60,114.94 -94.91,114.85 -95.18,114.68 -95.46,114.52 -95.69,114.29 -95.92,114.06 -96.09,113.79 -96.26,113.52 -96.35,113.21 -96.45,112.90 -96.47,112.58 -96.49,112.26 -96.44,111.94 -96.38,111.62 -96.25,111.33 -96.12,111.03 -95.37,110.69 -94.63,110.34 -94.33,109.13 -94.03,107.92 -92.66,105.10 -91.29,102.28 -89.95,99.40 -88.62,96.53 -87.78,94.76 -86.95,92.98 -86.87,91.21 -86.79,89.44 -86.60,89.22 -86.41,89.00 -86.17,88.83 -85.93,88.67 -85.66,88.56 -85.39,88.46 -85.10,88.42 -84.81,88.38 -84.52,88.41 -84.23,88.45 -83.96,88.55 -83.68,88.65 -83.44,88.81 -83.20,88.98 -83.01,89.19 -82.81,89.41 -82.67,89.67 -82.54,89.92 -82.46,90.21 -82.39,90.49 -82.39,90.78 -82.39,91.07 -82.46,91.36 -82.52,91.64 -82.66,91.90 -82.79,92.16 -83.58,92.76 -84.36,93.36 -85.54,95.10 -86.73,96.85 -88.01,99.54 -89.29,102.23 -90.40,105.34 -91.52,108.45 -91.65,108.72 -91.77,109.00 -91.96,109.24 -92.15,109.48 -92.39,109.67 -92.63,109.85 -92.91,109.98 -93.19,110.10 -93.49,110.15 -93.79,110.21 -94.10,110.19 -94.40,110.17 -94.69,110.07 -94.98,109.98 -95.24,109.82 -95.50,109.66 -95.72,109.45 -95.93,109.23 -96.09,108.97 -96.24,108.70 -96.33,108.41 -96.42,108.12 -96.44,107.82 -96.45,107.51 -96.40,107.21 -96.34,106.91 -95.94,105.62 -95.55,104.33 -94.55,101.20 -93.56,98.08 -92.68,94.59 -91.80,91.09 -91.54,88.74 -91.28,86.38 -92.73,85.18 -94.18,83.99 -100.06,83.51 -105.94,83.02 -109.50,82.75 -113.06,82.47 -116.22,80.89 -119.37,79.30 -120.99,76.12 -122.61,72.94 -123.07,67.87 -123.53,62.81 -123.75,54.22 -123.98,45.64 -123.73,45.43 -123.49,45.21 -123.19,45.06 -122.90,44.91 -122.58,44.84 -122.26,44.77 -121.93,44.77 -121.60,44.77 -121.28,44.86 -120.97,44.94 -120.68,45.10 -120.39,45.25 -120.15,45.48 -119.90,45.70 -119.72,45.97 -119.54,46.24 -119.43,46.55 -119.31,46.86 -119.28,47.19 -119.24,47.51 -119.29,47.84 -119.33,48.17 -119.45,48.47 -119.57,48.78 -119.76,49.04 -119.95,49.31 -123.54,51.98 -127.13,54.65 -134.11,62.26 -141.08,69.87 -143.19,73.42 -145.29,76.98 -146.16,78.74 -147.02,80.50 -147.24,80.75 -147.46,81.00 -147.73,81.19 -148.00,81.38 -148.31,81.50 -148.62,81.62 -148.95,81.66 -149.28,81.70 -149.61,81.66 -149.94,81.63 -150.25,81.51 -150.56,81.39 -150.83,81.21 -151.11,81.02 -151.33,80.77 -151.55,80.53 -151.70,80.23 -151.86,79.94 -151.94,79.62 -152.02,79.30 -152.02,78.97 -152.02,78.63 -151.94,78.31 -151.87,77.99 -151.71,77.70 -151.56,77.40 -150.71,76.36 -149.85,75.31 -147.63,72.08 -145.40,68.84 -142.65,64.58 -139.90,60.32 -137.58,56.68 -135.26,53.04 -134.11,51.39 -132.95,49.74 -132.81,49.45 -132.67,49.17 -132.46,48.92 -132.25,48.68 -131.99,48.49 -131.73,48.31 -131.43,48.19 -131.14,48.07 -130.82,48.03 -130.50,47.98 -130.19,48.01 -129.87,48.05 -129.57,48.15 -129.26,48.26 -129.00,48.44 -128.73,48.62 -128.52,48.85 -128.30,49.09 -128.14,49.37 -127.99,49.65 -127.91,49.96 -127.83,50.27 -127.82,50.59 -127.82,50.91 -127.89,51.22 -127.96,51.53 -128.00,50.81 -128.05,50.08 -128.61,53.09 -129.17,56.11 -130.58,59.96 -131.99,63.82 -133.25,67.91 -134.51,72.01 -135.16,74.63 -135.80,77.25 -135.16,79.99 -134.52,82.72 -134.76,82.92 -135.01,83.13 -135.30,83.27 -135.59,83.41 -135.90,83.48 -136.21,83.55 -136.53,83.54 -136.85,83.53 -137.16,83.44 -137.47,83.36 -137.75,83.20 -138.03,83.04 -138.27,82.82 -138.50,82.60 -138.67,82.33 -138.85,82.06 -138.95,81.76 -139.06,81.46 -139.09,81.14 -139.12,80.82 -139.07,80.50 -139.02,80.18 -138.90,79.89 -138.77,79.59 -138.58,79.33 -138.39,79.07 -136.23,77.67 -134.07,76.27 -130.06,72.04 -126.04,67.80 -121.16,61.73 -116.27,55.65 -111.83,50.01 -107.39,44.37 -104.22,40.42 -101.05,36.48 -99.71,35.33 -98.37,34.18 -98.22,33.91 -98.06,33.64 -97.85,33.41 -97.63,33.18 -97.37,33.02 -97.11,32.85 -96.81,32.75 -96.52,32.65 -96.20,32.62 -95.89,32.60 -95.58,32.65 -95.28,32.70 -94.99,32.82 -94.70,32.94 -94.45,33.13 -94.20,33.31 -94.00,33.55 -93.81,33.79 -93.67,34.08 -93.54,34.36 -93.47,34.66 -93.41,34.97 -93.42,35.28 -93.43,35.59 -93.52,35.89 -93.60,36.19 -93.64,37.12 -93.67,38.05 -95.16,41.56 -96.65,45.06 -99.02,50.27 -101.40,55.48 -103.78,60.93 -106.16,66.38 -107.93,70.44 -109.70,74.49 -110.63,76.60 -111.57,78.71 -111.78,78.94 -111.98,79.18 -112.24,79.36 -112.50,79.54 -112.79,79.65 -113.08,79.76 -113.39,79.80 -113.70,79.84 -114.01,79.81 -114.32,79.77 -114.62,79.66 -114.91,79.56 -115.17,79.38 -115.43,79.20 -115.64,78.97 -115.85,78.74 -116.00,78.46 -116.14,78.19 -116.22,77.88 -116.30,77.58 -116.30,77.26 -116.30,76.95 -116.23,76.65 -116.16,76.34 -116.01,76.06 -115.87,75.79 -115.06,74.97 -114.25,74.15 -111.76,70.49 -109.28,66.83 -105.58,61.03 -101.88,55.23 -98.18,49.26 -94.48,43.29 -91.72,38.76 -88.96,34.23 -87.47,31.46 -85.97,28.69 -85.75,28.47 -85.53,28.26 -85.26,28.10 -84.99,27.95 -84.69,27.86 -84.39,27.78 -84.08,27.76 -83.77,27.75 -83.47,27.81 -83.16,27.88 -82.88,28.01 -82.60,28.14 -82.36,28.34 -82.12,28.54 -81.94,28.78 -81.75,29.03 -81.63,29.32 -81.51,29.60 -81.46,29.91 -81.41,30.22 -81.44,30.53 -81.46,30.84 -81.56,31.13 -81.66,31.42 -81.82,31.69 -81.99,31.95 -83.05,32.08 -84.11,32.22 -85.28,34.27 -86.46,36.33 -89.93,40.93 -93.40,45.53 -97.47,51.30 -101.55,57.06 -105.15,62.60 -108.75,68.13 -111.31,72.14 -113.87,76.16 -114.86,77.75 -115.84,79.34 -116.04,79.58 -116.24,79.81 -116.49,79.99 -116.74,80.17 -117.03,80.28 -117.31,80.39 -117.61,80.44 -117.92,80.48 -118.22,80.45 -118.53,80.41 -118.82,80.31 -119.11,80.21 -119.36,80.04 -119.62,79.87 -119.82,79.64 -120.03,79.41 -120.18,79.15 -120.33,78.88 -120.40,78.58 -120.48,78.28 -120.49,77.98 -120.49,77.67 -120.42,77.37 -120.36,77.07 -120.22,76.80 -120.08,76.52 -118.81,74.78 -117.55,73.03 -114.17,67.95 -110.80,62.88 -106.19,55.90 -101.58,48.93 -97.12,41.99 -92.67,35.06 -89.20,29.57 -85.73,24.07 -84.07,21.33 -82.42,18.58 -82.46,16.43 -82.51,14.29 -82.24,14.13 -81.98,13.97 -81.68,13.89 -81.39,13.80 -81.08,13.78 -80.77,13.76 -80.47,13.82 -80.17,13.88 -79.89,14.01 -79.61,14.14 -79.37,14.33 -79.12,14.52 -78.94,14.76 -78.75,15.01 -78.62,15.29 -78.50,15.57 -78.45,15.88 -78.39,16.18 -78.41,16.49 -78.43,16.80 -78.53,17.09 -78.62,17.38 -78.78,17.65 -78.95,17.91 -79.16,18.12 -79.38,18.34 -81.71,19.75 -84.03,21.15 -88.17,24.33 -92.31,27.51 -97.33,32.08 -102.35,36.65 -107.31,41.36 -112.26,46.06 -116.54,49.70 -120.81,53.35 -124.19,55.03 -127.57,56.71 -129.77,55.44 -131.97,54.17 -131.67,49.60 -131.38,45.04 -129.16,38.76 -126.95,32.49 -124.31,25.45 -121.66,18.42 -119.72,12.61 -117.78,6.80 -117.42,3.06 -117.05,-0.67 -117.47,0.88 -117.89,2.44 -121.21,5.55 -124.53,8.66 -128.07,12.87 -131.61,17.09 -134.39,20.98 -137.18,24.86 -138.65,27.11 -140.13,29.37 -140.62,30.47 -141.10,31.58 -141.34,31.79 -141.58,32.00 -141.87,32.14 -142.15,32.28 -142.46,32.36 -142.77,32.43 -143.08,32.42 -143.40,32.42 -143.71,32.34 -144.01,32.26 -144.29,32.11 -144.57,31.96 -144.80,31.74 -145.04,31.53 -145.21,31.27 -145.39,31.00 -145.50,30.71 -145.61,30.41 -145.64,30.09 -145.68,29.78 -145.63,29.46 -145.59,29.15 -145.47,28.85 -145.36,28.56 -145.17,28.30 -144.99,28.04 -143.48,26.49 -141.97,24.94 -138.76,21.43 -135.55,17.93 -131.26,13.05 -126.97,8.17 -123.01,3.59 -119.06,-0.99 -116.37,-4.10 -113.68,-7.21 -112.60,-8.47 -111.52,-9.72 -111.32,-9.96 -111.12,-10.20 -110.87,-10.39 -110.63,-10.58 -110.34,-10.71 -110.05,-10.83 -109.74,-10.88 -109.43,-10.93 -109.12,-10.91 -108.81,-10.88 -108.51,-10.78 -108.22,-10.69 -107.95,-10.52 -107.69,-10.35 -107.47,-10.13 -107.25,-9.90 -107.09,-9.63 -106.94,-9.36 -106.85,-9.06 -106.76,-8.76 -106.75,-8.45 -106.73,-8.14 -106.80,-7.83 -106.86,-7.53 -106.99,-7.24 -107.12,-6.96 -107.62,-6.17 -108.12,-5.39 -109.90,-2.56 -111.68,0.25 -114.57,4.81 -117.47,9.37 -119.73,13.73 -121.99,18.10 -123.28,21.08 -124.57,24.07 -125.01,26.27 -125.45,28.47 -125.69,28.67 -125.93,28.87 -126.21,29.00 -126.49,29.14 -126.79,29.20 -127.09,29.27 -127.40,29.26 -127.71,29.25 -128.00,29.16 -128.30,29.08 -128.57,28.93 -128.84,28.77 -129.06,28.56 -129.29,28.35 -129.45,28.09 -129.62,27.83 -129.72,27.54 -129.82,27.25 -129.85,26.94 -129.88,26.63 -129.83,26.33 -129.78,26.02 -129.66,25.74 -129.55,25.45 -129.36,25.20 -129.18,24.95 -127.69,24.00 -126.21,23.05 -122.98,19.65 -119.75,16.24 -115.17,10.94 -110.59,5.64 -106.01,0.23 -101.44,-5.17 -97.80,-9.49 -94.17,-13.81 -91.16,-16.99 -88.15,-20.16 -87.95,-20.40 -87.75,-20.65 -87.50,-20.84 -87.25,-21.03 -86.97,-21.16 -86.68,-21.28 -86.37,-21.33 -86.06,-21.39 -85.75,-21.37 -85.43,-21.34 -85.13,-21.25 -84.83,-21.15 -84.57,-20.98 -84.30,-20.82 -84.08,-20.59 -83.86,-20.37 -83.70,-20.10 -83.54,-19.83 -83.45,-19.53 -83.36,-19.23 -83.35,-18.91 -83.33,-18.60 -83.39,-18.29 -83.45,-17.98 -83.58,-17.70 -83.71,-17.41 -84.52,-15.99 -85.32,-14.56 -87.35,-11.29 -89.38,-8.02 -92.09,-3.54 -94.80,0.93 -97.30,5.07 -99.79,9.22 -101.32,11.99 -102.84,14.75 -103.57,16.43 -104.30,18.12 -104.53,18.32 -104.77,18.52 -105.04,18.66 -105.32,18.79 -105.62,18.86 -105.92,18.93 -106.23,18.93 -106.54,18.92 -106.84,18.84 -107.14,18.76 -107.41,18.62 -107.68,18.47 -107.90,18.26 -108.13,18.05 -108.30,17.79 -108.47,17.54 -108.58,17.25 -108.68,16.96 -108.71,16.65 -108.75,16.34 -108.70,16.04 -108.66,15.73 -108.55,15.44 -108.43,15.16 -108.25,14.91 -108.07,14.66 -106.94,13.84 -105.81,13.02 -103.12,10.10 -100.43,7.19 -96.63,2.62 -92.82,-1.93 -88.97,-6.51 -85.13,-11.09 -82.16,-14.79 -79.20,-18.49 -77.51,-20.23 -75.82,-21.97 -75.63,-22.19 -75.44,-22.42 -75.20,-22.59 -74.96,-22.76 -74.69,-22.88 -74.41,-22.99 -74.12,-23.03 -73.83,-23.07 -73.54,-23.04 -73.24,-23.02 -72.96,-22.92 -72.68,-22.82 -72.44,-22.66 -72.19,-22.49 -71.99,-22.28 -71.79,-22.06 -71.64,-21.80 -71.50,-21.55 -71.42,-21.26 -71.35,-20.98 -71.34,-20.68 -71.33,-20.38 -71.40,-20.10 -71.46,-19.81 -71.59,-19.54 -71.72,-19.28 -73.03,-17.55 -74.35,-15.82 -76.72,-12.20 -79.10,-8.59 -82.10,-4.04 -85.09,0.50 -87.77,4.91 -90.45,9.32 -92.07,12.55 -93.69,15.77 -94.29,17.90 -94.89,20.04 -95.10,20.23 -95.30,20.43 -95.55,20.57 -95.80,20.71 -96.07,20.79 -96.34,20.86 -96.62,20.87 -96.91,20.88 -97.18,20.83 -97.46,20.77 -97.72,20.65 -97.97,20.52 -98.19,20.34 -98.41,20.16 -98.58,19.94 -98.75,19.71 -98.86,19.45 -98.97,19.19 -99.01,18.91 -99.05,18.63 -99.03,18.34 -99.00,18.06 -98.91,17.79 -98.82,17.53 -98.67,17.29 -98.52,17.05 -97.45,16.33 -96.38,15.61 -93.89,12.61 -91.40,9.62 -87.81,4.91 -84.22,0.20 -80.72,-4.55 -77.22,-9.32 -74.60,-12.98 -71.98,-16.65 -70.41,-18.48 -68.84,-20.31 -68.66,-20.53 -68.48,-20.75 -68.25,-20.92 -68.02,-21.09 -67.76,-21.20 -67.50,-21.31 -67.22,-21.35 -66.94,-21.40 -66.66,-21.37 -66.37,-21.35 -66.10,-21.26 -65.84,-21.17 -65.60,-21.01 -65.36,-20.86 -65.16,-20.65 -64.97,-20.45 -64.83,-20.20 -64.68,-19.96 -64.61,-19.68 -64.53,-19.41 -64.52,-19.13 -64.51,-18.84 -64.57,-18.56 -64.63,-18.29 -64.75,-18.03 -64.87,-17.77 -65.89,-16.38 -66.91,-14.98 -68.85,-11.96 -70.79,-8.93 -73.18,-4.84 -75.56,-0.76 -77.60,3.36 -79.64,7.48 -80.74,10.30 -81.84,13.13 -81.98,15.63 -82.12,18.13 -82.35,18.27 -82.57,18.41 -82.83,18.49 -83.08,18.57 -83.34,18.59 -83.61,18.61 -83.87,18.56 -84.13,18.52 -84.38,18.41 -84.62,18.31 -84.83,18.14 -85.04,17.98 -85.21,17.77 -85.38,17.57 -85.49,17.33 -85.60,17.08 -85.65,16.82 -85.70,16.56 -85.69,16.30 -85.68,16.03 -85.60,15.78 -85.52,15.52 -85.39,15.29 -85.25,15.06 -85.07,14.87 -84.88,14.68 -83.42,14.19 -81.96,13.71 -79.26,11.56 -76.55,9.41 -72.81,5.77 -69.08,2.13 -65.23,-1.71 -61.38,-5.55 -58.11,-8.93 -54.85,-12.30 -51.90,-14.63 -48.95,-16.96 -48.80,-17.18 -48.64,-17.41 -48.44,-17.58 -48.23,-17.76 -47.99,-17.88 -47.75,-18.01 -47.49,-18.07 -47.23,-18.13 -46.96,-18.13 -46.69,-18.13 -46.42,-18.06 -46.16,-17.99 -45.92,-17.87 -45.69,-17.74 -45.48,-17.56 -45.28,-17.38 -45.13,-17.15 -44.98,-16.93 -44.89,-16.68 -44.79,-16.42 -44.76,-16.15 -44.73,-15.89 -44.77,-15.62 -44.80,-15.35 -44.90,-15.10 -45.00,-14.85 -45.50,-13.80 -46.00,-12.75 -47.37,-10.19 -48.74,-7.63 -50.67,-4.10 -52.60,-0.56 -54.23,2.69 -55.86,5.96 -56.70,7.75 -57.54,9.54 -57.48,11.16 -57.41,12.77 -57.61,12.96 -57.80,13.14 -58.04,13.27 -58.28,13.40 -58.54,13.47 -58.80,13.54 -59.07,13.55 -59.34,13.56 -59.60,13.50 -59.86,13.44 -60.11,13.32 -60.35,13.20 -60.55,13.03 -60.76,12.86 -60.92,12.64 -61.08,12.42 -61.18,12.17 -61.28,11.92 -61.32,11.65 -61.36,11.38 -61.34,11.12 -61.31,10.85 -61.22,10.59 -61.13,10.34 -60.98,10.11 -60.84,9.89 -59.63,8.76 -58.42,7.64 -56.06,4.85 -53.70,2.06 -50.84,-1.65 -47.98,-5.37 -45.50,-8.75 -43.01,-12.13 -40.70,-15.37 -38.38,-18.61 -38.20,-18.81 -38.03,-19.01 -37.81,-19.17 -37.59,-19.32 -37.33,-19.42 -37.08,-19.51 -36.82,-19.55 -36.55,-19.58 -36.28,-19.55 -36.01,-19.52 -35.76,-19.43 -35.51,-19.33 -35.29,-19.18 -35.07,-19.03 -34.89,-18.83 -34.71,-18.63 -34.58,-18.39 -34.46,-18.15 -34.39,-17.89 -34.32,-17.63 -34.32,-17.36 -34.32,-17.09 -34.38,-16.83 -34.45,-16.57 -34.57,-16.33 -34.70,-16.09 -35.35,-15.37 -36.00,-14.66 -37.33,-12.71 -38.66,-10.76 -40.41,-7.84 -42.15,-4.91 -43.59,-1.93 -45.04,1.05 -45.73,2.76 -46.41,4.46 -46.56,6.59 -46.71,8.72 -46.94,8.86 -47.17,9.00 -47.43,9.07 -47.68,9.15 -47.95,9.17 -48.22,9.18 -48.48,9.13 -48.75,9.08 -48.99,8.97 -49.23,8.86 -49.44,8.69 -49.65,8.52 -49.82,8.31 -49.98,8.10 -50.09,7.85 -50.19,7.61 -50.24,7.34 -50.29,7.08 -50.27,6.81 -50.25,6.55 -50.17,6.29 -50.09,6.03 -49.95,5.81 -49.81,5.58 -49.62,5.39 -49.42,5.20 -48.14,4.64 -46.85,4.08 -44.40,2.22 -41.95,0.36 -38.70,-2.43 -35.45,-5.23 -32.40,-7.94 -29.36,-10.64 -26.86,-12.80 -24.36,-14.96 -23.35,-15.46 -22.35,-15.96 -22.19,-16.17 -22.04,-16.38 -21.84,-16.55 -21.63,-16.73 -21.40,-16.84 -21.16,-16.96 -20.91,-17.02 -20.65,-17.08 -20.38,-17.07 -20.12,-17.06 -19.87,-17.00 -19.61,-16.93 -19.38,-16.80 -19.15,-16.67 -18.96,-16.49 -18.76,-16.31 -18.62,-16.09 -18.47,-15.87 -18.38,-15.63 -18.30,-15.38 -18.27,-15.12 -18.24,-14.85 -18.28,-14.59 -18.32,-14.33 -18.42,-14.09 -18.52,-13.84 -18.42,-14.01 -18.32,-14.19 -18.83,-13.01 -19.34,-11.82 -20.27,-10.17 -21.20,-8.51 -22.43,-6.20 -23.66,-3.89 -24.70,-1.60 -25.73,0.68 -26.36,1.75 -27.00,2.81 -25.34,1.90 -23.69,0.98 -21.74,-0.43 -19.80,-1.85 -17.97,-3.31 -16.14,-4.77 -14.50,-5.92 -12.86,-7.08 -11.78,-7.24 -10.71,-7.39 -9.60,-6.23 -8.50,-5.07 -8.72,-3.98 -8.93,-2.90 -9.44,-1.43 -9.95,0.03 -10.51,1.82 -11.07,3.60 -11.43,5.82 -11.78,8.04 -10.27,6.94 -8.76,5.83 -6.93,4.20 -5.10,2.58 -3.06,0.75 -1.03,-1.07 -0.88,-1.18 -0.74,-1.28 -0.57,-1.35 -0.41,-1.42 -0.23,-1.45 -0.06,-1.48 0.11,-1.47 0.29,-1.45 0.46,-1.40 0.63,-1.34 0.78,-1.24 0.94,-1.15 1.06,-1.02 1.18,-0.89 1.27,-0.73 1.36,-0.58 1.41,-0.41 1.46,-0.23 1.47,-0.05 1.48,0.11 1.44,0.29 1.41,0.47 1.33,0.63 1.25,0.79 1.14,0.93 1.03,1.07 1.03,1.07 L 1.03,1.07 Z"/></g></svg>