<svg version="1.1" xmlns="http://www.w3.org/2000/svg" viewBox="0 0 340.6996154785156 307.42926025390625" width="340.6996154785156" height="307.42926025390625" filter="invert(93%) hue-rotate(180deg)">
  <!-- svg-source:excalidraw -->
  
  <defs>
    <style class="style-fonts">
      @font-face {
        font-family: "Virgil";
        src: url("https://excalidraw.com/Virgil.woff2");
      }
      @font-face {
        font-family: "Cascadia";
        src: url("https://excalidraw.com/Cascadia.woff2");
      }
    </style>
  </defs>
  <g stroke-linecap="round"><g transform="translate(135.7964983928067 262.19218562029437) rotate(0 -48.18391727747457 -48.51311073805293)" fill-rule="evenodd"><path d="M-96.6 0.83 C-96.6 0.83, -96.6 0.83, -96.6 0.83 M-96.6 0.83 C-96.6 0.83, -96.6 0.83, -96.6 0.83 M-75.34 0.76 C-44.78 -34.4, -14.22 -69.55, 6.01 -92.83 M-75.34 0.76 C-51.19 -27.02, -27.04 -54.81, 6.01 -92.83 M-53.43 -0.07 C-40.77 -14.63, -28.11 -29.19, 5.62 -67.99 M-53.43 -0.07 C-34.52 -21.81, -15.61 -43.56, 5.62 -67.99 M-32.16 -0.14 C-16.98 -17.6, -1.8 -35.07, 5.89 -43.91 M-32.16 -0.14 C-18.23 -16.17, -4.29 -32.2, 5.89 -43.91 M-10.9 -0.2 C-5.2 -6.77, 0.51 -13.33, 5.5 -19.07 M-10.9 -0.2 C-6.84 -4.88, -2.78 -9.55, 5.5 -19.07 M-96.09 0.8 C-96.09 0.8, -96.09 0.8, -96.09 0.8 M-96.09 0.8 C-96.09 0.8, -96.09 0.8, -96.09 0.8 M-72.01 0.53 C-76.72 -3.57, -81.43 -7.66, -84.84 -10.62 M-72.01 0.53 C-76.57 -3.44, -81.14 -7.4, -84.84 -10.62 M-47.93 0.26 C-56.07 -6.81, -64.2 -13.88, -73.59 -22.04 M-47.93 0.26 C-55.85 -6.62, -63.77 -13.51, -73.59 -22.04 M-23.85 0 C-35.98 -10.55, -48.11 -21.09, -62.34 -33.46 M-23.85 0 C-32.51 -7.53, -41.17 -15.06, -62.34 -33.46 M0.23 -0.27 C-20.15 -17.99, -40.54 -35.71, -51.09 -44.88 M0.23 -0.27 C-12.26 -11.13, -24.75 -21.98, -51.09 -44.88 M0.16 -21.53 C-11.67 -31.82, -23.51 -42.11, -40.59 -56.96 M0.16 -21.53 C-11.26 -31.46, -22.68 -41.39, -40.59 -56.96 M0.1 -42.79 C-10.95 -52.39, -22 -62, -29.34 -68.38 M0.1 -42.79 C-7.78 -49.64, -15.66 -56.48, -29.34 -68.38 M0.03 -64.05 C-4.47 -67.96, -8.98 -71.87, -18.09 -79.79 M0.03 -64.05 C-7.03 -70.19, -14.09 -76.32, -18.09 -79.79 M-0.04 -85.31 C-1.98 -86.99, -3.91 -88.67, -6.83 -91.21 M-0.04 -85.31 C-2.23 -87.21, -4.41 -89.11, -6.83 -91.21" stroke="#ffc9c9" stroke-width="2" fill="none"/><path d="M0 0 C0 -33.77, 0 -67.55, 0 -97.58 M0 0 C0 -26.37, 0 -52.74, 0 -97.58 M0 -97.58 C-34.58 -62.37, -69.16 -27.15, -96.37 0.56 M0 -97.58 C-32.41 -64.58, -64.82 -31.58, -96.37 0.56 M-96.37 0.56 C-65.96 0.38, -35.55 0.21, 0 0 M-96.37 0.56 C-67.18 0.39, -37.99 0.22, 0 0 M0 0 C0 0, 0 0, 0 0 M0 0 C0 0, 0 0, 0 0" stroke="transparent" stroke-width="4" fill="none"/></g></g><mask/><g stroke-linecap="round"><g transform="translate(142.68147277832034 295.2665469282703) rotate(0 0 -142.63327346413516)"><path d="M0 0 C0 -96.44, 0 -192.87, 0 -285.27 M0 0 C0 -102.19, 0 -204.38, 0 -285.27" stroke="#e03131" stroke-width="4" fill="none"/></g></g><mask/><g stroke-linecap="round"><g transform="translate(38.900238037109375 297.42926025390625) rotate(0 7.105427357601002e-15 -141.86679077148438)"><path d="M0 0 C0 -66.58, 0 -133.16, 0 -283.73 M0 0 C0 -68.99, 0 -137.99, 0 -283.73" stroke="#1e1e1e" stroke-width="4" fill="none"/></g></g><mask/><g stroke-linecap="round"><g transform="translate(10 267.5309753417969) rotate(0 159.8170928955078 0)"><path d="M0 0 C107.89 0, 215.77 0, 319.63 0 M0 0 C123.1 0, 246.2 0, 319.63 0" stroke="#1e1e1e" stroke-width="4" fill="none"/></g></g><mask/><g stroke-linecap="round"><g transform="translate(17.12518310546875 164.18563842773438) rotate(0 156.78721618652344 0)"><path d="M0 0 C122.54 0, 245.09 0, 313.57 0 M0 0 C118.27 0, 236.54 0, 313.57 0" stroke="#e03131" stroke-width="4" fill="none"/></g></g><mask/><g stroke-linecap="round"><g transform="translate(17.7244873046875 287.3743591308594) rotate(0 130.2156867980957 -130.2156867980957)"><path d="M0 0 C85.08 -85.08, 170.16 -170.16, 260.43 -260.43 M0 0 C102.57 -102.57, 205.15 -205.15, 260.43 -260.43" stroke="#e03131" stroke-width="4" fill="none"/></g></g><mask/></svg>