<svg version="1.1" xmlns="http://www.w3.org/2000/svg" viewBox="0 0 473.4810028076172 466.73325255303894" width="473.4810028076172" height="466.73325255303894" filter="invert(93%) hue-rotate(180deg)">
  <!-- svg-source:excalidraw -->
  
  <defs>
    <style class="style-fonts">
      @font-face {
        font-family: "Virgil";
        src: url("https://excalidraw.com/Virgil.woff2");
      }
      @font-face {
        font-family: "Cascadia";
        src: url("https://excalidraw.com/Cascadia.woff2");
      }
    </style>
  </defs>
  <g stroke-linecap="round"><g transform="translate(10 230.8651495256952) rotate(0 226.7405014038086 0)"><path d="M0 0 C131.69 0, 263.39 0, 453.48 0 M0 0 C129.6 0, 259.19 0, 453.48 0" stroke="#1e1e1e" stroke-width="4" fill="none"/></g></g><mask/><g stroke-linecap="round"><g transform="translate(237.0068817138672 10.6569738665155) rotate(0 0 223.03813934326172)"><path d="M0 0 C0 121.03, 0 242.06, 0 446.08 M0 0 C0 115.68, 0 231.36, 0 446.08" stroke="#1e1e1e" stroke-width="1" fill="none"/></g></g><mask/><g transform="translate(73.51280187603106 380.90273850822496) rotate(0 166.87567138671875 -169.36782836914062)" stroke="none"><path fill="#e03131" d="M -3.16,0.16 Q -3.16,0.16 -3.34,-3.20 -3.52,-6.57 -3.40,-9.87 -3.29,-13.16 -2.92,-16.84 -2.56,-20.52 -2.04,-24.92 -1.53,-29.33 -0.89,-34.67 -0.25,-40.02 0.56,-46.26 1.38,-52.49 2.47,-59.58 3.56,-66.66 5.10,-74.38 6.63,-82.10 8.54,-90.39 10.46,-98.69 12.88,-107.14 15.29,-115.59 17.81,-124.26 20.32,-132.92 23.38,-143.14 26.44,-153.36 29.69,-163.48 32.93,-173.60 36.50,-183.60 40.06,-193.60 43.97,-203.25 47.88,-212.89 52.06,-222.17 56.24,-231.45 60.42,-240.05 64.60,-248.65 69.00,-256.66 73.39,-264.66 77.93,-272.17 82.48,-279.69 87.22,-286.70 91.96,-293.72 96.82,-299.92 101.67,-306.12 106.39,-311.27 111.11,-316.41 115.85,-320.58 120.59,-324.75 125.36,-328.01 130.13,-331.26 135.06,-333.63 139.99,-336.00 144.92,-337.54 149.85,-339.08 154.83,-340.08 159.80,-341.08 164.99,-341.63 170.17,-342.17 175.60,-342.05 181.04,-341.93 186.59,-340.90 192.15,-339.86 197.59,-337.99 203.04,-336.13 208.49,-333.18 213.94,-330.24 219.29,-326.22 224.64,-322.21 229.82,-317.03 235.00,-311.84 239.75,-305.49 244.49,-299.13 248.86,-291.67 253.22,-284.21 257.24,-276.04 261.25,-267.87 265.07,-258.97 268.88,-250.06 272.78,-240.54 276.67,-231.02 282.92,-214.19 289.17,-197.36 294.03,-182.82 298.89,-168.28 305.25,-145.87 311.61,-123.45 316.45,-106.27 321.30,-89.09 325.71,-72.56 330.11,-56.03 332.07,-49.02 334.02,-42.02 334.07,-41.59 334.12,-41.17 334.03,-40.76 333.95,-40.34 333.73,-39.97 333.52,-39.61 333.19,-39.33 332.87,-39.05 332.48,-38.89 332.09,-38.73 331.66,-38.70 331.24,-38.67 330.83,-38.78 330.42,-38.89 330.06,-39.13 329.71,-39.36 329.45,-39.70 329.19,-40.03 329.05,-40.44 328.91,-40.84 328.90,-41.26 328.90,-41.69 329.03,-42.09 329.16,-42.49 329.42,-42.84 329.67,-43.18 330.02,-43.42 330.37,-43.66 330.78,-43.78 331.19,-43.90 331.61,-43.88 332.03,-43.86 332.43,-43.71 332.83,-43.55 333.15,-43.28 333.48,-43.01 333.70,-42.65 333.93,-42.29 334.02,-41.87 334.12,-41.46 334.08,-41.03 334.03,-40.61 333.86,-40.22 333.68,-39.84 333.40,-39.52 333.11,-39.21 332.73,-39.01 332.36,-38.81 331.94,-38.73 331.52,-38.66 331.10,-38.73 330.68,-38.79 330.30,-38.99 329.93,-39.18 329.63,-39.49 329.34,-39.79 329.15,-40.18 328.97,-40.56 328.97,-40.56 328.97,-40.56 326.89,-47.53 324.81,-54.50 319.72,-70.85 314.63,-87.20 309.75,-104.33 304.86,-121.46 298.06,-143.55 291.26,-165.65 286.14,-179.99 281.03,-194.32 274.79,-211.02 268.56,-227.71 264.70,-237.17 260.84,-246.62 257.13,-255.33 253.43,-264.04 249.57,-271.91 245.71,-279.79 241.55,-286.84 237.40,-293.88 233.07,-299.77 228.74,-305.65 224.03,-310.45 219.32,-315.24 214.54,-318.94 209.75,-322.64 204.97,-325.31 200.19,-327.98 195.34,-329.70 190.49,-331.41 185.61,-332.40 180.73,-333.40 175.84,-333.63 170.96,-333.87 166.18,-333.45 161.40,-333.04 156.81,-332.14 152.23,-331.25 147.81,-329.94 143.40,-328.63 138.94,-326.64 134.49,-324.66 130.07,-321.81 125.65,-318.96 121.20,-315.08 116.74,-311.20 112.18,-306.31 107.61,-301.43 102.87,-295.47 98.13,-289.52 93.44,-282.70 88.76,-275.88 84.28,-268.51 79.80,-261.13 75.48,-253.29 71.17,-245.45 67.01,-236.96 62.86,-228.46 58.70,-219.31 54.54,-210.16 50.61,-200.69 46.68,-191.21 43.08,-181.35 39.47,-171.49 36.20,-161.44 32.93,-151.40 29.86,-141.22 26.78,-131.03 24.23,-122.39 21.67,-113.76 19.28,-105.48 16.89,-97.19 14.97,-89.00 13.05,-80.80 11.51,-73.23 9.96,-65.66 8.85,-58.65 7.75,-51.65 6.92,-45.45 6.08,-39.26 5.44,-33.92 4.80,-28.58 4.29,-24.23 3.77,-19.89 3.42,-16.41 3.07,-12.92 2.95,-9.91 2.83,-6.90 2.99,-3.53 3.16,-0.16 3.13,0.21 3.10,0.59 2.99,0.96 2.87,1.32 2.67,1.65 2.47,1.97 2.20,2.24 1.92,2.51 1.60,2.70 1.27,2.90 0.90,3.01 0.54,3.12 0.16,3.14 -0.22,3.15 -0.59,3.08 -0.97,3.01 -1.31,2.85 -1.66,2.69 -1.96,2.45 -2.26,2.21 -2.49,1.91 -2.72,1.61 -2.87,1.26 -3.03,0.91 -3.09,0.53 -3.16,0.16 -3.16,0.16 L -3.16,0.16 Z"/></g><g stroke-linecap="round" transform="translate(303.9969024658203 72.58426573663269) rotate(0 7.9575653076171875 7.9575653076171875)"><path d="M15.92 7.96 C15.92 8.42, 15.87 8.89, 15.79 9.34 C15.71 9.79, 15.59 10.25, 15.44 10.68 C15.28 11.11, 15.08 11.54, 14.85 11.94 C14.62 12.34, 14.35 12.72, 14.05 13.07 C13.76 13.43, 13.43 13.76, 13.07 14.05 C12.72 14.35, 12.34 14.62, 11.94 14.85 C11.54 15.08, 11.11 15.28, 10.68 15.44 C10.25 15.59, 9.79 15.71, 9.34 15.79 C8.89 15.87, 8.42 15.92, 7.96 15.92 C7.5 15.92, 7.03 15.87, 6.58 15.79 C6.12 15.71, 5.67 15.59, 5.24 15.44 C4.8 15.28, 4.38 15.08, 3.98 14.85 C3.58 14.62, 3.2 14.35, 2.84 14.05 C2.49 13.76, 2.16 13.43, 1.86 13.07 C1.57 12.72, 1.3 12.34, 1.07 11.94 C0.84 11.54, 0.64 11.11, 0.48 10.68 C0.32 10.25, 0.2 9.79, 0.12 9.34 C0.04 8.89, 0 8.42, 0 7.96 C0 7.5, 0.04 7.03, 0.12 6.58 C0.2 6.12, 0.32 5.67, 0.48 5.24 C0.64 4.8, 0.84 4.38, 1.07 3.98 C1.3 3.58, 1.57 3.2, 1.86 2.84 C2.16 2.49, 2.49 2.16, 2.84 1.86 C3.2 1.57, 3.58 1.3, 3.98 1.07 C4.38 0.84, 4.8 0.64, 5.24 0.48 C5.67 0.32, 6.12 0.2, 6.58 0.12 C7.03 0.04, 7.5 0, 7.96 0 C8.42 0, 8.89 0.04, 9.34 0.12 C9.79 0.2, 10.25 0.32, 10.68 0.48 C11.11 0.64, 11.54 0.84, 11.94 1.07 C12.34 1.3, 12.72 1.57, 13.07 1.86 C13.43 2.16, 13.76 2.49, 14.05 2.84 C14.35 3.2, 14.62 3.58, 14.85 3.98 C15.08 4.38, 15.28 4.8, 15.44 5.24 C15.59 5.67, 15.71 6.12, 15.79 6.58 C15.87 7.03, 15.89 7.73, 15.92 7.96 C15.94 8.19, 15.94 7.73, 15.92 7.96" stroke="none" stroke-width="0" fill="#1971c2"/><path d="M15.92 7.96 C15.92 8.42, 15.87 8.89, 15.79 9.34 C15.71 9.79, 15.59 10.25, 15.44 10.68 C15.28 11.11, 15.08 11.54, 14.85 11.94 C14.62 12.34, 14.35 12.72, 14.05 13.07 C13.76 13.43, 13.43 13.76, 13.07 14.05 C12.72 14.35, 12.34 14.62, 11.94 14.85 C11.54 15.08, 11.11 15.28, 10.68 15.44 C10.25 15.59, 9.79 15.71, 9.34 15.79 C8.89 15.87, 8.42 15.92, 7.96 15.92 C7.5 15.92, 7.03 15.87, 6.58 15.79 C6.12 15.71, 5.67 15.59, 5.24 15.44 C4.8 15.28, 4.38 15.08, 3.98 14.85 C3.58 14.62, 3.2 14.35, 2.84 14.05 C2.49 13.76, 2.16 13.43, 1.86 13.07 C1.57 12.72, 1.3 12.34, 1.07 11.94 C0.84 11.54, 0.64 11.11, 0.48 10.68 C0.32 10.25, 0.2 9.79, 0.12 9.34 C0.04 8.89, 0 8.42, 0 7.96 C0 7.5, 0.04 7.03, 0.12 6.58 C0.2 6.12, 0.32 5.67, 0.48 5.24 C0.64 4.8, 0.84 4.38, 1.07 3.98 C1.3 3.58, 1.57 3.2, 1.86 2.84 C2.16 2.49, 2.49 2.16, 2.84 1.86 C3.2 1.57, 3.58 1.3, 3.98 1.07 C4.38 0.84, 4.8 0.64, 5.24 0.48 C5.67 0.32, 6.12 0.2, 6.58 0.12 C7.03 0.04, 7.5 0, 7.96 0 C8.42 0, 8.89 0.04, 9.34 0.12 C9.79 0.2, 10.25 0.32, 10.68 0.48 C11.11 0.64, 11.54 0.84, 11.94 1.07 C12.34 1.3, 12.72 1.57, 13.07 1.86 C13.43 2.16, 13.76 2.49, 14.05 2.84 C14.35 3.2, 14.62 3.58, 14.85 3.98 C15.08 4.38, 15.28 4.8, 15.44 5.24 C15.59 5.67, 15.71 6.12, 15.79 6.58 C15.87 7.03, 15.89 7.73, 15.92 7.96 C15.94 8.19, 15.94 7.73, 15.92 7.96" stroke="#1e1e1e" stroke-width="4" fill="none"/></g><g stroke-linecap="round" transform="translate(73.39649963378906 310.6013403215936) rotate(0 7.9575653076171875 7.9575653076171875)"><path d="M15.92 7.96 C15.92 8.42, 15.87 8.89, 15.79 9.34 C15.71 9.79, 15.59 10.25, 15.44 10.68 C15.28 11.11, 15.08 11.54, 14.85 11.94 C14.62 12.34, 14.35 12.72, 14.05 13.07 C13.76 13.43, 13.43 13.76, 13.07 14.05 C12.72 14.35, 12.34 14.62, 11.94 14.85 C11.54 15.08, 11.11 15.28, 10.68 15.44 C10.25 15.59, 9.79 15.71, 9.34 15.79 C8.89 15.87, 8.42 15.92, 7.96 15.92 C7.5 15.92, 7.03 15.87, 6.58 15.79 C6.12 15.71, 5.67 15.59, 5.24 15.44 C4.8 15.28, 4.38 15.08, 3.98 14.85 C3.58 14.62, 3.2 14.35, 2.84 14.05 C2.49 13.76, 2.16 13.43, 1.86 13.07 C1.57 12.72, 1.3 12.34, 1.07 11.94 C0.84 11.54, 0.64 11.11, 0.48 10.68 C0.32 10.25, 0.2 9.79, 0.12 9.34 C0.04 8.89, 0 8.42, 0 7.96 C0 7.5, 0.04 7.03, 0.12 6.58 C0.2 6.12, 0.32 5.67, 0.48 5.24 C0.64 4.8, 0.84 4.38, 1.07 3.98 C1.3 3.58, 1.57 3.2, 1.86 2.84 C2.16 2.49, 2.49 2.16, 2.84 1.86 C3.2 1.57, 3.58 1.3, 3.98 1.07 C4.38 0.84, 4.8 0.64, 5.24 0.48 C5.67 0.32, 6.12 0.2, 6.58 0.12 C7.03 0.04, 7.5 0, 7.96 0 C8.42 0, 8.89 0.04, 9.34 0.12 C9.79 0.2, 10.25 0.32, 10.68 0.48 C11.11 0.64, 11.54 0.84, 11.94 1.07 C12.34 1.3, 12.72 1.57, 13.07 1.86 C13.43 2.16, 13.76 2.49, 14.05 2.84 C14.35 3.2, 14.62 3.58, 14.85 3.98 C15.08 4.38, 15.28 4.8, 15.44 5.24 C15.59 5.67, 15.71 6.12, 15.79 6.58 C15.87 7.03, 15.89 7.73, 15.92 7.96 C15.94 8.19, 15.94 7.73, 15.92 7.96" stroke="none" stroke-width="0" fill="#1971c2"/><path d="M15.92 7.96 C15.92 8.42, 15.87 8.89, 15.79 9.34 C15.71 9.79, 15.59 10.25, 15.44 10.68 C15.28 11.11, 15.08 11.54, 14.85 11.94 C14.62 12.34, 14.35 12.72, 14.05 13.07 C13.76 13.43, 13.43 13.76, 13.07 14.05 C12.72 14.35, 12.34 14.62, 11.94 14.85 C11.54 15.08, 11.11 15.28, 10.68 15.44 C10.25 15.59, 9.79 15.71, 9.34 15.79 C8.89 15.87, 8.42 15.92, 7.96 15.92 C7.5 15.92, 7.03 15.87, 6.58 15.79 C6.12 15.71, 5.67 15.59, 5.24 15.44 C4.8 15.28, 4.38 15.08, 3.98 14.85 C3.58 14.62, 3.2 14.35, 2.84 14.05 C2.49 13.76, 2.16 13.43, 1.86 13.07 C1.57 12.72, 1.3 12.34, 1.07 11.94 C0.84 11.54, 0.64 11.11, 0.48 10.68 C0.32 10.25, 0.2 9.79, 0.12 9.34 C0.04 8.89, 0 8.42, 0 7.96 C0 7.5, 0.04 7.03, 0.12 6.58 C0.2 6.12, 0.32 5.67, 0.48 5.24 C0.64 4.8, 0.84 4.38, 1.07 3.98 C1.3 3.58, 1.57 3.2, 1.86 2.84 C2.16 2.49, 2.49 2.16, 2.84 1.86 C3.2 1.57, 3.58 1.3, 3.98 1.07 C4.38 0.84, 4.8 0.64, 5.24 0.48 C5.67 0.32, 6.12 0.2, 6.58 0.12 C7.03 0.04, 7.5 0, 7.96 0 C8.42 0, 8.89 0.04, 9.34 0.12 C9.79 0.2, 10.25 0.32, 10.68 0.48 C11.11 0.64, 11.54 0.84, 11.94 1.07 C12.34 1.3, 12.72 1.57, 13.07 1.86 C13.43 2.16, 13.76 2.49, 14.05 2.84 C14.35 3.2, 14.62 3.58, 14.85 3.98 C15.08 4.38, 15.28 4.8, 15.44 5.24 C15.59 5.67, 15.71 6.12, 15.79 6.58 C15.87 7.03, 15.89 7.73, 15.92 7.96 C15.94 8.19, 15.94 7.73, 15.92 7.96" stroke="#1e1e1e" stroke-width="4" fill="none"/></g><g stroke-linecap="round"><g transform="translate(32.91348136894118 375.61679251305543) rotate(0 172.27608096844645 -182.80839625652771)"><path d="M0 0 C109.68 -116.38, 219.35 -232.76, 344.55 -365.62 M0 0 C92.55 -98.21, 185.1 -196.41, 344.55 -365.62" stroke="#e03131" stroke-width="4" fill="none"/></g></g><mask/><g transform="translate(283.50414910075096 72.1867966215421) rotate(0 -91.24723624420193 115.55252011668841)" stroke="none"><path fill="#e03131" d="M 3.27,0.71 Q 3.27,0.71 2.52,4.30 1.77,7.88 0.92,11.90 0.08,15.92 -1.07,20.68 -2.22,25.45 -3.30,29.28 -4.37,33.11 -5.12,35.41 -5.87,37.71 -6.20,38.28 -6.53,38.85 -6.71,39.22 -6.88,39.60 -7.14,39.92 -7.40,40.24 -7.73,40.50 -8.06,40.75 -8.44,40.91 -8.83,41.08 -9.23,41.15 -9.64,41.21 -10.06,41.18 -10.47,41.15 -10.86,41.02 -11.26,40.90 -11.61,40.68 -11.96,40.46 -12.25,40.16 -12.54,39.86 -12.75,39.50 -12.96,39.15 -13.08,38.75 -13.19,38.35 -13.21,37.94 -13.23,37.52 -13.15,37.12 -13.07,36.71 -13.39,33.33 -13.70,29.95 -13.49,25.88 -13.27,21.81 -12.92,17.51 -12.58,13.20 -12.17,9.24 -11.77,5.28 -11.61,2.25 -11.45,-0.77 -12.38,1.90 -13.31,4.58 -14.66,7.93 -16.02,11.27 -17.47,15.50 -18.93,19.72 -20.34,24.39 -21.75,29.06 -22.91,33.48 -24.07,37.90 -25.00,41.03 -25.93,44.15 -26.63,45.50 -27.33,46.84 -27.51,47.26 -27.69,47.68 -27.97,48.04 -28.25,48.41 -28.60,48.69 -28.96,48.98 -29.38,49.17 -29.79,49.36 -30.24,49.45 -30.69,49.53 -31.14,49.51 -31.60,49.49 -32.03,49.36 -32.47,49.23 -32.86,48.99 -33.26,48.76 -33.58,48.44 -33.91,48.12 -34.15,47.73 -34.39,47.35 -34.53,46.91 -34.67,46.48 -34.70,46.02 -34.74,45.57 -34.66,45.12 -34.58,44.67 -35.43,41.49 -36.29,38.32 -36.56,33.23 -36.84,28.15 -36.83,22.60 -36.82,17.05 -36.68,12.30 -36.54,7.55 -36.59,4.75 -36.64,1.95 -37.26,0.71 -37.89,-0.52 -37.83,-1.01 -37.77,-1.50 -37.59,-1.96 -37.42,-2.42 -37.14,-2.83 -36.86,-3.24 -36.49,-3.57 -36.12,-3.89 -35.69,-4.13 -35.25,-4.36 -34.77,-4.47 -34.29,-4.59 -33.80,-4.59 -33.30,-4.60 -32.82,-4.48 -32.34,-4.36 -31.90,-4.13 -31.47,-3.90 -31.10,-3.58 -30.73,-3.25 -30.44,-2.84 -30.16,-2.44 -29.99,-1.98 -29.81,-1.51 -29.75,-1.02 -29.69,-0.53 -31.05,1.72 -32.40,3.98 -33.41,6.52 -34.41,9.06 -36.45,14.44 -38.49,19.83 -41.33,27.42 -44.17,35.01 -47.06,43.20 -49.95,51.39 -52.49,58.52 -55.03,65.65 -56.92,70.28 -58.80,74.91 -59.96,76.22 -61.13,77.52 -61.38,77.97 -61.63,78.41 -61.98,78.78 -62.33,79.15 -62.76,79.43 -63.19,79.71 -63.67,79.87 -64.15,80.04 -64.66,80.09 -65.17,80.13 -65.68,80.06 -66.18,79.98 -66.65,79.78 -67.13,79.59 -67.54,79.29 -67.95,78.98 -68.28,78.59 -68.60,78.20 -68.83,77.74 -69.05,77.28 -69.16,76.78 -69.26,76.28 -69.25,75.77 -69.23,75.26 -69.09,74.77 -68.96,74.27 -69.82,66.69 -70.69,59.10 -70.08,50.76 -69.47,42.43 -68.44,33.71 -67.41,24.99 -66.27,17.34 -65.12,9.69 -64.44,4.49 -63.76,-0.71 -60.93,-1.63 -58.11,-2.55 -58.82,-0.31 -59.53,1.93 -61.67,7.48 -63.81,13.04 -66.62,22.00 -69.43,30.96 -72.34,42.79 -75.24,54.62 -77.59,67.75 -79.94,80.88 -81.56,92.37 -83.19,103.86 -84.09,110.99 -85.00,118.13 -85.53,120.27 -86.07,122.41 -86.19,122.92 -86.32,123.44 -86.57,123.91 -86.81,124.39 -87.16,124.79 -87.52,125.19 -87.95,125.49 -88.39,125.79 -88.89,125.98 -89.39,126.17 -89.91,126.24 -90.44,126.31 -90.97,126.24 -91.50,126.18 -92.00,125.99 -92.50,125.81 -92.94,125.51 -93.38,125.20 -93.73,124.81 -94.08,124.41 -94.33,123.94 -94.58,123.47 -94.71,122.95 -94.84,122.44 -94.84,121.90 -94.84,121.37 -94.97,118.84 -95.09,116.31 -95.35,108.75 -95.61,101.18 -95.67,90.45 -95.74,79.73 -94.96,67.98 -94.19,56.24 -93.08,45.80 -91.97,35.35 -91.23,27.63 -90.49,19.91 -90.17,16.32 -89.84,12.72 -90.60,11.58 -91.36,10.43 -91.24,9.86 -91.13,9.28 -90.88,8.75 -90.63,8.22 -90.26,7.76 -89.89,7.31 -89.43,6.95 -88.96,6.60 -88.42,6.36 -87.88,6.13 -87.31,6.03 -86.73,5.94 -86.14,5.98 -85.56,6.03 -85.00,6.21 -84.44,6.39 -83.95,6.70 -83.45,7.01 -83.04,7.43 -82.63,7.85 -82.34,8.36 -82.04,8.87 -81.87,9.43 -81.71,9.99 -81.68,10.58 -81.65,11.16 -83.14,14.82 -84.63,18.47 -86.62,25.03 -88.61,31.59 -91.51,42.19 -94.40,52.79 -97.43,66.32 -100.46,79.86 -103.22,93.62 -105.99,107.38 -108.14,118.45 -110.30,129.51 -112.46,136.11 -114.61,142.71 -115.87,143.20 -117.12,143.69 -117.36,144.23 -117.59,144.76 -117.95,145.23 -118.30,145.69 -118.76,146.06 -119.21,146.42 -119.74,146.67 -120.27,146.91 -120.85,147.03 -121.42,147.14 -122.00,147.11 -122.59,147.08 -123.15,146.91 -123.71,146.75 -124.21,146.45 -124.71,146.15 -125.13,145.75 -125.55,145.34 -125.86,144.84 -126.16,144.34 -126.34,143.79 -126.52,143.23 -126.57,142.65 -126.61,142.07 -126.51,141.49 -126.41,140.92 -127.47,137.76 -128.52,134.60 -128.60,125.44 -128.68,116.28 -127.36,105.00 -126.04,93.73 -123.86,82.83 -121.68,71.92 -119.25,63.29 -116.81,54.66 -115.18,49.56 -113.54,44.46 -113.02,42.95 -112.49,41.44 -112.24,40.89 -111.98,40.33 -111.60,39.86 -111.22,39.38 -110.74,39.01 -110.26,38.64 -109.70,38.40 -109.14,38.15 -108.54,38.05 -107.94,37.95 -107.34,37.99 -106.73,38.03 -106.15,38.22 -105.57,38.41 -105.05,38.73 -104.54,39.05 -104.11,39.48 -103.68,39.91 -103.38,40.44 -103.07,40.96 -102.89,41.54 -102.72,42.13 -102.68,42.74 -102.65,43.34 -102.77,43.94 -102.89,44.54 -103.67,46.68 -104.46,48.82 -106.57,54.81 -108.68,60.80 -111.88,70.59 -115.08,80.37 -119.07,94.25 -123.05,108.12 -126.38,121.46 -129.70,134.81 -132.28,145.28 -134.85,155.75 -136.66,161.71 -138.48,167.67 -139.38,168.22 -140.29,168.78 -140.54,169.35 -140.78,169.92 -141.15,170.41 -141.53,170.91 -142.01,171.30 -142.49,171.69 -143.05,171.95 -143.61,172.22 -144.21,172.34 -144.82,172.46 -145.44,172.44 -146.06,172.41 -146.65,172.24 -147.25,172.06 -147.78,171.75 -148.32,171.44 -148.76,171.01 -149.21,170.58 -149.54,170.06 -149.87,169.53 -150.06,168.94 -150.26,168.36 -150.31,167.74 -150.36,167.12 -150.26,166.51 -150.15,165.90 -150.41,162.57 -150.66,159.25 -149.69,150.72 -148.73,142.20 -146.78,132.00 -144.82,121.81 -142.41,112.57 -139.99,103.33 -138.16,97.64 -136.33,91.95 -136.09,91.35 -135.85,90.75 -135.47,90.22 -135.10,89.69 -134.61,89.27 -134.12,88.85 -133.54,88.56 -132.96,88.27 -132.33,88.12 -131.70,87.98 -131.06,87.99 -130.41,88.00 -129.79,88.16 -129.16,88.33 -128.59,88.64 -128.02,88.95 -127.55,89.38 -127.07,89.82 -126.71,90.36 -126.35,90.89 -126.13,91.50 -125.91,92.11 -125.84,92.75 -125.78,93.39 -125.86,94.04 -125.95,94.68 -132.51,116.68 -139.07,138.68 -144.68,155.80 -150.30,172.92 -154.20,181.54 -158.10,190.15 -158.29,189.17 -158.47,188.19 -158.76,188.81 -159.06,189.42 -159.49,189.96 -159.92,190.49 -160.47,190.90 -161.02,191.31 -161.65,191.58 -162.28,191.85 -162.95,191.96 -163.63,192.07 -164.31,192.02 -165.00,191.96 -165.65,191.75 -166.30,191.53 -166.88,191.16 -167.45,190.80 -167.93,190.30 -168.40,189.81 -168.75,189.22 -169.09,188.62 -169.28,187.97 -169.47,187.31 -169.50,186.62 -169.53,185.94 -169.39,185.27 -169.26,184.60 -169.64,181.22 -170.03,177.85 -168.86,170.88 -167.70,163.92 -166.51,158.63 -165.31,153.35 -165.11,152.69 -164.90,152.03 -164.55,151.44 -164.19,150.85 -163.71,150.36 -163.22,149.87 -162.63,149.51 -162.04,149.15 -161.38,148.94 -160.72,148.73 -160.03,148.69 -159.34,148.64 -158.66,148.77 -157.98,148.89 -157.35,149.17 -156.72,149.45 -156.17,149.88 -155.63,150.30 -155.20,150.84 -154.77,151.39 -154.49,152.02 -154.20,152.65 -154.07,153.33 -153.95,154.00 -153.99,154.69 -154.03,155.38 -160.63,179.29 -167.23,203.19 -171.38,213.86 -175.53,224.53 -176.83,229.20 -178.13,233.87 -178.30,234.25 -178.48,234.64 -178.76,234.95 -179.05,235.27 -179.43,235.47 -179.80,235.68 -180.22,235.75 -180.63,235.82 -181.05,235.76 -181.48,235.70 -181.85,235.50 -182.23,235.31 -182.53,235.01 -182.82,234.70 -183.01,234.32 -183.19,233.94 -183.24,233.51 -183.30,233.09 -183.21,232.68 -183.12,232.26 -182.91,231.89 -182.70,231.53 -182.38,231.25 -182.06,230.97 -181.66,230.80 -181.27,230.64 -180.85,230.61 -180.42,230.58 -180.01,230.69 -179.60,230.80 -179.25,231.03 -178.89,231.27 -178.63,231.60 -178.37,231.94 -178.23,232.34 -178.09,232.74 -178.08,233.16 -178.07,233.59 -178.20,233.99 -178.33,234.40 -178.59,234.74 -178.84,235.08 -179.19,235.32 -179.54,235.57 -179.94,235.69 -180.35,235.81 -180.78,235.79 -181.20,235.77 -181.60,235.62 -181.99,235.47 -182.32,235.20 -182.65,234.93 -182.87,234.56 -183.10,234.20 -183.19,233.79 -183.29,233.38 -183.25,232.95 -183.21,232.53 -183.21,232.53 -183.21,232.53 -182.05,227.83 -180.89,223.13 -179.25,211.76 -177.62,200.40 -171.46,176.87 -165.31,153.35 -165.11,152.69 -164.90,152.03 -164.55,151.44 -164.19,150.85 -163.71,150.36 -163.22,149.87 -162.63,149.51 -162.04,149.15 -161.38,148.94 -160.72,148.73 -160.03,148.69 -159.34,148.64 -158.66,148.77 -157.98,148.89 -157.35,149.17 -156.72,149.45 -156.17,149.88 -155.63,150.30 -155.20,150.84 -154.77,151.39 -154.49,152.02 -154.20,152.65 -154.07,153.32 -153.95,154.00 -153.99,154.69 -154.03,155.38 -155.22,160.67 -156.42,165.95 -157.53,171.63 -158.65,177.31 -158.56,182.75 -158.47,188.19 -158.76,188.80 -159.06,189.42 -159.49,189.96 -159.92,190.49 -160.47,190.90 -161.02,191.31 -161.65,191.58 -162.28,191.85 -162.95,191.96 -163.63,192.07 -164.31,192.02 -164.99,191.96 -165.64,191.75 -166.30,191.53 -166.87,191.16 -167.45,190.80 -167.93,190.30 -168.40,189.81 -168.75,189.22 -169.09,188.62 -169.28,187.97 -169.47,187.31 -169.50,186.62 -169.53,185.94 -169.39,185.27 -169.26,184.60 -166.27,183.28 -163.29,181.97 -162.22,175.66 -161.16,169.34 -155.52,152.32 -149.88,135.29 -143.10,113.62 -136.33,91.95 -136.09,91.35 -135.85,90.75 -135.47,90.22 -135.10,89.69 -134.61,89.27 -134.12,88.85 -133.54,88.56 -132.96,88.27 -132.33,88.12 -131.70,87.98 -131.06,87.99 -130.41,88.00 -129.79,88.16 -129.16,88.33 -128.59,88.64 -128.02,88.94 -127.55,89.38 -127.07,89.82 -126.71,90.35 -126.35,90.89 -126.13,91.50 -125.91,92.11 -125.84,92.75 -125.78,93.39 -125.86,94.03 -125.95,94.68 -127.98,100.32 -130.01,105.96 -132.37,114.86 -134.72,123.77 -136.64,133.57 -138.57,143.38 -139.49,151.13 -140.42,158.88 -140.35,163.83 -140.29,168.78 -140.54,169.35 -140.78,169.92 -141.15,170.41 -141.53,170.91 -142.01,171.30 -142.49,171.69 -143.05,171.95 -143.61,172.22 -144.21,172.34 -144.82,172.46 -145.44,172.44 -146.06,172.41 -146.65,172.24 -147.25,172.06 -147.78,171.75 -148.32,171.44 -148.76,171.01 -149.21,170.58 -149.54,170.06 -149.87,169.53 -150.06,168.94 -150.26,168.36 -150.31,167.74 -150.36,167.12 -150.26,166.51 -150.15,165.90 -149.25,164.87 -148.34,163.84 -146.85,158.50 -145.37,153.16 -142.77,142.66 -140.17,132.17 -136.73,118.65 -133.28,105.13 -129.11,91.11 -124.95,77.08 -121.61,67.24 -118.27,57.40 -115.38,49.42 -112.49,41.44 -112.24,40.89 -111.98,40.33 -111.60,39.86 -111.22,39.38 -110.74,39.01 -110.26,38.64 -109.70,38.40 -109.14,38.15 -108.54,38.05 -107.95,37.95 -107.34,37.99 -106.73,38.03 -106.15,38.22 -105.57,38.41 -105.05,38.73 -104.54,39.04 -104.11,39.48 -103.69,39.91 -103.38,40.44 -103.07,40.96 -102.89,41.54 -102.72,42.13 -102.68,42.73 -102.65,43.34 -102.77,43.94 -102.88,44.54 -103.55,46.00 -104.22,47.47 -105.82,52.40 -107.42,57.33 -109.78,65.60 -112.15,73.87 -114.35,84.38 -116.55,94.88 -117.88,105.57 -119.21,116.27 -119.25,124.34 -119.29,132.41 -118.21,138.05 -117.12,143.69 -117.36,144.23 -117.59,144.76 -117.95,145.23 -118.30,145.69 -118.76,146.06 -119.21,146.42 -119.74,146.67 -120.27,146.91 -120.85,147.03 -121.42,147.14 -122.00,147.11 -122.59,147.08 -123.15,146.91 -123.70,146.75 -124.21,146.45 -124.71,146.15 -125.13,145.75 -125.55,145.34 -125.86,144.84 -126.16,144.34 -126.34,143.79 -126.52,143.23 -126.57,142.65 -126.61,142.07 -126.51,141.49 -126.41,140.92 -124.90,139.65 -123.39,138.37 -121.95,132.94 -120.50,127.50 -118.30,116.41 -116.10,105.32 -113.26,91.46 -110.41,77.61 -107.26,63.85 -104.11,50.10 -101.11,39.37 -98.11,28.63 -95.83,21.51 -93.55,14.39 -92.45,12.41 -91.36,10.43 -91.24,9.86 -91.13,9.28 -90.88,8.75 -90.63,8.22 -90.26,7.76 -89.89,7.31 -89.43,6.95 -88.96,6.60 -88.42,6.36 -87.88,6.13 -87.31,6.03 -86.73,5.94 -86.14,5.98 -85.56,6.02 -85.00,6.21 -84.44,6.39 -83.95,6.70 -83.45,7.01 -83.04,7.43 -82.63,7.85 -82.34,8.36 -82.04,8.87 -81.87,9.43 -81.71,9.99 -81.68,10.58 -81.65,11.16 -81.29,11.45 -80.93,11.74 -81.22,16.28 -81.51,20.81 -82.32,28.56 -83.13,36.30 -84.26,46.58 -85.39,56.85 -86.21,68.26 -87.03,79.68 -86.96,90.28 -86.89,100.88 -86.62,108.39 -86.36,115.91 -86.21,119.16 -86.07,122.41 -86.19,122.92 -86.32,123.44 -86.57,123.91 -86.81,124.39 -87.16,124.79 -87.52,125.19 -87.95,125.49 -88.39,125.79 -88.89,125.98 -89.39,126.17 -89.91,126.24 -90.44,126.31 -90.97,126.24 -91.50,126.18 -92.00,125.99 -92.50,125.81 -92.94,125.51 -93.38,125.21 -93.73,124.81 -94.08,124.41 -94.33,123.94 -94.58,123.47 -94.71,122.95 -94.84,122.44 -94.84,121.90 -94.84,121.37 -94.75,119.18 -94.65,116.99 -93.86,109.73 -93.07,102.47 -91.45,90.78 -89.83,79.09 -87.36,65.66 -84.89,52.23 -81.85,40.11 -78.81,27.99 -75.84,18.73 -72.88,9.47 -70.39,3.25 -67.89,-2.95 -65.60,-5.82 -63.30,-8.69 -60.41,-8.83 -57.52,-8.96 -56.43,-4.27 -55.33,0.41 -56.06,5.69 -56.78,10.97 -57.96,18.49 -59.14,26.01 -60.23,34.53 -61.33,43.04 -61.94,50.95 -62.55,58.85 -62.41,64.43 -62.28,70.00 -61.70,73.76 -61.13,77.52 -61.38,77.96 -61.63,78.41 -61.98,78.78 -62.33,79.15 -62.76,79.43 -63.19,79.71 -63.67,79.87 -64.15,80.04 -64.66,80.09 -65.17,80.13 -65.68,80.06 -66.18,79.98 -66.65,79.78 -67.12,79.59 -67.54,79.29 -67.95,78.98 -68.27,78.59 -68.60,78.20 -68.83,77.74 -69.05,77.28 -69.16,76.78 -69.26,76.28 -69.25,75.77 -69.23,75.26 -69.09,74.77 -68.96,74.27 -67.94,72.86 -66.92,71.44 -65.08,67.08 -63.24,62.72 -60.68,55.60 -58.13,48.49 -55.18,40.22 -52.23,31.96 -49.33,24.37 -46.42,16.78 -44.24,11.18 -42.06,5.59 -39.97,2.53 -37.89,-0.52 -37.83,-1.01 -37.77,-1.50 -37.60,-1.96 -37.42,-2.42 -37.14,-2.83 -36.86,-3.24 -36.49,-3.57 -36.12,-3.89 -35.69,-4.12 -35.25,-4.36 -34.77,-4.47 -34.29,-4.59 -33.80,-4.59 -33.30,-4.60 -32.82,-4.48 -32.34,-4.36 -31.90,-4.13 -31.47,-3.90 -31.10,-3.58 -30.73,-3.25 -30.44,-2.84 -30.16,-2.44 -29.99,-1.98 -29.81,-1.51 -29.75,-1.02 -29.69,-0.53 -29.48,0.63 -29.28,1.81 -29.31,4.79 -29.35,7.78 -29.51,12.43 -29.67,17.09 -29.72,22.43 -29.76,27.78 -29.52,32.55 -29.27,37.33 -29.03,39.91 -28.80,42.48 -28.06,44.66 -27.33,46.84 -27.51,47.26 -27.69,47.68 -27.97,48.04 -28.25,48.41 -28.60,48.69 -28.96,48.98 -29.38,49.17 -29.79,49.36 -30.24,49.45 -30.69,49.53 -31.14,49.51 -31.60,49.49 -32.03,49.36 -32.47,49.23 -32.86,48.99 -33.26,48.76 -33.58,48.44 -33.91,48.12 -34.15,47.73 -34.39,47.35 -34.53,46.91 -34.67,46.48 -34.70,46.02 -34.74,45.57 -34.66,45.12 -34.58,44.67 -34.18,43.23 -33.78,41.80 -32.87,38.81 -31.97,35.82 -30.75,31.25 -29.54,26.69 -28.07,21.88 -26.59,17.07 -25.03,12.60 -23.47,8.13 -21.86,4.42 -20.24,0.70 -18.56,-2.16 -16.89,-5.04 -13.39,-7.19 -9.89,-9.35 -7.38,-7.17 -4.87,-4.99 -4.70,-2.69 -4.53,-0.40 -4.71,2.79 -4.89,5.99 -5.29,9.87 -5.68,13.76 -6.03,17.98 -6.38,22.20 -6.61,25.99 -6.84,29.78 -6.69,34.31 -6.53,38.85 -6.71,39.22 -6.88,39.60 -7.14,39.92 -7.40,40.24 -7.73,40.49 -8.06,40.75 -8.44,40.91 -8.82,41.08 -9.23,41.15 -9.64,41.21 -10.06,41.18 -10.47,41.15 -10.86,41.02 -11.26,40.90 -11.61,40.68 -11.96,40.46 -12.25,40.16 -12.54,39.86 -12.75,39.50 -12.96,39.15 -13.08,38.75 -13.19,38.35 -13.21,37.94 -13.23,37.52 -13.15,37.12 -13.07,36.71 -12.74,36.13 -12.41,35.54 -11.71,33.39 -11.00,31.25 -9.96,27.53 -8.91,23.82 -7.77,19.15 -6.63,14.48 -5.76,10.46 -4.89,6.43 -4.08,2.85 -3.27,-0.71 -3.14,-1.09 -3.01,-1.47 -2.79,-1.81 -2.57,-2.15 -2.27,-2.43 -1.98,-2.71 -1.62,-2.90 -1.27,-3.10 -0.88,-3.21 -0.49,-3.32 -0.09,-3.33 0.31,-3.34 0.70,-3.25 1.10,-3.16 1.46,-2.99 1.83,-2.81 2.14,-2.55 2.45,-2.29 2.69,-1.96 2.92,-1.63 3.08,-1.26 3.23,-0.89 3.29,-0.49 3.35,-0.09 3.31,0.31 3.27,0.71 3.27,0.71 L 3.27,0.71 Z"/></g></svg>