<svg version="1.1" xmlns="http://www.w3.org/2000/svg" viewBox="0 0 412.6459456993098 345.27502881545706" width="412.6459456993098" height="345.27502881545706" filter="invert(93%) hue-rotate(180deg)" class="excalidraw-svg">
  <!-- svg-source:excalidraw -->
  
  <defs>
    <style class="style-fonts">
      @font-face {
        font-family: "Virgil";
        src: url("https://excalidraw.com/Virgil.woff2");
      }
      @font-face {
        font-family: "Cascadia";
        src: url("https://excalidraw.com/Cascadia.woff2");
      }
      @font-face {
        font-family: "Assistant";
        src: url("https://excalidraw.com/Assistant-Regular.woff2");
      }
    </style>
    
  </defs>
  <g stroke-linecap="round"><g transform="translate(49.75342514659218 277.68840691717276) rotate(0 161.5367003514579 -56.697920721129094)" fill-rule="evenodd"><path d="M0 0 C0 0, 0 0, 0 0 M0 0 C0 0, 0 0, 0 0 M10.63 -0.03 C13.36 -3.18, 16.09 -6.32, 21.13 -12.11 M10.63 -0.03 C13.97 -3.88, 17.31 -7.72, 21.13 -12.11 M21.26 -0.07 C28.43 -8.32, 35.6 -16.57, 42.25 -24.22 M21.26 -0.07 C29.57 -9.63, 37.89 -19.19, 42.25 -24.22 M116.39 -109.5 C117.27 -110.52, 118.15 -111.53, 119.01 -112.52 M116.39 -109.5 C116.99 -110.19, 117.59 -110.88, 119.01 -112.52 M31.89 -0.1 C45.36 -15.6, 58.83 -31.09, 71.91 -46.14 M31.89 -0.1 C42.88 -12.75, 53.88 -25.39, 71.91 -46.14 M101.43 -80.1 C109.8 -89.73, 118.17 -99.36, 126.36 -108.78 M101.43 -80.1 C107.41 -86.98, 113.38 -93.85, 126.36 -108.78 M42.52 -0.14 C63.72 -24.53, 84.92 -48.92, 133.06 -104.29 M42.52 -0.14 C66.3 -27.49, 90.08 -54.85, 133.06 -104.29 M53.15 -0.17 C75.45 -25.82, 97.74 -51.47, 140.41 -100.55 M53.15 -0.17 C79.71 -30.73, 106.28 -61.29, 140.41 -100.55 M63.78 -0.21 C93.84 -34.79, 123.9 -69.36, 147.76 -96.81 M63.78 -0.21 C91.89 -32.54, 120 -64.88, 147.76 -96.81 M74.41 -0.24 C94.34 -23.16, 114.26 -46.08, 155.11 -93.07 M74.41 -0.24 C100.21 -29.92, 126.02 -59.61, 155.11 -93.07 M85.04 -0.28 C114.8 -34.51, 144.56 -68.74, 161.8 -88.58 M85.04 -0.28 C101.13 -18.79, 117.22 -37.3, 161.8 -88.58 M95.67 -0.31 C111.67 -18.72, 127.67 -37.13, 169.15 -84.84 M95.67 -0.31 C119.63 -27.87, 143.59 -55.44, 169.15 -84.84 M106.3 -0.34 C131.53 -29.37, 156.77 -58.4, 176.5 -81.1 M106.3 -0.34 C130.85 -28.59, 155.4 -56.83, 176.5 -81.1 M116.27 0.38 C131.82 -17.5, 147.36 -35.38, 183.19 -76.61 M116.27 0.38 C136.87 -23.31, 157.46 -47, 183.19 -76.61 M126.91 0.34 C143.8 -19.09, 160.69 -38.53, 190.54 -72.87 M126.91 0.34 C149.89 -26.1, 172.87 -52.54, 190.54 -72.87 M137.54 0.31 C156.29 -21.27, 175.05 -42.85, 197.89 -69.13 M137.54 0.31 C161.24 -26.96, 184.94 -54.23, 197.89 -69.13 M148.17 0.27 C162.68 -16.43, 177.2 -33.13, 205.24 -65.39 M148.17 0.27 C170.65 -25.59, 193.13 -51.45, 205.24 -65.39 M158.8 0.24 C171.01 -13.82, 183.23 -27.87, 211.94 -60.89 M158.8 0.24 C172.23 -15.22, 185.66 -30.67, 211.94 -60.89 M169.43 0.2 C180.94 -13.04, 192.44 -26.28, 219.29 -57.16 M169.43 0.2 C186.45 -19.38, 203.48 -38.97, 219.29 -57.16 M180.06 0.17 C195.09 -17.12, 210.12 -34.42, 226.64 -53.42 M180.06 0.17 C194.19 -16.09, 208.33 -32.36, 226.64 -53.42 M190.69 0.13 C201.6 -12.42, 212.52 -24.98, 233.33 -48.92 M190.69 0.13 C200.98 -11.71, 211.27 -23.55, 233.33 -48.92 M201.32 0.1 C212.27 -12.5, 223.22 -25.1, 240.68 -45.18 M201.32 0.1 C213.29 -13.67, 225.26 -27.44, 240.68 -45.18 M211.95 0.06 C224.47 -14.34, 236.99 -28.74, 248.03 -41.44 M211.95 0.06 C221.86 -11.34, 231.77 -22.74, 248.03 -41.44 M222.58 0.03 C233.79 -12.87, 245.01 -25.78, 255.38 -37.71 M222.58 0.03 C234.31 -13.47, 246.04 -26.97, 255.38 -37.71 M233.21 0 C241.22 -9.22, 249.23 -18.44, 262.07 -33.21 M233.21 0 C243.78 -12.17, 254.36 -24.34, 262.07 -33.21 M243.84 -0.04 C251.91 -9.33, 259.98 -18.61, 269.42 -29.47 M243.84 -0.04 C251.79 -9.19, 259.75 -18.35, 269.42 -29.47 M254.47 -0.07 C262.88 -9.76, 271.3 -19.44, 276.77 -25.73 M254.47 -0.07 C263.06 -9.96, 271.65 -19.84, 276.77 -25.73 M265.1 -0.11 C271.65 -7.65, 278.2 -15.19, 283.47 -21.24 M265.1 -0.11 C271.61 -7.6, 278.12 -15.09, 283.47 -21.24 M275.73 -0.14 C280.74 -5.91, 285.76 -11.68, 290.82 -17.5 M275.73 -0.14 C280.91 -6.1, 286.09 -12.06, 290.82 -17.5 M286.36 -0.18 C290.84 -5.34, 295.33 -10.5, 298.17 -13.76 M286.36 -0.18 C288.98 -3.2, 291.61 -6.22, 298.17 -13.76 M296.99 -0.21 C300.27 -3.99, 303.55 -7.77, 305.52 -10.02 M296.99 -0.21 C300.37 -4.11, 303.76 -8, 305.52 -10.02 M307.62 -0.25 C308.79 -1.6, 309.96 -2.94, 312.21 -5.53 M307.62 -0.25 C309.42 -2.32, 311.23 -4.4, 312.21 -5.53 M318.25 -0.28 C318.68 -0.78, 319.12 -1.29, 319.56 -1.79 M318.25 -0.28 C318.57 -0.65, 318.89 -1.02, 319.56 -1.79 M0 0 C0 0, 0 0, 0 0 M0 0 C0 0, 0 0, 0 0 M12.04 -0.13 C10.53 -1.45, 9.02 -2.76, 7.51 -4.07 M12.04 -0.13 C10.53 -1.45, 9.01 -2.77, 7.51 -4.07 M24.08 -0.27 C22.03 -2.05, 19.98 -3.83, 15.03 -8.14 M24.08 -0.27 C21.61 -2.41, 19.14 -4.56, 15.03 -8.14 M36.88 0.26 C32.42 -3.61, 27.97 -7.48, 21.78 -12.86 M36.88 0.26 C33.11 -3.02, 29.35 -6.29, 21.78 -12.86 M48.92 0.12 C44.14 -4.03, 39.36 -8.19, 29.3 -16.93 M48.92 0.12 C43.88 -4.26, 38.84 -8.64, 29.3 -16.93 M60.96 -0.01 C54.06 -6.01, 47.16 -12.01, 36.81 -21 M60.96 -0.01 C53.19 -6.77, 45.41 -13.53, 36.81 -21 M73 -0.14 C62.48 -9.29, 51.96 -18.43, 43.57 -25.73 M73 -0.14 C64.38 -7.64, 55.76 -15.13, 43.57 -25.73 M85.04 -0.28 C73.61 -10.21, 62.18 -20.15, 50.32 -30.45 M85.04 -0.28 C77.16 -7.13, 69.28 -13.98, 50.32 -30.45 M97.84 0.25 C88.9 -7.52, 79.96 -15.29, 57.08 -35.18 M97.84 0.25 C82.44 -13.14, 67.04 -26.53, 57.08 -35.18 M109.88 0.11 C100.27 -8.24, 90.66 -16.59, 63.09 -40.56 M109.88 0.11 C91.94 -15.48, 74.01 -31.07, 63.09 -40.56 M121.92 -0.02 C109.56 -10.76, 97.2 -21.5, 69.84 -45.29 M121.92 -0.02 C108.78 -11.44, 95.63 -22.87, 69.84 -45.29 M133.96 -0.15 C119.62 -12.62, 105.28 -25.08, 76.6 -50.01 M133.96 -0.15 C113.7 -17.77, 93.44 -35.38, 76.6 -50.01 M146 -0.29 C122.2 -20.97, 98.4 -41.66, 82.6 -55.39 M146 -0.29 C133.28 -11.34, 120.57 -22.39, 82.6 -55.39 M158.8 0.24 C134.12 -21.22, 109.43 -42.67, 89.36 -60.12 M158.8 0.24 C141.92 -14.43, 125.05 -29.09, 89.36 -60.12 M170.84 0.1 C143.57 -23.59, 116.31 -47.29, 93.86 -66.81 M170.84 0.1 C151.55 -16.66, 132.26 -33.43, 93.86 -66.81 M182.88 -0.03 C151.3 -27.48, 119.71 -54.94, 97.59 -74.16 M182.88 -0.03 C157.09 -22.45, 131.3 -44.87, 97.59 -74.16 M194.92 -0.16 C171.51 -20.51, 148.11 -40.86, 101.33 -81.51 M194.92 -0.16 C159.91 -30.6, 124.9 -61.03, 101.33 -81.51 M206.96 -0.3 C176.46 -26.81, 145.96 -53.32, 105.07 -88.86 M206.96 -0.3 C173.83 -29.1, 140.7 -57.9, 105.07 -88.86 M219.75 0.23 C186.89 -28.34, 154.02 -56.91, 108.81 -96.21 M219.75 0.23 C187.95 -27.42, 156.14 -55.07, 108.81 -96.21 M231.8 0.09 C195.59 -31.38, 159.39 -62.85, 112.55 -103.56 M231.8 0.09 C202.14 -25.68, 172.48 -51.46, 112.55 -103.56 M243.84 -0.04 C207.91 -31.27, 171.98 -62.5, 116.29 -110.91 M243.84 -0.04 C212.25 -27.5, 180.66 -54.96, 116.29 -110.91 M255.88 -0.17 C220.74 -30.72, 185.6 -61.26, 138.9 -101.86 M255.88 -0.17 C214.45 -36.18, 173.03 -72.19, 138.9 -101.86 M267.92 -0.3 C234.19 -29.62, 200.47 -58.94, 172.07 -83.62 M267.92 -0.3 C243 -21.97, 218.08 -43.63, 172.07 -83.62 M280.71 0.22 C253.31 -23.61, 225.9 -47.43, 205.24 -65.39 M280.71 0.22 C260.62 -17.25, 240.52 -34.72, 205.24 -65.39 M292.75 0.08 C281.59 -9.62, 270.42 -19.33, 239.17 -46.5 M292.75 0.08 C278.26 -12.51, 263.77 -25.11, 239.17 -46.5 M304.8 -0.05 C294.35 -9.12, 283.91 -18.2, 272.34 -28.26 M304.8 -0.05 C293.31 -10.03, 281.82 -20.02, 272.34 -28.26 M316.84 -0.18 C313.57 -3.02, 310.3 -5.86, 306.27 -9.37 M316.84 -0.18 C312.93 -3.58, 309.02 -6.97, 306.27 -9.37" stroke="#ffc9c9" stroke-width="1" fill="none"/><path d="M0 0 C91.2 0, 182.4 0, 323.07 0 M323.07 0 C260.22 -34.71, 197.37 -69.42, 117.74 -113.4 M117.74 -113.4 C108.6 -95.5, 99.47 -77.61, 91.41 -61.8 M91.41 -61.8 C72.88 -47.57, 54.36 -33.34, 43.34 -24.87 M43.34 -24.87 C31.64 -18.16, 19.93 -11.44, 0 0 M0 0 C0 0, 0 0, 0 0" stroke="transparent" stroke-width="2.5" fill="none" stroke-dasharray="8 10"/></g></g><mask/><g stroke-linecap="round"><g transform="translate(166.76338417047415 158.51130872680943) rotate(0 -5.329070518200751e-15 88.38186004432383)"><path d="M0 0 C0 64.59, 0 129.18, 0 176.76" stroke="#e03131" stroke-width="1.5" fill="none" stroke-dasharray="8 9"/></g></g><mask/><g stroke-linecap="round"><g transform="translate(10 279.94976806640625) rotate(0 196.3229728496549 0)"><path d="M0 0 C89.84 0, 179.69 0, 392.65 0 M0 0 C138.7 0, 277.41 0, 392.65 0" stroke="#1e1e1e" stroke-width="4" fill="none"/></g></g><mask/><g stroke-linecap="round"><g transform="translate(49.95426940917969 334.3525390625) rotate(0 7.105427357601002e-15 -162.17626953125)"><path d="M0 0 C0 -112.26, 0 -224.51, 0 -324.35 M0 0 C0 -72.76, 0 -145.52, 0 -324.35" stroke="#1e1e1e" stroke-width="4" fill="none"/></g></g><mask/><g stroke-linecap="round"><g transform="translate(168.60518047101507 161.21653616872405) rotate(0 105.42677470897523 59.64657179317925)"><path d="M0 0 C51.78 29.29, 103.55 58.59, 210.85 119.29 M0 0 C82.5 46.67, 164.99 93.35, 210.85 119.29" stroke="#e03131" stroke-width="4" fill="none"/></g></g><mask/><g transform="translate(170.74937438964844 87.97512817382812) rotate(0 -57.80052185058594 94.38917541503906)" stroke="none"><path fill="#e03131" d="M 1.63,0.03 Q 1.63,0.03 1.73,1.63 1.82,3.22 1.82,4.55 1.83,5.89 1.89,7.03 1.94,8.18 2.02,9.49 2.10,10.81 2.15,12.31 2.20,13.82 2.17,15.44 2.14,17.05 2.09,18.68 2.03,20.31 2.01,21.79 1.99,23.26 1.99,24.84 1.98,26.42 1.98,28.01 1.98,29.60 2.02,31.23 2.06,32.86 2.09,34.59 2.11,36.32 2.13,38.07 2.14,39.82 2.09,41.62 2.04,43.41 1.95,45.11 1.85,46.81 1.75,48.58 1.65,50.35 1.49,52.21 1.34,54.07 1.19,55.85 1.04,57.62 0.84,59.35 0.64,61.09 0.44,62.68 0.24,64.27 0.00,65.72 -0.24,67.17 -0.43,68.42 -0.62,69.67 -0.80,70.74 -0.98,71.82 -1.33,73.86 -1.68,75.91 -1.90,77.05 -2.12,78.20 -2.47,79.74 -2.81,81.28 -3.23,82.62 -3.66,83.97 -4.06,85.12 -4.47,86.27 -5.15,87.93 -5.82,89.59 -6.53,91.41 -7.24,93.23 -7.77,94.44 -8.29,95.65 -8.80,96.77 -9.31,97.88 -9.83,98.91 -10.35,99.93 -10.88,100.93 -11.41,101.93 -11.99,102.96 -12.57,104.00 -13.16,105.02 -13.75,106.04 -14.30,107.10 -14.85,108.16 -15.47,109.20 -16.09,110.25 -16.74,111.21 -17.40,112.17 -18.03,113.20 -18.66,114.22 -19.39,115.36 -20.12,116.51 -21.01,117.78 -21.90,119.05 -22.96,120.45 -24.02,121.85 -25.11,123.35 -26.20,124.86 -27.43,126.34 -28.65,127.83 -31.64,130.80 -34.64,133.76 -36.68,135.78 -38.72,137.80 -40.58,139.49 -42.45,141.17 -44.17,142.65 -45.88,144.12 -47.58,145.46 -49.27,146.79 -50.80,148.05 -52.32,149.31 -53.85,150.60 -55.38,151.88 -56.79,153.15 -58.19,154.42 -59.73,155.73 -61.27,157.03 -62.75,158.20 -64.23,159.37 -65.83,160.46 -67.44,161.55 -69.58,163.13 -71.72,164.71 -73.32,165.98 -74.92,167.25 -76.44,168.33 -77.96,169.40 -79.30,170.33 -80.63,171.25 -81.85,172.13 -83.07,173.00 -84.37,173.75 -85.67,174.51 -86.71,175.16 -87.75,175.81 -88.86,176.48 -89.98,177.14 -91.00,177.78 -92.01,178.41 -93.12,179.05 -94.22,179.69 -95.38,180.29 -96.54,180.89 -97.69,181.49 -98.84,182.10 -99.91,182.75 -100.98,183.41 -102.06,184.18 -103.15,184.95 -104.37,185.80 -105.60,186.65 -106.85,187.44 -108.11,188.24 -109.26,188.90 -110.42,189.56 -113.17,189.52 -115.92,189.49 -116.11,189.39 -116.30,189.30 -116.45,189.15 -116.61,189.00 -116.70,188.81 -116.80,188.63 -116.83,188.41 -116.86,188.20 -116.82,188.00 -116.78,187.79 -116.68,187.60 -116.58,187.41 -116.42,187.27 -116.26,187.13 -116.07,187.04 -115.87,186.96 -115.66,186.94 -115.45,186.92 -115.24,186.97 -115.04,187.02 -114.86,187.13 -114.68,187.24 -114.54,187.41 -114.41,187.57 -114.33,187.77 -114.26,187.97 -114.25,188.18 -114.24,188.39 -114.30,188.60 -114.36,188.80 -114.49,188.98 -114.61,189.15 -114.78,189.27 -114.95,189.40 -115.15,189.46 -115.36,189.53 -115.57,189.52 -115.78,189.52 -115.98,189.45 -116.18,189.38 -116.35,189.25 -116.52,189.11 -116.63,188.94 -116.75,188.76 -116.80,188.55 -116.85,188.35 -116.84,188.13 -116.82,187.92 -116.74,187.73 -116.66,187.53 -116.52,187.37 -116.38,187.21 -116.19,187.11 -116.01,187.00 -115.80,186.96 -115.59,186.92 -115.38,186.94 -115.17,186.97 -115.17,186.97 -115.17,186.97 -114.07,186.02 -112.97,185.06 -111.92,184.46 -110.86,183.86 -109.70,183.14 -108.54,182.41 -107.32,181.57 -106.11,180.74 -104.88,179.88 -103.66,179.02 -102.44,178.29 -101.22,177.55 -100.05,176.94 -98.88,176.33 -97.83,175.79 -96.77,175.26 -95.73,174.66 -94.69,174.07 -93.63,173.43 -92.57,172.78 -91.50,172.14 -90.43,171.51 -89.31,170.82 -88.18,170.12 -87.09,169.51 -86.01,168.90 -84.75,168.00 -83.50,167.09 -82.18,166.19 -80.86,165.28 -79.45,164.30 -78.05,163.31 -76.38,161.99 -74.71,160.66 -72.48,159.03 -70.26,157.39 -68.79,156.40 -67.33,155.42 -65.92,154.31 -64.50,153.21 -63.02,151.96 -61.53,150.71 -60.06,149.39 -58.59,148.07 -57.04,146.77 -55.50,145.48 -53.93,144.17 -52.36,142.87 -50.74,141.60 -49.12,140.33 -47.44,138.91 -45.77,137.49 -43.98,135.89 -42.20,134.28 -40.16,132.26 -38.11,130.23 -35.28,127.46 -32.45,124.69 -31.31,123.32 -30.17,121.95 -29.04,120.42 -27.91,118.89 -26.90,117.56 -25.89,116.24 -25.05,115.06 -24.21,113.88 -23.50,112.77 -22.79,111.67 -21.52,109.72 -20.25,107.77 -19.69,106.84 -19.14,105.92 -18.54,104.78 -17.94,103.63 -17.36,102.62 -16.78,101.61 -16.23,100.65 -15.68,99.69 -14.69,97.78 -13.70,95.86 -13.21,94.80 -12.71,93.74 -12.23,92.62 -11.75,91.50 -11.01,89.63 -10.28,87.76 -9.64,86.21 -8.99,84.65 -8.61,83.59 -8.22,82.53 -7.85,81.37 -7.49,80.21 -7.15,78.76 -6.82,77.30 -6.40,75.14 -5.99,72.97 -5.65,70.96 -5.31,68.94 -5.11,67.66 -4.91,66.38 -4.68,65.03 -4.44,63.68 -4.24,62.11 -4.04,60.53 -3.84,58.87 -3.64,57.21 -3.48,55.41 -3.32,53.60 -3.11,51.82 -2.90,50.04 -2.76,48.29 -2.62,46.54 -2.52,44.91 -2.42,43.28 -2.35,41.56 -2.29,39.84 -2.29,38.10 -2.29,36.36 -2.30,34.66 -2.30,32.96 -2.34,31.27 -2.37,29.59 -2.36,27.99 -2.35,26.39 -2.34,24.79 -2.32,23.19 -2.29,21.67 -2.26,20.16 -2.20,18.54 -2.13,16.92 -2.07,15.40 -2.00,13.88 -1.99,12.42 -1.99,10.97 -2.01,9.63 -2.04,8.29 -2.04,7.06 -2.05,5.84 -2.01,4.48 -1.97,3.13 -1.80,1.54 -1.63,-0.03 -1.60,-0.23 -1.58,-0.43 -1.50,-0.61 -1.43,-0.79 -1.31,-0.95 -1.20,-1.11 -1.04,-1.24 -0.89,-1.37 -0.72,-1.45 -0.54,-1.54 -0.35,-1.58 -0.15,-1.63 0.03,-1.62 0.23,-1.62 0.42,-1.56 0.61,-1.51 0.79,-1.42 0.96,-1.32 1.10,-1.19 1.25,-1.05 1.36,-0.89 1.46,-0.72 1.53,-0.53 1.60,-0.35 1.61,-0.15 1.63,0.03 1.63,0.03 L 1.63,0.03 Z"/></g></svg>