<svg version="1.1" xmlns="http://www.w3.org/2000/svg" viewBox="0 0 445.1780014038086 384.77342987060547" width="445.1780014038086" height="384.77342987060547" filter="invert(93%) hue-rotate(180deg)">
  <!-- svg-source:excalidraw -->
  
  <defs>
    <style class="style-fonts">
      @font-face {
        font-family: "Virgil";
        src: url("https://excalidraw.com/Virgil.woff2");
      }
      @font-face {
        font-family: "Cascadia";
        src: url("https://excalidraw.com/Cascadia.woff2");
      }
    </style>
  </defs>
  <g stroke-linecap="round"><g transform="translate(132.72417449951172 250.31790161132812) rotate(0 151.22691345214844 0)"><path d="M0 0 C118.67 0, 237.34 0, 302.45 0 M0 0 C64.97 0, 129.93 0, 302.45 0" stroke="#1e1e1e" stroke-width="4" fill="none"/></g><g transform="translate(132.72417449951172 250.31790161132812) rotate(0 151.22691345214844 0)"><path d="M302.45 0 L288.86 6.34 L288.86 -6.34 L302.45 0" stroke="none" stroke-width="0" fill="#1e1e1e" fill-rule="evenodd"/><path d="M302.45 0 C297.12 2.49, 291.79 4.97, 288.86 6.34 M302.45 0 C299.53 1.36, 296.61 2.72, 288.86 6.34 M288.86 6.34 C288.86 1.78, 288.86 -2.79, 288.86 -6.34 M288.86 6.34 C288.86 2.99, 288.86 -0.35, 288.86 -6.34 M288.86 -6.34 C292.82 -4.49, 296.79 -2.64, 302.45 0 M288.86 -6.34 C292.69 -4.55, 296.53 -2.76, 302.45 0 M302.45 0 C302.45 0, 302.45 0, 302.45 0 M302.45 0 C302.45 0, 302.45 0, 302.45 0" stroke="#1e1e1e" stroke-width="4" fill="none"/></g></g><mask/><g stroke-linecap="round"><g transform="translate(133.7230453491211 251.05038452148438) rotate(0 -61.86152267456055 61.86152267456053)"><path d="M0 0 C-37.54 37.54, -75.09 75.09, -123.72 123.72 M0 0 C-34.03 34.03, -68.05 68.05, -123.72 123.72" stroke="#1e1e1e" stroke-width="4" fill="none"/></g><g transform="translate(133.7230453491211 251.05038452148438) rotate(0 -61.86152267456055 61.86152267456053)"><path d="M-123.72 123.72 L-118.59 109.63 L-109.63 118.59 L-123.72 123.72" stroke="none" stroke-width="0" fill="#1e1e1e" fill-rule="evenodd"/><path d="M-123.72 123.72 C-122.17 119.45, -120.61 115.17, -118.59 109.63 M-123.72 123.72 C-122.31 119.85, -120.9 115.97, -118.59 109.63 M-118.59 109.63 C-115.56 112.66, -112.53 115.69, -109.63 118.59 M-118.59 109.63 C-116.33 111.89, -114.07 114.15, -109.63 118.59 M-109.63 118.59 C-112.58 119.67, -115.54 120.74, -123.72 123.72 M-109.63 118.59 C-114.68 120.43, -119.73 122.27, -123.72 123.72 M-123.72 123.72 C-123.72 123.72, -123.72 123.72, -123.72 123.72 M-123.72 123.72 C-123.72 123.72, -123.72 123.72, -123.72 123.72" stroke="#1e1e1e" stroke-width="4" fill="none"/></g></g><mask/><g stroke-linecap="round"><g transform="translate(130.9928207397461 253.98025512695312) rotate(0 0 -121.99012756347656)"><path d="M0 0 C0 -71.14, 0 -142.28, 0 -243.98 M0 0 C0 -68.81, 0 -137.63, 0 -243.98" stroke="#1e1e1e" stroke-width="4" fill="none"/></g><g transform="translate(130.9928207397461 253.98025512695312) rotate(0 0 -121.99012756347656)"><path d="M0 -243.98 L6.34 -230.39 L-6.34 -230.39 L0 -243.98" stroke="none" stroke-width="0" fill="#1e1e1e" fill-rule="evenodd"/><path d="M0 -243.98 C1.85 -240.02, 3.7 -236.05, 6.34 -230.39 M0 -243.98 C1.79 -240.15, 3.58 -236.31, 6.34 -230.39 M6.34 -230.39 C3.34 -230.39, 0.33 -230.39, -6.34 -230.39 M6.34 -230.39 C1.57 -230.39, -3.19 -230.39, -6.34 -230.39 M-6.34 -230.39 C-3.84 -235.75, -1.34 -241.11, 0 -243.98 M-6.34 -230.39 C-4.4 -234.54, -2.47 -238.69, 0 -243.98 M0 -243.98 C0 -243.98, 0 -243.98, 0 -243.98 M0 -243.98 C0 -243.98, 0 -243.98, 0 -243.98" stroke="#1e1e1e" stroke-width="4" fill="none"/></g></g><mask/><g stroke-linecap="round"><g transform="translate(130.9928207397461 48.421600341796875) rotate(0 -39.221771240234375 142.1664276123047)"><path d="M0 0 C-18.59 67.38, -37.18 134.77, -78.44 284.33 M0 0 C-29.77 107.9, -59.54 215.8, -78.44 284.33" stroke="#e03131" stroke-width="4" fill="none"/></g></g><mask/><g stroke-linecap="round"><g transform="translate(130.65987396240234 49.087493896484375) rotate(0 124.39096069335938 98.51765441894531)"><path d="M0 0 C98.51 78.02, 197.01 156.03, 248.78 197.04 M0 0 C75.34 59.67, 150.67 119.33, 248.78 197.04" stroke="#e03131" stroke-width="4" fill="none"/></g></g><mask/><g stroke-linecap="round"><g transform="translate(52.08312225341797 335.0850524902344) rotate(0 163.31309509277344 -43.91510009765625)"><path d="M0 0 C92.38 -24.84, 184.76 -49.68, 326.63 -87.83 M0 0 C73.38 -19.73, 146.76 -39.47, 326.63 -87.83" stroke="#e03131" stroke-width="4" fill="none"/></g></g><mask/></svg>