<svg version="1.1" xmlns="http://www.w3.org/2000/svg" viewBox="0 0 278.0380554199219 273.96856689453125" width="278.0380554199219" height="273.96856689453125" filter="invert(93%) hue-rotate(180deg)">
  <!-- svg-source:excalidraw -->
  
  <defs>
    <style class="style-fonts">
      @font-face {
        font-family: "Virgil";
        src: url("https://excalidraw.com/Virgil.woff2");
      }
      @font-face {
        font-family: "Cascadia";
        src: url("https://excalidraw.com/Cascadia.woff2");
      }
    </style>
  </defs>
  <g stroke-linecap="round"><g transform="translate(37.18044282477794 107.35236443835274) rotate(0 103.92562874746247 63.687007848672806)" fill-rule="evenodd"><path d="M0 0 C0 0, 0 0, 0 0 M0 0 C0 0, 0 0, 0 0 M-0.26 6.4 C1.45 4.43, 3.16 2.46, 4.99 0.36 M-0.26 6.4 C1.06 4.87, 2.39 3.35, 4.99 0.36 M0.13 12.04 C3.08 8.65, 6.02 5.27, 10.63 -0.03 M0.13 12.04 C4.3 7.25, 8.46 2.46, 10.63 -0.03 M-0.13 18.44 C4.29 13.35, 8.71 8.27, 15.62 0.33 M-0.13 18.44 C4.27 13.37, 8.68 8.31, 15.62 0.33 M0.27 24.08 C8.53 14.58, 16.79 5.08, 21.26 -0.07 M0.27 24.08 C6.22 17.23, 12.18 10.38, 21.26 -0.07 M0 30.48 C10.37 18.55, 20.74 6.63, 26.25 0.29 M0 30.48 C9.66 19.38, 19.31 8.27, 26.25 0.29 M-0.26 36.88 C12.5 22.2, 25.26 7.52, 31.89 -0.1 M-0.26 36.88 C7.57 27.87, 15.4 18.86, 31.89 -0.1 M0.14 42.52 C10.09 31.07, 20.04 19.62, 36.88 0.26 M0.14 42.52 C12.99 27.74, 25.84 12.95, 36.88 0.26 M-0.12 48.92 C11.55 35.49, 23.23 22.06, 42.52 -0.14 M-0.12 48.92 C9.58 37.75, 19.29 26.58, 42.52 -0.14 M0.27 54.56 C13.15 39.75, 26.03 24.93, 47.51 0.22 M0.27 54.56 C14.24 38.49, 28.21 22.42, 47.51 0.22 M0.01 60.96 C19.41 38.65, 38.8 16.33, 52.49 0.58 M0.01 60.96 C11.81 47.38, 23.61 33.81, 52.49 0.58 M-0.25 67.36 C18.84 45.4, 37.93 23.44, 58.14 0.19 M-0.25 67.36 C18.04 46.32, 36.33 25.28, 58.14 0.19 M0.14 73 C24.85 44.58, 49.55 16.16, 63.12 0.55 M0.14 73 C16.61 54.06, 33.08 35.12, 63.12 0.55 M-0.12 79.4 C22.14 53.79, 44.4 28.19, 68.77 0.15 M-0.12 79.4 C23.81 51.87, 47.74 24.34, 68.77 0.15 M0.28 85.04 C15.88 67.09, 31.48 49.14, 73.75 0.51 M0.28 85.04 C15.07 68.02, 29.87 51, 73.75 0.51 M0.01 91.44 C24.86 62.86, 49.7 34.29, 79.4 0.12 M0.01 91.44 C30.25 56.66, 60.49 21.87, 79.4 0.12 M-0.25 97.84 C22 72.24, 44.26 46.64, 84.38 0.48 M-0.25 97.84 C29.03 64.16, 58.31 30.47, 84.38 0.48 M0.15 103.48 C27.86 71.6, 55.57 39.72, 89.37 0.84 M0.15 103.48 C21.01 79.48, 41.87 55.48, 89.37 0.84 M-0.11 109.88 C32.17 72.73, 64.46 35.59, 95.01 0.44 M-0.11 109.88 C22.15 84.26, 44.42 58.64, 95.01 0.44 M0.28 115.52 C29.49 81.92, 58.7 48.31, 100 0.8 M0.28 115.52 C36.55 73.79, 72.83 32.06, 100 0.8 M0.02 121.92 C42.26 73.33, 84.49 24.74, 105.64 0.41 M0.02 121.92 C25.59 92.5, 51.17 63.08, 105.64 0.41 M33.22 89.83 C64.12 54.28, 95.01 18.74, 110.63 0.77 M33.22 89.83 C53.8 66.15, 74.38 42.48, 110.63 0.77 M55.26 70.56 C77.52 44.96, 99.77 19.36, 116.27 0.38 M55.26 70.56 C78.69 43.62, 102.11 16.67, 116.27 0.38 M71.4 58.09 C87.9 39.11, 104.41 20.12, 121.26 0.74 M71.4 58.09 C85 42.45, 98.6 26.81, 121.26 0.74 M81.64 52.42 C95.99 35.9, 110.35 19.39, 126.91 0.34 M81.64 52.42 C95.71 36.23, 109.78 20.04, 126.91 0.34 M92.53 45.98 C106.41 30.01, 120.3 14.04, 131.89 0.7 M92.53 45.98 C106.48 29.93, 120.43 13.88, 131.89 0.7 M102.76 40.31 C113.08 28.43, 123.4 16.56, 136.88 1.06 M102.76 40.31 C113.4 28.07, 124.04 15.83, 136.88 1.06 M114.31 33.12 C122.53 23.67, 130.74 14.22, 142.52 0.67 M114.31 33.12 C123.3 22.78, 132.29 12.43, 142.52 0.67 M122.58 29.71 C130.78 20.28, 138.97 10.85, 147.51 1.03 M122.58 29.71 C130.39 20.72, 138.19 11.74, 147.51 1.03 M130.85 26.29 C138.33 17.68, 145.82 9.07, 153.15 0.63 M130.85 26.29 C135.54 20.89, 140.24 15.48, 153.15 0.63 M139.11 22.88 C146.09 14.85, 153.06 6.83, 158.14 0.99 M139.11 22.88 C144.42 16.78, 149.72 10.68, 158.14 0.99 M147.38 19.47 C151.28 14.98, 155.17 10.5, 163.78 0.6 M147.38 19.47 C152.51 13.56, 157.64 7.66, 163.78 0.6 M158.27 13.03 C161.94 8.82, 165.6 4.61, 168.77 0.96 M158.27 13.03 C160.48 10.5, 162.68 7.96, 168.77 0.96 M165.23 11.13 C167.88 8.07, 170.54 5.02, 173.76 1.32 M165.23 11.13 C168.17 7.74, 171.12 4.36, 173.76 1.32 M171.53 9.98 C174.45 6.62, 177.37 3.25, 179.4 0.92 M171.53 9.98 C174.25 6.85, 176.97 3.72, 179.4 0.92 M178.48 8.08 C179.86 6.48, 181.25 4.89, 184.39 1.28 M178.48 8.08 C180.05 6.27, 181.62 4.47, 184.39 1.28 M184.78 6.93 C186.31 5.17, 187.84 3.4, 190.03 0.89 M184.78 6.93 C186.68 4.74, 188.58 2.55, 190.03 0.89 M191.74 5.02 C192.54 4.1, 193.34 3.17, 195.02 1.25 M191.74 5.02 C192.62 4.01, 193.5 2.99, 195.02 1.25 M198.04 3.87 C198.9 2.88, 199.77 1.88, 200.66 0.85 M198.04 3.87 C199.02 2.75, 199.99 1.62, 200.66 0.85 M204.99 1.97 C205.22 1.71, 205.44 1.45, 205.65 1.21 M204.99 1.97 C205.25 1.68, 205.5 1.38, 205.65 1.21 M0.33 127.66 C0.33 127.66, 0.33 127.66, 0.33 127.66 M0.33 127.66 C0.33 127.66, 0.33 127.66, 0.33 127.66 M2.2 123.98 C1.52 123.4, 0.84 122.81, -0.07 122.02 M2.2 123.98 C1.53 123.41, 0.87 122.83, -0.07 122.02 M4.82 120.97 C3.65 119.95, 2.48 118.93, 0.29 117.03 M4.82 120.97 C3.81 120.09, 2.8 119.21, 0.29 117.03 M7.45 117.95 C5.68 116.41, 3.91 114.87, -0.1 111.39 M7.45 117.95 C5.24 116.03, 3.04 114.12, -0.1 111.39 M10.07 114.93 C8.1 113.22, 6.13 111.5, 0.26 106.4 M10.07 114.93 C7.36 112.57, 4.65 110.21, 0.26 106.4 M12.69 111.91 C9.62 109.24, 6.55 106.57, -0.14 100.76 M12.69 111.91 C8.47 108.24, 4.25 104.57, -0.14 100.76 M15.32 108.89 C9.75 104.05, 4.19 99.21, 0.22 95.77 M15.32 108.89 C9.96 104.23, 4.6 99.57, 0.22 95.77 M17.94 105.87 C11.31 100.1, 4.67 94.34, -0.17 90.13 M17.94 105.87 C10.93 99.77, 3.91 93.67, -0.17 90.13 M20.57 102.85 C12.51 95.85, 4.46 88.85, 0.19 85.14 M20.57 102.85 C13.22 96.47, 5.88 90.08, 0.19 85.14 M22.44 99.18 C17.25 94.67, 12.06 90.16, -0.2 79.5 M22.44 99.18 C15.94 93.53, 9.45 87.89, -0.2 79.5 M25.06 96.16 C18.19 90.18, 11.31 84.21, 0.16 74.51 M25.06 96.16 C19.3 91.15, 13.55 86.15, 0.16 74.51 M27.69 93.14 C21.97 88.17, 16.26 83.21, -0.24 68.87 M27.69 93.14 C19.72 86.21, 11.75 79.29, -0.24 68.87 M30.31 90.12 C19.18 80.45, 8.05 70.77, 0.12 63.88 M30.31 90.12 C19.94 81.1, 9.56 72.09, 0.12 63.88 M32.93 87.1 C25.23 80.4, 17.52 73.7, -0.27 58.24 M32.93 87.1 C23.71 79.08, 14.49 71.07, -0.27 58.24 M36.31 84.74 C22.04 72.33, 7.77 59.92, 0.09 53.25 M36.31 84.74 C25.02 74.92, 13.73 65.1, 0.09 53.25 M38.94 81.72 C30.56 74.44, 22.18 67.16, -0.31 47.61 M38.94 81.72 C23.36 68.18, 7.78 54.64, -0.31 47.61 M42.32 79.36 C32.39 70.73, 22.46 62.1, 0.05 42.62 M42.32 79.36 C25.96 65.14, 9.61 50.93, 0.05 42.62 M44.94 76.34 C35.3 67.96, 25.67 59.58, -0.34 36.98 M44.94 76.34 C35.3 67.96, 25.67 59.59, -0.34 36.98 M48.32 73.98 C32.05 59.83, 15.77 45.69, 0.02 31.99 M48.32 73.98 C35.86 63.15, 23.4 52.32, 0.02 31.99 M50.94 70.96 C37.76 59.49, 24.57 48.03, -0.38 26.35 M50.94 70.96 C33.85 56.1, 16.76 41.24, -0.38 26.35 M54.32 68.59 C37.59 54.05, 20.85 39.5, -0.02 21.36 M54.32 68.59 C40.67 56.73, 27.02 44.86, -0.02 21.36 M57.7 66.23 C38.48 49.52, 19.25 32.81, 0.34 16.37 M57.7 66.23 C46.07 56.12, 34.44 46.01, 0.34 16.37 M60.33 63.21 C41.08 46.49, 21.84 29.76, -0.05 10.73 M60.33 63.21 C40.36 45.86, 20.4 28.51, -0.05 10.73 M63.7 60.85 C38.4 38.85, 13.1 16.86, 0.31 5.74 M63.7 60.85 C44.39 44.06, 25.07 27.27, 0.31 5.74 M66.33 57.83 C46.27 40.39, 26.21 22.95, -0.09 0.1 M66.33 57.83 C46.57 40.66, 26.81 23.48, -0.09 0.1 M69.71 55.47 C45.31 34.26, 20.91 13.05, 2.54 -2.92 M69.71 55.47 C45.61 34.52, 21.51 13.57, 2.54 -2.92 M73.09 53.11 C50.41 33.39, 27.73 13.68, 8.94 -2.66 M73.09 53.11 C48.02 31.32, 22.96 9.53, 8.94 -2.66 M77.22 51.4 C58.17 34.84, 39.12 18.28, 14.58 -3.05 M77.22 51.4 C57 33.82, 36.79 16.25, 14.58 -3.05 M80.6 49.04 C60.86 31.87, 41.11 14.71, 20.98 -2.79 M80.6 49.04 C63.51 34.18, 46.42 19.32, 20.98 -2.79 M83.98 46.67 C69.2 33.83, 54.42 20.98, 27.38 -2.53 M83.98 46.67 C61.81 27.4, 39.64 8.13, 27.38 -2.53 M88.11 44.97 C74.04 32.74, 59.97 20.5, 33.02 -2.93 M88.11 44.97 C71.63 30.64, 55.14 16.31, 33.02 -2.93 M91.49 42.6 C79.21 31.93, 66.93 21.25, 39.42 -2.66 M91.49 42.6 C70.76 24.58, 50.02 6.56, 39.42 -2.66 M95.62 40.9 C80.22 27.5, 64.81 14.11, 45.81 -2.4 M95.62 40.9 C76.71 24.46, 57.8 8.02, 45.81 -2.4 M99 38.53 C80.33 22.3, 61.65 6.07, 51.46 -2.8 M99 38.53 C88.91 29.76, 78.81 20.98, 51.46 -2.8 M102.38 36.17 C91.77 26.94, 81.15 17.72, 57.85 -2.54 M102.38 36.17 C88.27 23.9, 74.15 11.63, 57.85 -2.54 M106.52 34.47 C95.59 24.97, 84.67 15.47, 64.25 -2.27 M106.52 34.47 C92.07 21.9, 77.62 9.34, 64.25 -2.27 M109.9 32.1 C95.87 19.91, 81.85 7.72, 69.9 -2.67 M109.9 32.1 C96.39 20.37, 82.89 8.63, 69.9 -2.67 M113.27 29.74 C101.35 19.38, 89.43 9.01, 76.29 -2.41 M113.27 29.74 C101 19.07, 88.73 8.41, 76.29 -2.41 M117.41 28.03 C106.18 18.27, 94.95 8.51, 81.94 -2.8 M117.41 28.03 C106.59 18.63, 95.77 9.22, 81.94 -2.8 M121.54 26.33 C113.7 19.51, 105.86 12.7, 88.33 -2.54 M121.54 26.33 C109.43 15.79, 97.31 5.26, 88.33 -2.54 M125.67 24.62 C114.25 14.69, 102.83 4.76, 94.73 -2.28 M125.67 24.62 C115.74 15.98, 105.81 7.35, 94.73 -2.28 M129.81 22.91 C123.51 17.44, 117.21 11.96, 100.37 -2.67 M129.81 22.91 C122.13 16.23, 114.44 9.56, 100.37 -2.67 M133.94 21.21 C125.68 14.03, 117.43 6.85, 106.77 -2.41 M133.94 21.21 C125.13 13.55, 116.32 5.89, 106.77 -2.41 M138.08 19.5 C132.28 14.46, 126.49 9.42, 113.17 -2.15 M138.08 19.5 C131.15 13.48, 124.23 7.46, 113.17 -2.15 M142.96 18.45 C136.23 12.59, 129.49 6.74, 118.81 -2.55 M142.96 18.45 C135.93 12.33, 128.9 6.22, 118.81 -2.55 M147.1 16.74 C142.03 12.34, 136.96 7.93, 125.21 -2.28 M147.1 16.74 C140.3 10.83, 133.49 4.92, 125.21 -2.28 M151.23 15.04 C147.02 11.37, 142.81 7.71, 131.61 -2.02 M151.23 15.04 C146.61 11.02, 141.98 6.99, 131.61 -2.02 M155.37 13.33 C149.71 8.41, 144.05 3.49, 137.25 -2.42 M155.37 13.33 C150.07 8.73, 144.78 4.13, 137.25 -2.42 M159.5 11.62 C153.25 6.19, 147.01 0.76, 143.65 -2.16 M159.5 11.62 C156.19 8.74, 152.87 5.86, 143.65 -2.16 M164.39 10.57 C159.52 6.34, 154.66 2.11, 150.05 -1.89 M164.39 10.57 C158.76 5.68, 153.14 0.79, 150.05 -1.89 M168.52 8.86 C165.15 5.93, 161.78 3, 155.69 -2.29 M168.52 8.86 C164.67 5.52, 160.82 2.17, 155.69 -2.29 M173.41 7.81 C169.57 4.48, 165.73 1.14, 162.09 -2.03 M173.41 7.81 C170.94 5.66, 168.46 3.51, 162.09 -2.03 M178.3 6.76 C176.05 4.81, 173.81 2.86, 168.49 -1.77 M178.3 6.76 C175.99 4.76, 173.68 2.75, 168.49 -1.77 M183.19 5.71 C180.46 3.34, 177.73 0.97, 174.13 -2.16 M183.19 5.71 C181.23 4.01, 179.27 2.31, 174.13 -2.16 M188.07 4.66 C186.1 2.94, 184.12 1.22, 180.53 -1.9 M188.07 4.66 C185.22 2.18, 182.36 -0.31, 180.53 -1.9 M192.96 3.61 C190.69 1.63, 188.41 -0.35, 186.93 -1.64 M192.96 3.61 C191.35 2.21, 189.73 0.8, 186.93 -1.64 M197.85 2.56 C196.28 1.2, 194.72 -0.16, 192.57 -2.03 M197.85 2.56 C196.1 1.04, 194.35 -0.48, 192.57 -2.03 M202.74 1.51 C201.68 0.59, 200.62 -0.34, 198.97 -1.77 M202.74 1.51 C201.63 0.55, 200.52 -0.42, 198.97 -1.77" stroke="#ffc9c9" stroke-width="0.5" fill="none"/><path d="M0 0 C55.06 0.31, 110.12 0.61, 207.85 1.16 M0 0 C66.43 0.37, 132.86 0.74, 207.85 1.16 M207.85 1.16 C195.86 3.95, 183.87 6.73, 158.06 12.74 M207.85 1.16 C188.88 5.57, 169.91 9.98, 158.06 12.74 M158.06 12.74 C141.64 19.39, 125.21 26.04, 112.32 31.26 M158.06 12.74 C148.12 16.76, 138.19 20.79, 112.32 31.26 M112.32 31.26 C96.71 40.21, 81.1 49.16, 68.9 56.16 M112.32 31.26 C100.95 37.78, 89.58 44.3, 68.9 56.16 M68.9 56.16 C59.94 64, 50.98 71.84, 31.84 88.58 M68.9 56.16 C54.98 68.33, 41.07 80.51, 31.84 88.58 M31.84 88.58 C25.1 96.67, 18.36 104.76, 8.68 116.37 M31.84 88.58 C26.72 94.73, 21.6 100.88, 8.68 116.37 M8.68 116.37 C6.06 119.7, 3.43 123.02, 0 127.37 M8.68 116.37 C6.6 119.01, 4.52 121.64, 0 127.37 M0 127.37 C0 101.14, 0 74.91, 0 0 M0 127.37 C0 98.97, 0 70.57, 0 0 M0 0 C0 0, 0 0, 0 0 M0 0 C0 0, 0 0, 0 0" stroke="#e03131" stroke-width="1" fill="none"/></g></g><mask/><g transform="translate(37.1734619140625 238.46319580078125) rotate(0 103.94769287109375 -65.48976135253906)" stroke="none"><path fill="#e03131" d="M -1.16,-0.76 Q -1.16,-0.76 -0.63,-1.58 -0.10,-2.41 0.72,-3.65 1.55,-4.89 2.43,-6.17 3.31,-7.45 4.27,-8.86 5.22,-10.28 6.36,-11.82 7.49,-13.35 8.79,-15.44 10.09,-17.52 10.80,-18.46 11.52,-19.39 12.75,-20.85 13.99,-22.31 15.33,-23.69 16.67,-25.08 17.88,-26.44 19.09,-27.80 20.53,-29.22 21.98,-30.64 23.32,-32.22 24.66,-33.80 26.06,-35.66 27.47,-37.51 28.16,-38.43 28.85,-39.36 29.55,-40.29 30.25,-41.22 31.11,-42.18 31.96,-43.14 32.69,-44.01 33.43,-44.88 34.19,-45.70 34.95,-46.52 35.78,-47.36 36.61,-48.19 37.39,-48.94 38.17,-49.68 39.64,-51.11 41.12,-52.54 42.72,-53.97 44.33,-55.40 45.25,-56.16 46.17,-56.92 47.06,-57.63 47.95,-58.34 48.81,-59.05 49.67,-59.76 50.51,-60.55 51.34,-61.34 52.41,-62.13 53.48,-62.92 54.49,-63.67 55.51,-64.42 56.59,-65.27 57.68,-66.12 58.82,-67.00 59.96,-67.88 61.10,-68.74 62.25,-69.60 63.45,-70.41 64.65,-71.21 65.76,-72.01 66.88,-72.81 68.00,-73.75 69.13,-74.70 70.34,-75.63 71.55,-76.56 72.78,-77.38 74.02,-78.20 75.20,-79.02 76.38,-79.85 77.58,-80.69 78.77,-81.54 79.90,-82.33 81.02,-83.11 82.14,-83.87 83.25,-84.63 84.36,-85.42 85.47,-86.21 86.60,-86.92 87.72,-87.63 88.82,-88.30 89.92,-88.98 91.06,-89.63 92.20,-90.27 93.29,-90.92 94.39,-91.56 95.49,-92.17 96.58,-92.79 97.71,-93.38 98.84,-93.97 100.04,-94.55 101.24,-95.13 102.35,-95.71 103.47,-96.29 104.55,-96.88 105.63,-97.47 106.72,-98.03 107.81,-98.60 108.89,-99.14 109.97,-99.69 111.02,-100.26 112.07,-100.83 113.12,-101.42 114.17,-102.02 115.20,-102.65 116.23,-103.28 117.32,-103.88 118.40,-104.48 119.51,-104.99 120.61,-105.51 121.60,-105.96 122.59,-106.42 123.65,-106.86 124.71,-107.30 125.81,-107.73 126.91,-108.17 127.97,-108.61 129.03,-109.06 130.71,-109.73 132.38,-110.41 133.72,-110.89 135.07,-111.38 136.14,-111.74 137.21,-112.10 138.24,-112.48 139.26,-112.85 140.34,-113.21 141.41,-113.57 142.59,-113.89 143.78,-114.20 144.88,-114.52 145.98,-114.83 147.81,-115.48 149.64,-116.12 151.54,-116.82 153.44,-117.51 155.29,-118.10 157.15,-118.69 158.80,-119.25 160.46,-119.82 162.34,-120.33 164.23,-120.84 165.85,-121.34 167.47,-121.83 169.21,-122.36 170.96,-122.90 172.55,-123.34 174.15,-123.79 175.68,-124.20 177.21,-124.61 178.65,-125.07 180.08,-125.53 181.51,-125.96 182.93,-126.38 184.45,-126.73 185.96,-127.08 187.30,-127.55 188.65,-128.01 189.88,-128.48 191.12,-128.94 192.39,-129.23 193.66,-129.52 194.76,-129.81 195.86,-130.10 197.06,-130.34 198.26,-130.58 199.80,-130.96 201.34,-131.35 202.45,-131.54 203.57,-131.74 205.41,-131.98 207.26,-132.21 207.47,-132.21 207.68,-132.20 207.88,-132.13 208.08,-132.06 208.25,-131.93 208.42,-131.79 208.53,-131.62 208.65,-131.44 208.70,-131.23 208.75,-131.03 208.74,-130.81 208.72,-130.60 208.64,-130.41 208.56,-130.21 208.41,-130.05 208.27,-129.89 208.09,-129.79 207.91,-129.68 207.70,-129.64 207.49,-129.60 207.28,-129.63 207.07,-129.65 206.88,-129.75 206.68,-129.84 206.53,-129.99 206.38,-130.14 206.29,-130.33 206.19,-130.52 206.16,-130.73 206.13,-130.94 206.17,-131.15 206.21,-131.36 206.31,-131.54 206.42,-131.73 206.57,-131.87 206.73,-132.01 206.92,-132.10 207.12,-132.18 207.33,-132.20 207.54,-132.22 207.75,-132.17 207.96,-132.12 208.13,-132.01 208.31,-131.89 208.45,-131.73 208.58,-131.56 208.66,-131.37 208.73,-131.17 208.74,-130.95 208.75,-130.74 208.69,-130.54 208.62,-130.33 208.50,-130.16 208.38,-129.99 208.21,-129.86 208.04,-129.74 207.83,-129.67 207.63,-129.61 207.63,-129.61 207.63,-129.61 204.86,-129.09 202.10,-128.58 200.95,-128.26 199.80,-127.94 198.25,-127.65 196.70,-127.35 195.50,-127.03 194.30,-126.71 193.19,-126.47 192.08,-126.23 190.81,-125.76 189.54,-125.28 188.07,-124.78 186.59,-124.28 185.11,-123.94 183.63,-123.59 182.34,-123.21 181.04,-122.82 179.49,-122.32 177.93,-121.83 176.39,-121.42 174.86,-121.02 173.33,-120.59 171.79,-120.16 170.05,-119.63 168.30,-119.11 166.60,-118.58 164.89,-118.05 163.12,-117.57 161.35,-117.08 159.71,-116.53 158.07,-115.98 156.28,-115.41 154.50,-114.84 152.55,-114.13 150.61,-113.42 148.69,-112.75 146.77,-112.07 145.64,-111.75 144.52,-111.42 143.42,-111.13 142.33,-110.84 141.29,-110.50 140.25,-110.15 139.19,-109.76 138.13,-109.38 137.08,-109.03 136.04,-108.68 134.75,-108.21 133.45,-107.74 131.80,-107.08 130.14,-106.41 129.05,-105.96 127.96,-105.50 126.88,-105.08 125.80,-104.65 124.80,-104.24 123.79,-103.83 122.81,-103.37 121.82,-102.91 120.80,-102.43 119.78,-101.96 118.76,-101.40 117.73,-100.83 116.66,-100.18 115.60,-99.53 114.52,-98.91 113.44,-98.29 112.35,-97.71 111.27,-97.13 110.20,-96.59 109.14,-96.04 108.07,-95.49 107.01,-94.94 105.90,-94.34 104.79,-93.74 103.64,-93.14 102.49,-92.54 101.33,-91.98 100.17,-91.42 99.07,-90.85 97.98,-90.27 96.91,-89.68 95.84,-89.09 94.73,-88.43 93.61,-87.77 92.52,-87.16 91.42,-86.54 90.33,-85.87 89.24,-85.20 88.19,-84.54 87.13,-83.88 86.00,-83.07 84.86,-82.27 83.76,-81.52 82.66,-80.77 81.54,-79.99 80.43,-79.21 79.22,-78.35 78.02,-77.49 76.81,-76.65 75.60,-75.81 74.45,-75.04 73.30,-74.28 72.14,-73.39 70.97,-72.49 69.76,-71.49 68.55,-70.48 67.40,-69.65 66.25,-68.83 65.11,-68.07 63.97,-67.31 62.84,-66.46 61.72,-65.61 60.58,-64.73 59.44,-63.85 58.32,-62.99 57.20,-62.13 56.18,-61.37 55.16,-60.62 54.23,-59.95 53.30,-59.27 52.39,-58.42 51.49,-57.56 50.60,-56.84 49.72,-56.11 48.85,-55.42 47.98,-54.73 47.10,-54.01 46.22,-53.28 45.37,-52.52 44.51,-51.76 43.03,-50.43 41.55,-49.10 40.08,-47.65 38.62,-46.20 37.11,-44.62 35.60,-43.05 34.84,-42.15 34.08,-41.25 33.30,-40.38 32.53,-39.51 31.83,-38.58 31.13,-37.65 30.42,-36.71 29.72,-35.77 28.93,-34.76 28.15,-33.75 27.46,-32.83 26.78,-31.90 26.05,-31.09 25.32,-30.28 23.89,-28.79 22.47,-27.29 21.23,-25.93 19.99,-24.57 18.69,-23.18 17.39,-21.79 16.16,-20.40 14.93,-19.00 13.70,-17.50 12.46,-15.99 11.16,-13.90 9.85,-11.81 8.71,-10.26 7.57,-8.71 6.60,-7.28 5.62,-5.84 4.79,-4.64 3.96,-3.45 3.10,-2.16 2.25,-0.87 1.70,-0.05 1.16,0.76 1.06,0.89 0.95,1.01 0.81,1.11 0.68,1.21 0.52,1.28 0.37,1.34 0.20,1.36 0.03,1.39 -0.12,1.37 -0.29,1.36 -0.45,1.30 -0.61,1.25 -0.75,1.16 -0.89,1.06 -1.01,0.94 -1.12,0.82 -1.20,0.67 -1.29,0.52 -1.33,0.36 -1.37,0.20 -1.38,0.03 -1.38,-0.13 -1.35,-0.29 -1.31,-0.45 -1.24,-0.61 -1.16,-0.76 -1.16,-0.76 L -1.16,-0.76 Z"/></g><g stroke-linecap="round"><g transform="translate(36.30322265625 263.96856689453125) rotate(0 1.0658141036401503e-14 -126.98428344726562)"><path d="M0 0 C0 -60.95, 0 -121.89, 0 -253.97 M0 0 C0 -87.67, 0 -175.34, 0 -253.97" stroke="#1e1e1e" stroke-width="2" fill="none"/></g></g><mask/><g stroke-linecap="round"><g transform="translate(10 237.66607666015625) rotate(0 129.01902770996094 0)"><path d="M0 0 C76.2 0, 152.39 0, 258.04 0 M0 0 C83.27 0, 166.54 0, 258.04 0" stroke="#1e1e1e" stroke-width="2" fill="none"/></g></g><mask/><g stroke-linecap="round"><g transform="translate(247.99429321289062 107.28579711914062) rotate(0 -105.67906188964844 0)"><path d="M0 0 C-52.01 0, -104.01 0, -211.36 0 M0 0 C-62.02 0, -124.03 0, -211.36 0" stroke="#e03131" stroke-width="4" fill="none"/></g></g><mask/><g stroke-linecap="round"><g transform="translate(37.18044282477794 107.35236443835274) rotate(0 102.76770061828209 0)"><path d="M0 0 C51.34 0, 102.68 0, 205.54 0 M0 0 C66.93 0, 133.87 0, 205.54 0" stroke="#e03131" stroke-width="1" fill="none"/></g></g><mask/></svg>