<svg version="1.1" xmlns="http://www.w3.org/2000/svg" viewBox="0 0 348.0245819091797 345.21815490722656" width="348.0245819091797" height="345.21815490722656" filter="invert(93%) hue-rotate(180deg)">
  <!-- svg-source:excalidraw -->
  
  <defs>
    <style class="style-fonts">
      @font-face {
        font-family: "Virgil";
        src: url("https://excalidraw.com/Virgil.woff2");
      }
      @font-face {
        font-family: "Cascadia";
        src: url("https://excalidraw.com/Cascadia.woff2");
      }
    </style>
  </defs>
  <g stroke-linecap="round"><g transform="translate(170.4164276123047 335.21815490722656) rotate(0 1.0658141036401503e-14 -162.60907745361328)"><path d="M0 0 C0 -111.42, 0 -222.84, 0 -325.22 M0 0 C0 -102.41, 0 -204.83, 0 -325.22" stroke="#1e1e1e" stroke-width="4" fill="none"/></g></g><mask/><g stroke-linecap="round"><g transform="translate(10 171.2772979736328) rotate(0 164.01229095458984 0)"><path d="M0 0 C113.66 0, 227.33 0, 328.02 0 M0 0 C68.33 0, 136.67 0, 328.02 0" stroke="#1e1e1e" stroke-width="4" fill="none"/></g></g><mask/><g stroke-linecap="round" transform="translate(72.12895202636719 70.46238708496094) rotate(0 98.11813354492188 98.11813354492188)"><path d="M22.57 35.52 C22.57 35.52, 22.57 35.52, 22.57 35.52 M22.57 35.52 C22.57 35.52, 22.57 35.52, 22.57 35.52 M4.47 80.74 C23.91 58.38, 43.35 36.02, 70.08 5.27 M4.47 80.74 C24.43 57.78, 44.38 34.83, 70.08 5.27 M1.46 108.59 C22.65 84.22, 43.83 59.84, 92.65 3.69 M1.46 108.59 C32.81 72.53, 64.15 36.47, 92.65 3.69 M5.66 128.15 C28.68 101.67, 51.69 75.19, 112.6 5.13 M5.66 128.15 C33.97 95.58, 62.27 63.02, 112.6 5.13 M12.49 144.68 C55.36 95.36, 98.24 46.04, 131.23 8.08 M12.49 144.68 C47.44 104.47, 82.39 64.27, 131.23 8.08 M22.59 157.44 C67.46 105.83, 112.32 54.22, 147.25 14.05 M22.59 157.44 C58.63 115.99, 94.67 74.53, 147.25 14.05 M32.05 170.96 C60.3 138.45, 88.56 105.94, 160.63 23.03 M32.05 170.96 C69.44 127.94, 106.83 84.92, 160.63 23.03 M44.78 180.7 C71.64 149.8, 98.5 118.9, 172.71 33.53 M44.78 180.7 C80.96 139.07, 117.15 97.44, 172.71 33.53 M58.16 189.69 C83.75 160.25, 109.34 130.81, 182.82 46.29 M58.16 189.69 C101.36 140, 144.55 90.31, 182.82 46.29 M74.18 195.66 C100.82 165.01, 127.45 134.37, 190.3 62.07 M74.18 195.66 C99.39 166.65, 124.6 137.65, 190.3 62.07 M92.16 199.36 C133.5 151.8, 174.84 104.24, 195.81 80.12 M92.16 199.36 C117.07 170.7, 141.99 142.03, 195.81 80.12 M117.35 194.76 C139.22 169.61, 161.08 144.46, 199.36 100.42 M117.35 194.76 C144.3 163.76, 171.26 132.76, 199.36 100.42 M145.83 186.39 C161.68 168.16, 177.52 149.93, 189.13 136.58 M145.83 186.39 C159.56 170.6, 173.28 154.81, 189.13 136.58 M35.72 173.83 C35.72 173.83, 35.72 173.83, 35.72 173.83 M35.72 173.83 C35.72 173.83, 35.72 173.83, 35.72 173.83 M80.93 191.93 C53.74 168.3, 26.56 144.67, 4.71 125.67 M80.93 191.93 C59.08 172.94, 37.23 153.95, 4.71 125.67 M108.79 194.95 C76.3 166.71, 43.81 138.46, 3.88 103.76 M108.79 194.95 C71.16 162.24, 33.53 129.53, 3.88 103.76 M128.34 190.75 C90.56 157.9, 52.78 125.06, 4.57 83.15 M128.34 190.75 C100.49 166.53, 72.63 142.32, 4.57 83.15 M144.88 183.92 C99.21 144.23, 53.55 104.53, 8.27 65.17 M144.88 183.92 C106.78 150.8, 68.68 117.68, 8.27 65.17 M157.64 173.81 C124.6 145.09, 91.56 116.37, 14.24 49.16 M157.64 173.81 C104.05 127.23, 50.46 80.64, 14.24 49.16 M170.4 163.7 C138.76 136.2, 107.12 108.7, 22.47 35.12 M170.4 163.7 C114.24 114.88, 58.08 66.06, 22.47 35.12 M180.89 151.63 C146.28 121.54, 111.66 91.45, 33.73 23.7 M180.89 151.63 C130.9 108.17, 80.91 64.71, 33.73 23.7 M189.88 138.24 C144.16 98.5, 98.44 58.75, 46.49 13.59 M189.88 138.24 C157.49 110.08, 125.09 81.92, 46.49 13.59 M195.85 122.23 C154.83 86.57, 113.8 50.9, 62.27 6.11 M195.85 122.23 C156.35 87.89, 116.84 53.55, 62.27 6.11 M198.8 103.59 C174.65 82.6, 150.51 61.61, 80.31 0.59 M198.8 103.59 C169.39 78.03, 139.99 52.47, 80.31 0.59 M194.2 78.4 C164.45 52.53, 134.69 26.67, 100.62 -2.95 M194.2 78.4 C158.63 47.47, 123.06 16.55, 100.62 -2.95 M185.83 49.92 C175.49 40.93, 165.14 31.93, 136.02 6.62 M185.83 49.92 C168.77 35.09, 151.71 20.25, 136.02 6.62" stroke="#ffc9c9" stroke-width="2" fill="none"/><path d="M196.24 98.12 C196.24 101.32, 196.08 104.55, 195.76 107.74 C195.45 110.93, 194.98 114.12, 194.35 117.26 C193.73 120.4, 192.94 123.53, 192.01 126.6 C191.08 129.67, 189.99 132.7, 188.77 135.67 C187.54 138.63, 186.16 141.54, 184.65 144.37 C183.14 147.2, 181.48 149.96, 179.7 152.63 C177.92 155.3, 176 157.89, 173.96 160.36 C171.93 162.84, 169.76 165.23, 167.5 167.5 C165.23 169.76, 162.84 171.93, 160.36 173.96 C157.89 176, 155.3 177.92, 152.63 179.7 C149.96 181.48, 147.2 183.14, 144.37 184.65 C141.54 186.16, 138.63 187.54, 135.67 188.77 C132.7 189.99, 129.67 191.08, 126.6 192.01 C123.53 192.94, 120.4 193.73, 117.26 194.35 C114.12 194.98, 110.93 195.45, 107.74 195.76 C104.55 196.08, 101.32 196.24, 98.12 196.24 C94.91 196.24, 91.69 196.08, 88.5 195.76 C85.31 195.45, 82.12 194.98, 78.98 194.35 C75.83 193.73, 72.7 192.94, 69.64 192.01 C66.57 191.08, 63.53 189.99, 60.57 188.77 C57.61 187.54, 54.69 186.16, 51.87 184.65 C49.04 183.14, 46.27 181.48, 43.61 179.7 C40.94 177.92, 38.35 176, 35.87 173.96 C33.39 171.93, 31 169.76, 28.74 167.5 C26.47 165.23, 24.31 162.84, 22.27 160.36 C20.24 157.89, 18.32 155.3, 16.54 152.63 C14.75 149.96, 13.1 147.2, 11.59 144.37 C10.07 141.54, 8.7 138.63, 7.47 135.67 C6.24 132.7, 5.16 129.67, 4.22 126.6 C3.29 123.53, 2.51 120.4, 1.89 117.26 C1.26 114.12, 0.79 110.93, 0.47 107.74 C0.16 104.55, 0 101.32, 0 98.12 C0 94.91, 0.16 91.69, 0.47 88.5 C0.79 85.31, 1.26 82.12, 1.89 78.98 C2.51 75.83, 3.29 72.7, 4.22 69.64 C5.16 66.57, 6.24 63.53, 7.47 60.57 C8.7 57.61, 10.07 54.69, 11.59 51.87 C13.1 49.04, 14.75 46.27, 16.54 43.61 C18.32 40.94, 20.24 38.35, 22.27 35.87 C24.31 33.39, 26.47 31, 28.74 28.74 C31 26.47, 33.39 24.31, 35.87 22.27 C38.35 20.24, 40.94 18.32, 43.61 16.54 C46.27 14.75, 49.04 13.1, 51.87 11.59 C54.69 10.07, 57.61 8.7, 60.57 7.47 C63.53 6.24, 66.57 5.16, 69.64 4.22 C72.7 3.29, 75.83 2.51, 78.98 1.89 C82.12 1.26, 85.31 0.79, 88.5 0.47 C91.69 0.16, 94.91 0, 98.12 0 C101.32 0, 104.55 0.16, 107.74 0.47 C110.93 0.79, 114.12 1.26, 117.26 1.89 C120.4 2.51, 123.53 3.29, 126.6 4.22 C129.67 5.16, 132.7 6.24, 135.67 7.47 C138.63 8.7, 141.54 10.07, 144.37 11.59 C147.2 13.1, 149.96 14.75, 152.63 16.54 C155.3 18.32, 157.89 20.24, 160.36 22.27 C162.84 24.31, 165.23 26.47, 167.5 28.74 C169.76 31, 171.93 33.39, 173.96 35.87 C176 38.35, 177.92 40.94, 179.7 43.61 C181.48 46.27, 183.14 49.04, 184.65 51.87 C186.16 54.69, 187.54 57.61, 188.77 60.57 C189.99 63.53, 191.08 66.57, 192.01 69.64 C192.94 72.7, 193.73 75.83, 194.35 78.98 C194.98 82.12, 195.45 85.31, 195.76 88.5 C196.08 91.69, 196.16 96.52, 196.24 98.12 C196.32 99.72, 196.32 96.52, 196.24 98.12" stroke="#e03131" stroke-width="4" fill="none"/></g><g stroke-linecap="round" transform="translate(151.2383575439453 114.27754211425781) rotate(0 56.90155029296875 56.90155029296875)"><path d="M113.8 56.9 C113.8 59.19, 113.66 61.49, 113.39 63.76 C113.11 66.03, 112.7 68.3, 112.15 70.52 C111.6 72.74, 110.92 74.94, 110.11 77.08 C109.29 79.22, 108.35 81.32, 107.29 83.35 C106.22 85.37, 105.03 87.34, 103.73 89.23 C102.43 91.11, 101.01 92.92, 99.49 94.63 C97.98 96.35, 96.35 97.98, 94.63 99.49 C92.92 101.01, 91.11 102.43, 89.23 103.73 C87.34 105.03, 85.37 106.22, 83.35 107.29 C81.32 108.35, 79.22 109.29, 77.08 110.11 C74.94 110.92, 72.74 111.6, 70.52 112.15 C68.3 112.7, 66.03 113.11, 63.76 113.39 C61.49 113.66, 59.19 113.8, 56.9 113.8 C54.62 113.8, 52.31 113.66, 50.04 113.39 C47.77 113.11, 45.5 112.7, 43.28 112.15 C41.06 111.6, 38.86 110.92, 36.72 110.11 C34.59 109.29, 32.48 108.35, 30.46 107.29 C28.43 106.22, 26.46 105.03, 24.58 103.73 C22.7 102.43, 20.88 101.01, 19.17 99.49 C17.46 97.98, 15.83 96.35, 14.31 94.63 C12.79 92.92, 11.37 91.11, 10.07 89.23 C8.77 87.34, 7.58 85.37, 6.52 83.35 C5.46 81.32, 4.51 79.22, 3.7 77.08 C2.89 74.94, 2.2 72.74, 1.65 70.52 C1.11 68.3, 0.69 66.03, 0.41 63.76 C0.14 61.49, 0 59.19, 0 56.9 C0 54.62, 0.14 52.31, 0.41 50.04 C0.69 47.77, 1.11 45.5, 1.65 43.28 C2.2 41.06, 2.89 38.86, 3.7 36.72 C4.51 34.59, 5.46 32.48, 6.52 30.46 C7.58 28.43, 8.77 26.46, 10.07 24.58 C11.37 22.7, 12.79 20.88, 14.31 19.17 C15.83 17.46, 17.46 15.83, 19.17 14.31 C20.88 12.79, 22.7 11.37, 24.58 10.07 C26.46 8.77, 28.43 7.58, 30.46 6.52 C32.48 5.46, 34.59 4.51, 36.72 3.7 C38.86 2.89, 41.06 2.2, 43.28 1.65 C45.5 1.11, 47.77 0.69, 50.04 0.41 C52.31 0.14, 54.62 0, 56.9 0 C59.19 0, 61.49 0.14, 63.76 0.41 C66.03 0.69, 68.3 1.11, 70.52 1.65 C72.74 2.2, 74.94 2.89, 77.08 3.7 C79.22 4.51, 81.32 5.46, 83.35 6.52 C85.37 7.58, 87.34 8.77, 89.23 10.07 C91.11 11.37, 92.92 12.79, 94.63 14.31 C96.35 15.83, 97.98 17.46, 99.49 19.17 C101.01 20.88, 102.43 22.7, 103.73 24.58 C105.03 26.46, 106.22 28.43, 107.29 30.46 C108.35 32.48, 109.29 34.59, 110.11 36.72 C110.92 38.86, 111.6 41.06, 112.15 43.28 C112.7 45.5, 113.11 47.77, 113.39 50.04 C113.66 52.31, 113.8 54.62, 113.8 56.9" stroke="none" stroke-width="0" fill="#ffffff"/><path d="M113.8 56.9 C113.8 59.19, 113.66 61.49, 113.39 63.76 C113.11 66.03, 112.7 68.3, 112.15 70.52 C111.6 72.74, 110.92 74.94, 110.11 77.08 C109.29 79.22, 108.35 81.32, 107.29 83.35 C106.22 85.37, 105.03 87.34, 103.73 89.23 C102.43 91.11, 101.01 92.92, 99.49 94.63 C97.98 96.35, 96.35 97.98, 94.63 99.49 C92.92 101.01, 91.11 102.43, 89.23 103.73 C87.34 105.03, 85.37 106.22, 83.35 107.29 C81.32 108.35, 79.22 109.29, 77.08 110.11 C74.94 110.92, 72.74 111.6, 70.52 112.15 C68.3 112.7, 66.03 113.11, 63.76 113.39 C61.49 113.66, 59.19 113.8, 56.9 113.8 C54.62 113.8, 52.31 113.66, 50.04 113.39 C47.77 113.11, 45.5 112.7, 43.28 112.15 C41.06 111.6, 38.86 110.92, 36.72 110.11 C34.59 109.29, 32.48 108.35, 30.46 107.29 C28.43 106.22, 26.46 105.03, 24.58 103.73 C22.7 102.43, 20.88 101.01, 19.17 99.49 C17.46 97.98, 15.83 96.35, 14.31 94.63 C12.79 92.92, 11.37 91.11, 10.07 89.23 C8.77 87.34, 7.58 85.37, 6.52 83.35 C5.46 81.32, 4.51 79.22, 3.7 77.08 C2.89 74.94, 2.2 72.74, 1.65 70.52 C1.11 68.3, 0.69 66.03, 0.41 63.76 C0.14 61.49, 0 59.19, 0 56.9 C0 54.62, 0.14 52.31, 0.41 50.04 C0.69 47.77, 1.11 45.5, 1.65 43.28 C2.2 41.06, 2.89 38.86, 3.7 36.72 C4.51 34.59, 5.46 32.48, 6.52 30.46 C7.58 28.43, 8.77 26.46, 10.07 24.58 C11.37 22.7, 12.79 20.88, 14.31 19.17 C15.83 17.46, 17.46 15.83, 19.17 14.31 C20.88 12.79, 22.7 11.37, 24.58 10.07 C26.46 8.77, 28.43 7.58, 30.46 6.52 C32.48 5.46, 34.59 4.51, 36.72 3.7 C38.86 2.89, 41.06 2.2, 43.28 1.65 C45.5 1.11, 47.77 0.69, 50.04 0.41 C52.31 0.14, 54.62 0, 56.9 0 C59.19 0, 61.49 0.14, 63.76 0.41 C66.03 0.69, 68.3 1.11, 70.52 1.65 C72.74 2.2, 74.94 2.89, 77.08 3.7 C79.22 4.51, 81.32 5.46, 83.35 6.52 C85.37 7.58, 87.34 8.77, 89.23 10.07 C91.11 11.37, 92.92 12.79, 94.63 14.31 C96.35 15.83, 97.98 17.46, 99.49 19.17 C101.01 20.88, 102.43 22.7, 103.73 24.58 C105.03 26.46, 106.22 28.43, 107.29 30.46 C108.35 32.48, 109.29 34.59, 110.11 36.72 C110.92 38.86, 111.6 41.06, 112.15 43.28 C112.7 45.5, 113.11 47.77, 113.39 50.04 C113.66 52.31, 113.8 54.62, 113.8 56.9" stroke="#e03131" stroke-width="4" fill="none"/></g></svg>