<svg version="1.1" xmlns="http://www.w3.org/2000/svg" viewBox="0 0 340.6996154785156 307.42926025390625" width="340.6996154785156" height="307.42926025390625" filter="invert(93%) hue-rotate(180deg)" class="excalidraw-svg">
  <!-- svg-source:excalidraw -->
  
  <defs>
    <style class="style-fonts">
      @font-face {
        font-family: "Virgil";
        src: url("https://excalidraw.com/Virgil.woff2");
      }
      @font-face {
        font-family: "Cascadia";
        src: url("https://excalidraw.com/Cascadia.woff2");
      }
      @font-face {
        font-family: "Assistant";
        src: url("https://excalidraw.com/Assistant-Regular.woff2");
      }
    </style>
    
  </defs>
  <g stroke-linecap="round"><g transform="translate(140.46315488694734 263.52552912615374) rotate(0 -48.18391727747457 -48.51311073805293)" fill-rule="evenodd"><path d="M-96.6 0.83 C-96.6 0.83, -96.6 0.83, -96.6 0.83 M-96.6 0.83 C-96.6 0.83, -96.6 0.83, -96.6 0.83 M-75.34 0.76 C-53.21 -24.7, -31.09 -50.15, 0.76 -86.79 M-75.34 0.76 C-45.36 -33.74, -15.37 -68.23, 0.76 -86.79 M-53.43 -0.07 C-34.7 -21.61, -15.98 -43.15, 0.37 -61.95 M-53.43 -0.07 C-40.7 -14.7, -27.98 -29.34, 0.37 -61.95 M-32.16 -0.14 C-21.88 -11.97, -11.6 -23.8, 0.64 -37.87 M-32.16 -0.14 C-23.63 -9.95, -15.1 -19.76, 0.64 -37.87 M-10.9 -0.2 C-7.7 -3.89, -4.49 -7.58, 0.25 -13.03 M-10.9 -0.2 C-8.48 -2.99, -6.06 -5.78, 0.25 -13.03 M-96.09 0.8 C-96.09 0.8, -96.09 0.8, -96.09 0.8 M-96.09 0.8 C-96.09 0.8, -96.09 0.8, -96.09 0.8 M-72.01 0.53 C-76.65 -3.5, -81.29 -7.54, -84.84 -10.62 M-72.01 0.53 C-76.67 -3.52, -81.32 -7.56, -84.84 -10.62 M-47.93 0.26 C-58.17 -8.64, -68.41 -17.54, -73.59 -22.04 M-47.93 0.26 C-54.05 -5.06, -60.18 -10.38, -73.59 -22.04 M-23.85 0 C-37.09 -11.52, -50.34 -23.03, -62.34 -33.46 M-23.85 0 C-39.17 -13.32, -54.49 -26.64, -62.34 -33.46 M0.23 -0.27 C-15.61 -14.04, -31.46 -27.82, -51.09 -44.88 M0.23 -0.27 C-15.22 -13.7, -30.67 -27.13, -51.09 -44.88 M0.16 -21.53 C-14.69 -34.44, -29.54 -47.35, -40.59 -56.96 M0.16 -21.53 C-15.79 -35.4, -31.75 -49.27, -40.59 -56.96 M0.1 -42.79 C-10.35 -51.87, -20.8 -60.96, -29.34 -68.38 M0.1 -42.79 C-8.29 -50.08, -16.68 -57.37, -29.34 -68.38 M0.03 -64.05 C-5.57 -68.91, -11.16 -73.78, -18.09 -79.79 M0.03 -64.05 C-6.41 -69.65, -12.86 -75.25, -18.09 -79.79 M-0.04 -85.31 C-1.75 -86.8, -3.46 -88.28, -6.83 -91.21 M-0.04 -85.31 C-2.25 -87.23, -4.45 -89.14, -6.83 -91.21" stroke="#ffc9c9" stroke-width="2" fill="none"/><path d="M0 0 C0 -33.77, 0 -67.55, 0 -97.58 M0 0 C0 -38, 0 -75.99, 0 -97.58 M0 -97.58 C-23.07 -74.09, -46.13 -50.6, -96.37 0.56 M0 -97.58 C-30.07 -66.96, -60.14 -36.33, -96.37 0.56 M-96.37 0.56 C-61.65 0.36, -26.93 0.16, 0 0 M-96.37 0.56 C-58.98 0.34, -21.58 0.12, 0 0 M0 0 C0 0, 0 0, 0 0 M0 0 C0 0, 0 0, 0 0" stroke="transparent" stroke-width="4" fill="none"/></g></g><mask/><g stroke-linecap="round"><g transform="translate(142.68147277832034 295.2665469282703) rotate(0 0 -142.63327346413516)"><path d="M0 0 C0 -96.44, 0 -192.87, 0 -285.27 M0 0 C0 -107.11, 0 -214.23, 0 -285.27" stroke="#e03131" stroke-width="4" fill="none"/></g></g><mask/><g stroke-linecap="round"><g transform="translate(38.900238037109375 297.42926025390625) rotate(0 7.105427357601002e-15 -141.86679077148438)"><path d="M0 0 C0 -66.58, 0 -133.16, 0 -283.73 M0 0 C0 -83.58, 0 -167.16, 0 -283.73" stroke="#1e1e1e" stroke-width="4" fill="none"/></g></g><mask/><g stroke-linecap="round"><g transform="translate(10 267.5309753417969) rotate(0 159.8170928955078 0)"><path d="M0 0 C107.89 0, 215.77 0, 319.63 0 M0 0 C78.76 0, 157.53 0, 319.63 0" stroke="#1e1e1e" stroke-width="4" fill="none"/></g></g><mask/><g stroke-linecap="round"><g transform="translate(17.12518310546875 164.18563842773438) rotate(0 156.78721618652344 0)"><path d="M0 0 C122.54 0, 245.09 0, 313.57 0 M0 0 C124.87 0, 249.73 0, 313.57 0" stroke="#e03131" stroke-width="4" fill="none"/></g></g><mask/><g stroke-linecap="round"><g transform="translate(17.7244873046875 287.3743591308594) rotate(0 130.2156867980957 -130.2156867980957)"><path d="M0 0 C85.08 -85.08, 170.16 -170.16, 260.43 -260.43 M0 0 C92.27 -92.27, 184.53 -184.53, 260.43 -260.43" stroke="#e03131" stroke-width="4" fill="none"/></g></g><mask/></svg>