<svg version="1.1" xmlns="http://www.w3.org/2000/svg" viewBox="0 0 418.6104431152344 406.6127624511719" width="418.6104431152344" height="406.6127624511719" filter="invert(93%) hue-rotate(180deg)">
  <!-- svg-source:excalidraw -->
  
  <defs>
    <style class="style-fonts">
      @font-face {
        font-family: "Virgil";
        src: url("https://excalidraw.com/Virgil.woff2");
      }
      @font-face {
        font-family: "Cascadia";
        src: url("https://excalidraw.com/Cascadia.woff2");
      }
    </style>
  </defs>
  <g stroke-linecap="round"><g transform="translate(120.66008389380664 201.34668510190903) rotate(0 -36.387102680821556 53.6774173859627)" fill-rule="evenodd"><path d="M-72.94 0.19 C-72.94 0.19, -72.94 0.19, -72.94 0.19 M-72.94 0.19 C-72.94 0.19, -72.94 0.19, -72.94 0.19 M-72.68 24.27 C-66.42 17.08, -60.16 9.88, -51.68 0.12 M-72.68 24.27 C-64.33 14.68, -55.99 5.08, -51.68 0.12 M-73.07 49.11 C-64.06 38.75, -55.05 28.39, -30.42 0.06 M-73.07 49.11 C-60.25 34.37, -47.43 19.62, -30.42 0.06 M-72.8 73.19 C-58.28 56.49, -43.76 39.79, -9.16 -0.01 M-72.8 73.19 C-52.23 49.53, -31.67 25.88, -9.16 -0.01 M-72.53 97.27 C-67.34 91.3, -62.14 85.32, -54.16 76.14 M-72.53 97.27 C-66.8 90.68, -61.06 84.08, -54.16 76.14 M-72.4 107.68 C-72.4 107.68, -72.4 107.68, -72.4 107.68 M-72.4 107.68 C-72.4 107.68, -72.4 107.68, -72.4 107.68 M-64.92 92.98 C-67.17 91.03, -69.41 89.08, -72.47 86.42 M-64.92 92.98 C-66.94 91.23, -68.95 89.48, -72.47 86.42 M-56.69 78.93 C-60.93 75.25, -65.17 71.57, -72.54 65.16 M-56.69 78.93 C-61.88 74.43, -67.06 69.92, -72.54 65.16 M-46.95 66.2 C-52.64 61.26, -58.32 56.32, -72.61 43.9 M-46.95 66.2 C-52.59 61.3, -58.22 56.4, -72.61 43.9 M-37.96 52.82 C-45.31 46.43, -52.66 40.04, -72.68 22.64 M-37.96 52.82 C-45.5 46.26, -53.04 39.71, -72.68 22.64 M-28.97 39.43 C-41.24 28.77, -53.5 18.11, -72.75 1.38 M-28.97 39.43 C-40.82 29.13, -52.66 18.84, -72.75 1.38 M-19.99 26.04 C-29.59 17.69, -39.19 9.35, -63.01 -11.35 M-19.99 26.04 C-30.58 16.84, -41.16 7.63, -63.01 -11.35 M-11.75 12 C-21.35 3.66, -30.94 -4.68, -38.92 -11.62 M-11.75 12 C-21.61 3.43, -31.46 -5.14, -38.92 -11.62 M-0.5 0.58 C-4.04 -2.49, -7.57 -5.57, -14.09 -11.23 M-0.5 0.58 C-3.62 -2.13, -6.74 -4.84, -14.09 -11.23" stroke="#ffc9c9" stroke-width="2" fill="none"/><path d="M0 0 C-26.52 0, -53.05 0, -72.77 0 M0 0 C-21.61 0, -43.22 0, -72.77 0 M-72.77 0 C-72.77 25.15, -72.77 50.3, -72.77 107.35 M-72.77 0 C-72.77 40.28, -72.77 80.56, -72.77 107.35 M-72.77 107.35 C-68.91 100.4, -65.05 93.45, -55.05 75.47 M-72.77 107.35 C-68.87 100.33, -64.96 93.3, -55.05 75.47 M-55.05 75.47 C-41.6 55.26, -28.15 35.06, -16.62 17.74 M-55.05 75.47 C-43.6 58.26, -32.15 41.06, -16.62 17.74 M-16.62 17.74 C-11.54 12.31, -6.46 6.89, 0 0 M-16.62 17.74 C-11.62 12.4, -6.61 7.06, 0 0 M0 0 C0 0, 0 0, 0 0 M0 0 C0 0, 0 0, 0 0" stroke="transparent" stroke-width="4" fill="none"/></g></g><mask/><g stroke-linecap="round"><g transform="translate(49.022003173828125 366.0486755371094) rotate(0 7.105427357601002e-15 -178.0243377685547)"><path d="M0 0 C0 -104.13, 0 -208.25, 0 -356.05 M0 0 C0 -130.11, 0 -260.22, 0 -356.05" stroke="#1e1e1e" stroke-width="4" fill="none"/></g></g><mask/><g stroke-linecap="round"><g transform="translate(10 309.0489196777344) rotate(0 199.3052215576172 0)"><path d="M0 0 C120 0, 240.01 0, 398.61 0 M0 0 C142.58 0, 285.16 0, 398.61 0" stroke="#1e1e1e" stroke-width="4" fill="none"/></g></g><mask/><g stroke-linecap="round"><g transform="translate(13.928863525390625 190.25503540039062) rotate(0 186.15362548828125 0)"><path d="M0 0 C87.91 0, 175.82 0, 372.31 0 M0 0 C142.78 0, 285.55 0, 372.31 0" stroke="#e03131" stroke-width="4" fill="none"/></g></g><mask/><g transform="translate(377.6459045410156 40.09797668457031) rotate(0 -161.01571655273438 178.1908187866211)" stroke="none"><path fill="#e03131" d="M 0.05,1.60 Q 0.05,1.60 -1.58,1.69 -3.23,1.78 -4.58,1.92 -5.94,2.06 -7.36,2.33 -8.78,2.61 -10.82,3.30 -12.87,3.99 -15.40,5.01 -17.93,6.02 -20.93,7.19 -23.93,8.36 -27.21,9.85 -30.49,11.34 -34.18,13.00 -37.87,14.65 -41.95,16.58 -46.03,18.51 -50.28,20.63 -54.53,22.74 -58.75,24.87 -62.97,27.00 -66.94,29.11 -70.90,31.23 -74.76,33.39 -78.62,35.54 -82.43,37.65 -86.24,39.75 -89.97,41.77 -93.70,43.79 -97.36,45.83 -101.02,47.87 -104.64,49.93 -108.26,51.98 -111.65,53.83 -115.04,55.69 -118.22,57.45 -121.39,59.20 -124.53,60.92 -127.66,62.64 -130.68,64.44 -133.71,66.24 -136.67,68.04 -139.62,69.84 -142.54,71.68 -145.45,73.51 -148.33,75.38 -151.21,77.24 -153.91,79.03 -156.60,80.81 -159.26,82.60 -161.92,84.39 -164.63,86.24 -167.34,88.10 -170.30,90.24 -173.25,92.37 -176.39,94.63 -179.54,96.88 -182.59,99.10 -185.65,101.31 -188.69,103.38 -191.74,105.45 -194.52,107.44 -197.30,109.43 -200.05,111.34 -202.80,113.24 -205.49,115.29 -208.17,117.34 -210.99,119.60 -213.81,121.86 -216.72,124.19 -219.62,126.53 -222.33,128.88 -225.03,131.23 -227.40,133.40 -229.77,135.56 -231.97,137.46 -234.17,139.35 -236.10,141.24 -238.02,143.12 -239.80,145.03 -241.59,146.94 -243.43,149.04 -245.27,151.14 -247.16,153.30 -249.04,155.46 -250.86,157.68 -252.67,159.90 -255.37,163.16 -258.06,166.42 -260.98,170.03 -263.89,173.65 -266.93,177.54 -269.97,181.44 -273.17,185.31 -276.38,189.17 -278.47,191.82 -280.56,194.47 -282.13,196.58 -283.70,198.69 -285.09,200.63 -286.48,202.58 -287.78,204.47 -289.07,206.36 -290.24,208.19 -291.42,210.03 -292.94,212.35 -294.47,214.66 -295.50,216.20 -296.54,217.74 -297.32,219.02 -298.09,220.29 -298.89,221.59 -299.69,222.90 -300.41,224.09 -301.13,225.29 -301.80,226.45 -302.46,227.61 -303.10,228.68 -303.74,229.75 -304.77,231.50 -305.80,233.24 -306.64,234.85 -307.49,236.46 -308.38,238.14 -309.27,239.81 -309.93,241.18 -310.59,242.54 -311.14,243.78 -311.68,245.01 -312.23,246.38 -312.78,247.74 -313.27,248.91 -313.75,250.08 -314.25,251.17 -314.75,252.26 -315.26,253.34 -315.76,254.41 -316.40,255.60 -317.04,256.79 -317.61,258.19 -318.18,259.59 -318.51,260.67 -318.85,261.76 -319.24,262.84 -319.64,263.91 -319.90,264.98 -320.15,266.04 -320.23,267.66 -320.32,269.28 -320.33,270.57 -320.34,271.85 -320.23,273.26 -320.12,274.66 -319.91,275.87 -319.70,277.07 -319.47,278.27 -319.24,279.48 -318.90,280.58 -318.57,281.68 -318.19,282.81 -317.81,283.94 -317.45,285.25 -317.09,286.57 -316.62,287.99 -316.15,289.41 -315.63,290.82 -315.12,292.23 -314.54,293.64 -313.97,295.06 -313.41,296.28 -312.85,297.51 -312.24,299.04 -311.63,300.57 -310.96,302.30 -310.29,304.03 -309.51,305.72 -308.72,307.41 -307.81,309.05 -306.90,310.69 -305.92,312.18 -304.93,313.67 -303.75,315.20 -302.57,316.72 -301.88,317.63 -301.20,318.53 -300.53,319.65 -299.86,320.76 -299.26,321.75 -298.66,322.74 -298.03,323.69 -297.41,324.65 -296.39,326.29 -295.38,327.93 -294.13,329.75 -292.88,331.58 -291.93,332.95 -290.97,334.33 -290.05,335.51 -289.13,336.70 -288.25,337.74 -287.37,338.79 -286.48,339.73 -285.60,340.66 -284.71,341.65 -283.83,342.63 -281.86,344.42 -279.88,346.20 -278.12,348.00 -276.36,349.80 -275.27,350.83 -274.18,351.87 -272.62,353.53 -271.06,355.18 -270.93,355.35 -270.80,355.52 -270.72,355.71 -270.65,355.91 -270.64,356.13 -270.64,356.34 -270.70,356.54 -270.76,356.75 -270.88,356.92 -271.01,357.09 -271.18,357.22 -271.35,357.34 -271.56,357.40 -271.76,357.46 -271.97,357.46 -272.18,357.45 -272.38,357.38 -272.58,357.31 -272.75,357.18 -272.91,357.04 -273.03,356.86 -273.14,356.69 -273.20,356.48 -273.25,356.27 -273.23,356.06 -273.21,355.85 -273.13,355.65 -273.05,355.46 -272.90,355.30 -272.76,355.14 -272.58,355.04 -272.39,354.93 -272.18,354.89 -271.98,354.85 -271.77,354.88 -271.55,354.91 -271.36,355.00 -271.17,355.10 -271.02,355.25 -270.87,355.40 -270.78,355.59 -270.68,355.78 -270.65,355.99 -270.63,356.20 -270.66,356.41 -270.70,356.61 -270.81,356.80 -270.91,356.98 -271.07,357.13 -271.23,357.27 -271.42,357.35 -271.62,357.44 -271.83,357.46 -272.04,357.47 -272.25,357.42 -272.45,357.37 -272.63,357.26 -272.81,357.14 -272.81,357.14 -272.81,357.14 -274.65,355.72 -276.48,354.30 -277.63,353.23 -278.77,352.16 -280.46,350.43 -282.15,348.70 -284.25,346.80 -286.34,344.89 -287.20,343.93 -288.05,342.98 -289.00,341.97 -289.96,340.96 -290.87,339.86 -291.79,338.76 -292.76,337.50 -293.73,336.24 -294.69,334.86 -295.65,333.47 -296.94,331.58 -298.23,329.69 -299.21,328.08 -300.20,326.48 -300.85,325.48 -301.51,324.48 -302.12,323.48 -302.73,322.47 -303.30,321.52 -303.87,320.56 -304.55,319.65 -305.24,318.75 -306.46,317.18 -307.67,315.60 -308.74,313.99 -309.80,312.38 -310.77,310.63 -311.74,308.88 -312.58,307.05 -313.43,305.21 -314.07,303.55 -314.70,301.89 -315.28,300.44 -315.86,298.99 -316.47,297.65 -317.07,296.31 -317.66,294.86 -318.26,293.41 -318.79,291.93 -319.33,290.46 -319.82,288.96 -320.31,287.46 -320.64,286.24 -320.97,285.03 -321.37,283.85 -321.77,282.68 -322.15,281.40 -322.52,280.13 -322.77,278.82 -323.02,277.51 -323.21,276.37 -323.41,275.22 -323.55,274.04 -323.69,272.85 -323.69,271.77 -323.68,270.68 -323.64,269.18 -323.60,267.68 -323.53,266.60 -323.45,265.51 -323.09,264.06 -322.72,262.60 -322.26,261.30 -321.81,260.00 -321.43,258.87 -321.05,257.73 -320.51,256.45 -319.97,255.16 -319.38,254.06 -318.78,252.96 -318.29,251.92 -317.81,250.89 -317.33,249.84 -316.85,248.79 -316.36,247.60 -315.87,246.41 -315.30,245.01 -314.74,243.61 -314.17,242.34 -313.60,241.07 -312.92,239.65 -312.23,238.22 -311.38,236.62 -310.53,235.01 -309.59,233.25 -308.66,231.49 -307.64,229.76 -306.62,228.03 -306.00,226.99 -305.38,225.95 -304.70,224.75 -304.03,223.55 -303.30,222.34 -302.57,221.12 -301.77,219.82 -300.97,218.52 -300.15,217.20 -299.33,215.87 -298.31,214.34 -297.28,212.81 -295.77,210.51 -294.26,208.22 -293.06,206.33 -291.86,204.45 -290.55,202.53 -289.24,200.61 -287.83,198.64 -286.42,196.66 -284.83,194.52 -283.23,192.37 -281.12,189.68 -279.00,187.00 -275.83,183.17 -272.66,179.34 -269.61,175.41 -266.57,171.49 -263.63,167.86 -260.70,164.23 -258.00,160.99 -255.31,157.75 -253.46,155.49 -251.61,153.23 -249.73,151.06 -247.84,148.88 -245.97,146.74 -244.09,144.60 -242.25,142.64 -240.42,140.69 -238.42,138.71 -236.42,136.74 -234.26,134.87 -232.10,133.01 -229.70,130.82 -227.29,128.63 -224.54,126.24 -221.78,123.84 -218.87,121.50 -215.95,119.16 -213.09,116.90 -210.23,114.64 -207.49,112.54 -204.75,110.45 -202.02,108.55 -199.29,106.65 -196.48,104.63 -193.66,102.62 -190.66,100.58 -187.66,98.54 -184.60,96.31 -181.54,94.08 -178.41,91.83 -175.27,89.58 -172.27,87.42 -169.28,85.27 -166.55,83.41 -163.83,81.56 -161.16,79.76 -158.50,77.96 -155.79,76.16 -153.08,74.36 -150.18,72.48 -147.28,70.60 -144.34,68.75 -141.41,66.91 -138.44,65.10 -135.47,63.29 -132.38,61.46 -129.30,59.63 -126.17,57.93 -123.04,56.23 -119.86,54.47 -116.68,52.70 -113.31,50.85 -109.94,49.01 -106.31,46.95 -102.68,44.89 -99.00,42.84 -95.32,40.79 -91.60,38.78 -87.87,36.77 -84.07,34.69 -80.26,32.61 -76.37,30.44 -72.49,28.26 -68.49,26.12 -64.50,23.97 -60.27,21.84 -56.04,19.71 -51.75,17.59 -47.47,15.46 -43.35,13.53 -39.24,11.60 -35.56,9.95 -31.87,8.29 -28.51,6.76 -25.15,5.23 -22.16,4.07 -19.18,2.91 -16.55,1.86 -13.93,0.81 -11.67,0.06 -9.42,-0.67 -7.84,-0.97 -6.27,-1.27 -4.81,-1.41 -3.35,-1.55 -1.70,-1.58 -0.05,-1.60 0.13,-1.58 0.32,-1.57 0.51,-1.51 0.69,-1.44 0.86,-1.34 1.02,-1.23 1.15,-1.09 1.29,-0.95 1.38,-0.79 1.48,-0.62 1.53,-0.43 1.58,-0.24 1.59,-0.05 1.60,0.13 1.56,0.32 1.52,0.51 1.43,0.69 1.35,0.86 1.23,1.01 1.10,1.16 0.95,1.28 0.79,1.39 0.61,1.47 0.43,1.54 0.24,1.57 0.05,1.60 0.05,1.60 L 0.05,1.60 Z"/></g><g stroke-linecap="round"><g transform="translate(132.4598388671875 35.43678283691406) rotate(0 0 136.3399429321289)"><path d="M0 0 C0 80.37, 0 160.74, 0 272.68 M0 0 C0 93.87, 0 187.74, 0 272.68" stroke="#e03131" stroke-width="4" fill="none"/></g></g><mask/></svg>