<svg version="1.1" xmlns="http://www.w3.org/2000/svg" viewBox="0 0 594.1895602156533 448.79965445129574" width="594.1895602156533" height="448.79965445129574" filter="invert(93%) hue-rotate(180deg)">
  <!-- svg-source:excalidraw -->
  
  <defs>
    <style class="style-fonts">
      @font-face {
        font-family: "Virgil";
        src: url("https://excalidraw.com/Virgil.woff2");
      }
      @font-face {
        font-family: "Cascadia";
        src: url("https://excalidraw.com/Cascadia.woff2");
      }
    </style>
  </defs>
  <rect x="0" y="0" width="594.1895602156533" height="448.79965445129574" fill="transparent"/><g stroke-linecap="round"><g transform="translate(69.58826924288115 438.79965445129574) rotate(0 0 -179.05646514892578)"><path d="M0 0 C0 -87.49, 0 -174.98, 0 -358.11 M0 0 C0 -101.3, 0 -202.61, 0 -358.11" stroke="#1e1e1e" stroke-width="4" fill="none"/></g></g><mask/><g stroke-linecap="round"><g transform="translate(26.38746077688029 402.05404771121425) rotate(0 246.04304905475433 0)"><path d="M0 0 C102.44 0, 204.88 0, 492.09 0 M0 0 C117.42 0, 234.84 0, 492.09 0" stroke="#1e1e1e" stroke-width="4" fill="none"/></g></g><mask/><g stroke-linecap="round"><g transform="translate(57.19264828749681 408.5646810876072) rotate(0 220.08759882983298 -170.60521392573924)"><path d="M0 0 C110.39 -85.57, 220.79 -171.15, 440.18 -341.21 M0 0 C116.21 -90.08, 232.42 -180.16, 440.18 -341.21" stroke="#e03131" stroke-width="2" fill="none"/></g></g><mask/><g stroke-linecap="round"><g transform="translate(10 231.14476904774244) rotate(0 283.9827097222484 0)"><path d="M0 0 C129.89 0, 259.77 0, 567.97 0" stroke="#e03131" stroke-width="2.5" fill="none" stroke-dasharray="8 10"/></g></g><mask/><g stroke-linecap="round"><g transform="translate(197.5097914956009 403.9164430916542) rotate(0 7.105427357601002e-15 -196.9582215458271)"><path d="M0 0 C0 -95.37, 0 -190.74, 0 -393.92" stroke="#e03131" stroke-width="2.5" fill="none" stroke-dasharray="8 10"/></g></g><mask/><g transform="translate(64.04695519382318 401.7893390204269) rotate(0 258.4168049878327 -81.77704533911077)" stroke="none"><path fill="#e03131" d="M -0.28,1.46 Q -0.28,1.46 -1.29,1.25 -2.30,1.05 -3.10,0.32 -3.90,-0.40 -3.81,-2.58 -3.73,-4.76 -2.92,-6.06 -2.10,-7.35 -1.17,-8.65 -0.24,-9.96 0.92,-11.36 2.09,-12.77 3.47,-14.29 4.86,-15.80 6.64,-17.53 8.42,-19.25 10.43,-21.32 12.44,-23.40 14.81,-25.77 17.18,-28.15 19.78,-30.60 22.39,-33.04 25.14,-35.46 27.89,-37.87 30.69,-40.26 33.48,-42.65 36.43,-45.13 39.38,-47.61 42.61,-50.23 45.84,-52.85 49.15,-55.53 52.47,-58.21 56.12,-60.76 59.77,-63.32 63.34,-65.67 66.91,-68.02 70.53,-70.19 74.16,-72.36 77.80,-74.33 81.45,-76.30 85.11,-78.14 88.77,-79.99 92.55,-81.98 96.32,-83.98 100.22,-85.99 104.13,-88.00 108.16,-89.81 112.19,-91.62 116.09,-93.29 120.00,-94.97 124.38,-96.59 128.77,-98.21 133.03,-99.73 137.28,-101.26 141.62,-102.81 145.96,-104.37 150.48,-105.96 155.00,-107.56 159.65,-109.16 164.29,-110.77 168.97,-112.27 173.66,-113.78 178.41,-115.15 183.16,-116.51 188.00,-117.89 192.84,-119.27 197.89,-120.71 202.93,-122.16 208.22,-123.83 213.51,-125.50 218.92,-127.10 224.32,-128.70 229.72,-130.24 235.12,-131.78 240.55,-133.24 245.98,-134.69 251.50,-136.15 257.03,-137.60 262.57,-139.02 268.12,-140.43 273.72,-141.64 279.33,-142.85 284.85,-144.13 290.38,-145.41 295.88,-146.58 301.37,-147.74 306.95,-148.72 312.53,-149.69 318.02,-150.71 323.52,-151.73 339.25,-154.23 354.98,-156.73 364.99,-158.18 375.01,-159.62 386.00,-160.52 396.99,-161.42 405.11,-161.85 413.22,-162.27 420.12,-162.50 427.02,-162.73 433.47,-162.89 439.91,-163.04 449.73,-163.30 459.56,-163.56 467.17,-163.74 474.79,-163.93 481.44,-164.15 488.08,-164.37 494.35,-164.55 500.63,-164.74 506.22,-164.90 511.80,-165.07 514.18,-165.18 516.56,-165.30 516.77,-165.28 516.98,-165.25 517.17,-165.16 517.36,-165.07 517.52,-164.93 517.67,-164.78 517.77,-164.59 517.87,-164.41 517.91,-164.20 517.94,-163.99 517.91,-163.78 517.87,-163.57 517.77,-163.38 517.67,-163.19 517.52,-163.05 517.36,-162.90 517.17,-162.81 516.98,-162.72 516.77,-162.70 516.56,-162.68 516.35,-162.72 516.14,-162.77 515.96,-162.88 515.78,-162.99 515.64,-163.15 515.50,-163.31 515.42,-163.51 515.34,-163.70 515.33,-163.92 515.32,-164.13 515.38,-164.33 515.43,-164.54 515.55,-164.71 515.67,-164.89 515.84,-165.02 516.01,-165.15 516.21,-165.22 516.41,-165.28 516.63,-165.28 516.84,-165.28 517.04,-165.22 517.24,-165.15 517.41,-165.02 517.58,-164.89 517.70,-164.71 517.82,-164.54 517.88,-164.33 517.93,-164.13 517.92,-163.92 517.91,-163.71 517.83,-163.51 517.75,-163.31 517.61,-163.15 517.48,-162.99 517.30,-162.88 517.11,-162.77 516.91,-162.72 516.70,-162.68 516.70,-162.68 516.70,-162.68 514.32,-162.53 511.95,-162.39 506.36,-161.94 500.78,-161.50 494.50,-161.09 488.23,-160.69 481.56,-160.38 474.89,-160.08 467.27,-159.88 459.65,-159.68 449.82,-159.45 440.00,-159.23 433.57,-159.10 427.14,-158.98 420.28,-158.76 413.42,-158.54 405.36,-158.12 397.29,-157.70 386.42,-156.83 375.54,-155.96 365.55,-154.51 355.56,-153.06 339.88,-150.57 324.20,-148.08 318.68,-147.05 313.17,-146.03 307.66,-145.07 302.14,-144.11 296.68,-142.96 291.22,-141.80 285.67,-140.52 280.12,-139.23 274.58,-138.02 269.04,-136.81 263.51,-135.40 257.98,-133.99 252.46,-132.54 246.95,-131.09 241.54,-129.65 236.14,-128.21 230.76,-126.68 225.37,-125.14 220.01,-123.54 214.64,-121.95 209.30,-120.26 203.96,-118.58 198.91,-117.14 193.86,-115.70 189.02,-114.33 184.18,-112.97 179.49,-111.61 174.79,-110.26 170.14,-108.77 165.49,-107.28 160.86,-105.68 156.22,-104.08 151.71,-102.50 147.19,-100.92 142.85,-99.38 138.50,-97.83 134.25,-96.33 130.01,-94.83 125.70,-93.27 121.39,-91.71 117.50,-90.06 113.62,-88.41 109.67,-86.65 105.72,-84.90 101.83,-82.90 97.94,-80.90 94.13,-78.90 90.33,-76.89 86.71,-75.08 83.09,-73.27 79.51,-71.33 75.94,-69.39 72.37,-67.26 68.81,-65.13 65.28,-62.81 61.75,-60.48 58.19,-58.00 54.63,-55.52 51.31,-52.86 47.98,-50.20 44.76,-47.60 41.54,-45.01 38.58,-42.57 35.62,-40.13 32.84,-37.77 30.05,-35.41 27.33,-33.04 24.62,-30.66 22.05,-28.25 19.48,-25.84 17.12,-23.49 14.77,-21.14 12.70,-19.03 10.63,-16.92 8.90,-15.30 7.16,-13.68 5.81,-12.23 4.46,-10.78 3.36,-9.47 2.25,-8.16 1.35,-6.91 0.45,-5.65 -0.17,-4.77 -0.79,-3.89 -1.10,-2.83 -1.41,-1.77 -0.56,-1.61 0.28,-1.46 0.45,-1.40 0.62,-1.35 0.77,-1.25 0.93,-1.16 1.05,-1.03 1.18,-0.90 1.27,-0.75 1.36,-0.59 1.41,-0.42 1.46,-0.25 1.47,-0.07 1.48,0.10 1.45,0.28 1.41,0.45 1.34,0.62 1.26,0.78 1.15,0.92 1.04,1.06 0.89,1.17 0.75,1.28 0.59,1.35 0.42,1.42 0.24,1.45 0.07,1.48 -0.10,1.47 -0.28,1.46 -0.28,1.46 L -0.28,1.46 Z"/></g><g transform="translate(441.9955267381256 239.76867779351417) rotate(0 -103.09266382092018 19.879529475317767)" stroke="none"><path fill="#2f9e44" d="M 0.30,1.50 Q 0.30,1.50 -5.88,2.81 -12.08,4.12 -16.64,5.09 -21.19,6.07 -23.79,6.56 -26.38,7.06 -27.77,7.27 -29.16,7.49 -30.01,7.38 -30.87,7.28 -31.06,7.27 -31.25,7.26 -31.44,7.20 -31.62,7.14 -31.79,7.04 -31.96,6.94 -32.09,6.80 -32.23,6.67 -32.33,6.50 -32.43,6.33 -32.49,6.15 -32.55,5.96 -32.56,5.77 -32.57,5.58 -32.53,5.39 -32.50,5.20 -32.42,5.02 -32.34,4.84 -32.22,4.69 -32.10,4.54 -31.95,4.42 -31.80,4.30 -31.62,4.22 -31.44,4.14 -31.25,4.10 -31.06,4.07 -29.59,3.40 -28.11,2.74 -26.23,2.13 -24.34,1.53 -22.13,0.86 -19.92,0.20 -17.62,-0.43 -15.33,-1.07 -13.31,-1.69 -11.29,-2.30 -9.47,-2.73 -7.65,-3.16 -6.21,-3.50 -4.76,-3.83 -3.72,-4.08 -2.68,-4.32 -1.96,-4.56 -1.25,-4.79 -1.06,-4.81 -0.87,-4.83 -0.68,-4.81 -0.49,-4.78 -0.31,-4.71 -0.13,-4.64 0.01,-4.53 0.17,-4.42 0.29,-4.28 0.42,-4.13 0.50,-3.96 0.59,-3.79 0.63,-3.60 0.68,-3.42 0.68,-3.23 0.67,-3.04 0.62,-2.85 0.58,-2.67 0.49,-2.50 0.39,-2.33 0.27,-2.19 0.14,-2.05 -0.01,-1.94 -0.17,-1.83 -0.35,-1.77 -0.53,-1.70 -1.95,-1.62 -3.38,-1.53 -4.73,-1.43 -6.07,-1.33 -7.81,-1.22 -9.55,-1.10 -11.82,-0.96 -14.08,-0.82 -16.74,-0.66 -19.39,-0.50 -22.38,-0.25 -25.36,-0.01 -28.58,0.40 -31.80,0.82 -35.30,1.37 -38.80,1.92 -42.60,2.63 -46.39,3.34 -50.35,4.16 -54.31,4.97 -58.20,5.83 -62.10,6.69 -65.84,7.52 -69.57,8.34 -72.82,8.97 -76.06,9.60 -78.55,10.03 -81.05,10.46 -82.68,10.68 -84.32,10.91 -84.91,10.77 -85.51,10.64 -85.72,10.64 -85.93,10.65 -86.13,10.60 -86.34,10.55 -86.53,10.46 -86.71,10.37 -86.87,10.23 -87.03,10.09 -87.15,9.92 -87.28,9.75 -87.35,9.56 -87.43,9.36 -87.46,9.15 -87.49,8.95 -87.47,8.74 -87.44,8.53 -87.37,8.33 -87.30,8.13 -87.19,7.96 -87.07,7.78 -86.92,7.64 -86.76,7.50 -86.58,7.40 -86.39,7.30 -86.19,7.25 -85.99,7.19 -84.11,6.24 -82.24,5.29 -79.90,4.38 -77.57,3.47 -74.72,2.50 -71.88,1.52 -69.00,0.58 -66.12,-0.35 -63.28,-1.28 -60.44,-2.20 -57.91,-3.05 -55.38,-3.91 -53.33,-4.60 -51.29,-5.29 -50.06,-5.80 -48.84,-6.30 -48.24,-6.55 -47.63,-6.80 -47.45,-6.85 -47.26,-6.90 -47.07,-6.91 -46.87,-6.91 -46.68,-6.87 -46.50,-6.83 -46.32,-6.74 -46.15,-6.66 -46.00,-6.53 -45.85,-6.41 -45.74,-6.25 -45.62,-6.09 -45.55,-5.91 -45.48,-5.74 -45.45,-5.54 -45.42,-5.35 -45.44,-5.16 -45.46,-4.97 -45.52,-4.78 -45.59,-4.60 -45.69,-4.44 -45.80,-4.28 -45.94,-4.14 -46.08,-4.01 -46.25,-3.92 -46.42,-3.82 -47.63,-3.51 -48.84,-3.19 -50.54,-2.53 -52.23,-1.88 -54.65,-0.90 -57.06,0.06 -60.10,1.24 -63.14,2.43 -66.84,3.83 -70.54,5.24 -74.70,6.82 -78.85,8.41 -83.37,10.11 -87.89,11.81 -93.00,13.75 -98.12,15.69 -102.71,17.45 -107.30,19.20 -111.33,20.85 -115.36,22.51 -118.89,23.98 -122.41,25.45 -125.32,26.65 -128.23,27.84 -130.48,28.64 -132.73,29.44 -134.14,29.87 -135.55,30.30 -136.17,30.32 -136.79,30.35 -137.03,30.39 -137.27,30.43 -137.51,30.41 -137.75,30.39 -137.98,30.32 -138.20,30.24 -138.41,30.11 -138.61,29.98 -138.78,29.81 -138.94,29.64 -139.06,29.43 -139.18,29.22 -139.25,28.99 -139.32,28.76 -139.33,28.52 -139.34,28.28 -139.29,28.04 -139.24,27.81 -139.14,27.59 -139.04,27.37 -138.89,27.19 -138.73,27.00 -138.54,26.86 -138.35,26.71 -138.13,26.62 -137.91,26.52 -137.04,25.36 -136.18,24.20 -134.49,22.90 -132.80,21.59 -130.39,20.02 -127.97,18.46 -124.97,16.55 -121.96,14.64 -118.29,12.55 -114.61,10.45 -110.77,8.44 -106.93,6.43 -103.36,4.67 -99.78,2.90 -96.66,1.43 -93.54,-0.03 -90.93,-1.22 -88.32,-2.42 -86.48,-3.25 -84.64,-4.07 -83.71,-4.48 -82.78,-4.88 -82.57,-4.95 -82.36,-5.01 -82.14,-5.03 -81.91,-5.04 -81.70,-5.00 -81.48,-4.96 -81.28,-4.87 -81.07,-4.78 -80.90,-4.64 -80.73,-4.50 -80.59,-4.33 -80.45,-4.15 -80.36,-3.95 -80.27,-3.75 -80.23,-3.53 -80.19,-3.31 -80.20,-3.09 -80.22,-2.87 -80.28,-2.66 -80.35,-2.45 -80.47,-2.26 -80.58,-2.07 -80.74,-1.91 -80.89,-1.76 -81.08,-1.64 -81.27,-1.53 -84.65,0.31 -88.02,2.16 -91.83,4.21 -95.63,6.25 -99.93,8.38 -104.24,10.52 -108.98,12.86 -113.72,15.21 -119.08,17.70 -124.44,20.19 -130.19,22.81 -135.94,25.43 -142.00,28.08 -148.05,30.72 -153.58,32.98 -159.10,35.23 -163.41,36.67 -167.72,38.12 -170.65,38.91 -173.58,39.71 -175.26,40.05 -176.93,40.40 -177.54,40.28 -178.15,40.16 -178.41,40.18 -178.67,40.20 -178.93,40.16 -179.18,40.12 -179.42,40.02 -179.66,39.91 -179.87,39.76 -180.08,39.60 -180.24,39.40 -180.41,39.20 -180.52,38.96 -180.63,38.73 -180.69,38.47 -180.74,38.22 -180.73,37.96 -180.72,37.70 -180.65,37.45 -180.58,37.20 -180.45,36.97 -180.32,36.75 -180.14,36.56 -179.96,36.37 -179.74,36.23 -179.52,36.09 -179.27,36.01 -179.02,35.93 -177.60,34.10 -176.18,32.28 -173.47,30.19 -170.76,28.10 -167.00,25.45 -163.24,22.81 -158.93,20.04 -154.62,17.27 -150.10,14.51 -145.57,11.74 -140.94,9.06 -136.30,6.39 -132.09,4.20 -127.87,2.02 -124.42,0.27 -120.97,-1.47 -118.32,-2.73 -115.68,-3.99 -114.12,-4.67 -112.57,-5.35 -112.33,-5.43 -112.09,-5.51 -111.83,-5.54 -111.58,-5.56 -111.32,-5.52 -111.07,-5.48 -110.84,-5.38 -110.60,-5.28 -110.40,-5.13 -110.19,-4.97 -110.03,-4.78 -109.87,-4.58 -109.76,-4.35 -109.64,-4.12 -109.59,-3.87 -109.54,-3.62 -109.55,-3.36 -109.56,-3.11 -109.63,-2.86 -109.70,-2.62 -109.83,-2.39 -109.95,-2.17 -110.13,-1.99 -110.30,-1.80 -110.52,-1.66 -110.74,-1.53 -112.30,-0.33 -113.87,0.86 -116.52,2.48 -119.18,4.10 -122.82,6.14 -126.45,8.18 -133.79,12.19 -141.13,16.20 -147.65,19.59 -154.17,22.98 -160.31,26.24 -166.45,29.50 -172.47,32.59 -178.49,35.68 -183.85,38.35 -189.22,41.03 -193.30,42.80 -197.38,44.58 -199.74,45.43 -202.09,46.29 -202.91,46.27 -203.73,46.25 -203.98,46.31 -204.24,46.36 -204.50,46.36 -204.76,46.36 -205.01,46.29 -205.27,46.23 -205.50,46.10 -205.73,45.98 -205.92,45.80 -206.11,45.63 -206.26,45.41 -206.41,45.19 -206.50,44.95 -206.59,44.70 -206.61,44.44 -206.64,44.18 -206.61,43.92 -206.57,43.66 -206.48,43.42 -206.38,43.17 -206.23,42.96 -206.08,42.75 -205.88,42.58 -205.68,42.41 -205.45,42.29 -205.22,42.17 -204.12,40.07 -203.03,37.97 -200.65,35.67 -198.27,33.38 -194.75,30.47 -191.23,27.56 -186.87,24.41 -182.52,21.27 -177.82,18.21 -173.12,15.16 -168.50,12.47 -163.88,9.78 -159.58,7.44 -155.29,5.09 -151.34,3.08 -147.38,1.07 -142.83,-0.97 -138.28,-3.03 -136.13,-3.93 -133.99,-4.82 -133.30,-5.08 -132.62,-5.33 -132.37,-5.40 -132.12,-5.47 -131.86,-5.48 -131.60,-5.49 -131.34,-5.44 -131.09,-5.38 -130.85,-5.27 -130.62,-5.16 -130.42,-4.99 -130.22,-4.82 -130.06,-4.62 -129.90,-4.41 -129.80,-4.17 -129.70,-3.93 -129.66,-3.67 -129.62,-3.41 -129.64,-3.15 -129.67,-2.89 -129.75,-2.65 -129.83,-2.40 -129.97,-2.18 -130.11,-1.96 -130.30,-1.78 -130.49,-1.60 -130.72,-1.47 -130.94,-1.34 -132.92,0.29 -134.89,1.93 -137.74,3.90 -140.58,5.86 -144.47,8.38 -148.35,10.89 -153.60,14.06 -158.85,17.23 -163.64,19.98 -168.43,22.72 -173.30,25.36 -178.17,28.01 -182.59,30.32 -187.00,32.63 -190.80,34.39 -194.61,36.14 -197.54,36.75 -200.47,37.36 -201.33,35.62 -202.20,33.89 -200.88,31.99 -199.56,30.10 -196.72,27.54 -193.89,24.99 -190.24,22.30 -186.58,19.60 -182.82,16.94 -179.06,14.28 -175.21,11.75 -171.36,9.22 -167.54,6.73 -163.72,4.24 -160.26,2.21 -156.80,0.18 -154.35,-1.16 -151.90,-2.50 -150.80,-3.06 -149.69,-3.61 -149.53,-3.95 -149.37,-4.29 -149.10,-4.40 -148.83,-4.50 -148.54,-4.54 -148.25,-4.57 -147.96,-4.54 -147.67,-4.51 -147.40,-4.41 -147.13,-4.30 -146.89,-4.14 -146.65,-3.98 -146.46,-3.76 -146.27,-3.55 -146.13,-3.29 -145.99,-3.03 -145.92,-2.75 -145.85,-2.47 -145.85,-2.18 -145.85,-1.89 -145.92,-1.61 -145.99,-1.33 -146.12,-1.07 -146.25,-0.81 -146.44,-0.60 -146.64,-0.38 -146.87,-0.21 -147.11,-0.05 -148.09,0.55 -149.07,1.16 -152.47,2.77 -155.87,4.39 -158.22,5.11 -160.57,5.84 -162.09,6.24 -163.61,6.64 -163.81,6.71 -164.01,6.77 -164.23,6.77 -164.44,6.77 -164.64,6.70 -164.84,6.64 -165.01,6.51 -165.18,6.38 -165.30,6.20 -165.42,6.03 -165.47,5.82 -165.53,5.62 -165.52,5.40 -165.51,5.19 -165.43,5.00 -165.35,4.80 -165.21,4.64 -165.07,4.47 -164.89,4.37 -164.71,4.26 -164.50,4.21 -164.29,4.17 -164.08,4.19 -163.87,4.21 -163.68,4.30 -163.48,4.39 -163.33,4.54 -163.18,4.69 -163.08,4.87 -162.98,5.06 -162.94,5.27 -162.91,5.48 -162.95,5.69 -162.98,5.90 -163.08,6.09 -163.18,6.27 -163.34,6.42 -163.49,6.57 -163.68,6.65 -163.88,6.74 -164.09,6.77 -164.30,6.79 -164.51,6.74 -164.71,6.70 -164.90,6.59 -165.08,6.48 -165.21,6.31 -165.35,6.15 -165.43,5.95 -165.51,5.76 -165.52,5.54 -165.53,5.33 -165.47,5.13 -165.42,4.92 -165.30,4.75 -165.18,4.57 -165.01,4.44 -164.84,4.32 -164.84,4.32 -164.84,4.32 -163.53,3.23 -162.23,2.14 -160.15,0.88 -158.07,-0.38 -154.78,-1.84 -151.48,-3.31 -150.42,-3.80 -149.37,-4.29 -149.10,-4.40 -148.83,-4.50 -148.54,-4.54 -148.25,-4.57 -147.96,-4.54 -147.67,-4.51 -147.40,-4.41 -147.13,-4.30 -146.89,-4.14 -146.65,-3.98 -146.46,-3.76 -146.27,-3.55 -146.13,-3.29 -145.99,-3.03 -145.92,-2.75 -145.85,-2.47 -145.85,-2.18 -145.85,-1.89 -145.92,-1.61 -145.99,-1.33 -146.12,-1.07 -146.25,-0.81 -146.44,-0.60 -146.64,-0.38 -146.87,-0.21 -147.11,-0.05 -147.12,-0.02 -147.13,0.00 -148.43,0.72 -149.73,1.45 -152.13,2.76 -154.52,4.07 -157.90,6.05 -161.29,8.02 -165.12,10.47 -168.95,12.91 -172.75,15.37 -176.55,17.83 -180.28,20.47 -184.01,23.10 -187.51,25.66 -191.00,28.22 -193.59,30.51 -196.17,32.81 -197.54,33.41 -198.91,34.02 -197.67,33.09 -196.43,32.16 -192.73,30.47 -189.02,28.78 -184.64,26.47 -180.25,24.16 -175.42,21.55 -170.59,18.94 -165.84,16.23 -161.09,13.53 -155.90,10.39 -150.70,7.25 -146.87,4.77 -143.04,2.30 -140.25,0.39 -137.46,-1.50 -135.92,-2.65 -134.37,-3.80 -133.49,-4.56 -132.62,-5.33 -132.37,-5.40 -132.12,-5.47 -131.86,-5.48 -131.60,-5.49 -131.34,-5.44 -131.09,-5.38 -130.85,-5.27 -130.62,-5.16 -130.42,-4.99 -130.22,-4.82 -130.06,-4.62 -129.90,-4.41 -129.80,-4.17 -129.70,-3.93 -129.66,-3.67 -129.62,-3.41 -129.64,-3.15 -129.67,-2.89 -129.75,-2.65 -129.83,-2.40 -129.97,-2.18 -130.11,-1.96 -130.30,-1.78 -130.49,-1.60 -130.72,-1.47 -130.94,-1.34 -131.63,-1.09 -132.32,-0.84 -134.41,0.03 -136.49,0.91 -140.95,2.92 -145.41,4.93 -149.31,6.93 -153.21,8.93 -157.45,11.23 -161.70,13.53 -166.23,16.15 -170.77,18.77 -175.37,21.78 -179.98,24.78 -184.22,27.85 -188.47,30.92 -191.87,33.70 -195.28,36.49 -197.49,38.61 -199.71,40.72 -200.79,41.92 -201.87,43.11 -202.80,44.68 -203.73,46.25 -203.98,46.31 -204.24,46.36 -204.50,46.36 -204.76,46.36 -205.01,46.29 -205.27,46.23 -205.50,46.10 -205.73,45.98 -205.92,45.80 -206.11,45.63 -206.26,45.41 -206.41,45.19 -206.50,44.95 -206.59,44.70 -206.61,44.44 -206.64,44.18 -206.61,43.92 -206.57,43.66 -206.48,43.42 -206.38,43.18 -206.23,42.96 -206.08,42.75 -205.88,42.58 -205.68,42.41 -205.45,42.29 -205.22,42.17 -204.37,42.14 -203.53,42.11 -201.32,41.31 -199.12,40.50 -195.14,38.82 -191.15,37.15 -185.80,34.49 -180.46,31.84 -174.46,28.77 -168.47,25.69 -162.31,22.44 -156.14,19.18 -149.67,15.80 -143.19,12.42 -135.87,8.44 -128.54,4.45 -124.97,2.45 -121.40,0.45 -118.80,-1.10 -116.21,-2.66 -114.39,-4.00 -112.57,-5.35 -112.33,-5.43 -112.09,-5.51 -111.83,-5.54 -111.58,-5.56 -111.32,-5.52 -111.07,-5.48 -110.84,-5.38 -110.60,-5.28 -110.40,-5.13 -110.19,-4.97 -110.03,-4.78 -109.87,-4.58 -109.76,-4.35 -109.64,-4.12 -109.59,-3.87 -109.54,-3.62 -109.55,-3.36 -109.56,-3.11 -109.63,-2.86 -109.70,-2.62 -109.83,-2.39 -109.95,-2.17 -110.13,-1.99 -110.30,-1.80 -110.52,-1.66 -110.74,-1.53 -112.29,-0.84 -113.84,-0.15 -116.43,1.09 -119.03,2.35 -122.46,4.09 -125.90,5.83 -130.03,7.97 -134.16,10.11 -138.75,12.74 -143.34,15.37 -147.82,18.13 -152.30,20.89 -156.54,23.61 -160.77,26.32 -164.46,28.90 -168.14,31.48 -170.71,33.46 -173.28,35.44 -174.58,36.59 -175.88,37.73 -177.01,38.94 -178.15,40.16 -178.41,40.18 -178.67,40.20 -178.93,40.16 -179.18,40.12 -179.42,40.02 -179.66,39.91 -179.87,39.76 -180.08,39.60 -180.24,39.40 -180.41,39.20 -180.52,38.96 -180.63,38.73 -180.69,38.47 -180.74,38.22 -180.73,37.96 -180.72,37.70 -180.65,37.45 -180.58,37.20 -180.45,36.97 -180.32,36.75 -180.14,36.56 -179.96,36.37 -179.74,36.23 -179.52,36.09 -179.27,36.01 -179.02,35.93 -178.36,36.03 -177.70,36.13 -176.20,35.82 -174.70,35.51 -171.89,34.76 -169.07,34.01 -164.87,32.66 -160.68,31.30 -155.18,29.14 -149.69,26.99 -143.65,24.35 -137.61,21.71 -131.85,19.16 -126.10,16.61 -120.77,14.16 -115.44,11.70 -110.69,9.39 -105.94,7.07 -101.68,4.98 -97.42,2.88 -93.63,0.88 -89.83,-1.11 -86.31,-2.99 -82.78,-4.88 -82.57,-4.95 -82.36,-5.01 -82.14,-5.03 -81.91,-5.04 -81.70,-5.00 -81.48,-4.96 -81.28,-4.87 -81.07,-4.78 -80.90,-4.64 -80.73,-4.50 -80.59,-4.33 -80.45,-4.15 -80.36,-3.95 -80.27,-3.75 -80.23,-3.53 -80.19,-3.31 -80.20,-3.09 -80.22,-2.87 -80.28,-2.66 -80.35,-2.45 -80.46,-2.26 -80.58,-2.07 -80.74,-1.91 -80.89,-1.76 -81.08,-1.64 -81.27,-1.53 -82.20,-1.13 -83.14,-0.73 -84.96,0.08 -86.79,0.90 -89.38,2.10 -91.97,3.30 -95.05,4.76 -98.14,6.22 -101.67,7.97 -105.19,9.72 -108.95,11.73 -112.71,13.73 -116.28,15.83 -119.85,17.93 -122.84,19.85 -125.82,21.78 -128.10,23.25 -130.39,24.73 -132.74,26.59 -135.09,28.45 -135.94,29.40 -136.79,30.35 -137.03,30.39 -137.27,30.43 -137.51,30.41 -137.75,30.39 -137.98,30.32 -138.20,30.24 -138.41,30.11 -138.61,29.98 -138.78,29.81 -138.94,29.64 -139.06,29.43 -139.18,29.22 -139.25,28.99 -139.32,28.76 -139.33,28.52 -139.34,28.28 -139.29,28.04 -139.24,27.81 -139.14,27.59 -139.04,27.37 -138.89,27.19 -138.73,27.00 -138.54,26.86 -138.35,26.71 -138.13,26.62 -137.91,26.52 -137.27,26.49 -136.64,26.45 -135.32,26.09 -134.00,25.72 -131.84,25.01 -129.69,24.29 -126.78,23.11 -123.88,21.93 -120.34,20.46 -116.80,18.98 -112.72,17.32 -108.64,15.66 -104.03,13.93 -99.42,12.20 -94.28,10.32 -89.15,8.44 -84.63,6.76 -80.11,5.09 -75.94,3.52 -71.77,1.94 -68.06,0.59 -64.35,-0.76 -61.31,-1.87 -58.27,-2.99 -55.84,-3.94 -53.40,-4.89 -51.66,-5.56 -49.92,-6.23 -48.78,-6.51 -47.63,-6.80 -47.45,-6.85 -47.26,-6.90 -47.07,-6.91 -46.87,-6.91 -46.68,-6.87 -46.50,-6.83 -46.32,-6.74 -46.15,-6.66 -46.00,-6.53 -45.85,-6.41 -45.74,-6.25 -45.62,-6.09 -45.55,-5.91 -45.48,-5.74 -45.45,-5.54 -45.42,-5.35 -45.44,-5.16 -45.46,-4.97 -45.52,-4.78 -45.59,-4.60 -45.69,-4.44 -45.80,-4.28 -45.94,-4.15 -46.08,-4.01 -46.25,-3.92 -46.42,-3.82 -47.02,-3.58 -47.63,-3.33 -48.94,-2.80 -50.26,-2.26 -52.31,-1.57 -54.36,-0.88 -56.90,-0.02 -59.45,0.83 -62.28,1.76 -65.12,2.70 -67.97,3.63 -70.83,4.57 -73.61,5.53 -76.40,6.50 -78.68,7.38 -80.96,8.26 -82.32,8.82 -83.68,9.38 -84.59,10.01 -85.51,10.64 -85.72,10.64 -85.93,10.65 -86.13,10.60 -86.34,10.55 -86.53,10.46 -86.71,10.37 -86.87,10.23 -87.03,10.09 -87.15,9.92 -87.28,9.75 -87.35,9.56 -87.43,9.36 -87.46,9.15 -87.49,8.95 -87.47,8.74 -87.44,8.53 -87.37,8.33 -87.30,8.13 -87.19,7.96 -87.07,7.78 -86.92,7.64 -86.76,7.50 -86.58,7.40 -86.39,7.30 -86.19,7.25 -85.99,7.19 -85.38,7.25 -84.77,7.31 -83.22,7.09 -81.67,6.87 -79.21,6.44 -76.76,6.01 -73.55,5.39 -70.34,4.76 -66.58,3.98 -62.82,3.21 -58.89,2.44 -54.97,1.67 -50.98,0.90 -46.99,0.14 -43.15,-0.57 -39.30,-1.28 -35.76,-1.84 -32.22,-2.40 -28.92,-2.82 -25.62,-3.23 -22.60,-3.48 -19.58,-3.72 -16.93,-3.87 -14.27,-4.03 -12.02,-4.17 -9.77,-4.30 -8.03,-4.41 -6.30,-4.52 -4.97,-4.61 -3.64,-4.70 -2.44,-4.75 -1.25,-4.79 -1.06,-4.81 -0.87,-4.83 -0.68,-4.81 -0.49,-4.78 -0.31,-4.71 -0.13,-4.64 0.01,-4.53 0.17,-4.42 0.29,-4.28 0.42,-4.13 0.50,-3.96 0.59,-3.79 0.63,-3.60 0.68,-3.42 0.68,-3.23 0.67,-3.04 0.62,-2.85 0.58,-2.67 0.49,-2.50 0.39,-2.33 0.27,-2.19 0.14,-2.05 -0.01,-1.94 -0.17,-1.83 -0.35,-1.77 -0.53,-1.70 -1.24,-1.47 -1.96,-1.24 -3.00,-0.99 -4.04,-0.74 -5.48,-0.40 -6.92,-0.06 -8.64,0.33 -10.36,0.73 -12.42,1.36 -14.47,1.98 -16.74,2.61 -19.00,3.24 -21.19,3.90 -23.37,4.56 -25.16,5.13 -26.96,5.70 -28.91,6.49 -30.87,7.28 -31.06,7.27 -31.25,7.26 -31.44,7.20 -31.62,7.14 -31.79,7.04 -31.96,6.94 -32.09,6.80 -32.23,6.67 -32.33,6.50 -32.43,6.33 -32.49,6.15 -32.55,5.96 -32.56,5.77 -32.57,5.58 -32.53,5.39 -32.50,5.20 -32.42,5.02 -32.34,4.84 -32.22,4.69 -32.10,4.54 -31.95,4.42 -31.80,4.30 -31.62,4.22 -31.44,4.14 -31.25,4.10 -31.06,4.07 -30.35,4.18 -29.64,4.30 -28.31,4.10 -26.98,3.89 -24.42,3.42 -21.86,2.94 -17.29,1.97 -12.73,1.00 -6.52,-0.24 -0.30,-1.50 -0.12,-1.51 0.05,-1.53 0.24,-1.50 0.42,-1.47 0.59,-1.40 0.76,-1.32 0.91,-1.21 1.05,-1.10 1.17,-0.96 1.29,-0.82 1.37,-0.65 1.45,-0.48 1.49,-0.30 1.52,-0.12 1.52,0.05 1.51,0.24 1.46,0.42 1.41,0.59 1.31,0.75 1.22,0.91 1.09,1.05 0.97,1.18 0.81,1.28 0.65,1.38 0.48,1.44 0.30,1.50 0.30,1.50 L 0.30,1.50 Z"/></g><g transform="translate(174.46084978427115 314.2654046787818) rotate(0 -53.91666579174412 39.91200051130028)" stroke="none"><path fill="#2f9e44" d="M 0.85,1.34 Q 0.85,1.34 -0.34,2.14 -1.54,2.94 -2.37,3.65 -3.21,4.36 -4.77,6.08 -6.34,7.80 -7.21,8.83 -8.07,9.86 -8.99,10.89 -9.91,11.93 -10.96,12.99 -12.01,14.06 -13.26,15.20 -14.51,16.34 -15.92,17.54 -17.34,18.74 -18.81,19.93 -20.28,21.11 -21.79,22.18 -23.29,23.25 -24.70,24.17 -26.10,25.08 -27.39,25.86 -28.68,26.63 -29.91,27.29 -31.14,27.95 -32.19,28.47 -33.24,28.98 -34.69,29.04 -36.13,29.10 -36.36,27.30 -36.60,25.50 -36.01,24.51 -35.43,23.52 -34.73,22.40 -34.03,21.27 -32.99,19.84 -31.96,18.40 -30.61,16.72 -29.26,15.03 -27.78,13.28 -26.30,11.52 -24.96,9.97 -23.63,8.42 -22.66,7.26 -21.69,6.10 -20.86,5.17 -20.04,4.24 -19.99,3.97 -19.95,3.69 -19.79,3.53 -19.63,3.36 -19.43,3.24 -19.24,3.12 -19.02,3.05 -18.80,2.98 -18.57,2.96 -18.34,2.94 -18.11,2.98 -17.89,3.02 -17.68,3.11 -17.47,3.20 -17.28,3.34 -17.10,3.48 -16.96,3.66 -16.81,3.84 -16.71,4.04 -16.62,4.25 -16.57,4.48 -16.53,4.70 -16.54,4.93 -16.55,5.16 -16.61,5.38 -16.68,5.60 -16.79,5.80 -16.91,6.00 -18.13,7.28 -19.36,8.57 -20.52,9.96 -21.69,11.36 -23.21,13.08 -24.73,14.80 -26.38,16.60 -28.04,18.39 -29.74,20.31 -31.43,22.24 -33.35,24.49 -35.26,26.73 -37.30,29.14 -39.33,31.54 -41.43,33.83 -43.53,36.11 -45.53,38.10 -47.53,40.09 -49.29,41.63 -51.05,43.17 -52.47,44.23 -53.88,45.30 -55.05,46.17 -56.23,47.03 -57.32,47.81 -58.40,48.59 -59.39,49.32 -60.37,50.05 -61.37,50.66 -62.38,51.27 -63.14,51.65 -63.91,52.02 -64.13,52.10 -64.35,52.18 -64.58,52.21 -64.81,52.23 -65.04,52.20 -65.27,52.17 -65.49,52.09 -65.71,52.00 -65.90,51.87 -66.09,51.73 -66.24,51.56 -66.39,51.38 -66.50,51.18 -66.61,50.97 -66.66,50.74 -66.71,50.51 -66.71,50.28 -66.71,50.05 -66.65,49.82 -66.59,49.60 -66.48,49.39 -66.37,49.19 -66.22,49.01 -66.06,48.84 -65.87,48.71 -65.68,48.58 -65.00,47.31 -64.32,46.05 -63.39,44.65 -62.45,43.26 -61.11,41.28 -59.76,39.31 -58.00,37.01 -56.24,34.71 -54.34,32.41 -52.44,30.11 -50.67,28.08 -48.90,26.04 -47.53,24.54 -46.15,23.04 -45.19,22.06 -44.22,21.07 -43.41,20.33 -42.61,19.59 -42.42,19.45 -42.24,19.31 -42.02,19.22 -41.81,19.13 -41.58,19.09 -41.35,19.05 -41.12,19.07 -40.89,19.09 -40.67,19.16 -40.45,19.23 -40.26,19.36 -40.06,19.48 -39.90,19.65 -39.74,19.81 -39.62,20.01 -39.50,20.21 -39.44,20.44 -39.37,20.66 -39.36,20.89 -39.35,21.12 -39.40,21.35 -39.45,21.58 -39.54,21.79 -39.64,22.00 -39.79,22.18 -39.94,22.36 -40.89,24.13 -41.84,25.91 -43.29,27.96 -44.73,30.02 -46.54,32.39 -48.34,34.76 -50.27,37.19 -52.20,39.61 -54.06,41.85 -55.91,44.08 -57.87,46.40 -59.82,48.72 -61.99,51.21 -64.15,53.70 -66.48,56.31 -68.81,58.91 -71.03,61.19 -73.25,63.48 -74.93,65.10 -76.61,66.73 -77.77,67.63 -78.93,68.54 -80.03,68.97 -81.13,69.40 -82.20,68.49 -83.27,67.57 -82.51,65.30 -81.75,63.02 -80.76,61.34 -79.78,59.66 -78.49,57.42 -77.21,55.18 -75.64,52.71 -74.07,50.24 -72.55,48.07 -71.04,45.89 -69.60,44.06 -68.15,42.22 -66.96,40.68 -65.76,39.13 -64.78,37.94 -63.80,36.74 -62.93,35.90 -62.07,35.06 -61.90,34.91 -61.73,34.75 -61.53,34.65 -61.32,34.54 -61.10,34.48 -60.88,34.42 -60.65,34.42 -60.42,34.42 -60.20,34.47 -59.98,34.53 -59.77,34.63 -59.57,34.74 -59.40,34.89 -59.23,35.04 -59.09,35.22 -58.96,35.41 -58.88,35.63 -58.80,35.84 -58.77,36.07 -58.74,36.29 -58.76,36.52 -58.79,36.75 -58.87,36.96 -58.95,37.18 -59.08,37.37 -59.21,37.56 -60.63,39.65 -62.04,41.74 -63.56,43.62 -65.08,45.51 -66.80,47.57 -68.53,49.64 -70.18,51.61 -71.83,53.57 -74.59,56.91 -77.36,60.25 -79.73,63.20 -82.11,66.15 -84.17,68.44 -86.24,70.72 -87.83,72.07 -89.41,73.42 -90.85,73.96 -92.29,74.51 -93.50,73.38 -94.71,72.25 -93.86,69.97 -93.01,67.69 -91.92,65.75 -90.83,63.80 -89.43,61.51 -88.04,59.22 -86.53,56.84 -85.02,54.46 -83.56,52.28 -82.10,50.10 -81.04,48.61 -79.99,47.12 -79.43,46.43 -78.88,45.74 -78.73,45.57 -78.57,45.40 -78.38,45.27 -78.19,45.14 -77.97,45.06 -77.76,44.99 -77.53,44.96 -77.30,44.93 -77.07,44.97 -76.84,45.00 -76.63,45.08 -76.41,45.16 -76.23,45.30 -76.04,45.43 -75.89,45.60 -75.74,45.78 -75.63,45.98 -75.53,46.19 -75.48,46.41 -75.42,46.64 -75.43,46.87 -75.43,47.10 -75.49,47.32 -75.54,47.54 -75.65,47.74 -75.76,47.95 -76.31,48.97 -76.86,49.99 -78.12,51.85 -79.38,53.71 -81.00,55.85 -82.62,57.99 -84.31,59.97 -86.00,61.94 -87.63,63.66 -89.26,65.37 -90.69,66.87 -92.13,68.37 -93.40,69.61 -94.68,70.84 -95.74,71.77 -96.80,72.70 -97.38,73.09 -97.96,73.48 -98.16,73.61 -98.35,73.74 -98.56,73.82 -98.78,73.90 -99.01,73.93 -99.24,73.96 -99.47,73.93 -99.70,73.90 -99.92,73.81 -100.14,73.73 -100.33,73.60 -100.52,73.46 -100.67,73.29 -100.82,73.11 -100.93,72.91 -101.04,72.70 -101.09,72.48 -101.14,72.25 -101.14,72.02 -101.14,71.79 -101.08,71.56 -101.03,71.34 -100.92,71.13 -100.81,70.93 -100.65,70.75 -100.50,70.58 -99.87,69.14 -99.24,67.69 -98.04,66.01 -96.85,64.32 -95.48,62.80 -94.12,61.27 -93.06,60.07 -92.00,58.88 -91.13,57.96 -90.26,57.05 -90.09,56.90 -89.91,56.75 -89.70,56.64 -89.50,56.54 -89.27,56.48 -89.04,56.43 -88.81,56.43 -88.58,56.44 -88.36,56.50 -88.13,56.56 -87.93,56.67 -87.72,56.78 -87.55,56.93 -87.38,57.09 -87.25,57.28 -87.12,57.48 -87.04,57.70 -86.96,57.91 -86.94,58.15 -86.91,58.38 -86.95,58.61 -86.98,58.84 -87.06,59.05 -87.15,59.27 -87.28,59.46 -87.42,59.65 -88.92,61.82 -90.42,63.99 -91.81,65.79 -93.21,67.60 -95.41,70.14 -97.62,72.69 -98.75,73.93 -99.88,75.16 -100.36,75.63 -100.85,76.09 -101.03,76.24 -101.20,76.39 -101.41,76.50 -101.61,76.60 -101.84,76.65 -102.06,76.70 -102.29,76.70 -102.52,76.70 -102.74,76.64 -102.97,76.58 -103.17,76.47 -103.37,76.36 -103.54,76.20 -103.71,76.05 -103.84,75.86 -103.97,75.67 -104.04,75.45 -104.12,75.23 -104.15,75.00 -104.17,74.77 -104.14,74.55 -104.11,74.32 -104.02,74.10 -103.94,73.89 -103.81,73.70 -103.67,73.52 -102.83,72.02 -102.00,70.53 -101.18,69.62 -100.37,68.70 -99.58,67.93 -98.80,67.16 -98.61,67.02 -98.43,66.88 -98.22,66.78 -98.01,66.69 -97.78,66.65 -97.56,66.61 -97.33,66.62 -97.09,66.63 -96.87,66.70 -96.65,66.77 -96.46,66.89 -96.26,67.01 -96.09,67.17 -95.93,67.34 -95.81,67.53 -95.69,67.73 -95.62,67.95 -95.55,68.17 -95.54,68.40 -95.52,68.63 -95.57,68.86 -95.61,69.09 -95.70,69.30 -95.80,69.51 -95.94,69.69 -96.08,69.87 -96.62,70.87 -97.16,71.86 -98.01,72.90 -98.85,73.94 -99.86,75.04 -100.86,76.15 -101.92,77.23 -102.97,78.30 -104.39,78.71 -105.81,79.12 -105.93,79.22 -106.05,79.32 -106.20,79.39 -106.34,79.45 -106.50,79.48 -106.65,79.51 -106.81,79.50 -106.97,79.50 -107.12,79.45 -107.27,79.40 -107.41,79.32 -107.54,79.24 -107.66,79.13 -107.77,79.02 -107.85,78.89 -107.94,78.75 -107.98,78.60 -108.03,78.45 -108.04,78.29 -108.05,78.13 -108.03,77.98 -108.00,77.82 -107.94,77.68 -107.87,77.53 -107.78,77.41 -107.68,77.28 -107.62,77.23 -107.57,77.18 -107.38,77.08 -107.20,76.97 -106.99,76.93 -106.78,76.89 -106.57,76.92 -106.36,76.95 -106.17,77.04 -105.98,77.13 -105.83,77.28 -105.68,77.43 -105.58,77.62 -105.49,77.81 -105.46,78.02 -105.43,78.23 -105.47,78.44 -105.51,78.65 -105.61,78.84 -105.72,79.02 -105.88,79.16 -106.03,79.31 -106.23,79.39 -106.42,79.48 -106.63,79.49 -106.85,79.51 -107.05,79.46 -107.26,79.41 -107.44,79.30 -107.62,79.18 -107.75,79.02 -107.88,78.85 -107.96,78.65 -108.03,78.45 -108.04,78.24 -108.05,78.03 -107.98,77.82 -107.92,77.62 -107.80,77.45 -107.67,77.28 -107.50,77.15 -107.33,77.03 -107.13,76.96 -106.92,76.90 -106.71,76.91 -106.50,76.91 -106.30,76.98 -106.10,77.06 -105.93,77.19 -105.77,77.32 -105.65,77.50 -105.54,77.68 -105.49,77.89 -105.43,78.09 -105.45,78.30 -105.47,78.52 -105.55,78.71 -105.63,78.91 -105.72,79.01 -105.81,79.12 -105.93,79.22 -106.05,79.32 -106.20,79.39 -106.34,79.45 -106.50,79.48 -106.65,79.51 -106.81,79.50 -106.97,79.50 -107.12,79.45 -107.27,79.40 -107.41,79.32 -107.54,79.24 -107.66,79.13 -107.77,79.02 -107.85,78.89 -107.94,78.75 -107.98,78.60 -108.03,78.45 -108.04,78.29 -108.05,78.13 -108.03,77.98 -108.00,77.82 -107.94,77.68 -107.87,77.53 -107.78,77.41 -107.68,77.28 -106.69,76.45 -105.71,75.62 -104.70,74.60 -103.70,73.58 -102.76,72.54 -101.82,71.50 -101.04,70.56 -100.27,69.62 -99.53,68.39 -98.80,67.17 -98.61,67.02 -98.43,66.88 -98.22,66.78 -98.01,66.69 -97.78,66.65 -97.56,66.61 -97.33,66.62 -97.09,66.63 -96.87,66.70 -96.65,66.77 -96.46,66.89 -96.26,67.01 -96.09,67.17 -95.93,67.34 -95.81,67.53 -95.69,67.73 -95.62,67.95 -95.55,68.17 -95.54,68.40 -95.52,68.63 -95.57,68.86 -95.61,69.09 -95.70,69.30 -95.80,69.51 -95.94,69.69 -96.08,69.87 -96.33,70.09 -96.57,70.30 -97.75,71.56 -98.93,72.82 -99.89,74.46 -100.85,76.09 -101.03,76.24 -101.20,76.39 -101.41,76.50 -101.61,76.60 -101.84,76.65 -102.06,76.70 -102.29,76.70 -102.52,76.70 -102.74,76.64 -102.97,76.58 -103.17,76.47 -103.37,76.36 -103.54,76.20 -103.71,76.05 -103.84,75.86 -103.97,75.67 -104.04,75.45 -104.12,75.23 -104.15,75.00 -104.17,74.77 -104.14,74.55 -104.11,74.32 -104.02,74.10 -103.94,73.89 -103.81,73.70 -103.67,73.52 -103.19,73.05 -102.71,72.58 -101.61,71.38 -100.52,70.18 -98.38,67.71 -96.25,65.25 -94.87,63.46 -93.50,61.68 -91.88,59.37 -90.26,57.05 -90.09,56.90 -89.91,56.75 -89.70,56.64 -89.50,56.54 -89.27,56.48 -89.04,56.43 -88.81,56.43 -88.58,56.44 -88.36,56.50 -88.13,56.56 -87.93,56.67 -87.72,56.78 -87.55,56.93 -87.38,57.09 -87.25,57.28 -87.12,57.48 -87.04,57.70 -86.96,57.91 -86.94,58.15 -86.91,58.38 -86.95,58.61 -86.98,58.84 -87.06,59.05 -87.15,59.27 -87.28,59.46 -87.42,59.65 -88.28,60.53 -89.14,61.41 -90.20,62.62 -91.27,63.83 -92.50,65.19 -93.72,66.55 -94.82,68.09 -95.92,69.64 -96.94,71.56 -97.96,73.48 -98.16,73.61 -98.35,73.74 -98.56,73.82 -98.78,73.90 -99.01,73.93 -99.24,73.96 -99.47,73.93 -99.70,73.90 -99.92,73.81 -100.14,73.73 -100.33,73.60 -100.52,73.46 -100.67,73.29 -100.82,73.11 -100.93,72.91 -101.04,72.70 -101.09,72.48 -101.14,72.25 -101.14,72.02 -101.14,71.79 -101.08,71.56 -101.03,71.34 -100.92,71.13 -100.81,70.93 -100.65,70.75 -100.50,70.58 -99.91,70.19 -99.33,69.80 -98.34,68.94 -97.36,68.08 -96.14,66.89 -94.91,65.70 -93.49,64.21 -92.06,62.72 -90.49,61.07 -88.93,59.42 -87.31,57.55 -85.69,55.67 -84.12,53.61 -82.56,51.55 -81.35,49.78 -80.15,48.02 -79.51,46.88 -78.88,45.74 -78.73,45.57 -78.57,45.40 -78.38,45.27 -78.19,45.14 -77.97,45.06 -77.76,44.99 -77.53,44.96 -77.30,44.93 -77.07,44.97 -76.84,45.00 -76.63,45.08 -76.42,45.16 -76.23,45.30 -76.04,45.43 -75.89,45.60 -75.74,45.78 -75.63,45.98 -75.53,46.19 -75.48,46.41 -75.42,46.64 -75.43,46.87 -75.43,47.10 -75.49,47.32 -75.54,47.54 -75.65,47.74 -75.76,47.95 -76.32,48.63 -76.88,49.32 -77.90,50.77 -78.92,52.22 -80.35,54.37 -81.77,56.52 -83.26,58.87 -84.75,61.22 -86.11,63.45 -87.46,65.68 -88.52,67.57 -89.58,69.46 -90.48,71.06 -91.38,72.66 -91.62,71.56 -91.86,70.45 -90.47,69.30 -89.07,68.14 -87.08,65.95 -85.08,63.76 -82.69,60.78 -80.29,57.81 -77.51,54.48 -74.73,51.14 -73.09,49.17 -71.45,47.21 -69.74,45.16 -68.03,43.12 -66.56,41.30 -65.09,39.49 -63.58,37.27 -62.07,35.06 -61.90,34.91 -61.73,34.75 -61.53,34.65 -61.32,34.54 -61.10,34.48 -60.88,34.42 -60.65,34.42 -60.42,34.42 -60.20,34.47 -59.98,34.53 -59.77,34.63 -59.57,34.74 -59.40,34.89 -59.23,35.04 -59.09,35.22 -58.96,35.41 -58.88,35.63 -58.80,35.84 -58.77,36.07 -58.74,36.29 -58.76,36.52 -58.79,36.75 -58.87,36.96 -58.95,37.18 -59.08,37.37 -59.21,37.56 -60.03,38.36 -60.85,39.16 -61.80,40.31 -62.75,41.47 -63.96,43.02 -65.16,44.58 -66.54,46.32 -67.92,48.07 -69.39,50.18 -70.86,52.28 -72.39,54.68 -73.93,57.07 -75.23,59.31 -76.52,61.55 -77.47,63.20 -78.42,64.84 -79.22,66.16 -80.02,67.48 -80.65,66.49 -81.27,65.49 -80.27,64.73 -79.26,63.97 -77.62,62.40 -75.98,60.83 -73.82,58.60 -71.65,56.37 -69.34,53.79 -67.04,51.21 -64.90,48.72 -62.76,46.24 -60.81,43.93 -58.86,41.63 -57.03,39.43 -55.20,37.22 -53.29,34.82 -51.39,32.43 -49.61,30.13 -47.84,27.83 -46.47,25.88 -45.10,23.92 -43.85,21.76 -42.61,19.59 -42.42,19.45 -42.24,19.31 -42.02,19.22 -41.81,19.13 -41.58,19.09 -41.35,19.05 -41.12,19.07 -40.89,19.09 -40.67,19.16 -40.45,19.23 -40.26,19.36 -40.06,19.48 -39.90,19.65 -39.74,19.81 -39.62,20.01 -39.50,20.21 -39.44,20.44 -39.37,20.66 -39.36,20.89 -39.35,21.12 -39.40,21.35 -39.45,21.58 -39.54,21.79 -39.64,22.00 -39.79,22.17 -39.94,22.35 -40.71,23.07 -41.48,23.78 -42.40,24.71 -43.32,25.64 -44.67,27.10 -46.01,28.56 -47.75,30.55 -49.48,32.54 -51.33,34.80 -53.18,37.05 -54.87,39.27 -56.56,41.48 -57.90,43.46 -59.23,45.43 -60.16,46.81 -61.10,48.19 -61.71,49.12 -62.33,50.04 -63.12,51.03 -63.91,52.02 -64.13,52.10 -64.35,52.18 -64.58,52.21 -64.81,52.23 -65.04,52.20 -65.27,52.17 -65.49,52.09 -65.71,52.00 -65.90,51.87 -66.09,51.73 -66.24,51.56 -66.39,51.38 -66.50,51.18 -66.61,50.97 -66.66,50.74 -66.71,50.51 -66.71,50.28 -66.71,50.05 -66.65,49.82 -66.59,49.60 -66.48,49.39 -66.37,49.19 -66.22,49.01 -66.06,48.84 -65.87,48.71 -65.68,48.58 -65.50,48.50 -65.33,48.41 -64.01,47.67 -62.68,46.93 -61.67,46.18 -60.66,45.43 -59.60,44.67 -58.54,43.90 -57.38,43.05 -56.22,42.19 -54.92,41.21 -53.61,40.23 -51.94,38.77 -50.26,37.32 -48.32,35.41 -46.37,33.50 -44.33,31.27 -42.29,29.05 -40.25,26.64 -38.21,24.23 -36.28,21.94 -34.35,19.65 -32.61,17.71 -30.87,15.76 -29.23,14.00 -27.59,12.25 -26.10,10.58 -24.60,8.91 -23.38,7.48 -22.17,6.04 -21.06,4.87 -19.95,3.69 -19.79,3.53 -19.63,3.36 -19.43,3.24 -19.24,3.12 -19.02,3.05 -18.80,2.98 -18.57,2.96 -18.34,2.94 -18.11,2.98 -17.89,3.02 -17.68,3.11 -17.47,3.20 -17.28,3.34 -17.10,3.48 -16.96,3.66 -16.81,3.84 -16.71,4.04 -16.62,4.25 -16.57,4.48 -16.53,4.70 -16.54,4.93 -16.55,5.16 -16.61,5.38 -16.68,5.60 -16.79,5.80 -16.91,6.00 -16.86,6.02 -16.81,6.04 -17.79,7.29 -18.77,8.54 -19.75,9.72 -20.74,10.90 -22.06,12.44 -23.37,13.98 -24.82,15.71 -26.26,17.43 -27.55,19.04 -28.83,20.65 -29.79,21.98 -30.75,23.32 -31.43,24.41 -32.12,25.51 -32.94,26.46 -33.76,27.42 -34.31,26.47 -34.86,25.52 -33.87,25.08 -32.88,24.63 -31.72,24.05 -30.57,23.47 -29.33,22.73 -28.09,22.00 -26.73,21.13 -25.38,20.27 -23.93,19.28 -22.49,18.30 -21.04,17.18 -19.58,16.06 -18.19,14.92 -16.81,13.78 -15.60,12.72 -14.40,11.66 -13.39,10.68 -12.39,9.71 -11.50,8.71 -10.60,7.72 -9.68,6.63 -8.76,5.55 -7.91,4.64 -7.06,3.72 -6.20,2.77 -5.34,1.82 -4.33,0.99 -3.32,0.17 -2.09,-0.58 -0.85,-1.34 -0.68,-1.42 -0.51,-1.50 -0.32,-1.54 -0.13,-1.58 0.05,-1.58 0.24,-1.57 0.43,-1.52 0.61,-1.46 0.78,-1.37 0.95,-1.27 1.08,-1.14 1.22,-1.01 1.33,-0.85 1.43,-0.68 1.49,-0.50 1.55,-0.32 1.57,-0.13 1.59,0.05 1.56,0.24 1.53,0.43 1.45,0.61 1.38,0.78 1.26,0.94 1.15,1.09 1.00,1.21 0.85,1.34 0.85,1.34 L 0.85,1.34 Z"/></g></svg>