<svg version="1.1" xmlns="http://www.w3.org/2000/svg" viewBox="0 0 340.6996154785156 307.42926025390625" width="340.6996154785156" height="307.42926025390625" filter="invert(93%) hue-rotate(180deg)">
  <!-- svg-source:excalidraw -->
  
  <defs>
    <style class="style-fonts">
      @font-face {
        font-family: "Virgil";
        src: url("https://excalidraw.com/Virgil.woff2");
      }
      @font-face {
        font-family: "Cascadia";
        src: url("https://excalidraw.com/Cascadia.woff2");
      }
    </style>
  </defs>
  <rect x="0" y="0" width="340.6996154785156" height="307.42926025390625" fill="transparent"/><g stroke-linecap="round"><g transform="translate(38.900238037109375 297.42926025390625) rotate(0 7.105427357601002e-15 -141.86679077148438)"><path d="M0 0 C0 -66.58, 0 -133.16, 0 -283.73 M0 0 C0 -68.99, 0 -137.99, 0 -283.73" stroke="#1e1e1e" stroke-width="4" fill="none"/></g></g><mask/><g stroke-linecap="round"><g transform="translate(10 267.5309753417969) rotate(0 159.8170928955078 0)"><path d="M0 0 C107.89 0, 215.77 0, 319.63 0 M0 0 C123.1 0, 246.2 0, 319.63 0" stroke="#1e1e1e" stroke-width="4" fill="none"/></g></g><mask/><g stroke-linecap="round"><g transform="translate(17.12518310546875 164.18563842773438) rotate(0 156.78721618652344 0)"><path d="M0 0 C122.54 0, 245.09 0, 313.57 0 M0 0 C118.27 0, 236.54 0, 313.57 0" stroke="#e03131" stroke-width="4" fill="none"/></g></g><mask/><g stroke-linecap="round"><g transform="translate(17.7244873046875 287.3743591308594) rotate(0 130.2156867980957 -130.2156867980957)"><path d="M0 0 C85.08 -85.08, 170.16 -170.16, 260.43 -260.43 M0 0 C102.57 -102.57, 205.15 -205.15, 260.43 -260.43" stroke="#e03131" stroke-width="4" fill="none"/></g></g><mask/><g stroke-linecap="round"><g transform="translate(142.6814727783203 270.2278594970703) rotate(0 1.0658141036401503e-14 -130.11392974853516)"><path d="M0 0 C0 -87.97, 0 -175.95, 0 -260.23" stroke="#e03131" stroke-width="4.5" fill="none" stroke-dasharray="8 12"/></g></g><mask/><g transform="translate(125.26809692382812 185.69369506835938) rotate(0 -26.503021240234375 39.52027893066406)" stroke="none"><path fill="#e03131" d="M 1.49,-0.52 Q 1.49,-0.52 2.46,2.18 3.43,4.90 4.60,7.48 5.77,10.06 7.05,12.63 8.33,15.21 9.64,17.49 10.95,19.78 11.99,21.59 13.04,23.41 13.66,24.64 14.29,25.88 14.44,26.44 14.60,27.00 14.67,27.18 14.74,27.37 14.76,27.56 14.78,27.76 14.75,27.95 14.72,28.15 14.65,28.33 14.57,28.51 14.46,28.67 14.35,28.83 14.20,28.96 14.05,29.09 13.87,29.17 13.70,29.26 13.50,29.31 13.31,29.35 13.12,29.35 12.92,29.34 12.73,29.29 12.54,29.24 12.37,29.15 12.20,29.05 12.05,28.92 11.91,28.79 11.80,28.62 11.69,28.46 10.09,28.11 8.50,27.76 6.43,26.62 4.37,25.48 2.26,24.37 0.16,23.26 -1.47,22.53 -3.11,21.79 -4.17,21.44 -5.23,21.10 -4.50,24.13 -3.77,27.16 -2.53,30.23 -1.30,33.30 0.30,36.35 1.91,39.39 3.66,42.04 5.40,44.70 7.03,46.75 8.66,48.80 9.83,50.28 10.99,51.76 11.58,52.53 12.17,53.29 12.28,53.47 12.40,53.66 12.46,53.86 12.53,54.07 12.54,54.28 12.56,54.50 12.52,54.71 12.48,54.92 12.40,55.12 12.31,55.32 12.18,55.49 12.05,55.66 11.88,55.80 11.71,55.93 11.51,56.02 11.32,56.11 11.10,56.15 10.89,56.19 10.68,56.18 10.46,56.17 10.25,56.11 10.05,56.04 9.86,55.93 9.68,55.82 9.52,55.67 9.37,55.52 7.91,54.04 6.45,52.56 3.93,50.33 1.42,48.10 -1.76,45.55 -4.94,42.99 -7.91,40.92 -10.89,38.84 -13.03,37.53 -15.18,36.22 -16.17,35.80 -17.17,35.39 -16.30,36.14 -15.44,36.89 -13.43,39.39 -11.42,41.89 -8.10,45.72 -4.78,49.55 -1.69,52.87 1.39,56.18 4.30,58.80 7.21,61.42 9.56,63.19 11.92,64.96 13.07,65.85 14.23,66.73 14.39,66.88 14.56,67.04 14.68,67.23 14.80,67.42 14.88,67.63 14.95,67.85 14.97,68.07 14.99,68.30 14.96,68.52 14.92,68.75 14.83,68.96 14.75,69.17 14.61,69.35 14.48,69.53 14.30,69.67 14.13,69.82 13.93,69.92 13.72,70.02 13.50,70.06 13.28,70.11 13.05,70.10 12.83,70.10 12.61,70.03 12.39,69.97 12.19,69.86 12.00,69.75 10.06,67.36 8.12,64.97 4.85,62.00 1.59,59.03 -2.42,55.75 -6.43,52.48 -10.00,49.63 -13.57,46.77 -16.37,44.83 -19.16,42.88 -21.23,41.76 -23.30,40.63 -23.84,39.60 -24.37,38.57 -23.29,40.13 -22.20,41.68 -19.93,44.79 -17.65,47.90 -14.41,51.93 -11.17,55.96 -8.06,59.93 -4.95,63.89 -2.43,67.13 0.08,70.37 1.67,72.51 3.26,74.65 3.39,74.86 3.51,75.06 3.58,75.29 3.65,75.52 3.66,75.76 3.68,75.99 3.64,76.23 3.59,76.46 3.49,76.68 3.40,76.90 3.25,77.09 3.10,77.27 2.91,77.42 2.73,77.57 2.51,77.66 2.29,77.76 2.06,77.80 1.82,77.85 1.58,77.83 1.35,77.82 1.12,77.75 0.89,77.68 0.69,77.55 0.48,77.43 0.32,77.26 0.15,77.09 -3.14,74.22 -6.44,71.35 -10.97,67.20 -15.50,63.06 -20.35,58.74 -25.19,54.42 -29.02,51.48 -32.85,48.54 -35.27,47.38 -37.69,46.23 -37.84,46.08 -37.99,45.93 -38.10,45.75 -38.21,45.57 -38.27,45.37 -38.34,45.17 -38.35,44.96 -38.37,44.75 -38.33,44.54 -38.29,44.33 -38.21,44.14 -38.12,43.95 -37.99,43.78 -37.86,43.61 -37.70,43.48 -37.53,43.35 -37.34,43.26 -37.15,43.17 -36.94,43.13 -36.73,43.09 -36.52,43.11 -36.31,43.12 -36.11,43.18 -35.91,43.24 -35.73,43.35 -35.55,43.46 -35.32,47.34 -35.10,51.22 -33.99,55.01 -32.87,58.81 -31.25,62.51 -29.63,66.21 -28.03,68.75 -26.44,71.28 -25.29,72.50 -24.14,73.72 -23.48,73.91 -22.83,74.10 -22.68,74.29 -22.54,74.49 -22.44,74.71 -22.35,74.93 -22.31,75.17 -22.27,75.42 -22.29,75.66 -22.31,75.90 -22.39,76.13 -22.46,76.36 -22.59,76.57 -22.73,76.77 -22.90,76.94 -23.08,77.11 -23.29,77.23 -23.50,77.35 -23.73,77.42 -23.97,77.49 -24.21,77.50 -24.46,77.51 -24.69,77.46 -24.93,77.41 -25.15,77.30 -25.37,77.20 -25.56,77.05 -25.75,76.89 -26.62,75.16 -27.50,73.43 -29.58,70.41 -31.65,67.39 -34.67,63.57 -37.68,59.76 -39.99,56.95 -42.31,54.15 -43.70,52.90 -45.08,51.65 -45.20,51.47 -45.31,51.29 -45.38,51.08 -45.45,50.88 -45.47,50.67 -45.49,50.45 -45.45,50.24 -45.42,50.03 -45.34,49.83 -45.25,49.63 -45.12,49.46 -45.00,49.29 -44.83,49.15 -44.66,49.02 -44.47,48.93 -44.28,48.83 -44.07,48.79 -43.86,48.75 -43.64,48.75 -43.43,48.76 -43.22,48.82 -43.02,48.88 -42.83,48.99 -42.64,49.09 -42.49,49.24 -42.33,49.39 -42.48,50.85 -42.62,52.30 -41.97,54.10 -41.32,55.90 -40.41,58.74 -39.50,61.59 -38.84,64.04 -38.17,66.49 -38.00,67.82 -37.82,69.14 -37.79,69.39 -37.75,69.64 -37.78,69.89 -37.80,70.14 -37.89,70.38 -37.98,70.62 -38.12,70.83 -38.25,71.04 -38.44,71.21 -38.63,71.38 -38.85,71.50 -39.07,71.62 -39.31,71.69 -39.56,71.75 -39.81,71.76 -40.06,71.76 -40.31,71.71 -40.56,71.65 -40.78,71.54 -41.01,71.42 -41.20,71.26 -41.39,71.10 -41.54,70.89 -41.69,70.69 -41.78,70.45 -41.87,70.22 -43.71,69.58 -45.55,68.93 -47.90,67.30 -50.25,65.66 -52.10,64.82 -53.96,63.97 -54.74,65.20 -55.52,66.43 -55.93,68.02 -56.34,69.61 -57.13,71.07 -57.92,72.54 -59.33,73.15 -60.74,73.75 -62.73,73.12 -64.73,72.50 -65.34,71.43 -65.95,70.36 -66.09,70.28 -66.22,70.20 -66.34,70.10 -66.46,69.99 -66.54,69.86 -66.63,69.73 -66.69,69.58 -66.74,69.43 -66.76,69.27 -66.77,69.11 -66.75,68.96 -66.73,68.80 -66.67,68.65 -66.61,68.50 -66.52,68.38 -66.42,68.25 -66.30,68.14 -66.18,68.04 -66.04,67.97 -65.90,67.90 -65.75,67.87 -65.59,67.83 -65.43,67.83 -65.28,67.84 -65.12,67.88 -64.97,67.92 -64.79,68.03 -64.60,68.14 -64.46,68.30 -64.33,68.47 -64.25,68.67 -64.17,68.86 -64.16,69.08 -64.15,69.29 -64.21,69.49 -64.27,69.70 -64.39,69.87 -64.51,70.05 -64.68,70.17 -64.85,70.30 -65.05,70.37 -65.25,70.43 -65.47,70.43 -65.68,70.43 -65.88,70.36 -66.08,70.29 -66.25,70.16 -66.42,70.03 -66.54,69.86 -66.65,69.68 -66.71,69.47 -66.76,69.27 -66.75,69.06 -66.74,68.85 -66.66,68.65 -66.58,68.45 -66.44,68.29 -66.30,68.13 -66.12,68.02 -65.94,67.91 -65.73,67.87 -65.52,67.82 -65.31,67.85 -65.10,67.87 -64.91,67.96 -64.71,68.06 -64.56,68.20 -64.41,68.35 -64.31,68.54 -64.21,68.73 -64.18,68.94 -64.14,69.15 -64.18,69.36 -64.22,69.57 -64.32,69.75 -64.42,69.94 -64.57,70.08 -64.73,70.23 -64.92,70.32 -65.12,70.40 -65.33,70.43 -65.54,70.45 -65.75,70.40 -65.95,70.35 -65.95,70.35 -65.95,70.36 -66.09,70.28 -66.22,70.20 -66.34,70.10 -66.46,69.99 -66.54,69.86 -66.63,69.73 -66.69,69.58 -66.74,69.43 -66.76,69.27 -66.77,69.11 -66.75,68.96 -66.73,68.80 -66.67,68.65 -66.61,68.50 -66.52,68.38 -66.42,68.25 -66.30,68.14 -66.18,68.04 -66.04,67.97 -65.90,67.90 -65.75,67.87 -65.59,67.83 -65.43,67.83 -65.28,67.84 -65.12,67.88 -64.97,67.92 -64.08,68.29 -63.18,68.66 -61.77,68.58 -60.36,68.50 -59.81,66.58 -59.26,64.66 -58.14,62.90 -57.01,61.14 -54.91,60.71 -52.81,60.29 -50.41,61.34 -48.01,62.40 -45.57,64.06 -43.13,65.72 -42.02,66.76 -40.90,67.80 -39.36,68.47 -37.82,69.14 -37.79,69.39 -37.75,69.64 -37.78,69.89 -37.80,70.14 -37.89,70.38 -37.98,70.62 -38.12,70.83 -38.25,71.04 -38.44,71.21 -38.63,71.38 -38.85,71.50 -39.07,71.62 -39.31,71.69 -39.56,71.75 -39.81,71.76 -40.06,71.76 -40.31,71.71 -40.56,71.65 -40.78,71.54 -41.01,71.42 -41.20,71.26 -41.39,71.10 -41.54,70.89 -41.69,70.69 -41.78,70.45 -41.87,70.22 -42.01,68.88 -42.15,67.54 -42.77,65.18 -43.39,62.81 -44.32,59.82 -45.26,56.82 -45.17,54.24 -45.08,51.65 -45.20,51.47 -45.31,51.29 -45.38,51.08 -45.45,50.88 -45.47,50.67 -45.49,50.45 -45.45,50.24 -45.42,50.03 -45.34,49.83 -45.25,49.63 -45.12,49.46 -45.00,49.29 -44.83,49.15 -44.67,49.02 -44.47,48.93 -44.28,48.83 -44.07,48.79 -43.86,48.75 -43.64,48.75 -43.43,48.76 -43.22,48.82 -43.02,48.88 -42.83,48.99 -42.64,49.09 -42.49,49.24 -42.33,49.39 -41.06,50.73 -39.78,52.07 -37.45,54.90 -35.13,57.74 -32.08,61.62 -29.03,65.49 -26.67,68.58 -24.31,71.68 -23.57,72.89 -22.83,74.09 -22.68,74.29 -22.54,74.49 -22.44,74.71 -22.35,74.93 -22.31,75.17 -22.27,75.41 -22.29,75.66 -22.31,75.90 -22.39,76.13 -22.46,76.36 -22.59,76.57 -22.73,76.77 -22.90,76.94 -23.08,77.11 -23.29,77.23 -23.50,77.35 -23.73,77.42 -23.97,77.49 -24.21,77.50 -24.46,77.51 -24.69,77.46 -24.93,77.41 -25.15,77.30 -25.37,77.20 -25.56,77.05 -25.75,76.89 -26.25,76.79 -26.75,76.69 -28.32,75.07 -29.88,73.45 -31.63,70.65 -33.37,67.85 -35.09,63.88 -36.81,59.90 -37.97,55.44 -39.13,50.98 -38.41,48.61 -37.69,46.23 -37.84,46.08 -37.99,45.93 -38.10,45.75 -38.21,45.57 -38.27,45.37 -38.34,45.17 -38.35,44.96 -38.37,44.75 -38.33,44.54 -38.29,44.33 -38.21,44.14 -38.12,43.95 -37.99,43.78 -37.86,43.61 -37.70,43.48 -37.53,43.35 -37.34,43.26 -37.15,43.17 -36.94,43.13 -36.73,43.09 -36.52,43.11 -36.31,43.12 -36.11,43.18 -35.91,43.24 -35.73,43.35 -35.55,43.46 -33.19,44.69 -30.83,45.92 -26.93,48.95 -23.03,51.99 -18.17,56.32 -13.30,60.65 -8.76,64.80 -4.21,68.95 -1.67,71.27 0.86,73.59 2.06,74.12 3.26,74.65 3.39,74.86 3.51,75.06 3.58,75.29 3.65,75.52 3.66,75.76 3.68,75.99 3.64,76.23 3.59,76.46 3.49,76.68 3.40,76.90 3.25,77.08 3.10,77.27 2.91,77.42 2.73,77.57 2.51,77.66 2.29,77.76 2.06,77.80 1.82,77.85 1.58,77.83 1.35,77.82 1.12,77.75 0.89,77.68 0.69,77.55 0.48,77.43 0.32,77.26 0.15,77.09 -1.44,74.95 -3.03,72.81 -5.56,69.59 -8.10,66.37 -11.21,62.42 -14.31,58.47 -17.60,54.34 -20.89,50.21 -23.25,46.80 -25.61,43.40 -26.43,41.17 -27.24,38.94 -26.36,37.81 -25.48,36.69 -23.61,37.24 -21.75,37.79 -19.53,39.00 -17.31,40.21 -14.43,42.23 -11.54,44.24 -7.96,47.10 -4.38,49.97 -0.30,53.30 3.76,56.64 7.09,59.66 10.42,62.69 12.32,64.71 14.23,66.73 14.39,66.88 14.56,67.04 14.68,67.23 14.80,67.42 14.88,67.63 14.95,67.85 14.97,68.07 14.99,68.30 14.96,68.52 14.92,68.75 14.83,68.96 14.75,69.16 14.61,69.35 14.48,69.53 14.30,69.67 14.13,69.82 13.93,69.92 13.72,70.02 13.50,70.06 13.28,70.11 13.05,70.10 12.83,70.10 12.61,70.03 12.39,69.97 12.19,69.86 12.00,69.75 10.81,68.91 9.62,68.07 7.09,66.24 4.57,64.40 1.48,61.69 -1.59,58.99 -4.75,55.62 -7.92,52.25 -11.30,48.30 -14.69,44.34 -16.84,41.30 -18.99,38.26 -19.42,36.51 -19.85,34.75 -18.48,33.48 -17.10,32.21 -15.25,32.76 -13.39,33.31 -11.18,34.71 -8.97,36.11 -5.92,38.26 -2.87,40.41 0.36,43.01 3.60,45.62 6.19,47.88 8.78,50.14 10.47,51.71 12.17,53.29 12.28,53.47 12.40,53.66 12.46,53.86 12.53,54.07 12.54,54.28 12.56,54.50 12.52,54.71 12.48,54.92 12.40,55.12 12.31,55.32 12.18,55.49 12.05,55.66 11.88,55.80 11.71,55.93 11.51,56.02 11.32,56.11 11.10,56.15 10.89,56.19 10.68,56.18 10.46,56.17 10.25,56.11 10.05,56.04 9.86,55.93 9.68,55.82 9.52,55.67 9.37,55.52 8.77,54.76 8.17,54.01 6.99,52.54 5.81,51.07 4.08,48.89 2.34,46.71 0.51,43.90 -1.32,41.09 -3.00,37.87 -4.68,34.64 -5.96,31.34 -7.25,28.04 -7.85,25.25 -8.46,22.47 -7.95,20.84 -7.44,19.21 -6.02,18.58 -4.60,17.95 -3.18,18.38 -1.76,18.80 -0.03,19.59 1.69,20.37 3.82,21.50 5.95,22.62 7.98,23.75 10.01,24.88 11.05,25.53 12.09,26.19 13.34,26.59 14.60,27.00 14.67,27.18 14.74,27.37 14.76,27.56 14.78,27.76 14.75,27.95 14.72,28.15 14.65,28.33 14.57,28.51 14.46,28.67 14.35,28.83 14.20,28.96 14.05,29.09 13.87,29.17 13.70,29.26 13.50,29.31 13.31,29.35 13.12,29.35 12.92,29.34 12.73,29.29 12.54,29.24 12.37,29.15 12.20,29.05 12.05,28.92 11.91,28.79 11.80,28.62 11.69,28.46 11.53,27.89 11.37,27.32 10.80,26.17 10.23,25.03 9.18,23.21 8.14,21.39 6.78,19.02 5.42,16.65 4.12,14.02 2.81,11.40 1.60,8.68 0.39,5.97 -0.55,3.25 -1.49,0.52 -1.53,0.34 -1.57,0.15 -1.57,-0.03 -1.56,-0.22 -1.51,-0.41 -1.46,-0.59 -1.37,-0.76 -1.28,-0.93 -1.15,-1.07 -1.02,-1.21 -0.86,-1.31 -0.70,-1.42 -0.52,-1.48 -0.34,-1.54 -0.15,-1.56 0.03,-1.58 0.22,-1.55 0.41,-1.53 0.59,-1.45 0.77,-1.38 0.92,-1.27 1.08,-1.16 1.20,-1.01 1.32,-0.86 1.41,-0.69 1.49,-0.52 1.49,-0.52 L 1.49,-0.52 Z"/></g></svg>