<svg version="1.1" xmlns="http://www.w3.org/2000/svg" viewBox="0 0 376.52528381347656 344.3525390625" width="376.52528381347656" height="344.3525390625" filter="invert(93%) hue-rotate(180deg)">
  <!-- svg-source:excalidraw -->
  
  <defs>
    <style class="style-fonts">
      @font-face {
        font-family: "Virgil";
        src: url("https://excalidraw.com/Virgil.woff2");
      }
      @font-face {
        font-family: "Cascadia";
        src: url("https://excalidraw.com/Cascadia.woff2");
      }
    </style>
  </defs>
  <rect x="0" y="0" width="376.52528381347656" height="344.3525390625" fill="transparent"/><g stroke-linecap="round"><g transform="translate(10 279.94976806640625) rotate(0 178.12946319580078 0)"><path d="M0 0 C81.52 0, 163.03 0, 356.26 0 M0 0 C93.45 0, 186.91 0, 356.26 0" stroke="#1e1e1e" stroke-width="4" fill="none"/></g></g><mask/><g stroke-linecap="round"><g transform="translate(49.95426940917969 334.3525390625) rotate(0 7.105427357601002e-15 -162.17626953125)"><path d="M0 0 C0 -112.26, 0 -224.51, 0 -324.35 M0 0 C0 -115.91, 0 -231.82, 0 -324.35" stroke="#1e1e1e" stroke-width="4" fill="none"/></g></g><mask/><g stroke-linecap="round"><g transform="translate(165.94959459488706 160.68472393636202) rotate(0 100.28784460929475 57.90121408162368)"><path d="M0 0 C49.25 28.44, 98.51 56.87, 200.58 115.8 M0 0 C56.13 32.41, 112.26 64.81, 200.58 115.8" stroke="#e03131" stroke-width="4" fill="none"/></g></g><mask/><g transform="translate(170.74937438964844 87.97512817382812) rotate(0 -57.80052185058594 94.38917541503906)" stroke="none"><path fill="#e03131" d="M 1.63,0.03 Q 1.63,0.03 1.73,1.63 1.82,3.22 1.82,4.55 1.83,5.89 1.89,7.03 1.94,8.18 2.02,9.49 2.10,10.81 2.15,12.31 2.20,13.82 2.17,15.44 2.14,17.05 2.09,18.68 2.03,20.31 2.01,21.79 1.99,23.26 1.99,24.84 1.98,26.42 1.98,28.01 1.98,29.60 2.02,31.23 2.06,32.86 2.09,34.59 2.11,36.32 2.13,38.07 2.14,39.82 2.09,41.62 2.04,43.41 1.95,45.11 1.85,46.81 1.75,48.58 1.65,50.35 1.49,52.21 1.34,54.07 1.19,55.85 1.04,57.62 0.84,59.35 0.64,61.09 0.44,62.68 0.24,64.27 0.00,65.72 -0.24,67.17 -0.43,68.42 -0.62,69.67 -0.80,70.74 -0.98,71.82 -1.33,73.86 -1.68,75.91 -1.90,77.05 -2.12,78.20 -2.47,79.74 -2.81,81.28 -3.23,82.62 -3.66,83.97 -4.06,85.12 -4.47,86.27 -5.15,87.93 -5.82,89.59 -6.53,91.41 -7.24,93.23 -7.77,94.44 -8.29,95.65 -8.80,96.77 -9.31,97.88 -9.83,98.91 -10.35,99.93 -10.88,100.93 -11.41,101.93 -11.99,102.96 -12.57,104.00 -13.16,105.02 -13.75,106.04 -14.30,107.10 -14.85,108.16 -15.47,109.20 -16.09,110.25 -16.74,111.21 -17.40,112.17 -18.03,113.20 -18.66,114.22 -19.39,115.36 -20.12,116.51 -21.01,117.78 -21.90,119.05 -22.96,120.45 -24.02,121.85 -25.11,123.35 -26.20,124.86 -27.43,126.34 -28.65,127.83 -31.64,130.80 -34.64,133.76 -36.68,135.78 -38.72,137.80 -40.58,139.49 -42.45,141.17 -44.17,142.65 -45.88,144.12 -47.58,145.46 -49.27,146.79 -50.80,148.05 -52.32,149.31 -53.85,150.60 -55.38,151.88 -56.79,153.15 -58.19,154.42 -59.73,155.73 -61.27,157.03 -62.75,158.20 -64.23,159.37 -65.83,160.46 -67.44,161.55 -69.58,163.13 -71.72,164.71 -73.32,165.98 -74.92,167.25 -76.44,168.33 -77.96,169.40 -79.30,170.33 -80.63,171.25 -81.85,172.13 -83.07,173.00 -84.37,173.75 -85.67,174.51 -86.71,175.16 -87.75,175.81 -88.86,176.48 -89.98,177.14 -91.00,177.78 -92.01,178.41 -93.12,179.05 -94.22,179.69 -95.38,180.29 -96.54,180.89 -97.69,181.49 -98.84,182.10 -99.91,182.75 -100.98,183.41 -102.06,184.18 -103.15,184.95 -104.37,185.80 -105.60,186.65 -106.85,187.44 -108.11,188.24 -109.26,188.90 -110.42,189.56 -113.17,189.52 -115.92,189.49 -116.11,189.39 -116.30,189.30 -116.45,189.15 -116.61,189.00 -116.70,188.81 -116.80,188.63 -116.83,188.41 -116.86,188.20 -116.82,188.00 -116.78,187.79 -116.68,187.60 -116.58,187.41 -116.42,187.27 -116.26,187.13 -116.07,187.04 -115.87,186.96 -115.66,186.94 -115.45,186.92 -115.24,186.97 -115.04,187.02 -114.86,187.13 -114.68,187.24 -114.54,187.41 -114.41,187.57 -114.33,187.77 -114.26,187.97 -114.25,188.18 -114.24,188.39 -114.30,188.60 -114.36,188.80 -114.49,188.98 -114.61,189.15 -114.78,189.27 -114.95,189.40 -115.15,189.46 -115.36,189.53 -115.57,189.52 -115.78,189.52 -115.98,189.45 -116.18,189.38 -116.35,189.25 -116.52,189.11 -116.63,188.94 -116.75,188.76 -116.80,188.55 -116.85,188.35 -116.84,188.13 -116.82,187.92 -116.74,187.73 -116.66,187.53 -116.52,187.37 -116.38,187.21 -116.19,187.11 -116.01,187.00 -115.80,186.96 -115.59,186.92 -115.38,186.94 -115.17,186.97 -115.17,186.97 -115.17,186.97 -114.07,186.02 -112.97,185.06 -111.92,184.46 -110.86,183.86 -109.70,183.14 -108.54,182.41 -107.32,181.57 -106.11,180.74 -104.88,179.88 -103.66,179.02 -102.44,178.29 -101.22,177.55 -100.05,176.94 -98.88,176.33 -97.83,175.79 -96.77,175.26 -95.73,174.66 -94.69,174.07 -93.63,173.43 -92.57,172.78 -91.50,172.14 -90.43,171.51 -89.31,170.82 -88.18,170.12 -87.09,169.51 -86.01,168.90 -84.75,168.00 -83.50,167.09 -82.18,166.19 -80.86,165.28 -79.45,164.30 -78.05,163.31 -76.38,161.99 -74.71,160.66 -72.48,159.03 -70.26,157.39 -68.79,156.40 -67.33,155.42 -65.92,154.31 -64.50,153.21 -63.02,151.96 -61.53,150.71 -60.06,149.39 -58.59,148.07 -57.04,146.77 -55.50,145.48 -53.93,144.17 -52.36,142.87 -50.74,141.60 -49.12,140.33 -47.44,138.91 -45.77,137.49 -43.98,135.89 -42.20,134.28 -40.16,132.26 -38.11,130.23 -35.28,127.46 -32.45,124.69 -31.31,123.32 -30.17,121.95 -29.04,120.42 -27.91,118.89 -26.90,117.56 -25.89,116.24 -25.05,115.06 -24.21,113.88 -23.50,112.77 -22.79,111.67 -21.52,109.72 -20.25,107.77 -19.69,106.84 -19.14,105.92 -18.54,104.78 -17.94,103.63 -17.36,102.62 -16.78,101.61 -16.23,100.65 -15.68,99.69 -14.69,97.78 -13.70,95.86 -13.21,94.80 -12.71,93.74 -12.23,92.62 -11.75,91.50 -11.01,89.63 -10.28,87.76 -9.64,86.21 -8.99,84.65 -8.61,83.59 -8.22,82.53 -7.85,81.37 -7.49,80.21 -7.15,78.76 -6.82,77.30 -6.40,75.14 -5.99,72.97 -5.65,70.96 -5.31,68.94 -5.11,67.66 -4.91,66.38 -4.68,65.03 -4.44,63.68 -4.24,62.11 -4.04,60.53 -3.84,58.87 -3.64,57.21 -3.48,55.41 -3.32,53.60 -3.11,51.82 -2.90,50.04 -2.76,48.29 -2.62,46.54 -2.52,44.91 -2.42,43.28 -2.35,41.56 -2.29,39.84 -2.29,38.10 -2.29,36.36 -2.30,34.66 -2.30,32.96 -2.34,31.27 -2.37,29.59 -2.36,27.99 -2.35,26.39 -2.34,24.79 -2.32,23.19 -2.29,21.67 -2.26,20.16 -2.20,18.54 -2.13,16.92 -2.07,15.40 -2.00,13.88 -1.99,12.42 -1.99,10.97 -2.01,9.63 -2.04,8.29 -2.04,7.06 -2.05,5.84 -2.01,4.48 -1.97,3.13 -1.80,1.54 -1.63,-0.03 -1.60,-0.23 -1.58,-0.43 -1.50,-0.61 -1.43,-0.79 -1.31,-0.95 -1.20,-1.11 -1.04,-1.24 -0.89,-1.37 -0.72,-1.45 -0.54,-1.54 -0.35,-1.58 -0.15,-1.63 0.03,-1.62 0.23,-1.62 0.42,-1.56 0.61,-1.51 0.79,-1.42 0.96,-1.32 1.10,-1.19 1.25,-1.05 1.36,-0.89 1.46,-0.72 1.53,-0.53 1.60,-0.35 1.61,-0.15 1.63,0.03 1.63,0.03 L 1.63,0.03 Z"/></g><g stroke-linecap="round"><g transform="translate(162.7584686279297 143.97607421875) rotate(0 0 80.57205200195312)"><path d="M0 0 C0 58.88, 0 117.77, 0 161.14" stroke="#e03131" stroke-width="1.5" fill="none" stroke-dasharray="8 9"/></g></g><mask/><g transform="translate(320.6444854736328 259.97320556640625) rotate(0 -118.43113708496094 -25.270309448242188)" stroke="none"><path fill="#e03131" d="M 1.77,-0.09 Q 1.77,-0.09 1.96,4.41 2.16,8.91 2.24,12.35 2.33,15.80 2.12,18.08 1.91,20.36 0.37,22.01 -1.16,23.66 -2.32,23.29 -3.49,22.91 -5.49,21.03 -7.49,19.15 -9.63,16.39 -11.78,13.63 -13.97,10.68 -16.16,7.73 -18.02,5.53 -19.87,3.33 -21.45,1.74 -23.03,0.15 -24.16,1.42 -25.30,2.68 -25.83,4.44 -26.36,6.20 -26.87,7.92 -27.38,9.63 -27.92,10.70 -28.46,11.78 -28.56,12.00 -28.66,12.23 -28.81,12.42 -28.96,12.62 -29.15,12.77 -29.34,12.93 -29.57,13.03 -29.79,13.14 -30.03,13.18 -30.28,13.23 -30.52,13.22 -30.77,13.21 -31.00,13.14 -31.24,13.06 -31.45,12.94 -31.66,12.81 -31.84,12.64 -32.02,12.47 -32.15,12.26 -32.28,12.05 -32.35,11.82 -32.43,11.58 -32.45,11.34 -32.46,11.09 -32.42,10.85 -32.38,10.60 -34.54,7.62 -36.70,4.63 -38.61,-0.18 -40.53,-4.99 -41.70,-9.27 -42.87,-13.54 -43.50,-16.43 -44.13,-19.32 -44.54,-20.66 -44.95,-22.00 -44.97,-22.22 -44.99,-22.43 -44.95,-22.65 -44.92,-22.86 -44.84,-23.06 -44.76,-23.26 -44.63,-23.43 -44.50,-23.61 -44.33,-23.75 -44.17,-23.89 -43.97,-23.98 -43.78,-24.08 -43.56,-24.12 -43.35,-24.17 -43.14,-24.16 -42.92,-24.15 -42.71,-24.10 -42.50,-24.04 -42.31,-23.93 -42.13,-23.82 -41.97,-23.68 -41.81,-23.53 -41.69,-23.35 -41.57,-23.16 -41.50,-22.96 -41.43,-22.75 -41.73,-20.03 -42.03,-17.30 -42.41,-13.93 -42.79,-10.57 -43.53,-6.62 -44.27,-2.68 -45.03,0.81 -45.79,4.31 -46.62,6.67 -47.45,9.03 -47.76,9.09 -48.07,9.15 -48.18,9.37 -48.28,9.60 -48.44,9.80 -48.60,10.00 -48.80,10.15 -49.00,10.30 -49.23,10.40 -49.46,10.51 -49.71,10.55 -49.95,10.59 -50.21,10.57 -50.46,10.56 -50.70,10.48 -50.94,10.40 -51.15,10.27 -51.37,10.14 -51.54,9.96 -51.72,9.78 -51.85,9.56 -51.97,9.34 -52.05,9.10 -52.12,8.86 -52.13,8.61 -52.14,8.36 -52.10,8.11 -52.05,7.86 -52.48,6.24 -52.90,4.62 -53.10,0.28 -53.29,-4.04 -52.99,-8.95 -52.68,-13.86 -51.94,-17.99 -51.20,-22.12 -49.85,-24.82 -48.51,-27.52 -46.59,-27.00 -44.67,-26.48 -44.38,-24.35 -44.10,-22.22 -44.55,-18.10 -44.99,-13.99 -45.90,-8.69 -46.81,-3.40 -48.21,1.92 -49.61,7.25 -51.18,11.03 -52.75,14.81 -53.95,15.26 -55.14,15.72 -55.26,15.94 -55.38,16.16 -55.55,16.34 -55.72,16.53 -55.93,16.67 -56.14,16.80 -56.38,16.89 -56.61,16.97 -56.86,17.00 -57.11,17.03 -57.36,16.99 -57.61,16.96 -57.84,16.86 -58.08,16.77 -58.28,16.62 -58.49,16.48 -58.65,16.29 -58.81,16.10 -58.93,15.87 -59.04,15.65 -59.09,15.40 -59.15,15.16 -59.15,14.91 -59.14,14.65 -59.08,14.41 -59.01,14.17 -60.15,12.33 -61.29,10.50 -62.26,5.48 -63.22,0.47 -63.82,-5.24 -64.42,-10.96 -64.65,-15.92 -64.87,-20.88 -64.97,-24.07 -65.06,-27.26 -65.11,-28.48 -65.17,-29.70 -65.15,-29.93 -65.13,-30.16 -65.06,-30.39 -64.98,-30.61 -64.85,-30.81 -64.73,-31.00 -64.56,-31.16 -64.39,-31.33 -64.18,-31.44 -63.98,-31.56 -63.75,-31.62 -63.53,-31.69 -63.29,-31.69 -63.06,-31.70 -62.83,-31.65 -62.60,-31.60 -62.39,-31.50 -62.18,-31.40 -61.99,-31.25 -61.81,-31.10 -61.67,-30.91 -61.53,-30.72 -61.44,-30.51 -61.35,-30.29 -61.32,-30.06 -61.28,-29.83 -61.76,-28.51 -62.23,-27.19 -62.97,-24.58 -63.72,-21.97 -64.93,-17.85 -66.13,-13.73 -67.77,-8.71 -69.41,-3.70 -70.93,-0.12 -72.45,3.45 -73.64,4.38 -74.84,5.31 -74.97,5.54 -75.10,5.76 -75.28,5.95 -75.45,6.13 -75.67,6.27 -75.89,6.41 -76.14,6.49 -76.38,6.57 -76.64,6.59 -76.90,6.61 -77.15,6.57 -77.41,6.53 -77.65,6.43 -77.88,6.33 -78.09,6.17 -78.30,6.01 -78.46,5.81 -78.62,5.61 -78.73,5.38 -78.85,5.15 -78.90,4.89 -78.95,4.64 -78.94,4.38 -78.93,4.12 -78.85,3.87 -78.78,3.63 -79.73,2.46 -80.68,1.29 -81.40,-3.73 -82.13,-8.76 -82.33,-14.79 -82.52,-20.82 -82.34,-26.14 -82.17,-31.46 -81.90,-34.74 -81.62,-38.02 -81.52,-39.22 -81.42,-40.42 -81.36,-40.67 -81.31,-40.92 -81.20,-41.16 -81.09,-41.39 -80.92,-41.59 -80.76,-41.79 -80.55,-41.95 -80.34,-42.11 -80.11,-42.21 -79.87,-42.31 -79.61,-42.35 -79.35,-42.39 -79.10,-42.37 -78.84,-42.35 -78.59,-42.27 -78.35,-42.18 -78.13,-42.04 -77.91,-41.90 -77.73,-41.72 -77.55,-41.53 -77.42,-41.30 -77.29,-41.08 -77.22,-40.83 -77.15,-40.58 -77.14,-40.32 -77.13,-40.06 -77.23,-38.82 -77.33,-37.59 -78.04,-33.82 -78.76,-30.05 -79.92,-24.30 -81.08,-18.55 -82.59,-12.05 -84.11,-5.54 -85.74,-0.25 -87.37,5.03 -88.51,7.26 -89.66,9.49 -89.78,9.76 -89.90,10.02 -90.08,10.25 -90.26,10.48 -90.50,10.66 -90.73,10.84 -90.99,10.96 -91.26,11.08 -91.55,11.13 -91.84,11.18 -92.13,11.16 -92.42,11.14 -92.70,11.05 -92.98,10.96 -93.23,10.81 -93.48,10.66 -93.68,10.45 -93.89,10.24 -94.04,9.99 -94.19,9.74 -94.28,9.46 -94.36,9.18 -94.38,8.89 -94.39,8.59 -94.34,8.31 -94.28,8.02 -95.09,7.30 -95.90,6.57 -96.64,0.83 -97.38,-4.89 -97.73,-12.53 -98.07,-20.16 -98.22,-28.09 -98.36,-36.02 -98.27,-41.98 -98.17,-47.95 -98.05,-50.69 -97.94,-53.44 -97.90,-53.73 -97.86,-54.01 -97.75,-54.28 -97.64,-54.55 -97.47,-54.79 -97.30,-55.03 -97.08,-55.22 -96.86,-55.41 -96.60,-55.54 -96.34,-55.67 -96.06,-55.73 -95.78,-55.80 -95.49,-55.79 -95.20,-55.79 -94.91,-55.72 -94.63,-55.64 -94.38,-55.50 -94.12,-55.36 -93.91,-55.17 -93.69,-54.97 -93.53,-54.73 -93.37,-54.49 -93.27,-54.21 -93.17,-53.94 -93.14,-53.65 -93.11,-53.36 -93.47,-52.33 -93.83,-51.29 -94.48,-48.01 -95.12,-44.72 -96.28,-39.13 -97.44,-33.54 -98.73,-27.23 -100.02,-20.93 -101.52,-15.35 -103.02,-9.78 -105.58,-5.94 -108.14,-2.09 -110.04,-2.73 -111.94,-3.38 -113.19,-7.61 -114.44,-11.84 -115.06,-18.58 -115.68,-25.32 -116.00,-32.64 -116.32,-39.96 -116.40,-45.51 -116.49,-51.06 -116.49,-53.70 -116.49,-56.33 -116.77,-56.74 -117.05,-57.14 -117.02,-57.46 -116.99,-57.78 -116.88,-58.09 -116.77,-58.39 -116.59,-58.66 -116.41,-58.92 -116.17,-59.14 -115.93,-59.36 -115.65,-59.51 -115.37,-59.66 -115.05,-59.75 -114.74,-59.83 -114.42,-59.83 -114.10,-59.84 -113.79,-59.76 -113.47,-59.69 -113.19,-59.55 -112.90,-59.40 -112.65,-59.19 -112.41,-58.98 -112.22,-58.72 -112.04,-58.45 -111.92,-58.16 -111.80,-57.86 -111.76,-57.54 -111.71,-57.22 -112.09,-54.75 -112.46,-52.28 -113.05,-47.87 -113.65,-43.47 -114.55,-37.21 -115.45,-30.95 -116.59,-24.16 -117.73,-17.37 -118.96,-12.05 -120.19,-6.73 -121.10,-4.98 -122.00,-3.23 -122.12,-2.92 -122.23,-2.60 -122.42,-2.32 -122.61,-2.04 -122.86,-1.81 -123.10,-1.59 -123.40,-1.43 -123.70,-1.27 -124.02,-1.18 -124.35,-1.10 -124.68,-1.09 -125.02,-1.09 -125.35,-1.16 -125.68,-1.24 -125.98,-1.39 -126.28,-1.54 -126.53,-1.76 -126.79,-1.98 -126.98,-2.26 -127.18,-2.53 -127.30,-2.85 -127.42,-3.16 -127.47,-3.49 -127.51,-3.83 -127.48,-4.16 -127.44,-4.50 -128.05,-6.62 -128.66,-8.73 -129.06,-15.75 -129.45,-22.77 -129.05,-31.58 -128.64,-40.38 -127.87,-48.54 -127.10,-56.69 -126.35,-62.37 -125.61,-68.06 -125.06,-70.64 -124.51,-73.22 -124.43,-73.53 -124.35,-73.84 -124.20,-74.13 -124.05,-74.41 -123.83,-74.65 -123.62,-74.89 -123.35,-75.07 -123.09,-75.25 -122.78,-75.36 -122.48,-75.48 -122.16,-75.51 -121.84,-75.55 -121.52,-75.51 -121.20,-75.47 -120.90,-75.35 -120.60,-75.23 -120.34,-75.05 -120.08,-74.86 -119.87,-74.62 -119.65,-74.38 -119.51,-74.09 -119.36,-73.81 -119.29,-73.49 -119.21,-73.18 -119.21,-72.86 -119.22,-72.54 -120.15,-68.05 -121.08,-63.57 -122.59,-56.72 -124.11,-49.87 -126.29,-41.29 -128.47,-32.71 -130.80,-24.43 -133.13,-16.16 -135.21,-10.58 -137.29,-5.00 -138.37,-4.37 -139.44,-3.74 -139.60,-3.43 -139.76,-3.12 -139.98,-2.86 -140.21,-2.60 -140.49,-2.40 -140.77,-2.21 -141.09,-2.08 -141.42,-1.96 -141.76,-1.91 -142.10,-1.87 -142.44,-1.91 -142.78,-1.94 -143.11,-2.06 -143.43,-2.18 -143.72,-2.38 -144.00,-2.57 -144.23,-2.83 -144.46,-3.08 -144.63,-3.39 -144.79,-3.69 -144.88,-4.02 -144.96,-4.36 -144.96,-4.70 -144.97,-5.05 -144.89,-5.38 -144.81,-5.72 -145.49,-9.35 -146.18,-12.99 -146.00,-20.67 -145.82,-28.35 -145.00,-36.45 -144.18,-44.54 -143.11,-50.91 -142.04,-57.27 -141.07,-60.93 -140.09,-64.59 -139.56,-65.22 -139.03,-65.85 -138.90,-66.17 -138.78,-66.50 -138.57,-66.78 -138.37,-67.07 -138.11,-67.29 -137.84,-67.52 -137.53,-67.68 -137.22,-67.84 -136.88,-67.92 -136.54,-68.00 -136.19,-67.99 -135.84,-67.99 -135.50,-67.90 -135.16,-67.81 -134.86,-67.65 -134.55,-67.48 -134.29,-67.25 -134.03,-67.01 -133.84,-66.72 -133.64,-66.43 -133.52,-66.10 -133.40,-65.77 -133.36,-65.43 -133.33,-65.08 -133.37,-64.73 -133.42,-64.38 -133.11,-62.55 -132.80,-60.71 -133.09,-55.31 -133.39,-49.91 -134.30,-42.89 -135.21,-35.87 -136.54,-29.12 -137.86,-22.36 -139.19,-18.44 -140.52,-14.52 -140.64,-14.17 -140.75,-13.82 -140.95,-13.51 -141.14,-13.20 -141.40,-12.95 -141.67,-12.69 -141.98,-12.51 -142.30,-12.32 -142.65,-12.22 -143.00,-12.11 -143.37,-12.10 -143.73,-12.08 -144.09,-12.15 -144.45,-12.22 -144.78,-12.38 -145.12,-12.53 -145.40,-12.76 -145.69,-12.99 -145.91,-13.29 -146.13,-13.58 -146.27,-13.91 -146.42,-14.25 -146.48,-14.61 -146.54,-14.97 -146.51,-15.34 -146.49,-15.70 -148.17,-21.04 -149.85,-26.37 -149.95,-33.64 -150.06,-40.92 -149.76,-47.00 -149.47,-53.08 -149.00,-56.08 -148.53,-59.09 -148.47,-59.45 -148.40,-59.80 -148.26,-60.14 -148.11,-60.47 -147.89,-60.76 -147.67,-61.05 -147.39,-61.27 -147.11,-61.50 -146.78,-61.66 -146.45,-61.81 -146.09,-61.88 -145.74,-61.95 -145.38,-61.93 -145.01,-61.91 -144.66,-61.81 -144.32,-61.71 -144.00,-61.52 -143.69,-61.34 -143.43,-61.09 -143.17,-60.83 -142.98,-60.52 -142.79,-60.22 -142.67,-59.87 -142.56,-59.53 -142.54,-59.16 -142.51,-58.80 -141.80,-55.67 -141.08,-52.55 -141.39,-47.02 -141.71,-41.50 -142.67,-34.70 -143.63,-27.90 -145.00,-21.17 -146.37,-14.45 -147.90,-9.76 -149.43,-5.07 -150.29,-4.62 -151.15,-4.17 -151.30,-3.84 -151.45,-3.51 -151.67,-3.22 -151.90,-2.93 -152.19,-2.71 -152.47,-2.48 -152.81,-2.34 -153.14,-2.19 -153.50,-2.12 -153.86,-2.06 -154.22,-2.08 -154.58,-2.10 -154.93,-2.21 -155.28,-2.32 -155.59,-2.51 -155.90,-2.70 -156.16,-2.95 -156.42,-3.21 -156.60,-3.52 -156.79,-3.84 -156.90,-4.18 -157.01,-4.53 -157.03,-4.90 -157.05,-5.26 -156.98,-5.62 -156.92,-5.98 -157.59,-8.85 -158.26,-11.71 -158.13,-18.29 -158.00,-24.87 -156.87,-32.38 -155.75,-39.89 -154.39,-45.25 -153.04,-50.61 -151.97,-53.06 -150.90,-55.52 -150.77,-55.84 -150.65,-56.17 -150.45,-56.45 -150.25,-56.74 -149.99,-56.97 -149.72,-57.20 -149.41,-57.36 -149.11,-57.52 -148.77,-57.60 -148.43,-57.69 -148.08,-57.69 -147.73,-57.68 -147.39,-57.60 -147.05,-57.51 -146.75,-57.35 -146.44,-57.19 -146.18,-56.95 -145.92,-56.72 -145.72,-56.43 -145.52,-56.15 -145.40,-55.82 -145.28,-55.49 -145.24,-55.15 -145.20,-54.80 -145.24,-54.45 -145.29,-54.11 -144.71,-50.97 -144.14,-47.84 -145.01,-42.26 -145.88,-36.69 -147.43,-29.45 -148.97,-22.21 -151.05,-14.22 -153.14,-6.23 -155.36,0.66 -157.59,7.56 -159.62,11.09 -161.65,14.62 -161.79,14.93 -161.94,15.25 -162.16,15.52 -162.37,15.79 -162.65,16.01 -162.93,16.22 -163.25,16.36 -163.57,16.50 -163.91,16.56 -164.25,16.62 -164.60,16.59 -164.95,16.57 -165.28,16.46 -165.61,16.35 -165.91,16.17 -166.20,15.99 -166.45,15.74 -166.69,15.49 -166.87,15.19 -167.05,14.89 -167.15,14.55 -167.25,14.22 -167.26,13.87 -167.28,13.52 -167.22,13.18 -167.15,12.84 -168.34,12.94 -169.54,13.04 -170.88,6.72 -172.22,0.40 -172.49,-7.67 -172.75,-15.75 -172.37,-23.07 -171.99,-30.39 -171.43,-34.94 -170.87,-39.50 -170.54,-41.09 -170.22,-42.68 -170.13,-43.01 -170.05,-43.34 -169.89,-43.65 -169.73,-43.95 -169.50,-44.21 -169.27,-44.47 -168.99,-44.66 -168.71,-44.86 -168.38,-44.98 -168.06,-45.10 -167.72,-45.14 -167.38,-45.18 -167.04,-45.14 -166.70,-45.09 -166.38,-44.97 -166.06,-44.85 -165.77,-44.65 -165.49,-44.46 -165.26,-44.20 -165.04,-43.94 -164.88,-43.64 -164.72,-43.33 -164.64,-43.00 -164.56,-42.66 -164.56,-42.32 -164.56,-41.98 -164.40,-40.85 -164.24,-39.72 -164.64,-35.02 -165.04,-30.33 -166.18,-23.32 -167.31,-16.32 -169.10,-8.23 -170.89,-0.14 -172.96,6.97 -175.02,14.08 -176.79,17.79 -178.56,21.49 -178.70,21.82 -178.84,22.14 -179.05,22.42 -179.26,22.71 -179.54,22.93 -179.81,23.15 -180.13,23.30 -180.45,23.45 -180.79,23.52 -181.14,23.59 -181.49,23.58 -181.84,23.56 -182.18,23.47 -182.52,23.37 -182.83,23.19 -183.13,23.01 -183.39,22.77 -183.64,22.53 -183.83,22.23 -184.02,21.93 -184.13,21.59 -184.24,21.26 -184.27,20.91 -184.30,20.56 -184.24,20.21 -184.18,19.86 -186.30,13.80 -188.42,7.75 -187.91,0.05 -187.39,-7.64 -186.18,-14.24 -184.97,-20.85 -183.65,-24.89 -182.33,-28.94 -181.40,-30.27 -180.46,-31.61 -180.31,-31.93 -180.16,-32.25 -179.94,-32.52 -179.72,-32.80 -179.44,-33.01 -179.15,-33.23 -178.83,-33.37 -178.51,-33.51 -178.16,-33.57 -177.81,-33.63 -177.46,-33.60 -177.10,-33.57 -176.77,-33.46 -176.43,-33.36 -176.13,-33.17 -175.83,-32.98 -175.59,-32.73 -175.34,-32.47 -175.16,-32.17 -174.98,-31.86 -174.88,-31.53 -174.78,-31.19 -174.76,-30.83 -174.75,-30.48 -174.82,-30.13 -174.88,-29.79 -174.71,-25.84 -174.54,-21.89 -175.72,-17.15 -176.90,-12.40 -178.65,-7.57 -180.41,-2.74 -183.31,0.87 -186.21,4.49 -189.18,3.92 -192.15,3.36 -193.71,-0.37 -195.27,-4.11 -195.68,-8.86 -196.09,-13.60 -195.93,-17.23 -195.77,-20.87 -195.45,-22.50 -195.13,-24.14 -195.08,-24.48 -195.02,-24.83 -194.88,-25.15 -194.74,-25.47 -194.53,-25.75 -194.32,-26.02 -194.05,-26.24 -193.78,-26.46 -193.46,-26.61 -193.14,-26.76 -192.80,-26.83 -192.46,-26.89 -192.11,-26.88 -191.76,-26.86 -191.43,-26.76 -191.09,-26.66 -190.79,-26.49 -190.49,-26.31 -190.24,-26.07 -189.99,-25.82 -189.81,-25.53 -189.62,-25.23 -189.51,-24.90 -189.40,-24.57 -189.38,-24.22 -189.35,-23.87 -189.27,-21.62 -189.18,-19.37 -190.12,-16.14 -191.06,-12.91 -192.70,-9.45 -194.34,-5.98 -196.48,-3.15 -198.62,-0.31 -201.44,1.27 -204.27,2.85 -206.64,2.22 -209.01,1.60 -210.48,-0.31 -211.95,-2.23 -212.50,-3.70 -213.04,-5.18 -213.09,-5.63 -213.14,-6.08 -213.22,-6.43 -213.29,-6.78 -213.28,-7.13 -213.27,-7.49 -213.17,-7.84 -213.08,-8.18 -212.90,-8.49 -212.73,-8.80 -212.48,-9.06 -212.24,-9.32 -211.94,-9.52 -211.64,-9.71 -211.30,-9.83 -210.96,-9.94 -210.60,-9.98 -210.25,-10.01 -209.89,-9.95 -209.54,-9.90 -209.21,-9.76 -208.88,-9.63 -208.59,-9.42 -208.30,-9.20 -208.08,-8.93 -207.85,-8.65 -207.69,-8.33 -207.53,-8.01 -207.56,-5.82 -207.59,-3.64 -208.42,-2.03 -209.25,-0.42 -210.65,0.73 -212.05,1.89 -214.02,2.37 -216.00,2.85 -217.70,2.92 -219.40,3.00 -221.07,4.60 -222.73,6.21 -224.12,8.49 -225.50,10.77 -227.06,13.30 -228.62,15.83 -231.14,17.63 -233.66,19.42 -234.99,17.09 -236.33,14.76 -236.45,14.86 -236.58,14.95 -236.73,15.01 -236.88,15.07 -237.03,15.09 -237.19,15.12 -237.35,15.10 -237.50,15.09 -237.65,15.03 -237.80,14.98 -237.94,14.90 -238.07,14.81 -238.18,14.69 -238.28,14.58 -238.36,14.44 -238.44,14.30 -238.48,14.15 -238.52,13.99 -238.53,13.84 -238.53,13.68 -238.50,13.52 -238.46,13.37 -238.39,13.23 -238.32,13.09 -238.22,12.96 -238.12,12.84 -238.32,13.37 -238.53,13.90 -238.51,13.69 -238.49,13.48 -238.41,13.28 -238.32,13.09 -238.18,12.93 -238.04,12.77 -237.85,12.67 -237.66,12.57 -237.46,12.53 -237.25,12.49 -237.04,12.52 -236.83,12.55 -236.64,12.65 -236.45,12.74 -236.30,12.90 -236.15,13.05 -236.06,13.24 -235.96,13.43 -235.94,13.64 -235.91,13.85 -235.95,14.06 -235.99,14.27 -236.10,14.45 -236.21,14.64 -236.37,14.78 -236.52,14.92 -236.72,15.00 -236.92,15.08 -237.13,15.10 -237.34,15.11 -237.55,15.06 -237.75,15.01 -237.93,14.89 -238.11,14.77 -238.24,14.61 -238.37,14.44 -238.44,14.24 -238.51,14.04 -238.52,13.83 -238.52,13.62 -238.46,13.41 -238.39,13.21 -238.27,13.04 -238.14,12.87 -237.97,12.74 -237.80,12.62 -237.59,12.56 -237.39,12.50 -237.18,12.51 -236.96,12.52 -236.76,12.59 -236.57,12.67 -236.40,12.80 -236.24,12.94 -236.12,13.12 -236.01,13.30 -236.17,14.03 -236.33,14.76 -236.45,14.86 -236.58,14.95 -236.73,15.01 -236.88,15.07 -237.03,15.09 -237.19,15.12 -237.35,15.10 -237.50,15.09 -237.65,15.03 -237.80,14.98 -237.94,14.90 -238.07,14.81 -238.18,14.69 -238.28,14.58 -238.36,14.44 -238.44,14.30 -238.48,14.15 -238.52,14.00 -238.53,13.84 -238.53,13.68 -238.50,13.52 -238.46,13.37 -238.39,13.23 -238.32,13.09 -238.22,12.96 -238.12,12.84 -236.37,13.71 -234.62,14.58 -234.17,13.61 -233.72,12.64 -232.19,10.12 -230.65,7.60 -228.99,4.93 -227.33,2.26 -225.49,0.34 -223.65,-1.57 -221.71,-2.30 -219.77,-3.04 -218.38,-3.08 -216.98,-3.13 -215.63,-3.40 -214.28,-3.66 -213.71,-4.87 -213.14,-6.08 -213.22,-6.43 -213.29,-6.78 -213.28,-7.13 -213.27,-7.49 -213.17,-7.83 -213.08,-8.18 -212.90,-8.49 -212.73,-8.80 -212.48,-9.06 -212.24,-9.32 -211.94,-9.52 -211.64,-9.71 -211.30,-9.83 -210.96,-9.94 -210.60,-9.98 -210.25,-10.01 -209.90,-9.95 -209.54,-9.90 -209.21,-9.76 -208.88,-9.63 -208.59,-9.42 -208.31,-9.20 -208.08,-8.93 -207.85,-8.65 -207.69,-8.33 -207.53,-8.01 -207.21,-6.69 -206.89,-5.37 -206.05,-3.88 -205.21,-2.40 -204.22,-3.21 -203.23,-4.03 -201.43,-6.29 -199.64,-8.56 -198.16,-11.60 -196.67,-14.64 -195.84,-17.18 -195.01,-19.71 -195.07,-21.93 -195.13,-24.14 -195.08,-24.48 -195.02,-24.83 -194.88,-25.15 -194.74,-25.47 -194.53,-25.75 -194.32,-26.02 -194.05,-26.24 -193.78,-26.46 -193.46,-26.61 -193.14,-26.76 -192.80,-26.83 -192.46,-26.89 -192.11,-26.88 -191.76,-26.86 -191.43,-26.76 -191.09,-26.66 -190.79,-26.49 -190.49,-26.31 -190.24,-26.07 -189.99,-25.83 -189.81,-25.53 -189.62,-25.23 -189.51,-24.90 -189.40,-24.57 -189.38,-24.22 -189.35,-23.88 -189.67,-22.23 -189.98,-20.59 -190.14,-17.32 -190.29,-14.05 -190.01,-9.94 -189.72,-5.83 -188.77,-3.05 -187.82,-0.27 -186.89,-2.54 -185.96,-4.81 -184.30,-9.32 -182.63,-13.84 -181.53,-18.20 -180.42,-22.55 -179.98,-25.06 -179.54,-27.57 -180.00,-29.59 -180.46,-31.61 -180.31,-31.93 -180.16,-32.25 -179.94,-32.52 -179.72,-32.80 -179.44,-33.01 -179.16,-33.23 -178.83,-33.37 -178.51,-33.51 -178.16,-33.57 -177.81,-33.63 -177.46,-33.60 -177.10,-33.57 -176.77,-33.46 -176.43,-33.36 -176.13,-33.17 -175.83,-32.98 -175.59,-32.73 -175.34,-32.47 -175.16,-32.17 -174.98,-31.86 -174.88,-31.53 -174.78,-31.19 -174.76,-30.83 -174.75,-30.48 -174.82,-30.13 -174.88,-29.79 -175.86,-28.42 -176.83,-27.06 -178.03,-23.42 -179.23,-19.77 -180.41,-13.49 -181.60,-7.22 -182.14,-0.11 -182.68,7.00 -182.32,11.85 -181.95,16.70 -180.26,19.10 -178.56,21.49 -178.70,21.82 -178.84,22.14 -179.05,22.42 -179.26,22.71 -179.54,22.93 -179.81,23.15 -180.13,23.30 -180.45,23.45 -180.79,23.52 -181.14,23.59 -181.49,23.58 -181.84,23.56 -182.18,23.47 -182.52,23.37 -182.83,23.19 -183.13,23.01 -183.39,22.77 -183.64,22.53 -183.83,22.23 -184.02,21.93 -184.13,21.60 -184.24,21.26 -184.27,20.91 -184.30,20.56 -184.24,20.21 -184.18,19.86 -182.42,16.15 -180.66,12.43 -178.64,5.50 -176.62,-1.41 -174.85,-9.34 -173.08,-17.26 -171.96,-24.06 -170.83,-30.86 -170.43,-35.04 -170.02,-39.21 -170.12,-40.95 -170.22,-42.68 -170.13,-43.01 -170.05,-43.34 -169.89,-43.65 -169.73,-43.95 -169.50,-44.21 -169.27,-44.47 -168.99,-44.66 -168.71,-44.86 -168.38,-44.98 -168.06,-45.10 -167.72,-45.14 -167.38,-45.18 -167.04,-45.14 -166.70,-45.09 -166.38,-44.97 -166.06,-44.85 -165.77,-44.65 -165.49,-44.46 -165.26,-44.20 -165.04,-43.94 -164.88,-43.64 -164.72,-43.33 -164.64,-43.00 -164.56,-42.67 -164.56,-42.32 -164.56,-41.98 -164.93,-40.39 -165.30,-38.81 -165.85,-34.44 -166.39,-30.08 -166.80,-23.00 -167.21,-15.91 -167.00,-8.21 -166.80,-0.51 -166.21,4.53 -165.62,9.58 -163.64,12.10 -161.65,14.62 -161.79,14.93 -161.94,15.25 -162.16,15.52 -162.37,15.79 -162.65,16.01 -162.93,16.22 -163.25,16.36 -163.57,16.50 -163.91,16.56 -164.25,16.62 -164.60,16.59 -164.95,16.57 -165.28,16.46 -165.61,16.35 -165.91,16.17 -166.20,15.99 -166.45,15.74 -166.69,15.49 -166.87,15.19 -167.05,14.89 -167.15,14.55 -167.25,14.22 -167.26,13.87 -167.28,13.53 -167.22,13.18 -167.15,12.84 -165.20,9.27 -163.25,5.71 -161.08,-1.01 -158.91,-7.74 -156.85,-15.60 -154.80,-23.46 -153.27,-30.54 -151.74,-37.63 -150.89,-42.79 -150.03,-47.94 -149.62,-50.33 -149.20,-52.72 -150.05,-54.12 -150.90,-55.52 -150.77,-55.84 -150.65,-56.17 -150.45,-56.45 -150.25,-56.74 -149.99,-56.97 -149.72,-57.20 -149.41,-57.36 -149.11,-57.52 -148.77,-57.60 -148.43,-57.69 -148.08,-57.69 -147.73,-57.68 -147.39,-57.60 -147.05,-57.51 -146.75,-57.35 -146.44,-57.19 -146.18,-56.95 -145.92,-56.72 -145.72,-56.43 -145.52,-56.15 -145.40,-55.82 -145.28,-55.49 -145.24,-55.15 -145.20,-54.80 -145.24,-54.46 -145.29,-54.11 -146.29,-51.63 -147.29,-49.15 -148.55,-44.07 -149.81,-39.00 -150.89,-31.86 -151.96,-24.72 -152.14,-18.73 -152.32,-12.73 -151.74,-8.45 -151.15,-4.17 -151.30,-3.84 -151.45,-3.51 -151.67,-3.22 -151.90,-2.93 -152.19,-2.71 -152.47,-2.49 -152.81,-2.34 -153.14,-2.19 -153.50,-2.12 -153.86,-2.06 -154.22,-2.08 -154.58,-2.10 -154.93,-2.21 -155.28,-2.32 -155.59,-2.51 -155.90,-2.70 -156.16,-2.95 -156.42,-3.21 -156.60,-3.52 -156.79,-3.84 -156.90,-4.18 -157.01,-4.53 -157.03,-4.90 -157.05,-5.26 -156.98,-5.62 -156.92,-5.98 -155.81,-6.81 -154.71,-7.65 -153.52,-11.66 -152.33,-15.67 -150.98,-22.20 -149.64,-28.74 -148.72,-35.30 -147.80,-41.87 -147.47,-46.98 -147.14,-52.09 -146.95,-54.57 -146.75,-57.05 -147.64,-58.07 -148.53,-59.09 -148.47,-59.45 -148.40,-59.80 -148.26,-60.14 -148.12,-60.47 -147.89,-60.76 -147.67,-61.05 -147.39,-61.27 -147.11,-61.50 -146.78,-61.66 -146.45,-61.81 -146.09,-61.88 -145.74,-61.95 -145.38,-61.93 -145.01,-61.91 -144.67,-61.81 -144.32,-61.71 -144.00,-61.52 -143.69,-61.34 -143.43,-61.09 -143.17,-60.83 -142.98,-60.52 -142.79,-60.22 -142.67,-59.87 -142.56,-59.53 -142.54,-59.16 -142.51,-58.80 -142.97,-55.80 -143.43,-52.79 -143.71,-46.89 -143.98,-41.00 -143.89,-34.05 -143.80,-27.10 -143.63,-22.58 -143.46,-18.07 -141.99,-16.29 -140.52,-14.52 -140.64,-14.17 -140.75,-13.82 -140.95,-13.51 -141.14,-13.20 -141.40,-12.95 -141.67,-12.69 -141.98,-12.51 -142.30,-12.32 -142.65,-12.22 -143.00,-12.11 -143.37,-12.10 -143.73,-12.08 -144.09,-12.15 -144.45,-12.22 -144.78,-12.38 -145.11,-12.53 -145.40,-12.76 -145.68,-12.99 -145.91,-13.29 -146.13,-13.58 -146.27,-13.91 -146.42,-14.25 -146.48,-14.61 -146.54,-14.97 -146.51,-15.34 -146.49,-15.70 -145.12,-19.62 -143.76,-23.54 -142.45,-30.09 -141.13,-36.65 -140.24,-43.46 -139.35,-50.28 -139.01,-55.20 -138.68,-60.11 -138.85,-62.98 -139.03,-65.85 -138.91,-66.17 -138.78,-66.50 -138.57,-66.78 -138.37,-67.07 -138.11,-67.29 -137.84,-67.52 -137.53,-67.68 -137.22,-67.84 -136.88,-67.92 -136.54,-68.00 -136.19,-67.99 -135.84,-67.99 -135.50,-67.90 -135.16,-67.81 -134.86,-67.65 -134.55,-67.48 -134.29,-67.25 -134.03,-67.01 -133.84,-66.72 -133.64,-66.43 -133.52,-66.10 -133.40,-65.77 -133.36,-65.43 -133.33,-65.08 -133.37,-64.73 -133.42,-64.38 -134.05,-63.66 -134.67,-62.93 -135.51,-59.62 -136.35,-56.31 -137.39,-50.13 -138.43,-43.96 -139.24,-36.08 -140.04,-28.19 -140.27,-20.98 -140.49,-13.77 -139.97,-8.75 -139.44,-3.74 -139.60,-3.43 -139.76,-3.12 -139.98,-2.86 -140.21,-2.60 -140.49,-2.40 -140.77,-2.21 -141.09,-2.08 -141.42,-1.96 -141.76,-1.91 -142.10,-1.87 -142.44,-1.91 -142.78,-1.94 -143.11,-2.06 -143.43,-2.18 -143.72,-2.38 -144.00,-2.57 -144.23,-2.83 -144.46,-3.08 -144.63,-3.39 -144.79,-3.69 -144.88,-4.02 -144.96,-4.36 -144.96,-4.70 -144.97,-5.05 -144.89,-5.38 -144.81,-5.72 -143.48,-6.62 -142.16,-7.53 -140.31,-12.60 -138.46,-17.66 -136.14,-25.87 -133.82,-34.08 -131.63,-42.57 -129.45,-51.07 -127.89,-57.92 -126.33,-64.77 -125.42,-69.00 -124.51,-73.22 -124.43,-73.53 -124.35,-73.84 -124.20,-74.13 -124.05,-74.41 -123.83,-74.65 -123.62,-74.89 -123.35,-75.07 -123.09,-75.25 -122.78,-75.36 -122.48,-75.48 -122.16,-75.51 -121.84,-75.55 -121.52,-75.51 -121.20,-75.47 -120.90,-75.35 -120.60,-75.23 -120.34,-75.05 -120.08,-74.86 -119.87,-74.62 -119.65,-74.38 -119.51,-74.09 -119.36,-73.81 -119.29,-73.49 -119.21,-73.18 -119.21,-72.86 -119.22,-72.54 -119.67,-69.94 -120.12,-67.35 -120.83,-61.76 -121.54,-56.16 -122.30,-48.14 -123.06,-40.12 -123.46,-31.59 -123.86,-23.06 -123.54,-16.50 -123.23,-9.94 -122.61,-6.58 -122.00,-3.23 -122.12,-2.92 -122.23,-2.60 -122.42,-2.32 -122.61,-2.04 -122.86,-1.81 -123.10,-1.59 -123.40,-1.43 -123.70,-1.27 -124.02,-1.18 -124.35,-1.10 -124.68,-1.09 -125.02,-1.09 -125.35,-1.16 -125.68,-1.24 -125.98,-1.39 -126.28,-1.54 -126.53,-1.76 -126.79,-1.98 -126.98,-2.26 -127.18,-2.53 -127.30,-2.85 -127.42,-3.16 -127.47,-3.49 -127.51,-3.83 -127.48,-4.16 -127.44,-4.50 -126.55,-6.27 -125.65,-8.04 -124.45,-13.17 -123.25,-18.31 -122.10,-25.02 -120.95,-31.74 -120.06,-37.99 -119.16,-44.24 -118.51,-48.73 -117.86,-53.22 -117.46,-55.18 -117.05,-57.14 -117.02,-57.46 -116.99,-57.78 -116.88,-58.09 -116.77,-58.39 -116.59,-58.66 -116.41,-58.92 -116.17,-59.14 -115.93,-59.36 -115.65,-59.51 -115.37,-59.66 -115.05,-59.75 -114.74,-59.83 -114.42,-59.83 -114.10,-59.84 -113.79,-59.76 -113.47,-59.69 -113.19,-59.55 -112.90,-59.40 -112.65,-59.19 -112.41,-58.98 -112.22,-58.72 -112.04,-58.45 -111.92,-58.16 -111.80,-57.86 -111.76,-57.54 -111.71,-57.22 -111.62,-57.15 -111.52,-57.09 -111.44,-54.12 -111.36,-51.15 -111.27,-45.66 -111.17,-40.18 -110.87,-32.98 -110.57,-25.78 -110.02,-19.35 -109.46,-12.93 -108.85,-9.70 -108.24,-6.48 -108.08,-8.80 -107.91,-11.11 -106.43,-16.53 -104.96,-21.94 -103.65,-28.25 -102.33,-34.55 -101.17,-40.16 -100.00,-45.77 -98.97,-49.60 -97.94,-53.44 -97.90,-53.73 -97.86,-54.01 -97.75,-54.28 -97.64,-54.55 -97.47,-54.79 -97.30,-55.03 -97.08,-55.22 -96.86,-55.41 -96.60,-55.54 -96.34,-55.67 -96.06,-55.73 -95.78,-55.80 -95.49,-55.79 -95.20,-55.79 -94.91,-55.72 -94.63,-55.64 -94.38,-55.50 -94.12,-55.36 -93.91,-55.17 -93.69,-54.97 -93.53,-54.73 -93.37,-54.49 -93.27,-54.21 -93.17,-53.94 -93.14,-53.65 -93.11,-53.36 -93.23,-50.62 -93.34,-47.87 -93.43,-41.99 -93.52,-36.11 -93.38,-28.24 -93.24,-20.37 -92.91,-12.91 -92.58,-5.44 -92.10,-0.52 -91.62,4.39 -90.64,6.94 -89.66,9.49 -89.78,9.76 -89.90,10.02 -90.08,10.25 -90.26,10.48 -90.49,10.66 -90.73,10.84 -90.99,10.96 -91.26,11.08 -91.55,11.13 -91.84,11.18 -92.13,11.16 -92.42,11.14 -92.70,11.05 -92.98,10.96 -93.23,10.81 -93.48,10.66 -93.68,10.45 -93.89,10.24 -94.04,9.99 -94.19,9.74 -94.28,9.46 -94.36,9.18 -94.38,8.89 -94.39,8.59 -94.34,8.31 -94.28,8.02 -93.10,5.79 -91.93,3.57 -90.25,-1.52 -88.58,-6.61 -87.00,-13.02 -85.42,-19.43 -84.26,-25.16 -83.09,-30.88 -82.40,-34.46 -81.71,-38.04 -81.57,-39.23 -81.42,-40.42 -81.36,-40.67 -81.31,-40.92 -81.20,-41.16 -81.09,-41.39 -80.92,-41.59 -80.76,-41.79 -80.55,-41.95 -80.35,-42.11 -80.11,-42.21 -79.87,-42.31 -79.61,-42.35 -79.35,-42.39 -79.10,-42.37 -78.84,-42.35 -78.59,-42.27 -78.35,-42.18 -78.13,-42.04 -77.91,-41.90 -77.73,-41.72 -77.55,-41.53 -77.42,-41.31 -77.29,-41.08 -77.22,-40.83 -77.15,-40.58 -77.14,-40.32 -77.13,-40.06 -77.25,-38.86 -77.37,-37.67 -77.63,-34.49 -77.89,-31.31 -78.06,-26.13 -78.23,-20.94 -78.07,-15.14 -77.91,-9.33 -77.36,-4.90 -76.81,-0.47 -75.82,2.42 -74.84,5.31 -74.97,5.54 -75.10,5.76 -75.28,5.95 -75.45,6.13 -75.67,6.27 -75.89,6.41 -76.14,6.49 -76.38,6.57 -76.64,6.59 -76.90,6.61 -77.15,6.57 -77.41,6.53 -77.65,6.43 -77.88,6.33 -78.09,6.17 -78.30,6.01 -78.46,5.81 -78.62,5.61 -78.73,5.38 -78.85,5.15 -78.90,4.89 -78.95,4.64 -78.94,4.38 -78.93,4.12 -78.85,3.87 -78.78,3.63 -77.50,2.60 -76.22,1.56 -74.80,-1.72 -73.38,-5.02 -71.71,-9.96 -70.03,-14.91 -68.76,-18.99 -67.49,-23.08 -66.33,-26.39 -65.17,-29.70 -65.15,-29.93 -65.13,-30.16 -65.06,-30.39 -64.98,-30.61 -64.85,-30.81 -64.73,-31.00 -64.56,-31.16 -64.39,-31.33 -64.18,-31.44 -63.98,-31.56 -63.75,-31.62 -63.53,-31.69 -63.29,-31.69 -63.06,-31.70 -62.83,-31.65 -62.60,-31.60 -62.39,-31.50 -62.18,-31.40 -61.99,-31.25 -61.81,-31.10 -61.67,-30.91 -61.53,-30.72 -61.44,-30.51 -61.35,-30.29 -61.32,-30.06 -61.28,-29.83 -61.21,-28.61 -61.14,-27.40 -61.02,-24.24 -60.89,-21.08 -60.62,-16.23 -60.34,-11.39 -59.76,-5.83 -59.18,-0.28 -58.35,4.28 -57.51,8.86 -56.33,12.29 -55.14,15.72 -55.26,15.94 -55.38,16.16 -55.55,16.34 -55.72,16.53 -55.93,16.67 -56.14,16.80 -56.38,16.89 -56.61,16.97 -56.86,17.00 -57.11,17.03 -57.36,16.99 -57.61,16.96 -57.84,16.86 -58.08,16.77 -58.28,16.62 -58.49,16.48 -58.65,16.29 -58.81,16.10 -58.93,15.87 -59.04,15.65 -59.09,15.40 -59.15,15.16 -59.15,14.91 -59.14,14.65 -59.08,14.41 -59.01,14.17 -57.52,13.40 -56.03,12.63 -54.80,9.41 -53.57,6.18 -52.15,1.04 -50.74,-4.09 -49.80,-9.27 -48.87,-14.44 -48.40,-18.13 -47.93,-21.82 -47.38,-23.28 -46.82,-24.75 -47.08,-23.08 -47.34,-21.41 -48.04,-17.51 -48.74,-13.61 -49.03,-8.92 -49.33,-4.23 -49.12,-0.19 -48.91,3.83 -48.49,6.49 -48.07,9.15 -48.18,9.37 -48.28,9.60 -48.44,9.80 -48.60,10.00 -48.80,10.15 -49.00,10.30 -49.23,10.40 -49.46,10.51 -49.71,10.55 -49.95,10.59 -50.21,10.57 -50.46,10.56 -50.70,10.48 -50.94,10.40 -51.15,10.27 -51.37,10.14 -51.54,9.96 -51.72,9.78 -51.85,9.56 -51.97,9.34 -52.05,9.10 -52.12,8.86 -52.13,8.61 -52.14,8.36 -52.10,8.11 -52.05,7.86 -51.44,7.45 -50.83,7.03 -50.31,5.22 -49.80,3.41 -49.01,-0.00 -48.23,-3.43 -47.48,-7.23 -46.74,-11.03 -46.34,-14.35 -45.93,-17.68 -45.44,-19.84 -44.95,-22.00 -44.97,-22.22 -44.99,-22.43 -44.95,-22.64 -44.92,-22.86 -44.84,-23.06 -44.76,-23.26 -44.63,-23.43 -44.50,-23.61 -44.33,-23.75 -44.17,-23.89 -43.97,-23.98 -43.78,-24.08 -43.57,-24.12 -43.35,-24.17 -43.14,-24.16 -42.92,-24.15 -42.71,-24.10 -42.50,-24.04 -42.31,-23.93 -42.13,-23.82 -41.97,-23.68 -41.81,-23.53 -41.69,-23.35 -41.57,-23.16 -41.50,-22.96 -41.43,-22.75 -41.09,-21.40 -40.75,-20.05 -40.16,-17.24 -39.56,-14.43 -38.48,-10.33 -37.40,-6.23 -35.64,-1.70 -33.88,2.81 -31.17,7.29 -28.46,11.78 -28.56,12.00 -28.66,12.23 -28.81,12.42 -28.96,12.62 -29.15,12.77 -29.34,12.93 -29.57,13.03 -29.79,13.14 -30.03,13.18 -30.27,13.23 -30.52,13.22 -30.77,13.21 -31.00,13.14 -31.24,13.06 -31.45,12.94 -31.66,12.81 -31.84,12.64 -32.02,12.47 -32.15,12.26 -32.28,12.05 -32.35,11.82 -32.43,11.58 -32.45,11.34 -32.46,11.09 -32.42,10.85 -32.38,10.60 -31.84,9.53 -31.29,8.45 -30.77,6.73 -30.25,5.00 -29.62,3.00 -28.99,0.99 -28.01,-0.82 -27.03,-2.64 -25.74,-3.29 -24.45,-3.95 -22.55,-3.09 -20.64,-2.22 -18.97,-0.53 -17.29,1.16 -15.38,3.44 -13.47,5.73 -11.29,8.65 -9.12,11.57 -7.12,14.15 -5.12,16.74 -3.37,18.32 -1.61,19.90 -1.35,17.89 -1.09,15.88 -1.17,12.48 -1.24,9.08 -1.50,4.58 -1.77,0.09 -1.75,-0.12 -1.74,-0.33 -1.67,-0.54 -1.61,-0.74 -1.50,-0.92 -1.38,-1.10 -1.23,-1.25 -1.08,-1.40 -0.89,-1.51 -0.71,-1.62 -0.50,-1.68 -0.30,-1.74 -0.08,-1.76 0.12,-1.77 0.33,-1.73 0.54,-1.69 0.73,-1.60 0.93,-1.51 1.10,-1.37 1.26,-1.24 1.39,-1.07 1.52,-0.90 1.61,-0.70 1.70,-0.51 1.73,-0.30 1.77,-0.09 1.77,-0.09 L 1.77,-0.09 Z"/></g></svg>