<svg version="1.1" xmlns="http://www.w3.org/2000/svg" viewBox="0 0 456.3672790527344 376.2484130859375" width="456.3672790527344" height="376.2484130859375" filter="invert(93%) hue-rotate(180deg)">
  <!-- svg-source:excalidraw -->
  
  <defs>
    <style class="style-fonts">
      @font-face {
        font-family: "Virgil";
        src: url("https://excalidraw.com/Virgil.woff2");
      }
      @font-face {
        font-family: "Cascadia";
        src: url("https://excalidraw.com/Cascadia.woff2");
      }
    </style>
  </defs>
  <g stroke-linecap="round"><g transform="translate(312.6915141025962 195.92580478671513) rotate(0 26.40890391550186 -38.58607363605509)" fill-rule="evenodd"><path d="M-22.28 -60.44 C-22.28 -60.44, -22.28 -60.44, -22.28 -60.44 M-22.28 -60.44 C-22.28 -60.44, -22.28 -60.44, -22.28 -60.44 M-15.45 -43.91 C-8.85 -51.5, -2.25 -59.1, 7.51 -70.32 M-15.45 -43.91 C-10.54 -49.56, -5.62 -55.22, 7.51 -70.32 M-6.66 -29.64 C5.68 -43.83, 18.02 -58.02, 30.08 -71.9 M-6.66 -29.64 C4.94 -42.98, 16.53 -56.32, 30.08 -71.9 M-2.46 -10.09 C10.87 -25.42, 24.2 -40.75, 47.4 -67.44 M-2.46 -10.09 C9.46 -23.79, 21.37 -37.5, 47.4 -67.44 M5.68 4.94 C24.52 -16.73, 43.36 -38.4, 57.51 -54.68 M5.68 4.94 C23.67 -15.76, 41.66 -36.45, 57.51 -54.68 M27.6 4.12 C38.23 -8.12, 48.86 -20.35, 66.31 -40.41 M27.6 4.12 C38.96 -8.95, 50.32 -22.02, 66.31 -40.41 M48.86 4.05 C56.93 -5.24, 65 -14.52, 71.82 -22.37 M48.86 4.05 C57.83 -6.27, 66.8 -16.59, 71.82 -22.37 M70.78 3.22 C73 0.67, 75.22 -1.88, 76.68 -3.57 M70.78 3.22 C73.01 0.65, 75.25 -1.93, 76.68 -3.57 M-2.11 3.95 C-2.11 3.95, -2.11 3.95, -2.11 3.95 M-2.11 3.95 C-2.11 3.95, -2.11 3.95, -2.11 3.95 M7.64 -8.78 C2.5 -13.25, -2.64 -17.72, -7.46 -21.91 M7.64 -8.78 C2.43 -13.31, -2.77 -17.83, -7.46 -21.91 M30.96 -9.71 C17.95 -21.02, 4.94 -32.33, -3 -39.23 M30.96 -9.71 C22.09 -17.42, 13.23 -25.13, -3 -39.23 M55.05 -9.97 C38.5 -24.36, 21.95 -38.74, -13.63 -69.67 M55.05 -9.97 C35.44 -27.02, 15.84 -44.06, -13.63 -69.67 M81.39 -8.27 C64.31 -23.12, 47.24 -37.96, 4.41 -75.19 M81.39 -8.27 C63.76 -23.6, 46.12 -38.93, 4.41 -75.19 M64.72 -43.97 C53.46 -53.75, 42.21 -63.53, 20.19 -82.67 M64.72 -43.97 C49.41 -57.27, 34.1 -70.58, 20.19 -82.67" stroke="#ffc9c9" stroke-width="2" fill="none"/><path d="M0 0 C22.85 -0.62, 45.71 -1.23, 75.39 -2.03 M0 0 C26.66 -0.72, 53.31 -1.44, 75.39 -2.03 M75.39 -2.03 C72.29 -13.22, 69.19 -24.41, 64.04 -43 M75.39 -2.03 C71.26 -16.97, 67.12 -31.9, 64.04 -43 M64.04 -43 C55.69 -53.53, 47.34 -64.07, 38.66 -75 M64.04 -43 C58.56 -49.91, 53.08 -56.82, 38.66 -75 M38.66 -75 C33.22 -76.71, 27.78 -78.42, 19.35 -81.07 M38.66 -75 C33.88 -76.5, 29.1 -78, 19.35 -81.07 M19.35 -81.07 C12.98 -78.21, 6.6 -75.35, 3.35 -73.9 M19.35 -81.07 C16.12 -79.62, 12.88 -78.17, 3.35 -73.9 M3.35 -73.9 C-5.3 -69.29, -13.95 -64.69, -22.58 -60.1 M3.35 -73.9 C-6.89 -68.45, -17.13 -63, -22.58 -60.1 M-22.58 -60.1 C-19.11 -52.74, -15.65 -45.38, -9.34 -31.97 M-22.58 -60.1 C-18.87 -52.22, -15.16 -44.33, -9.34 -31.97 M-9.34 -31.97 C-7.86 -24.58, -6.38 -17.19, -2.16 3.9 M-9.34 -31.97 C-7.74 -23.99, -6.14 -16.01, -2.16 3.9 M-2.16 3.9 C-1.36 2.45, -0.55 1, 0 0 M-2.16 3.9 C-1.59 2.87, -1.02 1.84, 0 0" stroke="transparent" stroke-width="4" fill="none"/></g></g><mask/><g stroke-linecap="round"><g transform="translate(10 199.111328125) rotate(0 218.1836395263672 0)"><path d="M0 0 C118.65 0, 237.31 0, 436.37 0 M0 0 C98.63 0, 197.27 0, 436.37 0" stroke="#1e1e1e" stroke-width="4" fill="none"/></g></g><mask/><g stroke-linecap="round"><g transform="translate(211.56930541992188 10) rotate(0 0 178.12420654296875)"><path d="M0 0 C0 106.77, 0 213.54, 0 356.25 M0 0 C0 140.49, 0 280.97, 0 356.25" stroke="#1e1e1e" stroke-width="4" fill="none"/></g></g><mask/><g stroke-linecap="round"><g transform="translate(214.1003138490741 203.36281599997858) rotate(0 4.749996662139893 -9.270286289368855)"><path d="M0 0 C-18.8 11.92, -84.63 72.58, -112.79 71.5 C-140.96 70.42, -170.28 19.52, -169 -6.5 C-167.72 -32.52, -148.13 -96.76, -105.14 -84.64 C-62.15 -72.51, 41.68 52.32, 88.95 66.26 C136.22 80.2, 173.64 25.05, 178.5 -1 C183.36 -27.05, 147.83 -90.21, 118.08 -90.04 C88.33 -89.87, 19.68 -15.01, 0 0 M0 0 C-18.8 11.92, -84.63 72.58, -112.79 71.5 C-140.96 70.42, -170.28 19.52, -169 -6.5 C-167.72 -32.52, -148.13 -96.76, -105.14 -84.64 C-62.15 -72.51, 41.68 52.32, 88.95 66.26 C136.22 80.2, 173.64 25.05, 178.5 -1 C183.36 -27.05, 147.83 -90.21, 118.08 -90.04 C88.33 -89.87, 19.68 -15.01, 0 0" stroke="#e03131" stroke-width="4" fill="none"/></g></g><mask/><g stroke-linecap="round" transform="translate(111.750244140625 99.02883911132812) rotate(0 99.38626098632812 99.38626098632812)"><path d="M198.77 99.39 C198.77 102.63, 198.61 105.9, 198.29 109.13 C197.98 112.36, 197.5 115.59, 196.86 118.78 C196.23 121.96, 195.44 125.13, 194.49 128.24 C193.55 131.34, 192.45 134.42, 191.21 137.42 C189.96 140.42, 188.57 143.37, 187.04 146.24 C185.51 149.1, 183.83 151.9, 182.02 154.6 C180.22 157.3, 178.27 159.93, 176.21 162.44 C174.15 164.95, 171.96 167.37, 169.66 169.66 C167.37 171.96, 164.95 174.15, 162.44 176.21 C159.93 178.27, 157.3 180.22, 154.6 182.02 C151.9 183.83, 149.1 185.51, 146.24 187.04 C143.37 188.57, 140.42 189.96, 137.42 191.21 C134.42 192.45, 131.34 193.55, 128.24 194.49 C125.13 195.44, 121.96 196.23, 118.78 196.86 C115.59 197.5, 112.36 197.98, 109.13 198.29 C105.9 198.61, 102.63 198.77, 99.39 198.77 C96.14 198.77, 92.88 198.61, 89.64 198.29 C86.41 197.98, 83.18 197.5, 80 196.86 C76.81 196.23, 73.64 195.44, 70.54 194.49 C67.43 193.55, 64.35 192.45, 61.35 191.21 C58.35 189.96, 55.4 188.57, 52.54 187.04 C49.67 185.51, 46.87 183.83, 44.17 182.02 C41.47 180.22, 38.85 178.27, 36.34 176.21 C33.83 174.15, 31.41 171.96, 29.11 169.66 C26.81 167.37, 24.62 164.95, 22.56 162.44 C20.5 159.93, 18.55 157.3, 16.75 154.6 C14.95 151.9, 13.27 149.1, 11.74 146.24 C10.2 143.37, 8.81 140.42, 7.57 137.42 C6.32 134.42, 5.22 131.34, 4.28 128.24 C3.34 125.13, 2.54 121.96, 1.91 118.78 C1.28 115.59, 0.8 112.36, 0.48 109.13 C0.16 105.9, 0 102.63, 0 99.39 C0 96.14, 0.16 92.88, 0.48 89.64 C0.8 86.41, 1.28 83.18, 1.91 80 C2.54 76.81, 3.34 73.64, 4.28 70.54 C5.22 67.43, 6.32 64.35, 7.57 61.35 C8.81 58.35, 10.2 55.4, 11.74 52.54 C13.27 49.67, 14.95 46.87, 16.75 44.17 C18.55 41.47, 20.5 38.85, 22.56 36.34 C24.62 33.83, 26.81 31.41, 29.11 29.11 C31.41 26.81, 33.83 24.62, 36.34 22.56 C38.85 20.5, 41.47 18.55, 44.17 16.75 C46.87 14.95, 49.67 13.27, 52.54 11.74 C55.4 10.2, 58.35 8.81, 61.35 7.57 C64.35 6.32, 67.43 5.22, 70.54 4.28 C73.64 3.34, 76.81 2.54, 80 1.91 C83.18 1.28, 86.41 0.8, 89.64 0.48 C92.88 0.16, 96.14 0, 99.39 0 C102.63 0, 105.9 0.16, 109.13 0.48 C112.36 0.8, 115.59 1.28, 118.78 1.91 C121.96 2.54, 125.13 3.34, 128.24 4.28 C131.34 5.22, 134.42 6.32, 137.42 7.57 C140.42 8.81, 143.37 10.2, 146.24 11.74 C149.1 13.27, 151.9 14.95, 154.6 16.75 C157.3 18.55, 159.93 20.5, 162.44 22.56 C164.95 24.62, 167.37 26.81, 169.66 29.11 C171.96 31.41, 174.15 33.83, 176.21 36.34 C178.27 38.85, 180.22 41.47, 182.02 44.17 C183.83 46.87, 185.51 49.67, 187.04 52.54 C188.57 55.4, 189.96 58.35, 191.21 61.35 C192.45 64.35, 193.55 67.43, 194.49 70.54 C195.44 73.64, 196.23 76.81, 196.86 80 C197.5 83.18, 197.98 86.41, 198.29 89.64 C198.61 92.88, 198.69 97.76, 198.77 99.39 C198.85 101.01, 198.85 97.76, 198.77 99.39" stroke="#e03131" stroke-width="4" fill="none"/></g><g stroke-linecap="round"><g transform="translate(312.18365215433056 199.2707677380792) rotate(0 40.55172624259157 0)"><path d="M0 0 C13.52 0, 67.59 0, 81.1 0 M0 0 C13.52 0, 67.59 0, 81.1 0" stroke="transparent" stroke-width="4" fill="none"/></g></g><mask/></svg>