<svg version="1.1" xmlns="http://www.w3.org/2000/svg" viewBox="0 0 456.3672790527344 376.2484130859375" width="456.3672790527344" height="376.2484130859375" filter="invert(93%) hue-rotate(180deg)">
  <!-- svg-source:excalidraw -->
  
  <defs>
    <style class="style-fonts">
      @font-face {
        font-family: "Virgil";
        src: url("https://excalidraw.com/Virgil.woff2");
      }
      @font-face {
        font-family: "Cascadia";
        src: url("https://excalidraw.com/Cascadia.woff2");
      }
    </style>
  </defs>
  <g stroke-linecap="round"><g transform="translate(10 199.111328125) rotate(0 218.1836395263672 0)"><path d="M0 0 C118.65 0, 237.31 0, 436.37 0 M0 0 C98.63 0, 197.27 0, 436.37 0" stroke="#1e1e1e" stroke-width="4" fill="none"/></g></g><mask/><g stroke-linecap="round"><g transform="translate(211.56930541992188 10) rotate(0 0 178.12420654296875)"><path d="M0 0 C0 106.77, 0 213.54, 0 356.25 M0 0 C0 140.49, 0 280.97, 0 356.25" stroke="#1e1e1e" stroke-width="4" fill="none"/></g></g><mask/><g stroke-linecap="round" transform="translate(310.41168355431233 175.9780302475857) rotate(0 39.40310957555087 10.039008321213252)"><path d="M1.34 1.16 C1.34 1.16, 1.34 1.16, 1.34 1.16 M1.34 1.16 C1.34 1.16, 1.34 1.16, 1.34 1.16 M4.88 21.47 C8.41 17.41, 11.94 13.35, 15.38 9.39 M4.88 21.47 C7.27 18.73, 9.65 15.99, 15.38 9.39 M26.14 21.4 C29.61 17.41, 33.08 13.42, 36.64 9.33 M26.14 21.4 C30.28 16.64, 34.42 11.88, 36.64 9.33 M47.4 21.33 C49.94 18.42, 52.47 15.5, 57.9 9.26 M47.4 21.33 C50.87 17.34, 54.34 13.35, 57.9 9.26 M68.01 22.02 C72.52 16.83, 77.03 11.63, 81.78 6.17 M68.01 22.02 C72.14 17.26, 76.28 12.5, 81.78 6.17 M2.75 19.7 C2.75 19.7, 2.75 19.7, 2.75 19.7 M2.75 19.7 C2.75 19.7, 2.75 19.7, 2.75 19.7 M27.59 20.09 C21.63 14.92, 15.68 9.74, 3.44 -0.9 M27.59 20.09 C18.03 11.79, 8.48 3.48, 3.44 -0.9 M51.67 19.82 C38.37 8.26, 25.06 -3.3, 15.44 -11.67 M51.67 19.82 C38.34 8.24, 25.01 -3.35, 15.44 -11.67 M75 18.9 C66.98 11.93, 58.96 4.96, 39.52 -11.93 M75 18.9 C65.08 10.28, 55.16 1.66, 39.52 -11.93" stroke="#fa5252" stroke-width="2" fill="none"/><path d="M5.02 0 M5.02 0 C19.86 0, 34.7 0, 73.79 0 M5.02 0 C29.1 0, 53.18 0, 73.79 0 M73.79 0 C77.13 0, 78.81 1.67, 78.81 5.02 M73.79 0 C77.13 0, 78.81 1.67, 78.81 5.02 M78.81 5.02 C78.81 8.63, 78.81 12.24, 78.81 15.06 M78.81 5.02 C78.81 7.75, 78.81 10.48, 78.81 15.06 M78.81 15.06 C78.81 18.4, 77.13 20.08, 73.79 20.08 M78.81 15.06 C78.81 18.4, 77.13 20.08, 73.79 20.08 M73.79 20.08 C49.78 20.08, 25.77 20.08, 5.02 20.08 M73.79 20.08 C58.34 20.08, 42.88 20.08, 5.02 20.08 M5.02 20.08 C1.67 20.08, 0 18.4, 0 15.06 M5.02 20.08 C1.67 20.08, 0 18.4, 0 15.06 M0 15.06 C0 11.49, 0 7.92, 0 5.02 M0 15.06 C0 12.9, 0 10.74, 0 5.02 M0 5.02 C0 1.67, 1.67 0, 5.02 0 M0 5.02 C0 1.67, 1.67 0, 5.02 0" stroke="transparent" stroke-width="4" fill="none"/></g><g stroke-linecap="round" transform="translate(301.8157845940624 154.0176995449317) rotate(0 39.40310957555087 10.039008321213252)"><path d="M1.34 1.16 C1.34 1.16, 1.34 1.16, 1.34 1.16 M1.34 1.16 C1.34 1.16, 1.34 1.16, 1.34 1.16 M4.88 21.47 C7.23 18.77, 9.58 16.06, 15.38 9.39 M4.88 21.47 C8.88 16.88, 12.87 12.28, 15.38 9.39 M26.14 21.4 C28.72 18.43, 31.3 15.47, 36.64 9.33 M26.14 21.4 C28.66 18.5, 31.18 15.61, 36.64 9.33 M47.4 21.33 C50.35 17.94, 53.3 14.54, 57.9 9.26 M47.4 21.33 C49.69 18.7, 51.98 16.06, 57.9 9.26 M68.01 22.02 C72.94 16.34, 77.87 10.67, 81.78 6.17 M68.01 22.02 C71.92 17.51, 75.84 13.01, 81.78 6.17 M2.75 19.7 C2.75 19.7, 2.75 19.7, 2.75 19.7 M2.75 19.7 C2.75 19.7, 2.75 19.7, 2.75 19.7 M27.59 20.09 C18.17 11.91, 8.76 3.73, 3.44 -0.9 M27.59 20.09 C20.24 13.7, 12.89 7.32, 3.44 -0.9 M51.67 19.82 C43.59 12.8, 35.51 5.77, 15.44 -11.67 M51.67 19.82 C42.09 11.49, 32.5 3.17, 15.44 -11.67 M75 18.9 C66.39 11.42, 57.79 3.95, 39.52 -11.93 M75 18.9 C63.04 8.51, 51.08 -1.89, 39.52 -11.93" stroke="#fa5252" stroke-width="2" fill="none"/><path d="M5.02 0 M5.02 0 C22.96 0, 40.91 0, 73.79 0 M5.02 0 C32.29 0, 59.56 0, 73.79 0 M73.79 0 C77.13 0, 78.81 1.67, 78.81 5.02 M73.79 0 C77.13 0, 78.81 1.67, 78.81 5.02 M78.81 5.02 C78.81 8.72, 78.81 12.43, 78.81 15.06 M78.81 5.02 C78.81 7.71, 78.81 10.41, 78.81 15.06 M78.81 15.06 C78.81 18.4, 77.13 20.08, 73.79 20.08 M78.81 15.06 C78.81 18.4, 77.13 20.08, 73.79 20.08 M73.79 20.08 C46.77 20.08, 19.75 20.08, 5.02 20.08 M73.79 20.08 C55.51 20.08, 37.23 20.08, 5.02 20.08 M5.02 20.08 C1.67 20.08, 0 18.4, 0 15.06 M5.02 20.08 C1.67 20.08, 0 18.4, 0 15.06 M0 15.06 C0 12.49, 0 9.93, 0 5.02 M0 15.06 C0 12.86, 0 10.66, 0 5.02 M0 5.02 C0 1.67, 1.67 0, 5.02 0 M0 5.02 C0 1.67, 1.67 0, 5.02 0" stroke="transparent" stroke-width="4" fill="none"/></g><g stroke-linecap="round" transform="translate(295.4158899822446 130.55151184972908) rotate(0 34.50910067811492 10.039008321213252)"><path d="M1.34 1.16 C1.34 1.16, 1.34 1.16, 1.34 1.16 M1.34 1.16 C1.34 1.16, 1.34 1.16, 1.34 1.16 M4.88 21.47 C7.17 18.84, 9.46 16.2, 15.38 9.39 M4.88 21.47 C8.64 17.15, 12.4 12.83, 15.38 9.39 M26.14 21.4 C29.13 17.97, 32.11 14.54, 36.64 9.33 M26.14 21.4 C28.6 18.58, 31.05 15.75, 36.64 9.33 M46.75 22.09 C49.59 18.81, 52.44 15.54, 57.9 9.26 M46.75 22.09 C51.09 17.09, 55.44 12.09, 57.9 9.26 M2.75 19.7 C2.75 19.7, 2.75 19.7, 2.75 19.7 M2.75 19.7 C2.75 19.7, 2.75 19.7, 2.75 19.7 M27.59 20.09 C21.2 14.54, 14.81 8.98, 3.44 -0.9 M27.59 20.09 C21.73 15, 15.87 9.91, 3.44 -0.9 M51.67 19.82 C39.46 9.21, 27.25 -1.41, 15.44 -11.67 M51.67 19.82 C42.22 11.61, 32.76 3.39, 15.44 -11.67 M70.47 14.97 C58.2 4.3, 45.92 -6.37, 39.52 -11.93 M70.47 14.97 C58.41 4.48, 46.35 -6, 39.52 -11.93" stroke="#fa5252" stroke-width="2" fill="none"/><path d="M5.02 0 M5.02 0 C22.57 0, 40.11 0, 64 0 M5.02 0 C18.69 0, 32.37 0, 64 0 M64 0 C67.35 0, 69.02 1.67, 69.02 5.02 M64 0 C67.35 0, 69.02 1.67, 69.02 5.02 M69.02 5.02 C69.02 7.52, 69.02 10.01, 69.02 15.06 M69.02 5.02 C69.02 7.61, 69.02 10.2, 69.02 15.06 M69.02 15.06 C69.02 18.4, 67.35 20.08, 64 20.08 M69.02 15.06 C69.02 18.4, 67.35 20.08, 64 20.08 M64 20.08 C40.7 20.08, 17.4 20.08, 5.02 20.08 M64 20.08 C47.93 20.08, 31.87 20.08, 5.02 20.08 M5.02 20.08 C1.67 20.08, 0 18.4, 0 15.06 M5.02 20.08 C1.67 20.08, 0 18.4, 0 15.06 M0 15.06 C0 12.58, 0 10.09, 0 5.02 M0 15.06 C0 11.18, 0 7.3, 0 5.02 M0 5.02 C0 1.67, 1.67 0, 5.02 0 M0 5.02 C0 1.67, 1.67 0, 5.02 0" stroke="transparent" stroke-width="4" fill="none"/></g><g stroke-linecap="round"><g transform="translate(214.1003138490741 203.36281599997858) rotate(0 4.749996662139893 -5.270299640809284)"><path d="M0 0 C-18.8 11.92, -84.63 72.58, -112.79 71.5 C-140.96 70.42, -169.63 20.17, -169 -6.5 C-168.37 -33.17, -154.75 -102.83, -109 -88.5 C-63.25 -74.17, 57.58 64.92, 105.5 79.5 C153.42 94.08, 176.4 27.26, 178.5 -1 C180.6 -29.26, 147.83 -90.21, 118.08 -90.04 C88.33 -89.87, 19.68 -15.01, 0 0 M0 0 C-18.8 11.92, -84.63 72.58, -112.79 71.5 C-140.96 70.42, -169.63 20.17, -169 -6.5 C-168.37 -33.17, -154.75 -102.83, -109 -88.5 C-63.25 -74.17, 57.58 64.92, 105.5 79.5 C153.42 94.08, 176.4 27.26, 178.5 -1 C180.6 -29.26, 147.83 -90.21, 118.08 -90.04 C88.33 -89.87, 19.68 -15.01, 0 0" stroke="#e03131" stroke-width="4" fill="none"/></g></g><mask/><g stroke-linecap="round" transform="translate(111.750244140625 99.02883911132812) rotate(0 99.38626098632812 99.38626098632812)"><path d="M198.77 99.39 C198.77 102.63, 198.61 105.9, 198.29 109.13 C197.98 112.36, 197.5 115.59, 196.86 118.78 C196.23 121.96, 195.44 125.13, 194.49 128.24 C193.55 131.34, 192.45 134.42, 191.21 137.42 C189.96 140.42, 188.57 143.37, 187.04 146.24 C185.51 149.1, 183.83 151.9, 182.02 154.6 C180.22 157.3, 178.27 159.93, 176.21 162.44 C174.15 164.95, 171.96 167.37, 169.66 169.66 C167.37 171.96, 164.95 174.15, 162.44 176.21 C159.93 178.27, 157.3 180.22, 154.6 182.02 C151.9 183.83, 149.1 185.51, 146.24 187.04 C143.37 188.57, 140.42 189.96, 137.42 191.21 C134.42 192.45, 131.34 193.55, 128.24 194.49 C125.13 195.44, 121.96 196.23, 118.78 196.86 C115.59 197.5, 112.36 197.98, 109.13 198.29 C105.9 198.61, 102.63 198.77, 99.39 198.77 C96.14 198.77, 92.88 198.61, 89.64 198.29 C86.41 197.98, 83.18 197.5, 80 196.86 C76.81 196.23, 73.64 195.44, 70.54 194.49 C67.43 193.55, 64.35 192.45, 61.35 191.21 C58.35 189.96, 55.4 188.57, 52.54 187.04 C49.67 185.51, 46.87 183.83, 44.17 182.02 C41.47 180.22, 38.85 178.27, 36.34 176.21 C33.83 174.15, 31.41 171.96, 29.11 169.66 C26.81 167.37, 24.62 164.95, 22.56 162.44 C20.5 159.93, 18.55 157.3, 16.75 154.6 C14.95 151.9, 13.27 149.1, 11.74 146.24 C10.2 143.37, 8.81 140.42, 7.57 137.42 C6.32 134.42, 5.22 131.34, 4.28 128.24 C3.34 125.13, 2.54 121.96, 1.91 118.78 C1.28 115.59, 0.8 112.36, 0.48 109.13 C0.16 105.9, 0 102.63, 0 99.39 C0 96.14, 0.16 92.88, 0.48 89.64 C0.8 86.41, 1.28 83.18, 1.91 80 C2.54 76.81, 3.34 73.64, 4.28 70.54 C5.22 67.43, 6.32 64.35, 7.57 61.35 C8.81 58.35, 10.2 55.4, 11.74 52.54 C13.27 49.67, 14.95 46.87, 16.75 44.17 C18.55 41.47, 20.5 38.85, 22.56 36.34 C24.62 33.83, 26.81 31.41, 29.11 29.11 C31.41 26.81, 33.83 24.62, 36.34 22.56 C38.85 20.5, 41.47 18.55, 44.17 16.75 C46.87 14.95, 49.67 13.27, 52.54 11.74 C55.4 10.2, 58.35 8.81, 61.35 7.57 C64.35 6.32, 67.43 5.22, 70.54 4.28 C73.64 3.34, 76.81 2.54, 80 1.91 C83.18 1.28, 86.41 0.8, 89.64 0.48 C92.88 0.16, 96.14 0, 99.39 0 C102.63 0, 105.9 0.16, 109.13 0.48 C112.36 0.8, 115.59 1.28, 118.78 1.91 C121.96 2.54, 125.13 3.34, 128.24 4.28 C131.34 5.22, 134.42 6.32, 137.42 7.57 C140.42 8.81, 143.37 10.2, 146.24 11.74 C149.1 13.27, 151.9 14.95, 154.6 16.75 C157.3 18.55, 159.93 20.5, 162.44 22.56 C164.95 24.62, 167.37 26.81, 169.66 29.11 C171.96 31.41, 174.15 33.83, 176.21 36.34 C178.27 38.85, 180.22 41.47, 182.02 44.17 C183.83 46.87, 185.51 49.67, 187.04 52.54 C188.57 55.4, 189.96 58.35, 191.21 61.35 C192.45 64.35, 193.55 67.43, 194.49 70.54 C195.44 73.64, 196.23 76.81, 196.86 80 C197.5 83.18, 197.98 86.41, 198.29 89.64 C198.61 92.88, 198.69 97.76, 198.77 99.39 C198.85 101.01, 198.85 97.76, 198.77 99.39" stroke="#e03131" stroke-width="4" fill="none"/></g></svg>