<svg version="1.1" xmlns="http://www.w3.org/2000/svg" viewBox="0 0 418.6104431152344 405.75083923339844" width="418.6104431152344" height="405.75083923339844" filter="invert(93%) hue-rotate(180deg)" class="excalidraw-svg">
  <!-- svg-source:excalidraw -->
  
  <defs>
    <style class="style-fonts">
      @font-face {
        font-family: "Virgil";
        src: url("https://excalidraw.com/Virgil.woff2");
      }
      @font-face {
        font-family: "Cascadia";
        src: url("https://excalidraw.com/Cascadia.woff2");
      }
      @font-face {
        font-family: "Assistant";
        src: url("https://excalidraw.com/Assistant-Regular.woff2");
      }
    </style>
    
  </defs>
  <g stroke-linecap="round"><g transform="translate(125.10452155656708 193.34668510190903) rotate(0 -36.83154034358198 57.6774173859627)" fill-rule="evenodd"><path d="M-72.94 0.19 C-72.94 0.19, -72.94 0.19, -72.94 0.19 M-72.94 0.19 C-72.94 0.19, -72.94 0.19, -72.94 0.19 M-72.68 24.27 C-67.73 18.59, -62.78 12.9, -51.68 0.12 M-72.68 24.27 C-67.91 18.79, -63.14 13.31, -51.68 0.12 M-73.07 49.11 C-60.68 34.86, -48.29 20.61, -30.42 0.06 M-73.07 49.11 C-58.05 31.83, -43.03 14.56, -30.42 0.06 M-73.46 73.95 C-52.12 49.4, -30.78 24.85, -9.16 -0.01 M-73.46 73.95 C-55.64 53.45, -37.82 32.96, -9.16 -0.01 M-73.85 98.78 C-70.94 95.44, -68.03 92.1, -64.66 88.22 M-73.85 98.78 C-70.19 94.58, -66.53 90.37, -64.66 88.22 M-73.73 115.3 C-73.73 115.3, -73.73 115.3, -73.73 115.3 M-73.73 115.3 C-73.73 115.3, -73.73 115.3, -73.73 115.3 M-68.51 98.63 C-69.78 97.53, -71.05 96.42, -73.8 94.04 M-68.51 98.63 C-69.74 97.56, -70.97 96.49, -73.8 94.04 M-63.3 81.96 C-65.55 80.01, -67.8 78.05, -73.11 73.43 M-63.3 81.96 C-66.45 79.22, -69.61 76.48, -73.11 73.43 M-55.07 67.92 C-60.24 63.42, -65.42 58.92, -73.18 52.17 M-55.07 67.92 C-61.07 62.7, -67.07 57.49, -73.18 52.17 M-45.32 55.19 C-55.86 46.03, -66.4 36.86, -73.25 30.91 M-45.32 55.19 C-55.53 46.31, -65.74 37.44, -73.25 30.91 M-35.58 42.46 C-44.17 34.99, -52.77 27.52, -72.56 10.31 M-35.58 42.46 C-47.13 32.42, -58.68 22.38, -72.56 10.31 M-25.84 29.73 C-38 19.15, -50.17 8.58, -60.56 -0.45 M-25.84 29.73 C-33.84 22.77, -41.84 15.82, -60.56 -0.45 M-16.1 16.99 C-20.34 13.3, -24.59 9.61, -35.72 -0.06 M-16.1 16.99 C-22.73 11.23, -29.37 5.46, -35.72 -0.06 M-4.85 5.57 C-6.97 3.73, -9.09 1.89, -11.64 -0.33 M-4.85 5.57 C-6.21 4.39, -7.57 3.21, -11.64 -0.33" stroke="#ffc9c9" stroke-width="2" fill="none"/><path d="M0 0 C-26.52 0, -53.05 0, -72.77 0 M0 0 C-28.49 0, -56.99 0, -72.77 0 M-72.77 0 C-73.09 40.95, -73.41 81.91, -73.66 115.35 M-72.77 0 C-73.03 32.87, -73.28 65.73, -73.66 115.35 M-73.66 115.35 C-69.84 103.03, -66.01 90.71, -61.28 75.47 M-73.66 115.35 C-69.26 101.17, -64.85 86.98, -61.28 75.47 M-61.28 75.47 C-50.03 60.92, -38.78 46.38, -16.62 17.74 M-61.28 75.47 C-46.78 56.73, -32.29 37.99, -16.62 17.74 M-16.62 17.74 C-12.97 13.84, -9.32 9.95, 0 0 M-16.62 17.74 C-12.52 13.36, -8.43 8.99, 0 0 M0 0 C0 0, 0 0, 0 0 M0 0 C0 0, 0 0, 0 0" stroke="transparent" stroke-width="4" fill="none"/></g></g><mask/><g stroke-linecap="round"><g transform="translate(49.022003173828125 366.0486755371094) rotate(0 7.105427357601002e-15 -178.0243377685547)"><path d="M0 0 C0 -104.13, 0 -208.25, 0 -356.05 M0 0 C0 -72.98, 0 -145.96, 0 -356.05" stroke="#1e1e1e" stroke-width="4" fill="none"/></g></g><mask/><g stroke-linecap="round"><g transform="translate(10 309.0489196777344) rotate(0 199.3052215576172 0)"><path d="M0 0 C120 0, 240.01 0, 398.61 0 M0 0 C87.31 0, 174.62 0, 398.61 0" stroke="#1e1e1e" stroke-width="4" fill="none"/></g></g><mask/><g stroke-linecap="round"><g transform="translate(13.928863525390625 190.25503540039062) rotate(0 186.15362548828125 0)"><path d="M0 0 C87.91 0, 175.82 0, 372.31 0 M0 0 C145.68 0, 291.36 0, 372.31 0" stroke="#e03131" stroke-width="4" fill="none"/></g></g><mask/><g stroke-linecap="round"><g transform="translate(132.4598388671875 35.43678283691406) rotate(0 0 136.3399429321289)"><path d="M0 0 C0 80.37, 0 160.74, 0 272.68 M0 0 C0 63.52, 0 127.04, 0 272.68" stroke="#e03131" stroke-width="4" fill="none"/></g></g><mask/><g stroke-linecap="round"><g transform="translate(373.52747090657556 41.08416239420572) rotate(0 -160.44445800781253 177.33333841959634)"><path d="M0 0 C-30.96 19.11, -140.44 84.15, -185.78 114.67 C-231.11 145.19, -249.48 157.93, -272 183.11 C-294.52 208.3, -320.74 237.19, -320.89 265.78 C-321.04 294.37, -280.89 339.85, -272.89 354.67 M0 0 C-30.96 19.11, -140.44 84.15, -185.78 114.67 C-231.11 145.19, -249.48 157.93, -272 183.11 C-294.52 208.3, -320.74 237.19, -320.89 265.78 C-321.04 294.37, -280.89 339.85, -272.89 354.67" stroke="#e03131" stroke-width="4" fill="none"/></g></g><mask/></svg>