<svg version="1.1" xmlns="http://www.w3.org/2000/svg" viewBox="0 0 412.6459456993098 345.27502881545706" width="412.6459456993098" height="345.27502881545706" filter="invert(93%) hue-rotate(180deg)">
  <!-- svg-source:excalidraw -->
  
  <defs>
    <style class="style-fonts">
      @font-face {
        font-family: "Virgil";
        src: url("https://excalidraw.com/Virgil.woff2");
      }
      @font-face {
        font-family: "Cascadia";
        src: url("https://excalidraw.com/Cascadia.woff2");
      }
    </style>
  </defs>
  <g stroke-linecap="round"><g transform="translate(49.01266180023799 274.7254552570165) rotate(0 161.5367003514579 -56.697920721129094)" fill-rule="evenodd"><path d="M0 0 C0 0, 0 0, 0 0 M0 0 C0 0, 0 0, 0 0 M4.99 0.36 C6.87 -1.81, 8.76 -3.98, 10.89 -6.43 M4.99 0.36 C6.22 -1.06, 7.45 -2.48, 10.89 -6.43 M10.63 -0.03 C14.48 -4.47, 18.33 -8.9, 21.13 -12.11 M10.63 -0.03 C13.64 -3.5, 16.66 -6.97, 21.13 -12.11 M15.62 0.33 C20.37 -5.14, 25.12 -10.61, 32.02 -18.54 M15.62 0.33 C21.59 -6.54, 27.55 -13.41, 32.02 -18.54 M21.26 -0.07 C28.77 -8.71, 36.29 -17.36, 42.25 -24.22 M21.26 -0.07 C27.04 -6.72, 32.83 -13.38, 42.25 -24.22 M119.01 -112.52 C119.01 -112.52, 119.01 -112.52, 119.01 -112.52 M119.01 -112.52 C119.01 -112.52, 119.01 -112.52, 119.01 -112.52 M26.25 0.29 C30.49 -4.59, 34.73 -9.47, 45.93 -22.35 M26.25 0.29 C31.87 -6.18, 37.49 -12.65, 45.93 -22.35 M111.53 -97.82 C114.18 -100.87, 116.83 -103.91, 122.69 -110.65 M111.53 -97.82 C114.97 -101.77, 118.4 -105.72, 122.69 -110.65 M31.89 -0.1 C43.8 -13.81, 55.71 -27.51, 62.07 -34.82 M31.89 -0.1 C40.52 -10.03, 49.16 -19.97, 62.07 -34.82 M104.06 -83.12 C109.08 -88.9, 114.1 -94.67, 126.36 -108.78 M104.06 -83.12 C111.48 -91.67, 118.91 -100.21, 126.36 -108.78 M36.88 0.26 C45.43 -9.59, 53.99 -19.43, 78.21 -47.29 M36.88 0.26 C48.8 -13.46, 60.73 -27.18, 78.21 -47.29 M96.58 -68.42 C107.16 -80.6, 117.75 -92.78, 129.38 -106.16 M96.58 -68.42 C108.32 -81.92, 120.05 -95.42, 129.38 -106.16 M42.52 -0.14 C62.46 -23.07, 82.39 -46, 133.06 -104.29 M42.52 -0.14 C74.1 -36.46, 105.68 -72.79, 133.06 -104.29 M47.51 0.22 C81.07 -38.38, 114.62 -76.99, 136.73 -102.42 M47.51 0.22 C75.14 -31.57, 102.78 -63.36, 136.73 -102.42 M53.15 -0.17 C75.67 -26.08, 98.19 -51.98, 140.41 -100.55 M53.15 -0.17 C85.13 -36.96, 117.1 -73.74, 140.41 -100.55 M58.14 0.19 C82.83 -28.22, 107.52 -56.62, 144.08 -98.68 M58.14 0.19 C89.09 -35.42, 120.05 -71.03, 144.08 -98.68 M63.78 -0.21 C80.65 -19.61, 97.52 -39.02, 147.76 -96.81 M63.78 -0.21 C87.69 -27.71, 111.61 -55.22, 147.76 -96.81 M68.77 0.15 C86.5 -20.25, 104.24 -40.66, 151.43 -94.94 M68.77 0.15 C95.58 -30.69, 122.38 -61.53, 151.43 -94.94 M74.41 -0.24 C105.23 -35.69, 136.05 -71.14, 154.45 -92.32 M74.41 -0.24 C97.68 -27.01, 120.94 -53.77, 154.45 -92.32 M79.4 0.12 C108.72 -33.62, 138.05 -67.35, 158.12 -90.45 M79.4 0.12 C99.95 -23.52, 120.49 -47.16, 158.12 -90.45 M85.04 -0.28 C100.64 -18.22, 116.23 -36.16, 161.8 -88.58 M85.04 -0.28 C101.55 -19.26, 118.05 -38.25, 161.8 -88.58 M90.03 0.08 C107.52 -20.04, 125.01 -40.16, 165.47 -86.71 M90.03 0.08 C110.62 -23.6, 131.2 -47.28, 165.47 -86.71 M95.67 -0.31 C118.03 -26.03, 140.38 -51.75, 169.15 -84.84 M95.67 -0.31 C120.09 -28.4, 144.51 -56.49, 169.15 -84.84 M100.66 0.05 C123.73 -26.49, 146.8 -53.03, 172.82 -82.97 M100.66 0.05 C122.77 -25.38, 144.87 -50.82, 172.82 -82.97 M106.3 -0.34 C133.92 -32.12, 161.54 -63.89, 176.5 -81.1 M106.3 -0.34 C131.63 -29.48, 156.95 -58.61, 176.5 -81.1 M111.29 0.02 C126.25 -17.2, 141.22 -34.42, 179.52 -78.47 M111.29 0.02 C135.27 -27.58, 159.26 -55.17, 179.52 -78.47 M116.27 0.38 C131.81 -17.5, 147.35 -35.37, 183.19 -76.61 M116.27 0.38 C133.83 -19.82, 151.39 -40.02, 183.19 -76.61 M121.92 -0.02 C145.97 -27.69, 170.02 -55.36, 186.87 -74.74 M121.92 -0.02 C137.66 -18.12, 153.39 -36.23, 186.87 -74.74 M126.91 0.34 C142.06 -17.09, 157.21 -34.53, 190.54 -72.87 M126.91 0.34 C142.37 -17.45, 157.83 -35.24, 190.54 -72.87 M132.55 -0.05 C149.1 -19.1, 165.66 -38.15, 194.22 -71 M132.55 -0.05 C148.36 -18.24, 164.16 -36.42, 194.22 -71 M137.54 0.31 C154.75 -19.5, 171.97 -39.3, 197.89 -69.13 M137.54 0.31 C158.78 -24.14, 180.03 -48.58, 197.89 -69.13 M143.18 -0.09 C158.7 -17.94, 174.22 -35.8, 201.57 -67.26 M143.18 -0.09 C161.57 -21.25, 179.96 -42.4, 201.57 -67.26 M148.17 0.27 C165.3 -19.43, 182.43 -39.14, 204.59 -64.63 M148.17 0.27 C164.12 -18.09, 180.08 -36.44, 204.59 -64.63 M153.81 -0.12 C173.99 -23.34, 194.17 -46.56, 208.26 -62.76 M153.81 -0.12 C174.69 -24.14, 195.56 -48.16, 208.26 -62.76 M158.8 0.24 C173.66 -16.86, 188.53 -33.97, 211.94 -60.89 M158.8 0.24 C178.58 -22.53, 198.37 -45.29, 211.94 -60.89 M164.44 -0.16 C177.1 -14.73, 189.77 -29.3, 215.61 -59.02 M164.44 -0.16 C178.28 -16.08, 192.12 -32, 215.61 -59.02 M169.43 0.2 C182.21 -14.5, 194.99 -29.2, 219.29 -57.16 M169.43 0.2 C179.47 -11.35, 189.51 -22.9, 219.29 -57.16 M175.07 -0.19 C185.47 -12.16, 195.87 -24.13, 222.96 -55.29 M175.07 -0.19 C186.03 -12.8, 196.99 -25.41, 222.96 -55.29 M180.06 0.17 C195.53 -17.63, 211.01 -35.44, 226.64 -53.42 M180.06 0.17 C198.43 -20.97, 216.8 -42.1, 226.64 -53.42 M185.7 -0.23 C196.99 -13.21, 208.28 -26.2, 229.65 -50.79 M185.7 -0.23 C201.3 -18.17, 216.9 -36.11, 229.65 -50.79 M190.69 0.13 C201.89 -12.75, 213.09 -25.63, 233.33 -48.92 M190.69 0.13 C200.06 -10.64, 209.42 -21.42, 233.33 -48.92 M196.33 -0.26 C212.59 -18.96, 228.84 -37.66, 237 -47.05 M196.33 -0.26 C212.14 -18.45, 227.95 -36.64, 237 -47.05 M201.32 0.1 C211.51 -11.63, 221.71 -23.36, 240.68 -45.18 M201.32 0.1 C216.64 -17.53, 231.97 -35.16, 240.68 -45.18 M206.96 -0.3 C219.5 -14.72, 232.03 -29.14, 244.35 -43.31 M206.96 -0.3 C218.71 -13.81, 230.46 -27.33, 244.35 -43.31 M211.95 0.06 C225.98 -16.08, 240.02 -32.23, 248.03 -41.44 M211.95 0.06 C221.29 -10.68, 230.63 -21.43, 248.03 -41.44 M217.59 -0.33 C224.73 -8.55, 231.87 -16.76, 251.7 -39.57 M217.59 -0.33 C229.84 -14.42, 242.09 -28.52, 251.7 -39.57 M222.58 0.03 C234.68 -13.89, 246.78 -27.82, 254.72 -36.95 M222.58 0.03 C229.91 -8.41, 237.24 -16.84, 254.72 -36.95 M228.22 -0.36 C234.98 -8.14, 241.74 -15.92, 258.4 -35.08 M228.22 -0.36 C240.13 -14.07, 252.04 -27.77, 258.4 -35.08 M233.21 0 C239.03 -6.7, 244.85 -13.4, 262.07 -33.21 M233.21 0 C243.03 -11.3, 252.85 -22.6, 262.07 -33.21 M238.19 0.36 C244.74 -7.18, 251.29 -14.71, 265.75 -31.34 M238.19 0.36 C247.46 -10.3, 256.72 -20.96, 265.75 -31.34 M243.84 -0.04 C251.54 -8.9, 259.25 -17.77, 269.42 -29.47 M243.84 -0.04 C251.05 -8.34, 258.27 -16.64, 269.42 -29.47 M248.82 0.32 C257.68 -9.87, 266.53 -20.05, 273.1 -27.6 M248.82 0.32 C257.13 -9.24, 265.44 -18.8, 273.1 -27.6 M254.47 -0.07 C262.66 -9.5, 270.86 -18.93, 276.77 -25.73 M254.47 -0.07 C263.04 -9.94, 271.62 -19.8, 276.77 -25.73 M259.45 0.29 C267.1 -8.51, 274.75 -17.31, 279.79 -23.11 M259.45 0.29 C263.84 -4.77, 268.24 -9.82, 279.79 -23.11 M265.1 -0.11 C271.51 -7.49, 277.93 -14.87, 283.47 -21.24 M265.1 -0.11 C269.17 -4.8, 273.25 -9.49, 283.47 -21.24 M270.08 0.25 C275.18 -5.61, 280.28 -11.47, 287.14 -19.37 M270.08 0.25 C273.55 -3.74, 277.02 -7.73, 287.14 -19.37 M275.73 -0.14 C279.53 -4.52, 283.34 -8.9, 290.82 -17.5 M275.73 -0.14 C278.94 -3.84, 282.15 -7.54, 290.82 -17.5 M280.71 0.22 C283.69 -3.21, 286.67 -6.63, 294.49 -15.63 M280.71 0.22 C286.15 -6.04, 291.58 -12.29, 294.49 -15.63 M286.36 -0.18 C290.34 -4.76, 294.33 -9.35, 298.17 -13.76 M286.36 -0.18 C288.95 -3.16, 291.53 -6.13, 298.17 -13.76 M291.34 0.18 C294.15 -3.05, 296.96 -6.28, 301.84 -11.89 M291.34 0.18 C294.74 -3.72, 298.14 -7.63, 301.84 -11.89 M296.99 -0.21 C299.53 -3.13, 302.07 -6.06, 304.86 -9.27 M296.99 -0.21 C299.72 -3.35, 302.45 -6.49, 304.86 -9.27 M301.97 0.15 C303.61 -1.73, 305.24 -3.61, 308.53 -7.4 M301.97 0.15 C304.39 -2.63, 306.8 -5.41, 308.53 -7.4 M307.62 -0.25 C309.37 -2.26, 311.12 -4.28, 312.21 -5.53 M307.62 -0.25 C309.2 -2.07, 310.78 -3.89, 312.21 -5.53 M312.6 0.11 C313.3 -0.69, 314 -1.49, 315.88 -3.66 M312.6 0.11 C313.75 -1.2, 314.9 -2.52, 315.88 -3.66 M318.25 -0.28 C318.7 -0.8, 319.15 -1.32, 319.56 -1.79 M318.25 -0.28 C318.52 -0.59, 318.79 -0.9, 319.56 -1.79 M0 0 C0 0, 0 0, 0 0 M0 0 C0 0, 0 0, 0 0 M6.4 0.26 C5.49 -0.52, 4.59 -1.31, 3.38 -2.36 M6.4 0.26 C5.28 -0.71, 4.17 -1.68, 3.38 -2.36 M12.04 -0.13 C10.35 -1.61, 8.65 -3.08, 7.51 -4.07 M12.04 -0.13 C11.01 -1.03, 9.99 -1.92, 7.51 -4.07 M18.44 0.13 C15.52 -2.41, 12.61 -4.94, 10.89 -6.43 M18.44 0.13 C16.07 -1.93, 13.69 -4, 10.89 -6.43 M24.08 -0.27 C20.83 -3.09, 17.59 -5.91, 15.03 -8.14 M24.08 -0.27 C20.6 -3.29, 17.12 -6.32, 15.03 -8.14 M30.48 0 C28 -2.16, 25.51 -4.32, 18.4 -10.5 M30.48 0 C26.07 -3.84, 21.66 -7.67, 18.4 -10.5 M36.88 0.26 C32.42 -3.62, 27.96 -7.5, 21.78 -12.86 M36.88 0.26 C33.83 -2.39, 30.79 -5.03, 21.78 -12.86 M42.52 -0.14 C39 -3.2, 35.47 -6.26, 25.92 -14.57 M42.52 -0.14 C37.7 -4.33, 32.87 -8.52, 25.92 -14.57 M48.92 0.12 C42.67 -5.31, 36.42 -10.74, 29.3 -16.93 M48.92 0.12 C42.66 -5.32, 36.4 -10.76, 29.3 -16.93 M54.56 -0.27 C47.85 -6.11, 41.14 -11.94, 33.43 -18.64 M54.56 -0.27 C48.17 -5.82, 41.79 -11.38, 33.43 -18.64 M60.96 -0.01 C55.72 -4.56, 50.48 -9.12, 36.81 -21 M60.96 -0.01 C55.64 -4.64, 50.32 -9.26, 36.81 -21 M67.36 0.25 C59.49 -6.58, 51.63 -13.42, 40.19 -23.37 M67.36 0.25 C60.4 -5.8, 53.43 -11.85, 40.19 -23.37 M73 -0.14 C66.03 -6.2, 59.06 -12.26, 43.57 -25.73 M73 -0.14 C66.14 -6.11, 59.28 -12.07, 43.57 -25.73 M79.4 0.12 C67.99 -9.8, 56.58 -19.72, 46.95 -28.09 M79.4 0.12 C71.22 -6.99, 63.04 -14.1, 46.95 -28.09 M85.04 -0.28 C75.32 -8.73, 65.6 -17.18, 50.32 -30.45 M85.04 -0.28 C73.62 -10.2, 62.21 -20.13, 50.32 -30.45 M91.44 -0.01 C76.94 -12.62, 62.44 -25.22, 53.7 -32.82 M91.44 -0.01 C82.66 -7.65, 73.88 -15.28, 53.7 -32.82 M97.84 0.25 C85.41 -10.56, 72.98 -21.36, 57.08 -35.18 M97.84 0.25 C84.69 -11.18, 71.54 -22.61, 57.08 -35.18 M103.48 -0.15 C89.3 -12.47, 75.12 -24.8, 59.71 -38.2 M103.48 -0.15 C86.61 -14.82, 69.73 -29.48, 59.71 -38.2 M109.88 0.11 C94.61 -13.16, 79.35 -26.43, 63.09 -40.56 M109.88 0.11 C97.09 -11, 84.3 -22.12, 63.09 -40.56 M115.52 -0.28 C97.7 -15.77, 79.88 -31.26, 66.46 -42.92 M115.52 -0.28 C98.79 -14.82, 82.06 -29.37, 66.46 -42.92 M121.92 -0.02 C110.74 -9.73, 99.57 -19.44, 69.84 -45.29 M121.92 -0.02 C107.15 -12.86, 92.38 -25.7, 69.84 -45.29 M128.32 0.24 C108.97 -16.57, 89.63 -33.38, 73.22 -47.65 M128.32 0.24 C107.72 -17.66, 87.12 -35.57, 73.22 -47.65 M133.96 -0.15 C116.92 -14.96, 99.89 -29.77, 76.6 -50.01 M133.96 -0.15 C116.76 -15.1, 99.56 -30.05, 76.6 -50.01 M140.36 0.11 C116.35 -20.76, 92.35 -41.62, 79.23 -53.03 M140.36 0.11 C127.99 -10.64, 115.63 -21.39, 79.23 -53.03 M146 -0.29 C123.38 -19.95, 100.76 -39.62, 82.6 -55.39 M146 -0.29 C126.21 -17.49, 106.42 -34.69, 82.6 -55.39 M152.4 -0.02 C135.83 -14.42, 119.27 -28.82, 85.98 -57.76 M152.4 -0.02 C126.61 -22.44, 100.83 -44.85, 85.98 -57.76 M158.8 0.24 C142.57 -13.87, 126.35 -27.97, 89.36 -60.12 M158.8 0.24 C134.18 -21.16, 109.57 -42.55, 89.36 -60.12 M164.44 -0.16 C139.88 -21.51, 115.32 -42.86, 91.99 -63.14 M164.44 -0.16 C139.98 -21.42, 115.53 -42.67, 91.99 -63.14 M170.84 0.1 C153.65 -14.84, 136.46 -29.77, 93.86 -66.81 M170.84 0.1 C147.41 -20.26, 123.97 -40.63, 93.86 -66.81 M176.48 -0.29 C149.4 -23.83, 122.32 -47.37, 95.73 -70.49 M176.48 -0.29 C152.28 -21.33, 128.08 -42.36, 95.73 -70.49 M182.88 -0.03 C159.2 -20.61, 135.52 -41.2, 97.59 -74.16 M182.88 -0.03 C158.72 -21.03, 134.56 -42.03, 97.59 -74.16 M189.27 0.23 C156.17 -28.55, 123.06 -57.33, 99.46 -77.84 M189.27 0.23 C156.23 -28.49, 123.19 -57.21, 99.46 -77.84 M194.92 -0.16 C175.72 -16.85, 156.51 -33.55, 101.33 -81.51 M194.92 -0.16 C170.93 -21.02, 146.94 -41.87, 101.33 -81.51 M201.32 0.1 C179.21 -19.12, 157.11 -38.33, 103.2 -85.19 M201.32 0.1 C173.92 -23.72, 146.52 -47.53, 103.2 -85.19 M206.96 -0.3 C179.41 -24.24, 151.86 -48.19, 105.07 -88.86 M206.96 -0.3 C183.28 -20.88, 159.6 -41.47, 105.07 -88.86 M213.36 -0.03 C176.33 -32.22, 139.29 -64.42, 106.94 -92.54 M213.36 -0.03 C190.53 -19.87, 167.71 -39.71, 106.94 -92.54 M219.75 0.23 C176.03 -37.78, 132.32 -75.78, 108.81 -96.21 M219.75 0.23 C190.45 -25.25, 161.14 -50.73, 108.81 -96.21 M225.4 -0.17 C198.36 -23.67, 171.33 -47.17, 110.68 -99.89 M225.4 -0.17 C179.73 -39.86, 134.06 -79.56, 110.68 -99.89 M231.8 0.09 C189.67 -36.53, 147.54 -73.15, 112.55 -103.56 M231.8 0.09 C202.23 -25.61, 172.66 -51.31, 112.55 -103.56 M237.44 -0.3 C207.67 -26.18, 177.9 -52.05, 115.18 -106.58 M237.44 -0.3 C200.96 -32.01, 164.48 -63.72, 115.18 -106.58 M243.84 -0.04 C195.49 -42.07, 147.14 -84.09, 117.04 -110.26 M243.84 -0.04 C202.76 -35.74, 161.69 -71.45, 117.04 -110.26 M250.23 0.22 C199.67 -43.73, 149.1 -87.69, 118.16 -114.59 M250.23 0.22 C220.22 -25.87, 190.2 -51.96, 118.16 -114.59 M255.88 -0.17 C211.48 -38.77, 167.07 -77.37, 135.12 -105.14 M255.88 -0.17 C222.55 -29.14, 189.22 -58.12, 135.12 -105.14 M262.27 0.09 C226.85 -30.7, 191.43 -61.5, 152.09 -95.69 M262.27 0.09 C224.74 -32.54, 187.21 -65.16, 152.09 -95.69 M267.92 -0.3 C242.19 -22.67, 216.46 -45.04, 168.3 -86.9 M267.92 -0.3 C234.87 -29.04, 201.82 -57.77, 168.3 -86.9 M274.32 -0.04 C240.18 -29.71, 206.05 -59.39, 185.26 -77.46 M274.32 -0.04 C253.13 -18.46, 231.94 -36.88, 185.26 -77.46 M280.71 0.22 C260.69 -17.19, 240.67 -34.59, 202.22 -68.01 M280.71 0.22 C252.25 -24.52, 223.79 -49.27, 202.22 -68.01 M286.36 -0.18 C262.95 -20.52, 239.55 -40.86, 219.19 -58.57 M286.36 -0.18 C262.02 -21.33, 237.68 -42.49, 219.19 -58.57 M292.75 0.08 C280.34 -10.71, 267.93 -21.5, 235.4 -49.78 M292.75 0.08 C276.48 -14.06, 260.21 -28.21, 235.4 -49.78 M298.4 -0.31 C286.73 -10.45, 275.07 -20.59, 252.36 -40.33 M298.4 -0.31 C289.14 -8.36, 279.89 -16.4, 252.36 -40.33 M304.8 -0.05 C295.68 -7.97, 286.57 -15.89, 269.32 -30.88 M304.8 -0.05 C295.79 -7.88, 286.78 -15.71, 269.32 -30.88 M311.19 0.21 C301.17 -8.5, 291.14 -17.22, 285.53 -22.09 M311.19 0.21 C303.89 -6.14, 296.58 -12.49, 285.53 -22.09 M316.84 -0.18 C311.86 -4.51, 306.88 -8.84, 302.5 -12.65 M316.84 -0.18 C312.88 -3.62, 308.92 -7.06, 302.5 -12.65" stroke="#ffc9c9" stroke-width="0.5" fill="none"/><path d="M0 0 C91.2 0, 182.4 0, 323.07 0 M323.07 0 C247.26 -41.87, 171.44 -83.74, 117.74 -113.4 M117.74 -113.4 C111.28 -100.75, 104.83 -88.1, 91.41 -61.8 M91.41 -61.8 C75.96 -49.93, 60.51 -38.06, 43.34 -24.87 M43.34 -24.87 C33 -18.94, 22.66 -13, 0 0 M0 0 C0 0, 0 0, 0 0" stroke="transparent" stroke-width="1.5" fill="none" stroke-dasharray="8 9"/></g></g><mask/><g stroke-linecap="round"><g transform="translate(166.76338417047415 158.51130872680943) rotate(0 -5.329070518200751e-15 88.38186004432383)"><path d="M0 0 C0 64.59, 0 129.18, 0 176.76" stroke="#e03131" stroke-width="1.5" fill="none" stroke-dasharray="8 9"/></g></g><mask/><g stroke-linecap="round"><g transform="translate(10 279.94976806640625) rotate(0 196.3229728496549 0)"><path d="M0 0 C89.84 0, 179.69 0, 392.65 0 M0 0 C103 0, 206 0, 392.65 0" stroke="#1e1e1e" stroke-width="4" fill="none"/></g></g><mask/><g stroke-linecap="round"><g transform="translate(49.95426940917969 334.3525390625) rotate(0 7.105427357601002e-15 -162.17626953125)"><path d="M0 0 C0 -112.26, 0 -224.51, 0 -324.35 M0 0 C0 -115.91, 0 -231.82, 0 -324.35" stroke="#1e1e1e" stroke-width="4" fill="none"/></g></g><mask/><g stroke-linecap="round"><g transform="translate(168.60518047101507 161.21653616872405) rotate(0 113.57491720571998 65.57250902191188)"><path d="M0 0 C55.78 32.2, 111.56 64.41, 227.15 131.15 M0 0 C63.56 36.7, 127.13 73.4, 227.15 131.15" stroke="#e03131" stroke-width="4" fill="none"/></g></g><mask/><g transform="translate(170.74937438964844 87.97512817382812) rotate(0 -57.80052185058594 94.38917541503906)" stroke="none"><path fill="#e03131" d="M 1.63,0.03 Q 1.63,0.03 1.73,1.63 1.82,3.22 1.82,4.55 1.83,5.89 1.89,7.03 1.94,8.18 2.02,9.49 2.10,10.81 2.15,12.31 2.20,13.82 2.17,15.44 2.14,17.05 2.09,18.68 2.03,20.31 2.01,21.79 1.99,23.26 1.99,24.84 1.98,26.42 1.98,28.01 1.98,29.60 2.02,31.23 2.06,32.86 2.09,34.59 2.11,36.32 2.13,38.07 2.14,39.82 2.09,41.62 2.04,43.41 1.95,45.11 1.85,46.81 1.75,48.58 1.65,50.35 1.49,52.21 1.34,54.07 1.19,55.85 1.04,57.62 0.84,59.35 0.64,61.09 0.44,62.68 0.24,64.27 0.00,65.72 -0.24,67.17 -0.43,68.42 -0.62,69.67 -0.80,70.74 -0.98,71.82 -1.33,73.86 -1.68,75.91 -1.90,77.05 -2.12,78.20 -2.47,79.74 -2.81,81.28 -3.23,82.62 -3.66,83.97 -4.06,85.12 -4.47,86.27 -5.15,87.93 -5.82,89.59 -6.53,91.41 -7.24,93.23 -7.77,94.44 -8.29,95.65 -8.80,96.77 -9.31,97.88 -9.83,98.91 -10.35,99.93 -10.88,100.93 -11.41,101.93 -11.99,102.96 -12.57,104.00 -13.16,105.02 -13.75,106.04 -14.30,107.10 -14.85,108.16 -15.47,109.20 -16.09,110.25 -16.74,111.21 -17.40,112.17 -18.03,113.20 -18.66,114.22 -19.39,115.36 -20.12,116.51 -21.01,117.78 -21.90,119.05 -22.96,120.45 -24.02,121.85 -25.11,123.35 -26.20,124.86 -27.43,126.34 -28.65,127.83 -31.64,130.80 -34.64,133.76 -36.68,135.78 -38.72,137.80 -40.58,139.49 -42.45,141.17 -44.17,142.65 -45.88,144.12 -47.58,145.46 -49.27,146.79 -50.80,148.05 -52.32,149.31 -53.85,150.60 -55.38,151.88 -56.79,153.15 -58.19,154.42 -59.73,155.73 -61.27,157.03 -62.75,158.20 -64.23,159.37 -65.83,160.46 -67.44,161.55 -69.58,163.13 -71.72,164.71 -73.32,165.98 -74.92,167.25 -76.44,168.33 -77.96,169.40 -79.30,170.33 -80.63,171.25 -81.85,172.13 -83.07,173.00 -84.37,173.75 -85.67,174.51 -86.71,175.16 -87.75,175.81 -88.86,176.48 -89.98,177.14 -91.00,177.78 -92.01,178.41 -93.12,179.05 -94.22,179.69 -95.38,180.29 -96.54,180.89 -97.69,181.49 -98.84,182.10 -99.91,182.75 -100.98,183.41 -102.06,184.18 -103.15,184.95 -104.37,185.80 -105.60,186.65 -106.85,187.44 -108.11,188.24 -109.26,188.90 -110.42,189.56 -113.17,189.52 -115.92,189.49 -116.11,189.39 -116.30,189.30 -116.45,189.15 -116.61,189.00 -116.70,188.81 -116.80,188.63 -116.83,188.41 -116.86,188.20 -116.82,188.00 -116.78,187.79 -116.68,187.60 -116.58,187.41 -116.42,187.27 -116.26,187.13 -116.07,187.04 -115.87,186.96 -115.66,186.94 -115.45,186.92 -115.24,186.97 -115.04,187.02 -114.86,187.13 -114.68,187.24 -114.54,187.41 -114.41,187.57 -114.33,187.77 -114.26,187.97 -114.25,188.18 -114.24,188.39 -114.30,188.60 -114.36,188.80 -114.49,188.98 -114.61,189.15 -114.78,189.27 -114.95,189.40 -115.15,189.46 -115.36,189.53 -115.57,189.52 -115.78,189.52 -115.98,189.45 -116.18,189.38 -116.35,189.25 -116.52,189.11 -116.63,188.94 -116.75,188.76 -116.80,188.55 -116.85,188.35 -116.84,188.13 -116.82,187.92 -116.74,187.73 -116.66,187.53 -116.52,187.37 -116.38,187.21 -116.19,187.11 -116.01,187.00 -115.80,186.96 -115.59,186.92 -115.38,186.94 -115.17,186.97 -115.17,186.97 -115.17,186.97 -114.07,186.02 -112.97,185.06 -111.92,184.46 -110.86,183.86 -109.70,183.14 -108.54,182.41 -107.32,181.57 -106.11,180.74 -104.88,179.88 -103.66,179.02 -102.44,178.29 -101.22,177.55 -100.05,176.94 -98.88,176.33 -97.83,175.79 -96.77,175.26 -95.73,174.66 -94.69,174.07 -93.63,173.43 -92.57,172.78 -91.50,172.14 -90.43,171.51 -89.31,170.82 -88.18,170.12 -87.09,169.51 -86.01,168.90 -84.75,168.00 -83.50,167.09 -82.18,166.19 -80.86,165.28 -79.45,164.30 -78.05,163.31 -76.38,161.99 -74.71,160.66 -72.48,159.03 -70.26,157.39 -68.79,156.40 -67.33,155.42 -65.92,154.31 -64.50,153.21 -63.02,151.96 -61.53,150.71 -60.06,149.39 -58.59,148.07 -57.04,146.77 -55.50,145.48 -53.93,144.17 -52.36,142.87 -50.74,141.60 -49.12,140.33 -47.44,138.91 -45.77,137.49 -43.98,135.89 -42.20,134.28 -40.16,132.26 -38.11,130.23 -35.28,127.46 -32.45,124.69 -31.31,123.32 -30.17,121.95 -29.04,120.42 -27.91,118.89 -26.90,117.56 -25.89,116.24 -25.05,115.06 -24.21,113.88 -23.50,112.77 -22.79,111.67 -21.52,109.72 -20.25,107.77 -19.69,106.84 -19.14,105.92 -18.54,104.78 -17.94,103.63 -17.36,102.62 -16.78,101.61 -16.23,100.65 -15.68,99.69 -14.69,97.78 -13.70,95.86 -13.21,94.80 -12.71,93.74 -12.23,92.62 -11.75,91.50 -11.01,89.63 -10.28,87.76 -9.64,86.21 -8.99,84.65 -8.61,83.59 -8.22,82.53 -7.85,81.37 -7.49,80.21 -7.15,78.76 -6.82,77.30 -6.40,75.14 -5.99,72.97 -5.65,70.96 -5.31,68.94 -5.11,67.66 -4.91,66.38 -4.68,65.03 -4.44,63.68 -4.24,62.11 -4.04,60.53 -3.84,58.87 -3.64,57.21 -3.48,55.41 -3.32,53.60 -3.11,51.82 -2.90,50.04 -2.76,48.29 -2.62,46.54 -2.52,44.91 -2.42,43.28 -2.35,41.56 -2.29,39.84 -2.29,38.10 -2.29,36.36 -2.30,34.66 -2.30,32.96 -2.34,31.27 -2.37,29.59 -2.36,27.99 -2.35,26.39 -2.34,24.79 -2.32,23.19 -2.29,21.67 -2.26,20.16 -2.20,18.54 -2.13,16.92 -2.07,15.40 -2.00,13.88 -1.99,12.42 -1.99,10.97 -2.01,9.63 -2.04,8.29 -2.04,7.06 -2.05,5.84 -2.01,4.48 -1.97,3.13 -1.80,1.54 -1.63,-0.03 -1.60,-0.23 -1.58,-0.43 -1.50,-0.61 -1.43,-0.79 -1.31,-0.95 -1.20,-1.11 -1.04,-1.24 -0.89,-1.37 -0.72,-1.45 -0.54,-1.54 -0.35,-1.58 -0.15,-1.63 0.03,-1.62 0.23,-1.62 0.42,-1.56 0.61,-1.51 0.79,-1.42 0.96,-1.32 1.10,-1.19 1.25,-1.05 1.36,-0.89 1.46,-0.72 1.53,-0.53 1.60,-0.35 1.61,-0.15 1.63,0.03 1.63,0.03 L 1.63,0.03 Z"/></g></svg>