<svg version="1.1" xmlns="http://www.w3.org/2000/svg" viewBox="0 0 139.93607954545453 138.9808238636363" width="139.93607954545453" height="138.9808238636363" filter="invert(93%) hue-rotate(180deg)" class="excalidraw-svg">
  <!-- svg-source:excalidraw -->
  
  <defs>
    <style class="style-fonts">
      @font-face {
        font-family: "Virgil";
        src: url("https://excalidraw.com/Virgil.woff2");
      }
      @font-face {
        font-family: "Cascadia";
        src: url("https://excalidraw.com/Cascadia.woff2");
      }
      @font-face {
        font-family: "Assistant";
        src: url("https://excalidraw.com/Assistant-Regular.woff2");
      }
    </style>
    
  </defs>
  <g stroke-linecap="round" transform="translate(21.649706291429908 18.17589962121204) rotate(0 50 50)"><path d="M0 0 C29.74 0, 59.48 0, 100 0 M0 0 C22.76 0, 45.51 0, 100 0 M100 0 C100 34.37, 100 68.74, 100 100 M100 0 C100 30.42, 100 60.84, 100 100 M100 100 C63.31 100, 26.62 100, 0 100 M100 100 C71.33 100, 42.67 100, 0 100 M0 100 C0 79.48, 0 58.96, 0 0 M0 100 C0 75.33, 0 50.66, 0 0" stroke="#1e1e1e" stroke-width="4" fill="none"/></g><g stroke-linecap="round" transform="translate(10.959602124763279 108.98082386363629) rotate(0 10 10)"><path d="M20 10 C20 10.58, 19.95 11.17, 19.85 11.74 C19.75 12.31, 19.59 12.88, 19.4 13.42 C19.2 13.96, 18.95 14.5, 18.66 15 C18.37 15.5, 18.03 15.98, 17.66 16.43 C17.29 16.87, 16.87 17.29, 16.43 17.66 C15.98 18.03, 15.5 18.37, 15 18.66 C14.5 18.95, 13.96 19.2, 13.42 19.4 C12.88 19.59, 12.31 19.75, 11.74 19.85 C11.17 19.95, 10.58 20, 10 20 C9.42 20, 8.83 19.95, 8.26 19.85 C7.69 19.75, 7.12 19.59, 6.58 19.4 C6.04 19.2, 5.5 18.95, 5 18.66 C4.5 18.37, 4.02 18.03, 3.57 17.66 C3.13 17.29, 2.71 16.87, 2.34 16.43 C1.97 15.98, 1.63 15.5, 1.34 15 C1.05 14.5, 0.8 13.96, 0.6 13.42 C0.41 12.88, 0.25 12.31, 0.15 11.74 C0.05 11.17, 0 10.58, 0 10 C0 9.42, 0.05 8.83, 0.15 8.26 C0.25 7.69, 0.41 7.12, 0.6 6.58 C0.8 6.04, 1.05 5.5, 1.34 5 C1.63 4.5, 1.97 4.02, 2.34 3.57 C2.71 3.13, 3.13 2.71, 3.57 2.34 C4.02 1.97, 4.5 1.63, 5 1.34 C5.5 1.05, 6.04 0.8, 6.58 0.6 C7.12 0.41, 7.69 0.25, 8.26 0.15 C8.83 0.05, 9.42 0, 10 0 C10.58 0, 11.17 0.05, 11.74 0.15 C12.31 0.25, 12.88 0.41, 13.42 0.6 C13.96 0.8, 14.5 1.05, 15 1.34 C15.5 1.63, 15.98 1.97, 16.43 2.34 C16.87 2.71, 17.29 3.13, 17.66 3.57 C18.03 4.02, 18.37 4.5, 18.66 5 C18.95 5.5, 19.2 6.04, 19.4 6.58 C19.59 7.12, 19.75 7.69, 19.85 8.26 C19.95 8.83, 19.97 9.71, 20 10 C20.03 10.29, 20.03 9.71, 20 10" stroke="none" stroke-width="0" fill="#ffc9c9"/><path d="M20 10 C20 10.58, 19.95 11.17, 19.85 11.74 C19.75 12.31, 19.59 12.88, 19.4 13.42 C19.2 13.96, 18.95 14.5, 18.66 15 C18.37 15.5, 18.03 15.98, 17.66 16.43 C17.29 16.87, 16.87 17.29, 16.43 17.66 C15.98 18.03, 15.5 18.37, 15 18.66 C14.5 18.95, 13.96 19.2, 13.42 19.4 C12.88 19.59, 12.31 19.75, 11.74 19.85 C11.17 19.95, 10.58 20, 10 20 C9.42 20, 8.83 19.95, 8.26 19.85 C7.69 19.75, 7.12 19.59, 6.58 19.4 C6.04 19.2, 5.5 18.95, 5 18.66 C4.5 18.37, 4.02 18.03, 3.57 17.66 C3.13 17.29, 2.71 16.87, 2.34 16.43 C1.97 15.98, 1.63 15.5, 1.34 15 C1.05 14.5, 0.8 13.96, 0.6 13.42 C0.41 12.88, 0.25 12.31, 0.15 11.74 C0.05 11.17, 0 10.58, 0 10 C0 9.42, 0.05 8.83, 0.15 8.26 C0.25 7.69, 0.41 7.12, 0.6 6.58 C0.8 6.04, 1.05 5.5, 1.34 5 C1.63 4.5, 1.97 4.02, 2.34 3.57 C2.71 3.13, 3.13 2.71, 3.57 2.34 C4.02 1.97, 4.5 1.63, 5 1.34 C5.5 1.05, 6.04 0.8, 6.58 0.6 C7.12 0.41, 7.69 0.25, 8.26 0.15 C8.83 0.05, 9.42 0, 10 0 C10.58 0, 11.17 0.05, 11.74 0.15 C12.31 0.25, 12.88 0.41, 13.42 0.6 C13.96 0.8, 14.5 1.05, 15 1.34 C15.5 1.63, 15.98 1.97, 16.43 2.34 C16.87 2.71, 17.29 3.13, 17.66 3.57 C18.03 4.02, 18.37 4.5, 18.66 5 C18.95 5.5, 19.2 6.04, 19.4 6.58 C19.59 7.12, 19.75 7.69, 19.85 8.26 C19.95 8.83, 19.97 9.71, 20 10 C20.03 10.29, 20.03 9.71, 20 10" stroke="#1e1e1e" stroke-width="2" fill="none"/></g><g stroke-linecap="round"><g transform="translate(15.959602316360872 118.98082368303409) rotate(0 5 0)"><path d="M0 0 C3.47 0, 6.94 0, 10 0 M0 0 C2.78 0, 5.55 0, 10 0" stroke="#1e1e1e" stroke-width="2" fill="none"/></g></g><mask/><g stroke-linecap="round"><g transform="translate(20.959602316360872 113.98082368303409) rotate(0 0 5)"><path d="M0 0 C0 3.03, 0 6.06, 0 10 M0 0 C0 3.17, 0 6.33, 0 10" stroke="#1e1e1e" stroke-width="2" fill="none"/></g></g><mask/><g stroke-linecap="round" transform="translate(109.93607954545453 107.06676136363632) rotate(0 10 10)"><path d="M20 10 C20 10.58, 19.95 11.17, 19.85 11.74 C19.75 12.31, 19.59 12.88, 19.4 13.42 C19.2 13.96, 18.95 14.5, 18.66 15 C18.37 15.5, 18.03 15.98, 17.66 16.43 C17.29 16.87, 16.87 17.29, 16.43 17.66 C15.98 18.03, 15.5 18.37, 15 18.66 C14.5 18.95, 13.96 19.2, 13.42 19.4 C12.88 19.59, 12.31 19.75, 11.74 19.85 C11.17 19.95, 10.58 20, 10 20 C9.42 20, 8.83 19.95, 8.26 19.85 C7.69 19.75, 7.12 19.59, 6.58 19.4 C6.04 19.2, 5.5 18.95, 5 18.66 C4.5 18.37, 4.02 18.03, 3.57 17.66 C3.13 17.29, 2.71 16.87, 2.34 16.43 C1.97 15.98, 1.63 15.5, 1.34 15 C1.05 14.5, 0.8 13.96, 0.6 13.42 C0.41 12.88, 0.25 12.31, 0.15 11.74 C0.05 11.17, 0 10.58, 0 10 C0 9.42, 0.05 8.83, 0.15 8.26 C0.25 7.69, 0.41 7.12, 0.6 6.58 C0.8 6.04, 1.05 5.5, 1.34 5 C1.63 4.5, 1.97 4.02, 2.34 3.57 C2.71 3.13, 3.13 2.71, 3.57 2.34 C4.02 1.97, 4.5 1.63, 5 1.34 C5.5 1.05, 6.04 0.8, 6.58 0.6 C7.12 0.41, 7.69 0.25, 8.26 0.15 C8.83 0.05, 9.42 0, 10 0 C10.58 0, 11.17 0.05, 11.74 0.15 C12.31 0.25, 12.88 0.41, 13.42 0.6 C13.96 0.8, 14.5 1.05, 15 1.34 C15.5 1.63, 15.98 1.97, 16.43 2.34 C16.87 2.71, 17.29 3.13, 17.66 3.57 C18.03 4.02, 18.37 4.5, 18.66 5 C18.95 5.5, 19.2 6.04, 19.4 6.58 C19.59 7.12, 19.75 7.69, 19.85 8.26 C19.95 8.83, 19.97 9.71, 20 10 C20.03 10.29, 20.03 9.71, 20 10" stroke="none" stroke-width="0" fill="#a5d8ff"/><path d="M20 10 C20 10.58, 19.95 11.17, 19.85 11.74 C19.75 12.31, 19.59 12.88, 19.4 13.42 C19.2 13.96, 18.95 14.5, 18.66 15 C18.37 15.5, 18.03 15.98, 17.66 16.43 C17.29 16.87, 16.87 17.29, 16.43 17.66 C15.98 18.03, 15.5 18.37, 15 18.66 C14.5 18.95, 13.96 19.2, 13.42 19.4 C12.88 19.59, 12.31 19.75, 11.74 19.85 C11.17 19.95, 10.58 20, 10 20 C9.42 20, 8.83 19.95, 8.26 19.85 C7.69 19.75, 7.12 19.59, 6.58 19.4 C6.04 19.2, 5.5 18.95, 5 18.66 C4.5 18.37, 4.02 18.03, 3.57 17.66 C3.13 17.29, 2.71 16.87, 2.34 16.43 C1.97 15.98, 1.63 15.5, 1.34 15 C1.05 14.5, 0.8 13.96, 0.6 13.42 C0.41 12.88, 0.25 12.31, 0.15 11.74 C0.05 11.17, 0 10.58, 0 10 C0 9.42, 0.05 8.83, 0.15 8.26 C0.25 7.69, 0.41 7.12, 0.6 6.58 C0.8 6.04, 1.05 5.5, 1.34 5 C1.63 4.5, 1.97 4.02, 2.34 3.57 C2.71 3.13, 3.13 2.71, 3.57 2.34 C4.02 1.97, 4.5 1.63, 5 1.34 C5.5 1.05, 6.04 0.8, 6.58 0.6 C7.12 0.41, 7.69 0.25, 8.26 0.15 C8.83 0.05, 9.42 0, 10 0 C10.58 0, 11.17 0.05, 11.74 0.15 C12.31 0.25, 12.88 0.41, 13.42 0.6 C13.96 0.8, 14.5 1.05, 15 1.34 C15.5 1.63, 15.98 1.97, 16.43 2.34 C16.87 2.71, 17.29 3.13, 17.66 3.57 C18.03 4.02, 18.37 4.5, 18.66 5 C18.95 5.5, 19.2 6.04, 19.4 6.58 C19.59 7.12, 19.75 7.69, 19.85 8.26 C19.95 8.83, 19.97 9.71, 20 10 C20.03 10.29, 20.03 9.71, 20 10" stroke="#1e1e1e" stroke-width="2" fill="none"/></g><g stroke-linecap="round"><g transform="translate(114.93607969218849 117.06676118303412) rotate(0 5 0)"><path d="M0 0 C2.47 0, 4.93 0, 10 0 M0 0 C2.78 0, 5.55 0, 10 0" stroke="#1e1e1e" stroke-width="2" fill="none"/></g></g><mask/><g stroke-linecap="round" transform="translate(10 10) rotate(0 10 10)"><path d="M20 10 C20 10.58, 19.95 11.17, 19.85 11.74 C19.75 12.31, 19.59 12.88, 19.4 13.42 C19.2 13.96, 18.95 14.5, 18.66 15 C18.37 15.5, 18.03 15.98, 17.66 16.43 C17.29 16.87, 16.87 17.29, 16.43 17.66 C15.98 18.03, 15.5 18.37, 15 18.66 C14.5 18.95, 13.96 19.2, 13.42 19.4 C12.88 19.59, 12.31 19.75, 11.74 19.85 C11.17 19.95, 10.58 20, 10 20 C9.42 20, 8.83 19.95, 8.26 19.85 C7.69 19.75, 7.12 19.59, 6.58 19.4 C6.04 19.2, 5.5 18.95, 5 18.66 C4.5 18.37, 4.02 18.03, 3.57 17.66 C3.13 17.29, 2.71 16.87, 2.34 16.43 C1.97 15.98, 1.63 15.5, 1.34 15 C1.05 14.5, 0.8 13.96, 0.6 13.42 C0.41 12.88, 0.25 12.31, 0.15 11.74 C0.05 11.17, 0 10.58, 0 10 C0 9.42, 0.05 8.83, 0.15 8.26 C0.25 7.69, 0.41 7.12, 0.6 6.58 C0.8 6.04, 1.05 5.5, 1.34 5 C1.63 4.5, 1.97 4.02, 2.34 3.57 C2.71 3.13, 3.13 2.71, 3.57 2.34 C4.02 1.97, 4.5 1.63, 5 1.34 C5.5 1.05, 6.04 0.8, 6.58 0.6 C7.12 0.41, 7.69 0.25, 8.26 0.15 C8.83 0.05, 9.42 0, 10 0 C10.58 0, 11.17 0.05, 11.74 0.15 C12.31 0.25, 12.88 0.41, 13.42 0.6 C13.96 0.8, 14.5 1.05, 15 1.34 C15.5 1.63, 15.98 1.97, 16.43 2.34 C16.87 2.71, 17.29 3.13, 17.66 3.57 C18.03 4.02, 18.37 4.5, 18.66 5 C18.95 5.5, 19.2 6.04, 19.4 6.58 C19.59 7.12, 19.75 7.69, 19.85 8.26 C19.95 8.83, 19.97 9.71, 20 10 C20.03 10.29, 20.03 9.71, 20 10" stroke="none" stroke-width="0" fill="#a5d8ff"/><path d="M20 10 C20 10.58, 19.95 11.17, 19.85 11.74 C19.75 12.31, 19.59 12.88, 19.4 13.42 C19.2 13.96, 18.95 14.5, 18.66 15 C18.37 15.5, 18.03 15.98, 17.66 16.43 C17.29 16.87, 16.87 17.29, 16.43 17.66 C15.98 18.03, 15.5 18.37, 15 18.66 C14.5 18.95, 13.96 19.2, 13.42 19.4 C12.88 19.59, 12.31 19.75, 11.74 19.85 C11.17 19.95, 10.58 20, 10 20 C9.42 20, 8.83 19.95, 8.26 19.85 C7.69 19.75, 7.12 19.59, 6.58 19.4 C6.04 19.2, 5.5 18.95, 5 18.66 C4.5 18.37, 4.02 18.03, 3.57 17.66 C3.13 17.29, 2.71 16.87, 2.34 16.43 C1.97 15.98, 1.63 15.5, 1.34 15 C1.05 14.5, 0.8 13.96, 0.6 13.42 C0.41 12.88, 0.25 12.31, 0.15 11.74 C0.05 11.17, 0 10.58, 0 10 C0 9.42, 0.05 8.83, 0.15 8.26 C0.25 7.69, 0.41 7.12, 0.6 6.58 C0.8 6.04, 1.05 5.5, 1.34 5 C1.63 4.5, 1.97 4.02, 2.34 3.57 C2.71 3.13, 3.13 2.71, 3.57 2.34 C4.02 1.97, 4.5 1.63, 5 1.34 C5.5 1.05, 6.04 0.8, 6.58 0.6 C7.12 0.41, 7.69 0.25, 8.26 0.15 C8.83 0.05, 9.42 0, 10 0 C10.58 0, 11.17 0.05, 11.74 0.15 C12.31 0.25, 12.88 0.41, 13.42 0.6 C13.96 0.8, 14.5 1.05, 15 1.34 C15.5 1.63, 15.98 1.97, 16.43 2.34 C16.87 2.71, 17.29 3.13, 17.66 3.57 C18.03 4.02, 18.37 4.5, 18.66 5 C18.95 5.5, 19.2 6.04, 19.4 6.58 C19.59 7.12, 19.75 7.69, 19.85 8.26 C19.95 8.83, 19.97 9.71, 20 10 C20.03 10.29, 20.03 9.71, 20 10" stroke="#1e1e1e" stroke-width="2" fill="none"/></g><g stroke-linecap="round"><g transform="translate(15.000000146733953 19.9999998193978) rotate(0 5 0)"><path d="M0 0 C2.35 0, 4.71 0, 10 0 M0 0 C3.64 0, 7.28 0, 10 0" stroke="#1e1e1e" stroke-width="2" fill="none"/></g></g><mask/></svg>