<svg version="1.1" xmlns="http://www.w3.org/2000/svg" viewBox="0 0 520.0354484022165 411.58617846640084" width="520.0354484022165" height="411.58617846640084" filter="invert(93%) hue-rotate(180deg)">
  <!-- svg-source:excalidraw -->
  
  <defs>
    <style class="style-fonts">
      @font-face {
        font-family: "Virgil";
        src: url("https://excalidraw.com/Virgil.woff2");
      }
      @font-face {
        font-family: "Cascadia";
        src: url("https://excalidraw.com/Cascadia.woff2");
      }
    </style>
  </defs>
  <rect x="0" y="0" width="520.0354484022165" height="411.58617846640084" fill="transparent"/><g stroke-linecap="round"><g transform="translate(48.103377168488066 401.58617846640084) rotate(0 1.0658141036401503e-14 -178.30081976089318)"><path d="M0 0 C0 -77.44, 0 -154.88, 0 -356.6 M0 0 C0 -114.45, 0 -228.89, 0 -356.6" stroke="#000000" stroke-width="4" fill="none"/></g><g transform="translate(48.103377168488066 401.58617846640084) rotate(0 1.0658141036401503e-14 -178.30081976089318)"><path d="M10.26 -328.41 C8.03 -334.53, 5.8 -340.66, 0 -356.6 M10.26 -328.41 C6.97 -337.46, 3.67 -346.51, 0 -356.6" stroke="#000000" stroke-width="4" fill="none"/></g><g transform="translate(48.103377168488066 401.58617846640084) rotate(0 1.0658141036401503e-14 -178.30081976089318)"><path d="M-10.26 -328.41 C-8.03 -334.53, -5.8 -340.66, 0 -356.6 M-10.26 -328.41 C-6.97 -337.46, -3.67 -346.51, 0 -356.6" stroke="#000000" stroke-width="4" fill="none"/></g></g><mask/><g stroke-linecap="round"><g transform="translate(10 361.6579229650373) rotate(0 245.06735731290127 0)"><path d="M0 0 C122.27 0, 244.54 0, 490.13 0 M0 0 C156.39 0, 312.78 0, 490.13 0" stroke="#000000" stroke-width="4" fill="none"/></g><g transform="translate(10 361.6579229650373) rotate(0 245.06735731290127 0)"><path d="M461.94 10.26 C468.98 7.7, 476.01 5.14, 490.13 0 M461.94 10.26 C470.94 6.99, 479.93 3.71, 490.13 0" stroke="#000000" stroke-width="4" fill="none"/></g><g transform="translate(10 361.6579229650373) rotate(0 245.06735731290127 0)"><path d="M461.94 -10.26 C468.98 -7.7, 476.01 -5.14, 490.13 0 M461.94 -10.26 C470.94 -6.99, 479.93 -3.71, 490.13 0" stroke="#000000" stroke-width="4" fill="none"/></g></g><mask/><g stroke-linecap="round"><g transform="translate(49.62405234902991 356.00551942484833) rotate(0 195.914187910434 -66.42186268234607)"><path d="M0 0 C32.65 -22.14, 130.57 -132.84, 195.88 -132.84 C261.18 -132.84, 359.17 -22.14, 391.83 0" stroke="#000000" stroke-width="1.5" fill="none" stroke-dasharray="8 9"/></g></g><mask/><g stroke-linecap="round"><g transform="translate(45.477801822185796 358.7642803641625) rotate(0 68.91605836201221 -67.07339225612017)"><path d="M0 0 C22.97 -22.36, 114.86 -111.79, 137.83 -134.15 M0 0 C22.97 -22.36, 114.86 -111.79, 137.83 -134.15" stroke="#c92a2a" stroke-width="4" fill="none"/></g><g transform="translate(45.477801822185796 358.7642803641625) rotate(0 68.91605836201221 -67.07339225612017)"><path d="M137.83 -134.15 L132.51 -120.12 L123.67 -129.21 L137.83 -134.15" stroke="none" stroke-width="0" fill="#c92a2a" fill-rule="evenodd"/><path d="M137.83 -134.15 C136.12 -129.62, 134.4 -125.1, 132.51 -120.12 M137.83 -134.15 C136.66 -131.06, 135.49 -127.98, 132.51 -120.12 M132.51 -120.12 C129.97 -122.73, 127.43 -125.34, 123.67 -129.21 M132.51 -120.12 C130.45 -122.24, 128.39 -124.35, 123.67 -129.21 M123.67 -129.21 C126.97 -130.36, 130.27 -131.51, 137.83 -134.15 M123.67 -129.21 C127.73 -130.63, 131.8 -132.04, 137.83 -134.15 M137.83 -134.15 C137.83 -134.15, 137.83 -134.15, 137.83 -134.15 M137.83 -134.15 C137.83 -134.15, 137.83 -134.15, 137.83 -134.15" stroke="#c92a2a" stroke-width="4" fill="none"/></g></g><mask/><g transform="translate(97.8277801100349 213.94812031743885) rotate(0 10.170489765738864 12.572398911826696)" stroke="none"><path fill="#c92a2a" d="M 1.21,-1.04 Q 1.21,-1.04 2.54,-0.14 3.88,0.76 4.77,2.62 5.67,4.48 6.30,6.72 6.92,8.97 7.43,11.36 7.94,13.74 8.61,16.65 9.27,19.55 9.67,20.59 10.06,21.64 9.84,20.39 9.63,19.14 10.83,16.89 12.04,14.64 13.23,11.60 14.43,8.56 16.47,5.60 18.51,2.63 18.63,2.46 18.74,2.28 18.91,2.15 19.08,2.03 19.28,1.96 19.49,1.89 19.70,1.89 19.91,1.89 20.11,1.96 20.31,2.02 20.48,2.15 20.65,2.28 20.77,2.46 20.89,2.63 20.95,2.84 21.00,3.04 20.99,3.25 20.98,3.47 20.90,3.66 20.82,3.86 20.69,4.02 20.55,4.19 20.37,4.30 20.18,4.40 19.98,4.45 19.77,4.50 19.56,4.47 19.35,4.45 19.15,4.36 18.96,4.27 18.81,4.13 18.65,3.98 18.55,3.79 18.45,3.60 18.42,3.40 18.38,3.19 18.42,2.98 18.45,2.77 18.55,2.58 18.65,2.39 18.81,2.24 18.96,2.10 19.15,2.01 19.35,1.92 19.56,1.90 19.77,1.87 19.98,1.92 20.18,1.96 20.37,2.07 20.55,2.18 20.69,2.35 20.82,2.51 20.90,2.71 20.98,2.90 20.99,3.11 21.00,3.33 20.95,3.53 20.89,3.74 20.89,3.74 20.89,3.74 20.04,7.04 19.18,10.34 17.96,13.76 16.74,17.17 15.39,19.65 14.04,22.13 12.47,23.87 10.90,25.61 8.86,25.40 6.81,25.20 5.45,22.99 4.09,20.77 3.43,17.78 2.76,14.79 2.32,12.52 1.89,10.24 1.47,8.35 1.05,6.46 0.59,5.18 0.13,3.90 -0.54,2.47 -1.21,1.04 -1.32,0.88 -1.43,0.72 -1.50,0.54 -1.56,0.36 -1.58,0.17 -1.60,-0.02 -1.58,-0.21 -1.55,-0.40 -1.48,-0.58 -1.41,-0.76 -1.30,-0.92 -1.18,-1.08 -1.04,-1.20 -0.89,-1.33 -0.72,-1.42 -0.54,-1.51 -0.36,-1.55 -0.17,-1.59 0.02,-1.59 0.21,-1.59 0.40,-1.54 0.59,-1.49 0.76,-1.40 0.93,-1.31 1.07,-1.18 1.21,-1.04 1.21,-1.04 L 1.21,-1.04 Z"/></g><g transform="translate(124.782681280909 240.2783884253805) rotate(0 -1.1542729453549319 3.4940161749981655)" stroke="none"><path d="M-3.32 -2.89 C-3.32 -2.89, -3.32 -2.89, -3.32 -2.89 M-3.32 -2.89 C-3.32 -2.89, -3.32 -2.89, -3.32 -2.89 M-4.9 5.02 C-3.38 3.28, -1.87 1.54, 0.35 -1.02 M-4.9 5.02 C-3.65 3.58, -2.39 2.14, 0.35 -1.02 M-3.85 9.91 C-2.34 8.18, -0.84 6.45, 2.06 3.11 M-3.85 9.91 C-1.98 7.77, -0.12 5.62, 2.06 3.11 M1.8 9.51 C2.91 8.23, 4.02 6.95, 5.08 5.74 M1.8 9.51 C2.67 8.51, 3.55 7.5, 5.08 5.74" stroke="#fa5252" stroke-width="0.5" fill="none"/><path fill="#c92a2a" d="M -0.92,1.25 Q -0.92,1.25 -1.64,0.80 -2.37,0.35 -2.88,1.61 -3.40,2.86 -2.98,4.56 -2.57,6.25 -1.31,6.51 -0.05,6.77 0.40,5.68 0.86,4.59 0.42,3.05 -0.02,1.51 -0.18,1.37 -0.34,1.24 -0.45,1.06 -0.56,0.87 -0.61,0.67 -0.66,0.46 -0.63,0.25 -0.61,0.04 -0.52,-0.15 -0.43,-0.34 -0.29,-0.49 -0.14,-0.65 0.03,-0.75 0.22,-0.85 0.43,-0.88 0.64,-0.92 0.85,-0.89 1.06,-0.85 1.25,-0.75 1.44,-0.65 1.58,-0.50 1.73,-0.35 1.82,-0.15 1.91,0.03 1.93,0.24 1.96,0.45 1.91,0.66 1.87,0.87 1.76,1.05 1.65,1.23 1.49,1.37 1.33,1.51 1.13,1.59 0.93,1.67 0.72,1.68 0.51,1.69 0.30,1.63 0.10,1.58 -0.07,1.46 -0.24,1.34 -0.37,1.17 -0.50,1.00 -0.57,0.80 -0.64,0.60 -0.64,0.39 -0.64,0.18 -0.57,-0.02 -0.51,-0.22 -0.38,-0.39 -0.25,-0.56 -0.07,-0.68 0.09,-0.80 0.30,-0.85 0.50,-0.91 0.71,-0.90 0.92,-0.89 1.12,-0.81 1.32,-0.73 1.32,-0.73 1.32,-0.73 2.75,0.90 4.19,2.54 4.94,3.44 5.70,4.34 5.94,5.73 6.18,7.13 5.53,8.39 4.88,9.66 3.82,10.35 2.75,11.04 1.06,11.45 -0.61,11.86 -2.37,11.47 -4.13,11.07 -5.60,9.83 -7.07,8.59 -7.77,6.62 -8.46,4.65 -8.07,2.56 -7.68,0.47 -6.42,-1.08 -5.15,-2.64 -3.43,-3.00 -1.71,-3.36 -0.39,-2.31 0.92,-1.25 1.06,-1.12 1.19,-0.99 1.30,-0.83 1.40,-0.68 1.46,-0.50 1.52,-0.32 1.54,-0.13 1.55,0.04 1.52,0.23 1.50,0.41 1.42,0.59 1.35,0.76 1.24,0.91 1.13,1.06 0.99,1.18 0.84,1.30 0.67,1.39 0.50,1.47 0.32,1.51 0.13,1.55 -0.04,1.54 -0.23,1.54 -0.41,1.49 -0.59,1.43 -0.76,1.34 -0.92,1.25 -0.92,1.25 L -0.92,1.25 Z"/></g><g transform="translate(125.09465467024222 291.0046038418649) rotate(0 8.76660951373961 31.88326575977206)" stroke="none"><path fill="#c92a2a" d="M 0.62,-0.43 Q 0.62,-0.43 1.15,0.26 1.67,0.96 2.06,1.47 2.44,1.98 2.83,2.43 3.21,2.88 3.66,3.45 4.11,4.03 4.61,4.82 5.11,5.61 5.54,6.27 5.97,6.92 6.35,7.63 6.74,8.34 7.12,9.13 7.49,9.91 7.87,10.69 8.24,11.47 8.62,12.45 9.01,13.44 9.35,14.40 9.70,15.35 10.02,16.26 10.34,17.16 10.68,17.87 11.02,18.57 11.32,19.28 11.62,19.99 11.93,20.80 12.24,21.61 12.55,22.49 12.86,23.38 13.15,24.41 13.43,25.44 13.69,26.54 13.96,27.64 14.18,28.61 14.40,29.58 14.63,30.48 14.86,31.38 15.14,32.31 15.41,33.24 15.68,34.19 15.94,35.13 16.17,36.11 16.39,37.08 16.59,38.01 16.79,38.94 16.95,39.80 17.11,40.65 17.25,41.54 17.39,42.43 17.52,43.25 17.65,44.07 17.81,44.79 17.97,45.51 18.05,46.39 18.12,47.26 18.19,47.94 18.25,48.63 18.28,49.30 18.31,49.97 18.33,50.60 18.34,51.23 18.34,51.87 18.35,52.52 18.35,53.22 18.35,53.92 18.35,54.64 18.35,55.35 18.30,55.99 18.24,56.63 18.07,57.56 17.90,58.48 17.77,59.17 17.63,59.85 17.26,61.72 16.89,63.58 16.86,63.68 16.84,63.79 16.78,63.88 16.73,63.97 16.65,64.04 16.57,64.11 16.47,64.15 16.37,64.19 16.26,64.19 16.16,64.20 16.06,64.17 15.95,64.14 15.87,64.08 15.78,64.02 15.71,63.94 15.65,63.85 15.62,63.75 15.58,63.65 15.58,63.54 15.58,63.44 15.62,63.34 15.65,63.24 15.71,63.15 15.78,63.07 15.87,63.01 15.95,62.95 16.06,62.92 16.16,62.89 16.26,62.90 16.37,62.90 16.47,62.94 16.57,62.98 16.65,63.05 16.73,63.12 16.79,63.21 16.84,63.30 16.86,63.41 16.89,63.51 16.87,63.61 16.86,63.72 16.82,63.82 16.77,63.91 16.70,63.99 16.63,64.07 16.53,64.12 16.44,64.17 16.33,64.18 16.23,64.20 16.12,64.18 16.02,64.17 15.93,64.12 15.83,64.07 15.76,63.99 15.69,63.91 15.64,63.82 15.60,63.72 15.59,63.61 15.57,63.51 15.57,63.51 15.57,63.51 15.79,61.52 16.00,59.54 16.14,58.83 16.29,58.13 16.44,57.31 16.60,56.49 16.65,55.92 16.70,55.35 16.70,54.64 16.70,53.93 16.70,53.23 16.69,52.53 16.69,51.89 16.68,51.26 16.67,50.65 16.66,50.04 16.64,49.41 16.61,48.78 16.54,48.09 16.48,47.40 16.42,46.63 16.35,45.87 16.19,45.10 16.02,44.33 15.89,43.51 15.76,42.69 15.62,41.82 15.48,40.96 15.33,40.13 15.17,39.29 14.97,38.37 14.77,37.45 14.56,36.52 14.35,35.58 14.08,34.65 13.82,33.71 13.54,32.76 13.26,31.80 13.02,30.87 12.78,29.95 12.56,28.99 12.34,28.03 12.09,26.95 11.83,25.88 11.56,24.90 11.30,23.93 10.99,23.07 10.69,22.20 10.39,21.42 10.09,20.63 9.81,19.96 9.52,19.28 9.15,18.50 8.78,17.72 8.46,16.81 8.14,15.91 7.80,14.98 7.47,14.04 7.11,13.11 6.75,12.18 6.38,11.41 6.00,10.63 5.64,9.87 5.28,9.12 4.94,8.47 4.59,7.83 4.15,7.16 3.71,6.49 3.26,5.76 2.82,5.04 2.39,4.49 1.96,3.95 1.54,3.46 1.13,2.97 0.73,2.43 0.33,1.90 -0.14,1.17 -0.62,0.43 -0.66,0.35 -0.71,0.27 -0.73,0.18 -0.75,0.09 -0.75,0.00 -0.75,-0.08 -0.73,-0.17 -0.71,-0.26 -0.67,-0.34 -0.63,-0.42 -0.56,-0.49 -0.50,-0.56 -0.43,-0.61 -0.35,-0.67 -0.27,-0.70 -0.18,-0.73 -0.09,-0.75 -0.00,-0.76 0.08,-0.75 0.17,-0.74 0.26,-0.70 0.34,-0.67 0.42,-0.62 0.50,-0.57 0.56,-0.50 0.62,-0.43 0.62,-0.43 L 0.62,-0.43 Z"/></g><g transform="translate(110.80613046289443 325.13482668504423) rotate(0 1.1542872429438091 9.639891944861546)" stroke="none"><path fill="#000000" d="M 0.26,0.76 Q 0.26,0.76 -0.40,1.03 -1.07,1.29 -1.53,1.62 -1.99,1.95 -2.37,2.60 -2.75,3.26 -3.14,4.34 -3.53,5.42 -3.88,6.77 -4.22,8.11 -4.41,9.56 -4.61,11.01 -4.58,12.28 -4.56,13.56 -4.17,14.67 -3.79,15.79 -3.28,16.76 -2.77,17.73 -2.06,18.39 -1.35,19.05 -0.69,19.40 -0.04,19.75 0.89,19.59 1.83,19.44 2.88,18.76 3.94,18.08 4.57,17.38 5.21,16.67 5.59,15.95 5.98,15.22 6.25,14.47 6.51,13.71 6.66,12.89 6.80,12.07 6.90,11.16 7.00,10.25 7.04,8.81 7.08,7.36 6.74,5.91 6.39,4.46 5.71,3.16 5.03,1.85 4.42,1.06 3.81,0.27 3.36,-0.07 2.90,-0.43 1.25,-0.10 -0.39,0.22 -0.45,0.16 -0.50,0.11 -0.55,0.04 -0.59,-0.01 -0.62,-0.09 -0.64,-0.16 -0.65,-0.24 -0.66,-0.32 -0.65,-0.40 -0.63,-0.48 -0.60,-0.55 -0.57,-0.62 -0.53,-0.69 -0.48,-0.75 -0.42,-0.80 -0.36,-0.85 -0.29,-0.89 -0.22,-0.92 -0.14,-0.94 -0.06,-0.96 0.00,-0.95 0.08,-0.95 0.16,-0.93 0.24,-0.91 0.31,-0.87 0.37,-0.83 0.50,-0.47 0.62,-0.11 0.57,-0.01 0.52,0.07 0.44,0.15 0.37,0.22 0.27,0.27 0.18,0.32 0.07,0.33 -0.02,0.34 -0.13,0.32 -0.23,0.30 -0.32,0.25 -0.42,0.20 -0.49,0.12 -0.56,0.04 -0.60,-0.05 -0.64,-0.15 -0.65,-0.25 -0.66,-0.36 -0.63,-0.46 -0.60,-0.57 -0.54,-0.66 -0.49,-0.74 -0.40,-0.81 -0.32,-0.88 -0.22,-0.91 -0.12,-0.95 -0.01,-0.95 0.08,-0.95 0.18,-0.92 0.29,-0.89 0.37,-0.83 0.46,-0.76 0.52,-0.68 0.58,-0.59 0.61,-0.49 0.64,-0.39 0.64,-0.28 0.63,-0.17 0.60,-0.07 0.56,0.01 0.49,0.10 0.42,0.18 0.33,0.24 0.24,0.29 0.14,0.32 0.04,0.34 -0.06,0.33 -0.16,0.32 -0.26,0.28 -0.36,0.24 -0.44,0.17 -0.52,0.10 -0.57,0.00 -0.62,-0.08 -0.64,-0.19 -0.66,-0.29 -0.52,-0.03 -0.39,0.22 -0.45,0.16 -0.50,0.11 -0.55,0.04 -0.59,-0.01 -0.62,-0.09 -0.64,-0.16 -0.65,-0.24 -0.66,-0.32 -0.65,-0.40 -0.63,-0.48 -0.60,-0.55 -0.58,-0.62 -0.53,-0.69 -0.48,-0.75 -0.42,-0.80 -0.36,-0.85 -0.29,-0.89 -0.22,-0.92 -0.14,-0.94 -0.06,-0.96 0.00,-0.95 0.08,-0.95 0.16,-0.93 0.24,-0.91 0.31,-0.87 0.37,-0.83 2.08,-1.55 3.78,-2.26 4.65,-1.66 5.51,-1.05 6.24,-0.09 6.97,0.86 7.74,2.41 8.51,3.97 8.88,5.69 9.25,7.41 9.20,8.95 9.15,10.49 9.04,11.47 8.93,12.45 8.74,13.45 8.55,14.45 8.21,15.36 7.86,16.28 7.32,17.20 6.78,18.13 5.91,19.02 5.04,19.91 3.56,20.72 2.09,21.52 0.62,21.57 -0.85,21.61 -1.81,21.07 -2.78,20.54 -3.68,19.62 -4.58,18.70 -5.16,17.56 -5.75,16.42 -6.17,15.02 -6.59,13.61 -6.60,12.17 -6.61,10.73 -6.38,9.16 -6.15,7.60 -5.75,6.16 -5.36,4.72 -4.84,3.46 -4.33,2.21 -3.68,1.32 -3.03,0.44 -2.34,0.04 -1.65,-0.36 -0.95,-0.56 -0.26,-0.76 -0.16,-0.78 -0.07,-0.80 0.02,-0.80 0.12,-0.79 0.21,-0.77 0.31,-0.74 0.39,-0.69 0.48,-0.64 0.55,-0.58 0.62,-0.51 0.67,-0.43 0.72,-0.35 0.75,-0.25 0.79,-0.16 0.79,-0.07 0.80,0.02 0.79,0.12 0.77,0.21 0.74,0.30 0.70,0.39 0.64,0.47 0.58,0.55 0.51,0.61 0.43,0.68 0.34,0.72 0.26,0.76 0.26,0.76 L 0.26,0.76 Z"/></g><g transform="translate(108.92291385489474 333.3708249438715) rotate(0 5.178858346052692 1.7157964509768817)" stroke="none"><path fill="#c92a2a" d="M 0.68,-0.39 Q 0.68,-0.39 1.08,0.25 1.49,0.90 2.26,1.34 3.02,1.78 3.71,1.99 4.40,2.20 5.44,2.18 6.49,2.15 8.14,1.47 9.79,0.79 9.89,0.73 9.98,0.68 10.08,0.66 10.19,0.65 10.29,0.66 10.40,0.68 10.49,0.72 10.59,0.77 10.66,0.85 10.74,0.92 10.78,1.02 10.83,1.12 10.84,1.22 10.85,1.33 10.83,1.43 10.81,1.53 10.76,1.63 10.71,1.72 10.63,1.79 10.55,1.86 10.45,1.90 10.35,1.94 10.24,1.95 10.14,1.96 10.04,1.93 9.93,1.90 9.84,1.84 9.76,1.79 9.69,1.70 9.62,1.62 9.59,1.52 9.55,1.42 9.55,1.31 9.55,1.21 9.58,1.10 9.61,1.00 9.68,0.92 9.74,0.83 9.83,0.77 9.91,0.71 10.02,0.68 10.12,0.65 10.22,0.65 10.33,0.66 10.43,0.70 10.53,0.73 10.61,0.80 10.69,0.87 10.75,0.96 10.80,1.05 10.83,1.15 10.85,1.26 10.84,1.36 10.83,1.47 10.79,1.56 10.75,1.66 10.68,1.74 10.60,1.82 10.60,1.82 10.60,1.82 8.55,2.88 6.49,3.94 5.18,3.91 3.87,3.88 2.98,3.56 2.09,3.25 1.08,2.53 0.08,1.82 -0.30,1.10 -0.68,0.39 -0.72,0.30 -0.75,0.22 -0.77,0.12 -0.78,0.03 -0.78,-0.06 -0.77,-0.15 -0.74,-0.24 -0.71,-0.33 -0.66,-0.41 -0.61,-0.49 -0.54,-0.56 -0.47,-0.63 -0.39,-0.67 -0.31,-0.72 -0.21,-0.75 -0.12,-0.77 -0.03,-0.78 0.06,-0.78 0.15,-0.76 0.24,-0.74 0.33,-0.70 0.42,-0.66 0.49,-0.60 0.56,-0.54 0.62,-0.47 0.68,-0.39 0.68,-0.39 L 0.68,-0.39 Z"/></g><g transform="translate(63.982879497107035 10) rotate(0 6.239307839462356 22.687656421953392)" stroke="none"><path fill="#000000" d="M 0.78,0.20 Q 0.78,0.20 0.64,1.62 0.50,3.04 0.44,4.87 0.39,6.70 0.63,8.81 0.86,10.93 1.53,13.07 2.20,15.22 3.20,16.88 4.20,18.54 4.90,19.40 5.60,20.25 7.13,19.35 8.67,18.44 9.58,16.28 10.49,14.12 10.52,12.13 10.56,10.15 10.41,9.05 10.27,7.94 10.16,7.71 10.04,7.47 10.04,7.28 10.04,7.08 10.09,6.89 10.14,6.70 10.23,6.53 10.32,6.36 10.45,6.22 10.58,6.07 10.74,5.96 10.90,5.85 11.08,5.78 11.27,5.71 11.46,5.69 11.65,5.67 11.85,5.69 12.04,5.72 12.22,5.79 12.40,5.86 12.56,5.97 12.72,6.08 12.85,6.23 12.98,6.37 13.07,6.55 13.16,6.72 13.20,6.91 13.25,7.10 13.26,8.05 13.27,9.01 13.68,12.01 14.08,15.01 14.42,19.73 14.75,24.45 14.34,29.48 13.93,34.52 11.91,38.21 9.89,41.90 6.43,41.14 2.96,40.39 2.92,40.46 2.88,40.52 2.82,40.57 2.76,40.63 2.69,40.66 2.62,40.70 2.54,40.72 2.46,40.74 2.38,40.74 2.30,40.74 2.23,40.72 2.15,40.70 2.08,40.66 2.01,40.63 1.95,40.57 1.89,40.52 1.85,40.46 1.80,40.39 1.77,40.32 1.75,40.24 1.74,40.17 1.73,40.09 1.74,40.01 1.75,39.93 1.77,39.86 1.80,39.78 1.79,40.06 1.78,40.34 1.75,40.23 1.73,40.13 1.74,40.02 1.75,39.92 1.79,39.82 1.84,39.72 1.91,39.65 1.98,39.57 2.07,39.52 2.17,39.47 2.27,39.45 2.38,39.43 2.48,39.45 2.59,39.46 2.68,39.51 2.78,39.56 2.85,39.64 2.92,39.71 2.97,39.81 3.01,39.90 3.03,40.01 3.04,40.12 3.02,40.22 3.00,40.32 2.94,40.41 2.89,40.51 2.81,40.58 2.73,40.65 2.63,40.69 2.53,40.73 2.42,40.73 2.32,40.74 2.22,40.71 2.11,40.68 2.02,40.63 1.94,40.57 1.87,40.48 1.81,40.40 1.77,40.30 1.74,40.20 1.74,40.09 1.73,39.99 1.77,39.89 1.80,39.78 1.86,39.70 1.93,39.61 2.01,39.55 2.10,39.49 2.20,39.46 2.31,39.43 2.41,39.44 2.52,39.44 2.62,39.48 2.72,39.52 2.80,39.59 2.88,39.66 2.92,40.02 2.96,40.39 2.92,40.46 2.88,40.52 2.82,40.57 2.76,40.63 2.69,40.66 2.62,40.70 2.54,40.72 2.46,40.74 2.38,40.74 2.30,40.74 2.23,40.72 2.15,40.70 2.08,40.66 2.01,40.63 1.95,40.57 1.89,40.52 1.85,40.46 1.80,40.39 1.77,40.32 1.75,40.24 1.74,40.17 1.73,40.09 1.74,40.01 1.75,39.93 1.77,39.86 1.80,39.78 4.76,39.61 7.73,39.44 9.04,36.77 10.35,34.09 10.82,29.38 11.29,24.66 11.03,20.04 10.77,15.43 10.39,12.22 10.02,9.01 10.03,8.24 10.04,7.47 10.04,7.28 10.04,7.08 10.09,6.89 10.14,6.70 10.23,6.53 10.32,6.36 10.45,6.22 10.58,6.07 10.74,5.96 10.90,5.85 11.08,5.78 11.27,5.71 11.46,5.69 11.65,5.67 11.85,5.69 12.04,5.72 12.22,5.79 12.40,5.86 12.56,5.97 12.72,6.08 12.85,6.23 12.98,6.37 13.07,6.55 13.16,6.72 13.20,6.91 13.25,7.10 13.35,7.31 13.44,7.52 13.59,8.92 13.73,10.31 13.53,12.85 13.32,15.40 11.82,18.17 10.32,20.94 7.93,21.91 5.54,22.89 3.55,21.52 1.55,20.15 0.42,18.12 -0.70,16.09 -1.38,13.64 -2.05,11.20 -2.21,8.84 -2.37,6.49 -2.13,4.46 -1.89,2.43 -1.34,1.11 -0.78,-0.20 -0.75,-0.29 -0.71,-0.38 -0.66,-0.46 -0.60,-0.54 -0.53,-0.60 -0.45,-0.67 -0.37,-0.71 -0.28,-0.76 -0.18,-0.78 -0.09,-0.80 0.00,-0.80 0.10,-0.80 0.19,-0.78 0.29,-0.75 0.38,-0.71 0.46,-0.66 0.53,-0.60 0.61,-0.53 0.66,-0.45 0.72,-0.37 0.75,-0.28 0.79,-0.18 0.80,-0.09 0.81,0.00 0.80,0.10 0.78,0.20 0.78,0.20 L 0.78,0.20 Z"/></g><g transform="translate(490.37214160220515 296.0913192335361) rotate(0 8.659407937754338 11.948848903142306)" stroke="none"><path fill="#000000" d="M 0.77,-0.43 Q 0.77,-0.43 2.03,1.25 3.30,2.94 4.52,4.92 5.74,6.90 7.13,9.14 8.52,11.37 9.98,13.65 11.43,15.94 12.64,17.75 13.84,19.57 15.53,21.25 17.22,22.93 17.30,22.99 17.38,23.06 17.44,23.15 17.50,23.24 17.52,23.35 17.54,23.45 17.53,23.55 17.52,23.66 17.48,23.76 17.44,23.85 17.36,23.93 17.29,24.01 17.20,24.06 17.11,24.11 17.00,24.13 16.90,24.15 16.79,24.13 16.69,24.12 16.59,24.07 16.50,24.02 16.42,23.94 16.35,23.87 16.30,23.77 16.26,23.67 16.25,23.57 16.23,23.46 16.25,23.36 16.28,23.26 16.33,23.16 16.38,23.07 16.46,23.00 16.54,22.93 16.64,22.89 16.74,22.85 16.85,22.85 16.95,22.84 17.06,22.87 17.16,22.89 17.25,22.95 17.33,23.01 17.40,23.09 17.47,23.18 17.50,23.28 17.54,23.38 17.54,23.48 17.54,23.59 17.50,23.69 17.47,23.79 17.41,23.88 17.35,23.96 17.26,24.02 17.17,24.08 17.07,24.11 16.97,24.14 16.86,24.14 16.75,24.13 16.66,24.10 16.56,24.06 16.56,24.06 16.56,24.06 14.26,22.53 11.95,21.01 10.46,19.27 8.97,17.54 7.45,15.26 5.93,12.98 4.53,10.72 3.12,8.45 1.95,6.40 0.78,4.35 0.00,2.39 -0.77,0.43 -0.81,0.33 -0.85,0.23 -0.87,0.12 -0.88,0.02 -0.87,-0.08 -0.86,-0.18 -0.83,-0.28 -0.79,-0.39 -0.73,-0.48 -0.67,-0.56 -0.60,-0.64 -0.52,-0.71 -0.42,-0.76 -0.33,-0.81 -0.23,-0.84 -0.13,-0.87 -0.02,-0.87 0.08,-0.88 0.18,-0.85 0.29,-0.83 0.38,-0.78 0.48,-0.74 0.56,-0.67 0.64,-0.60 0.71,-0.51 0.77,-0.43 0.77,-0.43 L 0.77,-0.43 Z"/></g><g transform="translate(510.0354484022165 302.29262319536383) rotate(0 -9.226572054136625 6.617249730631414)" stroke="none"><path fill="#000000" d="M -0.69,0.30 Q -0.69,0.30 -0.38,0.30 -0.08,0.30 -0.59,0.61 -1.10,0.92 -2.02,1.89 -2.94,2.87 -4.79,4.59 -6.65,6.31 -8.74,8.16 -10.84,10.02 -12.63,11.49 -14.42,12.95 -15.92,14.02 -17.42,15.09 -17.50,15.16 -17.59,15.22 -17.69,15.25 -17.79,15.28 -17.90,15.28 -18.01,15.27 -18.11,15.24 -18.20,15.20 -18.29,15.13 -18.37,15.07 -18.43,14.98 -18.48,14.89 -18.51,14.79 -18.54,14.68 -18.53,14.58 -18.52,14.47 -18.48,14.37 -18.43,14.28 -18.36,14.20 -18.29,14.12 -18.20,14.07 -18.11,14.01 -18.00,13.99 -17.90,13.97 -17.79,13.99 -17.69,14.00 -17.59,14.05 -17.50,14.10 -17.42,14.17 -17.35,14.25 -17.30,14.34 -17.25,14.44 -17.24,14.54 -17.22,14.65 -17.24,14.75 -17.26,14.86 -17.32,14.95 -17.37,15.04 -17.45,15.11 -17.53,15.18 -17.63,15.23 -17.72,15.27 -17.83,15.28 -17.94,15.28 -18.04,15.26 -18.14,15.23 -18.23,15.18 -18.32,15.12 -18.39,15.04 -18.45,14.95 -18.49,14.85 -18.53,14.75 -18.53,14.65 -18.53,14.54 -18.50,14.44 -18.47,14.34 -18.41,14.25 -18.34,14.16 -18.34,14.16 -18.34,14.16 -17.27,12.67 -16.20,11.17 -14.66,9.32 -13.13,7.46 -11.07,5.60 -9.02,3.74 -7.16,2.03 -5.30,0.32 -3.82,-0.93 -2.34,-2.19 -1.60,-2.33 -0.87,-2.47 -0.09,-1.39 0.69,-0.30 0.71,-0.21 0.74,-0.12 0.74,-0.03 0.75,0.05 0.73,0.14 0.71,0.23 0.68,0.31 0.64,0.39 0.58,0.46 0.52,0.53 0.45,0.59 0.38,0.64 0.30,0.68 0.21,0.72 0.12,0.73 0.03,0.75 -0.05,0.74 -0.14,0.74 -0.22,0.71 -0.31,0.68 -0.39,0.63 -0.47,0.59 -0.53,0.52 -0.59,0.46 -0.64,0.38 -0.69,0.30 -0.69,0.30 L -0.69,0.30 Z"/></g></svg>