<svg version="1.1" xmlns="http://www.w3.org/2000/svg" viewBox="0 0 467.4623682778388 452.82979492876945" width="467.4623682778388" height="452.82979492876945" filter="invert(93%) hue-rotate(180deg)">
  <!-- svg-source:excalidraw -->
  
  <defs>
    <style class="style-fonts">
      @font-face {
        font-family: "Virgil";
        src: url("https://excalidraw.com/Virgil.woff2");
      }
      @font-face {
        font-family: "Cascadia";
        src: url("https://excalidraw.com/Cascadia.woff2");
      }
    </style>
  </defs>
  <rect x="0" y="0" width="467.4623682778388" height="452.82979492876945" fill="transparent"/><g stroke-linecap="round"><g transform="translate(12.056843435937367 418.467576379264) rotate(0 0 -191.42565770343074)"><path d="M0 0 C0 -105.57, 0 -211.14, 0 -382.85 M0 0 C0 -103.1, 0 -206.21, 0 -382.85" stroke="#000000" stroke-width="4" fill="none"/></g><g transform="translate(12.056843435937367 418.467576379264) rotate(0 0 -191.42565770343074)"><path d="M10.26 -354.66 C7.43 -362.43, 4.6 -370.21, 0 -382.85 M10.26 -354.66 C7.5 -362.25, 4.73 -369.84, 0 -382.85" stroke="#000000" stroke-width="4" fill="none"/></g><g transform="translate(12.056843435937367 418.467576379264) rotate(0 0 -191.42565770343074)"><path d="M-10.26 -354.66 C-7.43 -362.43, -4.6 -370.21, 0 -382.85 M-10.26 -354.66 C-7.5 -362.25, -4.73 -369.84, 0 -382.85" stroke="#000000" stroke-width="4" fill="none"/></g></g><mask/><g stroke-linecap="round"><g transform="translate(12.265281646014898 416.52630708274995) rotate(0 201.54889804450167 0)"><path d="M0 0 C105.13 0, 210.26 0, 403.1 0 M0 0 C151.43 0, 302.87 0, 403.1 0" stroke="#000000" stroke-width="4" fill="none"/></g><g transform="translate(12.265281646014898 416.52630708274995) rotate(0 201.54889804450167 0)"><path d="M374.91 10.26 C382.26 7.58, 389.61 4.91, 403.1 0 M374.91 10.26 C385.5 6.41, 396.09 2.55, 403.1 0" stroke="#000000" stroke-width="4" fill="none"/></g><g transform="translate(12.265281646014898 416.52630708274995) rotate(0 201.54889804450167 0)"><path d="M374.91 -10.26 C382.26 -7.58, 389.61 -4.91, 403.1 0 M374.91 -10.26 C385.5 -6.41, 396.09 -2.55, 403.1 0" stroke="#000000" stroke-width="4" fill="none"/></g></g><mask/><g stroke-linecap="round"><g transform="translate(10 413.1881870875346) rotate(0 71.53468648927645 -65.80998608893111)"><path d="M0 0 C49.08 -45.15, 98.17 -90.31, 143.07 -131.62 M0 0 C33.14 -30.49, 66.28 -60.97, 143.07 -131.62" stroke="#c92a2a" stroke-width="4" fill="none"/></g><g transform="translate(10 413.1881870875346) rotate(0 71.53468648927645 -65.80998608893111)"><path d="M152.57 -131.62 C152.57 -131.07, 152.52 -130.51, 152.43 -129.97 C152.33 -129.43, 152.18 -128.89, 152 -128.37 C151.81 -127.85, 151.57 -127.35, 151.3 -126.87 C151.02 -126.39, 150.7 -125.93, 150.35 -125.51 C149.99 -125.09, 149.6 -124.7, 149.18 -124.34 C148.75 -123.99, 148.3 -123.67, 147.82 -123.39 C147.34 -123.12, 146.84 -122.88, 146.32 -122.69 C145.8 -122.5, 145.26 -122.36, 144.72 -122.26 C144.18 -122.17, 143.62 -122.12, 143.07 -122.12 C142.52 -122.12, 141.96 -122.17, 141.42 -122.26 C140.88 -122.36, 140.34 -122.5, 139.82 -122.69 C139.3 -122.88, 138.8 -123.12, 138.32 -123.39 C137.84 -123.67, 137.38 -123.99, 136.96 -124.34 C136.54 -124.7, 136.15 -125.09, 135.79 -125.51 C135.44 -125.93, 135.12 -126.39, 134.84 -126.87 C134.57 -127.35, 134.33 -127.85, 134.14 -128.37 C133.95 -128.89, 133.81 -129.43, 133.71 -129.97 C133.62 -130.51, 133.57 -131.07, 133.57 -131.62 C133.57 -132.17, 133.62 -132.73, 133.71 -133.27 C133.81 -133.81, 133.95 -134.35, 134.14 -134.87 C134.33 -135.39, 134.57 -135.89, 134.84 -136.37 C135.12 -136.85, 135.44 -137.31, 135.79 -137.73 C136.15 -138.15, 136.54 -138.54, 136.96 -138.9 C137.38 -139.25, 137.84 -139.57, 138.32 -139.85 C138.8 -140.12, 139.3 -140.36, 139.82 -140.55 C140.34 -140.74, 140.88 -140.88, 141.42 -140.98 C141.96 -141.07, 142.52 -141.12, 143.07 -141.12 C143.62 -141.12, 144.18 -141.07, 144.72 -140.98 C145.26 -140.88, 145.8 -140.74, 146.32 -140.55 C146.84 -140.36, 147.34 -140.12, 147.82 -139.85 C148.3 -139.57, 148.75 -139.25, 149.18 -138.9 C149.6 -138.54, 149.99 -138.15, 150.35 -137.73 C150.7 -137.31, 151.02 -136.85, 151.3 -136.37 C151.57 -135.89, 151.81 -135.39, 152 -134.87 C152.18 -134.35, 152.33 -133.81, 152.43 -133.27 C152.52 -132.73, 152.55 -131.89, 152.57 -131.62 C152.59 -131.35, 152.59 -131.89, 152.57 -131.62" stroke="none" stroke-width="0" fill="#c92a2a"/></g></g><mask/><g stroke-linecap="round"><g transform="translate(168.33065069739033 409.9008954051131) rotate(0 -20.747068774313362 -43.21911216618085)"><path d="M0 0 C-0.77 -6.97, 2.27 -27.42, -4.65 -41.82 C-11.56 -56.23, -35.35 -79, -41.49 -86.44 M0 0 C-0.77 -6.97, 2.27 -27.42, -4.65 -41.82 C-11.56 -56.23, -35.35 -79, -41.49 -86.44" stroke="#c92a2a" stroke-width="0.5" fill="none"/></g><g transform="translate(168.33065069739033 409.9008954051131) rotate(0 -20.747068774313362 -43.21911216618085)"><path d="M-41.49 -86.44 L-27.63 -80.71 L-36.97 -72.14 L-41.49 -86.44" stroke="none" stroke-width="0" fill="#c92a2a" fill-rule="evenodd"/><path d="M-41.49 -86.44 C-36.44 -84.35, -31.39 -82.27, -27.63 -80.71 M-41.49 -86.44 C-36.24 -84.27, -30.98 -82.1, -27.63 -80.71 M-27.63 -80.71 C-30.25 -78.31, -32.86 -75.91, -36.97 -72.14 M-27.63 -80.71 C-30.68 -77.91, -33.73 -75.11, -36.97 -72.14 M-36.97 -72.14 C-38.68 -77.54, -40.39 -82.95, -41.49 -86.44 M-36.97 -72.14 C-38.52 -77.03, -40.07 -81.93, -41.49 -86.44 M-41.49 -86.44 C-41.49 -86.44, -41.49 -86.44, -41.49 -86.44 M-41.49 -86.44 C-41.49 -86.44, -41.49 -86.44, -41.49 -86.44" stroke="#c92a2a" stroke-width="0.5" fill="none"/></g></g><mask/><g transform="translate(119.86547856792075 357.5201945859578) rotate(0 1.4605722217707466 17.991350777938095)" stroke="none"><path fill="#c92a2a" d="M 0.41,0.62 Q 0.41,0.62 -0.60,1.48 -1.63,2.35 -2.39,3.00 -3.14,3.66 -3.75,4.38 -4.36,5.09 -4.93,5.97 -5.50,6.86 -6.01,7.88 -6.51,8.91 -6.86,10.10 -7.21,11.30 -7.42,12.66 -7.64,14.02 -7.72,15.44 -7.81,16.87 -7.65,18.31 -7.49,19.74 -6.79,21.74 -6.09,23.73 -5.41,25.11 -4.72,26.49 -3.94,27.65 -3.16,28.82 -2.27,29.83 -1.37,30.85 0.17,31.85 1.71,32.85 3.25,33.29 4.79,33.73 5.88,33.82 6.97,33.90 7.54,33.76 8.10,33.61 8.50,32.98 8.89,32.34 9.17,31.72 9.45,31.10 9.68,29.87 9.91,28.64 10.06,27.66 10.21,26.68 10.31,25.66 10.41,24.65 10.45,23.57 10.49,22.50 10.55,21.46 10.61,20.42 10.63,19.53 10.65,18.63 10.66,17.82 10.67,17.00 10.64,16.21 10.60,15.42 10.50,14.58 10.39,13.73 10.22,12.76 10.04,11.79 9.82,10.91 9.61,10.04 9.28,9.45 8.95,8.86 8.49,8.34 8.02,7.82 7.33,7.09 6.64,6.36 5.89,5.73 5.15,5.11 4.43,4.53 3.70,3.95 3.12,3.60 2.54,3.25 1.63,2.89 0.71,2.52 0.08,1.93 -0.54,1.34 -0.61,1.30 -0.68,1.27 -0.74,1.21 -0.80,1.16 -0.85,1.10 -0.89,1.03 -0.92,0.96 -0.95,0.88 -0.96,0.80 -0.97,0.73 -0.96,0.65 -0.95,0.57 -0.92,0.49 -0.89,0.42 -0.85,0.36 -0.81,0.29 -0.75,0.24 -0.69,0.18 -0.62,0.15 -0.55,0.11 -0.47,0.09 -0.39,0.07 -0.31,0.07 -0.24,0.07 -0.16,0.09 -0.08,0.11 -0.44,0.19 -0.80,0.28 -0.72,0.22 -0.63,0.15 -0.53,0.11 -0.43,0.08 -0.33,0.07 -0.22,0.07 -0.12,0.10 -0.02,0.14 0.06,0.20 0.14,0.26 0.21,0.35 0.27,0.43 0.30,0.53 0.33,0.64 0.33,0.74 0.32,0.85 0.29,0.95 0.25,1.05 0.18,1.13 0.12,1.21 0.03,1.27 -0.05,1.33 -0.16,1.35 -0.26,1.38 -0.37,1.37 -0.47,1.36 -0.57,1.32 -0.67,1.27 -0.75,1.20 -0.82,1.13 -0.88,1.04 -0.93,0.95 -0.95,0.84 -0.97,0.74 -0.95,0.63 -0.94,0.53 -0.89,0.43 -0.84,0.34 -0.77,0.26 -0.69,0.19 -0.60,0.14 -0.50,0.09 -0.40,0.08 -0.29,0.07 -0.19,0.09 -0.08,0.11 0.00,0.16 0.09,0.21 0.16,0.29 0.23,0.37 0.28,0.47 0.32,0.57 0.32,0.67 0.33,0.78 0.31,0.88 0.28,0.98 -0.12,1.16 -0.54,1.34 -0.61,1.30 -0.68,1.27 -0.74,1.21 -0.80,1.16 -0.85,1.10 -0.89,1.03 -0.92,0.96 -0.95,0.88 -0.96,0.80 -0.97,0.73 -0.96,0.65 -0.95,0.57 -0.92,0.49 -0.89,0.42 -0.85,0.36 -0.81,0.29 -0.75,0.24 -0.69,0.18 -0.62,0.15 -0.55,0.11 -0.47,0.09 -0.39,0.07 -0.31,0.07 -0.24,0.07 -0.16,0.09 -0.08,0.11 0.85,-0.14 1.78,-0.39 2.32,-0.19 2.85,0.00 3.51,0.30 4.18,0.60 4.91,1.06 5.65,1.52 6.41,2.14 7.17,2.75 8.02,3.50 8.88,4.24 9.63,5.03 10.37,5.82 11.03,6.63 11.69,7.45 12.13,8.37 12.57,9.29 12.81,10.27 13.05,11.25 13.24,12.31 13.42,13.37 13.54,14.33 13.65,15.30 13.69,16.17 13.72,17.04 13.71,17.88 13.70,18.71 13.67,19.65 13.65,20.59 13.59,21.60 13.53,22.62 13.48,23.78 13.44,24.95 13.32,26.05 13.21,27.15 13.05,28.19 12.89,29.24 12.56,30.79 12.22,32.33 11.90,33.04 11.58,33.75 11.01,34.66 10.43,35.58 9.61,36.07 8.78,36.56 7.75,36.74 6.72,36.92 5.31,36.77 3.90,36.62 1.98,35.98 0.07,35.34 -1.75,34.07 -3.57,32.79 -4.59,31.60 -5.61,30.41 -6.45,29.07 -7.30,27.73 -8.03,26.17 -8.75,24.62 -9.47,22.31 -10.19,20.01 -10.32,18.35 -10.46,16.69 -10.33,15.13 -10.20,13.58 -9.92,12.05 -9.63,10.53 -9.16,9.16 -8.70,7.79 -8.09,6.65 -7.48,5.51 -6.77,4.53 -6.07,3.55 -5.30,2.75 -4.53,1.95 -3.66,1.29 -2.79,0.62 -1.60,0.00 -0.41,-0.62 -0.33,-0.66 -0.25,-0.70 -0.16,-0.72 -0.08,-0.74 0.00,-0.74 0.09,-0.74 0.18,-0.71 0.27,-0.69 0.35,-0.65 0.43,-0.61 0.49,-0.55 0.56,-0.48 0.61,-0.41 0.66,-0.33 0.69,-0.25 0.72,-0.17 0.73,-0.08 0.74,0.00 0.73,0.09 0.72,0.18 0.69,0.27 0.65,0.35 0.60,0.42 0.55,0.50 0.48,0.56 0.41,0.62 0.41,0.62 L 0.41,0.62 Z"/></g><g transform="translate(114.08948804912458 368.0096370199197) rotate(0 8.730390637664613 2.456356066327686)" stroke="none"><path fill="#c92a2a" d="M 0.65,-0.37 Q 0.65,-0.37 1.23,0.44 1.80,1.26 2.41,1.64 3.03,2.01 3.89,2.34 4.75,2.66 5.65,2.96 6.55,3.26 7.37,3.41 8.19,3.55 9.02,3.61 9.86,3.67 10.68,3.65 11.50,3.64 14.07,3.11 16.63,2.57 16.74,2.55 16.84,2.52 16.94,2.52 17.05,2.53 17.15,2.57 17.25,2.61 17.33,2.68 17.41,2.74 17.46,2.83 17.52,2.93 17.54,3.03 17.57,3.13 17.55,3.24 17.54,3.34 17.50,3.44 17.45,3.54 17.38,3.61 17.31,3.69 17.21,3.74 17.12,3.79 17.02,3.81 16.91,3.83 16.81,3.81 16.70,3.79 16.61,3.74 16.51,3.69 16.44,3.62 16.37,3.54 16.32,3.44 16.28,3.35 16.27,3.24 16.25,3.14 16.28,3.03 16.30,2.93 16.35,2.84 16.41,2.75 16.49,2.68 16.57,2.61 16.67,2.57 16.77,2.53 16.87,2.52 16.98,2.52 17.08,2.55 17.18,2.57 17.27,2.63 17.36,2.69 17.43,2.78 17.49,2.86 17.52,2.96 17.56,3.06 17.56,3.17 17.56,3.28 17.52,3.38 17.49,3.48 17.43,3.56 17.36,3.65 17.27,3.71 17.19,3.77 17.19,3.77 17.19,3.77 14.36,4.85 11.52,5.93 10.60,5.93 9.67,5.93 8.71,5.83 7.76,5.74 6.80,5.54 5.83,5.33 4.88,4.98 3.93,4.64 2.85,4.15 1.78,3.67 0.98,2.96 0.18,2.24 -0.23,1.31 -0.65,0.37 -0.69,0.28 -0.72,0.20 -0.74,0.11 -0.75,0.02 -0.74,-0.06 -0.74,-0.15 -0.71,-0.24 -0.68,-0.33 -0.63,-0.40 -0.58,-0.48 -0.51,-0.54 -0.44,-0.60 -0.37,-0.65 -0.29,-0.69 -0.20,-0.72 -0.11,-0.74 -0.02,-0.75 0.06,-0.75 0.15,-0.73 0.24,-0.71 0.32,-0.67 0.41,-0.63 0.48,-0.57 0.55,-0.51 0.60,-0.44 0.65,-0.37 0.65,-0.37 L 0.65,-0.37 Z"/></g><g transform="translate(78.63680832691321 279.71253301317495) rotate(0 8.00010452677924 9.659556640384068)" stroke="none"><path fill="#c92a2a" d="M 0.73,0 Q 0.73,0 0.80,1.12 0.88,2.25 0.91,3.47 0.93,4.69 0.96,6.13 0.98,7.57 0.99,9.11 1.00,10.66 0.97,12.23 0.93,13.80 0.88,15.06 0.82,16.32 0.79,17.14 0.75,17.97 0.76,18.50 0.77,19.04 0.74,19.18 0.72,19.31 0.66,19.44 0.61,19.57 0.52,19.68 0.44,19.79 0.33,19.88 0.22,19.97 0.09,20.03 -0.02,20.09 -0.16,20.11 -0.30,20.14 -0.44,20.13 -0.58,20.13 -0.71,20.09 -0.84,20.05 -0.96,19.98 -1.09,19.91 -1.19,19.81 -1.29,19.71 -1.36,19.59 -1.43,19.47 -1.48,19.34 -1.52,19.21 -1.53,19.07 -1.54,18.93 -1.48,18.18 -1.41,17.43 -1.35,16.66 -1.29,15.90 -1.22,15.00 -1.16,14.11 -1.01,13.20 -0.86,12.29 -0.54,10.95 -0.22,9.61 0.16,8.61 0.55,7.60 1.18,6.65 1.82,5.70 2.64,4.86 3.46,4.03 5.37,3.23 7.29,2.44 8.75,2.09 10.21,1.75 11.46,1.61 12.71,1.46 14.36,1.70 16.01,1.94 16.12,1.96 16.22,1.97 16.32,2.01 16.41,2.06 16.49,2.13 16.57,2.21 16.62,2.30 16.66,2.40 16.68,2.50 16.70,2.61 16.68,2.71 16.66,2.82 16.61,2.91 16.56,3.00 16.48,3.07 16.40,3.15 16.31,3.19 16.21,3.23 16.10,3.24 16.00,3.25 15.89,3.23 15.79,3.21 15.70,3.15 15.61,3.10 15.54,3.01 15.47,2.93 15.44,2.83 15.40,2.73 15.39,2.63 15.39,2.52 15.42,2.42 15.45,2.32 15.51,2.23 15.57,2.14 15.65,2.08 15.74,2.02 15.84,1.98 15.94,1.95 16.05,1.95 16.15,1.95 16.25,1.99 16.35,2.02 16.44,2.09 16.52,2.15 16.58,2.24 16.64,2.33 16.67,2.43 16.69,2.54 16.69,2.64 16.68,2.75 16.64,2.85 16.60,2.94 16.53,3.02 16.46,3.10 16.37,3.16 16.28,3.21 16.17,3.23 16.07,3.26 16.07,3.26 16.07,3.26 14.54,3.68 13.01,4.10 11.91,4.23 10.81,4.35 9.52,4.64 8.23,4.93 6.73,5.44 5.23,5.95 4.57,6.57 3.91,7.19 3.39,7.86 2.87,8.54 2.52,9.39 2.17,10.23 1.83,11.46 1.50,12.68 1.36,13.49 1.22,14.29 1.15,15.20 1.08,16.10 1.00,16.95 0.93,17.81 0.85,18.42 0.77,19.04 0.74,19.18 0.72,19.31 0.66,19.44 0.61,19.57 0.52,19.68 0.44,19.79 0.33,19.88 0.22,19.97 0.09,20.03 -0.02,20.09 -0.16,20.11 -0.30,20.14 -0.44,20.13 -0.58,20.13 -0.71,20.09 -0.84,20.05 -0.96,19.98 -1.09,19.91 -1.19,19.81 -1.29,19.71 -1.36,19.59 -1.43,19.47 -1.48,19.34 -1.52,19.21 -1.53,19.07 -1.54,18.93 -1.48,18.39 -1.41,17.84 -1.36,17.03 -1.30,16.21 -1.23,14.97 -1.16,13.73 -1.08,12.19 -1.00,10.66 -0.99,9.11 -0.98,7.57 -0.96,6.13 -0.93,4.69 -0.91,3.47 -0.88,2.25 -0.80,1.12 -0.73,0 -0.72,-0.08 -0.71,-0.17 -0.67,-0.25 -0.64,-0.34 -0.59,-0.41 -0.54,-0.48 -0.48,-0.54 -0.41,-0.60 -0.33,-0.64 -0.25,-0.68 -0.17,-0.70 -0.08,-0.72 0.00,-0.72 0.08,-0.72 0.17,-0.70 0.25,-0.68 0.33,-0.64 0.41,-0.60 0.48,-0.54 0.54,-0.48 0.59,-0.41 0.64,-0.34 0.67,-0.25 0.71,-0.17 0.72,-0.08 0.73,0.00 0.73,0.00 L 0.73,0 Z"/></g><g transform="translate(437.6779493769652 418.06676106563555) rotate(0 8.929559576997008 12.38151693156695)" stroke="none"><path fill="#000000" d="M 0.66,-0.38 Q 0.66,-0.38 3.49,4.32 6.32,9.03 8.92,12.88 11.53,16.74 14.30,19.84 17.07,22.95 17.13,23.04 17.19,23.13 17.22,23.23 17.24,23.33 17.24,23.44 17.23,23.54 17.19,23.64 17.15,23.74 17.08,23.82 17.01,23.90 16.92,23.96 16.83,24.01 16.72,24.03 16.62,24.05 16.51,24.04 16.41,24.03 16.31,23.98 16.22,23.94 16.14,23.86 16.06,23.79 16.01,23.69 15.96,23.60 15.95,23.50 15.93,23.39 15.95,23.29 15.97,23.18 16.02,23.09 16.07,22.99 16.15,22.92 16.23,22.85 16.32,22.81 16.42,22.76 16.53,22.75 16.63,22.74 16.73,22.77 16.84,22.79 16.93,22.84 17.02,22.90 17.09,22.98 17.15,23.06 17.19,23.16 17.23,23.26 17.24,23.37 17.24,23.47 17.21,23.58 17.18,23.68 17.12,23.77 17.06,23.85 16.98,23.92 16.89,23.98 16.79,24.01 16.69,24.05 16.58,24.04 16.48,24.04 16.38,24.01 16.28,23.97 16.19,23.91 16.11,23.84 16.11,23.84 16.11,23.84 13.14,20.77 10.17,17.70 7.34,13.88 4.52,10.05 1.92,5.21 -0.66,0.38 -0.70,0.29 -0.74,0.20 -0.75,0.11 -0.77,0.02 -0.76,-0.06 -0.75,-0.15 -0.72,-0.24 -0.69,-0.33 -0.64,-0.41 -0.59,-0.49 -0.52,-0.55 -0.45,-0.61 -0.37,-0.66 -0.29,-0.71 -0.20,-0.73 -0.11,-0.76 -0.02,-0.76 0.06,-0.76 0.15,-0.74 0.24,-0.72 0.33,-0.68 0.41,-0.64 0.48,-0.58 0.55,-0.52 0.61,-0.45 0.66,-0.38 0.66,-0.38 L 0.66,-0.38 Z"/></g><g transform="translate(457.4623682778388 422.11646864662225) rotate(0 -8.630775741945968 10.257048245354952)" stroke="none"><path fill="#000000" d="M 0.49,0.51 Q 0.49,0.51 -0.40,1.60 -1.30,2.69 -2.68,4.23 -4.06,5.78 -5.92,7.80 -7.78,9.83 -9.72,12.06 -11.67,14.29 -13.76,16.97 -15.85,19.65 -15.92,19.72 -16.00,19.80 -16.09,19.85 -16.19,19.89 -16.29,19.91 -16.40,19.93 -16.50,19.91 -16.61,19.89 -16.70,19.84 -16.79,19.79 -16.87,19.71 -16.94,19.63 -16.98,19.53 -17.02,19.44 -17.03,19.33 -17.04,19.22 -17.02,19.12 -17.00,19.02 -16.94,18.93 -16.88,18.84 -16.80,18.77 -16.72,18.70 -16.62,18.66 -16.52,18.63 -16.41,18.62 -16.31,18.62 -16.21,18.65 -16.10,18.68 -16.02,18.74 -15.93,18.80 -15.87,18.88 -15.80,18.97 -15.77,19.07 -15.74,19.17 -15.74,19.28 -15.74,19.38 -15.78,19.48 -15.81,19.59 -15.88,19.67 -15.94,19.75 -16.03,19.81 -16.12,19.87 -16.22,19.90 -16.33,19.92 -16.43,19.92 -16.54,19.91 -16.64,19.87 -16.74,19.83 -16.82,19.76 -16.90,19.69 -16.95,19.59 -17.00,19.50 -17.02,19.40 -17.04,19.29 -17.03,19.19 -17.02,19.08 -16.97,18.99 -16.93,18.89 -16.93,18.89 -16.93,18.89 -15.08,15.94 -13.24,13.00 -11.37,10.61 -9.51,8.22 -7.63,6.21 -5.74,4.19 -4.24,2.69 -2.74,1.19 -1.62,0.34 -0.49,-0.51 -0.43,-0.57 -0.36,-0.62 -0.28,-0.65 -0.20,-0.69 -0.11,-0.70 -0.02,-0.71 0.05,-0.71 0.14,-0.70 0.22,-0.67 0.30,-0.65 0.38,-0.60 0.45,-0.55 0.51,-0.49 0.57,-0.43 0.61,-0.35 0.66,-0.28 0.68,-0.19 0.71,-0.11 0.71,-0.02 0.71,0.05 0.70,0.14 0.68,0.22 0.64,0.30 0.60,0.38 0.55,0.45 0.49,0.51 0.49,0.51 L 0.49,0.51 Z"/></g><g transform="translate(31.468942221772068 10) rotate(0 6.904675360451165 14.738303741254668)" stroke="none"><path fill="#000000" d="M 0.78,0.00 Q 0.78,0.00 0.76,1.56 0.75,3.12 1.14,4.39 1.53,5.66 2.13,6.42 2.72,7.17 3.42,7.36 4.13,7.56 5.00,7.04 5.87,6.52 6.59,5.52 7.30,4.51 7.76,3.58 8.22,2.65 8.15,2.12 8.09,1.58 8.59,1.82 9.09,2.06 9.57,3.00 10.04,3.93 10.76,5.43 11.47,6.93 12.13,8.71 12.79,10.50 13.31,12.34 13.82,14.19 14.14,16.24 14.45,18.29 14.43,20.41 14.41,22.53 13.06,24.88 11.72,27.22 9.52,27.70 7.31,28.18 5.74,27.19 4.16,26.20 3.32,23.38 2.49,20.55 2.51,20.45 2.54,20.35 2.60,20.26 2.65,20.17 2.74,20.10 2.82,20.03 2.92,20.00 3.02,19.96 3.12,19.96 3.23,19.95 3.33,19.98 3.43,20.01 3.52,20.08 3.61,20.14 3.67,20.22 3.73,20.31 3.76,20.41 3.79,20.51 3.79,20.62 3.79,20.72 3.75,20.82 3.72,20.92 3.65,21.01 3.59,21.09 3.50,21.15 3.41,21.21 3.30,21.23 3.20,21.26 3.10,21.25 2.99,21.24 2.89,21.20 2.79,21.16 2.71,21.09 2.64,21.02 2.58,20.93 2.53,20.83 2.51,20.73 2.49,20.63 2.50,20.52 2.52,20.41 2.56,20.32 2.61,20.22 2.68,20.15 2.76,20.07 2.85,20.02 2.95,19.98 3.05,19.96 3.16,19.95 3.26,19.97 3.37,19.99 3.46,20.04 3.55,20.09 3.62,20.17 3.70,20.25 3.74,20.34 3.78,20.44 3.79,20.55 3.80,20.65 3.80,20.65 3.80,20.65 4.59,22.59 5.37,24.53 6.39,25.35 7.40,26.17 8.87,25.96 10.34,25.75 11.35,24.06 12.36,22.37 12.40,20.47 12.44,18.57 12.18,16.64 11.92,14.71 11.45,12.93 10.98,11.15 10.38,9.44 9.78,7.73 9.07,6.22 8.36,4.71 7.81,3.41 7.26,2.11 7.38,1.39 7.49,0.67 7.93,0.36 8.37,0.05 9.15,0.74 9.93,1.43 9.85,2.39 9.77,3.36 9.20,4.44 8.63,5.52 7.64,6.73 6.65,7.94 5.31,8.50 3.97,9.06 2.78,8.64 1.60,8.23 0.82,7.19 0.03,6.15 -0.39,4.64 -0.82,3.13 -0.80,1.56 -0.78,-0.00 -0.77,-0.10 -0.75,-0.19 -0.72,-0.28 -0.68,-0.37 -0.63,-0.44 -0.58,-0.52 -0.50,-0.58 -0.43,-0.65 -0.35,-0.69 -0.26,-0.73 -0.17,-0.75 -0.08,-0.77 0.00,-0.77 0.10,-0.77 0.19,-0.75 0.28,-0.72 0.36,-0.68 0.45,-0.63 0.52,-0.57 0.59,-0.51 0.64,-0.43 0.69,-0.35 0.73,-0.26 0.76,-0.17 0.77,-0.08 0.78,0.00 0.78,0.00 L 0.78,0.00 Z"/></g></svg>