<svg version="1.1" xmlns="http://www.w3.org/2000/svg" viewBox="0 0 385.06723504180013 340.19770946015706" width="385.06723504180013" height="340.19770946015706" filter="invert(93%) hue-rotate(180deg)">
  <!-- svg-source:excalidraw -->
  
  <defs>
    <style class="style-fonts">
      @font-face {
        font-family: "Virgil";
        src: url("https://excalidraw.com/Virgil.woff2");
      }
      @font-face {
        font-family: "Cascadia";
        src: url("https://excalidraw.com/Cascadia.woff2");
      }
    </style>
  </defs>
  <rect x="0" y="0" width="385.06723504180013" height="340.19770946015706" fill="transparent"/><g stroke-linecap="round"><g transform="translate(192.25215895497325 24.132145598374876) rotate(0 64.9669926431539 138.1502478822934)"><path d="M0 0 C21.66 46.05, 108.28 230.25, 129.93 276.3 M0 0 C21.66 46.05, 108.28 230.25, 129.93 276.3" stroke="#000000" stroke-width="1" fill="none"/></g></g><mask/><g stroke-linecap="round" transform="translate(312.03184108064823 294.3720563839852) rotate(0 17.912826538085938 17.912826538085938)"><path d="M35.83 17.91 C35.83 18.95, 35.73 20, 35.55 21.02 C35.37 22.04, 35.1 23.07, 34.75 24.04 C34.39 25.01, 33.94 25.97, 33.43 26.87 C32.91 27.77, 32.3 28.63, 31.63 29.43 C30.97 30.22, 30.22 30.97, 29.43 31.63 C28.63 32.3, 27.77 32.91, 26.87 33.43 C25.97 33.94, 25.01 34.39, 24.04 34.75 C23.07 35.1, 22.04 35.37, 21.02 35.55 C20 35.73, 18.95 35.83, 17.91 35.83 C16.88 35.83, 15.82 35.73, 14.8 35.55 C13.78 35.37, 12.76 35.1, 11.79 34.75 C10.81 34.39, 9.85 33.94, 8.96 33.43 C8.06 32.91, 7.19 32.3, 6.4 31.63 C5.6 30.97, 4.86 30.22, 4.19 29.43 C3.52 28.63, 2.92 27.77, 2.4 26.87 C1.88 25.97, 1.43 25.01, 1.08 24.04 C0.73 23.07, 0.45 22.04, 0.27 21.02 C0.09 20, 0 18.95, 0 17.91 C0 16.88, 0.09 15.82, 0.27 14.8 C0.45 13.78, 0.73 12.76, 1.08 11.79 C1.43 10.81, 1.88 9.85, 2.4 8.96 C2.92 8.06, 3.52 7.19, 4.19 6.4 C4.86 5.6, 5.6 4.86, 6.4 4.19 C7.19 3.52, 8.06 2.92, 8.96 2.4 C9.85 1.88, 10.81 1.43, 11.79 1.08 C12.76 0.73, 13.78 0.45, 14.8 0.27 C15.82 0.09, 16.88 0, 17.91 0 C18.95 0, 20 0.09, 21.02 0.27 C22.04 0.45, 23.07 0.73, 24.04 1.08 C25.01 1.43, 25.97 1.88, 26.87 2.4 C27.77 2.92, 28.63 3.52, 29.43 4.19 C30.22 4.86, 30.97 5.6, 31.63 6.4 C32.3 7.19, 32.91 8.06, 33.43 8.96 C33.94 9.85, 34.39 10.81, 34.75 11.79 C35.1 12.76, 35.37 13.78, 35.55 14.8 C35.73 15.82, 35.78 17.39, 35.83 17.91 C35.87 18.43, 35.87 17.39, 35.83 17.91" stroke="none" stroke-width="0" fill="#000000"/><path d="M35.83 17.91 C35.83 18.95, 35.73 20, 35.55 21.02 C35.37 22.04, 35.1 23.07, 34.75 24.04 C34.39 25.01, 33.94 25.97, 33.43 26.87 C32.91 27.77, 32.3 28.63, 31.63 29.43 C30.97 30.22, 30.22 30.97, 29.43 31.63 C28.63 32.3, 27.77 32.91, 26.87 33.43 C25.97 33.94, 25.01 34.39, 24.04 34.75 C23.07 35.1, 22.04 35.37, 21.02 35.55 C20 35.73, 18.95 35.83, 17.91 35.83 C16.88 35.83, 15.82 35.73, 14.8 35.55 C13.78 35.37, 12.76 35.1, 11.79 34.75 C10.81 34.39, 9.85 33.94, 8.96 33.43 C8.06 32.91, 7.19 32.3, 6.4 31.63 C5.6 30.97, 4.86 30.22, 4.19 29.43 C3.52 28.63, 2.92 27.77, 2.4 26.87 C1.88 25.97, 1.43 25.01, 1.08 24.04 C0.73 23.07, 0.45 22.04, 0.27 21.02 C0.09 20, 0 18.95, 0 17.91 C0 16.88, 0.09 15.82, 0.27 14.8 C0.45 13.78, 0.73 12.76, 1.08 11.79 C1.43 10.81, 1.88 9.85, 2.4 8.96 C2.92 8.06, 3.52 7.19, 4.19 6.4 C4.86 5.6, 5.6 4.86, 6.4 4.19 C7.19 3.52, 8.06 2.92, 8.96 2.4 C9.85 1.88, 10.81 1.43, 11.79 1.08 C12.76 0.73, 13.78 0.45, 14.8 0.27 C15.82 0.09, 16.88 0, 17.91 0 C18.95 0, 20 0.09, 21.02 0.27 C22.04 0.45, 23.07 0.73, 24.04 1.08 C25.01 1.43, 25.97 1.88, 26.87 2.4 C27.77 2.92, 28.63 3.52, 29.43 4.19 C30.22 4.86, 30.97 5.6, 31.63 6.4 C32.3 7.19, 32.91 8.06, 33.43 8.96 C33.94 9.85, 34.39 10.81, 34.75 11.79 C35.1 12.76, 35.37 13.78, 35.55 14.8 C35.73 15.82, 35.78 17.39, 35.83 17.91 C35.87 18.43, 35.87 17.39, 35.83 17.91" stroke="#000000" stroke-width="1" fill="none"/></g><g stroke-linecap="round" transform="translate(10 10) rotate(0 182.53361752090007 9.58433901053867)"><path d="M0 0 C0 0, 0 0, 0 0 M0 0 C0 0, 0 0, 0 0 M-0.26 6.4 C0.96 5, 2.17 3.6, 4.99 0.36 M-0.26 6.4 C1.16 4.76, 2.59 3.12, 4.99 0.36 M0.13 12.04 C3.85 7.77, 7.56 3.5, 10.63 -0.03 M0.13 12.04 C3.98 7.61, 7.83 3.19, 10.63 -0.03 M-0.13 18.44 C4.18 13.48, 8.49 8.52, 15.62 0.33 M-0.13 18.44 C3.97 13.73, 8.06 9.02, 15.62 0.33 M2.89 21.06 C6.71 16.67, 10.52 12.28, 21.26 -0.07 M2.89 21.06 C7.2 16.11, 11.51 11.15, 21.26 -0.07 M7.88 21.42 C14.1 14.27, 20.31 7.12, 26.25 0.29 M7.88 21.42 C15.01 13.22, 22.14 5.01, 26.25 0.29 M12.86 21.78 C17.18 16.82, 21.49 11.87, 31.89 -0.1 M12.86 21.78 C18.09 15.77, 23.32 9.75, 31.89 -0.1 M18.51 21.39 C24.37 14.65, 30.23 7.9, 36.88 0.26 M18.51 21.39 C22.99 16.23, 27.48 11.07, 36.88 0.26 M23.49 21.75 C30.32 13.89, 37.15 6.04, 42.52 -0.14 M23.49 21.75 C28.88 15.55, 34.27 9.36, 42.52 -0.14 M29.14 21.35 C34.55 15.13, 39.97 8.9, 47.51 0.22 M29.14 21.35 C35.67 13.84, 42.2 6.33, 47.51 0.22 M34.12 21.71 C39.63 15.38, 45.14 9.04, 53.15 -0.17 M34.12 21.71 C38.76 16.38, 43.4 11.05, 53.15 -0.17 M39.77 21.32 C44 16.45, 48.24 11.57, 58.14 0.19 M39.77 21.32 C45.07 15.22, 50.37 9.12, 58.14 0.19 M44.75 21.68 C51.2 14.26, 57.65 6.85, 63.78 -0.21 M44.75 21.68 C49.14 16.64, 53.52 11.6, 63.78 -0.21 M50.4 21.29 C55.5 15.42, 60.6 9.55, 68.77 0.15 M50.4 21.29 C56.81 13.91, 63.22 6.53, 68.77 0.15 M55.38 21.65 C62.3 13.69, 69.21 5.74, 74.41 -0.24 M55.38 21.65 C61.2 14.96, 67.01 8.27, 74.41 -0.24 M61.03 21.25 C66.05 15.48, 71.06 9.71, 79.4 0.12 M61.03 21.25 C66.2 15.3, 71.37 9.35, 79.4 0.12 M66.02 21.61 C70.88 16.02, 75.74 10.42, 85.04 -0.28 M66.02 21.61 C70.22 16.77, 74.42 11.94, 85.04 -0.28 M71.66 21.22 C76.06 16.15, 80.46 11.09, 90.03 0.08 M71.66 21.22 C78.45 13.4, 85.25 5.59, 90.03 0.08 M76.65 21.58 C81.29 16.24, 85.93 10.9, 95.67 -0.31 M76.65 21.58 C82.68 14.63, 88.72 7.68, 95.67 -0.31 M82.29 21.18 C87.55 15.13, 92.81 9.08, 100.66 0.05 M82.29 21.18 C88.47 14.07, 94.66 6.95, 100.66 0.05 M87.28 21.54 C94.75 12.94, 102.22 4.35, 106.3 -0.34 M87.28 21.54 C91.55 16.62, 95.83 11.71, 106.3 -0.34 M92.92 21.15 C98.57 14.64, 104.22 8.14, 111.29 0.02 M92.92 21.15 C97.4 15.99, 101.88 10.84, 111.29 0.02 M97.91 21.51 C103.46 15.12, 109.01 8.73, 116.27 0.38 M97.91 21.51 C104.55 13.86, 111.19 6.22, 116.27 0.38 M103.55 21.11 C108.78 15.1, 114.01 9.08, 121.92 -0.02 M103.55 21.11 C110.75 12.82, 117.96 4.53, 121.92 -0.02 M108.54 21.47 C112.37 17.06, 116.21 12.65, 126.91 0.34 M108.54 21.47 C112.88 16.48, 117.22 11.48, 126.91 0.34 M114.18 21.08 C121.23 12.96, 128.28 4.85, 132.55 -0.05 M114.18 21.08 C118.26 16.39, 122.34 11.69, 132.55 -0.05 M119.17 21.44 C124.39 15.43, 129.61 9.42, 137.54 0.31 M119.17 21.44 C125.51 14.13, 131.86 6.83, 137.54 0.31 M124.81 21.04 C129.55 15.59, 134.29 10.14, 143.18 -0.09 M124.81 21.04 C128.7 16.56, 132.6 12.08, 143.18 -0.09 M129.8 21.4 C135.99 14.28, 142.18 7.16, 148.17 0.27 M129.8 21.4 C134.86 15.58, 139.92 9.76, 148.17 0.27 M134.78 21.76 C141.36 14.2, 147.93 6.64, 153.81 -0.12 M134.78 21.76 C142.02 13.44, 149.26 5.11, 153.81 -0.12 M140.43 21.37 C146.13 14.8, 151.84 8.23, 158.8 0.24 M140.43 21.37 C144.12 17.11, 147.82 12.86, 158.8 0.24 M145.41 21.73 C152.47 13.61, 159.53 5.49, 164.44 -0.16 M145.41 21.73 C152.72 13.32, 160.04 4.91, 164.44 -0.16 M151.06 21.33 C158.14 13.18, 165.23 5.03, 169.43 0.2 M151.06 21.33 C158.17 13.15, 165.28 4.97, 169.43 0.2 M156.04 21.69 C160.7 16.34, 165.36 10.98, 175.07 -0.19 M156.04 21.69 C160.23 16.88, 164.41 12.07, 175.07 -0.19 M161.69 21.3 C166.79 15.43, 171.89 9.57, 180.06 0.17 M161.69 21.3 C166.94 15.25, 172.2 9.21, 180.06 0.17 M166.67 21.66 C173.58 13.71, 180.49 5.76, 185.7 -0.23 M166.67 21.66 C172.81 14.6, 178.95 7.54, 185.7 -0.23 M172.32 21.27 C178.53 14.11, 184.75 6.96, 190.69 0.13 M172.32 21.27 C176.74 16.18, 181.16 11.09, 190.69 0.13 M177.3 21.63 C183.17 14.87, 189.04 8.12, 196.33 -0.26 M177.3 21.63 C182.38 15.79, 187.45 9.95, 196.33 -0.26 M182.95 21.23 C187.65 15.83, 192.34 10.42, 201.32 0.1 M182.95 21.23 C189.97 13.15, 196.99 5.08, 201.32 0.1 M187.93 21.59 C194.58 13.95, 201.22 6.31, 206.96 -0.3 M187.93 21.59 C192.98 15.78, 198.03 9.97, 206.96 -0.3 M193.58 21.2 C200.07 13.73, 206.56 6.26, 211.95 0.06 M193.58 21.2 C199.66 14.2, 205.74 7.2, 211.95 0.06 M198.56 21.56 C205.02 14.13, 211.47 6.71, 217.59 -0.33 M198.56 21.56 C203.73 15.62, 208.89 9.68, 217.59 -0.33 M204.21 21.16 C209.56 15.01, 214.9 8.85, 222.58 0.03 M204.21 21.16 C209.66 14.89, 215.11 8.62, 222.58 0.03 M209.19 21.52 C213.35 16.74, 217.52 11.95, 228.22 -0.36 M209.19 21.52 C214.45 15.48, 219.7 9.43, 228.22 -0.36 M214.84 21.13 C221.53 13.43, 228.22 5.73, 233.21 0 M214.84 21.13 C221.78 13.14, 228.72 5.16, 233.21 0 M219.82 21.49 C225.59 14.86, 231.35 8.23, 238.19 0.36 M219.82 21.49 C223.69 17.04, 227.55 12.6, 238.19 0.36 M225.47 21.09 C229.23 16.77, 232.99 12.44, 243.84 -0.04 M225.47 21.09 C230.28 15.55, 235.1 10.02, 243.84 -0.04 M230.45 21.45 C234.8 16.46, 239.14 11.46, 248.82 0.32 M230.45 21.45 C234.92 16.31, 239.39 11.17, 248.82 0.32 M236.1 21.06 C241.23 15.15, 246.36 9.25, 254.47 -0.07 M236.1 21.06 C242.08 14.17, 248.07 7.28, 254.47 -0.07 M241.08 21.42 C248.15 13.29, 255.21 5.17, 259.45 0.29 M241.08 21.42 C246.3 15.41, 251.52 9.41, 259.45 0.29 M246.07 21.78 C253.53 13.2, 260.99 4.61, 265.1 -0.11 M246.07 21.78 C252.45 14.44, 258.83 7.1, 265.1 -0.11 M251.71 21.38 C256.16 16.27, 260.6 11.16, 270.08 0.25 M251.71 21.38 C256.87 15.46, 262.02 9.53, 270.08 0.25 M256.7 21.74 C263.97 13.38, 271.24 5.02, 275.73 -0.14 M256.7 21.74 C263.26 14.19, 269.83 6.64, 275.73 -0.14 M262.34 21.35 C267.46 15.46, 272.58 9.58, 280.71 0.22 M262.34 21.35 C268.21 14.61, 274.07 7.86, 280.71 0.22 M267.33 21.71 C271.6 16.8, 275.87 11.88, 286.36 -0.18 M267.33 21.71 C274.92 12.98, 282.51 4.25, 286.36 -0.18 M272.97 21.32 C277.57 16.03, 282.16 10.75, 291.34 0.18 M272.97 21.32 C278.96 14.43, 284.95 7.54, 291.34 0.18 M277.96 21.68 C284.25 14.44, 290.54 7.2, 296.99 -0.21 M277.96 21.68 C282.33 16.65, 286.7 11.62, 296.99 -0.21 M283.6 21.28 C289.08 14.99, 294.55 8.69, 301.97 0.15 M283.6 21.28 C290.33 13.54, 297.05 5.81, 301.97 0.15 M288.59 21.64 C293.3 16.22, 298.02 10.8, 307.62 -0.25 M288.59 21.64 C295.43 13.77, 302.28 5.9, 307.62 -0.25 M294.23 21.25 C298.83 15.96, 303.42 10.68, 312.6 0.11 M294.23 21.25 C300.54 13.99, 306.85 6.73, 312.6 0.11 M299.22 21.61 C306.04 13.76, 312.87 5.91, 318.25 -0.28 M299.22 21.61 C306.83 12.86, 314.43 4.11, 318.25 -0.28 M304.86 21.21 C310.74 14.45, 316.62 7.69, 323.23 0.08 M304.86 21.21 C310.39 14.85, 315.93 8.49, 323.23 0.08 M309.85 21.57 C317.13 13.2, 324.41 4.83, 328.88 -0.31 M309.85 21.57 C316.51 13.91, 323.18 6.24, 328.88 -0.31 M315.49 21.18 C319.3 16.8, 323.1 12.43, 333.86 0.05 M315.49 21.18 C321.39 14.39, 327.29 7.6, 333.86 0.05 M320.48 21.54 C325.7 15.53, 330.92 9.53, 339.51 -0.35 M320.48 21.54 C326.19 14.97, 331.9 8.4, 339.51 -0.35 M326.12 21.14 C333.41 12.76, 340.69 4.38, 344.49 0.01 M326.12 21.14 C330.26 16.39, 334.39 11.63, 344.49 0.01 M331.11 21.5 C337.08 14.64, 343.05 7.77, 349.48 0.37 M331.11 21.5 C337.13 14.58, 343.15 7.66, 349.48 0.37 M336.75 21.11 C341.53 15.61, 346.31 10.11, 355.12 -0.02 M336.75 21.11 C341.77 15.34, 346.78 9.58, 355.12 -0.02 M341.74 21.47 C346.54 15.95, 351.34 10.43, 360.11 0.34 M341.74 21.47 C345.42 17.24, 349.09 13.01, 360.11 0.34 M347.38 21.07 C353.91 13.57, 360.43 6.07, 365.75 -0.06 M347.38 21.07 C352.23 15.5, 357.08 9.92, 365.75 -0.06 M352.37 21.43 C356.91 16.21, 361.45 10.99, 365.49 6.34 M352.37 21.43 C355.97 17.3, 359.56 13.16, 365.49 6.34 M358.01 21.04 C360.36 18.35, 362.7 15.65, 365.23 12.74 M358.01 21.04 C359.72 19.07, 361.43 17.11, 365.23 12.74 M363 21.4 C363.73 20.56, 364.46 19.72, 365.63 18.38 M363 21.4 C364.04 20.21, 365.07 19.02, 365.63 18.38" stroke="#000000" stroke-width="0.5" fill="none"/><path d="M0 0 C84.83 0, 169.67 0, 365.07 0 M0 0 C138.57 0, 277.15 0, 365.07 0 M365.07 0 C365.07 7.15, 365.07 14.29, 365.07 19.17 M365.07 0 C365.07 4.86, 365.07 9.72, 365.07 19.17 M365.07 19.17 C282.98 19.17, 200.89 19.17, 0 19.17 M365.07 19.17 C251.17 19.17, 137.27 19.17, 0 19.17 M0 19.17 C0 15.23, 0 11.3, 0 0 M0 19.17 C0 13.94, 0 8.72, 0 0" stroke="#000000" stroke-width="1" fill="none"/></g></svg>