<svg version="1.1" xmlns="http://www.w3.org/2000/svg" viewBox="0 0 460 220" width="460" height="220" filter="invert(93%) hue-rotate(180deg)" class="excalidraw-svg">
  <!-- svg-source:excalidraw -->
  
  <defs>
    <style class="style-fonts">
      @font-face {
        font-family: "Virgil";
        src: url("https://excalidraw.com/Virgil.woff2");
      }
      @font-face {
        font-family: "Cascadia";
        src: url("https://excalidraw.com/Cascadia.woff2");
      }
      @font-face {
        font-family: "Assistant";
        src: url("https://excalidraw.com/Assistant-Regular.woff2");
      }
    </style>
    
  </defs>
  <g stroke-linecap="round"><g transform="translate(450 10) rotate(0 -200 100)"><path d="M0 0 C-16.67 13.33, -50 60, -100 80 C-150 100, -250 100, -300 120 C-350 140, -383.33 186.67, -400 200 M0 0 C-16.67 13.33, -50 60, -100 80 C-150 100, -250 100, -300 120 C-350 140, -383.33 186.67, -400 200" stroke="#1e1e1e" stroke-width="4" fill="none"/></g></g><mask/><g stroke-linecap="round"><g transform="translate(50 170) rotate(0 10 0)"><path d="M0 0 C3.33 0, 16.67 0, 20 0 M0 0 C3.33 0, 16.67 0, 20 0" stroke="#e03131" stroke-width="4" fill="none"/></g><g transform="translate(50 170) rotate(0 10 0)"><path d="M20 0 L10.94 4.23 L10.94 -4.23 L20 0" stroke="none" stroke-width="0" fill="#e03131" fill-rule="evenodd"/><path d="M20 0 C16.67 1.55, 13.33 3.11, 10.94 4.23 M20 0 C16.6 1.59, 13.2 3.17, 10.94 4.23 M10.94 4.23 C10.94 1.71, 10.94 -0.81, 10.94 -4.23 M10.94 4.23 C10.94 1.05, 10.94 -2.12, 10.94 -4.23 M10.94 -4.23 C13.19 -3.18, 15.44 -2.13, 20 0 M10.94 -4.23 C13.17 -3.19, 15.4 -2.15, 20 0 M20 0 C20 0, 20 0, 20 0 M20 0 C20 0, 20 0, 20 0" stroke="#e03131" stroke-width="4" fill="none"/></g></g><mask/><g stroke-linecap="round"><g transform="translate(70 150) rotate(0 10 0)"><path d="M0 0 C3.33 0, 16.67 0, 20 0 M0 0 C3.33 0, 16.67 0, 20 0" stroke="#e03131" stroke-width="4" fill="none"/></g><g transform="translate(70 150) rotate(0 10 0)"><path d="M20 0 L10.94 4.23 L10.94 -4.23 L20 0" stroke="none" stroke-width="0" fill="#e03131" fill-rule="evenodd"/><path d="M20 0 C17.72 1.06, 15.43 2.13, 10.94 4.23 M20 0 C17.3 1.26, 14.6 2.52, 10.94 4.23 M10.94 4.23 C10.94 1.2, 10.94 -1.83, 10.94 -4.23 M10.94 4.23 C10.94 2.42, 10.94 0.62, 10.94 -4.23 M10.94 -4.23 C13.41 -3.07, 15.88 -1.92, 20 0 M10.94 -4.23 C13.62 -2.98, 16.3 -1.73, 20 0 M20 0 C20 0, 20 0, 20 0 M20 0 C20 0, 20 0, 20 0" stroke="#e03131" stroke-width="4" fill="none"/></g></g><mask/><g stroke-linecap="round"><g transform="translate(100.5104731891297 130) rotate(0 10 0)"><path d="M0 0 C3.33 0, 16.67 0, 20 0 M0 0 C3.33 0, 16.67 0, 20 0" stroke="#e03131" stroke-width="4" fill="none"/></g><g transform="translate(100.5104731891297 130) rotate(0 10 0)"><path d="M20 0 L10.94 4.23 L10.94 -4.23 L20 0" stroke="none" stroke-width="0" fill="#e03131" fill-rule="evenodd"/><path d="M20 0 C16.54 1.61, 13.08 3.23, 10.94 4.23 M20 0 C17.61 1.11, 15.22 2.23, 10.94 4.23 M10.94 4.23 C10.94 0.95, 10.94 -2.33, 10.94 -4.23 M10.94 4.23 C10.94 1.67, 10.94 -0.9, 10.94 -4.23 M10.94 -4.23 C13.77 -2.9, 16.61 -1.58, 20 0 M10.94 -4.23 C13.88 -2.85, 16.82 -1.48, 20 0 M20 0 C20 0, 20 0, 20 0 M20 0 C20 0, 20 0, 20 0" stroke="#e03131" stroke-width="4" fill="none"/></g></g><mask/><g stroke-linecap="round"><g transform="translate(167.03240130972765 110) rotate(0 10 0)"><path d="M0 0 C3.33 0, 16.67 0, 20 0 M0 0 C3.33 0, 16.67 0, 20 0" stroke="#e03131" stroke-width="4" fill="none"/></g><g transform="translate(167.03240130972765 110) rotate(0 10 0)"><path d="M20 0 L10.94 4.23 L10.94 -4.23 L20 0" stroke="none" stroke-width="0" fill="#e03131" fill-rule="evenodd"/><path d="M20 0 C16.9 1.45, 13.8 2.89, 10.94 4.23 M20 0 C17.56 1.14, 15.12 2.28, 10.94 4.23 M10.94 4.23 C10.94 2.09, 10.94 -0.04, 10.94 -4.23 M10.94 4.23 C10.94 1.73, 10.94 -0.76, 10.94 -4.23 M10.94 -4.23 C13.98 -2.81, 17.03 -1.39, 20 0 M10.94 -4.23 C12.88 -3.32, 14.83 -2.41, 20 0 M20 0 C20 0, 20 0, 20 0 M20 0 C20 0, 20 0, 20 0" stroke="#e03131" stroke-width="4" fill="none"/></g></g><mask/><g stroke-linecap="round"><g transform="translate(297.88758575615657 85.81280544190963) rotate(0 10 0)"><path d="M0 0 C3.33 0, 16.67 0, 20 0 M0 0 C3.33 0, 16.67 0, 20 0" stroke="#e03131" stroke-width="4" fill="none"/></g><g transform="translate(297.88758575615657 85.81280544190963) rotate(0 10 0)"><path d="M20 0 L10.94 4.23 L10.94 -4.23 L20 0" stroke="none" stroke-width="0" fill="#e03131" fill-rule="evenodd"/><path d="M20 0 C16.63 1.57, 13.26 3.14, 10.94 4.23 M20 0 C17.31 1.26, 14.61 2.51, 10.94 4.23 M10.94 4.23 C10.94 1.06, 10.94 -2.1, 10.94 -4.23 M10.94 4.23 C10.94 0.85, 10.94 -2.52, 10.94 -4.23 M10.94 -4.23 C13.88 -2.86, 16.82 -1.48, 20 0 M10.94 -4.23 C13.04 -3.24, 15.15 -2.26, 20 0 M20 0 C20 0, 20 0, 20 0 M20 0 C20 0, 20 0, 20 0" stroke="#e03131" stroke-width="4" fill="none"/></g></g><mask/><g stroke-linecap="round"><g transform="translate(350 70) rotate(0 10 0)"><path d="M0 0 C3.33 0, 16.67 0, 20 0 M0 0 C3.33 0, 16.67 0, 20 0" stroke="#e03131" stroke-width="4" fill="none"/></g><g transform="translate(350 70) rotate(0 10 0)"><path d="M20 0 L10.94 4.23 L10.94 -4.23 L20 0" stroke="none" stroke-width="0" fill="#e03131" fill-rule="evenodd"/><path d="M20 0 C17.71 1.07, 15.42 2.13, 10.94 4.23 M20 0 C17.61 1.11, 15.22 2.23, 10.94 4.23 M10.94 4.23 C10.94 1.61, 10.94 -1.01, 10.94 -4.23 M10.94 4.23 C10.94 2.1, 10.94 -0.03, 10.94 -4.23 M10.94 -4.23 C14.36 -2.63, 17.79 -1.03, 20 0 M10.94 -4.23 C13.56 -3, 16.19 -1.78, 20 0 M20 0 C20 0, 20 0, 20 0 M20 0 C20 0, 20 0, 20 0" stroke="#e03131" stroke-width="4" fill="none"/></g></g><mask/><g stroke-linecap="round"><g transform="translate(376.3213587838042 45.10141736667174) rotate(0 10 0)"><path d="M0 0 C3.33 0, 16.67 0, 20 0 M0 0 C3.33 0, 16.67 0, 20 0" stroke="#e03131" stroke-width="4" fill="none"/></g><g transform="translate(376.3213587838042 45.10141736667174) rotate(0 10 0)"><path d="M20 0 L10.94 4.23 L10.94 -4.23 L20 0" stroke="none" stroke-width="0" fill="#e03131" fill-rule="evenodd"/><path d="M20 0 C17.03 1.38, 14.07 2.77, 10.94 4.23 M20 0 C17.17 1.32, 14.34 2.64, 10.94 4.23 M10.94 4.23 C10.94 1.01, 10.94 -2.2, 10.94 -4.23 M10.94 4.23 C10.94 1.69, 10.94 -0.85, 10.94 -4.23 M10.94 -4.23 C12.81 -3.35, 14.68 -2.48, 20 0 M10.94 -4.23 C14.31 -2.65, 17.68 -1.08, 20 0 M20 0 C20 0, 20 0, 20 0 M20 0 C20 0, 20 0, 20 0" stroke="#e03131" stroke-width="4" fill="none"/></g></g><mask/><g stroke-linecap="round"><g transform="translate(410 10) rotate(0 10 0)"><path d="M0 0 C3.33 0, 16.67 0, 20 0 M0 0 C3.33 0, 16.67 0, 20 0" stroke="#e03131" stroke-width="4" fill="none"/></g><g transform="translate(410 10) rotate(0 10 0)"><path d="M20 0 L10.94 4.23 L10.94 -4.23 L20 0" stroke="none" stroke-width="0" fill="#e03131" fill-rule="evenodd"/><path d="M20 0 C16.82 1.48, 13.64 2.97, 10.94 4.23 M20 0 C17.06 1.37, 14.13 2.74, 10.94 4.23 M10.94 4.23 C10.94 2.32, 10.94 0.42, 10.94 -4.23 M10.94 4.23 C10.94 1.14, 10.94 -1.95, 10.94 -4.23 M10.94 -4.23 C13.93 -2.83, 16.93 -1.43, 20 0 M10.94 -4.23 C13.56 -3, 16.18 -1.78, 20 0 M20 0 C20 0, 20 0, 20 0 M20 0 C20 0, 20 0, 20 0" stroke="#e03131" stroke-width="4" fill="none"/></g></g><mask/><g stroke-linecap="round"><g transform="translate(394.9949452073205 30) rotate(0 10 0)"><path d="M0 0 C3.33 0, 16.67 0, 20 0 M0 0 C3.33 0, 16.67 0, 20 0" stroke="#e03131" stroke-width="4" fill="none"/></g><g transform="translate(394.9949452073205 30) rotate(0 10 0)"><path d="M20 0 L10.94 4.23 L10.94 -4.23 L20 0" stroke="none" stroke-width="0" fill="#e03131" fill-rule="evenodd"/><path d="M20 0 C16.74 1.52, 13.48 3.04, 10.94 4.23 M20 0 C17.83 1.01, 15.67 2.02, 10.94 4.23 M10.94 4.23 C10.94 1.08, 10.94 -2.07, 10.94 -4.23 M10.94 4.23 C10.94 2.52, 10.94 0.81, 10.94 -4.23 M10.94 -4.23 C14.05 -2.78, 17.16 -1.33, 20 0 M10.94 -4.23 C13.25 -3.15, 15.57 -2.07, 20 0 M20 0 C20 0, 20 0, 20 0 M20 0 C20 0, 20 0, 20 0" stroke="#e03131" stroke-width="4" fill="none"/></g></g><mask/><g stroke-linecap="round"><g transform="translate(30 190) rotate(0 10 0)"><path d="M0 0 C3.33 0, 16.67 0, 20 0 M0 0 C3.33 0, 16.67 0, 20 0" stroke="#e03131" stroke-width="4" fill="none"/></g><g transform="translate(30 190) rotate(0 10 0)"><path d="M20 0 L10.94 4.23 L10.94 -4.23 L20 0" stroke="none" stroke-width="0" fill="#e03131" fill-rule="evenodd"/><path d="M20 0 C17.16 1.32, 14.33 2.65, 10.94 4.23 M20 0 C16.94 1.43, 13.88 2.85, 10.94 4.23 M10.94 4.23 C10.94 2.42, 10.94 0.62, 10.94 -4.23 M10.94 4.23 C10.94 1.97, 10.94 -0.28, 10.94 -4.23 M10.94 -4.23 C13.84 -2.87, 16.75 -1.52, 20 0 M10.94 -4.23 C12.79 -3.36, 14.65 -2.5, 20 0 M20 0 C20 0, 20 0, 20 0 M20 0 C20 0, 20 0, 20 0" stroke="#e03131" stroke-width="4" fill="none"/></g></g><mask/><g stroke-linecap="round"><g transform="translate(10 210) rotate(0 10 0)"><path d="M0 0 C3.33 0, 16.67 0, 20 0 M0 0 C3.33 0, 16.67 0, 20 0" stroke="#e03131" stroke-width="4" fill="none"/></g><g transform="translate(10 210) rotate(0 10 0)"><path d="M20 0 L10.94 4.23 L10.94 -4.23 L20 0" stroke="none" stroke-width="0" fill="#e03131" fill-rule="evenodd"/><path d="M20 0 C18.03 0.92, 16.05 1.84, 10.94 4.23 M20 0 C16.94 1.43, 13.88 2.85, 10.94 4.23 M10.94 4.23 C10.94 2.15, 10.94 0.08, 10.94 -4.23 M10.94 4.23 C10.94 2.37, 10.94 0.52, 10.94 -4.23 M10.94 -4.23 C14.5 -2.56, 18.07 -0.9, 20 0 M10.94 -4.23 C13.84 -2.87, 16.74 -1.52, 20 0 M20 0 C20 0, 20 0, 20 0 M20 0 C20 0, 20 0, 20 0" stroke="#e03131" stroke-width="4" fill="none"/></g></g><mask/></svg>