<svg version="1.1" xmlns="http://www.w3.org/2000/svg" viewBox="0 0 460.0000000000001 278.65277742329783" width="460.0000000000001" height="278.65277742329783" filter="invert(93%) hue-rotate(180deg)" class="excalidraw-svg">
  <!-- svg-source:excalidraw -->
  
  <defs>
    <style class="style-fonts">
      @font-face {
        font-family: "Virgil";
        src: url("https://excalidraw.com/Virgil.woff2");
      }
      @font-face {
        font-family: "Cascadia";
        src: url("https://excalidraw.com/Cascadia.woff2");
      }
      @font-face {
        font-family: "Assistant";
        src: url("https://excalidraw.com/Assistant-Regular.woff2");
      }
    </style>
    
  </defs>
  <g stroke-linecap="round" transform="translate(-29.999999999999964 50.00000000000004) rotate(89.99999999999994 59.99999999999999 19.99999999999997)"><path d="M0 0 C0 0, 0 0, 0 0 M0 0 C0 0, 0 0, 0 0 M0.27 24.08 C7.98 15.21, 15.69 6.34, 21.26 -0.07 M0.27 24.08 C7.45 15.82, 14.63 7.56, 21.26 -0.07 M7.09 40.62 C20.87 24.77, 34.65 8.91, 42.52 -0.14 M7.09 40.62 C20.19 25.55, 33.3 10.47, 42.52 -0.14 M28.35 40.55 C36.69 30.95, 45.04 21.36, 63.78 -0.21 M28.35 40.55 C39.91 27.25, 51.47 13.95, 63.78 -0.21 M49.61 40.48 C57.18 31.77, 64.75 23.06, 85.04 -0.28 M49.61 40.48 C59.82 28.73, 70.04 16.98, 85.04 -0.28 M70.87 40.41 C79.82 30.12, 88.77 19.83, 106.3 -0.34 M70.87 40.41 C81.75 27.89, 92.63 15.38, 106.3 -0.34 M92.13 40.34 C102.26 28.69, 112.4 17.03, 120.34 7.89 M92.13 40.34 C99.27 32.13, 106.41 23.92, 120.34 7.89 M113.39 40.27 C115.38 37.99, 117.37 35.7, 120.61 31.97 M113.39 40.27 C115.26 38.13, 117.12 35.98, 120.61 31.97" stroke="#a5d8ff" stroke-width="2" fill="none"/><path d="M0 0 C42.35 0, 84.7 0, 120 0 M0 0 C44.81 0, 89.62 0, 120 0 M120 0 C120 8.67, 120 17.35, 120 40 M120 0 C120 10.1, 120 20.19, 120 40 M120 40 C79.92 40, 39.84 40, 0 40 M120 40 C75.91 40, 31.82 40, 0 40 M0 40 C0 26.22, 0 12.43, 0 0 M0 40 C0 24.9, 0 9.81, 0 0" stroke="transparent" stroke-width="4" fill="none"/></g><g stroke-linecap="round"><g transform="translate(-10.000000000000071 70.00000000000003) rotate(89.99999999999994 60.00000000000004 4.973799150320701e-14)"><path d="M0 0 C28.31 0, 56.62 0, 120 0 M0 0 C30.86 0, 61.72 0, 120 0" stroke="#1e1e1e" stroke-width="4" fill="none"/></g></g><mask/><g stroke-linecap="round"><g transform="translate(50.00000000000001 70) rotate(0 150 0)"><path d="M0 0 C119.59 0, 239.18 0, 300 0 M0 0 C94.01 0, 188.01 0, 300 0" stroke="#1e1e1e" stroke-width="4" fill="none"/></g></g><mask/><g stroke-linecap="round"><g transform="translate(350.00000000000006 170.00000000000006) rotate(89.99999999999994 50.00000000000003 -49.999999999999936)"><path d="M0 0 C0.19 -3.77, 0.37 -7.55, 0.48 -9.8 M0 0 C0.12 -2.51, 0.25 -5.01, 0.48 -9.8 M0.48 -9.8 C0.99 -13.21, 1.49 -16.63, 1.92 -19.51 M0.48 -9.8 C0.96 -13.02, 1.44 -16.25, 1.92 -19.51 M1.92 -19.51 C2.55 -22.02, 3.18 -24.52, 4.31 -29.03 M1.92 -19.51 C2.57 -22.11, 3.22 -24.71, 4.31 -29.03 M4.31 -29.03 C5.08 -31.2, 5.86 -33.37, 7.61 -38.27 M4.31 -29.03 C5.57 -32.56, 6.84 -36.1, 7.61 -38.27 M7.61 -38.27 C9.22 -41.67, 10.83 -45.07, 11.81 -47.14 M7.61 -38.27 C8.69 -40.56, 9.78 -42.85, 11.81 -47.14 M11.81 -47.14 C13.25 -49.54, 14.69 -51.94, 16.85 -55.56 M11.81 -47.14 C12.99 -49.11, 14.17 -51.08, 16.85 -55.56 M16.85 -55.56 C18.22 -57.4, 19.59 -59.24, 22.7 -63.44 M16.85 -55.56 C18.18 -57.34, 19.5 -59.13, 22.7 -63.44 M22.7 -63.44 C24.64 -65.58, 26.57 -67.71, 29.29 -70.71 M22.7 -63.44 C25.18 -66.17, 27.66 -68.91, 29.29 -70.71 M29.29 -70.71 C31.89 -73.07, 34.5 -75.43, 36.56 -77.3 M29.29 -70.71 C31.41 -72.63, 33.53 -74.56, 36.56 -77.3 M36.56 -77.3 C38.17 -78.5, 39.79 -79.69, 44.44 -83.15 M36.56 -77.3 C38.89 -79.03, 41.21 -80.75, 44.44 -83.15 M44.44 -83.15 C47.4 -84.92, 50.37 -86.7, 52.86 -88.19 M44.44 -83.15 C46.66 -84.48, 48.88 -85.8, 52.86 -88.19 M52.86 -88.19 C55.66 -89.51, 58.45 -90.84, 61.73 -92.39 M52.86 -88.19 C55.29 -89.34, 57.72 -90.49, 61.73 -92.39 M61.73 -92.39 C64.17 -93.26, 66.6 -94.13, 70.97 -95.69 M61.73 -92.39 C64.02 -93.21, 66.31 -94.03, 70.97 -95.69 M70.97 -95.69 C73.6 -96.35, 76.22 -97.01, 80.49 -98.08 M70.97 -95.69 C74.71 -96.63, 78.45 -97.57, 80.49 -98.08 M80.49 -98.08 C84.33 -98.65, 88.17 -99.22, 90.2 -99.52 M80.49 -98.08 C82.9 -98.44, 85.31 -98.79, 90.2 -99.52 M90.2 -99.52 C93.04 -99.66, 95.88 -99.8, 100 -100 M90.2 -99.52 C93.42 -99.68, 96.63 -99.83, 100 -100" stroke="#1e1e1e" stroke-width="4" fill="none"/></g></g><mask/><g stroke-linecap="round"><g transform="translate(51.23925448133359 101.22002814889018) rotate(11.053043083757666 150 -10.107146060470413)"><path d="M0 0 C18.48 -2.77, 74.62 -13.23, 110.86 -16.6 C147.11 -19.97, 185.95 -22.98, 217.47 -20.21 C249 -17.45, 286.25 -3.37, 300 0" stroke="#e03131" stroke-width="4.5" fill="none" stroke-dasharray="1.5 10"/></g></g><mask/><g stroke-linecap="round"><g transform="translate(316.7393410157232 250.35150723407583) rotate(119.99999999999997 50.00000000000003 -49.999999999999936)"><path d="M0 0 C0.1 -2.09, 0.21 -4.18, 0.48 -9.8 M0.48 -9.8 C0.87 -12.39, 1.25 -14.98, 1.92 -19.51 M1.92 -19.51 C2.76 -22.87, 3.61 -26.24, 4.31 -29.03 M4.31 -29.03 C5.28 -31.74, 6.25 -34.45, 7.61 -38.27 M7.61 -38.27 C8.66 -40.48, 9.7 -42.69, 11.81 -47.14 M11.81 -47.14 C13.71 -50.32, 15.62 -53.5, 16.85 -55.56 M16.85 -55.56 C18.65 -57.98, 20.45 -60.41, 22.7 -63.44 M22.7 -63.44 C24.48 -65.4, 26.25 -67.36, 29.29 -70.71 M29.29 -70.71 C31.88 -73.06, 34.48 -75.41, 36.56 -77.3 M36.56 -77.3 C38.58 -78.8, 40.59 -80.29, 44.44 -83.15 M44.44 -83.15 C46.83 -84.58, 49.22 -86.01, 52.86 -88.19 M52.86 -88.19 C54.74 -89.08, 56.61 -89.97, 61.73 -92.39 M61.73 -92.39 C64.35 -93.33, 66.97 -94.26, 70.97 -95.69 M70.97 -95.69 C73.46 -96.32, 75.94 -96.94, 80.49 -98.08 M80.49 -98.08 C83.41 -98.51, 86.34 -98.95, 90.2 -99.52 M90.2 -99.52 C92.46 -99.63, 94.71 -99.74, 100 -100" stroke="#e03131" stroke-width="4.5" fill="none" stroke-dasharray="1.5 10"/></g></g><mask/></svg>