<svg version="1.1" xmlns="http://www.w3.org/2000/svg" viewBox="0 0 300.00000000000006 229.12285925061133" width="300.00000000000006" height="229.12285925061133" filter="invert(93%) hue-rotate(180deg)" class="excalidraw-svg"><!-- svg-source:excalidraw --><metadata></metadata><defs><style class="style-fonts">
      </style></defs><g stroke-linecap="round" transform="translate(10.000000000000028 179.1228592506112) rotate(359.99999999999994 140 19.99999999999997)"><path d="M0 0 C0 0, 0 0, 0 0 M0 0 C0 0, 0 0, 0 0 M0.27 24.08 C8.45 14.67, 16.63 5.25, 21.26 -0.07 M0.27 24.08 C7.11 16.21, 13.96 8.33, 21.26 -0.07 M7.09 40.62 C16.83 29.42, 26.57 18.21, 42.52 -0.14 M7.09 40.62 C15.51 30.94, 23.92 21.26, 42.52 -0.14 M28.35 40.55 C35.89 31.88, 43.42 23.21, 63.78 -0.21 M28.35 40.55 C42.19 24.63, 56.04 8.7, 63.78 -0.21 M49.61 40.48 C62.98 25.1, 76.34 9.73, 85.04 -0.28 M49.61 40.48 C58.58 30.17, 67.54 19.86, 85.04 -0.28 M70.87 40.41 C79.75 30.2, 88.62 20, 106.3 -0.34 M70.87 40.41 C83.36 26.05, 95.84 11.68, 106.3 -0.34 M92.13 40.34 C105.52 24.94, 118.91 9.54, 126.91 0.34 M92.13 40.34 C103.09 27.74, 114.04 15.14, 126.91 0.34 M113.39 40.27 C126.15 25.6, 138.9 10.93, 148.17 0.27 M113.39 40.27 C123.9 28.18, 134.41 16.09, 148.17 0.27 M134.65 40.2 C147.78 25.11, 160.9 10.01, 169.43 0.2 M134.65 40.2 C143.3 30.25, 151.95 20.3, 169.43 0.2 M155.91 40.13 C168.32 25.86, 180.72 11.59, 190.69 0.13 M155.91 40.13 C166.34 28.14, 176.76 16.16, 190.69 0.13 M176.52 40.82 C189.46 25.93, 202.4 11.05, 211.95 0.06 M176.52 40.82 C185.32 30.7, 194.12 20.58, 211.95 0.06 M197.78 40.75 C210.06 26.62, 222.34 12.5, 233.21 0 M197.78 40.75 C211.01 25.53, 224.23 10.32, 233.21 0 M219.04 40.68 C229.32 28.85, 239.61 17.02, 254.47 -0.07 M219.04 40.68 C228.84 29.41, 238.64 18.14, 254.47 -0.07 M240.3 40.61 C254.26 24.56, 268.21 8.5, 275.73 -0.14 M240.3 40.61 C251.65 27.56, 263 14.5, 275.73 -0.14 M261.56 40.54 C265.86 35.6, 270.15 30.66, 280.58 18.66 M261.56 40.54 C266.6 34.74, 271.64 28.94, 280.58 18.66" stroke="#a5d8ff" stroke-width="2" fill="none"></path><path d="M0 0 C104.84 0, 209.67 0, 280 0 M0 0 C97.56 0, 195.11 0, 280 0 M280 0 C280 15.59, 280 31.19, 280 40 M280 0 C280 14.73, 280 29.47, 280 40 M280 40 C189.08 40, 98.17 40, 0 40 M280 40 C199.18 40, 118.36 40, 0 40 M0 40 C0 30.03, 0 20.06, 0 0 M0 40 C0 30.54, 0 21.08, 0 0" stroke="transparent" stroke-width="4" fill="none"></path></g><g stroke-linecap="round"><g transform="translate(10.000000000000014 179.12285925061113) rotate(359.99999999999994 140 1.2608174420820858e-13)"><path d="M0 0 C56.76 0, 113.53 0, 280 0 M0 0 C62.37 0, 124.74 0, 280 0" stroke="#1e1e1e" stroke-width="4" fill="none"></path></g></g><mask></mask><g stroke-linecap="round" transform="translate(43.306776233855715 88.19566122824011) rotate(22.619940010853767 10 50)"><path d="M0 0 L20 0 L20 100 L0 100" stroke="none" stroke-width="0" fill="#a5d8ff"></path><path d="M0 0 C6.28 0, 12.55 0, 20 0 M0 0 C4.33 0, 8.67 0, 20 0 M20 0 C20 31.9, 20 63.8, 20 100 M20 0 C20 34.71, 20 69.42, 20 100 M20 100 C12.99 100, 5.97 100, 0 100 M20 100 C14.82 100, 9.64 100, 0 100 M0 100 C0 78.72, 0 57.44, 0 0 M0 100 C0 78.31, 0 56.63, 0 0" stroke="#1e1e1e" stroke-width="4" fill="none"></path></g><g stroke-linecap="round" transform="translate(119.99948438386218 -16.503590919776514) rotate(60.05243704447354 10 80)"><path d="M0 0 L20 0 L20 160 L0 160" stroke="none" stroke-width="0" fill="#a5d8ff"></path><path d="M0 0 C7.76 0, 15.52 0, 20 0 M0 0 C6.55 0, 13.09 0, 20 0 M20 0 C20 32.21, 20 64.42, 20 160 M20 0 C20 59.58, 20 119.16, 20 160 M20 160 C12.88 160, 5.77 160, 0 160 M20 160 C14.9 160, 9.81 160, 0 160 M0 160 C0 114.76, 0 69.51, 0 0 M0 160 C0 100.11, 0 40.21, 0 0" stroke="#1e1e1e" stroke-width="4" fill="none"></path></g><g stroke-linecap="round" transform="translate(205.62645017038773 10.05982752146906) rotate(347.67216700948705 10 90)"><path d="M0 0 L20 0 L20 180 L0 180" stroke="none" stroke-width="0" fill="#a5d8ff"></path><path d="M0 0 C5.45 0, 10.9 0, 20 0 M0 0 C6.28 0, 12.57 0, 20 0 M20 0 C20 63.28, 20 126.56, 20 180 M20 0 C20 37.8, 20 75.61, 20 180 M20 180 C13.33 180, 6.66 180, 0 180 M20 180 C12.58 180, 5.16 180, 0 180 M0 180 C0 131.31, 0 82.62, 0 0 M0 180 C0 119.49, 0 58.97, 0 0" stroke="#1e1e1e" stroke-width="4" fill="none"></path></g><g stroke-linecap="round" transform="translate(67.48218195503644 97.0900276825601) rotate(0 1.7286247703906312 1.7286247703906312)"><path d="M3.46 1.73 C3.46 1.83, 3.45 1.93, 3.43 2.03 C3.41 2.13, 3.39 2.23, 3.35 2.32 C3.32 2.41, 3.28 2.51, 3.23 2.59 C3.18 2.68, 3.12 2.76, 3.05 2.84 C2.99 2.92, 2.92 2.99, 2.84 3.05 C2.76 3.12, 2.68 3.18, 2.59 3.23 C2.51 3.28, 2.41 3.32, 2.32 3.35 C2.23 3.39, 2.13 3.41, 2.03 3.43 C1.93 3.45, 1.83 3.46, 1.73 3.46 C1.63 3.46, 1.53 3.45, 1.43 3.43 C1.33 3.41, 1.23 3.39, 1.14 3.35 C1.04 3.32, 0.95 3.28, 0.86 3.23 C0.78 3.18, 0.69 3.12, 0.62 3.05 C0.54 2.99, 0.47 2.92, 0.4 2.84 C0.34 2.76, 0.28 2.68, 0.23 2.59 C0.18 2.51, 0.14 2.41, 0.1 2.32 C0.07 2.23, 0.04 2.13, 0.03 2.03 C0.01 1.93, 0 1.83, 0 1.73 C0 1.63, 0.01 1.53, 0.03 1.43 C0.04 1.33, 0.07 1.23, 0.1 1.14 C0.14 1.04, 0.18 0.95, 0.23 0.86 C0.28 0.78, 0.34 0.69, 0.4 0.62 C0.47 0.54, 0.54 0.47, 0.62 0.4 C0.69 0.34, 0.78 0.28, 0.86 0.23 C0.95 0.18, 1.04 0.14, 1.14 0.1 C1.23 0.07, 1.33 0.04, 1.43 0.03 C1.53 0.01, 1.63 0, 1.73 0 C1.83 0, 1.93 0.01, 2.03 0.03 C2.13 0.04, 2.23 0.07, 2.32 0.1 C2.41 0.14, 2.51 0.18, 2.59 0.23 C2.68 0.28, 2.76 0.34, 2.84 0.4 C2.92 0.47, 2.99 0.54, 3.05 0.62 C3.12 0.69, 3.18 0.78, 3.23 0.86 C3.28 0.95, 3.32 1.04, 3.35 1.14 C3.39 1.23, 3.41 1.33, 3.43 1.43 C3.45 1.53, 3.45 1.68, 3.46 1.73 C3.46 1.78, 3.46 1.68, 3.46 1.73" stroke="none" stroke-width="0" fill="#a5d8ff"></path><path d="M3.46 1.73 C3.46 1.83, 3.45 1.93, 3.43 2.03 C3.41 2.13, 3.39 2.23, 3.35 2.32 C3.32 2.41, 3.28 2.51, 3.23 2.59 C3.18 2.68, 3.12 2.76, 3.05 2.84 C2.99 2.92, 2.92 2.99, 2.84 3.05 C2.76 3.12, 2.68 3.18, 2.59 3.23 C2.51 3.28, 2.41 3.32, 2.32 3.35 C2.23 3.39, 2.13 3.41, 2.03 3.43 C1.93 3.45, 1.83 3.46, 1.73 3.46 C1.63 3.46, 1.53 3.45, 1.43 3.43 C1.33 3.41, 1.23 3.39, 1.14 3.35 C1.04 3.32, 0.95 3.28, 0.86 3.23 C0.78 3.18, 0.69 3.12, 0.62 3.05 C0.54 2.99, 0.47 2.92, 0.4 2.84 C0.34 2.76, 0.28 2.68, 0.23 2.59 C0.18 2.51, 0.14 2.41, 0.1 2.32 C0.07 2.23, 0.04 2.13, 0.03 2.03 C0.01 1.93, 0 1.83, 0 1.73 C0 1.63, 0.01 1.53, 0.03 1.43 C0.04 1.33, 0.07 1.23, 0.1 1.14 C0.14 1.04, 0.18 0.95, 0.23 0.86 C0.28 0.78, 0.34 0.69, 0.4 0.62 C0.47 0.54, 0.54 0.47, 0.62 0.4 C0.69 0.34, 0.78 0.28, 0.86 0.23 C0.95 0.18, 1.04 0.14, 1.14 0.1 C1.23 0.07, 1.33 0.04, 1.43 0.03 C1.53 0.01, 1.63 0, 1.73 0 C1.83 0, 1.93 0.01, 2.03 0.03 C2.13 0.04, 2.23 0.07, 2.32 0.1 C2.41 0.14, 2.51 0.18, 2.59 0.23 C2.68 0.28, 2.76 0.34, 2.84 0.4 C2.92 0.47, 2.99 0.54, 3.05 0.62 C3.12 0.69, 3.18 0.78, 3.23 0.86 C3.28 0.95, 3.32 1.04, 3.35 1.14 C3.39 1.23, 3.41 1.33, 3.43 1.43 C3.45 1.53, 3.45 1.68, 3.46 1.73 C3.46 1.78, 3.46 1.68, 3.46 1.73" stroke="#1e1e1e" stroke-width="4" fill="none"></path></g><g stroke-linecap="round" transform="translate(198.1046005067434 23.174589848412808) rotate(0 1.7286247703906312 1.7286247703906241)"><path d="M3.46 1.73 C3.46 1.83, 3.45 1.93, 3.43 2.03 C3.41 2.13, 3.39 2.23, 3.35 2.32 C3.32 2.41, 3.28 2.51, 3.23 2.59 C3.18 2.68, 3.12 2.76, 3.05 2.84 C2.99 2.92, 2.92 2.99, 2.84 3.05 C2.76 3.12, 2.68 3.18, 2.59 3.23 C2.51 3.28, 2.41 3.32, 2.32 3.35 C2.23 3.39, 2.13 3.41, 2.03 3.43 C1.93 3.45, 1.83 3.46, 1.73 3.46 C1.63 3.46, 1.53 3.45, 1.43 3.43 C1.33 3.41, 1.23 3.39, 1.14 3.35 C1.04 3.32, 0.95 3.28, 0.86 3.23 C0.78 3.18, 0.69 3.12, 0.62 3.05 C0.54 2.99, 0.47 2.92, 0.4 2.84 C0.34 2.76, 0.28 2.68, 0.23 2.59 C0.18 2.51, 0.14 2.41, 0.1 2.32 C0.07 2.23, 0.04 2.13, 0.03 2.03 C0.01 1.93, 0 1.83, 0 1.73 C0 1.63, 0.01 1.53, 0.03 1.43 C0.04 1.33, 0.07 1.23, 0.1 1.14 C0.14 1.04, 0.18 0.95, 0.23 0.86 C0.28 0.78, 0.34 0.69, 0.4 0.62 C0.47 0.54, 0.54 0.47, 0.62 0.4 C0.69 0.34, 0.78 0.28, 0.86 0.23 C0.95 0.18, 1.04 0.14, 1.14 0.1 C1.23 0.07, 1.33 0.04, 1.43 0.03 C1.53 0.01, 1.63 0, 1.73 0 C1.83 0, 1.93 0.01, 2.03 0.03 C2.13 0.04, 2.23 0.07, 2.32 0.1 C2.41 0.14, 2.51 0.18, 2.59 0.23 C2.68 0.28, 2.76 0.34, 2.84 0.4 C2.92 0.47, 2.99 0.54, 3.05 0.62 C3.12 0.69, 3.18 0.78, 3.23 0.86 C3.28 0.95, 3.32 1.04, 3.35 1.14 C3.39 1.23, 3.41 1.33, 3.43 1.43 C3.45 1.53, 3.45 1.68, 3.46 1.73 C3.46 1.78, 3.46 1.68, 3.46 1.73" stroke="none" stroke-width="0" fill="#a5d8ff"></path><path d="M3.46 1.73 C3.46 1.83, 3.45 1.93, 3.43 2.03 C3.41 2.13, 3.39 2.23, 3.35 2.32 C3.32 2.41, 3.28 2.51, 3.23 2.59 C3.18 2.68, 3.12 2.76, 3.05 2.84 C2.99 2.92, 2.92 2.99, 2.84 3.05 C2.76 3.12, 2.68 3.18, 2.59 3.23 C2.51 3.28, 2.41 3.32, 2.32 3.35 C2.23 3.39, 2.13 3.41, 2.03 3.43 C1.93 3.45, 1.83 3.46, 1.73 3.46 C1.63 3.46, 1.53 3.45, 1.43 3.43 C1.33 3.41, 1.23 3.39, 1.14 3.35 C1.04 3.32, 0.95 3.28, 0.86 3.23 C0.78 3.18, 0.69 3.12, 0.62 3.05 C0.54 2.99, 0.47 2.92, 0.4 2.84 C0.34 2.76, 0.28 2.68, 0.23 2.59 C0.18 2.51, 0.14 2.41, 0.1 2.32 C0.07 2.23, 0.04 2.13, 0.03 2.03 C0.01 1.93, 0 1.83, 0 1.73 C0 1.63, 0.01 1.53, 0.03 1.43 C0.04 1.33, 0.07 1.23, 0.1 1.14 C0.14 1.04, 0.18 0.95, 0.23 0.86 C0.28 0.78, 0.34 0.69, 0.4 0.62 C0.47 0.54, 0.54 0.47, 0.62 0.4 C0.69 0.34, 0.78 0.28, 0.86 0.23 C0.95 0.18, 1.04 0.14, 1.14 0.1 C1.23 0.07, 1.33 0.04, 1.43 0.03 C1.53 0.01, 1.63 0, 1.73 0 C1.83 0, 1.93 0.01, 2.03 0.03 C2.13 0.04, 2.23 0.07, 2.32 0.1 C2.41 0.14, 2.51 0.18, 2.59 0.23 C2.68 0.28, 2.76 0.34, 2.84 0.4 C2.92 0.47, 2.99 0.54, 3.05 0.62 C3.12 0.69, 3.18 0.78, 3.23 0.86 C3.28 0.95, 3.32 1.04, 3.35 1.14 C3.39 1.23, 3.41 1.33, 3.43 1.43 C3.45 1.53, 3.45 1.68, 3.46 1.73 C3.46 1.78, 3.46 1.68, 3.46 1.73" stroke="#1e1e1e" stroke-width="4" fill="none"></path></g><g stroke-linecap="round" transform="translate(231.17160790313093 177.08839818977208) rotate(0 1.7286247703906312 1.7286247703906312)"><path d="M3.46 1.73 C3.46 1.83, 3.45 1.93, 3.43 2.03 C3.41 2.13, 3.39 2.23, 3.35 2.32 C3.32 2.41, 3.28 2.51, 3.23 2.59 C3.18 2.68, 3.12 2.76, 3.05 2.84 C2.99 2.92, 2.92 2.99, 2.84 3.05 C2.76 3.12, 2.68 3.18, 2.59 3.23 C2.51 3.28, 2.41 3.32, 2.32 3.35 C2.23 3.39, 2.13 3.41, 2.03 3.43 C1.93 3.45, 1.83 3.46, 1.73 3.46 C1.63 3.46, 1.53 3.45, 1.43 3.43 C1.33 3.41, 1.23 3.39, 1.14 3.35 C1.04 3.32, 0.95 3.28, 0.86 3.23 C0.78 3.18, 0.69 3.12, 0.62 3.05 C0.54 2.99, 0.47 2.92, 0.4 2.84 C0.34 2.76, 0.28 2.68, 0.23 2.59 C0.18 2.51, 0.14 2.41, 0.1 2.32 C0.07 2.23, 0.04 2.13, 0.03 2.03 C0.01 1.93, 0 1.83, 0 1.73 C0 1.63, 0.01 1.53, 0.03 1.43 C0.04 1.33, 0.07 1.23, 0.1 1.14 C0.14 1.04, 0.18 0.95, 0.23 0.86 C0.28 0.78, 0.34 0.69, 0.4 0.62 C0.47 0.54, 0.54 0.47, 0.62 0.4 C0.69 0.34, 0.78 0.28, 0.86 0.23 C0.95 0.18, 1.04 0.14, 1.14 0.1 C1.23 0.07, 1.33 0.04, 1.43 0.03 C1.53 0.01, 1.63 0, 1.73 0 C1.83 0, 1.93 0.01, 2.03 0.03 C2.13 0.04, 2.23 0.07, 2.32 0.1 C2.41 0.14, 2.51 0.18, 2.59 0.23 C2.68 0.28, 2.76 0.34, 2.84 0.4 C2.92 0.47, 2.99 0.54, 3.05 0.62 C3.12 0.69, 3.18 0.78, 3.23 0.86 C3.28 0.95, 3.32 1.04, 3.35 1.14 C3.39 1.23, 3.41 1.33, 3.43 1.43 C3.45 1.53, 3.45 1.68, 3.46 1.73 C3.46 1.78, 3.46 1.68, 3.46 1.73" stroke="none" stroke-width="0" fill="#a5d8ff"></path><path d="M3.46 1.73 C3.46 1.83, 3.45 1.93, 3.43 2.03 C3.41 2.13, 3.39 2.23, 3.35 2.32 C3.32 2.41, 3.28 2.51, 3.23 2.59 C3.18 2.68, 3.12 2.76, 3.05 2.84 C2.99 2.92, 2.92 2.99, 2.84 3.05 C2.76 3.12, 2.68 3.18, 2.59 3.23 C2.51 3.28, 2.41 3.32, 2.32 3.35 C2.23 3.39, 2.13 3.41, 2.03 3.43 C1.93 3.45, 1.83 3.46, 1.73 3.46 C1.63 3.46, 1.53 3.45, 1.43 3.43 C1.33 3.41, 1.23 3.39, 1.14 3.35 C1.04 3.32, 0.95 3.28, 0.86 3.23 C0.78 3.18, 0.69 3.12, 0.62 3.05 C0.54 2.99, 0.47 2.92, 0.4 2.84 C0.34 2.76, 0.28 2.68, 0.23 2.59 C0.18 2.51, 0.14 2.41, 0.1 2.32 C0.07 2.23, 0.04 2.13, 0.03 2.03 C0.01 1.93, 0 1.83, 0 1.73 C0 1.63, 0.01 1.53, 0.03 1.43 C0.04 1.33, 0.07 1.23, 0.1 1.14 C0.14 1.04, 0.18 0.95, 0.23 0.86 C0.28 0.78, 0.34 0.69, 0.4 0.62 C0.47 0.54, 0.54 0.47, 0.62 0.4 C0.69 0.34, 0.78 0.28, 0.86 0.23 C0.95 0.18, 1.04 0.14, 1.14 0.1 C1.23 0.07, 1.33 0.04, 1.43 0.03 C1.53 0.01, 1.63 0, 1.73 0 C1.83 0, 1.93 0.01, 2.03 0.03 C2.13 0.04, 2.23 0.07, 2.32 0.1 C2.41 0.14, 2.51 0.18, 2.59 0.23 C2.68 0.28, 2.76 0.34, 2.84 0.4 C2.92 0.47, 2.99 0.54, 3.05 0.62 C3.12 0.69, 3.18 0.78, 3.23 0.86 C3.28 0.95, 3.32 1.04, 3.35 1.14 C3.39 1.23, 3.41 1.33, 3.43 1.43 C3.45 1.53, 3.45 1.68, 3.46 1.73 C3.46 1.78, 3.46 1.68, 3.46 1.73" stroke="#1e1e1e" stroke-width="4" fill="none"></path></g><g stroke-linecap="round" transform="translate(36.118424201809404 174.57544648913495) rotate(0 1.7286247703906312 1.7286247703906312)"><path d="M3.46 1.73 C3.46 1.83, 3.45 1.93, 3.43 2.03 C3.41 2.13, 3.39 2.23, 3.35 2.32 C3.32 2.41, 3.28 2.51, 3.23 2.59 C3.18 2.68, 3.12 2.76, 3.05 2.84 C2.99 2.92, 2.92 2.99, 2.84 3.05 C2.76 3.12, 2.68 3.18, 2.59 3.23 C2.51 3.28, 2.41 3.32, 2.32 3.35 C2.23 3.39, 2.13 3.41, 2.03 3.43 C1.93 3.45, 1.83 3.46, 1.73 3.46 C1.63 3.46, 1.53 3.45, 1.43 3.43 C1.33 3.41, 1.23 3.39, 1.14 3.35 C1.04 3.32, 0.95 3.28, 0.86 3.23 C0.78 3.18, 0.69 3.12, 0.62 3.05 C0.54 2.99, 0.47 2.92, 0.4 2.84 C0.34 2.76, 0.28 2.68, 0.23 2.59 C0.18 2.51, 0.14 2.41, 0.1 2.32 C0.07 2.23, 0.04 2.13, 0.03 2.03 C0.01 1.93, 0 1.83, 0 1.73 C0 1.63, 0.01 1.53, 0.03 1.43 C0.04 1.33, 0.07 1.23, 0.1 1.14 C0.14 1.04, 0.18 0.95, 0.23 0.86 C0.28 0.78, 0.34 0.69, 0.4 0.62 C0.47 0.54, 0.54 0.47, 0.62 0.4 C0.69 0.34, 0.78 0.28, 0.86 0.23 C0.95 0.18, 1.04 0.14, 1.14 0.1 C1.23 0.07, 1.33 0.04, 1.43 0.03 C1.53 0.01, 1.63 0, 1.73 0 C1.83 0, 1.93 0.01, 2.03 0.03 C2.13 0.04, 2.23 0.07, 2.32 0.1 C2.41 0.14, 2.51 0.18, 2.59 0.23 C2.68 0.28, 2.76 0.34, 2.84 0.4 C2.92 0.47, 2.99 0.54, 3.05 0.62 C3.12 0.69, 3.18 0.78, 3.23 0.86 C3.28 0.95, 3.32 1.04, 3.35 1.14 C3.39 1.23, 3.41 1.33, 3.43 1.43 C3.45 1.53, 3.45 1.68, 3.46 1.73 C3.46 1.78, 3.46 1.68, 3.46 1.73" stroke="none" stroke-width="0" fill="#a5d8ff"></path><path d="M3.46 1.73 C3.46 1.83, 3.45 1.93, 3.43 2.03 C3.41 2.13, 3.39 2.23, 3.35 2.32 C3.32 2.41, 3.28 2.51, 3.23 2.59 C3.18 2.68, 3.12 2.76, 3.05 2.84 C2.99 2.92, 2.92 2.99, 2.84 3.05 C2.76 3.12, 2.68 3.18, 2.59 3.23 C2.51 3.28, 2.41 3.32, 2.32 3.35 C2.23 3.39, 2.13 3.41, 2.03 3.43 C1.93 3.45, 1.83 3.46, 1.73 3.46 C1.63 3.46, 1.53 3.45, 1.43 3.43 C1.33 3.41, 1.23 3.39, 1.14 3.35 C1.04 3.32, 0.95 3.28, 0.86 3.23 C0.78 3.18, 0.69 3.12, 0.62 3.05 C0.54 2.99, 0.47 2.92, 0.4 2.84 C0.34 2.76, 0.28 2.68, 0.23 2.59 C0.18 2.51, 0.14 2.41, 0.1 2.32 C0.07 2.23, 0.04 2.13, 0.03 2.03 C0.01 1.93, 0 1.83, 0 1.73 C0 1.63, 0.01 1.53, 0.03 1.43 C0.04 1.33, 0.07 1.23, 0.1 1.14 C0.14 1.04, 0.18 0.95, 0.23 0.86 C0.28 0.78, 0.34 0.69, 0.4 0.62 C0.47 0.54, 0.54 0.47, 0.62 0.4 C0.69 0.34, 0.78 0.28, 0.86 0.23 C0.95 0.18, 1.04 0.14, 1.14 0.1 C1.23 0.07, 1.33 0.04, 1.43 0.03 C1.53 0.01, 1.63 0, 1.73 0 C1.83 0, 1.93 0.01, 2.03 0.03 C2.13 0.04, 2.23 0.07, 2.32 0.1 C2.41 0.14, 2.51 0.18, 2.59 0.23 C2.68 0.28, 2.76 0.34, 2.84 0.4 C2.92 0.47, 2.99 0.54, 3.05 0.62 C3.12 0.69, 3.18 0.78, 3.23 0.86 C3.28 0.95, 3.32 1.04, 3.35 1.14 C3.39 1.23, 3.41 1.33, 3.43 1.43 C3.45 1.53, 3.45 1.68, 3.46 1.73 C3.46 1.78, 3.46 1.68, 3.46 1.73" stroke="#1e1e1e" stroke-width="4" fill="none"></path></g></svg>