<svg version="1.1" xmlns="http://www.w3.org/2000/svg" viewBox="0 0 420.00000000000006 1180" width="420.00000000000006" height="1180" filter="invert(93%) hue-rotate(180deg)" class="excalidraw-svg"><!-- svg-source:excalidraw --><metadata></metadata><defs><style class="style-fonts">
      </style></defs><g stroke-linecap="round" transform="translate(190 990) rotate(270 20 160)"><path d="M0 0 C0 0, 0 0, 0 0 M0 0 C0 0, 0 0, 0 0 M0.27 24.08 C6.28 17.16, 12.3 10.24, 21.26 -0.07 M0.27 24.08 C5.57 17.98, 10.88 11.88, 21.26 -0.07 M-0.12 48.92 C15.05 31.46, 30.22 14.01, 40.55 2.13 M-0.12 48.92 C11.95 35.03, 24.03 21.14, 40.55 2.13 M0.14 73 C13.98 57.08, 27.82 41.17, 40.82 26.21 M0.14 73 C15.13 55.76, 30.11 38.52, 40.82 26.21 M-0.25 97.84 C8.34 87.96, 16.92 78.09, 40.43 51.04 M-0.25 97.84 C9.96 86.09, 20.17 74.34, 40.43 51.04 M0.02 121.92 C10.7 109.64, 21.37 97.35, 40.69 75.13 M0.02 121.92 C10.81 109.51, 21.59 97.1, 40.69 75.13 M0.29 146 C16.05 127.87, 31.8 109.74, 40.31 99.96 M0.29 146 C16.28 127.6, 32.28 109.2, 40.31 99.96 M-0.1 170.84 C11.91 157.01, 23.93 143.19, 40.57 124.04 M-0.1 170.84 C9.76 159.49, 19.63 148.14, 40.57 124.04 M0.16 194.92 C9.03 184.72, 17.89 174.53, 40.84 148.13 M0.16 194.92 C12.88 180.29, 25.59 165.66, 40.84 148.13 M-0.23 219.75 C13.62 203.83, 27.46 187.9, 40.45 172.96 M-0.23 219.75 C15.66 201.48, 31.54 183.21, 40.45 172.96 M0.04 243.84 C13.84 227.96, 27.65 212.08, 40.71 197.04 M0.04 243.84 C10.22 232.13, 20.39 220.42, 40.71 197.04 M0.3 267.92 C14.63 251.44, 28.95 234.97, 40.32 221.88 M0.3 267.92 C15.91 249.97, 31.51 232.02, 40.32 221.88 M-0.08 292.75 C15.11 275.27, 30.31 257.79, 40.59 245.96 M-0.08 292.75 C14.7 275.75, 29.49 258.74, 40.59 245.96 M0.18 316.84 C15.15 299.61, 30.13 282.39, 40.86 270.04 M0.18 316.84 C12.87 302.24, 25.56 287.65, 40.86 270.04 M18.82 319.79 C25.21 312.43, 31.61 305.08, 40.47 294.88 M18.82 319.79 C25.19 312.46, 31.55 305.13, 40.47 294.88 M40.08 319.72 C40.24 319.53, 40.41 319.34, 40.73 318.96 M40.08 319.72 C40.22 319.55, 40.36 319.39, 40.73 318.96" stroke="#a5d8ff" stroke-width="2" fill="none"></path><path d="M0 0 C14.07 0, 28.13 0, 40 0 M0 0 C10.52 0, 21.03 0, 40 0 M40 0 C40 100.59, 40 201.18, 40 320 M40 0 C40 102.35, 40 204.71, 40 320 M40 320 C26.34 320, 12.68 320, 0 320 M40 320 C26.16 320, 12.32 320, 0 320 M0 320 C0 217.93, 0 115.86, 0 0 M0 320 C0 253.03, 0 186.07, 0 0" stroke="transparent" stroke-width="4" fill="none"></path></g><g stroke-linecap="round" transform="translate(370.00000000000006 810) rotate(180 20 160)"><path d="M0 0 C0 0, 0 0, 0 0 M0 0 C0 0, 0 0, 0 0 M0.27 24.08 C6.49 16.92, 12.72 9.76, 21.26 -0.07 M0.27 24.08 C4.89 18.76, 9.52 13.44, 21.26 -0.07 M-0.12 48.92 C10.85 36.3, 21.82 23.67, 40.55 2.13 M-0.12 48.92 C11.24 35.84, 22.61 22.76, 40.55 2.13 M0.14 73 C14.18 56.85, 28.22 40.7, 40.82 26.21 M0.14 73 C10.63 60.93, 21.12 48.87, 40.82 26.21 M-0.25 97.84 C15.21 80.05, 30.67 62.27, 40.43 51.04 M-0.25 97.84 C8.22 88.1, 16.68 78.36, 40.43 51.04 M0.02 121.92 C9.34 111.2, 18.66 100.48, 40.69 75.13 M0.02 121.92 C11.24 109.01, 22.46 96.1, 40.69 75.13 M0.29 146 C12.83 131.57, 25.36 117.15, 40.31 99.96 M0.29 146 C9.55 135.35, 18.81 124.7, 40.31 99.96 M-0.1 170.84 C15.71 152.65, 31.51 134.46, 40.57 124.04 M-0.1 170.84 C8.05 161.46, 16.2 152.08, 40.57 124.04 M0.16 194.92 C12.96 180.19, 25.77 165.46, 40.84 148.13 M0.16 194.92 C16.26 176.4, 32.36 157.88, 40.84 148.13 M-0.23 219.75 C8.87 209.29, 17.97 198.83, 40.45 172.96 M-0.23 219.75 C9.87 208.14, 19.96 196.53, 40.45 172.96 M0.04 243.84 C11.78 230.33, 23.52 216.82, 40.71 197.04 M0.04 243.84 C13.79 228.02, 27.54 212.19, 40.71 197.04 M0.3 267.92 C12.04 254.42, 23.77 240.93, 40.32 221.88 M0.3 267.92 C13.37 252.89, 26.43 237.86, 40.32 221.88 M-0.08 292.75 C16.14 274.09, 32.37 255.42, 40.59 245.96 M-0.08 292.75 C11.55 279.37, 23.19 265.98, 40.59 245.96 M0.18 316.84 C13.02 302.07, 25.86 287.3, 40.86 270.04 M0.18 316.84 C9.66 305.93, 19.14 295.03, 40.86 270.04 M18.82 319.79 C24.64 313.09, 30.46 306.4, 40.47 294.88 M18.82 319.79 C24.4 313.36, 29.98 306.94, 40.47 294.88 M40.08 319.72 C40.32 319.44, 40.56 319.16, 40.73 318.96 M40.08 319.72 C40.25 319.52, 40.41 319.33, 40.73 318.96" stroke="#a5d8ff" stroke-width="2" fill="none"></path><path d="M0 0 C12.68 0, 25.36 0, 40 0 M0 0 C10.32 0, 20.64 0, 40 0 M40 0 C40 108.88, 40 217.76, 40 320 M40 0 C40 75.53, 40 151.06, 40 320 M40 320 C30.61 320, 21.21 320, 0 320 M40 320 C29.03 320, 18.06 320, 0 320 M0 320 C0 255.34, 0 190.68, 0 0 M0 320 C0 215.03, 0 110.06, 0 0" stroke="transparent" stroke-width="4" fill="none"></path></g><g stroke-linecap="round"><g transform="translate(270 170) rotate(0 50 0)"><path d="M0 0 C22.96 0, 45.91 0, 100 0 M0 0 C39.29 0, 78.58 0, 100 0" stroke="#1971c2" stroke-width="4" fill="none"></path></g></g><mask></mask><g stroke-linecap="round"><g transform="translate(210 10) rotate(0 0 50)"><path d="M0 0 C0 31.36, 0 62.73, 0 100 M0 0 C0 20.78, 0 41.56, 0 100" stroke="#1971c2" stroke-width="4" fill="none"></path></g></g><mask></mask><g stroke-linecap="round" transform="translate(370 10) rotate(0 20 160)"><path d="M0 0 C0 0, 0 0, 0 0 M0 0 C0 0, 0 0, 0 0 M0.27 24.08 C5.59 17.96, 10.91 11.84, 21.26 -0.07 M0.27 24.08 C7.03 16.31, 13.78 8.53, 21.26 -0.07 M-0.12 48.92 C11.2 35.89, 22.53 22.86, 40.55 2.13 M-0.12 48.92 C14.4 32.21, 28.93 15.5, 40.55 2.13 M0.14 73 C13.41 57.73, 26.68 42.47, 40.82 26.21 M0.14 73 C8.7 63.16, 17.25 53.32, 40.82 26.21 M-0.25 97.84 C9.17 87, 18.58 76.17, 40.43 51.04 M-0.25 97.84 C9.59 86.52, 19.42 75.21, 40.43 51.04 M0.02 121.92 C14.13 105.69, 28.24 89.45, 40.69 75.13 M0.02 121.92 C14.37 105.41, 28.73 88.9, 40.69 75.13 M0.29 146 C11.28 133.35, 22.27 120.71, 40.31 99.96 M0.29 146 C14.49 129.65, 28.7 113.31, 40.31 99.96 M-0.1 170.84 C16.07 152.23, 32.24 133.62, 40.57 124.04 M-0.1 170.84 C13.66 155, 27.43 139.17, 40.57 124.04 M0.16 194.92 C8.73 185.06, 17.29 175.21, 40.84 148.13 M0.16 194.92 C9.94 183.66, 19.73 172.41, 40.84 148.13 M-0.23 219.75 C10 207.99, 20.22 196.23, 40.45 172.96 M-0.23 219.75 C8.52 209.69, 17.27 199.62, 40.45 172.96 M0.04 243.84 C9.49 232.96, 18.94 222.09, 40.71 197.04 M0.04 243.84 C8.22 234.43, 16.39 225.02, 40.71 197.04 M0.3 267.92 C15.18 250.81, 30.05 233.7, 40.32 221.88 M0.3 267.92 C11.94 254.54, 23.57 241.16, 40.32 221.88 M-0.08 292.75 C13.09 277.59, 26.27 262.43, 40.59 245.96 M-0.08 292.75 C12.07 278.77, 24.23 264.79, 40.59 245.96 M0.18 316.84 C12.89 302.21, 25.61 287.59, 40.86 270.04 M0.18 316.84 C13.68 301.31, 27.17 285.78, 40.86 270.04 M18.82 319.79 C24.44 313.32, 30.07 306.85, 40.47 294.88 M18.82 319.79 C26.52 310.93, 34.21 302.07, 40.47 294.88 M40.08 319.72 C40.29 319.48, 40.5 319.24, 40.73 318.96 M40.08 319.72 C40.32 319.44, 40.56 319.17, 40.73 318.96" stroke="#a5d8ff" stroke-width="2" fill="none"></path><path d="M0 0 C15.74 0, 31.47 0, 40 0 M0 0 C9.23 0, 18.46 0, 40 0 M40 0 C40 88.05, 40 176.1, 40 320 M40 0 C40 79.79, 40 159.58, 40 320 M40 320 C24.58 320, 9.17 320, 0 320 M40 320 C28.13 320, 16.26 320, 0 320 M0 320 C0 212.25, 0 104.51, 0 0 M0 320 C0 205.34, 0 90.68, 0 0" stroke="transparent" stroke-width="4" fill="none"></path></g><g stroke-linecap="round" transform="translate(10 10) rotate(0 20 160)"><path d="M0 0 C0 0, 0 0, 0 0 M0 0 C0 0, 0 0, 0 0 M0.27 24.08 C5.49 18.08, 10.7 12.07, 21.26 -0.07 M0.27 24.08 C5.48 18.09, 10.69 12.09, 21.26 -0.07 M-0.12 48.92 C15.98 30.4, 32.07 11.88, 40.55 2.13 M-0.12 48.92 C15.61 30.82, 31.34 12.72, 40.55 2.13 M0.14 73 C10.48 61.11, 20.82 49.21, 40.82 26.21 M0.14 73 C14.57 56.4, 29 39.8, 40.82 26.21 M-0.25 97.84 C9.46 86.67, 19.17 75.5, 40.43 51.04 M-0.25 97.84 C11.86 83.91, 23.96 69.99, 40.43 51.04 M0.02 121.92 C12.26 107.83, 24.51 93.74, 40.69 75.13 M0.02 121.92 C15.61 103.98, 31.2 86.05, 40.69 75.13 M0.29 146 C10.74 133.97, 21.2 121.95, 40.31 99.96 M0.29 146 C15.14 128.91, 30 111.82, 40.31 99.96 M-0.1 170.84 C13.67 154.99, 27.44 139.15, 40.57 124.04 M-0.1 170.84 C15.38 153.03, 30.86 135.22, 40.57 124.04 M0.16 194.92 C11.68 181.67, 23.2 168.41, 40.84 148.13 M0.16 194.92 C10.71 182.79, 21.25 170.66, 40.84 148.13 M-0.23 219.75 C12.26 205.39, 24.74 191.03, 40.45 172.96 M-0.23 219.75 C14.11 203.26, 28.46 186.76, 40.45 172.96 M0.04 243.84 C8.78 233.78, 17.53 223.71, 40.71 197.04 M0.04 243.84 C11.11 231.1, 22.18 218.36, 40.71 197.04 M0.3 267.92 C13.79 252.41, 27.27 236.9, 40.32 221.88 M0.3 267.92 C10.9 255.73, 21.49 243.55, 40.32 221.88 M-0.08 292.75 C10.4 280.7, 20.88 268.64, 40.59 245.96 M-0.08 292.75 C15.38 274.96, 30.85 257.17, 40.59 245.96 M0.18 316.84 C14.4 300.48, 28.62 284.12, 40.86 270.04 M0.18 316.84 C10.01 305.53, 19.84 294.22, 40.86 270.04 M18.82 319.79 C25.37 312.24, 31.93 304.7, 40.47 294.88 M18.82 319.79 C23.42 314.49, 28.03 309.19, 40.47 294.88 M40.08 319.72 C40.25 319.52, 40.41 319.33, 40.73 318.96 M40.08 319.72 C40.32 319.44, 40.56 319.16, 40.73 318.96" stroke="#a5d8ff" stroke-width="2" fill="none"></path><path d="M0 0 C12.26 0, 24.53 0, 40 0 M0 0 C8.39 0, 16.78 0, 40 0 M40 0 C40 101.24, 40 202.49, 40 320 M40 0 C40 67.76, 40 135.51, 40 320 M40 320 C31.08 320, 22.16 320, 0 320 M40 320 C26.17 320, 12.34 320, 0 320 M0 320 C0 215.87, 0 111.75, 0 0 M0 320 C0 199.52, 0 79.04, 0 0" stroke="transparent" stroke-width="4" fill="none"></path></g><g stroke-linecap="round" transform="translate(50 10) rotate(0 160 160)"><path d="M0 0 C94.9 0, 189.8 0, 320 0 M0 0 C110.87 0, 221.73 0, 320 0 M320 0 C320 86.92, 320 173.84, 320 320 M320 0 C320 87.1, 320 174.2, 320 320 M320 320 C243.42 320, 166.84 320, 0 320 M320 320 C219.14 320, 118.28 320, 0 320 M0 320 C0 250.74, 0 181.48, 0 0 M0 320 C0 227.9, 0 135.8, 0 0" stroke="#1e1e1e" stroke-width="4" fill="none"></path></g><g stroke-linecap="round" transform="translate(150 110) rotate(0 60 60)"><path d="M120 60 C120 62.41, 119.85 64.84, 119.56 67.23 C119.27 69.63, 118.83 72.02, 118.26 74.36 C117.68 76.7, 116.96 79.02, 116.1 81.28 C115.25 83.53, 114.25 85.75, 113.13 87.88 C112.01 90.02, 110.75 92.1, 109.38 94.08 C108.01 96.07, 106.51 97.98, 104.91 99.79 C103.31 101.59, 101.59 103.31, 99.79 104.91 C97.98 106.51, 96.07 108.01, 94.08 109.38 C92.1 110.75, 90.02 112.01, 87.88 113.13 C85.75 114.25, 83.53 115.25, 81.28 116.1 C79.02 116.96, 76.7 117.68, 74.36 118.26 C72.02 118.83, 69.63 119.27, 67.23 119.56 C64.84 119.85, 62.41 120, 60 120 C57.59 120, 55.16 119.85, 52.77 119.56 C50.37 119.27, 47.98 118.83, 45.64 118.26 C43.3 117.68, 40.98 116.96, 38.72 116.1 C36.47 115.25, 34.25 114.25, 32.12 113.13 C29.98 112.01, 27.9 110.75, 25.92 109.38 C23.93 108.01, 22.02 106.51, 20.21 104.91 C18.41 103.31, 16.69 101.59, 15.09 99.79 C13.49 97.98, 11.99 96.07, 10.62 94.08 C9.25 92.1, 7.99 90.02, 6.87 87.88 C5.75 85.75, 4.75 83.53, 3.9 81.28 C3.04 79.02, 2.32 76.7, 1.74 74.36 C1.17 72.02, 0.73 69.63, 0.44 67.23 C0.15 64.84, 0 62.41, 0 60 C0 57.59, 0.15 55.16, 0.44 52.77 C0.73 50.37, 1.17 47.98, 1.74 45.64 C2.32 43.3, 3.04 40.98, 3.9 38.72 C4.75 36.47, 5.75 34.25, 6.87 32.12 C7.99 29.98, 9.25 27.9, 10.62 25.92 C11.99 23.93, 13.49 22.02, 15.09 20.21 C16.69 18.41, 18.41 16.69, 20.21 15.09 C22.02 13.49, 23.93 11.99, 25.92 10.62 C27.9 9.25, 29.98 7.99, 32.12 6.87 C34.25 5.75, 36.47 4.75, 38.72 3.9 C40.98 3.04, 43.3 2.32, 45.64 1.74 C47.98 1.17, 50.37 0.73, 52.77 0.44 C55.16 0.15, 57.59 0, 60 0 C62.41 0, 64.84 0.15, 67.23 0.44 C69.63 0.73, 72.02 1.17, 74.36 1.74 C76.7 2.32, 79.02 3.04, 81.28 3.9 C83.53 4.75, 85.75 5.75, 87.88 6.87 C90.02 7.99, 92.1 9.25, 94.08 10.62 C96.07 11.99, 97.98 13.49, 99.79 15.09 C101.59 16.69, 103.31 18.41, 104.91 20.21 C106.51 22.02, 108.01 23.93, 109.38 25.92 C110.75 27.9, 112.01 29.98, 113.13 32.12 C114.25 34.25, 115.25 36.47, 116.1 38.72 C116.96 40.98, 117.68 43.3, 118.26 45.64 C118.83 47.98, 119.27 50.37, 119.56 52.77 C119.85 55.16, 120 57.59, 120 60" stroke="#1e1e1e" stroke-width="4" fill="none"></path></g><g stroke-linecap="round"><g transform="translate(270 170) rotate(0 50 0)"><path d="M0 0 C22.11 0, 44.22 0, 100 0" stroke="#1e1e1e" stroke-width="4.5" fill="none" stroke-dasharray="1.5 10"></path></g></g><mask></mask><g stroke-linecap="round"><g transform="translate(210 110) rotate(0 0 -50)"><path d="M0 0 C0 -23.96, 0 -47.91, 0 -100" stroke="#1e1e1e" stroke-width="4.5" fill="none" stroke-dasharray="1.5 10"></path></g></g><mask></mask><g stroke-linecap="round"><g transform="translate(210 10) rotate(0 80 0)"><path d="M0 0 C54.39 0, 108.78 0, 160 0 M0 0 C53.18 0, 106.36 0, 160 0" stroke="#e03131" stroke-width="4" fill="none"></path></g></g><mask></mask><g stroke-linecap="round"><g transform="translate(209.99999999999997 169.99999999999997) rotate(89.99999999999994 30.000000000000032 -29.999999999999975)"><path d="M0 0 C0.08 -1.62, 0.16 -3.24, 0.29 -5.88 M0 0 C0.07 -1.47, 0.14 -2.93, 0.29 -5.88 M0.29 -5.88 C0.62 -8.13, 0.95 -10.37, 1.15 -11.71 M0.29 -5.88 C0.55 -7.61, 0.8 -9.34, 1.15 -11.71 M1.15 -11.71 C1.63 -13.63, 2.12 -15.55, 2.58 -17.42 M1.15 -11.71 C1.67 -13.75, 2.18 -15.8, 2.58 -17.42 M2.58 -17.42 C2.99 -18.55, 3.39 -19.67, 4.57 -22.96 M2.58 -17.42 C3.21 -19.17, 3.84 -20.93, 4.57 -22.96 M4.57 -22.96 C5.21 -24.31, 5.84 -25.66, 7.08 -28.28 M4.57 -22.96 C5.38 -24.67, 6.19 -26.39, 7.08 -28.28 M7.08 -28.28 C7.93 -29.69, 8.77 -31.1, 10.11 -33.33 M7.08 -28.28 C8.17 -30.09, 9.25 -31.89, 10.11 -33.33 M10.11 -33.33 C11.26 -34.88, 12.4 -36.42, 13.62 -38.06 M10.11 -33.33 C10.85 -34.33, 11.59 -35.32, 13.62 -38.06 M13.62 -38.06 C14.53 -39.07, 15.45 -40.08, 17.57 -42.43 M13.62 -38.06 C14.58 -39.12, 15.53 -40.17, 17.57 -42.43 M17.57 -42.43 C19.09 -43.8, 20.6 -45.17, 21.94 -46.38 M17.57 -42.43 C19.11 -43.82, 20.65 -45.22, 21.94 -46.38 M21.94 -46.38 C23.24 -47.34, 24.53 -48.31, 26.67 -49.89 M21.94 -46.38 C23.62 -47.63, 25.29 -48.87, 26.67 -49.89 M26.67 -49.89 C28.67 -51.09, 30.68 -52.3, 31.72 -52.92 M26.67 -49.89 C28.37 -50.91, 30.08 -51.94, 31.72 -52.92 M31.72 -52.92 C32.84 -53.45, 33.96 -53.98, 37.04 -55.43 M31.72 -52.92 C33 -53.52, 34.28 -54.13, 37.04 -55.43 M37.04 -55.43 C38.43 -55.93, 39.83 -56.43, 42.58 -57.42 M37.04 -55.43 C38.23 -55.86, 39.42 -56.29, 42.58 -57.42 M42.58 -57.42 C43.91 -57.75, 45.24 -58.08, 48.29 -58.85 M42.58 -57.42 C43.73 -57.7, 44.88 -57.99, 48.29 -58.85 M48.29 -58.85 C50.46 -59.17, 52.62 -59.49, 54.12 -59.71 M48.29 -58.85 C49.99 -59.1, 51.68 -59.35, 54.12 -59.71 M54.12 -59.71 C56.02 -59.8, 57.93 -59.9, 60 -60 M54.12 -59.71 C55.88 -59.8, 57.63 -59.88, 60 -60" stroke="#e03131" stroke-width="4" fill="none"></path></g></g><mask></mask><g stroke-linecap="round"><g transform="translate(370 170) rotate(0 0 -80)"><path d="M0 0 C0 -50.62, 0 -101.24, 0 -160 M0 0 C0 -33.88, 0 -67.76, 0 -160" stroke="#1971c2" stroke-width="4" fill="none"></path></g></g><mask></mask><g stroke-linecap="round"><g transform="translate(209.99999999999997 170) rotate(89.99999999999994 39.999999999999986 -40.000000000000014)"><path d="M0 0 C0.1 -2.13, 0.21 -4.26, 0.39 -7.84 M0 0 C0.1 -2.13, 0.21 -4.27, 0.39 -7.84 M0.39 -7.84 C0.66 -9.7, 0.94 -11.56, 1.54 -15.61 M0.39 -7.84 C0.75 -10.29, 1.11 -12.74, 1.54 -15.61 M1.54 -15.61 C1.95 -17.26, 2.36 -18.9, 3.44 -23.22 M1.54 -15.61 C2.09 -17.8, 2.64 -19.99, 3.44 -23.22 M3.44 -23.22 C4.29 -25.58, 5.13 -27.94, 6.09 -30.61 M3.44 -23.22 C4.14 -25.16, 4.83 -27.1, 6.09 -30.61 M6.09 -30.61 C7.08 -32.71, 8.07 -34.8, 9.45 -37.71 M6.09 -30.61 C7.23 -33.03, 8.37 -35.44, 9.45 -37.71 M9.45 -37.71 C10.46 -39.41, 11.48 -41.1, 13.48 -44.45 M9.45 -37.71 C10.33 -39.19, 11.21 -40.66, 13.48 -44.45 M13.48 -44.45 C15.31 -46.92, 17.15 -49.39, 18.16 -50.75 M13.48 -44.45 C15.19 -46.74, 16.89 -49.04, 18.16 -50.75 M18.16 -50.75 C19.96 -52.74, 21.76 -54.73, 23.43 -56.57 M18.16 -50.75 C20.14 -52.94, 22.12 -55.12, 23.43 -56.57 M23.43 -56.57 C25.08 -58.06, 26.73 -59.56, 29.25 -61.84 M23.43 -56.57 C25.5 -58.45, 27.57 -60.32, 29.25 -61.84 M29.25 -61.84 C31.05 -63.18, 32.86 -64.52, 35.55 -66.52 M29.25 -61.84 C31.03 -63.16, 32.8 -64.48, 35.55 -66.52 M35.55 -66.52 C37.15 -67.47, 38.74 -68.43, 42.29 -70.55 M35.55 -66.52 C38.04 -68.01, 40.53 -69.5, 42.29 -70.55 M42.29 -70.55 C44.93 -71.8, 47.57 -73.05, 49.39 -73.91 M42.29 -70.55 C44.04 -71.38, 45.79 -72.21, 49.39 -73.91 M49.39 -73.91 C50.93 -74.46, 52.47 -75.02, 56.78 -76.56 M49.39 -73.91 C51.74 -74.75, 54.1 -75.6, 56.78 -76.56 M56.78 -76.56 C58.89 -77.08, 60.99 -77.61, 64.39 -78.46 M56.78 -76.56 C59.36 -77.2, 61.94 -77.85, 64.39 -78.46 M64.39 -78.46 C66.32 -78.75, 68.24 -79.03, 72.16 -79.61 M64.39 -78.46 C67.32 -78.9, 70.24 -79.33, 72.16 -79.61 M72.16 -79.61 C74.26 -79.72, 76.37 -79.82, 80 -80 M72.16 -79.61 C75.19 -79.76, 78.21 -79.91, 80 -80" stroke="#e03131" stroke-width="4" fill="none"></path></g></g><mask></mask><g stroke-linecap="round"><g transform="translate(370 170) rotate(0 -80 -50)"><path d="M0 0 C-13.33 -13.33, -53.33 -63.33, -80 -80 C-106.67 -96.67, -146.67 -96.67, -160 -100 M0 0 C-13.33 -13.33, -53.33 -63.33, -80 -80 C-106.67 -96.67, -146.67 -96.67, -160 -100" stroke="#e03131" stroke-width="4" fill="none"></path></g></g><mask></mask><g stroke-linecap="round"><g transform="translate(350 10) rotate(0 -39.504253933628476 75.67920847444626)"><path d="M0 0 C-1.62 18.71, 3.45 87.05, -9.72 112.27 C-22.89 137.5, -67.46 144.84, -79.01 151.36 M0 0 C-1.62 18.71, 3.45 87.05, -9.72 112.27 C-22.89 137.5, -67.46 144.84, -79.01 151.36" stroke="#1971c2" stroke-width="4" fill="none"></path></g></g><mask></mask><g stroke-linecap="round"><g transform="translate(210 50) rotate(0 80.47723405317822 10.932658909563742)"><path d="M0 0 C15.44 2.52, 65.82 11.49, 92.65 15.13 C119.48 18.78, 149.57 20.74, 160.95 21.87 M0 0 C15.44 2.52, 65.82 11.49, 92.65 15.13 C119.48 18.78, 149.57 20.74, 160.95 21.87" stroke="#e03131" stroke-width="4" fill="none"></path></g></g><mask></mask><g stroke-linecap="round"><g transform="translate(210 30) rotate(0 80 0)"><path d="M0 0 C26.67 0, 133.33 0, 160 0 M0 0 C26.67 0, 133.33 0, 160 0" stroke="#e03131" stroke-width="4" fill="none"></path></g></g><mask></mask><g stroke-linecap="round"><g transform="translate(318.02514388075775 10.625612505634308) rotate(0 -25.07725438037056 66.46352957888982)"><path d="M0 0 C-1.4 15.32, -0.06 69.74, -8.42 91.89 C-16.78 114.05, -43.2 126.09, -50.15 132.93 M0 0 C-1.4 15.32, -0.06 69.74, -8.42 91.89 C-16.78 114.05, -43.2 126.09, -50.15 132.93" stroke="#1971c2" stroke-width="4" fill="none"></path></g></g><mask></mask><g stroke-linecap="round"><g transform="translate(288.91449307085674 11.677792291434912) rotate(0 -16.30900208708954 56.46769986189963)"><path d="M0 0 C-0.99 11.75, -0.53 51.67, -5.96 70.5 C-11.4 89.32, -28.18 105.86, -32.62 112.94 M0 0 C-0.99 11.75, -0.53 51.67, -5.96 70.5 C-11.4 89.32, -28.18 105.86, -32.62 112.94" stroke="#1971c2" stroke-width="4" fill="none"></path></g></g><mask></mask><g stroke-linecap="round"><g transform="translate(240.8643438817168 11.327062574324827) rotate(0 -2.4551173852999852 51.03137051563459)"><path d="M0 0 C0 13.56, 0.82 64.36, 0 81.37 C-0.82 98.38, -4.09 98.61, -4.91 102.06 M0 0 C0 13.56, 0.82 64.36, 0 81.37 C-0.82 98.38, -4.09 98.61, -4.91 102.06" stroke="#1971c2" stroke-width="4" fill="none"></path></g></g><mask></mask><g stroke-linecap="round" transform="translate(10 410) rotate(0 20 160)"><path d="M0 0 C0 0, 0 0, 0 0 M0 0 C0 0, 0 0, 0 0 M0.27 24.08 C6.25 17.19, 12.24 10.31, 21.26 -0.07 M0.27 24.08 C8.02 15.16, 15.78 6.24, 21.26 -0.07 M-0.12 48.92 C11.56 35.48, 23.25 22.03, 40.55 2.13 M-0.12 48.92 C9.96 37.31, 20.05 25.71, 40.55 2.13 M0.14 73 C11.74 59.66, 23.34 46.31, 40.82 26.21 M0.14 73 C12.4 58.9, 24.65 44.81, 40.82 26.21 M-0.25 97.84 C12.11 83.63, 24.46 69.42, 40.43 51.04 M-0.25 97.84 C9.23 86.93, 18.71 76.03, 40.43 51.04 M0.02 121.92 C9.28 111.26, 18.54 100.61, 40.69 75.13 M0.02 121.92 C15.38 104.25, 30.73 86.59, 40.69 75.13 M0.29 146 C15.12 128.93, 29.96 111.87, 40.31 99.96 M0.29 146 C9.54 135.36, 18.79 124.71, 40.31 99.96 M-0.1 170.84 C9.81 159.43, 19.73 148.02, 40.57 124.04 M-0.1 170.84 C15.5 152.89, 31.09 134.95, 40.57 124.04 M0.16 194.92 C13.34 179.75, 26.53 164.59, 40.84 148.13 M0.16 194.92 C10.26 183.3, 20.36 171.68, 40.84 148.13 M-0.23 219.75 C8.87 209.28, 17.98 198.81, 40.45 172.96 M-0.23 219.75 C15.85 201.26, 31.93 182.76, 40.45 172.96 M0.04 243.84 C10.56 231.73, 21.09 219.62, 40.71 197.04 M0.04 243.84 C11.46 230.7, 22.88 217.56, 40.71 197.04 M0.3 267.92 C9.01 257.91, 17.71 247.9, 40.32 221.88 M0.3 267.92 C15.49 250.45, 30.67 232.98, 40.32 221.88 M-0.08 292.75 C13.31 277.35, 26.7 261.94, 40.59 245.96 M-0.08 292.75 C12.74 278, 25.57 263.24, 40.59 245.96 M0.18 316.84 C9.7 305.89, 19.21 294.95, 40.86 270.04 M0.18 316.84 C16.18 298.43, 32.18 280.03, 40.86 270.04 M18.82 319.79 C26.38 311.08, 33.95 302.38, 40.47 294.88 M18.82 319.79 C25.96 311.57, 33.1 303.36, 40.47 294.88 M40.08 319.72 C40.24 319.53, 40.39 319.35, 40.73 318.96 M40.08 319.72 C40.33 319.43, 40.58 319.14, 40.73 318.96" stroke="#a5d8ff" stroke-width="2" fill="none"></path><path d="M0 0 C11.02 0, 22.03 0, 40 0 M0 0 C14.98 0, 29.97 0, 40 0 M40 0 C40 123.39, 40 246.78, 40 320 M40 0 C40 80.05, 40 160.1, 40 320 M40 320 C25.58 320, 11.17 320, 0 320 M40 320 C30.08 320, 20.17 320, 0 320 M0 320 C0 238.06, 0 156.12, 0 0 M0 320 C0 228.14, 0 136.28, 0 0" stroke="transparent" stroke-width="4" fill="none"></path></g><g stroke-linecap="round" transform="translate(50 410) rotate(0 160 160)"><path d="M0 0 C92.19 0, 184.38 0, 320 0 M0 0 C97.6 0, 195.19 0, 320 0 M320 0 C320 103.96, 320 207.92, 320 320 M320 0 C320 120.84, 320 241.68, 320 320 M320 320 C224.47 320, 128.93 320, 0 320 M320 320 C214.66 320, 109.31 320, 0 320 M0 320 C0 226.02, 0 132.05, 0 0 M0 320 C0 233.61, 0 147.23, 0 0" stroke="#1e1e1e" stroke-width="4" fill="none"></path></g><g stroke-linecap="round" transform="translate(150 510) rotate(0 60 60)"><path d="M120 60 C120 62.41, 119.85 64.84, 119.56 67.23 C119.27 69.63, 118.83 72.02, 118.26 74.36 C117.68 76.7, 116.96 79.02, 116.1 81.28 C115.25 83.53, 114.25 85.75, 113.13 87.88 C112.01 90.02, 110.75 92.1, 109.38 94.08 C108.01 96.07, 106.51 97.98, 104.91 99.79 C103.31 101.59, 101.59 103.31, 99.79 104.91 C97.98 106.51, 96.07 108.01, 94.08 109.38 C92.1 110.75, 90.02 112.01, 87.88 113.13 C85.75 114.25, 83.53 115.25, 81.28 116.1 C79.02 116.96, 76.7 117.68, 74.36 118.26 C72.02 118.83, 69.63 119.27, 67.23 119.56 C64.84 119.85, 62.41 120, 60 120 C57.59 120, 55.16 119.85, 52.77 119.56 C50.37 119.27, 47.98 118.83, 45.64 118.26 C43.3 117.68, 40.98 116.96, 38.72 116.1 C36.47 115.25, 34.25 114.25, 32.12 113.13 C29.98 112.01, 27.9 110.75, 25.92 109.38 C23.93 108.01, 22.02 106.51, 20.21 104.91 C18.41 103.31, 16.69 101.59, 15.09 99.79 C13.49 97.98, 11.99 96.07, 10.62 94.08 C9.25 92.1, 7.99 90.02, 6.87 87.88 C5.75 85.75, 4.75 83.53, 3.9 81.28 C3.04 79.02, 2.32 76.7, 1.74 74.36 C1.17 72.02, 0.73 69.63, 0.44 67.23 C0.15 64.84, 0 62.41, 0 60 C0 57.59, 0.15 55.16, 0.44 52.77 C0.73 50.37, 1.17 47.98, 1.74 45.64 C2.32 43.3, 3.04 40.98, 3.9 38.72 C4.75 36.47, 5.75 34.25, 6.87 32.12 C7.99 29.98, 9.25 27.9, 10.62 25.92 C11.99 23.93, 13.49 22.02, 15.09 20.21 C16.69 18.41, 18.41 16.69, 20.21 15.09 C22.02 13.49, 23.93 11.99, 25.92 10.62 C27.9 9.25, 29.98 7.99, 32.12 6.87 C34.25 5.75, 36.47 4.75, 38.72 3.9 C40.98 3.04, 43.3 2.32, 45.64 1.74 C47.98 1.17, 50.37 0.73, 52.77 0.44 C55.16 0.15, 57.59 0, 60 0 C62.41 0, 64.84 0.15, 67.23 0.44 C69.63 0.73, 72.02 1.17, 74.36 1.74 C76.7 2.32, 79.02 3.04, 81.28 3.9 C83.53 4.75, 85.75 5.75, 87.88 6.87 C90.02 7.99, 92.1 9.25, 94.08 10.62 C96.07 11.99, 97.98 13.49, 99.79 15.09 C101.59 16.69, 103.31 18.41, 104.91 20.21 C106.51 22.02, 108.01 23.93, 109.38 25.92 C110.75 27.9, 112.01 29.98, 113.13 32.12 C114.25 34.25, 115.25 36.47, 116.1 38.72 C116.96 40.98, 117.68 43.3, 118.26 45.64 C118.83 47.98, 119.27 50.37, 119.56 52.77 C119.85 55.16, 120 57.59, 120 60" stroke="#1e1e1e" stroke-width="4" fill="none"></path></g><g stroke-linecap="round" transform="translate(10 810) rotate(0 20 160)"><path d="M0 0 C0 0, 0 0, 0 0 M0 0 C0 0, 0 0, 0 0 M0.27 24.08 C4.84 18.82, 9.42 13.55, 21.26 -0.07 M0.27 24.08 C8.45 14.67, 16.64 5.25, 21.26 -0.07 M-0.12 48.92 C12.54 34.35, 25.2 19.79, 40.55 2.13 M-0.12 48.92 C15.64 30.79, 31.4 12.66, 40.55 2.13 M0.14 73 C13.89 57.19, 27.63 41.37, 40.82 26.21 M0.14 73 C10.5 61.08, 20.87 49.16, 40.82 26.21 M-0.25 97.84 C15.44 79.79, 31.14 61.74, 40.43 51.04 M-0.25 97.84 C13.03 82.57, 26.3 67.3, 40.43 51.04 M0.02 121.92 C12.83 107.18, 25.64 92.44, 40.69 75.13 M0.02 121.92 C10.39 109.99, 20.76 98.06, 40.69 75.13 M0.29 146 C13.37 130.95, 26.45 115.9, 40.31 99.96 M0.29 146 C14 130.22, 27.72 114.44, 40.31 99.96 M-0.1 170.84 C13.45 155.25, 27 139.66, 40.57 124.04 M-0.1 170.84 C10.99 158.08, 22.08 145.32, 40.57 124.04 M0.16 194.92 C13.33 179.78, 26.49 164.63, 40.84 148.13 M0.16 194.92 C9.9 183.72, 19.64 172.52, 40.84 148.13 M-0.23 219.75 C13.44 204.03, 27.1 188.31, 40.45 172.96 M-0.23 219.75 C11.2 206.61, 22.62 193.47, 40.45 172.96 M0.04 243.84 C9.15 233.36, 18.26 222.88, 40.71 197.04 M0.04 243.84 C8.56 234.04, 17.08 224.24, 40.71 197.04 M0.3 267.92 C9.36 257.5, 18.42 247.08, 40.32 221.88 M0.3 267.92 C14.04 252.12, 27.77 236.33, 40.32 221.88 M-0.08 292.75 C13.57 277.05, 27.22 261.35, 40.59 245.96 M-0.08 292.75 C9.55 281.68, 19.18 270.6, 40.59 245.96 M0.18 316.84 C11.02 304.36, 21.87 291.89, 40.86 270.04 M0.18 316.84 C8.87 306.85, 17.55 296.85, 40.86 270.04 M18.82 319.79 C23.7 314.17, 28.58 308.56, 40.47 294.88 M18.82 319.79 C25.22 312.42, 31.63 305.05, 40.47 294.88 M40.08 319.72 C40.26 319.51, 40.44 319.3, 40.73 318.96 M40.08 319.72 C40.3 319.46, 40.52 319.21, 40.73 318.96" stroke="#a5d8ff" stroke-width="2" fill="none"></path><path d="M0 0 C11.61 0, 23.22 0, 40 0 M0 0 C10.81 0, 21.62 0, 40 0 M40 0 C40 67.03, 40 134.05, 40 320 M40 0 C40 124.86, 40 249.73, 40 320 M40 320 C27.84 320, 15.69 320, 0 320 M40 320 C28.58 320, 17.16 320, 0 320 M0 320 C0 214.32, 0 108.63, 0 0 M0 320 C0 234, 0 148.01, 0 0" stroke="transparent" stroke-width="4" fill="none"></path></g><g stroke-linecap="round" transform="translate(50 810) rotate(0 160 160)"><path d="M0 0 C80.39 0, 160.78 0, 320 0 M0 0 C75.45 0, 150.89 0, 320 0 M320 0 C320 121.68, 320 243.37, 320 320 M320 0 C320 114.05, 320 228.11, 320 320 M320 320 C237.25 320, 154.51 320, 0 320 M320 320 C233.54 320, 147.08 320, 0 320 M0 320 C0 226.35, 0 132.7, 0 0 M0 320 C0 251.07, 0 182.13, 0 0" stroke="#1e1e1e" stroke-width="4" fill="none"></path></g><g stroke-linecap="round" transform="translate(150 910) rotate(0 60 60)"><path d="M120 60 C120 62.41, 119.85 64.84, 119.56 67.23 C119.27 69.63, 118.83 72.02, 118.26 74.36 C117.68 76.7, 116.96 79.02, 116.1 81.28 C115.25 83.53, 114.25 85.75, 113.13 87.88 C112.01 90.02, 110.75 92.1, 109.38 94.08 C108.01 96.07, 106.51 97.98, 104.91 99.79 C103.31 101.59, 101.59 103.31, 99.79 104.91 C97.98 106.51, 96.07 108.01, 94.08 109.38 C92.1 110.75, 90.02 112.01, 87.88 113.13 C85.75 114.25, 83.53 115.25, 81.28 116.1 C79.02 116.96, 76.7 117.68, 74.36 118.26 C72.02 118.83, 69.63 119.27, 67.23 119.56 C64.84 119.85, 62.41 120, 60 120 C57.59 120, 55.16 119.85, 52.77 119.56 C50.37 119.27, 47.98 118.83, 45.64 118.26 C43.3 117.68, 40.98 116.96, 38.72 116.1 C36.47 115.25, 34.25 114.25, 32.12 113.13 C29.98 112.01, 27.9 110.75, 25.92 109.38 C23.93 108.01, 22.02 106.51, 20.21 104.91 C18.41 103.31, 16.69 101.59, 15.09 99.79 C13.49 97.98, 11.99 96.07, 10.62 94.08 C9.25 92.1, 7.99 90.02, 6.87 87.88 C5.75 85.75, 4.75 83.53, 3.9 81.28 C3.04 79.02, 2.32 76.7, 1.74 74.36 C1.17 72.02, 0.73 69.63, 0.44 67.23 C0.15 64.84, 0 62.41, 0 60 C0 57.59, 0.15 55.16, 0.44 52.77 C0.73 50.37, 1.17 47.98, 1.74 45.64 C2.32 43.3, 3.04 40.98, 3.9 38.72 C4.75 36.47, 5.75 34.25, 6.87 32.12 C7.99 29.98, 9.25 27.9, 10.62 25.92 C11.99 23.93, 13.49 22.02, 15.09 20.21 C16.69 18.41, 18.41 16.69, 20.21 15.09 C22.02 13.49, 23.93 11.99, 25.92 10.62 C27.9 9.25, 29.98 7.99, 32.12 6.87 C34.25 5.75, 36.47 4.75, 38.72 3.9 C40.98 3.04, 43.3 2.32, 45.64 1.74 C47.98 1.17, 50.37 0.73, 52.77 0.44 C55.16 0.15, 57.59 0, 60 0 C62.41 0, 64.84 0.15, 67.23 0.44 C69.63 0.73, 72.02 1.17, 74.36 1.74 C76.7 2.32, 79.02 3.04, 81.28 3.9 C83.53 4.75, 85.75 5.75, 87.88 6.87 C90.02 7.99, 92.1 9.25, 94.08 10.62 C96.07 11.99, 97.98 13.49, 99.79 15.09 C101.59 16.69, 103.31 18.41, 104.91 20.21 C106.51 22.02, 108.01 23.93, 109.38 25.92 C110.75 27.9, 112.01 29.98, 113.13 32.12 C114.25 34.25, 115.25 36.47, 116.1 38.72 C116.96 40.98, 117.68 43.3, 118.26 45.64 C118.83 47.98, 119.27 50.37, 119.56 52.77 C119.85 55.16, 120 57.59, 120 60" stroke="#1e1e1e" stroke-width="4" fill="none"></path></g><g stroke-linecap="round"><g transform="translate(150 570) rotate(0 -50 0)"><path d="M0 0 C-16.67 0, -83.33 0, -100 0 M0 0 C-16.67 0, -83.33 0, -100 0" stroke="#1971c2" stroke-width="4" fill="none"></path></g></g><mask></mask><g stroke-linecap="round"><g transform="translate(270 570) rotate(0 50 0)"><path d="M0 0 C16.67 0, 83.33 0, 100 0 M0 0 C16.67 0, 83.33 0, 100 0" stroke="#1971c2" stroke-width="4" fill="none"></path></g></g><mask></mask><g stroke-linecap="round"><g transform="translate(50 570) rotate(0 0 -80)"><path d="M0 0 C0 -26.67, 0 -133.33, 0 -160 M0 0 C0 -26.67, 0 -133.33, 0 -160" stroke="#1971c2" stroke-width="4" fill="none"></path></g></g><mask></mask><g stroke-linecap="round"><g transform="translate(50 570) rotate(0 50 0)"><path d="M0 0 C16.67 0, 83.33 0, 100 0" stroke="#1e1e1e" stroke-width="4.5" fill="none" stroke-dasharray="1.5 10"></path></g></g><mask></mask><g stroke-linecap="round"><g transform="translate(270 570) rotate(0 50 0)"><path d="M0 0 C16.67 0, 83.33 0, 100 0" stroke="#1e1e1e" stroke-width="4.5" fill="none" stroke-dasharray="1.5 10"></path></g></g><mask></mask><g stroke-linecap="round"><g transform="translate(50 410) rotate(0 160 0)"><path d="M0 0 C53.33 0, 266.67 0, 320 0 M0 0 C53.33 0, 266.67 0, 320 0" stroke="#e03131" stroke-width="4" fill="none"></path></g></g><mask></mask><g stroke-linecap="round"><g transform="translate(370 410) rotate(0 0 80)"><path d="M0 0 C0 26.67, 0 133.33, 0 160 M0 0 C0 26.67, 0 133.33, 0 160" stroke="#e03131" stroke-width="4" fill="none"></path></g></g><mask></mask><g stroke-linecap="round"><g transform="translate(210.00000000000009 570.0000000000001) rotate(89.99999999999994 29.99999999999993 -30.000000000000057)"><path d="M0 0 C0.08 -1.72, 0.17 -3.43, 0.29 -5.88 M0 0 C0.08 -1.54, 0.15 -3.08, 0.29 -5.88 M0.29 -5.88 C0.6 -8, 0.92 -10.12, 1.15 -11.71 M0.29 -5.88 C0.61 -8.06, 0.93 -10.23, 1.15 -11.71 M1.15 -11.71 C1.53 -13.21, 1.91 -14.72, 2.58 -17.42 M1.15 -11.71 C1.69 -13.83, 2.22 -15.96, 2.58 -17.42 M2.58 -17.42 C3.3 -19.42, 4.02 -21.42, 4.57 -22.96 M2.58 -17.42 C3.38 -19.63, 4.17 -21.85, 4.57 -22.96 M4.57 -22.96 C5.13 -24.15, 5.69 -25.33, 7.08 -28.28 M4.57 -22.96 C5.29 -24.49, 6.01 -26.02, 7.08 -28.28 M7.08 -28.28 C8.24 -30.22, 9.4 -32.15, 10.11 -33.33 M7.08 -28.28 C7.97 -29.77, 8.86 -31.25, 10.11 -33.33 M10.11 -33.33 C11.19 -34.79, 12.28 -36.25, 13.62 -38.06 M10.11 -33.33 C10.93 -34.43, 11.74 -35.53, 13.62 -38.06 M13.62 -38.06 C15.1 -39.69, 16.57 -41.32, 17.57 -42.43 M13.62 -38.06 C14.42 -38.95, 15.22 -39.83, 17.57 -42.43 M17.57 -42.43 C18.54 -43.3, 19.51 -44.18, 21.94 -46.38 M17.57 -42.43 C18.98 -43.71, 20.4 -44.98, 21.94 -46.38 M21.94 -46.38 C23.54 -47.57, 25.14 -48.76, 26.67 -49.89 M21.94 -46.38 C23.18 -47.3, 24.42 -48.22, 26.67 -49.89 M26.67 -49.89 C27.78 -50.56, 28.89 -51.22, 31.72 -52.92 M26.67 -49.89 C28.53 -51, 30.39 -52.12, 31.72 -52.92 M31.72 -52.92 C33.54 -53.78, 35.35 -54.64, 37.04 -55.43 M31.72 -52.92 C32.79 -53.42, 33.86 -53.93, 37.04 -55.43 M37.04 -55.43 C38.84 -56.08, 40.63 -56.72, 42.58 -57.42 M37.04 -55.43 C38.51 -55.96, 39.98 -56.49, 42.58 -57.42 M42.58 -57.42 C44.33 -57.85, 46.08 -58.29, 48.29 -58.85 M42.58 -57.42 C44.51 -57.9, 46.45 -58.38, 48.29 -58.85 M48.29 -58.85 C50.1 -59.12, 51.91 -59.38, 54.12 -59.71 M48.29 -58.85 C49.48 -59.02, 50.66 -59.2, 54.12 -59.71 M54.12 -59.71 C55.38 -59.77, 56.63 -59.83, 60 -60 M54.12 -59.71 C56.36 -59.82, 58.6 -59.93, 60 -60" stroke="#e03131" stroke-width="4" fill="none"></path></g></g><mask></mask><g stroke-linecap="round"><g transform="translate(150 570.0000000000001) rotate(0 29.999999999999932 -30.000000000000057)"><path d="M0 0 C0.08 -1.68, 0.17 -3.36, 0.29 -5.88 M0 0 C0.07 -1.35, 0.13 -2.7, 0.29 -5.88 M0.29 -5.88 C0.54 -7.55, 0.78 -9.22, 1.15 -11.71 M0.29 -5.88 C0.47 -7.11, 0.65 -8.34, 1.15 -11.71 M1.15 -11.71 C1.65 -13.7, 2.15 -15.69, 2.58 -17.42 M1.15 -11.71 C1.63 -13.62, 2.11 -15.53, 2.58 -17.42 M2.58 -17.42 C3.13 -18.94, 3.67 -20.46, 4.57 -22.96 M2.58 -17.42 C3.19 -19.11, 3.8 -20.81, 4.57 -22.96 M4.57 -22.96 C5.47 -24.88, 6.38 -26.8, 7.08 -28.28 M4.57 -22.96 C5.56 -25.06, 6.55 -27.16, 7.08 -28.28 M7.08 -28.28 C8.07 -29.93, 9.06 -31.58, 10.11 -33.33 M7.08 -28.28 C7.71 -29.33, 8.34 -30.38, 10.11 -33.33 M10.11 -33.33 C10.98 -34.51, 11.85 -35.68, 13.62 -38.06 M10.11 -33.33 C11 -34.53, 11.89 -35.73, 13.62 -38.06 M13.62 -38.06 C14.76 -39.32, 15.9 -40.57, 17.57 -42.43 M13.62 -38.06 C14.87 -39.44, 16.11 -40.81, 17.57 -42.43 M17.57 -42.43 C18.56 -43.32, 19.56 -44.22, 21.94 -46.38 M17.57 -42.43 C18.52 -43.28, 19.46 -44.14, 21.94 -46.38 M21.94 -46.38 C23.81 -47.77, 25.68 -49.16, 26.67 -49.89 M21.94 -46.38 C23.78 -47.75, 25.62 -49.11, 26.67 -49.89 M26.67 -49.89 C27.7 -50.51, 28.74 -51.13, 31.72 -52.92 M26.67 -49.89 C27.91 -50.63, 29.15 -51.38, 31.72 -52.92 M31.72 -52.92 C33.2 -53.62, 34.68 -54.32, 37.04 -55.43 M31.72 -52.92 C33.56 -53.79, 35.41 -54.66, 37.04 -55.43 M37.04 -55.43 C39.15 -56.19, 41.27 -56.95, 42.58 -57.42 M37.04 -55.43 C39.08 -56.16, 41.11 -56.89, 42.58 -57.42 M42.58 -57.42 C44.6 -57.92, 46.63 -58.43, 48.29 -58.85 M42.58 -57.42 C44.11 -57.8, 45.64 -58.18, 48.29 -58.85 M48.29 -58.85 C49.71 -59.06, 51.12 -59.27, 54.12 -59.71 M48.29 -58.85 C49.82 -59.07, 51.35 -59.3, 54.12 -59.71 M54.12 -59.71 C55.47 -59.78, 56.83 -59.84, 60 -60 M54.12 -59.71 C56.4 -59.82, 58.68 -59.93, 60 -60" stroke="#e03131" stroke-width="4" fill="none"></path></g></g><mask></mask><g stroke-linecap="round"><g transform="translate(50 570) rotate(0 120 -40)"><path d="M0 0 C7.89 -5.69, 20.69 -20.82, 47.35 -34.15 C74.02 -47.49, 130.28 -77.12, 160 -80 C189.72 -82.88, 212.36 -64.75, 225.69 -51.42 C239.03 -38.08, 237.62 -8.57, 240 0 M0 0 C7.89 -5.69, 20.69 -20.82, 47.35 -34.15 C74.02 -47.49, 130.28 -77.12, 160 -80 C189.72 -82.88, 212.36 -64.75, 225.69 -51.42 C239.03 -38.08, 237.62 -8.57, 240 0" stroke="#e03131" stroke-width="4" fill="none"></path></g></g><mask></mask><g stroke-linecap="round"><g transform="translate(310 570) rotate(0 -128.87864270604751 -50.11670053328308)"><path d="M0 0 C-6.8 -16.71, -5.27 -88.37, -40.78 -100.23 C-76.29 -112.09, -176.89 -76.97, -213.05 -71.16 C-249.22 -65.34, -250.31 -66.31, -257.76 -65.34 M0 0 C-6.8 -16.71, -5.27 -88.37, -40.78 -100.23 C-76.29 -112.09, -176.89 -76.97, -213.05 -71.16 C-249.22 -65.34, -250.31 -66.31, -257.76 -65.34" stroke="#e03131" stroke-width="4" fill="none"></path></g></g><mask></mask><g stroke-linecap="round"><g transform="translate(330 570) rotate(0 -137.6065884656547 -60.83828392230191)"><path d="M0 0 C-4.86 -20.28, 16.71 -101.82, -29.16 -121.68 C-75.03 -141.53, -234.2 -119.56, -275.21 -119.13 M0 0 C-4.86 -20.28, 16.71 -101.82, -29.16 -121.68 C-75.03 -141.53, -234.2 -119.56, -275.21 -119.13" stroke="#e03131" stroke-width="4" fill="none"></path></g></g><mask></mask><g stroke-linecap="round"><g transform="translate(370 410) rotate(0 -63.656310575219536 54.23405622780942)"><path d="M0 0 C-6.67 6.67, -22.66 26.04, -40 40 C-57.34 53.96, -89.5 72.34, -104.05 83.75 C-118.6 95.17, -123.44 104.35, -127.31 108.47 M0 0 C-6.67 6.67, -22.66 26.04, -40 40 C-57.34 53.96, -89.5 72.34, -104.05 83.75 C-118.6 95.17, -123.44 104.35, -127.31 108.47" stroke="#1971c2" stroke-width="4" fill="none"></path></g></g><mask></mask><g stroke-linecap="round"><g transform="translate(370 470) rotate(0 -54.38846880020796 30.59432742977347)"><path d="M0 0 C-11.89 4.81, -53.21 18.64, -71.34 28.84 C-89.47 39.04, -102.54 55.8, -108.78 61.19 M0 0 C-11.89 4.81, -53.21 18.64, -71.34 28.84 C-89.47 39.04, -102.54 55.8, -108.78 61.19" stroke="#1971c2" stroke-width="4" fill="none"></path></g></g><mask></mask><g stroke-linecap="round"><g transform="translate(370 510) rotate(0 -50.935768171291414 18.226662577133993)"><path d="M0 0 C-6.8 0.56, -29.23 1.06, -40.81 3.38 C-52.4 5.7, -59.35 8.41, -69.52 13.92 C-79.7 19.43, -96.48 32.7, -101.87 36.45 M0 0 C-6.8 0.56, -29.23 1.06, -40.81 3.38 C-52.4 5.7, -59.35 8.41, -69.52 13.92 C-79.7 19.43, -96.48 32.7, -101.87 36.45" stroke="#1971c2" stroke-width="4" fill="none"></path></g></g><mask></mask><g stroke-linecap="round"><g transform="translate(368.43903215982374 543.5457448762168) rotate(0 -47.611175770417674 8.722663194124237)"><path d="M0 0 C-8.78 0.48, -36.83 0, -52.7 2.91 C-68.57 5.82, -88.14 15.02, -95.22 17.45 M0 0 C-8.78 0.48, -36.83 0, -52.7 2.91 C-68.57 5.82, -88.14 15.02, -95.22 17.45" stroke="#1971c2" stroke-width="4" fill="none"></path></g></g><mask></mask><g stroke-linecap="round"><g transform="translate(304.8363201401832 414.1596647434084) rotate(0 -34.1637285919731 50.15529395620695)"><path d="M0 0 C-1.33 5.45, -3.45 23.2, -8 32.71 C-12.54 42.22, -19.2 48.4, -27.26 57.06 C-35.31 65.72, -49.49 77.47, -56.33 84.68 C-63.18 91.89, -66.33 97.71, -68.33 100.31 M0 0 C-1.33 5.45, -3.45 23.2, -8 32.71 C-12.54 42.22, -19.2 48.4, -27.26 57.06 C-35.31 65.72, -49.49 77.47, -56.33 84.68 C-63.18 91.89, -66.33 97.71, -68.33 100.31" stroke="#1971c2" stroke-width="4" fill="none"></path></g></g><mask></mask><g stroke-linecap="round"><g transform="translate(248.13906760839774 410.8886708981137) rotate(0 -10.358179526778912 50.15529395620695)"><path d="M0 0 C0.12 4.91, 0.85 20.23, 0.73 29.44 C0.61 38.65, 1.45 46.7, -0.73 55.24 C-2.91 63.78, -8.9 73.17, -12.36 80.68 C-15.81 88.2, -19.93 97.04, -21.44 100.31 M0 0 C0.12 4.91, 0.85 20.23, 0.73 29.44 C0.61 38.65, 1.45 46.7, -0.73 55.24 C-2.91 63.78, -8.9 73.17, -12.36 80.68 C-15.81 88.2, -19.93 97.04, -21.44 100.31" stroke="#1971c2" stroke-width="4" fill="none"></path></g></g><mask></mask><g stroke-linecap="round"><g transform="translate(210 410) rotate(0 5.622106035761632 49.69222345014293)"><path d="M0 0 C1.57 9.84, 7.55 45.75, 9.43 59.04 C11.3 72.33, 11.82 73.03, 11.24 79.76 C10.67 86.48, 6.86 96.11, 5.98 99.38 M0 0 C1.57 9.84, 7.55 45.75, 9.43 59.04 C11.3 72.33, 11.82 73.03, 11.24 79.76 C10.67 86.48, 6.86 96.11, 5.98 99.38" stroke="#1971c2" stroke-width="4" fill="none"></path></g></g><mask></mask><g stroke-linecap="round"><g transform="translate(162.36624521618845 410) rotate(0 8.904379682749664 52.59855930516207)"><path d="M0 0 C1.03 11.84, 3.21 53.5, 6.18 71.03 C9.15 88.57, 15.87 99.5, 17.81 105.2 M0 0 C1.03 11.84, 3.21 53.5, 6.18 71.03 C9.15 88.57, 15.87 99.5, 17.81 105.2" stroke="#1971c2" stroke-width="4" fill="none"></path></g></g><mask></mask><g stroke-linecap="round"><g transform="translate(117.66263031381462 410.8886708981137) rotate(0 20.171141652655848 65.41995454592433)"><path d="M0 0 C1.21 13.69, 0.55 60.33, 7.27 82.14 C13.99 103.95, 34.83 122.72, 40.34 130.84 M0 0 C1.21 13.69, 0.55 60.33, 7.27 82.14 C13.99 103.95, 34.83 122.72, 40.34 130.84" stroke="#1971c2" stroke-width="4" fill="none"></path></g></g><mask></mask><g stroke-linecap="round"><g transform="translate(77.68377028075015 413.0693269916411) rotate(0 35.254090606249626 71.7802160428847)"><path d="M0 0 C1.09 14.36, 2.48 65.6, 6.54 86.14 C10.6 106.67, 13.69 113.64, 24.35 123.21 C35.01 132.78, 62.82 140.17, 70.51 143.56 M0 0 C1.09 14.36, 2.48 65.6, 6.54 86.14 C10.6 106.67, 13.69 113.64, 24.35 123.21 C35.01 132.78, 62.82 140.17, 70.51 143.56" stroke="#1971c2" stroke-width="4" fill="none"></path></g></g><mask></mask><g stroke-linecap="round"><g transform="translate(50 810) rotate(0 80 0)"><path d="M0 0 C26.67 0, 133.33 0, 160 0 M0 0 C26.67 0, 133.33 0, 160 0" stroke="#e03131" stroke-width="4" fill="none"></path></g></g><mask></mask><g stroke-linecap="round"><g transform="translate(50 810) rotate(0 0 160)"><path d="M0 0 C0 53.33, 0 266.67, 0 320 M0 0 C0 53.33, 0 266.67, 0 320" stroke="#1971c2" stroke-width="4" fill="none"></path></g></g><mask></mask><g stroke-linecap="round"><g transform="translate(50 1130) rotate(0 80 0)"><path d="M0 0 C26.67 0, 133.33 0, 160 0 M0 0 C26.67 0, 133.33 0, 160 0" stroke="#1971c2" stroke-width="4" fill="none"></path></g></g><mask></mask><g stroke-linecap="round"><g transform="translate(210 810) rotate(0 0 50)"><path d="M0 0 C0 16.67, 0 83.33, 0 100 M0 0 C0 16.67, 0 83.33, 0 100" stroke="#1971c2" stroke-width="4" fill="none"></path></g></g><mask></mask><g stroke-linecap="round"><g transform="translate(210 1030) rotate(0 0 50)"><path d="M0 0 C0 16.67, 0 83.33, 0 100 M0 0 C0 16.67, 0 83.33, 0 100" stroke="#1971c2" stroke-width="4" fill="none"></path></g></g><mask></mask><g stroke-linecap="round"><g transform="translate(210 890) rotate(0 -43.22366274189939 119.39587928458116)"><path d="M0 0 C-9.92 2.71, -45.02 3.12, -59.53 16.28 C-74.03 29.44, -87.4 56.83, -87.02 78.94 C-86.65 101.05, -65.76 131.21, -57.29 148.96 C-48.82 166.7, -45.83 170.43, -36.19 185.4 C-26.55 200.37, -5.55 229.89, 0.58 238.79 M0 0 C-9.92 2.71, -45.02 3.12, -59.53 16.28 C-74.03 29.44, -87.4 56.83, -87.02 78.94 C-86.65 101.05, -65.76 131.21, -57.29 148.96 C-48.82 166.7, -45.83 170.43, -36.19 185.4 C-26.55 200.37, -5.55 229.89, 0.58 238.79" stroke="#e03131" stroke-width="4" fill="none"></path></g></g><mask></mask><g stroke-linecap="round"><g transform="translate(210 870) rotate(0 -78.83865041083159 128.91634817333653)"><path d="M0 0 C-11.38 2.12, -51.3 0.14, -68.3 12.71 C-85.3 25.28, -91.75 45.62, -101.99 75.42 C-112.24 105.22, -120.49 161.11, -129.77 191.51 C-139.05 221.91, -153.03 246.78, -157.68 257.83 M0 0 C-11.38 2.12, -51.3 0.14, -68.3 12.71 C-85.3 25.28, -91.75 45.62, -101.99 75.42 C-112.24 105.22, -120.49 161.11, -129.77 191.51 C-139.05 221.91, -153.03 246.78, -157.68 257.83" stroke="#e03131" stroke-width="4" fill="none"></path></g></g><mask></mask><g stroke-linecap="round"><g transform="translate(210 850) rotate(0 -78.99853110819122 69.70064095775098)"><path d="M0 0 C-11.47 2.11, -51.05 2.93, -68.84 12.68 C-86.63 22.43, -96.12 39.99, -106.74 58.48 C-117.36 76.96, -124 110.11, -132.54 123.59 C-141.08 137.08, -153.75 136.77, -158 139.4 M0 0 C-11.47 2.11, -51.05 2.93, -68.84 12.68 C-86.63 22.43, -96.12 39.99, -106.74 58.48 C-117.36 76.96, -124 110.11, -132.54 123.59 C-141.08 137.08, -153.75 136.77, -158 139.4" stroke="#e03131" stroke-width="4" fill="none"></path></g></g><mask></mask><g stroke-linecap="round"><g transform="translate(210 830) rotate(0 -78.29381904595698 18.76881400506187)"><path d="M0 0 C-10 0, -40.9 -1.06, -60 0 C-79.1 1.06, -100.95 1.16, -114.63 6.38 C-128.3 11.6, -135.05 26.11, -142.05 31.31 C-149.04 36.5, -154.16 36.5, -156.59 37.54 M0 0 C-10 0, -40.9 -1.06, -60 0 C-79.1 1.06, -100.95 1.16, -114.63 6.38 C-128.3 11.6, -135.05 26.11, -142.05 31.31 C-149.04 36.5, -154.16 36.5, -156.59 37.54" stroke="#e03131" stroke-width="4" fill="none"></path></g></g><mask></mask><g stroke-linecap="round"><g transform="translate(70 810) rotate(0 50.35991131294 56.51960480072978)"><path d="M0 0 C3.7 5.24, 12.28 18.72, 22.17 31.43 C32.06 44.14, 46.25 62.66, 59.34 76.26 C72.43 89.86, 93.82 106.91, 100.72 113.04 M0 0 C3.7 5.24, 12.28 18.72, 22.17 31.43 C32.06 44.14, 46.25 62.66, 59.34 76.26 C72.43 89.86, 93.82 106.91, 100.72 113.04" stroke="#1971c2" stroke-width="4" fill="none"></path></g></g><mask></mask><g stroke-linecap="round"><g transform="translate(110 810) rotate(0 38.40604785990027 51.538651436011435)"><path d="M0 0 C1.15 3.72, -5.91 5.12, 6.9 22.3 C19.7 39.48, 65.16 89.61, 76.81 103.08 M0 0 C1.15 3.72, -5.91 5.12, 6.9 22.3 C19.7 39.48, 65.16 89.61, 76.81 103.08" stroke="#1971c2" stroke-width="4" fill="none"></path></g></g><mask></mask><g stroke-linecap="round"><g transform="translate(170 810) rotate(0 15.36500761868946 50.09941868073918)"><path d="M0 0 C0 3.33, -1.01 13.04, 0 20 C1.01 26.96, 3.86 33.61, 6.08 41.77 C8.31 49.94, 10.75 61.38, 13.36 68.98 C15.98 76.58, 18.9 82.16, 21.79 87.37 C24.69 92.57, 29.24 98.06, 30.73 100.2 M0 0 C0 3.33, -1.01 13.04, 0 20 C1.01 26.96, 3.86 33.61, 6.08 41.77 C8.31 49.94, 10.75 61.38, 13.36 68.98 C15.98 76.58, 18.9 82.16, 21.79 87.37 C24.69 92.57, 29.24 98.06, 30.73 100.2" stroke="#1971c2" stroke-width="4" fill="none"></path></g></g><mask></mask><g stroke-linecap="round"><g transform="translate(190 1030) rotate(0 -66.15457242430944 -87.07729893300979)"><path d="M0 0 C-1.81 4.33, -2.41 18.29, -10.85 25.99 C-19.29 33.7, -38.43 44.74, -50.61 46.22 C-62.8 47.7, -73.43 41.5, -83.96 34.89 C-94.5 28.28, -106.86 20.62, -113.83 6.56 C-120.81 -7.5, -122.84 -19.33, -125.8 -49.49 C-128.75 -79.65, -130.46 -145.91, -131.54 -174.4 C-132.63 -202.88, -132.18 -212.71, -132.31 -220.37 M0 0 C-1.81 4.33, -2.41 18.29, -10.85 25.99 C-19.29 33.7, -38.43 44.74, -50.61 46.22 C-62.8 47.7, -73.43 41.5, -83.96 34.89 C-94.5 28.28, -106.86 20.62, -113.83 6.56 C-120.81 -7.5, -122.84 -19.33, -125.8 -49.49 C-128.75 -79.65, -130.46 -145.91, -131.54 -174.4 C-132.63 -202.88, -132.18 -212.71, -132.31 -220.37" stroke="#1971c2" stroke-width="4" fill="none"></path></g></g><mask></mask><g stroke-linecap="round"><g transform="translate(166.71000158383782 1012.5422649689419) rotate(0 -51.75809330184136 -92.36496690100938)"><path d="M0 0 C-3.63 2.83, -10.92 17.3, -21.78 16.99 C-32.64 16.69, -52.45 14.42, -65.15 -1.81 C-77.86 -18.05, -91.6 -47.09, -97.99 -80.41 C-104.39 -113.73, -102.6 -181.5, -103.52 -201.72 M0 0 C-3.63 2.83, -10.92 17.3, -21.78 16.99 C-32.64 16.69, -52.45 14.42, -65.15 -1.81 C-77.86 -18.05, -91.6 -47.09, -97.99 -80.41 C-104.39 -113.73, -102.6 -181.5, -103.52 -201.72" stroke="#1971c2" stroke-width="4" fill="none"></path></g></g><mask></mask><g stroke-linecap="round"><g transform="translate(150 970) rotate(0 -41.819802879489856 -79.29500324167805)"><path d="M0 0 C-3.25 -0.16, -11.67 0.52, -19.48 -0.97 C-27.3 -2.45, -38.69 -2.62, -46.89 -8.89 C-55.1 -15.16, -62.58 -13.63, -68.71 -38.58 C-74.83 -63.52, -81.15 -138.59, -83.64 -158.59 M0 0 C-3.25 -0.16, -11.67 0.52, -19.48 -0.97 C-27.3 -2.45, -38.69 -2.62, -46.89 -8.89 C-55.1 -15.16, -62.58 -13.63, -68.71 -38.58 C-74.83 -63.52, -81.15 -138.59, -83.64 -158.59" stroke="#1971c2" stroke-width="4" fill="none"></path></g></g><mask></mask><g stroke-linecap="round"><g transform="translate(150 950) rotate(0 -41.05171952454937 -69.739483988048)"><path d="M0 0 C-5.72 -4.01, -24.38 -11.55, -34.32 -24.05 C-44.26 -36.55, -51.69 -55.76, -59.65 -75 C-67.61 -94.24, -78.36 -128.73, -82.1 -139.48 M0 0 C-5.72 -4.01, -24.38 -11.55, -34.32 -24.05 C-44.26 -36.55, -51.69 -55.76, -59.65 -75 C-67.61 -94.24, -78.36 -128.73, -82.1 -139.48" stroke="#1971c2" stroke-width="4" fill="none"></path></g></g><mask></mask><g stroke-linecap="round"><g transform="translate(150 970) rotate(0 30.00000000000007 -30)"><path d="M0 0 C0.06 -1.27, 0.12 -2.54, 0.29 -5.88 M0 0 C0.08 -1.61, 0.16 -3.21, 0.29 -5.88 M0.29 -5.88 C0.56 -7.68, 0.82 -9.48, 1.15 -11.71 M0.29 -5.88 C0.58 -7.82, 0.86 -9.75, 1.15 -11.71 M1.15 -11.71 C1.71 -13.94, 2.27 -16.18, 2.58 -17.42 M1.15 -11.71 C1.61 -13.52, 2.06 -15.33, 2.58 -17.42 M2.58 -17.42 C3.05 -18.72, 3.52 -20.02, 4.57 -22.96 M2.58 -17.42 C3.31 -19.45, 4.04 -21.49, 4.57 -22.96 M4.57 -22.96 C5.08 -24.05, 5.6 -25.14, 7.08 -28.28 M4.57 -22.96 C5.36 -24.64, 6.16 -26.32, 7.08 -28.28 M7.08 -28.28 C7.8 -29.47, 8.51 -30.66, 10.11 -33.33 M7.08 -28.28 C7.75 -29.39, 8.42 -30.5, 10.11 -33.33 M10.11 -33.33 C11.5 -35.2, 12.88 -37.07, 13.62 -38.06 M10.11 -33.33 C11.14 -34.72, 12.17 -36.11, 13.62 -38.06 M13.62 -38.06 C14.63 -39.18, 15.64 -40.29, 17.57 -42.43 M13.62 -38.06 C14.56 -39.1, 15.49 -40.13, 17.57 -42.43 M17.57 -42.43 C18.71 -43.46, 19.85 -44.49, 21.94 -46.38 M17.57 -42.43 C19.18 -43.88, 20.79 -45.34, 21.94 -46.38 M21.94 -46.38 C23.35 -47.43, 24.77 -48.48, 26.67 -49.89 M21.94 -46.38 C23.62 -47.63, 25.3 -48.88, 26.67 -49.89 M26.67 -49.89 C28 -50.69, 29.34 -51.49, 31.72 -52.92 M26.67 -49.89 C28.42 -50.94, 30.17 -51.99, 31.72 -52.92 M31.72 -52.92 C32.95 -53.5, 34.18 -54.08, 37.04 -55.43 M31.72 -52.92 C33.33 -53.68, 34.95 -54.44, 37.04 -55.43 M37.04 -55.43 C38.27 -55.87, 39.5 -56.31, 42.58 -57.42 M37.04 -55.43 C38.86 -56.08, 40.68 -56.73, 42.58 -57.42 M42.58 -57.42 C44.72 -57.95, 46.86 -58.49, 48.29 -58.85 M42.58 -57.42 C44.86 -57.99, 47.14 -58.56, 48.29 -58.85 M48.29 -58.85 C50.11 -59.12, 51.93 -59.39, 54.12 -59.71 M48.29 -58.85 C50.04 -59.11, 51.78 -59.36, 54.12 -59.71 M54.12 -59.71 C55.95 -59.8, 57.78 -59.89, 60 -60 M54.12 -59.71 C56.18 -59.81, 58.23 -59.91, 60 -60" stroke="#e03131" stroke-width="4" fill="none"></path></g></g><mask></mask><g stroke-linecap="round"><g transform="translate(149.99999999999994 1030) rotate(270 30.00000000000007 -30)"><path d="M0 0 C0.07 -1.4, 0.14 -2.79, 0.29 -5.88 M0 0 C0.09 -1.75, 0.17 -3.49, 0.29 -5.88 M0.29 -5.88 C0.61 -8.07, 0.94 -10.25, 1.15 -11.71 M0.29 -5.88 C0.6 -7.95, 0.9 -10.03, 1.15 -11.71 M1.15 -11.71 C1.54 -13.24, 1.92 -14.77, 2.58 -17.42 M1.15 -11.71 C1.5 -13.08, 1.84 -14.46, 2.58 -17.42 M2.58 -17.42 C3.02 -18.63, 3.45 -19.84, 4.57 -22.96 M2.58 -17.42 C2.99 -18.56, 3.4 -19.71, 4.57 -22.96 M4.57 -22.96 C5.27 -24.46, 5.98 -25.95, 7.08 -28.28 M4.57 -22.96 C5.44 -24.81, 6.31 -26.65, 7.08 -28.28 M7.08 -28.28 C7.79 -29.46, 8.49 -30.63, 10.11 -33.33 M7.08 -28.28 C8.05 -29.9, 9.03 -31.52, 10.11 -33.33 M10.11 -33.33 C11.31 -34.95, 12.51 -36.57, 13.62 -38.06 M10.11 -33.33 C11.12 -34.7, 12.14 -36.06, 13.62 -38.06 M13.62 -38.06 C14.96 -39.54, 16.29 -41.01, 17.57 -42.43 M13.62 -38.06 C14.58 -39.12, 15.53 -40.17, 17.57 -42.43 M17.57 -42.43 C19.22 -43.92, 20.87 -45.42, 21.94 -46.38 M17.57 -42.43 C19.02 -43.74, 20.47 -45.05, 21.94 -46.38 M21.94 -46.38 C22.96 -47.14, 23.98 -47.9, 26.67 -49.89 M21.94 -46.38 C22.91 -47.1, 23.89 -47.83, 26.67 -49.89 M26.67 -49.89 C28.56 -51.02, 30.45 -52.15, 31.72 -52.92 M26.67 -49.89 C28.35 -50.9, 30.03 -51.91, 31.72 -52.92 M31.72 -52.92 C33.35 -53.69, 34.99 -54.46, 37.04 -55.43 M31.72 -52.92 C33.52 -53.77, 35.33 -54.62, 37.04 -55.43 M37.04 -55.43 C39.13 -56.18, 41.21 -56.93, 42.58 -57.42 M37.04 -55.43 C38.91 -56.1, 40.78 -56.77, 42.58 -57.42 M42.58 -57.42 C43.79 -57.72, 45.01 -58.02, 48.29 -58.85 M42.58 -57.42 C44.06 -57.79, 45.54 -58.16, 48.29 -58.85 M48.29 -58.85 C49.97 -59.1, 51.65 -59.35, 54.12 -59.71 M48.29 -58.85 C50.52 -59.18, 52.75 -59.51, 54.12 -59.71 M54.12 -59.71 C55.81 -59.79, 57.51 -59.88, 60 -60 M54.12 -59.71 C55.71 -59.79, 57.3 -59.87, 60 -60" stroke="#e03131" stroke-width="4" fill="none"></path></g></g><mask></mask><g stroke-linecap="round"><g transform="translate(210 1030) rotate(0 0 50)"><path d="M0 0 C0 16.67, 0 83.33, 0 100" stroke="#1e1e1e" stroke-width="4.5" fill="none" stroke-dasharray="1.5 10"></path></g></g><mask></mask><g stroke-linecap="round"><g transform="translate(210 810) rotate(0 0 50)"><path d="M0 0 C0 16.67, 0 83.33, 0 100" stroke="#1e1e1e" stroke-width="4.5" fill="none" stroke-dasharray="1.5 10"></path></g></g><mask></mask></svg>