<svg version="1.1" xmlns="http://www.w3.org/2000/svg" viewBox="0 0 791.2272695744655 217.1352169911406" width="791.2272695744655" height="217.1352169911406" filter="invert(93%) hue-rotate(180deg)">
  <!-- svg-source:excalidraw -->
  
  <defs>
    <style class="style-fonts">
      @font-face {
        font-family: "Virgil";
        src: url("https://excalidraw.com/Virgil.woff2");
      }
      @font-face {
        font-family: "Cascadia";
        src: url("https://excalidraw.com/Cascadia.woff2");
      }
    </style>
  </defs>
  <rect x="0" y="0" width="791.2272695744655" height="217.1352169911406" fill="transparent"/><g stroke-linecap="round" transform="translate(90.6839683739613 86.80974568710178) rotate(0 19.24407958984375 19.24407958984375)"><path d="M38.49 19.24 C38.49 20.36, 38.39 21.49, 38.2 22.59 C38 23.68, 37.71 24.78, 37.33 25.83 C36.95 26.87, 36.47 27.9, 35.91 28.87 C35.35 29.83, 34.7 30.76, 33.99 31.61 C33.27 32.47, 32.47 33.27, 31.61 33.99 C30.76 34.7, 29.83 35.35, 28.87 35.91 C27.9 36.47, 26.87 36.95, 25.83 37.33 C24.78 37.71, 23.68 38, 22.59 38.2 C21.49 38.39, 20.36 38.49, 19.24 38.49 C18.13 38.49, 17 38.39, 15.9 38.2 C14.81 38, 13.71 37.71, 12.66 37.33 C11.62 36.95, 10.59 36.47, 9.62 35.91 C8.66 35.35, 7.73 34.7, 6.87 33.99 C6.02 33.27, 5.22 32.47, 4.5 31.61 C3.79 30.76, 3.14 29.83, 2.58 28.87 C2.02 27.9, 1.54 26.87, 1.16 25.83 C0.78 24.78, 0.49 23.68, 0.29 22.59 C0.1 21.49, 0 20.36, 0 19.24 C0 18.13, 0.1 17, 0.29 15.9 C0.49 14.81, 0.78 13.71, 1.16 12.66 C1.54 11.62, 2.02 10.59, 2.58 9.62 C3.14 8.66, 3.79 7.73, 4.5 6.87 C5.22 6.02, 6.02 5.22, 6.87 4.5 C7.73 3.79, 8.66 3.14, 9.62 2.58 C10.59 2.02, 11.62 1.54, 12.66 1.16 C13.71 0.78, 14.81 0.49, 15.9 0.29 C17 0.1, 18.13 0, 19.24 0 C20.36 0, 21.49 0.1, 22.59 0.29 C23.68 0.49, 24.78 0.78, 25.83 1.16 C26.87 1.54, 27.9 2.02, 28.87 2.58 C29.83 3.14, 30.76 3.79, 31.61 4.5 C32.47 5.22, 33.27 6.02, 33.99 6.87 C34.7 7.73, 35.35 8.66, 35.91 9.62 C36.47 10.59, 36.95 11.62, 37.33 12.66 C37.71 13.71, 38 14.81, 38.2 15.9 C38.39 17, 38.44 18.69, 38.49 19.24 C38.54 19.8, 38.54 18.69, 38.49 19.24" stroke="none" stroke-width="0" fill="#ced4da"/><path d="M38.49 19.24 C38.49 20.36, 38.39 21.49, 38.2 22.59 C38 23.68, 37.71 24.78, 37.33 25.83 C36.95 26.87, 36.47 27.9, 35.91 28.87 C35.35 29.83, 34.7 30.76, 33.99 31.61 C33.27 32.47, 32.47 33.27, 31.61 33.99 C30.76 34.7, 29.83 35.35, 28.87 35.91 C27.9 36.47, 26.87 36.95, 25.83 37.33 C24.78 37.71, 23.68 38, 22.59 38.2 C21.49 38.39, 20.36 38.49, 19.24 38.49 C18.13 38.49, 17 38.39, 15.9 38.2 C14.81 38, 13.71 37.71, 12.66 37.33 C11.62 36.95, 10.59 36.47, 9.62 35.91 C8.66 35.35, 7.73 34.7, 6.87 33.99 C6.02 33.27, 5.22 32.47, 4.5 31.61 C3.79 30.76, 3.14 29.83, 2.58 28.87 C2.02 27.9, 1.54 26.87, 1.16 25.83 C0.78 24.78, 0.49 23.68, 0.29 22.59 C0.1 21.49, 0 20.36, 0 19.24 C0 18.13, 0.1 17, 0.29 15.9 C0.49 14.81, 0.78 13.71, 1.16 12.66 C1.54 11.62, 2.02 10.59, 2.58 9.62 C3.14 8.66, 3.79 7.73, 4.5 6.87 C5.22 6.02, 6.02 5.22, 6.87 4.5 C7.73 3.79, 8.66 3.14, 9.62 2.58 C10.59 2.02, 11.62 1.54, 12.66 1.16 C13.71 0.78, 14.81 0.49, 15.9 0.29 C17 0.1, 18.13 0, 19.24 0 C20.36 0, 21.49 0.1, 22.59 0.29 C23.68 0.49, 24.78 0.78, 25.83 1.16 C26.87 1.54, 27.9 2.02, 28.87 2.58 C29.83 3.14, 30.76 3.79, 31.61 4.5 C32.47 5.22, 33.27 6.02, 33.99 6.87 C34.7 7.73, 35.35 8.66, 35.91 9.62 C36.47 10.59, 36.95 11.62, 37.33 12.66 C37.71 13.71, 38 14.81, 38.2 15.9 C38.39 17, 38.44 18.69, 38.49 19.24 C38.54 19.8, 38.54 18.69, 38.49 19.24" stroke="#000000" stroke-width="0.5" fill="none"/></g><g stroke-linecap="round"><g transform="translate(112.48431155231714 85.40818496039722) rotate(0 35.825653076171875 -32.42860412597656)"><path d="M0 0 C11.94 -10.81, 59.71 -54.05, 71.65 -64.86 M0 0 C11.94 -10.81, 59.71 -54.05, 71.65 -64.86" stroke="#c92a2a" stroke-width="0.5" fill="none"/></g><g transform="translate(112.48431155231714 85.40818496039722) rotate(0 35.825653076171875 -32.42860412597656)"><path d="M71.65 -64.86 L65.83 -51.03 L57.32 -60.43 L71.65 -64.86" stroke="none" stroke-width="0" fill="#c92a2a" fill-rule="evenodd"/><path d="M71.65 -64.86 C70.02 -60.99, 68.4 -57.13, 65.83 -51.03 M71.65 -64.86 C69.94 -60.8, 68.23 -56.74, 65.83 -51.03 M65.83 -51.03 C63.18 -53.96, 60.53 -56.89, 57.32 -60.43 M65.83 -51.03 C63.81 -53.26, 61.8 -55.49, 57.32 -60.43 M57.32 -60.43 C60.32 -61.36, 63.33 -62.29, 71.65 -64.86 M57.32 -60.43 C62.82 -62.13, 68.33 -63.83, 71.65 -64.86 M71.65 -64.86 C71.65 -64.86, 71.65 -64.86, 71.65 -64.86 M71.65 -64.86 C71.65 -64.86, 71.65 -64.86, 71.65 -64.86" stroke="#c92a2a" stroke-width="0.5" fill="none"/></g></g><mask/><g stroke-linecap="round"><g transform="translate(89.64218139648438 105.96776641395513) rotate(0 -39.82109069824219 0)"><path d="M0 0 C-13.27 0, -66.37 0, -79.64 0 M0 0 C-13.27 0, -66.37 0, -79.64 0" stroke="#c92a2a" stroke-width="0.5" fill="none"/></g><g transform="translate(89.64218139648438 105.96776641395513) rotate(0 -39.82109069824219 0)"><path d="M-79.64 0 L-66.05 -6.34 L-66.05 6.34 L-79.64 0" stroke="none" stroke-width="0" fill="#c92a2a" fill-rule="evenodd"/><path d="M-79.64 0 C-76.32 -1.55, -72.99 -3.1, -66.05 -6.34 M-79.64 0 C-75.8 -1.79, -71.96 -3.58, -66.05 -6.34 M-66.05 -6.34 C-66.05 -1.65, -66.05 3.04, -66.05 6.34 M-66.05 -6.34 C-66.05 -2.74, -66.05 0.86, -66.05 6.34 M-66.05 6.34 C-71.14 3.97, -76.22 1.59, -79.64 0 M-66.05 6.34 C-71.42 3.84, -76.79 1.33, -79.64 0 M-79.64 0 C-79.64 0, -79.64 0, -79.64 0 M-79.64 0 C-79.64 0, -79.64 0, -79.64 0" stroke="#c92a2a" stroke-width="0.5" fill="none"/></g></g><mask/><g stroke-linecap="round"><g transform="translate(128.76449871414596 106.91633313437046) rotate(0 42.37180569094711 -0.5060719803566798)"><path d="M0 0 C14.12 -0.17, 70.62 -0.84, 84.74 -1.01 M0 0 C14.12 -0.17, 70.62 -0.84, 84.74 -1.01" stroke="#c92a2a" stroke-width="0.5" fill="none"/></g><g transform="translate(128.76449871414596 106.91633313437046) rotate(0 42.37180569094711 -0.5060719803566798)"><path d="M84.74 -1.01 L71.23 5.49 L71.07 -7.19 L84.74 -1.01" stroke="none" stroke-width="0" fill="#c92a2a" fill-rule="evenodd"/><path d="M84.74 -1.01 C79.66 1.43, 74.59 3.87, 71.23 5.49 M84.74 -1.01 C79.87 1.33, 74.99 3.68, 71.23 5.49 M71.23 5.49 C71.18 1.93, 71.14 -1.64, 71.07 -7.19 M71.23 5.49 C71.19 2.31, 71.15 -0.88, 71.07 -7.19 M71.07 -7.19 C76.12 -4.91, 81.17 -2.63, 84.74 -1.01 M71.07 -7.19 C74.08 -5.83, 77.08 -4.48, 84.74 -1.01 M84.74 -1.01 C84.74 -1.01, 84.74 -1.01, 84.74 -1.01 M84.74 -1.01 C84.74 -1.01, 84.74 -1.01, 84.74 -1.01" stroke="#c92a2a" stroke-width="0.5" fill="none"/></g></g><mask/><g transform="translate(168.55352742033702 83.35774151654033) rotate(0 5.183036994134923 0.43628384089696226)" stroke="none"><path fill="#c92a2a" d="M 0.16,-0.80 Q 0.16,-0.80 1.28,-0.64 2.41,-0.48 3.54,-0.36 4.67,-0.25 7.20,-0.11 9.73,0.01 9.83,0.03 9.94,0.04 10.03,0.09 10.13,0.14 10.20,0.21 10.27,0.29 10.32,0.39 10.37,0.48 10.38,0.59 10.39,0.69 10.37,0.80 10.35,0.90 10.30,0.99 10.24,1.09 10.16,1.16 10.08,1.23 9.98,1.27 9.89,1.31 9.78,1.31 9.67,1.32 9.57,1.29 9.47,1.27 9.38,1.21 9.29,1.15 9.23,1.07 9.16,0.98 9.12,0.88 9.09,0.78 9.09,0.68 9.09,0.57 9.12,0.47 9.15,0.37 9.21,0.28 9.28,0.20 9.36,0.14 9.45,0.08 9.55,0.05 9.66,0.02 9.76,0.02 9.87,0.02 9.97,0.06 10.07,0.10 10.15,0.17 10.23,0.24 10.29,0.33 10.34,0.42 10.37,0.52 10.39,0.62 10.38,0.73 10.37,0.83 10.33,0.93 10.28,1.03 10.21,1.11 10.14,1.18 10.05,1.24 9.95,1.29 9.85,1.31 9.75,1.32 9.75,1.32 9.75,1.32 7.11,1.47 4.48,1.63 3.26,1.49 2.04,1.36 0.94,1.08 -0.16,0.80 -0.25,0.77 -0.34,0.74 -0.43,0.69 -0.51,0.64 -0.58,0.57 -0.65,0.49 -0.70,0.41 -0.75,0.32 -0.78,0.23 -0.81,0.13 -0.81,0.03 -0.82,-0.06 -0.80,-0.15 -0.78,-0.25 -0.74,-0.34 -0.69,-0.43 -0.63,-0.51 -0.57,-0.59 -0.49,-0.65 -0.41,-0.71 -0.32,-0.75 -0.23,-0.79 -0.13,-0.80 -0.03,-0.82 0.06,-0.81 0.16,-0.80 0.16,-0.80 L 0.16,-0.80 Z"/></g><g transform="translate(174.66148519744664 85.31224129850736) rotate(0 -0.4013897711671035 4.868782425742694)" stroke="none"><path fill="#c92a2a" d="M 0.78,0.01 Q 0.78,0.01 0.82,1.44 0.86,2.86 0.76,4.20 0.67,5.53 0.28,7.49 -0.10,9.46 -0.13,9.56 -0.16,9.67 -0.22,9.75 -0.28,9.84 -0.37,9.90 -0.46,9.96 -0.56,9.99 -0.66,10.02 -0.77,10.02 -0.87,10.02 -0.97,9.98 -1.07,9.94 -1.15,9.88 -1.24,9.81 -1.29,9.72 -1.35,9.63 -1.38,9.53 -1.40,9.42 -1.39,9.32 -1.38,9.21 -1.34,9.11 -1.30,9.02 -1.23,8.94 -1.16,8.86 -1.07,8.81 -0.97,8.76 -0.87,8.74 -0.76,8.72 -0.66,8.73 -0.55,8.74 -0.46,8.79 -0.36,8.84 -0.29,8.91 -0.21,8.99 -0.17,9.09 -0.12,9.18 -0.11,9.29 -0.09,9.39 -0.11,9.50 -0.13,9.60 -0.18,9.69 -0.24,9.78 -0.32,9.86 -0.40,9.93 -0.49,9.97 -0.59,10.01 -0.70,10.02 -0.80,10.03 -0.91,10.00 -1.01,9.97 -1.10,9.92 -1.19,9.86 -1.25,9.78 -1.32,9.69 -1.36,9.59 -1.39,9.49 -1.40,9.39 -1.40,9.28 -1.40,9.28 -1.40,9.28 -1.28,7.34 -1.16,5.40 -1.07,4.11 -0.98,2.83 -0.88,1.40 -0.78,-0.01 -0.77,-0.11 -0.76,-0.20 -0.72,-0.29 -0.69,-0.38 -0.63,-0.45 -0.57,-0.53 -0.50,-0.59 -0.43,-0.65 -0.34,-0.70 -0.26,-0.74 -0.17,-0.76 -0.07,-0.78 0.01,-0.78 0.11,-0.78 0.20,-0.75 0.29,-0.73 0.37,-0.68 0.46,-0.63 0.53,-0.57 0.60,-0.51 0.65,-0.43 0.70,-0.35 0.73,-0.26 0.76,-0.17 0.77,-0.07 0.78,0.01 0.78,0.01 L 0.78,0.01 Z"/></g><g transform="translate(179.30352415059912 95.64312530126003) rotate(0 2.198870238211768 2.0591979866045875)" stroke="none"><path d="M0 0 L0.31 -0.77 L1.22 -0.73 L2.16 -0.31 L2.69 0.59 L2.83 1.4 L2.62 2.27 L1.29 3.28 L-0.07 3.94 L-0.7 4.33 L-0.7 4.5 L0.56 4.75 L2.48 4.89 L4.43 4.89 L5.1 4.89 L5.1 4.89" stroke="none" stroke-width="0" fill="#ced4da" fill-rule="evenodd"/><path fill="#c92a2a" d="M -0.11,-0.80 Q -0.11,-0.80 0.55,-1.04 1.21,-1.29 1.95,-1.01 2.68,-0.74 3.12,-0.21 3.56,0.30 3.65,1.06 3.74,1.83 3.27,2.61 2.80,3.40 2.13,3.90 1.45,4.39 0.84,4.83 0.23,5.27 0.10,5.34 -0.02,5.40 -0.17,5.43 -0.31,5.47 -0.46,5.46 -0.60,5.46 -0.75,5.42 -0.89,5.38 -1.02,5.31 -1.15,5.24 -1.25,5.14 -1.36,5.04 -1.44,4.92 -1.53,4.80 -1.57,4.66 -1.62,4.52 -1.64,4.37 -1.65,4.23 -1.63,4.08 -1.61,3.94 -1.56,3.80 -1.50,3.66 -1.42,3.54 -1.33,3.42 -1.22,3.33 -1.11,3.23 -0.22,3.33 0.65,3.43 2.71,3.82 4.77,4.21 4.87,4.23 4.97,4.25 5.07,4.31 5.16,4.36 5.23,4.44 5.30,4.52 5.34,4.62 5.38,4.72 5.39,4.82 5.40,4.93 5.37,5.03 5.35,5.13 5.29,5.22 5.23,5.31 5.15,5.38 5.06,5.44 4.96,5.48 4.86,5.52 4.76,5.52 4.65,5.52 4.55,5.49 4.45,5.46 4.36,5.39 4.28,5.33 4.22,5.24 4.15,5.16 4.12,5.06 4.09,4.95 4.10,4.85 4.10,4.74 4.14,4.64 4.17,4.54 4.24,4.46 4.31,4.38 4.40,4.32 4.49,4.27 4.59,4.24 4.70,4.22 4.80,4.22 4.91,4.23 5.00,4.28 5.10,4.32 5.18,4.39 5.26,4.46 5.31,4.55 5.36,4.65 5.38,4.75 5.40,4.86 5.39,4.96 5.37,5.07 5.32,5.16 5.28,5.26 5.20,5.33 5.12,5.41 5.03,5.45 4.93,5.50 4.83,5.51 4.72,5.53 4.72,5.53 4.72,5.53 3.01,5.73 1.30,5.93 0.77,5.60 0.23,5.27 0.10,5.34 -0.02,5.40 -0.17,5.43 -0.31,5.47 -0.46,5.46 -0.60,5.46 -0.75,5.42 -0.89,5.38 -1.02,5.31 -1.15,5.24 -1.25,5.14 -1.36,5.04 -1.44,4.92 -1.53,4.80 -1.57,4.66 -1.62,4.52 -1.64,4.37 -1.65,4.23 -1.63,4.08 -1.61,3.94 -1.56,3.80 -1.50,3.66 -1.42,3.54 -1.33,3.42 -1.22,3.33 -1.11,3.23 -0.54,2.79 0.02,2.35 0.64,1.64 1.27,0.93 0.69,0.86 0.11,0.80 0.01,0.80 -0.07,0.80 -0.17,0.78 -0.26,0.76 -0.35,0.72 -0.44,0.67 -0.51,0.61 -0.59,0.55 -0.65,0.47 -0.70,0.39 -0.74,0.30 -0.78,0.21 -0.79,0.11 -0.81,0.01 -0.80,-0.07 -0.79,-0.17 -0.75,-0.26 -0.72,-0.36 -0.67,-0.44 -0.61,-0.52 -0.54,-0.59 -0.47,-0.65 -0.39,-0.70 -0.30,-0.75 -0.21,-0.77 -0.11,-0.80 -0.11,-0.80 L -0.11,-0.80 Z"/></g><g transform="translate(125.51855845459505 34.70488330835906) rotate(0 -0.3490286722623779 6.648763872716557)" stroke="none"><path fill="#c92a2a" d="M 0.82,0.06 Q 0.82,0.06 0.64,2.62 0.45,5.18 0.35,7.20 0.24,9.23 0.14,10.89 0.03,12.56 0.01,12.67 0.00,12.77 -0.04,12.86 -0.10,12.96 -0.17,13.03 -0.25,13.10 -0.35,13.14 -0.45,13.19 -0.55,13.20 -0.66,13.21 -0.76,13.18 -0.86,13.16 -0.95,13.10 -1.05,13.05 -1.11,12.96 -1.18,12.88 -1.22,12.78 -1.26,12.68 -1.26,12.58 -1.26,12.47 -1.24,12.37 -1.21,12.27 -1.14,12.18 -1.08,12.09 -1.00,12.03 -0.91,11.97 -0.81,11.94 -0.71,11.90 -0.60,11.90 -0.50,11.91 -0.40,11.94 -0.30,11.98 -0.21,12.04 -0.13,12.11 -0.07,12.20 -0.01,12.28 0.00,12.39 0.03,12.49 0.02,12.60 0.02,12.70 -0.01,12.80 -0.06,12.90 -0.13,12.98 -0.20,13.06 -0.29,13.11 -0.38,13.17 -0.48,13.19 -0.59,13.21 -0.69,13.20 -0.80,13.18 -0.89,13.14 -0.99,13.09 -1.07,13.02 -1.14,12.94 -1.19,12.85 -1.24,12.75 -1.25,12.65 -1.27,12.54 -1.27,12.54 -1.27,12.54 -1.33,10.85 -1.38,9.16 -1.32,7.10 -1.26,5.05 -1.04,2.49 -0.82,-0.06 -0.80,-0.16 -0.78,-0.25 -0.74,-0.34 -0.69,-0.43 -0.63,-0.51 -0.57,-0.59 -0.49,-0.65 -0.41,-0.71 -0.32,-0.75 -0.23,-0.79 -0.13,-0.80 -0.03,-0.82 0.06,-0.81 0.16,-0.80 0.25,-0.77 0.35,-0.74 0.43,-0.69 0.51,-0.63 0.58,-0.56 0.65,-0.49 0.70,-0.41 0.75,-0.32 0.78,-0.22 0.81,-0.13 0.81,-0.03 0.82,0.06 0.82,0.06 L 0.82,0.06 Z"/></g><g transform="translate(126.1118936013103 33.588033145284186) rotate(0 3.8218403679872353 0.48862894435374926)" stroke="none"><path d="M0 0 L2.69 0.98 L4.57 0.91 L5.93 0.7 L7.36 0.56 L7.64 0.56 L7.64 0.56" stroke="none" stroke-width="0" fill="#ced4da" fill-rule="evenodd"/><path fill="#c92a2a" d="M 0.15,-0.79 Q 0.15,-0.79 1.48,-0.58 2.80,-0.37 5.08,-0.23 7.36,-0.09 7.46,-0.07 7.57,-0.06 7.66,-0.01 7.76,0.03 7.83,0.10 7.91,0.18 7.95,0.28 8.00,0.37 8.01,0.48 8.03,0.58 8.01,0.69 7.98,0.79 7.93,0.88 7.88,0.97 7.80,1.04 7.72,1.11 7.62,1.16 7.52,1.20 7.42,1.20 7.31,1.21 7.21,1.19 7.11,1.16 7.02,1.10 6.93,1.04 6.86,0.96 6.80,0.88 6.76,0.78 6.72,0.68 6.72,0.57 6.72,0.46 6.75,0.36 6.78,0.26 6.85,0.18 6.91,0.09 7.00,0.03 7.08,-0.02 7.19,-0.05 7.29,-0.08 7.39,-0.08 7.50,-0.08 7.60,-0.04 7.70,-0.00 7.78,0.06 7.86,0.12 7.92,0.21 7.98,0.30 8.00,0.41 8.03,0.51 8.02,0.62 8.01,0.72 7.96,0.82 7.92,0.92 7.85,1.00 7.78,1.07 7.68,1.13 7.59,1.18 7.49,1.20 7.38,1.21 7.38,1.21 7.38,1.21 4.91,1.32 2.45,1.42 1.14,1.10 -0.15,0.79 -0.25,0.76 -0.34,0.73 -0.42,0.68 -0.50,0.63 -0.57,0.56 -0.64,0.49 -0.69,0.40 -0.74,0.32 -0.77,0.22 -0.80,0.13 -0.80,0.03 -0.80,-0.06 -0.79,-0.15 -0.77,-0.25 -0.72,-0.34 -0.68,-0.43 -0.62,-0.50 -0.56,-0.58 -0.48,-0.64 -0.40,-0.70 -0.31,-0.73 -0.23,-0.77 -0.13,-0.79 -0.03,-0.81 0.06,-0.80 0.15,-0.79 0.15,-0.79 L 0.15,-0.79 Z"/></g><g transform="translate(126.87975508074274 41.68521682188708) rotate(0 3.385556527090259 0.2268634384499535)" stroke="none"><path d="M0 0 L2.16 0.45 L4.05 0.42 L5.86 0.1 L6.77 0.03 L6.77 0.03" stroke="none" stroke-width="0" fill="#ced4da" fill-rule="evenodd"/><path fill="#c92a2a" d="M 0.07,-0.76 Q 0.07,-0.76 1.25,-0.74 2.42,-0.72 4.36,-0.66 6.30,-0.59 6.40,-0.58 6.51,-0.57 6.60,-0.52 6.70,-0.48 6.78,-0.41 6.85,-0.33 6.90,-0.24 6.95,-0.15 6.97,-0.04 6.99,0.05 6.97,0.16 6.95,0.26 6.90,0.36 6.85,0.45 6.78,0.52 6.70,0.60 6.60,0.64 6.51,0.69 6.40,0.70 6.29,0.71 6.19,0.69 6.09,0.66 6.00,0.61 5.90,0.55 5.84,0.47 5.77,0.39 5.73,0.29 5.69,0.19 5.68,0.09 5.68,-0.01 5.71,-0.11 5.74,-0.21 5.79,-0.30 5.85,-0.39 5.94,-0.45 6.02,-0.52 6.12,-0.55 6.23,-0.59 6.33,-0.59 6.44,-0.58 6.54,-0.55 6.64,-0.52 6.72,-0.45 6.81,-0.39 6.87,-0.30 6.93,-0.21 6.96,-0.11 6.98,-0.01 6.98,0.09 6.97,0.20 6.93,0.29 6.89,0.39 6.82,0.47 6.76,0.55 6.66,0.61 6.57,0.66 6.47,0.69 6.37,0.71 6.37,0.71 6.37,0.71 4.30,0.95 2.22,1.20 1.07,0.98 -0.07,0.76 -0.16,0.73 -0.25,0.71 -0.34,0.67 -0.42,0.63 -0.49,0.57 -0.56,0.51 -0.61,0.44 -0.67,0.36 -0.70,0.28 -0.73,0.19 -0.75,0.10 -0.76,0.01 -0.75,-0.07 -0.74,-0.16 -0.71,-0.25 -0.68,-0.34 -0.63,-0.42 -0.58,-0.49 -0.51,-0.55 -0.44,-0.62 -0.36,-0.66 -0.28,-0.70 -0.19,-0.73 -0.10,-0.75 -0.01,-0.75 0.07,-0.76 0.07,-0.76 L 0.07,-0.76 Z"/></g><g transform="translate(43.030753107934515 83.63183151509932) rotate(0 7.486621432432202 0.244306474452884)" stroke="none"><path fill="#c92a2a" d="M 0.08,-0.79 Q 0.08,-0.79 1.40,-0.76 2.71,-0.74 4.10,-0.70 5.48,-0.66 6.96,-0.70 8.45,-0.73 11.36,-0.67 14.28,-0.62 14.39,-0.61 14.50,-0.59 14.59,-0.55 14.69,-0.50 14.76,-0.43 14.84,-0.36 14.89,-0.26 14.94,-0.17 14.96,-0.06 14.97,0.03 14.96,0.14 14.94,0.24 14.89,0.33 14.84,0.43 14.76,0.50 14.68,0.57 14.59,0.62 14.49,0.66 14.38,0.67 14.28,0.68 14.18,0.66 14.07,0.64 13.98,0.58 13.89,0.53 13.82,0.45 13.75,0.36 13.71,0.26 13.68,0.17 13.67,0.06 13.66,-0.04 13.69,-0.14 13.72,-0.24 13.78,-0.33 13.84,-0.42 13.93,-0.48 14.01,-0.54 14.11,-0.58 14.21,-0.61 14.32,-0.61 14.43,-0.61 14.53,-0.58 14.63,-0.54 14.71,-0.48 14.80,-0.41 14.86,-0.32 14.91,-0.24 14.94,-0.13 14.97,-0.03 14.96,0.07 14.96,0.17 14.92,0.27 14.88,0.37 14.81,0.45 14.74,0.53 14.65,0.58 14.56,0.64 14.45,0.66 14.35,0.68 14.35,0.68 14.35,0.68 11.42,1.04 8.49,1.39 6.94,1.43 5.39,1.46 3.94,1.38 2.49,1.31 1.20,1.05 -0.08,0.79 -0.17,0.76 -0.27,0.74 -0.35,0.70 -0.44,0.66 -0.51,0.59 -0.58,0.53 -0.64,0.45 -0.69,0.37 -0.73,0.28 -0.76,0.20 -0.78,0.10 -0.79,0.01 -0.78,-0.08 -0.77,-0.17 -0.74,-0.26 -0.70,-0.35 -0.65,-0.43 -0.60,-0.51 -0.53,-0.58 -0.46,-0.64 -0.37,-0.69 -0.29,-0.73 -0.19,-0.76 -0.10,-0.78 -0.01,-0.78 0.08,-0.79 0.08,-0.79 L 0.08,-0.79 Z"/></g><g transform="translate(51.82621806533365 84.5392532780032) rotate(0 -0.8900187155208528 5.793679215545453)" stroke="none"><path fill="#c92a2a" d="M 0.78,0.13 Q 0.78,0.13 0.59,1.70 0.41,3.28 0.10,4.93 -0.21,6.58 -0.64,8.90 -1.07,11.22 -1.10,11.32 -1.13,11.43 -1.19,11.51 -1.25,11.60 -1.34,11.67 -1.42,11.73 -1.52,11.76 -1.62,11.80 -1.73,11.80 -1.83,11.80 -1.94,11.76 -2.04,11.73 -2.12,11.66 -2.20,11.60 -2.26,11.51 -2.32,11.42 -2.35,11.32 -2.38,11.22 -2.37,11.11 -2.37,11.00 -2.33,10.91 -2.29,10.81 -2.22,10.73 -2.15,10.65 -2.06,10.59 -1.97,10.54 -1.86,10.52 -1.76,10.49 -1.65,10.50 -1.55,10.52 -1.45,10.56 -1.36,10.61 -1.28,10.68 -1.20,10.75 -1.15,10.85 -1.10,10.94 -1.09,11.05 -1.07,11.15 -1.09,11.26 -1.10,11.36 -1.15,11.45 -1.21,11.55 -1.28,11.62 -1.36,11.69 -1.46,11.74 -1.55,11.78 -1.66,11.79 -1.76,11.80 -1.87,11.78 -1.97,11.76 -2.06,11.70 -2.15,11.65 -2.22,11.57 -2.29,11.48 -2.33,11.39 -2.37,11.29 -2.37,11.18 -2.38,11.07 -2.38,11.08 -2.38,11.08 -2.23,8.65 -2.07,6.23 -1.76,4.60 -1.46,2.97 -1.12,1.42 -0.78,-0.13 -0.75,-0.22 -0.72,-0.31 -0.67,-0.39 -0.63,-0.47 -0.56,-0.54 -0.49,-0.61 -0.41,-0.66 -0.33,-0.71 -0.24,-0.74 -0.15,-0.77 -0.06,-0.78 0.03,-0.79 0.12,-0.77 0.22,-0.75 0.31,-0.72 0.39,-0.68 0.47,-0.62 0.55,-0.56 0.61,-0.49 0.67,-0.42 0.71,-0.33 0.75,-0.24 0.77,-0.15 0.78,-0.06 0.78,0.03 0.78,0.13 0.78,0.13 L 0.78,0.13 Z"/></g><g transform="translate(59.43499673385429 92.74112716151967) rotate(0 3.6996831318987944 2.5129168657804968)" stroke="none"><path fill="#c92a2a" d="M 0.79,0.08 Q 0.79,0.08 0.83,0.88 0.88,1.69 0.87,2.27 0.86,2.85 1.44,3.24 2.03,3.62 2.59,3.64 3.14,3.66 3.73,3.59 4.31,3.51 5.78,3.37 7.25,3.23 7.36,3.20 7.46,3.18 7.57,3.19 7.67,3.20 7.77,3.25 7.86,3.29 7.94,3.36 8.02,3.44 8.07,3.53 8.12,3.62 8.14,3.73 8.15,3.83 8.14,3.94 8.12,4.04 8.07,4.14 8.02,4.23 7.94,4.31 7.87,4.38 7.77,4.42 7.67,4.47 7.57,4.48 7.46,4.49 7.36,4.47 7.25,4.45 7.16,4.39 7.07,4.34 7.00,4.26 6.93,4.17 6.89,4.08 6.85,3.98 6.85,3.87 6.84,3.77 6.87,3.66 6.90,3.56 6.96,3.47 7.02,3.38 7.10,3.32 7.19,3.26 7.29,3.22 7.39,3.19 7.50,3.19 7.60,3.19 7.70,3.22 7.80,3.25 7.89,3.32 7.97,3.38 8.03,3.47 8.09,3.56 8.12,3.66 8.15,3.76 8.14,3.87 8.14,3.98 8.10,4.07 8.06,4.17 7.99,4.25 7.92,4.34 7.83,4.39 7.74,4.45 7.74,4.45 7.74,4.45 6.15,5.17 4.56,5.90 3.75,5.98 2.93,6.05 2.08,5.94 1.22,5.83 0.51,5.49 -0.20,5.15 -0.65,4.57 -1.11,3.98 -1.21,3.36 -1.32,2.74 -1.26,2.11 -1.20,1.47 -0.99,0.69 -0.79,-0.08 -0.76,-0.17 -0.74,-0.26 -0.70,-0.35 -0.66,-0.43 -0.60,-0.51 -0.53,-0.58 -0.46,-0.64 -0.38,-0.69 -0.29,-0.73 -0.20,-0.76 -0.11,-0.78 -0.01,-0.79 0.07,-0.78 0.17,-0.77 0.26,-0.74 0.35,-0.71 0.43,-0.65 0.51,-0.60 0.57,-0.53 0.64,-0.46 0.69,-0.38 0.73,-0.29 0.76,-0.20 0.78,-0.11 0.78,-0.01 0.79,0.08 0.79,0.08 L 0.79,0.08 Z"/></g><g transform="translate(66.5551304625732 93.33447830368289) rotate(0 -0.3664797059892919 3.5599548962237293)" stroke="none"><path d="M0 0 L-0.7 4.19 L-0.73 5.72 L-0.31 7.12 L-0.31 7.12" stroke="none" stroke-width="0" fill="#ced4da" fill-rule="evenodd"/><path fill="#c92a2a" d="M 0.82,0.13 Q 0.82,0.13 0.77,1.36 0.72,2.59 0.50,4.57 0.28,6.54 0.28,6.65 0.27,6.76 0.23,6.85 0.19,6.95 0.12,7.03 0.05,7.11 -0.03,7.17 -0.12,7.22 -0.23,7.24 -0.33,7.26 -0.44,7.25 -0.54,7.24 -0.64,7.19 -0.73,7.15 -0.81,7.07 -0.89,7.00 -0.93,6.91 -0.98,6.81 -1.00,6.71 -1.02,6.60 -1.00,6.50 -0.98,6.39 -0.93,6.30 -0.88,6.21 -0.80,6.13 -0.72,6.06 -0.63,6.02 -0.53,5.97 -0.42,5.96 -0.32,5.95 -0.21,5.98 -0.11,6.00 -0.02,6.06 0.06,6.11 0.13,6.19 0.20,6.28 0.23,6.37 0.27,6.47 0.28,6.58 0.28,6.69 0.25,6.79 0.22,6.89 0.16,6.98 0.10,7.06 0.02,7.13 -0.06,7.19 -0.16,7.22 -0.26,7.26 -0.37,7.26 -0.47,7.26 -0.57,7.22 -0.67,7.19 -0.76,7.12 -0.84,7.06 -0.90,6.97 -0.96,6.88 -0.99,6.78 -1.01,6.67 -1.01,6.67 -1.01,6.67 -1.27,4.44 -1.52,2.22 -1.17,1.04 -0.82,-0.13 -0.79,-0.23 -0.76,-0.32 -0.71,-0.41 -0.66,-0.50 -0.59,-0.57 -0.52,-0.64 -0.43,-0.70 -0.35,-0.75 -0.25,-0.78 -0.16,-0.81 -0.06,-0.82 0.03,-0.83 0.13,-0.81 0.23,-0.79 0.32,-0.75 0.41,-0.71 0.49,-0.65 0.57,-0.59 0.64,-0.52 0.70,-0.44 0.74,-0.35 0.79,-0.26 0.81,-0.16 0.83,-0.06 0.82,0.03 0.82,0.13 0.82,0.13 L 0.82,0.13 Z"/></g><g transform="translate(124.98216710262568 151.6201631700921) rotate(0 6.125416808560516 -0.20939640927507241)" stroke="none"><path fill="#c92a2a" d="M -0.09,-0.79 Q -0.09,-0.79 0.71,-0.96 1.53,-1.12 2.69,-1.21 3.85,-1.30 5.11,-1.33 6.37,-1.36 9.01,-1.10 11.66,-0.83 11.76,-0.81 11.86,-0.78 11.95,-0.73 12.04,-0.67 12.11,-0.59 12.18,-0.51 12.22,-0.41 12.26,-0.31 12.26,-0.20 12.26,-0.10 12.23,-0.00 12.20,0.10 12.14,0.18 12.08,0.27 12.00,0.33 11.91,0.40 11.81,0.43 11.71,0.46 11.60,0.46 11.50,0.46 11.40,0.42 11.30,0.39 11.21,0.32 11.13,0.26 11.07,0.17 11.01,0.08 10.98,-0.01 10.96,-0.12 10.97,-0.22 10.97,-0.33 11.01,-0.43 11.05,-0.53 11.12,-0.61 11.19,-0.69 11.29,-0.74 11.38,-0.79 11.48,-0.81 11.59,-0.83 11.69,-0.82 11.80,-0.81 11.89,-0.76 11.99,-0.72 12.06,-0.64 12.14,-0.57 12.19,-0.47 12.24,-0.38 12.25,-0.27 12.27,-0.17 12.25,-0.06 12.23,0.03 12.18,0.12 12.13,0.22 12.05,0.29 11.97,0.36 11.87,0.40 11.78,0.45 11.67,0.46 11.57,0.47 11.57,0.47 11.57,0.47 8.99,0.53 6.41,0.60 5.19,0.63 3.96,0.65 2.86,0.69 1.75,0.72 0.92,0.76 0.09,0.79 0.00,0.79 -0.09,0.80 -0.19,0.77 -0.28,0.75 -0.37,0.70 -0.45,0.66 -0.53,0.59 -0.60,0.53 -0.65,0.45 -0.71,0.37 -0.74,0.28 -0.78,0.19 -0.79,0.09 -0.80,0.00 -0.79,-0.09 -0.78,-0.19 -0.74,-0.28 -0.71,-0.37 -0.65,-0.45 -0.60,-0.53 -0.53,-0.59 -0.45,-0.66 -0.37,-0.70 -0.28,-0.75 -0.19,-0.77 -0.09,-0.79 -0.09,-0.79 L -0.09,-0.79 Z"/></g><g transform="translate(131.82308429171388 152.42287873063447) rotate(0 -0.20941240472305367 4.275455276751416)" stroke="none"><path fill="#c92a2a" d="M 0.76,0.07 Q 0.76,0.07 0.58,2.25 0.40,4.42 0.61,6.05 0.82,7.67 0.82,7.78 0.83,7.89 0.79,7.99 0.76,8.09 0.70,8.17 0.63,8.26 0.55,8.32 0.46,8.38 0.36,8.41 0.25,8.44 0.15,8.44 0.04,8.43 -0.05,8.39 -0.15,8.35 -0.23,8.29 -0.31,8.22 -0.37,8.13 -0.42,8.04 -0.45,7.93 -0.47,7.83 -0.46,7.72 -0.45,7.62 -0.40,7.52 -0.36,7.43 -0.29,7.35 -0.22,7.27 -0.12,7.22 -0.03,7.17 0.06,7.15 0.17,7.13 0.27,7.15 0.38,7.16 0.47,7.21 0.57,7.26 0.64,7.34 0.72,7.41 0.76,7.51 0.81,7.61 0.82,7.71 0.83,7.82 0.81,7.92 0.79,8.02 0.74,8.12 0.68,8.21 0.60,8.28 0.52,8.35 0.42,8.39 0.32,8.43 0.22,8.43 0.11,8.44 0.01,8.41 -0.08,8.39 -0.17,8.33 -0.26,8.27 -0.33,8.19 -0.39,8.10 -0.43,8.00 -0.46,7.90 -0.46,7.90 -0.46,7.90 -0.85,6.09 -1.24,4.28 -1.00,2.10 -0.76,-0.07 -0.74,-0.16 -0.72,-0.25 -0.68,-0.33 -0.64,-0.42 -0.58,-0.49 -0.52,-0.56 -0.44,-0.61 -0.37,-0.67 -0.28,-0.70 -0.20,-0.74 -0.11,-0.75 -0.01,-0.77 0.07,-0.76 0.16,-0.75 0.25,-0.72 0.34,-0.69 0.41,-0.64 0.49,-0.58 0.56,-0.52 0.62,-0.45 0.66,-0.37 0.71,-0.29 0.73,-0.20 0.76,-0.11 0.76,-0.01 0.76,0.07 0.76,0.07 L 0.76,0.07 Z"/></g><g transform="translate(139.3620588253268 158.0769816672605) rotate(0 2.879468551285612 5.0258337315609936)" stroke="none"><path fill="#c92a2a" d="M 0.06,-0.82 Q 0.06,-0.82 0.97,-0.78 1.87,-0.75 2.46,-0.64 3.04,-0.53 3.54,-0.16 4.05,0.20 4.13,0.80 4.22,1.39 3.86,1.86 3.50,2.32 4.32,3.10 5.14,3.88 5.58,4.43 6.03,4.98 6.33,5.78 6.62,6.58 6.40,7.52 6.17,8.47 5.51,9.20 4.84,9.93 3.35,9.67 1.86,9.41 1.80,9.46 1.74,9.51 1.66,9.54 1.59,9.57 1.51,9.58 1.43,9.59 1.35,9.58 1.27,9.58 1.20,9.55 1.12,9.53 1.06,9.48 0.99,9.44 0.94,9.38 0.88,9.33 0.84,9.26 0.81,9.19 0.78,9.11 0.76,9.03 0.76,8.96 0.76,8.88 0.77,8.80 0.79,8.72 0.83,8.65 0.86,8.58 0.91,8.52 0.96,8.46 0.87,8.80 0.79,9.14 0.77,9.03 0.76,8.93 0.77,8.82 0.79,8.72 0.84,8.62 0.89,8.53 0.97,8.46 1.05,8.39 1.15,8.34 1.25,8.30 1.35,8.29 1.46,8.28 1.56,8.30 1.66,8.33 1.75,8.39 1.84,8.44 1.91,8.52 1.98,8.60 2.02,8.70 2.06,8.80 2.06,8.91 2.06,9.02 2.03,9.12 2.00,9.22 1.94,9.31 1.88,9.39 1.80,9.46 1.71,9.52 1.61,9.55 1.51,9.58 1.40,9.58 1.30,9.58 1.20,9.55 1.10,9.51 1.01,9.45 0.93,9.38 0.87,9.29 0.81,9.20 0.78,9.10 0.76,9.00 0.77,8.89 0.77,8.78 0.81,8.69 0.85,8.59 0.92,8.51 0.99,8.43 1.09,8.38 1.18,8.32 1.28,8.30 1.39,8.28 1.49,8.29 1.60,8.31 1.69,8.35 1.79,8.40 1.86,8.47 1.94,8.55 1.90,8.98 1.86,9.41 1.80,9.46 1.74,9.51 1.66,9.54 1.59,9.57 1.51,9.58 1.43,9.59 1.35,9.58 1.27,9.58 1.20,9.55 1.13,9.53 1.06,9.48 0.99,9.44 0.94,9.38 0.88,9.33 0.84,9.26 0.81,9.19 0.78,9.11 0.76,9.03 0.76,8.96 0.76,8.88 0.77,8.80 0.79,8.72 0.83,8.65 0.86,8.58 0.91,8.52 0.96,8.46 2.46,8.01 3.96,7.55 4.15,6.87 4.33,6.20 4.00,5.72 3.67,5.24 3.28,4.81 2.89,4.37 2.11,3.52 1.33,2.68 1.53,1.85 1.73,1.03 0.83,0.92 -0.06,0.82 -0.16,0.80 -0.25,0.78 -0.34,0.74 -0.43,0.69 -0.51,0.63 -0.59,0.57 -0.65,0.49 -0.71,0.41 -0.75,0.32 -0.79,0.23 -0.80,0.13 -0.82,0.03 -0.81,-0.06 -0.80,-0.16 -0.77,-0.25 -0.74,-0.35 -0.69,-0.43 -0.64,-0.52 -0.56,-0.58 -0.49,-0.65 -0.41,-0.70 -0.32,-0.75 -0.23,-0.78 -0.13,-0.81 -0.03,-0.81 0.06,-0.82 0.06,-0.82 L 0.06,-0.82 Z"/></g><g transform="translate(147.7037809103781 62.9351614421401) rotate(0 8.02761947341466 19.719412184251723)" stroke="none"><path fill="#000000" d="M 0.38,-0.67 Q 0.38,-0.67 1.48,-0.05 2.57,0.55 3.36,1.03 4.15,1.51 4.82,1.95 5.49,2.38 6.13,2.93 6.78,3.48 7.53,4.25 8.27,5.01 8.95,5.97 9.63,6.93 10.24,8.01 10.84,9.09 11.41,10.18 11.97,11.27 12.48,12.33 12.98,13.40 13.47,14.51 13.95,15.62 14.43,16.80 14.91,17.98 15.29,19.27 15.67,20.56 15.96,21.98 16.26,23.39 16.45,24.90 16.63,26.40 16.71,27.80 16.79,29.20 16.80,30.58 16.80,31.97 16.69,33.26 16.57,34.55 15.93,36.84 15.29,39.13 15.24,39.23 15.20,39.32 15.12,39.40 15.05,39.47 14.95,39.52 14.86,39.57 14.75,39.59 14.65,39.60 14.54,39.58 14.44,39.56 14.35,39.51 14.25,39.46 14.18,39.38 14.11,39.31 14.07,39.21 14.02,39.11 14.01,39.01 14.00,38.90 14.03,38.80 14.05,38.69 14.11,38.60 14.16,38.51 14.25,38.44 14.33,38.38 14.43,38.34 14.53,38.30 14.63,38.30 14.74,38.29 14.84,38.32 14.94,38.35 15.03,38.41 15.12,38.47 15.18,38.56 15.24,38.65 15.28,38.75 15.31,38.85 15.31,38.95 15.30,39.06 15.27,39.16 15.23,39.26 15.17,39.34 15.10,39.43 15.01,39.49 14.92,39.54 14.82,39.57 14.72,39.60 14.61,39.59 14.51,39.58 14.41,39.54 14.31,39.50 14.23,39.43 14.15,39.36 14.10,39.27 14.04,39.18 14.02,39.07 14.00,38.97 14.01,38.86 14.03,38.76 14.03,38.76 14.03,38.76 14.45,36.58 14.88,34.40 14.98,33.19 15.08,31.97 15.08,30.63 15.08,29.29 15.01,27.95 14.93,26.61 14.76,25.18 14.58,23.74 14.31,22.39 14.03,21.04 13.68,19.83 13.34,18.62 12.86,17.46 12.39,16.30 11.91,15.22 11.43,14.13 10.94,13.10 10.45,12.06 9.90,10.99 9.35,9.92 8.79,8.91 8.24,7.90 7.64,7.04 7.05,6.18 6.37,5.45 5.68,4.73 5.14,4.23 4.59,3.73 3.95,3.30 3.32,2.87 2.56,2.40 1.79,1.93 0.70,1.30 -0.38,0.67 -0.45,0.61 -0.53,0.56 -0.59,0.49 -0.65,0.41 -0.69,0.33 -0.73,0.25 -0.75,0.15 -0.77,0.06 -0.77,-0.02 -0.76,-0.11 -0.74,-0.20 -0.71,-0.29 -0.67,-0.38 -0.62,-0.46 -0.55,-0.53 -0.49,-0.59 -0.41,-0.64 -0.33,-0.69 -0.24,-0.72 -0.16,-0.76 -0.06,-0.76 0.02,-0.77 0.11,-0.76 0.21,-0.74 0.29,-0.71 0.38,-0.67 0.38,-0.67 L 0.38,-0.67 Z"/></g><g transform="translate(136.39531910995868 81.57260953532281) rotate(0 3.874209464615916 7.294444122888578)" stroke="none"><path fill="#000000" d="M 0.77,0.17 Q 0.77,0.17 0.54,1.33 0.30,2.49 0.10,3.45 -0.09,4.41 -0.24,5.20 -0.39,5.98 -0.45,6.61 -0.52,7.24 -0.08,7.71 0.35,8.18 0.88,8.29 1.40,8.39 2.00,8.38 2.60,8.37 3.11,8.13 3.62,7.88 4.06,7.52 4.50,7.15 4.97,6.71 5.45,6.27 6.03,5.76 6.60,5.24 6.56,5.14 6.52,5.03 6.59,4.92 6.65,4.82 6.74,4.73 6.83,4.64 6.94,4.58 7.05,4.51 7.17,4.48 7.29,4.44 7.42,4.43 7.55,4.43 7.67,4.45 7.79,4.47 7.91,4.53 8.02,4.58 8.12,4.66 8.22,4.74 8.30,4.84 8.37,4.94 8.42,5.06 8.48,5.17 8.50,5.30 8.52,5.42 8.51,5.55 8.50,5.67 8.46,5.79 8.42,5.91 8.26,6.90 8.09,7.88 8.10,8.75 8.10,9.62 8.20,10.45 8.29,11.29 8.93,12.61 9.57,13.94 9.64,14.02 9.71,14.10 9.75,14.20 9.79,14.30 9.79,14.41 9.80,14.51 9.77,14.61 9.74,14.72 9.68,14.80 9.62,14.89 9.54,14.96 9.45,15.02 9.35,15.05 9.25,15.09 9.14,15.09 9.04,15.09 8.94,15.05 8.84,15.02 8.75,14.95 8.67,14.89 8.61,14.80 8.55,14.71 8.52,14.61 8.49,14.51 8.50,14.40 8.50,14.30 8.54,14.20 8.58,14.10 8.65,14.02 8.72,13.94 8.81,13.88 8.90,13.83 9.01,13.81 9.11,13.78 9.22,13.80 9.32,13.81 9.42,13.85 9.51,13.90 9.59,13.97 9.67,14.04 9.72,14.14 9.77,14.23 9.78,14.34 9.80,14.44 9.78,14.55 9.77,14.65 9.72,14.74 9.67,14.84 9.59,14.91 9.51,14.98 9.42,15.03 9.32,15.07 9.21,15.08 9.11,15.09 9.00,15.07 8.90,15.05 8.81,14.99 8.72,14.94 8.72,14.94 8.72,14.94 7.46,13.24 6.19,11.54 6.08,10.58 5.98,9.63 5.97,8.70 5.97,7.77 6.03,6.94 6.09,6.11 6.31,5.57 6.52,5.03 6.59,4.92 6.65,4.82 6.74,4.73 6.83,4.64 6.94,4.58 7.05,4.51 7.17,4.48 7.29,4.44 7.42,4.43 7.55,4.43 7.67,4.45 7.79,4.47 7.91,4.53 8.02,4.58 8.12,4.66 8.22,4.74 8.30,4.84 8.37,4.94 8.42,5.06 8.48,5.17 8.50,5.30 8.52,5.42 8.51,5.55 8.50,5.67 8.46,5.79 8.42,5.91 8.29,6.27 8.15,6.63 7.50,7.22 6.86,7.80 6.32,8.30 5.77,8.79 5.09,9.30 4.40,9.81 3.51,10.12 2.61,10.42 1.73,10.38 0.85,10.34 -0.01,10.04 -0.88,9.73 -1.45,9.14 -2.01,8.54 -2.19,7.81 -2.38,7.08 -2.28,6.35 -2.19,5.61 -2.01,4.81 -1.83,4.00 -1.59,3.06 -1.35,2.12 -1.06,0.97 -0.77,-0.17 -0.74,-0.26 -0.71,-0.35 -0.66,-0.43 -0.60,-0.51 -0.53,-0.58 -0.46,-0.64 -0.38,-0.69 -0.29,-0.74 -0.20,-0.76 -0.11,-0.78 -0.01,-0.79 0.08,-0.79 0.17,-0.77 0.26,-0.75 0.35,-0.70 0.44,-0.66 0.51,-0.60 0.58,-0.54 0.64,-0.46 0.69,-0.38 0.73,-0.29 0.77,-0.20 0.78,-0.11 0.79,-0.01 0.78,0.08 0.77,0.17 0.77,0.17 L 0.77,0.17 Z"/></g><g transform="translate(150.21679374884633 82.65457362639182) rotate(0 0.977257888707527 5.950730521363738)" stroke="none"><path fill="#000000" d="M 0.76,0.21 Q 0.76,0.21 0.57,1.09 0.38,1.96 0.29,2.51 0.19,3.07 0.88,3.35 1.57,3.62 2.05,3.87 2.52,4.13 2.98,4.60 3.43,5.08 3.72,5.73 4.01,6.37 4.15,6.99 4.29,7.60 4.36,8.67 4.44,9.74 4.30,10.33 4.16,10.91 3.74,11.49 3.33,12.07 2.65,12.40 1.97,12.74 0.10,11.17 -1.75,9.61 -1.80,9.51 -1.84,9.41 -1.85,9.31 -1.86,9.20 -1.84,9.10 -1.81,8.99 -1.76,8.90 -1.70,8.81 -1.62,8.74 -1.54,8.68 -1.44,8.64 -1.34,8.60 -1.24,8.59 -1.13,8.59 -1.03,8.62 -0.93,8.65 -0.84,8.71 -0.75,8.77 -0.69,8.85 -0.62,8.94 -0.59,9.04 -0.56,9.14 -0.56,9.24 -0.56,9.35 -0.59,9.45 -0.63,9.55 -0.69,9.63 -0.76,9.72 -0.84,9.78 -0.93,9.84 -1.04,9.87 -1.14,9.89 -1.24,9.89 -1.35,9.88 -1.45,9.84 -1.55,9.80 -1.63,9.73 -1.71,9.66 -1.76,9.57 -1.82,9.48 -1.84,9.38 -1.86,9.27 -1.85,9.17 -1.84,9.06 -1.79,8.97 -1.75,8.87 -1.67,8.79 -1.60,8.72 -1.51,8.67 -1.41,8.62 -1.31,8.60 -1.20,8.58 -1.10,8.60 -0.99,8.62 -0.90,8.67 -0.81,8.72 -0.73,8.80 -0.66,8.87 -0.66,8.87 -0.66,8.87 0.62,9.54 1.90,10.21 2.03,9.52 2.15,8.82 2.09,7.93 2.03,7.04 1.80,6.39 1.57,5.74 0.94,5.49 0.32,5.24 -0.20,5.03 -0.73,4.82 -1.08,4.38 -1.44,3.93 -1.52,3.35 -1.61,2.76 -1.48,2.12 -1.34,1.48 -1.05,0.63 -0.76,-0.21 -0.72,-0.30 -0.69,-0.39 -0.63,-0.46 -0.57,-0.54 -0.50,-0.60 -0.43,-0.66 -0.34,-0.70 -0.25,-0.75 -0.16,-0.77 -0.07,-0.79 0.02,-0.78 0.11,-0.78 0.21,-0.75 0.30,-0.73 0.38,-0.68 0.47,-0.63 0.54,-0.57 0.61,-0.50 0.66,-0.42 0.71,-0.34 0.74,-0.25 0.77,-0.16 0.78,-0.07 0.79,0.02 0.77,0.11 0.76,0.21 0.76,0.21 L 0.76,0.21 Z"/></g><g transform="translate(150.6705206257463 82.82908396366102) rotate(0 1.6055270937725084 -0.43626784544900943)" stroke="none"><path fill="#000000" d="M -0.39,-0.79 Q -0.39,-0.79 0.09,-1.11 0.59,-1.43 0.71,-1.08 0.84,-0.72 0.91,-0.75 0.99,-0.78 1.07,-0.78 1.15,-0.79 1.22,-0.78 1.30,-0.77 1.38,-0.74 1.45,-0.71 1.51,-0.66 1.58,-0.62 1.63,-0.56 1.68,-0.50 1.72,-0.43 1.75,-0.36 1.77,-0.28 1.79,-0.20 1.78,-0.12 1.78,-0.04 1.76,0.02 1.74,0.10 1.70,0.17 1.67,0.24 1.61,0.30 1.56,0.35 1.49,0.40 1.43,0.44 1.21,0.47 1.00,0.50 0.90,0.46 0.80,0.42 0.72,0.35 0.64,0.29 0.58,0.20 0.53,0.11 0.50,0.00 0.48,-0.09 0.49,-0.20 0.50,-0.30 0.54,-0.40 0.58,-0.50 0.66,-0.57 0.73,-0.65 0.82,-0.70 0.91,-0.75 1.02,-0.77 1.12,-0.79 1.23,-0.78 1.33,-0.76 1.43,-0.71 1.52,-0.66 1.60,-0.59 1.67,-0.51 1.72,-0.42 1.76,-0.32 1.78,-0.21 1.79,-0.11 1.77,-0.01 1.75,0.09 1.69,0.18 1.64,0.27 1.56,0.34 1.48,0.41 1.38,0.45 1.28,0.49 1.18,0.50 1.07,0.51 0.97,0.48 0.87,0.45 0.78,0.40 0.69,0.34 0.62,0.25 0.56,0.17 0.52,0.07 0.49,-0.02 0.48,-0.13 0.48,-0.23 0.52,-0.33 0.55,-0.43 0.61,-0.52 0.67,-0.61 0.76,-0.67 0.85,-0.73 0.95,-0.76 1.05,-0.79 0.95,-0.75 0.84,-0.72 0.91,-0.75 0.99,-0.78 1.07,-0.78 1.15,-0.79 1.22,-0.78 1.30,-0.77 1.38,-0.74 1.45,-0.71 1.51,-0.66 1.58,-0.62 1.63,-0.56 1.68,-0.50 1.72,-0.43 1.75,-0.36 1.77,-0.28 1.79,-0.20 1.78,-0.12 1.78,-0.04 1.76,0.02 1.74,0.10 1.70,0.17 1.67,0.24 1.61,0.30 1.56,0.35 1.49,0.40 1.43,0.44 1.42,0.43 1.41,0.43 0.90,0.61 0.39,0.79 0.29,0.83 0.19,0.86 0.08,0.87 -0.01,0.89 -0.12,0.87 -0.23,0.86 -0.32,0.82 -0.42,0.78 -0.51,0.71 -0.60,0.65 -0.67,0.57 -0.74,0.49 -0.79,0.39 -0.83,0.29 -0.86,0.19 -0.88,0.08 -0.88,-0.01 -0.88,-0.12 -0.85,-0.22 -0.82,-0.33 -0.77,-0.42 -0.72,-0.52 -0.65,-0.59 -0.57,-0.67 -0.48,-0.73 -0.39,-0.79 -0.39,-0.79 L -0.39,-0.79 Z"/></g><g transform="translate(154.9286368369065 75.04601889414266) rotate(0 -0.610802175890143 2.1988062564199)" stroke="none"><path fill="#000000" d="M 0.08,0.79 Q 0.08,0.79 -0.69,0.93 -1.46,1.07 -1.80,1.49 -2.13,1.90 -1.81,2.36 -1.48,2.83 -0.73,3.09 0.02,3.36 -0.07,2.20 -0.16,1.04 -0.20,0.94 -0.23,0.84 -0.23,0.73 -0.24,0.63 -0.21,0.53 -0.18,0.42 -0.11,0.34 -0.05,0.25 0.02,0.19 0.11,0.13 0.21,0.10 0.31,0.07 0.42,0.07 0.53,0.07 0.63,0.11 0.73,0.14 0.81,0.21 0.89,0.28 0.95,0.37 1.01,0.46 1.03,0.56 1.06,0.66 1.05,0.77 1.04,0.88 1.00,0.97 0.96,1.07 0.89,1.15 0.81,1.23 0.72,1.28 0.63,1.33 0.52,1.35 0.42,1.37 0.32,1.36 0.21,1.34 0.11,1.30 0.02,1.25 -0.05,1.17 -0.12,1.10 -0.17,1.00 -0.21,0.91 -0.23,0.80 -0.24,0.70 -0.22,0.59 -0.20,0.49 -0.15,0.40 -0.10,0.30 -0.02,0.23 0.05,0.16 0.15,0.12 0.24,0.08 0.35,0.07 0.46,0.06 0.56,0.09 0.66,0.11 0.75,0.17 0.84,0.23 0.91,0.31 0.97,0.39 0.97,0.39 0.97,0.39 1.61,2.31 2.25,4.23 1.68,4.63 1.12,5.02 0.39,5.13 -0.34,5.24 -1.08,5.04 -1.83,4.84 -2.42,4.41 -3.01,3.97 -3.38,3.37 -3.76,2.77 -3.81,2.02 -3.87,1.27 -3.46,0.58 -3.05,-0.09 -2.38,-0.42 -1.70,-0.75 -0.89,-0.77 -0.08,-0.79 0.01,-0.79 0.11,-0.79 0.20,-0.77 0.29,-0.74 0.38,-0.69 0.46,-0.65 0.54,-0.58 0.61,-0.52 0.66,-0.43 0.71,-0.35 0.75,-0.26 0.78,-0.17 0.79,-0.08 0.80,0.01 0.78,0.11 0.77,0.20 0.74,0.29 0.70,0.38 0.64,0.46 0.59,0.54 0.51,0.60 0.44,0.67 0.35,0.71 0.26,0.75 0.17,0.77 0.08,0.79 0.08,0.79 L 0.08,0.79 Z"/></g><g stroke-linecap="round" transform="translate(364.8371975923686 83.76689929870946) rotate(0 19.24407958984375 19.24407958984375)"><path d="M38.49 19.24 C38.49 20.36, 38.39 21.49, 38.2 22.59 C38 23.68, 37.71 24.78, 37.33 25.83 C36.95 26.87, 36.47 27.9, 35.91 28.87 C35.35 29.83, 34.7 30.76, 33.99 31.61 C33.27 32.47, 32.47 33.27, 31.61 33.99 C30.76 34.7, 29.83 35.35, 28.87 35.91 C27.9 36.47, 26.87 36.95, 25.83 37.33 C24.78 37.71, 23.68 38, 22.59 38.2 C21.49 38.39, 20.36 38.49, 19.24 38.49 C18.13 38.49, 17 38.39, 15.9 38.2 C14.81 38, 13.71 37.71, 12.66 37.33 C11.62 36.95, 10.59 36.47, 9.62 35.91 C8.66 35.35, 7.73 34.7, 6.87 33.99 C6.02 33.27, 5.22 32.47, 4.5 31.61 C3.79 30.76, 3.14 29.83, 2.58 28.87 C2.02 27.9, 1.54 26.87, 1.16 25.83 C0.78 24.78, 0.49 23.68, 0.29 22.59 C0.1 21.49, 0 20.36, 0 19.24 C0 18.13, 0.1 17, 0.29 15.9 C0.49 14.81, 0.78 13.71, 1.16 12.66 C1.54 11.62, 2.02 10.59, 2.58 9.62 C3.14 8.66, 3.79 7.73, 4.5 6.87 C5.22 6.02, 6.02 5.22, 6.87 4.5 C7.73 3.79, 8.66 3.14, 9.62 2.58 C10.59 2.02, 11.62 1.54, 12.66 1.16 C13.71 0.78, 14.81 0.49, 15.9 0.29 C17 0.1, 18.13 0, 19.24 0 C20.36 0, 21.49 0.1, 22.59 0.29 C23.68 0.49, 24.78 0.78, 25.83 1.16 C26.87 1.54, 27.9 2.02, 28.87 2.58 C29.83 3.14, 30.76 3.79, 31.61 4.5 C32.47 5.22, 33.27 6.02, 33.99 6.87 C34.7 7.73, 35.35 8.66, 35.91 9.62 C36.47 10.59, 36.95 11.62, 37.33 12.66 C37.71 13.71, 38 14.81, 38.2 15.9 C38.39 17, 38.44 18.69, 38.49 19.24 C38.54 19.8, 38.54 18.69, 38.49 19.24" stroke="none" stroke-width="0" fill="#ced4da"/><path d="M38.49 19.24 C38.49 20.36, 38.39 21.49, 38.2 22.59 C38 23.68, 37.71 24.78, 37.33 25.83 C36.95 26.87, 36.47 27.9, 35.91 28.87 C35.35 29.83, 34.7 30.76, 33.99 31.61 C33.27 32.47, 32.47 33.27, 31.61 33.99 C30.76 34.7, 29.83 35.35, 28.87 35.91 C27.9 36.47, 26.87 36.95, 25.83 37.33 C24.78 37.71, 23.68 38, 22.59 38.2 C21.49 38.39, 20.36 38.49, 19.24 38.49 C18.13 38.49, 17 38.39, 15.9 38.2 C14.81 38, 13.71 37.71, 12.66 37.33 C11.62 36.95, 10.59 36.47, 9.62 35.91 C8.66 35.35, 7.73 34.7, 6.87 33.99 C6.02 33.27, 5.22 32.47, 4.5 31.61 C3.79 30.76, 3.14 29.83, 2.58 28.87 C2.02 27.9, 1.54 26.87, 1.16 25.83 C0.78 24.78, 0.49 23.68, 0.29 22.59 C0.1 21.49, 0 20.36, 0 19.24 C0 18.13, 0.1 17, 0.29 15.9 C0.49 14.81, 0.78 13.71, 1.16 12.66 C1.54 11.62, 2.02 10.59, 2.58 9.62 C3.14 8.66, 3.79 7.73, 4.5 6.87 C5.22 6.02, 6.02 5.22, 6.87 4.5 C7.73 3.79, 8.66 3.14, 9.62 2.58 C10.59 2.02, 11.62 1.54, 12.66 1.16 C13.71 0.78, 14.81 0.49, 15.9 0.29 C17 0.1, 18.13 0, 19.24 0 C20.36 0, 21.49 0.1, 22.59 0.29 C23.68 0.49, 24.78 0.78, 25.83 1.16 C26.87 1.54, 27.9 2.02, 28.87 2.58 C29.83 3.14, 30.76 3.79, 31.61 4.5 C32.47 5.22, 33.27 6.02, 33.99 6.87 C34.7 7.73, 35.35 8.66, 35.91 9.62 C36.47 10.59, 36.95 11.62, 37.33 12.66 C37.71 13.71, 38 14.81, 38.2 15.9 C38.39 17, 38.44 18.69, 38.49 19.24 C38.54 19.8, 38.54 18.69, 38.49 19.24" stroke="#000000" stroke-width="0.5" fill="none"/></g><g stroke-linecap="round"><g transform="translate(111.07904445136799 124.75470720192507) rotate(0 0.07362104879693732 41.19025489460776)"><path d="M0 0 C0.02 13.73, 0.12 68.65, 0.15 82.38 M0 0 C0.02 13.73, 0.12 68.65, 0.15 82.38" stroke="#c92a2a" stroke-width="0.5" fill="none"/></g><g transform="translate(111.07904445136799 124.75470720192507) rotate(0 0.07362104879693732 41.19025489460776)"><path d="M0.15 82.38 L-6.22 68.8 L6.46 68.77 L0.15 82.38" stroke="none" stroke-width="0" fill="#c92a2a" fill-rule="evenodd"/><path d="M0.15 82.38 C-2.23 77.3, -4.61 72.23, -6.22 68.8 M0.15 82.38 C-2.33 77.1, -4.8 71.82, -6.22 68.8 M-6.22 68.8 C-2.3 68.79, 1.62 68.78, 6.46 68.77 M-6.22 68.8 C-2.28 68.79, 1.66 68.78, 6.46 68.77 M6.46 68.77 C4.83 72.3, 3.19 75.82, 0.15 82.38 M6.46 68.77 C4.07 73.93, 1.68 79.08, 0.15 82.38 M0.15 82.38 C0.15 82.38, 0.15 82.38, 0.15 82.38 M0.15 82.38 C0.15 82.38, 0.15 82.38, 0.15 82.38" stroke="#c92a2a" stroke-width="0.5" fill="none"/></g></g><mask/><g stroke-linecap="round"><g transform="translate(365.40341950234057 103.58917731130828) rotate(0 -41.4811090569809 0.2515726518028316)"><path d="M0 0 C-13.83 0.08, -69.14 0.42, -82.96 0.5 M0 0 C-13.83 0.08, -69.14 0.42, -82.96 0.5" stroke="#c92a2a" stroke-width="0.5" fill="none"/></g><g transform="translate(365.40341950234057 103.58917731130828) rotate(0 -41.4811090569809 0.2515726518028316)"><path d="M-82.96 0.5 L-69.41 -5.92 L-69.33 6.76 L-82.96 0.5" stroke="none" stroke-width="0" fill="#c92a2a" fill-rule="evenodd"/><path d="M-82.96 0.5 C-80.13 -0.84, -77.3 -2.18, -69.41 -5.92 M-82.96 0.5 C-79.57 -1.1, -76.18 -2.71, -69.41 -5.92 M-69.41 -5.92 C-69.38 -2.23, -69.36 1.46, -69.33 6.76 M-69.41 -5.92 C-69.38 -1.07, -69.35 3.78, -69.33 6.76 M-69.33 6.76 C-74.19 4.53, -79.06 2.3, -82.96 0.5 M-69.33 6.76 C-72.35 5.37, -75.37 3.99, -82.96 0.5 M-82.96 0.5 C-82.96 0.5, -82.96 0.5, -82.96 0.5 M-82.96 0.5 C-82.96 0.5, -82.96 0.5, -82.96 0.5" stroke="#c92a2a" stroke-width="0.5" fill="none"/></g></g><mask/><g stroke-linecap="round"><g transform="translate(403.5194650965359 104.84705498296358) rotate(0 41.292418758647955 -0.7861951637463278)"><path d="M0 0 C13.76 -0.26, 68.82 -1.31, 82.58 -1.57 M0 0 C13.76 -0.26, 68.82 -1.31, 82.58 -1.57" stroke="#c92a2a" stroke-width="0.5" fill="none"/></g><g transform="translate(403.5194650965359 104.84705498296358) rotate(0 41.292418758647955 -0.7861951637463278)"><path d="M82.58 -1.57 L69.11 5.02 L68.87 -7.65 L82.58 -1.57" stroke="none" stroke-width="0" fill="#c92a2a" fill-rule="evenodd"/><path d="M82.58 -1.57 C77.27 1.03, 71.96 3.63, 69.11 5.02 M82.58 -1.57 C77.66 0.84, 72.74 3.25, 69.11 5.02 M69.11 5.02 C69.03 0.85, 68.95 -3.33, 68.87 -7.65 M69.11 5.02 C69.06 2.33, 69.01 -0.36, 68.87 -7.65 M68.87 -7.65 C72.61 -5.99, 76.35 -4.34, 82.58 -1.57 M68.87 -7.65 C71.65 -6.42, 74.42 -5.19, 82.58 -1.57 M82.58 -1.57 C82.58 -1.57, 82.58 -1.57, 82.58 -1.57 M82.58 -1.57 C82.58 -1.57, 82.58 -1.57, 82.58 -1.57" stroke="#c92a2a" stroke-width="0.5" fill="none"/></g></g><mask/><g stroke-linecap="round"><g transform="translate(390.8769845059661 82.07877155417003) rotate(0 29.341831420581457 -36.039385777085016)"><path d="M0 0 C9.78 -12.01, 48.9 -60.07, 58.68 -72.08 M0 0 C9.78 -12.01, 48.9 -60.07, 58.68 -72.08" stroke="#c92a2a" stroke-width="0.5" fill="none"/></g><g transform="translate(390.8769845059661 82.07877155417003) rotate(0 29.341831420581457 -36.039385777085016)"><path d="M58.68 -72.08 L55.02 -57.53 L45.18 -65.54 L58.68 -72.08" stroke="none" stroke-width="0" fill="#c92a2a" fill-rule="evenodd"/><path d="M58.68 -72.08 C57.64 -67.92, 56.59 -63.77, 55.02 -57.53 M58.68 -72.08 C57.68 -68.12, 56.69 -64.15, 55.02 -57.53 M55.02 -57.53 C51.39 -60.49, 47.76 -63.44, 45.18 -65.54 M55.02 -57.53 C51.78 -60.17, 48.55 -62.8, 45.18 -65.54 M45.18 -65.54 C48.74 -67.26, 52.29 -68.98, 58.68 -72.08 M45.18 -65.54 C48.68 -67.23, 52.17 -68.92, 58.68 -72.08 M58.68 -72.08 C58.68 -72.08, 58.68 -72.08, 58.68 -72.08 M58.68 -72.08 C58.68 -72.08, 58.68 -72.08, 58.68 -72.08" stroke="#c92a2a" stroke-width="0.5" fill="none"/></g></g><mask/><g stroke-linecap="round"><g transform="translate(392.07208071263983 121.82895123067459) rotate(0 27.643589910302126 35.59912282694921)"><path d="M0 0 C9.21 11.87, 46.07 59.33, 55.29 71.2 M0 0 C9.21 11.87, 46.07 59.33, 55.29 71.2" stroke="#c92a2a" stroke-width="0.5" fill="none"/></g><g transform="translate(392.07208071263983 121.82895123067459) rotate(0 27.643589910302126 35.59912282694921)"><path d="M55.29 71.2 L41.94 64.35 L51.96 56.57 L55.29 71.2" stroke="none" stroke-width="0" fill="#c92a2a" fill-rule="evenodd"/><path d="M55.29 71.2 C50.14 68.56, 44.99 65.91, 41.94 64.35 M55.29 71.2 C50.95 68.97, 46.62 66.75, 41.94 64.35 M41.94 64.35 C44.18 62.61, 46.41 60.88, 51.96 56.57 M41.94 64.35 C44.24 62.57, 46.53 60.78, 51.96 56.57 M51.96 56.57 C53.15 61.8, 54.34 67.04, 55.29 71.2 M51.96 56.57 C53.23 62.17, 54.51 67.77, 55.29 71.2 M55.29 71.2 C55.29 71.2, 55.29 71.2, 55.29 71.2 M55.29 71.2 C55.29 71.2, 55.29 71.2, 55.29 71.2" stroke="#c92a2a" stroke-width="0.5" fill="none"/></g></g><mask/><g transform="translate(431.6347807526705 55.97693069621113) rotate(0 7.107449871672429 19.340510564232346)" stroke="none"><path fill="#000000" d="M 0.55,-0.58 Q 0.55,-0.58 1.93,0.61 3.32,1.82 4.45,2.87 5.58,3.92 6.51,5.13 7.44,6.34 8.26,7.95 9.09,9.56 9.89,11.38 10.69,13.19 11.44,15.27 12.19,17.35 12.82,19.46 13.45,21.57 13.92,23.87 14.39,26.18 14.66,28.47 14.93,30.76 14.94,32.75 14.95,34.74 14.89,36.34 14.84,37.95 14.82,38.05 14.81,38.16 14.76,38.25 14.72,38.35 14.65,38.42 14.57,38.50 14.48,38.55 14.38,38.60 14.28,38.61 14.17,38.63 14.07,38.61 13.96,38.59 13.87,38.54 13.78,38.49 13.70,38.41 13.63,38.34 13.59,38.24 13.54,38.14 13.53,38.04 13.52,37.93 13.55,37.83 13.57,37.72 13.63,37.63 13.68,37.54 13.77,37.48 13.85,37.41 13.95,37.37 14.05,37.33 14.15,37.33 14.26,37.32 14.36,37.35 14.46,37.38 14.55,37.44 14.64,37.50 14.70,37.59 14.76,37.67 14.80,37.77 14.83,37.87 14.83,37.98 14.83,38.09 14.79,38.19 14.76,38.29 14.69,38.37 14.63,38.46 14.54,38.51 14.45,38.57 14.35,38.60 14.24,38.63 14.14,38.62 14.03,38.61 13.93,38.57 13.83,38.53 13.75,38.46 13.67,38.39 13.62,38.30 13.57,38.21 13.55,38.11 13.52,38.00 13.52,38.00 13.52,38.00 13.33,36.42 13.13,34.84 12.92,32.93 12.70,31.03 12.43,28.83 12.16,26.63 11.71,24.42 11.26,22.21 10.66,20.16 10.05,18.11 9.35,16.09 8.64,14.08 7.89,12.30 7.14,10.53 6.44,9.06 5.74,7.59 4.96,6.49 4.18,5.39 3.07,4.31 1.95,3.24 0.70,1.91 -0.55,0.58 -0.61,0.50 -0.68,0.43 -0.72,0.34 -0.76,0.25 -0.78,0.16 -0.80,0.06 -0.79,-0.03 -0.79,-0.12 -0.76,-0.22 -0.74,-0.31 -0.69,-0.39 -0.64,-0.48 -0.57,-0.55 -0.51,-0.62 -0.42,-0.67 -0.34,-0.72 -0.25,-0.75 -0.16,-0.78 -0.06,-0.79 0.03,-0.80 0.12,-0.78 0.22,-0.77 0.31,-0.73 0.40,-0.69 0.48,-0.63 0.55,-0.58 0.55,-0.58 L 0.55,-0.58 Z"/></g><g transform="translate(422.76622142989015 73.96514637641582) rotate(0 -4.151273039173077 9.119959022889049)" stroke="none"><path fill="#000000" d="M 0.18,0.75 Q 0.18,0.75 -0.83,1.11 -1.85,1.46 -2.62,2.20 -3.39,2.95 -4.37,4.75 -5.36,6.55 -6.14,8.75 -6.92,10.96 -7.25,12.83 -7.57,14.70 -7.30,15.65 -7.03,16.61 -6.37,16.95 -5.70,17.30 -4.87,17.28 -4.04,17.26 -3.14,16.76 -2.24,16.27 -1.66,15.55 -1.08,14.82 -1.37,14.28 -1.67,13.74 -3.33,13.24 -4.98,12.73 -5.09,12.71 -5.19,12.69 -5.28,12.64 -5.38,12.59 -5.45,12.51 -5.52,12.43 -5.56,12.33 -5.60,12.23 -5.60,12.12 -5.61,12.02 -5.59,11.91 -5.56,11.81 -5.50,11.72 -5.44,11.63 -5.36,11.57 -5.27,11.50 -5.17,11.47 -5.07,11.43 -4.97,11.43 -4.86,11.43 -4.76,11.46 -4.66,11.49 -4.57,11.56 -4.49,11.62 -4.43,11.71 -4.37,11.79 -4.34,11.90 -4.31,12.00 -4.31,12.10 -4.32,12.21 -4.35,12.31 -4.39,12.41 -4.46,12.49 -4.53,12.57 -4.62,12.63 -4.71,12.68 -4.81,12.71 -4.91,12.73 -5.02,12.72 -5.12,12.71 -5.22,12.67 -5.32,12.63 -5.40,12.56 -5.48,12.48 -5.53,12.39 -5.58,12.30 -5.60,12.19 -5.62,12.09 -5.60,11.98 -5.58,11.88 -5.54,11.78 -5.49,11.69 -5.41,11.61 -5.33,11.54 -5.24,11.49 -5.14,11.45 -5.04,11.44 -4.93,11.42 -4.93,11.42 -4.93,11.42 -2.57,11.77 -0.20,12.12 0.46,12.93 1.12,13.74 0.91,14.98 0.70,16.22 -0.23,17.26 -1.18,18.31 -2.61,18.93 -4.03,19.54 -5.44,19.40 -6.84,19.26 -7.94,18.39 -9.05,17.52 -9.45,15.95 -9.85,14.39 -9.47,12.28 -9.09,10.17 -8.19,7.79 -7.30,5.41 -6.04,3.40 -4.77,1.38 -3.59,0.46 -2.41,-0.45 -1.29,-0.60 -0.18,-0.75 -0.08,-0.76 0.00,-0.78 0.10,-0.76 0.19,-0.75 0.28,-0.72 0.36,-0.68 0.44,-0.63 0.52,-0.57 0.58,-0.50 0.64,-0.43 0.68,-0.35 0.73,-0.27 0.75,-0.17 0.77,-0.08 0.77,0.00 0.77,0.10 0.75,0.19 0.72,0.28 0.68,0.36 0.63,0.44 0.57,0.51 0.51,0.58 0.43,0.64 0.35,0.69 0.26,0.72 0.18,0.75 0.18,0.75 L 0.18,0.75 Z"/></g><g transform="translate(429.11885245766587 80.06607503861807) rotate(0 -0.8176579594430677 4.025335380539246)" stroke="none"><path fill="#000000" d="M -0.61,0.52 Q -0.61,0.52 -1.17,0.10 -1.74,-0.32 -1.81,-0.43 -1.89,-0.54 -1.93,-0.67 -1.98,-0.79 -1.99,-0.93 -2.01,-1.06 -1.99,-1.19 -1.97,-1.32 -1.92,-1.45 -1.87,-1.57 -1.80,-1.68 -1.72,-1.79 -1.62,-1.88 -1.52,-1.97 -1.40,-2.03 -1.28,-2.09 -1.15,-2.12 -1.02,-2.15 -0.88,-2.14 -0.75,-2.14 -0.62,-2.11 -0.49,-2.08 -0.37,-2.01 -0.26,-1.95 -0.16,-1.86 -0.06,-1.77 -0.62,-0.50 -1.18,0.76 -1.48,1.83 -1.77,2.91 -1.96,4.19 -2.16,5.48 -1.85,6.38 -1.55,7.28 -1.13,7.75 -0.70,8.22 -0.23,7.84 0.23,7.45 0.36,6.48 0.50,5.52 0.36,4.26 0.21,2.99 -0.27,1.32 -0.77,-0.35 -0.77,-0.43 -0.78,-0.51 -0.76,-0.59 -0.74,-0.66 -0.71,-0.74 -0.67,-0.81 -0.62,-0.87 -0.57,-0.93 -0.51,-0.97 -0.44,-1.02 -0.37,-1.05 -0.30,-1.08 -0.22,-1.09 -0.14,-1.10 -0.06,-1.10 0.01,-1.09 0.08,-1.06 0.16,-1.04 0.22,-0.99 0.29,-0.95 0.34,-0.89 0.40,-0.83 0.44,-0.77 0.48,-0.70 0.50,-0.62 0.52,-0.54 0.52,-0.48 0.52,-0.41 0.50,-0.31 0.48,-0.21 0.42,-0.11 0.37,-0.02 0.29,0.04 0.21,0.10 0.11,0.14 0.01,0.18 -0.09,0.19 -0.19,0.20 -0.29,0.17 -0.40,0.14 -0.48,0.08 -0.57,0.02 -0.64,-0.05 -0.70,-0.14 -0.74,-0.24 -0.77,-0.34 -0.77,-0.45 -0.77,-0.55 -0.74,-0.65 -0.70,-0.75 -0.64,-0.84 -0.57,-0.92 -0.49,-0.98 -0.40,-1.04 -0.30,-1.07 -0.19,-1.10 -0.09,-1.09 0.01,-1.09 0.11,-1.05 0.21,-1.01 0.29,-0.94 0.37,-0.87 0.42,-0.78 0.48,-0.69 0.50,-0.59 0.52,-0.48 0.51,-0.38 0.50,-0.27 0.46,-0.18 0.41,-0.08 0.34,-0.00 0.27,0.06 0.17,0.11 0.08,0.16 -0.02,0.18 -0.12,0.20 -0.23,0.18 -0.33,0.17 -0.42,0.12 -0.52,0.07 -0.59,-0.00 -0.66,-0.08 -0.71,-0.17 -0.75,-0.27 -0.76,-0.31 -0.77,-0.35 -0.77,-0.43 -0.78,-0.51 -0.76,-0.59 -0.74,-0.66 -0.71,-0.74 -0.67,-0.81 -0.62,-0.87 -0.57,-0.93 -0.51,-0.97 -0.44,-1.02 -0.37,-1.05 -0.30,-1.08 -0.22,-1.09 -0.14,-1.10 -0.06,-1.10 0.01,-1.09 0.08,-1.06 0.16,-1.04 0.22,-0.99 0.29,-0.95 0.34,-0.89 0.40,-0.83 0.44,-0.77 0.48,-0.70 0.50,-0.62 0.52,-0.54 1.41,1.06 2.30,2.68 2.58,4.32 2.87,5.96 2.48,7.50 2.09,9.03 1.13,9.77 0.17,10.51 -1.08,10.25 -2.34,9.99 -3.12,9.01 -3.91,8.02 -4.24,6.60 -4.58,5.18 -4.32,3.64 -4.05,2.11 -3.44,0.62 -2.83,-0.86 -2.29,-0.59 -1.74,-0.32 -1.81,-0.43 -1.89,-0.54 -1.93,-0.67 -1.98,-0.79 -1.99,-0.93 -2.01,-1.06 -1.99,-1.19 -1.97,-1.32 -1.92,-1.45 -1.87,-1.57 -1.80,-1.68 -1.72,-1.79 -1.62,-1.88 -1.52,-1.97 -1.40,-2.03 -1.28,-2.09 -1.15,-2.12 -1.02,-2.15 -0.88,-2.14 -0.75,-2.14 -0.62,-2.11 -0.49,-2.08 -0.37,-2.01 -0.26,-1.95 -0.16,-1.86 -0.06,-1.77 0.27,-1.14 0.61,-0.52 0.66,-0.44 0.71,-0.36 0.75,-0.27 0.78,-0.18 0.79,-0.08 0.80,0.01 0.79,0.10 0.77,0.20 0.74,0.29 0.70,0.38 0.65,0.46 0.59,0.54 0.52,0.60 0.44,0.66 0.36,0.71 0.27,0.75 0.18,0.77 0.08,0.80 -0.01,0.79 -0.10,0.79 -0.20,0.77 -0.29,0.74 -0.38,0.70 -0.46,0.65 -0.53,0.59 -0.61,0.52 -0.61,0.52 L -0.61,0.52 Z"/></g><g transform="translate(432.95567049156625 75.41177199696881) rotate(0 -1.069273849169349 0.691850014579785)" stroke="none"><path fill="#000000" d="M -0.68,0.41 Q -0.68,0.41 -1.39,-0.57 -2.10,-1.57 -2.32,-0.92 -2.54,-0.28 -2.40,0.57 -2.25,1.43 -1.82,2.07 -1.38,2.71 -0.79,3.02 -0.19,3.33 0.09,2.69 0.39,2.04 -0.19,0.95 -0.79,-0.14 -0.78,-0.21 -0.77,-0.29 -0.74,-0.37 -0.72,-0.44 -0.67,-0.51 -0.63,-0.58 -0.57,-0.63 -0.52,-0.68 -0.45,-0.72 -0.38,-0.76 -0.30,-0.78 -0.22,-0.80 -0.15,-0.80 -0.07,-0.81 0.00,-0.79 0.08,-0.77 0.15,-0.74 0.22,-0.70 0.28,-0.65 0.34,-0.60 0.39,-0.54 0.43,-0.47 0.46,-0.40 0.49,-0.33 0.51,-0.25 0.52,-0.17 0.49,-0.28 0.47,-0.40 0.49,-0.29 0.52,-0.19 0.51,-0.08 0.49,0.01 0.45,0.11 0.40,0.21 0.33,0.28 0.26,0.36 0.16,0.41 0.07,0.46 -0.02,0.48 -0.13,0.49 -0.23,0.48 -0.34,0.46 -0.43,0.41 -0.53,0.36 -0.60,0.28 -0.67,0.21 -0.72,0.11 -0.76,0.01 -0.77,-0.08 -0.78,-0.19 -0.76,-0.29 -0.74,-0.40 -0.68,-0.49 -0.63,-0.58 -0.55,-0.65 -0.47,-0.72 -0.37,-0.75 -0.27,-0.79 -0.16,-0.80 -0.06,-0.81 0.03,-0.78 0.14,-0.75 0.22,-0.69 0.31,-0.63 0.38,-0.54 0.44,-0.46 0.48,-0.36 0.51,-0.26 0.51,-0.15 0.51,-0.05 0.48,0.04 0.44,0.15 0.38,0.23 0.31,0.31 0.22,0.37 0.14,0.43 0.03,0.46 -0.06,0.49 -0.16,0.48 -0.27,0.48 -0.37,0.44 -0.47,0.40 -0.55,0.33 -0.63,0.26 -0.71,0.06 -0.79,-0.14 -0.78,-0.21 -0.77,-0.29 -0.74,-0.37 -0.72,-0.44 -0.67,-0.51 -0.63,-0.58 -0.57,-0.63 -0.52,-0.68 -0.45,-0.72 -0.38,-0.76 -0.30,-0.78 -0.22,-0.80 -0.15,-0.80 -0.07,-0.81 0.00,-0.79 0.08,-0.77 0.15,-0.74 0.22,-0.70 0.28,-0.65 0.34,-0.60 0.39,-0.54 0.43,-0.47 0.46,-0.40 0.49,-0.33 0.51,-0.25 0.52,-0.17 1.34,0.85 2.17,1.89 2.21,2.88 2.26,3.87 1.60,4.62 0.94,5.37 -0.17,5.37 -1.29,5.37 -2.30,4.69 -3.30,4.00 -3.92,2.89 -4.53,1.78 -4.65,0.48 -4.76,-0.82 -4.33,-1.99 -3.90,-3.17 -3.28,-3.52 -2.66,-3.88 -1.54,-3.25 -0.42,-2.62 0.13,-1.51 0.68,-0.41 0.72,-0.32 0.76,-0.23 0.78,-0.14 0.80,-0.04 0.79,0.04 0.79,0.14 0.76,0.23 0.73,0.33 0.68,0.41 0.63,0.49 0.56,0.56 0.49,0.63 0.41,0.68 0.32,0.73 0.23,0.76 0.14,0.79 0.04,0.79 -0.04,0.80 -0.14,0.78 -0.23,0.76 -0.32,0.72 -0.41,0.68 -0.49,0.62 -0.56,0.56 -0.62,0.49 -0.68,0.41 -0.68,0.41 L -0.68,0.41 Z"/></g><g transform="translate(451.4476079810238 109.5013868498952) rotate(0 -7.862211065004431 24.62376685435038)" stroke="none"><path fill="#000000" d="M 0.80,-0.03 Q 0.80,-0.03 1.08,3.83 1.36,7.69 1.38,11.06 1.39,14.43 1.09,17.87 0.78,21.31 -0.00,25.03 -0.80,28.75 -2.17,32.46 -3.53,36.17 -5.43,39.33 -7.33,42.50 -9.39,44.45 -11.44,46.41 -13.25,47.76 -15.05,49.12 -15.15,49.17 -15.24,49.23 -15.34,49.25 -15.44,49.27 -15.55,49.26 -15.66,49.25 -15.75,49.20 -15.85,49.16 -15.92,49.08 -16.00,49.01 -16.05,48.92 -16.10,48.82 -16.12,48.72 -16.13,48.61 -16.12,48.51 -16.10,48.40 -16.05,48.31 -16.00,48.22 -15.92,48.14 -15.84,48.07 -15.75,48.03 -15.65,47.98 -15.54,47.97 -15.44,47.96 -15.33,47.98 -15.23,48.01 -15.14,48.06 -15.05,48.12 -14.98,48.20 -14.91,48.28 -14.87,48.38 -14.83,48.48 -14.83,48.58 -14.82,48.69 -14.85,48.79 -14.88,48.89 -14.94,48.98 -15.00,49.07 -15.09,49.13 -15.17,49.20 -15.27,49.23 -15.37,49.26 -15.48,49.26 -15.59,49.26 -15.69,49.23 -15.79,49.19 -15.87,49.13 -15.96,49.06 -16.01,48.98 -16.07,48.89 -16.10,48.79 -16.13,48.68 -16.12,48.58 -16.12,48.47 -16.08,48.37 -16.04,48.27 -15.97,48.19 -15.90,48.11 -15.90,48.11 -15.90,48.11 -14.32,46.62 -12.74,45.13 -10.99,43.24 -9.24,41.34 -7.46,38.35 -5.69,35.36 -4.36,31.81 -3.04,28.26 -2.27,24.68 -1.50,21.10 -1.18,17.76 -0.86,14.42 -0.82,11.10 -0.79,7.77 -0.79,3.90 -0.80,0.03 -0.79,-0.06 -0.79,-0.16 -0.75,-0.25 -0.72,-0.34 -0.67,-0.43 -0.62,-0.51 -0.55,-0.57 -0.48,-0.64 -0.39,-0.69 -0.31,-0.74 -0.22,-0.77 -0.12,-0.79 -0.02,-0.80 0.06,-0.80 0.16,-0.78 0.25,-0.76 0.34,-0.72 0.43,-0.68 0.50,-0.61 0.58,-0.55 0.64,-0.47 0.70,-0.40 0.73,-0.31 0.77,-0.22 0.79,-0.12 0.80,-0.03 0.80,-0.03 L 0.80,-0.03 Z"/></g><g transform="translate(421.69697640600316 117.17467701430769) rotate(0 -1.5410572455665488 7.704767372750382)" stroke="none"><path fill="#000000" d="M 0.67,0.48 Q 0.67,0.48 -0.87,2.84 -2.41,5.20 -3.18,7.30 -3.95,9.40 -4.00,10.69 -4.06,11.98 -3.37,12.60 -2.69,13.23 -1.82,13.38 -0.94,13.53 -0.19,13.15 0.54,12.77 0.95,12.37 1.35,11.97 0.03,10.53 -1.29,9.08 -1.35,8.99 -1.41,8.91 -1.44,8.80 -1.47,8.70 -1.46,8.60 -1.46,8.49 -1.42,8.39 -1.38,8.29 -1.31,8.21 -1.25,8.13 -1.16,8.07 -1.07,8.02 -0.96,7.99 -0.86,7.97 -0.75,7.98 -0.65,7.99 -0.55,8.03 -0.45,8.07 -0.38,8.15 -0.30,8.22 -0.25,8.31 -0.20,8.40 -0.18,8.51 -0.16,8.61 -0.17,8.72 -0.19,8.82 -0.24,8.92 -0.29,9.01 -0.36,9.09 -0.44,9.16 -0.54,9.21 -0.63,9.25 -0.74,9.27 -0.84,9.28 -0.95,9.26 -1.05,9.23 -1.14,9.18 -1.23,9.13 -1.30,9.05 -1.37,8.97 -1.41,8.87 -1.45,8.77 -1.46,8.67 -1.47,8.56 -1.44,8.46 -1.41,8.35 -1.36,8.27 -1.30,8.18 -1.21,8.11 -1.13,8.05 -1.03,8.01 -0.93,7.98 -0.82,7.97 -0.72,7.97 -0.62,8.01 -0.51,8.04 -0.43,8.10 -0.34,8.16 -0.34,8.16 -0.34,8.16 1.46,9.76 3.27,11.36 3.18,12.31 3.09,13.27 2.25,14.05 1.41,14.83 0.08,15.25 -1.24,15.68 -2.69,15.25 -4.15,14.82 -5.12,13.57 -6.10,12.33 -6.05,10.50 -6.00,8.67 -5.08,6.32 -4.16,3.97 -2.41,1.74 -0.67,-0.48 -0.60,-0.55 -0.53,-0.63 -0.45,-0.68 -0.37,-0.74 -0.27,-0.77 -0.18,-0.80 -0.08,-0.82 0.01,-0.83 0.11,-0.81 0.21,-0.80 0.30,-0.76 0.39,-0.72 0.48,-0.67 0.56,-0.61 0.62,-0.53 0.69,-0.45 0.73,-0.37 0.78,-0.28 0.80,-0.18 0.82,-0.08 0.82,0.01 0.82,0.11 0.79,0.21 0.77,0.30 0.72,0.39 0.67,0.48 0.67,0.48 L 0.67,0.48 Z"/></g><g transform="translate(433.2071999054456 125.91721220260717) rotate(0 -2.169938430829518 -0.5031597162467847)" stroke="none"><path fill="#000000" d="M -0.79,0.13 Q -0.79,0.13 -1.21,-1.74 -1.64,-3.61 -1.91,-4.12 -2.19,-4.64 -2.95,-3.29 -3.72,-1.95 -4.04,-0.32 -4.37,1.29 -4.08,2.21 -3.80,3.12 -3.33,3.47 -2.86,3.81 -2.27,3.55 -1.67,3.30 -1.10,2.46 -0.52,1.63 -0.17,0.35 0.18,-0.92 0.10,-2.14 0.01,-3.36 -0.30,-2.73 -0.62,-2.09 -0.62,-2.17 -0.62,-2.25 -0.60,-2.33 -0.59,-2.41 -0.55,-2.48 -0.52,-2.55 -0.47,-2.61 -0.42,-2.67 -0.36,-2.72 -0.29,-2.77 -0.22,-2.80 -0.15,-2.83 -0.07,-2.84 0.00,-2.85 0.08,-2.85 0.16,-2.84 0.23,-2.81 0.31,-2.79 0.37,-2.75 0.44,-2.70 0.49,-2.65 0.55,-2.59 0.59,-2.52 0.63,-2.45 0.65,-2.38 0.67,-2.30 0.66,-2.14 0.64,-1.98 0.59,-1.89 0.54,-1.79 0.46,-1.72 0.38,-1.65 0.29,-1.60 0.19,-1.56 0.09,-1.55 -0.01,-1.54 -0.11,-1.56 -0.22,-1.59 -0.31,-1.65 -0.40,-1.70 -0.47,-1.78 -0.53,-1.86 -0.57,-1.96 -0.61,-2.06 -0.61,-2.17 -0.62,-2.28 -0.59,-2.38 -0.56,-2.48 -0.50,-2.57 -0.44,-2.65 -0.35,-2.72 -0.27,-2.78 -0.17,-2.81 -0.06,-2.85 0.03,-2.84 0.14,-2.84 0.24,-2.81 0.34,-2.77 0.42,-2.71 0.51,-2.64 0.56,-2.55 0.62,-2.46 0.65,-2.36 0.68,-2.26 0.67,-2.15 0.66,-2.05 0.62,-1.95 0.58,-1.85 0.51,-1.77 0.44,-1.69 0.35,-1.64 0.26,-1.58 0.15,-1.56 0.05,-1.54 -0.05,-1.55 -0.15,-1.57 -0.25,-1.61 -0.34,-1.66 -0.42,-1.73 -0.49,-1.81 -0.54,-1.90 -0.59,-1.99 -0.61,-2.10 -0.62,-2.20 -0.62,-2.15 -0.62,-2.09 -0.62,-2.17 -0.62,-2.25 -0.61,-2.33 -0.59,-2.41 -0.55,-2.48 -0.52,-2.55 -0.47,-2.61 -0.42,-2.67 -0.36,-2.72 -0.29,-2.77 -0.22,-2.80 -0.15,-2.83 -0.07,-2.84 0.00,-2.85 0.08,-2.85 0.16,-2.84 0.23,-2.81 0.31,-2.79 0.37,-2.75 0.44,-2.70 0.49,-2.65 0.55,-2.59 0.59,-2.52 0.63,-2.45 0.65,-2.38 0.67,-2.30 1.16,-2.97 1.65,-3.64 2.02,-2.03 2.39,-0.42 1.94,1.38 1.49,3.18 0.34,4.42 -0.81,5.66 -2.24,5.86 -3.68,6.05 -4.91,5.07 -6.14,4.09 -6.55,2.49 -6.95,0.89 -6.51,-1.10 -6.08,-3.10 -5.11,-4.69 -4.14,-6.27 -2.91,-6.42 -1.68,-6.57 -0.67,-5.31 0.34,-4.05 0.56,-2.09 0.79,-0.13 0.79,-0.03 0.80,0.05 0.78,0.15 0.76,0.24 0.72,0.33 0.68,0.42 0.62,0.50 0.56,0.57 0.48,0.63 0.40,0.69 0.31,0.73 0.22,0.77 0.13,0.78 0.03,0.80 -0.05,0.79 -0.15,0.78 -0.24,0.75 -0.33,0.72 -0.42,0.67 -0.50,0.62 -0.57,0.55 -0.63,0.48 -0.68,0.40 -0.73,0.32 -0.76,0.22 -0.79,0.13 -0.79,0.13 L -0.79,0.13 Z"/></g><g transform="translate(440.69208802434866 117.04888348208567) rotate(0 -1.1950385561090116 0.8176579594430393)" stroke="none"><path fill="#000000" d="M -0.45,0.66 Q -0.45,0.66 -1.15,0.18 -1.85,-0.30 -1.83,0.25 -1.80,0.82 -1.51,1.27 -1.21,1.72 -0.42,0.82 0.36,-0.06 0.42,-0.01 0.48,0.04 0.52,0.10 0.56,0.17 0.59,0.24 0.61,0.32 0.62,0.40 0.63,0.47 0.62,0.55 0.61,0.63 0.58,0.70 0.55,0.78 0.50,0.84 0.45,0.91 0.39,0.96 0.33,1.01 0.26,1.04 0.19,1.08 0.11,1.09 0.03,1.11 -0.04,1.11 -0.11,1.11 -0.19,1.09 -0.27,1.06 -0.34,1.03 -0.41,0.99 -0.52,0.60 -0.63,0.22 -0.57,0.13 -0.52,0.03 -0.44,-0.02 -0.36,-0.09 -0.26,-0.13 -0.16,-0.17 -0.06,-0.18 0.04,-0.19 0.14,-0.16 0.24,-0.13 0.33,-0.07 0.42,-0.01 0.49,0.06 0.55,0.15 0.59,0.25 0.62,0.35 0.62,0.45 0.62,0.56 0.59,0.66 0.55,0.76 0.49,0.85 0.43,0.93 0.34,0.99 0.25,1.05 0.15,1.08 0.05,1.11 -0.05,1.10 -0.16,1.10 -0.25,1.06 -0.35,1.02 -0.43,0.95 -0.52,0.88 -0.57,0.79 -0.63,0.70 -0.65,0.60 -0.67,0.50 -0.66,0.39 -0.65,0.28 -0.61,0.19 -0.56,0.09 -0.49,0.01 -0.42,-0.05 -0.32,-0.10 -0.23,-0.15 -0.13,-0.17 -0.02,-0.19 0.07,-0.17 0.18,-0.16 0.27,-0.11 0.37,-0.06 0.44,0.01 0.51,0.09 0.56,0.18 0.60,0.28 0.62,0.38 0.63,0.49 0.49,0.21 0.36,-0.06 0.42,-0.01 0.48,0.04 0.52,0.10 0.56,0.17 0.59,0.24 0.61,0.32 0.62,0.40 0.63,0.47 0.62,0.55 0.61,0.63 0.58,0.70 0.55,0.78 0.50,0.84 0.45,0.91 0.39,0.96 0.33,1.01 0.26,1.04 0.19,1.08 0.11,1.09 0.03,1.11 -0.04,1.11 -0.11,1.11 -0.19,1.09 -0.27,1.06 -0.34,1.03 -0.41,0.99 -0.68,2.58 -0.96,4.17 -2.10,3.52 -3.25,2.86 -3.69,1.81 -4.12,0.77 -3.87,-0.30 -3.62,-1.37 -2.73,-1.80 -1.83,-2.22 -0.68,-1.44 0.45,-0.66 0.52,-0.60 0.60,-0.53 0.65,-0.45 0.71,-0.37 0.74,-0.28 0.78,-0.19 0.79,-0.09 0.80,-0.00 0.79,0.09 0.78,0.19 0.74,0.28 0.71,0.37 0.66,0.45 0.60,0.53 0.53,0.59 0.46,0.66 0.37,0.70 0.28,0.75 0.19,0.77 0.09,0.80 0.00,0.80 -0.09,0.80 -0.18,0.77 -0.28,0.75 -0.37,0.71 -0.45,0.66 -0.45,0.66 L -0.45,0.66 Z"/></g><g transform="translate(305.2102054492313 70.6946010144909) rotate(0 6.855862807228419 1.352251646104122)" stroke="none"><path fill="#c92a2a" d="M 0.19,-0.78 Q 0.19,-0.78 1.84,-0.55 3.49,-0.33 4.93,0.09 6.36,0.52 7.66,0.82 8.96,1.13 11.01,1.18 13.07,1.24 13.17,1.23 13.28,1.22 13.38,1.25 13.49,1.27 13.58,1.33 13.67,1.39 13.73,1.47 13.80,1.55 13.84,1.65 13.88,1.75 13.88,1.86 13.88,1.96 13.85,2.06 13.82,2.17 13.76,2.25 13.70,2.34 13.61,2.40 13.53,2.46 13.43,2.50 13.33,2.53 13.22,2.53 13.11,2.52 13.01,2.49 12.91,2.45 12.83,2.39 12.75,2.32 12.69,2.23 12.63,2.14 12.60,2.04 12.58,1.94 12.59,1.83 12.59,1.73 12.63,1.63 12.68,1.53 12.75,1.45 12.82,1.37 12.91,1.32 13.00,1.26 13.10,1.24 13.21,1.22 13.31,1.24 13.42,1.25 13.51,1.30 13.61,1.34 13.69,1.42 13.76,1.49 13.81,1.59 13.86,1.68 13.87,1.79 13.89,1.89 13.87,2.00 13.85,2.10 13.80,2.19 13.75,2.29 13.67,2.36 13.59,2.43 13.49,2.47 13.40,2.51 13.40,2.51 13.40,2.51 10.92,2.94 8.45,3.37 7.07,3.06 5.69,2.75 4.31,2.34 2.93,1.92 1.37,1.35 -0.19,0.78 -0.28,0.74 -0.37,0.71 -0.45,0.65 -0.53,0.60 -0.59,0.52 -0.66,0.45 -0.70,0.37 -0.75,0.28 -0.77,0.19 -0.79,0.09 -0.79,-0.00 -0.79,-0.09 -0.77,-0.19 -0.75,-0.28 -0.70,-0.37 -0.66,-0.45 -0.59,-0.52 -0.53,-0.60 -0.45,-0.65 -0.37,-0.71 -0.28,-0.74 -0.19,-0.78 -0.09,-0.79 0.00,-0.80 0.09,-0.79 0.19,-0.78 0.19,-0.78 L 0.19,-0.78 Z"/></g><g transform="translate(312.8837262159027 73.27331077447718) rotate(0 -2.044173723889827 7.861994875386671)" stroke="none"><path fill="#c92a2a" d="M 0.79,0.20 Q 0.79,0.20 -0.18,4.10 -1.16,7.99 -2.12,11.22 -3.08,14.45 -3.12,14.55 -3.16,14.64 -3.23,14.72 -3.30,14.80 -3.40,14.85 -3.49,14.90 -3.60,14.92 -3.70,14.94 -3.80,14.92 -3.91,14.91 -4.00,14.86 -4.10,14.81 -4.17,14.74 -4.25,14.66 -4.29,14.57 -4.34,14.47 -4.35,14.36 -4.37,14.26 -4.35,14.15 -4.32,14.05 -4.27,13.96 -4.22,13.87 -4.14,13.80 -4.06,13.73 -3.96,13.69 -3.86,13.64 -3.76,13.64 -3.65,13.63 -3.55,13.66 -3.44,13.68 -3.36,13.74 -3.27,13.80 -3.20,13.88 -3.14,13.97 -3.10,14.07 -3.06,14.17 -3.06,14.27 -3.06,14.38 -3.09,14.48 -3.13,14.58 -3.19,14.67 -3.25,14.75 -3.34,14.81 -3.43,14.87 -3.53,14.90 -3.63,14.93 -3.74,14.93 -3.84,14.93 -3.94,14.89 -4.04,14.85 -4.12,14.78 -4.20,14.72 -4.26,14.63 -4.32,14.54 -4.34,14.43 -4.37,14.33 -4.36,14.22 -4.35,14.12 -4.35,14.12 -4.35,14.12 -3.61,10.83 -2.88,7.55 -1.83,3.67 -0.79,-0.20 -0.75,-0.29 -0.72,-0.39 -0.66,-0.47 -0.60,-0.55 -0.53,-0.61 -0.45,-0.68 -0.36,-0.72 -0.28,-0.77 -0.18,-0.79 -0.08,-0.81 0.01,-0.81 0.10,-0.81 0.20,-0.78 0.30,-0.76 0.38,-0.71 0.47,-0.66 0.54,-0.60 0.62,-0.53 0.67,-0.45 0.73,-0.37 0.76,-0.27 0.79,-0.18 0.81,-0.08 0.82,0.01 0.80,0.10 0.79,0.20 0.79,0.20 L 0.79,0.20 Z"/></g><g transform="translate(320.4314822756345 84.5945845480453) rotate(0 6.0696388181997065 7.0757997116403715)" stroke="none"><path fill="#c92a2a" d="M 0.52,-0.61 Q 0.52,-0.61 1.73,0.20 2.94,1.02 3.80,2.13 4.67,3.24 5.12,4.30 5.57,5.35 5.32,6.52 5.07,7.69 4.01,8.64 2.95,9.59 2.11,10.08 1.27,10.58 0.94,10.82 0.60,11.06 0.47,11.12 0.33,11.18 0.19,11.20 0.04,11.23 -0.10,11.22 -0.24,11.21 -0.39,11.16 -0.53,11.12 -0.65,11.04 -0.78,10.96 -0.88,10.86 -0.98,10.75 -1.06,10.63 -1.14,10.50 -1.18,10.36 -1.22,10.22 -1.23,10.07 -1.24,9.92 -1.21,9.78 -1.18,9.63 -1.12,9.50 -1.06,9.36 -0.97,9.25 -0.87,9.13 -0.76,9.04 -0.64,8.95 0.58,9.36 1.81,9.77 3.18,10.16 4.55,10.55 6.52,11.25 8.48,11.95 10.26,12.61 12.04,13.27 12.14,13.32 12.23,13.37 12.31,13.44 12.38,13.52 12.43,13.61 12.48,13.71 12.49,13.82 12.50,13.92 12.48,14.03 12.46,14.13 12.41,14.22 12.36,14.31 12.28,14.38 12.20,14.46 12.10,14.50 12.00,14.54 11.90,14.55 11.79,14.56 11.69,14.53 11.59,14.50 11.50,14.45 11.41,14.39 11.34,14.30 11.27,14.22 11.24,14.12 11.20,14.02 11.20,13.92 11.20,13.81 11.23,13.71 11.26,13.61 11.32,13.52 11.38,13.43 11.47,13.37 11.56,13.31 11.66,13.28 11.76,13.25 11.87,13.25 11.97,13.26 12.07,13.29 12.17,13.33 12.25,13.40 12.34,13.46 12.39,13.55 12.45,13.64 12.48,13.75 12.50,13.85 12.49,13.96 12.48,14.06 12.44,14.16 12.40,14.26 12.33,14.34 12.26,14.41 12.16,14.47 12.07,14.52 11.97,14.54 11.86,14.56 11.76,14.54 11.65,14.53 11.65,14.53 11.65,14.53 9.85,14.07 8.04,13.62 5.95,13.24 3.86,12.87 2.23,11.96 0.60,11.06 0.47,11.12 0.33,11.18 0.19,11.20 0.04,11.23 -0.10,11.22 -0.24,11.21 -0.39,11.16 -0.53,11.12 -0.65,11.04 -0.78,10.96 -0.88,10.86 -0.98,10.75 -1.06,10.63 -1.14,10.50 -1.18,10.36 -1.22,10.22 -1.23,10.07 -1.24,9.92 -1.21,9.78 -1.18,9.63 -1.12,9.50 -1.06,9.36 -0.97,9.25 -0.87,9.13 -0.76,9.04 -0.64,8.95 -0.32,8.69 -0.00,8.43 0.69,8.02 1.39,7.60 2.29,6.77 3.20,5.95 2.95,5.29 2.69,4.64 2.08,3.68 1.46,2.73 0.47,1.67 -0.52,0.61 -0.58,0.54 -0.65,0.47 -0.70,0.38 -0.74,0.29 -0.77,0.20 -0.79,0.11 -0.79,0.01 -0.80,-0.08 -0.77,-0.17 -0.75,-0.27 -0.71,-0.35 -0.67,-0.44 -0.60,-0.51 -0.54,-0.59 -0.46,-0.64 -0.38,-0.70 -0.29,-0.74 -0.20,-0.77 -0.11,-0.79 -0.01,-0.80 0.08,-0.79 0.17,-0.78 0.26,-0.75 0.36,-0.72 0.44,-0.66 0.52,-0.61 0.52,-0.61 L 0.52,-0.61 Z"/></g><g transform="translate(483.27389048827206 69.93981099587654) rotate(0 7.170346637783382 -0.37736618402482236)" stroke="none"><path fill="#c92a2a" d="M 0.00,-0.85 Q 0.00,-0.85 3.06,-0.83 6.11,-0.81 8.22,-0.98 10.33,-1.15 11.94,-1.27 13.55,-1.39 13.66,-1.38 13.77,-1.38 13.86,-1.34 13.96,-1.30 14.04,-1.23 14.13,-1.16 14.18,-1.07 14.24,-0.98 14.26,-0.87 14.28,-0.77 14.27,-0.67 14.26,-0.56 14.21,-0.46 14.17,-0.37 14.10,-0.29 14.02,-0.21 13.93,-0.16 13.84,-0.11 13.73,-0.09 13.63,-0.08 13.52,-0.09 13.42,-0.11 13.32,-0.16 13.23,-0.21 13.16,-0.29 13.08,-0.36 13.04,-0.46 12.99,-0.56 12.98,-0.66 12.97,-0.77 12.99,-0.87 13.02,-0.98 13.07,-1.07 13.12,-1.16 13.21,-1.23 13.29,-1.30 13.38,-1.34 13.48,-1.38 13.59,-1.38 13.70,-1.39 13.80,-1.36 13.90,-1.33 13.99,-1.27 14.08,-1.21 14.14,-1.13 14.21,-1.04 14.24,-0.94 14.27,-0.84 14.27,-0.74 14.27,-0.63 14.24,-0.53 14.21,-0.43 14.14,-0.34 14.08,-0.26 13.99,-0.20 13.90,-0.14 13.80,-0.11 13.70,-0.08 13.70,-0.08 13.70,-0.08 12.09,0.15 10.48,0.38 8.29,0.63 6.10,0.88 3.05,0.87 -0.00,0.85 -0.10,0.84 -0.21,0.83 -0.30,0.79 -0.40,0.75 -0.48,0.69 -0.57,0.63 -0.64,0.56 -0.71,0.48 -0.75,0.39 -0.80,0.29 -0.82,0.19 -0.85,0.09 -0.85,-0.00 -0.85,-0.10 -0.82,-0.20 -0.80,-0.30 -0.75,-0.40 -0.70,-0.49 -0.63,-0.56 -0.56,-0.64 -0.48,-0.70 -0.39,-0.76 -0.29,-0.79 -0.20,-0.83 -0.09,-0.84 0.00,-0.85 0.00,-0.85 L 0.00,-0.85 Z"/></g><g transform="translate(493.65202984828113 70.6946010144909) rotate(0 -0.5975192780545058 6.666956319277688)" stroke="none"><path fill="#c92a2a" d="M 0.83,0.09 Q 0.83,0.09 0.53,3.03 0.23,5.96 -0.05,8.99 -0.34,12.01 -0.36,12.12 -0.38,12.22 -0.44,12.31 -0.49,12.40 -0.57,12.47 -0.65,12.54 -0.75,12.58 -0.85,12.62 -0.96,12.63 -1.06,12.63 -1.17,12.60 -1.27,12.58 -1.36,12.52 -1.45,12.46 -1.51,12.37 -1.57,12.29 -1.61,12.19 -1.64,12.09 -1.64,11.98 -1.64,11.87 -1.61,11.77 -1.58,11.67 -1.51,11.59 -1.45,11.50 -1.36,11.44 -1.27,11.38 -1.17,11.35 -1.07,11.33 -0.96,11.33 -0.86,11.34 -0.76,11.38 -0.66,11.42 -0.58,11.48 -0.50,11.55 -0.44,11.64 -0.39,11.73 -0.36,11.84 -0.34,11.94 -0.35,12.05 -0.36,12.15 -0.41,12.25 -0.45,12.35 -0.52,12.42 -0.60,12.50 -0.69,12.55 -0.78,12.60 -0.89,12.62 -0.99,12.64 -1.10,12.62 -1.20,12.60 -1.30,12.55 -1.39,12.50 -1.46,12.43 -1.54,12.35 -1.58,12.25 -1.63,12.16 -1.64,12.05 -1.65,11.94 -1.65,11.95 -1.65,11.95 -1.63,8.85 -1.61,5.75 -1.22,2.82 -0.83,-0.09 -0.81,-0.19 -0.78,-0.29 -0.74,-0.38 -0.69,-0.47 -0.62,-0.55 -0.55,-0.62 -0.47,-0.68 -0.39,-0.74 -0.29,-0.77 -0.20,-0.81 -0.10,-0.82 -0.00,-0.84 0.09,-0.82 0.19,-0.81 0.29,-0.78 0.38,-0.74 0.47,-0.68 0.55,-0.63 0.62,-0.55 0.68,-0.48 0.73,-0.39 0.78,-0.30 0.80,-0.20 0.83,-0.10 0.83,-0.00 0.83,0.09 0.83,0.09 L 0.83,0.09 Z"/></g><g transform="translate(502.89796976772755 83.8398233547133) rotate(0 -0.15724191527749554 4.056783763594751)" stroke="none"><path fill="#c92a2a" d="M 0.84,0.03 Q 0.84,0.03 0.61,3.35 0.39,6.67 0.37,6.77 0.35,6.88 0.30,6.97 0.24,7.06 0.16,7.13 0.08,7.20 -0.00,7.24 -0.10,7.28 -0.21,7.29 -0.31,7.30 -0.42,7.27 -0.52,7.24 -0.61,7.18 -0.70,7.13 -0.76,7.04 -0.83,6.96 -0.86,6.86 -0.90,6.76 -0.90,6.65 -0.90,6.55 -0.87,6.45 -0.84,6.34 -0.77,6.26 -0.71,6.17 -0.62,6.11 -0.54,6.05 -0.44,6.02 -0.33,5.99 -0.23,6.00 -0.12,6.00 -0.02,6.04 0.07,6.08 0.15,6.14 0.23,6.21 0.29,6.30 0.34,6.39 0.37,6.49 0.39,6.60 0.38,6.70 0.37,6.81 0.33,6.91 0.29,7.00 0.21,7.08 0.14,7.16 0.05,7.21 -0.03,7.26 -0.14,7.28 -0.24,7.30 -0.35,7.28 -0.45,7.27 -0.55,7.22 -0.64,7.17 -0.72,7.10 -0.79,7.02 -0.84,6.92 -0.88,6.83 -0.90,6.72 -0.91,6.62 -0.91,6.62 -0.91,6.62 -0.87,3.29 -0.84,-0.03 -0.82,-0.13 -0.80,-0.23 -0.76,-0.32 -0.72,-0.41 -0.66,-0.50 -0.60,-0.58 -0.52,-0.64 -0.45,-0.71 -0.35,-0.75 -0.26,-0.79 -0.16,-0.81 -0.06,-0.83 0.03,-0.83 0.13,-0.83 0.23,-0.80 0.32,-0.77 0.41,-0.72 0.50,-0.67 0.57,-0.60 0.65,-0.53 0.70,-0.44 0.75,-0.36 0.79,-0.26 0.82,-0.16 0.83,-0.06 0.84,0.03 0.84,0.03 L 0.84,0.03 Z"/></g><g transform="translate(400.8148465031983 12.264225929431234) rotate(0 -1.0063482577760396 10.314939928433319)" stroke="none"><path fill="#c92a2a" d="M 0.77,0.08 Q 0.77,0.08 0.27,5.21 -0.23,10.33 -0.52,13.22 -0.82,16.10 -0.95,17.95 -1.08,19.81 -1.10,19.91 -1.12,20.02 -1.17,20.11 -1.22,20.20 -1.30,20.28 -1.38,20.35 -1.48,20.39 -1.58,20.43 -1.68,20.44 -1.79,20.45 -1.89,20.42 -1.99,20.40 -2.08,20.34 -2.17,20.28 -2.24,20.20 -2.31,20.12 -2.34,20.02 -2.38,19.92 -2.38,19.81 -2.39,19.71 -2.36,19.61 -2.32,19.50 -2.26,19.42 -2.20,19.33 -2.12,19.27 -2.03,19.21 -1.93,19.18 -1.83,19.14 -1.72,19.15 -1.61,19.15 -1.51,19.19 -1.41,19.22 -1.33,19.29 -1.25,19.35 -1.19,19.44 -1.13,19.53 -1.11,19.64 -1.08,19.74 -1.09,19.85 -1.10,19.95 -1.14,20.05 -1.18,20.15 -1.25,20.23 -1.32,20.31 -1.42,20.36 -1.51,20.41 -1.61,20.43 -1.72,20.45 -1.82,20.44 -1.93,20.42 -2.02,20.38 -2.12,20.33 -2.19,20.25 -2.27,20.18 -2.32,20.08 -2.36,19.99 -2.38,19.88 -2.39,19.78 -2.39,19.78 -2.39,19.78 -2.43,17.87 -2.47,15.96 -2.27,13.04 -2.08,10.13 -1.42,5.02 -0.77,-0.08 -0.75,-0.17 -0.73,-0.27 -0.69,-0.35 -0.64,-0.43 -0.58,-0.51 -0.52,-0.58 -0.44,-0.63 -0.36,-0.69 -0.28,-0.72 -0.19,-0.75 -0.10,-0.77 -0.00,-0.78 0.08,-0.77 0.18,-0.76 0.26,-0.72 0.35,-0.69 0.43,-0.64 0.51,-0.59 0.57,-0.52 0.64,-0.45 0.68,-0.36 0.72,-0.28 0.75,-0.19 0.77,-0.10 0.77,-0.00 0.77,0.08 0.77,0.08 L 0.77,0.08 Z"/></g><g transform="translate(401.569665347095 12.578709759986282) rotate(0 6.352688678340371 1.41516282485631)" stroke="none"><path fill="#c92a2a" d="M 0.29,-0.85 Q 0.29,-0.85 2.62,-0.24 4.95,0.35 6.51,0.70 8.07,1.04 10.08,1.02 12.09,1.00 12.20,0.99 12.31,0.97 12.41,0.99 12.51,1.01 12.61,1.07 12.70,1.12 12.77,1.20 12.84,1.28 12.88,1.38 12.92,1.47 12.93,1.58 12.94,1.69 12.91,1.79 12.89,1.89 12.83,1.98 12.77,2.07 12.69,2.14 12.61,2.20 12.51,2.24 12.41,2.28 12.30,2.28 12.20,2.28 12.09,2.25 11.99,2.22 11.91,2.16 11.82,2.09 11.76,2.01 11.70,1.92 11.67,1.82 11.64,1.72 11.64,1.61 11.64,1.51 11.68,1.41 11.72,1.31 11.78,1.22 11.85,1.14 11.94,1.08 12.03,1.03 12.13,1.00 12.23,0.98 12.34,0.99 12.45,0.99 12.54,1.04 12.64,1.08 12.72,1.15 12.80,1.22 12.85,1.31 12.90,1.41 12.92,1.51 12.94,1.61 12.93,1.72 12.91,1.83 12.87,1.92 12.82,2.02 12.74,2.09 12.67,2.17 12.57,2.21 12.48,2.26 12.48,2.26 12.48,2.26 10.01,2.91 7.55,3.56 5.82,3.19 4.08,2.82 1.89,1.83 -0.29,0.85 -0.39,0.80 -0.49,0.75 -0.57,0.68 -0.66,0.61 -0.72,0.52 -0.78,0.43 -0.83,0.33 -0.87,0.23 -0.88,0.12 -0.90,0.02 -0.89,-0.08 -0.88,-0.19 -0.84,-0.29 -0.80,-0.40 -0.74,-0.49 -0.69,-0.58 -0.61,-0.65 -0.53,-0.73 -0.43,-0.78 -0.34,-0.83 -0.23,-0.86 -0.13,-0.89 -0.02,-0.89 0.08,-0.89 0.19,-0.87 0.29,-0.85 0.29,-0.85 L 0.29,-0.85 Z"/></g><g transform="translate(403.3307747982029 23.90001235883676) rotate(0 5.220518063060069 0.6289388358276256)" stroke="none"><path fill="#c92a2a" d="M 0.15,-0.89 Q 0.15,-0.89 2.16,-0.70 4.18,-0.50 7.04,0.02 9.90,0.55 10.00,0.57 10.10,0.60 10.19,0.66 10.28,0.72 10.35,0.80 10.41,0.88 10.45,0.98 10.49,1.08 10.49,1.19 10.49,1.29 10.46,1.39 10.43,1.50 10.37,1.58 10.30,1.67 10.22,1.73 10.13,1.79 10.03,1.82 9.93,1.85 9.82,1.85 9.72,1.85 9.62,1.81 9.52,1.77 9.43,1.71 9.35,1.64 9.29,1.55 9.24,1.46 9.21,1.36 9.19,1.25 9.20,1.15 9.21,1.04 9.25,0.94 9.29,0.85 9.36,0.77 9.43,0.69 9.52,0.64 9.62,0.59 9.72,0.57 9.83,0.55 9.93,0.56 10.04,0.58 10.13,0.62 10.23,0.67 10.30,0.75 10.38,0.82 10.42,0.92 10.47,1.01 10.48,1.12 10.50,1.22 10.48,1.33 10.46,1.43 10.40,1.52 10.35,1.62 10.27,1.69 10.19,1.76 10.10,1.80 10.00,1.84 9.89,1.85 9.79,1.86 9.79,1.86 9.79,1.86 6.78,1.87 3.77,1.88 1.80,1.38 -0.15,0.89 -0.25,0.86 -0.36,0.83 -0.45,0.77 -0.55,0.71 -0.63,0.64 -0.70,0.56 -0.76,0.47 -0.82,0.38 -0.85,0.27 -0.89,0.17 -0.89,0.06 -0.90,-0.04 -0.88,-0.15 -0.86,-0.26 -0.82,-0.36 -0.78,-0.46 -0.71,-0.54 -0.64,-0.63 -0.56,-0.70 -0.47,-0.77 -0.37,-0.81 -0.27,-0.86 -0.17,-0.88 -0.06,-0.90 0.04,-0.89 0.15,-0.89 0.15,-0.89 L 0.15,-0.89 Z"/></g><g transform="translate(403.708155394869 170.51044286965873) rotate(0 -0.8491063424985441 9.560193147742496)" stroke="none"><path fill="#c92a2a" d="M 0.88,0.11 Q 0.88,0.11 0.52,3.59 0.16,7.08 -0.07,9.79 -0.30,12.51 -0.32,15.51 -0.34,18.51 -0.35,18.61 -0.36,18.72 -0.39,18.82 -0.43,18.91 -0.50,19.00 -0.57,19.08 -0.66,19.13 -0.75,19.19 -0.86,19.21 -0.96,19.23 -1.07,19.22 -1.17,19.21 -1.27,19.16 -1.37,19.12 -1.44,19.05 -1.52,18.97 -1.57,18.88 -1.62,18.78 -1.64,18.68 -1.65,18.57 -1.64,18.47 -1.62,18.36 -1.57,18.27 -1.52,18.18 -1.44,18.10 -1.36,18.03 -1.27,17.99 -1.17,17.94 -1.07,17.93 -0.96,17.92 -0.86,17.94 -0.75,17.97 -0.66,18.02 -0.57,18.08 -0.50,18.16 -0.43,18.24 -0.39,18.34 -0.36,18.44 -0.35,18.54 -0.34,18.65 -0.37,18.75 -0.40,18.85 -0.46,18.94 -0.52,19.03 -0.61,19.09 -0.69,19.16 -0.79,19.19 -0.89,19.22 -1.00,19.22 -1.10,19.22 -1.20,19.19 -1.30,19.16 -1.39,19.09 -1.47,19.03 -1.53,18.94 -1.59,18.85 -1.62,18.75 -1.65,18.65 -1.65,18.65 -1.65,18.65 -2.03,15.49 -2.41,12.33 -2.19,9.57 -1.96,6.80 -1.42,3.34 -0.88,-0.11 -0.85,-0.21 -0.82,-0.32 -0.77,-0.41 -0.72,-0.51 -0.65,-0.59 -0.58,-0.67 -0.49,-0.73 -0.40,-0.79 -0.30,-0.82 -0.20,-0.86 -0.09,-0.87 0.00,-0.89 0.11,-0.87 0.22,-0.86 0.32,-0.82 0.42,-0.78 0.50,-0.72 0.59,-0.66 0.66,-0.58 0.73,-0.49 0.78,-0.40 0.83,-0.30 0.85,-0.20 0.88,-0.09 0.88,0.00 0.88,0.11 0.88,0.11 L 0.88,0.11 Z"/></g><g transform="translate(405.6580127948746 169.31546196411443) rotate(0 6.604275742784409 1.7296034174877661)" stroke="none"><path fill="#c92a2a" d="M 0.26,-0.76 Q 0.26,-0.76 2.09,-0.37 3.93,0.02 5.34,0.41 6.75,0.80 8.02,1.06 9.29,1.32 11.16,2.02 13.02,2.72 13.12,2.77 13.22,2.81 13.29,2.88 13.37,2.96 13.42,3.05 13.47,3.15 13.49,3.25 13.50,3.36 13.48,3.46 13.47,3.57 13.42,3.66 13.37,3.75 13.29,3.83 13.21,3.90 13.11,3.94 13.02,3.99 12.91,4.00 12.81,4.01 12.70,3.99 12.60,3.96 12.51,3.91 12.42,3.85 12.35,3.77 12.28,3.69 12.24,3.59 12.20,3.49 12.20,3.39 12.19,3.28 12.22,3.18 12.25,3.07 12.31,2.99 12.37,2.90 12.46,2.84 12.54,2.77 12.64,2.74 12.74,2.70 12.85,2.71 12.95,2.71 13.06,2.74 13.16,2.77 13.24,2.84 13.32,2.90 13.38,2.99 13.44,3.08 13.47,3.18 13.50,3.29 13.49,3.39 13.49,3.50 13.45,3.60 13.41,3.69 13.34,3.77 13.27,3.86 13.18,3.91 13.09,3.96 12.98,3.99 12.88,4.01 12.77,4.00 12.67,3.98 12.67,3.99 12.67,3.99 10.73,3.89 8.80,3.80 7.43,3.54 6.06,3.27 4.57,2.85 3.08,2.43 1.40,1.60 -0.26,0.76 -0.35,0.72 -0.44,0.67 -0.51,0.61 -0.59,0.55 -0.64,0.47 -0.70,0.39 -0.74,0.30 -0.78,0.21 -0.79,0.11 -0.80,0.02 -0.79,-0.07 -0.79,-0.17 -0.75,-0.26 -0.72,-0.35 -0.67,-0.43 -0.61,-0.52 -0.54,-0.58 -0.47,-0.65 -0.39,-0.70 -0.30,-0.74 -0.21,-0.77 -0.11,-0.80 -0.02,-0.80 0.07,-0.80 0.17,-0.78 0.26,-0.76 0.26,-0.76 L 0.26,-0.76 Z"/></g><g transform="translate(409.1802893476554 180.44801661406723) rotate(0 4.2455893630571495 0.3144838305549911)" stroke="none"><path fill="#c92a2a" d="M 0.03,-0.95 Q 0.03,-0.95 2.25,-0.98 4.46,-1.02 6.14,-0.56 7.82,-0.10 7.92,-0.07 8.03,-0.04 8.11,0.01 8.20,0.07 8.27,0.15 8.33,0.24 8.36,0.34 8.40,0.44 8.40,0.54 8.40,0.65 8.36,0.75 8.33,0.85 8.26,0.94 8.20,1.02 8.11,1.08 8.02,1.14 7.92,1.17 7.82,1.20 7.71,1.19 7.61,1.18 7.51,1.14 7.41,1.11 7.33,1.04 7.25,0.97 7.19,0.88 7.14,0.79 7.12,0.68 7.09,0.58 7.11,0.47 7.12,0.37 7.16,0.27 7.21,0.17 7.28,0.10 7.35,0.02 7.45,-0.02 7.54,-0.07 7.65,-0.09 7.75,-0.10 7.86,-0.09 7.96,-0.07 8.05,-0.02 8.15,0.02 8.22,0.10 8.29,0.18 8.34,0.27 8.38,0.37 8.39,0.47 8.41,0.58 8.38,0.68 8.36,0.79 8.30,0.88 8.25,0.97 8.17,1.04 8.09,1.11 7.99,1.15 7.89,1.18 7.78,1.19 7.68,1.20 7.68,1.20 7.68,1.20 6.02,1.29 4.36,1.38 2.16,1.16 -0.03,0.95 -0.15,0.93 -0.26,0.91 -0.37,0.86 -0.47,0.82 -0.56,0.75 -0.65,0.68 -0.73,0.59 -0.80,0.50 -0.85,0.40 -0.90,0.30 -0.92,0.18 -0.94,0.07 -0.94,-0.03 -0.93,-0.15 -0.90,-0.26 -0.87,-0.37 -0.81,-0.47 -0.76,-0.57 -0.68,-0.65 -0.60,-0.73 -0.50,-0.79 -0.40,-0.85 -0.29,-0.89 -0.18,-0.93 -0.07,-0.94 0.03,-0.95 0.03,-0.95 L 0.03,-0.95 Z"/></g><g stroke-linecap="round" transform="translate(648.8533129038717 84.15420228903105) rotate(0 19.24407958984378 19.24407958984375)"><path d="M38.49 19.24 C38.49 20.36, 38.39 21.49, 38.2 22.59 C38 23.68, 37.71 24.78, 37.33 25.83 C36.95 26.87, 36.47 27.9, 35.91 28.87 C35.35 29.83, 34.7 30.76, 33.99 31.61 C33.27 32.47, 32.47 33.27, 31.61 33.99 C30.76 34.7, 29.83 35.35, 28.87 35.91 C27.9 36.47, 26.87 36.95, 25.83 37.33 C24.78 37.71, 23.68 38, 22.59 38.2 C21.49 38.39, 20.36 38.49, 19.24 38.49 C18.13 38.49, 17 38.39, 15.9 38.2 C14.81 38, 13.71 37.71, 12.66 37.33 C11.62 36.95, 10.59 36.47, 9.62 35.91 C8.66 35.35, 7.73 34.7, 6.87 33.99 C6.02 33.27, 5.22 32.47, 4.5 31.61 C3.79 30.76, 3.14 29.83, 2.58 28.87 C2.02 27.9, 1.54 26.87, 1.16 25.83 C0.78 24.78, 0.49 23.68, 0.29 22.59 C0.1 21.49, 0 20.36, 0 19.24 C0 18.13, 0.1 17, 0.29 15.9 C0.49 14.81, 0.78 13.71, 1.16 12.66 C1.54 11.62, 2.02 10.59, 2.58 9.62 C3.14 8.66, 3.79 7.73, 4.5 6.87 C5.22 6.02, 6.02 5.22, 6.87 4.5 C7.73 3.79, 8.66 3.14, 9.62 2.58 C10.59 2.02, 11.62 1.54, 12.66 1.16 C13.71 0.78, 14.81 0.49, 15.9 0.29 C17 0.1, 18.13 0, 19.24 0 C20.36 0, 21.49 0.1, 22.59 0.29 C23.68 0.49, 24.78 0.78, 25.83 1.16 C26.87 1.54, 27.9 2.02, 28.87 2.58 C29.83 3.14, 30.76 3.79, 31.61 4.5 C32.47 5.22, 33.27 6.02, 33.99 6.87 C34.7 7.73, 35.35 8.66, 35.91 9.62 C36.47 10.59, 36.95 11.62, 37.33 12.66 C37.71 13.71, 38 14.81, 38.2 15.9 C38.39 17, 38.44 18.69, 38.49 19.24 C38.54 19.8, 38.54 18.69, 38.49 19.24" stroke="none" stroke-width="0" fill="#ced4da"/><path d="M38.49 19.24 C38.49 20.36, 38.39 21.49, 38.2 22.59 C38 23.68, 37.71 24.78, 37.33 25.83 C36.95 26.87, 36.47 27.9, 35.91 28.87 C35.35 29.83, 34.7 30.76, 33.99 31.61 C33.27 32.47, 32.47 33.27, 31.61 33.99 C30.76 34.7, 29.83 35.35, 28.87 35.91 C27.9 36.47, 26.87 36.95, 25.83 37.33 C24.78 37.71, 23.68 38, 22.59 38.2 C21.49 38.39, 20.36 38.49, 19.24 38.49 C18.13 38.49, 17 38.39, 15.9 38.2 C14.81 38, 13.71 37.71, 12.66 37.33 C11.62 36.95, 10.59 36.47, 9.62 35.91 C8.66 35.35, 7.73 34.7, 6.87 33.99 C6.02 33.27, 5.22 32.47, 4.5 31.61 C3.79 30.76, 3.14 29.83, 2.58 28.87 C2.02 27.9, 1.54 26.87, 1.16 25.83 C0.78 24.78, 0.49 23.68, 0.29 22.59 C0.1 21.49, 0 20.36, 0 19.24 C0 18.13, 0.1 17, 0.29 15.9 C0.49 14.81, 0.78 13.71, 1.16 12.66 C1.54 11.62, 2.02 10.59, 2.58 9.62 C3.14 8.66, 3.79 7.73, 4.5 6.87 C5.22 6.02, 6.02 5.22, 6.87 4.5 C7.73 3.79, 8.66 3.14, 9.62 2.58 C10.59 2.02, 11.62 1.54, 12.66 1.16 C13.71 0.78, 14.81 0.49, 15.9 0.29 C17 0.1, 18.13 0, 19.24 0 C20.36 0, 21.49 0.1, 22.59 0.29 C23.68 0.49, 24.78 0.78, 25.83 1.16 C26.87 1.54, 27.9 2.02, 28.87 2.58 C29.83 3.14, 30.76 3.79, 31.61 4.5 C32.47 5.22, 33.27 6.02, 33.99 6.87 C34.7 7.73, 35.35 8.66, 35.91 9.62 C36.47 10.59, 36.95 11.62, 37.33 12.66 C37.71 13.71, 38 14.81, 38.2 15.9 C38.39 17, 38.44 18.69, 38.49 19.24 C38.54 19.8, 38.54 18.69, 38.49 19.24" stroke="#000000" stroke-width="0.5" fill="none"/></g><g stroke-linecap="round"><g transform="translate(689.3931826308503 101.36284016969654) rotate(0 45.917043471807574 -0.436323774307283)"><path d="M0 0 C15.31 -0.15, 76.53 -0.73, 91.83 -0.87 M0 0 C15.31 -0.15, 76.53 -0.73, 91.83 -0.87" stroke="#c92a2a" stroke-width="0.5" fill="none"/></g><g transform="translate(689.3931826308503 101.36284016969654) rotate(0 45.917043471807574 -0.436323774307283)"><path d="M91.83 -0.87 L78.3 5.6 L78.18 -7.08 L91.83 -0.87" stroke="none" stroke-width="0" fill="#c92a2a" fill-rule="evenodd"/><path d="M91.83 -0.87 C87.84 1.04, 83.84 2.95, 78.3 5.6 M91.83 -0.87 C88.5 0.72, 85.16 2.32, 78.3 5.6 M78.3 5.6 C78.26 1.16, 78.22 -3.28, 78.18 -7.08 M78.3 5.6 C78.26 0.84, 78.21 -3.92, 78.18 -7.08 M78.18 -7.08 C82.13 -5.29, 86.07 -3.49, 91.83 -0.87 M78.18 -7.08 C81.45 -5.6, 84.72 -4.11, 91.83 -0.87 M91.83 -0.87 C91.83 -0.87, 91.83 -0.87, 91.83 -0.87 M91.83 -0.87 C91.83 -0.87, 91.83 -0.87, 91.83 -0.87" stroke="#c92a2a" stroke-width="0.5" fill="none"/></g></g><mask/><g stroke-linecap="round"><g transform="translate(646.7655266400182 100.82583812629565) rotate(0 -47.69602617932168 -0.26851640417092426)"><path d="M0 0 C-15.9 -0.09, -79.49 -0.45, -95.39 -0.54 M0 0 C-15.9 -0.09, -79.49 -0.45, -95.39 -0.54" stroke="#c92a2a" stroke-width="0.5" fill="none"/></g><g transform="translate(646.7655266400182 100.82583812629565) rotate(0 -47.69602617932168 -0.26851640417092426)"><path d="M-95.39 -0.54 L-81.76 -6.8 L-81.83 5.88 L-95.39 -0.54" stroke="none" stroke-width="0" fill="#c92a2a" fill-rule="evenodd"/><path d="M-95.39 -0.54 C-92.35 -1.93, -89.31 -3.33, -81.76 -6.8 M-95.39 -0.54 C-91.05 -2.53, -86.71 -4.53, -81.76 -6.8 M-81.76 -6.8 C-81.78 -3.99, -81.79 -1.18, -81.83 5.88 M-81.76 -6.8 C-81.79 -2.28, -81.81 2.24, -81.83 5.88 M-81.83 5.88 C-86.23 3.8, -90.62 1.72, -95.39 -0.54 M-81.83 5.88 C-86.24 3.79, -90.65 1.71, -95.39 -0.54 M-95.39 -0.54 C-95.39 -0.54, -95.39 -0.54, -95.39 -0.54 M-95.39 -0.54 C-95.39 -0.54, -95.39 -0.54, -95.39 -0.54" stroke="#c92a2a" stroke-width="0.5" fill="none"/></g></g><mask/><g transform="translate(738.9352590888469 60.14612589839771) rotate(0 -1.309017470333174 10.606244140046527)" stroke="none"><path fill="#c92a2a" d="M 0.87,0.11 Q 0.87,0.11 0.15,5.73 -0.56,11.35 -1.05,15.41 -1.54,19.46 -1.56,19.56 -1.59,19.67 -1.65,19.76 -1.70,19.84 -1.79,19.91 -1.87,19.98 -1.97,20.01 -2.07,20.05 -2.18,20.05 -2.28,20.06 -2.38,20.02 -2.49,19.99 -2.57,19.93 -2.66,19.87 -2.72,19.78 -2.78,19.69 -2.81,19.59 -2.84,19.49 -2.84,19.39 -2.84,19.28 -2.80,19.18 -2.76,19.08 -2.70,19.00 -2.63,18.91 -2.54,18.86 -2.45,18.80 -2.35,18.78 -2.24,18.75 -2.14,18.76 -2.03,18.77 -1.93,18.81 -1.84,18.85 -1.76,18.92 -1.68,19.00 -1.63,19.09 -1.57,19.18 -1.56,19.28 -1.54,19.39 -1.55,19.49 -1.56,19.60 -1.61,19.69 -1.66,19.79 -1.74,19.86 -1.81,19.94 -1.91,19.99 -2.00,20.03 -2.11,20.05 -2.21,20.06 -2.32,20.04 -2.42,20.02 -2.51,19.97 -2.61,19.92 -2.68,19.84 -2.75,19.76 -2.79,19.66 -2.83,19.56 -2.84,19.46 -2.85,19.35 -2.85,19.35 -2.85,19.35 -2.65,15.23 -2.44,11.10 -1.66,5.49 -0.87,-0.11 -0.85,-0.22 -0.82,-0.32 -0.77,-0.41 -0.72,-0.51 -0.65,-0.59 -0.57,-0.67 -0.49,-0.72 -0.40,-0.78 -0.30,-0.82 -0.20,-0.86 -0.09,-0.87 0.01,-0.88 0.11,-0.87 0.22,-0.85 0.32,-0.81 0.42,-0.77 0.50,-0.71 0.59,-0.65 0.66,-0.57 0.73,-0.49 0.78,-0.39 0.83,-0.30 0.85,-0.19 0.88,-0.09 0.87,0.01 0.87,0.11 0.87,0.11 L 0.87,0.11 Z"/></g><g transform="translate(740.0764538065733 54.171697435476744) rotate(0 6.713033164036403 2.3830523220759403)" stroke="none"><path fill="#c92a2a" d="M 0.48,-0.64 Q 0.48,-0.64 2.42,0.56 4.36,1.77 5.81,2.23 7.25,2.69 9.99,2.88 12.73,3.07 12.84,3.08 12.95,3.09 13.04,3.14 13.14,3.18 13.22,3.25 13.29,3.33 13.34,3.42 13.39,3.51 13.41,3.62 13.43,3.72 13.41,3.83 13.40,3.93 13.35,4.03 13.30,4.12 13.22,4.19 13.14,4.27 13.05,4.31 12.95,4.36 12.85,4.37 12.74,4.38 12.64,4.36 12.53,4.34 12.44,4.28 12.35,4.23 12.28,4.15 12.21,4.07 12.17,3.97 12.13,3.87 12.13,3.76 12.12,3.66 12.15,3.55 12.18,3.45 12.23,3.36 12.29,3.28 12.38,3.21 12.46,3.15 12.56,3.11 12.66,3.08 12.77,3.08 12.88,3.08 12.98,3.11 13.08,3.14 13.16,3.21 13.25,3.27 13.31,3.36 13.37,3.45 13.40,3.55 13.43,3.65 13.42,3.76 13.41,3.86 13.38,3.96 13.34,4.06 13.27,4.14 13.20,4.22 13.11,4.28 13.02,4.33 12.91,4.36 12.81,4.38 12.81,4.38 12.81,4.38 9.66,4.67 6.51,4.96 4.74,4.33 2.96,3.71 1.24,2.17 -0.48,0.64 -0.55,0.58 -0.62,0.51 -0.67,0.43 -0.73,0.34 -0.76,0.25 -0.79,0.16 -0.80,0.06 -0.80,-0.03 -0.79,-0.12 -0.77,-0.22 -0.74,-0.31 -0.70,-0.40 -0.64,-0.48 -0.58,-0.55 -0.51,-0.62 -0.43,-0.68 -0.34,-0.72 -0.25,-0.76 -0.16,-0.78 -0.06,-0.80 0.03,-0.80 0.12,-0.79 0.22,-0.77 0.31,-0.74 0.40,-0.69 0.48,-0.64 0.48,-0.64 L 0.48,-0.64 Z"/></g><g transform="translate(739.8750665034452 71.75930655408519) rotate(0 7.55214692707051 1.8124549632127582)" stroke="none"><path fill="#c92a2a" d="M 0.40,-0.73 Q 0.40,-0.73 1.57,-0.36 2.74,0.01 4.29,0.53 5.85,1.04 7.67,1.42 9.49,1.81 11.80,2.34 14.10,2.87 14.21,2.89 14.31,2.92 14.40,2.98 14.49,3.04 14.55,3.12 14.62,3.20 14.65,3.30 14.69,3.40 14.69,3.51 14.69,3.62 14.66,3.72 14.63,3.82 14.56,3.90 14.50,3.99 14.41,4.05 14.33,4.11 14.22,4.14 14.12,4.17 14.02,4.17 13.91,4.16 13.81,4.12 13.71,4.09 13.63,4.02 13.55,3.95 13.49,3.86 13.44,3.77 13.41,3.67 13.39,3.56 13.40,3.46 13.41,3.35 13.45,3.25 13.49,3.16 13.57,3.08 13.64,3.00 13.73,2.95 13.82,2.90 13.93,2.88 14.03,2.86 14.14,2.88 14.24,2.89 14.34,2.94 14.43,2.99 14.51,3.07 14.58,3.14 14.63,3.24 14.67,3.34 14.69,3.44 14.70,3.55 14.68,3.65 14.66,3.75 14.60,3.85 14.55,3.94 14.47,4.01 14.39,4.08 14.29,4.12 14.19,4.16 14.09,4.17 13.98,4.17 13.98,4.17 13.98,4.17 11.49,4.24 9.00,4.31 6.99,3.94 4.98,3.56 3.24,2.93 1.50,2.30 0.55,1.51 -0.40,0.73 -0.48,0.67 -0.56,0.61 -0.63,0.54 -0.69,0.46 -0.74,0.37 -0.78,0.28 -0.81,0.18 -0.83,0.08 -0.83,-0.01 -0.83,-0.11 -0.80,-0.21 -0.77,-0.30 -0.73,-0.39 -0.68,-0.48 -0.61,-0.56 -0.54,-0.63 -0.46,-0.69 -0.37,-0.74 -0.28,-0.78 -0.18,-0.81 -0.08,-0.82 0.01,-0.83 0.11,-0.82 0.21,-0.81 0.30,-0.77 0.40,-0.73 0.40,-0.73 L 0.40,-0.73 Z"/></g><g transform="translate(598.8345178421062 68.93991507523151) rotate(0 10.270921666712326 1.006921133170465)" stroke="none"><path fill="#c92a2a" d="M 0.14,-0.86 Q 0.14,-0.86 3.48,-0.60 6.83,-0.35 9.40,-0.07 11.98,0.19 13.95,0.19 15.92,0.18 17.73,-0.01 19.55,-0.22 19.66,-0.23 19.76,-0.24 19.87,-0.21 19.97,-0.19 20.06,-0.13 20.15,-0.07 20.22,0.00 20.28,0.08 20.32,0.18 20.36,0.28 20.36,0.39 20.37,0.49 20.34,0.59 20.31,0.70 20.25,0.78 20.18,0.87 20.10,0.93 20.01,0.99 19.91,1.03 19.81,1.06 19.70,1.06 19.60,1.06 19.50,1.02 19.40,0.98 19.31,0.92 19.23,0.85 19.17,0.76 19.11,0.68 19.09,0.57 19.06,0.47 19.07,0.36 19.08,0.26 19.12,0.16 19.16,0.06 19.23,-0.01 19.30,-0.09 19.39,-0.14 19.48,-0.19 19.59,-0.22 19.69,-0.24 19.80,-0.22 19.90,-0.21 20.00,-0.16 20.09,-0.12 20.17,-0.04 20.24,0.02 20.29,0.12 20.34,0.21 20.36,0.32 20.37,0.42 20.35,0.53 20.33,0.63 20.28,0.72 20.23,0.82 20.15,0.89 20.07,0.96 19.98,1.00 19.88,1.05 19.88,1.05 19.88,1.05 17.97,1.81 16.06,2.57 13.88,2.80 11.69,3.03 9.03,2.77 6.36,2.51 3.11,1.68 -0.14,0.86 -0.24,0.83 -0.34,0.80 -0.43,0.75 -0.52,0.70 -0.60,0.62 -0.68,0.55 -0.73,0.46 -0.79,0.37 -0.82,0.27 -0.86,0.17 -0.86,0.06 -0.87,-0.03 -0.86,-0.14 -0.84,-0.24 -0.80,-0.34 -0.75,-0.44 -0.69,-0.52 -0.63,-0.60 -0.55,-0.67 -0.46,-0.74 -0.37,-0.78 -0.27,-0.83 -0.17,-0.85 -0.06,-0.87 0.03,-0.87 0.14,-0.86 0.14,-0.86 L 0.14,-0.86 Z"/></g><g transform="translate(609.8438750027589 70.41672453323059) rotate(0 -0.26853178664137545 7.5854961230055835)" stroke="none"><path fill="#c92a2a" d="M 0.84,0.03 Q 0.84,0.03 0.86,2.99 0.87,5.95 0.78,8.07 0.68,10.19 0.57,12.20 0.46,14.22 0.45,14.33 0.44,14.43 0.40,14.53 0.35,14.63 0.28,14.70 0.21,14.78 0.11,14.83 0.02,14.88 -0.07,14.90 -0.18,14.92 -0.28,14.90 -0.39,14.88 -0.48,14.83 -0.58,14.78 -0.65,14.71 -0.72,14.63 -0.77,14.53 -0.81,14.44 -0.83,14.33 -0.84,14.23 -0.81,14.12 -0.79,14.02 -0.74,13.93 -0.68,13.84 -0.60,13.77 -0.52,13.70 -0.42,13.66 -0.32,13.62 -0.22,13.61 -0.11,13.61 -0.01,13.63 0.08,13.66 0.17,13.72 0.26,13.78 0.32,13.87 0.39,13.95 0.42,14.05 0.46,14.15 0.46,14.26 0.46,14.36 0.42,14.46 0.39,14.57 0.33,14.65 0.26,14.73 0.17,14.79 0.09,14.85 -0.01,14.88 -0.11,14.91 -0.21,14.91 -0.32,14.90 -0.42,14.86 -0.52,14.82 -0.60,14.75 -0.68,14.69 -0.74,14.60 -0.79,14.50 -0.81,14.40 -0.84,14.30 -0.84,14.30 -0.84,14.30 -1.18,12.20 -1.53,10.11 -1.47,7.98 -1.41,5.85 -1.13,2.90 -0.84,-0.03 -0.83,-0.13 -0.81,-0.24 -0.77,-0.33 -0.73,-0.42 -0.67,-0.50 -0.60,-0.59 -0.52,-0.65 -0.44,-0.71 -0.35,-0.76 -0.26,-0.80 -0.16,-0.82 -0.06,-0.84 0.03,-0.84 0.14,-0.83 0.23,-0.80 0.33,-0.77 0.42,-0.72 0.51,-0.67 0.58,-0.60 0.66,-0.53 0.71,-0.44 0.76,-0.35 0.80,-0.26 0.83,-0.16 0.84,-0.06 0.84,0.03 0.84,0.03 L 0.84,0.03 Z"/></g><g transform="translate(625.2838451270544 85.05068397089991) rotate(0 0.5370174258713689 4.900378228707808)" stroke="none"><path fill="#c92a2a" d="M 0.87,-0.06 Q 0.87,-0.06 1.18,2.51 1.49,5.08 1.54,6.97 1.59,8.86 1.59,8.97 1.59,9.08 1.56,9.18 1.52,9.28 1.45,9.36 1.39,9.44 1.30,9.50 1.21,9.56 1.11,9.59 1.01,9.61 0.90,9.61 0.79,9.60 0.70,9.56 0.60,9.52 0.52,9.45 0.44,9.38 0.38,9.29 0.33,9.19 0.31,9.09 0.29,8.99 0.30,8.88 0.31,8.77 0.36,8.68 0.41,8.58 0.48,8.51 0.56,8.43 0.65,8.38 0.74,8.33 0.85,8.32 0.95,8.30 1.06,8.32 1.16,8.34 1.26,8.39 1.35,8.44 1.42,8.52 1.49,8.60 1.54,8.70 1.58,8.79 1.59,8.90 1.60,9.01 1.58,9.11 1.55,9.21 1.49,9.30 1.44,9.39 1.36,9.46 1.27,9.53 1.18,9.57 1.08,9.60 0.97,9.61 0.86,9.61 0.76,9.58 0.66,9.55 0.57,9.49 0.49,9.43 0.42,9.34 0.36,9.26 0.33,9.16 0.30,9.06 0.30,9.06 0.30,9.06 -0.20,7.15 -0.71,5.25 -0.79,2.65 -0.87,0.06 -0.86,-0.04 -0.86,-0.14 -0.83,-0.24 -0.80,-0.34 -0.74,-0.43 -0.69,-0.52 -0.62,-0.60 -0.54,-0.68 -0.45,-0.73 -0.36,-0.79 -0.26,-0.82 -0.16,-0.85 -0.06,-0.86 0.04,-0.87 0.14,-0.85 0.24,-0.83 0.34,-0.79 0.44,-0.75 0.52,-0.69 0.60,-0.62 0.67,-0.54 0.74,-0.46 0.78,-0.36 0.83,-0.27 0.85,-0.16 0.87,-0.06 0.87,-0.06 L 0.87,-0.06 Z"/></g><g transform="translate(105.94386200171465 109.3919744317082) rotate(0 3.0879847953768262 -2.8193607139127437)" stroke="none"><path fill="#000000" d="M -0.73,-0.30 Q -0.73,-0.30 0.08,-2.39 0.89,-4.48 1.78,-6.22 2.66,-7.95 3.33,-9.17 3.99,-10.39 4.47,-11.10 4.95,-11.81 4.97,-11.82 4.99,-11.82 5.07,-11.92 5.15,-12.01 5.24,-12.08 5.34,-12.16 5.45,-12.20 5.56,-12.25 5.68,-12.27 5.80,-12.29 5.92,-12.28 6.04,-12.27 6.16,-12.23 6.27,-12.20 6.38,-12.13 6.48,-12.07 6.56,-11.98 6.65,-11.89 6.71,-11.79 6.77,-11.68 6.80,-11.57 6.84,-11.45 6.84,-11.33 6.85,-11.21 6.82,-11.09 6.80,-10.97 6.75,-10.86 6.70,-10.75 6.53,-9.61 6.36,-8.46 6.17,-7.08 5.98,-5.70 5.83,-4.04 5.68,-2.38 5.57,-0.81 5.46,0.74 5.41,1.94 5.36,3.14 5.59,4.57 5.82,6.00 5.83,6.11 5.85,6.21 5.84,6.32 5.82,6.42 5.77,6.52 5.73,6.61 5.65,6.68 5.57,6.76 5.48,6.80 5.38,6.85 5.28,6.86 5.17,6.88 5.07,6.86 4.96,6.83 4.87,6.78 4.78,6.73 4.71,6.65 4.64,6.57 4.60,6.47 4.56,6.37 4.55,6.26 4.54,6.16 4.57,6.06 4.60,5.95 4.66,5.86 4.71,5.78 4.80,5.71 4.88,5.64 4.98,5.61 5.08,5.57 5.19,5.57 5.29,5.57 5.40,5.60 5.50,5.64 5.58,5.70 5.67,5.76 5.73,5.85 5.79,5.94 5.82,6.04 5.85,6.14 5.84,6.25 5.84,6.35 5.80,6.45 5.76,6.55 5.70,6.63 5.63,6.71 5.54,6.77 5.45,6.83 5.35,6.85 5.24,6.88 5.14,6.87 5.03,6.86 4.93,6.81 4.84,6.77 4.76,6.70 4.68,6.63 4.63,6.53 4.58,6.44 4.58,6.44 4.58,6.44 4.05,4.79 3.51,3.14 3.48,1.87 3.44,0.61 3.54,-0.98 3.64,-2.57 3.80,-4.27 3.96,-5.97 4.15,-7.41 4.34,-8.84 4.51,-9.75 4.68,-10.66 4.84,-11.24 4.99,-11.82 5.07,-11.92 5.15,-12.01 5.24,-12.08 5.34,-12.16 5.45,-12.20 5.56,-12.25 5.68,-12.27 5.80,-12.29 5.92,-12.28 6.04,-12.27 6.16,-12.23 6.27,-12.20 6.38,-12.13 6.48,-12.07 6.56,-11.98 6.65,-11.89 6.71,-11.79 6.77,-11.68 6.80,-11.57 6.84,-11.45 6.84,-11.33 6.85,-11.21 6.82,-11.09 6.80,-10.97 6.75,-10.86 6.70,-10.75 6.46,-10.69 6.22,-10.62 5.91,-10.07 5.59,-9.52 4.94,-8.32 4.28,-7.13 3.43,-5.45 2.57,-3.77 1.65,-1.73 0.73,0.30 0.68,0.39 0.63,0.47 0.57,0.54 0.50,0.61 0.42,0.66 0.34,0.71 0.25,0.74 0.16,0.77 0.06,0.78 -0.02,0.79 -0.12,0.78 -0.21,0.76 -0.30,0.72 -0.39,0.69 -0.47,0.63 -0.54,0.57 -0.60,0.50 -0.67,0.42 -0.71,0.34 -0.75,0.25 -0.77,0.16 -0.79,0.06 -0.78,-0.02 -0.78,-0.12 -0.75,-0.21 -0.73,-0.30 -0.73,-0.30 L -0.73,-0.30 Z"/></g><g transform="translate(378.78749355237676 97.95376937738666) rotate(0 6.444501377395028 8.894482828397855)" stroke="none"><path fill="#000000" d="M 0.03,-0.80 Q 0.03,-0.80 1.00,-0.84 1.97,-0.88 3.08,-0.68 4.19,-0.49 5.22,-0.06 6.25,0.35 7.16,1.31 8.08,2.27 8.55,3.51 9.02,4.75 8.92,6.21 8.81,7.68 7.74,9.22 6.67,10.76 5.01,12.00 3.36,13.24 1.63,14.10 -0.09,14.96 -1.32,15.37 -2.55,15.77 -3.08,15.65 -3.62,15.52 -3.75,15.55 -3.89,15.59 -4.04,15.58 -4.18,15.58 -4.31,15.54 -4.45,15.51 -4.58,15.44 -4.70,15.37 -4.80,15.27 -4.91,15.18 -4.99,15.06 -5.07,14.94 -5.11,14.81 -5.16,14.67 -5.17,14.53 -5.19,14.39 -5.17,14.25 -5.15,14.11 -5.10,13.98 -5.04,13.85 -4.96,13.73 -4.88,13.61 -4.77,13.52 -4.66,13.43 -4.53,13.37 -4.41,13.30 -3.19,12.68 -1.98,12.06 0.16,12.14 2.31,12.21 4.77,12.87 7.23,13.53 9.48,14.38 11.73,15.22 14.24,16.10 16.74,16.98 16.83,17.02 16.93,17.07 17.01,17.14 17.09,17.21 17.14,17.31 17.19,17.40 17.21,17.50 17.23,17.61 17.21,17.71 17.19,17.82 17.15,17.91 17.10,18.01 17.02,18.08 16.95,18.15 16.85,18.20 16.75,18.25 16.65,18.26 16.54,18.27 16.44,18.25 16.33,18.23 16.24,18.18 16.15,18.12 16.08,18.04 16.01,17.96 15.97,17.86 15.93,17.77 15.92,17.66 15.92,17.55 15.94,17.45 15.97,17.35 16.03,17.26 16.09,17.17 16.17,17.11 16.25,17.04 16.35,17.01 16.45,16.97 16.56,16.97 16.67,16.97 16.77,17.00 16.87,17.03 16.95,17.10 17.04,17.16 17.10,17.25 17.16,17.33 17.19,17.43 17.22,17.54 17.22,17.64 17.21,17.75 17.17,17.85 17.14,17.95 17.07,18.03 17.00,18.11 16.91,18.17 16.82,18.22 16.72,18.25 16.61,18.27 16.51,18.26 16.40,18.25 16.40,18.25 16.40,18.25 13.69,17.76 10.98,17.27 8.81,16.50 6.64,15.72 4.41,15.11 2.19,14.49 0.39,14.38 -1.40,14.27 -2.16,14.35 -2.93,14.43 -3.27,14.98 -3.62,15.52 -3.75,15.55 -3.89,15.59 -4.04,15.58 -4.18,15.58 -4.31,15.54 -4.45,15.51 -4.58,15.44 -4.70,15.37 -4.80,15.27 -4.91,15.18 -4.99,15.06 -5.07,14.94 -5.11,14.81 -5.16,14.67 -5.17,14.53 -5.19,14.39 -5.17,14.25 -5.15,14.11 -5.10,13.98 -5.04,13.85 -4.96,13.73 -4.88,13.61 -4.77,13.52 -4.66,13.43 -4.53,13.37 -4.41,13.30 -3.83,13.34 -3.26,13.38 -2.25,12.99 -1.24,12.60 0.28,11.86 1.82,11.12 3.22,10.13 4.62,9.15 5.48,8.18 6.33,7.21 6.48,6.31 6.63,5.42 6.44,4.55 6.25,3.68 5.78,2.95 5.31,2.22 4.54,1.85 3.77,1.48 2.83,1.26 1.88,1.03 0.92,0.92 -0.03,0.80 -0.12,0.78 -0.22,0.77 -0.31,0.73 -0.40,0.69 -0.47,0.63 -0.55,0.57 -0.61,0.50 -0.67,0.42 -0.72,0.34 -0.76,0.25 -0.78,0.15 -0.80,0.06 -0.79,-0.03 -0.79,-0.12 -0.76,-0.22 -0.73,-0.31 -0.69,-0.39 -0.64,-0.48 -0.57,-0.55 -0.50,-0.62 -0.42,-0.67 -0.34,-0.72 -0.25,-0.75 -0.16,-0.78 -0.06,-0.79 0.03,-0.80 0.03,-0.80 L 0.03,-0.80 Z"/></g><g transform="translate(662.7747558482477 96.44151870747135) rotate(0 4.22919489557367 8.256787133432823)" stroke="none"><path fill="#000000" d="M -0.32,-0.73 Q -0.32,-0.73 0.50,-1.26 1.34,-1.79 2.87,-1.75 4.40,-1.71 5.59,-1.36 6.77,-1.02 7.67,-0.52 8.58,-0.02 9.13,0.86 9.69,1.74 9.44,2.50 9.20,3.26 8.35,3.67 7.50,4.08 6.88,4.17 6.26,4.27 6.43,3.74 6.60,3.20 7.38,4.32 8.16,5.43 8.77,6.41 9.38,7.39 9.84,8.62 10.29,9.84 10.38,11.26 10.48,12.68 9.97,14.21 9.46,15.74 8.21,16.82 6.97,17.91 5.15,18.21 3.32,18.52 1.77,17.73 0.22,16.95 -0.60,14.51 -1.44,12.08 -1.45,11.98 -1.46,11.87 -1.44,11.77 -1.42,11.66 -1.37,11.57 -1.32,11.48 -1.24,11.41 -1.16,11.34 -1.06,11.30 -0.96,11.25 -0.86,11.25 -0.75,11.24 -0.65,11.26 -0.55,11.29 -0.46,11.35 -0.37,11.41 -0.30,11.49 -0.24,11.57 -0.20,11.67 -0.16,11.77 -0.16,11.88 -0.16,11.98 -0.19,12.09 -0.22,12.19 -0.28,12.27 -0.35,12.36 -0.43,12.42 -0.52,12.48 -0.62,12.51 -0.72,12.54 -0.83,12.54 -0.93,12.54 -1.03,12.50 -1.13,12.46 -1.22,12.40 -1.30,12.33 -1.36,12.24 -1.41,12.15 -1.44,12.05 -1.46,11.94 -1.45,11.84 -1.44,11.73 -1.40,11.63 -1.36,11.54 -1.29,11.46 -1.22,11.38 -1.12,11.33 -1.03,11.28 -0.93,11.26 -0.82,11.24 -0.72,11.25 -0.61,11.27 -0.52,11.31 -0.42,11.36 -0.35,11.44 -0.27,11.51 -0.23,11.61 -0.18,11.70 -0.18,11.70 -0.18,11.70 0.68,13.31 1.55,14.92 2.39,15.35 3.23,15.78 4.31,15.68 5.38,15.58 6.14,15.08 6.89,14.57 7.28,13.63 7.66,12.69 7.69,11.67 7.71,10.65 7.44,9.67 7.18,8.69 6.64,7.75 6.11,6.81 5.50,5.84 4.88,4.88 4.72,4.23 4.55,3.59 5.19,2.76 5.82,1.92 6.60,1.92 7.38,1.92 6.73,1.52 6.09,1.13 5.16,0.82 4.24,0.51 3.18,0.38 2.12,0.25 1.22,0.49 0.32,0.73 0.23,0.76 0.14,0.79 0.04,0.79 -0.05,0.80 -0.14,0.78 -0.24,0.76 -0.33,0.72 -0.41,0.68 -0.49,0.62 -0.57,0.56 -0.63,0.48 -0.69,0.41 -0.72,0.32 -0.76,0.23 -0.78,0.14 -0.80,0.04 -0.79,-0.05 -0.79,-0.14 -0.76,-0.24 -0.73,-0.33 -0.68,-0.41 -0.63,-0.49 -0.56,-0.56 -0.49,-0.63 -0.40,-0.68 -0.32,-0.73 -0.32,-0.73 L -0.32,-0.73 Z"/></g></svg>