<svg version="1.1" xmlns="http://www.w3.org/2000/svg" viewBox="0 0 516.6595919329752 488.83120757706934" width="516.6595919329752" height="488.83120757706934" filter="invert(93%) hue-rotate(180deg)">
  <!-- svg-source:excalidraw -->
  
  <defs>
    <style class="style-fonts">
      @font-face {
        font-family: "Virgil";
        src: url("https://excalidraw.com/Virgil.woff2");
      }
      @font-face {
        font-family: "Cascadia";
        src: url("https://excalidraw.com/Cascadia.woff2");
      }
    </style>
  </defs>
  <rect x="0" y="0" width="516.6595919329752" height="488.83120757706934" fill="#ffffff"/><g stroke-linecap="round" transform="translate(156.445048713044 176.3197024501162) rotate(0 151.25575256347656 151.25575256347656)"><path d="M302.51 151.26 C302.51 155.21, 302.36 159.18, 302.05 163.12 C301.73 167.07, 301.27 171.01, 300.65 174.92 C300.03 178.82, 299.26 182.72, 298.33 186.57 C297.41 190.41, 296.33 194.23, 295.11 198 C293.89 201.76, 292.51 205.48, 291 209.14 C289.48 212.79, 287.82 216.4, 286.03 219.92 C284.23 223.45, 282.29 226.91, 280.22 230.29 C278.16 233.66, 275.95 236.96, 273.62 240.16 C271.3 243.36, 268.84 246.48, 266.27 249.49 C263.7 252.5, 261.01 255.41, 258.21 258.21 C255.41 261.01, 252.5 263.7, 249.49 266.27 C246.48 268.84, 243.36 271.3, 240.16 273.62 C236.96 275.95, 233.66 278.16, 230.29 280.22 C226.91 282.29, 223.45 284.23, 219.92 286.03 C216.4 287.82, 212.79 289.48, 209.14 291 C205.48 292.51, 201.76 293.89, 198 295.11 C194.23 296.33, 190.41 297.41, 186.57 298.33 C182.72 299.26, 178.82 300.03, 174.92 300.65 C171.01 301.27, 167.07 301.73, 163.12 302.05 C159.18 302.36, 155.21 302.51, 151.26 302.51 C147.3 302.51, 143.33 302.36, 139.39 302.05 C135.44 301.73, 131.5 301.27, 127.59 300.65 C123.69 300.03, 119.79 299.26, 115.95 298.33 C112.1 297.41, 108.28 296.33, 104.52 295.11 C100.75 293.89, 97.03 292.51, 93.37 291 C89.72 289.48, 86.11 287.82, 82.59 286.03 C79.06 284.23, 75.6 282.29, 72.22 280.22 C68.85 278.16, 65.55 275.95, 62.35 273.62 C59.15 271.3, 56.03 268.84, 53.02 266.27 C50.01 263.7, 47.1 261.01, 44.3 258.21 C41.5 255.41, 38.81 252.5, 36.24 249.49 C33.67 246.48, 31.21 243.36, 28.89 240.16 C26.56 236.96, 24.36 233.66, 22.29 230.29 C20.22 226.91, 18.28 223.45, 16.49 219.92 C14.69 216.4, 13.03 212.79, 11.51 209.14 C10 205.48, 8.63 201.76, 7.4 198 C6.18 194.23, 5.1 190.41, 4.18 186.57 C3.26 182.72, 2.48 178.82, 1.86 174.92 C1.24 171.01, 0.78 167.07, 0.47 163.12 C0.16 159.18, 0 155.21, 0 151.26 C0 147.3, 0.16 143.33, 0.47 139.39 C0.78 135.44, 1.24 131.5, 1.86 127.59 C2.48 123.69, 3.26 119.79, 4.18 115.95 C5.1 112.1, 6.18 108.28, 7.4 104.52 C8.63 100.75, 10 97.03, 11.51 93.37 C13.03 89.72, 14.69 86.11, 16.49 82.59 C18.28 79.06, 20.22 75.6, 22.29 72.22 C24.36 68.85, 26.56 65.55, 28.89 62.35 C31.21 59.15, 33.67 56.03, 36.24 53.02 C38.81 50.01, 41.5 47.1, 44.3 44.3 C47.1 41.5, 50.01 38.81, 53.02 36.24 C56.03 33.67, 59.15 31.21, 62.35 28.89 C65.55 26.56, 68.85 24.36, 72.22 22.29 C75.6 20.22, 79.06 18.28, 82.59 16.49 C86.11 14.69, 89.72 13.03, 93.37 11.51 C97.03 10, 100.75 8.63, 104.52 7.4 C108.28 6.18, 112.1 5.1, 115.95 4.18 C119.79 3.26, 123.69 2.48, 127.59 1.86 C131.5 1.24, 135.44 0.78, 139.39 0.47 C143.33 0.16, 147.3 0, 151.26 0 C155.21 0, 159.18 0.16, 163.12 0.47 C167.07 0.78, 171.01 1.24, 174.92 1.86 C178.82 2.48, 182.72 3.26, 186.57 4.18 C190.41 5.1, 194.23 6.18, 198 7.4 C201.76 8.63, 205.48 10, 209.14 11.51 C212.79 13.03, 216.4 14.69, 219.92 16.49 C223.45 18.28, 226.91 20.22, 230.29 22.29 C233.66 24.36, 236.96 26.56, 240.16 28.89 C243.36 31.21, 246.48 33.67, 249.49 36.24 C252.5 38.81, 255.41 41.5, 258.21 44.3 C261.01 47.1, 263.7 50.01, 266.27 53.02 C268.84 56.03, 271.3 59.15, 273.62 62.35 C275.95 65.55, 278.16 68.85, 280.22 72.22 C282.29 75.6, 284.23 79.06, 286.03 82.59 C287.82 86.11, 289.48 89.72, 291 93.37 C292.51 97.03, 293.89 100.75, 295.11 104.52 C296.33 108.28, 297.41 112.1, 298.33 115.95 C299.26 119.79, 300.03 123.69, 300.65 127.59 C301.27 131.5, 301.73 135.44, 302.05 139.39 C302.36 143.33, 302.51 147.3, 302.51 151.26" stroke="#000000" stroke-width="4" fill="none"/></g><g stroke-linecap="round" transform="translate(205.4463151925362 227.18821746476465) rotate(0 100.94673156738281 100.94673156738281)"><path d="M201.89 100.95 C201.89 104.05, 201.75 107.17, 201.46 110.26 C201.18 113.35, 200.75 116.44, 200.17 119.5 C199.6 122.55, 198.89 125.59, 198.04 128.57 C197.19 131.56, 196.2 134.52, 195.08 137.41 C193.96 140.31, 192.69 143.16, 191.31 145.94 C189.93 148.72, 188.41 151.45, 186.77 154.09 C185.14 156.73, 183.37 159.3, 181.5 161.78 C179.63 164.26, 177.64 166.66, 175.55 168.95 C173.46 171.25, 171.25 173.46, 168.95 175.55 C166.66 177.64, 164.26 179.63, 161.78 181.5 C159.3 183.37, 156.73 185.14, 154.09 186.77 C151.45 188.41, 148.72 189.93, 145.94 191.31 C143.16 192.69, 140.31 193.96, 137.41 195.08 C134.52 196.2, 131.56 197.19, 128.57 198.04 C125.59 198.89, 122.55 199.6, 119.5 200.17 C116.44 200.75, 113.35 201.18, 110.26 201.46 C107.17 201.75, 104.05 201.89, 100.95 201.89 C97.84 201.89, 94.72 201.75, 91.63 201.46 C88.54 201.18, 85.45 200.75, 82.4 200.17 C79.35 199.6, 76.31 198.89, 73.32 198.04 C70.34 197.19, 67.38 196.2, 64.48 195.08 C61.59 193.96, 58.73 192.69, 55.95 191.31 C53.17 189.93, 50.44 188.41, 47.81 186.77 C45.17 185.14, 42.59 183.37, 40.11 181.5 C37.64 179.63, 35.23 177.64, 32.94 175.55 C30.64 173.46, 28.44 171.25, 26.35 168.95 C24.25 166.66, 22.26 164.26, 20.39 161.78 C18.52 159.3, 16.75 156.73, 15.12 154.09 C13.49 151.45, 11.97 148.72, 10.58 145.94 C9.2 143.16, 7.94 140.31, 6.82 137.41 C5.7 134.52, 4.7 131.56, 3.85 128.57 C3 125.59, 2.29 122.55, 1.72 119.5 C1.15 116.44, 0.72 113.35, 0.43 110.26 C0.14 107.17, 0 104.05, 0 100.95 C0 97.84, 0.14 94.72, 0.43 91.63 C0.72 88.54, 1.15 85.45, 1.72 82.4 C2.29 79.35, 3 76.31, 3.85 73.32 C4.7 70.34, 5.7 67.38, 6.82 64.48 C7.94 61.59, 9.2 58.73, 10.58 55.95 C11.97 53.17, 13.49 50.44, 15.12 47.81 C16.75 45.17, 18.52 42.59, 20.39 40.11 C22.26 37.64, 24.25 35.23, 26.35 32.94 C28.44 30.64, 30.64 28.44, 32.94 26.35 C35.23 24.25, 37.64 22.26, 40.11 20.39 C42.59 18.52, 45.17 16.75, 47.81 15.12 C50.44 13.49, 53.17 11.97, 55.95 10.58 C58.73 9.2, 61.59 7.94, 64.48 6.82 C67.38 5.7, 70.34 4.7, 73.32 3.85 C76.31 3, 79.35 2.29, 82.4 1.72 C85.45 1.15, 88.54 0.72, 91.63 0.43 C94.72 0.14, 97.84 0, 100.95 0 C104.05 0, 107.17 0.14, 110.26 0.43 C113.35 0.72, 116.44 1.15, 119.5 1.72 C122.55 2.29, 125.59 3, 128.57 3.85 C131.56 4.7, 134.52 5.7, 137.41 6.82 C140.31 7.94, 143.16 9.2, 145.94 10.58 C148.72 11.97, 151.45 13.49, 154.09 15.12 C156.73 16.75, 159.3 18.52, 161.78 20.39 C164.26 22.26, 166.66 24.25, 168.95 26.35 C171.25 28.44, 173.46 30.64, 175.55 32.94 C177.64 35.23, 179.63 37.64, 181.5 40.11 C183.37 42.59, 185.14 45.17, 186.77 47.81 C188.41 50.44, 189.93 53.17, 191.31 55.95 C192.69 58.73, 193.96 61.59, 195.08 64.48 C196.2 67.38, 197.19 70.34, 198.04 73.32 C198.89 76.31, 199.6 79.35, 200.17 82.4 C200.75 85.45, 201.18 88.54, 201.46 91.63 C201.75 94.72, 201.82 99.39, 201.89 100.95 C201.97 102.5, 201.97 99.39, 201.89 100.95" stroke="#000000" stroke-width="4" fill="none"/></g><g stroke-linecap="round" transform="translate(289.2346840723783 308.1720821732115) rotate(0 18.597107741755195 18.597107741755195)"><path d="M37.19 18.6 C37.19 19.67, 37.1 20.77, 36.91 21.83 C36.72 22.89, 36.44 23.95, 36.07 24.96 C35.7 25.97, 35.24 26.96, 34.7 27.9 C34.16 28.83, 33.54 29.73, 32.84 30.55 C32.15 31.38, 31.38 32.15, 30.55 32.84 C29.73 33.54, 28.83 34.16, 27.9 34.7 C26.96 35.24, 25.97 35.7, 24.96 36.07 C23.95 36.44, 22.89 36.72, 21.83 36.91 C20.77 37.1, 19.67 37.19, 18.6 37.19 C17.52 37.19, 16.43 37.1, 15.37 36.91 C14.31 36.72, 13.25 36.44, 12.24 36.07 C11.22 35.7, 10.23 35.24, 9.3 34.7 C8.37 34.16, 7.47 33.54, 6.64 32.84 C5.82 32.15, 5.04 31.38, 4.35 30.55 C3.66 29.73, 3.03 28.83, 2.49 27.9 C1.95 26.96, 1.49 25.97, 1.12 24.96 C0.75 23.95, 0.47 22.89, 0.28 21.83 C0.1 20.77, 0 19.67, 0 18.6 C0 17.52, 0.1 16.43, 0.28 15.37 C0.47 14.31, 0.75 13.25, 1.12 12.24 C1.49 11.22, 1.95 10.23, 2.49 9.3 C3.03 8.37, 3.66 7.47, 4.35 6.64 C5.04 5.82, 5.82 5.04, 6.64 4.35 C7.47 3.66, 8.37 3.03, 9.3 2.49 C10.23 1.95, 11.22 1.49, 12.24 1.12 C13.25 0.75, 14.31 0.47, 15.37 0.28 C16.43 0.1, 17.52 0, 18.6 0 C19.67 0, 20.77 0.1, 21.83 0.28 C22.89 0.47, 23.95 0.75, 24.96 1.12 C25.97 1.49, 26.96 1.95, 27.9 2.49 C28.83 3.03, 29.73 3.66, 30.55 4.35 C31.38 5.04, 32.15 5.82, 32.84 6.64 C33.54 7.47, 34.16 8.37, 34.7 9.3 C35.24 10.23, 35.7 11.22, 36.07 12.24 C36.44 13.25, 36.72 14.31, 36.91 15.37 C37.1 16.43, 37.15 18.06, 37.19 18.6 C37.24 19.14, 37.24 18.06, 37.19 18.6" stroke="#000000" stroke-width="1" fill="none"/></g><g stroke-linecap="round" transform="translate(322.56466922380434 290.84098590424503) rotate(0 8.569513088237045 8.569513088237045)"><path d="M17.14 8.57 C17.14 9.07, 17.09 9.57, 17.01 10.06 C16.92 10.55, 16.79 11.03, 16.62 11.5 C16.45 11.97, 16.24 12.42, 15.99 12.85 C15.74 13.28, 15.45 13.7, 15.13 14.08 C14.82 14.46, 14.46 14.82, 14.08 15.13 C13.7 15.45, 13.28 15.74, 12.85 15.99 C12.42 16.24, 11.97 16.45, 11.5 16.62 C11.03 16.79, 10.55 16.92, 10.06 17.01 C9.57 17.09, 9.07 17.14, 8.57 17.14 C8.07 17.14, 7.57 17.09, 7.08 17.01 C6.59 16.92, 6.1 16.79, 5.64 16.62 C5.17 16.45, 4.71 16.24, 4.28 15.99 C3.86 15.74, 3.44 15.45, 3.06 15.13 C2.68 14.82, 2.32 14.46, 2 14.08 C1.69 13.7, 1.4 13.28, 1.15 12.85 C0.9 12.42, 0.69 11.97, 0.52 11.5 C0.35 11.03, 0.22 10.55, 0.13 10.06 C0.04 9.57, 0 9.07, 0 8.57 C0 8.07, 0.04 7.57, 0.13 7.08 C0.22 6.59, 0.35 6.1, 0.52 5.64 C0.69 5.17, 0.9 4.71, 1.15 4.28 C1.4 3.86, 1.69 3.44, 2 3.06 C2.32 2.68, 2.68 2.32, 3.06 2 C3.44 1.69, 3.86 1.4, 4.28 1.15 C4.71 0.9, 5.17 0.69, 5.64 0.52 C6.1 0.35, 6.59 0.22, 7.08 0.13 C7.57 0.04, 8.07 0, 8.57 0 C9.07 0, 9.57 0.04, 10.06 0.13 C10.55 0.22, 11.03 0.35, 11.5 0.52 C11.97 0.69, 12.42 0.9, 12.85 1.15 C13.28 1.4, 13.7 1.69, 14.08 2 C14.46 2.32, 14.82 2.68, 15.13 3.06 C15.45 3.44, 15.74 3.86, 15.99 4.28 C16.24 4.71, 16.45 5.17, 16.62 5.64 C16.79 6.1, 16.92 6.59, 17.01 7.08 C17.09 7.57, 17.12 8.32, 17.14 8.57 C17.16 8.82, 17.16 8.32, 17.14 8.57" stroke="#000000" stroke-width="0.5" fill="none"/></g><g stroke-linecap="round" transform="translate(331.8984685332155 330.8369129366215) rotate(0 8.569513088237045 8.569513088237045)"><path d="M17.14 8.57 C17.14 9.07, 17.09 9.57, 17.01 10.06 C16.92 10.55, 16.79 11.03, 16.62 11.5 C16.45 11.97, 16.24 12.42, 15.99 12.85 C15.74 13.28, 15.45 13.7, 15.13 14.08 C14.82 14.46, 14.46 14.82, 14.08 15.13 C13.7 15.45, 13.28 15.74, 12.85 15.99 C12.42 16.24, 11.97 16.45, 11.5 16.62 C11.03 16.79, 10.55 16.92, 10.06 17.01 C9.57 17.09, 9.07 17.14, 8.57 17.14 C8.07 17.14, 7.57 17.09, 7.08 17.01 C6.59 16.92, 6.1 16.79, 5.64 16.62 C5.17 16.45, 4.71 16.24, 4.28 15.99 C3.86 15.74, 3.44 15.45, 3.06 15.13 C2.68 14.82, 2.32 14.46, 2 14.08 C1.69 13.7, 1.4 13.28, 1.15 12.85 C0.9 12.42, 0.69 11.97, 0.52 11.5 C0.35 11.03, 0.22 10.55, 0.13 10.06 C0.04 9.57, 0 9.07, 0 8.57 C0 8.07, 0.04 7.57, 0.13 7.08 C0.22 6.59, 0.35 6.1, 0.52 5.64 C0.69 5.17, 0.9 4.71, 1.15 4.28 C1.4 3.86, 1.69 3.44, 2 3.06 C2.32 2.68, 2.68 2.32, 3.06 2 C3.44 1.69, 3.86 1.4, 4.28 1.15 C4.71 0.9, 5.17 0.69, 5.64 0.52 C6.1 0.35, 6.59 0.22, 7.08 0.13 C7.57 0.04, 8.07 0, 8.57 0 C9.07 0, 9.57 0.04, 10.06 0.13 C10.55 0.22, 11.03 0.35, 11.5 0.52 C11.97 0.69, 12.42 0.9, 12.85 1.15 C13.28 1.4, 13.7 1.69, 14.08 2 C14.46 2.32, 14.82 2.68, 15.13 3.06 C15.45 3.44, 15.74 3.86, 15.99 4.28 C16.24 4.71, 16.45 5.17, 16.62 5.64 C16.79 6.1, 16.92 6.59, 17.01 7.08 C17.09 7.57, 17.12 8.32, 17.14 8.57 C17.16 8.82, 17.16 8.32, 17.14 8.57" stroke="#000000" stroke-width="0.5" fill="none"/></g><g stroke-linecap="round" transform="translate(299.16982838641434 352.5096489462018) rotate(0 8.569513088237045 8.569513088237045)"><path d="M17.14 8.57 C17.14 9.07, 17.09 9.57, 17.01 10.06 C16.92 10.55, 16.79 11.03, 16.62 11.5 C16.45 11.97, 16.24 12.42, 15.99 12.85 C15.74 13.28, 15.45 13.7, 15.13 14.08 C14.82 14.46, 14.46 14.82, 14.08 15.13 C13.7 15.45, 13.28 15.74, 12.85 15.99 C12.42 16.24, 11.97 16.45, 11.5 16.62 C11.03 16.79, 10.55 16.92, 10.06 17.01 C9.57 17.09, 9.07 17.14, 8.57 17.14 C8.07 17.14, 7.57 17.09, 7.08 17.01 C6.59 16.92, 6.1 16.79, 5.64 16.62 C5.17 16.45, 4.71 16.24, 4.28 15.99 C3.86 15.74, 3.44 15.45, 3.06 15.13 C2.68 14.82, 2.32 14.46, 2 14.08 C1.69 13.7, 1.4 13.28, 1.15 12.85 C0.9 12.42, 0.69 11.97, 0.52 11.5 C0.35 11.03, 0.22 10.55, 0.13 10.06 C0.04 9.57, 0 9.07, 0 8.57 C0 8.07, 0.04 7.57, 0.13 7.08 C0.22 6.59, 0.35 6.1, 0.52 5.64 C0.69 5.17, 0.9 4.71, 1.15 4.28 C1.4 3.86, 1.69 3.44, 2 3.06 C2.32 2.68, 2.68 2.32, 3.06 2 C3.44 1.69, 3.86 1.4, 4.28 1.15 C4.71 0.9, 5.17 0.69, 5.64 0.52 C6.1 0.35, 6.59 0.22, 7.08 0.13 C7.57 0.04, 8.07 0, 8.57 0 C9.07 0, 9.57 0.04, 10.06 0.13 C10.55 0.22, 11.03 0.35, 11.5 0.52 C11.97 0.69, 12.42 0.9, 12.85 1.15 C13.28 1.4, 13.7 1.69, 14.08 2 C14.46 2.32, 14.82 2.68, 15.13 3.06 C15.45 3.44, 15.74 3.86, 15.99 4.28 C16.24 4.71, 16.45 5.17, 16.62 5.64 C16.79 6.1, 16.92 6.59, 17.01 7.08 C17.09 7.57, 17.12 8.32, 17.14 8.57 C17.16 8.82, 17.16 8.32, 17.14 8.57" stroke="#000000" stroke-width="0.5" fill="none"/></g><g stroke-linecap="round" transform="translate(267.05474965749926 328.02396262179343) rotate(0 8.569513088237045 8.569513088237045)"><path d="M17.14 8.57 C17.14 9.07, 17.09 9.57, 17.01 10.06 C16.92 10.55, 16.79 11.03, 16.62 11.5 C16.45 11.97, 16.24 12.42, 15.99 12.85 C15.74 13.28, 15.45 13.7, 15.13 14.08 C14.82 14.46, 14.46 14.82, 14.08 15.13 C13.7 15.45, 13.28 15.74, 12.85 15.99 C12.42 16.24, 11.97 16.45, 11.5 16.62 C11.03 16.79, 10.55 16.92, 10.06 17.01 C9.57 17.09, 9.07 17.14, 8.57 17.14 C8.07 17.14, 7.57 17.09, 7.08 17.01 C6.59 16.92, 6.1 16.79, 5.64 16.62 C5.17 16.45, 4.71 16.24, 4.28 15.99 C3.86 15.74, 3.44 15.45, 3.06 15.13 C2.68 14.82, 2.32 14.46, 2 14.08 C1.69 13.7, 1.4 13.28, 1.15 12.85 C0.9 12.42, 0.69 11.97, 0.52 11.5 C0.35 11.03, 0.22 10.55, 0.13 10.06 C0.04 9.57, 0 9.07, 0 8.57 C0 8.07, 0.04 7.57, 0.13 7.08 C0.22 6.59, 0.35 6.1, 0.52 5.64 C0.69 5.17, 0.9 4.71, 1.15 4.28 C1.4 3.86, 1.69 3.44, 2 3.06 C2.32 2.68, 2.68 2.32, 3.06 2 C3.44 1.69, 3.86 1.4, 4.28 1.15 C4.71 0.9, 5.17 0.69, 5.64 0.52 C6.1 0.35, 6.59 0.22, 7.08 0.13 C7.57 0.04, 8.07 0, 8.57 0 C9.07 0, 9.57 0.04, 10.06 0.13 C10.55 0.22, 11.03 0.35, 11.5 0.52 C11.97 0.69, 12.42 0.9, 12.85 1.15 C13.28 1.4, 13.7 1.69, 14.08 2 C14.46 2.32, 14.82 2.68, 15.13 3.06 C15.45 3.44, 15.74 3.86, 15.99 4.28 C16.24 4.71, 16.45 5.17, 16.62 5.64 C16.79 6.1, 16.92 6.59, 17.01 7.08 C17.09 7.57, 17.12 8.32, 17.14 8.57 C17.16 8.82, 17.16 8.32, 17.14 8.57" stroke="#000000" stroke-width="0.5" fill="none"/></g><g stroke-linecap="round" transform="translate(277.0729375658421 291.03123621831253) rotate(0 8.569513088237045 8.569513088237045)"><path d="M17.14 8.57 C17.14 9.07, 17.09 9.57, 17.01 10.06 C16.92 10.55, 16.79 11.03, 16.62 11.5 C16.45 11.97, 16.24 12.42, 15.99 12.85 C15.74 13.28, 15.45 13.7, 15.13 14.08 C14.82 14.46, 14.46 14.82, 14.08 15.13 C13.7 15.45, 13.28 15.74, 12.85 15.99 C12.42 16.24, 11.97 16.45, 11.5 16.62 C11.03 16.79, 10.55 16.92, 10.06 17.01 C9.57 17.09, 9.07 17.14, 8.57 17.14 C8.07 17.14, 7.57 17.09, 7.08 17.01 C6.59 16.92, 6.1 16.79, 5.64 16.62 C5.17 16.45, 4.71 16.24, 4.28 15.99 C3.86 15.74, 3.44 15.45, 3.06 15.13 C2.68 14.82, 2.32 14.46, 2 14.08 C1.69 13.7, 1.4 13.28, 1.15 12.85 C0.9 12.42, 0.69 11.97, 0.52 11.5 C0.35 11.03, 0.22 10.55, 0.13 10.06 C0.04 9.57, 0 9.07, 0 8.57 C0 8.07, 0.04 7.57, 0.13 7.08 C0.22 6.59, 0.35 6.1, 0.52 5.64 C0.69 5.17, 0.9 4.71, 1.15 4.28 C1.4 3.86, 1.69 3.44, 2 3.06 C2.32 2.68, 2.68 2.32, 3.06 2 C3.44 1.69, 3.86 1.4, 4.28 1.15 C4.71 0.9, 5.17 0.69, 5.64 0.52 C6.1 0.35, 6.59 0.22, 7.08 0.13 C7.57 0.04, 8.07 0, 8.57 0 C9.07 0, 9.57 0.04, 10.06 0.13 C10.55 0.22, 11.03 0.35, 11.5 0.52 C11.97 0.69, 12.42 0.9, 12.85 1.15 C13.28 1.4, 13.7 1.69, 14.08 2 C14.46 2.32, 14.82 2.68, 15.13 3.06 C15.45 3.44, 15.74 3.86, 15.99 4.28 C16.24 4.71, 16.45 5.17, 16.62 5.64 C16.79 6.1, 16.92 6.59, 17.01 7.08 C17.09 7.57, 17.12 8.32, 17.14 8.57 C17.16 8.82, 17.16 8.32, 17.14 8.57" stroke="#000000" stroke-width="0.5" fill="none"/></g><g stroke-linecap="round"><g transform="translate(369.305769378373 151.51916612022828) rotate(0 -0.2648541738930703 -58.87675728141248)"><path d="M0 0 C-0.09 -19.63, -0.44 -98.13, -0.53 -117.75 M0 0 C-0.09 -19.63, -0.44 -98.13, -0.53 -117.75" stroke="#000000" stroke-width="1" fill="none"/></g><g transform="translate(369.305769378373 151.51916612022828) rotate(0 -0.2648541738930703 -58.87675728141248)"><path d="M-0.53 -117.75 L5.87 -104.19 L-6.81 -104.13 L-0.53 -117.75" stroke="none" stroke-width="0" fill="#000000" fill-rule="evenodd"/><path d="M-0.53 -117.75 C2.02 -112.35, 4.57 -106.94, 5.87 -104.19 M-0.53 -117.75 C1.88 -112.65, 4.29 -107.54, 5.87 -104.19 M5.87 -104.19 C1.81 -104.17, -2.24 -104.15, -6.81 -104.13 M5.87 -104.19 C1.38 -104.17, -3.12 -104.15, -6.81 -104.13 M-6.81 -104.13 C-4.58 -108.97, -2.35 -113.8, -0.53 -117.75 M-6.81 -104.13 C-5.41 -107.16, -4.02 -110.18, -0.53 -117.75 M-0.53 -117.75 C-0.53 -117.75, -0.53 -117.75, -0.53 -117.75 M-0.53 -117.75 C-0.53 -117.75, -0.53 -117.75, -0.53 -117.75" stroke="#000000" stroke-width="1" fill="none"/></g></g><mask/><g stroke-linecap="round"><g transform="translate(369.65336597531336 151.67843422730334) rotate(0 58.54079424134771 -0.0750976858503094)"><path d="M0 0 C19.51 -0.03, 97.57 -0.13, 117.08 -0.15 M0 0 C19.51 -0.03, 97.57 -0.13, 117.08 -0.15" stroke="#000000" stroke-width="1" fill="none"/></g><g transform="translate(369.65336597531336 151.67843422730334) rotate(0 58.54079424134771 -0.0750976858503094)"><path d="M117.08 -0.15 L103.5 6.21 L103.48 -6.47 L117.08 -0.15" stroke="none" stroke-width="0" fill="#000000" fill-rule="evenodd"/><path d="M117.08 -0.15 C112.33 2.07, 107.58 4.29, 103.5 6.21 M117.08 -0.15 C113.34 1.6, 109.6 3.35, 103.5 6.21 M103.5 6.21 C103.49 2.39, 103.49 -1.43, 103.48 -6.47 M103.5 6.21 C103.49 1.29, 103.48 -3.63, 103.48 -6.47 M103.48 -6.47 C108.78 -4.01, 114.07 -1.55, 117.08 -0.15 M103.48 -6.47 C106.51 -5.07, 109.53 -3.66, 117.08 -0.15 M117.08 -0.15 C117.08 -0.15, 117.08 -0.15, 117.08 -0.15 M117.08 -0.15 C117.08 -0.15, 117.08 -0.15, 117.08 -0.15" stroke="#000000" stroke-width="1" fill="none"/></g></g><mask/><g stroke-linecap="round"><g transform="translate(369.44195253794874 150.572383152938) rotate(0 26.46085677666308 -26.017521719332137)"><path d="M0 0 C8.82 -8.67, 44.1 -43.36, 52.92 -52.04 M0 0 C8.82 -8.67, 44.1 -43.36, 52.92 -52.04" stroke="#000000" stroke-width="0.5" fill="none"/></g><g transform="translate(369.44195253794874 150.572383152938) rotate(0 26.46085677666308 -26.017521719332137)"><path d="M52.92 -52.04 L47.67 -37.98 L38.78 -47.02 L52.92 -52.04" stroke="none" stroke-width="0" fill="#000000" fill-rule="evenodd"/><path d="M52.92 -52.04 C51.46 -48.13, 50.01 -44.23, 47.67 -37.98 M52.92 -52.04 C51.71 -48.8, 50.51 -45.57, 47.67 -37.98 M47.67 -37.98 C45.83 -39.86, 43.99 -41.73, 38.78 -47.02 M47.67 -37.98 C44.32 -41.39, 40.98 -44.79, 38.78 -47.02 M38.78 -47.02 C42.08 -48.19, 45.37 -49.36, 52.92 -52.04 M38.78 -47.02 C43.32 -48.63, 47.86 -50.24, 52.92 -52.04 M52.92 -52.04 C52.92 -52.04, 52.92 -52.04, 52.92 -52.04 M52.92 -52.04 C52.92 -52.04, 52.92 -52.04, 52.92 -52.04" stroke="#000000" stroke-width="0.5" fill="none"/></g></g><mask/><g transform="translate(497.2067510463881 148.93724140653796) rotate(0 0.5663627445210864 1.9725312742914127)" stroke="none"><path fill="#000000" d="M 0.58,-0.58 Q 0.58,-0.58 1.06,-0.25 1.55,0.08 1.44,-0.43 1.34,-0.96 0.92,-1.57 0.50,-2.18 -0.06,-1.64 -0.62,-1.10 -0.85,-0.31 -1.08,0.47 -1.29,1.52 -1.49,2.56 -1.49,3.52 -1.48,4.48 -1.25,5.01 -1.01,5.55 -0.11,5.84 0.78,6.14 2.20,6.01 3.63,5.88 3.73,5.86 3.84,5.85 3.94,5.87 4.05,5.89 4.14,5.95 4.23,6.00 4.30,6.08 4.37,6.16 4.41,6.26 4.45,6.36 4.46,6.46 4.46,6.57 4.44,6.67 4.41,6.78 4.35,6.86 4.29,6.95 4.21,7.02 4.12,7.08 4.02,7.12 3.92,7.15 3.82,7.15 3.71,7.16 3.61,7.12 3.51,7.09 3.42,7.03 3.34,6.96 3.28,6.88 3.22,6.79 3.19,6.69 3.16,6.59 3.16,6.48 3.17,6.37 3.20,6.27 3.24,6.18 3.31,6.09 3.38,6.01 3.47,5.96 3.56,5.90 3.66,5.88 3.77,5.85 3.87,5.86 3.98,5.87 4.07,5.92 4.17,5.96 4.25,6.03 4.33,6.10 4.38,6.20 4.43,6.29 4.45,6.39 4.47,6.50 4.45,6.60 4.43,6.71 4.39,6.80 4.34,6.90 4.26,6.97 4.18,7.05 4.09,7.09 3.99,7.14 3.99,7.14 3.99,7.14 2.19,7.81 0.39,8.47 -0.62,8.23 -1.64,7.98 -2.41,7.29 -3.19,6.59 -3.58,5.57 -3.96,4.54 -3.95,3.31 -3.95,2.09 -3.71,0.89 -3.47,-0.29 -3.08,-1.38 -2.70,-2.48 -2.02,-3.31 -1.34,-4.14 -0.41,-4.38 0.51,-4.61 1.38,-4.23 2.26,-3.85 2.80,-3.10 3.34,-2.34 3.48,-1.42 3.62,-0.49 3.35,0.31 3.07,1.13 2.46,1.55 1.85,1.96 1.02,1.81 0.19,1.66 -0.19,1.12 -0.58,0.58 -0.64,0.50 -0.71,0.42 -0.75,0.33 -0.79,0.24 -0.81,0.14 -0.82,0.05 -0.82,-0.04 -0.81,-0.14 -0.78,-0.24 -0.75,-0.34 -0.70,-0.42 -0.65,-0.51 -0.58,-0.58 -0.51,-0.65 -0.42,-0.70 -0.34,-0.75 -0.24,-0.78 -0.14,-0.81 -0.04,-0.82 0.05,-0.82 0.14,-0.81 0.24,-0.79 0.33,-0.75 0.42,-0.71 0.50,-0.64 0.58,-0.58 0.58,-0.58 L 0.58,-0.58 Z"/></g><g transform="translate(504.08152977189667 158.50701387689173) rotate(0 1.289031080539246 0.37107697487761016)" stroke="none"><path fill="#000000" d="M -0.68,-0.45 Q -0.68,-0.45 -0.31,-1.28 0.04,-2.11 0.45,-2.51 0.86,-2.92 0.96,-3.02 1.06,-3.12 1.18,-3.19 1.30,-3.26 1.43,-3.30 1.56,-3.34 1.70,-3.34 1.84,-3.35 1.98,-3.32 2.12,-3.29 2.24,-3.24 2.37,-3.18 2.48,-3.09 2.59,-3.00 2.67,-2.89 2.75,-2.78 2.81,-2.65 2.86,-2.52 2.89,-2.38 2.91,-2.25 2.90,-2.11 2.89,-1.97 2.85,-1.84 2.80,-1.70 2.73,-1.59 2.65,-1.47 2.92,-0.83 3.18,-0.19 3.21,0.52 3.24,1.25 2.47,1.22 1.69,1.19 1.69,1.27 1.69,1.35 1.66,1.43 1.64,1.50 1.60,1.57 1.56,1.64 1.50,1.70 1.45,1.75 1.38,1.79 1.31,1.83 1.24,1.86 1.16,1.88 1.08,1.89 1.00,1.89 0.92,1.88 0.85,1.86 0.77,1.83 0.70,1.80 0.64,1.75 0.58,1.70 0.53,1.64 0.48,1.58 0.45,1.51 0.41,1.43 0.40,1.36 0.38,1.28 0.41,1.38 0.43,1.48 0.41,1.37 0.38,1.27 0.40,1.16 0.41,1.06 0.45,0.96 0.50,0.87 0.57,0.79 0.64,0.71 0.74,0.66 0.83,0.61 0.94,0.60 1.04,0.58 1.15,0.60 1.25,0.62 1.35,0.67 1.44,0.72 1.51,0.79 1.58,0.87 1.63,0.97 1.67,1.06 1.68,1.17 1.69,1.28 1.67,1.38 1.65,1.48 1.59,1.57 1.54,1.66 1.46,1.73 1.37,1.80 1.28,1.84 1.18,1.88 1.07,1.88 0.96,1.89 0.86,1.86 0.76,1.83 0.67,1.77 0.59,1.71 0.52,1.63 0.46,1.54 0.42,1.44 0.39,1.34 0.39,1.23 0.39,1.13 0.43,1.03 0.46,0.93 0.53,0.84 0.59,0.76 0.68,0.70 0.77,0.64 0.87,0.61 0.97,0.58 1.08,0.59 1.18,0.60 1.28,0.64 1.38,0.68 1.46,0.74 1.54,0.81 1.62,1.00 1.69,1.19 1.69,1.27 1.69,1.35 1.66,1.43 1.64,1.50 1.60,1.57 1.56,1.64 1.50,1.70 1.45,1.75 1.38,1.79 1.31,1.83 1.24,1.86 1.16,1.88 1.08,1.89 1.00,1.89 0.92,1.88 0.85,1.86 0.77,1.83 0.70,1.80 0.64,1.75 0.58,1.70 0.53,1.64 0.48,1.58 0.45,1.51 0.41,1.43 0.40,1.36 0.38,1.28 0.68,1.34 0.98,1.39 0.93,0.69 0.87,-0.01 0.82,-0.63 0.77,-1.26 0.81,-2.09 0.86,-2.92 0.96,-3.02 1.06,-3.12 1.18,-3.19 1.30,-3.26 1.43,-3.30 1.56,-3.34 1.70,-3.34 1.84,-3.35 1.98,-3.32 2.12,-3.29 2.24,-3.24 2.37,-3.18 2.48,-3.09 2.59,-3.00 2.67,-2.89 2.75,-2.78 2.81,-2.65 2.86,-2.52 2.89,-2.38 2.91,-2.25 2.90,-2.11 2.89,-1.97 2.85,-1.84 2.80,-1.70 2.73,-1.59 2.65,-1.47 2.29,-1.16 1.92,-0.85 1.30,-0.19 0.68,0.45 0.62,0.53 0.55,0.60 0.47,0.66 0.39,0.72 0.30,0.76 0.21,0.79 0.11,0.81 0.01,0.82 -0.08,0.81 -0.18,0.80 -0.27,0.77 -0.37,0.73 -0.45,0.68 -0.53,0.62 -0.60,0.55 -0.67,0.47 -0.71,0.39 -0.76,0.30 -0.79,0.20 -0.81,0.11 -0.81,0.01 -0.82,-0.08 -0.79,-0.18 -0.77,-0.28 -0.73,-0.36 -0.68,-0.45 -0.68,-0.45 L -0.68,-0.45 Z"/></g><g transform="translate(495.7224073441883 167.76426467097497) rotate(0 5.0389242182193925 -0.19528576964350464)" stroke="none"><path fill="#000000" d="M -0.04,-0.83 Q -0.04,-0.83 1.44,-1.02 2.94,-1.22 4.37,-1.28 5.79,-1.34 7.54,-1.18 9.29,-1.03 9.40,-1.01 9.50,-1.00 9.60,-0.95 9.69,-0.90 9.77,-0.82 9.84,-0.75 9.89,-0.65 9.94,-0.56 9.95,-0.45 9.96,-0.35 9.94,-0.24 9.92,-0.14 9.87,-0.05 9.82,0.04 9.74,0.11 9.66,0.18 9.56,0.22 9.46,0.26 9.36,0.27 9.25,0.27 9.15,0.25 9.04,0.22 8.95,0.16 8.87,0.11 8.80,0.02 8.73,-0.05 8.70,-0.15 8.66,-0.25 8.66,-0.36 8.66,-0.46 8.69,-0.56 8.72,-0.66 8.78,-0.75 8.85,-0.84 8.93,-0.90 9.02,-0.96 9.12,-0.99 9.22,-1.02 9.33,-1.02 9.43,-1.01 9.53,-0.98 9.63,-0.94 9.72,-0.87 9.80,-0.80 9.86,-0.72 9.91,-0.63 9.94,-0.52 9.96,-0.42 9.95,-0.31 9.94,-0.21 9.90,-0.11 9.86,-0.01 9.79,0.06 9.72,0.13 9.62,0.19 9.53,0.24 9.43,0.26 9.32,0.28 9.32,0.28 9.32,0.28 7.60,0.51 5.88,0.73 4.47,0.80 3.07,0.86 1.56,0.84 0.04,0.83 -0.05,0.82 -0.15,0.81 -0.24,0.78 -0.34,0.75 -0.42,0.70 -0.51,0.65 -0.58,0.58 -0.65,0.51 -0.70,0.42 -0.75,0.34 -0.78,0.24 -0.81,0.14 -0.82,0.04 -0.83,-0.05 -0.81,-0.14 -0.79,-0.24 -0.75,-0.33 -0.71,-0.43 -0.64,-0.50 -0.58,-0.58 -0.50,-0.65 -0.42,-0.71 -0.33,-0.75 -0.24,-0.79 -0.14,-0.81 -0.04,-0.83 -0.04,-0.83 L -0.04,-0.83 Z"/></g><g transform="translate(360.7653330232459 12.65611202409491) rotate(0 0.8398281619301855 2.2459653643472848)" stroke="none"><path fill="#000000" d="M 0.63,-0.42 Q 0.63,-0.42 1.39,0.53 2.15,1.48 2.74,1.83 3.33,2.18 3.75,1.59 4.17,1.00 4.21,0.42 4.24,-0.15 3.18,-0.60 2.11,-1.05 1.16,-0.97 0.20,-0.90 -0.59,-0.45 -1.39,-0.01 -1.87,0.75 -2.35,1.52 -2.40,2.32 -2.45,3.13 -2.11,3.71 -1.76,4.30 -1.15,4.73 -0.55,5.15 0.28,5.37 1.11,5.58 3.25,5.68 5.38,5.78 5.49,5.79 5.59,5.79 5.69,5.83 5.79,5.86 5.87,5.93 5.96,6.00 6.01,6.09 6.07,6.18 6.10,6.28 6.12,6.38 6.11,6.49 6.10,6.59 6.06,6.69 6.02,6.79 5.95,6.87 5.88,6.95 5.79,7.00 5.69,7.05 5.59,7.07 5.48,7.09 5.38,7.08 5.27,7.06 5.18,7.02 5.08,6.97 5.01,6.89 4.93,6.82 4.89,6.72 4.84,6.63 4.83,6.52 4.81,6.42 4.83,6.31 4.85,6.21 4.90,6.12 4.96,6.02 5.04,5.95 5.11,5.88 5.21,5.84 5.31,5.80 5.42,5.79 5.52,5.78 5.62,5.81 5.73,5.83 5.82,5.89 5.91,5.95 5.97,6.03 6.04,6.11 6.08,6.21 6.11,6.31 6.12,6.42 6.12,6.52 6.09,6.63 6.06,6.73 5.99,6.81 5.93,6.90 5.85,6.96 5.76,7.02 5.66,7.06 5.56,7.09 5.56,7.09 5.56,7.09 3.01,7.44 0.46,7.79 -0.74,7.39 -1.95,6.99 -2.87,6.17 -3.80,5.36 -4.27,4.20 -4.73,3.03 -4.52,1.67 -4.31,0.30 -3.43,-0.85 -2.55,-2.01 -1.27,-2.63 0.00,-3.24 1.41,-3.27 2.81,-3.31 4.01,-2.81 5.22,-2.31 5.82,-1.32 6.42,-0.33 6.28,0.87 6.13,2.07 5.44,2.94 4.75,3.80 3.62,3.87 2.49,3.95 1.54,3.27 0.58,2.60 -0.02,1.51 -0.63,0.42 -0.67,0.34 -0.71,0.26 -0.73,0.17 -0.75,0.08 -0.75,-0.01 -0.75,-0.10 -0.73,-0.19 -0.70,-0.27 -0.66,-0.36 -0.62,-0.44 -0.55,-0.50 -0.49,-0.57 -0.42,-0.62 -0.34,-0.67 -0.25,-0.71 -0.17,-0.74 -0.08,-0.75 0.01,-0.76 0.10,-0.74 0.19,-0.73 0.27,-0.70 0.36,-0.66 0.43,-0.61 0.51,-0.56 0.57,-0.49 0.63,-0.42 0.63,-0.42 L 0.63,-0.42 Z"/></g><g transform="translate(370.4134954821659 19.101061561326844) rotate(0 0 -0.11718220259291456)" stroke="none"><path fill="#000000" d="M 0.69,-0.21 Q 0.69,-0.21 0.70,-0.04 0.71,0.13 0.64,0.29 0.57,0.45 0.43,0.55 0.29,0.66 0.12,0.69 -0.04,0.72 -0.21,0.67 -0.37,0.62 -0.50,0.50 -0.62,0.37 -0.67,0.21 -0.72,0.04 -0.69,-0.12 -0.66,-0.29 -0.55,-0.43 -0.44,-0.57 -0.29,-0.64 -0.13,-0.71 0.04,-0.70 0.21,-0.69 0.36,-0.60 0.51,-0.51 0.60,-0.36 L 0.69,-0.21 Z"/></g><g transform="translate(370.2181918111777 18.78857568774572) rotate(0 2.30461912035031 2.4998601366319804)" stroke="none"><path fill="#000000" d="M -0.27,-0.71 Q -0.27,-0.71 0.64,-1.28 1.56,-1.85 2.33,-1.97 3.09,-2.09 3.80,-1.82 4.50,-1.54 4.75,-0.77 4.99,-0.00 4.70,0.55 4.40,1.12 3.92,1.41 3.45,1.70 4.16,2.22 4.87,2.73 5.13,3.27 5.40,3.81 5.55,4.41 5.70,5.01 5.40,5.78 5.10,6.56 3.08,6.15 1.06,5.73 1.02,5.80 0.99,5.87 0.93,5.93 0.88,5.99 0.81,6.03 0.75,6.08 0.67,6.10 0.60,6.13 0.52,6.14 0.44,6.14 0.36,6.13 0.28,6.12 0.21,6.09 0.14,6.06 0.07,6.02 0.01,5.97 -0.03,5.91 -0.08,5.85 -0.12,5.78 -0.15,5.71 -0.17,5.63 -0.19,5.55 -0.19,5.47 -0.19,5.39 -0.17,5.32 -0.14,5.24 -0.12,5.54 -0.10,5.83 -0.14,5.73 -0.18,5.63 -0.18,5.53 -0.19,5.42 -0.16,5.32 -0.13,5.22 -0.08,5.13 -0.02,5.04 0.06,4.98 0.14,4.91 0.24,4.88 0.34,4.84 0.45,4.84 0.55,4.84 0.66,4.87 0.76,4.91 0.84,4.97 0.93,5.03 0.99,5.12 1.05,5.21 1.08,5.31 1.11,5.41 1.10,5.52 1.10,5.62 1.06,5.72 1.02,5.82 0.95,5.90 0.88,5.98 0.79,6.04 0.70,6.10 0.60,6.12 0.50,6.14 0.39,6.13 0.28,6.12 0.19,6.08 0.09,6.03 0.01,5.96 -0.06,5.89 -0.11,5.80 -0.16,5.70 -0.17,5.60 -0.19,5.49 -0.18,5.39 -0.16,5.28 -0.11,5.19 -0.06,5.09 0.00,5.02 0.08,4.95 0.18,4.90 0.27,4.86 0.38,4.84 0.48,4.83 0.59,4.85 0.69,4.88 0.78,4.93 0.87,4.98 0.97,5.36 1.06,5.73 1.02,5.80 0.99,5.87 0.93,5.93 0.88,5.99 0.81,6.03 0.75,6.08 0.67,6.10 0.60,6.13 0.52,6.14 0.44,6.14 0.36,6.13 0.28,6.12 0.21,6.09 0.14,6.06 0.07,6.02 0.01,5.97 -0.03,5.91 -0.08,5.85 -0.12,5.78 -0.15,5.71 -0.17,5.63 -0.19,5.55 -0.19,5.47 -0.19,5.40 -0.17,5.32 -0.14,5.24 1.47,5.07 3.09,4.89 2.87,4.41 2.65,3.92 2.37,3.38 2.09,2.84 1.76,2.26 1.44,1.68 1.91,1.00 2.38,0.32 1.33,0.52 0.27,0.71 0.18,0.73 0.09,0.76 0.00,0.76 -0.08,0.76 -0.17,0.74 -0.26,0.71 -0.34,0.67 -0.43,0.63 -0.50,0.57 -0.57,0.51 -0.62,0.43 -0.67,0.36 -0.71,0.27 -0.74,0.18 -0.75,0.09 -0.76,0.00 -0.75,-0.08 -0.74,-0.17 -0.71,-0.26 -0.68,-0.35 -0.62,-0.42 -0.57,-0.50 -0.50,-0.56 -0.43,-0.62 -0.35,-0.67 -0.27,-0.71 -0.27,-0.71 L -0.27,-0.71 Z"/></g><g transform="translate(357.83574215573327 29.13952703936286) rotate(0 7.070100297841478 0.5273109609958055)" stroke="none"><path fill="#000000" d="M 0.13,-0.77 Q 0.13,-0.77 1.92,-0.53 3.72,-0.29 5.37,-0.17 7.02,-0.06 8.63,0.01 10.24,0.09 11.84,0.20 13.44,0.31 13.54,0.32 13.65,0.34 13.74,0.39 13.83,0.45 13.91,0.52 13.98,0.60 14.02,0.70 14.06,0.79 14.07,0.90 14.08,1.01 14.06,1.11 14.04,1.21 13.98,1.30 13.92,1.39 13.84,1.46 13.76,1.53 13.66,1.57 13.56,1.61 13.46,1.61 13.35,1.61 13.25,1.59 13.15,1.56 13.06,1.49 12.97,1.43 12.91,1.35 12.85,1.26 12.81,1.16 12.78,1.06 12.78,0.95 12.78,0.85 12.82,0.75 12.85,0.65 12.92,0.56 12.98,0.48 13.07,0.42 13.16,0.36 13.26,0.34 13.37,0.31 13.47,0.32 13.58,0.32 13.68,0.36 13.77,0.40 13.85,0.47 13.94,0.54 13.99,0.64 14.04,0.73 14.06,0.83 14.09,0.94 14.07,1.04 14.06,1.15 14.01,1.24 13.97,1.34 13.89,1.41 13.82,1.49 13.73,1.54 13.63,1.59 13.53,1.60 13.42,1.62 13.42,1.62 13.42,1.62 11.82,1.69 10.21,1.76 8.54,1.77 6.88,1.79 5.15,1.65 3.41,1.50 1.64,1.14 -0.13,0.77 -0.22,0.75 -0.31,0.72 -0.39,0.67 -0.47,0.62 -0.54,0.56 -0.61,0.49 -0.66,0.41 -0.71,0.33 -0.74,0.24 -0.77,0.15 -0.78,0.05 -0.78,-0.03 -0.77,-0.13 -0.75,-0.22 -0.71,-0.31 -0.68,-0.40 -0.62,-0.47 -0.56,-0.55 -0.49,-0.61 -0.41,-0.67 -0.33,-0.71 -0.24,-0.75 -0.15,-0.76 -0.05,-0.78 0.03,-0.78 0.13,-0.77 0.13,-0.77 L 0.13,-0.77 Z"/></g><g transform="translate(426.46657992570726 85.42532896437513) rotate(0 1.4452650666574698 2.343608249169037)" stroke="none"><path fill="#000000" d="M 0.66,-0.44 Q 0.66,-0.44 1.29,0.43 1.92,1.31 2.31,0.91 2.69,0.50 2.69,-0.04 2.68,-0.59 2.16,-1.18 1.65,-1.77 0.79,-1.51 -0.05,-1.26 -0.44,-0.72 -0.83,-0.18 -1.17,0.63 -1.52,1.45 -1.70,2.43 -1.88,3.42 -1.80,4.13 -1.73,4.84 -1.24,5.28 -0.75,5.72 -0.01,5.98 0.72,6.23 1.58,6.27 2.44,6.32 3.95,5.82 5.47,5.32 5.57,5.28 5.67,5.24 5.77,5.24 5.88,5.24 5.98,5.27 6.08,5.30 6.17,5.36 6.25,5.43 6.32,5.51 6.38,5.60 6.41,5.70 6.44,5.80 6.44,5.91 6.43,6.01 6.40,6.11 6.36,6.21 6.29,6.30 6.23,6.38 6.14,6.44 6.05,6.49 5.94,6.52 5.84,6.54 5.73,6.53 5.63,6.52 5.53,6.48 5.43,6.44 5.35,6.37 5.28,6.30 5.22,6.21 5.17,6.11 5.15,6.01 5.13,5.90 5.15,5.80 5.16,5.69 5.21,5.60 5.26,5.50 5.33,5.43 5.41,5.35 5.50,5.31 5.60,5.26 5.70,5.25 5.81,5.23 5.91,5.25 6.02,5.27 6.11,5.33 6.20,5.38 6.27,5.46 6.34,5.54 6.38,5.63 6.43,5.73 6.43,5.84 6.44,5.94 6.42,6.05 6.39,6.15 6.33,6.24 6.28,6.33 6.19,6.39 6.11,6.46 6.11,6.46 6.11,6.46 4.23,7.46 2.35,8.45 1.13,8.34 -0.08,8.24 -1.19,7.71 -2.29,7.19 -3.02,6.22 -3.74,5.26 -3.84,4.14 -3.94,3.02 -3.67,1.82 -3.41,0.62 -2.91,-0.43 -2.41,-1.48 -1.67,-2.28 -0.93,-3.08 0.03,-3.42 1.01,-3.77 1.89,-3.58 2.77,-3.39 3.39,-2.83 4.01,-2.27 4.30,-1.44 4.60,-0.61 4.56,0.24 4.51,1.09 4.14,1.88 3.77,2.66 3.05,2.95 2.33,3.24 1.43,2.80 0.54,2.36 -0.06,1.40 -0.66,0.44 -0.70,0.36 -0.75,0.27 -0.77,0.18 -0.79,0.08 -0.79,-0.01 -0.79,-0.10 -0.77,-0.20 -0.74,-0.29 -0.69,-0.37 -0.65,-0.46 -0.58,-0.53 -0.52,-0.60 -0.44,-0.66 -0.36,-0.71 -0.27,-0.74 -0.18,-0.78 -0.08,-0.79 0.01,-0.80 0.10,-0.78 0.20,-0.77 0.29,-0.74 0.38,-0.70 0.46,-0.64 0.53,-0.59 0.60,-0.51 0.66,-0.44 0.66,-0.44 L 0.66,-0.44 Z"/></g><g transform="translate(435.7241171413061 89.80007749047678) rotate(0 3.242094642438431 3.4177605382594436)" stroke="none"><path fill="#000000" d="M 0.22,-0.80 Q 0.22,-0.80 1.15,-0.68 2.09,-0.56 2.85,-0.20 3.61,0.16 4.08,0.95 4.55,1.73 4.38,2.64 4.22,3.55 3.48,4.24 2.74,4.93 2.04,5.27 1.34,5.60 1.02,5.70 0.71,5.80 0.56,5.84 0.42,5.89 0.26,5.90 0.11,5.91 -0.03,5.88 -0.18,5.85 -0.32,5.79 -0.46,5.73 -0.59,5.64 -0.71,5.54 -0.80,5.42 -0.90,5.30 -0.96,5.16 -1.03,5.02 -1.05,4.87 -1.08,4.72 -1.07,4.56 -1.06,4.41 -1.02,4.26 -0.97,4.12 -0.90,3.99 -0.82,3.85 -0.71,3.74 -0.60,3.64 -0.47,3.56 -0.34,3.48 0.42,3.77 1.18,4.07 2.36,4.30 3.53,4.53 5.07,5.32 6.62,6.10 6.71,6.15 6.81,6.20 6.88,6.27 6.96,6.35 7.01,6.44 7.05,6.54 7.07,6.64 7.08,6.75 7.06,6.85 7.04,6.96 6.99,7.05 6.94,7.14 6.86,7.21 6.78,7.28 6.69,7.33 6.59,7.37 6.48,7.38 6.38,7.39 6.27,7.36 6.17,7.34 6.08,7.28 5.99,7.22 5.92,7.14 5.86,7.06 5.82,6.96 5.78,6.86 5.78,6.75 5.78,6.65 5.81,6.54 5.84,6.44 5.90,6.36 5.96,6.27 6.05,6.21 6.13,6.15 6.23,6.11 6.34,6.08 6.44,6.08 6.55,6.09 6.65,6.12 6.75,6.16 6.83,6.23 6.91,6.29 6.97,6.38 7.03,6.47 7.05,6.57 7.08,6.68 7.07,6.78 7.06,6.89 7.02,6.99 6.98,7.08 6.91,7.16 6.84,7.24 6.75,7.29 6.66,7.35 6.55,7.37 6.45,7.39 6.34,7.37 6.24,7.36 6.24,7.36 6.24,7.36 4.55,7.12 2.86,6.88 1.93,6.63 1.00,6.38 0.18,5.98 -0.62,5.57 0.04,5.68 0.71,5.80 0.56,5.84 0.42,5.89 0.26,5.90 0.11,5.91 -0.03,5.88 -0.18,5.85 -0.32,5.79 -0.46,5.73 -0.59,5.64 -0.71,5.54 -0.80,5.42 -0.90,5.30 -0.96,5.16 -1.03,5.02 -1.05,4.87 -1.08,4.72 -1.07,4.57 -1.06,4.41 -1.02,4.26 -0.97,4.12 -0.90,3.99 -0.82,3.85 -0.71,3.74 -0.60,3.64 -0.47,3.56 -0.34,3.48 0.40,3.17 1.15,2.86 1.32,2.20 1.49,1.55 0.63,1.17 -0.22,0.80 -0.31,0.76 -0.40,0.72 -0.48,0.66 -0.56,0.60 -0.63,0.52 -0.69,0.45 -0.73,0.36 -0.78,0.27 -0.80,0.17 -0.82,0.07 -0.82,-0.02 -0.82,-0.12 -0.79,-0.21 -0.76,-0.31 -0.71,-0.40 -0.67,-0.48 -0.60,-0.56 -0.53,-0.63 -0.44,-0.69 -0.36,-0.74 -0.27,-0.77 -0.17,-0.81 -0.07,-0.82 0.02,-0.82 0.12,-0.81 0.22,-0.80 0.22,-0.80 L 0.22,-0.80 Z"/></g><g transform="translate(425.763468808805 101.16659002988791) rotate(0 7.519307691786722 -0.5468413280946152)" stroke="none"><path fill="#000000" d="M -0.02,-0.83 Q -0.02,-0.83 1.71,-1.03 3.45,-1.22 5.35,-1.39 7.26,-1.57 9.05,-1.69 10.83,-1.80 12.54,-1.73 14.25,-1.66 14.36,-1.65 14.47,-1.64 14.56,-1.59 14.66,-1.55 14.74,-1.48 14.81,-1.41 14.87,-1.31 14.92,-1.22 14.93,-1.11 14.95,-1.01 14.93,-0.90 14.92,-0.80 14.87,-0.70 14.82,-0.61 14.74,-0.54 14.67,-0.46 14.57,-0.42 14.47,-0.37 14.37,-0.36 14.26,-0.35 14.16,-0.37 14.06,-0.39 13.96,-0.45 13.87,-0.50 13.80,-0.58 13.73,-0.66 13.69,-0.76 13.65,-0.86 13.65,-0.97 13.64,-1.07 13.67,-1.17 13.70,-1.28 13.76,-1.37 13.81,-1.45 13.90,-1.52 13.98,-1.58 14.08,-1.62 14.18,-1.65 14.29,-1.65 14.40,-1.65 14.50,-1.62 14.60,-1.59 14.68,-1.52 14.77,-1.46 14.83,-1.37 14.89,-1.28 14.92,-1.18 14.95,-1.08 14.94,-0.97 14.94,-0.87 14.90,-0.77 14.86,-0.67 14.79,-0.59 14.72,-0.51 14.63,-0.45 14.54,-0.40 14.44,-0.37 14.33,-0.35 14.33,-0.35 14.33,-0.35 12.69,-0.07 11.05,0.19 9.25,0.46 7.46,0.73 5.48,0.88 3.51,1.04 1.76,0.94 0.02,0.83 -0.07,0.82 -0.17,0.82 -0.27,0.78 -0.37,0.75 -0.45,0.69 -0.54,0.64 -0.60,0.56 -0.67,0.49 -0.72,0.40 -0.77,0.31 -0.80,0.22 -0.83,0.12 -0.83,0.02 -0.83,-0.07 -0.81,-0.17 -0.79,-0.27 -0.74,-0.36 -0.70,-0.45 -0.63,-0.53 -0.57,-0.61 -0.49,-0.67 -0.40,-0.73 -0.31,-0.77 -0.22,-0.80 -0.12,-0.82 -0.02,-0.83 -0.02,-0.83 L -0.02,-0.83 Z"/></g><g stroke-linecap="round" transform="translate(25.982574936125587 314.1223982968599) rotate(28.09008082589722 113.70320646331714 6.160063047602108)"><path d="M0.31 1.6 C0.31 1.6, 0.31 1.6, 0.31 1.6 M0.31 1.6 C0.31 1.6, 0.31 1.6, 0.31 1.6 M-0.15 5.17 C1.29 3.52, 2.73 1.86, 3.79 0.64 M-0.15 5.17 C0.94 3.92, 2.03 2.66, 3.79 0.64 M0.05 7.99 C2.08 5.66, 4.11 3.32, 6.61 0.45 M0.05 7.99 C1.73 6.06, 3.41 4.13, 6.61 0.45 M0.9 10.06 C3.69 6.86, 6.48 3.65, 8.78 1 M0.9 10.06 C2.91 7.75, 4.91 5.45, 8.78 1 M1.76 12.13 C4.17 9.35, 6.58 6.58, 11.6 0.81 M1.76 12.13 C4.08 9.45, 6.4 6.78, 11.6 0.81 M3.92 12.68 C6.37 9.87, 8.82 7.05, 14.42 0.61 M3.92 12.68 C6.42 9.81, 8.91 6.94, 14.42 0.61 M6.09 13.24 C9.07 9.81, 12.05 6.38, 17.24 0.41 M6.09 13.24 C9.17 9.69, 12.26 6.15, 17.24 0.41 M8.91 13.04 C12.98 8.36, 17.05 3.68, 19.41 0.97 M8.91 13.04 C11.59 9.96, 14.27 6.87, 19.41 0.97 M11.73 12.85 C15.1 8.97, 18.48 5.09, 22.23 0.77 M11.73 12.85 C14.57 9.58, 17.41 6.32, 22.23 0.77 M14.55 12.65 C17.43 9.34, 20.3 6.04, 25.05 0.57 M14.55 12.65 C17.86 8.84, 21.17 5.04, 25.05 0.57 M16.72 13.21 C20.34 9.05, 23.95 4.88, 27.87 0.38 M16.72 13.21 C21.05 8.22, 25.39 3.23, 27.87 0.38 M19.54 13.01 C21.84 10.36, 24.14 7.71, 30.04 0.93 M19.54 13.01 C21.66 10.58, 23.77 8.14, 30.04 0.93 M22.36 12.81 C26.2 8.4, 30.03 3.99, 32.86 0.74 M22.36 12.81 C25.31 9.42, 28.26 6.02, 32.86 0.74 M25.18 12.62 C27.54 9.91, 29.89 7.2, 35.68 0.54 M25.18 12.62 C28.1 9.25, 31.03 5.89, 35.68 0.54 M27.35 13.17 C30.75 9.25, 34.16 5.34, 38.5 0.34 M27.35 13.17 C30.41 9.65, 33.47 6.13, 38.5 0.34 M30.17 12.98 C33.95 8.62, 37.74 4.27, 40.67 0.9 M30.17 12.98 C33.18 9.51, 36.19 6.05, 40.67 0.9 M32.99 12.78 C36.95 8.23, 40.9 3.67, 43.49 0.7 M32.99 12.78 C36.93 8.25, 40.86 3.73, 43.49 0.7 M35.81 12.58 C39.71 8.09, 43.62 3.6, 46.31 0.51 M35.81 12.58 C39.45 8.4, 43.09 4.21, 46.31 0.51 M37.98 13.14 C42.27 8.2, 46.56 3.26, 49.13 0.31 M37.98 13.14 C40.94 9.73, 43.9 6.33, 49.13 0.31 M40.8 12.94 C43.67 9.64, 46.54 6.34, 51.3 0.87 M40.8 12.94 C44.53 8.65, 48.26 4.36, 51.3 0.87 M43.62 12.74 C46.83 9.05, 50.03 5.37, 54.12 0.67 M43.62 12.74 C46.86 9.02, 50.09 5.3, 54.12 0.67 M46.44 12.55 C50.15 8.28, 53.86 4.02, 56.94 0.47 M46.44 12.55 C50.53 7.85, 54.61 3.15, 56.94 0.47 M48.61 13.1 C51.81 9.42, 55.02 5.73, 59.76 0.27 M48.61 13.1 C52.43 8.7, 56.26 4.3, 59.76 0.27 M51.43 12.91 C55.32 8.43, 59.2 3.96, 61.93 0.83 M51.43 12.91 C54.59 9.27, 57.76 5.63, 61.93 0.83 M54.25 12.71 C56.88 9.68, 59.51 6.66, 64.75 0.63 M54.25 12.71 C57.27 9.23, 60.29 5.76, 64.75 0.63 M56.42 13.27 C60.39 8.7, 64.36 4.13, 67.57 0.44 M56.42 13.27 C60.04 9.1, 63.66 4.94, 67.57 0.44 M59.24 13.07 C62.26 9.6, 65.27 6.13, 69.74 0.99 M59.24 13.07 C62.8 8.98, 66.35 4.88, 69.74 0.99 M62.06 12.87 C64.3 10.3, 66.54 7.72, 72.56 0.8 M62.06 12.87 C64.88 9.62, 67.71 6.37, 72.56 0.8 M64.88 12.67 C67.63 9.51, 70.38 6.35, 75.38 0.6 M64.88 12.67 C68.77 8.2, 72.66 3.73, 75.38 0.6 M67.05 13.23 C70.58 9.16, 74.12 5.1, 78.2 0.4 M67.05 13.23 C70.65 9.09, 74.25 4.95, 78.2 0.4 M69.87 13.04 C72.07 10.5, 74.28 7.96, 80.37 0.96 M69.87 13.04 C73.38 8.99, 76.9 4.95, 80.37 0.96 M72.69 12.84 C75.99 9.04, 79.29 5.25, 83.19 0.76 M72.69 12.84 C75.34 9.79, 77.99 6.74, 83.19 0.76 M75.51 12.64 C79.07 8.54, 82.63 4.45, 86.01 0.57 M75.51 12.64 C78.27 9.47, 81.03 6.29, 86.01 0.57 M77.68 13.2 C81.29 9.05, 84.9 4.89, 88.83 0.37 M77.68 13.2 C79.93 10.6, 82.19 8, 88.83 0.37 M80.5 13 C82.91 10.23, 85.31 7.46, 91 0.93 M80.5 13 C83.26 9.83, 86.01 6.66, 91 0.93 M83.32 12.8 C86.84 8.75, 90.36 4.7, 93.82 0.73 M83.32 12.8 C86.42 9.23, 89.53 5.66, 93.82 0.73 M86.14 12.61 C88.58 9.81, 91.01 7, 96.64 0.53 M86.14 12.61 C89.51 8.73, 92.89 4.85, 96.64 0.53 M88.31 13.16 C90.68 10.43, 93.05 7.71, 99.46 0.33 M88.31 13.16 C90.9 10.18, 93.5 7.19, 99.46 0.33 M91.13 12.97 C93.97 9.7, 96.8 6.44, 101.63 0.89 M91.13 12.97 C94.32 9.3, 97.5 5.63, 101.63 0.89 M93.95 12.77 C96.99 9.28, 100.02 5.78, 104.45 0.69 M93.95 12.77 C97.03 9.23, 100.1 5.69, 104.45 0.69 M96.77 12.57 C99.29 9.68, 101.8 6.78, 107.27 0.5 M96.77 12.57 C100.47 8.31, 104.18 4.05, 107.27 0.5 M98.94 13.13 C103.08 8.36, 107.22 3.6, 110.09 0.3 M98.94 13.13 C102.65 8.86, 106.37 4.58, 110.09 0.3 M101.76 12.93 C103.93 10.43, 106.11 7.93, 112.26 0.86 M101.76 12.93 C104.8 9.43, 107.84 5.94, 112.26 0.86 M104.58 12.73 C108.12 8.66, 111.66 4.59, 115.08 0.66 M104.58 12.73 C108.66 8.04, 112.74 3.35, 115.08 0.66 M107.4 12.54 C109.63 9.98, 111.85 7.42, 117.9 0.46 M107.4 12.54 C109.64 9.96, 111.89 7.38, 117.9 0.46 M109.57 13.09 C113.32 8.77, 117.08 4.45, 120.72 0.26 M109.57 13.09 C112.6 9.6, 115.64 6.11, 120.72 0.26 M112.39 12.9 C115.17 9.7, 117.95 6.5, 122.89 0.82 M112.39 12.9 C115.56 9.25, 118.73 5.6, 122.89 0.82 M115.21 12.7 C119.32 7.97, 123.44 3.24, 125.71 0.62 M115.21 12.7 C119.16 8.16, 123.11 3.61, 125.71 0.62 M117.38 13.26 C121.27 8.78, 125.15 4.31, 128.53 0.43 M117.38 13.26 C119.72 10.55, 122.07 7.85, 128.53 0.43 M120.2 13.06 C124.36 8.28, 128.51 3.49, 130.69 0.98 M120.2 13.06 C123.03 9.8, 125.86 6.55, 130.69 0.98 M123.02 12.86 C125.31 10.23, 127.6 7.6, 133.52 0.79 M123.02 12.86 C125.88 9.57, 128.75 6.27, 133.52 0.79 M125.84 12.67 C129.15 8.86, 132.46 5.05, 136.34 0.59 M125.84 12.67 C128.99 9.04, 132.15 5.41, 136.34 0.59 M128.01 13.22 C132.46 8.1, 136.91 2.98, 139.16 0.39 M128.01 13.22 C131.36 9.37, 134.71 5.51, 139.16 0.39 M130.83 13.03 C134.88 8.36, 138.94 3.69, 141.32 0.95 M130.83 13.03 C134.97 8.26, 139.11 3.5, 141.32 0.95 M133.65 12.83 C137.75 8.11, 141.86 3.38, 144.15 0.75 M133.65 12.83 C137.67 8.2, 141.7 3.57, 144.15 0.75 M136.47 12.63 C139.82 8.78, 143.17 4.92, 146.97 0.56 M136.47 12.63 C139.15 9.55, 141.83 6.46, 146.97 0.56 M138.64 13.19 C141.57 9.81, 144.51 6.43, 149.79 0.36 M138.64 13.19 C141.87 9.47, 145.1 5.75, 149.79 0.36 M141.46 12.99 C144.55 9.43, 147.65 5.87, 151.95 0.92 M141.46 12.99 C145.29 8.58, 149.13 4.17, 151.95 0.92 M144.28 12.79 C146.99 9.67, 149.71 6.55, 154.78 0.72 M144.28 12.79 C147.07 9.59, 149.85 6.38, 154.78 0.72 M147.1 12.6 C150.95 8.17, 154.79 3.75, 157.6 0.52 M147.1 12.6 C151.14 7.95, 155.18 3.3, 157.6 0.52 M149.27 13.15 C153.62 8.14, 157.98 3.13, 160.42 0.32 M149.27 13.15 C151.89 10.14, 154.51 7.12, 160.42 0.32 M152.09 12.96 C154.8 9.84, 157.51 6.71, 162.58 0.88 M152.09 12.96 C155.78 8.71, 159.48 4.45, 162.58 0.88 M154.91 12.76 C157.48 9.8, 160.06 6.84, 165.41 0.68 M154.91 12.76 C157.02 10.33, 159.13 7.91, 165.41 0.68 M157.73 12.56 C161.6 8.11, 165.46 3.67, 168.23 0.49 M157.73 12.56 C160.7 9.14, 163.68 5.72, 168.23 0.49 M159.9 13.12 C164.14 8.24, 168.38 3.36, 171.05 0.29 M159.9 13.12 C162.61 10, 165.32 6.88, 171.05 0.29 M162.72 12.92 C166.54 8.52, 170.37 4.12, 173.21 0.85 M162.72 12.92 C166.64 8.41, 170.56 3.91, 173.21 0.85 M165.54 12.72 C168.96 8.79, 172.38 4.86, 176.04 0.65 M165.54 12.72 C168.91 8.85, 172.28 4.97, 176.04 0.65 M168.36 12.53 C172.43 7.85, 176.49 3.17, 178.86 0.45 M168.36 12.53 C172.5 7.76, 176.65 2.99, 178.86 0.45 M170.53 13.08 C174.79 8.17, 179.06 3.26, 181.68 0.25 M170.53 13.08 C173.55 9.61, 176.57 6.14, 181.68 0.25 M173.35 12.89 C175.97 9.87, 178.59 6.86, 183.84 0.81 M173.35 12.89 C176.48 9.28, 179.61 5.68, 183.84 0.81 M176.17 12.69 C178.53 9.98, 180.88 7.27, 186.67 0.61 M176.17 12.69 C178.35 10.18, 180.52 7.68, 186.67 0.61 M178.33 13.25 C180.96 10.22, 183.59 7.2, 189.49 0.42 M178.33 13.25 C180.71 10.51, 183.09 7.77, 189.49 0.42 M181.16 13.05 C184.27 9.47, 187.39 5.88, 191.65 0.97 M181.16 13.05 C184.56 9.14, 187.96 5.22, 191.65 0.97 M183.98 12.85 C187.14 9.21, 190.31 5.57, 194.47 0.78 M183.98 12.85 C186.57 9.88, 189.15 6.9, 194.47 0.78 M186.8 12.66 C189.07 10.04, 191.34 7.43, 197.3 0.58 M186.8 12.66 C189.86 9.13, 192.93 5.6, 197.3 0.58 M188.96 13.21 C192.04 9.68, 195.11 6.15, 200.12 0.38 M188.96 13.21 C192.12 9.58, 195.28 5.94, 200.12 0.38 M191.79 13.02 C195.7 8.52, 199.61 4.02, 202.28 0.94 M191.79 13.02 C194.52 9.87, 197.25 6.73, 202.28 0.94 M194.61 12.82 C197.31 9.71, 200 6.61, 205.1 0.74 M194.61 12.82 C198.67 8.15, 202.73 3.48, 205.1 0.74 M197.43 12.62 C200.85 8.69, 204.27 4.75, 207.93 0.55 M197.43 12.62 C200.12 9.53, 202.81 6.43, 207.93 0.55 M199.59 13.18 C202.03 10.38, 204.47 7.57, 210.75 0.35 M199.59 13.18 C204.04 8.06, 208.49 2.95, 210.75 0.35 M202.42 12.98 C204.61 10.45, 206.81 7.92, 212.91 0.91 M202.42 12.98 C206.47 8.32, 210.51 3.67, 212.91 0.91 M205.24 12.78 C207.37 10.33, 209.5 7.88, 215.73 0.71 M205.24 12.78 C208.79 8.7, 212.34 4.61, 215.73 0.71 M208.06 12.59 C211.5 8.63, 214.94 4.68, 218.56 0.51 M208.06 12.59 C210.49 9.78, 212.93 6.98, 218.56 0.51 M210.22 13.14 C213.87 8.95, 217.52 4.75, 221.38 0.31 M210.22 13.14 C212.5 10.53, 214.77 7.92, 221.38 0.31 M213.05 12.95 C216.79 8.64, 220.54 4.32, 223.54 0.87 M213.05 12.95 C215.74 9.84, 218.44 6.74, 223.54 0.87 M215.87 12.75 C219.83 8.19, 223.79 3.64, 226.36 0.67 M215.87 12.75 C219.75 8.28, 223.64 3.81, 226.36 0.67 M218.69 12.55 C221.87 8.9, 225.05 5.24, 227.87 1.99 M218.69 12.55 C220.53 10.43, 222.38 8.31, 227.87 1.99 M220.85 13.11 C222.39 11.34, 223.93 9.57, 228.07 4.81 M220.85 13.11 C223.69 9.85, 226.52 6.6, 228.07 4.81 M223.68 12.91 C224.92 11.49, 226.16 10.06, 227.61 8.38 M223.68 12.91 C224.78 11.64, 225.89 10.37, 227.61 8.38" stroke="#fa5252" stroke-width="0.25" fill="none"/><path d="M3.08 0 M3.08 0 C84.14 0, 165.19 0, 224.33 0 M3.08 0 C47.69 0, 92.31 0, 224.33 0 M224.33 0 C226.38 0, 227.41 1.03, 227.41 3.08 M224.33 0 C226.38 0, 227.41 1.03, 227.41 3.08 M227.41 3.08 C227.41 4.82, 227.41 6.56, 227.41 9.24 M227.41 3.08 C227.41 4.85, 227.41 6.62, 227.41 9.24 M227.41 9.24 C227.41 11.29, 226.38 12.32, 224.33 12.32 M227.41 9.24 C227.41 11.29, 226.38 12.32, 224.33 12.32 M224.33 12.32 C159.66 12.32, 94.99 12.32, 3.08 12.32 M224.33 12.32 C151 12.32, 77.67 12.32, 3.08 12.32 M3.08 12.32 C1.03 12.32, 0 11.29, 0 9.24 M3.08 12.32 C1.03 12.32, 0 11.29, 0 9.24 M0 9.24 C0 7.97, 0 6.71, 0 3.08 M0 9.24 C0 7.45, 0 5.65, 0 3.08 M0 3.08 C0 1.03, 1.03 0, 3.08 0 M0 3.08 C0 1.03, 1.03 0, 3.08 0" stroke="#c92a2a" stroke-width="0.5" fill="none"/></g><g stroke-linecap="round"><g transform="translate(56.47352987381407 177.1560888481519) rotate(0 0 36.85214846793836)"><path d="M0 0 C0 12.28, 0 61.42, 0 73.7 M0 0 C0 12.28, 0 61.42, 0 73.7" stroke="#c92a2a" stroke-width="0.5" fill="none"/></g><g transform="translate(56.47352987381407 177.1560888481519) rotate(0 0 36.85214846793836)"><path d="M0 73.7 L-6.34 60.11 L6.34 60.11 L0 73.7" stroke="none" stroke-width="0" fill="#c92a2a" fill-rule="evenodd"/><path d="M0 73.7 C-2.33 68.71, -4.66 63.71, -6.34 60.11 M0 73.7 C-1.55 70.37, -3.11 67.04, -6.34 60.11 M-6.34 60.11 C-3.55 60.11, -0.76 60.11, 6.34 60.11 M-6.34 60.11 C-1.74 60.11, 2.85 60.11, 6.34 60.11 M6.34 60.11 C3.91 65.32, 1.48 70.53, 0 73.7 M6.34 60.11 C4.95 63.09, 3.56 66.07, 0 73.7 M0 73.7 C0 73.7, 0 73.7, 0 73.7 M0 73.7 C0 73.7, 0 73.7, 0 73.7" stroke="#c92a2a" stroke-width="0.5" fill="none"/></g></g><mask/><g transform="translate(81.46912073903604 187.88558386365943) rotate(0 -0.4267608048766647 10.516121597926414)" stroke="none"><path fill="#c92a2a" d="M 0.83,0.00 Q 0.83,0.00 0.93,4.09 1.03,8.17 0.95,10.99 0.88,13.81 0.37,17.13 -0.14,20.46 -0.16,20.56 -0.19,20.66 -0.25,20.75 -0.31,20.84 -0.39,20.90 -0.47,20.97 -0.57,21.01 -0.67,21.04 -0.78,21.04 -0.89,21.04 -0.99,21.01 -1.09,20.98 -1.17,20.92 -1.26,20.85 -1.32,20.77 -1.38,20.68 -1.41,20.58 -1.44,20.47 -1.44,20.37 -1.43,20.26 -1.39,20.16 -1.36,20.06 -1.29,19.98 -1.22,19.90 -1.13,19.84 -1.04,19.79 -0.94,19.76 -0.83,19.74 -0.73,19.75 -0.62,19.76 -0.52,19.80 -0.43,19.85 -0.35,19.92 -0.27,19.99 -0.22,20.08 -0.17,20.18 -0.15,20.28 -0.13,20.39 -0.15,20.49 -0.16,20.60 -0.21,20.69 -0.26,20.78 -0.34,20.86 -0.41,20.93 -0.51,20.98 -0.60,21.02 -0.71,21.04 -0.82,21.05 -0.92,21.03 -1.02,21.01 -1.12,20.95 -1.21,20.90 -1.28,20.82 -1.35,20.74 -1.39,20.64 -1.43,20.54 -1.44,20.44 -1.44,20.33 -1.44,20.33 -1.44,20.33 -1.40,17.04 -1.36,13.74 -1.26,10.95 -1.17,8.15 -1.00,4.07 -0.83,-0.00 -0.82,-0.10 -0.81,-0.20 -0.77,-0.30 -0.73,-0.39 -0.67,-0.47 -0.62,-0.56 -0.54,-0.62 -0.46,-0.69 -0.37,-0.73 -0.28,-0.78 -0.19,-0.80 -0.09,-0.83 0.00,-0.83 0.10,-0.82 0.20,-0.80 0.30,-0.77 0.39,-0.73 0.48,-0.68 0.55,-0.61 0.63,-0.54 0.68,-0.46 0.74,-0.38 0.77,-0.28 0.81,-0.19 0.82,-0.09 0.83,0.00 0.83,0.00 L 0.83,0.00 Z"/></g><g transform="translate(82.01779524138755 189.04386876252826) rotate(0 6.431796201946526 -0.27433725117575136)" stroke="none"><path fill="#c92a2a" d="M -0.33,-0.75 Q -0.33,-0.75 0.40,-1.42 1.15,-2.09 2.46,-2.27 3.77,-2.46 5.24,-2.41 6.70,-2.36 7.93,-2.23 9.16,-2.10 10.97,-1.03 12.79,0.02 12.87,0.08 12.96,0.14 13.02,0.23 13.08,0.32 13.11,0.42 13.15,0.52 13.14,0.62 13.14,0.73 13.10,0.83 13.07,0.93 13.00,1.01 12.93,1.10 12.84,1.15 12.75,1.21 12.65,1.24 12.55,1.26 12.44,1.25 12.34,1.24 12.24,1.20 12.14,1.16 12.06,1.09 11.98,1.02 11.93,0.93 11.88,0.83 11.86,0.73 11.84,0.62 11.85,0.52 11.87,0.41 11.91,0.32 11.96,0.22 12.04,0.15 12.11,0.07 12.21,0.03 12.30,-0.01 12.41,-0.03 12.51,-0.04 12.62,-0.02 12.72,-0.00 12.81,0.04 12.91,0.10 12.98,0.17 13.05,0.25 13.09,0.35 13.13,0.45 13.14,0.55 13.15,0.66 13.12,0.76 13.10,0.87 13.04,0.96 12.98,1.05 12.90,1.11 12.82,1.18 12.72,1.22 12.62,1.25 12.51,1.25 12.41,1.26 12.30,1.23 12.20,1.19 12.20,1.20 12.20,1.20 10.54,0.99 8.88,0.79 7.73,0.69 6.58,0.60 5.32,0.54 4.06,0.47 3.17,0.51 2.28,0.54 1.31,0.65 0.33,0.75 0.24,0.78 0.14,0.81 0.04,0.82 -0.05,0.82 -0.14,0.80 -0.24,0.79 -0.33,0.74 -0.42,0.70 -0.50,0.64 -0.58,0.58 -0.64,0.50 -0.70,0.42 -0.74,0.33 -0.79,0.24 -0.80,0.14 -0.82,0.04 -0.82,-0.05 -0.81,-0.15 -0.78,-0.24 -0.75,-0.34 -0.70,-0.42 -0.65,-0.51 -0.58,-0.58 -0.50,-0.65 -0.42,-0.70 -0.33,-0.75 -0.33,-0.75 L -0.33,-0.75 Z"/></g><g transform="translate(82.07875907498214 198.00544054322089) rotate(0 4.480925587490219 0.12191369747483805)" stroke="none"><path fill="#c92a2a" d="M 0.06,-0.83 Q 0.06,-0.83 1.61,-0.86 3.17,-0.89 5.73,-0.84 8.30,-0.79 8.40,-0.78 8.51,-0.77 8.61,-0.73 8.70,-0.68 8.78,-0.61 8.86,-0.54 8.91,-0.45 8.97,-0.35 8.98,-0.25 9.00,-0.15 8.99,-0.04 8.97,0.05 8.93,0.15 8.88,0.24 8.80,0.32 8.73,0.39 8.63,0.44 8.54,0.49 8.43,0.50 8.33,0.51 8.22,0.49 8.12,0.47 8.02,0.42 7.93,0.37 7.86,0.29 7.79,0.21 7.75,0.11 7.71,0.01 7.70,-0.08 7.69,-0.19 7.72,-0.29 7.75,-0.40 7.80,-0.49 7.86,-0.57 7.94,-0.64 8.03,-0.71 8.13,-0.74 8.23,-0.78 8.33,-0.78 8.44,-0.78 8.54,-0.75 8.64,-0.72 8.73,-0.66 8.81,-0.59 8.88,-0.51 8.94,-0.42 8.97,-0.32 9.00,-0.22 9.00,-0.11 8.99,-0.00 8.95,0.09 8.92,0.18 8.85,0.27 8.78,0.35 8.69,0.41 8.60,0.46 8.50,0.49 8.40,0.51 8.40,0.51 8.40,0.51 5.69,0.95 2.99,1.38 1.46,1.10 -0.06,0.83 -0.16,0.81 -0.26,0.79 -0.35,0.74 -0.44,0.70 -0.52,0.64 -0.60,0.57 -0.66,0.49 -0.72,0.41 -0.76,0.32 -0.80,0.23 -0.81,0.13 -0.83,0.03 -0.82,-0.06 -0.81,-0.16 -0.78,-0.26 -0.75,-0.35 -0.70,-0.44 -0.64,-0.52 -0.57,-0.59 -0.50,-0.66 -0.41,-0.71 -0.32,-0.76 -0.23,-0.79 -0.13,-0.82 -0.03,-0.82 0.06,-0.83 0.06,-0.83 L 0.06,-0.83 Z"/></g><g transform="translate(307.1096526777824 315.731759743236) rotate(0 -4.023668896101839 8.83961617407462)" stroke="none"><path fill="#000000" d="M 0.76,0.26 Q 0.76,0.26 0.28,2.38 -0.20,4.51 -1.12,6.69 -2.04,8.87 -3.00,10.87 -3.97,12.87 -5.60,15.21 -7.23,17.55 -7.29,17.63 -7.36,17.72 -7.45,17.78 -7.54,17.84 -7.64,17.86 -7.74,17.89 -7.85,17.88 -7.95,17.88 -8.05,17.84 -8.15,17.80 -8.23,17.73 -8.31,17.66 -8.36,17.57 -8.42,17.47 -8.44,17.37 -8.46,17.27 -8.45,17.16 -8.44,17.06 -8.39,16.96 -8.34,16.86 -8.27,16.79 -8.20,16.71 -8.10,16.66 -8.01,16.61 -7.90,16.60 -7.80,16.58 -7.69,16.60 -7.59,16.62 -7.50,16.67 -7.40,16.72 -7.33,16.80 -7.26,16.87 -7.21,16.97 -7.17,17.07 -7.16,17.17 -7.15,17.28 -7.17,17.38 -7.20,17.49 -7.25,17.58 -7.31,17.67 -7.39,17.74 -7.47,17.80 -7.57,17.84 -7.67,17.88 -7.78,17.88 -7.88,17.89 -7.98,17.86 -8.09,17.83 -8.17,17.77 -8.26,17.71 -8.33,17.62 -8.39,17.54 -8.42,17.44 -8.45,17.34 -8.45,17.23 -8.45,17.12 -8.42,17.02 -8.38,16.92 -8.38,16.92 -8.38,16.92 -7.32,14.34 -6.26,11.76 -5.33,9.81 -4.40,7.86 -3.50,5.77 -2.59,3.69 -1.68,1.71 -0.76,-0.26 -0.72,-0.35 -0.68,-0.43 -0.62,-0.51 -0.55,-0.58 -0.47,-0.64 -0.40,-0.70 -0.31,-0.74 -0.22,-0.78 -0.12,-0.79 -0.02,-0.81 0.07,-0.80 0.16,-0.79 0.26,-0.76 0.35,-0.73 0.43,-0.67 0.51,-0.62 0.58,-0.55 0.65,-0.48 0.70,-0.39 0.74,-0.31 0.77,-0.21 0.80,-0.12 0.80,-0.02 0.80,0.07 0.78,0.16 0.76,0.26 0.76,0.26 L 0.76,0.26 Z"/></g><g transform="translate(308.69476823009984 317.01197230929404) rotate(0 2.011834448050905 9.11396739496476)" stroke="none"><path fill="#000000" d="M 0.83,-0.15 Q 0.83,-0.15 1.55,3.20 2.28,6.57 2.83,9.10 3.38,11.63 3.88,14.27 4.37,16.91 4.38,17.02 4.39,17.12 4.36,17.23 4.34,17.33 4.28,17.42 4.22,17.51 4.14,17.58 4.06,17.64 3.96,17.68 3.86,17.72 3.75,17.72 3.64,17.72 3.54,17.69 3.44,17.66 3.35,17.60 3.27,17.53 3.21,17.45 3.14,17.36 3.11,17.26 3.08,17.16 3.09,17.05 3.09,16.95 3.13,16.85 3.16,16.75 3.23,16.66 3.30,16.58 3.39,16.52 3.47,16.47 3.58,16.44 3.68,16.42 3.79,16.42 3.89,16.43 3.99,16.48 4.09,16.52 4.17,16.59 4.25,16.66 4.30,16.75 4.35,16.85 4.37,16.95 4.39,17.05 4.38,17.16 4.36,17.26 4.31,17.36 4.27,17.45 4.19,17.53 4.12,17.60 4.02,17.65 3.93,17.70 3.82,17.71 3.71,17.73 3.61,17.71 3.51,17.69 3.41,17.63 3.32,17.58 3.25,17.50 3.18,17.42 3.14,17.33 3.10,17.23 3.10,17.23 3.10,17.23 2.30,14.64 1.50,12.06 0.90,9.50 0.31,6.95 -0.26,3.55 -0.83,0.15 -0.83,0.05 -0.84,-0.04 -0.82,-0.14 -0.81,-0.24 -0.76,-0.33 -0.72,-0.43 -0.66,-0.51 -0.60,-0.59 -0.52,-0.65 -0.44,-0.72 -0.35,-0.76 -0.25,-0.80 -0.15,-0.82 -0.05,-0.84 0.04,-0.83 0.14,-0.83 0.24,-0.80 0.34,-0.77 0.42,-0.72 0.51,-0.67 0.58,-0.59 0.66,-0.52 0.71,-0.44 0.76,-0.35 0.80,-0.25 0.83,-0.15 0.83,-0.15 L 0.83,-0.15 Z"/></g><g transform="translate(303.4517667832482 329.14360755804887) rotate(0 3.718849728128788 0.3352871150559622)" stroke="none"><path fill="#000000" d="M 0.10,-0.86 Q 0.10,-0.86 1.76,-0.78 3.41,-0.69 5.04,-0.51 6.67,-0.33 6.78,-0.32 6.88,-0.30 6.98,-0.25 7.07,-0.21 7.15,-0.13 7.22,-0.05 7.27,0.03 7.31,0.13 7.33,0.23 7.34,0.34 7.32,0.44 7.30,0.55 7.25,0.64 7.19,0.73 7.11,0.80 7.03,0.87 6.94,0.91 6.84,0.95 6.73,0.96 6.63,0.97 6.52,0.94 6.42,0.92 6.33,0.86 6.24,0.80 6.18,0.72 6.11,0.63 6.07,0.53 6.04,0.43 6.04,0.33 6.03,0.22 6.07,0.12 6.10,0.02 6.16,-0.06 6.22,-0.14 6.31,-0.20 6.40,-0.27 6.50,-0.30 6.60,-0.33 6.71,-0.32 6.81,-0.32 6.91,-0.28 7.01,-0.24 7.09,-0.18 7.18,-0.11 7.23,-0.02 7.29,0.06 7.31,0.16 7.34,0.27 7.33,0.37 7.32,0.48 7.28,0.58 7.23,0.67 7.16,0.75 7.09,0.83 7.00,0.88 6.91,0.93 6.80,0.95 6.70,0.97 6.70,0.97 6.70,0.97 4.93,1.21 3.17,1.46 1.53,1.16 -0.10,0.86 -0.20,0.84 -0.30,0.81 -0.40,0.77 -0.49,0.72 -0.57,0.65 -0.65,0.58 -0.71,0.49 -0.77,0.40 -0.81,0.31 -0.84,0.21 -0.86,0.10 -0.87,0.00 -0.86,-0.10 -0.85,-0.20 -0.81,-0.30 -0.77,-0.40 -0.71,-0.49 -0.65,-0.57 -0.57,-0.64 -0.49,-0.71 -0.40,-0.76 -0.31,-0.81 -0.21,-0.84 -0.10,-0.86 -0.00,-0.86 0.10,-0.86 0.10,-0.86 L 0.10,-0.86 Z"/></g><g stroke-linecap="round"><g transform="translate(263.30891949992315 381.6583853106868) rotate(0 -126.65445974996156 0)"><path d="M0 0 C-42.22 0, -211.09 0, -253.31 0" stroke="#000000" stroke-width="1" fill="none" stroke-dasharray="8 8.5"/></g></g><mask/><g stroke-linecap="round" transform="translate(219.30809510427164 348.1463616626849) rotate(135.0280149255489 32.42367124592567 6.330201422555916)"><path d="M0.84 0.73 C0.84 0.73, 0.84 0.73, 0.84 0.73 M0.84 0.73 C0.84 0.73, 0.84 0.73, 0.84 0.73 M1.04 3.55 C1.86 2.62, 2.67 1.68, 3.66 0.54 M1.04 3.55 C1.71 2.79, 2.38 2.02, 3.66 0.54 M0.58 7.13 C2.7 4.69, 4.83 2.25, 6.49 0.34 M0.58 7.13 C2.69 4.7, 4.8 2.27, 6.49 0.34 M0.78 9.95 C3.99 6.25, 7.21 2.55, 9.31 0.14 M0.78 9.95 C2.82 7.6, 4.86 5.26, 9.31 0.14 M1.63 12.02 C4.62 8.58, 7.61 5.14, 11.47 0.7 M1.63 12.02 C4.02 9.27, 6.4 6.53, 11.47 0.7 M3.14 13.33 C6.67 9.27, 10.21 5.2, 14.29 0.5 M3.14 13.33 C5.87 10.19, 8.61 7.04, 14.29 0.5 M5.31 13.89 C9.26 9.35, 13.2 4.8, 17.12 0.3 M5.31 13.89 C8.31 10.43, 11.32 6.97, 17.12 0.3 M8.13 13.69 C11.75 9.53, 15.37 5.36, 19.28 0.86 M8.13 13.69 C10.38 11.11, 12.62 8.52, 19.28 0.86 M10.95 13.49 C13.29 10.81, 15.62 8.12, 22.1 0.66 M10.95 13.49 C14.67 9.21, 18.4 4.92, 22.1 0.66 M13.77 13.3 C17.93 8.51, 22.09 3.72, 24.92 0.47 M13.77 13.3 C16.12 10.6, 18.46 7.9, 24.92 0.47 M15.94 13.85 C20.26 8.88, 24.58 3.91, 27.75 0.27 M15.94 13.85 C19.4 9.87, 22.87 5.88, 27.75 0.27 M18.76 13.66 C21.14 10.92, 23.51 8.19, 29.91 0.83 M18.76 13.66 C22.6 9.23, 26.45 4.81, 29.91 0.83 M21.58 13.46 C25.14 9.37, 28.69 5.27, 32.73 0.63 M21.58 13.46 C24 10.67, 26.42 7.89, 32.73 0.63 M24.4 13.26 C28.57 8.46, 32.74 3.67, 35.55 0.43 M24.4 13.26 C27.19 10.06, 29.98 6.85, 35.55 0.43 M26.57 13.82 C29.65 10.27, 32.74 6.72, 38.38 0.23 M26.57 13.82 C29.65 10.27, 32.74 6.72, 38.38 0.23 M29.39 13.62 C33.43 8.97, 37.47 4.32, 40.54 0.79 M29.39 13.62 C33.22 9.22, 37.04 4.82, 40.54 0.79 M32.21 13.42 C35.15 10.04, 38.1 6.65, 43.36 0.59 M32.21 13.42 C35.04 10.16, 37.88 6.9, 43.36 0.59 M34.38 13.98 C37.49 10.4, 40.6 6.82, 46.18 0.4 M34.38 13.98 C36.9 11.08, 39.42 8.18, 46.18 0.4 M37.2 13.78 C40.28 10.24, 43.37 6.69, 48.35 0.95 M37.2 13.78 C40.49 9.99, 43.79 6.2, 48.35 0.95 M40.02 13.59 C43.82 9.21, 47.63 4.83, 51.17 0.76 M40.02 13.59 C42.49 10.74, 44.97 7.89, 51.17 0.76 M42.84 13.39 C46.48 9.2, 50.12 5.02, 53.99 0.56 M42.84 13.39 C46.82 8.81, 50.81 4.23, 53.99 0.56 M45.01 13.95 C47.8 10.74, 50.59 7.53, 56.81 0.36 M45.01 13.95 C48.56 9.86, 52.11 5.77, 56.81 0.36 M47.83 13.75 C51.38 9.66, 54.93 5.57, 58.98 0.92 M47.83 13.75 C50.98 10.12, 54.13 6.49, 58.98 0.92 M50.65 13.55 C54.76 8.82, 58.87 4.09, 61.8 0.72 M50.65 13.55 C54.61 8.99, 58.57 4.44, 61.8 0.72 M53.47 13.36 C55.96 10.49, 58.45 7.62, 63.97 1.28 M53.47 13.36 C57.54 8.67, 61.62 3.98, 63.97 1.28 M55.64 13.91 C58.94 10.11, 62.25 6.3, 65.48 2.59 M55.64 13.91 C58.21 10.95, 60.78 7.99, 65.48 2.59 M58.46 13.72 C60.94 10.86, 63.42 8, 65.67 5.41 M58.46 13.72 C60.34 11.55, 62.22 9.39, 65.67 5.41 M61.93 12.76 C62.97 11.58, 64 10.39, 65.21 8.99 M61.93 12.76 C62.81 11.75, 63.69 10.74, 65.21 8.99" stroke="#fa5252" stroke-width="0.25" fill="none"/><path d="M3.17 0 M3.17 0 C25.34 0, 47.52 0, 61.68 0 M3.17 0 C24.19 0, 45.21 0, 61.68 0 M61.68 0 C63.79 0, 64.85 1.06, 64.85 3.17 M61.68 0 C63.79 0, 64.85 1.06, 64.85 3.17 M64.85 3.17 C64.85 4.82, 64.85 6.47, 64.85 9.5 M64.85 3.17 C64.85 4.52, 64.85 5.87, 64.85 9.5 M64.85 9.5 C64.85 11.61, 63.79 12.66, 61.68 12.66 M64.85 9.5 C64.85 11.61, 63.79 12.66, 61.68 12.66 M61.68 12.66 C45.33 12.66, 28.99 12.66, 3.17 12.66 M61.68 12.66 C42.69 12.66, 23.7 12.66, 3.17 12.66 M3.17 12.66 C1.06 12.66, 0 11.61, 0 9.5 M3.17 12.66 C1.06 12.66, 0 11.61, 0 9.5 M0 9.5 C0 8, 0 6.51, 0 3.17 M0 9.5 C0 7.82, 0 6.15, 0 3.17 M0 3.17 C0 1.06, 1.06 0, 3.17 0 M0 3.17 C0 1.06, 1.06 0, 3.17 0" stroke="#c92a2a" stroke-width="0.5" fill="none"/></g><g transform="translate(118.62566705818631 268.41351809637627) rotate(0 7.073578205939441 10.526499194195438)" stroke="none"><path fill="#c92a2a" d="M 0.85,-0.15 Q 0.85,-0.15 1.11,1.22 1.37,2.61 1.62,3.75 1.87,4.89 2.05,6.13 2.23,7.37 2.26,8.97 2.30,10.57 2.23,12.01 2.15,13.45 2.05,14.43 1.94,15.42 1.94,16.04 1.94,16.67 1.91,16.77 1.88,16.88 1.82,16.97 1.77,17.07 1.70,17.15 1.62,17.23 1.53,17.29 1.44,17.35 1.33,17.39 1.23,17.42 1.12,17.43 1.01,17.44 0.90,17.43 0.79,17.41 0.69,17.37 0.59,17.33 0.50,17.26 0.41,17.20 0.34,17.11 0.27,17.03 0.23,16.93 0.18,16.83 0.15,16.72 0.13,16.62 0.13,16.51 0.14,16.40 0.46,15.97 0.79,15.55 1.35,14.75 1.91,13.95 2.37,13.34 2.83,12.72 3.42,12.05 4.01,11.39 4.75,10.79 5.48,10.18 6.34,9.75 7.20,9.31 8.06,9.08 8.92,8.85 9.74,8.78 10.57,8.71 11.38,8.84 12.20,8.97 12.86,9.35 13.52,9.73 14.02,10.50 14.52,11.27 14.74,12.25 14.97,13.23 14.94,14.38 14.90,15.52 14.48,16.69 14.06,17.85 13.38,18.80 12.70,19.75 11.63,20.43 10.56,21.12 9.18,21.46 7.80,21.80 6.21,21.76 4.62,21.72 3.36,21.38 2.10,21.05 1.19,19.26 0.29,17.47 0.29,17.36 0.29,17.25 0.33,17.15 0.37,17.05 0.43,16.97 0.50,16.89 0.59,16.83 0.67,16.77 0.78,16.74 0.88,16.71 0.99,16.72 1.09,16.73 1.19,16.77 1.29,16.81 1.37,16.88 1.45,16.95 1.50,17.04 1.55,17.13 1.58,17.24 1.60,17.34 1.58,17.45 1.57,17.55 1.53,17.65 1.48,17.75 1.40,17.82 1.33,17.90 1.24,17.95 1.14,17.99 1.04,18.01 0.93,18.03 0.83,18.01 0.72,17.99 0.63,17.94 0.54,17.89 0.46,17.81 0.39,17.73 0.35,17.63 0.31,17.54 0.30,17.43 0.29,17.32 0.31,17.22 0.33,17.12 0.39,17.03 0.45,16.94 0.53,16.87 0.61,16.80 0.71,16.76 0.81,16.73 0.92,16.72 1.02,16.72 1.12,16.75 1.23,16.78 1.31,16.84 1.40,16.90 1.46,16.98 1.53,17.07 1.56,17.17 1.59,17.27 1.59,17.27 1.59,17.27 2.15,18.10 2.71,18.92 3.71,19.16 4.70,19.40 6.00,19.45 7.31,19.50 8.36,19.30 9.41,19.10 10.16,18.71 10.91,18.33 11.43,17.66 11.95,17.00 12.31,16.18 12.67,15.36 12.75,14.49 12.84,13.63 12.74,12.94 12.65,12.25 12.22,11.58 11.78,10.92 11.24,10.80 10.70,10.68 10.04,10.72 9.38,10.76 8.71,10.90 8.05,11.05 7.36,11.37 6.68,11.69 6.06,12.18 5.43,12.67 4.88,13.27 4.33,13.87 3.87,14.46 3.40,15.05 2.67,15.86 1.94,16.67 1.91,16.77 1.88,16.88 1.82,16.97 1.77,17.07 1.70,17.15 1.62,17.23 1.53,17.29 1.44,17.35 1.33,17.39 1.23,17.42 1.12,17.43 1.01,17.44 0.90,17.43 0.79,17.41 0.69,17.37 0.59,17.33 0.50,17.26 0.41,17.20 0.34,17.11 0.27,17.03 0.23,16.93 0.18,16.83 0.15,16.72 0.13,16.62 0.13,16.51 0.14,16.40 0.10,16.42 0.06,16.45 0.10,15.84 0.14,15.22 0.25,14.29 0.36,13.35 0.43,11.98 0.50,10.61 0.48,9.11 0.45,7.62 0.29,6.44 0.13,5.27 -0.10,4.10 -0.35,2.93 -0.60,1.54 -0.85,0.15 -0.86,0.05 -0.86,-0.05 -0.85,-0.15 -0.83,-0.25 -0.78,-0.35 -0.74,-0.44 -0.68,-0.53 -0.61,-0.61 -0.53,-0.68 -0.45,-0.74 -0.35,-0.78 -0.26,-0.83 -0.15,-0.85 -0.05,-0.86 0.05,-0.86 0.15,-0.85 0.25,-0.82 0.35,-0.79 0.44,-0.74 0.53,-0.68 0.61,-0.61 0.68,-0.53 0.73,-0.44 0.79,-0.35 0.82,-0.25 0.85,-0.15 0.85,-0.15 L 0.85,-0.15 Z"/></g><g transform="translate(268.563205572087 371.1908338784908) rotate(0 -1.5595198078400188 -0.2970481506427234)" stroke="none"><path fill="#c92a2a" d="M -0.85,0.20 Q -0.85,0.20 -1.22,-1.17 -1.60,-2.55 -1.91,-3.30 -2.22,-4.05 -2.84,-4.22 -3.47,-4.38 -3.93,-4.08 -4.40,-3.77 -4.76,-3.19 -5.13,-2.62 -5.46,-1.79 -5.79,-0.96 -5.96,0.00 -6.13,0.97 -6.10,1.86 -6.08,2.75 -5.41,3.31 -4.75,3.87 -3.80,3.39 -2.84,2.91 -2.30,2.42 -1.76,1.92 -1.36,1.24 -0.97,0.56 -0.65,0.99 -0.33,1.43 0.18,1.29 0.71,1.15 2.50,2.10 4.29,3.06 4.38,3.10 4.48,3.15 4.56,3.22 4.64,3.29 4.69,3.38 4.74,3.48 4.76,3.58 4.78,3.69 4.76,3.79 4.75,3.90 4.70,3.99 4.65,4.09 4.57,4.16 4.50,4.23 4.40,4.28 4.30,4.33 4.20,4.34 4.09,4.35 3.99,4.33 3.89,4.31 3.79,4.26 3.70,4.20 3.63,4.12 3.56,4.04 3.52,3.94 3.48,3.85 3.47,3.74 3.47,3.63 3.49,3.53 3.52,3.43 3.58,3.34 3.64,3.25 3.72,3.19 3.80,3.12 3.90,3.08 4.00,3.05 4.11,3.05 4.22,3.05 4.32,3.08 4.42,3.11 4.50,3.17 4.59,3.24 4.65,3.32 4.71,3.41 4.74,3.51 4.77,3.62 4.77,3.72 4.76,3.83 4.73,3.93 4.69,4.03 4.62,4.11 4.55,4.19 4.46,4.25 4.37,4.30 4.27,4.33 4.16,4.35 4.06,4.34 3.95,4.33 3.95,4.33 3.95,4.33 1.77,3.71 -0.41,3.09 -0.87,2.56 -1.32,2.03 -1.47,1.40 -1.62,0.76 -1.36,0.25 -1.10,-0.25 -0.57,-0.40 -0.05,-0.56 0.42,-0.23 0.90,0.08 1.00,0.70 1.10,1.31 0.89,1.83 0.67,2.35 0.23,2.99 -0.21,3.63 -0.95,4.28 -1.70,4.94 -2.67,5.43 -3.64,5.92 -4.64,5.93 -5.64,5.94 -6.51,5.39 -7.39,4.83 -7.86,3.88 -8.33,2.93 -8.36,1.74 -8.39,0.55 -8.15,-0.66 -7.90,-1.87 -7.41,-2.92 -6.91,-3.96 -6.18,-4.82 -5.45,-5.68 -4.45,-6.10 -3.45,-6.51 -2.54,-6.33 -1.63,-6.15 -1.01,-5.49 -0.38,-4.83 -0.05,-3.92 0.27,-3.00 0.56,-1.60 0.85,-0.20 0.86,-0.09 0.87,0.00 0.86,0.11 0.84,0.21 0.80,0.31 0.77,0.41 0.71,0.49 0.65,0.58 0.57,0.65 0.49,0.72 0.39,0.77 0.30,0.82 0.20,0.84 0.09,0.86 -0.00,0.86 -0.11,0.86 -0.21,0.84 -0.31,0.81 -0.40,0.76 -0.50,0.71 -0.58,0.64 -0.65,0.57 -0.71,0.48 -0.77,0.40 -0.81,0.30 -0.85,0.20 -0.85,0.20 L -0.85,0.20 Z"/></g><g transform="translate(110.80104888625652 313.96141324209896) rotate(0 -10.935993100500795 32.029498211531475)" stroke="none"><path fill="#000000" d="M 0.33,0.83 Q 0.33,0.83 -0.28,1.11 -0.89,1.38 -1.69,1.98 -2.49,2.58 -2.95,3.09 -3.41,3.60 -3.92,4.22 -4.42,4.83 -4.97,5.50 -5.51,6.18 -6.07,6.97 -6.64,7.77 -7.24,8.75 -7.85,9.74 -8.47,10.97 -9.09,12.20 -9.76,13.57 -10.43,14.93 -11.11,16.25 -11.80,17.57 -12.42,18.80 -13.04,20.02 -13.61,21.18 -14.17,22.35 -14.69,23.61 -15.20,24.87 -15.68,26.17 -16.15,27.48 -16.57,28.73 -17.00,29.98 -17.34,31.09 -17.69,32.20 -18.01,33.19 -18.33,34.18 -18.57,35.12 -18.82,36.06 -19.00,37.07 -19.19,38.08 -19.46,39.74 -19.74,41.40 -19.97,42.71 -20.20,44.03 -20.37,45.14 -20.54,46.26 -20.65,47.25 -20.77,48.23 -20.81,49.16 -20.86,50.09 -20.88,50.93 -20.90,51.78 -20.90,52.60 -20.90,53.43 -20.83,54.30 -20.77,55.17 -20.63,56.11 -20.50,57.06 -20.25,58.02 -20.00,58.98 -19.24,61.11 -18.47,63.25 -18.44,63.35 -18.41,63.45 -18.42,63.56 -18.42,63.67 -18.46,63.77 -18.50,63.86 -18.57,63.95 -18.64,64.03 -18.73,64.08 -18.82,64.14 -18.92,64.16 -19.02,64.18 -19.13,64.17 -19.24,64.16 -19.33,64.12 -19.43,64.07 -19.51,64.00 -19.58,63.93 -19.64,63.84 -19.69,63.74 -19.70,63.64 -19.72,63.53 -19.70,63.43 -19.69,63.32 -19.64,63.23 -19.59,63.13 -19.51,63.06 -19.44,62.99 -19.34,62.94 -19.24,62.90 -19.14,62.89 -19.03,62.87 -18.93,62.90 -18.83,62.92 -18.73,62.97 -18.64,63.03 -18.57,63.11 -18.50,63.19 -18.46,63.29 -18.42,63.38 -18.42,63.49 -18.41,63.60 -18.44,63.70 -18.47,63.80 -18.53,63.89 -18.58,63.98 -18.67,64.04 -18.75,64.11 -18.85,64.14 -18.95,64.18 -19.06,64.18 -19.17,64.18 -19.27,64.14 -19.37,64.11 -19.45,64.05 -19.54,63.98 -19.60,63.90 -19.66,63.81 -19.66,63.81 -19.66,63.81 -20.74,61.63 -21.83,59.44 -22.10,58.39 -22.36,57.33 -22.51,56.31 -22.65,55.29 -22.71,54.36 -22.77,53.43 -22.77,52.58 -22.77,51.73 -22.75,50.86 -22.72,49.99 -22.67,49.00 -22.62,48.02 -22.50,46.99 -22.38,45.97 -22.19,44.84 -22.00,43.70 -21.77,42.40 -21.53,41.10 -21.26,39.43 -20.98,37.75 -20.78,36.67 -20.58,35.60 -20.32,34.61 -20.07,33.62 -19.75,32.64 -19.44,31.65 -19.09,30.53 -18.74,29.40 -18.31,28.12 -17.89,26.85 -17.40,25.50 -16.91,24.16 -16.37,22.85 -15.83,21.54 -15.26,20.36 -14.68,19.18 -14.06,17.97 -13.44,16.75 -12.79,15.42 -12.14,14.09 -11.47,12.72 -10.79,11.34 -10.14,10.04 -9.48,8.74 -8.84,7.70 -8.20,6.66 -7.60,5.82 -7.00,4.99 -6.45,4.30 -5.90,3.60 -5.37,2.96 -4.84,2.31 -4.30,1.72 -3.76,1.13 -3.22,0.67 -2.68,0.21 -2.14,-0.08 -1.60,-0.39 -0.97,-0.61 -0.33,-0.83 -0.22,-0.86 -0.12,-0.88 -0.01,-0.89 0.09,-0.89 0.19,-0.86 0.30,-0.84 0.40,-0.79 0.49,-0.74 0.57,-0.67 0.66,-0.60 0.72,-0.51 0.78,-0.42 0.82,-0.32 0.86,-0.22 0.88,-0.12 0.89,-0.01 0.88,0.09 0.87,0.20 0.83,0.30 0.80,0.40 0.74,0.49 0.68,0.58 0.60,0.65 0.52,0.73 0.42,0.78 0.33,0.83 0.33,0.83 L 0.33,0.83 Z"/></g><g transform="translate(116.77899101992227 335.469234244154) rotate(0 -3.1505343188232118 8.663722950229399)" stroke="none"><path fill="#000000" d="M -0.39,0.67 Q -0.39,0.67 -0.96,0.40 -1.53,0.12 -2.19,0.26 -2.84,0.40 -3.63,1.23 -4.42,2.05 -4.84,2.87 -5.26,3.68 -5.67,4.72 -6.09,5.75 -6.38,6.87 -6.68,7.98 -6.90,9.04 -7.12,10.10 -7.19,11.03 -7.26,11.96 -7.17,12.75 -7.08,13.54 -6.85,14.22 -6.62,14.90 -6.28,15.44 -5.93,15.98 -5.54,16.35 -5.14,16.72 -4.43,16.83 -3.72,16.93 -2.90,16.39 -2.08,15.85 -1.65,15.36 -1.23,14.86 -0.84,14.25 -0.46,13.64 -0.14,12.90 0.18,12.17 0.40,11.38 0.61,10.59 0.74,9.76 0.86,8.93 0.91,8.14 0.97,7.35 0.96,6.67 0.95,6.00 0.90,5.35 0.86,4.71 0.37,2.80 -0.11,0.90 -0.16,0.81 -0.22,0.71 -0.24,0.61 -0.26,0.51 -0.24,0.40 -0.23,0.30 -0.18,0.20 -0.13,0.10 -0.06,0.03 0.01,-0.03 0.10,-0.08 0.20,-0.13 0.30,-0.14 0.41,-0.16 0.51,-0.14 0.62,-0.12 0.71,-0.06 0.80,-0.01 0.87,0.06 0.94,0.14 0.99,0.23 1.03,0.33 1.04,0.44 1.04,0.54 1.02,0.65 0.99,0.75 0.94,0.84 0.88,0.93 0.80,1.00 0.71,1.06 0.61,1.10 0.51,1.13 0.41,1.14 0.30,1.14 0.20,1.11 0.10,1.08 0.01,1.01 -0.07,0.95 -0.13,0.87 -0.19,0.78 -0.22,0.68 -0.25,0.58 -0.25,0.47 -0.24,0.36 -0.21,0.26 -0.17,0.16 -0.10,0.08 -0.04,0.00 0.04,-0.05 0.13,-0.10 0.24,-0.13 0.34,-0.16 0.44,-0.15 0.55,-0.14 0.65,-0.10 0.75,-0.05 0.82,0.01 0.90,0.08 0.90,0.08 0.90,0.08 1.87,2.23 2.83,4.38 3.03,5.15 3.23,5.93 3.26,6.72 3.29,7.51 3.22,8.40 3.16,9.28 3.00,10.25 2.84,11.23 2.56,12.17 2.28,13.11 1.88,13.99 1.47,14.87 0.98,15.63 0.49,16.39 -0.09,17.04 -0.69,17.68 -1.40,18.19 -2.11,18.70 -2.91,18.96 -3.70,19.21 -4.49,19.15 -5.27,19.09 -5.99,18.72 -6.70,18.34 -7.28,17.74 -7.86,17.14 -8.30,16.35 -8.74,15.56 -9.00,14.66 -9.25,13.76 -9.34,12.78 -9.42,11.80 -9.33,10.72 -9.24,9.65 -9.00,8.53 -8.76,7.41 -8.41,6.17 -8.07,4.94 -7.59,3.82 -7.12,2.69 -6.58,1.71 -6.04,0.73 -5.43,0.02 -4.82,-0.68 -4.14,-1.10 -3.47,-1.52 -2.73,-1.66 -1.99,-1.81 -1.33,-1.60 -0.67,-1.40 -0.14,-1.04 0.39,-0.67 0.46,-0.62 0.54,-0.56 0.60,-0.49 0.66,-0.41 0.70,-0.33 0.74,-0.24 0.76,-0.15 0.78,-0.06 0.77,0.03 0.77,0.12 0.74,0.21 0.71,0.30 0.67,0.38 0.62,0.47 0.55,0.53 0.49,0.60 0.41,0.65 0.33,0.70 0.24,0.73 0.15,0.76 0.06,0.77 -0.03,0.78 -0.12,0.76 -0.21,0.75 -0.30,0.71 -0.39,0.67 -0.39,0.67 L -0.39,0.67 Z"/></g><g transform="translate(108.98343453499527 341.729726959669) rotate(0 4.190616264424314 1.8276611494988586)" stroke="none"><path fill="#000000" d="M 0.78,-0.45 Q 0.78,-0.45 1.34,0.42 1.90,1.30 2.44,1.67 2.97,2.04 3.92,2.11 4.87,2.17 6.31,1.80 7.74,1.43 7.85,1.41 7.95,1.38 8.06,1.39 8.16,1.40 8.26,1.44 8.36,1.48 8.44,1.55 8.52,1.62 8.57,1.71 8.62,1.80 8.64,1.91 8.67,2.01 8.65,2.12 8.64,2.22 8.59,2.32 8.55,2.41 8.47,2.49 8.40,2.56 8.30,2.61 8.21,2.66 8.10,2.68 8.00,2.69 7.89,2.67 7.79,2.65 7.70,2.60 7.60,2.55 7.53,2.47 7.46,2.39 7.42,2.30 7.37,2.20 7.36,2.09 7.35,1.99 7.38,1.88 7.40,1.78 7.46,1.69 7.52,1.60 7.60,1.53 7.68,1.47 7.78,1.43 7.88,1.39 7.99,1.39 8.09,1.38 8.19,1.41 8.30,1.44 8.38,1.51 8.47,1.57 8.53,1.65 8.59,1.74 8.63,1.84 8.66,1.94 8.66,2.05 8.66,2.15 8.62,2.25 8.58,2.35 8.52,2.44 8.45,2.52 8.36,2.58 8.27,2.64 8.27,2.64 8.27,2.64 6.67,3.42 5.06,4.21 4.19,4.24 3.32,4.27 2.53,3.96 1.75,3.65 0.97,3.00 0.20,2.34 -0.28,1.40 -0.78,0.45 -0.82,0.35 -0.87,0.25 -0.88,0.14 -0.90,0.03 -0.89,-0.07 -0.88,-0.17 -0.85,-0.28 -0.81,-0.38 -0.76,-0.47 -0.70,-0.57 -0.62,-0.64 -0.54,-0.72 -0.45,-0.77 -0.35,-0.83 -0.25,-0.86 -0.14,-0.89 -0.03,-0.89 0.07,-0.90 0.17,-0.88 0.28,-0.86 0.38,-0.81 0.48,-0.76 0.56,-0.69 0.65,-0.62 0.71,-0.54 0.78,-0.45 0.78,-0.45 L 0.78,-0.45 Z"/></g></svg>