<svg version="1.1" xmlns="http://www.w3.org/2000/svg" viewBox="0 0 516.4984741210938 372.0533752441406" width="516.4984741210938" height="372.0533752441406" filter="invert(93%) hue-rotate(180deg)">
  <!-- svg-source:excalidraw -->
  
  <defs>
    <style class="style-fonts">
      @font-face {
        font-family: "Virgil";
        src: url("https://excalidraw.com/Virgil.woff2");
      }
      @font-face {
        font-family: "Cascadia";
        src: url("https://excalidraw.com/Cascadia.woff2");
      }
    </style>
  </defs>
  <rect x="0" y="0" width="516.4984741210938" height="372.0533752441406" fill="#ffffff"/><g stroke-linecap="round"><g transform="translate(86.44586181640625 37.967193603515625) rotate(0 -0.06658935546875 141.6669921875)"><path d="M0 0 C-0.04 86.79, -0.08 173.57, -0.13 283.33 M0 0 C-0.03 68.39, -0.06 136.78, -0.13 283.33" stroke="#000000" stroke-width="4" fill="none"/></g></g><mask/><g stroke-linecap="round"><g transform="translate(84.51470947265625 324.5640563964844) rotate(0 131.44955444335938 1.165283203125)"><path d="M0 0 C73.86 0.65, 147.71 1.31, 262.9 2.33 M0 0 C53.08 0.47, 106.16 0.94, 262.9 2.33" stroke="#000000" stroke-width="4" fill="none"/></g></g><mask/><g stroke-linecap="round"><g transform="translate(350.87652587890625 326.8946228027344) rotate(0 -0.099853515625 -64.55752563476562)"><path d="M0 0 C-0.04 -25.96, -0.08 -51.93, -0.2 -129.12 M0 0 C-0.07 -44.26, -0.14 -88.52, -0.2 -129.12" stroke="#000000" stroke-width="4" fill="none"/></g></g><mask/><g stroke-linecap="round"><g transform="translate(351.9420166015625 196.98046875) rotate(0 57.068023681640625 -0.2996368408203125)"><path d="M0 0 C39.72 -0.21, 79.45 -0.42, 114.14 -0.6 M0 0 C38.81 -0.2, 77.62 -0.41, 114.14 -0.6" stroke="#000000" stroke-width="4" fill="none"/></g></g><mask/><g transform="translate(45.426116943359375 42.36199951171875) rotate(0 -4.4948577880859375 10.720748901367188)" stroke="none"><path fill="#000000" d="M 0.64,0.41 Q 0.64,0.41 -0.51,2.47 -1.66,4.52 -2.90,6.76 -4.14,8.99 -5.09,11.48 -6.04,13.97 -6.60,15.97 -7.17,17.97 -7.24,19.52 -7.31,21.06 -7.31,21.17 -7.31,21.27 -7.35,21.37 -7.39,21.47 -7.45,21.55 -7.52,21.64 -7.61,21.70 -7.70,21.75 -7.80,21.78 -7.90,21.81 -8.01,21.80 -8.12,21.79 -8.21,21.75 -8.31,21.71 -8.39,21.63 -8.47,21.56 -8.52,21.47 -8.57,21.38 -8.60,21.28 -8.62,21.17 -8.60,21.07 -8.59,20.96 -8.54,20.86 -8.49,20.77 -8.42,20.69 -8.34,20.62 -8.25,20.57 -8.15,20.52 -8.05,20.51 -7.94,20.49 -7.84,20.51 -7.74,20.53 -7.64,20.59 -7.55,20.64 -7.48,20.72 -7.41,20.80 -7.36,20.89 -7.32,20.99 -7.31,21.10 -7.30,21.20 -7.33,21.30 -7.36,21.41 -7.41,21.50 -7.47,21.59 -7.55,21.65 -7.63,21.72 -7.73,21.76 -7.83,21.80 -7.94,21.80 -8.05,21.80 -8.15,21.77 -8.25,21.74 -8.34,21.68 -8.42,21.62 -8.48,21.53 -8.55,21.44 -8.58,21.34 -8.61,21.24 -8.61,21.24 -8.61,21.24 -8.89,19.35 -9.17,17.46 -8.64,15.32 -8.10,13.19 -7.08,10.55 -6.07,7.91 -4.76,5.63 -3.46,3.35 -2.05,1.47 -0.64,-0.41 -0.58,-0.48 -0.52,-0.55 -0.44,-0.61 -0.37,-0.66 -0.28,-0.70 -0.20,-0.73 -0.11,-0.75 -0.02,-0.76 0.07,-0.75 0.16,-0.74 0.25,-0.71 0.33,-0.68 0.41,-0.63 0.49,-0.58 0.55,-0.51 0.61,-0.45 0.66,-0.37 0.70,-0.29 0.73,-0.20 0.75,-0.11 0.75,-0.02 0.76,0.07 0.74,0.16 0.72,0.25 0.68,0.33 0.64,0.41 0.64,0.41 L 0.64,0.41 Z"/></g><g transform="translate(48.222930908203125 43.960113525390625) rotate(0 3.5625762939453125 9.355697631835938)" stroke="none"><path fill="#000000" d="M 0.77,-0.08 Q 0.77,-0.08 1.18,2.94 1.58,5.98 2.32,8.26 3.06,10.54 3.82,12.34 4.58,14.14 5.81,15.84 7.05,17.54 7.10,17.63 7.15,17.73 7.17,17.83 7.18,17.94 7.17,18.04 7.15,18.15 7.10,18.24 7.05,18.33 6.98,18.41 6.90,18.48 6.81,18.53 6.71,18.57 6.60,18.59 6.50,18.60 6.39,18.58 6.29,18.55 6.20,18.50 6.11,18.45 6.04,18.37 5.97,18.28 5.93,18.19 5.89,18.09 5.88,17.98 5.87,17.88 5.90,17.77 5.93,17.67 5.99,17.58 6.05,17.49 6.13,17.43 6.22,17.36 6.32,17.33 6.42,17.29 6.52,17.29 6.63,17.29 6.73,17.33 6.83,17.36 6.92,17.42 7.00,17.49 7.06,17.57 7.12,17.66 7.15,17.76 7.18,17.87 7.18,17.97 7.17,18.08 7.13,18.18 7.09,18.28 7.03,18.36 6.96,18.44 6.87,18.49 6.78,18.55 6.67,18.57 6.57,18.60 6.46,18.59 6.36,18.58 6.26,18.53 6.16,18.49 6.09,18.42 6.01,18.34 6.01,18.34 6.01,18.34 4.56,16.57 3.11,14.81 2.23,12.95 1.35,11.09 0.57,8.64 -0.20,6.19 -0.49,3.14 -0.77,0.08 -0.77,-0.00 -0.77,-0.10 -0.75,-0.19 -0.73,-0.28 -0.68,-0.36 -0.64,-0.45 -0.57,-0.52 -0.51,-0.59 -0.43,-0.64 -0.35,-0.69 -0.26,-0.72 -0.18,-0.76 -0.08,-0.77 0.00,-0.78 0.10,-0.77 0.19,-0.75 0.28,-0.72 0.36,-0.69 0.44,-0.63 0.52,-0.58 0.58,-0.51 0.64,-0.43 0.69,-0.35 0.73,-0.27 0.75,-0.17 0.77,-0.08 0.77,-0.08 L 0.77,-0.08 Z"/></g><g transform="translate(41.697052001953125 55.746307373046875) rotate(0 3.828948974609375 -0.3995513916015625)" stroke="none"><path fill="#000000" d="M -0.12,-0.85 Q -0.12,-0.85 1.42,-1.09 2.97,-1.34 4.29,-1.28 5.62,-1.23 5.70,-1.23 5.78,-1.23 5.86,-1.22 5.94,-1.20 6.01,-1.16 6.08,-1.13 6.14,-1.08 6.20,-1.03 6.25,-0.96 6.30,-0.90 6.33,-0.82 6.36,-0.75 6.37,-0.67 6.38,-0.59 6.37,-0.51 6.37,-0.43 6.34,-0.36 6.31,-0.28 6.27,-0.21 6.22,-0.15 6.17,-0.09 6.11,-0.04 6.04,-0.00 5.97,0.03 5.89,0.05 5.81,0.07 4.15,0.24 2.49,0.40 2.39,0.40 2.28,0.39 2.18,0.35 2.08,0.31 2.00,0.24 1.92,0.17 1.87,0.08 1.81,-0.00 1.79,-0.11 1.77,-0.21 1.78,-0.32 1.80,-0.42 1.84,-0.52 1.89,-0.61 1.96,-0.69 2.03,-0.77 2.13,-0.82 2.22,-0.86 2.33,-0.88 2.43,-0.90 2.54,-0.88 2.64,-0.86 2.73,-0.81 2.83,-0.76 2.90,-0.68 2.97,-0.61 3.02,-0.51 3.06,-0.41 3.07,-0.31 3.08,-0.20 3.06,-0.10 3.03,0.00 2.98,0.09 2.92,0.18 2.84,0.25 2.76,0.31 2.66,0.35 2.56,0.39 2.46,0.40 2.35,0.40 2.25,0.37 2.15,0.34 2.06,0.28 1.97,0.22 1.91,0.14 1.84,0.05 1.81,-0.04 1.78,-0.14 1.78,-0.25 1.78,-0.35 1.81,-0.45 1.85,-0.55 1.91,-0.64 1.98,-0.72 2.07,-0.78 2.16,-0.84 2.26,-0.87 2.36,-0.89 2.36,-0.89 2.36,-0.89 3.99,-1.06 5.62,-1.23 5.70,-1.23 5.78,-1.23 5.86,-1.22 5.94,-1.20 6.01,-1.16 6.08,-1.13 6.14,-1.08 6.20,-1.03 6.25,-0.96 6.30,-0.90 6.33,-0.82 6.36,-0.75 6.37,-0.67 6.38,-0.59 6.37,-0.51 6.37,-0.43 6.34,-0.36 6.31,-0.28 6.27,-0.21 6.22,-0.15 6.17,-0.09 6.11,-0.04 6.04,-0.00 5.97,0.03 5.89,0.05 5.81,0.07 4.52,0.25 3.23,0.42 1.67,0.63 0.12,0.85 0.02,0.85 -0.08,0.85 -0.18,0.83 -0.28,0.81 -0.37,0.76 -0.47,0.72 -0.55,0.65 -0.63,0.58 -0.69,0.50 -0.75,0.42 -0.79,0.32 -0.83,0.22 -0.84,0.12 -0.86,0.02 -0.85,-0.08 -0.84,-0.18 -0.80,-0.28 -0.77,-0.38 -0.71,-0.46 -0.66,-0.55 -0.58,-0.62 -0.50,-0.69 -0.41,-0.74 -0.32,-0.79 -0.22,-0.82 -0.12,-0.85 -0.12,-0.85 L -0.12,-0.85 Z"/></g><g transform="translate(49.7545166015625 335.6177062988281) rotate(0 -1.797943115234375 8.123809814453125)" stroke="none"><path fill="#000000" d="M 0.78,0.09 Q 0.78,0.09 0.56,2.36 0.35,4.63 -0.12,6.95 -0.60,9.28 -1.14,11.03 -1.68,12.79 -2.22,14.42 -2.76,16.05 -2.79,16.15 -2.83,16.25 -2.89,16.34 -2.96,16.42 -3.05,16.48 -3.13,16.54 -3.24,16.57 -3.34,16.60 -3.45,16.59 -3.55,16.58 -3.65,16.54 -3.75,16.50 -3.83,16.43 -3.91,16.36 -3.96,16.27 -4.02,16.18 -4.04,16.08 -4.06,15.97 -4.05,15.87 -4.04,15.76 -3.99,15.67 -3.95,15.57 -3.87,15.49 -3.80,15.42 -3.71,15.37 -3.61,15.32 -3.51,15.30 -3.40,15.29 -3.30,15.30 -3.19,15.32 -3.10,15.37 -3.00,15.42 -2.93,15.50 -2.86,15.58 -2.82,15.67 -2.77,15.77 -2.76,15.88 -2.75,15.98 -2.77,16.09 -2.80,16.19 -2.85,16.28 -2.91,16.37 -2.99,16.44 -3.07,16.51 -3.17,16.55 -3.27,16.58 -3.38,16.59 -3.48,16.59 -3.58,16.57 -3.69,16.54 -3.77,16.48 -3.86,16.42 -3.93,16.33 -3.99,16.25 -4.02,16.14 -4.05,16.04 -4.05,15.94 -4.05,15.83 -4.05,15.83 -4.05,15.83 -3.79,14.03 -3.53,12.22 -3.00,10.55 -2.48,8.87 -1.99,6.63 -1.49,4.40 -1.14,2.15 -0.78,-0.09 -0.75,-0.19 -0.73,-0.28 -0.69,-0.36 -0.64,-0.45 -0.58,-0.52 -0.52,-0.59 -0.44,-0.64 -0.36,-0.70 -0.27,-0.73 -0.18,-0.76 -0.09,-0.77 0.00,-0.78 0.09,-0.77 0.19,-0.76 0.28,-0.73 0.37,-0.69 0.44,-0.64 0.52,-0.58 0.58,-0.51 0.65,-0.44 0.69,-0.36 0.73,-0.27 0.76,-0.18 0.78,-0.09 0.78,0.00 0.78,0.09 0.78,0.09 L 0.78,0.09 Z"/></g><g transform="translate(50.35382080078125 336.6165466308594) rotate(0 2.63031005859375 8.1571044921875)" stroke="none"><path fill="#000000" d="M -0.74,-0.26 Q -0.74,-0.26 -0.44,-1.43 -0.15,-2.60 0.81,-3.46 1.78,-4.31 3.05,-4.59 4.33,-4.86 5.51,-4.47 6.69,-4.08 7.57,-3.25 8.45,-2.43 8.88,-1.40 9.30,-0.36 9.11,0.61 8.92,1.59 8.22,2.26 7.52,2.93 7.52,3.57 7.53,4.21 8.09,5.23 8.65,6.24 9.42,7.57 10.18,8.89 10.75,10.51 11.31,12.13 11.16,13.78 11.01,15.43 9.83,16.94 8.64,18.44 6.62,19.51 4.59,20.58 2.17,20.69 -0.24,20.80 -1.96,19.58 -3.67,18.35 -4.60,16.46 -5.53,14.57 -5.57,14.47 -5.61,14.37 -5.61,14.26 -5.62,14.16 -5.59,14.05 -5.56,13.95 -5.50,13.86 -5.44,13.78 -5.35,13.71 -5.27,13.65 -5.17,13.62 -5.06,13.58 -4.96,13.59 -4.85,13.59 -4.75,13.62 -4.65,13.66 -4.57,13.72 -4.48,13.79 -4.42,13.88 -4.37,13.96 -4.34,14.07 -4.31,14.17 -4.32,14.28 -4.33,14.38 -4.37,14.48 -4.41,14.58 -4.48,14.66 -4.55,14.74 -4.64,14.79 -4.73,14.85 -4.83,14.87 -4.94,14.89 -5.04,14.88 -5.15,14.86 -5.24,14.82 -5.34,14.77 -5.42,14.70 -5.49,14.63 -5.54,14.53 -5.59,14.44 -5.61,14.33 -5.62,14.23 -5.60,14.12 -5.59,14.02 -5.53,13.92 -5.48,13.83 -5.41,13.76 -5.33,13.69 -5.23,13.64 -5.13,13.60 -5.03,13.59 -4.92,13.58 -4.82,13.60 -4.72,13.63 -4.62,13.68 -4.53,13.74 -4.47,13.82 -4.40,13.90 -4.40,13.90 -4.40,13.90 -3.41,15.28 -2.41,16.66 -1.23,17.42 -0.04,18.17 1.66,18.08 3.37,17.98 4.94,17.22 6.50,16.45 7.37,15.63 8.23,14.80 8.40,13.84 8.57,12.89 8.19,11.52 7.80,10.15 7.13,8.78 6.46,7.41 5.90,6.32 5.33,5.23 4.94,4.10 4.55,2.97 5.29,1.99 6.02,1.02 6.52,0.62 7.01,0.21 6.85,-0.30 6.69,-0.81 6.21,-1.37 5.72,-1.93 5.12,-2.28 4.51,-2.63 3.75,-2.57 3.00,-2.51 2.34,-2.13 1.68,-1.76 1.21,-0.74 0.74,0.26 0.70,0.34 0.66,0.43 0.60,0.50 0.54,0.58 0.46,0.63 0.38,0.69 0.29,0.72 0.20,0.76 0.11,0.77 0.01,0.79 -0.07,0.78 -0.17,0.77 -0.26,0.74 -0.35,0.71 -0.43,0.65 -0.51,0.60 -0.57,0.53 -0.64,0.46 -0.68,0.38 -0.73,0.29 -0.75,0.20 -0.78,0.11 -0.78,0.01 -0.78,-0.07 -0.76,-0.16 -0.74,-0.26 -0.74,-0.26 L -0.74,-0.26 Z"/></g><g transform="translate(324.2403564453125 163.61962890625) rotate(0 -0.965545654296875 9.5887451171875)" stroke="none"><path fill="#000000" d="M 0.85,0.10 Q 0.85,0.10 0.61,2.96 0.37,5.83 0.07,8.51 -0.21,11.19 -0.42,13.28 -0.62,15.36 -0.70,16.89 -0.79,18.42 -0.80,18.53 -0.81,18.64 -0.85,18.73 -0.89,18.83 -0.96,18.91 -1.04,18.99 -1.13,19.04 -1.22,19.09 -1.33,19.11 -1.43,19.12 -1.54,19.11 -1.64,19.09 -1.74,19.04 -1.83,19.00 -1.91,18.92 -1.98,18.84 -2.03,18.75 -2.07,18.65 -2.08,18.55 -2.10,18.44 -2.07,18.34 -2.05,18.23 -2.00,18.14 -1.95,18.05 -1.87,17.98 -1.79,17.91 -1.69,17.87 -1.59,17.83 -1.48,17.82 -1.38,17.81 -1.27,17.84 -1.17,17.87 -1.08,17.93 -0.99,17.99 -0.93,18.07 -0.86,18.15 -0.83,18.25 -0.79,18.35 -0.79,18.46 -0.79,18.57 -0.82,18.67 -0.86,18.77 -0.92,18.85 -0.98,18.94 -1.07,19.00 -1.16,19.06 -1.26,19.09 -1.36,19.12 -1.47,19.12 -1.57,19.11 -1.67,19.07 -1.77,19.03 -1.85,18.97 -1.94,18.90 -1.99,18.81 -2.05,18.72 -2.07,18.61 -2.10,18.51 -2.10,18.51 -2.10,18.51 -2.39,16.85 -2.69,15.18 -2.52,13.07 -2.35,10.95 -2.05,8.26 -1.75,5.57 -1.30,2.73 -0.85,-0.10 -0.83,-0.20 -0.80,-0.30 -0.75,-0.39 -0.71,-0.48 -0.64,-0.56 -0.57,-0.64 -0.48,-0.70 -0.40,-0.76 -0.30,-0.80 -0.20,-0.83 -0.10,-0.84 -0.00,-0.86 0.10,-0.85 0.20,-0.83 0.30,-0.80 0.40,-0.76 0.48,-0.70 0.57,-0.64 0.64,-0.56 0.70,-0.49 0.75,-0.39 0.80,-0.30 0.83,-0.20 0.85,-0.10 0.85,-0.00 0.85,0.10 0.85,0.10 L 0.85,0.10 Z"/></g><g transform="translate(324.2403564453125 165.81707763671875) rotate(0 5.8599853515625 10.82061767578125)" stroke="none"><path fill="#000000" d="M -0.02,-0.86 Q -0.02,-0.86 1.29,-1.09 2.60,-1.31 4.05,-1.18 5.50,-1.05 6.97,-0.70 8.45,-0.34 9.87,0.45 11.28,1.26 12.42,2.92 13.55,4.58 13.98,6.78 14.41,8.97 13.95,11.43 13.49,13.89 12.11,16.00 10.73,18.10 8.76,19.54 6.80,20.98 4.84,21.73 2.87,22.49 0.56,22.05 -1.74,21.62 -1.84,21.58 -1.94,21.54 -2.02,21.47 -2.10,21.40 -2.15,21.31 -2.20,21.22 -2.22,21.11 -2.24,21.01 -2.23,20.90 -2.22,20.80 -2.17,20.70 -2.12,20.61 -2.05,20.53 -1.98,20.45 -1.88,20.41 -1.79,20.36 -1.68,20.34 -1.58,20.33 -1.47,20.35 -1.37,20.37 -1.27,20.42 -1.18,20.47 -1.11,20.55 -1.04,20.63 -0.99,20.72 -0.95,20.82 -0.94,20.93 -0.93,21.03 -0.96,21.14 -0.98,21.24 -1.04,21.33 -1.10,21.42 -1.18,21.49 -1.26,21.55 -1.36,21.59 -1.46,21.63 -1.57,21.63 -1.67,21.64 -1.77,21.61 -1.88,21.58 -1.96,21.51 -2.05,21.45 -2.11,21.37 -2.17,21.28 -2.21,21.18 -2.24,21.08 -2.24,20.97 -2.23,20.87 -2.20,20.77 -2.16,20.67 -2.10,20.58 -2.03,20.50 -1.94,20.44 -1.85,20.38 -1.75,20.36 -1.65,20.33 -1.54,20.34 -1.43,20.35 -1.43,20.35 -1.43,20.35 0.22,20.08 1.88,19.81 3.50,19.19 5.12,18.56 6.72,17.47 8.32,16.38 9.47,14.79 10.62,13.20 11.07,11.29 11.52,9.38 11.30,7.70 11.09,6.01 10.43,4.76 9.77,3.50 8.76,2.85 7.75,2.19 6.49,1.82 5.24,1.45 3.96,1.30 2.67,1.15 1.35,1.01 0.02,0.86 -0.07,0.86 -0.18,0.85 -0.28,0.81 -0.38,0.78 -0.46,0.72 -0.55,0.66 -0.62,0.59 -0.70,0.51 -0.75,0.42 -0.80,0.33 -0.83,0.23 -0.86,0.12 -0.86,0.02 -0.86,-0.07 -0.84,-0.18 -0.82,-0.28 -0.77,-0.37 -0.73,-0.47 -0.66,-0.55 -0.59,-0.63 -0.51,-0.69 -0.42,-0.75 -0.32,-0.79 -0.23,-0.83 -0.12,-0.85 -0.02,-0.86 -0.02,-0.86 L -0.02,-0.86 Z"/></g><g transform="translate(490.84967041015625 157.56008911132812) rotate(0 1.03216552734375 12.185684204101562)" stroke="none"><path fill="#000000" d="M 0.80,-0.09 Q 0.80,-0.09 1.29,3.13 1.77,6.35 2.06,9.46 2.34,12.57 2.57,15.28 2.79,18.00 2.34,20.93 1.89,23.85 1.84,23.95 1.79,24.04 1.72,24.12 1.64,24.20 1.55,24.24 1.45,24.29 1.35,24.31 1.24,24.32 1.14,24.30 1.04,24.28 0.94,24.23 0.85,24.18 0.78,24.10 0.71,24.03 0.66,23.93 0.62,23.83 0.61,23.73 0.60,23.62 0.63,23.52 0.65,23.41 0.71,23.32 0.76,23.23 0.84,23.17 0.93,23.10 1.03,23.06 1.13,23.02 1.23,23.02 1.34,23.01 1.44,23.05 1.54,23.08 1.63,23.14 1.72,23.20 1.78,23.28 1.84,23.37 1.87,23.47 1.91,23.57 1.90,23.68 1.90,23.78 1.87,23.88 1.83,23.98 1.76,24.07 1.70,24.15 1.61,24.21 1.52,24.27 1.42,24.29 1.32,24.32 1.21,24.31 1.10,24.31 1.01,24.26 0.91,24.22 0.83,24.15 0.75,24.08 0.69,23.99 0.64,23.90 0.62,23.79 0.60,23.69 0.61,23.58 0.63,23.48 0.63,23.48 0.63,23.48 0.64,20.83 0.65,18.18 0.42,15.47 0.18,12.76 -0.06,9.67 -0.32,6.58 -0.56,3.33 -0.80,0.09 -0.80,-0.00 -0.80,-0.10 -0.77,-0.19 -0.75,-0.29 -0.70,-0.37 -0.66,-0.46 -0.59,-0.53 -0.53,-0.61 -0.45,-0.66 -0.36,-0.71 -0.27,-0.75 -0.18,-0.78 -0.08,-0.79 0.00,-0.80 0.10,-0.79 0.20,-0.78 0.29,-0.74 0.38,-0.71 0.46,-0.65 0.54,-0.60 0.60,-0.52 0.66,-0.45 0.71,-0.36 0.75,-0.28 0.78,-0.18 0.80,-0.09 0.80,-0.09 L 0.80,-0.09 Z"/></g><g transform="translate(491.981689453125 159.69091796875) rotate(0 5.92657470703125 0.7324676513671875)" stroke="none"><path fill="#000000" d="M 0.04,-0.84 Q 0.04,-0.84 1.23,-0.96 2.43,-1.08 3.84,-0.95 5.26,-0.81 6.56,-0.75 7.86,-0.69 10.01,0.07 12.16,0.84 12.22,0.92 12.28,1.01 12.31,1.11 12.34,1.21 12.33,1.32 12.33,1.43 12.29,1.53 12.25,1.62 12.19,1.71 12.12,1.79 12.03,1.85 11.94,1.90 11.84,1.93 11.73,1.95 11.63,1.94 11.52,1.93 11.42,1.89 11.33,1.84 11.25,1.77 11.17,1.70 11.12,1.61 11.07,1.51 11.05,1.41 11.03,1.30 11.05,1.20 11.06,1.09 11.11,1.00 11.16,0.91 11.23,0.83 11.31,0.76 11.41,0.71 11.50,0.66 11.61,0.65 11.71,0.64 11.82,0.66 11.92,0.68 12.01,0.73 12.10,0.79 12.17,0.87 12.24,0.95 12.29,1.05 12.33,1.14 12.33,1.25 12.34,1.36 12.31,1.46 12.29,1.56 12.23,1.65 12.17,1.74 12.09,1.80 12.00,1.87 11.90,1.91 11.80,1.94 11.70,1.94 11.59,1.94 11.49,1.91 11.39,1.88 11.30,1.82 11.22,1.75 11.22,1.75 11.22,1.75 9.49,1.73 7.76,1.71 6.39,1.65 5.02,1.59 3.66,1.45 2.31,1.31 1.13,1.08 -0.04,0.84 -0.14,0.83 -0.24,0.81 -0.33,0.77 -0.43,0.73 -0.51,0.66 -0.59,0.60 -0.65,0.52 -0.72,0.44 -0.76,0.35 -0.80,0.26 -0.82,0.16 -0.84,0.06 -0.84,-0.04 -0.83,-0.14 -0.80,-0.24 -0.77,-0.33 -0.72,-0.42 -0.67,-0.51 -0.60,-0.58 -0.53,-0.66 -0.44,-0.71 -0.35,-0.77 -0.26,-0.80 -0.16,-0.83 -0.06,-0.84 0.04,-0.84 0.04,-0.84 L 0.04,-0.84 Z"/></g><g transform="translate(494.245849609375 169.8123779296875) rotate(0 4.7279052734375 1.1652984619140625)" stroke="none"><path fill="#000000" d="M 0.33,-0.74 Q 0.33,-0.74 1.37,-0.42 2.42,-0.09 3.55,0.18 4.68,0.46 6.99,1.05 9.30,1.64 9.40,1.67 9.50,1.70 9.59,1.77 9.67,1.83 9.74,1.91 9.80,2.00 9.83,2.10 9.86,2.20 9.86,2.31 9.86,2.42 9.82,2.52 9.78,2.62 9.72,2.70 9.65,2.78 9.56,2.84 9.47,2.90 9.37,2.92 9.27,2.95 9.16,2.94 9.05,2.93 8.96,2.89 8.86,2.85 8.78,2.78 8.70,2.71 8.65,2.61 8.59,2.52 8.57,2.42 8.55,2.31 8.57,2.21 8.58,2.10 8.63,2.01 8.68,1.91 8.75,1.84 8.83,1.76 8.92,1.71 9.02,1.67 9.12,1.65 9.23,1.64 9.33,1.66 9.44,1.68 9.53,1.73 9.62,1.78 9.69,1.86 9.76,1.94 9.81,2.04 9.85,2.13 9.86,2.24 9.87,2.35 9.84,2.45 9.81,2.55 9.76,2.64 9.70,2.73 9.62,2.80 9.53,2.86 9.44,2.90 9.34,2.94 9.23,2.94 9.12,2.94 9.12,2.94 9.12,2.94 6.62,2.76 4.12,2.57 2.84,2.21 1.55,1.86 0.61,1.30 -0.33,0.74 -0.41,0.69 -0.50,0.64 -0.57,0.57 -0.64,0.50 -0.69,0.42 -0.74,0.34 -0.77,0.24 -0.80,0.15 -0.81,0.05 -0.81,-0.04 -0.80,-0.14 -0.78,-0.23 -0.74,-0.32 -0.70,-0.41 -0.64,-0.49 -0.58,-0.57 -0.50,-0.63 -0.42,-0.69 -0.33,-0.73 -0.24,-0.77 -0.15,-0.79 -0.05,-0.81 0.04,-0.81 0.14,-0.80 0.23,-0.77 0.33,-0.74 0.33,-0.74 L 0.33,-0.74 Z"/></g><g transform="translate(494.11260986328125 179.26791381835938) rotate(0 6.19293212890625 0.8989715576171875)" stroke="none"><path fill="#000000" d="M 0.14,-0.81 Q 0.14,-0.81 2.14,-0.65 4.15,-0.49 5.87,-0.28 7.59,-0.06 9.59,0.47 11.58,1.02 11.68,1.05 11.79,1.08 11.87,1.14 11.96,1.20 12.02,1.29 12.08,1.38 12.11,1.48 12.14,1.58 12.14,1.69 12.13,1.79 12.10,1.89 12.06,1.99 11.99,2.08 11.93,2.16 11.84,2.21 11.75,2.27 11.64,2.30 11.54,2.32 11.43,2.31 11.33,2.30 11.23,2.26 11.13,2.22 11.06,2.15 10.98,2.07 10.92,1.98 10.87,1.89 10.85,1.78 10.83,1.68 10.85,1.57 10.86,1.47 10.91,1.37 10.96,1.28 11.04,1.21 11.11,1.13 11.21,1.08 11.30,1.04 11.41,1.02 11.51,1.01 11.62,1.03 11.72,1.05 11.81,1.10 11.91,1.16 11.98,1.24 12.05,1.32 12.09,1.41 12.13,1.51 12.14,1.62 12.14,1.72 12.12,1.83 12.09,1.93 12.03,2.02 11.98,2.11 11.89,2.17 11.81,2.24 11.71,2.28 11.61,2.31 11.50,2.31 11.40,2.32 11.40,2.32 11.40,2.32 9.36,2.29 7.32,2.26 5.52,2.06 3.73,1.87 1.79,1.34 -0.14,0.81 -0.23,0.78 -0.33,0.75 -0.42,0.70 -0.50,0.65 -0.57,0.58 -0.64,0.51 -0.70,0.43 -0.75,0.34 -0.78,0.25 -0.81,0.15 -0.82,0.05 -0.82,-0.04 -0.81,-0.14 -0.79,-0.24 -0.75,-0.33 -0.71,-0.42 -0.65,-0.50 -0.59,-0.58 -0.51,-0.64 -0.43,-0.70 -0.34,-0.74 -0.25,-0.78 -0.15,-0.80 -0.05,-0.82 0.04,-0.82 0.14,-0.81 0.14,-0.81 L 0.14,-0.81 Z"/></g><g transform="translate(365.52642822265625 343.6083679199219) rotate(0 -2.763458251953125 7.890716552734375)" stroke="none"><path fill="#000000" d="M -0.14,0.80 Q -0.14,0.80 -1.84,0.65 -3.55,0.51 -5.26,1.35 -6.97,2.20 -8.20,3.83 -9.44,5.46 -9.99,7.42 -10.54,9.37 -10.07,10.86 -9.60,12.36 -8.28,13.16 -6.96,13.97 -4.99,14.35 -3.02,14.73 -0.84,14.67 1.33,14.61 3.75,14.14 6.18,13.67 6.29,13.65 6.39,13.64 6.50,13.66 6.60,13.68 6.69,13.74 6.78,13.79 6.85,13.87 6.92,13.95 6.96,14.05 7.00,14.15 7.01,14.25 7.02,14.36 6.99,14.46 6.96,14.56 6.91,14.65 6.85,14.74 6.76,14.81 6.68,14.87 6.58,14.91 6.48,14.94 6.37,14.94 6.27,14.95 6.17,14.91 6.06,14.88 5.98,14.82 5.89,14.75 5.83,14.67 5.77,14.58 5.74,14.48 5.71,14.38 5.72,14.27 5.72,14.16 5.76,14.06 5.80,13.96 5.87,13.88 5.93,13.80 6.02,13.75 6.11,13.69 6.22,13.67 6.32,13.64 6.43,13.65 6.53,13.66 6.63,13.70 6.73,13.75 6.80,13.82 6.88,13.89 6.93,13.99 6.98,14.08 7.00,14.18 7.02,14.29 7.01,14.39 6.99,14.50 6.94,14.59 6.89,14.69 6.82,14.76 6.74,14.83 6.64,14.88 6.55,14.93 6.55,14.93 6.55,14.93 4.04,15.90 1.52,16.87 -1.02,17.20 -3.58,17.54 -6.08,16.96 -8.58,16.38 -10.38,14.94 -12.19,13.49 -12.77,11.12 -13.35,8.75 -12.50,6.22 -11.65,3.69 -9.85,1.78 -8.05,-0.11 -5.69,-0.92 -3.34,-1.73 -1.59,-1.26 0.14,-0.80 0.23,-0.77 0.32,-0.74 0.41,-0.69 0.49,-0.64 0.56,-0.57 0.63,-0.50 0.68,-0.42 0.74,-0.33 0.76,-0.24 0.79,-0.15 0.80,-0.05 0.81,0.04 0.79,0.14 0.77,0.23 0.73,0.32 0.69,0.41 0.63,0.49 0.57,0.57 0.50,0.63 0.42,0.69 0.33,0.73 0.24,0.77 0.14,0.79 0.05,0.81 -0.04,0.80 -0.14,0.80 -0.14,0.80 L -0.14,0.80 Z"/></g><g transform="translate(404.34869384765625 165.28436279296875) rotate(0 5.260650634765625 7.1582489013671875)" stroke="none"><path fill="#000000" d="M 0.78,0.05 Q 0.78,0.05 0.62,2.46 0.45,4.88 0.17,6.63 -0.11,8.38 -0.28,9.33 -0.45,10.27 -0.00,10.92 0.44,11.57 1.19,11.84 1.95,12.10 3.12,12.34 4.28,12.58 5.55,12.77 6.81,12.96 9.16,13.18 11.50,13.41 11.60,13.42 11.71,13.44 11.80,13.48 11.90,13.53 11.98,13.60 12.05,13.68 12.10,13.77 12.15,13.87 12.16,13.97 12.18,14.08 12.16,14.18 12.14,14.28 12.09,14.38 12.04,14.47 11.96,14.54 11.88,14.61 11.79,14.66 11.69,14.70 11.58,14.71 11.48,14.72 11.38,14.70 11.27,14.67 11.18,14.62 11.09,14.56 11.02,14.48 10.96,14.40 10.92,14.30 10.88,14.20 10.88,14.09 10.87,13.99 10.90,13.88 10.93,13.78 10.99,13.69 11.05,13.61 11.14,13.54 11.22,13.48 11.33,13.45 11.43,13.42 11.53,13.42 11.64,13.42 11.74,13.46 11.84,13.49 11.92,13.56 12.01,13.62 12.07,13.71 12.12,13.80 12.15,13.90 12.18,14.00 12.17,14.11 12.16,14.22 12.12,14.31 12.08,14.41 12.01,14.49 11.94,14.57 11.85,14.63 11.76,14.68 11.65,14.70 11.55,14.72 11.55,14.72 11.55,14.72 9.03,14.84 6.52,14.96 5.18,14.76 3.85,14.56 2.51,14.24 1.17,13.93 0.16,13.43 -0.84,12.93 -1.42,12.20 -1.99,11.47 -2.03,10.72 -2.07,9.98 -1.89,9.05 -1.71,8.12 -1.42,6.44 -1.14,4.76 -0.96,2.35 -0.78,-0.05 -0.77,-0.15 -0.75,-0.24 -0.71,-0.33 -0.67,-0.41 -0.61,-0.49 -0.55,-0.56 -0.47,-0.62 -0.40,-0.68 -0.31,-0.72 -0.22,-0.75 -0.13,-0.77 -0.03,-0.79 0.05,-0.78 0.15,-0.77 0.24,-0.74 0.33,-0.71 0.41,-0.66 0.49,-0.61 0.56,-0.54 0.62,-0.48 0.67,-0.39 0.72,-0.31 0.75,-0.22 0.78,-0.13 0.78,-0.03 0.78,0.05 0.78,0.05 L 0.78,0.05 Z"/></g><g transform="translate(31.8416748046875 185.0611572265625) rotate(0 0.6659011840820312 7.491180419921875)" stroke="none"><path fill="#000000" d="M 0.09,-0.75 Q 0.09,-0.75 1.05,-0.74 2.01,-0.73 3.02,0.08 4.03,0.89 4.65,2.21 5.28,3.52 5.44,5.10 5.60,6.68 5.02,8.51 4.44,10.33 3.01,11.90 1.57,13.46 -0.16,14.43 -1.91,15.40 -3.42,15.60 -4.93,15.79 -6.07,15.09 -7.20,14.39 -6.92,13.39 -6.64,12.38 -5.44,12.12 -4.25,11.85 -2.48,11.87 -0.72,11.89 0.93,12.07 2.59,12.24 5.35,12.82 8.11,13.40 8.21,13.43 8.32,13.45 8.40,13.51 8.49,13.57 8.56,13.65 8.62,13.74 8.66,13.84 8.69,13.94 8.69,14.05 8.70,14.15 8.66,14.25 8.63,14.35 8.57,14.44 8.50,14.52 8.42,14.58 8.33,14.65 8.23,14.67 8.12,14.70 8.02,14.70 7.91,14.69 7.81,14.66 7.71,14.62 7.63,14.55 7.55,14.48 7.49,14.39 7.44,14.30 7.41,14.20 7.39,14.09 7.40,13.99 7.41,13.88 7.46,13.79 7.50,13.69 7.57,13.61 7.64,13.53 7.74,13.48 7.83,13.43 7.93,13.41 8.04,13.40 8.14,13.41 8.25,13.43 8.34,13.48 8.44,13.53 8.51,13.60 8.59,13.68 8.63,13.77 8.68,13.87 8.69,13.98 8.70,14.08 8.68,14.19 8.66,14.29 8.60,14.38 8.55,14.47 8.47,14.54 8.39,14.61 8.29,14.65 8.19,14.69 8.09,14.70 7.98,14.71 7.98,14.71 7.98,14.71 5.17,14.57 2.36,14.43 0.80,14.28 -0.76,14.12 -2.34,14.09 -3.92,14.06 -4.93,14.12 -5.93,14.18 -5.48,13.87 -5.02,13.56 -4.00,13.44 -2.97,13.32 -1.54,12.56 -0.11,11.80 1.05,10.64 2.23,9.47 2.74,8.13 3.25,6.79 3.19,5.59 3.13,4.39 2.78,3.41 2.44,2.43 1.97,1.81 1.51,1.19 0.70,0.97 -0.09,0.75 -0.18,0.73 -0.27,0.71 -0.35,0.66 -0.43,0.62 -0.50,0.56 -0.57,0.50 -0.62,0.42 -0.67,0.34 -0.71,0.26 -0.74,0.17 -0.75,0.08 -0.76,-0.00 -0.75,-0.09 -0.73,-0.18 -0.70,-0.27 -0.67,-0.36 -0.61,-0.43 -0.56,-0.51 -0.49,-0.57 -0.42,-0.63 -0.34,-0.67 -0.26,-0.71 -0.17,-0.73 -0.08,-0.75 0.00,-0.75 0.09,-0.75 0.09,-0.75 L 0.09,-0.75 Z"/></g><g transform="translate(47.0242919921875 187.3917236328125) rotate(0 4.56146240234375 7.3580322265625)" stroke="none"><path fill="#000000" d="M 0.76,0.00 Q 0.76,0.00 0.83,1.92 0.89,3.83 0.69,5.86 0.49,7.89 0.22,9.59 -0.04,11.28 1.00,11.92 2.06,12.55 4.01,12.77 5.96,12.99 7.72,13.18 9.47,13.37 9.58,13.39 9.68,13.41 9.77,13.46 9.87,13.51 9.94,13.59 10.01,13.67 10.05,13.77 10.09,13.87 10.10,13.97 10.11,14.08 10.08,14.18 10.06,14.28 10.00,14.37 9.94,14.46 9.86,14.53 9.78,14.59 9.68,14.63 9.58,14.67 9.47,14.67 9.37,14.67 9.26,14.64 9.16,14.61 9.08,14.55 8.99,14.49 8.93,14.40 8.87,14.31 8.83,14.21 8.80,14.11 8.81,14.00 8.81,13.90 8.85,13.80 8.88,13.70 8.95,13.62 9.02,13.53 9.11,13.48 9.20,13.42 9.30,13.39 9.40,13.37 9.51,13.38 9.61,13.39 9.71,13.43 9.81,13.47 9.89,13.54 9.97,13.61 10.02,13.70 10.07,13.80 10.09,13.90 10.11,14.01 10.10,14.11 10.08,14.22 10.03,14.31 9.99,14.41 9.91,14.48 9.84,14.56 9.74,14.60 9.65,14.65 9.54,14.67 9.44,14.68 9.44,14.68 9.44,14.68 7.58,14.77 5.73,14.86 3.35,14.55 0.96,14.24 -0.34,13.09 -1.65,11.95 -1.55,9.81 -1.45,7.68 -1.21,5.75 -0.97,3.81 -0.86,1.90 -0.76,-0.00 -0.75,-0.09 -0.74,-0.19 -0.70,-0.27 -0.67,-0.36 -0.62,-0.43 -0.56,-0.51 -0.49,-0.57 -0.42,-0.63 -0.34,-0.67 -0.26,-0.72 -0.17,-0.74 -0.08,-0.76 0.00,-0.76 0.10,-0.76 0.18,-0.73 0.27,-0.71 0.36,-0.67 0.44,-0.62 0.51,-0.56 0.57,-0.50 0.63,-0.42 0.68,-0.34 0.71,-0.26 0.74,-0.17 0.75,-0.08 0.76,0.00 0.76,0.00 L 0.76,0.00 Z"/></g><g transform="translate(221.82421875 342.2099914550781) rotate(0 2.4305877685546875 9.92169189453125)" stroke="none"><path fill="#000000" d="M 0.64,-0.47 Q 0.64,-0.47 1.64,0.74 2.63,1.97 3.34,3.59 4.06,5.21 4.42,6.79 4.78,8.38 4.57,10.18 4.36,11.99 3.36,13.66 2.37,15.33 0.85,16.53 -0.66,17.73 -2.32,18.36 -3.97,19.00 -5.30,18.88 -6.64,18.77 -7.27,17.41 -7.91,16.05 -7.34,15.55 -6.77,15.05 -4.94,14.60 -3.12,14.15 -0.86,14.18 1.40,14.21 3.52,14.76 5.65,15.32 7.34,16.10 9.02,16.88 10.64,17.89 12.26,18.89 12.34,18.95 12.43,19.01 12.49,19.09 12.56,19.18 12.59,19.28 12.62,19.38 12.62,19.49 12.62,19.60 12.58,19.70 12.54,19.80 12.48,19.88 12.41,19.96 12.32,20.02 12.23,20.08 12.13,20.10 12.03,20.13 11.92,20.12 11.82,20.11 11.72,20.07 11.62,20.03 11.54,19.96 11.46,19.89 11.41,19.80 11.35,19.71 11.33,19.60 11.31,19.50 11.33,19.39 11.34,19.29 11.39,19.19 11.43,19.10 11.51,19.02 11.58,18.95 11.68,18.90 11.77,18.85 11.88,18.83 11.98,18.82 12.09,18.84 12.19,18.86 12.28,18.91 12.38,18.96 12.45,19.04 12.52,19.12 12.56,19.22 12.61,19.31 12.62,19.42 12.62,19.52 12.60,19.63 12.57,19.73 12.52,19.82 12.46,19.91 12.38,19.98 12.30,20.05 12.20,20.08 12.10,20.12 11.99,20.12 11.89,20.13 11.78,20.10 11.68,20.07 11.68,20.07 11.68,20.07 9.93,19.42 8.17,18.78 6.62,18.11 5.08,17.44 3.20,16.92 1.33,16.40 -0.67,16.34 -2.68,16.28 -4.37,16.52 -6.06,16.77 -5.37,16.82 -4.67,16.88 -3.35,16.39 -2.03,15.90 -0.78,14.98 0.46,14.07 1.30,12.84 2.13,11.60 2.36,10.19 2.59,8.77 2.35,7.37 2.12,5.97 1.62,4.52 1.11,3.08 0.23,1.78 -0.64,0.47 -0.69,0.39 -0.74,0.31 -0.76,0.21 -0.79,0.12 -0.79,0.02 -0.80,-0.06 -0.78,-0.16 -0.76,-0.25 -0.71,-0.34 -0.67,-0.43 -0.61,-0.50 -0.55,-0.58 -0.47,-0.64 -0.39,-0.69 -0.30,-0.73 -0.21,-0.77 -0.12,-0.78 -0.02,-0.80 0.06,-0.79 0.16,-0.78 0.25,-0.75 0.34,-0.72 0.43,-0.67 0.51,-0.61 0.57,-0.54 0.64,-0.47 0.64,-0.47 L 0.64,-0.47 Z"/></g><g transform="translate(244.73135375976562 344.5405578613281) rotate(0 5.593597412109375 7.4912109375)" stroke="none"><path fill="#000000" d="M 0.81,0.15 Q 0.81,0.15 0.49,2.24 0.17,4.32 -0.28,6.41 -0.74,8.50 -1.02,10.04 -1.30,11.58 -1.30,12.19 -1.29,12.79 -0.71,13.02 -0.13,13.25 1.06,13.38 2.26,13.50 4.11,13.59 5.95,13.68 7.95,13.81 9.95,13.94 11.60,14.13 13.26,14.31 13.36,14.33 13.47,14.35 13.56,14.40 13.65,14.45 13.72,14.53 13.80,14.61 13.84,14.70 13.88,14.80 13.89,14.91 13.90,15.01 13.88,15.12 13.85,15.22 13.80,15.31 13.74,15.40 13.66,15.47 13.58,15.53 13.48,15.57 13.38,15.61 13.27,15.61 13.17,15.62 13.06,15.59 12.96,15.56 12.88,15.50 12.79,15.44 12.73,15.35 12.66,15.27 12.63,15.16 12.60,15.06 12.60,14.96 12.60,14.85 12.64,14.75 12.67,14.65 12.74,14.57 12.80,14.48 12.89,14.42 12.98,14.37 13.08,14.34 13.19,14.31 13.29,14.32 13.40,14.33 13.50,14.37 13.59,14.41 13.67,14.48 13.75,14.55 13.81,14.64 13.86,14.73 13.88,14.84 13.90,14.94 13.89,15.05 13.88,15.15 13.83,15.25 13.79,15.34 13.71,15.42 13.64,15.50 13.54,15.54 13.45,15.59 13.34,15.61 13.24,15.62 13.24,15.62 13.24,15.62 11.57,15.76 9.91,15.89 7.87,15.94 5.83,15.99 3.86,15.88 1.88,15.78 0.30,15.44 -1.26,15.10 -2.17,14.34 -3.07,13.58 -3.24,12.39 -3.40,11.21 -3.08,9.62 -2.77,8.03 -2.27,5.98 -1.77,3.94 -1.29,1.89 -0.81,-0.15 -0.77,-0.25 -0.74,-0.34 -0.69,-0.43 -0.64,-0.51 -0.57,-0.58 -0.50,-0.65 -0.41,-0.70 -0.33,-0.75 -0.23,-0.78 -0.13,-0.81 -0.04,-0.81 0.05,-0.82 0.15,-0.80 0.25,-0.78 0.34,-0.74 0.43,-0.70 0.51,-0.63 0.58,-0.57 0.65,-0.49 0.71,-0.41 0.75,-0.32 0.79,-0.23 0.80,-0.13 0.82,-0.04 0.81,0.05 0.81,0.15 0.81,0.15 L 0.81,0.15 Z"/></g><g stroke-linecap="round"><g transform="translate(291.01177978515625 237.26651000976562) rotate(0 30.265350341796875 -19.710189819335938)"><path d="M0 0 C14.71 -9.58, 29.42 -19.16, 60.53 -39.42 M0 0 C17.27 -11.25, 34.55 -22.5, 60.53 -39.42" stroke="#c92a2a" stroke-width="0.5" fill="none"/></g><g transform="translate(291.01177978515625 237.26651000976562) rotate(0 30.265350341796875 -19.710189819335938)"><path d="M60.53 -39.42 L52.6 -26.69 L45.68 -37.31 L60.53 -39.42" stroke="none" stroke-width="0" fill="#c92a2a" fill-rule="evenodd"/><path d="M60.53 -39.42 C58.6 -36.33, 56.68 -33.23, 52.6 -26.69 M60.53 -39.42 C58.27 -35.79, 56 -32.15, 52.6 -26.69 M52.6 -26.69 C50.74 -29.55, 48.88 -32.4, 45.68 -37.31 M52.6 -26.69 C50.23 -30.33, 47.86 -33.97, 45.68 -37.31 M45.68 -37.31 C50.57 -38.01, 55.46 -38.7, 60.53 -39.42 M45.68 -37.31 C51.54 -38.14, 57.39 -38.98, 60.53 -39.42 M60.53 -39.42 C60.53 -39.42, 60.53 -39.42, 60.53 -39.42 M60.53 -39.42 C60.53 -39.42, 60.53 -39.42, 60.53 -39.42" stroke="#c92a2a" stroke-width="0.5" fill="none"/></g></g><mask/><g stroke-linecap="round"><g transform="translate(467.609619140625 142.7774658203125) rotate(0 -0.53271484375 26.036087036132812)"><path d="M0 0 C-0.23 11.39, -0.47 22.77, -1.07 52.07 M0 0 C-0.35 17.29, -0.71 34.58, -1.07 52.07" stroke="#c92a2a" stroke-width="0.5" fill="none"/></g><g transform="translate(467.609619140625 142.7774658203125) rotate(0 -0.53271484375 26.036087036132812)"><path d="M-1.07 52.07 L-7.13 38.35 L5.55 38.61 L-1.07 52.07" stroke="none" stroke-width="0" fill="#c92a2a" fill-rule="evenodd"/><path d="M-1.07 52.07 C-2.39 49.07, -3.72 46.07, -7.13 38.35 M-1.07 52.07 C-3.08 47.52, -5.09 42.96, -7.13 38.35 M-7.13 38.35 C-4.47 38.41, -1.8 38.46, 5.55 38.61 M-7.13 38.35 C-3.57 38.42, -0.02 38.5, 5.55 38.61 M5.55 38.61 C3.9 41.96, 2.26 45.31, -1.07 52.07 M5.55 38.61 C3.46 42.86, 1.38 47.1, -1.07 52.07 M-1.07 52.07 C-1.07 52.07, -1.07 52.07, -1.07 52.07 M-1.07 52.07 C-1.07 52.07, -1.07 52.07, -1.07 52.07" stroke="#c92a2a" stroke-width="0.5" fill="none"/></g></g><mask/><g stroke-linecap="round"><g transform="translate(20.587875366210938 10) rotate(0 33.22864532470703 12.385467529296875)"><path d="M0 0 C23.35 8.7, 46.69 17.4, 66.46 24.77 M0 0 C15.22 5.67, 30.45 11.35, 66.46 24.77" stroke="#c92a2a" stroke-width="0.5" fill="none"/></g><g transform="translate(20.587875366210938 10) rotate(0 33.22864532470703 12.385467529296875)"><path d="M66.46 24.77 L51.5 25.96 L55.93 14.08 L66.46 24.77" stroke="none" stroke-width="0" fill="#c92a2a" fill-rule="evenodd"/><path d="M66.46 24.77 C61.2 25.19, 55.95 25.61, 51.5 25.96 M66.46 24.77 C63.03 25.04, 59.61 25.32, 51.5 25.96 M51.5 25.96 C52.83 22.41, 54.15 18.86, 55.93 14.08 M51.5 25.96 C52.61 23.01, 53.71 20.05, 55.93 14.08 M55.93 14.08 C58.89 17.09, 61.85 20.09, 66.46 24.77 M55.93 14.08 C58.04 16.22, 60.15 18.36, 66.46 24.77 M66.46 24.77 C66.46 24.77, 66.46 24.77, 66.46 24.77 M66.46 24.77 C66.46 24.77, 66.46 24.77, 66.46 24.77" stroke="#c92a2a" stroke-width="0.5" fill="none"/></g></g><mask/><g stroke-linecap="round"><g transform="translate(83.6490478515625 38.69964599609375) rotate(0 -36.82452392578125 -1.6647186279296875)"><path d="M0 0 C-14.74 -0.67, -29.48 -1.33, -73.65 -3.33" stroke="#000000" stroke-width="1" fill="none" stroke-dasharray="8 8.5"/></g></g><mask/></svg>