<svg version="1.1" xmlns="http://www.w3.org/2000/svg" viewBox="0 0 220 420" width="220" height="420" class="excalidraw-svg">
  <!-- svg-source:excalidraw -->
  
  <defs>
    <style class="style-fonts">
      
    </style>
    
  </defs>
  <g stroke-linecap="round" transform="translate(10 90) rotate(0 100 40)"><path d="M0 0 L200 0 L200 80 L0 80" stroke="none" stroke-width="0" fill="#a5d8ff"></path><path d="M0 0 C52.77 0, 105.54 0, 200 0 M0 0 C65.77 0, 131.54 0, 200 0 M200 0 C200 24.84, 200 49.68, 200 80 M200 0 C200 17.77, 200 35.55, 200 80 M200 80 C124.19 80, 48.38 80, 0 80 M200 80 C135.22 80, 70.44 80, 0 80 M0 80 C0 50.37, 0 20.73, 0 0 M0 80 C0 57.94, 0 35.88, 0 0" stroke="#1e1e1e" stroke-width="4" fill="none"></path></g><g stroke-linecap="round"><g transform="translate(170 250) rotate(0 -60 -40)" fill-rule="evenodd"><path d="M0 0 L0 -80 L-120 -80 L-120 0 L-71.73 0 L-71.85 -0.85 L-71.9 -1.83 L-71.85 -2.81 L-71.71 -3.78 L-71.47 -4.74 L-71.14 -5.66 L-70.72 -6.55 L-70.21 -7.39 L-69.63 -8.18 L-68.97 -8.9 L-68.24 -9.56 L-67.46 -10.15 L-66.61 -10.65 L-65.73 -11.07 L-64.8 -11.4 L-63.85 -11.64 L-62.88 -11.78 L-61.9 -11.83 L-60.92 -11.78 L-59.95 -11.64 L-59 -11.4 L-58.07 -11.07 L-57.19 -10.65 L-56.34 -10.15 L-55.56 -9.56 L-54.83 -8.9 L-54.17 -8.18 L-53.59 -7.39 L-53.08 -6.55 L-52.66 -5.66 L-52.33 -4.74 L-52.09 -3.78 L-51.95 -2.81 L-51.9 -1.83 L-51.95 -0.85 L-52.07 0 L0 0 L-85.16 -17.16 L-85.3 -16.19 L-85.54 -15.24 L-85.87 -14.32 L-86.29 -13.43 L-86.8 -12.59 L-87.38 -11.8 L-88.04 -11.07 L-88.77 -10.41 L-89.56 -9.83 L-90.4 -9.33 L-91.29 -8.91 L-92.21 -8.58 L-93.16 -8.34 L-94.13 -8.19 L-95.11 -8.14 L-96.09 -8.19 L-97.06 -8.34 L-98.02 -8.58 L-98.94 -8.91 L-99.83 -9.33 L-100.67 -9.83 L-101.46 -10.41 L-102.18 -11.07 L-102.84 -11.8 L-103.43 -12.59 L-103.93 -13.43 L-104.35 -14.32 L-104.68 -15.24 L-104.92 -16.19 L-105.06 -17.16 L-105.11 -18.14 L-105.06 -19.12 L-104.92 -20.1 L-104.68 -21.05 L-104.35 -21.97 L-103.93 -22.86 L-103.43 -23.7 L-102.84 -24.49 L-102.18 -25.22 L-101.46 -25.87 L-100.67 -26.46 L-99.83 -26.96 L-98.94 -27.38 L-98.02 -27.71 L-97.06 -27.95 L-96.09 -28.1 L-95.11 -28.14 L-94.13 -28.1 L-93.16 -27.95 L-92.21 -27.71 L-91.29 -27.38 L-90.4 -26.96 L-89.56 -26.46 L-88.77 -25.87 L-88.04 -25.22 L-87.38 -24.49 L-86.8 -23.7 L-86.29 -22.86 L-85.87 -21.97 L-85.54 -21.05 L-85.3 -20.1 L-85.16 -19.12 L-85.11 -18.14 L-85.16 -17.16 L-83.63 -57.53 L-83.78 -56.56 L-84.02 -55.61 L-84.35 -54.69 L-84.77 -53.8 L-85.27 -52.96 L-85.86 -52.17 L-86.51 -51.44 L-87.24 -50.78 L-88.03 -50.2 L-88.87 -49.69 L-89.76 -49.27 L-90.68 -48.94 L-91.63 -48.71 L-92.61 -48.56 L-93.59 -48.51 L-94.57 -48.56 L-95.54 -48.71 L-96.49 -48.94 L-97.41 -49.27 L-98.3 -49.69 L-99.14 -50.2 L-99.93 -50.78 L-100.66 -51.44 L-101.32 -52.17 L-101.9 -52.96 L-102.4 -53.8 L-102.82 -54.69 L-103.16 -55.61 L-103.39 -56.56 L-103.54 -57.53 L-103.59 -58.51 L-103.54 -59.49 L-103.39 -60.46 L-103.16 -61.42 L-102.82 -62.34 L-102.4 -63.23 L-101.9 -64.07 L-101.32 -64.86 L-100.66 -65.58 L-99.93 -66.24 L-99.14 -66.83 L-98.3 -67.33 L-97.41 -67.75 L-96.49 -68.08 L-95.54 -68.32 L-94.57 -68.46 L-93.59 -68.51 L-92.61 -68.46 L-91.63 -68.32 L-90.68 -68.08 L-89.76 -67.75 L-88.87 -67.33 L-88.03 -66.83 L-87.24 -66.24 L-86.51 -65.58 L-85.86 -64.86 L-85.27 -64.07 L-84.77 -63.23 L-84.35 -62.34 L-84.02 -61.42 L-83.78 -60.46 L-83.63 -59.49 L-83.59 -58.51 L-83.63 -57.53 L-37.25 -45.82 L-37.39 -44.85 L-37.63 -43.9 L-37.96 -42.97 L-38.38 -42.09 L-38.89 -41.25 L-39.47 -40.46 L-40.13 -39.73 L-40.86 -39.07 L-41.65 -38.49 L-42.49 -37.98 L-43.38 -37.56 L-44.3 -37.23 L-45.25 -36.99 L-46.22 -36.85 L-47.2 -36.8 L-48.18 -36.85 L-49.15 -36.99 L-50.11 -37.23 L-51.03 -37.56 L-51.92 -37.98 L-52.76 -38.49 L-53.55 -39.07 L-54.27 -39.73 L-54.93 -40.46 L-55.52 -41.25 L-56.02 -42.09 L-56.44 -42.97 L-56.77 -43.9 L-57.01 -44.85 L-57.15 -45.82 L-57.2 -46.8 L-57.15 -47.78 L-57.01 -48.75 L-56.77 -49.7 L-56.44 -50.63 L-56.02 -51.51 L-55.52 -52.36 L-54.93 -53.14 L-54.27 -53.87 L-53.55 -54.53 L-52.76 -55.12 L-51.92 -55.62 L-51.03 -56.04 L-50.11 -56.37 L-49.15 -56.61 L-48.18 -56.75 L-47.2 -56.8 L-46.22 -56.75 L-45.25 -56.61 L-44.3 -56.37 L-43.38 -56.04 L-42.49 -55.62 L-41.65 -55.12 L-40.86 -54.53 L-40.13 -53.87 L-39.47 -53.14 L-38.89 -52.36 L-38.38 -51.51 L-37.96 -50.63 L-37.63 -49.7 L-37.39 -48.75 L-37.25 -47.78 L-37.2 -46.8 L-37.25 -45.82 L-5.46 -25.29 L-5.6 -24.32 L-5.84 -23.36 L-6.17 -22.44 L-6.59 -21.55 L-7.09 -20.71 L-7.68 -19.92 L-8.34 -19.2 L-9.06 -18.54 L-9.85 -17.95 L-10.69 -17.45 L-11.58 -17.03 L-12.5 -16.7 L-13.46 -16.46 L-14.43 -16.32 L-15.41 -16.27 L-16.39 -16.32 L-17.36 -16.46 L-18.31 -16.7 L-19.23 -17.03 L-20.12 -17.45 L-20.96 -17.95 L-21.75 -18.54 L-22.48 -19.2 L-23.14 -19.92 L-23.72 -20.71 L-24.23 -21.55 L-24.65 -22.44 L-24.98 -23.36 L-25.22 -24.32 L-25.36 -25.29 L-25.41 -26.27 L-25.36 -27.25 L-25.22 -28.22 L-24.98 -29.17 L-24.65 -30.09 L-24.23 -30.98 L-23.72 -31.82 L-23.14 -32.61 L-22.48 -33.34 L-21.75 -34 L-20.96 -34.58 L-20.12 -35.09 L-19.23 -35.51 L-18.31 -35.84 L-17.36 -36.07 L-16.39 -36.22 L-15.41 -36.27 L-14.43 -36.22 L-13.46 -36.07 L-12.5 -35.84 L-11.58 -35.51 L-10.69 -35.09 L-9.85 -34.58 L-9.06 -34 L-8.34 -33.34 L-7.68 -32.61 L-7.09 -31.82 L-6.59 -30.98 L-6.17 -30.09 L-5.84 -29.17 L-5.6 -28.22 L-5.46 -27.25 L-5.41 -26.27 L-5.46 -25.29 L-5.46 -25.29 L-37.25 -45.82 L-83.63 -57.53 L-85.16 -17.16 L0 0" stroke="none" stroke-width="0" fill="#fff360" fill-rule="evenodd"></path><path d="M0 0 C0 -20.87, 0 -41.74, 0 -80 M0 0 C0 -19.29, 0 -38.59, 0 -80 M0 -80 C-26.17 -80, -52.34 -80, -120 -80 M0 -80 C-37.69 -80, -75.39 -80, -120 -80 M-120 -80 C-120 -49.09, -120 -18.17, -120 0 M-120 -80 C-120 -51.32, -120 -22.65, -120 0 M-120 0 C-110.21 0, -100.41 0, -71.73 0 M-120 0 C-108.88 0, -97.77 0, -71.73 0 M-71.73 0 C-71.76 -0.23, -71.79 -0.46, -71.85 -0.85 M-71.73 0 C-71.77 -0.29, -71.81 -0.57, -71.85 -0.85 M-71.85 -0.85 C-71.87 -1.14, -71.88 -1.42, -71.9 -1.83 M-71.85 -0.85 C-71.87 -1.18, -71.88 -1.51, -71.9 -1.83 M-71.9 -1.83 C-71.88 -2.17, -71.87 -2.5, -71.85 -2.81 M-71.9 -1.83 C-71.88 -2.18, -71.87 -2.52, -71.85 -2.81 M-71.85 -2.81 C-71.8 -3.19, -71.74 -3.56, -71.71 -3.78 M-71.85 -2.81 C-71.81 -3.06, -71.78 -3.31, -71.71 -3.78 M-71.71 -3.78 C-71.62 -4.12, -71.54 -4.45, -71.47 -4.74 M-71.71 -3.78 C-71.64 -4.07, -71.57 -4.35, -71.47 -4.74 M-71.47 -4.74 C-71.39 -4.97, -71.3 -5.2, -71.14 -5.66 M-71.47 -4.74 C-71.34 -5.09, -71.22 -5.43, -71.14 -5.66 M-71.14 -5.66 C-71.03 -5.89, -70.92 -6.11, -70.72 -6.55 M-71.14 -5.66 C-71.02 -5.91, -70.91 -6.15, -70.72 -6.55 M-70.72 -6.55 C-70.61 -6.73, -70.5 -6.91, -70.21 -7.39 M-70.72 -6.55 C-70.54 -6.84, -70.37 -7.13, -70.21 -7.39 M-70.21 -7.39 C-70.02 -7.64, -69.83 -7.9, -69.63 -8.18 M-70.21 -7.39 C-70.03 -7.64, -69.85 -7.88, -69.63 -8.18 M-69.63 -8.18 C-69.46 -8.37, -69.28 -8.56, -68.97 -8.9 M-69.63 -8.18 C-69.38 -8.45, -69.13 -8.73, -68.97 -8.9 M-68.97 -8.9 C-68.8 -9.06, -68.63 -9.22, -68.24 -9.56 M-68.97 -8.9 C-68.8 -9.06, -68.63 -9.21, -68.24 -9.56 M-68.24 -9.56 C-67.98 -9.76, -67.71 -9.96, -67.46 -10.15 M-68.24 -9.56 C-67.97 -9.77, -67.69 -9.98, -67.46 -10.15 M-67.46 -10.15 C-67.13 -10.34, -66.81 -10.53, -66.61 -10.65 M-67.46 -10.15 C-67.12 -10.35, -66.79 -10.55, -66.61 -10.65 M-66.61 -10.65 C-66.39 -10.76, -66.17 -10.86, -65.73 -11.07 M-66.61 -10.65 C-66.34 -10.78, -66.06 -10.91, -65.73 -11.07 M-65.73 -11.07 C-65.39 -11.19, -65.06 -11.31, -64.8 -11.4 M-65.73 -11.07 C-65.4 -11.19, -65.08 -11.3, -64.8 -11.4 M-64.8 -11.4 C-64.45 -11.49, -64.09 -11.58, -63.85 -11.64 M-64.8 -11.4 C-64.46 -11.49, -64.12 -11.57, -63.85 -11.64 M-63.85 -11.64 C-63.57 -11.68, -63.3 -11.72, -62.88 -11.78 M-63.85 -11.64 C-63.48 -11.7, -63.11 -11.75, -62.88 -11.78 M-62.88 -11.78 C-62.55 -11.8, -62.22 -11.82, -61.9 -11.83 M-62.88 -11.78 C-62.52 -11.8, -62.16 -11.82, -61.9 -11.83 M-61.9 -11.83 C-61.63 -11.82, -61.35 -11.81, -60.92 -11.78 M-61.9 -11.83 C-61.54 -11.82, -61.17 -11.8, -60.92 -11.78 M-60.92 -11.78 C-60.61 -11.74, -60.29 -11.69, -59.95 -11.64 M-60.92 -11.78 C-60.66 -11.75, -60.4 -11.71, -59.95 -11.64 M-59.95 -11.64 C-59.59 -11.55, -59.23 -11.46, -59 -11.4 M-59.95 -11.64 C-59.63 -11.56, -59.32 -11.48, -59 -11.4 M-59 -11.4 C-58.63 -11.27, -58.27 -11.14, -58.07 -11.07 M-59 -11.4 C-58.66 -11.28, -58.33 -11.16, -58.07 -11.07 M-58.07 -11.07 C-57.88 -10.98, -57.68 -10.89, -57.19 -10.65 M-58.07 -11.07 C-57.83 -10.96, -57.58 -10.84, -57.19 -10.65 M-57.19 -10.65 C-56.89 -10.47, -56.59 -10.3, -56.34 -10.15 M-57.19 -10.65 C-57.01 -10.54, -56.83 -10.44, -56.34 -10.15 M-56.34 -10.15 C-56.05 -9.93, -55.76 -9.72, -55.56 -9.56 M-56.34 -10.15 C-56.08 -9.95, -55.81 -9.75, -55.56 -9.56 M-55.56 -9.56 C-55.35 -9.38, -55.14 -9.19, -54.83 -8.9 M-55.56 -9.56 C-55.3 -9.34, -55.05 -9.11, -54.83 -8.9 M-54.83 -8.9 C-54.57 -8.62, -54.31 -8.34, -54.17 -8.18 M-54.83 -8.9 C-54.66 -8.71, -54.48 -8.52, -54.17 -8.18 M-54.17 -8.18 C-54.04 -8.01, -53.92 -7.84, -53.59 -7.39 M-54.17 -8.18 C-53.96 -7.9, -53.76 -7.62, -53.59 -7.39 M-53.59 -7.39 C-53.4 -7.09, -53.22 -6.79, -53.08 -6.55 M-53.59 -7.39 C-53.43 -7.13, -53.27 -6.86, -53.08 -6.55 M-53.08 -6.55 C-52.98 -6.33, -52.88 -6.12, -52.66 -5.66 M-53.08 -6.55 C-52.92 -6.21, -52.76 -5.86, -52.66 -5.66 M-52.66 -5.66 C-52.54 -5.32, -52.42 -4.99, -52.33 -4.74 M-52.66 -5.66 C-52.54 -5.33, -52.42 -5, -52.33 -4.74 M-52.33 -4.74 C-52.28 -4.52, -52.22 -4.3, -52.09 -3.78 M-52.33 -4.74 C-52.27 -4.48, -52.2 -4.23, -52.09 -3.78 M-52.09 -3.78 C-52.06 -3.58, -52.03 -3.39, -51.95 -2.81 M-52.09 -3.78 C-52.04 -3.4, -51.98 -3.03, -51.95 -2.81 M-51.95 -2.81 C-51.93 -2.54, -51.92 -2.26, -51.9 -1.83 M-51.95 -2.81 C-51.93 -2.45, -51.91 -2.08, -51.9 -1.83 M-51.9 -1.83 C-51.91 -1.54, -51.93 -1.26, -51.95 -0.85 M-51.9 -1.83 C-51.91 -1.63, -51.92 -1.42, -51.95 -0.85 M-51.95 -0.85 C-51.98 -0.61, -52.02 -0.36, -52.07 0 M-51.95 -0.85 C-51.99 -0.55, -52.04 -0.24, -52.07 0 M-52.07 0 C-33.77 0, -15.46 0, 0 0 M-52.07 0 C-34.54 0, -17 0, 0 0 M0 0 C-32.44 -6.54, -64.89 -13.08, -85.16 -17.16 M0 0 C-19.68 -3.97, -39.36 -7.93, -85.16 -17.16 M-85.16 -17.16 C-85.21 -16.86, -85.25 -16.56, -85.3 -16.19 M-85.16 -17.16 C-85.2 -16.88, -85.25 -16.59, -85.3 -16.19 M-85.3 -16.19 C-85.37 -15.94, -85.43 -15.69, -85.54 -15.24 M-85.3 -16.19 C-85.37 -15.94, -85.43 -15.69, -85.54 -15.24 M-85.54 -15.24 C-85.61 -15.05, -85.68 -14.85, -85.87 -14.32 M-85.54 -15.24 C-85.66 -14.93, -85.77 -14.62, -85.87 -14.32 M-85.87 -14.32 C-86 -14.05, -86.13 -13.78, -86.29 -13.43 M-85.87 -14.32 C-86 -14.05, -86.13 -13.78, -86.29 -13.43 M-86.29 -13.43 C-86.45 -13.17, -86.61 -12.9, -86.8 -12.59 M-86.29 -13.43 C-86.45 -13.16, -86.61 -12.9, -86.8 -12.59 M-86.8 -12.59 C-86.92 -12.42, -87.05 -12.26, -87.38 -11.8 M-86.8 -12.59 C-86.94 -12.4, -87.08 -12.21, -87.38 -11.8 M-87.38 -11.8 C-87.63 -11.52, -87.88 -11.25, -88.04 -11.07 M-87.38 -11.8 C-87.52 -11.65, -87.66 -11.5, -88.04 -11.07 M-88.04 -11.07 C-88.32 -10.82, -88.59 -10.58, -88.77 -10.41 M-88.04 -11.07 C-88.3 -10.84, -88.55 -10.61, -88.77 -10.41 M-88.77 -10.41 C-89.07 -10.19, -89.38 -9.96, -89.56 -9.83 M-88.77 -10.41 C-89.08 -10.18, -89.39 -9.95, -89.56 -9.83 M-89.56 -9.83 C-89.85 -9.66, -90.14 -9.48, -90.4 -9.33 M-89.56 -9.83 C-89.86 -9.65, -90.17 -9.46, -90.4 -9.33 M-90.4 -9.33 C-90.59 -9.23, -90.78 -9.14, -91.29 -8.91 M-90.4 -9.33 C-90.74 -9.16, -91.08 -9, -91.29 -8.91 M-91.29 -8.91 C-91.58 -8.8, -91.87 -8.7, -92.21 -8.58 M-91.29 -8.91 C-91.63 -8.78, -91.98 -8.66, -92.21 -8.58 M-92.21 -8.58 C-92.57 -8.49, -92.92 -8.4, -93.16 -8.34 M-92.21 -8.58 C-92.48 -8.51, -92.75 -8.44, -93.16 -8.34 M-93.16 -8.34 C-93.42 -8.3, -93.67 -8.26, -94.13 -8.19 M-93.16 -8.34 C-93.5 -8.29, -93.84 -8.24, -94.13 -8.19 M-94.13 -8.19 C-94.39 -8.18, -94.65 -8.17, -95.11 -8.14 M-94.13 -8.19 C-94.45 -8.18, -94.77 -8.16, -95.11 -8.14 M-95.11 -8.14 C-95.32 -8.15, -95.52 -8.16, -96.09 -8.19 M-95.11 -8.14 C-95.5 -8.16, -95.89 -8.18, -96.09 -8.19 M-96.09 -8.19 C-96.39 -8.24, -96.7 -8.28, -97.06 -8.34 M-96.09 -8.19 C-96.44 -8.24, -96.78 -8.3, -97.06 -8.34 M-97.06 -8.34 C-97.39 -8.42, -97.71 -8.5, -98.02 -8.58 M-97.06 -8.34 C-97.36 -8.41, -97.67 -8.49, -98.02 -8.58 M-98.02 -8.58 C-98.24 -8.65, -98.46 -8.73, -98.94 -8.91 M-98.02 -8.58 C-98.32 -8.68, -98.62 -8.79, -98.94 -8.91 M-98.94 -8.91 C-99.21 -9.03, -99.48 -9.16, -99.83 -9.33 M-98.94 -8.91 C-99.17 -9.01, -99.39 -9.12, -99.83 -9.33 M-99.83 -9.33 C-100.16 -9.53, -100.49 -9.73, -100.67 -9.83 M-99.83 -9.33 C-100 -9.43, -100.18 -9.54, -100.67 -9.83 M-100.67 -9.83 C-100.92 -10.01, -101.17 -10.2, -101.46 -10.41 M-100.67 -9.83 C-100.85 -9.96, -101.03 -10.1, -101.46 -10.41 M-101.46 -10.41 C-101.63 -10.57, -101.79 -10.72, -102.18 -11.07 M-101.46 -10.41 C-101.67 -10.61, -101.88 -10.8, -102.18 -11.07 M-102.18 -11.07 C-102.34 -11.25, -102.5 -11.43, -102.84 -11.8 M-102.18 -11.07 C-102.33 -11.23, -102.48 -11.4, -102.84 -11.8 M-102.84 -11.8 C-102.97 -11.97, -103.09 -12.13, -103.43 -12.59 M-102.84 -11.8 C-103 -12.02, -103.17 -12.24, -103.43 -12.59 M-103.43 -12.59 C-103.59 -12.86, -103.75 -13.12, -103.93 -13.43 M-103.43 -12.59 C-103.56 -12.82, -103.7 -13.04, -103.93 -13.43 M-103.93 -13.43 C-104.06 -13.7, -104.19 -13.98, -104.35 -14.32 M-103.93 -13.43 C-104.09 -13.76, -104.24 -14.09, -104.35 -14.32 M-104.35 -14.32 C-104.43 -14.53, -104.51 -14.75, -104.68 -15.24 M-104.35 -14.32 C-104.48 -14.68, -104.61 -15.03, -104.68 -15.24 M-104.68 -15.24 C-104.76 -15.53, -104.83 -15.82, -104.92 -16.19 M-104.68 -15.24 C-104.73 -15.43, -104.78 -15.62, -104.92 -16.19 M-104.92 -16.19 C-104.96 -16.43, -104.99 -16.66, -105.06 -17.16 M-104.92 -16.19 C-104.96 -16.43, -104.99 -16.67, -105.06 -17.16 M-105.06 -17.16 C-105.08 -17.46, -105.09 -17.76, -105.11 -18.14 M-105.06 -17.16 C-105.08 -17.47, -105.09 -17.78, -105.11 -18.14 M-105.11 -18.14 C-105.1 -18.4, -105.09 -18.65, -105.06 -19.12 M-105.11 -18.14 C-105.1 -18.41, -105.09 -18.68, -105.06 -19.12 M-105.06 -19.12 C-105.03 -19.33, -105 -19.53, -104.92 -20.1 M-105.06 -19.12 C-105.03 -19.38, -104.99 -19.63, -104.92 -20.1 M-104.92 -20.1 C-104.83 -20.44, -104.75 -20.78, -104.68 -21.05 M-104.92 -20.1 C-104.83 -20.46, -104.74 -20.82, -104.68 -21.05 M-104.68 -21.05 C-104.6 -21.27, -104.52 -21.49, -104.35 -21.97 M-104.68 -21.05 C-104.58 -21.34, -104.47 -21.63, -104.35 -21.97 M-104.35 -21.97 C-104.23 -22.22, -104.12 -22.47, -103.93 -22.86 M-104.35 -21.97 C-104.26 -22.17, -104.16 -22.37, -103.93 -22.86 M-103.93 -22.86 C-103.82 -23.05, -103.7 -23.24, -103.43 -23.7 M-103.93 -22.86 C-103.75 -23.16, -103.57 -23.46, -103.43 -23.7 M-103.43 -23.7 C-103.24 -23.95, -103.06 -24.2, -102.84 -24.49 M-103.43 -23.7 C-103.23 -23.97, -103.03 -24.23, -102.84 -24.49 M-102.84 -24.49 C-102.64 -24.71, -102.44 -24.93, -102.18 -25.22 M-102.84 -24.49 C-102.59 -24.77, -102.34 -25.05, -102.18 -25.22 M-102.18 -25.22 C-102.02 -25.37, -101.85 -25.51, -101.46 -25.87 M-102.18 -25.22 C-102.03 -25.35, -101.88 -25.49, -101.46 -25.87 M-101.46 -25.87 C-101.27 -26.01, -101.09 -26.14, -100.67 -26.46 M-101.46 -25.87 C-101.29 -26, -101.12 -26.12, -100.67 -26.46 M-100.67 -26.46 C-100.39 -26.63, -100.11 -26.8, -99.83 -26.96 M-100.67 -26.46 C-100.34 -26.66, -100 -26.86, -99.83 -26.96 M-99.83 -26.96 C-99.59 -27.07, -99.36 -27.19, -98.94 -27.38 M-99.83 -26.96 C-99.51 -27.12, -99.19 -27.27, -98.94 -27.38 M-98.94 -27.38 C-98.74 -27.45, -98.55 -27.52, -98.02 -27.71 M-98.94 -27.38 C-98.74 -27.46, -98.54 -27.53, -98.02 -27.71 M-98.02 -27.71 C-97.75 -27.78, -97.49 -27.85, -97.06 -27.95 M-98.02 -27.71 C-97.66 -27.8, -97.3 -27.89, -97.06 -27.95 M-97.06 -27.95 C-96.86 -27.98, -96.66 -28.01, -96.09 -28.1 M-97.06 -27.95 C-96.81 -27.99, -96.56 -28.03, -96.09 -28.1 M-96.09 -28.1 C-95.84 -28.11, -95.59 -28.12, -95.11 -28.14 M-96.09 -28.1 C-95.79 -28.11, -95.49 -28.13, -95.11 -28.14 M-95.11 -28.14 C-94.8 -28.13, -94.48 -28.11, -94.13 -28.1 M-95.11 -28.14 C-94.85 -28.13, -94.58 -28.12, -94.13 -28.1 M-94.13 -28.1 C-93.75 -28.04, -93.36 -27.98, -93.16 -27.95 M-94.13 -28.1 C-93.91 -28.06, -93.69 -28.03, -93.16 -27.95 M-93.16 -27.95 C-92.86 -27.88, -92.56 -27.8, -92.21 -27.71 M-93.16 -27.95 C-92.91 -27.89, -92.65 -27.83, -92.21 -27.71 M-92.21 -27.71 C-92.02 -27.65, -91.84 -27.58, -91.29 -27.38 M-92.21 -27.71 C-91.92 -27.61, -91.63 -27.51, -91.29 -27.38 M-91.29 -27.38 C-91.1 -27.29, -90.91 -27.21, -90.4 -26.96 M-91.29 -27.38 C-91.09 -27.29, -90.9 -27.2, -90.4 -26.96 M-90.4 -26.96 C-90.07 -26.77, -89.75 -26.57, -89.56 -26.46 M-90.4 -26.96 C-90.09 -26.78, -89.79 -26.6, -89.56 -26.46 M-89.56 -26.46 C-89.24 -26.23, -88.93 -26, -88.77 -25.87 M-89.56 -26.46 C-89.27 -26.24, -88.98 -26.03, -88.77 -25.87 M-88.77 -25.87 C-88.49 -25.62, -88.21 -25.37, -88.04 -25.22 M-88.77 -25.87 C-88.56 -25.68, -88.35 -25.49, -88.04 -25.22 M-88.04 -25.22 C-87.83 -24.99, -87.62 -24.76, -87.38 -24.49 M-88.04 -25.22 C-87.83 -24.98, -87.62 -24.75, -87.38 -24.49 M-87.38 -24.49 C-87.25 -24.31, -87.11 -24.13, -86.8 -23.7 M-87.38 -24.49 C-87.26 -24.32, -87.13 -24.15, -86.8 -23.7 M-86.8 -23.7 C-86.61 -23.38, -86.42 -23.07, -86.29 -22.86 M-86.8 -23.7 C-86.62 -23.41, -86.45 -23.11, -86.29 -22.86 M-86.29 -22.86 C-86.18 -22.62, -86.06 -22.37, -85.87 -21.97 M-86.29 -22.86 C-86.14 -22.53, -85.98 -22.2, -85.87 -21.97 M-85.87 -21.97 C-85.79 -21.74, -85.71 -21.52, -85.54 -21.05 M-85.87 -21.97 C-85.78 -21.71, -85.69 -21.46, -85.54 -21.05 M-85.54 -21.05 C-85.48 -20.78, -85.41 -20.52, -85.3 -20.1 M-85.54 -21.05 C-85.49 -20.84, -85.44 -20.63, -85.3 -20.1 M-85.3 -20.1 C-85.25 -19.75, -85.2 -19.41, -85.16 -19.12 M-85.3 -20.1 C-85.27 -19.89, -85.24 -19.69, -85.16 -19.12 M-85.16 -19.12 C-85.15 -18.82, -85.13 -18.52, -85.11 -18.14 M-85.16 -19.12 C-85.15 -18.81, -85.13 -18.49, -85.11 -18.14 M-85.11 -18.14 C-85.13 -17.77, -85.15 -17.39, -85.16 -17.16 M-85.11 -18.14 C-85.12 -17.94, -85.13 -17.74, -85.16 -17.16 M-85.16 -17.16 C-84.77 -27.5, -84.38 -37.84, -83.63 -57.53 M-85.16 -17.16 C-84.75 -27.93, -84.35 -38.69, -83.63 -57.53 M-83.63 -57.53 C-83.69 -57.15, -83.75 -56.77, -83.78 -56.56 M-83.63 -57.53 C-83.69 -57.15, -83.75 -56.78, -83.78 -56.56 M-83.78 -56.56 C-83.85 -56.27, -83.92 -55.98, -84.02 -55.61 M-83.78 -56.56 C-83.86 -56.24, -83.94 -55.92, -84.02 -55.61 M-84.02 -55.61 C-84.11 -55.34, -84.21 -55.07, -84.35 -54.69 M-84.02 -55.61 C-84.1 -55.38, -84.18 -55.15, -84.35 -54.69 M-84.35 -54.69 C-84.46 -54.45, -84.57 -54.21, -84.77 -53.8 M-84.35 -54.69 C-84.45 -54.47, -84.56 -54.24, -84.77 -53.8 M-84.77 -53.8 C-84.94 -53.51, -85.12 -53.21, -85.27 -52.96 M-84.77 -53.8 C-84.94 -53.51, -85.11 -53.23, -85.27 -52.96 M-85.27 -52.96 C-85.42 -52.75, -85.57 -52.55, -85.86 -52.17 M-85.27 -52.96 C-85.4 -52.78, -85.53 -52.61, -85.86 -52.17 M-85.86 -52.17 C-86.05 -51.95, -86.25 -51.73, -86.51 -51.44 M-85.86 -52.17 C-86.1 -51.89, -86.35 -51.62, -86.51 -51.44 M-86.51 -51.44 C-86.8 -51.18, -87.09 -50.92, -87.24 -50.78 M-86.51 -51.44 C-86.73 -51.25, -86.94 -51.06, -87.24 -50.78 M-87.24 -50.78 C-87.43 -50.64, -87.62 -50.5, -88.03 -50.2 M-87.24 -50.78 C-87.51 -50.58, -87.78 -50.38, -88.03 -50.2 M-88.03 -50.2 C-88.3 -50.03, -88.58 -49.87, -88.87 -49.69 M-88.03 -50.2 C-88.21 -50.09, -88.39 -49.98, -88.87 -49.69 M-88.87 -49.69 C-89.16 -49.56, -89.44 -49.43, -89.76 -49.27 M-88.87 -49.69 C-89.21 -49.53, -89.55 -49.37, -89.76 -49.27 M-89.76 -49.27 C-90.03 -49.18, -90.3 -49.08, -90.68 -48.94 M-89.76 -49.27 C-90.08 -49.16, -90.4 -49.04, -90.68 -48.94 M-90.68 -48.94 C-90.93 -48.88, -91.18 -48.82, -91.63 -48.71 M-90.68 -48.94 C-90.98 -48.87, -91.27 -48.8, -91.63 -48.71 M-91.63 -48.71 C-91.88 -48.67, -92.12 -48.63, -92.61 -48.56 M-91.63 -48.71 C-92 -48.65, -92.37 -48.6, -92.61 -48.56 M-92.61 -48.56 C-92.84 -48.55, -93.07 -48.54, -93.59 -48.51 M-92.61 -48.56 C-92.89 -48.55, -93.17 -48.53, -93.59 -48.51 M-93.59 -48.51 C-93.96 -48.53, -94.33 -48.55, -94.57 -48.56 M-93.59 -48.51 C-93.97 -48.53, -94.35 -48.55, -94.57 -48.56 M-94.57 -48.56 C-94.94 -48.62, -95.31 -48.67, -95.54 -48.71 M-94.57 -48.56 C-94.92 -48.61, -95.27 -48.67, -95.54 -48.71 M-95.54 -48.71 C-95.87 -48.79, -96.2 -48.87, -96.49 -48.94 M-95.54 -48.71 C-95.73 -48.75, -95.92 -48.8, -96.49 -48.94 M-96.49 -48.94 C-96.77 -49.04, -97.05 -49.15, -97.41 -49.27 M-96.49 -48.94 C-96.8 -49.05, -97.1 -49.16, -97.41 -49.27 M-97.41 -49.27 C-97.64 -49.38, -97.88 -49.49, -98.3 -49.69 M-97.41 -49.27 C-97.61 -49.37, -97.81 -49.46, -98.3 -49.69 M-98.3 -49.69 C-98.6 -49.87, -98.9 -50.06, -99.14 -50.2 M-98.3 -49.69 C-98.52 -49.83, -98.75 -49.96, -99.14 -50.2 M-99.14 -50.2 C-99.39 -50.38, -99.64 -50.56, -99.93 -50.78 M-99.14 -50.2 C-99.45 -50.43, -99.76 -50.66, -99.93 -50.78 M-99.93 -50.78 C-100.19 -51.02, -100.46 -51.26, -100.66 -51.44 M-99.93 -50.78 C-100.21 -51.04, -100.49 -51.29, -100.66 -51.44 M-100.66 -51.44 C-100.87 -51.67, -101.08 -51.91, -101.32 -52.17 M-100.66 -51.44 C-100.83 -51.64, -101.01 -51.83, -101.32 -52.17 M-101.32 -52.17 C-101.49 -52.41, -101.67 -52.65, -101.9 -52.96 M-101.32 -52.17 C-101.55 -52.48, -101.78 -52.79, -101.9 -52.96 M-101.9 -52.96 C-102 -53.13, -102.11 -53.3, -102.4 -53.8 M-101.9 -52.96 C-102.05 -53.21, -102.2 -53.46, -102.4 -53.8 M-102.4 -53.8 C-102.5 -54, -102.59 -54.19, -102.82 -54.69 M-102.4 -53.8 C-102.55 -54.11, -102.7 -54.42, -102.82 -54.69 M-102.82 -54.69 C-102.93 -54.97, -103.03 -55.25, -103.16 -55.61 M-102.82 -54.69 C-102.95 -55.03, -103.07 -55.37, -103.16 -55.61 M-103.16 -55.61 C-103.23 -55.91, -103.31 -56.22, -103.39 -56.56 M-103.16 -55.61 C-103.24 -55.96, -103.33 -56.3, -103.39 -56.56 M-103.39 -56.56 C-103.43 -56.82, -103.47 -57.08, -103.54 -57.53 M-103.39 -56.56 C-103.43 -56.83, -103.47 -57.1, -103.54 -57.53 M-103.54 -57.53 C-103.55 -57.79, -103.56 -58.04, -103.59 -58.51 M-103.54 -57.53 C-103.55 -57.86, -103.57 -58.18, -103.59 -58.51 M-103.59 -58.51 C-103.57 -58.85, -103.55 -59.2, -103.54 -59.49 M-103.59 -58.51 C-103.58 -58.72, -103.56 -58.94, -103.54 -59.49 M-103.54 -59.49 C-103.5 -59.76, -103.46 -60.02, -103.39 -60.46 M-103.54 -59.49 C-103.48 -59.88, -103.42 -60.26, -103.39 -60.46 M-103.39 -60.46 C-103.32 -60.76, -103.24 -61.06, -103.16 -61.42 M-103.39 -60.46 C-103.32 -60.76, -103.24 -61.06, -103.16 -61.42 M-103.16 -61.42 C-103.08 -61.64, -103 -61.86, -102.82 -62.34 M-103.16 -61.42 C-103.06 -61.67, -102.97 -61.93, -102.82 -62.34 M-102.82 -62.34 C-102.68 -62.65, -102.53 -62.96, -102.4 -63.23 M-102.82 -62.34 C-102.7 -62.6, -102.57 -62.87, -102.4 -63.23 M-102.4 -63.23 C-102.3 -63.41, -102.19 -63.59, -101.9 -64.07 M-102.4 -63.23 C-102.23 -63.52, -102.05 -63.82, -101.9 -64.07 M-101.9 -64.07 C-101.7 -64.34, -101.5 -64.6, -101.32 -64.86 M-101.9 -64.07 C-101.77 -64.24, -101.64 -64.42, -101.32 -64.86 M-101.32 -64.86 C-101.12 -65.07, -100.92 -65.29, -100.66 -65.58 M-101.32 -64.86 C-101.08 -65.12, -100.84 -65.39, -100.66 -65.58 M-100.66 -65.58 C-100.38 -65.84, -100.1 -66.09, -99.93 -66.24 M-100.66 -65.58 C-100.41 -65.81, -100.16 -66.04, -99.93 -66.24 M-99.93 -66.24 C-99.64 -66.45, -99.36 -66.67, -99.14 -66.83 M-99.93 -66.24 C-99.68 -66.43, -99.43 -66.61, -99.14 -66.83 M-99.14 -66.83 C-98.89 -66.98, -98.63 -67.13, -98.3 -67.33 M-99.14 -66.83 C-98.94 -66.95, -98.74 -67.07, -98.3 -67.33 M-98.3 -67.33 C-98 -67.47, -97.7 -67.62, -97.41 -67.75 M-98.3 -67.33 C-97.96 -67.49, -97.63 -67.65, -97.41 -67.75 M-97.41 -67.75 C-97.12 -67.85, -96.84 -67.96, -96.49 -68.08 M-97.41 -67.75 C-97.13 -67.85, -96.85 -67.95, -96.49 -68.08 M-96.49 -68.08 C-96.19 -68.16, -95.89 -68.23, -95.54 -68.32 M-96.49 -68.08 C-96.12 -68.18, -95.75 -68.27, -95.54 -68.32 M-95.54 -68.32 C-95.2 -68.37, -94.86 -68.42, -94.57 -68.46 M-95.54 -68.32 C-95.31 -68.35, -95.08 -68.39, -94.57 -68.46 M-94.57 -68.46 C-94.32 -68.48, -94.08 -68.49, -93.59 -68.51 M-94.57 -68.46 C-94.23 -68.48, -93.89 -68.5, -93.59 -68.51 M-93.59 -68.51 C-93.24 -68.5, -92.89 -68.48, -92.61 -68.46 M-93.59 -68.51 C-93.24 -68.5, -92.9 -68.48, -92.61 -68.46 M-92.61 -68.46 C-92.37 -68.43, -92.13 -68.39, -91.63 -68.32 M-92.61 -68.46 C-92.31 -68.42, -92.01 -68.38, -91.63 -68.32 M-91.63 -68.32 C-91.26 -68.23, -90.89 -68.13, -90.68 -68.08 M-91.63 -68.32 C-91.36 -68.25, -91.09 -68.18, -90.68 -68.08 M-90.68 -68.08 C-90.42 -67.99, -90.15 -67.89, -89.76 -67.75 M-90.68 -68.08 C-90.41 -67.98, -90.13 -67.88, -89.76 -67.75 M-89.76 -67.75 C-89.48 -67.62, -89.19 -67.48, -88.87 -67.33 M-89.76 -67.75 C-89.5 -67.63, -89.25 -67.51, -88.87 -67.33 M-88.87 -67.33 C-88.62 -67.18, -88.37 -67.03, -88.03 -66.83 M-88.87 -67.33 C-88.69 -67.22, -88.5 -67.11, -88.03 -66.83 M-88.03 -66.83 C-87.78 -66.64, -87.53 -66.45, -87.24 -66.24 M-88.03 -66.83 C-87.78 -66.64, -87.54 -66.46, -87.24 -66.24 M-87.24 -66.24 C-87.03 -66.05, -86.83 -65.87, -86.51 -65.58 M-87.24 -66.24 C-87.01 -66.03, -86.78 -65.82, -86.51 -65.58 M-86.51 -65.58 C-86.26 -65.31, -86.01 -65.03, -85.86 -64.86 M-86.51 -65.58 C-86.29 -65.34, -86.07 -65.09, -85.86 -64.86 M-85.86 -64.86 C-85.62 -64.54, -85.39 -64.23, -85.27 -64.07 M-85.86 -64.86 C-85.67 -64.61, -85.49 -64.36, -85.27 -64.07 M-85.27 -64.07 C-85.17 -63.9, -85.07 -63.73, -84.77 -63.23 M-85.27 -64.07 C-85.14 -63.86, -85.02 -63.65, -84.77 -63.23 M-84.77 -63.23 C-84.66 -63, -84.55 -62.77, -84.35 -62.34 M-84.77 -63.23 C-84.64 -62.97, -84.52 -62.71, -84.35 -62.34 M-84.35 -62.34 C-84.25 -62.07, -84.15 -61.8, -84.02 -61.42 M-84.35 -62.34 C-84.23 -62.01, -84.11 -61.69, -84.02 -61.42 M-84.02 -61.42 C-83.96 -61.19, -83.9 -60.96, -83.78 -60.46 M-84.02 -61.42 C-83.92 -61.04, -83.83 -60.66, -83.78 -60.46 M-83.78 -60.46 C-83.74 -60.19, -83.7 -59.92, -83.63 -59.49 M-83.78 -60.46 C-83.74 -60.21, -83.7 -59.96, -83.63 -59.49 M-83.63 -59.49 C-83.62 -59.12, -83.6 -58.74, -83.59 -58.51 M-83.63 -59.49 C-83.62 -59.16, -83.6 -58.82, -83.59 -58.51 M-83.59 -58.51 C-83.6 -58.13, -83.62 -57.76, -83.63 -57.53 M-83.59 -58.51 C-83.6 -58.31, -83.61 -58.11, -83.63 -57.53 M-83.63 -57.53 C-69.99 -54.09, -56.34 -50.64, -37.25 -45.82 M-83.63 -57.53 C-69.73 -54.02, -55.84 -50.51, -37.25 -45.82 M-37.25 -45.82 C-37.3 -45.47, -37.35 -45.12, -37.39 -44.85 M-37.25 -45.82 C-37.3 -45.5, -37.35 -45.17, -37.39 -44.85 M-37.39 -44.85 C-37.45 -44.63, -37.5 -44.42, -37.63 -43.9 M-37.39 -44.85 C-37.44 -44.65, -37.49 -44.45, -37.63 -43.9 M-37.63 -43.9 C-37.75 -43.57, -37.87 -43.23, -37.96 -42.97 M-37.63 -43.9 C-37.7 -43.71, -37.77 -43.52, -37.96 -42.97 M-37.96 -42.97 C-38.05 -42.79, -38.14 -42.6, -38.38 -42.09 M-37.96 -42.97 C-38.08 -42.73, -38.2 -42.48, -38.38 -42.09 M-38.38 -42.09 C-38.51 -41.88, -38.63 -41.67, -38.89 -41.25 M-38.38 -42.09 C-38.53 -41.85, -38.67 -41.61, -38.89 -41.25 M-38.89 -41.25 C-39.07 -40.99, -39.26 -40.74, -39.47 -40.46 M-38.89 -41.25 C-39.04 -41.04, -39.2 -40.83, -39.47 -40.46 M-39.47 -40.46 C-39.67 -40.24, -39.86 -40.03, -40.13 -39.73 M-39.47 -40.46 C-39.64 -40.27, -39.82 -40.08, -40.13 -39.73 M-40.13 -39.73 C-40.28 -39.6, -40.43 -39.46, -40.86 -39.07 M-40.13 -39.73 C-40.28 -39.59, -40.43 -39.46, -40.86 -39.07 M-40.86 -39.07 C-41.09 -38.9, -41.32 -38.73, -41.65 -38.49 M-40.86 -39.07 C-41.13 -38.87, -41.4 -38.67, -41.65 -38.49 M-41.65 -38.49 C-41.96 -38.3, -42.27 -38.11, -42.49 -37.98 M-41.65 -38.49 C-41.9 -38.33, -42.15 -38.18, -42.49 -37.98 M-42.49 -37.98 C-42.7 -37.88, -42.92 -37.78, -43.38 -37.56 M-42.49 -37.98 C-42.79 -37.84, -43.09 -37.7, -43.38 -37.56 M-43.38 -37.56 C-43.63 -37.47, -43.89 -37.38, -44.3 -37.23 M-43.38 -37.56 C-43.56 -37.49, -43.75 -37.43, -44.3 -37.23 M-44.3 -37.23 C-44.53 -37.17, -44.77 -37.11, -45.25 -36.99 M-44.3 -37.23 C-44.66 -37.14, -45.01 -37.05, -45.25 -36.99 M-45.25 -36.99 C-45.5 -36.96, -45.76 -36.92, -46.22 -36.85 M-45.25 -36.99 C-45.58 -36.94, -45.91 -36.9, -46.22 -36.85 M-46.22 -36.85 C-46.45 -36.84, -46.67 -36.83, -47.2 -36.8 M-46.22 -36.85 C-46.42 -36.84, -46.62 -36.83, -47.2 -36.8 M-47.2 -36.8 C-47.4 -36.81, -47.6 -36.82, -48.18 -36.85 M-47.2 -36.8 C-47.59 -36.82, -47.97 -36.84, -48.18 -36.85 M-48.18 -36.85 C-48.4 -36.88, -48.61 -36.91, -49.15 -36.99 M-48.18 -36.85 C-48.45 -36.89, -48.71 -36.93, -49.15 -36.99 M-49.15 -36.99 C-49.39 -37.05, -49.64 -37.11, -50.11 -37.23 M-49.15 -36.99 C-49.36 -37.05, -49.57 -37.1, -50.11 -37.23 M-50.11 -37.23 C-50.35 -37.32, -50.59 -37.4, -51.03 -37.56 M-50.11 -37.23 C-50.34 -37.32, -50.58 -37.4, -51.03 -37.56 M-51.03 -37.56 C-51.32 -37.7, -51.6 -37.83, -51.92 -37.98 M-51.03 -37.56 C-51.33 -37.7, -51.62 -37.84, -51.92 -37.98 M-51.92 -37.98 C-52.17 -38.13, -52.43 -38.29, -52.76 -38.49 M-51.92 -37.98 C-52.2 -38.15, -52.49 -38.33, -52.76 -38.49 M-52.76 -38.49 C-53.06 -38.71, -53.36 -38.93, -53.55 -39.07 M-52.76 -38.49 C-52.93 -38.61, -53.1 -38.74, -53.55 -39.07 M-53.55 -39.07 C-53.77 -39.28, -54 -39.48, -54.27 -39.73 M-53.55 -39.07 C-53.78 -39.29, -54.02 -39.5, -54.27 -39.73 M-54.27 -39.73 C-54.51 -39.99, -54.75 -40.26, -54.93 -40.46 M-54.27 -39.73 C-54.41 -39.88, -54.55 -40.03, -54.93 -40.46 M-54.93 -40.46 C-55.14 -40.74, -55.36 -41.03, -55.52 -41.25 M-54.93 -40.46 C-55.12 -40.71, -55.31 -40.97, -55.52 -41.25 M-55.52 -41.25 C-55.65 -41.46, -55.78 -41.68, -56.02 -42.09 M-55.52 -41.25 C-55.63 -41.43, -55.74 -41.61, -56.02 -42.09 M-56.02 -42.09 C-56.16 -42.39, -56.31 -42.69, -56.44 -42.97 M-56.02 -42.09 C-56.13 -42.32, -56.24 -42.56, -56.44 -42.97 M-56.44 -42.97 C-56.51 -43.17, -56.58 -43.38, -56.77 -43.9 M-56.44 -42.97 C-56.51 -43.17, -56.59 -43.38, -56.77 -43.9 M-56.77 -43.9 C-56.83 -44.13, -56.89 -44.36, -57.01 -44.85 M-56.77 -43.9 C-56.86 -44.26, -56.96 -44.63, -57.01 -44.85 M-57.01 -44.85 C-57.05 -45.1, -57.08 -45.35, -57.15 -45.82 M-57.01 -44.85 C-57.06 -45.18, -57.11 -45.52, -57.15 -45.82 M-57.15 -45.82 C-57.17 -46.09, -57.18 -46.35, -57.2 -46.8 M-57.15 -45.82 C-57.17 -46.16, -57.19 -46.49, -57.2 -46.8 M-57.2 -46.8 C-57.19 -47.15, -57.17 -47.5, -57.15 -47.78 M-57.2 -46.8 C-57.18 -47.19, -57.16 -47.58, -57.15 -47.78 M-57.15 -47.78 C-57.1 -48.12, -57.05 -48.46, -57.01 -48.75 M-57.15 -47.78 C-57.11 -48.08, -57.07 -48.38, -57.01 -48.75 M-57.01 -48.75 C-56.93 -49.09, -56.84 -49.42, -56.77 -49.7 M-57.01 -48.75 C-56.93 -49.08, -56.85 -49.41, -56.77 -49.7 M-56.77 -49.7 C-56.7 -49.89, -56.64 -50.08, -56.44 -50.63 M-56.77 -49.7 C-56.69 -49.95, -56.6 -50.19, -56.44 -50.63 M-56.44 -50.63 C-56.34 -50.83, -56.25 -51.04, -56.02 -51.51 M-56.44 -50.63 C-56.35 -50.81, -56.27 -50.99, -56.02 -51.51 M-56.02 -51.51 C-55.88 -51.75, -55.74 -51.99, -55.52 -52.36 M-56.02 -51.51 C-55.87 -51.77, -55.71 -52.03, -55.52 -52.36 M-55.52 -52.36 C-55.36 -52.56, -55.21 -52.77, -54.93 -53.14 M-55.52 -52.36 C-55.29 -52.66, -55.07 -52.96, -54.93 -53.14 M-54.93 -53.14 C-54.78 -53.31, -54.64 -53.47, -54.27 -53.87 M-54.93 -53.14 C-54.7 -53.4, -54.47 -53.65, -54.27 -53.87 M-54.27 -53.87 C-54.08 -54.05, -53.89 -54.22, -53.55 -54.53 M-54.27 -53.87 C-54.04 -54.08, -53.8 -54.3, -53.55 -54.53 M-53.55 -54.53 C-53.23 -54.76, -52.92 -55, -52.76 -55.12 M-53.55 -54.53 C-53.38 -54.66, -53.2 -54.78, -52.76 -55.12 M-52.76 -55.12 C-52.5 -55.27, -52.24 -55.43, -51.92 -55.62 M-52.76 -55.12 C-52.55 -55.24, -52.34 -55.37, -51.92 -55.62 M-51.92 -55.62 C-51.58 -55.78, -51.24 -55.94, -51.03 -56.04 M-51.92 -55.62 C-51.61 -55.77, -51.29 -55.91, -51.03 -56.04 M-51.03 -56.04 C-50.8 -56.12, -50.58 -56.2, -50.11 -56.37 M-51.03 -56.04 C-50.8 -56.12, -50.56 -56.21, -50.11 -56.37 M-50.11 -56.37 C-49.87 -56.43, -49.63 -56.49, -49.15 -56.61 M-50.11 -56.37 C-49.82 -56.44, -49.53 -56.52, -49.15 -56.61 M-49.15 -56.61 C-48.79 -56.66, -48.43 -56.72, -48.18 -56.75 M-49.15 -56.61 C-48.79 -56.66, -48.43 -56.72, -48.18 -56.75 M-48.18 -56.75 C-47.89 -56.77, -47.6 -56.78, -47.2 -56.8 M-48.18 -56.75 C-47.94 -56.76, -47.7 -56.78, -47.2 -56.8 M-47.2 -56.8 C-46.86 -56.78, -46.52 -56.77, -46.22 -56.75 M-47.2 -56.8 C-46.88 -56.78, -46.56 -56.77, -46.22 -56.75 M-46.22 -56.75 C-45.89 -56.7, -45.57 -56.66, -45.25 -56.61 M-46.22 -56.75 C-45.97 -56.72, -45.73 -56.68, -45.25 -56.61 M-45.25 -56.61 C-44.96 -56.54, -44.67 -56.46, -44.3 -56.37 M-45.25 -56.61 C-44.88 -56.52, -44.5 -56.42, -44.3 -56.37 M-44.3 -56.37 C-43.94 -56.24, -43.59 -56.12, -43.38 -56.04 M-44.3 -56.37 C-44.09 -56.29, -43.87 -56.22, -43.38 -56.04 M-43.38 -56.04 C-43.09 -55.9, -42.8 -55.77, -42.49 -55.62 M-43.38 -56.04 C-43.1 -55.91, -42.83 -55.78, -42.49 -55.62 M-42.49 -55.62 C-42.18 -55.44, -41.88 -55.25, -41.65 -55.12 M-42.49 -55.62 C-42.17 -55.43, -41.84 -55.23, -41.65 -55.12 M-41.65 -55.12 C-41.37 -54.91, -41.09 -54.7, -40.86 -54.53 M-41.65 -55.12 C-41.35 -54.9, -41.05 -54.68, -40.86 -54.53 M-40.86 -54.53 C-40.7 -54.39, -40.54 -54.25, -40.13 -53.87 M-40.86 -54.53 C-40.61 -54.31, -40.37 -54.09, -40.13 -53.87 M-40.13 -53.87 C-39.94 -53.66, -39.74 -53.44, -39.47 -53.14 M-40.13 -53.87 C-39.89 -53.6, -39.65 -53.34, -39.47 -53.14 M-39.47 -53.14 C-39.24 -52.84, -39.02 -52.53, -38.89 -52.36 M-39.47 -53.14 C-39.34 -52.97, -39.21 -52.79, -38.89 -52.36 M-38.89 -52.36 C-38.73 -52.09, -38.57 -51.82, -38.38 -51.51 M-38.89 -52.36 C-38.78 -52.17, -38.67 -51.99, -38.38 -51.51 M-38.38 -51.51 C-38.24 -51.21, -38.09 -50.9, -37.96 -50.63 M-38.38 -51.51 C-38.3 -51.33, -38.21 -51.15, -37.96 -50.63 M-37.96 -50.63 C-37.85 -50.3, -37.73 -49.98, -37.63 -49.7 M-37.96 -50.63 C-37.86 -50.33, -37.75 -50.04, -37.63 -49.7 M-37.63 -49.7 C-37.57 -49.46, -37.51 -49.22, -37.39 -48.75 M-37.63 -49.7 C-37.55 -49.37, -37.47 -49.05, -37.39 -48.75 M-37.39 -48.75 C-37.34 -48.38, -37.28 -48.01, -37.25 -47.78 M-37.39 -48.75 C-37.36 -48.52, -37.33 -48.29, -37.25 -47.78 M-37.25 -47.78 C-37.24 -47.49, -37.22 -47.19, -37.2 -46.8 M-37.25 -47.78 C-37.24 -47.47, -37.22 -47.15, -37.2 -46.8 M-37.2 -46.8 C-37.22 -46.44, -37.24 -46.08, -37.25 -45.82 M-37.2 -46.8 C-37.22 -46.41, -37.24 -46.03, -37.25 -45.82 M-37.25 -45.82 C-25.32 -38.11, -13.38 -30.4, -5.46 -25.29 M-37.25 -45.82 C-26.78 -39.06, -16.32 -32.3, -5.46 -25.29 M-5.46 -25.29 C-5.5 -24.99, -5.55 -24.68, -5.6 -24.32 M-5.46 -25.29 C-5.51 -24.92, -5.56 -24.55, -5.6 -24.32 M-5.6 -24.32 C-5.69 -23.95, -5.78 -23.58, -5.84 -23.36 M-5.6 -24.32 C-5.69 -23.96, -5.78 -23.6, -5.84 -23.36 M-5.84 -23.36 C-5.97 -23, -6.1 -22.65, -6.17 -22.44 M-5.84 -23.36 C-5.92 -23.14, -6 -22.91, -6.17 -22.44 M-6.17 -22.44 C-6.31 -22.14, -6.46 -21.83, -6.59 -21.55 M-6.17 -22.44 C-6.33 -22.09, -6.5 -21.75, -6.59 -21.55 M-6.59 -21.55 C-6.71 -21.36, -6.82 -21.16, -7.09 -20.71 M-6.59 -21.55 C-6.69 -21.38, -6.8 -21.2, -7.09 -20.71 M-7.09 -20.71 C-7.25 -20.49, -7.41 -20.28, -7.68 -19.92 M-7.09 -20.71 C-7.27 -20.47, -7.45 -20.23, -7.68 -19.92 M-7.68 -19.92 C-7.84 -19.75, -7.99 -19.57, -8.34 -19.2 M-7.68 -19.92 C-7.91 -19.66, -8.15 -19.4, -8.34 -19.2 M-8.34 -19.2 C-8.57 -18.98, -8.8 -18.77, -9.06 -18.54 M-8.34 -19.2 C-8.6 -18.95, -8.87 -18.71, -9.06 -18.54 M-9.06 -18.54 C-9.27 -18.38, -9.48 -18.23, -9.85 -17.95 M-9.06 -18.54 C-9.32 -18.35, -9.58 -18.15, -9.85 -17.95 M-9.85 -17.95 C-10.04 -17.84, -10.23 -17.72, -10.69 -17.45 M-9.85 -17.95 C-10.06 -17.83, -10.27 -17.7, -10.69 -17.45 M-10.69 -17.45 C-10.98 -17.31, -11.26 -17.18, -11.58 -17.03 M-10.69 -17.45 C-10.9 -17.35, -11.11 -17.25, -11.58 -17.03 M-11.58 -17.03 C-11.81 -16.95, -12.04 -16.86, -12.5 -16.7 M-11.58 -17.03 C-11.88 -16.92, -12.17 -16.82, -12.5 -16.7 M-12.5 -16.7 C-12.77 -16.63, -13.04 -16.56, -13.46 -16.46 M-12.5 -16.7 C-12.84 -16.61, -13.17 -16.53, -13.46 -16.46 M-13.46 -16.46 C-13.71 -16.42, -13.97 -16.38, -14.43 -16.32 M-13.46 -16.46 C-13.83 -16.4, -14.2 -16.35, -14.43 -16.32 M-14.43 -16.32 C-14.81 -16.3, -15.2 -16.28, -15.41 -16.27 M-14.43 -16.32 C-14.63 -16.31, -14.84 -16.3, -15.41 -16.27 M-15.41 -16.27 C-15.65 -16.28, -15.89 -16.29, -16.39 -16.32 M-15.41 -16.27 C-15.74 -16.28, -16.07 -16.3, -16.39 -16.32 M-16.39 -16.32 C-16.73 -16.37, -17.06 -16.42, -17.36 -16.46 M-16.39 -16.32 C-16.7 -16.36, -17 -16.41, -17.36 -16.46 M-17.36 -16.46 C-17.73 -16.55, -18.11 -16.65, -18.31 -16.7 M-17.36 -16.46 C-17.66 -16.53, -17.95 -16.61, -18.31 -16.7 M-18.31 -16.7 C-18.5 -16.77, -18.7 -16.84, -19.23 -17.03 M-18.31 -16.7 C-18.53 -16.78, -18.75 -16.85, -19.23 -17.03 M-19.23 -17.03 C-19.41 -17.11, -19.59 -17.2, -20.12 -17.45 M-19.23 -17.03 C-19.53 -17.17, -19.83 -17.31, -20.12 -17.45 M-20.12 -17.45 C-20.37 -17.6, -20.62 -17.75, -20.96 -17.95 M-20.12 -17.45 C-20.37 -17.6, -20.63 -17.75, -20.96 -17.95 M-20.96 -17.95 C-21.27 -18.18, -21.58 -18.41, -21.75 -18.54 M-20.96 -17.95 C-21.17 -18.11, -21.38 -18.26, -21.75 -18.54 M-21.75 -18.54 C-21.96 -18.73, -22.18 -18.92, -22.48 -19.2 M-21.75 -18.54 C-21.97 -18.74, -22.19 -18.93, -22.48 -19.2 M-22.48 -19.2 C-22.73 -19.47, -22.98 -19.75, -23.14 -19.92 M-22.48 -19.2 C-22.64 -19.38, -22.81 -19.56, -23.14 -19.92 M-23.14 -19.92 C-23.34 -20.19, -23.53 -20.46, -23.72 -20.71 M-23.14 -19.92 C-23.37 -20.24, -23.6 -20.55, -23.72 -20.71 M-23.72 -20.71 C-23.83 -20.89, -23.93 -21.06, -24.23 -21.55 M-23.72 -20.71 C-23.86 -20.95, -24 -21.18, -24.23 -21.55 M-24.23 -21.55 C-24.37 -21.85, -24.51 -22.15, -24.65 -22.44 M-24.23 -21.55 C-24.31 -21.74, -24.4 -21.92, -24.65 -22.44 M-24.65 -22.44 C-24.72 -22.64, -24.79 -22.85, -24.98 -23.36 M-24.65 -22.44 C-24.73 -22.66, -24.81 -22.89, -24.98 -23.36 M-24.98 -23.36 C-25.04 -23.61, -25.1 -23.85, -25.22 -24.32 M-24.98 -23.36 C-25.05 -23.67, -25.13 -23.97, -25.22 -24.32 M-25.22 -24.32 C-25.27 -24.68, -25.32 -25.05, -25.36 -25.29 M-25.22 -24.32 C-25.25 -24.55, -25.29 -24.79, -25.36 -25.29 M-25.36 -25.29 C-25.37 -25.5, -25.38 -25.71, -25.41 -26.27 M-25.36 -25.29 C-25.38 -25.66, -25.4 -26.04, -25.41 -26.27 M-25.41 -26.27 C-25.39 -26.6, -25.37 -26.94, -25.36 -27.25 M-25.41 -26.27 C-25.39 -26.56, -25.38 -26.86, -25.36 -27.25 M-25.36 -27.25 C-25.33 -27.45, -25.3 -27.65, -25.22 -28.22 M-25.36 -27.25 C-25.33 -27.46, -25.3 -27.67, -25.22 -28.22 M-25.22 -28.22 C-25.12 -28.6, -25.03 -28.97, -24.98 -29.17 M-25.22 -28.22 C-25.16 -28.46, -25.1 -28.69, -24.98 -29.17 M-24.98 -29.17 C-24.85 -29.52, -24.73 -29.86, -24.65 -30.09 M-24.98 -29.17 C-24.88 -29.44, -24.78 -29.71, -24.65 -30.09 M-24.65 -30.09 C-24.51 -30.39, -24.37 -30.68, -24.23 -30.98 M-24.65 -30.09 C-24.55 -30.3, -24.45 -30.51, -24.23 -30.98 M-24.23 -30.98 C-24.06 -31.26, -23.9 -31.53, -23.72 -31.82 M-24.23 -30.98 C-24.1 -31.2, -23.97 -31.41, -23.72 -31.82 M-23.72 -31.82 C-23.52 -32.1, -23.32 -32.37, -23.14 -32.61 M-23.72 -31.82 C-23.59 -32, -23.46 -32.18, -23.14 -32.61 M-23.14 -32.61 C-22.98 -32.78, -22.83 -32.95, -22.48 -33.34 M-23.14 -32.61 C-23 -32.77, -22.86 -32.92, -22.48 -33.34 M-22.48 -33.34 C-22.22 -33.57, -21.96 -33.81, -21.75 -34 M-22.48 -33.34 C-22.27 -33.53, -22.06 -33.72, -21.75 -34 M-21.75 -34 C-21.49 -34.19, -21.23 -34.38, -20.96 -34.58 M-21.75 -34 C-21.57 -34.13, -21.38 -34.27, -20.96 -34.58 M-20.96 -34.58 C-20.73 -34.72, -20.49 -34.86, -20.12 -35.09 M-20.96 -34.58 C-20.69 -34.74, -20.42 -34.91, -20.12 -35.09 M-20.12 -35.09 C-19.77 -35.25, -19.42 -35.42, -19.23 -35.51 M-20.12 -35.09 C-19.9 -35.19, -19.68 -35.3, -19.23 -35.51 M-19.23 -35.51 C-18.91 -35.62, -18.58 -35.74, -18.31 -35.84 M-19.23 -35.51 C-18.94 -35.61, -18.64 -35.72, -18.31 -35.84 M-18.31 -35.84 C-18.03 -35.91, -17.76 -35.97, -17.36 -36.07 M-18.31 -35.84 C-17.96 -35.92, -17.62 -36.01, -17.36 -36.07 M-17.36 -36.07 C-17.14 -36.11, -16.92 -36.14, -16.39 -36.22 M-17.36 -36.07 C-17.05 -36.12, -16.75 -36.17, -16.39 -36.22 M-16.39 -36.22 C-16.17 -36.23, -15.95 -36.24, -15.41 -36.27 M-16.39 -36.22 C-16.06 -36.24, -15.73 -36.25, -15.41 -36.27 M-15.41 -36.27 C-15.17 -36.26, -14.93 -36.24, -14.43 -36.22 M-15.41 -36.27 C-15.19 -36.26, -14.97 -36.25, -14.43 -36.22 M-14.43 -36.22 C-14.16 -36.18, -13.89 -36.14, -13.46 -36.07 M-14.43 -36.22 C-14.14 -36.18, -13.86 -36.13, -13.46 -36.07 M-13.46 -36.07 C-13.09 -35.98, -12.73 -35.89, -12.5 -35.84 M-13.46 -36.07 C-13.08 -35.98, -12.7 -35.88, -12.5 -35.84 M-12.5 -35.84 C-12.25 -35.75, -12 -35.66, -11.58 -35.51 M-12.5 -35.84 C-12.29 -35.76, -12.08 -35.69, -11.58 -35.51 M-11.58 -35.51 C-11.3 -35.37, -11.02 -35.24, -10.69 -35.09 M-11.58 -35.51 C-11.31 -35.38, -11.04 -35.25, -10.69 -35.09 M-10.69 -35.09 C-10.43 -34.93, -10.16 -34.77, -9.85 -34.58 M-10.69 -35.09 C-10.45 -34.94, -10.2 -34.79, -9.85 -34.58 M-9.85 -34.58 C-9.59 -34.39, -9.32 -34.19, -9.06 -34 M-9.85 -34.58 C-9.69 -34.46, -9.53 -34.34, -9.06 -34 M-9.06 -34 C-8.88 -33.83, -8.69 -33.66, -8.34 -33.34 M-9.06 -34 C-8.84 -33.8, -8.62 -33.59, -8.34 -33.34 M-8.34 -33.34 C-8.18 -33.17, -8.03 -33, -7.68 -32.61 M-8.34 -33.34 C-8.14 -33.12, -7.94 -32.9, -7.68 -32.61 M-7.68 -32.61 C-7.55 -32.44, -7.42 -32.26, -7.09 -31.82 M-7.68 -32.61 C-7.53 -32.41, -7.38 -32.21, -7.09 -31.82 M-7.09 -31.82 C-6.98 -31.63, -6.86 -31.44, -6.59 -30.98 M-7.09 -31.82 C-6.9 -31.5, -6.71 -31.18, -6.59 -30.98 M-6.59 -30.98 C-6.47 -30.73, -6.35 -30.48, -6.17 -30.09 M-6.59 -30.98 C-6.43 -30.65, -6.27 -30.31, -6.17 -30.09 M-6.17 -30.09 C-6.09 -29.87, -6.01 -29.65, -5.84 -29.17 M-6.17 -30.09 C-6.04 -29.75, -5.92 -29.4, -5.84 -29.17 M-5.84 -29.17 C-5.75 -28.81, -5.66 -28.45, -5.6 -28.22 M-5.84 -29.17 C-5.77 -28.89, -5.7 -28.61, -5.6 -28.22 M-5.6 -28.22 C-5.54 -27.83, -5.48 -27.44, -5.46 -27.25 M-5.6 -28.22 C-5.57 -28.02, -5.54 -27.82, -5.46 -27.25 M-5.46 -27.25 C-5.45 -27.04, -5.44 -26.84, -5.41 -26.27 M-5.46 -27.25 C-5.44 -26.98, -5.43 -26.71, -5.41 -26.27 M-5.41 -26.27 C-5.42 -25.93, -5.44 -25.59, -5.46 -25.29 M-5.41 -26.27 C-5.42 -25.95, -5.44 -25.64, -5.46 -25.29 M-5.46 -25.29 C-5.46 -25.29, -5.46 -25.29, -5.46 -25.29 M-5.46 -25.29 C-5.46 -25.29, -5.46 -25.29, -5.46 -25.29 M-5.46 -25.29 C-16.34 -32.31, -27.22 -39.34, -37.25 -45.82 M-5.46 -25.29 C-17.41 -33.01, -29.37 -40.73, -37.25 -45.82 M-37.25 -45.82 C-50.75 -49.23, -64.25 -52.64, -83.63 -57.53 M-37.25 -45.82 C-48.87 -48.75, -60.49 -51.69, -83.63 -57.53 M-83.63 -57.53 C-84.16 -43.5, -84.7 -29.47, -85.16 -17.16 M-83.63 -57.53 C-84.16 -43.57, -84.69 -29.62, -85.16 -17.16 M-85.16 -17.16 C-64.2 -12.94, -43.25 -8.72, 0 0 M-85.16 -17.16 C-66.63 -13.43, -48.1 -9.69, 0 0 M0 0 C0 0, 0 0, 0 0 M0 0 C0 0, 0 0, 0 0" stroke="transparent" stroke-width="4" fill="none"></path></g></g><mask></mask><g stroke-linecap="round"><g transform="translate(170 250) rotate(0 -60 -40)"><path d="M0 0 C0 -30.4, 0 -60.81, 0 -80 M0 0 C0 -16.67, 0 -33.33, 0 -80 M0 -80 C-26.9 -80, -53.8 -80, -120 -80 M0 -80 C-33.24 -80, -66.48 -80, -120 -80 M-120 -80 C-120 -58.49, -120 -36.98, -120 0 M-120 -80 C-120 -53.35, -120 -26.7, -120 0 M-120 0 C-107.43 0, -94.86 0, -71.73 0 M-120 0 C-104.08 0, -88.16 0, -71.73 0 M-71.73 0 C-71.77 -0.31, -71.82 -0.61, -71.85 -0.85 M-71.73 0 C-71.77 -0.32, -71.82 -0.65, -71.85 -0.85 M-71.85 -0.85 C-71.87 -1.23, -71.89 -1.61, -71.9 -1.83 M-71.85 -0.85 C-71.87 -1.16, -71.88 -1.46, -71.9 -1.83 M-71.9 -1.83 C-71.89 -2.12, -71.87 -2.4, -71.85 -2.81 M-71.9 -1.83 C-71.89 -2.04, -71.88 -2.24, -71.85 -2.81 M-71.85 -2.81 C-71.8 -3.16, -71.75 -3.51, -71.71 -3.78 M-71.85 -2.81 C-71.8 -3.17, -71.75 -3.52, -71.71 -3.78 M-71.71 -3.78 C-71.63 -4.09, -71.56 -4.39, -71.47 -4.74 M-71.71 -3.78 C-71.65 -4.02, -71.59 -4.25, -71.47 -4.74 M-71.47 -4.74 C-71.35 -5.06, -71.24 -5.38, -71.14 -5.66 M-71.47 -4.74 C-71.4 -4.93, -71.33 -5.13, -71.14 -5.66 M-71.14 -5.66 C-71 -5.96, -70.85 -6.26, -70.72 -6.55 M-71.14 -5.66 C-71.01 -5.92, -70.89 -6.18, -70.72 -6.55 M-70.72 -6.55 C-70.54 -6.84, -70.36 -7.14, -70.21 -7.39 M-70.72 -6.55 C-70.55 -6.83, -70.38 -7.12, -70.21 -7.39 M-70.21 -7.39 C-70.06 -7.6, -69.91 -7.8, -69.63 -8.18 M-70.21 -7.39 C-70.01 -7.66, -69.81 -7.93, -69.63 -8.18 M-69.63 -8.18 C-69.5 -8.33, -69.36 -8.47, -68.97 -8.9 M-69.63 -8.18 C-69.48 -8.34, -69.34 -8.5, -68.97 -8.9 M-68.97 -8.9 C-68.81 -9.05, -68.64 -9.2, -68.24 -9.56 M-68.97 -8.9 C-68.72 -9.13, -68.47 -9.36, -68.24 -9.56 M-68.24 -9.56 C-67.97 -9.77, -67.7 -9.97, -67.46 -10.15 M-68.24 -9.56 C-68.01 -9.74, -67.77 -9.91, -67.46 -10.15 M-67.46 -10.15 C-67.12 -10.35, -66.79 -10.55, -66.61 -10.65 M-67.46 -10.15 C-67.26 -10.26, -67.07 -10.38, -66.61 -10.65 M-66.61 -10.65 C-66.38 -10.76, -66.15 -10.87, -65.73 -11.07 M-66.61 -10.65 C-66.27 -10.82, -65.92 -10.98, -65.73 -11.07 M-65.73 -11.07 C-65.4 -11.19, -65.07 -11.31, -64.8 -11.4 M-65.73 -11.07 C-65.45 -11.17, -65.17 -11.27, -64.8 -11.4 M-64.8 -11.4 C-64.57 -11.46, -64.34 -11.52, -63.85 -11.64 M-64.8 -11.4 C-64.53 -11.47, -64.25 -11.54, -63.85 -11.64 M-63.85 -11.64 C-63.54 -11.69, -63.24 -11.73, -62.88 -11.78 M-63.85 -11.64 C-63.61 -11.68, -63.38 -11.71, -62.88 -11.78 M-62.88 -11.78 C-62.66 -11.8, -62.45 -11.81, -61.9 -11.83 M-62.88 -11.78 C-62.52 -11.8, -62.17 -11.82, -61.9 -11.83 M-61.9 -11.83 C-61.58 -11.82, -61.27 -11.8, -60.92 -11.78 M-61.9 -11.83 C-61.59 -11.82, -61.29 -11.8, -60.92 -11.78 M-60.92 -11.78 C-60.59 -11.74, -60.25 -11.69, -59.95 -11.64 M-60.92 -11.78 C-60.57 -11.73, -60.22 -11.68, -59.95 -11.64 M-59.95 -11.64 C-59.73 -11.59, -59.51 -11.53, -59 -11.4 M-59.95 -11.64 C-59.63 -11.56, -59.31 -11.48, -59 -11.4 M-59 -11.4 C-58.64 -11.27, -58.28 -11.15, -58.07 -11.07 M-59 -11.4 C-58.64 -11.27, -58.27 -11.14, -58.07 -11.07 M-58.07 -11.07 C-57.78 -10.93, -57.48 -10.79, -57.19 -10.65 M-58.07 -11.07 C-57.79 -10.94, -57.5 -10.8, -57.19 -10.65 M-57.19 -10.65 C-56.89 -10.47, -56.59 -10.3, -56.34 -10.15 M-57.19 -10.65 C-56.89 -10.47, -56.59 -10.3, -56.34 -10.15 M-56.34 -10.15 C-56.07 -9.95, -55.8 -9.75, -55.56 -9.56 M-56.34 -10.15 C-56.14 -10, -55.94 -9.85, -55.56 -9.56 M-55.56 -9.56 C-55.36 -9.39, -55.17 -9.21, -54.83 -8.9 M-55.56 -9.56 C-55.33 -9.35, -55.1 -9.15, -54.83 -8.9 M-54.83 -8.9 C-54.57 -8.62, -54.31 -8.33, -54.17 -8.18 M-54.83 -8.9 C-54.64 -8.7, -54.45 -8.49, -54.17 -8.18 M-54.17 -8.18 C-53.95 -7.88, -53.73 -7.59, -53.59 -7.39 M-54.17 -8.18 C-53.98 -7.92, -53.79 -7.67, -53.59 -7.39 M-53.59 -7.39 C-53.46 -7.17, -53.33 -6.96, -53.08 -6.55 M-53.59 -7.39 C-53.41 -7.1, -53.24 -6.81, -53.08 -6.55 M-53.08 -6.55 C-52.93 -6.23, -52.78 -5.91, -52.66 -5.66 M-53.08 -6.55 C-52.92 -6.2, -52.76 -5.86, -52.66 -5.66 M-52.66 -5.66 C-52.56 -5.37, -52.46 -5.09, -52.33 -4.74 M-52.66 -5.66 C-52.55 -5.35, -52.44 -5.03, -52.33 -4.74 M-52.33 -4.74 C-52.26 -4.44, -52.18 -4.14, -52.09 -3.78 M-52.33 -4.74 C-52.26 -4.44, -52.18 -4.15, -52.09 -3.78 M-52.09 -3.78 C-52.04 -3.42, -51.99 -3.06, -51.95 -2.81 M-52.09 -3.78 C-52.04 -3.44, -51.99 -3.1, -51.95 -2.81 M-51.95 -2.81 C-51.93 -2.46, -51.91 -2.1, -51.9 -1.83 M-51.95 -2.81 C-51.94 -2.57, -51.92 -2.32, -51.9 -1.83 M-51.9 -1.83 C-51.91 -1.56, -51.93 -1.29, -51.95 -0.85 M-51.9 -1.83 C-51.91 -1.6, -51.92 -1.37, -51.95 -0.85 M-51.95 -0.85 C-51.98 -0.63, -52.01 -0.4, -52.07 0 M-51.95 -0.85 C-51.99 -0.55, -52.04 -0.24, -52.07 0 M-52.07 0 C-36.87 0, -21.67 0, 0 0 M-52.07 0 C-40.26 0, -28.44 0, 0 0" stroke="#1e1e1e" stroke-width="4" fill="none"></path></g></g><mask></mask><g stroke-linecap="round"><g transform="translate(84.83922400861523 232.83553346028677) rotate(0 -9.95184726672197 -0.980171403295607)"><path d="M0 0 C-0.03 0.23, -0.07 0.46, -0.14 0.97 M0 0 C-0.03 0.21, -0.06 0.41, -0.14 0.97 M-0.14 0.97 C-0.23 1.33, -0.33 1.7, -0.38 1.92 M-0.14 0.97 C-0.22 1.29, -0.3 1.61, -0.38 1.92 M-0.38 1.92 C-0.47 2.18, -0.57 2.44, -0.71 2.85 M-0.38 1.92 C-0.48 2.2, -0.58 2.49, -0.71 2.85 M-0.71 2.85 C-0.85 3.13, -0.98 3.41, -1.13 3.73 M-0.71 2.85 C-0.81 3.05, -0.9 3.25, -1.13 3.73 M-1.13 3.73 C-1.24 3.92, -1.35 4.1, -1.64 4.58 M-1.13 3.73 C-1.29 4, -1.45 4.26, -1.64 4.58 M-1.64 4.58 C-1.79 4.78, -1.94 4.98, -2.22 5.36 M-1.64 4.58 C-1.77 4.75, -1.89 4.92, -2.22 5.36 M-2.22 5.36 C-2.44 5.6, -2.65 5.84, -2.88 6.09 M-2.22 5.36 C-2.39 5.55, -2.56 5.73, -2.88 6.09 M-2.88 6.09 C-3.13 6.32, -3.39 6.55, -3.61 6.75 M-2.88 6.09 C-3.1 6.29, -3.32 6.48, -3.61 6.75 M-3.61 6.75 C-3.87 6.95, -4.14 7.14, -4.4 7.33 M-3.61 6.75 C-3.92 6.98, -4.23 7.21, -4.4 7.33 M-4.4 7.33 C-4.58 7.44, -4.76 7.55, -5.24 7.84 M-4.4 7.33 C-4.64 7.48, -4.88 7.62, -5.24 7.84 M-5.24 7.84 C-5.47 7.95, -5.71 8.06, -6.13 8.26 M-5.24 7.84 C-5.43 7.93, -5.61 8.02, -6.13 8.26 M-6.13 8.26 C-6.45 8.38, -6.78 8.49, -7.05 8.59 M-6.13 8.26 C-6.34 8.34, -6.56 8.41, -7.05 8.59 M-7.05 8.59 C-7.42 8.68, -7.78 8.77, -8 8.83 M-7.05 8.59 C-7.27 8.64, -7.49 8.7, -8 8.83 M-8 8.83 C-8.32 8.87, -8.63 8.92, -8.97 8.97 M-8 8.83 C-8.23 8.86, -8.45 8.89, -8.97 8.97 M-8.97 8.97 C-9.21 8.98, -9.45 9, -9.95 9.02 M-8.97 8.97 C-9.17 8.98, -9.36 8.99, -9.95 9.02 M-9.95 9.02 C-10.3 9, -10.65 8.99, -10.93 8.97 M-9.95 9.02 C-10.33 9, -10.71 8.98, -10.93 8.97 M-10.93 8.97 C-11.18 8.94, -11.42 8.9, -11.9 8.83 M-10.93 8.97 C-11.22 8.93, -11.51 8.89, -11.9 8.83 M-11.9 8.83 C-12.23 8.75, -12.56 8.66, -12.85 8.59 M-11.9 8.83 C-12.14 8.77, -12.38 8.71, -12.85 8.59 M-12.85 8.59 C-13.13 8.49, -13.4 8.39, -13.78 8.26 M-12.85 8.59 C-13.17 8.48, -13.49 8.36, -13.78 8.26 M-13.78 8.26 C-14.01 8.15, -14.25 8.04, -14.67 7.84 M-13.78 8.26 C-13.96 8.17, -14.14 8.09, -14.67 7.84 M-14.67 7.84 C-14.94 7.67, -15.22 7.51, -15.51 7.33 M-14.67 7.84 C-14.98 7.65, -15.29 7.46, -15.51 7.33 M-15.51 7.33 C-15.78 7.13, -16.05 6.93, -16.3 6.75 M-15.51 7.33 C-15.7 7.19, -15.9 7.04, -16.3 6.75 M-16.3 6.75 C-16.56 6.51, -16.83 6.27, -17.02 6.09 M-16.3 6.75 C-16.49 6.58, -16.68 6.41, -17.02 6.09 M-17.02 6.09 C-17.22 5.88, -17.41 5.66, -17.68 5.36 M-17.02 6.09 C-17.17 5.92, -17.32 5.76, -17.68 5.36 M-17.68 5.36 C-17.86 5.12, -18.04 4.89, -18.27 4.58 M-17.68 5.36 C-17.87 5.11, -18.05 4.86, -18.27 4.58 M-18.27 4.58 C-18.41 4.33, -18.56 4.09, -18.77 3.73 M-18.27 4.58 C-18.38 4.39, -18.48 4.21, -18.77 3.73 M-18.77 3.73 C-18.89 3.47, -19.02 3.21, -19.19 2.85 M-18.77 3.73 C-18.89 3.49, -19.01 3.24, -19.19 2.85 M-19.19 2.85 C-19.31 2.51, -19.43 2.17, -19.52 1.92 M-19.19 2.85 C-19.29 2.56, -19.4 2.27, -19.52 1.92 M-19.52 1.92 C-19.61 1.57, -19.7 1.23, -19.76 0.97 M-19.52 1.92 C-19.6 1.62, -19.67 1.33, -19.76 0.97 M-19.76 0.97 C-19.79 0.74, -19.83 0.51, -19.9 0 M-19.76 0.97 C-19.8 0.73, -19.83 0.48, -19.9 0 M-19.9 0 C-19.91 -0.21, -19.92 -0.42, -19.95 -0.98 M-19.9 0 C-19.91 -0.22, -19.92 -0.43, -19.95 -0.98 M-19.95 -0.98 C-19.94 -1.26, -19.92 -1.54, -19.9 -1.96 M-19.95 -0.98 C-19.94 -1.18, -19.93 -1.37, -19.9 -1.96 M-19.9 -1.96 C-19.87 -2.16, -19.84 -2.36, -19.76 -2.93 M-19.9 -1.96 C-19.87 -2.18, -19.84 -2.4, -19.76 -2.93 M-19.76 -2.93 C-19.67 -3.27, -19.59 -3.62, -19.52 -3.88 M-19.76 -2.93 C-19.68 -3.27, -19.59 -3.61, -19.52 -3.88 M-19.52 -3.88 C-19.4 -4.23, -19.27 -4.57, -19.19 -4.81 M-19.52 -3.88 C-19.45 -4.07, -19.39 -4.26, -19.19 -4.81 M-19.19 -4.81 C-19.03 -5.14, -18.88 -5.47, -18.77 -5.69 M-19.19 -4.81 C-19.05 -5.11, -18.9 -5.41, -18.77 -5.69 M-18.77 -5.69 C-18.66 -5.88, -18.55 -6.06, -18.27 -6.54 M-18.77 -5.69 C-18.65 -5.89, -18.53 -6.09, -18.27 -6.54 M-18.27 -6.54 C-18.08 -6.79, -17.89 -7.04, -17.68 -7.32 M-18.27 -6.54 C-18.14 -6.71, -18.01 -6.89, -17.68 -7.32 M-17.68 -7.32 C-17.48 -7.55, -17.28 -7.77, -17.02 -8.05 M-17.68 -7.32 C-17.51 -7.51, -17.35 -7.7, -17.02 -8.05 M-17.02 -8.05 C-16.84 -8.21, -16.66 -8.38, -16.3 -8.71 M-17.02 -8.05 C-16.82 -8.24, -16.61 -8.43, -16.3 -8.71 M-16.3 -8.71 C-16.07 -8.88, -15.85 -9.04, -15.51 -9.29 M-16.3 -8.71 C-16.13 -8.83, -15.96 -8.96, -15.51 -9.29 M-15.51 -9.29 C-15.27 -9.44, -15.03 -9.58, -14.67 -9.8 M-15.51 -9.29 C-15.3 -9.42, -15.08 -9.55, -14.67 -9.8 M-14.67 -9.8 C-14.44 -9.91, -14.21 -10.01, -13.78 -10.22 M-14.67 -9.8 C-14.4 -9.92, -14.14 -10.05, -13.78 -10.22 M-13.78 -10.22 C-13.58 -10.29, -13.38 -10.36, -12.85 -10.55 M-13.78 -10.22 C-13.52 -10.31, -13.27 -10.4, -12.85 -10.55 M-12.85 -10.55 C-12.47 -10.64, -12.09 -10.74, -11.9 -10.79 M-12.85 -10.55 C-12.54 -10.63, -12.23 -10.71, -11.9 -10.79 M-11.9 -10.79 C-11.6 -10.83, -11.3 -10.88, -10.93 -10.93 M-11.9 -10.79 C-11.57 -10.84, -11.24 -10.89, -10.93 -10.93 M-10.93 -10.93 C-10.58 -10.95, -10.23 -10.97, -9.95 -10.98 M-10.93 -10.93 C-10.59 -10.95, -10.25 -10.97, -9.95 -10.98 M-9.95 -10.98 C-9.66 -10.97, -9.37 -10.95, -8.97 -10.93 M-9.95 -10.98 C-9.69 -10.97, -9.43 -10.95, -8.97 -10.93 M-8.97 -10.93 C-8.73 -10.9, -8.48 -10.86, -8 -10.79 M-8.97 -10.93 C-8.73 -10.9, -8.49 -10.86, -8 -10.79 M-8 -10.79 C-7.65 -10.7, -7.29 -10.61, -7.05 -10.55 M-8 -10.79 C-7.73 -10.72, -7.45 -10.65, -7.05 -10.55 M-7.05 -10.55 C-6.81 -10.46, -6.57 -10.38, -6.13 -10.22 M-7.05 -10.55 C-6.74 -10.44, -6.42 -10.33, -6.13 -10.22 M-6.13 -10.22 C-5.94 -10.13, -5.76 -10.05, -5.24 -9.8 M-6.13 -10.22 C-5.86 -10.09, -5.6 -9.97, -5.24 -9.8 M-5.24 -9.8 C-5.04 -9.68, -4.85 -9.56, -4.4 -9.29 M-5.24 -9.8 C-4.94 -9.62, -4.63 -9.44, -4.4 -9.29 M-4.4 -9.29 C-4.14 -9.1, -3.87 -8.91, -3.61 -8.71 M-4.4 -9.29 C-4.09 -9.07, -3.78 -8.84, -3.61 -8.71 M-3.61 -8.71 C-3.39 -8.52, -3.18 -8.32, -2.88 -8.05 M-3.61 -8.71 C-3.4 -8.52, -3.19 -8.33, -2.88 -8.05 M-2.88 -8.05 C-2.65 -7.79, -2.41 -7.53, -2.22 -7.32 M-2.88 -8.05 C-2.67 -7.82, -2.46 -7.59, -2.22 -7.32 M-2.22 -7.32 C-2.09 -7.14, -1.95 -6.96, -1.64 -6.54 M-2.22 -7.32 C-2.03 -7.07, -1.84 -6.81, -1.64 -6.54 M-1.64 -6.54 C-1.46 -6.24, -1.28 -5.94, -1.13 -5.69 M-1.64 -6.54 C-1.51 -6.33, -1.39 -6.12, -1.13 -5.69 M-1.13 -5.69 C-1.01 -5.43, -0.88 -5.16, -0.71 -4.81 M-1.13 -5.69 C-1 -5.42, -0.87 -5.14, -0.71 -4.81 M-0.71 -4.81 C-0.63 -4.57, -0.54 -4.32, -0.38 -3.88 M-0.71 -4.81 C-0.59 -4.45, -0.46 -4.1, -0.38 -3.88 M-0.38 -3.88 C-0.33 -3.66, -0.27 -3.43, -0.14 -2.93 M-0.38 -3.88 C-0.31 -3.58, -0.23 -3.28, -0.14 -2.93 M-0.14 -2.93 C-0.1 -2.64, -0.06 -2.35, 0 -1.96 M-0.14 -2.93 C-0.09 -2.59, -0.04 -2.24, 0 -1.96 M0 -1.96 C0.01 -1.74, 0.02 -1.52, 0.05 -0.98 M0 -1.96 C0.01 -1.72, 0.02 -1.48, 0.05 -0.98 M0.05 -0.98 C0.03 -0.65, 0.02 -0.31, 0 0 M0.05 -0.98 C0.04 -0.75, 0.03 -0.53, 0 0" stroke="#1e1e1e" stroke-width="4" fill="none"></path></g></g><mask></mask><g stroke-linecap="round"><g transform="translate(86.36621640378006 192.46722833751383) rotate(0 -9.95184726672197 -0.9801714032955999)"><path d="M0 0 C-0.04 0.28, -0.08 0.55, -0.14 0.97 M0 0 C-0.05 0.32, -0.1 0.64, -0.14 0.97 M-0.14 0.97 C-0.19 1.17, -0.24 1.37, -0.38 1.92 M-0.14 0.97 C-0.21 1.25, -0.28 1.53, -0.38 1.92 M-0.38 1.92 C-0.47 2.18, -0.56 2.43, -0.71 2.85 M-0.38 1.92 C-0.48 2.19, -0.57 2.46, -0.71 2.85 M-0.71 2.85 C-0.87 3.17, -1.02 3.5, -1.13 3.73 M-0.71 2.85 C-0.82 3.07, -0.92 3.28, -1.13 3.73 M-1.13 3.73 C-1.26 3.95, -1.39 4.17, -1.64 4.58 M-1.13 3.73 C-1.3 4.01, -1.46 4.29, -1.64 4.58 M-1.64 4.58 C-1.8 4.79, -1.96 5.01, -2.22 5.36 M-1.64 4.58 C-1.77 4.75, -1.9 4.92, -2.22 5.36 M-2.22 5.36 C-2.4 5.56, -2.58 5.76, -2.88 6.09 M-2.22 5.36 C-2.43 5.6, -2.65 5.83, -2.88 6.09 M-2.88 6.09 C-3.08 6.28, -3.29 6.46, -3.61 6.75 M-2.88 6.09 C-3.04 6.23, -3.2 6.38, -3.61 6.75 M-3.61 6.75 C-3.84 6.92, -4.07 7.1, -4.4 7.33 M-3.61 6.75 C-3.82 6.91, -4.04 7.07, -4.4 7.33 M-4.4 7.33 C-4.67 7.5, -4.94 7.66, -5.24 7.84 M-4.4 7.33 C-4.66 7.49, -4.93 7.65, -5.24 7.84 M-5.24 7.84 C-5.56 7.99, -5.88 8.14, -6.13 8.26 M-5.24 7.84 C-5.43 7.93, -5.62 8.02, -6.13 8.26 M-6.13 8.26 C-6.35 8.34, -6.58 8.42, -7.05 8.59 M-6.13 8.26 C-6.47 8.38, -6.82 8.51, -7.05 8.59 M-7.05 8.59 C-7.27 8.65, -7.5 8.7, -8 8.83 M-7.05 8.59 C-7.35 8.66, -7.64 8.74, -8 8.83 M-8 8.83 C-8.27 8.87, -8.53 8.91, -8.97 8.97 M-8 8.83 C-8.33 8.88, -8.66 8.93, -8.97 8.97 M-8.97 8.97 C-9.31 8.99, -9.64 9, -9.95 9.02 M-8.97 8.97 C-9.32 8.99, -9.67 9.01, -9.95 9.02 M-9.95 9.02 C-10.28 9, -10.62 8.99, -10.93 8.97 M-9.95 9.02 C-10.27 9, -10.6 8.99, -10.93 8.97 M-10.93 8.97 C-11.16 8.94, -11.4 8.9, -11.9 8.83 M-10.93 8.97 C-11.2 8.93, -11.46 8.89, -11.9 8.83 M-11.9 8.83 C-12.25 8.74, -12.6 8.65, -12.85 8.59 M-11.9 8.83 C-12.23 8.75, -12.55 8.67, -12.85 8.59 M-12.85 8.59 C-13.17 8.48, -13.48 8.37, -13.78 8.26 M-12.85 8.59 C-13.05 8.52, -13.24 8.45, -13.78 8.26 M-13.78 8.26 C-14.1 8.1, -14.43 7.95, -14.67 7.84 M-13.78 8.26 C-14.09 8.11, -14.41 7.96, -14.67 7.84 M-14.67 7.84 C-15 7.64, -15.32 7.44, -15.51 7.33 M-14.67 7.84 C-14.88 7.71, -15.09 7.59, -15.51 7.33 M-15.51 7.33 C-15.79 7.12, -16.08 6.91, -16.3 6.75 M-15.51 7.33 C-15.69 7.2, -15.88 7.06, -16.3 6.75 M-16.3 6.75 C-16.58 6.49, -16.87 6.23, -17.02 6.09 M-16.3 6.75 C-16.52 6.55, -16.74 6.35, -17.02 6.09 M-17.02 6.09 C-17.19 5.9, -17.36 5.72, -17.68 5.36 M-17.02 6.09 C-17.16 5.94, -17.3 5.78, -17.68 5.36 M-17.68 5.36 C-17.86 5.13, -18.03 4.89, -18.27 4.58 M-17.68 5.36 C-17.81 5.19, -17.94 5.02, -18.27 4.58 M-18.27 4.58 C-18.45 4.27, -18.63 3.97, -18.77 3.73 M-18.27 4.58 C-18.37 4.4, -18.48 4.22, -18.77 3.73 M-18.77 3.73 C-18.89 3.48, -19.02 3.22, -19.19 2.85 M-18.77 3.73 C-18.88 3.5, -18.99 3.27, -19.19 2.85 M-19.19 2.85 C-19.28 2.6, -19.37 2.36, -19.52 1.92 M-19.19 2.85 C-19.3 2.54, -19.41 2.24, -19.52 1.92 M-19.52 1.92 C-19.59 1.63, -19.67 1.34, -19.76 0.97 M-19.52 1.92 C-19.58 1.7, -19.63 1.48, -19.76 0.97 M-19.76 0.97 C-19.81 0.61, -19.87 0.25, -19.9 0 M-19.76 0.97 C-19.81 0.64, -19.86 0.3, -19.9 0 M-19.9 0 C-19.92 -0.31, -19.93 -0.63, -19.95 -0.98 M-19.9 0 C-19.92 -0.36, -19.94 -0.71, -19.95 -0.98 M-19.95 -0.98 C-19.93 -1.34, -19.92 -1.7, -19.9 -1.96 M-19.95 -0.98 C-19.94 -1.19, -19.93 -1.39, -19.9 -1.96 M-19.9 -1.96 C-19.87 -2.21, -19.83 -2.47, -19.76 -2.93 M-19.9 -1.96 C-19.87 -2.16, -19.84 -2.37, -19.76 -2.93 M-19.76 -2.93 C-19.68 -3.26, -19.6 -3.58, -19.52 -3.88 M-19.76 -2.93 C-19.67 -3.28, -19.58 -3.64, -19.52 -3.88 M-19.52 -3.88 C-19.42 -4.16, -19.32 -4.44, -19.19 -4.81 M-19.52 -3.88 C-19.4 -4.22, -19.28 -4.56, -19.19 -4.81 M-19.19 -4.81 C-19.08 -5.05, -18.96 -5.29, -18.77 -5.69 M-19.19 -4.81 C-19.09 -5.02, -18.99 -5.23, -18.77 -5.69 M-18.77 -5.69 C-18.59 -6, -18.41 -6.3, -18.27 -6.54 M-18.77 -5.69 C-18.59 -5.99, -18.42 -6.29, -18.27 -6.54 M-18.27 -6.54 C-18.07 -6.8, -17.88 -7.06, -17.68 -7.32 M-18.27 -6.54 C-18.09 -6.78, -17.9 -7.03, -17.68 -7.32 M-17.68 -7.32 C-17.42 -7.61, -17.17 -7.89, -17.02 -8.05 M-17.68 -7.32 C-17.47 -7.55, -17.27 -7.78, -17.02 -8.05 M-17.02 -8.05 C-16.88 -8.19, -16.73 -8.32, -16.3 -8.71 M-17.02 -8.05 C-16.83 -8.23, -16.64 -8.4, -16.3 -8.71 M-16.3 -8.71 C-16.06 -8.89, -15.82 -9.07, -15.51 -9.29 M-16.3 -8.71 C-16.03 -8.91, -15.77 -9.1, -15.51 -9.29 M-15.51 -9.29 C-15.22 -9.47, -14.93 -9.64, -14.67 -9.8 M-15.51 -9.29 C-15.29 -9.42, -15.07 -9.55, -14.67 -9.8 M-14.67 -9.8 C-14.44 -9.91, -14.21 -10.01, -13.78 -10.22 M-14.67 -9.8 C-14.38 -9.93, -14.1 -10.07, -13.78 -10.22 M-13.78 -10.22 C-13.48 -10.32, -13.19 -10.43, -12.85 -10.55 M-13.78 -10.22 C-13.57 -10.29, -13.37 -10.37, -12.85 -10.55 M-12.85 -10.55 C-12.53 -10.63, -12.21 -10.71, -11.9 -10.79 M-12.85 -10.55 C-12.57 -10.62, -12.28 -10.69, -11.9 -10.79 M-11.9 -10.79 C-11.63 -10.83, -11.35 -10.87, -10.93 -10.93 M-11.9 -10.79 C-11.54 -10.84, -11.17 -10.9, -10.93 -10.93 M-10.93 -10.93 C-10.64 -10.95, -10.36 -10.96, -9.95 -10.98 M-10.93 -10.93 C-10.58 -10.95, -10.23 -10.97, -9.95 -10.98 M-9.95 -10.98 C-9.66 -10.97, -9.37 -10.95, -8.97 -10.93 M-9.95 -10.98 C-9.64 -10.96, -9.33 -10.95, -8.97 -10.93 M-8.97 -10.93 C-8.76 -10.9, -8.56 -10.87, -8 -10.79 M-8.97 -10.93 C-8.7 -10.89, -8.42 -10.85, -8 -10.79 M-8 -10.79 C-7.81 -10.74, -7.62 -10.69, -7.05 -10.55 M-8 -10.79 C-7.7 -10.71, -7.4 -10.64, -7.05 -10.55 M-7.05 -10.55 C-6.84 -10.47, -6.62 -10.4, -6.13 -10.22 M-7.05 -10.55 C-6.77 -10.45, -6.49 -10.35, -6.13 -10.22 M-6.13 -10.22 C-5.82 -10.08, -5.52 -9.93, -5.24 -9.8 M-6.13 -10.22 C-5.92 -10.12, -5.72 -10.03, -5.24 -9.8 M-5.24 -9.8 C-5.05 -9.69, -4.87 -9.58, -4.4 -9.29 M-5.24 -9.8 C-4.92 -9.61, -4.61 -9.42, -4.4 -9.29 M-4.4 -9.29 C-4.19 -9.14, -3.99 -8.99, -3.61 -8.71 M-4.4 -9.29 C-4.09 -9.07, -3.78 -8.84, -3.61 -8.71 M-3.61 -8.71 C-3.38 -8.51, -3.16 -8.3, -2.88 -8.05 M-3.61 -8.71 C-3.4 -8.52, -3.2 -8.34, -2.88 -8.05 M-2.88 -8.05 C-2.63 -7.77, -2.38 -7.5, -2.22 -7.32 M-2.88 -8.05 C-2.68 -7.83, -2.47 -7.6, -2.22 -7.32 M-2.22 -7.32 C-2.01 -7.03, -1.79 -6.74, -1.64 -6.54 M-2.22 -7.32 C-2.02 -7.05, -1.81 -6.77, -1.64 -6.54 M-1.64 -6.54 C-1.46 -6.25, -1.29 -5.96, -1.13 -5.69 M-1.64 -6.54 C-1.44 -6.21, -1.24 -5.88, -1.13 -5.69 M-1.13 -5.69 C-1 -5.42, -0.87 -5.14, -0.71 -4.81 M-1.13 -5.69 C-1 -5.41, -0.87 -5.13, -0.71 -4.81 M-0.71 -4.81 C-0.62 -4.56, -0.53 -4.31, -0.38 -3.88 M-0.71 -4.81 C-0.58 -4.44, -0.45 -4.08, -0.38 -3.88 M-0.38 -3.88 C-0.29 -3.51, -0.19 -3.13, -0.14 -2.93 M-0.38 -3.88 C-0.32 -3.64, -0.26 -3.39, -0.14 -2.93 M-0.14 -2.93 C-0.1 -2.66, -0.06 -2.38, 0 -1.96 M-0.14 -2.93 C-0.09 -2.56, -0.03 -2.19, 0 -1.96 M0 -1.96 C0.02 -1.64, 0.03 -1.32, 0.05 -0.98 M0 -1.96 C0.01 -1.68, 0.03 -1.4, 0.05 -0.98 M0.05 -0.98 C0.03 -0.6, 0.01 -0.22, 0 0 M0.05 -0.98 C0.03 -0.6, 0.01 -0.22, 0 0" stroke="#1e1e1e" stroke-width="4" fill="none"></path></g></g><mask></mask><g stroke-linecap="round"><g transform="translate(132.74944946505389 204.17940614019287) rotate(0 -9.95184726672197 -0.9801714032955999)"><path d="M0 0 C-0.05 0.33, -0.1 0.67, -0.14 0.97 M0 0 C-0.05 0.36, -0.11 0.72, -0.14 0.97 M-0.14 0.97 C-0.24 1.34, -0.33 1.72, -0.38 1.92 M-0.14 0.97 C-0.23 1.33, -0.33 1.7, -0.38 1.92 M-0.38 1.92 C-0.47 2.18, -0.56 2.43, -0.71 2.85 M-0.38 1.92 C-0.47 2.18, -0.57 2.44, -0.71 2.85 M-0.71 2.85 C-0.84 3.11, -0.96 3.38, -1.13 3.73 M-0.71 2.85 C-0.87 3.18, -1.03 3.51, -1.13 3.73 M-1.13 3.73 C-1.28 3.99, -1.44 4.24, -1.64 4.58 M-1.13 3.73 C-1.26 3.94, -1.38 4.15, -1.64 4.58 M-1.64 4.58 C-1.86 4.87, -2.08 5.17, -2.22 5.36 M-1.64 4.58 C-1.85 4.87, -2.07 5.16, -2.22 5.36 M-2.22 5.36 C-2.41 5.57, -2.6 5.78, -2.88 6.09 M-2.22 5.36 C-2.4 5.56, -2.58 5.76, -2.88 6.09 M-2.88 6.09 C-3.15 6.34, -3.42 6.58, -3.61 6.75 M-2.88 6.09 C-3.13 6.32, -3.38 6.54, -3.61 6.75 M-3.61 6.75 C-3.9 6.97, -4.2 7.19, -4.4 7.33 M-3.61 6.75 C-3.91 6.97, -4.21 7.2, -4.4 7.33 M-4.4 7.33 C-4.69 7.51, -4.98 7.69, -5.24 7.84 M-4.4 7.33 C-4.58 7.45, -4.77 7.56, -5.24 7.84 M-5.24 7.84 C-5.48 7.95, -5.72 8.07, -6.13 8.26 M-5.24 7.84 C-5.49 7.96, -5.75 8.08, -6.13 8.26 M-6.13 8.26 C-6.48 8.39, -6.83 8.51, -7.05 8.59 M-6.13 8.26 C-6.49 8.39, -6.85 8.52, -7.05 8.59 M-7.05 8.59 C-7.4 8.68, -7.75 8.76, -8 8.83 M-7.05 8.59 C-7.35 8.66, -7.64 8.74, -8 8.83 M-8 8.83 C-8.28 8.87, -8.56 8.91, -8.97 8.97 M-8 8.83 C-8.38 8.88, -8.76 8.94, -8.97 8.97 M-8.97 8.97 C-9.17 8.98, -9.36 8.99, -9.95 9.02 M-8.97 8.97 C-9.25 8.99, -9.54 9, -9.95 9.02 M-9.95 9.02 C-10.22 9.01, -10.49 8.99, -10.93 8.97 M-9.95 9.02 C-10.16 9.01, -10.37 9, -10.93 8.97 M-10.93 8.97 C-11.32 8.91, -11.71 8.86, -11.9 8.83 M-10.93 8.97 C-11.17 8.94, -11.41 8.9, -11.9 8.83 M-11.9 8.83 C-12.19 8.76, -12.47 8.69, -12.85 8.59 M-11.9 8.83 C-12.09 8.78, -12.29 8.73, -12.85 8.59 M-12.85 8.59 C-13.18 8.47, -13.51 8.36, -13.78 8.26 M-12.85 8.59 C-13.16 8.48, -13.46 8.37, -13.78 8.26 M-13.78 8.26 C-14.06 8.13, -14.34 7.99, -14.67 7.84 M-13.78 8.26 C-14.1 8.11, -14.42 7.95, -14.67 7.84 M-14.67 7.84 C-14.94 7.67, -15.22 7.51, -15.51 7.33 M-14.67 7.84 C-14.89 7.7, -15.12 7.57, -15.51 7.33 M-15.51 7.33 C-15.68 7.21, -15.85 7.08, -16.3 6.75 M-15.51 7.33 C-15.71 7.19, -15.91 7.04, -16.3 6.75 M-16.3 6.75 C-16.55 6.52, -16.8 6.29, -17.02 6.09 M-16.3 6.75 C-16.53 6.54, -16.76 6.33, -17.02 6.09 M-17.02 6.09 C-17.22 5.87, -17.42 5.65, -17.68 5.36 M-17.02 6.09 C-17.21 5.88, -17.4 5.67, -17.68 5.36 M-17.68 5.36 C-17.87 5.11, -18.06 4.85, -18.27 4.58 M-17.68 5.36 C-17.88 5.1, -18.07 4.84, -18.27 4.58 M-18.27 4.58 C-18.37 4.41, -18.47 4.23, -18.77 3.73 M-18.27 4.58 C-18.38 4.38, -18.5 4.19, -18.77 3.73 M-18.77 3.73 C-18.91 3.45, -19.04 3.16, -19.19 2.85 M-18.77 3.73 C-18.88 3.5, -19 3.26, -19.19 2.85 M-19.19 2.85 C-19.31 2.52, -19.43 2.19, -19.52 1.92 M-19.19 2.85 C-19.29 2.57, -19.39 2.29, -19.52 1.92 M-19.52 1.92 C-19.59 1.65, -19.66 1.37, -19.76 0.97 M-19.52 1.92 C-19.59 1.66, -19.65 1.39, -19.76 0.97 M-19.76 0.97 C-19.81 0.65, -19.86 0.32, -19.9 0 M-19.76 0.97 C-19.8 0.7, -19.84 0.43, -19.9 0 M-19.9 0 C-19.92 -0.33, -19.94 -0.66, -19.95 -0.98 M-19.9 0 C-19.92 -0.23, -19.93 -0.47, -19.95 -0.98 M-19.95 -0.98 C-19.94 -1.29, -19.92 -1.6, -19.9 -1.96 M-19.95 -0.98 C-19.93 -1.36, -19.91 -1.75, -19.9 -1.96 M-19.9 -1.96 C-19.87 -2.21, -19.83 -2.45, -19.76 -2.93 M-19.9 -1.96 C-19.87 -2.17, -19.84 -2.37, -19.76 -2.93 M-19.76 -2.93 C-19.71 -3.14, -19.66 -3.35, -19.52 -3.88 M-19.76 -2.93 C-19.71 -3.15, -19.65 -3.36, -19.52 -3.88 M-19.52 -3.88 C-19.39 -4.24, -19.27 -4.6, -19.19 -4.81 M-19.52 -3.88 C-19.4 -4.23, -19.27 -4.58, -19.19 -4.81 M-19.19 -4.81 C-19.04 -5.13, -18.89 -5.44, -18.77 -5.69 M-19.19 -4.81 C-19.1 -5.01, -19 -5.21, -18.77 -5.69 M-18.77 -5.69 C-18.59 -6, -18.4 -6.31, -18.27 -6.54 M-18.77 -5.69 C-18.61 -5.96, -18.46 -6.22, -18.27 -6.54 M-18.27 -6.54 C-18.04 -6.84, -17.81 -7.15, -17.68 -7.32 M-18.27 -6.54 C-18.04 -6.84, -17.82 -7.13, -17.68 -7.32 M-17.68 -7.32 C-17.43 -7.6, -17.18 -7.88, -17.02 -8.05 M-17.68 -7.32 C-17.48 -7.55, -17.28 -7.77, -17.02 -8.05 M-17.02 -8.05 C-16.75 -8.3, -16.48 -8.54, -16.3 -8.71 M-17.02 -8.05 C-16.78 -8.28, -16.53 -8.5, -16.3 -8.71 M-16.3 -8.71 C-16.06 -8.89, -15.82 -9.06, -15.51 -9.29 M-16.3 -8.71 C-16.1 -8.85, -15.91 -8.99, -15.51 -9.29 M-15.51 -9.29 C-15.25 -9.45, -15 -9.6, -14.67 -9.8 M-15.51 -9.29 C-15.25 -9.45, -14.98 -9.61, -14.67 -9.8 M-14.67 -9.8 C-14.35 -9.95, -14.03 -10.1, -13.78 -10.22 M-14.67 -9.8 C-14.38 -9.93, -14.1 -10.07, -13.78 -10.22 M-13.78 -10.22 C-13.43 -10.35, -13.07 -10.47, -12.85 -10.55 M-13.78 -10.22 C-13.45 -10.34, -13.13 -10.45, -12.85 -10.55 M-12.85 -10.55 C-12.61 -10.61, -12.36 -10.67, -11.9 -10.79 M-12.85 -10.55 C-12.54 -10.63, -12.22 -10.71, -11.9 -10.79 M-11.9 -10.79 C-11.57 -10.84, -11.24 -10.89, -10.93 -10.93 M-11.9 -10.79 C-11.64 -10.83, -11.37 -10.87, -10.93 -10.93 M-10.93 -10.93 C-10.66 -10.95, -10.38 -10.96, -9.95 -10.98 M-10.93 -10.93 C-10.55 -10.95, -10.17 -10.97, -9.95 -10.98 M-9.95 -10.98 C-9.63 -10.96, -9.31 -10.95, -8.97 -10.93 M-9.95 -10.98 C-9.61 -10.96, -9.27 -10.95, -8.97 -10.93 M-8.97 -10.93 C-8.61 -10.88, -8.26 -10.83, -8 -10.79 M-8.97 -10.93 C-8.59 -10.87, -8.2 -10.82, -8 -10.79 M-8 -10.79 C-7.8 -10.74, -7.59 -10.69, -7.05 -10.55 M-8 -10.79 C-7.62 -10.69, -7.24 -10.6, -7.05 -10.55 M-7.05 -10.55 C-6.83 -10.47, -6.61 -10.39, -6.13 -10.22 M-7.05 -10.55 C-6.71 -10.43, -6.37 -10.31, -6.13 -10.22 M-6.13 -10.22 C-5.87 -10.1, -5.62 -9.98, -5.24 -9.8 M-6.13 -10.22 C-5.86 -10.09, -5.6 -9.97, -5.24 -9.8 M-5.24 -9.8 C-5 -9.66, -4.77 -9.52, -4.4 -9.29 M-5.24 -9.8 C-4.97 -9.64, -4.71 -9.48, -4.4 -9.29 M-4.4 -9.29 C-4.12 -9.09, -3.84 -8.88, -3.61 -8.71 M-4.4 -9.29 C-4.17 -9.13, -3.95 -8.97, -3.61 -8.71 M-3.61 -8.71 C-3.43 -8.55, -3.25 -8.39, -2.88 -8.05 M-3.61 -8.71 C-3.34 -8.47, -3.08 -8.23, -2.88 -8.05 M-2.88 -8.05 C-2.72 -7.87, -2.56 -7.7, -2.22 -7.32 M-2.88 -8.05 C-2.72 -7.88, -2.57 -7.71, -2.22 -7.32 M-2.22 -7.32 C-2.01 -7.03, -1.79 -6.74, -1.64 -6.54 M-2.22 -7.32 C-2.08 -7.13, -1.94 -6.94, -1.64 -6.54 M-1.64 -6.54 C-1.48 -6.27, -1.32 -6.01, -1.13 -5.69 M-1.64 -6.54 C-1.53 -6.36, -1.43 -6.19, -1.13 -5.69 M-1.13 -5.69 C-1.03 -5.48, -0.93 -5.27, -0.71 -4.81 M-1.13 -5.69 C-0.97 -5.36, -0.81 -5.02, -0.71 -4.81 M-0.71 -4.81 C-0.61 -4.51, -0.5 -4.21, -0.38 -3.88 M-0.71 -4.81 C-0.62 -4.55, -0.53 -4.29, -0.38 -3.88 M-0.38 -3.88 C-0.3 -3.56, -0.22 -3.25, -0.14 -2.93 M-0.38 -3.88 C-0.33 -3.68, -0.28 -3.47, -0.14 -2.93 M-0.14 -2.93 C-0.09 -2.57, -0.04 -2.21, 0 -1.96 M-0.14 -2.93 C-0.1 -2.62, -0.05 -2.31, 0 -1.96 M0 -1.96 C0.01 -1.68, 0.03 -1.4, 0.05 -0.98 M0 -1.96 C0.01 -1.68, 0.03 -1.4, 0.05 -0.98 M0.05 -0.98 C0.03 -0.62, 0.01 -0.25, 0 0 M0.05 -0.98 C0.04 -0.76, 0.03 -0.55, 0 0" stroke="#1e1e1e" stroke-width="4" fill="none"></path></g></g><mask></mask><g stroke-linecap="round"><g transform="translate(164.54433256266896 224.7131356602598) rotate(0 -9.95184726672197 -0.9801714032955999)"><path d="M0 0 C-0.04 0.28, -0.08 0.55, -0.14 0.97 M0 0 C-0.05 0.33, -0.1 0.67, -0.14 0.97 M-0.14 0.97 C-0.2 1.21, -0.26 1.44, -0.38 1.92 M-0.14 0.97 C-0.2 1.2, -0.26 1.43, -0.38 1.92 M-0.38 1.92 C-0.51 2.28, -0.64 2.65, -0.71 2.85 M-0.38 1.92 C-0.46 2.15, -0.54 2.37, -0.71 2.85 M-0.71 2.85 C-0.85 3.13, -0.99 3.42, -1.13 3.73 M-0.71 2.85 C-0.84 3.11, -0.96 3.38, -1.13 3.73 M-1.13 3.73 C-1.28 3.98, -1.42 4.22, -1.64 4.58 M-1.13 3.73 C-1.3 4.01, -1.47 4.29, -1.64 4.58 M-1.64 4.58 C-1.86 4.87, -2.08 5.17, -2.22 5.36 M-1.64 4.58 C-1.84 4.85, -2.04 5.12, -2.22 5.36 M-2.22 5.36 C-2.4 5.56, -2.58 5.76, -2.88 6.09 M-2.22 5.36 C-2.39 5.55, -2.57 5.74, -2.88 6.09 M-2.88 6.09 C-3.08 6.27, -3.27 6.44, -3.61 6.75 M-2.88 6.09 C-3.05 6.24, -3.22 6.4, -3.61 6.75 M-3.61 6.75 C-3.77 6.87, -3.94 6.99, -4.4 7.33 M-3.61 6.75 C-3.82 6.91, -4.04 7.07, -4.4 7.33 M-4.4 7.33 C-4.65 7.49, -4.9 7.64, -5.24 7.84 M-4.4 7.33 C-4.71 7.52, -5.02 7.71, -5.24 7.84 M-5.24 7.84 C-5.46 7.95, -5.69 8.05, -6.13 8.26 M-5.24 7.84 C-5.51 7.97, -5.78 8.1, -6.13 8.26 M-6.13 8.26 C-6.4 8.36, -6.68 8.46, -7.05 8.59 M-6.13 8.26 C-6.31 8.33, -6.5 8.39, -7.05 8.59 M-7.05 8.59 C-7.36 8.67, -7.68 8.75, -8 8.83 M-7.05 8.59 C-7.34 8.66, -7.63 8.74, -8 8.83 M-8 8.83 C-8.31 8.87, -8.61 8.92, -8.97 8.97 M-8 8.83 C-8.33 8.88, -8.66 8.93, -8.97 8.97 M-8.97 8.97 C-9.21 8.98, -9.44 8.99, -9.95 9.02 M-8.97 8.97 C-9.27 8.99, -9.58 9, -9.95 9.02 M-9.95 9.02 C-10.27 9, -10.59 8.99, -10.93 8.97 M-9.95 9.02 C-10.18 9.01, -10.4 9, -10.93 8.97 M-10.93 8.97 C-11.28 8.92, -11.63 8.87, -11.9 8.83 M-10.93 8.97 C-11.27 8.92, -11.61 8.87, -11.9 8.83 M-11.9 8.83 C-12.22 8.75, -12.53 8.67, -12.85 8.59 M-11.9 8.83 C-12.16 8.76, -12.41 8.7, -12.85 8.59 M-12.85 8.59 C-13.18 8.47, -13.5 8.36, -13.78 8.26 M-12.85 8.59 C-13.19 8.47, -13.53 8.35, -13.78 8.26 M-13.78 8.26 C-14.02 8.15, -14.25 8.03, -14.67 7.84 M-13.78 8.26 C-14.05 8.13, -14.32 8, -14.67 7.84 M-14.67 7.84 C-14.86 7.72, -15.06 7.6, -15.51 7.33 M-14.67 7.84 C-14.91 7.69, -15.15 7.55, -15.51 7.33 M-15.51 7.33 C-15.74 7.16, -15.96 7, -16.3 6.75 M-15.51 7.33 C-15.77 7.14, -16.04 6.94, -16.3 6.75 M-16.3 6.75 C-16.53 6.54, -16.77 6.32, -17.02 6.09 M-16.3 6.75 C-16.55 6.52, -16.8 6.29, -17.02 6.09 M-17.02 6.09 C-17.21 5.89, -17.39 5.68, -17.68 5.36 M-17.02 6.09 C-17.16 5.94, -17.29 5.79, -17.68 5.36 M-17.68 5.36 C-17.86 5.12, -18.04 4.88, -18.27 4.58 M-17.68 5.36 C-17.91 5.06, -18.13 4.76, -18.27 4.58 M-18.27 4.58 C-18.45 4.28, -18.62 3.98, -18.77 3.73 M-18.27 4.58 C-18.42 4.32, -18.57 4.07, -18.77 3.73 M-18.77 3.73 C-18.91 3.43, -19.05 3.13, -19.19 2.85 M-18.77 3.73 C-18.9 3.45, -19.04 3.17, -19.19 2.85 M-19.19 2.85 C-19.3 2.53, -19.42 2.21, -19.52 1.92 M-19.19 2.85 C-19.28 2.6, -19.37 2.35, -19.52 1.92 M-19.52 1.92 C-19.61 1.58, -19.69 1.24, -19.76 0.97 M-19.52 1.92 C-19.59 1.66, -19.66 1.39, -19.76 0.97 M-19.76 0.97 C-19.8 0.67, -19.85 0.36, -19.9 0 M-19.76 0.97 C-19.8 0.68, -19.84 0.4, -19.9 0 M-19.9 0 C-19.92 -0.38, -19.94 -0.76, -19.95 -0.98 M-19.9 0 C-19.92 -0.29, -19.93 -0.58, -19.95 -0.98 M-19.95 -0.98 C-19.94 -1.23, -19.93 -1.48, -19.9 -1.96 M-19.95 -0.98 C-19.94 -1.2, -19.93 -1.41, -19.9 -1.96 M-19.9 -1.96 C-19.87 -2.16, -19.84 -2.36, -19.76 -2.93 M-19.9 -1.96 C-19.85 -2.34, -19.79 -2.72, -19.76 -2.93 M-19.76 -2.93 C-19.67 -3.29, -19.58 -3.66, -19.52 -3.88 M-19.76 -2.93 C-19.71 -3.15, -19.65 -3.36, -19.52 -3.88 M-19.52 -3.88 C-19.43 -4.15, -19.33 -4.42, -19.19 -4.81 M-19.52 -3.88 C-19.43 -4.15, -19.33 -4.41, -19.19 -4.81 M-19.19 -4.81 C-19.09 -5.02, -18.99 -5.23, -18.77 -5.69 M-19.19 -4.81 C-19.04 -5.12, -18.89 -5.43, -18.77 -5.69 M-18.77 -5.69 C-18.63 -5.93, -18.49 -6.16, -18.27 -6.54 M-18.77 -5.69 C-18.62 -5.95, -18.47 -6.2, -18.27 -6.54 M-18.27 -6.54 C-18.03 -6.85, -17.8 -7.16, -17.68 -7.32 M-18.27 -6.54 C-18.04 -6.83, -17.82 -7.13, -17.68 -7.32 M-17.68 -7.32 C-17.49 -7.53, -17.3 -7.75, -17.02 -8.05 M-17.68 -7.32 C-17.51 -7.51, -17.34 -7.7, -17.02 -8.05 M-17.02 -8.05 C-16.77 -8.28, -16.51 -8.52, -16.3 -8.71 M-17.02 -8.05 C-16.78 -8.27, -16.53 -8.5, -16.3 -8.71 M-16.3 -8.71 C-16.12 -8.84, -15.94 -8.98, -15.51 -9.29 M-16.3 -8.71 C-16 -8.93, -15.7 -9.15, -15.51 -9.29 M-15.51 -9.29 C-15.32 -9.41, -15.13 -9.52, -14.67 -9.8 M-15.51 -9.29 C-15.33 -9.4, -15.16 -9.5, -14.67 -9.8 M-14.67 -9.8 C-14.43 -9.91, -14.2 -10.02, -13.78 -10.22 M-14.67 -9.8 C-14.34 -9.95, -14.01 -10.11, -13.78 -10.22 M-13.78 -10.22 C-13.53 -10.31, -13.28 -10.4, -12.85 -10.55 M-13.78 -10.22 C-13.58 -10.29, -13.37 -10.36, -12.85 -10.55 M-12.85 -10.55 C-12.53 -10.63, -12.2 -10.71, -11.9 -10.79 M-12.85 -10.55 C-12.52 -10.63, -12.18 -10.72, -11.9 -10.79 M-11.9 -10.79 C-11.55 -10.84, -11.21 -10.89, -10.93 -10.93 M-11.9 -10.79 C-11.57 -10.84, -11.23 -10.89, -10.93 -10.93 M-10.93 -10.93 C-10.64 -10.95, -10.34 -10.96, -9.95 -10.98 M-10.93 -10.93 C-10.59 -10.95, -10.25 -10.97, -9.95 -10.98 M-9.95 -10.98 C-9.66 -10.97, -9.37 -10.95, -8.97 -10.93 M-9.95 -10.98 C-9.74 -10.97, -9.53 -10.96, -8.97 -10.93 M-8.97 -10.93 C-8.65 -10.88, -8.32 -10.84, -8 -10.79 M-8.97 -10.93 C-8.63 -10.88, -8.28 -10.83, -8 -10.79 M-8 -10.79 C-7.71 -10.71, -7.42 -10.64, -7.05 -10.55 M-8 -10.79 C-7.81 -10.74, -7.61 -10.69, -7.05 -10.55 M-7.05 -10.55 C-6.75 -10.44, -6.45 -10.34, -6.13 -10.22 M-7.05 -10.55 C-6.78 -10.45, -6.52 -10.36, -6.13 -10.22 M-6.13 -10.22 C-5.81 -10.07, -5.5 -9.92, -5.24 -9.8 M-6.13 -10.22 C-5.83 -10.08, -5.54 -9.94, -5.24 -9.8 M-5.24 -9.8 C-4.96 -9.63, -4.68 -9.47, -4.4 -9.29 M-5.24 -9.8 C-5.02 -9.67, -4.8 -9.54, -4.4 -9.29 M-4.4 -9.29 C-4.23 -9.17, -4.07 -9.05, -3.61 -8.71 M-4.4 -9.29 C-4.11 -9.08, -3.83 -8.87, -3.61 -8.71 M-3.61 -8.71 C-3.4 -8.53, -3.2 -8.34, -2.88 -8.05 M-3.61 -8.71 C-3.41 -8.53, -3.21 -8.35, -2.88 -8.05 M-2.88 -8.05 C-2.62 -7.77, -2.36 -7.48, -2.22 -7.32 M-2.88 -8.05 C-2.67 -7.82, -2.46 -7.59, -2.22 -7.32 M-2.22 -7.32 C-2.05 -7.1, -1.88 -6.87, -1.64 -6.54 M-2.22 -7.32 C-2.03 -7.06, -1.83 -6.8, -1.64 -6.54 M-1.64 -6.54 C-1.52 -6.34, -1.4 -6.14, -1.13 -5.69 M-1.64 -6.54 C-1.45 -6.22, -1.26 -5.9, -1.13 -5.69 M-1.13 -5.69 C-0.99 -5.39, -0.85 -5.09, -0.71 -4.81 M-1.13 -5.69 C-0.99 -5.38, -0.84 -5.07, -0.71 -4.81 M-0.71 -4.81 C-0.58 -4.44, -0.45 -4.08, -0.38 -3.88 M-0.71 -4.81 C-0.6 -4.49, -0.49 -4.18, -0.38 -3.88 M-0.38 -3.88 C-0.29 -3.51, -0.19 -3.13, -0.14 -2.93 M-0.38 -3.88 C-0.33 -3.67, -0.28 -3.46, -0.14 -2.93 M-0.14 -2.93 C-0.09 -2.58, -0.04 -2.22, 0 -1.96 M-0.14 -2.93 C-0.09 -2.56, -0.03 -2.19, 0 -1.96 M0 -1.96 C0.01 -1.67, 0.03 -1.38, 0.05 -0.98 M0 -1.96 C0.02 -1.62, 0.03 -1.28, 0.05 -0.98 M0.05 -0.98 C0.03 -0.63, 0.01 -0.27, 0 0 M0.05 -0.98 C0.03 -0.68, 0.02 -0.38, 0 0" stroke="#1e1e1e" stroke-width="4" fill="none"></path></g></g><mask></mask><g stroke-linecap="round" transform="translate(10 250) rotate(0 100 40)"><path d="M0 0 L200 0 L200 80 L0 80" stroke="none" stroke-width="0" fill="#a5d8ff"></path><path d="M0 0 C53.14 0, 106.29 0, 200 0 M0 0 C45.21 0, 90.43 0, 200 0 M200 0 C200 22.11, 200 44.23, 200 80 M200 0 C200 25.22, 200 50.44, 200 80 M200 80 C138.15 80, 76.29 80, 0 80 M200 80 C130.05 80, 60.1 80, 0 80 M0 80 C0 59.84, 0 39.67, 0 0 M0 80 C0 49.56, 0 19.11, 0 0" stroke="#1e1e1e" stroke-width="4" fill="none"></path></g><g stroke-linecap="round"><g transform="translate(110 10) rotate(0 0 30)"><path d="M0 0 C0 10, 0 50, 0 60 M0 0 C0 10, 0 50, 0 60" stroke="#e03131" stroke-width="4" fill="none"></path></g><g transform="translate(110 10) rotate(0 0 30)"><path d="M0 60 L-6.34 46.41 L6.34 46.41 L0 60" stroke="none" stroke-width="0" fill="#e03131" fill-rule="evenodd"></path><path d="M0 60 C-2.14 55.42, -4.27 50.84, -6.34 46.41 M0 60 C-1.46 56.86, -2.93 53.72, -6.34 46.41 M-6.34 46.41 C-2.39 46.41, 1.55 46.41, 6.34 46.41 M-6.34 46.41 C-2.21 46.41, 1.91 46.41, 6.34 46.41 M6.34 46.41 C4.88 49.52, 3.43 52.64, 0 60 M6.34 46.41 C4.89 49.51, 3.45 52.61, 0 60 M0 60 C0 60, 0 60, 0 60 M0 60 C0 60, 0 60, 0 60" stroke="#e03131" stroke-width="4" fill="none"></path></g></g><mask></mask><g stroke-linecap="round"><g transform="translate(110 410) rotate(0 0 -30)"><path d="M0 0 C0 -10, 0 -50, 0 -60 M0 0 C0 -10, 0 -50, 0 -60" stroke="#e03131" stroke-width="4" fill="none"></path></g><g transform="translate(110 410) rotate(0 0 -30)"><path d="M0 -60 L6.34 -46.41 L-6.34 -46.41 L0 -60" stroke="none" stroke-width="0" fill="#e03131" fill-rule="evenodd"></path><path d="M0 -60 C1.4 -56.99, 2.81 -53.98, 6.34 -46.41 M0 -60 C2.34 -54.97, 4.69 -49.94, 6.34 -46.41 M6.34 -46.41 C2.79 -46.41, -0.75 -46.41, -6.34 -46.41 M6.34 -46.41 C2.19 -46.41, -1.96 -46.41, -6.34 -46.41 M-6.34 -46.41 C-5.02 -49.24, -3.7 -52.07, 0 -60 M-6.34 -46.41 C-4.45 -50.46, -2.56 -54.51, 0 -60 M0 -60 C0 -60, 0 -60, 0 -60 M0 -60 C0 -60, 0 -60, 0 -60" stroke="#e03131" stroke-width="4" fill="none"></path></g></g><mask></mask></svg>