<svg version="1.1" xmlns="http://www.w3.org/2000/svg" viewBox="0 0 520.0000000000003 160.00000000000017" width="520.0000000000003" height="160.00000000000017" filter="invert(93%) hue-rotate(180deg)" class="excalidraw-svg"><!-- svg-source:excalidraw --><metadata></metadata><defs><style class="style-fonts">
      </style></defs><g stroke-linecap="round" transform="translate(210.00000000000006 30.00000000000003) rotate(0 50 50)"><path d="M0 0 L100 0 L100 100 L0 100" stroke="none" stroke-width="0" fill="#a5d8ff"></path><path d="M0 0 C32.26 0, 64.53 0, 100 0 M0 0 C23.64 0, 47.28 0, 100 0 M100 0 C100 24.88, 100 49.76, 100 100 M100 0 C100 26.84, 100 53.68, 100 100 M100 100 C68.1 100, 36.2 100, 0 100 M100 100 C63.6 100, 27.2 100, 0 100 M0 100 C0 67.85, 0 35.7, 0 0 M0 100 C0 75.5, 0 51.01, 0 0" stroke="#1e1e1e" stroke-width="4" fill="none"></path></g><g stroke-linecap="round"><g transform="translate(210.00000000000006 80.43810897293483) rotate(0 -80 0)"><path d="M0 0 C-17.7 0, -35.4 0, -45.71 0 M0 0 C-10.81 0, -21.62 0, -45.71 0 M-45.71 0 C-47.04 -4.63, -48.36 -9.25, -51.43 -20 M-45.71 0 C-47.95 -7.82, -50.18 -15.63, -51.43 -20 M-51.43 -20 C-54.89 -7.88, -58.36 4.25, -62.86 20 M-51.43 -20 C-55.91 -4.33, -60.38 11.35, -62.86 20 M-62.86 20 C-66.76 6.32, -70.67 -7.35, -74.29 -20 M-62.86 20 C-66.19 8.34, -69.52 -3.31, -74.29 -20 M-74.29 -20 C-77.66 -8.19, -81.03 3.62, -85.71 20 M-74.29 -20 C-77.73 -7.93, -81.18 4.14, -85.71 20 M-85.71 20 C-88.93 8.74, -92.15 -2.53, -97.14 -20 M-85.71 20 C-88.38 10.66, -91.05 1.33, -97.14 -20 M-97.14 -20 C-101.17 -5.91, -105.2 8.19, -108.57 20 M-97.14 -20 C-100.94 -6.71, -104.74 6.58, -108.57 20 M-108.57 20 C-109.83 14.9, -111.1 9.81, -113.52 0 M-108.57 20 C-110.14 13.66, -111.71 7.31, -113.52 0 M-113.52 0 C-131.85 0, -150.19 0, -160 0 M-113.52 0 C-123.65 0, -133.77 0, -160 0" stroke="#1e1e1e" stroke-width="4" fill="none"></path></g></g><mask></mask><g stroke-linecap="round"><g transform="translate(470.42091444301144 80.43810897293483) rotate(0 -80 0)"><path d="M0 0 C-13.9 0, -27.8 0, -45.71 0 M0 0 C-9.39 0, -18.78 0, -45.71 0 M-45.71 0 C-47.81 -7.33, -49.91 -14.67, -51.43 -20 M-45.71 0 C-47.29 -5.5, -48.86 -11.01, -51.43 -20 M-51.43 -20 C-55.91 -4.3, -60.4 11.4, -62.86 20 M-51.43 -20 C-54.55 -9.08, -57.67 1.85, -62.86 20 M-62.86 20 C-65.88 9.41, -68.91 -1.19, -74.29 -20 M-62.86 20 C-66.29 7.97, -69.73 -4.06, -74.29 -20 M-74.29 -20 C-78.72 -4.48, -83.15 11.04, -85.71 20 M-74.29 -20 C-77.8 -7.7, -81.31 4.59, -85.71 20 M-85.71 20 C-88.57 10.02, -91.42 0.04, -97.14 -20 M-85.71 20 C-89.46 6.87, -93.22 -6.25, -97.14 -20 M-97.14 -20 C-101.51 -4.7, -105.89 10.6, -108.57 20 M-97.14 -20 C-100.81 -7.16, -104.48 5.69, -108.57 20 M-108.57 20 C-110.2 13.43, -111.82 6.87, -113.52 0 M-108.57 20 C-109.59 15.91, -110.6 11.81, -113.52 0 M-113.52 0 C-132.07 0, -150.63 0, -160 0 M-113.52 0 C-127.27 0, -141.01 0, -160 0" stroke="#1e1e1e" stroke-width="4" fill="none"></path></g></g><mask></mask><g stroke-linecap="round" transform="translate(-39.99999999999994 60.00000000000004) rotate(89.99999999999994 69.99999999999997 19.99999999999997)"><path d="M0 0 C0 0, 0 0, 0 0 M0 0 C0 0, 0 0, 0 0 M0.27 24.08 C8.55 14.55, 16.84 5.02, 21.26 -0.07 M0.27 24.08 C7.83 15.38, 15.39 6.69, 21.26 -0.07 M7.09 40.62 C14.2 32.44, 21.3 24.27, 42.52 -0.14 M7.09 40.62 C16.34 29.98, 25.58 19.35, 42.52 -0.14 M28.35 40.55 C39.52 27.71, 50.68 14.86, 63.78 -0.21 M28.35 40.55 C40.74 26.29, 53.13 12.04, 63.78 -0.21 M49.61 40.48 C61.08 27.29, 72.54 14.1, 85.04 -0.28 M49.61 40.48 C56.75 32.27, 63.88 24.07, 85.04 -0.28 M70.87 40.41 C84.4 24.85, 97.93 9.29, 106.3 -0.34 M70.87 40.41 C84.64 24.57, 98.41 8.74, 106.3 -0.34 M92.13 40.34 C105.31 25.19, 118.48 10.04, 126.91 0.34 M92.13 40.34 C103.26 27.54, 114.38 14.75, 126.91 0.34 M113.39 40.27 C121.44 31.01, 129.49 21.75, 140.29 9.33 M113.39 40.27 C120.84 31.7, 128.29 23.13, 140.29 9.33 M134.65 40.2 C136.93 37.58, 139.21 34.96, 140.56 33.41 M134.65 40.2 C136.14 38.49, 137.62 36.79, 140.56 33.41" stroke="#a5d8ff" stroke-width="2" fill="none"></path><path d="M0 0 C54.97 0, 109.95 0, 140 0 M0 0 C41.19 0, 82.38 0, 140 0 M140 0 C140 9.27, 140 18.54, 140 40 M140 0 C140 14.85, 140 29.7, 140 40 M140 40 C94.23 40, 48.45 40, 0 40 M140 40 C109.17 40, 78.34 40, 0 40 M0 40 C0 30.1, 0 20.2, 0 0 M0 40 C0 24.47, 0 8.94, 0 0" stroke="transparent" stroke-width="4" fill="none"></path></g><g stroke-linecap="round"><g transform="translate(-19.999999999999943 80.00000000000006) rotate(89.99999999999994 70 6.394884621840902e-14)"><path d="M0 0 C28.95 0, 57.9 0, 140 0 M0 0 C34.86 0, 69.72 0, 140 0" stroke="#1e1e1e" stroke-width="4" fill="none"></path></g></g><mask></mask><g stroke-linecap="round" transform="translate(420.0000000000002 60.0000000000001) rotate(269.9999999999999 69.99999999999997 19.99999999999997)"><path d="M0 0 C0 0, 0 0, 0 0 M0 0 C0 0, 0 0, 0 0 M0.27 24.08 C5.32 18.27, 10.37 12.46, 21.26 -0.07 M0.27 24.08 C6.83 16.53, 13.4 8.97, 21.26 -0.07 M7.09 40.62 C17.95 28.13, 28.8 15.65, 42.52 -0.14 M7.09 40.62 C16.87 29.37, 26.64 18.13, 42.52 -0.14 M28.35 40.55 C40.97 26.04, 53.58 11.53, 63.78 -0.21 M28.35 40.55 C37.33 30.22, 46.31 19.89, 63.78 -0.21 M49.61 40.48 C58.11 30.71, 66.6 20.93, 85.04 -0.28 M49.61 40.48 C60.89 27.51, 72.16 14.54, 85.04 -0.28 M70.87 40.41 C79.85 30.09, 88.82 19.77, 106.3 -0.34 M70.87 40.41 C80.29 29.58, 89.7 18.75, 106.3 -0.34 M92.13 40.34 C102.57 28.33, 113.01 16.32, 126.91 0.34 M92.13 40.34 C100.89 30.26, 109.65 20.19, 126.91 0.34 M113.39 40.27 C120.26 32.37, 127.13 24.47, 140.29 9.33 M113.39 40.27 C119.61 33.12, 125.82 25.97, 140.29 9.33 M134.65 40.2 C136.58 37.99, 138.51 35.77, 140.56 33.41 M134.65 40.2 C136.97 37.53, 139.29 34.87, 140.56 33.41" stroke="#a5d8ff" stroke-width="2" fill="none"></path><path d="M0 0 C34.83 0, 69.66 0, 140 0 M0 0 C37.57 0, 75.15 0, 140 0 M140 0 C140 12.76, 140 25.52, 140 40 M140 0 C140 14.56, 140 29.12, 140 40 M140 40 C94.99 40, 49.98 40, 0 40 M140 40 C105.71 40, 71.41 40, 0 40 M0 40 C0 27.39, 0 14.78, 0 0 M0 40 C0 26.76, 0 13.52, 0 0" stroke="transparent" stroke-width="4" fill="none"></path></g><g stroke-linecap="round"><g transform="translate(400.00000000000017 80.0000000000001) rotate(269.9999999999999 70 6.394884621840902e-14)"><path d="M0 0 C32.39 0, 64.78 0, 140 0 M0 0 C54.71 0, 109.42 0, 140 0" stroke="#1e1e1e" stroke-width="4" fill="none"></path></g></g><mask></mask></svg>