<svg version="1.1" xmlns="http://www.w3.org/2000/svg" viewBox="0 0 520.0000000000002 160.00000000000014" width="520.0000000000002" height="160.00000000000014" filter="invert(93%) hue-rotate(180deg)" class="excalidraw-svg"><!-- svg-source:excalidraw --><metadata></metadata><defs><style class="style-fonts">
      </style></defs><g stroke-linecap="round" transform="translate(210 30) rotate(0 50 50)"><path d="M0 0 L100 0 L100 100 L0 100" stroke="none" stroke-width="0" fill="#a5d8ff"></path><path d="M0 0 C24.88 0, 49.76 0, 100 0 M0 0 C36.21 0, 72.42 0, 100 0 M100 0 C100 25.29, 100 50.58, 100 100 M100 0 C100 38.54, 100 77.08, 100 100 M100 100 C74.78 100, 49.55 100, 0 100 M100 100 C74.26 100, 48.53 100, 0 100 M0 100 C0 71.88, 0 43.75, 0 0 M0 100 C0 68.38, 0 36.76, 0 0" stroke="#1e1e1e" stroke-width="4" fill="none"></path></g><g stroke-linecap="round"><g transform="translate(210 50) rotate(0 -80 0)"><path d="M0 0 C-11.71 0, -23.43 0, -45.71 0 M0 0 C-10.25 0, -20.51 0, -45.71 0 M-45.71 0 C-47.5 -6.26, -49.29 -12.53, -51.43 -20 M-45.71 0 C-47.68 -6.88, -49.64 -13.75, -51.43 -20 M-51.43 -20 C-55.65 -5.22, -59.88 9.56, -62.86 20 M-51.43 -20 C-54.46 -9.38, -57.5 1.25, -62.86 20 M-62.86 20 C-65.36 11.23, -67.87 2.47, -74.29 -20 M-62.86 20 C-65.35 11.26, -67.85 2.52, -74.29 -20 M-74.29 -20 C-77.73 -7.95, -81.17 4.11, -85.71 20 M-74.29 -20 C-78.34 -5.83, -82.38 8.35, -85.71 20 M-85.71 20 C-88.73 9.45, -91.74 -1.11, -97.14 -20 M-85.71 20 C-90.12 4.59, -94.52 -10.83, -97.14 -20 M-97.14 -20 C-100.86 -7.01, -104.57 5.99, -108.57 20 M-97.14 -20 C-99.68 -11.12, -102.22 -2.25, -108.57 20 M-108.57 20 C-109.74 15.28, -110.91 10.56, -113.52 0 M-108.57 20 C-109.61 15.8, -110.65 11.6, -113.52 0 M-113.52 0 C-124.88 0, -136.24 0, -160 0 M-113.52 0 C-130.66 0, -147.8 0, -160 0" stroke="#1e1e1e" stroke-width="4" fill="none"></path></g></g><mask></mask><g stroke-linecap="round"><g transform="translate(470 50) rotate(0 -80 0)"><path d="M0 0 C-10.69 0, -21.39 0, -45.71 0 M0 0 C-16.3 0, -32.61 0, -45.71 0 M-45.71 0 C-47.69 -6.92, -49.67 -13.83, -51.43 -20 M-45.71 0 C-47.15 -5.03, -48.59 -10.07, -51.43 -20 M-51.43 -20 C-54.37 -9.7, -57.31 0.59, -62.86 20 M-51.43 -20 C-53.92 -11.27, -56.42 -2.53, -62.86 20 M-62.86 20 C-67.02 5.43, -71.18 -9.14, -74.29 -20 M-62.86 20 C-66.88 5.92, -70.9 -8.16, -74.29 -20 M-74.29 -20 C-77.38 -9.19, -80.47 1.63, -85.71 20 M-74.29 -20 C-77.82 -7.65, -81.35 4.71, -85.71 20 M-85.71 20 C-89.72 5.99, -93.72 -8.01, -97.14 -20 M-85.71 20 C-89.63 6.28, -93.55 -7.44, -97.14 -20 M-97.14 -20 C-100.7 -7.54, -104.26 4.92, -108.57 20 M-97.14 -20 C-101.07 -6.24, -105.01 7.52, -108.57 20 M-108.57 20 C-110.34 12.84, -112.12 5.68, -113.52 0 M-108.57 20 C-109.93 14.5, -111.29 9.01, -113.52 0 M-113.52 0 C-129.84 0, -146.15 0, -160 0 M-113.52 0 C-123.22 0, -132.92 0, -160 0" stroke="#1e1e1e" stroke-width="4" fill="none"></path></g></g><mask></mask><g stroke-linecap="round"><g transform="translate(210 110) rotate(0 -80 0)"><path d="M0 0 C-11.72 0, -23.45 0, -45.71 0 M0 0 C-13.7 0, -27.39 0, -45.71 0 M-45.71 0 C-47.14 -5, -48.57 -10, -51.43 -20 M-45.71 0 C-47.8 -7.31, -49.89 -14.63, -51.43 -20 M-51.43 -20 C-54.77 -8.31, -58.11 3.39, -62.86 20 M-51.43 -20 C-55.73 -4.94, -60.03 10.12, -62.86 20 M-62.86 20 C-67.1 5.13, -71.35 -9.73, -74.29 -20 M-62.86 20 C-66.98 5.58, -71.1 -8.84, -74.29 -20 M-74.29 -20 C-76.96 -10.64, -79.63 -1.29, -85.71 20 M-74.29 -20 C-78.36 -5.73, -82.44 8.53, -85.71 20 M-85.71 20 C-89.67 6.17, -93.62 -7.67, -97.14 -20 M-85.71 20 C-88.59 9.93, -91.47 -0.14, -97.14 -20 M-97.14 -20 C-100.08 -9.7, -103.03 0.59, -108.57 20 M-97.14 -20 C-99.64 -11.27, -102.13 -2.53, -108.57 20 M-108.57 20 C-110.38 12.71, -112.18 5.43, -113.52 0 M-108.57 20 C-110.31 12.96, -112.06 5.92, -113.52 0 M-113.52 0 C-126.09 0, -138.65 0, -160 0 M-113.52 0 C-127.88 0, -142.23 0, -160 0" stroke="#1e1e1e" stroke-width="4" fill="none"></path></g></g><mask></mask><g stroke-linecap="round"><g transform="translate(470 110) rotate(0 -80 0)"><path d="M0 0 C-14.88 0, -29.75 0, -45.71 0 M0 0 C-15.23 0, -30.47 0, -45.71 0 M-45.71 0 C-47.24 -5.33, -48.76 -10.66, -51.43 -20 M-45.71 0 C-47.2 -5.2, -48.69 -10.4, -51.43 -20 M-51.43 -20 C-55.63 -5.31, -59.83 9.39, -62.86 20 M-51.43 -20 C-54.6 -8.91, -57.76 2.18, -62.86 20 M-62.86 20 C-65.97 9.1, -69.09 -1.8, -74.29 -20 M-62.86 20 C-66.95 5.66, -71.05 -8.68, -74.29 -20 M-74.29 -20 C-77.13 -10.03, -79.98 -0.06, -85.71 20 M-74.29 -20 C-78.7 -4.56, -83.11 10.88, -85.71 20 M-85.71 20 C-88.29 10.97, -90.87 1.95, -97.14 -20 M-85.71 20 C-89.28 7.51, -92.85 -4.99, -97.14 -20 M-97.14 -20 C-99.74 -10.89, -102.35 -1.79, -108.57 20 M-97.14 -20 C-100.84 -7.06, -104.54 5.88, -108.57 20 M-108.57 20 C-109.65 15.66, -110.72 11.33, -113.52 0 M-108.57 20 C-109.57 15.98, -110.56 11.96, -113.52 0 M-113.52 0 C-128.76 0, -143.99 0, -160 0 M-113.52 0 C-126.75 0, -139.97 0, -160 0" stroke="#1e1e1e" stroke-width="4" fill="none"></path></g></g><mask></mask><g stroke-linecap="round" transform="translate(-39.99999999999994 60.000000000000014) rotate(89.99999999999994 69.99999999999997 19.99999999999997)"><path d="M0 0 C0 0, 0 0, 0 0 M0 0 C0 0, 0 0, 0 0 M0.27 24.08 C6.08 17.4, 11.88 10.72, 21.26 -0.07 M0.27 24.08 C7.95 15.24, 15.64 6.4, 21.26 -0.07 M7.09 40.62 C17.47 28.68, 27.85 16.74, 42.52 -0.14 M7.09 40.62 C17.67 28.45, 28.24 16.29, 42.52 -0.14 M28.35 40.55 C39.61 27.6, 50.87 14.64, 63.78 -0.21 M28.35 40.55 C36.72 30.93, 45.08 21.3, 63.78 -0.21 M49.61 40.48 C62 26.23, 74.38 11.99, 85.04 -0.28 M49.61 40.48 C61.53 26.77, 73.45 13.06, 85.04 -0.28 M70.87 40.41 C82.72 26.78, 94.58 13.14, 106.3 -0.34 M70.87 40.41 C82.92 26.55, 94.97 12.69, 106.3 -0.34 M92.13 40.34 C99.25 32.16, 106.36 23.98, 126.91 0.34 M92.13 40.34 C103.72 27.01, 115.3 13.69, 126.91 0.34 M113.39 40.27 C121.86 30.54, 130.32 20.8, 140.29 9.33 M113.39 40.27 C121.74 30.67, 130.09 21.06, 140.29 9.33 M134.65 40.2 C136.31 38.3, 137.96 36.4, 140.56 33.41 M134.65 40.2 C136.64 37.91, 138.63 35.63, 140.56 33.41" stroke="#a5d8ff" stroke-width="2" fill="none"></path><path d="M0 0 C31.24 0, 62.48 0, 140 0 M0 0 C31.38 0, 62.77 0, 140 0 M140 0 C140 8.56, 140 17.11, 140 40 M140 0 C140 10.15, 140 20.3, 140 40 M140 40 C93.79 40, 47.59 40, 0 40 M140 40 C89.28 40, 38.56 40, 0 40 M0 40 C0 24.31, 0 8.63, 0 0 M0 40 C0 30.86, 0 21.71, 0 0" stroke="transparent" stroke-width="4" fill="none"></path></g><g stroke-linecap="round"><g transform="translate(-20 80.00000000000001) rotate(89.99999999999994 70 6.394884621840902e-14)"><path d="M0 0 C51.46 0, 102.92 0, 140 0 M0 0 C54.75 0, 109.5 0, 140 0" stroke="#1e1e1e" stroke-width="4" fill="none"></path></g></g><mask></mask><g stroke-linecap="round" transform="translate(420.00000000000017 60.00000000000006) rotate(269.9999999999999 69.99999999999997 19.99999999999997)"><path d="M0 0 C0 0, 0 0, 0 0 M0 0 C0 0, 0 0, 0 0 M0.27 24.08 C6.94 16.41, 13.61 8.73, 21.26 -0.07 M0.27 24.08 C5.22 18.38, 10.18 12.68, 21.26 -0.07 M7.09 40.62 C19.48 26.37, 31.86 12.12, 42.52 -0.14 M7.09 40.62 C19.01 26.91, 30.93 13.19, 42.52 -0.14 M28.35 40.55 C40.2 26.91, 52.06 13.28, 63.78 -0.21 M28.35 40.55 C40.4 26.69, 52.45 12.83, 63.78 -0.21 M49.61 40.48 C56.86 32.14, 64.11 23.8, 85.04 -0.28 M49.61 40.48 C61.42 26.9, 73.22 13.32, 85.04 -0.28 M70.87 40.41 C82.02 27.59, 93.17 14.77, 106.3 -0.34 M70.87 40.41 C81.87 27.76, 92.87 15.11, 106.3 -0.34 M92.13 40.34 C101.87 29.13, 111.62 17.93, 126.91 0.34 M92.13 40.34 C103.85 26.87, 115.56 13.39, 126.91 0.34 M113.39 40.27 C119.17 33.63, 124.94 26.99, 140.29 9.33 M113.39 40.27 C121.76 30.65, 130.12 21.03, 140.29 9.33 M134.65 40.2 C136.82 37.71, 138.99 35.21, 140.56 33.41 M134.65 40.2 C136.58 37.98, 138.51 35.76, 140.56 33.41" stroke="#a5d8ff" stroke-width="2" fill="none"></path><path d="M0 0 C46.21 0, 92.41 0, 140 0 M0 0 C50.72 0, 101.44 0, 140 0 M140 0 C140 15.69, 140 31.37, 140 40 M140 0 C140 9.14, 140 18.29, 140 40 M140 40 C86.61 40, 33.22 40, 0 40 M140 40 C97.68 40, 55.37 40, 0 40 M0 40 C0 28.93, 0 17.86, 0 0 M0 40 C0 25.36, 0 10.72, 0 0" stroke="transparent" stroke-width="4" fill="none"></path></g><g stroke-linecap="round"><g transform="translate(400.0000000000001 80.00000000000006) rotate(269.9999999999999 70 6.394884621840902e-14)"><path d="M0 0 C55.06 0, 110.13 0, 140 0 M0 0 C48.69 0, 97.38 0, 140 0" stroke="#1e1e1e" stroke-width="4" fill="none"></path></g></g><mask></mask></svg>