<svg version="1.1" xmlns="http://www.w3.org/2000/svg" viewBox="0 0 545.0767190451902 376.6990418750729" width="545.0767190451902" height="376.6990418750729" filter="invert(93%) hue-rotate(180deg)" class="excalidraw-svg">
  <!-- svg-source:excalidraw -->
  
  <defs>
    <style class="style-fonts">
      @font-face {
        font-family: "Virgil";
        src: url("https://excalidraw.com/Virgil.woff2");
      }
      @font-face {
        font-family: "Cascadia";
        src: url("https://excalidraw.com/Cascadia.woff2");
      }
      @font-face {
        font-family: "Assistant";
        src: url("https://excalidraw.com/Assistant-Regular.woff2");
      }
    </style>
    
  </defs>
  <g stroke-linecap="round"><g transform="translate(249.9825148979761 366.6990418750729) rotate(0 7.105427357601002e-15 -176.72583770751953)"><path d="M0 0 C0 -114.87, 0 -229.74, 0 -353.45 M0 0 C0 -80.79, 0 -161.58, 0 -353.45" stroke="#1e1e1e" stroke-width="4" fill="none"/></g></g><mask/><g stroke-linecap="round"><g transform="translate(198.04194788137454 329.94226697272916) rotate(0 168.50714874267578 0)"><path d="M0 0 C97.87 0, 195.74 0, 337.01 0 M0 0 C125.34 0, 250.68 0, 337.01 0" stroke="#1e1e1e" stroke-width="4" fill="none"/></g></g><mask/><g stroke-linecap="round"><g transform="translate(426.5804912045354 24.64739818566605) rotate(0 -175.07282287312552 153.3230774390298)"><path d="M0 0 C-29.16 51.59, -116.58 310.06, -174.93 309.57 C-233.29 309.08, -320.94 49.16, -350.15 -2.92 M0 0 C-29.16 51.59, -116.58 310.06, -174.93 309.57 C-233.29 309.08, -320.94 49.16, -350.15 -2.92" stroke="#e03131" stroke-width="4" fill="none"/></g></g><mask/><g stroke-linecap="round"><g transform="translate(471.6162974640761 73.49745640319787) rotate(0 -230.80814873203806 120.3515164101477)"><path d="M0 0 C-36.69 43.23, -143.19 262.47, -220.12 259.36 C-297.06 256.25, -421.37 27.68, -461.62 -18.66 M0 0 C-36.69 43.23, -143.19 262.47, -220.12 259.36 C-297.06 256.25, -421.37 27.68, -461.62 -18.66" stroke="#e03131" stroke-width="4" fill="none"/></g></g><mask/><g stroke-linecap="round"><g transform="translate(280.5444014211222 12.866812713871354) rotate(0 125.25159378393457 151.82380344572033)"><path d="M0 0 C7.85 40.39, 5.36 191.75, 47.11 242.36 C88.86 292.97, 216.6 293.43, 250.5 303.65 M0 0 C7.85 40.39, 5.36 191.75, 47.11 242.36 C88.86 292.97, 216.6 293.43, 250.5 303.65" stroke="#e03131" stroke-width="4" fill="none"/></g></g><mask/><g stroke-linecap="round"><g transform="translate(312.7774063611322 10) rotate(0 111.14965634202898 135.04921079849032)"><path d="M0 0 C8.51 31.82, 14.01 145.9, 51.06 190.91 C88.11 235.93, 193.76 256.9, 222.3 270.1 M0 0 C8.51 31.82, 14.01 145.9, 51.06 190.91 C88.11 235.93, 193.76 256.9, 222.3 270.1" stroke="#e03131" stroke-width="4" fill="none"/></g></g><mask/><g stroke-linecap="round"><g transform="translate(412.37645829214364 228.22847507307495) rotate(0 -6.442455911932356 7.206561341961482)"><path d="M0 0 C-4.43 -0.06, -8.85 -0.13, -12.88 -0.18 M0 0 C-4.61 -0.07, -9.22 -0.13, -12.88 -0.18 M-12.88 -0.18 C-10.36 3.98, -7.84 8.14, -3.93 14.6 M-12.88 -0.18 C-10.1 4.41, -7.32 9, -3.93 14.6" stroke="#e03131" stroke-width="4" fill="none"/></g></g><mask/><g stroke-linecap="round"><g transform="translate(366.4785054357459 271.14052426219587) rotate(0 1.1647363783612406 9.208448343346362)"><path d="M0 0 C3.01 4.94, 6.02 9.88, 8.63 14.16 M0 0 C2.58 4.23, 5.15 8.45, 8.63 14.16 M8.63 14.16 C3.57 15.6, -1.49 17.05, -6.3 18.42 M8.63 14.16 C3.82 15.53, -0.98 16.9, -6.3 18.42" stroke="#e03131" stroke-width="4" fill="none"/></g></g><mask/></svg>