<svg version="1.1" xmlns="http://www.w3.org/2000/svg" viewBox="0 0 505.4087448120117 509.66114044189453" width="505.4087448120117" height="509.66114044189453" filter="invert(93%) hue-rotate(180deg)" class="excalidraw-svg">
  <!-- svg-source:excalidraw -->
  
  <defs>
    <style class="style-fonts">
      @font-face {
        font-family: "Virgil";
        src: url("https://excalidraw.com/Virgil.woff2");
      }
      @font-face {
        font-family: "Cascadia";
        src: url("https://excalidraw.com/Cascadia.woff2");
      }
      @font-face {
        font-family: "Assistant";
        src: url("https://excalidraw.com/Assistant-Regular.woff2");
      }
    </style>
    
  </defs>
  <g stroke-linecap="round"><g transform="translate(180.8410339355469 327.69371032714844) rotate(0 1.4210854715202004e-14 -158.84685516357422)"><path d="M0 0 C0 -84.5, 0 -169.01, 0 -317.69 M0 0 C0 -84.38, 0 -168.76, 0 -317.69" stroke="#1e1e1e" stroke-width="4" fill="none"/></g><g transform="translate(180.8410339355469 327.69371032714844) rotate(0 1.4210854715202004e-14 -158.84685516357422)"><path d="M0 -317.69 L6.34 -304.1 L-6.34 -304.1 L0 -317.69" stroke="none" stroke-width="0" fill="#1e1e1e" fill-rule="evenodd"/><path d="M0 -317.69 C1.69 -314.08, 3.37 -310.46, 6.34 -304.1 M0 -317.69 C1.68 -314.08, 3.37 -310.47, 6.34 -304.1 M6.34 -304.1 C3.78 -304.1, 1.22 -304.1, -6.34 -304.1 M6.34 -304.1 C2.06 -304.1, -2.22 -304.1, -6.34 -304.1 M-6.34 -304.1 C-4.16 -308.76, -1.99 -313.43, 0 -317.69 M-6.34 -304.1 C-4.5 -308.04, -2.66 -311.98, 0 -317.69 M0 -317.69 C0 -317.69, 0 -317.69, 0 -317.69 M0 -317.69 C0 -317.69, 0 -317.69, 0 -317.69" stroke="#1e1e1e" stroke-width="4" fill="none"/></g></g><mask/><g stroke-linecap="round"><g transform="translate(181.03520965576175 326.62828063964844) rotate(0 157.186767578125 0)"><path d="M0 0 C117.39 0, 234.78 0, 314.37 0 M0 0 C98.68 0, 197.36 0, 314.37 0" stroke="#1e1e1e" stroke-width="4" fill="none"/></g><g transform="translate(181.03520965576175 326.62828063964844) rotate(0 157.186767578125 0)"><path d="M314.37 0 L300.78 6.34 L300.78 -6.34 L314.37 0" stroke="none" stroke-width="0" fill="#1e1e1e" fill-rule="evenodd"/><path d="M314.37 0 C309.3 2.37, 304.22 4.73, 300.78 6.34 M314.37 0 C310.11 1.99, 305.84 3.98, 300.78 6.34 M300.78 6.34 C300.78 2.11, 300.78 -2.13, 300.78 -6.34 M300.78 6.34 C300.78 2.72, 300.78 -0.9, 300.78 -6.34 M300.78 -6.34 C304.77 -4.48, 308.76 -2.62, 314.37 0 M300.78 -6.34 C305.5 -4.14, 310.23 -1.93, 314.37 0 M314.37 0 C314.37 0, 314.37 0, 314.37 0 M314.37 0 C314.37 0, 314.37 0, 314.37 0" stroke="#1e1e1e" stroke-width="4" fill="none"/></g></g><mask/><g stroke-linecap="round"><g transform="translate(181.56789398193362 328.09324645996094) rotate(0 -85.78394699096681 85.7839469909668)"><path d="M0 0 C-65.29 65.29, -130.57 130.57, -171.57 171.57 M0 0 C-53.65 53.65, -107.3 107.3, -171.57 171.57" stroke="#1e1e1e" stroke-width="4" fill="none"/></g><g transform="translate(181.56789398193362 328.09324645996094) rotate(0 -85.78394699096681 85.7839469909668)"><path d="M-171.57 171.57 L-166.44 157.47 L-157.47 166.44 L-171.57 171.57" stroke="none" stroke-width="0" fill="#1e1e1e" fill-rule="evenodd"/><path d="M-171.57 171.57 C-169.62 166.2, -167.66 160.84, -166.44 157.47 M-171.57 171.57 C-169.96 167.16, -168.36 162.75, -166.44 157.47 M-166.44 157.47 C-163.65 160.26, -160.86 163.05, -157.47 166.44 M-166.44 157.47 C-164.55 159.36, -162.66 161.25, -157.47 166.44 M-157.47 166.44 C-160.4 167.5, -163.32 168.57, -171.57 171.57 M-157.47 166.44 C-163.1 168.49, -168.74 170.54, -171.57 171.57 M-171.57 171.57 C-171.57 171.57, -171.57 171.57, -171.57 171.57 M-171.57 171.57 C-171.57 171.57, -171.57 171.57, -171.57 171.57" stroke="#1e1e1e" stroke-width="4" fill="none"/></g></g><mask/><g stroke-linecap="round" transform="translate(99.7282638549805 306.3854217529297) rotate(0 91.4287109375 23.805389404296875)"><path d="M182.86 23.81 C182.86 24.69, 182.66 25.59, 182.28 26.47 C181.9 27.35, 181.32 28.24, 180.57 29.1 C179.81 29.97, 178.85 30.83, 177.73 31.67 C176.6 32.51, 175.28 33.33, 173.8 34.13 C172.32 34.93, 170.66 35.72, 168.84 36.47 C167.03 37.22, 165.04 37.95, 162.91 38.65 C160.78 39.34, 158.49 40.01, 156.08 40.64 C153.67 41.27, 151.1 41.86, 148.43 42.42 C145.77 42.97, 142.96 43.49, 140.07 43.96 C137.18 44.43, 134.17 44.87, 131.1 45.25 C128.02 45.64, 124.85 45.98, 121.63 46.27 C118.4 46.57, 115.1 46.82, 111.77 47.01 C108.45 47.21, 105.06 47.36, 101.67 47.46 C98.27 47.56, 94.84 47.61, 91.43 47.61 C88.02 47.61, 84.58 47.56, 81.19 47.46 C77.8 47.36, 74.41 47.21, 71.08 47.01 C67.76 46.82, 64.45 46.57, 61.23 46.27 C58.01 45.98, 54.83 45.64, 51.76 45.25 C48.68 44.87, 45.67 44.43, 42.79 43.96 C39.9 43.49, 37.09 42.97, 34.42 42.42 C31.76 41.86, 29.19 41.27, 26.78 40.64 C24.37 40.01, 22.07 39.34, 19.95 38.65 C17.82 37.95, 15.83 37.22, 14.01 36.47 C12.2 35.72, 10.53 34.93, 9.05 34.13 C7.57 33.33, 6.26 32.51, 5.13 31.67 C4 30.83, 3.05 29.97, 2.29 29.1 C1.53 28.24, 0.96 27.35, 0.57 26.47 C0.19 25.59, 0 24.69, 0 23.81 C0 22.92, 0.19 22.02, 0.57 21.14 C0.96 20.26, 1.53 19.37, 2.29 18.51 C3.05 17.64, 4 16.78, 5.13 15.94 C6.26 15.1, 7.57 14.28, 9.05 13.48 C10.53 12.68, 12.2 11.89, 14.01 11.14 C15.83 10.39, 17.82 9.66, 19.95 8.96 C22.07 8.27, 24.37 7.6, 26.78 6.97 C29.19 6.34, 31.76 5.75, 34.42 5.19 C37.09 4.64, 39.9 4.12, 42.79 3.65 C45.67 3.18, 48.68 2.74, 51.76 2.36 C54.83 1.97, 58.01 1.63, 61.23 1.34 C64.45 1.04, 67.76 0.79, 71.08 0.6 C74.41 0.4, 77.8 0.25, 81.19 0.15 C84.58 0.05, 88.02 0, 91.43 0 C94.84 0, 98.27 0.05, 101.67 0.15 C105.06 0.25, 108.45 0.4, 111.77 0.6 C115.1 0.79, 118.4 1.04, 121.63 1.34 C124.85 1.63, 128.02 1.97, 131.1 2.36 C134.17 2.74, 137.18 3.18, 140.07 3.65 C142.96 4.12, 145.77 4.64, 148.43 5.19 C151.1 5.75, 153.67 6.34, 156.08 6.97 C158.49 7.6, 160.78 8.27, 162.91 8.96 C165.04 9.66, 167.03 10.39, 168.84 11.14 C170.66 11.89, 172.32 12.68, 173.8 13.48 C175.28 14.28, 176.6 15.1, 177.73 15.94 C178.85 16.78, 179.81 17.64, 180.57 18.51 C181.32 19.37, 181.9 20.26, 182.28 21.14 C182.66 22.02, 182.76 23.36, 182.86 23.81 C182.95 24.25, 182.95 23.36, 182.86 23.81" stroke="#e03131" stroke-width="4" fill="none"/></g><g stroke-linecap="round"><g transform="translate(100.26193944921656 330.54727604245267) rotate(0 0 -48.693573941248076)"><path d="M0 0 C0 -34.19, 0 -68.38, 0 -97.39 M0 0 C0 -29.1, 0 -58.2, 0 -97.39" stroke="#e03131" stroke-width="4" fill="none"/></g></g><mask/><g stroke-linecap="round"><g transform="translate(284.00886910170493 333.3500635734698) rotate(0 0 -50.09496770675665)"><path d="M0 0 C0 -26.6, 0 -53.21, 0 -100.19 M0 0 C0 -35.54, 0 -71.09, 0 -100.19" stroke="#e03131" stroke-width="4" fill="none"/></g></g><mask/><g stroke-linecap="round"><g transform="translate(37.00347956240569 232.09836047380196) rotate(0 157.52288601854798 0)"><path d="M0 0 C121.07 0, 242.13 0, 315.05 0 M0 0 C86.69 0, 173.39 0, 315.05 0" stroke="#ff8787" stroke-width="4" fill="none"/></g></g><mask/><g stroke-linecap="round"><g transform="translate(41.628249189252045 369.36625907304267) rotate(0 153.98422144780434 0)"><path d="M0 0 C68.23 0, 136.46 0, 307.97 0 M0 0 C109.61 0, 219.21 0, 307.97 0" stroke="#ff8787" stroke-width="4" fill="none"/></g></g><mask/><g stroke-linecap="round" transform="translate(334.18081473759526 234.13046011145673) rotate(0 17.377937804311614 68.1434662986924)"><path d="M34.76 68.14 C34.76 71.11, 34.71 74.1, 34.61 77.04 C34.51 79.98, 34.36 82.92, 34.16 85.78 C33.97 88.64, 33.72 91.48, 33.43 94.22 C33.14 96.96, 32.81 99.65, 32.43 102.22 C32.05 104.78, 31.63 107.27, 31.16 109.63 C30.7 111.98, 30.2 114.23, 29.67 116.33 C29.13 118.42, 28.56 120.4, 27.96 122.21 C27.36 124.01, 26.72 125.68, 26.07 127.16 C25.41 128.64, 24.73 129.97, 24.03 131.1 C23.33 132.23, 22.61 133.2, 21.88 133.97 C21.15 134.73, 20.4 135.32, 19.65 135.7 C18.9 136.09, 18.13 136.29, 17.38 136.29 C16.62 136.29, 15.86 136.09, 15.11 135.7 C14.36 135.32, 13.61 134.73, 12.88 133.97 C12.15 133.2, 11.43 132.23, 10.73 131.1 C10.03 129.97, 9.34 128.64, 8.69 127.16 C8.03 125.68, 7.4 124.01, 6.8 122.21 C6.2 120.4, 5.62 118.42, 5.09 116.33 C4.56 114.23, 4.05 111.98, 3.59 109.63 C3.13 107.27, 2.71 104.78, 2.33 102.22 C1.95 99.65, 1.61 96.96, 1.32 94.22 C1.03 91.48, 0.79 88.64, 0.59 85.78 C0.4 82.92, 0.25 79.98, 0.15 77.04 C0.05 74.1, 0 71.11, 0 68.14 C0 65.18, 0.05 62.19, 0.15 59.25 C0.25 56.31, 0.4 53.37, 0.59 50.51 C0.79 47.64, 1.03 44.81, 1.32 42.07 C1.61 39.33, 1.95 36.64, 2.33 34.07 C2.71 31.5, 3.13 29.01, 3.59 26.66 C4.05 24.31, 4.56 22.06, 5.09 19.96 C5.62 17.86, 6.2 15.89, 6.8 14.08 C7.4 12.28, 8.03 10.61, 8.69 9.13 C9.34 7.65, 10.03 6.32, 10.73 5.19 C11.43 4.05, 12.15 3.09, 12.88 2.32 C13.61 1.55, 14.36 0.97, 15.11 0.58 C15.86 0.2, 16.62 0, 17.38 0 C18.13 0, 18.9 0.2, 19.65 0.58 C20.4 0.97, 21.15 1.55, 21.88 2.32 C22.61 3.09, 23.33 4.05, 24.03 5.19 C24.73 6.32, 25.41 7.65, 26.07 9.13 C26.72 10.61, 27.36 12.28, 27.96 14.08 C28.56 15.89, 29.13 17.86, 29.67 19.96 C30.2 22.06, 30.7 24.31, 31.16 26.66 C31.63 29.01, 32.05 31.5, 32.43 34.07 C32.81 36.64, 33.14 39.33, 33.43 42.07 C33.72 44.81, 33.97 47.64, 34.16 50.51 C34.36 53.37, 34.51 56.31, 34.61 59.25 C34.71 62.19, 34.73 66.66, 34.76 68.14 C34.78 69.63, 34.78 66.66, 34.76 68.14" stroke="#ff8787" stroke-width="4" fill="none"/></g><g stroke-linecap="round" transform="translate(20.11154494898304 234.96733358539413) rotate(0 17.377937804311614 68.1434662986924)"><path d="M34.76 68.14 C34.76 71.11, 34.71 74.1, 34.61 77.04 C34.51 79.98, 34.36 82.92, 34.16 85.78 C33.97 88.64, 33.72 91.48, 33.43 94.22 C33.14 96.96, 32.81 99.65, 32.43 102.22 C32.05 104.78, 31.63 107.27, 31.16 109.63 C30.7 111.98, 30.2 114.23, 29.67 116.33 C29.13 118.42, 28.56 120.4, 27.96 122.21 C27.36 124.01, 26.72 125.68, 26.07 127.16 C25.41 128.64, 24.73 129.97, 24.03 131.1 C23.33 132.23, 22.61 133.2, 21.88 133.97 C21.15 134.73, 20.4 135.32, 19.65 135.7 C18.9 136.09, 18.13 136.29, 17.38 136.29 C16.62 136.29, 15.86 136.09, 15.11 135.7 C14.36 135.32, 13.61 134.73, 12.88 133.97 C12.15 133.2, 11.43 132.23, 10.73 131.1 C10.03 129.97, 9.34 128.64, 8.69 127.16 C8.03 125.68, 7.4 124.01, 6.8 122.21 C6.2 120.4, 5.62 118.42, 5.09 116.33 C4.56 114.23, 4.05 111.98, 3.59 109.63 C3.13 107.27, 2.71 104.78, 2.33 102.22 C1.95 99.65, 1.61 96.96, 1.32 94.22 C1.03 91.48, 0.79 88.64, 0.59 85.78 C0.4 82.92, 0.25 79.98, 0.15 77.04 C0.05 74.1, 0 71.11, 0 68.14 C0 65.18, 0.05 62.19, 0.15 59.25 C0.25 56.31, 0.4 53.37, 0.59 50.51 C0.79 47.64, 1.03 44.81, 1.32 42.07 C1.61 39.33, 1.95 36.64, 2.33 34.07 C2.71 31.5, 3.13 29.01, 3.59 26.66 C4.05 24.31, 4.56 22.06, 5.09 19.96 C5.62 17.86, 6.2 15.89, 6.8 14.08 C7.4 12.28, 8.03 10.61, 8.69 9.13 C9.34 7.65, 10.03 6.32, 10.73 5.19 C11.43 4.05, 12.15 3.09, 12.88 2.32 C13.61 1.55, 14.36 0.97, 15.11 0.58 C15.86 0.2, 16.62 0, 17.38 0 C18.13 0, 18.9 0.2, 19.65 0.58 C20.4 0.97, 21.15 1.55, 21.88 2.32 C22.61 3.09, 23.33 4.05, 24.03 5.19 C24.73 6.32, 25.41 7.65, 26.07 9.13 C26.72 10.61, 27.36 12.28, 27.96 14.08 C28.56 15.89, 29.13 17.86, 29.67 19.96 C30.2 22.06, 30.7 24.31, 31.16 26.66 C31.63 29.01, 32.05 31.5, 32.43 34.07 C32.81 36.64, 33.14 39.33, 33.43 42.07 C33.72 44.81, 33.97 47.64, 34.16 50.51 C34.36 53.37, 34.51 56.31, 34.61 59.25 C34.71 62.19, 34.73 66.66, 34.76 68.14 C34.78 69.63, 34.78 66.66, 34.76 68.14" stroke="#ff8787" stroke-width="4" fill="none"/></g><g stroke-linecap="round"><g transform="translate(284.80733606659624 228.62230909734342) rotate(0 0 -68.32354830620959)"><path d="M0 0 C0 -38.56, 0 -77.12, 0 -136.65" stroke="#e03131" stroke-width="4.5" fill="none" stroke-dasharray="8 12"/></g></g><mask/><g stroke-linecap="round"><g transform="translate(99.78203137772718 232.44161234514078) rotate(0 0 -68.32354830620959)"><path d="M0 0 C0 -34.29, 0 -68.58, 0 -136.65" stroke="#e03131" stroke-width="4.5" fill="none" stroke-dasharray="8 12"/></g></g><mask/></svg>