<svg version="1.1" xmlns="http://www.w3.org/2000/svg" viewBox="0 0 310.401611328125 201.520263671875" width="310.401611328125" height="201.520263671875" filter="invert(93%) hue-rotate(180deg)">
  <!-- svg-source:excalidraw -->
  
  <defs>
    <style class="style-fonts">
      @font-face {
        font-family: "Virgil";
        src: url("https://excalidraw.com/Virgil.woff2");
      }
      @font-face {
        font-family: "Cascadia";
        src: url("https://excalidraw.com/Cascadia.woff2");
      }
    </style>
  </defs>
  <rect x="0" y="0" width="310.401611328125" height="201.520263671875" fill="#ffffff"/><g transform="translate(185.6656494140625 10) rotate(0 6.5234375 11.5)"><text x="0" y="0" font-family="Helvetica, Segoe UI Emoji" font-size="20px" fill="#000000" text-anchor="start" style="white-space: pre;" direction="ltr" dominant-baseline="text-before-edge">A</text></g><g stroke-linecap="round" transform="translate(171.94793701171875 30.509246826171875) rotate(0 6.8588104248046875 6.8588104248046875)"><path d="M1.47 2.6 C1.47 2.6, 1.47 2.6, 1.47 2.6 M1.47 2.6 C1.47 2.6, 1.47 2.6, 1.47 2.6 M0.55 9.76 C3.07 6.86, 5.58 3.97, 8.43 0.7 M0.55 9.76 C2.96 6.99, 5.36 4.23, 8.43 0.7 M2.92 13.14 C5.83 9.78, 8.75 6.42, 12.1 2.57 M2.92 13.14 C5.72 9.91, 8.52 6.69, 12.1 2.57 M7.25 14.25 C9.79 11.32, 12.34 8.39, 14.46 5.95 M7.25 14.25 C9.92 11.18, 12.59 8.11, 14.46 5.95" stroke="#fa5252" stroke-width="0.5" fill="none"/><path d="M13.72 6.86 C13.72 7.26, 13.68 7.66, 13.61 8.05 C13.54 8.44, 13.44 8.83, 13.3 9.2 C13.17 9.58, 13 9.94, 12.8 10.29 C12.6 10.63, 12.37 10.96, 12.11 11.27 C11.86 11.57, 11.57 11.86, 11.27 12.11 C10.96 12.37, 10.63 12.6, 10.29 12.8 C9.94 13, 9.58 13.17, 9.2 13.3 C8.83 13.44, 8.44 13.54, 8.05 13.61 C7.66 13.68, 7.26 13.72, 6.86 13.72 C6.46 13.72, 6.06 13.68, 5.67 13.61 C5.28 13.54, 4.89 13.44, 4.51 13.3 C4.14 13.17, 3.77 13, 3.43 12.8 C3.09 12.6, 2.75 12.37, 2.45 12.11 C2.15 11.86, 1.86 11.57, 1.6 11.27 C1.35 10.96, 1.12 10.63, 0.92 10.29 C0.72 9.94, 0.55 9.58, 0.41 9.2 C0.28 8.83, 0.17 8.44, 0.1 8.05 C0.04 7.66, 0 7.26, 0 6.86 C0 6.46, 0.04 6.06, 0.1 5.67 C0.17 5.28, 0.28 4.89, 0.41 4.51 C0.55 4.14, 0.72 3.77, 0.92 3.43 C1.12 3.09, 1.35 2.75, 1.6 2.45 C1.86 2.15, 2.15 1.86, 2.45 1.6 C2.75 1.35, 3.09 1.12, 3.43 0.92 C3.77 0.72, 4.14 0.55, 4.51 0.41 C4.89 0.28, 5.28 0.17, 5.67 0.1 C6.06 0.04, 6.46 0, 6.86 0 C7.26 0, 7.66 0.04, 8.05 0.1 C8.44 0.17, 8.83 0.28, 9.2 0.41 C9.58 0.55, 9.94 0.72, 10.29 0.92 C10.63 1.12, 10.96 1.35, 11.27 1.6 C11.57 1.86, 11.86 2.15, 12.11 2.45 C12.37 2.75, 12.6 3.09, 12.8 3.43 C13 3.77, 13.17 4.14, 13.3 4.51 C13.44 4.89, 13.54 5.28, 13.61 5.67 C13.68 6.06, 13.7 6.66, 13.72 6.86 C13.73 7.06, 13.73 6.66, 13.72 6.86" stroke="#000000" stroke-width="1" fill="none"/></g><g stroke-linecap="round"><g transform="translate(178.20748901367188 41.363250732421875) rotate(0 55.90266418457031 0)"><path d="M0 0 C22.4 0, 44.79 0, 111.81 0 M0 0 C39.23 0, 78.47 0, 111.81 0" stroke="#c92a2a" stroke-width="1" fill="none"/></g><g transform="translate(178.20748901367188 41.363250732421875) rotate(0 55.90266418457031 0)"><path d="M111.81 0 L98.21 6.34 L98.21 -6.34 L111.81 0" stroke="none" stroke-width="0" fill="#c92a2a" fill-rule="evenodd"/><path d="M111.81 0 C109.08 1.27, 106.36 2.54, 98.21 6.34 M111.81 0 C107.03 2.22, 102.26 4.45, 98.21 6.34 M98.21 6.34 C98.21 2.06, 98.21 -2.23, 98.21 -6.34 M98.21 6.34 C98.21 3.21, 98.21 0.09, 98.21 -6.34 M98.21 -6.34 C101.37 -4.86, 104.54 -3.39, 111.81 0 M98.21 -6.34 C101.06 -5.01, 103.91 -3.68, 111.81 0 M111.81 0 C111.81 0, 111.81 0, 111.81 0 M111.81 0 C111.81 0, 111.81 0, 111.81 0" stroke="#c92a2a" stroke-width="1" fill="none"/></g></g><mask/><g transform="translate(289.346923828125 14.128570556640625) rotate(0 5.52734375 11.5)"><text x="0" y="0" font-family="Helvetica, Segoe UI Emoji" font-size="20px" fill="#c92a2a" text-anchor="start" style="white-space: pre;" direction="ltr" dominant-baseline="text-before-edge">F</text></g><g stroke-linecap="round"><g transform="translate(123.070556640625 78.78598022460938) rotate(0 27.435287475585938 10.487686157226562)"><path d="M0 0 C4.01 2.35, 14.89 10.62, 24.04 14.12 C33.18 17.61, 49.73 19.83, 54.87 20.98 M0 0 C4.01 2.35, 14.89 10.62, 24.04 14.12 C33.18 17.61, 49.73 19.83, 54.87 20.98" stroke="#c92a2a" stroke-width="1" fill="none"/></g></g><mask/><g transform="translate(150.23944091796875 67.93206787109375) rotate(0 11.240234375 11.5)"><text x="0" y="0" font-family="Helvetica, Segoe UI Emoji" font-size="20px" fill="#c92a2a" text-anchor="start" style="white-space: pre;" direction="ltr" dominant-baseline="text-before-edge">60</text></g><g stroke-linecap="round"><g transform="translate(177.67471313476562 39.432159423828125) rotate(0 0 76.04405212402344)"><path d="M0 0 C0 25.35, 0 126.74, 0 152.09 M0 0 C0 25.35, 0 126.74, 0 152.09" stroke="#c92a2a" stroke-width="1" fill="none"/></g><g transform="translate(177.67471313476562 39.432159423828125) rotate(0 0 76.04405212402344)"><path d="M0 152.09 L-6.34 138.49 L6.34 138.49 L0 152.09" stroke="none" stroke-width="0" fill="#c92a2a" fill-rule="evenodd"/><path d="M0 152.09 C-1.98 147.84, -3.96 143.6, -6.34 138.49 M0 152.09 C-2.13 147.51, -4.27 142.94, -6.34 138.49 M-6.34 138.49 C-3.62 138.49, -0.89 138.49, 6.34 138.49 M-6.34 138.49 C-1.64 138.49, 3.07 138.49, 6.34 138.49 M6.34 138.49 C5.06 141.24, 3.78 143.98, 0 152.09 M6.34 138.49 C5.06 141.25, 3.77 144, 0 152.09 M0 152.09 C0 152.09, 0 152.09, 0 152.09 M0 152.09 C0 152.09, 0 152.09, 0 152.09" stroke="#c92a2a" stroke-width="1" fill="none"/></g></g><mask/><g stroke-linecap="round"><g transform="translate(174.81134033203125 37.1015625) rotate(0 -82.40567016601562 61.7275390625)"><path d="M0 0 C-27.47 20.58, -137.34 102.88, -164.81 123.46 M0 0 C-27.47 20.58, -137.34 102.88, -164.81 123.46" stroke="#c92a2a" stroke-width="1" fill="none"/></g><g transform="translate(174.81134033203125 37.1015625) rotate(0 -82.40567016601562 61.7275390625)"><path d="M-164.81 123.46 L-157.73 110.23 L-150.13 120.38 L-164.81 123.46" stroke="none" stroke-width="0" fill="#c92a2a" fill-rule="evenodd"/><path d="M-164.81 123.46 C-162.94 119.96, -161.07 116.47, -157.73 110.23 M-164.81 123.46 C-163.1 120.26, -161.39 117.06, -157.73 110.23 M-157.73 110.23 C-156.06 112.46, -154.4 114.68, -150.13 120.38 M-157.73 110.23 C-155 113.88, -152.26 117.53, -150.13 120.38 M-150.13 120.38 C-154.97 121.39, -159.81 122.41, -164.81 123.46 M-150.13 120.38 C-155.86 121.58, -161.6 122.78, -164.81 123.46 M-164.81 123.46 C-164.81 123.46, -164.81 123.46, -164.81 123.46 M-164.81 123.46 C-164.81 123.46, -164.81 123.46, -164.81 123.46" stroke="#c92a2a" stroke-width="1" fill="none"/></g></g><mask/><g transform="translate(199.25006103515625 139.51467895507812) rotate(0 12.75390625 11.5)"><text x="0" y="0" font-family="Helvetica, Segoe UI Emoji" font-size="20px" fill="#c92a2a" text-anchor="start" style="white-space: pre;" direction="ltr" dominant-baseline="text-before-edge">AB</text></g><g transform="translate(73.52728271484375 71.3946533203125) rotate(0 12.978515625 11.5)"><text x="0" y="0" font-family="Helvetica, Segoe UI Emoji" font-size="20px" fill="#c92a2a" text-anchor="start" style="white-space: pre;" direction="ltr" dominant-baseline="text-before-edge">AC</text></g></svg>