<svg version="1.1" xmlns="http://www.w3.org/2000/svg" viewBox="0 0 320 260" width="320" height="260" filter="invert(93%) hue-rotate(180deg)" class="excalidraw-svg">
  <!-- svg-source:excalidraw -->
  
  <defs>
    <style class="style-fonts">
      
    </style>
    
  </defs>
  <g stroke-linecap="round"><g transform="translate(70 249.99999999999957) rotate(0 100.00000000000007 -99.99999999999979)"><path d="M0 0 C0.27 -5.41, 0.53 -10.81, 0.96 -19.6 M0 0 C0.35 -7.06, 0.69 -14.12, 0.96 -19.6 M0.96 -19.6 C1.55 -23.56, 2.14 -27.51, 3.84 -39.02 M0.96 -19.6 C2.03 -26.82, 3.11 -34.04, 3.84 -39.02 M3.84 -39.02 C5.5 -45.62, 7.15 -52.23, 8.61 -58.06 M3.84 -39.02 C5.25 -44.65, 6.67 -50.29, 8.61 -58.06 M8.61 -58.06 C10.22 -62.56, 11.83 -67.06, 15.22 -76.54 M8.61 -58.06 C11.05 -64.88, 13.49 -71.7, 15.22 -76.54 M15.22 -76.54 C17.56 -81.47, 19.89 -86.4, 23.62 -94.28 M15.22 -76.54 C17.34 -81, 19.45 -85.47, 23.62 -94.28 M23.62 -94.28 C25.8 -97.92, 27.98 -101.57, 33.71 -111.11 M23.62 -94.28 C27.07 -100.04, 30.53 -105.81, 33.71 -111.11 M33.71 -111.11 C36.53 -114.92, 39.35 -118.73, 45.4 -126.88 M33.71 -111.11 C38.32 -117.33, 42.93 -123.54, 45.4 -126.88 M45.4 -126.88 C49.16 -131.03, 52.92 -135.18, 58.58 -141.42 M45.4 -126.88 C48.44 -130.23, 51.48 -133.59, 58.58 -141.42 M58.58 -141.42 C62.43 -144.92, 66.29 -148.41, 73.12 -154.6 M58.58 -141.42 C63.82 -146.17, 69.06 -150.92, 73.12 -154.6 M73.12 -154.6 C76.55 -157.14, 79.97 -159.68, 88.89 -166.29 M73.12 -154.6 C77.75 -158.03, 82.37 -161.46, 88.89 -166.29 M88.89 -166.29 C94.47 -169.64, 100.05 -172.98, 105.72 -176.38 M88.89 -166.29 C94.9 -169.9, 100.91 -173.5, 105.72 -176.38 M105.72 -176.38 C110.78 -178.78, 115.83 -181.17, 123.46 -184.78 M105.72 -176.38 C109.46 -178.15, 113.19 -179.92, 123.46 -184.78 M123.46 -184.78 C128.59 -186.61, 133.71 -188.44, 141.94 -191.39 M123.46 -184.78 C128.3 -186.51, 133.14 -188.24, 141.94 -191.39 M141.94 -191.39 C148.89 -193.13, 155.83 -194.87, 160.98 -196.16 M141.94 -191.39 C149.22 -193.21, 156.5 -195.03, 160.98 -196.16 M160.98 -196.16 C166.7 -197, 172.41 -197.85, 180.4 -199.04 M160.98 -196.16 C167.25 -197.09, 173.51 -198.02, 180.4 -199.04 M180.4 -199.04 C185.07 -199.27, 189.75 -199.5, 200 -200 M180.4 -199.04 C184.88 -199.26, 189.37 -199.48, 200 -200" stroke="#1e1e1e" stroke-width="4" fill="none"/></g></g><mask/><g stroke-linecap="round"><g transform="translate(70 250) rotate(0 100 -100)"><path d="M0 0 C79.17 0, 158.34 0, 200 0 M0 0 C42.99 0, 85.98 0, 200 0 M200 0 C200 -79.54, 200 -159.07, 200 -200 M200 0 C200 -73.64, 200 -147.28, 200 -200" stroke="#1e1e1e" stroke-width="4" fill="none"/></g></g><mask/><g stroke-linecap="round"><g transform="translate(310 70) rotate(0 -10 0)"><path d="M0 0 C-3.33 0, -16.67 0, -20 0 M0 0 C-3.33 0, -16.67 0, -20 0" stroke="#e03131" stroke-width="4" fill="none"/></g><g transform="translate(310 70) rotate(0 -10 0)"><path d="M-20 0 L-10.94 -4.23 L-10.94 4.23 L-20 0" stroke="none" stroke-width="0" fill="#e03131" fill-rule="evenodd"/><path d="M-20 0 C-17.81 -1.02, -15.62 -2.04, -10.94 -4.23 M-20 0 C-16.43 -1.67, -12.85 -3.33, -10.94 -4.23 M-10.94 -4.23 C-10.94 -1.82, -10.94 0.6, -10.94 4.23 M-10.94 -4.23 C-10.94 -2.28, -10.94 -0.33, -10.94 4.23 M-10.94 4.23 C-13.34 3.11, -15.74 1.98, -20 0 M-10.94 4.23 C-14.2 2.7, -17.47 1.18, -20 0 M-20 0 C-20 0, -20 0, -20 0 M-20 0 C-20 0, -20 0, -20 0" stroke="#e03131" stroke-width="4" fill="none"/></g></g><mask/><g stroke-linecap="round"><g transform="translate(310 110) rotate(0 -10 0)"><path d="M0 0 C-3.33 0, -16.67 0, -20 0 M0 0 C-3.33 0, -16.67 0, -20 0" stroke="#e03131" stroke-width="4" fill="none"/></g><g transform="translate(310 110) rotate(0 -10 0)"><path d="M-20 0 L-10.94 -4.23 L-10.94 4.23 L-20 0" stroke="none" stroke-width="0" fill="#e03131" fill-rule="evenodd"/><path d="M-20 0 C-16.8 -1.49, -13.61 -2.98, -10.94 -4.23 M-20 0 C-17.99 -0.94, -15.98 -1.87, -10.94 -4.23 M-10.94 -4.23 C-10.94 -2.46, -10.94 -0.7, -10.94 4.23 M-10.94 -4.23 C-10.94 -1.58, -10.94 1.08, -10.94 4.23 M-10.94 4.23 C-13.68 2.95, -16.43 1.66, -20 0 M-10.94 4.23 C-13.54 3.01, -16.14 1.8, -20 0 M-20 0 C-20 0, -20 0, -20 0 M-20 0 C-20 0, -20 0, -20 0" stroke="#e03131" stroke-width="4" fill="none"/></g></g><mask/><g stroke-linecap="round"><g transform="translate(310 150) rotate(0 -10 0)"><path d="M0 0 C-3.33 0, -16.67 0, -20 0 M0 0 C-3.33 0, -16.67 0, -20 0" stroke="#e03131" stroke-width="4" fill="none"/></g><g transform="translate(310 150) rotate(0 -10 0)"><path d="M-20 0 L-10.94 -4.23 L-10.94 4.23 L-20 0" stroke="none" stroke-width="0" fill="#e03131" fill-rule="evenodd"/><path d="M-20 0 C-18.11 -0.88, -16.21 -1.77, -10.94 -4.23 M-20 0 C-17.16 -1.33, -14.32 -2.65, -10.94 -4.23 M-10.94 -4.23 C-10.94 -1.66, -10.94 0.9, -10.94 4.23 M-10.94 -4.23 C-10.94 -1.8, -10.94 0.62, -10.94 4.23 M-10.94 4.23 C-13.34 3.1, -15.75 1.98, -20 0 M-10.94 4.23 C-13.83 2.88, -16.72 1.53, -20 0 M-20 0 C-20 0, -20 0, -20 0 M-20 0 C-20 0, -20 0, -20 0" stroke="#e03131" stroke-width="4" fill="none"/></g></g><mask/><g stroke-linecap="round"><g transform="translate(310 190) rotate(0 -10 0)"><path d="M0 0 C-3.33 0, -16.67 0, -20 0 M0 0 C-3.33 0, -16.67 0, -20 0" stroke="#e03131" stroke-width="4" fill="none"/></g><g transform="translate(310 190) rotate(0 -10 0)"><path d="M-20 0 L-10.94 -4.23 L-10.94 4.23 L-20 0" stroke="none" stroke-width="0" fill="#e03131" fill-rule="evenodd"/><path d="M-20 0 C-16.82 -1.48, -13.64 -2.97, -10.94 -4.23 M-20 0 C-16.57 -1.6, -13.14 -3.2, -10.94 -4.23 M-10.94 -4.23 C-10.94 -0.96, -10.94 2.31, -10.94 4.23 M-10.94 -4.23 C-10.94 -1.26, -10.94 1.7, -10.94 4.23 M-10.94 4.23 C-14.27 2.67, -17.61 1.12, -20 0 M-10.94 4.23 C-14.08 2.76, -17.22 1.3, -20 0 M-20 0 C-20 0, -20 0, -20 0 M-20 0 C-20 0, -20 0, -20 0" stroke="#e03131" stroke-width="4" fill="none"/></g></g><mask/><g stroke-linecap="round"><g transform="translate(310 230) rotate(0 -10 0)"><path d="M0 0 C-3.33 0, -16.67 0, -20 0 M0 0 C-3.33 0, -16.67 0, -20 0" stroke="#e03131" stroke-width="4" fill="none"/></g><g transform="translate(310 230) rotate(0 -10 0)"><path d="M-20 0 L-10.94 -4.23 L-10.94 4.23 L-20 0" stroke="none" stroke-width="0" fill="#e03131" fill-rule="evenodd"/><path d="M-20 0 C-18.08 -0.9, -16.16 -1.79, -10.94 -4.23 M-20 0 C-17.99 -0.94, -15.97 -1.88, -10.94 -4.23 M-10.94 -4.23 C-10.94 -2.05, -10.94 0.12, -10.94 4.23 M-10.94 -4.23 C-10.94 -1.99, -10.94 0.26, -10.94 4.23 M-10.94 4.23 C-13.45 3.05, -15.97 1.88, -20 0 M-10.94 4.23 C-14.13 2.74, -17.33 1.25, -20 0 M-20 0 C-20 0, -20 0, -20 0 M-20 0 C-20 0, -20 0, -20 0" stroke="#e03131" stroke-width="4" fill="none"/></g></g><mask/><g stroke-linecap="round"><g transform="translate(10 230) rotate(0 20 0)"><path d="M0 0 C6.67 0, 33.33 0, 40 0 M0 0 C6.67 0, 33.33 0, 40 0" stroke="#e03131" stroke-width="4" fill="none"/></g><g transform="translate(10 230) rotate(0 20 0)"><path d="M40 0 L26.41 6.34 L26.41 -6.34 L40 0" stroke="none" stroke-width="0" fill="#e03131" fill-rule="evenodd"/><path d="M40 0 C34.9 2.38, 29.8 4.76, 26.41 6.34 M40 0 C36.68 1.55, 33.36 3.1, 26.41 6.34 M26.41 6.34 C26.41 1.35, 26.41 -3.63, 26.41 -6.34 M26.41 6.34 C26.41 1.63, 26.41 -3.07, 26.41 -6.34 M26.41 -6.34 C29.89 -4.72, 33.37 -3.09, 40 0 M26.41 -6.34 C29.25 -5.01, 32.1 -3.68, 40 0 M40 0 C40 0, 40 0, 40 0 M40 0 C40 0, 40 0, 40 0" stroke="#e03131" stroke-width="4" fill="none"/></g></g><mask/><g stroke-linecap="round"><g transform="translate(171.53107160217513 30.158033738833552) rotate(0 3.671116290534364 9.16243824300755)"><path d="M0 0 C1.22 3.05, 6.12 15.27, 7.34 18.32 M0 0 C1.22 3.05, 6.12 15.27, 7.34 18.32" stroke="#e03131" stroke-width="4" fill="none"/></g><g transform="translate(171.53107160217513 30.158033738833552) rotate(0 3.671116290534364 9.16243824300755)"><path d="M7.34 18.32 L0.14 11.57 L7.89 8.47 L7.34 18.32" stroke="none" stroke-width="0" fill="#e03131" fill-rule="evenodd"/><path d="M7.34 18.32 C5.28 16.39, 3.21 14.45, 0.14 11.57 M7.34 18.32 C4.99 16.12, 2.64 13.91, 0.14 11.57 M0.14 11.57 C2.25 10.73, 4.37 9.88, 7.89 8.47 M0.14 11.57 C2.02 10.82, 3.9 10.07, 7.89 8.47 M7.89 8.47 C7.74 11.17, 7.59 13.86, 7.34 18.32 M7.89 8.47 C7.67 12.35, 7.46 16.24, 7.34 18.32 M7.34 18.32 C7.34 18.32, 7.34 18.32, 7.34 18.32 M7.34 18.32 C7.34 18.32, 7.34 18.32, 7.34 18.32" stroke="#e03131" stroke-width="4" fill="none"/></g></g><mask/><g stroke-linecap="round"><g transform="translate(88.0059135360782 84.74534097314577) rotate(0 9.371822257575928 9.267123304600808)"><path d="M0 0 C3.12 3.09, 15.62 15.45, 18.74 18.53 M0 0 C3.12 3.09, 15.62 15.45, 18.74 18.53" stroke="#e03131" stroke-width="4" fill="none"/></g><g transform="translate(88.0059135360782 84.74534097314577) rotate(0 9.371822257575928 9.267123304600808)"><path d="M18.74 18.53 L6.33 14.1 L14.17 6.17 L18.74 18.53" stroke="none" stroke-width="0" fill="#e03131" fill-rule="evenodd"/><path d="M18.74 18.53 C13.93 16.81, 9.12 15.09, 6.33 14.1 M18.74 18.53 C15.55 17.39, 12.35 16.25, 6.33 14.1 M6.33 14.1 C9.24 11.15, 12.15 8.21, 14.17 6.17 M6.33 14.1 C8.56 11.84, 10.79 9.59, 14.17 6.17 M14.17 6.17 C15.72 10.36, 17.27 14.55, 18.74 18.53 M14.17 6.17 C15.34 9.34, 16.51 12.5, 18.74 18.53 M18.74 18.53 C18.74 18.53, 18.74 18.53, 18.74 18.53 M18.74 18.53 C18.74 18.53, 18.74 18.53, 18.74 18.53" stroke="#e03131" stroke-width="4" fill="none"/></g></g><mask/><g stroke-linecap="round"><g transform="translate(270 10) rotate(0 0 10)"><path d="M0 0 C0 3.33, 0 16.67, 0 20 M0 0 C0 3.33, 0 16.67, 0 20" stroke="#e03131" stroke-width="4" fill="none"/></g><g transform="translate(270 10) rotate(0 0 10)"><path d="M0 20 L-4.23 10.94 L4.23 10.94 L0 20" stroke="none" stroke-width="0" fill="#e03131" fill-rule="evenodd"/><path d="M0 20 C-1.12 17.59, -2.24 15.19, -4.23 10.94 M0 20 C-1.06 17.73, -2.11 15.47, -4.23 10.94 M-4.23 10.94 C-2.14 10.94, -0.06 10.94, 4.23 10.94 M-4.23 10.94 C-1.29 10.94, 1.65 10.94, 4.23 10.94 M4.23 10.94 C2.76 14.08, 1.29 17.23, 0 20 M4.23 10.94 C3.32 12.88, 2.42 14.82, 0 20 M0 20 C0 20, 0 20, 0 20 M0 20 C0 20, 0 20, 0 20" stroke="#e03131" stroke-width="4" fill="none"/></g></g><mask/><g stroke-linecap="round"><g transform="translate(31.51095757574737 157.48765909354557) rotate(0 15.089569091516935 7.777381300983826)"><path d="M0 0 C5.03 2.59, 25.15 12.96, 30.18 15.55 M0 0 C5.03 2.59, 25.15 12.96, 30.18 15.55" stroke="#e03131" stroke-width="4" fill="none"/></g><g transform="translate(31.51095757574737 157.48765909354557) rotate(0 15.089569091516935 7.777381300983826)"><path d="M30.18 15.55 L15.19 14.96 L21 3.69 L30.18 15.55" stroke="none" stroke-width="0" fill="#e03131" fill-rule="evenodd"/><path d="M30.18 15.55 C26.43 15.41, 22.68 15.26, 15.19 14.96 M30.18 15.55 C26.48 15.41, 22.79 15.26, 15.19 14.96 M15.19 14.96 C17.21 11.04, 19.23 7.13, 21 3.69 M15.19 14.96 C17.21 11.05, 19.22 7.14, 21 3.69 M21 3.69 C22.96 6.23, 24.93 8.77, 30.18 15.55 M21 3.69 C24.19 7.82, 27.39 11.95, 30.18 15.55 M30.18 15.55 C30.18 15.55, 30.18 15.55, 30.18 15.55 M30.18 15.55 C30.18 15.55, 30.18 15.55, 30.18 15.55" stroke="#e03131" stroke-width="4" fill="none"/></g></g><mask/></svg>