<svg version="1.1" xmlns="http://www.w3.org/2000/svg" viewBox="0 0 420 520.0000000000001" width="420" height="520.0000000000001" filter="invert(93%) hue-rotate(180deg)" class="excalidraw-svg">
  <!-- svg-source:excalidraw -->
  
  <defs>
    <style class="style-fonts">
      
    </style>
    
  </defs>
  <g stroke-linecap="round"><g transform="translate(310 430.0000000000001) rotate(0 0 40.000000000000014)"><path d="M0 0 C0 28.13, 0 56.26, 0 80 M0 0 C0 22.53, 0 45.06, 0 80" stroke="#1e1e1e" stroke-width="4" fill="none"/></g></g><mask/><g stroke-linecap="round"><g transform="translate(290 450.0000000000001) rotate(0 0 20.000000000000014)"><path d="M0 0 C0 8.24, 0 16.47, 0 40 M0 0 C0 9.55, 0 19.1, 0 40" stroke="#1e1e1e" stroke-width="4" fill="none"/></g></g><mask/><g stroke-linecap="round"><g transform="translate(250 470.34360126561023) rotate(0 -80 -0.34360126561008997)"><path d="M0 0 C-6.5 0, -12.99 0, -22.02 0 M0 0 C-8.57 0, -17.15 0, -22.02 0 M-22.02 0 C-25.6 -7.71, -29.18 -15.42, -31.31 -20.01 M-22.02 0 C-25.03 -6.49, -28.05 -12.98, -31.31 -20.01 M-31.31 -20.01 C-34.22 -12.14, -37.13 -4.27, -45.53 18.43 M-31.31 -20.01 C-36.74 -5.33, -42.17 9.35, -45.53 18.43 M-45.53 18.43 C-50.51 4.21, -55.5 -10.01, -59.13 -20.34 M-45.53 18.43 C-50.4 4.55, -55.27 -9.34, -59.13 -20.34 M-59.13 -20.34 C-64.39 -5.34, -69.66 9.66, -72.77 18.52 M-59.13 -20.34 C-64.52 -4.99, -69.9 10.36, -72.77 18.52 M-72.77 18.52 C-75.57 10.53, -78.37 2.55, -86.27 -19.98 M-72.77 18.52 C-75.52 10.66, -78.28 2.81, -86.27 -19.98 M-86.27 -19.98 C-89.45 -10.93, -92.62 -1.87, -99.87 18.78 M-86.27 -19.98 C-91.53 -4.99, -96.79 10, -99.87 18.78 M-99.87 18.78 C-103.3 8.99, -106.73 -0.79, -113.43 -19.88 M-99.87 18.78 C-103.35 8.84, -106.84 -1.1, -113.43 -19.88 M-113.43 -19.88 C-117.38 -9.25, -121.32 1.37, -128.12 19.66 M-113.43 -19.88 C-118.77 -5.51, -124.11 8.85, -128.12 19.66 M-128.12 19.66 C-130.15 15.14, -132.19 10.63, -137.14 -0.34 M-128.12 19.66 C-130.92 13.45, -133.72 7.25, -137.14 -0.34 M-137.14 -0.34 C-142.61 -0.34, -148.08 -0.34, -160 -0.34 M-137.14 -0.34 C-143.54 -0.34, -149.94 -0.34, -160 -0.34" stroke="#1e1e1e" stroke-width="4" fill="none"/></g></g><mask/><g stroke-linecap="round"><g transform="translate(290 470.0000000000001) rotate(0 -20 0)"><path d="M0 0 C-11.47 0, -22.93 0, -40 0 M0 0 C-13.13 0, -26.26 0, -40 0" stroke="#1e1e1e" stroke-width="4" fill="none"/></g></g><mask/><g stroke-linecap="round"><g transform="translate(90 470.0000000000001) rotate(0 -40 -120)"><path d="M0 0 C-24.78 0, -49.55 0, -80 0 M0 0 C-22.99 0, -45.98 0, -80 0 M-80 0 C-80 -59.74, -80 -119.47, -80 -240 M-80 0 C-80 -88.2, -80 -176.4, -80 -240 M-80 -240 C-64.77 -240, -49.53 -240, -40 -240 M-80 -240 C-70.6 -240, -61.2 -240, -40 -240" stroke="#1e1e1e" stroke-width="4" fill="none"/></g></g><mask/><g stroke-linecap="round"><g transform="translate(210 230.3436012656102) rotate(0 -80 -0.34360126561007576)"><path d="M0 0 C-4.43 0, -8.85 0, -22.02 0 M0 0 C-7.47 0, -14.95 0, -22.02 0 M-22.02 0 C-25.32 -7.11, -28.62 -14.22, -31.31 -20.01 M-22.02 0 C-25.41 -7.31, -28.81 -14.63, -31.31 -20.01 M-31.31 -20.01 C-35.28 -9.27, -39.26 1.47, -45.53 18.43 M-31.31 -20.01 C-36.3 -6.53, -41.29 6.96, -45.53 18.43 M-45.53 18.43 C-49.67 6.62, -53.81 -5.19, -59.13 -20.34 M-45.53 18.43 C-49.14 8.12, -52.76 -2.2, -59.13 -20.34 M-59.13 -20.34 C-61.91 -12.42, -64.69 -4.49, -72.77 18.52 M-59.13 -20.34 C-62.36 -11.13, -65.59 -1.92, -72.77 18.52 M-72.77 18.52 C-75.75 10.01, -78.74 1.49, -86.27 -19.98 M-72.77 18.52 C-76.39 8.19, -80.02 -2.15, -86.27 -19.98 M-86.27 -19.98 C-91.69 -4.54, -97.1 10.89, -99.87 18.78 M-86.27 -19.98 C-89.87 -9.73, -93.46 0.52, -99.87 18.78 M-99.87 18.78 C-102.64 10.88, -105.41 2.99, -113.43 -19.88 M-99.87 18.78 C-104.63 5.2, -109.39 -8.37, -113.43 -19.88 M-113.43 -19.88 C-117.29 -9.5, -121.14 0.88, -128.12 19.66 M-113.43 -19.88 C-117.81 -8.09, -122.19 3.7, -128.12 19.66 M-128.12 19.66 C-131.55 12.06, -134.97 4.47, -137.14 -0.34 M-128.12 19.66 C-130.29 14.84, -132.46 10.02, -137.14 -0.34 M-137.14 -0.34 C-143.39 -0.34, -149.65 -0.34, -160 -0.34 M-137.14 -0.34 C-144.04 -0.34, -150.93 -0.34, -160 -0.34" stroke="#1e1e1e" stroke-width="4" fill="none"/></g></g><mask/><g stroke-linecap="round"><g transform="translate(370 230.3436012656102) rotate(0 -80 -0.34360126561007576)"><path d="M0 0 C-5.55 0, -11.1 0, -22.02 0 M0 0 C-6.62 0, -13.25 0, -22.02 0 M-22.02 0 C-25.12 -6.68, -28.22 -13.35, -31.31 -20.01 M-22.02 0 C-24.54 -5.44, -27.07 -10.87, -31.31 -20.01 M-31.31 -20.01 C-34.47 -11.48, -37.62 -2.95, -45.53 18.43 M-31.31 -20.01 C-34.69 -10.87, -38.07 -1.73, -45.53 18.43 M-45.53 18.43 C-50.65 3.82, -55.77 -10.78, -59.13 -20.34 M-45.53 18.43 C-49.67 6.6, -53.82 -5.22, -59.13 -20.34 M-59.13 -20.34 C-63.86 -6.86, -68.59 6.62, -72.77 18.52 M-59.13 -20.34 C-63.73 -7.22, -68.34 5.9, -72.77 18.52 M-72.77 18.52 C-76.8 7.03, -80.83 -4.47, -86.27 -19.98 M-72.77 18.52 C-77.92 3.82, -83.08 -10.88, -86.27 -19.98 M-86.27 -19.98 C-89.58 -10.54, -92.89 -1.11, -99.87 18.78 M-86.27 -19.98 C-91.53 -5, -96.78 9.97, -99.87 18.78 M-99.87 18.78 C-104.84 4.6, -109.81 -9.57, -113.43 -19.88 M-99.87 18.78 C-102.92 10.07, -105.98 1.37, -113.43 -19.88 M-113.43 -19.88 C-117.18 -9.8, -120.92 0.28, -128.12 19.66 M-113.43 -19.88 C-116.64 -11.23, -119.85 -2.59, -128.12 19.66 M-128.12 19.66 C-130.15 15.16, -132.18 10.66, -137.14 -0.34 M-128.12 19.66 C-131.33 12.53, -134.55 5.41, -137.14 -0.34 M-137.14 -0.34 C-145.17 -0.34, -153.19 -0.34, -160 -0.34 M-137.14 -0.34 C-142.11 -0.34, -147.08 -0.34, -160 -0.34" stroke="#1e1e1e" stroke-width="4" fill="none"/></g></g><mask/><g stroke-linecap="round"><g transform="translate(370 230.00000000000009) rotate(0 -10 120)"><path d="M0 0 C10.24 0, 20.48 0, 40 0 M0 0 C13.39 0, 26.77 0, 40 0 M40 0 C40 48.34, 40 96.67, 40 240 M40 0 C40 87.38, 40 174.77, 40 240 M40 240 C5.34 240, -29.32 240, -60 240 M40 240 C15.79 240, -8.42 240, -60 240" stroke="#1e1e1e" stroke-width="4" fill="none"/></g></g><mask/><g stroke-linecap="round"><g transform="translate(210 130.34360126561015) rotate(0 -80 -0.34360126561007576)"><path d="M0 0 C-5.61 0, -11.22 0, -22.02 0 M0 0 C-5.59 0, -11.18 0, -22.02 0 M-22.02 0 C-24.37 -5.06, -26.71 -10.11, -31.31 -20.01 M-22.02 0 C-24.74 -5.86, -27.46 -11.71, -31.31 -20.01 M-31.31 -20.01 C-36.95 -4.77, -42.59 10.48, -45.53 18.43 M-31.31 -20.01 C-35.62 -8.35, -39.93 3.31, -45.53 18.43 M-45.53 18.43 C-50.13 5.31, -54.73 -7.81, -59.13 -20.34 M-45.53 18.43 C-50.66 3.8, -55.79 -10.84, -59.13 -20.34 M-59.13 -20.34 C-62.03 -12.08, -64.93 -3.81, -72.77 18.52 M-59.13 -20.34 C-62.84 -9.77, -66.55 0.79, -72.77 18.52 M-72.77 18.52 C-77.7 4.47, -82.63 -9.59, -86.27 -19.98 M-72.77 18.52 C-75.89 9.61, -79.02 0.7, -86.27 -19.98 M-86.27 -19.98 C-91.45 -5.23, -96.62 9.51, -99.87 18.78 M-86.27 -19.98 C-90.48 -7.97, -94.7 4.04, -99.87 18.78 M-99.87 18.78 C-102.73 10.62, -105.59 2.47, -113.43 -19.88 M-99.87 18.78 C-105.18 3.63, -110.5 -11.52, -113.43 -19.88 M-113.43 -19.88 C-116.43 -11.81, -119.43 -3.74, -128.12 19.66 M-113.43 -19.88 C-118.07 -7.4, -122.7 5.07, -128.12 19.66 M-128.12 19.66 C-130.2 15.04, -132.29 10.42, -137.14 -0.34 M-128.12 19.66 C-130.77 13.78, -133.42 7.9, -137.14 -0.34 M-137.14 -0.34 C-144.33 -0.34, -151.51 -0.34, -160 -0.34 M-137.14 -0.34 C-142.54 -0.34, -147.94 -0.34, -160 -0.34" stroke="#1e1e1e" stroke-width="4" fill="none"/></g></g><mask/><g stroke-linecap="round"><g transform="translate(210 30.34360126561009) rotate(0 -80 -0.34360126561007576)"><path d="M0 0 C-8.48 0, -16.97 0, -22.02 0 M0 0 C-7.14 0, -14.28 0, -22.02 0 M-22.02 0 C-23.92 -4.1, -25.82 -8.2, -31.31 -20.01 M-22.02 0 C-25.57 -7.64, -29.12 -15.29, -31.31 -20.01 M-31.31 -20.01 C-36.52 -5.92, -41.74 8.18, -45.53 18.43 M-31.31 -20.01 C-36.4 -6.25, -41.49 7.51, -45.53 18.43 M-45.53 18.43 C-50.78 3.46, -56.03 -11.51, -59.13 -20.34 M-45.53 18.43 C-50.9 3.11, -56.27 -12.21, -59.13 -20.34 M-59.13 -20.34 C-61.96 -12.28, -64.79 -4.22, -72.77 18.52 M-59.13 -20.34 C-61.91 -12.41, -64.69 -4.48, -72.77 18.52 M-72.77 18.52 C-75.92 9.53, -79.07 0.54, -86.27 -19.98 M-72.77 18.52 C-77.99 3.63, -83.21 -11.26, -86.27 -19.98 M-86.27 -19.98 C-89.71 -10.17, -93.15 -0.36, -99.87 18.78 M-86.27 -19.98 C-89.77 -10.02, -93.26 -0.05, -99.87 18.78 M-99.87 18.78 C-103.51 8.39, -107.16 -1.99, -113.43 -19.88 M-99.87 18.78 C-104.8 4.73, -109.72 -9.31, -113.43 -19.88 M-113.43 -19.88 C-116.74 -10.96, -120.06 -2.04, -128.12 19.66 M-113.43 -19.88 C-117.99 -7.62, -122.54 4.64, -128.12 19.66 M-128.12 19.66 C-130.28 14.87, -132.44 10.09, -137.14 -0.34 M-128.12 19.66 C-130.64 14.06, -133.17 8.46, -137.14 -0.34 M-137.14 -0.34 C-144.54 -0.34, -151.94 -0.34, -160 -0.34 M-137.14 -0.34 C-142.97 -0.34, -148.79 -0.34, -160 -0.34" stroke="#1e1e1e" stroke-width="4" fill="none"/></g></g><mask/><g stroke-linecap="round"><g transform="translate(370 30.34360126561009) rotate(0 -80 -0.34360126561007576)"><path d="M0 0 C-5 0, -10 0, -22.02 0 M0 0 C-8.11 0, -16.22 0, -22.02 0 M-22.02 0 C-24.3 -4.92, -26.59 -9.84, -31.31 -20.01 M-22.02 0 C-24.2 -4.7, -26.38 -9.4, -31.31 -20.01 M-31.31 -20.01 C-34.87 -10.4, -38.42 -0.78, -45.53 18.43 M-31.31 -20.01 C-34.76 -10.68, -38.21 -1.35, -45.53 18.43 M-45.53 18.43 C-50.92 3.05, -56.32 -12.33, -59.13 -20.34 M-45.53 18.43 C-50.39 4.57, -55.25 -9.29, -59.13 -20.34 M-59.13 -20.34 C-63.47 -7.98, -67.81 4.39, -72.77 18.52 M-59.13 -20.34 C-63.44 -8.07, -67.74 4.21, -72.77 18.52 M-72.77 18.52 C-76.17 8.81, -79.58 -0.9, -86.27 -19.98 M-72.77 18.52 C-76.12 8.95, -79.48 -0.63, -86.27 -19.98 M-86.27 -19.98 C-89.94 -9.54, -93.6 0.91, -99.87 18.78 M-86.27 -19.98 C-89.02 -12.15, -91.77 -4.31, -99.87 18.78 M-99.87 18.78 C-102.6 10.99, -105.33 3.2, -113.43 -19.88 M-99.87 18.78 C-104.75 4.88, -109.62 -9.02, -113.43 -19.88 M-113.43 -19.88 C-117.38 -9.24, -121.34 1.4, -128.12 19.66 M-113.43 -19.88 C-118.78 -5.49, -124.12 8.9, -128.12 19.66 M-128.12 19.66 C-130.02 15.45, -131.92 11.24, -137.14 -0.34 M-128.12 19.66 C-131.18 12.87, -134.24 6.08, -137.14 -0.34 M-137.14 -0.34 C-144.2 -0.34, -151.26 -0.34, -160 -0.34 M-137.14 -0.34 C-142 -0.34, -146.86 -0.34, -160 -0.34" stroke="#1e1e1e" stroke-width="4" fill="none"/></g></g><mask/><g stroke-linecap="round"><g transform="translate(410 230.00000000000009) rotate(0 -20 -100)"><path d="M0 0 C0 -49.78, 0 -99.56, 0 -200 M0 0 C0 -73.5, 0 -147, 0 -200 M0 -200 C-15.23 -200, -30.47 -200, -40 -200 M0 -200 C-9.4 -200, -18.8 -200, -40 -200" stroke="#1e1e1e" stroke-width="4" fill="none"/></g></g><mask/><g stroke-linecap="round"><g transform="translate(10 230.00000000000009) rotate(0 20 -50)"><path d="M0 0 C0 -35.52, 0 -71.04, 0 -100 M0 0 C0 -36.54, 0 -73.09, 0 -100 M0 -100 C11.18 -100, 22.36 -100, 40 -100 M0 -100 C14.04 -100, 28.07 -100, 40 -100" stroke="#1e1e1e" stroke-width="4" fill="none"/></g></g><mask/><g stroke-linecap="round"><g transform="translate(10 130.00000000000009) rotate(0 20 -50)"><path d="M0 0 C0 -33.36, 0 -66.72, 0 -100 M0 0 C0 -27.16, 0 -54.33, 0 -100 M0 -100 C8.88 -100, 17.75 -100, 40 -100 M0 -100 C9.51 -100, 19.03 -100, 40 -100" stroke="#1e1e1e" stroke-width="4" fill="none"/></g></g><mask/><g stroke-linecap="round"><g transform="translate(210 130.00000000000009) rotate(0 0 50)"><path d="M0 0 C0 20.14, 0 40.28, 0 100 M0 0 C0 36.41, 0 72.82, 0 100" stroke="#1e1e1e" stroke-width="4" fill="none"/></g></g><mask/></svg>