<svg version="1.1" xmlns="http://www.w3.org/2000/svg" viewBox="0 0 367.53558349609375 404.2156066894531" width="367.53558349609375" height="404.2156066894531" filter="invert(93%) hue-rotate(180deg)">
  <!-- svg-source:excalidraw -->
  
  <defs>
    <style class="style-fonts">
      @font-face {
        font-family: "Virgil";
        src: url("https://excalidraw.com/Virgil.woff2");
      }
      @font-face {
        font-family: "Cascadia";
        src: url("https://excalidraw.com/Cascadia.woff2");
      }
    </style>
  </defs>
  <rect x="0" y="0" width="367.53558349609375" height="404.2156066894531" fill="transparent"/><g stroke-linecap="round"><g transform="translate(45.559326171875 10) rotate(0 -2.1316282072803006e-14 165.7720489501953)"><path d="M0 0 C0 55.26, 0 276.29, 0 331.54 M0 0 C0 55.26, 0 276.29, 0 331.54" stroke="#000000" stroke-width="1" fill="none"/></g></g><mask/><g stroke-linecap="round"><g transform="translate(10 295.0653381347656) rotate(0 173.76779174804688 0)"><path d="M0 0 C57.92 0, 289.61 0, 347.54 0 M0 0 C57.92 0, 289.61 0, 347.54 0" stroke="#000000" stroke-width="1" fill="none"/></g></g><mask/><g stroke-linecap="round"><g transform="translate(47.7568359375 296.7300720214844) rotate(0 55.67906994699397 -96.43897806637489)"><path d="M0 0 C18.56 -32.15, 92.8 -160.73, 111.36 -192.88 M0 0 C18.56 -32.15, 92.8 -160.73, 111.36 -192.88" stroke="#364fc7" stroke-width="1" fill="none"/></g><g transform="translate(47.7568359375 296.7300720214844) rotate(0 55.67906994699397 -96.43897806637489)"><path d="M106.15 -163.33 C108.09 -174.35, 110.03 -185.37, 111.36 -192.88 M106.15 -163.33 C107.61 -171.65, 109.08 -179.96, 111.36 -192.88" stroke="#364fc7" stroke-width="1" fill="none"/></g><g transform="translate(47.7568359375 296.7300720214844) rotate(0 55.67906994699397 -96.43897806637489)"><path d="M88.38 -173.59 C96.95 -180.78, 105.51 -187.97, 111.36 -192.88 M88.38 -173.59 C94.84 -179.02, 101.31 -184.44, 111.36 -192.88" stroke="#364fc7" stroke-width="1" fill="none"/></g></g><mask/><g stroke-linecap="round"><g transform="translate(46.2918701171875 296.9298400878906) rotate(0 82.83853149414062 48.64288330078125)"><path d="M0 0 C27.61 16.21, 138.06 81.07, 165.68 97.29 M0 0 C27.61 16.21, 138.06 81.07, 165.68 97.29" stroke="#c92a2a" stroke-width="1" fill="none"/></g><g transform="translate(46.2918701171875 296.9298400878906) rotate(0 82.83853149414062 48.64288330078125)"><path d="M136.17 91.86 C142.84 93.09, 149.51 94.31, 165.68 97.29 M136.17 91.86 C145.24 93.53, 154.31 95.2, 165.68 97.29" stroke="#c92a2a" stroke-width="1" fill="none"/></g><g transform="translate(46.2918701171875 296.9298400878906) rotate(0 82.83853149414062 48.64288330078125)"><path d="M146.56 74.16 C150.88 79.39, 155.21 84.62, 165.68 97.29 M146.56 74.16 C152.44 81.27, 158.31 88.38, 165.68 97.29" stroke="#c92a2a" stroke-width="1" fill="none"/></g></g><mask/><g transform="translate(144.24639892578125 181.79833984375) rotate(0 14.816375732421875 72.74790954589844)" stroke="none"><path fill="#c92a2a" d="M 1.41,-0.75 Q 1.41,-0.75 2.32,0.92 3.24,2.59 4.47,4.57 5.70,6.54 7.26,9.02 8.83,11.50 10.95,15.55 13.06,19.59 15.32,24.93 17.57,30.26 19.59,36.15 21.60,42.05 23.58,49.82 25.55,57.59 26.93,65.27 28.31,72.95 29.15,80.80 29.99,88.65 30.02,96.83 30.06,105.01 29.17,113.46 28.28,121.91 27.00,128.76 25.72,135.62 25.22,138.52 24.72,141.42 24.65,141.62 24.58,141.82 24.46,141.99 24.33,142.16 24.15,142.28 23.97,142.40 23.77,142.45 23.56,142.51 23.35,142.50 23.14,142.48 22.94,142.40 22.74,142.32 22.58,142.18 22.42,142.05 22.31,141.86 22.21,141.68 22.16,141.47 22.12,141.27 22.14,141.05 22.16,140.84 22.25,140.65 22.34,140.46 22.49,140.31 22.64,140.15 22.83,140.05 23.01,139.95 23.22,139.92 23.43,139.89 23.64,139.92 23.85,139.96 24.04,140.06 24.23,140.16 24.37,140.31 24.52,140.47 24.61,140.66 24.69,140.86 24.72,141.07 24.74,141.28 24.69,141.49 24.65,141.69 24.53,141.88 24.42,142.06 24.26,142.19 24.10,142.33 23.90,142.41 23.70,142.49 23.49,142.50 23.28,142.51 23.07,142.45 22.87,142.39 22.69,142.27 22.52,142.15 22.39,141.98 22.26,141.81 22.20,141.61 22.13,141.41 22.13,141.19 22.13,140.98 22.13,140.98 22.13,140.98 22.61,138.08 23.10,135.18 24.12,128.38 25.15,121.58 26.00,113.30 26.85,105.02 26.83,97.01 26.81,88.99 25.99,81.25 25.17,73.51 23.81,65.94 22.45,58.38 20.50,50.73 18.56,43.09 16.58,37.30 14.59,31.52 12.40,26.30 10.20,21.09 8.15,17.16 6.09,13.23 4.52,10.75 2.94,8.26 1.65,6.20 0.35,4.13 -0.52,2.44 -1.41,0.75 -1.48,0.57 -1.55,0.39 -1.57,0.20 -1.60,0.01 -1.58,-0.18 -1.55,-0.37 -1.49,-0.55 -1.42,-0.73 -1.31,-0.89 -1.20,-1.05 -1.06,-1.18 -0.91,-1.31 -0.74,-1.40 -0.57,-1.49 -0.39,-1.54 -0.20,-1.58 -0.01,-1.59 0.18,-1.59 0.36,-1.54 0.55,-1.50 0.72,-1.41 0.90,-1.32 1.04,-1.19 1.19,-1.07 1.30,-0.91 1.41,-0.75 1.41,-0.75 L 1.41,-0.75 Z"/></g><g transform="translate(141.71600341796875 176.9373779296875) rotate(0 0.133148193359375 -0.3995361328125)" stroke="none"><path fill="#c92a2a" d="M 1.54,-0.48 Q 1.54,-0.48 1.56,-0.09 1.58,0.29 1.43,0.64 1.27,0.99 0.96,1.23 0.66,1.47 0.28,1.54 -0.09,1.61 -0.46,1.49 -0.83,1.38 -1.10,1.10 -1.38,0.83 -1.49,0.46 -1.61,0.09 -1.54,-0.28 -1.47,-0.66 -1.23,-0.96 -0.99,-1.27 -0.64,-1.43 -0.29,-1.58 0.09,-1.56 0.48,-1.54 0.81,-1.34 1.14,-1.14 1.34,-0.81 L 1.54,-0.48 Z"/></g><g transform="translate(142.31524658203125 175.73876953125) rotate(0 6.32611083984375 4.4281463623046875)" stroke="none"><path fill="#c92a2a" d="M 0.85,1.28 Q 0.85,1.28 -0.25,2.09 -1.37,2.91 1.42,3.29 4.23,3.68 6.61,4.27 8.99,4.86 12.43,6.01 15.87,7.16 16.06,7.25 16.26,7.34 16.41,7.49 16.56,7.63 16.66,7.82 16.76,8.01 16.80,8.22 16.83,8.43 16.80,8.64 16.76,8.85 16.66,9.03 16.56,9.22 16.41,9.37 16.25,9.51 16.06,9.60 15.87,9.69 15.66,9.72 15.45,9.74 15.24,9.69 15.03,9.65 14.85,9.54 14.67,9.43 14.53,9.27 14.39,9.10 14.31,8.91 14.24,8.71 14.22,8.50 14.21,8.28 14.27,8.08 14.33,7.87 14.45,7.70 14.57,7.52 14.73,7.39 14.90,7.27 15.11,7.20 15.31,7.13 15.52,7.13 15.73,7.13 15.93,7.20 16.13,7.27 16.30,7.40 16.47,7.52 16.59,7.70 16.71,7.88 16.77,8.08 16.82,8.29 16.81,8.50 16.80,8.71 16.72,8.91 16.64,9.11 16.50,9.27 16.37,9.43 16.18,9.54 16.00,9.65 15.80,9.69 15.59,9.74 15.38,9.72 15.17,9.69 15.17,9.69 15.17,9.69 11.69,8.92 8.22,8.15 5.85,7.63 3.48,7.11 1.55,6.69 -0.38,6.27 -1.66,5.85 -2.95,5.44 -4.19,4.43 -5.42,3.43 -4.32,1.79 -3.21,0.15 -2.03,-0.56 -0.85,-1.28 -0.69,-1.37 -0.52,-1.45 -0.34,-1.49 -0.16,-1.54 0.02,-1.53 0.21,-1.53 0.39,-1.48 0.57,-1.43 0.73,-1.34 0.90,-1.26 1.03,-1.13 1.17,-1.00 1.27,-0.85 1.38,-0.69 1.44,-0.52 1.50,-0.34 1.52,-0.16 1.54,0.02 1.52,0.21 1.49,0.39 1.42,0.56 1.35,0.74 1.25,0.89 1.14,1.04 1.00,1.16 0.85,1.28 0.85,1.28 L 0.85,1.28 Z"/></g><g transform="translate(137.05462646484375 182.797119140625) rotate(0 1.098724365234375 4.7277984619140625)" stroke="none"><path fill="#c92a2a" d="M 1.55,-0.59 Q 1.55,-0.59 2.09,0.86 2.64,2.33 2.97,5.19 3.29,8.05 3.29,8.27 3.29,8.48 3.23,8.68 3.16,8.88 3.03,9.05 2.90,9.22 2.73,9.34 2.55,9.46 2.35,9.52 2.14,9.57 1.93,9.56 1.72,9.55 1.52,9.47 1.32,9.39 1.16,9.26 1.00,9.12 0.89,8.94 0.78,8.76 0.73,8.55 0.68,8.34 0.71,8.13 0.73,7.92 0.82,7.73 0.91,7.53 1.05,7.38 1.20,7.22 1.39,7.12 1.57,7.02 1.78,6.99 1.99,6.95 2.20,6.99 2.41,7.02 2.60,7.12 2.79,7.22 2.94,7.38 3.08,7.53 3.17,7.72 3.26,7.91 3.28,8.13 3.31,8.34 3.26,8.54 3.22,8.75 3.11,8.93 3.00,9.12 2.84,9.25 2.68,9.39 2.48,9.47 2.28,9.55 2.07,9.56 1.86,9.57 1.65,9.52 1.45,9.46 1.27,9.34 1.09,9.22 0.97,9.05 0.84,8.89 0.77,8.68 0.70,8.48 0.70,8.48 0.70,8.48 0.14,5.98 -0.42,3.48 -0.98,2.04 -1.55,0.59 -1.59,0.39 -1.64,0.20 -1.64,0.00 -1.64,-0.19 -1.60,-0.39 -1.55,-0.58 -1.46,-0.76 -1.36,-0.93 -1.23,-1.08 -1.10,-1.23 -0.93,-1.35 -0.77,-1.46 -0.58,-1.53 -0.40,-1.61 -0.20,-1.63 -0.00,-1.65 0.19,-1.63 0.39,-1.61 0.58,-1.54 0.76,-1.47 0.93,-1.35 1.09,-1.24 1.23,-1.09 1.36,-0.94 1.45,-0.76 1.55,-0.59 1.55,-0.59 L 1.55,-0.59 Z"/></g><g transform="translate(73.9268798828125 270.5608215332031) rotate(0 12.452423095703125 6.159423828125)" stroke="none"><path fill="#c92a2a" d="M 0.57,-1.52 Q 0.57,-1.52 2.26,-0.91 3.96,-0.31 5.71,0.28 7.46,0.88 9.44,1.70 11.41,2.53 13.69,3.67 15.97,4.81 18.38,6.32 20.80,7.84 22.82,9.23 24.84,10.63 25.00,10.77 25.16,10.90 25.27,11.09 25.39,11.27 25.43,11.47 25.48,11.68 25.46,11.89 25.43,12.10 25.35,12.30 25.26,12.49 25.11,12.65 24.97,12.80 24.78,12.90 24.59,13.00 24.38,13.04 24.17,13.07 23.96,13.04 23.75,13.00 23.57,12.91 23.38,12.81 23.23,12.65 23.08,12.50 22.99,12.31 22.90,12.12 22.88,11.90 22.86,11.69 22.90,11.49 22.95,11.28 23.05,11.10 23.16,10.91 23.32,10.77 23.49,10.64 23.68,10.56 23.88,10.48 24.09,10.46 24.30,10.45 24.51,10.51 24.71,10.56 24.89,10.68 25.07,10.80 25.20,10.97 25.33,11.14 25.39,11.34 25.46,11.54 25.46,11.75 25.46,11.97 25.40,12.17 25.33,12.37 25.20,12.54 25.07,12.71 24.90,12.83 24.72,12.95 24.52,13.01 24.31,13.06 24.10,13.05 23.89,13.04 23.69,12.96 23.49,12.89 23.50,12.89 23.50,12.89 21.29,11.76 19.08,10.64 16.76,9.26 14.44,7.87 12.26,6.79 10.07,5.70 8.21,4.90 6.34,4.09 4.56,3.47 2.77,2.84 1.10,2.18 -0.57,1.52 -0.74,1.43 -0.91,1.34 -1.06,1.21 -1.21,1.08 -1.32,0.92 -1.43,0.76 -1.50,0.57 -1.57,0.39 -1.60,0.20 -1.62,0.00 -1.60,-0.18 -1.57,-0.38 -1.51,-0.56 -1.44,-0.75 -1.33,-0.91 -1.22,-1.07 -1.07,-1.20 -0.92,-1.33 -0.75,-1.42 -0.58,-1.51 -0.39,-1.56 -0.20,-1.61 -0.00,-1.61 0.19,-1.61 0.38,-1.56 0.57,-1.52 0.57,-1.52 L 0.57,-1.52 Z"/></g><g transform="translate(98.69854736328125 293.7335510253906) rotate(0 -4.594757080078125 7.42462158203125)" stroke="none"><path fill="#c92a2a" d="M 1.38,0.87 Q 1.38,0.87 -0.84,4.35 -3.07,7.83 -5.14,10.97 -7.20,14.10 -7.34,14.26 -7.48,14.42 -7.66,14.53 -7.84,14.64 -8.05,14.69 -8.26,14.73 -8.47,14.71 -8.68,14.69 -8.87,14.60 -9.06,14.51 -9.22,14.36 -9.37,14.21 -9.47,14.03 -9.57,13.84 -9.61,13.63 -9.64,13.42 -9.61,13.21 -9.57,13.00 -9.47,12.81 -9.37,12.63 -9.22,12.48 -9.06,12.33 -8.87,12.24 -8.68,12.16 -8.47,12.13 -8.25,12.11 -8.05,12.16 -7.84,12.20 -7.66,12.31 -7.48,12.42 -7.34,12.58 -7.20,12.74 -7.12,12.94 -7.04,13.14 -7.03,13.35 -7.02,13.56 -7.08,13.77 -7.14,13.97 -7.25,14.15 -7.37,14.32 -7.54,14.45 -7.71,14.58 -7.91,14.65 -8.12,14.72 -8.33,14.72 -8.54,14.72 -8.74,14.65 -8.94,14.58 -9.11,14.45 -9.28,14.32 -9.40,14.15 -9.52,13.97 -9.58,13.77 -9.63,13.56 -9.62,13.35 -9.61,13.14 -9.53,12.94 -9.45,12.74 -9.45,12.74 -9.45,12.74 -7.63,9.42 -5.80,6.09 -3.59,2.60 -1.38,-0.87 -1.25,-1.03 -1.12,-1.18 -0.97,-1.30 -0.81,-1.42 -0.63,-1.49 -0.44,-1.57 -0.25,-1.60 -0.06,-1.63 0.13,-1.61 0.33,-1.60 0.52,-1.53 0.70,-1.47 0.87,-1.37 1.03,-1.26 1.17,-1.12 1.31,-0.97 1.41,-0.80 1.50,-0.63 1.56,-0.44 1.61,-0.25 1.62,-0.05 1.63,0.13 1.59,0.33 1.55,0.52 1.46,0.70 1.38,0.88 1.38,0.87 L 1.38,0.87 Z"/></g></svg>